%TF.GenerationSoftware,KiCad,Pcbnew,6.0.4-6f826c9f35~116~ubuntu20.04.1*%
%TF.CreationDate,2022-05-15T17:07:28+00:00*%
%TF.ProjectId,MPPB01B,4d505042-3031-4422-9e6b-696361645f70,**%
%TF.SameCoordinates,Original*%
%TF.FileFunction,Legend,Top*%
%TF.FilePolarity,Positive*%
%FSLAX46Y46*%
G04 Gerber Fmt 4.6, Leading zero omitted, Abs format (unit mm)*
G04 Created by KiCad (PCBNEW 6.0.4-6f826c9f35~116~ubuntu20.04.1) date 2022-05-15 17:07:28*
%MOMM*%
%LPD*%
G01*
G04 APERTURE LIST*
%ADD10C,0.150000*%
%ADD11R,1.524000X1.524000*%
G04 APERTURE END LIST*
D10*
X82441428Y3998405D02*
X82441428Y5298405D01*
X82874761Y4369834D01*
X83308095Y5298405D01*
X83308095Y3998405D01*
X83927142Y3998405D02*
X83927142Y5298405D01*
X84422380Y5298405D01*
X84546190Y5236500D01*
X84608095Y5174596D01*
X84670000Y5050786D01*
X84670000Y4865072D01*
X84608095Y4741262D01*
X84546190Y4679358D01*
X84422380Y4617453D01*
X83927142Y4617453D01*
X85227142Y3998405D02*
X85227142Y5298405D01*
X85722380Y5298405D01*
X85846190Y5236500D01*
X85908095Y5174596D01*
X85970000Y5050786D01*
X85970000Y4865072D01*
X85908095Y4741262D01*
X85846190Y4679358D01*
X85722380Y4617453D01*
X85227142Y4617453D01*
X86960476Y4679358D02*
X87146190Y4617453D01*
X87208095Y4555548D01*
X87270000Y4431739D01*
X87270000Y4246024D01*
X87208095Y4122215D01*
X87146190Y4060310D01*
X87022380Y3998405D01*
X86527142Y3998405D01*
X86527142Y5298405D01*
X86960476Y5298405D01*
X87084285Y5236500D01*
X87146190Y5174596D01*
X87208095Y5050786D01*
X87208095Y4926977D01*
X87146190Y4803167D01*
X87084285Y4741262D01*
X86960476Y4679358D01*
X86527142Y4679358D01*
X88074761Y5298405D02*
X88198571Y5298405D01*
X88322380Y5236500D01*
X88384285Y5174596D01*
X88446190Y5050786D01*
X88508095Y4803167D01*
X88508095Y4493643D01*
X88446190Y4246024D01*
X88384285Y4122215D01*
X88322380Y4060310D01*
X88198571Y3998405D01*
X88074761Y3998405D01*
X87950952Y4060310D01*
X87889047Y4122215D01*
X87827142Y4246024D01*
X87765238Y4493643D01*
X87765238Y4803167D01*
X87827142Y5050786D01*
X87889047Y5174596D01*
X87950952Y5236500D01*
X88074761Y5298405D01*
X89746190Y3998405D02*
X89003333Y3998405D01*
X89374761Y3998405D02*
X89374761Y5298405D01*
X89250952Y5112691D01*
X89127142Y4988881D01*
X89003333Y4926977D01*
X90241428Y4369834D02*
X90860476Y4369834D01*
X90117619Y3998405D02*
X90550952Y5298405D01*
X90984285Y3998405D01*
X81172380Y1905405D02*
X81172380Y3205405D01*
X81605714Y2276834D01*
X82039047Y3205405D01*
X82039047Y1905405D01*
X83277142Y1905405D02*
X82658095Y1905405D01*
X82658095Y3205405D01*
X83648571Y2276834D02*
X84267619Y2276834D01*
X83524761Y1905405D02*
X83958095Y3205405D01*
X84391428Y1905405D01*
X85258095Y2586358D02*
X85443809Y2524453D01*
X85505714Y2462548D01*
X85567619Y2338739D01*
X85567619Y2153024D01*
X85505714Y2029215D01*
X85443809Y1967310D01*
X85320000Y1905405D01*
X84824761Y1905405D01*
X84824761Y3205405D01*
X85258095Y3205405D01*
X85381904Y3143500D01*
X85443809Y3081596D01*
X85505714Y2957786D01*
X85505714Y2833977D01*
X85443809Y2710167D01*
X85381904Y2648262D01*
X85258095Y2586358D01*
X84824761Y2586358D01*
X86186666Y1967310D02*
X86186666Y1905405D01*
X86124761Y1781596D01*
X86062857Y1719691D01*
X87672380Y3081596D02*
X87734285Y3143500D01*
X87858095Y3205405D01*
X88167619Y3205405D01*
X88291428Y3143500D01*
X88353333Y3081596D01*
X88415238Y2957786D01*
X88415238Y2833977D01*
X88353333Y2648262D01*
X87610476Y1905405D01*
X88415238Y1905405D01*
X89220000Y3205405D02*
X89343809Y3205405D01*
X89467619Y3143500D01*
X89529523Y3081596D01*
X89591428Y2957786D01*
X89653333Y2710167D01*
X89653333Y2400643D01*
X89591428Y2153024D01*
X89529523Y2029215D01*
X89467619Y1967310D01*
X89343809Y1905405D01*
X89220000Y1905405D01*
X89096190Y1967310D01*
X89034285Y2029215D01*
X88972380Y2153024D01*
X88910476Y2400643D01*
X88910476Y2710167D01*
X88972380Y2957786D01*
X89034285Y3081596D01*
X89096190Y3143500D01*
X89220000Y3205405D01*
X90148571Y3081596D02*
X90210476Y3143500D01*
X90334285Y3205405D01*
X90643809Y3205405D01*
X90767619Y3143500D01*
X90829523Y3081596D01*
X90891428Y2957786D01*
X90891428Y2833977D01*
X90829523Y2648262D01*
X90086666Y1905405D01*
X90891428Y1905405D01*
X91386666Y3081596D02*
X91448571Y3143500D01*
X91572380Y3205405D01*
X91881904Y3205405D01*
X92005714Y3143500D01*
X92067619Y3081596D01*
X92129523Y2957786D01*
X92129523Y2833977D01*
X92067619Y2648262D01*
X91324761Y1905405D01*
X92129523Y1905405D01*
%TO.C,P7*%
X14710000Y7580000D02*
X47730000Y7580000D01*
X14710000Y2500000D02*
X14710000Y7580000D01*
X47730000Y7580000D02*
X47730000Y2500000D01*
X47730000Y2500000D02*
X14710000Y2500000D01*
%TO.C,P11*%
X71170000Y2500000D02*
X58470000Y2500000D01*
X58470000Y7580000D02*
X71170000Y7580000D01*
X71170000Y7580000D02*
X71170000Y2500000D01*
X58470000Y2500000D02*
X58470000Y7580000D01*
%TD*%
D11*
%TO.C,P7*%
X46460000Y6310000D03*
X46460000Y3770000D03*
X43920000Y6310000D03*
X43920000Y3770000D03*
X41380000Y6310000D03*
X41380000Y3770000D03*
X38840000Y6310000D03*
X38840000Y3770000D03*
X36300000Y6310000D03*
X36300000Y3770000D03*
X33760000Y6310000D03*
X33760000Y3770000D03*
X31220000Y6310000D03*
X31220000Y3770000D03*
X28680000Y6310000D03*
X28680000Y3770000D03*
X26140000Y6310000D03*
X26140000Y3770000D03*
X23600000Y6310000D03*
X23600000Y3770000D03*
X21060000Y6310000D03*
X21060000Y3770000D03*
X18520000Y6310000D03*
X18520000Y3770000D03*
X15980000Y6310000D03*
X15980000Y3770000D03*
%TD*%
%TO.C,P11*%
X69900000Y6310000D03*
X69900000Y3770000D03*
X67360000Y6310000D03*
X67360000Y3770000D03*
X64820000Y6310000D03*
X64820000Y3770000D03*
X62280000Y6310000D03*
X62280000Y3770000D03*
X59740000Y6310000D03*
X59740000Y3770000D03*
%TD*%
M02*
