M48
; DRILL file {KiCad 6.0.4-6f826c9f35~116~ubuntu20.04.1} date Wed May 25 15:48:11 2022
; FORMAT={-:-/ absolute / metric / decimal}
; #@! TF.CreationDate,2022-05-25T15:48:11+00:00
; #@! TF.GenerationSoftware,Kicad,Pcbnew,6.0.4-6f826c9f35~116~ubuntu20.04.1
; #@! TF.FileFunction,Plated,1,2,PTH
FMAT,2
METRIC
; #@! TA.AperFunction,Plated,PTH,ViaDrill
T1C0.400
; #@! TA.AperFunction,Plated,PTH,ViaDrill
T2C0.600
; #@! TA.AperFunction,Plated,PTH,ComponentDrill
T3C0.740
; #@! TA.AperFunction,Plated,PTH,ComponentDrill
T4C0.800
; #@! TA.AperFunction,Plated,PTH,ComponentDrill
T5C0.889
; #@! TA.AperFunction,Plated,PTH,ComponentDrill
T6C1.000
; #@! TA.AperFunction,Plated,PTH,ComponentDrill
T7C1.350
; #@! TA.AperFunction,Plated,PTH,ComponentDrill
T8C3.000
; #@! TA.AperFunction,Plated,PTH,ComponentDrill
T9C3.175
%
G90
G05
T1
X1.27Y67.564
X1.905Y91.44
X2.286Y89.408
X2.794Y68.58
X2.794Y66.04
X2.794Y35.56
X4.064Y89.916
X4.445Y68.58
X4.699Y60.96
X4.699Y55.88
X4.699Y50.8
X4.699Y45.72
X4.699Y40.64
X5.08Y73.0
X5.207Y91.186
X5.537Y81.966
X5.65Y86.78
X6.604Y10.668
X7.468Y73.025
X7.874Y45.72
X7.874Y43.18
X7.874Y40.64
X7.976Y81.991
X8.62Y90.34
X9.855Y76.048
X10.174Y97.914
X10.32Y51.94
X10.363Y81.991
X11.12Y56.04
X11.174Y43.514
X11.22Y87.94
X13.12Y94.04
X13.868Y73.05
X14.351Y81.991
X15.02Y52.04
X15.02Y48.44
X15.174Y97.914
X16.256Y73.05
X16.32Y54.94
X16.474Y43.514
X16.764Y82.017
X19.279Y81.991
X19.431Y73.406
X19.62Y94.04
X20.174Y97.914
X20.42Y46.04
X20.52Y55.14
X21.22Y52.04
X21.574Y43.514
X22.57Y8.29
X22.591Y9.321
X25.174Y97.914
X26.074Y43.514
X26.22Y94.04
X26.289Y59.69
X26.32Y20.29
X26.32Y15.29
X26.32Y13.29
X26.92Y88.94
X27.32Y52.04
X27.32Y9.29
X29.02Y46.04
X29.654Y63.246
X29.654Y60.706
X29.82Y8.79
X30.174Y97.914
X30.42Y11.19
X30.674Y43.514
X30.82Y12.14
X31.82Y11.64
X31.877Y93.98
X32.194Y63.246
X32.194Y60.706
X32.52Y48.84
X32.92Y11.64
X32.92Y8.84
X33.42Y18.24
X33.42Y15.34
X33.909Y46.228
X34.02Y11.64
X34.02Y10.54
X34.671Y91.44
X34.671Y63.246
X34.671Y60.706
X35.174Y97.914
X35.248Y10.779
X35.82Y18.24
X36.274Y44.014
X37.148Y60.706
X37.465Y93.98
X37.92Y21.54
X37.92Y18.24
X38.32Y12.14
X38.735Y97.79
X38.735Y63.5
X38.82Y21.54
X38.82Y15.34
X39.02Y17.54
X39.22Y52.34
X39.374Y41.614
X39.688Y60.706
X40.07Y7.84
X40.12Y17.54
X40.22Y11.74
X40.32Y5.04
X41.12Y16.29
X41.275Y62.73
X41.275Y61.73
X41.3Y17.6
X41.37Y15.04
X41.57Y12.04
X41.92Y85.74
X42.32Y5.04
X42.42Y49.94
X42.57Y7.54
X43.815Y97.79
X43.815Y61.206
X43.815Y60.206
X44.17Y16.29
X44.32Y92.34
X46.12Y59.34
X47.074Y41.714
X48.552Y56.098
X48.552Y55.098
X48.895Y97.79
X48.92Y50.14
X49.53Y73.025
X50.038Y81.915
X50.165Y20.32
X51.72Y85.64
X51.82Y57.74
X51.943Y73.025
X52.451Y81.915
X53.975Y97.79
X54.356Y73.025
X54.442Y41.714
X54.864Y78.867
X54.92Y84.84
X55.245Y20.32
X57.52Y59.44
X57.785Y44.704
X58.293Y73.025
X58.42Y17.78
X58.801Y81.915
X58.864Y94.518
X59.055Y97.79
X59.515Y89.139
X59.571Y95.225
X60.515Y89.139
X60.706Y73.025
X61.003Y56.736
X61.214Y81.915
X61.341Y48.26
X61.595Y53.848
X61.71Y56.029
X61.974Y41.714
X62.865Y93.98
X63.119Y73.025
X63.627Y81.915
X64.135Y97.79
X64.135Y17.145
X64.389Y56.642
X64.797Y66.648
X64.82Y67.84
X65.505Y65.94
X65.559Y64.108
X65.862Y91.034
X65.913Y87.376
X65.913Y60.452
X66.267Y63.4
X68.199Y73.152
X69.215Y97.79
X71.247Y74.676
X71.774Y41.714
X72.274Y85.514
X72.834Y66.865
X72.834Y63.246
X72.834Y60.706
X72.834Y57.023
X73.279Y76.454
X74.041Y69.596
X74.295Y97.79
X74.32Y100.29
X75.311Y78.486
X75.311Y60.706
X75.374Y66.865
X75.374Y63.246
X75.374Y57.023
X77.343Y71.374
X77.851Y66.865
X77.851Y63.246
X77.851Y60.706
X77.851Y57.023
X78.867Y80.01
X78.92Y84.54
X79.629Y73.914
X79.774Y41.714
X80.328Y60.706
X80.328Y57.023
X80.391Y66.865
X80.391Y63.246
X81.07Y75.79
X82.867Y66.865
X82.867Y63.246
X82.867Y60.706
X82.867Y57.023
X83.13Y41.71
X83.774Y45.614
X84.62Y15.64
X85.974Y85.314
X86.12Y15.64
X86.995Y13.97
X87.074Y59.439
X87.374Y72.514
X87.374Y66.814
X87.574Y54.514
X87.574Y49.414
X87.774Y36.114
X88.02Y78.04
X89.535Y97.79
X89.57Y100.29
X90.674Y83.814
X90.674Y78.914
X90.674Y73.914
X90.674Y68.914
X92.012Y13.97
X93.574Y59.114
X93.574Y51.214
X93.574Y42.014
X98.774Y57.414
X98.849Y53.414
X98.849Y49.414
X98.849Y45.414
X98.874Y42.014
X98.874Y37.714
X99.674Y77.114
X99.674Y73.114
X99.674Y68.614
X99.674Y27.714
X99.674Y24.114
X99.695Y91.44
X99.695Y20.32
X99.774Y86.614
T2
X2.159Y59.944
X2.159Y58.928
X2.159Y57.912
X3.175Y59.944
X3.175Y58.928
X3.175Y57.912
T3
X75.057Y83.058
X76.327Y81.558
X77.597Y81.558
X78.867Y83.058
X80.137Y81.558
X81.407Y81.558
X82.677Y83.058
T4
X3.165Y81.49
X3.165Y79.46
X3.165Y75.47
X3.165Y72.23
X20.965Y81.49
X20.965Y79.46
X20.965Y75.47
X20.965Y71.23
X47.615Y81.49
X47.615Y79.46
X47.615Y75.47
X47.615Y72.23
X65.415Y81.49
X65.415Y79.46
X65.415Y75.47
X65.415Y71.23
T5
X15.98Y6.31
X15.98Y3.77
X18.52Y6.31
X18.52Y3.77
X21.06Y6.31
X21.06Y3.77
X23.6Y6.31
X23.6Y3.77
X26.14Y6.31
X26.14Y3.77
X28.68Y6.31
X28.68Y3.77
X31.22Y6.31
X31.22Y3.77
X33.76Y6.31
X33.76Y3.77
X36.3Y6.31
X36.3Y3.77
X38.84Y6.31
X38.84Y3.77
X41.38Y6.31
X41.38Y3.77
X43.92Y6.31
X43.92Y3.77
X46.46Y6.31
X46.46Y3.77
X59.74Y6.31
X59.74Y3.77
X62.28Y6.31
X62.28Y3.77
X64.82Y6.31
X64.82Y3.77
X67.36Y6.31
X67.36Y3.77
X69.9Y6.31
X69.9Y3.77
X75.48Y6.31
X75.48Y3.77
X78.02Y6.31
X78.02Y3.77
X80.56Y6.31
X80.56Y3.77
T6
X4.608Y18.39
X4.608Y12.09
X9.108Y18.39
X9.108Y12.09
T7
X72.307Y80.558
X85.137Y81.558
T8
X5.08Y96.52
X5.08Y5.08
X96.52Y96.52
X96.774Y5.08
T9
X16.51Y63.5
X16.51Y15.24
X96.52Y63.5
X96.52Y15.24
T0
M30
