%TF.GenerationSoftware,KiCad,Pcbnew,6.0.4-6f826c9f35~116~ubuntu20.04.1*%
%TF.CreationDate,2022-05-16T11:00:35+00:00*%
%TF.ProjectId,MPPB01B,4d505042-3031-4422-9e6b-696361645f70,**%
%TF.SameCoordinates,Original*%
%TF.FileFunction,Soldermask,Top*%
%TF.FilePolarity,Negative*%
%FSLAX46Y46*%
G04 Gerber Fmt 4.6, Leading zero omitted, Abs format (unit mm)*
G04 Created by KiCad (PCBNEW 6.0.4-6f826c9f35~116~ubuntu20.04.1) date 2022-05-16 11:00:35*
%MOMM*%
%LPD*%
G01*
G04 APERTURE LIST*
%ADD10R,6.350000X6.350000*%
%ADD11C,6.000000*%
%ADD12R,1.524000X1.524000*%
%ADD13C,1.016000*%
%ADD14C,1.550000*%
%ADD15O,1.100000X1.300000*%
%ADD16C,2.500000*%
%ADD17R,1.676400X1.676400*%
G04 APERTURE END LIST*
D10*
%TO.C,MH1*%
X16510000Y63500000D03*
%TD*%
%TO.C,MH2*%
X96520000Y15240000D03*
%TD*%
%TO.C,MH3*%
X96520000Y63500000D03*
%TD*%
%TO.C,MH4*%
X16510000Y15240000D03*
%TD*%
D11*
%TO.C,MH5*%
X5080000Y96520000D03*
%TD*%
%TO.C,MH6*%
X96520000Y96520000D03*
%TD*%
%TO.C,MH8*%
X5080000Y5080000D03*
%TD*%
%TO.C,MH7*%
X96774000Y5080000D03*
%TD*%
D12*
%TO.C,P7*%
X46460000Y6310000D03*
X46460000Y3770000D03*
X43920000Y6310000D03*
X43920000Y3770000D03*
X41380000Y6310000D03*
X41380000Y3770000D03*
X38840000Y6310000D03*
X38840000Y3770000D03*
X36300000Y6310000D03*
X36300000Y3770000D03*
X33760000Y6310000D03*
X33760000Y3770000D03*
X31220000Y6310000D03*
X31220000Y3770000D03*
X28680000Y6310000D03*
X28680000Y3770000D03*
X26140000Y6310000D03*
X26140000Y3770000D03*
X23600000Y6310000D03*
X23600000Y3770000D03*
X21060000Y6310000D03*
X21060000Y3770000D03*
X18520000Y6310000D03*
X18520000Y3770000D03*
X15980000Y6310000D03*
X15980000Y3770000D03*
%TD*%
%TO.C,P11*%
X69900000Y6310000D03*
X69900000Y3770000D03*
X67360000Y6310000D03*
X67360000Y3770000D03*
X64820000Y6310000D03*
X64820000Y3770000D03*
X62280000Y6310000D03*
X62280000Y3770000D03*
X59740000Y6310000D03*
X59740000Y3770000D03*
%TD*%
D13*
%TO.C,P1*%
X25684480Y64008000D03*
X44165520Y64008000D03*
%TD*%
%TO.C,P2*%
X87345520Y64008000D03*
X68864480Y64008000D03*
%TD*%
%TO.C,P3*%
X25684480Y18796000D03*
X44165520Y18796000D03*
%TD*%
%TO.C,P4*%
X87345520Y18796000D03*
X68864480Y18796000D03*
%TD*%
D14*
%TO.C,P5*%
X64515000Y77469995D03*
X48515000Y77469995D03*
X47615000Y72229995D03*
X47615000Y75469995D03*
X47615000Y79459995D03*
X47615000Y81489995D03*
X65415000Y71229995D03*
X65415000Y75469995D03*
X65415000Y79459995D03*
X65415000Y81489995D03*
%TD*%
D12*
%TO.C,P9*%
X75480000Y6310000D03*
X75480000Y3770000D03*
X78020000Y6310000D03*
X78020000Y3770000D03*
X80560000Y6310000D03*
X80560000Y3770000D03*
%TD*%
D14*
%TO.C,P6*%
X20065000Y77469995D03*
X4065000Y77469995D03*
X3165000Y72229995D03*
X3165000Y75469995D03*
X3165000Y79459995D03*
X3165000Y81489995D03*
X20965000Y71229995D03*
X20965000Y75469995D03*
X20965000Y79459995D03*
X20965000Y81489995D03*
%TD*%
D15*
%TO.C,P10*%
X82677000Y83058000D03*
X81407000Y81558000D03*
X80137000Y81558000D03*
X78867000Y83058000D03*
X77597000Y81558000D03*
X76327000Y81558000D03*
X75057000Y83058000D03*
D16*
X72307000Y80558000D03*
X85137000Y81558000D03*
%TD*%
D17*
%TO.C,SW1*%
X4608000Y12090000D03*
X4608000Y18390000D03*
X9108000Y18390000D03*
X9108000Y12090000D03*
%TD*%
G36*
X80892686Y81836748D02*
G01*
X80893046Y81834939D01*
X80864880Y81737990D01*
X80859000Y81657922D01*
X80859000Y81458132D01*
X80879205Y81310637D01*
X80887158Y81292259D01*
X80886929Y81290273D01*
X80885093Y81289478D01*
X80883727Y81290260D01*
X80845386Y81341023D01*
X80780389Y81364948D01*
X80712779Y81349936D01*
X80663850Y81300587D01*
X80657525Y81286925D01*
X80654738Y81279777D01*
X80653178Y81278526D01*
X80651314Y81279252D01*
X80650954Y81281061D01*
X80679120Y81378010D01*
X80685000Y81458078D01*
X80685000Y81657868D01*
X80664795Y81805363D01*
X80656842Y81823741D01*
X80657071Y81825727D01*
X80658907Y81826522D01*
X80660273Y81825740D01*
X80698614Y81774977D01*
X80763611Y81751052D01*
X80831221Y81766064D01*
X80880150Y81815413D01*
X80886475Y81829075D01*
X80889262Y81836223D01*
X80890822Y81837474D01*
X80892686Y81836748D01*
G37*
G36*
X77082686Y81836748D02*
G01*
X77083046Y81834939D01*
X77054880Y81737990D01*
X77049000Y81657922D01*
X77049000Y81458132D01*
X77069205Y81310637D01*
X77077158Y81292259D01*
X77076929Y81290273D01*
X77075093Y81289478D01*
X77073727Y81290260D01*
X77035386Y81341023D01*
X76970389Y81364948D01*
X76902779Y81349936D01*
X76853850Y81300587D01*
X76847525Y81286925D01*
X76844738Y81279777D01*
X76843178Y81278526D01*
X76841314Y81279252D01*
X76840954Y81281061D01*
X76869120Y81378010D01*
X76875000Y81458078D01*
X76875000Y81657868D01*
X76854795Y81805363D01*
X76846842Y81823741D01*
X76847071Y81825727D01*
X76848907Y81826522D01*
X76850273Y81825740D01*
X76888614Y81774977D01*
X76953611Y81751052D01*
X77021221Y81766064D01*
X77070150Y81815413D01*
X77076475Y81829075D01*
X77079262Y81836223D01*
X77080822Y81837474D01*
X77082686Y81836748D01*
G37*
M02*
