%TF.GenerationSoftware,KiCad,Pcbnew,6.0.4-6f826c9f35~116~ubuntu20.04.1*%
%TF.CreationDate,2022-05-15T17:51:23+00:00*%
%TF.ProjectId,MPPB01B,4d505042-3031-4422-9e6b-696361645f70,**%
%TF.SameCoordinates,Original*%
%TF.FileFunction,Soldermask,Bot*%
%TF.FilePolarity,Negative*%
%FSLAX46Y46*%
G04 Gerber Fmt 4.6, Leading zero omitted, Abs format (unit mm)*
G04 Created by KiCad (PCBNEW 6.0.4-6f826c9f35~116~ubuntu20.04.1) date 2022-05-15 17:51:23*
%MOMM*%
%LPD*%
G01*
G04 APERTURE LIST*
G04 Aperture macros list*
%AMRoundRect*
0 Rectangle with rounded corners*
0 $1 Rounding radius*
0 $2 $3 $4 $5 $6 $7 $8 $9 X,Y pos of 4 corners*
0 Add a 4 corners polygon primitive as box body*
4,1,4,$2,$3,$4,$5,$6,$7,$8,$9,$2,$3,0*
0 Add four circle primitives for the rounded corners*
1,1,$1+$1,$2,$3*
1,1,$1+$1,$4,$5*
1,1,$1+$1,$6,$7*
1,1,$1+$1,$8,$9*
0 Add four rect primitives between the rounded corners*
20,1,$1+$1,$2,$3,$4,$5,0*
20,1,$1+$1,$4,$5,$6,$7,0*
20,1,$1+$1,$6,$7,$8,$9,0*
20,1,$1+$1,$8,$9,$2,$3,0*%
G04 Aperture macros list end*
%ADD10R,6.350000X6.350000*%
%ADD11C,6.000000*%
%ADD12R,1.524000X1.524000*%
%ADD13C,1.016000*%
%ADD14R,0.304800X1.447800*%
%ADD15C,1.550000*%
%ADD16O,0.350000X1.800000*%
%ADD17O,1.100000X1.300000*%
%ADD18C,2.500000*%
%ADD19RoundRect,0.250000X0.475000X-0.250000X0.475000X0.250000X-0.475000X0.250000X-0.475000X-0.250000X0*%
%ADD20RoundRect,0.250000X-1.100000X0.325000X-1.100000X-0.325000X1.100000X-0.325000X1.100000X0.325000X0*%
%ADD21R,1.800000X2.500000*%
%ADD22RoundRect,0.250000X0.250000X0.475000X-0.250000X0.475000X-0.250000X-0.475000X0.250000X-0.475000X0*%
%ADD23RoundRect,0.250000X-0.475000X0.250000X-0.475000X-0.250000X0.475000X-0.250000X0.475000X0.250000X0*%
%ADD24RoundRect,0.250000X0.350000X0.450000X-0.350000X0.450000X-0.350000X-0.450000X0.350000X-0.450000X0*%
%ADD25RoundRect,0.250000X-0.450000X0.350000X-0.450000X-0.350000X0.450000X-0.350000X0.450000X0.350000X0*%
%ADD26R,1.676400X1.676400*%
G04 APERTURE END LIST*
D10*
%TO.C,MH1*%
X16510000Y63500000D03*
%TD*%
%TO.C,MH2*%
X96520000Y15240000D03*
%TD*%
%TO.C,MH3*%
X96520000Y63500000D03*
%TD*%
%TO.C,MH4*%
X16510000Y15240000D03*
%TD*%
D11*
%TO.C,MH5*%
X5080000Y96520000D03*
%TD*%
%TO.C,MH6*%
X96520000Y96520000D03*
%TD*%
%TO.C,MH8*%
X5080000Y5080000D03*
%TD*%
%TO.C,MH7*%
X96774000Y5080000D03*
%TD*%
D12*
%TO.C,P7*%
X46460000Y6310000D03*
X46460000Y3770000D03*
X43920000Y6310000D03*
X43920000Y3770000D03*
X41380000Y6310000D03*
X41380000Y3770000D03*
X38840000Y6310000D03*
X38840000Y3770000D03*
X36300000Y6310000D03*
X36300000Y3770000D03*
X33760000Y6310000D03*
X33760000Y3770000D03*
X31220000Y6310000D03*
X31220000Y3770000D03*
X28680000Y6310000D03*
X28680000Y3770000D03*
X26140000Y6310000D03*
X26140000Y3770000D03*
X23600000Y6310000D03*
X23600000Y3770000D03*
X21060000Y6310000D03*
X21060000Y3770000D03*
X18520000Y6310000D03*
X18520000Y3770000D03*
X15980000Y6310000D03*
X15980000Y3770000D03*
%TD*%
%TO.C,P11*%
X69900000Y6310000D03*
X69900000Y3770000D03*
X67360000Y6310000D03*
X67360000Y3770000D03*
X64820000Y6310000D03*
X64820000Y3770000D03*
X62280000Y6310000D03*
X62280000Y3770000D03*
X59740000Y6310000D03*
X59740000Y3770000D03*
%TD*%
D13*
%TO.C,P1*%
X44165520Y64008000D03*
X25684480Y64008000D03*
D14*
X42179240Y65062100D03*
X42179240Y58889900D03*
X41678840Y65062100D03*
X41678840Y58889900D03*
X41178440Y65062100D03*
X41178440Y58889900D03*
X40678140Y65062100D03*
X40678140Y58889900D03*
X40177740Y65062100D03*
X40177740Y58889900D03*
X39677340Y65062100D03*
X39677340Y58889900D03*
X39176940Y65062100D03*
X39176940Y58889900D03*
X38676540Y65062100D03*
X38676540Y58889900D03*
X38176240Y65062100D03*
X38176240Y58889900D03*
X37675840Y65062100D03*
X37675840Y58889900D03*
X37175440Y65062100D03*
X37175440Y58889900D03*
X36675040Y65062100D03*
X36675040Y58889900D03*
X36174640Y65062100D03*
X36174640Y58889900D03*
X35674340Y65062100D03*
X35674340Y58889900D03*
X35173940Y65062100D03*
X35173940Y58889900D03*
X34673540Y65062100D03*
X34673540Y58889900D03*
X34173140Y65062100D03*
X34173140Y58889900D03*
X33672740Y65062100D03*
X33672740Y58889900D03*
X33172440Y65062100D03*
X33172440Y58889900D03*
X32672040Y65062100D03*
X32672040Y58889900D03*
X32171640Y65062100D03*
X32171640Y58889900D03*
X31671240Y65062100D03*
X31671240Y58889900D03*
X31170840Y65062100D03*
X31170840Y58889900D03*
X30670540Y65062100D03*
X30670540Y58889900D03*
X30170140Y65062100D03*
X30170140Y58889900D03*
X29669740Y65062100D03*
X29669740Y58889900D03*
X29169340Y65062100D03*
X29169340Y58889900D03*
X28668940Y65062100D03*
X28668940Y58889900D03*
X28168640Y65062100D03*
X28168640Y58889900D03*
X27668240Y65062100D03*
X27668240Y58889900D03*
%TD*%
D13*
%TO.C,P2*%
X87345520Y64008000D03*
X68864480Y64008000D03*
D14*
X85359240Y65062100D03*
X85359240Y58889900D03*
X84858840Y65062100D03*
X84858840Y58889900D03*
X84358440Y65062100D03*
X84358440Y58889900D03*
X83858140Y65062100D03*
X83858140Y58889900D03*
X83357740Y65062100D03*
X83357740Y58889900D03*
X82857340Y65062100D03*
X82857340Y58889900D03*
X82356940Y65062100D03*
X82356940Y58889900D03*
X81856540Y65062100D03*
X81856540Y58889900D03*
X81356240Y65062100D03*
X81356240Y58889900D03*
X80855840Y65062100D03*
X80855840Y58889900D03*
X80355440Y65062100D03*
X80355440Y58889900D03*
X79855040Y65062100D03*
X79855040Y58889900D03*
X79354640Y65062100D03*
X79354640Y58889900D03*
X78854340Y65062100D03*
X78854340Y58889900D03*
X78353940Y65062100D03*
X78353940Y58889900D03*
X77853540Y65062100D03*
X77853540Y58889900D03*
X77353140Y65062100D03*
X77353140Y58889900D03*
X76852740Y65062100D03*
X76852740Y58889900D03*
X76352440Y65062100D03*
X76352440Y58889900D03*
X75852040Y65062100D03*
X75852040Y58889900D03*
X75351640Y65062100D03*
X75351640Y58889900D03*
X74851240Y65062100D03*
X74851240Y58889900D03*
X74350840Y65062100D03*
X74350840Y58889900D03*
X73850540Y65062100D03*
X73850540Y58889900D03*
X73350140Y65062100D03*
X73350140Y58889900D03*
X72849740Y65062100D03*
X72849740Y58889900D03*
X72349340Y65062100D03*
X72349340Y58889900D03*
X71848940Y65062100D03*
X71848940Y58889900D03*
X71348640Y65062100D03*
X71348640Y58889900D03*
X70848240Y65062100D03*
X70848240Y58889900D03*
%TD*%
D13*
%TO.C,P3*%
X25684480Y18796000D03*
X44165520Y18796000D03*
D14*
X42179240Y19850100D03*
X42179240Y13677900D03*
X41678840Y19850100D03*
X41678840Y13677900D03*
X41178440Y19850100D03*
X41178440Y13677900D03*
X40678140Y19850100D03*
X40678140Y13677900D03*
X40177740Y19850100D03*
X40177740Y13677900D03*
X39677340Y19850100D03*
X39677340Y13677900D03*
X39176940Y19850100D03*
X39176940Y13677900D03*
X38676540Y19850100D03*
X38676540Y13677900D03*
X38176240Y19850100D03*
X38176240Y13677900D03*
X37675840Y19850100D03*
X37675840Y13677900D03*
X37175440Y19850100D03*
X37175440Y13677900D03*
X36675040Y19850100D03*
X36675040Y13677900D03*
X36174640Y19850100D03*
X36174640Y13677900D03*
X35674340Y19850100D03*
X35674340Y13677900D03*
X35173940Y19850100D03*
X35173940Y13677900D03*
X34673540Y19850100D03*
X34673540Y13677900D03*
X34173140Y19850100D03*
X34173140Y13677900D03*
X33672740Y19850100D03*
X33672740Y13677900D03*
X33172440Y19850100D03*
X33172440Y13677900D03*
X32672040Y19850100D03*
X32672040Y13677900D03*
X32171640Y19850100D03*
X32171640Y13677900D03*
X31671240Y19850100D03*
X31671240Y13677900D03*
X31170840Y19850100D03*
X31170840Y13677900D03*
X30670540Y19850100D03*
X30670540Y13677900D03*
X30170140Y19850100D03*
X30170140Y13677900D03*
X29669740Y19850100D03*
X29669740Y13677900D03*
X29169340Y19850100D03*
X29169340Y13677900D03*
X28668940Y19850100D03*
X28668940Y13677900D03*
X28168640Y19850100D03*
X28168640Y13677900D03*
X27668240Y19850100D03*
X27668240Y13677900D03*
%TD*%
D13*
%TO.C,P4*%
X87345520Y18796000D03*
X68864480Y18796000D03*
D14*
X85359240Y19850100D03*
X85359240Y13677900D03*
X84858840Y19850100D03*
X84858840Y13677900D03*
X84358440Y19850100D03*
X84358440Y13677900D03*
X83858140Y19850100D03*
X83858140Y13677900D03*
X83357740Y19850100D03*
X83357740Y13677900D03*
X82857340Y19850100D03*
X82857340Y13677900D03*
X82356940Y19850100D03*
X82356940Y13677900D03*
X81856540Y19850100D03*
X81856540Y13677900D03*
X81356240Y19850100D03*
X81356240Y13677900D03*
X80855840Y19850100D03*
X80855840Y13677900D03*
X80355440Y19850100D03*
X80355440Y13677900D03*
X79855040Y19850100D03*
X79855040Y13677900D03*
X79354640Y19850100D03*
X79354640Y13677900D03*
X78854340Y19850100D03*
X78854340Y13677900D03*
X78353940Y19850100D03*
X78353940Y13677900D03*
X77853540Y19850100D03*
X77853540Y13677900D03*
X77353140Y19850100D03*
X77353140Y13677900D03*
X76852740Y19850100D03*
X76852740Y13677900D03*
X76352440Y19850100D03*
X76352440Y13677900D03*
X75852040Y19850100D03*
X75852040Y13677900D03*
X75351640Y19850100D03*
X75351640Y13677900D03*
X74851240Y19850100D03*
X74851240Y13677900D03*
X74350840Y19850100D03*
X74350840Y13677900D03*
X73850540Y19850100D03*
X73850540Y13677900D03*
X73350140Y19850100D03*
X73350140Y13677900D03*
X72849740Y19850100D03*
X72849740Y13677900D03*
X72349340Y19850100D03*
X72349340Y13677900D03*
X71848940Y19850100D03*
X71848940Y13677900D03*
X71348640Y19850100D03*
X71348640Y13677900D03*
X70848240Y19850100D03*
X70848240Y13677900D03*
%TD*%
D15*
%TO.C,P5*%
X48515000Y77469995D03*
X64515000Y77469995D03*
X47615000Y72229995D03*
X47615000Y75469995D03*
X47615000Y79459995D03*
X47615000Y81489995D03*
X65415000Y71229995D03*
X65415000Y75469995D03*
X65415000Y79459995D03*
X65415000Y81489995D03*
D16*
X49915000Y80369995D03*
X50715000Y80369995D03*
X51515000Y80369995D03*
X52315000Y80369995D03*
X53115000Y80369995D03*
X53915000Y80369995D03*
X54715000Y80369995D03*
X55515000Y80369995D03*
X56315000Y80369995D03*
X57115000Y80369995D03*
X57915000Y80369995D03*
X58715000Y80369995D03*
X59515000Y80369995D03*
X60315000Y80369995D03*
X61115000Y80369995D03*
X61915000Y80369995D03*
X62715000Y80369995D03*
X63515000Y80369995D03*
X49515000Y74559995D03*
X50315000Y74559995D03*
X51115000Y74559995D03*
X51915000Y74559995D03*
X52715000Y74559995D03*
X53515000Y74559995D03*
X54315000Y74559995D03*
X55115000Y74559995D03*
X55915000Y74559995D03*
X56715000Y74559995D03*
X57515000Y74559995D03*
X58315000Y74559995D03*
X59115000Y74559995D03*
X59915000Y74559995D03*
X60715000Y74559995D03*
X61515000Y74559995D03*
X62315000Y74559995D03*
X63115000Y74559995D03*
%TD*%
D12*
%TO.C,P9*%
X75480000Y6310000D03*
X75480000Y3770000D03*
X78020000Y6310000D03*
X78020000Y3770000D03*
X80560000Y6310000D03*
X80560000Y3770000D03*
%TD*%
D15*
%TO.C,P6*%
X4065000Y77469995D03*
X20065000Y77469995D03*
X3165000Y72229995D03*
X3165000Y75469995D03*
X3165000Y79459995D03*
X3165000Y81489995D03*
X20965000Y71229995D03*
X20965000Y75469995D03*
X20965000Y79459995D03*
X20965000Y81489995D03*
D16*
X5465000Y80369995D03*
X6265000Y80369995D03*
X7065000Y80369995D03*
X7865000Y80369995D03*
X8665000Y80369995D03*
X9465000Y80369995D03*
X10265000Y80369995D03*
X11065000Y80369995D03*
X11865000Y80369995D03*
X12665000Y80369995D03*
X13465000Y80369995D03*
X14265000Y80369995D03*
X15065000Y80369995D03*
X15865000Y80369995D03*
X16665000Y80369995D03*
X17465000Y80369995D03*
X18265000Y80369995D03*
X19065000Y80369995D03*
X5065000Y74559995D03*
X5865000Y74559995D03*
X6665000Y74559995D03*
X7465000Y74559995D03*
X8265000Y74559995D03*
X9065000Y74559995D03*
X9865000Y74559995D03*
X10665000Y74559995D03*
X11465000Y74559995D03*
X12265000Y74559995D03*
X13065000Y74559995D03*
X13865000Y74559995D03*
X14665000Y74559995D03*
X15465000Y74559995D03*
X16265000Y74559995D03*
X17065000Y74559995D03*
X17865000Y74559995D03*
X18665000Y74559995D03*
%TD*%
D17*
%TO.C,P10*%
X82677000Y83058000D03*
X81407000Y81558000D03*
X80137000Y81558000D03*
X78867000Y83058000D03*
X77597000Y81558000D03*
X76327000Y81558000D03*
X75057000Y83058000D03*
D18*
X72307000Y80558000D03*
X85137000Y81558000D03*
%TD*%
D19*
%TO.C,C1*%
X89220000Y8290000D03*
X89220000Y10190000D03*
%TD*%
D20*
%TO.C,C2*%
X89220000Y6415000D03*
X89220000Y3465000D03*
%TD*%
D21*
%TO.C,D1*%
X85320000Y8290000D03*
X85320000Y4290000D03*
%TD*%
D22*
%TO.C,C3*%
X68850000Y80100000D03*
X66950000Y80100000D03*
%TD*%
D23*
%TO.C,C4*%
X2540000Y86687000D03*
X2540000Y84787000D03*
%TD*%
D24*
%TO.C,R1*%
X68881500Y81788000D03*
X66881500Y81788000D03*
%TD*%
D25*
%TO.C,R2*%
X4064000Y86864000D03*
X4064000Y84864000D03*
%TD*%
D26*
%TO.C,SW1*%
X4608000Y12090000D03*
X4608000Y18390000D03*
X9108000Y18390000D03*
X9108000Y12090000D03*
%TD*%
D24*
%TO.C,R3*%
X38570000Y9290000D03*
X36570000Y9290000D03*
%TD*%
G36*
X39026540Y14398911D02*
G01*
X39026540Y12956889D01*
X39025540Y12955157D01*
X39023429Y12955226D01*
X39007796Y12965671D01*
X39007624Y12965799D01*
X38975795Y12992399D01*
X38907079Y13001030D01*
X38844449Y12971066D01*
X38831824Y12956497D01*
X38831425Y12956144D01*
X38830052Y12955226D01*
X38828056Y12955095D01*
X38826940Y12956889D01*
X38826940Y14398911D01*
X38827940Y14400643D01*
X38830051Y14400574D01*
X38845684Y14390129D01*
X38845856Y14390001D01*
X38877685Y14363401D01*
X38946401Y14354770D01*
X39009031Y14384734D01*
X39021656Y14399303D01*
X39022055Y14399656D01*
X39023428Y14400574D01*
X39025424Y14400705D01*
X39026540Y14398911D01*
G37*
G36*
X72198940Y14398911D02*
G01*
X72198940Y12956889D01*
X72197940Y12955157D01*
X72195829Y12955226D01*
X72180196Y12965671D01*
X72180024Y12965799D01*
X72148195Y12992399D01*
X72079479Y13001030D01*
X72016849Y12971066D01*
X72004224Y12956497D01*
X72003825Y12956144D01*
X72002452Y12955226D01*
X72000456Y12955095D01*
X71999340Y12956889D01*
X71999340Y14398911D01*
X72000340Y14400643D01*
X72002451Y14400574D01*
X72018084Y14390129D01*
X72018256Y14390001D01*
X72050085Y14363401D01*
X72118801Y14354770D01*
X72181431Y14384734D01*
X72194056Y14399303D01*
X72194455Y14399656D01*
X72195828Y14400574D01*
X72197824Y14400705D01*
X72198940Y14398911D01*
G37*
G36*
X73199740Y14398911D02*
G01*
X73199740Y12956889D01*
X73198740Y12955157D01*
X73196629Y12955226D01*
X73180996Y12965671D01*
X73180824Y12965799D01*
X73148995Y12992399D01*
X73080279Y13001030D01*
X73017649Y12971066D01*
X73005024Y12956497D01*
X73004625Y12956144D01*
X73003252Y12955226D01*
X73001256Y12955095D01*
X73000140Y12956889D01*
X73000140Y14398911D01*
X73001140Y14400643D01*
X73003251Y14400574D01*
X73018884Y14390129D01*
X73019056Y14390001D01*
X73050885Y14363401D01*
X73119601Y14354770D01*
X73182231Y14384734D01*
X73194856Y14399303D01*
X73195255Y14399656D01*
X73196628Y14400574D01*
X73198624Y14400705D01*
X73199740Y14398911D01*
G37*
G36*
X29519340Y14398911D02*
G01*
X29519340Y12956889D01*
X29518340Y12955157D01*
X29516229Y12955226D01*
X29500596Y12965671D01*
X29500424Y12965799D01*
X29468595Y12992399D01*
X29399879Y13001030D01*
X29337249Y12971066D01*
X29324624Y12956497D01*
X29324225Y12956144D01*
X29322852Y12955226D01*
X29320856Y12955095D01*
X29319740Y12956889D01*
X29319740Y14398911D01*
X29320740Y14400643D01*
X29322851Y14400574D01*
X29338484Y14390129D01*
X29338656Y14390001D01*
X29370485Y14363401D01*
X29439201Y14354770D01*
X29501831Y14384734D01*
X29514456Y14399303D01*
X29514855Y14399656D01*
X29516228Y14400574D01*
X29518224Y14400705D01*
X29519340Y14398911D01*
G37*
G36*
X78703940Y14398911D02*
G01*
X78703940Y12956889D01*
X78702940Y12955157D01*
X78700829Y12955226D01*
X78685196Y12965671D01*
X78685024Y12965799D01*
X78653195Y12992399D01*
X78584479Y13001030D01*
X78521849Y12971066D01*
X78509224Y12956497D01*
X78508825Y12956144D01*
X78507452Y12955226D01*
X78505456Y12955095D01*
X78504340Y12956889D01*
X78504340Y14398911D01*
X78505340Y14400643D01*
X78507451Y14400574D01*
X78523084Y14390129D01*
X78523256Y14390001D01*
X78555085Y14363401D01*
X78623801Y14354770D01*
X78686431Y14384734D01*
X78699056Y14399303D01*
X78699455Y14399656D01*
X78700828Y14400574D01*
X78702824Y14400705D01*
X78703940Y14398911D01*
G37*
G36*
X32021240Y14398911D02*
G01*
X32021240Y12956889D01*
X32020240Y12955157D01*
X32018129Y12955226D01*
X32002496Y12965671D01*
X32002324Y12965799D01*
X31970495Y12992399D01*
X31901779Y13001030D01*
X31839149Y12971066D01*
X31826524Y12956497D01*
X31826125Y12956144D01*
X31824752Y12955226D01*
X31822756Y12955095D01*
X31821640Y12956889D01*
X31821640Y14398911D01*
X31822640Y14400643D01*
X31824751Y14400574D01*
X31840384Y14390129D01*
X31840556Y14390001D01*
X31872385Y14363401D01*
X31941101Y14354770D01*
X32003731Y14384734D01*
X32016356Y14399303D01*
X32016755Y14399656D01*
X32018128Y14400574D01*
X32020124Y14400705D01*
X32021240Y14398911D01*
G37*
G36*
X29018940Y14398911D02*
G01*
X29018940Y12956889D01*
X29017940Y12955157D01*
X29015829Y12955226D01*
X29000196Y12965671D01*
X29000024Y12965799D01*
X28968195Y12992399D01*
X28899479Y13001030D01*
X28836849Y12971066D01*
X28824224Y12956497D01*
X28823825Y12956144D01*
X28822452Y12955226D01*
X28820456Y12955095D01*
X28819340Y12956889D01*
X28819340Y14398911D01*
X28820340Y14400643D01*
X28822451Y14400574D01*
X28838084Y14390129D01*
X28838256Y14390001D01*
X28870085Y14363401D01*
X28938801Y14354770D01*
X29001431Y14384734D01*
X29014056Y14399303D01*
X29014455Y14399656D01*
X29015828Y14400574D01*
X29017824Y14400705D01*
X29018940Y14398911D01*
G37*
G36*
X76702340Y14398911D02*
G01*
X76702340Y12956889D01*
X76701340Y12955157D01*
X76699229Y12955226D01*
X76683403Y12965800D01*
X76683231Y12965928D01*
X76651648Y12992324D01*
X76582932Y13000957D01*
X76520301Y12970994D01*
X76507759Y12956520D01*
X76507359Y12956167D01*
X76505951Y12955226D01*
X76503956Y12955095D01*
X76502840Y12956889D01*
X76502840Y14398911D01*
X76503840Y14400643D01*
X76505951Y14400574D01*
X76521777Y14390000D01*
X76521949Y14389872D01*
X76553532Y14363476D01*
X76622248Y14354843D01*
X76684879Y14384806D01*
X76697421Y14399280D01*
X76697821Y14399633D01*
X76699229Y14400574D01*
X76701224Y14400705D01*
X76702340Y14398911D01*
G37*
G36*
X31520840Y14398911D02*
G01*
X31520840Y12956889D01*
X31519840Y12955157D01*
X31517729Y12955226D01*
X31502096Y12965671D01*
X31501924Y12965799D01*
X31470095Y12992399D01*
X31401379Y13001030D01*
X31338749Y12971066D01*
X31326124Y12956497D01*
X31325725Y12956144D01*
X31324352Y12955226D01*
X31322356Y12955095D01*
X31321240Y12956889D01*
X31321240Y14398911D01*
X31322240Y14400643D01*
X31324351Y14400574D01*
X31339984Y14390129D01*
X31340156Y14390001D01*
X31371985Y14363401D01*
X31440701Y14354770D01*
X31503331Y14384734D01*
X31515956Y14399303D01*
X31516355Y14399656D01*
X31517728Y14400574D01*
X31519724Y14400705D01*
X31520840Y14398911D01*
G37*
G36*
X33522340Y14398911D02*
G01*
X33522340Y12956889D01*
X33521340Y12955157D01*
X33519229Y12955226D01*
X33503403Y12965800D01*
X33503231Y12965928D01*
X33471648Y12992324D01*
X33402932Y13000957D01*
X33340301Y12970994D01*
X33327759Y12956520D01*
X33327359Y12956167D01*
X33325951Y12955226D01*
X33323956Y12955095D01*
X33322840Y12956889D01*
X33322840Y14398911D01*
X33323840Y14400643D01*
X33325951Y14400574D01*
X33341777Y14390000D01*
X33341949Y14389872D01*
X33373532Y14363476D01*
X33442248Y14354843D01*
X33504879Y14384806D01*
X33517421Y14399280D01*
X33517821Y14399633D01*
X33519229Y14400574D01*
X33521224Y14400705D01*
X33522340Y14398911D01*
G37*
G36*
X30019740Y14398911D02*
G01*
X30019740Y12956889D01*
X30018740Y12955157D01*
X30016629Y12955226D01*
X30000996Y12965671D01*
X30000824Y12965799D01*
X29968995Y12992399D01*
X29900279Y13001030D01*
X29837649Y12971066D01*
X29825024Y12956497D01*
X29824625Y12956144D01*
X29823252Y12955226D01*
X29821256Y12955095D01*
X29820140Y12956889D01*
X29820140Y14398911D01*
X29821140Y14400643D01*
X29823251Y14400574D01*
X29838884Y14390129D01*
X29839056Y14390001D01*
X29870885Y14363401D01*
X29939601Y14354770D01*
X30002231Y14384734D01*
X30014856Y14399303D01*
X30015255Y14399656D01*
X30016628Y14400574D01*
X30018624Y14400705D01*
X30019740Y14398911D01*
G37*
G36*
X31020440Y14398911D02*
G01*
X31020440Y12956889D01*
X31019440Y12955157D01*
X31017329Y12955226D01*
X31001503Y12965800D01*
X31001331Y12965928D01*
X30969748Y12992324D01*
X30901032Y13000957D01*
X30838401Y12970994D01*
X30825859Y12956520D01*
X30825459Y12956167D01*
X30824051Y12955226D01*
X30822056Y12955095D01*
X30820940Y12956889D01*
X30820940Y14398911D01*
X30821940Y14400643D01*
X30824051Y14400574D01*
X30839877Y14390000D01*
X30840049Y14389872D01*
X30871632Y14363476D01*
X30940348Y14354843D01*
X31002979Y14384806D01*
X31015521Y14399280D01*
X31015921Y14399633D01*
X31017329Y14400574D01*
X31019324Y14400705D01*
X31020440Y14398911D01*
G37*
G36*
X72699340Y14398911D02*
G01*
X72699340Y12956889D01*
X72698340Y12955157D01*
X72696229Y12955226D01*
X72680596Y12965671D01*
X72680424Y12965799D01*
X72648595Y12992399D01*
X72579879Y13001030D01*
X72517249Y12971066D01*
X72504624Y12956497D01*
X72504225Y12956144D01*
X72502852Y12955226D01*
X72500856Y12955095D01*
X72499740Y12956889D01*
X72499740Y14398911D01*
X72500740Y14400643D01*
X72502851Y14400574D01*
X72518484Y14390129D01*
X72518656Y14390001D01*
X72550485Y14363401D01*
X72619201Y14354770D01*
X72681831Y14384734D01*
X72694456Y14399303D01*
X72694855Y14399656D01*
X72696228Y14400574D01*
X72698224Y14400705D01*
X72699340Y14398911D01*
G37*
G36*
X74700840Y14398911D02*
G01*
X74700840Y12956889D01*
X74699840Y12955157D01*
X74697729Y12955226D01*
X74682096Y12965671D01*
X74681924Y12965799D01*
X74650095Y12992399D01*
X74581379Y13001030D01*
X74518749Y12971066D01*
X74506124Y12956497D01*
X74505725Y12956144D01*
X74504352Y12955226D01*
X74502356Y12955095D01*
X74501240Y12956889D01*
X74501240Y14398911D01*
X74502240Y14400643D01*
X74504351Y14400574D01*
X74519984Y14390129D01*
X74520156Y14390001D01*
X74551985Y14363401D01*
X74620701Y14354770D01*
X74683331Y14384734D01*
X74695956Y14399303D01*
X74696355Y14399656D01*
X74697728Y14400574D01*
X74699724Y14400705D01*
X74700840Y14398911D01*
G37*
G36*
X71698540Y14398911D02*
G01*
X71698540Y12956889D01*
X71697540Y12955157D01*
X71695429Y12955226D01*
X71679603Y12965800D01*
X71679431Y12965928D01*
X71647848Y12992324D01*
X71579132Y13000957D01*
X71516501Y12970994D01*
X71503959Y12956520D01*
X71503559Y12956167D01*
X71502151Y12955226D01*
X71500156Y12955095D01*
X71499040Y12956889D01*
X71499040Y14398911D01*
X71500040Y14400643D01*
X71502151Y14400574D01*
X71517977Y14390000D01*
X71518149Y14389872D01*
X71549732Y14363476D01*
X71618448Y14354843D01*
X71681079Y14384806D01*
X71693621Y14399280D01*
X71694021Y14399633D01*
X71695429Y14400574D01*
X71697424Y14400705D01*
X71698540Y14398911D01*
G37*
G36*
X30520140Y14398911D02*
G01*
X30520140Y12956889D01*
X30519140Y12955157D01*
X30517029Y12955226D01*
X30501396Y12965671D01*
X30501224Y12965799D01*
X30469395Y12992399D01*
X30400679Y13001030D01*
X30338049Y12971066D01*
X30325424Y12956497D01*
X30325025Y12956144D01*
X30323652Y12955226D01*
X30321656Y12955095D01*
X30320540Y12956889D01*
X30320540Y14398911D01*
X30321540Y14400643D01*
X30323651Y14400574D01*
X30339284Y14390129D01*
X30339456Y14390001D01*
X30371285Y14363401D01*
X30440001Y14354770D01*
X30502631Y14384734D01*
X30515256Y14399303D01*
X30515655Y14399656D01*
X30517028Y14400574D01*
X30519024Y14400705D01*
X30520140Y14398911D01*
G37*
G36*
X40027340Y14398911D02*
G01*
X40027340Y12956889D01*
X40026340Y12955157D01*
X40024229Y12955226D01*
X40008596Y12965671D01*
X40008424Y12965799D01*
X39976595Y12992399D01*
X39907879Y13001030D01*
X39845249Y12971066D01*
X39832624Y12956497D01*
X39832225Y12956144D01*
X39830852Y12955226D01*
X39828856Y12955095D01*
X39827740Y12956889D01*
X39827740Y14398911D01*
X39828740Y14400643D01*
X39830851Y14400574D01*
X39846484Y14390129D01*
X39846656Y14390001D01*
X39878485Y14363401D01*
X39947201Y14354770D01*
X40009831Y14384734D01*
X40022456Y14399303D01*
X40022855Y14399656D01*
X40024228Y14400574D01*
X40026224Y14400705D01*
X40027340Y14398911D01*
G37*
G36*
X77202740Y14398911D02*
G01*
X77202740Y12956889D01*
X77201740Y12955157D01*
X77199629Y12955226D01*
X77183996Y12965671D01*
X77183824Y12965799D01*
X77151995Y12992399D01*
X77083279Y13001030D01*
X77020649Y12971066D01*
X77008024Y12956497D01*
X77007625Y12956144D01*
X77006252Y12955226D01*
X77004256Y12955095D01*
X77003140Y12956889D01*
X77003140Y14398911D01*
X77004140Y14400643D01*
X77006251Y14400574D01*
X77021884Y14390129D01*
X77022056Y14390001D01*
X77053885Y14363401D01*
X77122601Y14354770D01*
X77185231Y14384734D01*
X77197856Y14399303D01*
X77198255Y14399656D01*
X77199628Y14400574D01*
X77201624Y14400705D01*
X77202740Y14398911D01*
G37*
G36*
X84708440Y14398911D02*
G01*
X84708440Y12956889D01*
X84707440Y12955157D01*
X84705329Y12955226D01*
X84689696Y12965671D01*
X84689524Y12965799D01*
X84657695Y12992399D01*
X84588979Y13001030D01*
X84526349Y12971066D01*
X84513724Y12956497D01*
X84513325Y12956144D01*
X84511952Y12955226D01*
X84509956Y12955095D01*
X84508840Y12956889D01*
X84508840Y14398911D01*
X84509840Y14400643D01*
X84511951Y14400574D01*
X84527584Y14390129D01*
X84527756Y14390001D01*
X84559585Y14363401D01*
X84628301Y14354770D01*
X84690931Y14384734D01*
X84703556Y14399303D01*
X84703955Y14399656D01*
X84705328Y14400574D01*
X84707324Y14400705D01*
X84708440Y14398911D01*
G37*
G36*
X81205840Y14398911D02*
G01*
X81205840Y12956889D01*
X81204840Y12955157D01*
X81202729Y12955226D01*
X81187096Y12965671D01*
X81186924Y12965799D01*
X81155095Y12992399D01*
X81086379Y13001030D01*
X81023749Y12971066D01*
X81011124Y12956497D01*
X81010725Y12956144D01*
X81009352Y12955226D01*
X81007356Y12955095D01*
X81006240Y12956889D01*
X81006240Y14398911D01*
X81007240Y14400643D01*
X81009351Y14400574D01*
X81024984Y14390129D01*
X81025156Y14390001D01*
X81056985Y14363401D01*
X81125701Y14354770D01*
X81188331Y14384734D01*
X81200956Y14399303D01*
X81201355Y14399656D01*
X81202728Y14400574D01*
X81204724Y14400705D01*
X81205840Y14398911D01*
G37*
G36*
X82706940Y14398911D02*
G01*
X82706940Y12956889D01*
X82705940Y12955157D01*
X82703829Y12955226D01*
X82688196Y12965671D01*
X82688024Y12965799D01*
X82656195Y12992399D01*
X82587479Y13001030D01*
X82524849Y12971066D01*
X82512224Y12956497D01*
X82511825Y12956144D01*
X82510452Y12955226D01*
X82508456Y12955095D01*
X82507340Y12956889D01*
X82507340Y14398911D01*
X82508340Y14400643D01*
X82510451Y14400574D01*
X82526084Y14390129D01*
X82526256Y14390001D01*
X82558085Y14363401D01*
X82626801Y14354770D01*
X82689431Y14384734D01*
X82702056Y14399303D01*
X82702455Y14399656D01*
X82703828Y14400574D01*
X82705824Y14400705D01*
X82706940Y14398911D01*
G37*
G36*
X37525440Y14398911D02*
G01*
X37525440Y12956889D01*
X37524440Y12955157D01*
X37522329Y12955226D01*
X37506696Y12965671D01*
X37506524Y12965799D01*
X37474695Y12992399D01*
X37405979Y13001030D01*
X37343349Y12971066D01*
X37330724Y12956497D01*
X37330325Y12956144D01*
X37328952Y12955226D01*
X37326956Y12955095D01*
X37325840Y12956889D01*
X37325840Y14398911D01*
X37326840Y14400643D01*
X37328951Y14400574D01*
X37344584Y14390129D01*
X37344756Y14390001D01*
X37376585Y14363401D01*
X37445301Y14354770D01*
X37507931Y14384734D01*
X37520556Y14399303D01*
X37520955Y14399656D01*
X37522328Y14400574D01*
X37524324Y14400705D01*
X37525440Y14398911D01*
G37*
G36*
X80205040Y14398911D02*
G01*
X80205040Y12956889D01*
X80204040Y12955157D01*
X80201929Y12955226D01*
X80186296Y12965671D01*
X80186124Y12965799D01*
X80154295Y12992399D01*
X80085579Y13001030D01*
X80022949Y12971066D01*
X80010324Y12956497D01*
X80009925Y12956144D01*
X80008552Y12955226D01*
X80006556Y12955095D01*
X80005440Y12956889D01*
X80005440Y14398911D01*
X80006440Y14400643D01*
X80008551Y14400574D01*
X80024184Y14390129D01*
X80024356Y14390001D01*
X80056185Y14363401D01*
X80124901Y14354770D01*
X80187531Y14384734D01*
X80200156Y14399303D01*
X80200555Y14399656D01*
X80201928Y14400574D01*
X80203924Y14400705D01*
X80205040Y14398911D01*
G37*
G36*
X77703140Y14398911D02*
G01*
X77703140Y12956889D01*
X77702140Y12955157D01*
X77700029Y12955226D01*
X77684396Y12965671D01*
X77684224Y12965799D01*
X77652395Y12992399D01*
X77583679Y13001030D01*
X77521049Y12971066D01*
X77508424Y12956497D01*
X77508025Y12956144D01*
X77506652Y12955226D01*
X77504656Y12955095D01*
X77503540Y12956889D01*
X77503540Y14398911D01*
X77504540Y14400643D01*
X77506651Y14400574D01*
X77522284Y14390129D01*
X77522456Y14390001D01*
X77554285Y14363401D01*
X77623001Y14354770D01*
X77685631Y14384734D01*
X77698256Y14399303D01*
X77698655Y14399656D01*
X77700028Y14400574D01*
X77702024Y14400705D01*
X77703140Y14398911D01*
G37*
G36*
X78203540Y14398911D02*
G01*
X78203540Y12956889D01*
X78202540Y12955157D01*
X78200429Y12955226D01*
X78184796Y12965671D01*
X78184624Y12965799D01*
X78152795Y12992399D01*
X78084079Y13001030D01*
X78021449Y12971066D01*
X78008824Y12956497D01*
X78008425Y12956144D01*
X78007052Y12955226D01*
X78005056Y12955095D01*
X78003940Y12956889D01*
X78003940Y14398911D01*
X78004940Y14400643D01*
X78007051Y14400574D01*
X78022684Y14390129D01*
X78022856Y14390001D01*
X78054685Y14363401D01*
X78123401Y14354770D01*
X78186031Y14384734D01*
X78198656Y14399303D01*
X78199055Y14399656D01*
X78200428Y14400574D01*
X78202424Y14400705D01*
X78203540Y14398911D01*
G37*
G36*
X37025040Y14398911D02*
G01*
X37025040Y12956889D01*
X37024040Y12955157D01*
X37021929Y12955226D01*
X37006296Y12965671D01*
X37006124Y12965799D01*
X36974295Y12992399D01*
X36905579Y13001030D01*
X36842949Y12971066D01*
X36830324Y12956497D01*
X36829925Y12956144D01*
X36828552Y12955226D01*
X36826556Y12955095D01*
X36825440Y12956889D01*
X36825440Y14398911D01*
X36826440Y14400643D01*
X36828551Y14400574D01*
X36844184Y14390129D01*
X36844356Y14390001D01*
X36876185Y14363401D01*
X36944901Y14354770D01*
X37007531Y14384734D01*
X37020156Y14399303D01*
X37020555Y14399656D01*
X37021928Y14400574D01*
X37023924Y14400705D01*
X37025040Y14398911D01*
G37*
G36*
X83207340Y14398911D02*
G01*
X83207340Y12956889D01*
X83206340Y12955157D01*
X83204229Y12955226D01*
X83188596Y12965671D01*
X83188424Y12965799D01*
X83156595Y12992399D01*
X83087879Y13001030D01*
X83025249Y12971066D01*
X83012624Y12956497D01*
X83012225Y12956144D01*
X83010852Y12955226D01*
X83008856Y12955095D01*
X83007740Y12956889D01*
X83007740Y14398911D01*
X83008740Y14400643D01*
X83010851Y14400574D01*
X83026484Y14390129D01*
X83026656Y14390001D01*
X83058485Y14363401D01*
X83127201Y14354770D01*
X83189831Y14384734D01*
X83202456Y14399303D01*
X83202855Y14399656D01*
X83204228Y14400574D01*
X83206224Y14400705D01*
X83207340Y14398911D01*
G37*
G36*
X83707740Y14398911D02*
G01*
X83707740Y12956889D01*
X83706740Y12955157D01*
X83704629Y12955226D01*
X83688996Y12965671D01*
X83688824Y12965799D01*
X83656995Y12992399D01*
X83588279Y13001030D01*
X83525649Y12971066D01*
X83513024Y12956497D01*
X83512625Y12956144D01*
X83511252Y12955226D01*
X83509256Y12955095D01*
X83508140Y12956889D01*
X83508140Y14398911D01*
X83509140Y14400643D01*
X83511251Y14400574D01*
X83526884Y14390129D01*
X83527056Y14390001D01*
X83558885Y14363401D01*
X83627601Y14354770D01*
X83690231Y14384734D01*
X83702856Y14399303D01*
X83703255Y14399656D01*
X83704628Y14400574D01*
X83706624Y14400705D01*
X83707740Y14398911D01*
G37*
G36*
X36524640Y14398911D02*
G01*
X36524640Y12956889D01*
X36523640Y12955157D01*
X36521529Y12955226D01*
X36505896Y12965671D01*
X36505724Y12965799D01*
X36473895Y12992399D01*
X36405179Y13001030D01*
X36342549Y12971066D01*
X36329924Y12956497D01*
X36329525Y12956144D01*
X36328152Y12955226D01*
X36326156Y12955095D01*
X36325040Y12956889D01*
X36325040Y14398911D01*
X36326040Y14400643D01*
X36328151Y14400574D01*
X36343784Y14390129D01*
X36343956Y14390001D01*
X36375785Y14363401D01*
X36444501Y14354770D01*
X36507131Y14384734D01*
X36519756Y14399303D01*
X36520155Y14399656D01*
X36521528Y14400574D01*
X36523524Y14400705D01*
X36524640Y14398911D01*
G37*
G36*
X80705440Y14398911D02*
G01*
X80705440Y12956889D01*
X80704440Y12955157D01*
X80702329Y12955226D01*
X80686696Y12965671D01*
X80686524Y12965799D01*
X80654695Y12992399D01*
X80585979Y13001030D01*
X80523349Y12971066D01*
X80510724Y12956497D01*
X80510325Y12956144D01*
X80508952Y12955226D01*
X80506956Y12955095D01*
X80505840Y12956889D01*
X80505840Y14398911D01*
X80506840Y14400643D01*
X80508951Y14400574D01*
X80524584Y14390129D01*
X80524756Y14390001D01*
X80556585Y14363401D01*
X80625301Y14354770D01*
X80687931Y14384734D01*
X80700556Y14399303D01*
X80700955Y14399656D01*
X80702328Y14400574D01*
X80704324Y14400705D01*
X80705440Y14398911D01*
G37*
G36*
X73700140Y14398911D02*
G01*
X73700140Y12956889D01*
X73699140Y12955157D01*
X73697029Y12955226D01*
X73681396Y12965671D01*
X73681224Y12965799D01*
X73649395Y12992399D01*
X73580679Y13001030D01*
X73518049Y12971066D01*
X73505424Y12956497D01*
X73505025Y12956144D01*
X73503652Y12955226D01*
X73501656Y12955095D01*
X73500540Y12956889D01*
X73500540Y14398911D01*
X73501540Y14400643D01*
X73503651Y14400574D01*
X73519284Y14390129D01*
X73519456Y14390001D01*
X73551285Y14363401D01*
X73620001Y14354770D01*
X73682631Y14384734D01*
X73695256Y14399303D01*
X73695655Y14399656D01*
X73697028Y14400574D01*
X73699024Y14400705D01*
X73700140Y14398911D01*
G37*
G36*
X38025840Y14398911D02*
G01*
X38025840Y12956889D01*
X38024840Y12955157D01*
X38022729Y12955226D01*
X38007096Y12965671D01*
X38006924Y12965799D01*
X37975095Y12992399D01*
X37906379Y13001030D01*
X37843749Y12971066D01*
X37831124Y12956497D01*
X37830725Y12956144D01*
X37829352Y12955226D01*
X37827356Y12955095D01*
X37826240Y12956889D01*
X37826240Y14398911D01*
X37827240Y14400643D01*
X37829351Y14400574D01*
X37844984Y14390129D01*
X37845156Y14390001D01*
X37876985Y14363401D01*
X37945701Y14354770D01*
X38008331Y14384734D01*
X38020956Y14399303D01*
X38021355Y14399656D01*
X38022728Y14400574D01*
X38024724Y14400705D01*
X38025840Y14398911D01*
G37*
G36*
X71198240Y14398911D02*
G01*
X71198240Y12956889D01*
X71197240Y12955157D01*
X71195129Y12955226D01*
X71179496Y12965671D01*
X71179324Y12965799D01*
X71147495Y12992399D01*
X71078779Y13001030D01*
X71016149Y12971066D01*
X71003524Y12956497D01*
X71003125Y12956144D01*
X71001752Y12955226D01*
X70999756Y12955095D01*
X70998640Y12956889D01*
X70998640Y14398911D01*
X70999640Y14400643D01*
X71001751Y14400574D01*
X71017384Y14390129D01*
X71017556Y14390001D01*
X71049385Y14363401D01*
X71118101Y14354770D01*
X71180731Y14384734D01*
X71193356Y14399303D01*
X71193755Y14399656D01*
X71195128Y14400574D01*
X71197124Y14400705D01*
X71198240Y14398911D01*
G37*
G36*
X74200440Y14398911D02*
G01*
X74200440Y12956889D01*
X74199440Y12955157D01*
X74197329Y12955226D01*
X74181503Y12965800D01*
X74181331Y12965928D01*
X74149748Y12992324D01*
X74081032Y13000957D01*
X74018401Y12970994D01*
X74005859Y12956520D01*
X74005459Y12956167D01*
X74004051Y12955226D01*
X74002056Y12955095D01*
X74000940Y12956889D01*
X74000940Y14398911D01*
X74001940Y14400643D01*
X74004051Y14400574D01*
X74019877Y14390000D01*
X74020049Y14389872D01*
X74051632Y14363476D01*
X74120348Y14354843D01*
X74182979Y14384806D01*
X74195521Y14399280D01*
X74195921Y14399633D01*
X74197329Y14400574D01*
X74199324Y14400705D01*
X74200440Y14398911D01*
G37*
G36*
X28018240Y14398911D02*
G01*
X28018240Y12956889D01*
X28017240Y12955157D01*
X28015129Y12955226D01*
X27999496Y12965671D01*
X27999324Y12965799D01*
X27967495Y12992399D01*
X27898779Y13001030D01*
X27836149Y12971066D01*
X27823524Y12956497D01*
X27823125Y12956144D01*
X27821752Y12955226D01*
X27819756Y12955095D01*
X27818640Y12956889D01*
X27818640Y14398911D01*
X27819640Y14400643D01*
X27821751Y14400574D01*
X27837384Y14390129D01*
X27837556Y14390001D01*
X27869385Y14363401D01*
X27938101Y14354770D01*
X28000731Y14384734D01*
X28013356Y14399303D01*
X28013755Y14399656D01*
X28015128Y14400574D01*
X28017124Y14400705D01*
X28018240Y14398911D01*
G37*
G36*
X36024240Y14398911D02*
G01*
X36024240Y12956889D01*
X36023240Y12955157D01*
X36021129Y12955226D01*
X36005303Y12965800D01*
X36005131Y12965928D01*
X35973548Y12992324D01*
X35904832Y13000957D01*
X35842201Y12970994D01*
X35829659Y12956520D01*
X35829259Y12956167D01*
X35827851Y12955226D01*
X35825856Y12955095D01*
X35824740Y12956889D01*
X35824740Y14398911D01*
X35825740Y14400643D01*
X35827851Y14400574D01*
X35843677Y14390000D01*
X35843849Y14389872D01*
X35875432Y14363476D01*
X35944148Y14354843D01*
X36006779Y14384806D01*
X36019321Y14399280D01*
X36019721Y14399633D01*
X36021129Y14400574D01*
X36023124Y14400705D01*
X36024240Y14398911D01*
G37*
G36*
X33022040Y14398911D02*
G01*
X33022040Y12956889D01*
X33021040Y12955157D01*
X33018929Y12955226D01*
X33003296Y12965671D01*
X33003124Y12965799D01*
X32971295Y12992399D01*
X32902579Y13001030D01*
X32839949Y12971066D01*
X32827324Y12956497D01*
X32826925Y12956144D01*
X32825552Y12955226D01*
X32823556Y12955095D01*
X32822440Y12956889D01*
X32822440Y14398911D01*
X32823440Y14400643D01*
X32825551Y14400574D01*
X32841184Y14390129D01*
X32841356Y14390001D01*
X32873185Y14363401D01*
X32941901Y14354770D01*
X33004531Y14384734D01*
X33017156Y14399303D01*
X33017555Y14399656D01*
X33018928Y14400574D01*
X33020924Y14400705D01*
X33022040Y14398911D01*
G37*
G36*
X28518540Y14398911D02*
G01*
X28518540Y12956889D01*
X28517540Y12955157D01*
X28515429Y12955226D01*
X28499603Y12965800D01*
X28499431Y12965928D01*
X28467848Y12992324D01*
X28399132Y13000957D01*
X28336501Y12970994D01*
X28323959Y12956520D01*
X28323559Y12956167D01*
X28322151Y12955226D01*
X28320156Y12955095D01*
X28319040Y12956889D01*
X28319040Y14398911D01*
X28320040Y14400643D01*
X28322151Y14400574D01*
X28337977Y14390000D01*
X28338149Y14389872D01*
X28369732Y14363476D01*
X28438448Y14354843D01*
X28501079Y14384806D01*
X28513621Y14399280D01*
X28514021Y14399633D01*
X28515429Y14400574D01*
X28517424Y14400705D01*
X28518540Y14398911D01*
G37*
G36*
X79704640Y14398911D02*
G01*
X79704640Y12956889D01*
X79703640Y12955157D01*
X79701529Y12955226D01*
X79685896Y12965671D01*
X79685724Y12965799D01*
X79653895Y12992399D01*
X79585179Y13001030D01*
X79522549Y12971066D01*
X79509924Y12956497D01*
X79509525Y12956144D01*
X79508152Y12955226D01*
X79506156Y12955095D01*
X79505040Y12956889D01*
X79505040Y14398911D01*
X79506040Y14400643D01*
X79508151Y14400574D01*
X79523784Y14390129D01*
X79523956Y14390001D01*
X79555785Y14363401D01*
X79624501Y14354770D01*
X79687131Y14384734D01*
X79699756Y14399303D01*
X79700155Y14399656D01*
X79701528Y14400574D01*
X79703524Y14400705D01*
X79704640Y14398911D01*
G37*
G36*
X32521640Y14398911D02*
G01*
X32521640Y12956889D01*
X32520640Y12955157D01*
X32518529Y12955226D01*
X32502896Y12965671D01*
X32502724Y12965799D01*
X32470895Y12992399D01*
X32402179Y13001030D01*
X32339549Y12971066D01*
X32326924Y12956497D01*
X32326525Y12956144D01*
X32325152Y12955226D01*
X32323156Y12955095D01*
X32322040Y12956889D01*
X32322040Y14398911D01*
X32323040Y14400643D01*
X32325151Y14400574D01*
X32340784Y14390129D01*
X32340956Y14390001D01*
X32372785Y14363401D01*
X32441501Y14354770D01*
X32504131Y14384734D01*
X32516756Y14399303D01*
X32517155Y14399656D01*
X32518528Y14400574D01*
X32520524Y14400705D01*
X32521640Y14398911D01*
G37*
G36*
X75701640Y14398911D02*
G01*
X75701640Y12956889D01*
X75700640Y12955157D01*
X75698529Y12955226D01*
X75682896Y12965671D01*
X75682724Y12965799D01*
X75650895Y12992399D01*
X75582179Y13001030D01*
X75519549Y12971066D01*
X75506924Y12956497D01*
X75506525Y12956144D01*
X75505152Y12955226D01*
X75503156Y12955095D01*
X75502040Y12956889D01*
X75502040Y14398911D01*
X75503040Y14400643D01*
X75505151Y14400574D01*
X75520784Y14390129D01*
X75520956Y14390001D01*
X75552785Y14363401D01*
X75621501Y14354770D01*
X75684131Y14384734D01*
X75696756Y14399303D01*
X75697155Y14399656D01*
X75698528Y14400574D01*
X75700524Y14400705D01*
X75701640Y14398911D01*
G37*
G36*
X42028840Y14398911D02*
G01*
X42028840Y12956889D01*
X42027840Y12955157D01*
X42025729Y12955226D01*
X42010096Y12965671D01*
X42009924Y12965799D01*
X41978095Y12992399D01*
X41909379Y13001030D01*
X41846749Y12971066D01*
X41834124Y12956497D01*
X41833725Y12956144D01*
X41832352Y12955226D01*
X41830356Y12955095D01*
X41829240Y12956889D01*
X41829240Y14398911D01*
X41830240Y14400643D01*
X41832351Y14400574D01*
X41847984Y14390129D01*
X41848156Y14390001D01*
X41879985Y14363401D01*
X41948701Y14354770D01*
X42011331Y14384734D01*
X42023956Y14399303D01*
X42024355Y14399656D01*
X42025728Y14400574D01*
X42027724Y14400705D01*
X42028840Y14398911D01*
G37*
G36*
X85208840Y14398911D02*
G01*
X85208840Y12956889D01*
X85207840Y12955157D01*
X85205729Y12955226D01*
X85190096Y12965671D01*
X85189924Y12965799D01*
X85158095Y12992399D01*
X85089379Y13001030D01*
X85026749Y12971066D01*
X85014124Y12956497D01*
X85013725Y12956144D01*
X85012352Y12955226D01*
X85010356Y12955095D01*
X85009240Y12956889D01*
X85009240Y14398911D01*
X85010240Y14400643D01*
X85012351Y14400574D01*
X85027984Y14390129D01*
X85028156Y14390001D01*
X85059985Y14363401D01*
X85128701Y14354770D01*
X85191331Y14384734D01*
X85203956Y14399303D01*
X85204355Y14399656D01*
X85205728Y14400574D01*
X85207724Y14400705D01*
X85208840Y14398911D01*
G37*
G36*
X41028040Y14398911D02*
G01*
X41028040Y12956889D01*
X41027040Y12955157D01*
X41024929Y12955226D01*
X41009103Y12965800D01*
X41008931Y12965928D01*
X40977348Y12992324D01*
X40908632Y13000957D01*
X40846001Y12970994D01*
X40833459Y12956520D01*
X40833059Y12956167D01*
X40831651Y12955226D01*
X40829656Y12955095D01*
X40828540Y12956889D01*
X40828540Y14398911D01*
X40829540Y14400643D01*
X40831651Y14400574D01*
X40847477Y14390000D01*
X40847649Y14389872D01*
X40879232Y14363476D01*
X40947948Y14354843D01*
X41010579Y14384806D01*
X41023121Y14399280D01*
X41023521Y14399633D01*
X41024929Y14400574D01*
X41026924Y14400705D01*
X41028040Y14398911D01*
G37*
G36*
X34022740Y14398911D02*
G01*
X34022740Y12956889D01*
X34021740Y12955157D01*
X34019629Y12955226D01*
X34003996Y12965671D01*
X34003824Y12965799D01*
X33971995Y12992399D01*
X33903279Y13001030D01*
X33840649Y12971066D01*
X33828024Y12956497D01*
X33827625Y12956144D01*
X33826252Y12955226D01*
X33824256Y12955095D01*
X33823140Y12956889D01*
X33823140Y14398911D01*
X33824140Y14400643D01*
X33826251Y14400574D01*
X33841884Y14390129D01*
X33842056Y14390001D01*
X33873885Y14363401D01*
X33942601Y14354770D01*
X34005231Y14384734D01*
X34017856Y14399303D01*
X34018255Y14399656D01*
X34019628Y14400574D01*
X34021624Y14400705D01*
X34022740Y14398911D01*
G37*
G36*
X39526940Y14398911D02*
G01*
X39526940Y12956889D01*
X39525940Y12955157D01*
X39523829Y12955226D01*
X39508196Y12965671D01*
X39508024Y12965799D01*
X39476195Y12992399D01*
X39407479Y13001030D01*
X39344849Y12971066D01*
X39332224Y12956497D01*
X39331825Y12956144D01*
X39330452Y12955226D01*
X39328456Y12955095D01*
X39327340Y12956889D01*
X39327340Y14398911D01*
X39328340Y14400643D01*
X39330451Y14400574D01*
X39346084Y14390129D01*
X39346256Y14390001D01*
X39378085Y14363401D01*
X39446801Y14354770D01*
X39509431Y14384734D01*
X39522056Y14399303D01*
X39522455Y14399656D01*
X39523828Y14400574D01*
X39525824Y14400705D01*
X39526940Y14398911D01*
G37*
G36*
X81706140Y14398911D02*
G01*
X81706140Y12956889D01*
X81705140Y12955157D01*
X81703029Y12955226D01*
X81687203Y12965800D01*
X81687031Y12965928D01*
X81655448Y12992324D01*
X81586732Y13000957D01*
X81524101Y12970994D01*
X81511559Y12956520D01*
X81511159Y12956167D01*
X81509751Y12955226D01*
X81507756Y12955095D01*
X81506640Y12956889D01*
X81506640Y14398911D01*
X81507640Y14400643D01*
X81509751Y14400574D01*
X81525577Y14390000D01*
X81525749Y14389872D01*
X81557332Y14363476D01*
X81626048Y14354843D01*
X81688679Y14384806D01*
X81701221Y14399280D01*
X81701621Y14399633D01*
X81703029Y14400574D01*
X81705024Y14400705D01*
X81706140Y14398911D01*
G37*
G36*
X35023540Y14398911D02*
G01*
X35023540Y12956889D01*
X35022540Y12955157D01*
X35020429Y12955226D01*
X35004796Y12965671D01*
X35004624Y12965799D01*
X34972795Y12992399D01*
X34904079Y13001030D01*
X34841449Y12971066D01*
X34828824Y12956497D01*
X34828425Y12956144D01*
X34827052Y12955226D01*
X34825056Y12955095D01*
X34823940Y12956889D01*
X34823940Y14398911D01*
X34824940Y14400643D01*
X34827051Y14400574D01*
X34842684Y14390129D01*
X34842856Y14390001D01*
X34874685Y14363401D01*
X34943401Y14354770D01*
X35006031Y14384734D01*
X35018656Y14399303D01*
X35019055Y14399656D01*
X35020428Y14400574D01*
X35022424Y14400705D01*
X35023540Y14398911D01*
G37*
G36*
X84208040Y14398911D02*
G01*
X84208040Y12956889D01*
X84207040Y12955157D01*
X84204929Y12955226D01*
X84189103Y12965800D01*
X84188931Y12965928D01*
X84157348Y12992324D01*
X84088632Y13000957D01*
X84026001Y12970994D01*
X84013459Y12956520D01*
X84013059Y12956167D01*
X84011651Y12955226D01*
X84009656Y12955095D01*
X84008540Y12956889D01*
X84008540Y14398911D01*
X84009540Y14400643D01*
X84011651Y14400574D01*
X84027477Y14390000D01*
X84027649Y14389872D01*
X84059232Y14363476D01*
X84127948Y14354843D01*
X84190579Y14384806D01*
X84203121Y14399280D01*
X84203521Y14399633D01*
X84204929Y14400574D01*
X84206924Y14400705D01*
X84208040Y14398911D01*
G37*
G36*
X82206540Y14398911D02*
G01*
X82206540Y12956889D01*
X82205540Y12955157D01*
X82203429Y12955226D01*
X82187796Y12965671D01*
X82187624Y12965799D01*
X82155795Y12992399D01*
X82087079Y13001030D01*
X82024449Y12971066D01*
X82011824Y12956497D01*
X82011425Y12956144D01*
X82010052Y12955226D01*
X82008056Y12955095D01*
X82006940Y12956889D01*
X82006940Y14398911D01*
X82007940Y14400643D01*
X82010051Y14400574D01*
X82025684Y14390129D01*
X82025856Y14390001D01*
X82057685Y14363401D01*
X82126401Y14354770D01*
X82189031Y14384734D01*
X82201656Y14399303D01*
X82202055Y14399656D01*
X82203428Y14400574D01*
X82205424Y14400705D01*
X82206540Y14398911D01*
G37*
G36*
X35523940Y14398911D02*
G01*
X35523940Y12956889D01*
X35522940Y12955157D01*
X35520829Y12955226D01*
X35505196Y12965671D01*
X35505024Y12965799D01*
X35473195Y12992399D01*
X35404479Y13001030D01*
X35341849Y12971066D01*
X35329224Y12956497D01*
X35328825Y12956144D01*
X35327452Y12955226D01*
X35325456Y12955095D01*
X35324340Y12956889D01*
X35324340Y14398911D01*
X35325340Y14400643D01*
X35327451Y14400574D01*
X35343084Y14390129D01*
X35343256Y14390001D01*
X35375085Y14363401D01*
X35443801Y14354770D01*
X35506431Y14384734D01*
X35519056Y14399303D01*
X35519455Y14399656D01*
X35520828Y14400574D01*
X35522824Y14400705D01*
X35523940Y14398911D01*
G37*
G36*
X34523140Y14398911D02*
G01*
X34523140Y12956889D01*
X34522140Y12955157D01*
X34520029Y12955226D01*
X34504396Y12965671D01*
X34504224Y12965799D01*
X34472395Y12992399D01*
X34403679Y13001030D01*
X34341049Y12971066D01*
X34328424Y12956497D01*
X34328025Y12956144D01*
X34326652Y12955226D01*
X34324656Y12955095D01*
X34323540Y12956889D01*
X34323540Y14398911D01*
X34324540Y14400643D01*
X34326651Y14400574D01*
X34342284Y14390129D01*
X34342456Y14390001D01*
X34374285Y14363401D01*
X34443001Y14354770D01*
X34505631Y14384734D01*
X34518256Y14399303D01*
X34518655Y14399656D01*
X34520028Y14400574D01*
X34522024Y14400705D01*
X34523140Y14398911D01*
G37*
G36*
X76202040Y14398911D02*
G01*
X76202040Y12956889D01*
X76201040Y12955157D01*
X76198929Y12955226D01*
X76183296Y12965671D01*
X76183124Y12965799D01*
X76151295Y12992399D01*
X76082579Y13001030D01*
X76019949Y12971066D01*
X76007324Y12956497D01*
X76006925Y12956144D01*
X76005552Y12955226D01*
X76003556Y12955095D01*
X76002440Y12956889D01*
X76002440Y14398911D01*
X76003440Y14400643D01*
X76005551Y14400574D01*
X76021184Y14390129D01*
X76021356Y14390001D01*
X76053185Y14363401D01*
X76121901Y14354770D01*
X76184531Y14384734D01*
X76197156Y14399303D01*
X76197555Y14399656D01*
X76198928Y14400574D01*
X76200924Y14400705D01*
X76202040Y14398911D01*
G37*
G36*
X75201240Y14398911D02*
G01*
X75201240Y12956889D01*
X75200240Y12955157D01*
X75198129Y12955226D01*
X75182496Y12965671D01*
X75182324Y12965799D01*
X75150495Y12992399D01*
X75081779Y13001030D01*
X75019149Y12971066D01*
X75006524Y12956497D01*
X75006125Y12956144D01*
X75004752Y12955226D01*
X75002756Y12955095D01*
X75001640Y12956889D01*
X75001640Y14398911D01*
X75002640Y14400643D01*
X75004751Y14400574D01*
X75020384Y14390129D01*
X75020556Y14390001D01*
X75052385Y14363401D01*
X75121101Y14354770D01*
X75183731Y14384734D01*
X75196356Y14399303D01*
X75196755Y14399656D01*
X75198128Y14400574D01*
X75200124Y14400705D01*
X75201240Y14398911D01*
G37*
G36*
X41528440Y14398911D02*
G01*
X41528440Y12956889D01*
X41527440Y12955157D01*
X41525329Y12955226D01*
X41509696Y12965671D01*
X41509524Y12965799D01*
X41477695Y12992399D01*
X41408979Y13001030D01*
X41346349Y12971066D01*
X41333724Y12956497D01*
X41333325Y12956144D01*
X41331952Y12955226D01*
X41329956Y12955095D01*
X41328840Y12956889D01*
X41328840Y14398911D01*
X41329840Y14400643D01*
X41331951Y14400574D01*
X41347584Y14390129D01*
X41347756Y14390001D01*
X41379585Y14363401D01*
X41448301Y14354770D01*
X41510931Y14384734D01*
X41523556Y14399303D01*
X41523955Y14399656D01*
X41525328Y14400574D01*
X41527324Y14400705D01*
X41528440Y14398911D01*
G37*
G36*
X79204240Y14398911D02*
G01*
X79204240Y12956889D01*
X79203240Y12955157D01*
X79201129Y12955226D01*
X79185303Y12965800D01*
X79185131Y12965928D01*
X79153548Y12992324D01*
X79084832Y13000957D01*
X79022201Y12970994D01*
X79009659Y12956520D01*
X79009259Y12956167D01*
X79007851Y12955226D01*
X79005856Y12955095D01*
X79004740Y12956889D01*
X79004740Y14398911D01*
X79005740Y14400643D01*
X79007851Y14400574D01*
X79023677Y14390000D01*
X79023849Y14389872D01*
X79055432Y14363476D01*
X79124148Y14354843D01*
X79186779Y14384806D01*
X79199321Y14399280D01*
X79199721Y14399633D01*
X79201129Y14400574D01*
X79203124Y14400705D01*
X79204240Y14398911D01*
G37*
G36*
X38526140Y14398911D02*
G01*
X38526140Y12956889D01*
X38525140Y12955157D01*
X38523029Y12955226D01*
X38507203Y12965800D01*
X38507031Y12965928D01*
X38475448Y12992324D01*
X38406732Y13000957D01*
X38344101Y12970994D01*
X38331559Y12956520D01*
X38331159Y12956167D01*
X38329751Y12955226D01*
X38327756Y12955095D01*
X38326640Y12956889D01*
X38326640Y14398911D01*
X38327640Y14400643D01*
X38329751Y14400574D01*
X38345577Y14390000D01*
X38345749Y14389872D01*
X38377332Y14363476D01*
X38446048Y14354843D01*
X38508679Y14384806D01*
X38521221Y14399280D01*
X38521621Y14399633D01*
X38523029Y14400574D01*
X38525024Y14400705D01*
X38526140Y14398911D01*
G37*
G36*
X40527740Y14398911D02*
G01*
X40527740Y12956889D01*
X40526740Y12955157D01*
X40524629Y12955226D01*
X40508996Y12965671D01*
X40508824Y12965799D01*
X40476995Y12992399D01*
X40408279Y13001030D01*
X40345649Y12971066D01*
X40333024Y12956497D01*
X40332625Y12956144D01*
X40331252Y12955226D01*
X40329256Y12955095D01*
X40328140Y12956889D01*
X40328140Y14398911D01*
X40329140Y14400643D01*
X40331251Y14400574D01*
X40346884Y14390129D01*
X40347056Y14390001D01*
X40378885Y14363401D01*
X40447601Y14354770D01*
X40510231Y14384734D01*
X40522856Y14399303D01*
X40523255Y14399656D01*
X40524628Y14400574D01*
X40526624Y14400705D01*
X40527740Y14398911D01*
G37*
G36*
X36524640Y20571111D02*
G01*
X36524640Y19129089D01*
X36523640Y19127357D01*
X36521529Y19127426D01*
X36505896Y19137871D01*
X36505724Y19137999D01*
X36473895Y19164599D01*
X36405179Y19173230D01*
X36342549Y19143266D01*
X36329924Y19128697D01*
X36329525Y19128344D01*
X36328152Y19127426D01*
X36326156Y19127295D01*
X36325040Y19129089D01*
X36325040Y20571111D01*
X36326040Y20572843D01*
X36328151Y20572774D01*
X36343784Y20562329D01*
X36343956Y20562201D01*
X36375785Y20535601D01*
X36444501Y20526970D01*
X36507131Y20556934D01*
X36519756Y20571503D01*
X36520155Y20571856D01*
X36521528Y20572774D01*
X36523524Y20572905D01*
X36524640Y20571111D01*
G37*
G36*
X75701640Y20571111D02*
G01*
X75701640Y19129089D01*
X75700640Y19127357D01*
X75698529Y19127426D01*
X75682896Y19137871D01*
X75682724Y19137999D01*
X75650895Y19164599D01*
X75582179Y19173230D01*
X75519549Y19143266D01*
X75506924Y19128697D01*
X75506525Y19128344D01*
X75505152Y19127426D01*
X75503156Y19127295D01*
X75502040Y19129089D01*
X75502040Y20571111D01*
X75503040Y20572843D01*
X75505151Y20572774D01*
X75520784Y20562329D01*
X75520956Y20562201D01*
X75552785Y20535601D01*
X75621501Y20526970D01*
X75684131Y20556934D01*
X75696756Y20571503D01*
X75697155Y20571856D01*
X75698528Y20572774D01*
X75700524Y20572905D01*
X75701640Y20571111D01*
G37*
G36*
X41528440Y20571111D02*
G01*
X41528440Y19129089D01*
X41527440Y19127357D01*
X41525329Y19127426D01*
X41509696Y19137871D01*
X41509524Y19137999D01*
X41477695Y19164599D01*
X41408979Y19173230D01*
X41346349Y19143266D01*
X41333724Y19128697D01*
X41333325Y19128344D01*
X41331952Y19127426D01*
X41329956Y19127295D01*
X41328840Y19129089D01*
X41328840Y20571111D01*
X41329840Y20572843D01*
X41331951Y20572774D01*
X41347584Y20562329D01*
X41347756Y20562201D01*
X41379585Y20535601D01*
X41448301Y20526970D01*
X41510931Y20556934D01*
X41523556Y20571503D01*
X41523955Y20571856D01*
X41525328Y20572774D01*
X41527324Y20572905D01*
X41528440Y20571111D01*
G37*
G36*
X82206540Y20571111D02*
G01*
X82206540Y19129089D01*
X82205540Y19127357D01*
X82203429Y19127426D01*
X82187796Y19137871D01*
X82187624Y19137999D01*
X82155795Y19164599D01*
X82087079Y19173230D01*
X82024449Y19143266D01*
X82011824Y19128697D01*
X82011425Y19128344D01*
X82010052Y19127426D01*
X82008056Y19127295D01*
X82006940Y19129089D01*
X82006940Y20571111D01*
X82007940Y20572843D01*
X82010051Y20572774D01*
X82025684Y20562329D01*
X82025856Y20562201D01*
X82057685Y20535601D01*
X82126401Y20526970D01*
X82189031Y20556934D01*
X82201656Y20571503D01*
X82202055Y20571856D01*
X82203428Y20572774D01*
X82205424Y20572905D01*
X82206540Y20571111D01*
G37*
G36*
X76702340Y20571111D02*
G01*
X76702340Y19129089D01*
X76701340Y19127357D01*
X76699229Y19127426D01*
X76683403Y19138000D01*
X76683231Y19138128D01*
X76651648Y19164524D01*
X76582932Y19173157D01*
X76520301Y19143194D01*
X76507759Y19128720D01*
X76507359Y19128367D01*
X76505951Y19127426D01*
X76503956Y19127295D01*
X76502840Y19129089D01*
X76502840Y20571111D01*
X76503840Y20572843D01*
X76505951Y20572774D01*
X76521777Y20562200D01*
X76521949Y20562072D01*
X76553532Y20535676D01*
X76622248Y20527043D01*
X76684879Y20557006D01*
X76697421Y20571480D01*
X76697821Y20571833D01*
X76699229Y20572774D01*
X76701224Y20572905D01*
X76702340Y20571111D01*
G37*
G36*
X35523940Y20571111D02*
G01*
X35523940Y19129089D01*
X35522940Y19127357D01*
X35520829Y19127426D01*
X35505196Y19137871D01*
X35505024Y19137999D01*
X35473195Y19164599D01*
X35404479Y19173230D01*
X35341849Y19143266D01*
X35329224Y19128697D01*
X35328825Y19128344D01*
X35327452Y19127426D01*
X35325456Y19127295D01*
X35324340Y19129089D01*
X35324340Y20571111D01*
X35325340Y20572843D01*
X35327451Y20572774D01*
X35343084Y20562329D01*
X35343256Y20562201D01*
X35375085Y20535601D01*
X35443801Y20526970D01*
X35506431Y20556934D01*
X35519056Y20571503D01*
X35519455Y20571856D01*
X35520828Y20572774D01*
X35522824Y20572905D01*
X35523940Y20571111D01*
G37*
G36*
X32021240Y20571111D02*
G01*
X32021240Y19129089D01*
X32020240Y19127357D01*
X32018129Y19127426D01*
X32002496Y19137871D01*
X32002324Y19137999D01*
X31970495Y19164599D01*
X31901779Y19173230D01*
X31839149Y19143266D01*
X31826524Y19128697D01*
X31826125Y19128344D01*
X31824752Y19127426D01*
X31822756Y19127295D01*
X31821640Y19129089D01*
X31821640Y20571111D01*
X31822640Y20572843D01*
X31824751Y20572774D01*
X31840384Y20562329D01*
X31840556Y20562201D01*
X31872385Y20535601D01*
X31941101Y20526970D01*
X32003731Y20556934D01*
X32016356Y20571503D01*
X32016755Y20571856D01*
X32018128Y20572774D01*
X32020124Y20572905D01*
X32021240Y20571111D01*
G37*
G36*
X36024240Y20571111D02*
G01*
X36024240Y19129089D01*
X36023240Y19127357D01*
X36021129Y19127426D01*
X36005303Y19138000D01*
X36005131Y19138128D01*
X35973548Y19164524D01*
X35904832Y19173157D01*
X35842201Y19143194D01*
X35829659Y19128720D01*
X35829259Y19128367D01*
X35827851Y19127426D01*
X35825856Y19127295D01*
X35824740Y19129089D01*
X35824740Y20571111D01*
X35825740Y20572843D01*
X35827851Y20572774D01*
X35843677Y20562200D01*
X35843849Y20562072D01*
X35875432Y20535676D01*
X35944148Y20527043D01*
X36006779Y20557006D01*
X36019321Y20571480D01*
X36019721Y20571833D01*
X36021129Y20572774D01*
X36023124Y20572905D01*
X36024240Y20571111D01*
G37*
G36*
X77202740Y20571111D02*
G01*
X77202740Y19129089D01*
X77201740Y19127357D01*
X77199629Y19127426D01*
X77183996Y19137871D01*
X77183824Y19137999D01*
X77151995Y19164599D01*
X77083279Y19173230D01*
X77020649Y19143266D01*
X77008024Y19128697D01*
X77007625Y19128344D01*
X77006252Y19127426D01*
X77004256Y19127295D01*
X77003140Y19129089D01*
X77003140Y20571111D01*
X77004140Y20572843D01*
X77006251Y20572774D01*
X77021884Y20562329D01*
X77022056Y20562201D01*
X77053885Y20535601D01*
X77122601Y20526970D01*
X77185231Y20556934D01*
X77197856Y20571503D01*
X77198255Y20571856D01*
X77199628Y20572774D01*
X77201624Y20572905D01*
X77202740Y20571111D01*
G37*
G36*
X37025040Y20571111D02*
G01*
X37025040Y19129089D01*
X37024040Y19127357D01*
X37021929Y19127426D01*
X37006296Y19137871D01*
X37006124Y19137999D01*
X36974295Y19164599D01*
X36905579Y19173230D01*
X36842949Y19143266D01*
X36830324Y19128697D01*
X36829925Y19128344D01*
X36828552Y19127426D01*
X36826556Y19127295D01*
X36825440Y19129089D01*
X36825440Y20571111D01*
X36826440Y20572843D01*
X36828551Y20572774D01*
X36844184Y20562329D01*
X36844356Y20562201D01*
X36876185Y20535601D01*
X36944901Y20526970D01*
X37007531Y20556934D01*
X37020156Y20571503D01*
X37020555Y20571856D01*
X37021928Y20572774D01*
X37023924Y20572905D01*
X37025040Y20571111D01*
G37*
G36*
X76202040Y20571111D02*
G01*
X76202040Y19129089D01*
X76201040Y19127357D01*
X76198929Y19127426D01*
X76183296Y19137871D01*
X76183124Y19137999D01*
X76151295Y19164599D01*
X76082579Y19173230D01*
X76019949Y19143266D01*
X76007324Y19128697D01*
X76006925Y19128344D01*
X76005552Y19127426D01*
X76003556Y19127295D01*
X76002440Y19129089D01*
X76002440Y20571111D01*
X76003440Y20572843D01*
X76005551Y20572774D01*
X76021184Y20562329D01*
X76021356Y20562201D01*
X76053185Y20535601D01*
X76121901Y20526970D01*
X76184531Y20556934D01*
X76197156Y20571503D01*
X76197555Y20571856D01*
X76198928Y20572774D01*
X76200924Y20572905D01*
X76202040Y20571111D01*
G37*
G36*
X74200440Y20571111D02*
G01*
X74200440Y19129089D01*
X74199440Y19127357D01*
X74197329Y19127426D01*
X74181503Y19138000D01*
X74181331Y19138128D01*
X74149748Y19164524D01*
X74081032Y19173157D01*
X74018401Y19143194D01*
X74005859Y19128720D01*
X74005459Y19128367D01*
X74004051Y19127426D01*
X74002056Y19127295D01*
X74000940Y19129089D01*
X74000940Y20571111D01*
X74001940Y20572843D01*
X74004051Y20572774D01*
X74019877Y20562200D01*
X74020049Y20562072D01*
X74051632Y20535676D01*
X74120348Y20527043D01*
X74182979Y20557006D01*
X74195521Y20571480D01*
X74195921Y20571833D01*
X74197329Y20572774D01*
X74199324Y20572905D01*
X74200440Y20571111D01*
G37*
G36*
X73700140Y20571111D02*
G01*
X73700140Y19129089D01*
X73699140Y19127357D01*
X73697029Y19127426D01*
X73681396Y19137871D01*
X73681224Y19137999D01*
X73649395Y19164599D01*
X73580679Y19173230D01*
X73518049Y19143266D01*
X73505424Y19128697D01*
X73505025Y19128344D01*
X73503652Y19127426D01*
X73501656Y19127295D01*
X73500540Y19129089D01*
X73500540Y20571111D01*
X73501540Y20572843D01*
X73503651Y20572774D01*
X73519284Y20562329D01*
X73519456Y20562201D01*
X73551285Y20535601D01*
X73620001Y20526970D01*
X73682631Y20556934D01*
X73695256Y20571503D01*
X73695655Y20571856D01*
X73697028Y20572774D01*
X73699024Y20572905D01*
X73700140Y20571111D01*
G37*
G36*
X73199740Y20571111D02*
G01*
X73199740Y19129089D01*
X73198740Y19127357D01*
X73196629Y19127426D01*
X73180996Y19137871D01*
X73180824Y19137999D01*
X73148995Y19164599D01*
X73080279Y19173230D01*
X73017649Y19143266D01*
X73005024Y19128697D01*
X73004625Y19128344D01*
X73003252Y19127426D01*
X73001256Y19127295D01*
X73000140Y19129089D01*
X73000140Y20571111D01*
X73001140Y20572843D01*
X73003251Y20572774D01*
X73018884Y20562329D01*
X73019056Y20562201D01*
X73050885Y20535601D01*
X73119601Y20526970D01*
X73182231Y20556934D01*
X73194856Y20571503D01*
X73195255Y20571856D01*
X73196628Y20572774D01*
X73198624Y20572905D01*
X73199740Y20571111D01*
G37*
G36*
X72699340Y20571111D02*
G01*
X72699340Y19129089D01*
X72698340Y19127357D01*
X72696229Y19127426D01*
X72680596Y19137871D01*
X72680424Y19137999D01*
X72648595Y19164599D01*
X72579879Y19173230D01*
X72517249Y19143266D01*
X72504624Y19128697D01*
X72504225Y19128344D01*
X72502852Y19127426D01*
X72500856Y19127295D01*
X72499740Y19129089D01*
X72499740Y20571111D01*
X72500740Y20572843D01*
X72502851Y20572774D01*
X72518484Y20562329D01*
X72518656Y20562201D01*
X72550485Y20535601D01*
X72619201Y20526970D01*
X72681831Y20556934D01*
X72694456Y20571503D01*
X72694855Y20571856D01*
X72696228Y20572774D01*
X72698224Y20572905D01*
X72699340Y20571111D01*
G37*
G36*
X72198940Y20571111D02*
G01*
X72198940Y19129089D01*
X72197940Y19127357D01*
X72195829Y19127426D01*
X72180196Y19137871D01*
X72180024Y19137999D01*
X72148195Y19164599D01*
X72079479Y19173230D01*
X72016849Y19143266D01*
X72004224Y19128697D01*
X72003825Y19128344D01*
X72002452Y19127426D01*
X72000456Y19127295D01*
X71999340Y19129089D01*
X71999340Y20571111D01*
X72000340Y20572843D01*
X72002451Y20572774D01*
X72018084Y20562329D01*
X72018256Y20562201D01*
X72050085Y20535601D01*
X72118801Y20526970D01*
X72181431Y20556934D01*
X72194056Y20571503D01*
X72194455Y20571856D01*
X72195828Y20572774D01*
X72197824Y20572905D01*
X72198940Y20571111D01*
G37*
G36*
X71698540Y20571111D02*
G01*
X71698540Y19129089D01*
X71697540Y19127357D01*
X71695429Y19127426D01*
X71679603Y19138000D01*
X71679431Y19138128D01*
X71647848Y19164524D01*
X71579132Y19173157D01*
X71516501Y19143194D01*
X71503959Y19128720D01*
X71503559Y19128367D01*
X71502151Y19127426D01*
X71500156Y19127295D01*
X71499040Y19129089D01*
X71499040Y20571111D01*
X71500040Y20572843D01*
X71502151Y20572774D01*
X71517977Y20562200D01*
X71518149Y20562072D01*
X71549732Y20535676D01*
X71618448Y20527043D01*
X71681079Y20557006D01*
X71693621Y20571480D01*
X71694021Y20571833D01*
X71695429Y20572774D01*
X71697424Y20572905D01*
X71698540Y20571111D01*
G37*
G36*
X71198240Y20571111D02*
G01*
X71198240Y19129089D01*
X71197240Y19127357D01*
X71195129Y19127426D01*
X71179496Y19137871D01*
X71179324Y19137999D01*
X71147495Y19164599D01*
X71078779Y19173230D01*
X71016149Y19143266D01*
X71003524Y19128697D01*
X71003125Y19128344D01*
X71001752Y19127426D01*
X70999756Y19127295D01*
X70998640Y19129089D01*
X70998640Y20571111D01*
X70999640Y20572843D01*
X71001751Y20572774D01*
X71017384Y20562329D01*
X71017556Y20562201D01*
X71049385Y20535601D01*
X71118101Y20526970D01*
X71180731Y20556934D01*
X71193356Y20571503D01*
X71193755Y20571856D01*
X71195128Y20572774D01*
X71197124Y20572905D01*
X71198240Y20571111D01*
G37*
G36*
X81706140Y20571111D02*
G01*
X81706140Y19129089D01*
X81705140Y19127357D01*
X81703029Y19127426D01*
X81687203Y19138000D01*
X81687031Y19138128D01*
X81655448Y19164524D01*
X81586732Y19173157D01*
X81524101Y19143194D01*
X81511559Y19128720D01*
X81511159Y19128367D01*
X81509751Y19127426D01*
X81507756Y19127295D01*
X81506640Y19129089D01*
X81506640Y20571111D01*
X81507640Y20572843D01*
X81509751Y20572774D01*
X81525577Y20562200D01*
X81525749Y20562072D01*
X81557332Y20535676D01*
X81626048Y20527043D01*
X81688679Y20557006D01*
X81701221Y20571480D01*
X81701621Y20571833D01*
X81703029Y20572774D01*
X81705024Y20572905D01*
X81706140Y20571111D01*
G37*
G36*
X85208840Y20571111D02*
G01*
X85208840Y19129089D01*
X85207840Y19127357D01*
X85205729Y19127426D01*
X85190096Y19137871D01*
X85189924Y19137999D01*
X85158095Y19164599D01*
X85089379Y19173230D01*
X85026749Y19143266D01*
X85014124Y19128697D01*
X85013725Y19128344D01*
X85012352Y19127426D01*
X85010356Y19127295D01*
X85009240Y19129089D01*
X85009240Y20571111D01*
X85010240Y20572843D01*
X85012351Y20572774D01*
X85027984Y20562329D01*
X85028156Y20562201D01*
X85059985Y20535601D01*
X85128701Y20526970D01*
X85191331Y20556934D01*
X85203956Y20571503D01*
X85204355Y20571856D01*
X85205728Y20572774D01*
X85207724Y20572905D01*
X85208840Y20571111D01*
G37*
G36*
X84708440Y20571111D02*
G01*
X84708440Y19129089D01*
X84707440Y19127357D01*
X84705329Y19127426D01*
X84689696Y19137871D01*
X84689524Y19137999D01*
X84657695Y19164599D01*
X84588979Y19173230D01*
X84526349Y19143266D01*
X84513724Y19128697D01*
X84513325Y19128344D01*
X84511952Y19127426D01*
X84509956Y19127295D01*
X84508840Y19129089D01*
X84508840Y20571111D01*
X84509840Y20572843D01*
X84511951Y20572774D01*
X84527584Y20562329D01*
X84527756Y20562201D01*
X84559585Y20535601D01*
X84628301Y20526970D01*
X84690931Y20556934D01*
X84703556Y20571503D01*
X84703955Y20571856D01*
X84705328Y20572774D01*
X84707324Y20572905D01*
X84708440Y20571111D01*
G37*
G36*
X74700840Y20571111D02*
G01*
X74700840Y19129089D01*
X74699840Y19127357D01*
X74697729Y19127426D01*
X74682096Y19137871D01*
X74681924Y19137999D01*
X74650095Y19164599D01*
X74581379Y19173230D01*
X74518749Y19143266D01*
X74506124Y19128697D01*
X74505725Y19128344D01*
X74504352Y19127426D01*
X74502356Y19127295D01*
X74501240Y19129089D01*
X74501240Y20571111D01*
X74502240Y20572843D01*
X74504351Y20572774D01*
X74519984Y20562329D01*
X74520156Y20562201D01*
X74551985Y20535601D01*
X74620701Y20526970D01*
X74683331Y20556934D01*
X74695956Y20571503D01*
X74696355Y20571856D01*
X74697728Y20572774D01*
X74699724Y20572905D01*
X74700840Y20571111D01*
G37*
G36*
X31020440Y20571111D02*
G01*
X31020440Y19129089D01*
X31019440Y19127357D01*
X31017329Y19127426D01*
X31001503Y19138000D01*
X31001331Y19138128D01*
X30969748Y19164524D01*
X30901032Y19173157D01*
X30838401Y19143194D01*
X30825859Y19128720D01*
X30825459Y19128367D01*
X30824051Y19127426D01*
X30822056Y19127295D01*
X30820940Y19129089D01*
X30820940Y20571111D01*
X30821940Y20572843D01*
X30824051Y20572774D01*
X30839877Y20562200D01*
X30840049Y20562072D01*
X30871632Y20535676D01*
X30940348Y20527043D01*
X31002979Y20557006D01*
X31015521Y20571480D01*
X31015921Y20571833D01*
X31017329Y20572774D01*
X31019324Y20572905D01*
X31020440Y20571111D01*
G37*
G36*
X30520140Y20571111D02*
G01*
X30520140Y19129089D01*
X30519140Y19127357D01*
X30517029Y19127426D01*
X30501396Y19137871D01*
X30501224Y19137999D01*
X30469395Y19164599D01*
X30400679Y19173230D01*
X30338049Y19143266D01*
X30325424Y19128697D01*
X30325025Y19128344D01*
X30323652Y19127426D01*
X30321656Y19127295D01*
X30320540Y19129089D01*
X30320540Y20571111D01*
X30321540Y20572843D01*
X30323651Y20572774D01*
X30339284Y20562329D01*
X30339456Y20562201D01*
X30371285Y20535601D01*
X30440001Y20526970D01*
X30502631Y20556934D01*
X30515256Y20571503D01*
X30515655Y20571856D01*
X30517028Y20572774D01*
X30519024Y20572905D01*
X30520140Y20571111D01*
G37*
G36*
X32521640Y20571111D02*
G01*
X32521640Y19129089D01*
X32520640Y19127357D01*
X32518529Y19127426D01*
X32502896Y19137871D01*
X32502724Y19137999D01*
X32470895Y19164599D01*
X32402179Y19173230D01*
X32339549Y19143266D01*
X32326924Y19128697D01*
X32326525Y19128344D01*
X32325152Y19127426D01*
X32323156Y19127295D01*
X32322040Y19129089D01*
X32322040Y20571111D01*
X32323040Y20572843D01*
X32325151Y20572774D01*
X32340784Y20562329D01*
X32340956Y20562201D01*
X32372785Y20535601D01*
X32441501Y20526970D01*
X32504131Y20556934D01*
X32516756Y20571503D01*
X32517155Y20571856D01*
X32518528Y20572774D01*
X32520524Y20572905D01*
X32521640Y20571111D01*
G37*
G36*
X30019740Y20571111D02*
G01*
X30019740Y19129089D01*
X30018740Y19127357D01*
X30016629Y19127426D01*
X30000996Y19137871D01*
X30000824Y19137999D01*
X29968995Y19164599D01*
X29900279Y19173230D01*
X29837649Y19143266D01*
X29825024Y19128697D01*
X29824625Y19128344D01*
X29823252Y19127426D01*
X29821256Y19127295D01*
X29820140Y19129089D01*
X29820140Y20571111D01*
X29821140Y20572843D01*
X29823251Y20572774D01*
X29838884Y20562329D01*
X29839056Y20562201D01*
X29870885Y20535601D01*
X29939601Y20526970D01*
X30002231Y20556934D01*
X30014856Y20571503D01*
X30015255Y20571856D01*
X30016628Y20572774D01*
X30018624Y20572905D01*
X30019740Y20571111D01*
G37*
G36*
X29519340Y20571111D02*
G01*
X29519340Y19129089D01*
X29518340Y19127357D01*
X29516229Y19127426D01*
X29500596Y19137871D01*
X29500424Y19137999D01*
X29468595Y19164599D01*
X29399879Y19173230D01*
X29337249Y19143266D01*
X29324624Y19128697D01*
X29324225Y19128344D01*
X29322852Y19127426D01*
X29320856Y19127295D01*
X29319740Y19129089D01*
X29319740Y20571111D01*
X29320740Y20572843D01*
X29322851Y20572774D01*
X29338484Y20562329D01*
X29338656Y20562201D01*
X29370485Y20535601D01*
X29439201Y20526970D01*
X29501831Y20556934D01*
X29514456Y20571503D01*
X29514855Y20571856D01*
X29516228Y20572774D01*
X29518224Y20572905D01*
X29519340Y20571111D01*
G37*
G36*
X29018940Y20571111D02*
G01*
X29018940Y19129089D01*
X29017940Y19127357D01*
X29015829Y19127426D01*
X29000196Y19137871D01*
X29000024Y19137999D01*
X28968195Y19164599D01*
X28899479Y19173230D01*
X28836849Y19143266D01*
X28824224Y19128697D01*
X28823825Y19128344D01*
X28822452Y19127426D01*
X28820456Y19127295D01*
X28819340Y19129089D01*
X28819340Y20571111D01*
X28820340Y20572843D01*
X28822451Y20572774D01*
X28838084Y20562329D01*
X28838256Y20562201D01*
X28870085Y20535601D01*
X28938801Y20526970D01*
X29001431Y20556934D01*
X29014056Y20571503D01*
X29014455Y20571856D01*
X29015828Y20572774D01*
X29017824Y20572905D01*
X29018940Y20571111D01*
G37*
G36*
X33022040Y20571111D02*
G01*
X33022040Y19129089D01*
X33021040Y19127357D01*
X33018929Y19127426D01*
X33003296Y19137871D01*
X33003124Y19137999D01*
X32971295Y19164599D01*
X32902579Y19173230D01*
X32839949Y19143266D01*
X32827324Y19128697D01*
X32826925Y19128344D01*
X32825552Y19127426D01*
X32823556Y19127295D01*
X32822440Y19129089D01*
X32822440Y20571111D01*
X32823440Y20572843D01*
X32825551Y20572774D01*
X32841184Y20562329D01*
X32841356Y20562201D01*
X32873185Y20535601D01*
X32941901Y20526970D01*
X33004531Y20556934D01*
X33017156Y20571503D01*
X33017555Y20571856D01*
X33018928Y20572774D01*
X33020924Y20572905D01*
X33022040Y20571111D01*
G37*
G36*
X28518540Y20571111D02*
G01*
X28518540Y19129089D01*
X28517540Y19127357D01*
X28515429Y19127426D01*
X28499603Y19138000D01*
X28499431Y19138128D01*
X28467848Y19164524D01*
X28399132Y19173157D01*
X28336501Y19143194D01*
X28323959Y19128720D01*
X28323559Y19128367D01*
X28322151Y19127426D01*
X28320156Y19127295D01*
X28319040Y19129089D01*
X28319040Y20571111D01*
X28320040Y20572843D01*
X28322151Y20572774D01*
X28337977Y20562200D01*
X28338149Y20562072D01*
X28369732Y20535676D01*
X28438448Y20527043D01*
X28501079Y20557006D01*
X28513621Y20571480D01*
X28514021Y20571833D01*
X28515429Y20572774D01*
X28517424Y20572905D01*
X28518540Y20571111D01*
G37*
G36*
X28018240Y20571111D02*
G01*
X28018240Y19129089D01*
X28017240Y19127357D01*
X28015129Y19127426D01*
X27999496Y19137871D01*
X27999324Y19137999D01*
X27967495Y19164599D01*
X27898779Y19173230D01*
X27836149Y19143266D01*
X27823524Y19128697D01*
X27823125Y19128344D01*
X27821752Y19127426D01*
X27819756Y19127295D01*
X27818640Y19129089D01*
X27818640Y20571111D01*
X27819640Y20572843D01*
X27821751Y20572774D01*
X27837384Y20562329D01*
X27837556Y20562201D01*
X27869385Y20535601D01*
X27938101Y20526970D01*
X28000731Y20556934D01*
X28013356Y20571503D01*
X28013755Y20571856D01*
X28015128Y20572774D01*
X28017124Y20572905D01*
X28018240Y20571111D01*
G37*
G36*
X38526140Y20571111D02*
G01*
X38526140Y19129089D01*
X38525140Y19127357D01*
X38523029Y19127426D01*
X38507203Y19138000D01*
X38507031Y19138128D01*
X38475448Y19164524D01*
X38406732Y19173157D01*
X38344101Y19143194D01*
X38331559Y19128720D01*
X38331159Y19128367D01*
X38329751Y19127426D01*
X38327756Y19127295D01*
X38326640Y19129089D01*
X38326640Y20571111D01*
X38327640Y20572843D01*
X38329751Y20572774D01*
X38345577Y20562200D01*
X38345749Y20562072D01*
X38377332Y20535676D01*
X38446048Y20527043D01*
X38508679Y20557006D01*
X38521221Y20571480D01*
X38521621Y20571833D01*
X38523029Y20572774D01*
X38525024Y20572905D01*
X38526140Y20571111D01*
G37*
G36*
X37525440Y20571111D02*
G01*
X37525440Y19129089D01*
X37524440Y19127357D01*
X37522329Y19127426D01*
X37506696Y19137871D01*
X37506524Y19137999D01*
X37474695Y19164599D01*
X37405979Y19173230D01*
X37343349Y19143266D01*
X37330724Y19128697D01*
X37330325Y19128344D01*
X37328952Y19127426D01*
X37326956Y19127295D01*
X37325840Y19129089D01*
X37325840Y20571111D01*
X37326840Y20572843D01*
X37328951Y20572774D01*
X37344584Y20562329D01*
X37344756Y20562201D01*
X37376585Y20535601D01*
X37445301Y20526970D01*
X37507931Y20556934D01*
X37520556Y20571503D01*
X37520955Y20571856D01*
X37522328Y20572774D01*
X37524324Y20572905D01*
X37525440Y20571111D01*
G37*
G36*
X42028840Y20571111D02*
G01*
X42028840Y19129089D01*
X42027840Y19127357D01*
X42025729Y19127426D01*
X42010096Y19137871D01*
X42009924Y19137999D01*
X41978095Y19164599D01*
X41909379Y19173230D01*
X41846749Y19143266D01*
X41834124Y19128697D01*
X41833725Y19128344D01*
X41832352Y19127426D01*
X41830356Y19127295D01*
X41829240Y19129089D01*
X41829240Y20571111D01*
X41830240Y20572843D01*
X41832351Y20572774D01*
X41847984Y20562329D01*
X41848156Y20562201D01*
X41879985Y20535601D01*
X41948701Y20526970D01*
X42011331Y20556934D01*
X42023956Y20571503D01*
X42024355Y20571856D01*
X42025728Y20572774D01*
X42027724Y20572905D01*
X42028840Y20571111D01*
G37*
G36*
X33522340Y20571111D02*
G01*
X33522340Y19129089D01*
X33521340Y19127357D01*
X33519229Y19127426D01*
X33503403Y19138000D01*
X33503231Y19138128D01*
X33471648Y19164524D01*
X33402932Y19173157D01*
X33340301Y19143194D01*
X33327759Y19128720D01*
X33327359Y19128367D01*
X33325951Y19127426D01*
X33323956Y19127295D01*
X33322840Y19129089D01*
X33322840Y20571111D01*
X33323840Y20572843D01*
X33325951Y20572774D01*
X33341777Y20562200D01*
X33341949Y20562072D01*
X33373532Y20535676D01*
X33442248Y20527043D01*
X33504879Y20557006D01*
X33517421Y20571480D01*
X33517821Y20571833D01*
X33519229Y20572774D01*
X33521224Y20572905D01*
X33522340Y20571111D01*
G37*
G36*
X41028040Y20571111D02*
G01*
X41028040Y19129089D01*
X41027040Y19127357D01*
X41024929Y19127426D01*
X41009103Y19138000D01*
X41008931Y19138128D01*
X40977348Y19164524D01*
X40908632Y19173157D01*
X40846001Y19143194D01*
X40833459Y19128720D01*
X40833059Y19128367D01*
X40831651Y19127426D01*
X40829656Y19127295D01*
X40828540Y19129089D01*
X40828540Y20571111D01*
X40829540Y20572843D01*
X40831651Y20572774D01*
X40847477Y20562200D01*
X40847649Y20562072D01*
X40879232Y20535676D01*
X40947948Y20527043D01*
X41010579Y20557006D01*
X41023121Y20571480D01*
X41023521Y20571833D01*
X41024929Y20572774D01*
X41026924Y20572905D01*
X41028040Y20571111D01*
G37*
G36*
X78203540Y20571111D02*
G01*
X78203540Y19129089D01*
X78202540Y19127357D01*
X78200429Y19127426D01*
X78184796Y19137871D01*
X78184624Y19137999D01*
X78152795Y19164599D01*
X78084079Y19173230D01*
X78021449Y19143266D01*
X78008824Y19128697D01*
X78008425Y19128344D01*
X78007052Y19127426D01*
X78005056Y19127295D01*
X78003940Y19129089D01*
X78003940Y20571111D01*
X78004940Y20572843D01*
X78007051Y20572774D01*
X78022684Y20562329D01*
X78022856Y20562201D01*
X78054685Y20535601D01*
X78123401Y20526970D01*
X78186031Y20556934D01*
X78198656Y20571503D01*
X78199055Y20571856D01*
X78200428Y20572774D01*
X78202424Y20572905D01*
X78203540Y20571111D01*
G37*
G36*
X40527740Y20571111D02*
G01*
X40527740Y19129089D01*
X40526740Y19127357D01*
X40524629Y19127426D01*
X40508996Y19137871D01*
X40508824Y19137999D01*
X40476995Y19164599D01*
X40408279Y19173230D01*
X40345649Y19143266D01*
X40333024Y19128697D01*
X40332625Y19128344D01*
X40331252Y19127426D01*
X40329256Y19127295D01*
X40328140Y19129089D01*
X40328140Y20571111D01*
X40329140Y20572843D01*
X40331251Y20572774D01*
X40346884Y20562329D01*
X40347056Y20562201D01*
X40378885Y20535601D01*
X40447601Y20526970D01*
X40510231Y20556934D01*
X40522856Y20571503D01*
X40523255Y20571856D01*
X40524628Y20572774D01*
X40526624Y20572905D01*
X40527740Y20571111D01*
G37*
G36*
X40027340Y20571111D02*
G01*
X40027340Y19129089D01*
X40026340Y19127357D01*
X40024229Y19127426D01*
X40008596Y19137871D01*
X40008424Y19137999D01*
X39976595Y19164599D01*
X39907879Y19173230D01*
X39845249Y19143266D01*
X39832624Y19128697D01*
X39832225Y19128344D01*
X39830852Y19127426D01*
X39828856Y19127295D01*
X39827740Y19129089D01*
X39827740Y20571111D01*
X39828740Y20572843D01*
X39830851Y20572774D01*
X39846484Y20562329D01*
X39846656Y20562201D01*
X39878485Y20535601D01*
X39947201Y20526970D01*
X40009831Y20556934D01*
X40022456Y20571503D01*
X40022855Y20571856D01*
X40024228Y20572774D01*
X40026224Y20572905D01*
X40027340Y20571111D01*
G37*
G36*
X39526940Y20571111D02*
G01*
X39526940Y19129089D01*
X39525940Y19127357D01*
X39523829Y19127426D01*
X39508196Y19137871D01*
X39508024Y19137999D01*
X39476195Y19164599D01*
X39407479Y19173230D01*
X39344849Y19143266D01*
X39332224Y19128697D01*
X39331825Y19128344D01*
X39330452Y19127426D01*
X39328456Y19127295D01*
X39327340Y19129089D01*
X39327340Y20571111D01*
X39328340Y20572843D01*
X39330451Y20572774D01*
X39346084Y20562329D01*
X39346256Y20562201D01*
X39378085Y20535601D01*
X39446801Y20526970D01*
X39509431Y20556934D01*
X39522056Y20571503D01*
X39522455Y20571856D01*
X39523828Y20572774D01*
X39525824Y20572905D01*
X39526940Y20571111D01*
G37*
G36*
X77703140Y20571111D02*
G01*
X77703140Y19129089D01*
X77702140Y19127357D01*
X77700029Y19127426D01*
X77684396Y19137871D01*
X77684224Y19137999D01*
X77652395Y19164599D01*
X77583679Y19173230D01*
X77521049Y19143266D01*
X77508424Y19128697D01*
X77508025Y19128344D01*
X77506652Y19127426D01*
X77504656Y19127295D01*
X77503540Y19129089D01*
X77503540Y20571111D01*
X77504540Y20572843D01*
X77506651Y20572774D01*
X77522284Y20562329D01*
X77522456Y20562201D01*
X77554285Y20535601D01*
X77623001Y20526970D01*
X77685631Y20556934D01*
X77698256Y20571503D01*
X77698655Y20571856D01*
X77700028Y20572774D01*
X77702024Y20572905D01*
X77703140Y20571111D01*
G37*
G36*
X39026540Y20571111D02*
G01*
X39026540Y19129089D01*
X39025540Y19127357D01*
X39023429Y19127426D01*
X39007796Y19137871D01*
X39007624Y19137999D01*
X38975795Y19164599D01*
X38907079Y19173230D01*
X38844449Y19143266D01*
X38831824Y19128697D01*
X38831425Y19128344D01*
X38830052Y19127426D01*
X38828056Y19127295D01*
X38826940Y19129089D01*
X38826940Y20571111D01*
X38827940Y20572843D01*
X38830051Y20572774D01*
X38845684Y20562329D01*
X38845856Y20562201D01*
X38877685Y20535601D01*
X38946401Y20526970D01*
X39009031Y20556934D01*
X39021656Y20571503D01*
X39022055Y20571856D01*
X39023428Y20572774D01*
X39025424Y20572905D01*
X39026540Y20571111D01*
G37*
G36*
X38025840Y20571111D02*
G01*
X38025840Y19129089D01*
X38024840Y19127357D01*
X38022729Y19127426D01*
X38007096Y19137871D01*
X38006924Y19137999D01*
X37975095Y19164599D01*
X37906379Y19173230D01*
X37843749Y19143266D01*
X37831124Y19128697D01*
X37830725Y19128344D01*
X37829352Y19127426D01*
X37827356Y19127295D01*
X37826240Y19129089D01*
X37826240Y20571111D01*
X37827240Y20572843D01*
X37829351Y20572774D01*
X37844984Y20562329D01*
X37845156Y20562201D01*
X37876985Y20535601D01*
X37945701Y20526970D01*
X38008331Y20556934D01*
X38020956Y20571503D01*
X38021355Y20571856D01*
X38022728Y20572774D01*
X38024724Y20572905D01*
X38025840Y20571111D01*
G37*
G36*
X84208040Y20571111D02*
G01*
X84208040Y19129089D01*
X84207040Y19127357D01*
X84204929Y19127426D01*
X84189103Y19138000D01*
X84188931Y19138128D01*
X84157348Y19164524D01*
X84088632Y19173157D01*
X84026001Y19143194D01*
X84013459Y19128720D01*
X84013059Y19128367D01*
X84011651Y19127426D01*
X84009656Y19127295D01*
X84008540Y19129089D01*
X84008540Y20571111D01*
X84009540Y20572843D01*
X84011651Y20572774D01*
X84027477Y20562200D01*
X84027649Y20562072D01*
X84059232Y20535676D01*
X84127948Y20527043D01*
X84190579Y20557006D01*
X84203121Y20571480D01*
X84203521Y20571833D01*
X84204929Y20572774D01*
X84206924Y20572905D01*
X84208040Y20571111D01*
G37*
G36*
X80205040Y20571111D02*
G01*
X80205040Y19129089D01*
X80204040Y19127357D01*
X80201929Y19127426D01*
X80186296Y19137871D01*
X80186124Y19137999D01*
X80154295Y19164599D01*
X80085579Y19173230D01*
X80022949Y19143266D01*
X80010324Y19128697D01*
X80009925Y19128344D01*
X80008552Y19127426D01*
X80006556Y19127295D01*
X80005440Y19129089D01*
X80005440Y20571111D01*
X80006440Y20572843D01*
X80008551Y20572774D01*
X80024184Y20562329D01*
X80024356Y20562201D01*
X80056185Y20535601D01*
X80124901Y20526970D01*
X80187531Y20556934D01*
X80200156Y20571503D01*
X80200555Y20571856D01*
X80201928Y20572774D01*
X80203924Y20572905D01*
X80205040Y20571111D01*
G37*
G36*
X75201240Y20571111D02*
G01*
X75201240Y19129089D01*
X75200240Y19127357D01*
X75198129Y19127426D01*
X75182496Y19137871D01*
X75182324Y19137999D01*
X75150495Y19164599D01*
X75081779Y19173230D01*
X75019149Y19143266D01*
X75006524Y19128697D01*
X75006125Y19128344D01*
X75004752Y19127426D01*
X75002756Y19127295D01*
X75001640Y19129089D01*
X75001640Y20571111D01*
X75002640Y20572843D01*
X75004751Y20572774D01*
X75020384Y20562329D01*
X75020556Y20562201D01*
X75052385Y20535601D01*
X75121101Y20526970D01*
X75183731Y20556934D01*
X75196356Y20571503D01*
X75196755Y20571856D01*
X75198128Y20572774D01*
X75200124Y20572905D01*
X75201240Y20571111D01*
G37*
G36*
X80705440Y20571111D02*
G01*
X80705440Y19129089D01*
X80704440Y19127357D01*
X80702329Y19127426D01*
X80686696Y19137871D01*
X80686524Y19137999D01*
X80654695Y19164599D01*
X80585979Y19173230D01*
X80523349Y19143266D01*
X80510724Y19128697D01*
X80510325Y19128344D01*
X80508952Y19127426D01*
X80506956Y19127295D01*
X80505840Y19129089D01*
X80505840Y20571111D01*
X80506840Y20572843D01*
X80508951Y20572774D01*
X80524584Y20562329D01*
X80524756Y20562201D01*
X80556585Y20535601D01*
X80625301Y20526970D01*
X80687931Y20556934D01*
X80700556Y20571503D01*
X80700955Y20571856D01*
X80702328Y20572774D01*
X80704324Y20572905D01*
X80705440Y20571111D01*
G37*
G36*
X79704640Y20571111D02*
G01*
X79704640Y19129089D01*
X79703640Y19127357D01*
X79701529Y19127426D01*
X79685896Y19137871D01*
X79685724Y19137999D01*
X79653895Y19164599D01*
X79585179Y19173230D01*
X79522549Y19143266D01*
X79509924Y19128697D01*
X79509525Y19128344D01*
X79508152Y19127426D01*
X79506156Y19127295D01*
X79505040Y19129089D01*
X79505040Y20571111D01*
X79506040Y20572843D01*
X79508151Y20572774D01*
X79523784Y20562329D01*
X79523956Y20562201D01*
X79555785Y20535601D01*
X79624501Y20526970D01*
X79687131Y20556934D01*
X79699756Y20571503D01*
X79700155Y20571856D01*
X79701528Y20572774D01*
X79703524Y20572905D01*
X79704640Y20571111D01*
G37*
G36*
X81205840Y20571111D02*
G01*
X81205840Y19129089D01*
X81204840Y19127357D01*
X81202729Y19127426D01*
X81187096Y19137871D01*
X81186924Y19137999D01*
X81155095Y19164599D01*
X81086379Y19173230D01*
X81023749Y19143266D01*
X81011124Y19128697D01*
X81010725Y19128344D01*
X81009352Y19127426D01*
X81007356Y19127295D01*
X81006240Y19129089D01*
X81006240Y20571111D01*
X81007240Y20572843D01*
X81009351Y20572774D01*
X81024984Y20562329D01*
X81025156Y20562201D01*
X81056985Y20535601D01*
X81125701Y20526970D01*
X81188331Y20556934D01*
X81200956Y20571503D01*
X81201355Y20571856D01*
X81202728Y20572774D01*
X81204724Y20572905D01*
X81205840Y20571111D01*
G37*
G36*
X79204240Y20571111D02*
G01*
X79204240Y19129089D01*
X79203240Y19127357D01*
X79201129Y19127426D01*
X79185303Y19138000D01*
X79185131Y19138128D01*
X79153548Y19164524D01*
X79084832Y19173157D01*
X79022201Y19143194D01*
X79009659Y19128720D01*
X79009259Y19128367D01*
X79007851Y19127426D01*
X79005856Y19127295D01*
X79004740Y19129089D01*
X79004740Y20571111D01*
X79005740Y20572843D01*
X79007851Y20572774D01*
X79023677Y20562200D01*
X79023849Y20562072D01*
X79055432Y20535676D01*
X79124148Y20527043D01*
X79186779Y20557006D01*
X79199321Y20571480D01*
X79199721Y20571833D01*
X79201129Y20572774D01*
X79203124Y20572905D01*
X79204240Y20571111D01*
G37*
G36*
X82706940Y20571111D02*
G01*
X82706940Y19129089D01*
X82705940Y19127357D01*
X82703829Y19127426D01*
X82688196Y19137871D01*
X82688024Y19137999D01*
X82656195Y19164599D01*
X82587479Y19173230D01*
X82524849Y19143266D01*
X82512224Y19128697D01*
X82511825Y19128344D01*
X82510452Y19127426D01*
X82508456Y19127295D01*
X82507340Y19129089D01*
X82507340Y20571111D01*
X82508340Y20572843D01*
X82510451Y20572774D01*
X82526084Y20562329D01*
X82526256Y20562201D01*
X82558085Y20535601D01*
X82626801Y20526970D01*
X82689431Y20556934D01*
X82702056Y20571503D01*
X82702455Y20571856D01*
X82703828Y20572774D01*
X82705824Y20572905D01*
X82706940Y20571111D01*
G37*
G36*
X34022740Y20571111D02*
G01*
X34022740Y19129089D01*
X34021740Y19127357D01*
X34019629Y19127426D01*
X34003996Y19137871D01*
X34003824Y19137999D01*
X33971995Y19164599D01*
X33903279Y19173230D01*
X33840649Y19143266D01*
X33828024Y19128697D01*
X33827625Y19128344D01*
X33826252Y19127426D01*
X33824256Y19127295D01*
X33823140Y19129089D01*
X33823140Y20571111D01*
X33824140Y20572843D01*
X33826251Y20572774D01*
X33841884Y20562329D01*
X33842056Y20562201D01*
X33873885Y20535601D01*
X33942601Y20526970D01*
X34005231Y20556934D01*
X34017856Y20571503D01*
X34018255Y20571856D01*
X34019628Y20572774D01*
X34021624Y20572905D01*
X34022740Y20571111D01*
G37*
G36*
X34523140Y20571111D02*
G01*
X34523140Y19129089D01*
X34522140Y19127357D01*
X34520029Y19127426D01*
X34504396Y19137871D01*
X34504224Y19137999D01*
X34472395Y19164599D01*
X34403679Y19173230D01*
X34341049Y19143266D01*
X34328424Y19128697D01*
X34328025Y19128344D01*
X34326652Y19127426D01*
X34324656Y19127295D01*
X34323540Y19129089D01*
X34323540Y20571111D01*
X34324540Y20572843D01*
X34326651Y20572774D01*
X34342284Y20562329D01*
X34342456Y20562201D01*
X34374285Y20535601D01*
X34443001Y20526970D01*
X34505631Y20556934D01*
X34518256Y20571503D01*
X34518655Y20571856D01*
X34520028Y20572774D01*
X34522024Y20572905D01*
X34523140Y20571111D01*
G37*
G36*
X83207340Y20571111D02*
G01*
X83207340Y19129089D01*
X83206340Y19127357D01*
X83204229Y19127426D01*
X83188596Y19137871D01*
X83188424Y19137999D01*
X83156595Y19164599D01*
X83087879Y19173230D01*
X83025249Y19143266D01*
X83012624Y19128697D01*
X83012225Y19128344D01*
X83010852Y19127426D01*
X83008856Y19127295D01*
X83007740Y19129089D01*
X83007740Y20571111D01*
X83008740Y20572843D01*
X83010851Y20572774D01*
X83026484Y20562329D01*
X83026656Y20562201D01*
X83058485Y20535601D01*
X83127201Y20526970D01*
X83189831Y20556934D01*
X83202456Y20571503D01*
X83202855Y20571856D01*
X83204228Y20572774D01*
X83206224Y20572905D01*
X83207340Y20571111D01*
G37*
G36*
X78703940Y20571111D02*
G01*
X78703940Y19129089D01*
X78702940Y19127357D01*
X78700829Y19127426D01*
X78685196Y19137871D01*
X78685024Y19137999D01*
X78653195Y19164599D01*
X78584479Y19173230D01*
X78521849Y19143266D01*
X78509224Y19128697D01*
X78508825Y19128344D01*
X78507452Y19127426D01*
X78505456Y19127295D01*
X78504340Y19129089D01*
X78504340Y20571111D01*
X78505340Y20572843D01*
X78507451Y20572774D01*
X78523084Y20562329D01*
X78523256Y20562201D01*
X78555085Y20535601D01*
X78623801Y20526970D01*
X78686431Y20556934D01*
X78699056Y20571503D01*
X78699455Y20571856D01*
X78700828Y20572774D01*
X78702824Y20572905D01*
X78703940Y20571111D01*
G37*
G36*
X35023540Y20571111D02*
G01*
X35023540Y19129089D01*
X35022540Y19127357D01*
X35020429Y19127426D01*
X35004796Y19137871D01*
X35004624Y19137999D01*
X34972795Y19164599D01*
X34904079Y19173230D01*
X34841449Y19143266D01*
X34828824Y19128697D01*
X34828425Y19128344D01*
X34827052Y19127426D01*
X34825056Y19127295D01*
X34823940Y19129089D01*
X34823940Y20571111D01*
X34824940Y20572843D01*
X34827051Y20572774D01*
X34842684Y20562329D01*
X34842856Y20562201D01*
X34874685Y20535601D01*
X34943401Y20526970D01*
X35006031Y20556934D01*
X35018656Y20571503D01*
X35019055Y20571856D01*
X35020428Y20572774D01*
X35022424Y20572905D01*
X35023540Y20571111D01*
G37*
G36*
X31520840Y20571111D02*
G01*
X31520840Y19129089D01*
X31519840Y19127357D01*
X31517729Y19127426D01*
X31502096Y19137871D01*
X31501924Y19137999D01*
X31470095Y19164599D01*
X31401379Y19173230D01*
X31338749Y19143266D01*
X31326124Y19128697D01*
X31325725Y19128344D01*
X31324352Y19127426D01*
X31322356Y19127295D01*
X31321240Y19129089D01*
X31321240Y20571111D01*
X31322240Y20572843D01*
X31324351Y20572774D01*
X31339984Y20562329D01*
X31340156Y20562201D01*
X31371985Y20535601D01*
X31440701Y20526970D01*
X31503331Y20556934D01*
X31515956Y20571503D01*
X31516355Y20571856D01*
X31517728Y20572774D01*
X31519724Y20572905D01*
X31520840Y20571111D01*
G37*
G36*
X83707740Y20571111D02*
G01*
X83707740Y19129089D01*
X83706740Y19127357D01*
X83704629Y19127426D01*
X83688996Y19137871D01*
X83688824Y19137999D01*
X83656995Y19164599D01*
X83588279Y19173230D01*
X83525649Y19143266D01*
X83513024Y19128697D01*
X83512625Y19128344D01*
X83511252Y19127426D01*
X83509256Y19127295D01*
X83508140Y19129089D01*
X83508140Y20571111D01*
X83509140Y20572843D01*
X83511251Y20572774D01*
X83526884Y20562329D01*
X83527056Y20562201D01*
X83558885Y20535601D01*
X83627601Y20526970D01*
X83690231Y20556934D01*
X83702856Y20571503D01*
X83703255Y20571856D01*
X83704628Y20572774D01*
X83706624Y20572905D01*
X83707740Y20571111D01*
G37*
G36*
X40527740Y59610911D02*
G01*
X40527740Y58168889D01*
X40526740Y58167157D01*
X40524629Y58167226D01*
X40508996Y58177671D01*
X40508824Y58177799D01*
X40476995Y58204399D01*
X40408279Y58213030D01*
X40345649Y58183066D01*
X40333024Y58168497D01*
X40332625Y58168144D01*
X40331252Y58167226D01*
X40329256Y58167095D01*
X40328140Y58168889D01*
X40328140Y59610911D01*
X40329140Y59612643D01*
X40331251Y59612574D01*
X40346884Y59602129D01*
X40347056Y59602001D01*
X40378885Y59575401D01*
X40447601Y59566770D01*
X40510231Y59596734D01*
X40522856Y59611303D01*
X40523255Y59611656D01*
X40524628Y59612574D01*
X40526624Y59612705D01*
X40527740Y59610911D01*
G37*
G36*
X77703140Y59610911D02*
G01*
X77703140Y58168889D01*
X77702140Y58167157D01*
X77700029Y58167226D01*
X77684396Y58177671D01*
X77684224Y58177799D01*
X77652395Y58204399D01*
X77583679Y58213030D01*
X77521049Y58183066D01*
X77508424Y58168497D01*
X77508025Y58168144D01*
X77506652Y58167226D01*
X77504656Y58167095D01*
X77503540Y58168889D01*
X77503540Y59610911D01*
X77504540Y59612643D01*
X77506651Y59612574D01*
X77522284Y59602129D01*
X77522456Y59602001D01*
X77554285Y59575401D01*
X77623001Y59566770D01*
X77685631Y59596734D01*
X77698256Y59611303D01*
X77698655Y59611656D01*
X77700028Y59612574D01*
X77702024Y59612705D01*
X77703140Y59610911D01*
G37*
G36*
X72699340Y59610911D02*
G01*
X72699340Y58168889D01*
X72698340Y58167157D01*
X72696229Y58167226D01*
X72680596Y58177671D01*
X72680424Y58177799D01*
X72648595Y58204399D01*
X72579879Y58213030D01*
X72517249Y58183066D01*
X72504624Y58168497D01*
X72504225Y58168144D01*
X72502852Y58167226D01*
X72500856Y58167095D01*
X72499740Y58168889D01*
X72499740Y59610911D01*
X72500740Y59612643D01*
X72502851Y59612574D01*
X72518484Y59602129D01*
X72518656Y59602001D01*
X72550485Y59575401D01*
X72619201Y59566770D01*
X72681831Y59596734D01*
X72694456Y59611303D01*
X72694855Y59611656D01*
X72696228Y59612574D01*
X72698224Y59612705D01*
X72699340Y59610911D01*
G37*
G36*
X37025040Y59610911D02*
G01*
X37025040Y58168889D01*
X37024040Y58167157D01*
X37021929Y58167226D01*
X37006296Y58177671D01*
X37006124Y58177799D01*
X36974295Y58204399D01*
X36905579Y58213030D01*
X36842949Y58183066D01*
X36830324Y58168497D01*
X36829925Y58168144D01*
X36828552Y58167226D01*
X36826556Y58167095D01*
X36825440Y58168889D01*
X36825440Y59610911D01*
X36826440Y59612643D01*
X36828551Y59612574D01*
X36844184Y59602129D01*
X36844356Y59602001D01*
X36876185Y59575401D01*
X36944901Y59566770D01*
X37007531Y59596734D01*
X37020156Y59611303D01*
X37020555Y59611656D01*
X37021928Y59612574D01*
X37023924Y59612705D01*
X37025040Y59610911D01*
G37*
G36*
X34022740Y59610911D02*
G01*
X34022740Y58168889D01*
X34021740Y58167157D01*
X34019629Y58167226D01*
X34003996Y58177671D01*
X34003824Y58177799D01*
X33971995Y58204399D01*
X33903279Y58213030D01*
X33840649Y58183066D01*
X33828024Y58168497D01*
X33827625Y58168144D01*
X33826252Y58167226D01*
X33824256Y58167095D01*
X33823140Y58168889D01*
X33823140Y59610911D01*
X33824140Y59612643D01*
X33826251Y59612574D01*
X33841884Y59602129D01*
X33842056Y59602001D01*
X33873885Y59575401D01*
X33942601Y59566770D01*
X34005231Y59596734D01*
X34017856Y59611303D01*
X34018255Y59611656D01*
X34019628Y59612574D01*
X34021624Y59612705D01*
X34022740Y59610911D01*
G37*
G36*
X78203540Y59610911D02*
G01*
X78203540Y58168889D01*
X78202540Y58167157D01*
X78200429Y58167226D01*
X78184796Y58177671D01*
X78184624Y58177799D01*
X78152795Y58204399D01*
X78084079Y58213030D01*
X78021449Y58183066D01*
X78008824Y58168497D01*
X78008425Y58168144D01*
X78007052Y58167226D01*
X78005056Y58167095D01*
X78003940Y58168889D01*
X78003940Y59610911D01*
X78004940Y59612643D01*
X78007051Y59612574D01*
X78022684Y59602129D01*
X78022856Y59602001D01*
X78054685Y59575401D01*
X78123401Y59566770D01*
X78186031Y59596734D01*
X78198656Y59611303D01*
X78199055Y59611656D01*
X78200428Y59612574D01*
X78202424Y59612705D01*
X78203540Y59610911D01*
G37*
G36*
X29519340Y59610911D02*
G01*
X29519340Y58168889D01*
X29518340Y58167157D01*
X29516229Y58167226D01*
X29500596Y58177671D01*
X29500424Y58177799D01*
X29468595Y58204399D01*
X29399879Y58213030D01*
X29337249Y58183066D01*
X29324624Y58168497D01*
X29324225Y58168144D01*
X29322852Y58167226D01*
X29320856Y58167095D01*
X29319740Y58168889D01*
X29319740Y59610911D01*
X29320740Y59612643D01*
X29322851Y59612574D01*
X29338484Y59602129D01*
X29338656Y59602001D01*
X29370485Y59575401D01*
X29439201Y59566770D01*
X29501831Y59596734D01*
X29514456Y59611303D01*
X29514855Y59611656D01*
X29516228Y59612574D01*
X29518224Y59612705D01*
X29519340Y59610911D01*
G37*
G36*
X85208840Y59610911D02*
G01*
X85208840Y58168889D01*
X85207840Y58167157D01*
X85205729Y58167226D01*
X85190096Y58177671D01*
X85189924Y58177799D01*
X85158095Y58204399D01*
X85089379Y58213030D01*
X85026749Y58183066D01*
X85014124Y58168497D01*
X85013725Y58168144D01*
X85012352Y58167226D01*
X85010356Y58167095D01*
X85009240Y58168889D01*
X85009240Y59610911D01*
X85010240Y59612643D01*
X85012351Y59612574D01*
X85027984Y59602129D01*
X85028156Y59602001D01*
X85059985Y59575401D01*
X85128701Y59566770D01*
X85191331Y59596734D01*
X85203956Y59611303D01*
X85204355Y59611656D01*
X85205728Y59612574D01*
X85207724Y59612705D01*
X85208840Y59610911D01*
G37*
G36*
X39026540Y59610911D02*
G01*
X39026540Y58168889D01*
X39025540Y58167157D01*
X39023429Y58167226D01*
X39007796Y58177671D01*
X39007624Y58177799D01*
X38975795Y58204399D01*
X38907079Y58213030D01*
X38844449Y58183066D01*
X38831824Y58168497D01*
X38831425Y58168144D01*
X38830052Y58167226D01*
X38828056Y58167095D01*
X38826940Y58168889D01*
X38826940Y59610911D01*
X38827940Y59612643D01*
X38830051Y59612574D01*
X38845684Y59602129D01*
X38845856Y59602001D01*
X38877685Y59575401D01*
X38946401Y59566770D01*
X39009031Y59596734D01*
X39021656Y59611303D01*
X39022055Y59611656D01*
X39023428Y59612574D01*
X39025424Y59612705D01*
X39026540Y59610911D01*
G37*
G36*
X31520840Y59610911D02*
G01*
X31520840Y58168889D01*
X31519840Y58167157D01*
X31517729Y58167226D01*
X31502096Y58177671D01*
X31501924Y58177799D01*
X31470095Y58204399D01*
X31401379Y58213030D01*
X31338749Y58183066D01*
X31326124Y58168497D01*
X31325725Y58168144D01*
X31324352Y58167226D01*
X31322356Y58167095D01*
X31321240Y58168889D01*
X31321240Y59610911D01*
X31322240Y59612643D01*
X31324351Y59612574D01*
X31339984Y59602129D01*
X31340156Y59602001D01*
X31371985Y59575401D01*
X31440701Y59566770D01*
X31503331Y59596734D01*
X31515956Y59611303D01*
X31516355Y59611656D01*
X31517728Y59612574D01*
X31519724Y59612705D01*
X31520840Y59610911D01*
G37*
G36*
X35023540Y59610911D02*
G01*
X35023540Y58168889D01*
X35022540Y58167157D01*
X35020429Y58167226D01*
X35004796Y58177671D01*
X35004624Y58177799D01*
X34972795Y58204399D01*
X34904079Y58213030D01*
X34841449Y58183066D01*
X34828824Y58168497D01*
X34828425Y58168144D01*
X34827052Y58167226D01*
X34825056Y58167095D01*
X34823940Y58168889D01*
X34823940Y59610911D01*
X34824940Y59612643D01*
X34827051Y59612574D01*
X34842684Y59602129D01*
X34842856Y59602001D01*
X34874685Y59575401D01*
X34943401Y59566770D01*
X35006031Y59596734D01*
X35018656Y59611303D01*
X35019055Y59611656D01*
X35020428Y59612574D01*
X35022424Y59612705D01*
X35023540Y59610911D01*
G37*
G36*
X84208040Y59610911D02*
G01*
X84208040Y58168889D01*
X84207040Y58167157D01*
X84204929Y58167226D01*
X84189103Y58177800D01*
X84188931Y58177928D01*
X84157348Y58204324D01*
X84088632Y58212957D01*
X84026001Y58182994D01*
X84013459Y58168520D01*
X84013059Y58168167D01*
X84011651Y58167226D01*
X84009656Y58167095D01*
X84008540Y58168889D01*
X84008540Y59610911D01*
X84009540Y59612643D01*
X84011651Y59612574D01*
X84027477Y59602000D01*
X84027649Y59601872D01*
X84059232Y59575476D01*
X84127948Y59566843D01*
X84190579Y59596806D01*
X84203121Y59611280D01*
X84203521Y59611633D01*
X84204929Y59612574D01*
X84206924Y59612705D01*
X84208040Y59610911D01*
G37*
G36*
X79704640Y59610911D02*
G01*
X79704640Y58168889D01*
X79703640Y58167157D01*
X79701529Y58167226D01*
X79685896Y58177671D01*
X79685724Y58177799D01*
X79653895Y58204399D01*
X79585179Y58213030D01*
X79522549Y58183066D01*
X79509924Y58168497D01*
X79509525Y58168144D01*
X79508152Y58167226D01*
X79506156Y58167095D01*
X79505040Y58168889D01*
X79505040Y59610911D01*
X79506040Y59612643D01*
X79508151Y59612574D01*
X79523784Y59602129D01*
X79523956Y59602001D01*
X79555785Y59575401D01*
X79624501Y59566770D01*
X79687131Y59596734D01*
X79699756Y59611303D01*
X79700155Y59611656D01*
X79701528Y59612574D01*
X79703524Y59612705D01*
X79704640Y59610911D01*
G37*
G36*
X79204240Y59610911D02*
G01*
X79204240Y58168889D01*
X79203240Y58167157D01*
X79201129Y58167226D01*
X79185303Y58177800D01*
X79185131Y58177928D01*
X79153548Y58204324D01*
X79084832Y58212957D01*
X79022201Y58182994D01*
X79009659Y58168520D01*
X79009259Y58168167D01*
X79007851Y58167226D01*
X79005856Y58167095D01*
X79004740Y58168889D01*
X79004740Y59610911D01*
X79005740Y59612643D01*
X79007851Y59612574D01*
X79023677Y59602000D01*
X79023849Y59601872D01*
X79055432Y59575476D01*
X79124148Y59566843D01*
X79186779Y59596806D01*
X79199321Y59611280D01*
X79199721Y59611633D01*
X79201129Y59612574D01*
X79203124Y59612705D01*
X79204240Y59610911D01*
G37*
G36*
X82706940Y59610911D02*
G01*
X82706940Y58168889D01*
X82705940Y58167157D01*
X82703829Y58167226D01*
X82688196Y58177671D01*
X82688024Y58177799D01*
X82656195Y58204399D01*
X82587479Y58213030D01*
X82524849Y58183066D01*
X82512224Y58168497D01*
X82511825Y58168144D01*
X82510452Y58167226D01*
X82508456Y58167095D01*
X82507340Y58168889D01*
X82507340Y59610911D01*
X82508340Y59612643D01*
X82510451Y59612574D01*
X82526084Y59602129D01*
X82526256Y59602001D01*
X82558085Y59575401D01*
X82626801Y59566770D01*
X82689431Y59596734D01*
X82702056Y59611303D01*
X82702455Y59611656D01*
X82703828Y59612574D01*
X82705824Y59612705D01*
X82706940Y59610911D01*
G37*
G36*
X83207340Y59610911D02*
G01*
X83207340Y58168889D01*
X83206340Y58167157D01*
X83204229Y58167226D01*
X83188596Y58177671D01*
X83188424Y58177799D01*
X83156595Y58204399D01*
X83087879Y58213030D01*
X83025249Y58183066D01*
X83012624Y58168497D01*
X83012225Y58168144D01*
X83010852Y58167226D01*
X83008856Y58167095D01*
X83007740Y58168889D01*
X83007740Y59610911D01*
X83008740Y59612643D01*
X83010851Y59612574D01*
X83026484Y59602129D01*
X83026656Y59602001D01*
X83058485Y59575401D01*
X83127201Y59566770D01*
X83189831Y59596734D01*
X83202456Y59611303D01*
X83202855Y59611656D01*
X83204228Y59612574D01*
X83206224Y59612705D01*
X83207340Y59610911D01*
G37*
G36*
X33022040Y59610911D02*
G01*
X33022040Y58168889D01*
X33021040Y58167157D01*
X33018929Y58167226D01*
X33003296Y58177671D01*
X33003124Y58177799D01*
X32971295Y58204399D01*
X32902579Y58213030D01*
X32839949Y58183066D01*
X32827324Y58168497D01*
X32826925Y58168144D01*
X32825552Y58167226D01*
X32823556Y58167095D01*
X32822440Y58168889D01*
X32822440Y59610911D01*
X32823440Y59612643D01*
X32825551Y59612574D01*
X32841184Y59602129D01*
X32841356Y59602001D01*
X32873185Y59575401D01*
X32941901Y59566770D01*
X33004531Y59596734D01*
X33017156Y59611303D01*
X33017555Y59611656D01*
X33018928Y59612574D01*
X33020924Y59612705D01*
X33022040Y59610911D01*
G37*
G36*
X33522340Y59610911D02*
G01*
X33522340Y58168889D01*
X33521340Y58167157D01*
X33519229Y58167226D01*
X33503403Y58177800D01*
X33503231Y58177928D01*
X33471648Y58204324D01*
X33402932Y58212957D01*
X33340301Y58182994D01*
X33327759Y58168520D01*
X33327359Y58168167D01*
X33325951Y58167226D01*
X33323956Y58167095D01*
X33322840Y58168889D01*
X33322840Y59610911D01*
X33323840Y59612643D01*
X33325951Y59612574D01*
X33341777Y59602000D01*
X33341949Y59601872D01*
X33373532Y59575476D01*
X33442248Y59566843D01*
X33504879Y59596806D01*
X33517421Y59611280D01*
X33517821Y59611633D01*
X33519229Y59612574D01*
X33521224Y59612705D01*
X33522340Y59610911D01*
G37*
G36*
X34523140Y59610911D02*
G01*
X34523140Y58168889D01*
X34522140Y58167157D01*
X34520029Y58167226D01*
X34504396Y58177671D01*
X34504224Y58177799D01*
X34472395Y58204399D01*
X34403679Y58213030D01*
X34341049Y58183066D01*
X34328424Y58168497D01*
X34328025Y58168144D01*
X34326652Y58167226D01*
X34324656Y58167095D01*
X34323540Y58168889D01*
X34323540Y59610911D01*
X34324540Y59612643D01*
X34326651Y59612574D01*
X34342284Y59602129D01*
X34342456Y59602001D01*
X34374285Y59575401D01*
X34443001Y59566770D01*
X34505631Y59596734D01*
X34518256Y59611303D01*
X34518655Y59611656D01*
X34520028Y59612574D01*
X34522024Y59612705D01*
X34523140Y59610911D01*
G37*
G36*
X36524640Y59610911D02*
G01*
X36524640Y58168889D01*
X36523640Y58167157D01*
X36521529Y58167226D01*
X36505896Y58177671D01*
X36505724Y58177799D01*
X36473895Y58204399D01*
X36405179Y58213030D01*
X36342549Y58183066D01*
X36329924Y58168497D01*
X36329525Y58168144D01*
X36328152Y58167226D01*
X36326156Y58167095D01*
X36325040Y58168889D01*
X36325040Y59610911D01*
X36326040Y59612643D01*
X36328151Y59612574D01*
X36343784Y59602129D01*
X36343956Y59602001D01*
X36375785Y59575401D01*
X36444501Y59566770D01*
X36507131Y59596734D01*
X36519756Y59611303D01*
X36520155Y59611656D01*
X36521528Y59612574D01*
X36523524Y59612705D01*
X36524640Y59610911D01*
G37*
G36*
X28018240Y59610911D02*
G01*
X28018240Y58168889D01*
X28017240Y58167157D01*
X28015129Y58167226D01*
X27999496Y58177671D01*
X27999324Y58177799D01*
X27967495Y58204399D01*
X27898779Y58213030D01*
X27836149Y58183066D01*
X27823524Y58168497D01*
X27823125Y58168144D01*
X27821752Y58167226D01*
X27819756Y58167095D01*
X27818640Y58168889D01*
X27818640Y59610911D01*
X27819640Y59612643D01*
X27821751Y59612574D01*
X27837384Y59602129D01*
X27837556Y59602001D01*
X27869385Y59575401D01*
X27938101Y59566770D01*
X28000731Y59596734D01*
X28013356Y59611303D01*
X28013755Y59611656D01*
X28015128Y59612574D01*
X28017124Y59612705D01*
X28018240Y59610911D01*
G37*
G36*
X80705440Y59610911D02*
G01*
X80705440Y58168889D01*
X80704440Y58167157D01*
X80702329Y58167226D01*
X80686696Y58177671D01*
X80686524Y58177799D01*
X80654695Y58204399D01*
X80585979Y58213030D01*
X80523349Y58183066D01*
X80510724Y58168497D01*
X80510325Y58168144D01*
X80508952Y58167226D01*
X80506956Y58167095D01*
X80505840Y58168889D01*
X80505840Y59610911D01*
X80506840Y59612643D01*
X80508951Y59612574D01*
X80524584Y59602129D01*
X80524756Y59602001D01*
X80556585Y59575401D01*
X80625301Y59566770D01*
X80687931Y59596734D01*
X80700556Y59611303D01*
X80700955Y59611656D01*
X80702328Y59612574D01*
X80704324Y59612705D01*
X80705440Y59610911D01*
G37*
G36*
X74200440Y59610911D02*
G01*
X74200440Y58168889D01*
X74199440Y58167157D01*
X74197329Y58167226D01*
X74181503Y58177800D01*
X74181331Y58177928D01*
X74149748Y58204324D01*
X74081032Y58212957D01*
X74018401Y58182994D01*
X74005859Y58168520D01*
X74005459Y58168167D01*
X74004051Y58167226D01*
X74002056Y58167095D01*
X74000940Y58168889D01*
X74000940Y59610911D01*
X74001940Y59612643D01*
X74004051Y59612574D01*
X74019877Y59602000D01*
X74020049Y59601872D01*
X74051632Y59575476D01*
X74120348Y59566843D01*
X74182979Y59596806D01*
X74195521Y59611280D01*
X74195921Y59611633D01*
X74197329Y59612574D01*
X74199324Y59612705D01*
X74200440Y59610911D01*
G37*
G36*
X75201240Y59610911D02*
G01*
X75201240Y58168889D01*
X75200240Y58167157D01*
X75198129Y58167226D01*
X75182496Y58177671D01*
X75182324Y58177799D01*
X75150495Y58204399D01*
X75081779Y58213030D01*
X75019149Y58183066D01*
X75006524Y58168497D01*
X75006125Y58168144D01*
X75004752Y58167226D01*
X75002756Y58167095D01*
X75001640Y58168889D01*
X75001640Y59610911D01*
X75002640Y59612643D01*
X75004751Y59612574D01*
X75020384Y59602129D01*
X75020556Y59602001D01*
X75052385Y59575401D01*
X75121101Y59566770D01*
X75183731Y59596734D01*
X75196356Y59611303D01*
X75196755Y59611656D01*
X75198128Y59612574D01*
X75200124Y59612705D01*
X75201240Y59610911D01*
G37*
G36*
X71698540Y59610911D02*
G01*
X71698540Y58168889D01*
X71697540Y58167157D01*
X71695429Y58167226D01*
X71679603Y58177800D01*
X71679431Y58177928D01*
X71647848Y58204324D01*
X71579132Y58212957D01*
X71516501Y58182994D01*
X71503959Y58168520D01*
X71503559Y58168167D01*
X71502151Y58167226D01*
X71500156Y58167095D01*
X71499040Y58168889D01*
X71499040Y59610911D01*
X71500040Y59612643D01*
X71502151Y59612574D01*
X71517977Y59602000D01*
X71518149Y59601872D01*
X71549732Y59575476D01*
X71618448Y59566843D01*
X71681079Y59596806D01*
X71693621Y59611280D01*
X71694021Y59611633D01*
X71695429Y59612574D01*
X71697424Y59612705D01*
X71698540Y59610911D01*
G37*
G36*
X73700140Y59610911D02*
G01*
X73700140Y58168889D01*
X73699140Y58167157D01*
X73697029Y58167226D01*
X73681396Y58177671D01*
X73681224Y58177799D01*
X73649395Y58204399D01*
X73580679Y58213030D01*
X73518049Y58183066D01*
X73505424Y58168497D01*
X73505025Y58168144D01*
X73503652Y58167226D01*
X73501656Y58167095D01*
X73500540Y58168889D01*
X73500540Y59610911D01*
X73501540Y59612643D01*
X73503651Y59612574D01*
X73519284Y59602129D01*
X73519456Y59602001D01*
X73551285Y59575401D01*
X73620001Y59566770D01*
X73682631Y59596734D01*
X73695256Y59611303D01*
X73695655Y59611656D01*
X73697028Y59612574D01*
X73699024Y59612705D01*
X73700140Y59610911D01*
G37*
G36*
X29018940Y59610911D02*
G01*
X29018940Y58168889D01*
X29017940Y58167157D01*
X29015829Y58167226D01*
X29000196Y58177671D01*
X29000024Y58177799D01*
X28968195Y58204399D01*
X28899479Y58213030D01*
X28836849Y58183066D01*
X28824224Y58168497D01*
X28823825Y58168144D01*
X28822452Y58167226D01*
X28820456Y58167095D01*
X28819340Y58168889D01*
X28819340Y59610911D01*
X28820340Y59612643D01*
X28822451Y59612574D01*
X28838084Y59602129D01*
X28838256Y59602001D01*
X28870085Y59575401D01*
X28938801Y59566770D01*
X29001431Y59596734D01*
X29014056Y59611303D01*
X29014455Y59611656D01*
X29015828Y59612574D01*
X29017824Y59612705D01*
X29018940Y59610911D01*
G37*
G36*
X72198940Y59610911D02*
G01*
X72198940Y58168889D01*
X72197940Y58167157D01*
X72195829Y58167226D01*
X72180196Y58177671D01*
X72180024Y58177799D01*
X72148195Y58204399D01*
X72079479Y58213030D01*
X72016849Y58183066D01*
X72004224Y58168497D01*
X72003825Y58168144D01*
X72002452Y58167226D01*
X72000456Y58167095D01*
X71999340Y58168889D01*
X71999340Y59610911D01*
X72000340Y59612643D01*
X72002451Y59612574D01*
X72018084Y59602129D01*
X72018256Y59602001D01*
X72050085Y59575401D01*
X72118801Y59566770D01*
X72181431Y59596734D01*
X72194056Y59611303D01*
X72194455Y59611656D01*
X72195828Y59612574D01*
X72197824Y59612705D01*
X72198940Y59610911D01*
G37*
G36*
X41028040Y59610911D02*
G01*
X41028040Y58168889D01*
X41027040Y58167157D01*
X41024929Y58167226D01*
X41009103Y58177800D01*
X41008931Y58177928D01*
X40977348Y58204324D01*
X40908632Y58212957D01*
X40846001Y58182994D01*
X40833459Y58168520D01*
X40833059Y58168167D01*
X40831651Y58167226D01*
X40829656Y58167095D01*
X40828540Y58168889D01*
X40828540Y59610911D01*
X40829540Y59612643D01*
X40831651Y59612574D01*
X40847477Y59602000D01*
X40847649Y59601872D01*
X40879232Y59575476D01*
X40947948Y59566843D01*
X41010579Y59596806D01*
X41023121Y59611280D01*
X41023521Y59611633D01*
X41024929Y59612574D01*
X41026924Y59612705D01*
X41028040Y59610911D01*
G37*
G36*
X81205840Y59610911D02*
G01*
X81205840Y58168889D01*
X81204840Y58167157D01*
X81202729Y58167226D01*
X81187096Y58177671D01*
X81186924Y58177799D01*
X81155095Y58204399D01*
X81086379Y58213030D01*
X81023749Y58183066D01*
X81011124Y58168497D01*
X81010725Y58168144D01*
X81009352Y58167226D01*
X81007356Y58167095D01*
X81006240Y58168889D01*
X81006240Y59610911D01*
X81007240Y59612643D01*
X81009351Y59612574D01*
X81024984Y59602129D01*
X81025156Y59602001D01*
X81056985Y59575401D01*
X81125701Y59566770D01*
X81188331Y59596734D01*
X81200956Y59611303D01*
X81201355Y59611656D01*
X81202728Y59612574D01*
X81204724Y59612705D01*
X81205840Y59610911D01*
G37*
G36*
X32021240Y59610911D02*
G01*
X32021240Y58168889D01*
X32020240Y58167157D01*
X32018129Y58167226D01*
X32002496Y58177671D01*
X32002324Y58177799D01*
X31970495Y58204399D01*
X31901779Y58213030D01*
X31839149Y58183066D01*
X31826524Y58168497D01*
X31826125Y58168144D01*
X31824752Y58167226D01*
X31822756Y58167095D01*
X31821640Y58168889D01*
X31821640Y59610911D01*
X31822640Y59612643D01*
X31824751Y59612574D01*
X31840384Y59602129D01*
X31840556Y59602001D01*
X31872385Y59575401D01*
X31941101Y59566770D01*
X32003731Y59596734D01*
X32016356Y59611303D01*
X32016755Y59611656D01*
X32018128Y59612574D01*
X32020124Y59612705D01*
X32021240Y59610911D01*
G37*
G36*
X28518540Y59610911D02*
G01*
X28518540Y58168889D01*
X28517540Y58167157D01*
X28515429Y58167226D01*
X28499603Y58177800D01*
X28499431Y58177928D01*
X28467848Y58204324D01*
X28399132Y58212957D01*
X28336501Y58182994D01*
X28323959Y58168520D01*
X28323559Y58168167D01*
X28322151Y58167226D01*
X28320156Y58167095D01*
X28319040Y58168889D01*
X28319040Y59610911D01*
X28320040Y59612643D01*
X28322151Y59612574D01*
X28337977Y59602000D01*
X28338149Y59601872D01*
X28369732Y59575476D01*
X28438448Y59566843D01*
X28501079Y59596806D01*
X28513621Y59611280D01*
X28514021Y59611633D01*
X28515429Y59612574D01*
X28517424Y59612705D01*
X28518540Y59610911D01*
G37*
G36*
X37525440Y59610911D02*
G01*
X37525440Y58168889D01*
X37524440Y58167157D01*
X37522329Y58167226D01*
X37506696Y58177671D01*
X37506524Y58177799D01*
X37474695Y58204399D01*
X37405979Y58213030D01*
X37343349Y58183066D01*
X37330724Y58168497D01*
X37330325Y58168144D01*
X37328952Y58167226D01*
X37326956Y58167095D01*
X37325840Y58168889D01*
X37325840Y59610911D01*
X37326840Y59612643D01*
X37328951Y59612574D01*
X37344584Y59602129D01*
X37344756Y59602001D01*
X37376585Y59575401D01*
X37445301Y59566770D01*
X37507931Y59596734D01*
X37520556Y59611303D01*
X37520955Y59611656D01*
X37522328Y59612574D01*
X37524324Y59612705D01*
X37525440Y59610911D01*
G37*
G36*
X73199740Y59610911D02*
G01*
X73199740Y58168889D01*
X73198740Y58167157D01*
X73196629Y58167226D01*
X73180996Y58177671D01*
X73180824Y58177799D01*
X73148995Y58204399D01*
X73080279Y58213030D01*
X73017649Y58183066D01*
X73005024Y58168497D01*
X73004625Y58168144D01*
X73003252Y58167226D01*
X73001256Y58167095D01*
X73000140Y58168889D01*
X73000140Y59610911D01*
X73001140Y59612643D01*
X73003251Y59612574D01*
X73018884Y59602129D01*
X73019056Y59602001D01*
X73050885Y59575401D01*
X73119601Y59566770D01*
X73182231Y59596734D01*
X73194856Y59611303D01*
X73195255Y59611656D01*
X73196628Y59612574D01*
X73198624Y59612705D01*
X73199740Y59610911D01*
G37*
G36*
X39526940Y59610911D02*
G01*
X39526940Y58168889D01*
X39525940Y58167157D01*
X39523829Y58167226D01*
X39508196Y58177671D01*
X39508024Y58177799D01*
X39476195Y58204399D01*
X39407479Y58213030D01*
X39344849Y58183066D01*
X39332224Y58168497D01*
X39331825Y58168144D01*
X39330452Y58167226D01*
X39328456Y58167095D01*
X39327340Y58168889D01*
X39327340Y59610911D01*
X39328340Y59612643D01*
X39330451Y59612574D01*
X39346084Y59602129D01*
X39346256Y59602001D01*
X39378085Y59575401D01*
X39446801Y59566770D01*
X39509431Y59596734D01*
X39522056Y59611303D01*
X39522455Y59611656D01*
X39523828Y59612574D01*
X39525824Y59612705D01*
X39526940Y59610911D01*
G37*
G36*
X42028840Y59610911D02*
G01*
X42028840Y58168889D01*
X42027840Y58167157D01*
X42025729Y58167226D01*
X42010096Y58177671D01*
X42009924Y58177799D01*
X41978095Y58204399D01*
X41909379Y58213030D01*
X41846749Y58183066D01*
X41834124Y58168497D01*
X41833725Y58168144D01*
X41832352Y58167226D01*
X41830356Y58167095D01*
X41829240Y58168889D01*
X41829240Y59610911D01*
X41830240Y59612643D01*
X41832351Y59612574D01*
X41847984Y59602129D01*
X41848156Y59602001D01*
X41879985Y59575401D01*
X41948701Y59566770D01*
X42011331Y59596734D01*
X42023956Y59611303D01*
X42024355Y59611656D01*
X42025728Y59612574D01*
X42027724Y59612705D01*
X42028840Y59610911D01*
G37*
G36*
X71198240Y59610911D02*
G01*
X71198240Y58168889D01*
X71197240Y58167157D01*
X71195129Y58167226D01*
X71179496Y58177671D01*
X71179324Y58177799D01*
X71147495Y58204399D01*
X71078779Y58213030D01*
X71016149Y58183066D01*
X71003524Y58168497D01*
X71003125Y58168144D01*
X71001752Y58167226D01*
X70999756Y58167095D01*
X70998640Y58168889D01*
X70998640Y59610911D01*
X70999640Y59612643D01*
X71001751Y59612574D01*
X71017384Y59602129D01*
X71017556Y59602001D01*
X71049385Y59575401D01*
X71118101Y59566770D01*
X71180731Y59596734D01*
X71193356Y59611303D01*
X71193755Y59611656D01*
X71195128Y59612574D01*
X71197124Y59612705D01*
X71198240Y59610911D01*
G37*
G36*
X77202740Y59610911D02*
G01*
X77202740Y58168889D01*
X77201740Y58167157D01*
X77199629Y58167226D01*
X77183996Y58177671D01*
X77183824Y58177799D01*
X77151995Y58204399D01*
X77083279Y58213030D01*
X77020649Y58183066D01*
X77008024Y58168497D01*
X77007625Y58168144D01*
X77006252Y58167226D01*
X77004256Y58167095D01*
X77003140Y58168889D01*
X77003140Y59610911D01*
X77004140Y59612643D01*
X77006251Y59612574D01*
X77021884Y59602129D01*
X77022056Y59602001D01*
X77053885Y59575401D01*
X77122601Y59566770D01*
X77185231Y59596734D01*
X77197856Y59611303D01*
X77198255Y59611656D01*
X77199628Y59612574D01*
X77201624Y59612705D01*
X77202740Y59610911D01*
G37*
G36*
X38025840Y59610911D02*
G01*
X38025840Y58168889D01*
X38024840Y58167157D01*
X38022729Y58167226D01*
X38007096Y58177671D01*
X38006924Y58177799D01*
X37975095Y58204399D01*
X37906379Y58213030D01*
X37843749Y58183066D01*
X37831124Y58168497D01*
X37830725Y58168144D01*
X37829352Y58167226D01*
X37827356Y58167095D01*
X37826240Y58168889D01*
X37826240Y59610911D01*
X37827240Y59612643D01*
X37829351Y59612574D01*
X37844984Y59602129D01*
X37845156Y59602001D01*
X37876985Y59575401D01*
X37945701Y59566770D01*
X38008331Y59596734D01*
X38020956Y59611303D01*
X38021355Y59611656D01*
X38022728Y59612574D01*
X38024724Y59612705D01*
X38025840Y59610911D01*
G37*
G36*
X36024240Y59610911D02*
G01*
X36024240Y58168889D01*
X36023240Y58167157D01*
X36021129Y58167226D01*
X36005303Y58177800D01*
X36005131Y58177928D01*
X35973548Y58204324D01*
X35904832Y58212957D01*
X35842201Y58182994D01*
X35829659Y58168520D01*
X35829259Y58168167D01*
X35827851Y58167226D01*
X35825856Y58167095D01*
X35824740Y58168889D01*
X35824740Y59610911D01*
X35825740Y59612643D01*
X35827851Y59612574D01*
X35843677Y59602000D01*
X35843849Y59601872D01*
X35875432Y59575476D01*
X35944148Y59566843D01*
X36006779Y59596806D01*
X36019321Y59611280D01*
X36019721Y59611633D01*
X36021129Y59612574D01*
X36023124Y59612705D01*
X36024240Y59610911D01*
G37*
G36*
X38526140Y59610911D02*
G01*
X38526140Y58168889D01*
X38525140Y58167157D01*
X38523029Y58167226D01*
X38507203Y58177800D01*
X38507031Y58177928D01*
X38475448Y58204324D01*
X38406732Y58212957D01*
X38344101Y58182994D01*
X38331559Y58168520D01*
X38331159Y58168167D01*
X38329751Y58167226D01*
X38327756Y58167095D01*
X38326640Y58168889D01*
X38326640Y59610911D01*
X38327640Y59612643D01*
X38329751Y59612574D01*
X38345577Y59602000D01*
X38345749Y59601872D01*
X38377332Y59575476D01*
X38446048Y59566843D01*
X38508679Y59596806D01*
X38521221Y59611280D01*
X38521621Y59611633D01*
X38523029Y59612574D01*
X38525024Y59612705D01*
X38526140Y59610911D01*
G37*
G36*
X78703940Y59610911D02*
G01*
X78703940Y58168889D01*
X78702940Y58167157D01*
X78700829Y58167226D01*
X78685196Y58177671D01*
X78685024Y58177799D01*
X78653195Y58204399D01*
X78584479Y58213030D01*
X78521849Y58183066D01*
X78509224Y58168497D01*
X78508825Y58168144D01*
X78507452Y58167226D01*
X78505456Y58167095D01*
X78504340Y58168889D01*
X78504340Y59610911D01*
X78505340Y59612643D01*
X78507451Y59612574D01*
X78523084Y59602129D01*
X78523256Y59602001D01*
X78555085Y59575401D01*
X78623801Y59566770D01*
X78686431Y59596734D01*
X78699056Y59611303D01*
X78699455Y59611656D01*
X78700828Y59612574D01*
X78702824Y59612705D01*
X78703940Y59610911D01*
G37*
G36*
X75701640Y59610911D02*
G01*
X75701640Y58168889D01*
X75700640Y58167157D01*
X75698529Y58167226D01*
X75682896Y58177671D01*
X75682724Y58177799D01*
X75650895Y58204399D01*
X75582179Y58213030D01*
X75519549Y58183066D01*
X75506924Y58168497D01*
X75506525Y58168144D01*
X75505152Y58167226D01*
X75503156Y58167095D01*
X75502040Y58168889D01*
X75502040Y59610911D01*
X75503040Y59612643D01*
X75505151Y59612574D01*
X75520784Y59602129D01*
X75520956Y59602001D01*
X75552785Y59575401D01*
X75621501Y59566770D01*
X75684131Y59596734D01*
X75696756Y59611303D01*
X75697155Y59611656D01*
X75698528Y59612574D01*
X75700524Y59612705D01*
X75701640Y59610911D01*
G37*
G36*
X84708440Y59610911D02*
G01*
X84708440Y58168889D01*
X84707440Y58167157D01*
X84705329Y58167226D01*
X84689696Y58177671D01*
X84689524Y58177799D01*
X84657695Y58204399D01*
X84588979Y58213030D01*
X84526349Y58183066D01*
X84513724Y58168497D01*
X84513325Y58168144D01*
X84511952Y58167226D01*
X84509956Y58167095D01*
X84508840Y58168889D01*
X84508840Y59610911D01*
X84509840Y59612643D01*
X84511951Y59612574D01*
X84527584Y59602129D01*
X84527756Y59602001D01*
X84559585Y59575401D01*
X84628301Y59566770D01*
X84690931Y59596734D01*
X84703556Y59611303D01*
X84703955Y59611656D01*
X84705328Y59612574D01*
X84707324Y59612705D01*
X84708440Y59610911D01*
G37*
G36*
X74700840Y59610911D02*
G01*
X74700840Y58168889D01*
X74699840Y58167157D01*
X74697729Y58167226D01*
X74682096Y58177671D01*
X74681924Y58177799D01*
X74650095Y58204399D01*
X74581379Y58213030D01*
X74518749Y58183066D01*
X74506124Y58168497D01*
X74505725Y58168144D01*
X74504352Y58167226D01*
X74502356Y58167095D01*
X74501240Y58168889D01*
X74501240Y59610911D01*
X74502240Y59612643D01*
X74504351Y59612574D01*
X74519984Y59602129D01*
X74520156Y59602001D01*
X74551985Y59575401D01*
X74620701Y59566770D01*
X74683331Y59596734D01*
X74695956Y59611303D01*
X74696355Y59611656D01*
X74697728Y59612574D01*
X74699724Y59612705D01*
X74700840Y59610911D01*
G37*
G36*
X80205040Y59610911D02*
G01*
X80205040Y58168889D01*
X80204040Y58167157D01*
X80201929Y58167226D01*
X80186296Y58177671D01*
X80186124Y58177799D01*
X80154295Y58204399D01*
X80085579Y58213030D01*
X80022949Y58183066D01*
X80010324Y58168497D01*
X80009925Y58168144D01*
X80008552Y58167226D01*
X80006556Y58167095D01*
X80005440Y58168889D01*
X80005440Y59610911D01*
X80006440Y59612643D01*
X80008551Y59612574D01*
X80024184Y59602129D01*
X80024356Y59602001D01*
X80056185Y59575401D01*
X80124901Y59566770D01*
X80187531Y59596734D01*
X80200156Y59611303D01*
X80200555Y59611656D01*
X80201928Y59612574D01*
X80203924Y59612705D01*
X80205040Y59610911D01*
G37*
G36*
X82206540Y59610911D02*
G01*
X82206540Y58168889D01*
X82205540Y58167157D01*
X82203429Y58167226D01*
X82187796Y58177671D01*
X82187624Y58177799D01*
X82155795Y58204399D01*
X82087079Y58213030D01*
X82024449Y58183066D01*
X82011824Y58168497D01*
X82011425Y58168144D01*
X82010052Y58167226D01*
X82008056Y58167095D01*
X82006940Y58168889D01*
X82006940Y59610911D01*
X82007940Y59612643D01*
X82010051Y59612574D01*
X82025684Y59602129D01*
X82025856Y59602001D01*
X82057685Y59575401D01*
X82126401Y59566770D01*
X82189031Y59596734D01*
X82201656Y59611303D01*
X82202055Y59611656D01*
X82203428Y59612574D01*
X82205424Y59612705D01*
X82206540Y59610911D01*
G37*
G36*
X83707740Y59610911D02*
G01*
X83707740Y58168889D01*
X83706740Y58167157D01*
X83704629Y58167226D01*
X83688996Y58177671D01*
X83688824Y58177799D01*
X83656995Y58204399D01*
X83588279Y58213030D01*
X83525649Y58183066D01*
X83513024Y58168497D01*
X83512625Y58168144D01*
X83511252Y58167226D01*
X83509256Y58167095D01*
X83508140Y58168889D01*
X83508140Y59610911D01*
X83509140Y59612643D01*
X83511251Y59612574D01*
X83526884Y59602129D01*
X83527056Y59602001D01*
X83558885Y59575401D01*
X83627601Y59566770D01*
X83690231Y59596734D01*
X83702856Y59611303D01*
X83703255Y59611656D01*
X83704628Y59612574D01*
X83706624Y59612705D01*
X83707740Y59610911D01*
G37*
G36*
X81706140Y59610911D02*
G01*
X81706140Y58168889D01*
X81705140Y58167157D01*
X81703029Y58167226D01*
X81687203Y58177800D01*
X81687031Y58177928D01*
X81655448Y58204324D01*
X81586732Y58212957D01*
X81524101Y58182994D01*
X81511559Y58168520D01*
X81511159Y58168167D01*
X81509751Y58167226D01*
X81507756Y58167095D01*
X81506640Y58168889D01*
X81506640Y59610911D01*
X81507640Y59612643D01*
X81509751Y59612574D01*
X81525577Y59602000D01*
X81525749Y59601872D01*
X81557332Y59575476D01*
X81626048Y59566843D01*
X81688679Y59596806D01*
X81701221Y59611280D01*
X81701621Y59611633D01*
X81703029Y59612574D01*
X81705024Y59612705D01*
X81706140Y59610911D01*
G37*
G36*
X41528440Y59610911D02*
G01*
X41528440Y58168889D01*
X41527440Y58167157D01*
X41525329Y58167226D01*
X41509696Y58177671D01*
X41509524Y58177799D01*
X41477695Y58204399D01*
X41408979Y58213030D01*
X41346349Y58183066D01*
X41333724Y58168497D01*
X41333325Y58168144D01*
X41331952Y58167226D01*
X41329956Y58167095D01*
X41328840Y58168889D01*
X41328840Y59610911D01*
X41329840Y59612643D01*
X41331951Y59612574D01*
X41347584Y59602129D01*
X41347756Y59602001D01*
X41379585Y59575401D01*
X41448301Y59566770D01*
X41510931Y59596734D01*
X41523556Y59611303D01*
X41523955Y59611656D01*
X41525328Y59612574D01*
X41527324Y59612705D01*
X41528440Y59610911D01*
G37*
G36*
X76702340Y59610911D02*
G01*
X76702340Y58168889D01*
X76701340Y58167157D01*
X76699229Y58167226D01*
X76683403Y58177800D01*
X76683231Y58177928D01*
X76651648Y58204324D01*
X76582932Y58212957D01*
X76520301Y58182994D01*
X76507759Y58168520D01*
X76507359Y58168167D01*
X76505951Y58167226D01*
X76503956Y58167095D01*
X76502840Y58168889D01*
X76502840Y59610911D01*
X76503840Y59612643D01*
X76505951Y59612574D01*
X76521777Y59602000D01*
X76521949Y59601872D01*
X76553532Y59575476D01*
X76622248Y59566843D01*
X76684879Y59596806D01*
X76697421Y59611280D01*
X76697821Y59611633D01*
X76699229Y59612574D01*
X76701224Y59612705D01*
X76702340Y59610911D01*
G37*
G36*
X30019740Y59610911D02*
G01*
X30019740Y58168889D01*
X30018740Y58167157D01*
X30016629Y58167226D01*
X30000996Y58177671D01*
X30000824Y58177799D01*
X29968995Y58204399D01*
X29900279Y58213030D01*
X29837649Y58183066D01*
X29825024Y58168497D01*
X29824625Y58168144D01*
X29823252Y58167226D01*
X29821256Y58167095D01*
X29820140Y58168889D01*
X29820140Y59610911D01*
X29821140Y59612643D01*
X29823251Y59612574D01*
X29838884Y59602129D01*
X29839056Y59602001D01*
X29870885Y59575401D01*
X29939601Y59566770D01*
X30002231Y59596734D01*
X30014856Y59611303D01*
X30015255Y59611656D01*
X30016628Y59612574D01*
X30018624Y59612705D01*
X30019740Y59610911D01*
G37*
G36*
X31020440Y59610911D02*
G01*
X31020440Y58168889D01*
X31019440Y58167157D01*
X31017329Y58167226D01*
X31001503Y58177800D01*
X31001331Y58177928D01*
X30969748Y58204324D01*
X30901032Y58212957D01*
X30838401Y58182994D01*
X30825859Y58168520D01*
X30825459Y58168167D01*
X30824051Y58167226D01*
X30822056Y58167095D01*
X30820940Y58168889D01*
X30820940Y59610911D01*
X30821940Y59612643D01*
X30824051Y59612574D01*
X30839877Y59602000D01*
X30840049Y59601872D01*
X30871632Y59575476D01*
X30940348Y59566843D01*
X31002979Y59596806D01*
X31015521Y59611280D01*
X31015921Y59611633D01*
X31017329Y59612574D01*
X31019324Y59612705D01*
X31020440Y59610911D01*
G37*
G36*
X30520140Y59610911D02*
G01*
X30520140Y58168889D01*
X30519140Y58167157D01*
X30517029Y58167226D01*
X30501396Y58177671D01*
X30501224Y58177799D01*
X30469395Y58204399D01*
X30400679Y58213030D01*
X30338049Y58183066D01*
X30325424Y58168497D01*
X30325025Y58168144D01*
X30323652Y58167226D01*
X30321656Y58167095D01*
X30320540Y58168889D01*
X30320540Y59610911D01*
X30321540Y59612643D01*
X30323651Y59612574D01*
X30339284Y59602129D01*
X30339456Y59602001D01*
X30371285Y59575401D01*
X30440001Y59566770D01*
X30502631Y59596734D01*
X30515256Y59611303D01*
X30515655Y59611656D01*
X30517028Y59612574D01*
X30519024Y59612705D01*
X30520140Y59610911D01*
G37*
G36*
X32521640Y59610911D02*
G01*
X32521640Y58168889D01*
X32520640Y58167157D01*
X32518529Y58167226D01*
X32502896Y58177671D01*
X32502724Y58177799D01*
X32470895Y58204399D01*
X32402179Y58213030D01*
X32339549Y58183066D01*
X32326924Y58168497D01*
X32326525Y58168144D01*
X32325152Y58167226D01*
X32323156Y58167095D01*
X32322040Y58168889D01*
X32322040Y59610911D01*
X32323040Y59612643D01*
X32325151Y59612574D01*
X32340784Y59602129D01*
X32340956Y59602001D01*
X32372785Y59575401D01*
X32441501Y59566770D01*
X32504131Y59596734D01*
X32516756Y59611303D01*
X32517155Y59611656D01*
X32518528Y59612574D01*
X32520524Y59612705D01*
X32521640Y59610911D01*
G37*
G36*
X40027340Y59610911D02*
G01*
X40027340Y58168889D01*
X40026340Y58167157D01*
X40024229Y58167226D01*
X40008596Y58177671D01*
X40008424Y58177799D01*
X39976595Y58204399D01*
X39907879Y58213030D01*
X39845249Y58183066D01*
X39832624Y58168497D01*
X39832225Y58168144D01*
X39830852Y58167226D01*
X39828856Y58167095D01*
X39827740Y58168889D01*
X39827740Y59610911D01*
X39828740Y59612643D01*
X39830851Y59612574D01*
X39846484Y59602129D01*
X39846656Y59602001D01*
X39878485Y59575401D01*
X39947201Y59566770D01*
X40009831Y59596734D01*
X40022456Y59611303D01*
X40022855Y59611656D01*
X40024228Y59612574D01*
X40026224Y59612705D01*
X40027340Y59610911D01*
G37*
G36*
X76202040Y59610911D02*
G01*
X76202040Y58168889D01*
X76201040Y58167157D01*
X76198929Y58167226D01*
X76183296Y58177671D01*
X76183124Y58177799D01*
X76151295Y58204399D01*
X76082579Y58213030D01*
X76019949Y58183066D01*
X76007324Y58168497D01*
X76006925Y58168144D01*
X76005552Y58167226D01*
X76003556Y58167095D01*
X76002440Y58168889D01*
X76002440Y59610911D01*
X76003440Y59612643D01*
X76005551Y59612574D01*
X76021184Y59602129D01*
X76021356Y59602001D01*
X76053185Y59575401D01*
X76121901Y59566770D01*
X76184531Y59596734D01*
X76197156Y59611303D01*
X76197555Y59611656D01*
X76198928Y59612574D01*
X76200924Y59612705D01*
X76202040Y59610911D01*
G37*
G36*
X35523940Y59610911D02*
G01*
X35523940Y58168889D01*
X35522940Y58167157D01*
X35520829Y58167226D01*
X35505196Y58177671D01*
X35505024Y58177799D01*
X35473195Y58204399D01*
X35404479Y58213030D01*
X35341849Y58183066D01*
X35329224Y58168497D01*
X35328825Y58168144D01*
X35327452Y58167226D01*
X35325456Y58167095D01*
X35324340Y58168889D01*
X35324340Y59610911D01*
X35325340Y59612643D01*
X35327451Y59612574D01*
X35343084Y59602129D01*
X35343256Y59602001D01*
X35375085Y59575401D01*
X35443801Y59566770D01*
X35506431Y59596734D01*
X35519056Y59611303D01*
X35519455Y59611656D01*
X35520828Y59612574D01*
X35522824Y59612705D01*
X35523940Y59610911D01*
G37*
G36*
X30520140Y65783111D02*
G01*
X30520140Y64341089D01*
X30519140Y64339357D01*
X30517029Y64339426D01*
X30501396Y64349871D01*
X30501224Y64349999D01*
X30469395Y64376599D01*
X30400679Y64385230D01*
X30338049Y64355266D01*
X30325424Y64340697D01*
X30325025Y64340344D01*
X30323652Y64339426D01*
X30321656Y64339295D01*
X30320540Y64341089D01*
X30320540Y65783111D01*
X30321540Y65784843D01*
X30323651Y65784774D01*
X30339284Y65774329D01*
X30339456Y65774201D01*
X30371285Y65747601D01*
X30440001Y65738970D01*
X30502631Y65768934D01*
X30515256Y65783503D01*
X30515655Y65783856D01*
X30517028Y65784774D01*
X30519024Y65784905D01*
X30520140Y65783111D01*
G37*
G36*
X41028040Y65783111D02*
G01*
X41028040Y64341089D01*
X41027040Y64339357D01*
X41024929Y64339426D01*
X41009103Y64350000D01*
X41008931Y64350128D01*
X40977348Y64376524D01*
X40908632Y64385157D01*
X40846001Y64355194D01*
X40833459Y64340720D01*
X40833059Y64340367D01*
X40831651Y64339426D01*
X40829656Y64339295D01*
X40828540Y64341089D01*
X40828540Y65783111D01*
X40829540Y65784843D01*
X40831651Y65784774D01*
X40847477Y65774200D01*
X40847649Y65774072D01*
X40879232Y65747676D01*
X40947948Y65739043D01*
X41010579Y65769006D01*
X41023121Y65783480D01*
X41023521Y65783833D01*
X41024929Y65784774D01*
X41026924Y65784905D01*
X41028040Y65783111D01*
G37*
G36*
X83707740Y65783111D02*
G01*
X83707740Y64341089D01*
X83706740Y64339357D01*
X83704629Y64339426D01*
X83688996Y64349871D01*
X83688824Y64349999D01*
X83656995Y64376599D01*
X83588279Y64385230D01*
X83525649Y64355266D01*
X83513024Y64340697D01*
X83512625Y64340344D01*
X83511252Y64339426D01*
X83509256Y64339295D01*
X83508140Y64341089D01*
X83508140Y65783111D01*
X83509140Y65784843D01*
X83511251Y65784774D01*
X83526884Y65774329D01*
X83527056Y65774201D01*
X83558885Y65747601D01*
X83627601Y65738970D01*
X83690231Y65768934D01*
X83702856Y65783503D01*
X83703255Y65783856D01*
X83704628Y65784774D01*
X83706624Y65784905D01*
X83707740Y65783111D01*
G37*
G36*
X72198940Y65783111D02*
G01*
X72198940Y64341089D01*
X72197940Y64339357D01*
X72195829Y64339426D01*
X72180196Y64349871D01*
X72180024Y64349999D01*
X72148195Y64376599D01*
X72079479Y64385230D01*
X72016849Y64355266D01*
X72004224Y64340697D01*
X72003825Y64340344D01*
X72002452Y64339426D01*
X72000456Y64339295D01*
X71999340Y64341089D01*
X71999340Y65783111D01*
X72000340Y65784843D01*
X72002451Y65784774D01*
X72018084Y65774329D01*
X72018256Y65774201D01*
X72050085Y65747601D01*
X72118801Y65738970D01*
X72181431Y65768934D01*
X72194056Y65783503D01*
X72194455Y65783856D01*
X72195828Y65784774D01*
X72197824Y65784905D01*
X72198940Y65783111D01*
G37*
G36*
X41528440Y65783111D02*
G01*
X41528440Y64341089D01*
X41527440Y64339357D01*
X41525329Y64339426D01*
X41509696Y64349871D01*
X41509524Y64349999D01*
X41477695Y64376599D01*
X41408979Y64385230D01*
X41346349Y64355266D01*
X41333724Y64340697D01*
X41333325Y64340344D01*
X41331952Y64339426D01*
X41329956Y64339295D01*
X41328840Y64341089D01*
X41328840Y65783111D01*
X41329840Y65784843D01*
X41331951Y65784774D01*
X41347584Y65774329D01*
X41347756Y65774201D01*
X41379585Y65747601D01*
X41448301Y65738970D01*
X41510931Y65768934D01*
X41523556Y65783503D01*
X41523955Y65783856D01*
X41525328Y65784774D01*
X41527324Y65784905D01*
X41528440Y65783111D01*
G37*
G36*
X84208040Y65783111D02*
G01*
X84208040Y64341089D01*
X84207040Y64339357D01*
X84204929Y64339426D01*
X84189103Y64350000D01*
X84188931Y64350128D01*
X84157348Y64376524D01*
X84088632Y64385157D01*
X84026001Y64355194D01*
X84013459Y64340720D01*
X84013059Y64340367D01*
X84011651Y64339426D01*
X84009656Y64339295D01*
X84008540Y64341089D01*
X84008540Y65783111D01*
X84009540Y65784843D01*
X84011651Y65784774D01*
X84027477Y65774200D01*
X84027649Y65774072D01*
X84059232Y65747676D01*
X84127948Y65739043D01*
X84190579Y65769006D01*
X84203121Y65783480D01*
X84203521Y65783833D01*
X84204929Y65784774D01*
X84206924Y65784905D01*
X84208040Y65783111D01*
G37*
G36*
X84708440Y65783111D02*
G01*
X84708440Y64341089D01*
X84707440Y64339357D01*
X84705329Y64339426D01*
X84689696Y64349871D01*
X84689524Y64349999D01*
X84657695Y64376599D01*
X84588979Y64385230D01*
X84526349Y64355266D01*
X84513724Y64340697D01*
X84513325Y64340344D01*
X84511952Y64339426D01*
X84509956Y64339295D01*
X84508840Y64341089D01*
X84508840Y65783111D01*
X84509840Y65784843D01*
X84511951Y65784774D01*
X84527584Y65774329D01*
X84527756Y65774201D01*
X84559585Y65747601D01*
X84628301Y65738970D01*
X84690931Y65768934D01*
X84703556Y65783503D01*
X84703955Y65783856D01*
X84705328Y65784774D01*
X84707324Y65784905D01*
X84708440Y65783111D01*
G37*
G36*
X77202740Y65783111D02*
G01*
X77202740Y64341089D01*
X77201740Y64339357D01*
X77199629Y64339426D01*
X77183996Y64349871D01*
X77183824Y64349999D01*
X77151995Y64376599D01*
X77083279Y64385230D01*
X77020649Y64355266D01*
X77008024Y64340697D01*
X77007625Y64340344D01*
X77006252Y64339426D01*
X77004256Y64339295D01*
X77003140Y64341089D01*
X77003140Y65783111D01*
X77004140Y65784843D01*
X77006251Y65784774D01*
X77021884Y65774329D01*
X77022056Y65774201D01*
X77053885Y65747601D01*
X77122601Y65738970D01*
X77185231Y65768934D01*
X77197856Y65783503D01*
X77198255Y65783856D01*
X77199628Y65784774D01*
X77201624Y65784905D01*
X77202740Y65783111D01*
G37*
G36*
X85208840Y65783111D02*
G01*
X85208840Y64341089D01*
X85207840Y64339357D01*
X85205729Y64339426D01*
X85190096Y64349871D01*
X85189924Y64349999D01*
X85158095Y64376599D01*
X85089379Y64385230D01*
X85026749Y64355266D01*
X85014124Y64340697D01*
X85013725Y64340344D01*
X85012352Y64339426D01*
X85010356Y64339295D01*
X85009240Y64341089D01*
X85009240Y65783111D01*
X85010240Y65784843D01*
X85012351Y65784774D01*
X85027984Y65774329D01*
X85028156Y65774201D01*
X85059985Y65747601D01*
X85128701Y65738970D01*
X85191331Y65768934D01*
X85203956Y65783503D01*
X85204355Y65783856D01*
X85205728Y65784774D01*
X85207724Y65784905D01*
X85208840Y65783111D01*
G37*
G36*
X71698540Y65783111D02*
G01*
X71698540Y64341089D01*
X71697540Y64339357D01*
X71695429Y64339426D01*
X71679603Y64350000D01*
X71679431Y64350128D01*
X71647848Y64376524D01*
X71579132Y64385157D01*
X71516501Y64355194D01*
X71503959Y64340720D01*
X71503559Y64340367D01*
X71502151Y64339426D01*
X71500156Y64339295D01*
X71499040Y64341089D01*
X71499040Y65783111D01*
X71500040Y65784843D01*
X71502151Y65784774D01*
X71517977Y65774200D01*
X71518149Y65774072D01*
X71549732Y65747676D01*
X71618448Y65739043D01*
X71681079Y65769006D01*
X71693621Y65783480D01*
X71694021Y65783833D01*
X71695429Y65784774D01*
X71697424Y65784905D01*
X71698540Y65783111D01*
G37*
G36*
X83207340Y65783111D02*
G01*
X83207340Y64341089D01*
X83206340Y64339357D01*
X83204229Y64339426D01*
X83188596Y64349871D01*
X83188424Y64349999D01*
X83156595Y64376599D01*
X83087879Y64385230D01*
X83025249Y64355266D01*
X83012624Y64340697D01*
X83012225Y64340344D01*
X83010852Y64339426D01*
X83008856Y64339295D01*
X83007740Y64341089D01*
X83007740Y65783111D01*
X83008740Y65784843D01*
X83010851Y65784774D01*
X83026484Y65774329D01*
X83026656Y65774201D01*
X83058485Y65747601D01*
X83127201Y65738970D01*
X83189831Y65768934D01*
X83202456Y65783503D01*
X83202855Y65783856D01*
X83204228Y65784774D01*
X83206224Y65784905D01*
X83207340Y65783111D01*
G37*
G36*
X42028840Y65783111D02*
G01*
X42028840Y64341089D01*
X42027840Y64339357D01*
X42025729Y64339426D01*
X42010096Y64349871D01*
X42009924Y64349999D01*
X41978095Y64376599D01*
X41909379Y64385230D01*
X41846749Y64355266D01*
X41834124Y64340697D01*
X41833725Y64340344D01*
X41832352Y64339426D01*
X41830356Y64339295D01*
X41829240Y64341089D01*
X41829240Y65783111D01*
X41830240Y65784843D01*
X41832351Y65784774D01*
X41847984Y65774329D01*
X41848156Y65774201D01*
X41879985Y65747601D01*
X41948701Y65738970D01*
X42011331Y65768934D01*
X42023956Y65783503D01*
X42024355Y65783856D01*
X42025728Y65784774D01*
X42027724Y65784905D01*
X42028840Y65783111D01*
G37*
G36*
X81706140Y65783111D02*
G01*
X81706140Y64341089D01*
X81705140Y64339357D01*
X81703029Y64339426D01*
X81687203Y64350000D01*
X81687031Y64350128D01*
X81655448Y64376524D01*
X81586732Y64385157D01*
X81524101Y64355194D01*
X81511559Y64340720D01*
X81511159Y64340367D01*
X81509751Y64339426D01*
X81507756Y64339295D01*
X81506640Y64341089D01*
X81506640Y65783111D01*
X81507640Y65784843D01*
X81509751Y65784774D01*
X81525577Y65774200D01*
X81525749Y65774072D01*
X81557332Y65747676D01*
X81626048Y65739043D01*
X81688679Y65769006D01*
X81701221Y65783480D01*
X81701621Y65783833D01*
X81703029Y65784774D01*
X81705024Y65784905D01*
X81706140Y65783111D01*
G37*
G36*
X82706940Y65783111D02*
G01*
X82706940Y64341089D01*
X82705940Y64339357D01*
X82703829Y64339426D01*
X82688196Y64349871D01*
X82688024Y64349999D01*
X82656195Y64376599D01*
X82587479Y64385230D01*
X82524849Y64355266D01*
X82512224Y64340697D01*
X82511825Y64340344D01*
X82510452Y64339426D01*
X82508456Y64339295D01*
X82507340Y64341089D01*
X82507340Y65783111D01*
X82508340Y65784843D01*
X82510451Y65784774D01*
X82526084Y65774329D01*
X82526256Y65774201D01*
X82558085Y65747601D01*
X82626801Y65738970D01*
X82689431Y65768934D01*
X82702056Y65783503D01*
X82702455Y65783856D01*
X82703828Y65784774D01*
X82705824Y65784905D01*
X82706940Y65783111D01*
G37*
G36*
X28518540Y65783111D02*
G01*
X28518540Y64341089D01*
X28517540Y64339357D01*
X28515429Y64339426D01*
X28499603Y64350000D01*
X28499431Y64350128D01*
X28467848Y64376524D01*
X28399132Y64385157D01*
X28336501Y64355194D01*
X28323959Y64340720D01*
X28323559Y64340367D01*
X28322151Y64339426D01*
X28320156Y64339295D01*
X28319040Y64341089D01*
X28319040Y65783111D01*
X28320040Y65784843D01*
X28322151Y65784774D01*
X28337977Y65774200D01*
X28338149Y65774072D01*
X28369732Y65747676D01*
X28438448Y65739043D01*
X28501079Y65769006D01*
X28513621Y65783480D01*
X28514021Y65783833D01*
X28515429Y65784774D01*
X28517424Y65784905D01*
X28518540Y65783111D01*
G37*
G36*
X71198240Y65783111D02*
G01*
X71198240Y64341089D01*
X71197240Y64339357D01*
X71195129Y64339426D01*
X71179496Y64349871D01*
X71179324Y64349999D01*
X71147495Y64376599D01*
X71078779Y64385230D01*
X71016149Y64355266D01*
X71003524Y64340697D01*
X71003125Y64340344D01*
X71001752Y64339426D01*
X70999756Y64339295D01*
X70998640Y64341089D01*
X70998640Y65783111D01*
X70999640Y65784843D01*
X71001751Y65784774D01*
X71017384Y65774329D01*
X71017556Y65774201D01*
X71049385Y65747601D01*
X71118101Y65738970D01*
X71180731Y65768934D01*
X71193356Y65783503D01*
X71193755Y65783856D01*
X71195128Y65784774D01*
X71197124Y65784905D01*
X71198240Y65783111D01*
G37*
G36*
X29519340Y65783111D02*
G01*
X29519340Y64341089D01*
X29518340Y64339357D01*
X29516229Y64339426D01*
X29500596Y64349871D01*
X29500424Y64349999D01*
X29468595Y64376599D01*
X29399879Y64385230D01*
X29337249Y64355266D01*
X29324624Y64340697D01*
X29324225Y64340344D01*
X29322852Y64339426D01*
X29320856Y64339295D01*
X29319740Y64341089D01*
X29319740Y65783111D01*
X29320740Y65784843D01*
X29322851Y65784774D01*
X29338484Y65774329D01*
X29338656Y65774201D01*
X29370485Y65747601D01*
X29439201Y65738970D01*
X29501831Y65768934D01*
X29514456Y65783503D01*
X29514855Y65783856D01*
X29516228Y65784774D01*
X29518224Y65784905D01*
X29519340Y65783111D01*
G37*
G36*
X28018240Y65783111D02*
G01*
X28018240Y64341089D01*
X28017240Y64339357D01*
X28015129Y64339426D01*
X27999496Y64349871D01*
X27999324Y64349999D01*
X27967495Y64376599D01*
X27898779Y64385230D01*
X27836149Y64355266D01*
X27823524Y64340697D01*
X27823125Y64340344D01*
X27821752Y64339426D01*
X27819756Y64339295D01*
X27818640Y64341089D01*
X27818640Y65783111D01*
X27819640Y65784843D01*
X27821751Y65784774D01*
X27837384Y65774329D01*
X27837556Y65774201D01*
X27869385Y65747601D01*
X27938101Y65738970D01*
X28000731Y65768934D01*
X28013356Y65783503D01*
X28013755Y65783856D01*
X28015128Y65784774D01*
X28017124Y65784905D01*
X28018240Y65783111D01*
G37*
G36*
X76202040Y65783111D02*
G01*
X76202040Y64341089D01*
X76201040Y64339357D01*
X76198929Y64339426D01*
X76183296Y64349871D01*
X76183124Y64349999D01*
X76151295Y64376599D01*
X76082579Y64385230D01*
X76019949Y64355266D01*
X76007324Y64340697D01*
X76006925Y64340344D01*
X76005552Y64339426D01*
X76003556Y64339295D01*
X76002440Y64341089D01*
X76002440Y65783111D01*
X76003440Y65784843D01*
X76005551Y65784774D01*
X76021184Y65774329D01*
X76021356Y65774201D01*
X76053185Y65747601D01*
X76121901Y65738970D01*
X76184531Y65768934D01*
X76197156Y65783503D01*
X76197555Y65783856D01*
X76198928Y65784774D01*
X76200924Y65784905D01*
X76202040Y65783111D01*
G37*
G36*
X30019740Y65783111D02*
G01*
X30019740Y64341089D01*
X30018740Y64339357D01*
X30016629Y64339426D01*
X30000996Y64349871D01*
X30000824Y64349999D01*
X29968995Y64376599D01*
X29900279Y64385230D01*
X29837649Y64355266D01*
X29825024Y64340697D01*
X29824625Y64340344D01*
X29823252Y64339426D01*
X29821256Y64339295D01*
X29820140Y64341089D01*
X29820140Y65783111D01*
X29821140Y65784843D01*
X29823251Y65784774D01*
X29838884Y65774329D01*
X29839056Y65774201D01*
X29870885Y65747601D01*
X29939601Y65738970D01*
X30002231Y65768934D01*
X30014856Y65783503D01*
X30015255Y65783856D01*
X30016628Y65784774D01*
X30018624Y65784905D01*
X30019740Y65783111D01*
G37*
G36*
X76702340Y65783111D02*
G01*
X76702340Y64341089D01*
X76701340Y64339357D01*
X76699229Y64339426D01*
X76683403Y64350000D01*
X76683231Y64350128D01*
X76651648Y64376524D01*
X76582932Y64385157D01*
X76520301Y64355194D01*
X76507759Y64340720D01*
X76507359Y64340367D01*
X76505951Y64339426D01*
X76503956Y64339295D01*
X76502840Y64341089D01*
X76502840Y65783111D01*
X76503840Y65784843D01*
X76505951Y65784774D01*
X76521777Y65774200D01*
X76521949Y65774072D01*
X76553532Y65747676D01*
X76622248Y65739043D01*
X76684879Y65769006D01*
X76697421Y65783480D01*
X76697821Y65783833D01*
X76699229Y65784774D01*
X76701224Y65784905D01*
X76702340Y65783111D01*
G37*
G36*
X37025040Y65783111D02*
G01*
X37025040Y64341089D01*
X37024040Y64339357D01*
X37021929Y64339426D01*
X37006296Y64349871D01*
X37006124Y64349999D01*
X36974295Y64376599D01*
X36905579Y64385230D01*
X36842949Y64355266D01*
X36830324Y64340697D01*
X36829925Y64340344D01*
X36828552Y64339426D01*
X36826556Y64339295D01*
X36825440Y64341089D01*
X36825440Y65783111D01*
X36826440Y65784843D01*
X36828551Y65784774D01*
X36844184Y65774329D01*
X36844356Y65774201D01*
X36876185Y65747601D01*
X36944901Y65738970D01*
X37007531Y65768934D01*
X37020156Y65783503D01*
X37020555Y65783856D01*
X37021928Y65784774D01*
X37023924Y65784905D01*
X37025040Y65783111D01*
G37*
G36*
X39026540Y65783111D02*
G01*
X39026540Y64341089D01*
X39025540Y64339357D01*
X39023429Y64339426D01*
X39007796Y64349871D01*
X39007624Y64349999D01*
X38975795Y64376599D01*
X38907079Y64385230D01*
X38844449Y64355266D01*
X38831824Y64340697D01*
X38831425Y64340344D01*
X38830052Y64339426D01*
X38828056Y64339295D01*
X38826940Y64341089D01*
X38826940Y65783111D01*
X38827940Y65784843D01*
X38830051Y65784774D01*
X38845684Y65774329D01*
X38845856Y65774201D01*
X38877685Y65747601D01*
X38946401Y65738970D01*
X39009031Y65768934D01*
X39021656Y65783503D01*
X39022055Y65783856D01*
X39023428Y65784774D01*
X39025424Y65784905D01*
X39026540Y65783111D01*
G37*
G36*
X36524640Y65783111D02*
G01*
X36524640Y64341089D01*
X36523640Y64339357D01*
X36521529Y64339426D01*
X36505896Y64349871D01*
X36505724Y64349999D01*
X36473895Y64376599D01*
X36405179Y64385230D01*
X36342549Y64355266D01*
X36329924Y64340697D01*
X36329525Y64340344D01*
X36328152Y64339426D01*
X36326156Y64339295D01*
X36325040Y64341089D01*
X36325040Y65783111D01*
X36326040Y65784843D01*
X36328151Y65784774D01*
X36343784Y65774329D01*
X36343956Y65774201D01*
X36375785Y65747601D01*
X36444501Y65738970D01*
X36507131Y65768934D01*
X36519756Y65783503D01*
X36520155Y65783856D01*
X36521528Y65784774D01*
X36523524Y65784905D01*
X36524640Y65783111D01*
G37*
G36*
X37525440Y65783111D02*
G01*
X37525440Y64341089D01*
X37524440Y64339357D01*
X37522329Y64339426D01*
X37506696Y64349871D01*
X37506524Y64349999D01*
X37474695Y64376599D01*
X37405979Y64385230D01*
X37343349Y64355266D01*
X37330724Y64340697D01*
X37330325Y64340344D01*
X37328952Y64339426D01*
X37326956Y64339295D01*
X37325840Y64341089D01*
X37325840Y65783111D01*
X37326840Y65784843D01*
X37328951Y65784774D01*
X37344584Y65774329D01*
X37344756Y65774201D01*
X37376585Y65747601D01*
X37445301Y65738970D01*
X37507931Y65768934D01*
X37520556Y65783503D01*
X37520955Y65783856D01*
X37522328Y65784774D01*
X37524324Y65784905D01*
X37525440Y65783111D01*
G37*
G36*
X74700840Y65783111D02*
G01*
X74700840Y64341089D01*
X74699840Y64339357D01*
X74697729Y64339426D01*
X74682096Y64349871D01*
X74681924Y64349999D01*
X74650095Y64376599D01*
X74581379Y64385230D01*
X74518749Y64355266D01*
X74506124Y64340697D01*
X74505725Y64340344D01*
X74504352Y64339426D01*
X74502356Y64339295D01*
X74501240Y64341089D01*
X74501240Y65783111D01*
X74502240Y65784843D01*
X74504351Y65784774D01*
X74519984Y65774329D01*
X74520156Y65774201D01*
X74551985Y65747601D01*
X74620701Y65738970D01*
X74683331Y65768934D01*
X74695956Y65783503D01*
X74696355Y65783856D01*
X74697728Y65784774D01*
X74699724Y65784905D01*
X74700840Y65783111D01*
G37*
G36*
X36024240Y65783111D02*
G01*
X36024240Y64341089D01*
X36023240Y64339357D01*
X36021129Y64339426D01*
X36005303Y64350000D01*
X36005131Y64350128D01*
X35973548Y64376524D01*
X35904832Y64385157D01*
X35842201Y64355194D01*
X35829659Y64340720D01*
X35829259Y64340367D01*
X35827851Y64339426D01*
X35825856Y64339295D01*
X35824740Y64341089D01*
X35824740Y65783111D01*
X35825740Y65784843D01*
X35827851Y65784774D01*
X35843677Y65774200D01*
X35843849Y65774072D01*
X35875432Y65747676D01*
X35944148Y65739043D01*
X36006779Y65769006D01*
X36019321Y65783480D01*
X36019721Y65783833D01*
X36021129Y65784774D01*
X36023124Y65784905D01*
X36024240Y65783111D01*
G37*
G36*
X78203540Y65783111D02*
G01*
X78203540Y64341089D01*
X78202540Y64339357D01*
X78200429Y64339426D01*
X78184796Y64349871D01*
X78184624Y64349999D01*
X78152795Y64376599D01*
X78084079Y64385230D01*
X78021449Y64355266D01*
X78008824Y64340697D01*
X78008425Y64340344D01*
X78007052Y64339426D01*
X78005056Y64339295D01*
X78003940Y64341089D01*
X78003940Y65783111D01*
X78004940Y65784843D01*
X78007051Y65784774D01*
X78022684Y65774329D01*
X78022856Y65774201D01*
X78054685Y65747601D01*
X78123401Y65738970D01*
X78186031Y65768934D01*
X78198656Y65783503D01*
X78199055Y65783856D01*
X78200428Y65784774D01*
X78202424Y65784905D01*
X78203540Y65783111D01*
G37*
G36*
X35523940Y65783111D02*
G01*
X35523940Y64341089D01*
X35522940Y64339357D01*
X35520829Y64339426D01*
X35505196Y64349871D01*
X35505024Y64349999D01*
X35473195Y64376599D01*
X35404479Y64385230D01*
X35341849Y64355266D01*
X35329224Y64340697D01*
X35328825Y64340344D01*
X35327452Y64339426D01*
X35325456Y64339295D01*
X35324340Y64341089D01*
X35324340Y65783111D01*
X35325340Y65784843D01*
X35327451Y65784774D01*
X35343084Y65774329D01*
X35343256Y65774201D01*
X35375085Y65747601D01*
X35443801Y65738970D01*
X35506431Y65768934D01*
X35519056Y65783503D01*
X35519455Y65783856D01*
X35520828Y65784774D01*
X35522824Y65784905D01*
X35523940Y65783111D01*
G37*
G36*
X40027340Y65783111D02*
G01*
X40027340Y64341089D01*
X40026340Y64339357D01*
X40024229Y64339426D01*
X40008596Y64349871D01*
X40008424Y64349999D01*
X39976595Y64376599D01*
X39907879Y64385230D01*
X39845249Y64355266D01*
X39832624Y64340697D01*
X39832225Y64340344D01*
X39830852Y64339426D01*
X39828856Y64339295D01*
X39827740Y64341089D01*
X39827740Y65783111D01*
X39828740Y65784843D01*
X39830851Y65784774D01*
X39846484Y65774329D01*
X39846656Y65774201D01*
X39878485Y65747601D01*
X39947201Y65738970D01*
X40009831Y65768934D01*
X40022456Y65783503D01*
X40022855Y65783856D01*
X40024228Y65784774D01*
X40026224Y65784905D01*
X40027340Y65783111D01*
G37*
G36*
X38025840Y65783111D02*
G01*
X38025840Y64341089D01*
X38024840Y64339357D01*
X38022729Y64339426D01*
X38007096Y64349871D01*
X38006924Y64349999D01*
X37975095Y64376599D01*
X37906379Y64385230D01*
X37843749Y64355266D01*
X37831124Y64340697D01*
X37830725Y64340344D01*
X37829352Y64339426D01*
X37827356Y64339295D01*
X37826240Y64341089D01*
X37826240Y65783111D01*
X37827240Y65784843D01*
X37829351Y65784774D01*
X37844984Y65774329D01*
X37845156Y65774201D01*
X37876985Y65747601D01*
X37945701Y65738970D01*
X38008331Y65768934D01*
X38020956Y65783503D01*
X38021355Y65783856D01*
X38022728Y65784774D01*
X38024724Y65784905D01*
X38025840Y65783111D01*
G37*
G36*
X79204240Y65783111D02*
G01*
X79204240Y64341089D01*
X79203240Y64339357D01*
X79201129Y64339426D01*
X79185303Y64350000D01*
X79185131Y64350128D01*
X79153548Y64376524D01*
X79084832Y64385157D01*
X79022201Y64355194D01*
X79009659Y64340720D01*
X79009259Y64340367D01*
X79007851Y64339426D01*
X79005856Y64339295D01*
X79004740Y64341089D01*
X79004740Y65783111D01*
X79005740Y65784843D01*
X79007851Y65784774D01*
X79023677Y65774200D01*
X79023849Y65774072D01*
X79055432Y65747676D01*
X79124148Y65739043D01*
X79186779Y65769006D01*
X79199321Y65783480D01*
X79199721Y65783833D01*
X79201129Y65784774D01*
X79203124Y65784905D01*
X79204240Y65783111D01*
G37*
G36*
X79704640Y65783111D02*
G01*
X79704640Y64341089D01*
X79703640Y64339357D01*
X79701529Y64339426D01*
X79685896Y64349871D01*
X79685724Y64349999D01*
X79653895Y64376599D01*
X79585179Y64385230D01*
X79522549Y64355266D01*
X79509924Y64340697D01*
X79509525Y64340344D01*
X79508152Y64339426D01*
X79506156Y64339295D01*
X79505040Y64341089D01*
X79505040Y65783111D01*
X79506040Y65784843D01*
X79508151Y65784774D01*
X79523784Y65774329D01*
X79523956Y65774201D01*
X79555785Y65747601D01*
X79624501Y65738970D01*
X79687131Y65768934D01*
X79699756Y65783503D01*
X79700155Y65783856D01*
X79701528Y65784774D01*
X79703524Y65784905D01*
X79704640Y65783111D01*
G37*
G36*
X73700140Y65783111D02*
G01*
X73700140Y64341089D01*
X73699140Y64339357D01*
X73697029Y64339426D01*
X73681396Y64349871D01*
X73681224Y64349999D01*
X73649395Y64376599D01*
X73580679Y64385230D01*
X73518049Y64355266D01*
X73505424Y64340697D01*
X73505025Y64340344D01*
X73503652Y64339426D01*
X73501656Y64339295D01*
X73500540Y64341089D01*
X73500540Y65783111D01*
X73501540Y65784843D01*
X73503651Y65784774D01*
X73519284Y65774329D01*
X73519456Y65774201D01*
X73551285Y65747601D01*
X73620001Y65738970D01*
X73682631Y65768934D01*
X73695256Y65783503D01*
X73695655Y65783856D01*
X73697028Y65784774D01*
X73699024Y65784905D01*
X73700140Y65783111D01*
G37*
G36*
X80205040Y65783111D02*
G01*
X80205040Y64341089D01*
X80204040Y64339357D01*
X80201929Y64339426D01*
X80186296Y64349871D01*
X80186124Y64349999D01*
X80154295Y64376599D01*
X80085579Y64385230D01*
X80022949Y64355266D01*
X80010324Y64340697D01*
X80009925Y64340344D01*
X80008552Y64339426D01*
X80006556Y64339295D01*
X80005440Y64341089D01*
X80005440Y65783111D01*
X80006440Y65784843D01*
X80008551Y65784774D01*
X80024184Y65774329D01*
X80024356Y65774201D01*
X80056185Y65747601D01*
X80124901Y65738970D01*
X80187531Y65768934D01*
X80200156Y65783503D01*
X80200555Y65783856D01*
X80201928Y65784774D01*
X80203924Y65784905D01*
X80205040Y65783111D01*
G37*
G36*
X73199740Y65783111D02*
G01*
X73199740Y64341089D01*
X73198740Y64339357D01*
X73196629Y64339426D01*
X73180996Y64349871D01*
X73180824Y64349999D01*
X73148995Y64376599D01*
X73080279Y64385230D01*
X73017649Y64355266D01*
X73005024Y64340697D01*
X73004625Y64340344D01*
X73003252Y64339426D01*
X73001256Y64339295D01*
X73000140Y64341089D01*
X73000140Y65783111D01*
X73001140Y65784843D01*
X73003251Y65784774D01*
X73018884Y65774329D01*
X73019056Y65774201D01*
X73050885Y65747601D01*
X73119601Y65738970D01*
X73182231Y65768934D01*
X73194856Y65783503D01*
X73195255Y65783856D01*
X73196628Y65784774D01*
X73198624Y65784905D01*
X73199740Y65783111D01*
G37*
G36*
X39526940Y65783111D02*
G01*
X39526940Y64341089D01*
X39525940Y64339357D01*
X39523829Y64339426D01*
X39508196Y64349871D01*
X39508024Y64349999D01*
X39476195Y64376599D01*
X39407479Y64385230D01*
X39344849Y64355266D01*
X39332224Y64340697D01*
X39331825Y64340344D01*
X39330452Y64339426D01*
X39328456Y64339295D01*
X39327340Y64341089D01*
X39327340Y65783111D01*
X39328340Y65784843D01*
X39330451Y65784774D01*
X39346084Y65774329D01*
X39346256Y65774201D01*
X39378085Y65747601D01*
X39446801Y65738970D01*
X39509431Y65768934D01*
X39522056Y65783503D01*
X39522455Y65783856D01*
X39523828Y65784774D01*
X39525824Y65784905D01*
X39526940Y65783111D01*
G37*
G36*
X80705440Y65783111D02*
G01*
X80705440Y64341089D01*
X80704440Y64339357D01*
X80702329Y64339426D01*
X80686696Y64349871D01*
X80686524Y64349999D01*
X80654695Y64376599D01*
X80585979Y64385230D01*
X80523349Y64355266D01*
X80510724Y64340697D01*
X80510325Y64340344D01*
X80508952Y64339426D01*
X80506956Y64339295D01*
X80505840Y64341089D01*
X80505840Y65783111D01*
X80506840Y65784843D01*
X80508951Y65784774D01*
X80524584Y65774329D01*
X80524756Y65774201D01*
X80556585Y65747601D01*
X80625301Y65738970D01*
X80687931Y65768934D01*
X80700556Y65783503D01*
X80700955Y65783856D01*
X80702328Y65784774D01*
X80704324Y65784905D01*
X80705440Y65783111D01*
G37*
G36*
X81205840Y65783111D02*
G01*
X81205840Y64341089D01*
X81204840Y64339357D01*
X81202729Y64339426D01*
X81187096Y64349871D01*
X81186924Y64349999D01*
X81155095Y64376599D01*
X81086379Y64385230D01*
X81023749Y64355266D01*
X81011124Y64340697D01*
X81010725Y64340344D01*
X81009352Y64339426D01*
X81007356Y64339295D01*
X81006240Y64341089D01*
X81006240Y65783111D01*
X81007240Y65784843D01*
X81009351Y65784774D01*
X81024984Y65774329D01*
X81025156Y65774201D01*
X81056985Y65747601D01*
X81125701Y65738970D01*
X81188331Y65768934D01*
X81200956Y65783503D01*
X81201355Y65783856D01*
X81202728Y65784774D01*
X81204724Y65784905D01*
X81205840Y65783111D01*
G37*
G36*
X77703140Y65783111D02*
G01*
X77703140Y64341089D01*
X77702140Y64339357D01*
X77700029Y64339426D01*
X77684396Y64349871D01*
X77684224Y64349999D01*
X77652395Y64376599D01*
X77583679Y64385230D01*
X77521049Y64355266D01*
X77508424Y64340697D01*
X77508025Y64340344D01*
X77506652Y64339426D01*
X77504656Y64339295D01*
X77503540Y64341089D01*
X77503540Y65783111D01*
X77504540Y65784843D01*
X77506651Y65784774D01*
X77522284Y65774329D01*
X77522456Y65774201D01*
X77554285Y65747601D01*
X77623001Y65738970D01*
X77685631Y65768934D01*
X77698256Y65783503D01*
X77698655Y65783856D01*
X77700028Y65784774D01*
X77702024Y65784905D01*
X77703140Y65783111D01*
G37*
G36*
X82206540Y65783111D02*
G01*
X82206540Y64341089D01*
X82205540Y64339357D01*
X82203429Y64339426D01*
X82187796Y64349871D01*
X82187624Y64349999D01*
X82155795Y64376599D01*
X82087079Y64385230D01*
X82024449Y64355266D01*
X82011824Y64340697D01*
X82011425Y64340344D01*
X82010052Y64339426D01*
X82008056Y64339295D01*
X82006940Y64341089D01*
X82006940Y65783111D01*
X82007940Y65784843D01*
X82010051Y65784774D01*
X82025684Y65774329D01*
X82025856Y65774201D01*
X82057685Y65747601D01*
X82126401Y65738970D01*
X82189031Y65768934D01*
X82201656Y65783503D01*
X82202055Y65783856D01*
X82203428Y65784774D01*
X82205424Y65784905D01*
X82206540Y65783111D01*
G37*
G36*
X72699340Y65783111D02*
G01*
X72699340Y64341089D01*
X72698340Y64339357D01*
X72696229Y64339426D01*
X72680596Y64349871D01*
X72680424Y64349999D01*
X72648595Y64376599D01*
X72579879Y64385230D01*
X72517249Y64355266D01*
X72504624Y64340697D01*
X72504225Y64340344D01*
X72502852Y64339426D01*
X72500856Y64339295D01*
X72499740Y64341089D01*
X72499740Y65783111D01*
X72500740Y65784843D01*
X72502851Y65784774D01*
X72518484Y65774329D01*
X72518656Y65774201D01*
X72550485Y65747601D01*
X72619201Y65738970D01*
X72681831Y65768934D01*
X72694456Y65783503D01*
X72694855Y65783856D01*
X72696228Y65784774D01*
X72698224Y65784905D01*
X72699340Y65783111D01*
G37*
G36*
X40527740Y65783111D02*
G01*
X40527740Y64341089D01*
X40526740Y64339357D01*
X40524629Y64339426D01*
X40508996Y64349871D01*
X40508824Y64349999D01*
X40476995Y64376599D01*
X40408279Y64385230D01*
X40345649Y64355266D01*
X40333024Y64340697D01*
X40332625Y64340344D01*
X40331252Y64339426D01*
X40329256Y64339295D01*
X40328140Y64341089D01*
X40328140Y65783111D01*
X40329140Y65784843D01*
X40331251Y65784774D01*
X40346884Y65774329D01*
X40347056Y65774201D01*
X40378885Y65747601D01*
X40447601Y65738970D01*
X40510231Y65768934D01*
X40522856Y65783503D01*
X40523255Y65783856D01*
X40524628Y65784774D01*
X40526624Y65784905D01*
X40527740Y65783111D01*
G37*
G36*
X75201240Y65783111D02*
G01*
X75201240Y64341089D01*
X75200240Y64339357D01*
X75198129Y64339426D01*
X75182496Y64349871D01*
X75182324Y64349999D01*
X75150495Y64376599D01*
X75081779Y64385230D01*
X75019149Y64355266D01*
X75006524Y64340697D01*
X75006125Y64340344D01*
X75004752Y64339426D01*
X75002756Y64339295D01*
X75001640Y64341089D01*
X75001640Y65783111D01*
X75002640Y65784843D01*
X75004751Y65784774D01*
X75020384Y65774329D01*
X75020556Y65774201D01*
X75052385Y65747601D01*
X75121101Y65738970D01*
X75183731Y65768934D01*
X75196356Y65783503D01*
X75196755Y65783856D01*
X75198128Y65784774D01*
X75200124Y65784905D01*
X75201240Y65783111D01*
G37*
G36*
X78703940Y65783111D02*
G01*
X78703940Y64341089D01*
X78702940Y64339357D01*
X78700829Y64339426D01*
X78685196Y64349871D01*
X78685024Y64349999D01*
X78653195Y64376599D01*
X78584479Y64385230D01*
X78521849Y64355266D01*
X78509224Y64340697D01*
X78508825Y64340344D01*
X78507452Y64339426D01*
X78505456Y64339295D01*
X78504340Y64341089D01*
X78504340Y65783111D01*
X78505340Y65784843D01*
X78507451Y65784774D01*
X78523084Y65774329D01*
X78523256Y65774201D01*
X78555085Y65747601D01*
X78623801Y65738970D01*
X78686431Y65768934D01*
X78699056Y65783503D01*
X78699455Y65783856D01*
X78700828Y65784774D01*
X78702824Y65784905D01*
X78703940Y65783111D01*
G37*
G36*
X34022740Y65783111D02*
G01*
X34022740Y64341089D01*
X34021740Y64339357D01*
X34019629Y64339426D01*
X34003996Y64349871D01*
X34003824Y64349999D01*
X33971995Y64376599D01*
X33903279Y64385230D01*
X33840649Y64355266D01*
X33828024Y64340697D01*
X33827625Y64340344D01*
X33826252Y64339426D01*
X33824256Y64339295D01*
X33823140Y64341089D01*
X33823140Y65783111D01*
X33824140Y65784843D01*
X33826251Y65784774D01*
X33841884Y65774329D01*
X33842056Y65774201D01*
X33873885Y65747601D01*
X33942601Y65738970D01*
X34005231Y65768934D01*
X34017856Y65783503D01*
X34018255Y65783856D01*
X34019628Y65784774D01*
X34021624Y65784905D01*
X34022740Y65783111D01*
G37*
G36*
X34523140Y65783111D02*
G01*
X34523140Y64341089D01*
X34522140Y64339357D01*
X34520029Y64339426D01*
X34504396Y64349871D01*
X34504224Y64349999D01*
X34472395Y64376599D01*
X34403679Y64385230D01*
X34341049Y64355266D01*
X34328424Y64340697D01*
X34328025Y64340344D01*
X34326652Y64339426D01*
X34324656Y64339295D01*
X34323540Y64341089D01*
X34323540Y65783111D01*
X34324540Y65784843D01*
X34326651Y65784774D01*
X34342284Y65774329D01*
X34342456Y65774201D01*
X34374285Y65747601D01*
X34443001Y65738970D01*
X34505631Y65768934D01*
X34518256Y65783503D01*
X34518655Y65783856D01*
X34520028Y65784774D01*
X34522024Y65784905D01*
X34523140Y65783111D01*
G37*
G36*
X32521640Y65783111D02*
G01*
X32521640Y64341089D01*
X32520640Y64339357D01*
X32518529Y64339426D01*
X32502896Y64349871D01*
X32502724Y64349999D01*
X32470895Y64376599D01*
X32402179Y64385230D01*
X32339549Y64355266D01*
X32326924Y64340697D01*
X32326525Y64340344D01*
X32325152Y64339426D01*
X32323156Y64339295D01*
X32322040Y64341089D01*
X32322040Y65783111D01*
X32323040Y65784843D01*
X32325151Y65784774D01*
X32340784Y65774329D01*
X32340956Y65774201D01*
X32372785Y65747601D01*
X32441501Y65738970D01*
X32504131Y65768934D01*
X32516756Y65783503D01*
X32517155Y65783856D01*
X32518528Y65784774D01*
X32520524Y65784905D01*
X32521640Y65783111D01*
G37*
G36*
X33522340Y65783111D02*
G01*
X33522340Y64341089D01*
X33521340Y64339357D01*
X33519229Y64339426D01*
X33503403Y64350000D01*
X33503231Y64350128D01*
X33471648Y64376524D01*
X33402932Y64385157D01*
X33340301Y64355194D01*
X33327759Y64340720D01*
X33327359Y64340367D01*
X33325951Y64339426D01*
X33323956Y64339295D01*
X33322840Y64341089D01*
X33322840Y65783111D01*
X33323840Y65784843D01*
X33325951Y65784774D01*
X33341777Y65774200D01*
X33341949Y65774072D01*
X33373532Y65747676D01*
X33442248Y65739043D01*
X33504879Y65769006D01*
X33517421Y65783480D01*
X33517821Y65783833D01*
X33519229Y65784774D01*
X33521224Y65784905D01*
X33522340Y65783111D01*
G37*
G36*
X29018940Y65783111D02*
G01*
X29018940Y64341089D01*
X29017940Y64339357D01*
X29015829Y64339426D01*
X29000196Y64349871D01*
X29000024Y64349999D01*
X28968195Y64376599D01*
X28899479Y64385230D01*
X28836849Y64355266D01*
X28824224Y64340697D01*
X28823825Y64340344D01*
X28822452Y64339426D01*
X28820456Y64339295D01*
X28819340Y64341089D01*
X28819340Y65783111D01*
X28820340Y65784843D01*
X28822451Y65784774D01*
X28838084Y65774329D01*
X28838256Y65774201D01*
X28870085Y65747601D01*
X28938801Y65738970D01*
X29001431Y65768934D01*
X29014056Y65783503D01*
X29014455Y65783856D01*
X29015828Y65784774D01*
X29017824Y65784905D01*
X29018940Y65783111D01*
G37*
G36*
X32021240Y65783111D02*
G01*
X32021240Y64341089D01*
X32020240Y64339357D01*
X32018129Y64339426D01*
X32002496Y64349871D01*
X32002324Y64349999D01*
X31970495Y64376599D01*
X31901779Y64385230D01*
X31839149Y64355266D01*
X31826524Y64340697D01*
X31826125Y64340344D01*
X31824752Y64339426D01*
X31822756Y64339295D01*
X31821640Y64341089D01*
X31821640Y65783111D01*
X31822640Y65784843D01*
X31824751Y65784774D01*
X31840384Y65774329D01*
X31840556Y65774201D01*
X31872385Y65747601D01*
X31941101Y65738970D01*
X32003731Y65768934D01*
X32016356Y65783503D01*
X32016755Y65783856D01*
X32018128Y65784774D01*
X32020124Y65784905D01*
X32021240Y65783111D01*
G37*
G36*
X74200440Y65783111D02*
G01*
X74200440Y64341089D01*
X74199440Y64339357D01*
X74197329Y64339426D01*
X74181503Y64350000D01*
X74181331Y64350128D01*
X74149748Y64376524D01*
X74081032Y64385157D01*
X74018401Y64355194D01*
X74005859Y64340720D01*
X74005459Y64340367D01*
X74004051Y64339426D01*
X74002056Y64339295D01*
X74000940Y64341089D01*
X74000940Y65783111D01*
X74001940Y65784843D01*
X74004051Y65784774D01*
X74019877Y65774200D01*
X74020049Y65774072D01*
X74051632Y65747676D01*
X74120348Y65739043D01*
X74182979Y65769006D01*
X74195521Y65783480D01*
X74195921Y65783833D01*
X74197329Y65784774D01*
X74199324Y65784905D01*
X74200440Y65783111D01*
G37*
G36*
X35023540Y65783111D02*
G01*
X35023540Y64341089D01*
X35022540Y64339357D01*
X35020429Y64339426D01*
X35004796Y64349871D01*
X35004624Y64349999D01*
X34972795Y64376599D01*
X34904079Y64385230D01*
X34841449Y64355266D01*
X34828824Y64340697D01*
X34828425Y64340344D01*
X34827052Y64339426D01*
X34825056Y64339295D01*
X34823940Y64341089D01*
X34823940Y65783111D01*
X34824940Y65784843D01*
X34827051Y65784774D01*
X34842684Y65774329D01*
X34842856Y65774201D01*
X34874685Y65747601D01*
X34943401Y65738970D01*
X35006031Y65768934D01*
X35018656Y65783503D01*
X35019055Y65783856D01*
X35020428Y65784774D01*
X35022424Y65784905D01*
X35023540Y65783111D01*
G37*
G36*
X31520840Y65783111D02*
G01*
X31520840Y64341089D01*
X31519840Y64339357D01*
X31517729Y64339426D01*
X31502096Y64349871D01*
X31501924Y64349999D01*
X31470095Y64376599D01*
X31401379Y64385230D01*
X31338749Y64355266D01*
X31326124Y64340697D01*
X31325725Y64340344D01*
X31324352Y64339426D01*
X31322356Y64339295D01*
X31321240Y64341089D01*
X31321240Y65783111D01*
X31322240Y65784843D01*
X31324351Y65784774D01*
X31339984Y65774329D01*
X31340156Y65774201D01*
X31371985Y65747601D01*
X31440701Y65738970D01*
X31503331Y65768934D01*
X31515956Y65783503D01*
X31516355Y65783856D01*
X31517728Y65784774D01*
X31519724Y65784905D01*
X31520840Y65783111D01*
G37*
G36*
X38526140Y65783111D02*
G01*
X38526140Y64341089D01*
X38525140Y64339357D01*
X38523029Y64339426D01*
X38507203Y64350000D01*
X38507031Y64350128D01*
X38475448Y64376524D01*
X38406732Y64385157D01*
X38344101Y64355194D01*
X38331559Y64340720D01*
X38331159Y64340367D01*
X38329751Y64339426D01*
X38327756Y64339295D01*
X38326640Y64341089D01*
X38326640Y65783111D01*
X38327640Y65784843D01*
X38329751Y65784774D01*
X38345577Y65774200D01*
X38345749Y65774072D01*
X38377332Y65747676D01*
X38446048Y65739043D01*
X38508679Y65769006D01*
X38521221Y65783480D01*
X38521621Y65783833D01*
X38523029Y65784774D01*
X38525024Y65784905D01*
X38526140Y65783111D01*
G37*
G36*
X31020440Y65783111D02*
G01*
X31020440Y64341089D01*
X31019440Y64339357D01*
X31017329Y64339426D01*
X31001503Y64350000D01*
X31001331Y64350128D01*
X30969748Y64376524D01*
X30901032Y64385157D01*
X30838401Y64355194D01*
X30825859Y64340720D01*
X30825459Y64340367D01*
X30824051Y64339426D01*
X30822056Y64339295D01*
X30820940Y64341089D01*
X30820940Y65783111D01*
X30821940Y65784843D01*
X30824051Y65784774D01*
X30839877Y65774200D01*
X30840049Y65774072D01*
X30871632Y65747676D01*
X30940348Y65739043D01*
X31002979Y65769006D01*
X31015521Y65783480D01*
X31015921Y65783833D01*
X31017329Y65784774D01*
X31019324Y65784905D01*
X31020440Y65783111D01*
G37*
G36*
X33022040Y65783111D02*
G01*
X33022040Y64341089D01*
X33021040Y64339357D01*
X33018929Y64339426D01*
X33003296Y64349871D01*
X33003124Y64349999D01*
X32971295Y64376599D01*
X32902579Y64385230D01*
X32839949Y64355266D01*
X32827324Y64340697D01*
X32826925Y64340344D01*
X32825552Y64339426D01*
X32823556Y64339295D01*
X32822440Y64341089D01*
X32822440Y65783111D01*
X32823440Y65784843D01*
X32825551Y65784774D01*
X32841184Y65774329D01*
X32841356Y65774201D01*
X32873185Y65747601D01*
X32941901Y65738970D01*
X33004531Y65768934D01*
X33017156Y65783503D01*
X33017555Y65783856D01*
X33018928Y65784774D01*
X33020924Y65784905D01*
X33022040Y65783111D01*
G37*
G36*
X75701640Y65783111D02*
G01*
X75701640Y64341089D01*
X75700640Y64339357D01*
X75698529Y64339426D01*
X75682896Y64349871D01*
X75682724Y64349999D01*
X75650895Y64376599D01*
X75582179Y64385230D01*
X75519549Y64355266D01*
X75506924Y64340697D01*
X75506525Y64340344D01*
X75505152Y64339426D01*
X75503156Y64339295D01*
X75502040Y64341089D01*
X75502040Y65783111D01*
X75503040Y65784843D01*
X75505151Y65784774D01*
X75520784Y65774329D01*
X75520956Y65774201D01*
X75552785Y65747601D01*
X75621501Y65738970D01*
X75684131Y65768934D01*
X75696756Y65783503D01*
X75697155Y65783856D01*
X75698528Y65784774D01*
X75700524Y65784905D01*
X75701640Y65783111D01*
G37*
G36*
X66282773Y81997356D02*
G01*
X66283500Y81995814D01*
X66283500Y81338199D01*
X66302415Y81243108D01*
X66341958Y81183927D01*
X66342089Y81181931D01*
X66340426Y81180820D01*
X66338882Y81181401D01*
X66318866Y81201382D01*
X66257788Y81234665D01*
X66188710Y81229663D01*
X66133112Y81187967D01*
X66125213Y81175980D01*
X66114926Y81158163D01*
X66113194Y81157163D01*
X66111462Y81158163D01*
X66111324Y81159873D01*
X66163702Y81297760D01*
X66187700Y81468511D01*
X66187998Y81489895D01*
X66168778Y81661250D01*
X66112104Y81823993D01*
X66031046Y81953713D01*
X66030976Y81955712D01*
X66032672Y81956772D01*
X66034228Y81956111D01*
X66042918Y81946460D01*
X66043164Y81946122D01*
X66049838Y81934563D01*
X66100177Y81886563D01*
X66168185Y81873456D01*
X66232482Y81899197D01*
X66272729Y81955716D01*
X66279528Y81996146D01*
X66280801Y81997688D01*
X66282773Y81997356D01*
G37*
G36*
X80892686Y81836748D02*
G01*
X80893046Y81834939D01*
X80864880Y81737990D01*
X80859000Y81657922D01*
X80859000Y81458132D01*
X80879205Y81310637D01*
X80887158Y81292259D01*
X80886929Y81290273D01*
X80885093Y81289478D01*
X80883727Y81290260D01*
X80845386Y81341023D01*
X80780389Y81364948D01*
X80712779Y81349936D01*
X80663850Y81300587D01*
X80657525Y81286925D01*
X80654738Y81279777D01*
X80653178Y81278526D01*
X80651314Y81279252D01*
X80650954Y81281061D01*
X80679120Y81378010D01*
X80685000Y81458078D01*
X80685000Y81657868D01*
X80664795Y81805363D01*
X80656842Y81823741D01*
X80657071Y81825727D01*
X80658907Y81826522D01*
X80660273Y81825740D01*
X80698614Y81774977D01*
X80763611Y81751052D01*
X80831221Y81766064D01*
X80880150Y81815413D01*
X80886475Y81829075D01*
X80889262Y81836223D01*
X80890822Y81837474D01*
X80892686Y81836748D01*
G37*
G36*
X77082686Y81836748D02*
G01*
X77083046Y81834939D01*
X77054880Y81737990D01*
X77049000Y81657922D01*
X77049000Y81458132D01*
X77069205Y81310637D01*
X77077158Y81292259D01*
X77076929Y81290273D01*
X77075093Y81289478D01*
X77073727Y81290260D01*
X77035386Y81341023D01*
X76970389Y81364948D01*
X76902779Y81349936D01*
X76853850Y81300587D01*
X76847525Y81286925D01*
X76844738Y81279777D01*
X76843178Y81278526D01*
X76841314Y81279252D01*
X76840954Y81281061D01*
X76869120Y81378010D01*
X76875000Y81458078D01*
X76875000Y81657868D01*
X76854795Y81805363D01*
X76846842Y81823741D01*
X76847071Y81825727D01*
X76848907Y81826522D01*
X76850273Y81825740D01*
X76888614Y81774977D01*
X76953611Y81751052D01*
X77021221Y81766064D01*
X77070150Y81815413D01*
X77076475Y81829075D01*
X77079262Y81836223D01*
X77080822Y81837474D01*
X77082686Y81836748D01*
G37*
G36*
X3381168Y85293089D02*
G01*
X3381471Y85291582D01*
X3366000Y85213801D01*
X3366000Y84514199D01*
X3384915Y84419108D01*
X3424458Y84359927D01*
X3424589Y84357931D01*
X3422926Y84356820D01*
X3421382Y84357401D01*
X3397400Y84381341D01*
X3397150Y84381091D01*
X3395219Y84380572D01*
X3394261Y84381152D01*
X3368568Y84409178D01*
X3301595Y84426822D01*
X3235522Y84405395D01*
X3217920Y84390785D01*
X3207748Y84380595D01*
X3205817Y84380076D01*
X3204402Y84381489D01*
X3204670Y84383119D01*
X3244085Y84442108D01*
X3263000Y84537199D01*
X3263000Y85036801D01*
X3244085Y85131892D01*
X3190335Y85212335D01*
X3138165Y85247194D01*
X3137280Y85248988D01*
X3138391Y85250651D01*
X3140154Y85250654D01*
X3160057Y85240925D01*
X3160592Y85240543D01*
X3167444Y85233703D01*
X3228522Y85200420D01*
X3297600Y85205422D01*
X3353040Y85246999D01*
X3361968Y85268528D01*
X3363555Y85269745D01*
X3364693Y85269559D01*
X3366012Y85268914D01*
X3377712Y85292850D01*
X3379371Y85293967D01*
X3381168Y85293089D01*
G37*
G36*
X3365587Y87212816D02*
G01*
X3366000Y87211599D01*
X3366000Y86514199D01*
X3384915Y86419108D01*
X3427913Y86354757D01*
X3428044Y86352761D01*
X3426381Y86351650D01*
X3425293Y86351890D01*
X3367762Y86383239D01*
X3298684Y86378237D01*
X3247003Y86339479D01*
X3245017Y86339240D01*
X3243817Y86340840D01*
X3244026Y86341715D01*
X3244008Y86341719D01*
X3263000Y86437199D01*
X3263000Y86936801D01*
X3244085Y87031892D01*
X3190335Y87112335D01*
X3138166Y87147193D01*
X3137281Y87148987D01*
X3138392Y87150650D01*
X3140155Y87150653D01*
X3177292Y87132500D01*
X3178320Y87133192D01*
X3179415Y87132953D01*
X3215790Y87113132D01*
X3284867Y87118135D01*
X3340307Y87159712D01*
X3362153Y87212365D01*
X3363740Y87213582D01*
X3365587Y87212816D01*
G37*
M02*
