%TF.GenerationSoftware,KiCad,Pcbnew,6.0.4-6f826c9f35~116~ubuntu20.04.1*%
%TF.CreationDate,2022-05-15T17:07:28+00:00*%
%TF.ProjectId,MPPB01B,4d505042-3031-4422-9e6b-696361645f70,**%
%TF.SameCoordinates,Original*%
%TF.FileFunction,Paste,Bot*%
%TF.FilePolarity,Positive*%
%FSLAX46Y46*%
G04 Gerber Fmt 4.6, Leading zero omitted, Abs format (unit mm)*
G04 Created by KiCad (PCBNEW 6.0.4-6f826c9f35~116~ubuntu20.04.1) date 2022-05-15 17:07:28*
%MOMM*%
%LPD*%
G01*
G04 APERTURE LIST*
G04 Aperture macros list*
%AMRoundRect*
0 Rectangle with rounded corners*
0 $1 Rounding radius*
0 $2 $3 $4 $5 $6 $7 $8 $9 X,Y pos of 4 corners*
0 Add a 4 corners polygon primitive as box body*
4,1,4,$2,$3,$4,$5,$6,$7,$8,$9,$2,$3,0*
0 Add four circle primitives for the rounded corners*
1,1,$1+$1,$2,$3*
1,1,$1+$1,$4,$5*
1,1,$1+$1,$6,$7*
1,1,$1+$1,$8,$9*
0 Add four rect primitives between the rounded corners*
20,1,$1+$1,$2,$3,$4,$5,0*
20,1,$1+$1,$4,$5,$6,$7,0*
20,1,$1+$1,$6,$7,$8,$9,0*
20,1,$1+$1,$8,$9,$2,$3,0*%
G04 Aperture macros list end*
%ADD10R,0.304800X1.447800*%
%ADD11O,0.350000X1.800000*%
%ADD12RoundRect,0.250000X0.475000X-0.250000X0.475000X0.250000X-0.475000X0.250000X-0.475000X-0.250000X0*%
%ADD13RoundRect,0.250000X-1.100000X0.325000X-1.100000X-0.325000X1.100000X-0.325000X1.100000X0.325000X0*%
%ADD14R,1.800000X2.500000*%
%ADD15RoundRect,0.250000X0.250000X0.475000X-0.250000X0.475000X-0.250000X-0.475000X0.250000X-0.475000X0*%
%ADD16RoundRect,0.250000X-0.475000X0.250000X-0.475000X-0.250000X0.475000X-0.250000X0.475000X0.250000X0*%
%ADD17RoundRect,0.250000X0.350000X0.450000X-0.350000X0.450000X-0.350000X-0.450000X0.350000X-0.450000X0*%
%ADD18RoundRect,0.250000X-0.450000X0.350000X-0.450000X-0.350000X0.450000X-0.350000X0.450000X0.350000X0*%
G04 APERTURE END LIST*
D10*
%TO.C,P1*%
X42179240Y65062100D03*
X42179240Y58889900D03*
X41678840Y65062100D03*
X41678840Y58889900D03*
X41178440Y65062100D03*
X41178440Y58889900D03*
X40678140Y65062100D03*
X40678140Y58889900D03*
X40177740Y65062100D03*
X40177740Y58889900D03*
X39677340Y65062100D03*
X39677340Y58889900D03*
X39176940Y65062100D03*
X39176940Y58889900D03*
X38676540Y65062100D03*
X38676540Y58889900D03*
X38176240Y65062100D03*
X38176240Y58889900D03*
X37675840Y65062100D03*
X37675840Y58889900D03*
X37175440Y65062100D03*
X37175440Y58889900D03*
X36675040Y65062100D03*
X36675040Y58889900D03*
X36174640Y65062100D03*
X36174640Y58889900D03*
X35674340Y65062100D03*
X35674340Y58889900D03*
X35173940Y65062100D03*
X35173940Y58889900D03*
X34673540Y65062100D03*
X34673540Y58889900D03*
X34173140Y65062100D03*
X34173140Y58889900D03*
X33672740Y65062100D03*
X33672740Y58889900D03*
X33172440Y65062100D03*
X33172440Y58889900D03*
X32672040Y65062100D03*
X32672040Y58889900D03*
X32171640Y65062100D03*
X32171640Y58889900D03*
X31671240Y65062100D03*
X31671240Y58889900D03*
X31170840Y65062100D03*
X31170840Y58889900D03*
X30670540Y65062100D03*
X30670540Y58889900D03*
X30170140Y65062100D03*
X30170140Y58889900D03*
X29669740Y65062100D03*
X29669740Y58889900D03*
X29169340Y65062100D03*
X29169340Y58889900D03*
X28668940Y65062100D03*
X28668940Y58889900D03*
X28168640Y65062100D03*
X28168640Y58889900D03*
X27668240Y65062100D03*
X27668240Y58889900D03*
%TD*%
%TO.C,P2*%
X85359240Y65062100D03*
X85359240Y58889900D03*
X84858840Y65062100D03*
X84858840Y58889900D03*
X84358440Y65062100D03*
X84358440Y58889900D03*
X83858140Y65062100D03*
X83858140Y58889900D03*
X83357740Y65062100D03*
X83357740Y58889900D03*
X82857340Y65062100D03*
X82857340Y58889900D03*
X82356940Y65062100D03*
X82356940Y58889900D03*
X81856540Y65062100D03*
X81856540Y58889900D03*
X81356240Y65062100D03*
X81356240Y58889900D03*
X80855840Y65062100D03*
X80855840Y58889900D03*
X80355440Y65062100D03*
X80355440Y58889900D03*
X79855040Y65062100D03*
X79855040Y58889900D03*
X79354640Y65062100D03*
X79354640Y58889900D03*
X78854340Y65062100D03*
X78854340Y58889900D03*
X78353940Y65062100D03*
X78353940Y58889900D03*
X77853540Y65062100D03*
X77853540Y58889900D03*
X77353140Y65062100D03*
X77353140Y58889900D03*
X76852740Y65062100D03*
X76852740Y58889900D03*
X76352440Y65062100D03*
X76352440Y58889900D03*
X75852040Y65062100D03*
X75852040Y58889900D03*
X75351640Y65062100D03*
X75351640Y58889900D03*
X74851240Y65062100D03*
X74851240Y58889900D03*
X74350840Y65062100D03*
X74350840Y58889900D03*
X73850540Y65062100D03*
X73850540Y58889900D03*
X73350140Y65062100D03*
X73350140Y58889900D03*
X72849740Y65062100D03*
X72849740Y58889900D03*
X72349340Y65062100D03*
X72349340Y58889900D03*
X71848940Y65062100D03*
X71848940Y58889900D03*
X71348640Y65062100D03*
X71348640Y58889900D03*
X70848240Y65062100D03*
X70848240Y58889900D03*
%TD*%
%TO.C,P3*%
X42179240Y19850100D03*
X42179240Y13677900D03*
X41678840Y19850100D03*
X41678840Y13677900D03*
X41178440Y19850100D03*
X41178440Y13677900D03*
X40678140Y19850100D03*
X40678140Y13677900D03*
X40177740Y19850100D03*
X40177740Y13677900D03*
X39677340Y19850100D03*
X39677340Y13677900D03*
X39176940Y19850100D03*
X39176940Y13677900D03*
X38676540Y19850100D03*
X38676540Y13677900D03*
X38176240Y19850100D03*
X38176240Y13677900D03*
X37675840Y19850100D03*
X37675840Y13677900D03*
X37175440Y19850100D03*
X37175440Y13677900D03*
X36675040Y19850100D03*
X36675040Y13677900D03*
X36174640Y19850100D03*
X36174640Y13677900D03*
X35674340Y19850100D03*
X35674340Y13677900D03*
X35173940Y19850100D03*
X35173940Y13677900D03*
X34673540Y19850100D03*
X34673540Y13677900D03*
X34173140Y19850100D03*
X34173140Y13677900D03*
X33672740Y19850100D03*
X33672740Y13677900D03*
X33172440Y19850100D03*
X33172440Y13677900D03*
X32672040Y19850100D03*
X32672040Y13677900D03*
X32171640Y19850100D03*
X32171640Y13677900D03*
X31671240Y19850100D03*
X31671240Y13677900D03*
X31170840Y19850100D03*
X31170840Y13677900D03*
X30670540Y19850100D03*
X30670540Y13677900D03*
X30170140Y19850100D03*
X30170140Y13677900D03*
X29669740Y19850100D03*
X29669740Y13677900D03*
X29169340Y19850100D03*
X29169340Y13677900D03*
X28668940Y19850100D03*
X28668940Y13677900D03*
X28168640Y19850100D03*
X28168640Y13677900D03*
X27668240Y19850100D03*
X27668240Y13677900D03*
%TD*%
%TO.C,P4*%
X85359240Y19850100D03*
X85359240Y13677900D03*
X84858840Y19850100D03*
X84858840Y13677900D03*
X84358440Y19850100D03*
X84358440Y13677900D03*
X83858140Y19850100D03*
X83858140Y13677900D03*
X83357740Y19850100D03*
X83357740Y13677900D03*
X82857340Y19850100D03*
X82857340Y13677900D03*
X82356940Y19850100D03*
X82356940Y13677900D03*
X81856540Y19850100D03*
X81856540Y13677900D03*
X81356240Y19850100D03*
X81356240Y13677900D03*
X80855840Y19850100D03*
X80855840Y13677900D03*
X80355440Y19850100D03*
X80355440Y13677900D03*
X79855040Y19850100D03*
X79855040Y13677900D03*
X79354640Y19850100D03*
X79354640Y13677900D03*
X78854340Y19850100D03*
X78854340Y13677900D03*
X78353940Y19850100D03*
X78353940Y13677900D03*
X77853540Y19850100D03*
X77853540Y13677900D03*
X77353140Y19850100D03*
X77353140Y13677900D03*
X76852740Y19850100D03*
X76852740Y13677900D03*
X76352440Y19850100D03*
X76352440Y13677900D03*
X75852040Y19850100D03*
X75852040Y13677900D03*
X75351640Y19850100D03*
X75351640Y13677900D03*
X74851240Y19850100D03*
X74851240Y13677900D03*
X74350840Y19850100D03*
X74350840Y13677900D03*
X73850540Y19850100D03*
X73850540Y13677900D03*
X73350140Y19850100D03*
X73350140Y13677900D03*
X72849740Y19850100D03*
X72849740Y13677900D03*
X72349340Y19850100D03*
X72349340Y13677900D03*
X71848940Y19850100D03*
X71848940Y13677900D03*
X71348640Y19850100D03*
X71348640Y13677900D03*
X70848240Y19850100D03*
X70848240Y13677900D03*
%TD*%
D11*
%TO.C,P5*%
X49915000Y80369995D03*
X50715000Y80369995D03*
X51515000Y80369995D03*
X52315000Y80369995D03*
X53115000Y80369995D03*
X53915000Y80369995D03*
X54715000Y80369995D03*
X55515000Y80369995D03*
X56315000Y80369995D03*
X57115000Y80369995D03*
X57915000Y80369995D03*
X58715000Y80369995D03*
X59515000Y80369995D03*
X60315000Y80369995D03*
X61115000Y80369995D03*
X61915000Y80369995D03*
X62715000Y80369995D03*
X63515000Y80369995D03*
X49515000Y74559995D03*
X50315000Y74559995D03*
X51115000Y74559995D03*
X51915000Y74559995D03*
X52715000Y74559995D03*
X53515000Y74559995D03*
X54315000Y74559995D03*
X55115000Y74559995D03*
X55915000Y74559995D03*
X56715000Y74559995D03*
X57515000Y74559995D03*
X58315000Y74559995D03*
X59115000Y74559995D03*
X59915000Y74559995D03*
X60715000Y74559995D03*
X61515000Y74559995D03*
X62315000Y74559995D03*
X63115000Y74559995D03*
%TD*%
%TO.C,P6*%
X5465000Y80369995D03*
X6265000Y80369995D03*
X7065000Y80369995D03*
X7865000Y80369995D03*
X8665000Y80369995D03*
X9465000Y80369995D03*
X10265000Y80369995D03*
X11065000Y80369995D03*
X11865000Y80369995D03*
X12665000Y80369995D03*
X13465000Y80369995D03*
X14265000Y80369995D03*
X15065000Y80369995D03*
X15865000Y80369995D03*
X16665000Y80369995D03*
X17465000Y80369995D03*
X18265000Y80369995D03*
X19065000Y80369995D03*
X5065000Y74559995D03*
X5865000Y74559995D03*
X6665000Y74559995D03*
X7465000Y74559995D03*
X8265000Y74559995D03*
X9065000Y74559995D03*
X9865000Y74559995D03*
X10665000Y74559995D03*
X11465000Y74559995D03*
X12265000Y74559995D03*
X13065000Y74559995D03*
X13865000Y74559995D03*
X14665000Y74559995D03*
X15465000Y74559995D03*
X16265000Y74559995D03*
X17065000Y74559995D03*
X17865000Y74559995D03*
X18665000Y74559995D03*
%TD*%
D12*
%TO.C,C1*%
X89220000Y8290000D03*
X89220000Y10190000D03*
%TD*%
D13*
%TO.C,C2*%
X89220000Y6415000D03*
X89220000Y3465000D03*
%TD*%
D14*
%TO.C,D1*%
X85320000Y8290000D03*
X85320000Y4290000D03*
%TD*%
D15*
%TO.C,C3*%
X68850000Y80100000D03*
X66950000Y80100000D03*
%TD*%
D16*
%TO.C,C4*%
X2540000Y86687000D03*
X2540000Y84787000D03*
%TD*%
D17*
%TO.C,R1*%
X68881500Y81788000D03*
X66881500Y81788000D03*
%TD*%
D18*
%TO.C,R2*%
X4064000Y86864000D03*
X4064000Y84864000D03*
%TD*%
D17*
%TO.C,R3*%
X38570000Y9290000D03*
X36570000Y9290000D03*
%TD*%
M02*
