%TF.GenerationSoftware,KiCad,Pcbnew,6.0.4-6f826c9f35~116~ubuntu20.04.1*%
%TF.CreationDate,2022-05-15T17:07:28+00:00*%
%TF.ProjectId,MPPB01B,4d505042-3031-4422-9e6b-696361645f70,**%
%TF.SameCoordinates,Original*%
%TF.FileFunction,Legend,Bot*%
%TF.FilePolarity,Positive*%
%FSLAX46Y46*%
G04 Gerber Fmt 4.6, Leading zero omitted, Abs format (unit mm)*
G04 Created by KiCad (PCBNEW 6.0.4-6f826c9f35~116~ubuntu20.04.1) date 2022-05-15 17:07:28*
%MOMM*%
%LPD*%
G01*
G04 APERTURE LIST*
%ADD10C,0.150000*%
%ADD11C,0.100000*%
%ADD12C,0.300000*%
%ADD13C,0.200000*%
%ADD14C,0.050000*%
%ADD15C,0.222250*%
%ADD16C,0.203200*%
%ADD17C,0.120000*%
%ADD18C,0.127000*%
%ADD19R,1.676400X1.676400*%
G04 APERTURE END LIST*
D10*
X71170000Y7590000D02*
X58470000Y7590000D01*
X58470000Y7590000D02*
X58470000Y2490000D01*
X58470000Y2490000D02*
X71170000Y2490000D01*
X71170000Y2490000D02*
X71170000Y7590000D01*
G36*
X49120000Y5340000D02*
G01*
X48120000Y6340000D01*
X49120000Y7340000D01*
X49120000Y5340000D01*
G37*
X49120000Y5340000D02*
X48120000Y6340000D01*
X49120000Y7340000D01*
X49120000Y5340000D01*
X35320000Y91040000D02*
X35320000Y71540000D01*
D11*
X99695000Y12065000D02*
X13335000Y12065000D01*
D10*
X47720000Y7590000D02*
X14720000Y7590000D01*
X14720000Y7590000D02*
X14720000Y2490000D01*
X14720000Y2490000D02*
X47720000Y2490000D01*
X47720000Y2490000D02*
X47720000Y7590000D01*
X43820000Y91040000D02*
X26820000Y91040000D01*
D11*
X13335000Y12065000D02*
X13335000Y66675000D01*
X99695000Y66675000D02*
X99695000Y12065000D01*
X13335000Y66675000D02*
X99695000Y66675000D01*
D12*
X80791428Y54566429D02*
X80791428Y56066429D01*
X79934285Y54566429D01*
X79934285Y56066429D01*
X78934285Y56066429D02*
X78648571Y56066429D01*
X78505714Y55995000D01*
X78362857Y55852143D01*
X78291428Y55566429D01*
X78291428Y55066429D01*
X78362857Y54780715D01*
X78505714Y54637858D01*
X78648571Y54566429D01*
X78934285Y54566429D01*
X79077142Y54637858D01*
X79220000Y54780715D01*
X79291428Y55066429D01*
X79291428Y55566429D01*
X79220000Y55852143D01*
X79077142Y55995000D01*
X78934285Y56066429D01*
X76791428Y54566429D02*
X77291428Y55280715D01*
X77648571Y54566429D02*
X77648571Y56066429D01*
X77077142Y56066429D01*
X76934285Y55995000D01*
X76862857Y55923572D01*
X76791428Y55780715D01*
X76791428Y55566429D01*
X76862857Y55423572D01*
X76934285Y55352143D01*
X77077142Y55280715D01*
X77648571Y55280715D01*
X76362857Y56066429D02*
X75505714Y56066429D01*
X75934285Y54566429D02*
X75934285Y56066429D01*
X75005714Y54566429D02*
X75005714Y56066429D01*
X75005714Y55352143D02*
X74148571Y55352143D01*
X74148571Y54566429D02*
X74148571Y56066429D01*
X81589142Y22887858D02*
X81374857Y22816429D01*
X81017714Y22816429D01*
X80874857Y22887858D01*
X80803428Y22959286D01*
X80732000Y23102143D01*
X80732000Y23245000D01*
X80803428Y23387858D01*
X80874857Y23459286D01*
X81017714Y23530715D01*
X81303428Y23602143D01*
X81446285Y23673572D01*
X81517714Y23745000D01*
X81589142Y23887858D01*
X81589142Y24030715D01*
X81517714Y24173572D01*
X81446285Y24245000D01*
X81303428Y24316429D01*
X80946285Y24316429D01*
X80732000Y24245000D01*
X79803428Y24316429D02*
X79517714Y24316429D01*
X79374857Y24245000D01*
X79232000Y24102143D01*
X79160571Y23816429D01*
X79160571Y23316429D01*
X79232000Y23030715D01*
X79374857Y22887858D01*
X79517714Y22816429D01*
X79803428Y22816429D01*
X79946285Y22887858D01*
X80089142Y23030715D01*
X80160571Y23316429D01*
X80160571Y23816429D01*
X80089142Y24102143D01*
X79946285Y24245000D01*
X79803428Y24316429D01*
X78517714Y24316429D02*
X78517714Y23102143D01*
X78446285Y22959286D01*
X78374857Y22887858D01*
X78232000Y22816429D01*
X77946285Y22816429D01*
X77803428Y22887858D01*
X77732000Y22959286D01*
X77660571Y23102143D01*
X77660571Y24316429D01*
X77160571Y24316429D02*
X76303428Y24316429D01*
X76732000Y22816429D02*
X76732000Y24316429D01*
X75803428Y22816429D02*
X75803428Y24316429D01*
X75803428Y23602143D02*
X74946285Y23602143D01*
X74946285Y22816429D02*
X74946285Y24316429D01*
X39024285Y22816429D02*
X39024285Y24316429D01*
X38452857Y24316429D01*
X38310000Y24245000D01*
X38238571Y24173572D01*
X38167142Y24030715D01*
X38167142Y23816429D01*
X38238571Y23673572D01*
X38310000Y23602143D01*
X38452857Y23530715D01*
X39024285Y23530715D01*
X37238571Y24316429D02*
X36952857Y24316429D01*
X36810000Y24245000D01*
X36667142Y24102143D01*
X36595714Y23816429D01*
X36595714Y23316429D01*
X36667142Y23030715D01*
X36810000Y22887858D01*
X36952857Y22816429D01*
X37238571Y22816429D01*
X37381428Y22887858D01*
X37524285Y23030715D01*
X37595714Y23316429D01*
X37595714Y23816429D01*
X37524285Y24102143D01*
X37381428Y24245000D01*
X37238571Y24316429D01*
X36095714Y24316429D02*
X35738571Y22816429D01*
X35452857Y23887858D01*
X35167142Y22816429D01*
X34810000Y24316429D01*
X34238571Y23602143D02*
X33738571Y23602143D01*
X33524285Y22816429D02*
X34238571Y22816429D01*
X34238571Y24316429D01*
X33524285Y24316429D01*
X32024285Y22816429D02*
X32524285Y23530715D01*
X32881428Y22816429D02*
X32881428Y24316429D01*
X32310000Y24316429D01*
X32167142Y24245000D01*
X32095714Y24173572D01*
X32024285Y24030715D01*
X32024285Y23816429D01*
X32095714Y23673572D01*
X32167142Y23602143D01*
X32310000Y23530715D01*
X32881428Y23530715D01*
D13*
X17795714Y68000572D02*
X17033809Y68000572D01*
X17414761Y67619620D02*
X17414761Y68381524D01*
X16081428Y68619620D02*
X16557619Y68619620D01*
X16605238Y68143429D01*
X16557619Y68191048D01*
X16462380Y68238667D01*
X16224285Y68238667D01*
X16129047Y68191048D01*
X16081428Y68143429D01*
X16033809Y68048191D01*
X16033809Y67810096D01*
X16081428Y67714858D01*
X16129047Y67667239D01*
X16224285Y67619620D01*
X16462380Y67619620D01*
X16557619Y67667239D01*
X16605238Y67714858D01*
X15748095Y68619620D02*
X15414761Y67619620D01*
X15081428Y68619620D01*
D12*
X90146428Y95475715D02*
X90146428Y97275715D01*
X89546428Y95990000D01*
X88946428Y97275715D01*
X88946428Y95475715D01*
X88089285Y95475715D02*
X88089285Y97275715D01*
X87403571Y97275715D01*
X87232142Y97190000D01*
X87146428Y97104286D01*
X87060714Y96932858D01*
X87060714Y96675715D01*
X87146428Y96504286D01*
X87232142Y96418572D01*
X87403571Y96332858D01*
X88089285Y96332858D01*
X86289285Y95475715D02*
X86289285Y97275715D01*
X85603571Y97275715D01*
X85432142Y97190000D01*
X85346428Y97104286D01*
X85260714Y96932858D01*
X85260714Y96675715D01*
X85346428Y96504286D01*
X85432142Y96418572D01*
X85603571Y96332858D01*
X86289285Y96332858D01*
X83889285Y96418572D02*
X83632142Y96332858D01*
X83546428Y96247143D01*
X83460714Y96075715D01*
X83460714Y95818572D01*
X83546428Y95647143D01*
X83632142Y95561429D01*
X83803571Y95475715D01*
X84489285Y95475715D01*
X84489285Y97275715D01*
X83889285Y97275715D01*
X83717857Y97190000D01*
X83632142Y97104286D01*
X83546428Y96932858D01*
X83546428Y96761429D01*
X83632142Y96590000D01*
X83717857Y96504286D01*
X83889285Y96418572D01*
X84489285Y96418572D01*
X82346428Y97275715D02*
X82175000Y97275715D01*
X82003571Y97190000D01*
X81917857Y97104286D01*
X81832142Y96932858D01*
X81746428Y96590000D01*
X81746428Y96161429D01*
X81832142Y95818572D01*
X81917857Y95647143D01*
X82003571Y95561429D01*
X82175000Y95475715D01*
X82346428Y95475715D01*
X82517857Y95561429D01*
X82603571Y95647143D01*
X82689285Y95818572D01*
X82775000Y96161429D01*
X82775000Y96590000D01*
X82689285Y96932858D01*
X82603571Y97104286D01*
X82517857Y97190000D01*
X82346428Y97275715D01*
X80032142Y95475715D02*
X81060714Y95475715D01*
X80546428Y95475715D02*
X80546428Y97275715D01*
X80717857Y97018572D01*
X80889285Y96847143D01*
X81060714Y96761429D01*
X78660714Y96418572D02*
X78403571Y96332858D01*
X78317857Y96247143D01*
X78232142Y96075715D01*
X78232142Y95818572D01*
X78317857Y95647143D01*
X78403571Y95561429D01*
X78575000Y95475715D01*
X79260714Y95475715D01*
X79260714Y97275715D01*
X78660714Y97275715D01*
X78489285Y97190000D01*
X78403571Y97104286D01*
X78317857Y96932858D01*
X78317857Y96761429D01*
X78403571Y96590000D01*
X78489285Y96504286D01*
X78660714Y96418572D01*
X79260714Y96418572D01*
D13*
X9877142Y19882858D02*
X10177142Y20311429D01*
X10391428Y19882858D02*
X10391428Y20782858D01*
X10048571Y20782858D01*
X9962857Y20740000D01*
X9920000Y20697143D01*
X9877142Y20611429D01*
X9877142Y20482858D01*
X9920000Y20397143D01*
X9962857Y20354286D01*
X10048571Y20311429D01*
X10391428Y20311429D01*
X9491428Y20354286D02*
X9191428Y20354286D01*
X9062857Y19882858D02*
X9491428Y19882858D01*
X9491428Y20782858D01*
X9062857Y20782858D01*
X8720000Y19925715D02*
X8591428Y19882858D01*
X8377142Y19882858D01*
X8291428Y19925715D01*
X8248571Y19968572D01*
X8205714Y20054286D01*
X8205714Y20140000D01*
X8248571Y20225715D01*
X8291428Y20268572D01*
X8377142Y20311429D01*
X8548571Y20354286D01*
X8634285Y20397143D01*
X8677142Y20440000D01*
X8720000Y20525715D01*
X8720000Y20611429D01*
X8677142Y20697143D01*
X8634285Y20740000D01*
X8548571Y20782858D01*
X8334285Y20782858D01*
X8205714Y20740000D01*
X7820000Y20354286D02*
X7520000Y20354286D01*
X7391428Y19882858D02*
X7820000Y19882858D01*
X7820000Y20782858D01*
X7391428Y20782858D01*
X7134285Y20782858D02*
X6620000Y20782858D01*
X6877142Y19882858D02*
X6877142Y20782858D01*
D10*
X41229523Y2087620D02*
X41420000Y2087620D01*
X41515238Y2040000D01*
X41562857Y1992381D01*
X41658095Y1849524D01*
X41705714Y1659048D01*
X41705714Y1278096D01*
X41658095Y1182858D01*
X41610476Y1135239D01*
X41515238Y1087620D01*
X41324761Y1087620D01*
X41229523Y1135239D01*
X41181904Y1182858D01*
X41134285Y1278096D01*
X41134285Y1516191D01*
X41181904Y1611429D01*
X41229523Y1659048D01*
X41324761Y1706667D01*
X41515238Y1706667D01*
X41610476Y1659048D01*
X41658095Y1611429D01*
X41705714Y1516191D01*
D12*
X66284285Y9611429D02*
X66284285Y11111429D01*
X65641428Y10968572D02*
X65570000Y11040000D01*
X65427142Y11111429D01*
X65070000Y11111429D01*
X64927142Y11040000D01*
X64855714Y10968572D01*
X64784285Y10825715D01*
X64784285Y10682858D01*
X64855714Y10468572D01*
X65712857Y9611429D01*
X64784285Y9611429D01*
X63284285Y9754286D02*
X63355714Y9682858D01*
X63570000Y9611429D01*
X63712857Y9611429D01*
X63927142Y9682858D01*
X64070000Y9825715D01*
X64141428Y9968572D01*
X64212857Y10254286D01*
X64212857Y10468572D01*
X64141428Y10754286D01*
X64070000Y10897143D01*
X63927142Y11040000D01*
X63712857Y11111429D01*
X63570000Y11111429D01*
X63355714Y11040000D01*
X63284285Y10968572D01*
D10*
X16781904Y2092381D02*
X16734285Y2140000D01*
X16639047Y2187620D01*
X16400952Y2187620D01*
X16305714Y2140000D01*
X16258095Y2092381D01*
X16210476Y1997143D01*
X16210476Y1901905D01*
X16258095Y1759048D01*
X16829523Y1187620D01*
X16210476Y1187620D01*
X15353333Y2187620D02*
X15543809Y2187620D01*
X15639047Y2140000D01*
X15686666Y2092381D01*
X15781904Y1949524D01*
X15829523Y1759048D01*
X15829523Y1378096D01*
X15781904Y1282858D01*
X15734285Y1235239D01*
X15639047Y1187620D01*
X15448571Y1187620D01*
X15353333Y1235239D01*
X15305714Y1282858D01*
X15258095Y1378096D01*
X15258095Y1616191D01*
X15305714Y1711429D01*
X15353333Y1759048D01*
X15448571Y1806667D01*
X15639047Y1806667D01*
X15734285Y1759048D01*
X15781904Y1711429D01*
X15829523Y1616191D01*
X21781904Y2192381D02*
X21734285Y2240000D01*
X21639047Y2287620D01*
X21400952Y2287620D01*
X21305714Y2240000D01*
X21258095Y2192381D01*
X21210476Y2097143D01*
X21210476Y2001905D01*
X21258095Y1859048D01*
X21829523Y1287620D01*
X21210476Y1287620D01*
X20829523Y2192381D02*
X20781904Y2240000D01*
X20686666Y2287620D01*
X20448571Y2287620D01*
X20353333Y2240000D01*
X20305714Y2192381D01*
X20258095Y2097143D01*
X20258095Y2001905D01*
X20305714Y1859048D01*
X20877142Y1287620D01*
X20258095Y1287620D01*
X41081904Y8837620D02*
X41558095Y8837620D01*
X41605714Y8361429D01*
X41558095Y8409048D01*
X41462857Y8456667D01*
X41224761Y8456667D01*
X41129523Y8409048D01*
X41081904Y8361429D01*
X41034285Y8266191D01*
X41034285Y8028096D01*
X41081904Y7932858D01*
X41129523Y7885239D01*
X41224761Y7837620D01*
X41462857Y7837620D01*
X41558095Y7885239D01*
X41605714Y7932858D01*
X34036785Y89326858D02*
X34551071Y89326858D01*
X34293928Y89326858D02*
X34293928Y90226858D01*
X34379642Y90098286D01*
X34465357Y90012572D01*
X34551071Y89969715D01*
X32322500Y89369715D02*
X32193928Y89326858D01*
X31979642Y89326858D01*
X31893928Y89369715D01*
X31851071Y89412572D01*
X31808214Y89498286D01*
X31808214Y89584000D01*
X31851071Y89669715D01*
X31893928Y89712572D01*
X31979642Y89755429D01*
X32151071Y89798286D01*
X32236785Y89841143D01*
X32279642Y89884000D01*
X32322500Y89969715D01*
X32322500Y90055429D01*
X32279642Y90141143D01*
X32236785Y90184000D01*
X32151071Y90226858D01*
X31936785Y90226858D01*
X31808214Y90184000D01*
X31251071Y89755429D02*
X31251071Y89326858D01*
X31551071Y90226858D02*
X31251071Y89755429D01*
X30951071Y90226858D01*
X30693928Y89369715D02*
X30565357Y89326858D01*
X30351071Y89326858D01*
X30265357Y89369715D01*
X30222500Y89412572D01*
X30179642Y89498286D01*
X30179642Y89584000D01*
X30222500Y89669715D01*
X30265357Y89712572D01*
X30351071Y89755429D01*
X30522500Y89798286D01*
X30608214Y89841143D01*
X30651071Y89884000D01*
X30693928Y89969715D01*
X30693928Y90055429D01*
X30651071Y90141143D01*
X30608214Y90184000D01*
X30522500Y90226858D01*
X30308214Y90226858D01*
X30179642Y90184000D01*
X30008214Y89241143D02*
X29322500Y89241143D01*
X28679642Y90226858D02*
X29108214Y90226858D01*
X29151071Y89798286D01*
X29108214Y89841143D01*
X29022500Y89884000D01*
X28808214Y89884000D01*
X28722500Y89841143D01*
X28679642Y89798286D01*
X28636785Y89712572D01*
X28636785Y89498286D01*
X28679642Y89412572D01*
X28722500Y89369715D01*
X28808214Y89326858D01*
X29022500Y89326858D01*
X29108214Y89369715D01*
X29151071Y89412572D01*
X28379642Y90226858D02*
X28079642Y89326858D01*
X27779642Y90226858D01*
X34593928Y88777858D02*
X34036785Y88777858D01*
X34336785Y88435000D01*
X34208214Y88435000D01*
X34122500Y88392143D01*
X34079642Y88349286D01*
X34036785Y88263572D01*
X34036785Y88049286D01*
X34079642Y87963572D01*
X34122500Y87920715D01*
X34208214Y87877858D01*
X34465357Y87877858D01*
X34551071Y87920715D01*
X34593928Y87963572D01*
X32365357Y88777858D02*
X31808214Y88777858D01*
X32108214Y88435000D01*
X31979642Y88435000D01*
X31893928Y88392143D01*
X31851071Y88349286D01*
X31808214Y88263572D01*
X31808214Y88049286D01*
X31851071Y87963572D01*
X31893928Y87920715D01*
X31979642Y87877858D01*
X32236785Y87877858D01*
X32322500Y87920715D01*
X32365357Y87963572D01*
X31422500Y87963572D02*
X31379642Y87920715D01*
X31422500Y87877858D01*
X31465357Y87920715D01*
X31422500Y87963572D01*
X31422500Y87877858D01*
X31079642Y88777858D02*
X30522500Y88777858D01*
X30822500Y88435000D01*
X30693928Y88435000D01*
X30608214Y88392143D01*
X30565357Y88349286D01*
X30522500Y88263572D01*
X30522500Y88049286D01*
X30565357Y87963572D01*
X30608214Y87920715D01*
X30693928Y87877858D01*
X30951071Y87877858D01*
X31036785Y87920715D01*
X31079642Y87963572D01*
X29579642Y88777858D02*
X29279642Y87877858D01*
X28979642Y88777858D01*
X34079642Y87328858D02*
X34508214Y87328858D01*
X34551071Y86900286D01*
X34508214Y86943143D01*
X34422500Y86986000D01*
X34208214Y86986000D01*
X34122500Y86943143D01*
X34079642Y86900286D01*
X34036785Y86814572D01*
X34036785Y86600286D01*
X34079642Y86514572D01*
X34122500Y86471715D01*
X34208214Y86428858D01*
X34422500Y86428858D01*
X34508214Y86471715D01*
X34551071Y86514572D01*
X31808214Y87286000D02*
X31893928Y87328858D01*
X32022500Y87328858D01*
X32151071Y87286000D01*
X32236785Y87200286D01*
X32279642Y87114572D01*
X32322500Y86943143D01*
X32322500Y86814572D01*
X32279642Y86643143D01*
X32236785Y86557429D01*
X32151071Y86471715D01*
X32022500Y86428858D01*
X31936785Y86428858D01*
X31808214Y86471715D01*
X31765357Y86514572D01*
X31765357Y86814572D01*
X31936785Y86814572D01*
X31379642Y86428858D02*
X31379642Y87328858D01*
X30865357Y86428858D01*
X30865357Y87328858D01*
X30436785Y86428858D02*
X30436785Y87328858D01*
X30222500Y87328858D01*
X30093928Y87286000D01*
X30008214Y87200286D01*
X29965357Y87114572D01*
X29922500Y86943143D01*
X29922500Y86814572D01*
X29965357Y86643143D01*
X30008214Y86557429D01*
X30093928Y86471715D01*
X30222500Y86428858D01*
X30436785Y86428858D01*
X34593928Y85879858D02*
X33993928Y85879858D01*
X34379642Y84979858D01*
X31765357Y84979858D02*
X32065357Y85408429D01*
X32279642Y84979858D02*
X32279642Y85879858D01*
X31936785Y85879858D01*
X31851071Y85837000D01*
X31808214Y85794143D01*
X31765357Y85708429D01*
X31765357Y85579858D01*
X31808214Y85494143D01*
X31851071Y85451286D01*
X31936785Y85408429D01*
X32279642Y85408429D01*
X31465357Y85879858D02*
X30865357Y84979858D01*
X30865357Y85879858D02*
X31465357Y84979858D01*
X34465357Y83530858D02*
X34293928Y83530858D01*
X34208214Y83573715D01*
X34165357Y83616572D01*
X34079642Y83745143D01*
X34036785Y83916572D01*
X34036785Y84259429D01*
X34079642Y84345143D01*
X34122500Y84388000D01*
X34208214Y84430858D01*
X34379642Y84430858D01*
X34465357Y84388000D01*
X34508214Y84345143D01*
X34551071Y84259429D01*
X34551071Y84045143D01*
X34508214Y83959429D01*
X34465357Y83916572D01*
X34379642Y83873715D01*
X34208214Y83873715D01*
X34122500Y83916572D01*
X34079642Y83959429D01*
X34036785Y84045143D01*
X31765357Y83530858D02*
X32065357Y83959429D01*
X32279642Y83530858D02*
X32279642Y84430858D01*
X31936785Y84430858D01*
X31851071Y84388000D01*
X31808214Y84345143D01*
X31765357Y84259429D01*
X31765357Y84130858D01*
X31808214Y84045143D01*
X31851071Y84002286D01*
X31936785Y83959429D01*
X32279642Y83959429D01*
X31379642Y84002286D02*
X31079642Y84002286D01*
X30951071Y83530858D02*
X31379642Y83530858D01*
X31379642Y84430858D01*
X30951071Y84430858D01*
X30093928Y84388000D02*
X30179642Y84430858D01*
X30308214Y84430858D01*
X30436785Y84388000D01*
X30522500Y84302286D01*
X30565357Y84216572D01*
X30608214Y84045143D01*
X30608214Y83916572D01*
X30565357Y83745143D01*
X30522500Y83659429D01*
X30436785Y83573715D01*
X30308214Y83530858D01*
X30222500Y83530858D01*
X30093928Y83573715D01*
X30051071Y83616572D01*
X30051071Y83916572D01*
X30222500Y83916572D01*
X29879642Y83445143D02*
X29193928Y83445143D01*
X28979642Y84002286D02*
X28679642Y84002286D01*
X28551071Y83530858D02*
X28979642Y83530858D01*
X28979642Y84430858D01*
X28551071Y84430858D01*
X28165357Y83530858D02*
X28165357Y84430858D01*
X27651071Y83530858D01*
X27651071Y84430858D01*
X27308214Y84430858D02*
X26751071Y84430858D01*
X27051071Y84088000D01*
X26922500Y84088000D01*
X26836785Y84045143D01*
X26793928Y84002286D01*
X26751071Y83916572D01*
X26751071Y83702286D01*
X26793928Y83616572D01*
X26836785Y83573715D01*
X26922500Y83530858D01*
X27179642Y83530858D01*
X27265357Y83573715D01*
X27308214Y83616572D01*
X34036785Y82081858D02*
X34551071Y82081858D01*
X34293928Y82081858D02*
X34293928Y82981858D01*
X34379642Y82853286D01*
X34465357Y82767572D01*
X34551071Y82724715D01*
X33179642Y82081858D02*
X33693928Y82081858D01*
X33436785Y82081858D02*
X33436785Y82981858D01*
X33522500Y82853286D01*
X33608214Y82767572D01*
X33693928Y82724715D01*
X32108214Y82081858D02*
X32108214Y82981858D01*
X31765357Y82981858D01*
X31679642Y82939000D01*
X31636785Y82896143D01*
X31593928Y82810429D01*
X31593928Y82681858D01*
X31636785Y82596143D01*
X31679642Y82553286D01*
X31765357Y82510429D01*
X32108214Y82510429D01*
X30693928Y82081858D02*
X30993928Y82510429D01*
X31208214Y82081858D02*
X31208214Y82981858D01*
X30865357Y82981858D01*
X30779642Y82939000D01*
X30736785Y82896143D01*
X30693928Y82810429D01*
X30693928Y82681858D01*
X30736785Y82596143D01*
X30779642Y82553286D01*
X30865357Y82510429D01*
X31208214Y82510429D01*
X30136785Y82981858D02*
X29965357Y82981858D01*
X29879642Y82939000D01*
X29793928Y82853286D01*
X29751071Y82681858D01*
X29751071Y82381858D01*
X29793928Y82210429D01*
X29879642Y82124715D01*
X29965357Y82081858D01*
X30136785Y82081858D01*
X30222500Y82124715D01*
X30308214Y82210429D01*
X30351071Y82381858D01*
X30351071Y82681858D01*
X30308214Y82853286D01*
X30222500Y82939000D01*
X30136785Y82981858D01*
X28893928Y82939000D02*
X28979642Y82981858D01*
X29108214Y82981858D01*
X29236785Y82939000D01*
X29322500Y82853286D01*
X29365357Y82767572D01*
X29408214Y82596143D01*
X29408214Y82467572D01*
X29365357Y82296143D01*
X29322500Y82210429D01*
X29236785Y82124715D01*
X29108214Y82081858D01*
X29022500Y82081858D01*
X28893928Y82124715D01*
X28851071Y82167572D01*
X28851071Y82467572D01*
X29022500Y82467572D01*
X28679642Y81996143D02*
X27993928Y81996143D01*
X27779642Y82081858D02*
X27779642Y82981858D01*
X27179642Y82981858D02*
X27008214Y82981858D01*
X26922500Y82939000D01*
X26836785Y82853286D01*
X26793928Y82681858D01*
X26793928Y82381858D01*
X26836785Y82210429D01*
X26922500Y82124715D01*
X27008214Y82081858D01*
X27179642Y82081858D01*
X27265357Y82124715D01*
X27351071Y82210429D01*
X27393928Y82381858D01*
X27393928Y82681858D01*
X27351071Y82853286D01*
X27265357Y82939000D01*
X27179642Y82981858D01*
X34036785Y80632858D02*
X34551071Y80632858D01*
X34293928Y80632858D02*
X34293928Y81532858D01*
X34379642Y81404286D01*
X34465357Y81318572D01*
X34551071Y81275715D01*
X33736785Y81532858D02*
X33179642Y81532858D01*
X33479642Y81190000D01*
X33351071Y81190000D01*
X33265357Y81147143D01*
X33222500Y81104286D01*
X33179642Y81018572D01*
X33179642Y80804286D01*
X33222500Y80718572D01*
X33265357Y80675715D01*
X33351071Y80632858D01*
X33608214Y80632858D01*
X33693928Y80675715D01*
X33736785Y80718572D01*
X31851071Y81532858D02*
X31851071Y80890000D01*
X31893928Y80761429D01*
X31979642Y80675715D01*
X32108214Y80632858D01*
X32193928Y80632858D01*
X31551071Y81532858D02*
X31036785Y81532858D01*
X31293928Y80632858D02*
X31293928Y81532858D01*
X30779642Y80890000D02*
X30351071Y80890000D01*
X30865357Y80632858D02*
X30565357Y81532858D01*
X30265357Y80632858D01*
X29493928Y81490000D02*
X29579642Y81532858D01*
X29708214Y81532858D01*
X29836785Y81490000D01*
X29922500Y81404286D01*
X29965357Y81318572D01*
X30008214Y81147143D01*
X30008214Y81018572D01*
X29965357Y80847143D01*
X29922500Y80761429D01*
X29836785Y80675715D01*
X29708214Y80632858D01*
X29622500Y80632858D01*
X29493928Y80675715D01*
X29451071Y80718572D01*
X29451071Y81018572D01*
X29622500Y81018572D01*
X29279642Y80547143D02*
X28593928Y80547143D01*
X28508214Y81532858D02*
X27993928Y81532858D01*
X28251071Y80632858D02*
X28251071Y81532858D01*
X27179642Y80718572D02*
X27222500Y80675715D01*
X27351071Y80632858D01*
X27436785Y80632858D01*
X27565357Y80675715D01*
X27651071Y80761429D01*
X27693928Y80847143D01*
X27736785Y81018572D01*
X27736785Y81147143D01*
X27693928Y81318572D01*
X27651071Y81404286D01*
X27565357Y81490000D01*
X27436785Y81532858D01*
X27351071Y81532858D01*
X27222500Y81490000D01*
X27179642Y81447143D01*
X26793928Y80632858D02*
X26793928Y81532858D01*
X26279642Y80632858D02*
X26665357Y81147143D01*
X26279642Y81532858D02*
X26793928Y81018572D01*
X34036785Y79183858D02*
X34551071Y79183858D01*
X34293928Y79183858D02*
X34293928Y80083858D01*
X34379642Y79955286D01*
X34465357Y79869572D01*
X34551071Y79826715D01*
X33222500Y80083858D02*
X33651071Y80083858D01*
X33693928Y79655286D01*
X33651071Y79698143D01*
X33565357Y79741000D01*
X33351071Y79741000D01*
X33265357Y79698143D01*
X33222500Y79655286D01*
X33179642Y79569572D01*
X33179642Y79355286D01*
X33222500Y79269572D01*
X33265357Y79226715D01*
X33351071Y79183858D01*
X33565357Y79183858D01*
X33651071Y79226715D01*
X33693928Y79269572D01*
X31851071Y80083858D02*
X31851071Y79441000D01*
X31893928Y79312429D01*
X31979642Y79226715D01*
X32108214Y79183858D01*
X32193928Y79183858D01*
X31551071Y80083858D02*
X31036785Y80083858D01*
X31293928Y79183858D02*
X31293928Y80083858D01*
X30779642Y79441000D02*
X30351071Y79441000D01*
X30865357Y79183858D02*
X30565357Y80083858D01*
X30265357Y79183858D01*
X29493928Y80041000D02*
X29579642Y80083858D01*
X29708214Y80083858D01*
X29836785Y80041000D01*
X29922500Y79955286D01*
X29965357Y79869572D01*
X30008214Y79698143D01*
X30008214Y79569572D01*
X29965357Y79398143D01*
X29922500Y79312429D01*
X29836785Y79226715D01*
X29708214Y79183858D01*
X29622500Y79183858D01*
X29493928Y79226715D01*
X29451071Y79269572D01*
X29451071Y79569572D01*
X29622500Y79569572D01*
X29279642Y79098143D02*
X28593928Y79098143D01*
X28508214Y80083858D02*
X27993928Y80083858D01*
X28251071Y79183858D02*
X28251071Y80083858D01*
X27693928Y79183858D02*
X27693928Y80083858D01*
X27393928Y79441000D01*
X27093928Y80083858D01*
X27093928Y79183858D01*
X26708214Y79226715D02*
X26579642Y79183858D01*
X26365357Y79183858D01*
X26279642Y79226715D01*
X26236785Y79269572D01*
X26193928Y79355286D01*
X26193928Y79441000D01*
X26236785Y79526715D01*
X26279642Y79569572D01*
X26365357Y79612429D01*
X26536785Y79655286D01*
X26622500Y79698143D01*
X26665357Y79741000D01*
X26708214Y79826715D01*
X26708214Y79912429D01*
X26665357Y79998143D01*
X26622500Y80041000D01*
X26536785Y80083858D01*
X26322500Y80083858D01*
X26193928Y80041000D01*
X34036785Y77734858D02*
X34551071Y77734858D01*
X34293928Y77734858D02*
X34293928Y78634858D01*
X34379642Y78506286D01*
X34465357Y78420572D01*
X34551071Y78377715D01*
X33736785Y78634858D02*
X33136785Y78634858D01*
X33522500Y77734858D01*
X32151071Y77777715D02*
X32022500Y77734858D01*
X31808214Y77734858D01*
X31722500Y77777715D01*
X31679642Y77820572D01*
X31636785Y77906286D01*
X31636785Y77992000D01*
X31679642Y78077715D01*
X31722500Y78120572D01*
X31808214Y78163429D01*
X31979642Y78206286D01*
X32065357Y78249143D01*
X32108214Y78292000D01*
X32151071Y78377715D01*
X32151071Y78463429D01*
X32108214Y78549143D01*
X32065357Y78592000D01*
X31979642Y78634858D01*
X31765357Y78634858D01*
X31636785Y78592000D01*
X31251071Y77734858D02*
X31251071Y78634858D01*
X30908214Y78634858D01*
X30822500Y78592000D01*
X30779642Y78549143D01*
X30736785Y78463429D01*
X30736785Y78334858D01*
X30779642Y78249143D01*
X30822500Y78206286D01*
X30908214Y78163429D01*
X31251071Y78163429D01*
X30351071Y77734858D02*
X30351071Y78634858D01*
X30136785Y78634858D01*
X30008214Y78592000D01*
X29922500Y78506286D01*
X29879642Y78420572D01*
X29836785Y78249143D01*
X29836785Y78120572D01*
X29879642Y77949143D01*
X29922500Y77863429D01*
X30008214Y77777715D01*
X30136785Y77734858D01*
X30351071Y77734858D01*
X29451071Y77734858D02*
X29451071Y78634858D01*
X28722500Y78206286D02*
X29022500Y78206286D01*
X29022500Y77734858D02*
X29022500Y78634858D01*
X28593928Y78634858D01*
X34036785Y76285858D02*
X34551071Y76285858D01*
X34293928Y76285858D02*
X34293928Y77185858D01*
X34379642Y77057286D01*
X34465357Y76971572D01*
X34551071Y76928715D01*
X33608214Y76285858D02*
X33436785Y76285858D01*
X33351071Y76328715D01*
X33308214Y76371572D01*
X33222500Y76500143D01*
X33179642Y76671572D01*
X33179642Y77014429D01*
X33222500Y77100143D01*
X33265357Y77143000D01*
X33351071Y77185858D01*
X33522500Y77185858D01*
X33608214Y77143000D01*
X33651071Y77100143D01*
X33693928Y77014429D01*
X33693928Y76800143D01*
X33651071Y76714429D01*
X33608214Y76671572D01*
X33522500Y76628715D01*
X33351071Y76628715D01*
X33265357Y76671572D01*
X33222500Y76714429D01*
X33179642Y76800143D01*
X31851071Y77185858D02*
X31851071Y76543000D01*
X31893928Y76414429D01*
X31979642Y76328715D01*
X32108214Y76285858D01*
X32193928Y76285858D01*
X31551071Y77185858D02*
X31036785Y77185858D01*
X31293928Y76285858D02*
X31293928Y77185858D01*
X30779642Y76543000D02*
X30351071Y76543000D01*
X30865357Y76285858D02*
X30565357Y77185858D01*
X30265357Y76285858D01*
X29493928Y77143000D02*
X29579642Y77185858D01*
X29708214Y77185858D01*
X29836785Y77143000D01*
X29922500Y77057286D01*
X29965357Y76971572D01*
X30008214Y76800143D01*
X30008214Y76671572D01*
X29965357Y76500143D01*
X29922500Y76414429D01*
X29836785Y76328715D01*
X29708214Y76285858D01*
X29622500Y76285858D01*
X29493928Y76328715D01*
X29451071Y76371572D01*
X29451071Y76671572D01*
X29622500Y76671572D01*
X29279642Y76200143D02*
X28593928Y76200143D01*
X28079642Y76757286D02*
X27951071Y76714429D01*
X27908214Y76671572D01*
X27865357Y76585858D01*
X27865357Y76457286D01*
X27908214Y76371572D01*
X27951071Y76328715D01*
X28036785Y76285858D01*
X28379642Y76285858D01*
X28379642Y77185858D01*
X28079642Y77185858D01*
X27993928Y77143000D01*
X27951071Y77100143D01*
X27908214Y77014429D01*
X27908214Y76928715D01*
X27951071Y76843000D01*
X27993928Y76800143D01*
X28079642Y76757286D01*
X28379642Y76757286D01*
X27308214Y77185858D02*
X27136785Y77185858D01*
X27051071Y77143000D01*
X26965357Y77057286D01*
X26922500Y76885858D01*
X26922500Y76585858D01*
X26965357Y76414429D01*
X27051071Y76328715D01*
X27136785Y76285858D01*
X27308214Y76285858D01*
X27393928Y76328715D01*
X27479642Y76414429D01*
X27522500Y76585858D01*
X27522500Y76885858D01*
X27479642Y77057286D01*
X27393928Y77143000D01*
X27308214Y77185858D01*
X26365357Y77185858D02*
X26193928Y77185858D01*
X26108214Y77143000D01*
X26022500Y77057286D01*
X25979642Y76885858D01*
X25979642Y76585858D01*
X26022500Y76414429D01*
X26108214Y76328715D01*
X26193928Y76285858D01*
X26365357Y76285858D01*
X26451071Y76328715D01*
X26536785Y76414429D01*
X26579642Y76585858D01*
X26579642Y76885858D01*
X26536785Y77057286D01*
X26451071Y77143000D01*
X26365357Y77185858D01*
X25722500Y77185858D02*
X25208214Y77185858D01*
X25465357Y76285858D02*
X25465357Y77185858D01*
X25122500Y76200143D02*
X24436785Y76200143D01*
X24222500Y76757286D02*
X23922500Y76757286D01*
X23793928Y76285858D02*
X24222500Y76285858D01*
X24222500Y77185858D01*
X23793928Y77185858D01*
X23408214Y76285858D02*
X23408214Y77185858D01*
X22893928Y76285858D01*
X22893928Y77185858D01*
X34551071Y75651143D02*
X34508214Y75694000D01*
X34422500Y75736858D01*
X34208214Y75736858D01*
X34122500Y75694000D01*
X34079642Y75651143D01*
X34036785Y75565429D01*
X34036785Y75479715D01*
X34079642Y75351143D01*
X34593928Y74836858D01*
X34036785Y74836858D01*
X33179642Y74836858D02*
X33693928Y74836858D01*
X33436785Y74836858D02*
X33436785Y75736858D01*
X33522500Y75608286D01*
X33608214Y75522572D01*
X33693928Y75479715D01*
X32236785Y75736858D02*
X31936785Y74836858D01*
X31636785Y75736858D01*
X31379642Y75094000D02*
X30951071Y75094000D01*
X31465357Y74836858D02*
X31165357Y75736858D01*
X30865357Y74836858D01*
X30565357Y74836858D02*
X30565357Y75736858D01*
X30351071Y75736858D01*
X30222500Y75694000D01*
X30136785Y75608286D01*
X30093928Y75522572D01*
X30051071Y75351143D01*
X30051071Y75222572D01*
X30093928Y75051143D01*
X30136785Y74965429D01*
X30222500Y74879715D01*
X30351071Y74836858D01*
X30565357Y74836858D01*
X29151071Y74922572D02*
X29193928Y74879715D01*
X29322500Y74836858D01*
X29408214Y74836858D01*
X29536785Y74879715D01*
X29622500Y74965429D01*
X29665357Y75051143D01*
X29708214Y75222572D01*
X29708214Y75351143D01*
X29665357Y75522572D01*
X29622500Y75608286D01*
X29536785Y75694000D01*
X29408214Y75736858D01*
X29322500Y75736858D01*
X29193928Y75694000D01*
X29151071Y75651143D01*
X28979642Y74751143D02*
X28293928Y74751143D01*
X28079642Y74836858D02*
X28079642Y75736858D01*
X27565357Y74836858D01*
X27565357Y75736858D01*
X34551071Y74202143D02*
X34508214Y74245000D01*
X34422500Y74287858D01*
X34208214Y74287858D01*
X34122500Y74245000D01*
X34079642Y74202143D01*
X34036785Y74116429D01*
X34036785Y74030715D01*
X34079642Y73902143D01*
X34593928Y73387858D01*
X34036785Y73387858D01*
X33736785Y74287858D02*
X33179642Y74287858D01*
X33479642Y73945000D01*
X33351071Y73945000D01*
X33265357Y73902143D01*
X33222500Y73859286D01*
X33179642Y73773572D01*
X33179642Y73559286D01*
X33222500Y73473572D01*
X33265357Y73430715D01*
X33351071Y73387858D01*
X33608214Y73387858D01*
X33693928Y73430715D01*
X33736785Y73473572D01*
X32236785Y74287858D02*
X31722500Y74287858D01*
X31979642Y73387858D02*
X31979642Y74287858D01*
X31422500Y74287858D02*
X31422500Y73559286D01*
X31379642Y73473572D01*
X31336785Y73430715D01*
X31251071Y73387858D01*
X31079642Y73387858D01*
X30993928Y73430715D01*
X30951071Y73473572D01*
X30908214Y73559286D01*
X30908214Y74287858D01*
X29965357Y73387858D02*
X30265357Y73816429D01*
X30479642Y73387858D02*
X30479642Y74287858D01*
X30136785Y74287858D01*
X30051071Y74245000D01*
X30008214Y74202143D01*
X29965357Y74116429D01*
X29965357Y73987858D01*
X30008214Y73902143D01*
X30051071Y73859286D01*
X30136785Y73816429D01*
X30479642Y73816429D01*
X29279642Y73859286D02*
X29151071Y73816429D01*
X29108214Y73773572D01*
X29065357Y73687858D01*
X29065357Y73559286D01*
X29108214Y73473572D01*
X29151071Y73430715D01*
X29236785Y73387858D01*
X29579642Y73387858D01*
X29579642Y74287858D01*
X29279642Y74287858D01*
X29193928Y74245000D01*
X29151071Y74202143D01*
X29108214Y74116429D01*
X29108214Y74030715D01*
X29151071Y73945000D01*
X29193928Y73902143D01*
X29279642Y73859286D01*
X29579642Y73859286D01*
X28508214Y74287858D02*
X28336785Y74287858D01*
X28251071Y74245000D01*
X28165357Y74159286D01*
X28122500Y73987858D01*
X28122500Y73687858D01*
X28165357Y73516429D01*
X28251071Y73430715D01*
X28336785Y73387858D01*
X28508214Y73387858D01*
X28593928Y73430715D01*
X28679642Y73516429D01*
X28722500Y73687858D01*
X28722500Y73987858D01*
X28679642Y74159286D01*
X28593928Y74245000D01*
X28508214Y74287858D01*
X27951071Y73302143D02*
X27265357Y73302143D01*
X27051071Y73387858D02*
X27051071Y74287858D01*
X26751071Y73645000D01*
X26451071Y74287858D01*
X26451071Y73387858D01*
X25851071Y74287858D02*
X25679642Y74287858D01*
X25593928Y74245000D01*
X25508214Y74159286D01*
X25465357Y73987858D01*
X25465357Y73687858D01*
X25508214Y73516429D01*
X25593928Y73430715D01*
X25679642Y73387858D01*
X25851071Y73387858D01*
X25936785Y73430715D01*
X26022500Y73516429D01*
X26065357Y73687858D01*
X26065357Y73987858D01*
X26022500Y74159286D01*
X25936785Y74245000D01*
X25851071Y74287858D01*
X25079642Y73387858D02*
X25079642Y74287858D01*
X24865357Y74287858D01*
X24736785Y74245000D01*
X24651071Y74159286D01*
X24608214Y74073572D01*
X24565357Y73902143D01*
X24565357Y73773572D01*
X24608214Y73602143D01*
X24651071Y73516429D01*
X24736785Y73430715D01*
X24865357Y73387858D01*
X25079642Y73387858D01*
X24179642Y73859286D02*
X23879642Y73859286D01*
X23751071Y73387858D02*
X24179642Y73387858D01*
X24179642Y74287858D01*
X23751071Y74287858D01*
X34551071Y72753143D02*
X34508214Y72796000D01*
X34422500Y72838858D01*
X34208214Y72838858D01*
X34122500Y72796000D01*
X34079642Y72753143D01*
X34036785Y72667429D01*
X34036785Y72581715D01*
X34079642Y72453143D01*
X34593928Y71938858D01*
X34036785Y71938858D01*
X33222500Y72838858D02*
X33651071Y72838858D01*
X33693928Y72410286D01*
X33651071Y72453143D01*
X33565357Y72496000D01*
X33351071Y72496000D01*
X33265357Y72453143D01*
X33222500Y72410286D01*
X33179642Y72324572D01*
X33179642Y72110286D01*
X33222500Y72024572D01*
X33265357Y71981715D01*
X33351071Y71938858D01*
X33565357Y71938858D01*
X33651071Y71981715D01*
X33693928Y72024572D01*
X32108214Y71938858D02*
X32108214Y72838858D01*
X31893928Y72838858D01*
X31765357Y72796000D01*
X31679642Y72710286D01*
X31636785Y72624572D01*
X31593928Y72453143D01*
X31593928Y72324572D01*
X31636785Y72153143D01*
X31679642Y72067429D01*
X31765357Y71981715D01*
X31893928Y71938858D01*
X32108214Y71938858D01*
X31251071Y71981715D02*
X31122500Y71938858D01*
X30908214Y71938858D01*
X30822500Y71981715D01*
X30779642Y72024572D01*
X30736785Y72110286D01*
X30736785Y72196000D01*
X30779642Y72281715D01*
X30822500Y72324572D01*
X30908214Y72367429D01*
X31079642Y72410286D01*
X31165357Y72453143D01*
X31208214Y72496000D01*
X31251071Y72581715D01*
X31251071Y72667429D01*
X31208214Y72753143D01*
X31165357Y72796000D01*
X31079642Y72838858D01*
X30865357Y72838858D01*
X30736785Y72796000D01*
X30351071Y71938858D02*
X30351071Y72838858D01*
X30008214Y72838858D01*
X29922500Y72796000D01*
X29879642Y72753143D01*
X29836785Y72667429D01*
X29836785Y72538858D01*
X29879642Y72453143D01*
X29922500Y72410286D01*
X30008214Y72367429D01*
X30351071Y72367429D01*
X29665357Y71853143D02*
X28979642Y71853143D01*
X28465357Y72410286D02*
X28765357Y72410286D01*
X28765357Y71938858D02*
X28765357Y72838858D01*
X28336785Y72838858D01*
X27565357Y71938858D02*
X27993928Y71938858D01*
X27993928Y72838858D01*
X27308214Y72196000D02*
X26879642Y72196000D01*
X27393928Y71938858D02*
X27093928Y72838858D01*
X26793928Y71938858D01*
X26022500Y72796000D02*
X26108214Y72838858D01*
X26236785Y72838858D01*
X26365357Y72796000D01*
X26451071Y72710286D01*
X26493928Y72624572D01*
X26536785Y72453143D01*
X26536785Y72324572D01*
X26493928Y72153143D01*
X26451071Y72067429D01*
X26365357Y71981715D01*
X26236785Y71938858D01*
X26151071Y71938858D01*
X26022500Y71981715D01*
X25979642Y72024572D01*
X25979642Y72324572D01*
X26151071Y72324572D01*
X16781904Y8892381D02*
X16734285Y8940000D01*
X16639047Y8987620D01*
X16400952Y8987620D01*
X16305714Y8940000D01*
X16258095Y8892381D01*
X16210476Y8797143D01*
X16210476Y8701905D01*
X16258095Y8559048D01*
X16829523Y7987620D01*
X16210476Y7987620D01*
X15305714Y8987620D02*
X15781904Y8987620D01*
X15829523Y8511429D01*
X15781904Y8559048D01*
X15686666Y8606667D01*
X15448571Y8606667D01*
X15353333Y8559048D01*
X15305714Y8511429D01*
X15258095Y8416191D01*
X15258095Y8178096D01*
X15305714Y8082858D01*
X15353333Y8035239D01*
X15448571Y7987620D01*
X15686666Y7987620D01*
X15781904Y8035239D01*
X15829523Y8082858D01*
X26310476Y1387620D02*
X26881904Y1387620D01*
X26596190Y1387620D02*
X26596190Y2387620D01*
X26691428Y2244762D01*
X26786666Y2149524D01*
X26881904Y2101905D01*
X25739047Y1959048D02*
X25834285Y2006667D01*
X25881904Y2054286D01*
X25929523Y2149524D01*
X25929523Y2197143D01*
X25881904Y2292381D01*
X25834285Y2340000D01*
X25739047Y2387620D01*
X25548571Y2387620D01*
X25453333Y2340000D01*
X25405714Y2292381D01*
X25358095Y2197143D01*
X25358095Y2149524D01*
X25405714Y2054286D01*
X25453333Y2006667D01*
X25548571Y1959048D01*
X25739047Y1959048D01*
X25834285Y1911429D01*
X25881904Y1863810D01*
X25929523Y1768572D01*
X25929523Y1578096D01*
X25881904Y1482858D01*
X25834285Y1435239D01*
X25739047Y1387620D01*
X25548571Y1387620D01*
X25453333Y1435239D01*
X25405714Y1482858D01*
X25358095Y1578096D01*
X25358095Y1768572D01*
X25405714Y1863810D01*
X25453333Y1911429D01*
X25548571Y1959048D01*
D11*
X81231904Y8940000D02*
X81308095Y8978096D01*
X81422380Y8978096D01*
X81536666Y8940000D01*
X81612857Y8863810D01*
X81650952Y8787620D01*
X81689047Y8635239D01*
X81689047Y8520953D01*
X81650952Y8368572D01*
X81612857Y8292381D01*
X81536666Y8216191D01*
X81422380Y8178096D01*
X81346190Y8178096D01*
X81231904Y8216191D01*
X81193809Y8254286D01*
X81193809Y8520953D01*
X81346190Y8520953D01*
X80850952Y8178096D02*
X80850952Y8978096D01*
X80393809Y8178096D01*
X80393809Y8978096D01*
X80012857Y8178096D02*
X80012857Y8978096D01*
X79822380Y8978096D01*
X79708095Y8940000D01*
X79631904Y8863810D01*
X79593809Y8787620D01*
X79555714Y8635239D01*
X79555714Y8520953D01*
X79593809Y8368572D01*
X79631904Y8292381D01*
X79708095Y8216191D01*
X79822380Y8178096D01*
X80012857Y8178096D01*
X78222380Y8978096D02*
X78603333Y8978096D01*
X78641428Y8597143D01*
X78603333Y8635239D01*
X78527142Y8673334D01*
X78336666Y8673334D01*
X78260476Y8635239D01*
X78222380Y8597143D01*
X78184285Y8520953D01*
X78184285Y8330477D01*
X78222380Y8254286D01*
X78260476Y8216191D01*
X78336666Y8178096D01*
X78527142Y8178096D01*
X78603333Y8216191D01*
X78641428Y8254286D01*
X77955714Y8978096D02*
X77689047Y8178096D01*
X77422380Y8978096D01*
X76127142Y8940000D02*
X76203333Y8978096D01*
X76317619Y8978096D01*
X76431904Y8940000D01*
X76508095Y8863810D01*
X76546190Y8787620D01*
X76584285Y8635239D01*
X76584285Y8520953D01*
X76546190Y8368572D01*
X76508095Y8292381D01*
X76431904Y8216191D01*
X76317619Y8178096D01*
X76241428Y8178096D01*
X76127142Y8216191D01*
X76089047Y8254286D01*
X76089047Y8520953D01*
X76241428Y8520953D01*
X75746190Y8178096D02*
X75746190Y8978096D01*
X75289047Y8178096D01*
X75289047Y8978096D01*
X74908095Y8178096D02*
X74908095Y8978096D01*
X74717619Y8978096D01*
X74603333Y8940000D01*
X74527142Y8863810D01*
X74489047Y8787620D01*
X74450952Y8635239D01*
X74450952Y8520953D01*
X74489047Y8368572D01*
X74527142Y8292381D01*
X74603333Y8216191D01*
X74717619Y8178096D01*
X74908095Y8178096D01*
D10*
X21881904Y8792381D02*
X21834285Y8840000D01*
X21739047Y8887620D01*
X21500952Y8887620D01*
X21405714Y8840000D01*
X21358095Y8792381D01*
X21310476Y8697143D01*
X21310476Y8601905D01*
X21358095Y8459048D01*
X21929523Y7887620D01*
X21310476Y7887620D01*
X20358095Y7887620D02*
X20929523Y7887620D01*
X20643809Y7887620D02*
X20643809Y8887620D01*
X20739047Y8744762D01*
X20834285Y8649524D01*
X20929523Y8601905D01*
X43024642Y89369715D02*
X42896071Y89326858D01*
X42681785Y89326858D01*
X42596071Y89369715D01*
X42553214Y89412572D01*
X42510357Y89498286D01*
X42510357Y89584000D01*
X42553214Y89669715D01*
X42596071Y89712572D01*
X42681785Y89755429D01*
X42853214Y89798286D01*
X42938928Y89841143D01*
X42981785Y89884000D01*
X43024642Y89969715D01*
X43024642Y90055429D01*
X42981785Y90141143D01*
X42938928Y90184000D01*
X42853214Y90226858D01*
X42638928Y90226858D01*
X42510357Y90184000D01*
X41953214Y89755429D02*
X41953214Y89326858D01*
X42253214Y90226858D02*
X41953214Y89755429D01*
X41653214Y90226858D01*
X41396071Y89369715D02*
X41267500Y89326858D01*
X41053214Y89326858D01*
X40967500Y89369715D01*
X40924642Y89412572D01*
X40881785Y89498286D01*
X40881785Y89584000D01*
X40924642Y89669715D01*
X40967500Y89712572D01*
X41053214Y89755429D01*
X41224642Y89798286D01*
X41310357Y89841143D01*
X41353214Y89884000D01*
X41396071Y89969715D01*
X41396071Y90055429D01*
X41353214Y90141143D01*
X41310357Y90184000D01*
X41224642Y90226858D01*
X41010357Y90226858D01*
X40881785Y90184000D01*
X39381785Y90226858D02*
X39810357Y90226858D01*
X39853214Y89798286D01*
X39810357Y89841143D01*
X39724642Y89884000D01*
X39510357Y89884000D01*
X39424642Y89841143D01*
X39381785Y89798286D01*
X39338928Y89712572D01*
X39338928Y89498286D01*
X39381785Y89412572D01*
X39424642Y89369715D01*
X39510357Y89326858D01*
X39724642Y89326858D01*
X39810357Y89369715D01*
X39853214Y89412572D01*
X39081785Y90226858D02*
X38781785Y89326858D01*
X38481785Y90226858D01*
X36853214Y90141143D02*
X36810357Y90184000D01*
X36724642Y90226858D01*
X36510357Y90226858D01*
X36424642Y90184000D01*
X36381785Y90141143D01*
X36338928Y90055429D01*
X36338928Y89969715D01*
X36381785Y89841143D01*
X36896071Y89326858D01*
X36338928Y89326858D01*
X41181785Y88777858D02*
X40624642Y88777858D01*
X40924642Y88435000D01*
X40796071Y88435000D01*
X40710357Y88392143D01*
X40667500Y88349286D01*
X40624642Y88263572D01*
X40624642Y88049286D01*
X40667500Y87963572D01*
X40710357Y87920715D01*
X40796071Y87877858D01*
X41053214Y87877858D01*
X41138928Y87920715D01*
X41181785Y87963572D01*
X40238928Y87963572D02*
X40196071Y87920715D01*
X40238928Y87877858D01*
X40281785Y87920715D01*
X40238928Y87963572D01*
X40238928Y87877858D01*
X39896071Y88777858D02*
X39338928Y88777858D01*
X39638928Y88435000D01*
X39510357Y88435000D01*
X39424642Y88392143D01*
X39381785Y88349286D01*
X39338928Y88263572D01*
X39338928Y88049286D01*
X39381785Y87963572D01*
X39424642Y87920715D01*
X39510357Y87877858D01*
X39767500Y87877858D01*
X39853214Y87920715D01*
X39896071Y87963572D01*
X39081785Y88777858D02*
X38781785Y87877858D01*
X38481785Y88777858D01*
X36424642Y88477858D02*
X36424642Y87877858D01*
X36638928Y88820715D02*
X36853214Y88177858D01*
X36296071Y88177858D01*
X40453214Y87286000D02*
X40538928Y87328858D01*
X40667500Y87328858D01*
X40796071Y87286000D01*
X40881785Y87200286D01*
X40924642Y87114572D01*
X40967500Y86943143D01*
X40967500Y86814572D01*
X40924642Y86643143D01*
X40881785Y86557429D01*
X40796071Y86471715D01*
X40667500Y86428858D01*
X40581785Y86428858D01*
X40453214Y86471715D01*
X40410357Y86514572D01*
X40410357Y86814572D01*
X40581785Y86814572D01*
X40024642Y86428858D02*
X40024642Y87328858D01*
X39510357Y86428858D01*
X39510357Y87328858D01*
X39081785Y86428858D02*
X39081785Y87328858D01*
X38867500Y87328858D01*
X38738928Y87286000D01*
X38653214Y87200286D01*
X38610357Y87114572D01*
X38567500Y86943143D01*
X38567500Y86814572D01*
X38610357Y86643143D01*
X38653214Y86557429D01*
X38738928Y86471715D01*
X38867500Y86428858D01*
X39081785Y86428858D01*
X36424642Y87328858D02*
X36596071Y87328858D01*
X36681785Y87286000D01*
X36724642Y87243143D01*
X36810357Y87114572D01*
X36853214Y86943143D01*
X36853214Y86600286D01*
X36810357Y86514572D01*
X36767500Y86471715D01*
X36681785Y86428858D01*
X36510357Y86428858D01*
X36424642Y86471715D01*
X36381785Y86514572D01*
X36338928Y86600286D01*
X36338928Y86814572D01*
X36381785Y86900286D01*
X36424642Y86943143D01*
X36510357Y86986000D01*
X36681785Y86986000D01*
X36767500Y86943143D01*
X36810357Y86900286D01*
X36853214Y86814572D01*
X39853214Y85879858D02*
X39338928Y85879858D01*
X39596071Y84979858D02*
X39596071Y85879858D01*
X39124642Y85879858D02*
X38524642Y84979858D01*
X38524642Y85879858D02*
X39124642Y84979858D01*
X36681785Y85494143D02*
X36767500Y85537000D01*
X36810357Y85579858D01*
X36853214Y85665572D01*
X36853214Y85708429D01*
X36810357Y85794143D01*
X36767500Y85837000D01*
X36681785Y85879858D01*
X36510357Y85879858D01*
X36424642Y85837000D01*
X36381785Y85794143D01*
X36338928Y85708429D01*
X36338928Y85665572D01*
X36381785Y85579858D01*
X36424642Y85537000D01*
X36510357Y85494143D01*
X36681785Y85494143D01*
X36767500Y85451286D01*
X36810357Y85408429D01*
X36853214Y85322715D01*
X36853214Y85151286D01*
X36810357Y85065572D01*
X36767500Y85022715D01*
X36681785Y84979858D01*
X36510357Y84979858D01*
X36424642Y85022715D01*
X36381785Y85065572D01*
X36338928Y85151286D01*
X36338928Y85322715D01*
X36381785Y85408429D01*
X36424642Y85451286D01*
X36510357Y85494143D01*
X43753214Y83530858D02*
X44053214Y83959429D01*
X44267500Y83530858D02*
X44267500Y84430858D01*
X43924642Y84430858D01*
X43838928Y84388000D01*
X43796071Y84345143D01*
X43753214Y84259429D01*
X43753214Y84130858D01*
X43796071Y84045143D01*
X43838928Y84002286D01*
X43924642Y83959429D01*
X44267500Y83959429D01*
X43367500Y84002286D02*
X43067500Y84002286D01*
X42938928Y83530858D02*
X43367500Y83530858D01*
X43367500Y84430858D01*
X42938928Y84430858D01*
X42081785Y84388000D02*
X42167500Y84430858D01*
X42296071Y84430858D01*
X42424642Y84388000D01*
X42510357Y84302286D01*
X42553214Y84216572D01*
X42596071Y84045143D01*
X42596071Y83916572D01*
X42553214Y83745143D01*
X42510357Y83659429D01*
X42424642Y83573715D01*
X42296071Y83530858D01*
X42210357Y83530858D01*
X42081785Y83573715D01*
X42038928Y83616572D01*
X42038928Y83916572D01*
X42210357Y83916572D01*
X41867500Y83445143D02*
X41181785Y83445143D01*
X40967500Y84002286D02*
X40667500Y84002286D01*
X40538928Y83530858D02*
X40967500Y83530858D01*
X40967500Y84430858D01*
X40538928Y84430858D01*
X40153214Y83530858D02*
X40153214Y84430858D01*
X39638928Y83530858D01*
X39638928Y84430858D01*
X38824642Y84130858D02*
X38824642Y83530858D01*
X39038928Y84473715D02*
X39253214Y83830858D01*
X38696071Y83830858D01*
X37196071Y83530858D02*
X37710357Y83530858D01*
X37453214Y83530858D02*
X37453214Y84430858D01*
X37538928Y84302286D01*
X37624642Y84216572D01*
X37710357Y84173715D01*
X36638928Y84430858D02*
X36553214Y84430858D01*
X36467500Y84388000D01*
X36424642Y84345143D01*
X36381785Y84259429D01*
X36338928Y84088000D01*
X36338928Y83873715D01*
X36381785Y83702286D01*
X36424642Y83616572D01*
X36467500Y83573715D01*
X36553214Y83530858D01*
X36638928Y83530858D01*
X36724642Y83573715D01*
X36767500Y83616572D01*
X36810357Y83702286D01*
X36853214Y83873715D01*
X36853214Y84088000D01*
X36810357Y84259429D01*
X36767500Y84345143D01*
X36724642Y84388000D01*
X36638928Y84430858D01*
X41310357Y82896143D02*
X41267500Y82939000D01*
X41181785Y82981858D01*
X40967500Y82981858D01*
X40881785Y82939000D01*
X40838928Y82896143D01*
X40796071Y82810429D01*
X40796071Y82724715D01*
X40838928Y82596143D01*
X41353214Y82081858D01*
X40796071Y82081858D01*
X40410357Y82167572D02*
X40367500Y82124715D01*
X40410357Y82081858D01*
X40453214Y82124715D01*
X40410357Y82167572D01*
X40410357Y82081858D01*
X39553214Y82981858D02*
X39981785Y82981858D01*
X40024642Y82553286D01*
X39981785Y82596143D01*
X39896071Y82639000D01*
X39681785Y82639000D01*
X39596071Y82596143D01*
X39553214Y82553286D01*
X39510357Y82467572D01*
X39510357Y82253286D01*
X39553214Y82167572D01*
X39596071Y82124715D01*
X39681785Y82081858D01*
X39896071Y82081858D01*
X39981785Y82124715D01*
X40024642Y82167572D01*
X39253214Y82981858D02*
X38953214Y82081858D01*
X38653214Y82981858D01*
X37196071Y82081858D02*
X37710357Y82081858D01*
X37453214Y82081858D02*
X37453214Y82981858D01*
X37538928Y82853286D01*
X37624642Y82767572D01*
X37710357Y82724715D01*
X36853214Y82896143D02*
X36810357Y82939000D01*
X36724642Y82981858D01*
X36510357Y82981858D01*
X36424642Y82939000D01*
X36381785Y82896143D01*
X36338928Y82810429D01*
X36338928Y82724715D01*
X36381785Y82596143D01*
X36896071Y82081858D01*
X36338928Y82081858D01*
X43838928Y81532858D02*
X43838928Y80890000D01*
X43881785Y80761429D01*
X43967500Y80675715D01*
X44096071Y80632858D01*
X44181785Y80632858D01*
X43538928Y81532858D02*
X43024642Y81532858D01*
X43281785Y80632858D02*
X43281785Y81532858D01*
X42767500Y80890000D02*
X42338928Y80890000D01*
X42853214Y80632858D02*
X42553214Y81532858D01*
X42253214Y80632858D01*
X41481785Y81490000D02*
X41567500Y81532858D01*
X41696071Y81532858D01*
X41824642Y81490000D01*
X41910357Y81404286D01*
X41953214Y81318572D01*
X41996071Y81147143D01*
X41996071Y81018572D01*
X41953214Y80847143D01*
X41910357Y80761429D01*
X41824642Y80675715D01*
X41696071Y80632858D01*
X41610357Y80632858D01*
X41481785Y80675715D01*
X41438928Y80718572D01*
X41438928Y81018572D01*
X41610357Y81018572D01*
X41267500Y80547143D02*
X40581785Y80547143D01*
X40496071Y81532858D02*
X39981785Y81532858D01*
X40238928Y80632858D02*
X40238928Y81532858D01*
X39681785Y80632858D02*
X39681785Y81532858D01*
X39467500Y81532858D01*
X39338928Y81490000D01*
X39253214Y81404286D01*
X39210357Y81318572D01*
X39167500Y81147143D01*
X39167500Y81018572D01*
X39210357Y80847143D01*
X39253214Y80761429D01*
X39338928Y80675715D01*
X39467500Y80632858D01*
X39681785Y80632858D01*
X38781785Y80632858D02*
X38781785Y81532858D01*
X37196071Y80632858D02*
X37710357Y80632858D01*
X37453214Y80632858D02*
X37453214Y81532858D01*
X37538928Y81404286D01*
X37624642Y81318572D01*
X37710357Y81275715D01*
X36424642Y81232858D02*
X36424642Y80632858D01*
X36638928Y81575715D02*
X36853214Y80932858D01*
X36296071Y80932858D01*
X44353214Y80083858D02*
X44353214Y79441000D01*
X44396071Y79312429D01*
X44481785Y79226715D01*
X44610357Y79183858D01*
X44696071Y79183858D01*
X44053214Y80083858D02*
X43538928Y80083858D01*
X43796071Y79183858D02*
X43796071Y80083858D01*
X43281785Y79441000D02*
X42853214Y79441000D01*
X43367500Y79183858D02*
X43067500Y80083858D01*
X42767500Y79183858D01*
X41996071Y80041000D02*
X42081785Y80083858D01*
X42210357Y80083858D01*
X42338928Y80041000D01*
X42424642Y79955286D01*
X42467500Y79869572D01*
X42510357Y79698143D01*
X42510357Y79569572D01*
X42467500Y79398143D01*
X42424642Y79312429D01*
X42338928Y79226715D01*
X42210357Y79183858D01*
X42124642Y79183858D01*
X41996071Y79226715D01*
X41953214Y79269572D01*
X41953214Y79569572D01*
X42124642Y79569572D01*
X41781785Y79098143D02*
X41096071Y79098143D01*
X41010357Y80083858D02*
X40496071Y80083858D01*
X40753214Y79183858D02*
X40753214Y80083858D01*
X40196071Y79183858D02*
X40196071Y80083858D01*
X39981785Y80083858D01*
X39853214Y80041000D01*
X39767500Y79955286D01*
X39724642Y79869572D01*
X39681785Y79698143D01*
X39681785Y79569572D01*
X39724642Y79398143D01*
X39767500Y79312429D01*
X39853214Y79226715D01*
X39981785Y79183858D01*
X40196071Y79183858D01*
X39124642Y80083858D02*
X38953214Y80083858D01*
X38867500Y80041000D01*
X38781785Y79955286D01*
X38738928Y79783858D01*
X38738928Y79483858D01*
X38781785Y79312429D01*
X38867500Y79226715D01*
X38953214Y79183858D01*
X39124642Y79183858D01*
X39210357Y79226715D01*
X39296071Y79312429D01*
X39338928Y79483858D01*
X39338928Y79783858D01*
X39296071Y79955286D01*
X39210357Y80041000D01*
X39124642Y80083858D01*
X37196071Y79183858D02*
X37710357Y79183858D01*
X37453214Y79183858D02*
X37453214Y80083858D01*
X37538928Y79955286D01*
X37624642Y79869572D01*
X37710357Y79826715D01*
X36424642Y80083858D02*
X36596071Y80083858D01*
X36681785Y80041000D01*
X36724642Y79998143D01*
X36810357Y79869572D01*
X36853214Y79698143D01*
X36853214Y79355286D01*
X36810357Y79269572D01*
X36767500Y79226715D01*
X36681785Y79183858D01*
X36510357Y79183858D01*
X36424642Y79226715D01*
X36381785Y79269572D01*
X36338928Y79355286D01*
X36338928Y79569572D01*
X36381785Y79655286D01*
X36424642Y79698143D01*
X36510357Y79741000D01*
X36681785Y79741000D01*
X36767500Y79698143D01*
X36810357Y79655286D01*
X36853214Y79569572D01*
X44996071Y78634858D02*
X44996071Y77906286D01*
X44953214Y77820572D01*
X44910357Y77777715D01*
X44824642Y77734858D01*
X44653214Y77734858D01*
X44567500Y77777715D01*
X44524642Y77820572D01*
X44481785Y77906286D01*
X44481785Y78634858D01*
X44096071Y77777715D02*
X43967500Y77734858D01*
X43753214Y77734858D01*
X43667500Y77777715D01*
X43624642Y77820572D01*
X43581785Y77906286D01*
X43581785Y77992000D01*
X43624642Y78077715D01*
X43667500Y78120572D01*
X43753214Y78163429D01*
X43924642Y78206286D01*
X44010357Y78249143D01*
X44053214Y78292000D01*
X44096071Y78377715D01*
X44096071Y78463429D01*
X44053214Y78549143D01*
X44010357Y78592000D01*
X43924642Y78634858D01*
X43710357Y78634858D01*
X43581785Y78592000D01*
X43196071Y78206286D02*
X42896071Y78206286D01*
X42767500Y77734858D02*
X43196071Y77734858D01*
X43196071Y78634858D01*
X42767500Y78634858D01*
X41867500Y77734858D02*
X42167500Y78163429D01*
X42381785Y77734858D02*
X42381785Y78634858D01*
X42038928Y78634858D01*
X41953214Y78592000D01*
X41910357Y78549143D01*
X41867500Y78463429D01*
X41867500Y78334858D01*
X41910357Y78249143D01*
X41953214Y78206286D01*
X42038928Y78163429D01*
X42381785Y78163429D01*
X41696071Y77649143D02*
X41010357Y77649143D01*
X40367500Y77734858D02*
X40796071Y77734858D01*
X40796071Y78634858D01*
X40067500Y78206286D02*
X39767500Y78206286D01*
X39638928Y77734858D02*
X40067500Y77734858D01*
X40067500Y78634858D01*
X39638928Y78634858D01*
X39253214Y77734858D02*
X39253214Y78634858D01*
X39038928Y78634858D01*
X38910357Y78592000D01*
X38824642Y78506286D01*
X38781785Y78420572D01*
X38738928Y78249143D01*
X38738928Y78120572D01*
X38781785Y77949143D01*
X38824642Y77863429D01*
X38910357Y77777715D01*
X39038928Y77734858D01*
X39253214Y77734858D01*
X37196071Y77734858D02*
X37710357Y77734858D01*
X37453214Y77734858D02*
X37453214Y78634858D01*
X37538928Y78506286D01*
X37624642Y78420572D01*
X37710357Y78377715D01*
X36681785Y78249143D02*
X36767500Y78292000D01*
X36810357Y78334858D01*
X36853214Y78420572D01*
X36853214Y78463429D01*
X36810357Y78549143D01*
X36767500Y78592000D01*
X36681785Y78634858D01*
X36510357Y78634858D01*
X36424642Y78592000D01*
X36381785Y78549143D01*
X36338928Y78463429D01*
X36338928Y78420572D01*
X36381785Y78334858D01*
X36424642Y78292000D01*
X36510357Y78249143D01*
X36681785Y78249143D01*
X36767500Y78206286D01*
X36810357Y78163429D01*
X36853214Y78077715D01*
X36853214Y77906286D01*
X36810357Y77820572D01*
X36767500Y77777715D01*
X36681785Y77734858D01*
X36510357Y77734858D01*
X36424642Y77777715D01*
X36381785Y77820572D01*
X36338928Y77906286D01*
X36338928Y78077715D01*
X36381785Y78163429D01*
X36424642Y78206286D01*
X36510357Y78249143D01*
X43538928Y76285858D02*
X43838928Y76714429D01*
X44053214Y76285858D02*
X44053214Y77185858D01*
X43710357Y77185858D01*
X43624642Y77143000D01*
X43581785Y77100143D01*
X43538928Y77014429D01*
X43538928Y76885858D01*
X43581785Y76800143D01*
X43624642Y76757286D01*
X43710357Y76714429D01*
X44053214Y76714429D01*
X43153214Y76757286D02*
X42853214Y76757286D01*
X42724642Y76285858D02*
X43153214Y76285858D01*
X43153214Y77185858D01*
X42724642Y77185858D01*
X42381785Y76328715D02*
X42253214Y76285858D01*
X42038928Y76285858D01*
X41953214Y76328715D01*
X41910357Y76371572D01*
X41867500Y76457286D01*
X41867500Y76543000D01*
X41910357Y76628715D01*
X41953214Y76671572D01*
X42038928Y76714429D01*
X42210357Y76757286D01*
X42296071Y76800143D01*
X42338928Y76843000D01*
X42381785Y76928715D01*
X42381785Y77014429D01*
X42338928Y77100143D01*
X42296071Y77143000D01*
X42210357Y77185858D01*
X41996071Y77185858D01*
X41867500Y77143000D01*
X41481785Y76757286D02*
X41181785Y76757286D01*
X41053214Y76285858D02*
X41481785Y76285858D01*
X41481785Y77185858D01*
X41053214Y77185858D01*
X40796071Y77185858D02*
X40281785Y77185858D01*
X40538928Y76285858D02*
X40538928Y77185858D01*
X40196071Y76200143D02*
X39510357Y76200143D01*
X39296071Y76285858D02*
X39296071Y77185858D01*
X38781785Y76285858D01*
X38781785Y77185858D01*
X37710357Y77100143D02*
X37667500Y77143000D01*
X37581785Y77185858D01*
X37367500Y77185858D01*
X37281785Y77143000D01*
X37238928Y77100143D01*
X37196071Y77014429D01*
X37196071Y76928715D01*
X37238928Y76800143D01*
X37753214Y76285858D01*
X37196071Y76285858D01*
X36638928Y77185858D02*
X36553214Y77185858D01*
X36467500Y77143000D01*
X36424642Y77100143D01*
X36381785Y77014429D01*
X36338928Y76843000D01*
X36338928Y76628715D01*
X36381785Y76457286D01*
X36424642Y76371572D01*
X36467500Y76328715D01*
X36553214Y76285858D01*
X36638928Y76285858D01*
X36724642Y76328715D01*
X36767500Y76371572D01*
X36810357Y76457286D01*
X36853214Y76628715D01*
X36853214Y76843000D01*
X36810357Y77014429D01*
X36767500Y77100143D01*
X36724642Y77143000D01*
X36638928Y77185858D01*
X43410357Y75736858D02*
X43110357Y74836858D01*
X42810357Y75736858D01*
X42553214Y75094000D02*
X42124642Y75094000D01*
X42638928Y74836858D02*
X42338928Y75736858D01*
X42038928Y74836858D01*
X41738928Y74836858D02*
X41738928Y75736858D01*
X41524642Y75736858D01*
X41396071Y75694000D01*
X41310357Y75608286D01*
X41267500Y75522572D01*
X41224642Y75351143D01*
X41224642Y75222572D01*
X41267500Y75051143D01*
X41310357Y74965429D01*
X41396071Y74879715D01*
X41524642Y74836858D01*
X41738928Y74836858D01*
X40324642Y74922572D02*
X40367500Y74879715D01*
X40496071Y74836858D01*
X40581785Y74836858D01*
X40710357Y74879715D01*
X40796071Y74965429D01*
X40838928Y75051143D01*
X40881785Y75222572D01*
X40881785Y75351143D01*
X40838928Y75522572D01*
X40796071Y75608286D01*
X40710357Y75694000D01*
X40581785Y75736858D01*
X40496071Y75736858D01*
X40367500Y75694000D01*
X40324642Y75651143D01*
X40153214Y74751143D02*
X39467500Y74751143D01*
X39253214Y74836858D02*
X39253214Y75736858D01*
X38910357Y75736858D01*
X38824642Y75694000D01*
X38781785Y75651143D01*
X38738928Y75565429D01*
X38738928Y75436858D01*
X38781785Y75351143D01*
X38824642Y75308286D01*
X38910357Y75265429D01*
X39253214Y75265429D01*
X37710357Y75651143D02*
X37667500Y75694000D01*
X37581785Y75736858D01*
X37367500Y75736858D01*
X37281785Y75694000D01*
X37238928Y75651143D01*
X37196071Y75565429D01*
X37196071Y75479715D01*
X37238928Y75351143D01*
X37753214Y74836858D01*
X37196071Y74836858D01*
X36853214Y75651143D02*
X36810357Y75694000D01*
X36724642Y75736858D01*
X36510357Y75736858D01*
X36424642Y75694000D01*
X36381785Y75651143D01*
X36338928Y75565429D01*
X36338928Y75479715D01*
X36381785Y75351143D01*
X36896071Y74836858D01*
X36338928Y74836858D01*
X44096071Y74287858D02*
X43796071Y73387858D01*
X43496071Y74287858D01*
X43196071Y73387858D02*
X43196071Y74287858D01*
X42981785Y74287858D01*
X42853214Y74245000D01*
X42767500Y74159286D01*
X42724642Y74073572D01*
X42681785Y73902143D01*
X42681785Y73773572D01*
X42724642Y73602143D01*
X42767500Y73516429D01*
X42853214Y73430715D01*
X42981785Y73387858D01*
X43196071Y73387858D01*
X42296071Y73387858D02*
X42296071Y74287858D01*
X42081785Y74287858D01*
X41953214Y74245000D01*
X41867500Y74159286D01*
X41824642Y74073572D01*
X41781785Y73902143D01*
X41781785Y73773572D01*
X41824642Y73602143D01*
X41867500Y73516429D01*
X41953214Y73430715D01*
X42081785Y73387858D01*
X42296071Y73387858D01*
X41610357Y73302143D02*
X40924642Y73302143D01*
X40753214Y73645000D02*
X40324642Y73645000D01*
X40838928Y73387858D02*
X40538928Y74287858D01*
X40238928Y73387858D01*
X39938928Y73387858D02*
X39938928Y74287858D01*
X39724642Y74287858D01*
X39596071Y74245000D01*
X39510357Y74159286D01*
X39467500Y74073572D01*
X39424642Y73902143D01*
X39424642Y73773572D01*
X39467500Y73602143D01*
X39510357Y73516429D01*
X39596071Y73430715D01*
X39724642Y73387858D01*
X39938928Y73387858D01*
X38781785Y74287858D02*
X38781785Y73645000D01*
X38824642Y73516429D01*
X38910357Y73430715D01*
X39038928Y73387858D01*
X39124642Y73387858D01*
X37710357Y74202143D02*
X37667500Y74245000D01*
X37581785Y74287858D01*
X37367500Y74287858D01*
X37281785Y74245000D01*
X37238928Y74202143D01*
X37196071Y74116429D01*
X37196071Y74030715D01*
X37238928Y73902143D01*
X37753214Y73387858D01*
X37196071Y73387858D01*
X36424642Y73987858D02*
X36424642Y73387858D01*
X36638928Y74330715D02*
X36853214Y73687858D01*
X36296071Y73687858D01*
X44910357Y72838858D02*
X44610357Y71938858D01*
X44310357Y72838858D01*
X44010357Y71938858D02*
X44010357Y72838858D01*
X43796071Y72838858D01*
X43667500Y72796000D01*
X43581785Y72710286D01*
X43538928Y72624572D01*
X43496071Y72453143D01*
X43496071Y72324572D01*
X43538928Y72153143D01*
X43581785Y72067429D01*
X43667500Y71981715D01*
X43796071Y71938858D01*
X44010357Y71938858D01*
X43110357Y71938858D02*
X43110357Y72838858D01*
X42896071Y72838858D01*
X42767500Y72796000D01*
X42681785Y72710286D01*
X42638928Y72624572D01*
X42596071Y72453143D01*
X42596071Y72324572D01*
X42638928Y72153143D01*
X42681785Y72067429D01*
X42767500Y71981715D01*
X42896071Y71938858D01*
X43110357Y71938858D01*
X42424642Y71853143D02*
X41738928Y71853143D01*
X41053214Y72796000D02*
X41138928Y72838858D01*
X41267500Y72838858D01*
X41396071Y72796000D01*
X41481785Y72710286D01*
X41524642Y72624572D01*
X41567500Y72453143D01*
X41567500Y72324572D01*
X41524642Y72153143D01*
X41481785Y72067429D01*
X41396071Y71981715D01*
X41267500Y71938858D01*
X41181785Y71938858D01*
X41053214Y71981715D01*
X41010357Y72024572D01*
X41010357Y72324572D01*
X41181785Y72324572D01*
X40624642Y71938858D02*
X40624642Y72838858D01*
X40281785Y72838858D01*
X40196071Y72796000D01*
X40153214Y72753143D01*
X40110357Y72667429D01*
X40110357Y72538858D01*
X40153214Y72453143D01*
X40196071Y72410286D01*
X40281785Y72367429D01*
X40624642Y72367429D01*
X39724642Y71938858D02*
X39724642Y72838858D01*
X39124642Y72838858D02*
X38953214Y72838858D01*
X38867500Y72796000D01*
X38781785Y72710286D01*
X38738928Y72538858D01*
X38738928Y72238858D01*
X38781785Y72067429D01*
X38867500Y71981715D01*
X38953214Y71938858D01*
X39124642Y71938858D01*
X39210357Y71981715D01*
X39296071Y72067429D01*
X39338928Y72238858D01*
X39338928Y72538858D01*
X39296071Y72710286D01*
X39210357Y72796000D01*
X39124642Y72838858D01*
X37710357Y72753143D02*
X37667500Y72796000D01*
X37581785Y72838858D01*
X37367500Y72838858D01*
X37281785Y72796000D01*
X37238928Y72753143D01*
X37196071Y72667429D01*
X37196071Y72581715D01*
X37238928Y72453143D01*
X37753214Y71938858D01*
X37196071Y71938858D01*
X36424642Y72838858D02*
X36596071Y72838858D01*
X36681785Y72796000D01*
X36724642Y72753143D01*
X36810357Y72624572D01*
X36853214Y72453143D01*
X36853214Y72110286D01*
X36810357Y72024572D01*
X36767500Y71981715D01*
X36681785Y71938858D01*
X36510357Y71938858D01*
X36424642Y71981715D01*
X36381785Y72024572D01*
X36338928Y72110286D01*
X36338928Y72324572D01*
X36381785Y72410286D01*
X36424642Y72453143D01*
X36510357Y72496000D01*
X36681785Y72496000D01*
X36767500Y72453143D01*
X36810357Y72410286D01*
X36853214Y72324572D01*
D12*
X81527142Y85232858D02*
X81312857Y85161429D01*
X80955714Y85161429D01*
X80812857Y85232858D01*
X80741428Y85304286D01*
X80670000Y85447143D01*
X80670000Y85590000D01*
X80741428Y85732858D01*
X80812857Y85804286D01*
X80955714Y85875715D01*
X81241428Y85947143D01*
X81384285Y86018572D01*
X81455714Y86090000D01*
X81527142Y86232858D01*
X81527142Y86375715D01*
X81455714Y86518572D01*
X81384285Y86590000D01*
X81241428Y86661429D01*
X80884285Y86661429D01*
X80670000Y86590000D01*
X79741428Y85875715D02*
X79741428Y85161429D01*
X80241428Y86661429D02*
X79741428Y85875715D01*
X79241428Y86661429D01*
X78741428Y85161429D02*
X78741428Y86661429D01*
X77884285Y85161429D01*
X77884285Y86661429D01*
X76312857Y85304286D02*
X76384285Y85232858D01*
X76598571Y85161429D01*
X76741428Y85161429D01*
X76955714Y85232858D01*
X77098571Y85375715D01*
X77170000Y85518572D01*
X77241428Y85804286D01*
X77241428Y86018572D01*
X77170000Y86304286D01*
X77098571Y86447143D01*
X76955714Y86590000D01*
X76741428Y86661429D01*
X76598571Y86661429D01*
X76384285Y86590000D01*
X76312857Y86518572D01*
D10*
X31410476Y8187620D02*
X31981904Y8187620D01*
X31696190Y8187620D02*
X31696190Y9187620D01*
X31791428Y9044762D01*
X31886666Y8949524D01*
X31981904Y8901905D01*
X31077142Y9187620D02*
X30458095Y9187620D01*
X30791428Y8806667D01*
X30648571Y8806667D01*
X30553333Y8759048D01*
X30505714Y8711429D01*
X30458095Y8616191D01*
X30458095Y8378096D01*
X30505714Y8282858D01*
X30553333Y8235239D01*
X30648571Y8187620D01*
X30934285Y8187620D01*
X31029523Y8235239D01*
X31077142Y8282858D01*
D12*
X35917000Y56503000D02*
X36059857Y56574429D01*
X36274142Y56574429D01*
X36488428Y56503000D01*
X36631285Y56360143D01*
X36702714Y56217286D01*
X36774142Y55931572D01*
X36774142Y55717286D01*
X36702714Y55431572D01*
X36631285Y55288715D01*
X36488428Y55145858D01*
X36274142Y55074429D01*
X36131285Y55074429D01*
X35917000Y55145858D01*
X35845571Y55217286D01*
X35845571Y55717286D01*
X36131285Y55717286D01*
X35202714Y55074429D02*
X35202714Y56574429D01*
X34631285Y56574429D01*
X34488428Y56503000D01*
X34417000Y56431572D01*
X34345571Y56288715D01*
X34345571Y56074429D01*
X34417000Y55931572D01*
X34488428Y55860143D01*
X34631285Y55788715D01*
X35202714Y55788715D01*
X33702714Y55074429D02*
X33702714Y56574429D01*
X32702714Y56574429D02*
X32417000Y56574429D01*
X32274142Y56503000D01*
X32131285Y56360143D01*
X32059857Y56074429D01*
X32059857Y55574429D01*
X32131285Y55288715D01*
X32274142Y55145858D01*
X32417000Y55074429D01*
X32702714Y55074429D01*
X32845571Y55145858D01*
X32988428Y55288715D01*
X33059857Y55574429D01*
X33059857Y56074429D01*
X32988428Y56360143D01*
X32845571Y56503000D01*
X32702714Y56574429D01*
D11*
X70820000Y8940000D02*
X70896190Y8978096D01*
X71010476Y8978096D01*
X71124761Y8940000D01*
X71200952Y8863810D01*
X71239047Y8787620D01*
X71277142Y8635239D01*
X71277142Y8520953D01*
X71239047Y8368572D01*
X71200952Y8292381D01*
X71124761Y8216191D01*
X71010476Y8178096D01*
X70934285Y8178096D01*
X70820000Y8216191D01*
X70781904Y8254286D01*
X70781904Y8520953D01*
X70934285Y8520953D01*
X70439047Y8178096D02*
X70439047Y8978096D01*
X69981904Y8178096D01*
X69981904Y8978096D01*
X69600952Y8178096D02*
X69600952Y8978096D01*
X69410476Y8978096D01*
X69296190Y8940000D01*
X69220000Y8863810D01*
X69181904Y8787620D01*
X69143809Y8635239D01*
X69143809Y8520953D01*
X69181904Y8368572D01*
X69220000Y8292381D01*
X69296190Y8216191D01*
X69410476Y8178096D01*
X69600952Y8178096D01*
X68229523Y8216191D02*
X68115238Y8178096D01*
X67924761Y8178096D01*
X67848571Y8216191D01*
X67810476Y8254286D01*
X67772380Y8330477D01*
X67772380Y8406667D01*
X67810476Y8482858D01*
X67848571Y8520953D01*
X67924761Y8559048D01*
X68077142Y8597143D01*
X68153333Y8635239D01*
X68191428Y8673334D01*
X68229523Y8749524D01*
X68229523Y8825715D01*
X68191428Y8901905D01*
X68153333Y8940000D01*
X68077142Y8978096D01*
X67886666Y8978096D01*
X67772380Y8940000D01*
X66972380Y8254286D02*
X67010476Y8216191D01*
X67124761Y8178096D01*
X67200952Y8178096D01*
X67315238Y8216191D01*
X67391428Y8292381D01*
X67429523Y8368572D01*
X67467619Y8520953D01*
X67467619Y8635239D01*
X67429523Y8787620D01*
X67391428Y8863810D01*
X67315238Y8940000D01*
X67200952Y8978096D01*
X67124761Y8978096D01*
X67010476Y8940000D01*
X66972380Y8901905D01*
X66248571Y8178096D02*
X66629523Y8178096D01*
X66629523Y8978096D01*
X64991428Y8978096D02*
X65372380Y8978096D01*
X65410476Y8597143D01*
X65372380Y8635239D01*
X65296190Y8673334D01*
X65105714Y8673334D01*
X65029523Y8635239D01*
X64991428Y8597143D01*
X64953333Y8520953D01*
X64953333Y8330477D01*
X64991428Y8254286D01*
X65029523Y8216191D01*
X65105714Y8178096D01*
X65296190Y8178096D01*
X65372380Y8216191D01*
X65410476Y8254286D01*
X64724761Y8978096D02*
X64458095Y8178096D01*
X64191428Y8978096D01*
X63353333Y8216191D02*
X63239047Y8178096D01*
X63048571Y8178096D01*
X62972380Y8216191D01*
X62934285Y8254286D01*
X62896190Y8330477D01*
X62896190Y8406667D01*
X62934285Y8482858D01*
X62972380Y8520953D01*
X63048571Y8559048D01*
X63200952Y8597143D01*
X63277142Y8635239D01*
X63315238Y8673334D01*
X63353333Y8749524D01*
X63353333Y8825715D01*
X63315238Y8901905D01*
X63277142Y8940000D01*
X63200952Y8978096D01*
X63010476Y8978096D01*
X62896190Y8940000D01*
X62553333Y8178096D02*
X62553333Y8978096D01*
X62362857Y8978096D01*
X62248571Y8940000D01*
X62172380Y8863810D01*
X62134285Y8787620D01*
X62096190Y8635239D01*
X62096190Y8520953D01*
X62134285Y8368572D01*
X62172380Y8292381D01*
X62248571Y8216191D01*
X62362857Y8178096D01*
X62553333Y8178096D01*
X61791428Y8406667D02*
X61410476Y8406667D01*
X61867619Y8178096D02*
X61600952Y8978096D01*
X61334285Y8178096D01*
X60039047Y8940000D02*
X60115238Y8978096D01*
X60229523Y8978096D01*
X60343809Y8940000D01*
X60420000Y8863810D01*
X60458095Y8787620D01*
X60496190Y8635239D01*
X60496190Y8520953D01*
X60458095Y8368572D01*
X60420000Y8292381D01*
X60343809Y8216191D01*
X60229523Y8178096D01*
X60153333Y8178096D01*
X60039047Y8216191D01*
X60000952Y8254286D01*
X60000952Y8520953D01*
X60153333Y8520953D01*
X59658095Y8178096D02*
X59658095Y8978096D01*
X59200952Y8178096D01*
X59200952Y8978096D01*
X58820000Y8178096D02*
X58820000Y8978096D01*
X58629523Y8978096D01*
X58515238Y8940000D01*
X58439047Y8863810D01*
X58400952Y8787620D01*
X58362857Y8635239D01*
X58362857Y8520953D01*
X58400952Y8368572D01*
X58439047Y8292381D01*
X58515238Y8216191D01*
X58629523Y8178096D01*
X58820000Y8178096D01*
D10*
X46705714Y2097381D02*
X46658095Y2145000D01*
X46562857Y2192620D01*
X46324761Y2192620D01*
X46229523Y2145000D01*
X46181904Y2097381D01*
X46134285Y2002143D01*
X46134285Y1906905D01*
X46181904Y1764048D01*
X46753333Y1192620D01*
X46134285Y1192620D01*
X36510476Y1287620D02*
X37081904Y1287620D01*
X36796190Y1287620D02*
X36796190Y2287620D01*
X36891428Y2144762D01*
X36986666Y2049524D01*
X37081904Y2001905D01*
X35891428Y2287620D02*
X35796190Y2287620D01*
X35700952Y2240000D01*
X35653333Y2192381D01*
X35605714Y2097143D01*
X35558095Y1906667D01*
X35558095Y1668572D01*
X35605714Y1478096D01*
X35653333Y1382858D01*
X35700952Y1335239D01*
X35796190Y1287620D01*
X35891428Y1287620D01*
X35986666Y1335239D01*
X36034285Y1382858D01*
X36081904Y1478096D01*
X36129523Y1668572D01*
X36129523Y1906667D01*
X36081904Y2097143D01*
X36034285Y2192381D01*
X35986666Y2240000D01*
X35891428Y2287620D01*
D12*
X51512857Y9611429D02*
X51512857Y11111429D01*
X50941428Y11111429D01*
X50798571Y11040000D01*
X50727142Y10968572D01*
X50655714Y10825715D01*
X50655714Y10611429D01*
X50727142Y10468572D01*
X50798571Y10397143D01*
X50941428Y10325715D01*
X51512857Y10325715D01*
X49441428Y9682858D02*
X49584285Y9611429D01*
X49870000Y9611429D01*
X50012857Y9682858D01*
X50084285Y9825715D01*
X50084285Y10397143D01*
X50012857Y10540000D01*
X49870000Y10611429D01*
X49584285Y10611429D01*
X49441428Y10540000D01*
X49370000Y10397143D01*
X49370000Y10254286D01*
X50084285Y10111429D01*
X48727142Y9611429D02*
X48727142Y10611429D01*
X48727142Y10325715D02*
X48655714Y10468572D01*
X48584285Y10540000D01*
X48441428Y10611429D01*
X48298571Y10611429D01*
X47798571Y9611429D02*
X47798571Y10611429D01*
X47798571Y11111429D02*
X47870000Y11040000D01*
X47798571Y10968572D01*
X47727142Y11040000D01*
X47798571Y11111429D01*
X47798571Y10968572D01*
X47084285Y10611429D02*
X47084285Y9111429D01*
X47084285Y10540000D02*
X46941428Y10611429D01*
X46655714Y10611429D01*
X46512857Y10540000D01*
X46441428Y10468572D01*
X46370000Y10325715D01*
X46370000Y9897143D01*
X46441428Y9754286D01*
X46512857Y9682858D01*
X46655714Y9611429D01*
X46941428Y9611429D01*
X47084285Y9682858D01*
X45727142Y9611429D02*
X45727142Y11111429D01*
X45084285Y9611429D02*
X45084285Y10397143D01*
X45155714Y10540000D01*
X45298571Y10611429D01*
X45512857Y10611429D01*
X45655714Y10540000D01*
X45727142Y10468572D01*
X43798571Y9682858D02*
X43941428Y9611429D01*
X44227142Y9611429D01*
X44370000Y9682858D01*
X44441428Y9825715D01*
X44441428Y10397143D01*
X44370000Y10540000D01*
X44227142Y10611429D01*
X43941428Y10611429D01*
X43798571Y10540000D01*
X43727142Y10397143D01*
X43727142Y10254286D01*
X44441428Y10111429D01*
X43084285Y9611429D02*
X43084285Y10611429D01*
X43084285Y10325715D02*
X43012857Y10468572D01*
X42941428Y10540000D01*
X42798571Y10611429D01*
X42655714Y10611429D01*
X41512857Y9611429D02*
X41512857Y10397143D01*
X41584285Y10540000D01*
X41727142Y10611429D01*
X42012857Y10611429D01*
X42155714Y10540000D01*
X41512857Y9682858D02*
X41655714Y9611429D01*
X42012857Y9611429D01*
X42155714Y9682858D01*
X42227142Y9825715D01*
X42227142Y9968572D01*
X42155714Y10111429D01*
X42012857Y10182858D01*
X41655714Y10182858D01*
X41512857Y10254286D01*
X40584285Y9611429D02*
X40727142Y9682858D01*
X40798571Y9825715D01*
X40798571Y11111429D01*
D10*
X26210476Y7987620D02*
X26781904Y7987620D01*
X26496190Y7987620D02*
X26496190Y8987620D01*
X26591428Y8844762D01*
X26686666Y8749524D01*
X26781904Y8701905D01*
X25877142Y8987620D02*
X25210476Y8987620D01*
X25639047Y7987620D01*
D12*
X79820000Y9611429D02*
X79820000Y11111429D01*
X79248571Y11111429D01*
X79105714Y11040000D01*
X79034285Y10968572D01*
X78962857Y10825715D01*
X78962857Y10611429D01*
X79034285Y10468572D01*
X79105714Y10397143D01*
X79248571Y10325715D01*
X79820000Y10325715D01*
X78462857Y11111429D02*
X78105714Y9611429D01*
X77820000Y10682858D01*
X77534285Y9611429D01*
X77177142Y11111429D01*
X75748571Y9611429D02*
X76248571Y10325715D01*
X76605714Y9611429D02*
X76605714Y11111429D01*
X76034285Y11111429D01*
X75891428Y11040000D01*
X75820000Y10968572D01*
X75748571Y10825715D01*
X75748571Y10611429D01*
X75820000Y10468572D01*
X75891428Y10397143D01*
X76034285Y10325715D01*
X76605714Y10325715D01*
D13*
X43522380Y91701905D02*
X43522380Y93001905D01*
X43027142Y93001905D01*
X42903333Y92940000D01*
X42841428Y92878096D01*
X42779523Y92754286D01*
X42779523Y92568572D01*
X42841428Y92444762D01*
X42903333Y92382858D01*
X43027142Y92320953D01*
X43522380Y92320953D01*
X41727142Y91763810D02*
X41850952Y91701905D01*
X42098571Y91701905D01*
X42222380Y91763810D01*
X42284285Y91887620D01*
X42284285Y92382858D01*
X42222380Y92506667D01*
X42098571Y92568572D01*
X41850952Y92568572D01*
X41727142Y92506667D01*
X41665238Y92382858D01*
X41665238Y92259048D01*
X42284285Y92135239D01*
X41108095Y91701905D02*
X41108095Y92568572D01*
X41108095Y92320953D02*
X41046190Y92444762D01*
X40984285Y92506667D01*
X40860476Y92568572D01*
X40736666Y92568572D01*
X40303333Y91701905D02*
X40303333Y92568572D01*
X40303333Y93001905D02*
X40365238Y92940000D01*
X40303333Y92878096D01*
X40241428Y92940000D01*
X40303333Y93001905D01*
X40303333Y92878096D01*
X39684285Y92568572D02*
X39684285Y91268572D01*
X39684285Y92506667D02*
X39560476Y92568572D01*
X39312857Y92568572D01*
X39189047Y92506667D01*
X39127142Y92444762D01*
X39065238Y92320953D01*
X39065238Y91949524D01*
X39127142Y91825715D01*
X39189047Y91763810D01*
X39312857Y91701905D01*
X39560476Y91701905D01*
X39684285Y91763810D01*
X38508095Y91701905D02*
X38508095Y93001905D01*
X37950952Y91701905D02*
X37950952Y92382858D01*
X38012857Y92506667D01*
X38136666Y92568572D01*
X38322380Y92568572D01*
X38446190Y92506667D01*
X38508095Y92444762D01*
X36836666Y91763810D02*
X36960476Y91701905D01*
X37208095Y91701905D01*
X37331904Y91763810D01*
X37393809Y91887620D01*
X37393809Y92382858D01*
X37331904Y92506667D01*
X37208095Y92568572D01*
X36960476Y92568572D01*
X36836666Y92506667D01*
X36774761Y92382858D01*
X36774761Y92259048D01*
X37393809Y92135239D01*
X36217619Y91701905D02*
X36217619Y92568572D01*
X36217619Y92320953D02*
X36155714Y92444762D01*
X36093809Y92506667D01*
X35970000Y92568572D01*
X35846190Y92568572D01*
X34855714Y91701905D02*
X34855714Y92382858D01*
X34917619Y92506667D01*
X35041428Y92568572D01*
X35289047Y92568572D01*
X35412857Y92506667D01*
X34855714Y91763810D02*
X34979523Y91701905D01*
X35289047Y91701905D01*
X35412857Y91763810D01*
X35474761Y91887620D01*
X35474761Y92011429D01*
X35412857Y92135239D01*
X35289047Y92197143D01*
X34979523Y92197143D01*
X34855714Y92259048D01*
X34050952Y91701905D02*
X34174761Y91763810D01*
X34236666Y91887620D01*
X34236666Y93001905D01*
X32565238Y92568572D02*
X32565238Y91268572D01*
X32565238Y92506667D02*
X32441428Y92568572D01*
X32193809Y92568572D01*
X32070000Y92506667D01*
X32008095Y92444762D01*
X31946190Y92320953D01*
X31946190Y91949524D01*
X32008095Y91825715D01*
X32070000Y91763810D01*
X32193809Y91701905D01*
X32441428Y91701905D01*
X32565238Y91763810D01*
X31389047Y91701905D02*
X31389047Y92568572D01*
X31389047Y93001905D02*
X31450952Y92940000D01*
X31389047Y92878096D01*
X31327142Y92940000D01*
X31389047Y93001905D01*
X31389047Y92878096D01*
X30770000Y92568572D02*
X30770000Y91701905D01*
X30770000Y92444762D02*
X30708095Y92506667D01*
X30584285Y92568572D01*
X30398571Y92568572D01*
X30274761Y92506667D01*
X30212857Y92382858D01*
X30212857Y91701905D01*
X29408095Y91701905D02*
X29531904Y91763810D01*
X29593809Y91825715D01*
X29655714Y91949524D01*
X29655714Y92320953D01*
X29593809Y92444762D01*
X29531904Y92506667D01*
X29408095Y92568572D01*
X29222380Y92568572D01*
X29098571Y92506667D01*
X29036666Y92444762D01*
X28974761Y92320953D01*
X28974761Y91949524D01*
X29036666Y91825715D01*
X29098571Y91763810D01*
X29222380Y91701905D01*
X29408095Y91701905D01*
X27860476Y92568572D02*
X27860476Y91701905D01*
X28417619Y92568572D02*
X28417619Y91887620D01*
X28355714Y91763810D01*
X28231904Y91701905D01*
X28046190Y91701905D01*
X27922380Y91763810D01*
X27860476Y91825715D01*
X27427142Y92568572D02*
X26931904Y92568572D01*
X27241428Y93001905D02*
X27241428Y91887620D01*
X27179523Y91763810D01*
X27055714Y91701905D01*
X26931904Y91701905D01*
D10*
X90279642Y91559286D02*
X90089166Y90892620D01*
X89898690Y91368810D01*
X89708214Y90892620D01*
X89517738Y91559286D01*
X89232023Y91559286D02*
X89041547Y90892620D01*
X88851071Y91368810D01*
X88660595Y90892620D01*
X88470119Y91559286D01*
X88184404Y91559286D02*
X87993928Y90892620D01*
X87803452Y91368810D01*
X87612976Y90892620D01*
X87422500Y91559286D01*
X87041547Y90987858D02*
X86993928Y90940239D01*
X87041547Y90892620D01*
X87089166Y90940239D01*
X87041547Y90987858D01*
X87041547Y90892620D01*
X86565357Y90892620D02*
X86565357Y91559286D01*
X86565357Y91464048D02*
X86517738Y91511667D01*
X86422500Y91559286D01*
X86279642Y91559286D01*
X86184404Y91511667D01*
X86136785Y91416429D01*
X86136785Y90892620D01*
X86136785Y91416429D02*
X86089166Y91511667D01*
X85993928Y91559286D01*
X85851071Y91559286D01*
X85755833Y91511667D01*
X85708214Y91416429D01*
X85708214Y90892620D01*
X85089166Y90892620D02*
X85184404Y90940239D01*
X85232023Y91035477D01*
X85232023Y91892620D01*
X84279642Y90892620D02*
X84279642Y91416429D01*
X84327261Y91511667D01*
X84422500Y91559286D01*
X84612976Y91559286D01*
X84708214Y91511667D01*
X84279642Y90940239D02*
X84374880Y90892620D01*
X84612976Y90892620D01*
X84708214Y90940239D01*
X84755833Y91035477D01*
X84755833Y91130715D01*
X84708214Y91225953D01*
X84612976Y91273572D01*
X84374880Y91273572D01*
X84279642Y91321191D01*
X83803452Y90892620D02*
X83803452Y91892620D01*
X83803452Y91511667D02*
X83708214Y91559286D01*
X83517738Y91559286D01*
X83422500Y91511667D01*
X83374880Y91464048D01*
X83327261Y91368810D01*
X83327261Y91083096D01*
X83374880Y90987858D01*
X83422500Y90940239D01*
X83517738Y90892620D01*
X83708214Y90892620D01*
X83803452Y90940239D01*
X82898690Y90987858D02*
X82851071Y90940239D01*
X82898690Y90892620D01*
X82946309Y90940239D01*
X82898690Y90987858D01*
X82898690Y90892620D01*
X81993928Y90940239D02*
X82089166Y90892620D01*
X82279642Y90892620D01*
X82374880Y90940239D01*
X82422500Y90987858D01*
X82470119Y91083096D01*
X82470119Y91368810D01*
X82422500Y91464048D01*
X82374880Y91511667D01*
X82279642Y91559286D01*
X82089166Y91559286D01*
X81993928Y91511667D01*
X81660595Y91559286D02*
X81136785Y91559286D01*
X81660595Y90892620D01*
X81136785Y90892620D01*
X90232023Y90187381D02*
X90184404Y90235000D01*
X90089166Y90282620D01*
X89851071Y90282620D01*
X89755833Y90235000D01*
X89708214Y90187381D01*
X89660595Y90092143D01*
X89660595Y89996905D01*
X89708214Y89854048D01*
X90279642Y89282620D01*
X89660595Y89282620D01*
X89041547Y90282620D02*
X88946309Y90282620D01*
X88851071Y90235000D01*
X88803452Y90187381D01*
X88755833Y90092143D01*
X88708214Y89901667D01*
X88708214Y89663572D01*
X88755833Y89473096D01*
X88803452Y89377858D01*
X88851071Y89330239D01*
X88946309Y89282620D01*
X89041547Y89282620D01*
X89136785Y89330239D01*
X89184404Y89377858D01*
X89232023Y89473096D01*
X89279642Y89663572D01*
X89279642Y89901667D01*
X89232023Y90092143D01*
X89184404Y90187381D01*
X89136785Y90235000D01*
X89041547Y90282620D01*
X88327261Y90187381D02*
X88279642Y90235000D01*
X88184404Y90282620D01*
X87946309Y90282620D01*
X87851071Y90235000D01*
X87803452Y90187381D01*
X87755833Y90092143D01*
X87755833Y89996905D01*
X87803452Y89854048D01*
X88374880Y89282620D01*
X87755833Y89282620D01*
X87374880Y90187381D02*
X87327261Y90235000D01*
X87232023Y90282620D01*
X86993928Y90282620D01*
X86898690Y90235000D01*
X86851071Y90187381D01*
X86803452Y90092143D01*
X86803452Y89996905D01*
X86851071Y89854048D01*
X87422500Y89282620D01*
X86803452Y89282620D01*
X90389047Y93087620D02*
X90389047Y94087620D01*
X90055714Y93373334D01*
X89722380Y94087620D01*
X89722380Y93087620D01*
X88865238Y93135239D02*
X88960476Y93087620D01*
X89150952Y93087620D01*
X89246190Y93135239D01*
X89293809Y93230477D01*
X89293809Y93611429D01*
X89246190Y93706667D01*
X89150952Y93754286D01*
X88960476Y93754286D01*
X88865238Y93706667D01*
X88817619Y93611429D01*
X88817619Y93516191D01*
X89293809Y93420953D01*
X87960476Y93135239D02*
X88055714Y93087620D01*
X88246190Y93087620D01*
X88341428Y93135239D01*
X88389047Y93182858D01*
X88436666Y93278096D01*
X88436666Y93563810D01*
X88389047Y93659048D01*
X88341428Y93706667D01*
X88246190Y93754286D01*
X88055714Y93754286D01*
X87960476Y93706667D01*
X87531904Y93087620D02*
X87531904Y94087620D01*
X87103333Y93087620D02*
X87103333Y93611429D01*
X87150952Y93706667D01*
X87246190Y93754286D01*
X87389047Y93754286D01*
X87484285Y93706667D01*
X87531904Y93659048D01*
X86198571Y93087620D02*
X86198571Y93611429D01*
X86246190Y93706667D01*
X86341428Y93754286D01*
X86531904Y93754286D01*
X86627142Y93706667D01*
X86198571Y93135239D02*
X86293809Y93087620D01*
X86531904Y93087620D01*
X86627142Y93135239D01*
X86674761Y93230477D01*
X86674761Y93325715D01*
X86627142Y93420953D01*
X86531904Y93468572D01*
X86293809Y93468572D01*
X86198571Y93516191D01*
X85722380Y93754286D02*
X85722380Y93087620D01*
X85722380Y93659048D02*
X85674761Y93706667D01*
X85579523Y93754286D01*
X85436666Y93754286D01*
X85341428Y93706667D01*
X85293809Y93611429D01*
X85293809Y93087620D01*
X84817619Y93087620D02*
X84817619Y93754286D01*
X84817619Y94087620D02*
X84865238Y94040000D01*
X84817619Y93992381D01*
X84770000Y94040000D01*
X84817619Y94087620D01*
X84817619Y93992381D01*
X83912857Y93135239D02*
X84008095Y93087620D01*
X84198571Y93087620D01*
X84293809Y93135239D01*
X84341428Y93182858D01*
X84389047Y93278096D01*
X84389047Y93563810D01*
X84341428Y93659048D01*
X84293809Y93706667D01*
X84198571Y93754286D01*
X84008095Y93754286D01*
X83912857Y93706667D01*
X83055714Y93087620D02*
X83055714Y93611429D01*
X83103333Y93706667D01*
X83198571Y93754286D01*
X83389047Y93754286D01*
X83484285Y93706667D01*
X83055714Y93135239D02*
X83150952Y93087620D01*
X83389047Y93087620D01*
X83484285Y93135239D01*
X83531904Y93230477D01*
X83531904Y93325715D01*
X83484285Y93420953D01*
X83389047Y93468572D01*
X83150952Y93468572D01*
X83055714Y93516191D01*
X82436666Y93087620D02*
X82531904Y93135239D01*
X82579523Y93230477D01*
X82579523Y94087620D01*
X81293809Y93087620D02*
X81293809Y94087620D01*
X80912857Y94087620D01*
X80817619Y94040000D01*
X80770000Y93992381D01*
X80722380Y93897143D01*
X80722380Y93754286D01*
X80770000Y93659048D01*
X80817619Y93611429D01*
X80912857Y93563810D01*
X81293809Y93563810D01*
X79865238Y93087620D02*
X79865238Y93611429D01*
X79912857Y93706667D01*
X80008095Y93754286D01*
X80198571Y93754286D01*
X80293809Y93706667D01*
X79865238Y93135239D02*
X79960476Y93087620D01*
X80198571Y93087620D01*
X80293809Y93135239D01*
X80341428Y93230477D01*
X80341428Y93325715D01*
X80293809Y93420953D01*
X80198571Y93468572D01*
X79960476Y93468572D01*
X79865238Y93516191D01*
X79389047Y93087620D02*
X79389047Y93754286D01*
X79389047Y93563810D02*
X79341428Y93659048D01*
X79293809Y93706667D01*
X79198571Y93754286D01*
X79103333Y93754286D01*
X78341428Y93087620D02*
X78341428Y93611429D01*
X78389047Y93706667D01*
X78484285Y93754286D01*
X78674761Y93754286D01*
X78770000Y93706667D01*
X78341428Y93135239D02*
X78436666Y93087620D01*
X78674761Y93087620D01*
X78770000Y93135239D01*
X78817619Y93230477D01*
X78817619Y93325715D01*
X78770000Y93420953D01*
X78674761Y93468572D01*
X78436666Y93468572D01*
X78341428Y93516191D01*
X77722380Y93087620D02*
X77817619Y93135239D01*
X77865238Y93230477D01*
X77865238Y94087620D01*
X77198571Y93087620D02*
X77293809Y93135239D01*
X77341428Y93230477D01*
X77341428Y94087620D01*
X76436666Y93135239D02*
X76531904Y93087620D01*
X76722380Y93087620D01*
X76817619Y93135239D01*
X76865238Y93230477D01*
X76865238Y93611429D01*
X76817619Y93706667D01*
X76722380Y93754286D01*
X76531904Y93754286D01*
X76436666Y93706667D01*
X76389047Y93611429D01*
X76389047Y93516191D01*
X76865238Y93420953D01*
X75817619Y93087620D02*
X75912857Y93135239D01*
X75960476Y93230477D01*
X75960476Y94087620D01*
X75293809Y93087620D02*
X75389047Y93135239D01*
X75436666Y93230477D01*
X75436666Y94087620D01*
X74484285Y93087620D02*
X74484285Y93611429D01*
X74531904Y93706667D01*
X74627142Y93754286D01*
X74817619Y93754286D01*
X74912857Y93706667D01*
X74484285Y93135239D02*
X74579523Y93087620D01*
X74817619Y93087620D01*
X74912857Y93135239D01*
X74960476Y93230477D01*
X74960476Y93325715D01*
X74912857Y93420953D01*
X74817619Y93468572D01*
X74579523Y93468572D01*
X74484285Y93516191D01*
X73246190Y93754286D02*
X73246190Y92754286D01*
X73246190Y93706667D02*
X73150952Y93754286D01*
X72960476Y93754286D01*
X72865238Y93706667D01*
X72817619Y93659048D01*
X72770000Y93563810D01*
X72770000Y93278096D01*
X72817619Y93182858D01*
X72865238Y93135239D01*
X72960476Y93087620D01*
X73150952Y93087620D01*
X73246190Y93135239D01*
X71960476Y93135239D02*
X72055714Y93087620D01*
X72246190Y93087620D01*
X72341428Y93135239D01*
X72389047Y93230477D01*
X72389047Y93611429D01*
X72341428Y93706667D01*
X72246190Y93754286D01*
X72055714Y93754286D01*
X71960476Y93706667D01*
X71912857Y93611429D01*
X71912857Y93516191D01*
X72389047Y93420953D01*
X71484285Y93087620D02*
X71484285Y93754286D01*
X71484285Y93563810D02*
X71436666Y93659048D01*
X71389047Y93706667D01*
X71293809Y93754286D01*
X71198571Y93754286D01*
X70865238Y93087620D02*
X70865238Y93754286D01*
X70865238Y94087620D02*
X70912857Y94040000D01*
X70865238Y93992381D01*
X70817619Y94040000D01*
X70865238Y94087620D01*
X70865238Y93992381D01*
X70389047Y93754286D02*
X70389047Y92754286D01*
X70389047Y93706667D02*
X70293809Y93754286D01*
X70103333Y93754286D01*
X70008095Y93706667D01*
X69960476Y93659048D01*
X69912857Y93563810D01*
X69912857Y93278096D01*
X69960476Y93182858D01*
X70008095Y93135239D01*
X70103333Y93087620D01*
X70293809Y93087620D01*
X70389047Y93135239D01*
X69484285Y93087620D02*
X69484285Y94087620D01*
X69055714Y93087620D02*
X69055714Y93611429D01*
X69103333Y93706667D01*
X69198571Y93754286D01*
X69341428Y93754286D01*
X69436666Y93706667D01*
X69484285Y93659048D01*
X68198571Y93135239D02*
X68293809Y93087620D01*
X68484285Y93087620D01*
X68579523Y93135239D01*
X68627142Y93230477D01*
X68627142Y93611429D01*
X68579523Y93706667D01*
X68484285Y93754286D01*
X68293809Y93754286D01*
X68198571Y93706667D01*
X68150952Y93611429D01*
X68150952Y93516191D01*
X68627142Y93420953D01*
X67722380Y93087620D02*
X67722380Y93754286D01*
X67722380Y93563810D02*
X67674761Y93659048D01*
X67627142Y93706667D01*
X67531904Y93754286D01*
X67436666Y93754286D01*
X66674761Y93087620D02*
X66674761Y93611429D01*
X66722380Y93706667D01*
X66817619Y93754286D01*
X67008095Y93754286D01*
X67103333Y93706667D01*
X66674761Y93135239D02*
X66770000Y93087620D01*
X67008095Y93087620D01*
X67103333Y93135239D01*
X67150952Y93230477D01*
X67150952Y93325715D01*
X67103333Y93420953D01*
X67008095Y93468572D01*
X66770000Y93468572D01*
X66674761Y93516191D01*
X66055714Y93087620D02*
X66150952Y93135239D01*
X66198571Y93230477D01*
X66198571Y94087620D01*
X64912857Y93087620D02*
X64912857Y94087620D01*
X64912857Y93706667D02*
X64817619Y93754286D01*
X64627142Y93754286D01*
X64531904Y93706667D01*
X64484285Y93659048D01*
X64436666Y93563810D01*
X64436666Y93278096D01*
X64484285Y93182858D01*
X64531904Y93135239D01*
X64627142Y93087620D01*
X64817619Y93087620D01*
X64912857Y93135239D01*
X63865238Y93087620D02*
X63960476Y93135239D01*
X64008095Y93182858D01*
X64055714Y93278096D01*
X64055714Y93563810D01*
X64008095Y93659048D01*
X63960476Y93706667D01*
X63865238Y93754286D01*
X63722380Y93754286D01*
X63627142Y93706667D01*
X63579523Y93659048D01*
X63531904Y93563810D01*
X63531904Y93278096D01*
X63579523Y93182858D01*
X63627142Y93135239D01*
X63722380Y93087620D01*
X63865238Y93087620D01*
X62674761Y93087620D02*
X62674761Y93611429D01*
X62722380Y93706667D01*
X62817619Y93754286D01*
X63008095Y93754286D01*
X63103333Y93706667D01*
X62674761Y93135239D02*
X62770000Y93087620D01*
X63008095Y93087620D01*
X63103333Y93135239D01*
X63150952Y93230477D01*
X63150952Y93325715D01*
X63103333Y93420953D01*
X63008095Y93468572D01*
X62770000Y93468572D01*
X62674761Y93516191D01*
X62198571Y93087620D02*
X62198571Y93754286D01*
X62198571Y93563810D02*
X62150952Y93659048D01*
X62103333Y93706667D01*
X62008095Y93754286D01*
X61912857Y93754286D01*
X61150952Y93087620D02*
X61150952Y94087620D01*
X61150952Y93135239D02*
X61246190Y93087620D01*
X61436666Y93087620D01*
X61531904Y93135239D01*
X61579523Y93182858D01*
X61627142Y93278096D01*
X61627142Y93563810D01*
X61579523Y93659048D01*
X61531904Y93706667D01*
X61436666Y93754286D01*
X61246190Y93754286D01*
X61150952Y93706667D01*
X46134285Y7987620D02*
X46705714Y7987620D01*
X46420000Y7987620D02*
X46420000Y8987620D01*
X46515238Y8844762D01*
X46610476Y8749524D01*
X46705714Y8701905D01*
X36510476Y8087620D02*
X36320000Y8087620D01*
X36224761Y8135239D01*
X36177142Y8182858D01*
X36081904Y8325715D01*
X36034285Y8516191D01*
X36034285Y8897143D01*
X36081904Y8992381D01*
X36129523Y9040000D01*
X36224761Y9087620D01*
X36415238Y9087620D01*
X36510476Y9040000D01*
X36558095Y8992381D01*
X36605714Y8897143D01*
X36605714Y8659048D01*
X36558095Y8563810D01*
X36510476Y8516191D01*
X36415238Y8468572D01*
X36224761Y8468572D01*
X36129523Y8516191D01*
X36081904Y8563810D01*
X36034285Y8659048D01*
X31410476Y1287620D02*
X31981904Y1287620D01*
X31696190Y1287620D02*
X31696190Y2287620D01*
X31791428Y2144762D01*
X31886666Y2049524D01*
X31981904Y2001905D01*
X30553333Y1954286D02*
X30553333Y1287620D01*
X30791428Y2335239D02*
X31029523Y1620953D01*
X30410476Y1620953D01*
D11*
%TO.C,P7*%
X45058095Y787620D02*
X45058095Y1787620D01*
X44677142Y1787620D01*
X44581904Y1740000D01*
X44534285Y1692381D01*
X44486666Y1597143D01*
X44486666Y1454286D01*
X44534285Y1359048D01*
X44581904Y1311429D01*
X44677142Y1263810D01*
X45058095Y1263810D01*
X44153333Y1787620D02*
X43486666Y1787620D01*
X43915238Y787620D01*
D14*
X46686190Y7818143D02*
X46686190Y8103858D01*
X46686190Y7961000D02*
X46186190Y7961000D01*
X46257619Y8008620D01*
X46305238Y8056239D01*
X46329047Y8103858D01*
D11*
%TO.C,P11*%
X70834285Y787620D02*
X70834285Y1787620D01*
X70453333Y1787620D01*
X70358095Y1740000D01*
X70310476Y1692381D01*
X70262857Y1597143D01*
X70262857Y1454286D01*
X70310476Y1359048D01*
X70358095Y1311429D01*
X70453333Y1263810D01*
X70834285Y1263810D01*
X69310476Y787620D02*
X69881904Y787620D01*
X69596190Y787620D02*
X69596190Y1787620D01*
X69691428Y1644762D01*
X69786666Y1549524D01*
X69881904Y1501905D01*
X68358095Y787620D02*
X68929523Y787620D01*
X68643809Y787620D02*
X68643809Y1787620D01*
X68739047Y1644762D01*
X68834285Y1549524D01*
X68929523Y1501905D01*
D15*
%TO.C,P1*%
X46459986Y62591527D02*
X45570986Y62591527D01*
X45570986Y62252860D01*
X45613320Y62168194D01*
X45655653Y62125860D01*
X45740320Y62083527D01*
X45867320Y62083527D01*
X45951986Y62125860D01*
X45994320Y62168194D01*
X46036653Y62252860D01*
X46036653Y62591527D01*
X46459986Y61236860D02*
X46459986Y61744860D01*
X46459986Y61490860D02*
X45570986Y61490860D01*
X45697986Y61575527D01*
X45782653Y61660194D01*
X45824986Y61744860D01*
X41740666Y62039500D02*
X41613666Y61997167D01*
X41571333Y61954834D01*
X41529000Y61870167D01*
X41529000Y61743167D01*
X41571333Y61658500D01*
X41613666Y61616167D01*
X41698333Y61573834D01*
X42037000Y61573834D01*
X42037000Y62462834D01*
X41740666Y62462834D01*
X41656000Y62420500D01*
X41613666Y62378167D01*
X41571333Y62293500D01*
X41571333Y62208834D01*
X41613666Y62124167D01*
X41656000Y62081834D01*
X41740666Y62039500D01*
X42037000Y62039500D01*
X41275000Y62462834D02*
X40767000Y62462834D01*
X41021000Y61573834D02*
X41021000Y62462834D01*
X40470666Y61573834D02*
X40470666Y62462834D01*
X40470666Y62039500D02*
X39962666Y62039500D01*
X39962666Y61573834D02*
X39962666Y62462834D01*
X39539333Y61912500D02*
X38862000Y61912500D01*
X38269333Y62462834D02*
X38184666Y62462834D01*
X38100000Y62420500D01*
X38057666Y62378167D01*
X38015333Y62293500D01*
X37973000Y62124167D01*
X37973000Y61912500D01*
X38015333Y61743167D01*
X38057666Y61658500D01*
X38100000Y61616167D01*
X38184666Y61573834D01*
X38269333Y61573834D01*
X38354000Y61616167D01*
X38396333Y61658500D01*
X38438666Y61743167D01*
X38481000Y61912500D01*
X38481000Y62124167D01*
X38438666Y62293500D01*
X38396333Y62378167D01*
X38354000Y62420500D01*
X38269333Y62462834D01*
X37676666Y62462834D02*
X37126333Y62462834D01*
X37422666Y62124167D01*
X37295666Y62124167D01*
X37211000Y62081834D01*
X37168666Y62039500D01*
X37126333Y61954834D01*
X37126333Y61743167D01*
X37168666Y61658500D01*
X37211000Y61616167D01*
X37295666Y61573834D01*
X37549666Y61573834D01*
X37634333Y61616167D01*
X37676666Y61658500D01*
X36576000Y62462834D02*
X36491333Y62462834D01*
X36406666Y62420500D01*
X36364333Y62378167D01*
X36322000Y62293500D01*
X36279666Y62124167D01*
X36279666Y61912500D01*
X36322000Y61743167D01*
X36364333Y61658500D01*
X36406666Y61616167D01*
X36491333Y61573834D01*
X36576000Y61573834D01*
X36660666Y61616167D01*
X36703000Y61658500D01*
X36745333Y61743167D01*
X36787666Y61912500D01*
X36787666Y62124167D01*
X36745333Y62293500D01*
X36703000Y62378167D01*
X36660666Y62420500D01*
X36576000Y62462834D01*
X35898666Y61912500D02*
X35221333Y61912500D01*
X34628666Y62462834D02*
X34544000Y62462834D01*
X34459333Y62420500D01*
X34417000Y62378167D01*
X34374666Y62293500D01*
X34332333Y62124167D01*
X34332333Y61912500D01*
X34374666Y61743167D01*
X34417000Y61658500D01*
X34459333Y61616167D01*
X34544000Y61573834D01*
X34628666Y61573834D01*
X34713333Y61616167D01*
X34755666Y61658500D01*
X34798000Y61743167D01*
X34840333Y61912500D01*
X34840333Y62124167D01*
X34798000Y62293500D01*
X34755666Y62378167D01*
X34713333Y62420500D01*
X34628666Y62462834D01*
X33485666Y61573834D02*
X33993666Y61573834D01*
X33739666Y61573834D02*
X33739666Y62462834D01*
X33824333Y62335834D01*
X33909000Y62251167D01*
X33993666Y62208834D01*
X33104666Y61912500D02*
X32427333Y61912500D01*
X31707666Y62039500D02*
X32004000Y62039500D01*
X32004000Y61573834D02*
X32004000Y62462834D01*
X31580666Y62462834D01*
X31242000Y61912500D02*
X30564666Y61912500D01*
X30141333Y61573834D02*
X30141333Y62462834D01*
X29929666Y62462834D01*
X29802666Y62420500D01*
X29718000Y62335834D01*
X29675666Y62251167D01*
X29633333Y62081834D01*
X29633333Y61954834D01*
X29675666Y61785500D01*
X29718000Y61700834D01*
X29802666Y61616167D01*
X29929666Y61573834D01*
X30141333Y61573834D01*
X29252333Y61912500D02*
X28575000Y61912500D01*
X28194000Y61827834D02*
X27770666Y61827834D01*
X28278666Y61573834D02*
X27982333Y62462834D01*
X27686000Y61573834D01*
%TO.C,P2*%
X89639986Y62591527D02*
X88750986Y62591527D01*
X88750986Y62252860D01*
X88793320Y62168194D01*
X88835653Y62125860D01*
X88920320Y62083527D01*
X89047320Y62083527D01*
X89131986Y62125860D01*
X89174320Y62168194D01*
X89216653Y62252860D01*
X89216653Y62591527D01*
X88835653Y61744860D02*
X88793320Y61702527D01*
X88750986Y61617860D01*
X88750986Y61406194D01*
X88793320Y61321527D01*
X88835653Y61279194D01*
X88920320Y61236860D01*
X89004986Y61236860D01*
X89131986Y61279194D01*
X89639986Y61787194D01*
X89639986Y61236860D01*
X84920666Y62039500D02*
X84793666Y61997167D01*
X84751333Y61954834D01*
X84709000Y61870167D01*
X84709000Y61743167D01*
X84751333Y61658500D01*
X84793666Y61616167D01*
X84878333Y61573834D01*
X85217000Y61573834D01*
X85217000Y62462834D01*
X84920666Y62462834D01*
X84836000Y62420500D01*
X84793666Y62378167D01*
X84751333Y62293500D01*
X84751333Y62208834D01*
X84793666Y62124167D01*
X84836000Y62081834D01*
X84920666Y62039500D01*
X85217000Y62039500D01*
X84455000Y62462834D02*
X83947000Y62462834D01*
X84201000Y61573834D02*
X84201000Y62462834D01*
X83650666Y61573834D02*
X83650666Y62462834D01*
X83650666Y62039500D02*
X83142666Y62039500D01*
X83142666Y61573834D02*
X83142666Y62462834D01*
X82719333Y61912500D02*
X82042000Y61912500D01*
X81449333Y62462834D02*
X81364666Y62462834D01*
X81280000Y62420500D01*
X81237666Y62378167D01*
X81195333Y62293500D01*
X81153000Y62124167D01*
X81153000Y61912500D01*
X81195333Y61743167D01*
X81237666Y61658500D01*
X81280000Y61616167D01*
X81364666Y61573834D01*
X81449333Y61573834D01*
X81534000Y61616167D01*
X81576333Y61658500D01*
X81618666Y61743167D01*
X81661000Y61912500D01*
X81661000Y62124167D01*
X81618666Y62293500D01*
X81576333Y62378167D01*
X81534000Y62420500D01*
X81449333Y62462834D01*
X80856666Y62462834D02*
X80306333Y62462834D01*
X80602666Y62124167D01*
X80475666Y62124167D01*
X80391000Y62081834D01*
X80348666Y62039500D01*
X80306333Y61954834D01*
X80306333Y61743167D01*
X80348666Y61658500D01*
X80391000Y61616167D01*
X80475666Y61573834D01*
X80729666Y61573834D01*
X80814333Y61616167D01*
X80856666Y61658500D01*
X79756000Y62462834D02*
X79671333Y62462834D01*
X79586666Y62420500D01*
X79544333Y62378167D01*
X79502000Y62293500D01*
X79459666Y62124167D01*
X79459666Y61912500D01*
X79502000Y61743167D01*
X79544333Y61658500D01*
X79586666Y61616167D01*
X79671333Y61573834D01*
X79756000Y61573834D01*
X79840666Y61616167D01*
X79883000Y61658500D01*
X79925333Y61743167D01*
X79967666Y61912500D01*
X79967666Y62124167D01*
X79925333Y62293500D01*
X79883000Y62378167D01*
X79840666Y62420500D01*
X79756000Y62462834D01*
X79078666Y61912500D02*
X78401333Y61912500D01*
X77808666Y62462834D02*
X77724000Y62462834D01*
X77639333Y62420500D01*
X77597000Y62378167D01*
X77554666Y62293500D01*
X77512333Y62124167D01*
X77512333Y61912500D01*
X77554666Y61743167D01*
X77597000Y61658500D01*
X77639333Y61616167D01*
X77724000Y61573834D01*
X77808666Y61573834D01*
X77893333Y61616167D01*
X77935666Y61658500D01*
X77978000Y61743167D01*
X78020333Y61912500D01*
X78020333Y62124167D01*
X77978000Y62293500D01*
X77935666Y62378167D01*
X77893333Y62420500D01*
X77808666Y62462834D01*
X76665666Y61573834D02*
X77173666Y61573834D01*
X76919666Y61573834D02*
X76919666Y62462834D01*
X77004333Y62335834D01*
X77089000Y62251167D01*
X77173666Y62208834D01*
X76284666Y61912500D02*
X75607333Y61912500D01*
X74887666Y62039500D02*
X75184000Y62039500D01*
X75184000Y61573834D02*
X75184000Y62462834D01*
X74760666Y62462834D01*
X74422000Y61912500D02*
X73744666Y61912500D01*
X73321333Y61573834D02*
X73321333Y62462834D01*
X73109666Y62462834D01*
X72982666Y62420500D01*
X72898000Y62335834D01*
X72855666Y62251167D01*
X72813333Y62081834D01*
X72813333Y61954834D01*
X72855666Y61785500D01*
X72898000Y61700834D01*
X72982666Y61616167D01*
X73109666Y61573834D01*
X73321333Y61573834D01*
X72432333Y61912500D02*
X71755000Y61912500D01*
X71374000Y61827834D02*
X70950666Y61827834D01*
X71458666Y61573834D02*
X71162333Y62462834D01*
X70866000Y61573834D01*
%TO.C,P3*%
X46459986Y17379527D02*
X45570986Y17379527D01*
X45570986Y17040860D01*
X45613320Y16956194D01*
X45655653Y16913860D01*
X45740320Y16871527D01*
X45867320Y16871527D01*
X45951986Y16913860D01*
X45994320Y16956194D01*
X46036653Y17040860D01*
X46036653Y17379527D01*
X45570986Y16575194D02*
X45570986Y16024860D01*
X45909653Y16321194D01*
X45909653Y16194194D01*
X45951986Y16109527D01*
X45994320Y16067194D01*
X46078986Y16024860D01*
X46290653Y16024860D01*
X46375320Y16067194D01*
X46417653Y16109527D01*
X46459986Y16194194D01*
X46459986Y16448194D01*
X46417653Y16532860D01*
X46375320Y16575194D01*
X41740666Y16827500D02*
X41613666Y16785167D01*
X41571333Y16742834D01*
X41529000Y16658167D01*
X41529000Y16531167D01*
X41571333Y16446500D01*
X41613666Y16404167D01*
X41698333Y16361834D01*
X42037000Y16361834D01*
X42037000Y17250834D01*
X41740666Y17250834D01*
X41656000Y17208500D01*
X41613666Y17166167D01*
X41571333Y17081500D01*
X41571333Y16996834D01*
X41613666Y16912167D01*
X41656000Y16869834D01*
X41740666Y16827500D01*
X42037000Y16827500D01*
X41275000Y17250834D02*
X40767000Y17250834D01*
X41021000Y16361834D02*
X41021000Y17250834D01*
X40470666Y16361834D02*
X40470666Y17250834D01*
X40470666Y16827500D02*
X39962666Y16827500D01*
X39962666Y16361834D02*
X39962666Y17250834D01*
X39539333Y16700500D02*
X38862000Y16700500D01*
X38269333Y17250834D02*
X38184666Y17250834D01*
X38100000Y17208500D01*
X38057666Y17166167D01*
X38015333Y17081500D01*
X37973000Y16912167D01*
X37973000Y16700500D01*
X38015333Y16531167D01*
X38057666Y16446500D01*
X38100000Y16404167D01*
X38184666Y16361834D01*
X38269333Y16361834D01*
X38354000Y16404167D01*
X38396333Y16446500D01*
X38438666Y16531167D01*
X38481000Y16700500D01*
X38481000Y16912167D01*
X38438666Y17081500D01*
X38396333Y17166167D01*
X38354000Y17208500D01*
X38269333Y17250834D01*
X37676666Y17250834D02*
X37126333Y17250834D01*
X37422666Y16912167D01*
X37295666Y16912167D01*
X37211000Y16869834D01*
X37168666Y16827500D01*
X37126333Y16742834D01*
X37126333Y16531167D01*
X37168666Y16446500D01*
X37211000Y16404167D01*
X37295666Y16361834D01*
X37549666Y16361834D01*
X37634333Y16404167D01*
X37676666Y16446500D01*
X36576000Y17250834D02*
X36491333Y17250834D01*
X36406666Y17208500D01*
X36364333Y17166167D01*
X36322000Y17081500D01*
X36279666Y16912167D01*
X36279666Y16700500D01*
X36322000Y16531167D01*
X36364333Y16446500D01*
X36406666Y16404167D01*
X36491333Y16361834D01*
X36576000Y16361834D01*
X36660666Y16404167D01*
X36703000Y16446500D01*
X36745333Y16531167D01*
X36787666Y16700500D01*
X36787666Y16912167D01*
X36745333Y17081500D01*
X36703000Y17166167D01*
X36660666Y17208500D01*
X36576000Y17250834D01*
X35898666Y16700500D02*
X35221333Y16700500D01*
X34628666Y17250834D02*
X34544000Y17250834D01*
X34459333Y17208500D01*
X34417000Y17166167D01*
X34374666Y17081500D01*
X34332333Y16912167D01*
X34332333Y16700500D01*
X34374666Y16531167D01*
X34417000Y16446500D01*
X34459333Y16404167D01*
X34544000Y16361834D01*
X34628666Y16361834D01*
X34713333Y16404167D01*
X34755666Y16446500D01*
X34798000Y16531167D01*
X34840333Y16700500D01*
X34840333Y16912167D01*
X34798000Y17081500D01*
X34755666Y17166167D01*
X34713333Y17208500D01*
X34628666Y17250834D01*
X33485666Y16361834D02*
X33993666Y16361834D01*
X33739666Y16361834D02*
X33739666Y17250834D01*
X33824333Y17123834D01*
X33909000Y17039167D01*
X33993666Y16996834D01*
X33104666Y16700500D02*
X32427333Y16700500D01*
X31707666Y16827500D02*
X32004000Y16827500D01*
X32004000Y16361834D02*
X32004000Y17250834D01*
X31580666Y17250834D01*
X31242000Y16700500D02*
X30564666Y16700500D01*
X30141333Y16361834D02*
X30141333Y17250834D01*
X29929666Y17250834D01*
X29802666Y17208500D01*
X29718000Y17123834D01*
X29675666Y17039167D01*
X29633333Y16869834D01*
X29633333Y16742834D01*
X29675666Y16573500D01*
X29718000Y16488834D01*
X29802666Y16404167D01*
X29929666Y16361834D01*
X30141333Y16361834D01*
X29252333Y16700500D02*
X28575000Y16700500D01*
X28194000Y16615834D02*
X27770666Y16615834D01*
X28278666Y16361834D02*
X27982333Y17250834D01*
X27686000Y16361834D01*
%TO.C,P4*%
X89639986Y17379527D02*
X88750986Y17379527D01*
X88750986Y17040860D01*
X88793320Y16956194D01*
X88835653Y16913860D01*
X88920320Y16871527D01*
X89047320Y16871527D01*
X89131986Y16913860D01*
X89174320Y16956194D01*
X89216653Y17040860D01*
X89216653Y17379527D01*
X89047320Y16109527D02*
X89639986Y16109527D01*
X88708653Y16321194D02*
X89343653Y16532860D01*
X89343653Y15982527D01*
X84920666Y16827500D02*
X84793666Y16785167D01*
X84751333Y16742834D01*
X84709000Y16658167D01*
X84709000Y16531167D01*
X84751333Y16446500D01*
X84793666Y16404167D01*
X84878333Y16361834D01*
X85217000Y16361834D01*
X85217000Y17250834D01*
X84920666Y17250834D01*
X84836000Y17208500D01*
X84793666Y17166167D01*
X84751333Y17081500D01*
X84751333Y16996834D01*
X84793666Y16912167D01*
X84836000Y16869834D01*
X84920666Y16827500D01*
X85217000Y16827500D01*
X84455000Y17250834D02*
X83947000Y17250834D01*
X84201000Y16361834D02*
X84201000Y17250834D01*
X83650666Y16361834D02*
X83650666Y17250834D01*
X83650666Y16827500D02*
X83142666Y16827500D01*
X83142666Y16361834D02*
X83142666Y17250834D01*
X82719333Y16700500D02*
X82042000Y16700500D01*
X81449333Y17250834D02*
X81364666Y17250834D01*
X81280000Y17208500D01*
X81237666Y17166167D01*
X81195333Y17081500D01*
X81153000Y16912167D01*
X81153000Y16700500D01*
X81195333Y16531167D01*
X81237666Y16446500D01*
X81280000Y16404167D01*
X81364666Y16361834D01*
X81449333Y16361834D01*
X81534000Y16404167D01*
X81576333Y16446500D01*
X81618666Y16531167D01*
X81661000Y16700500D01*
X81661000Y16912167D01*
X81618666Y17081500D01*
X81576333Y17166167D01*
X81534000Y17208500D01*
X81449333Y17250834D01*
X80856666Y17250834D02*
X80306333Y17250834D01*
X80602666Y16912167D01*
X80475666Y16912167D01*
X80391000Y16869834D01*
X80348666Y16827500D01*
X80306333Y16742834D01*
X80306333Y16531167D01*
X80348666Y16446500D01*
X80391000Y16404167D01*
X80475666Y16361834D01*
X80729666Y16361834D01*
X80814333Y16404167D01*
X80856666Y16446500D01*
X79756000Y17250834D02*
X79671333Y17250834D01*
X79586666Y17208500D01*
X79544333Y17166167D01*
X79502000Y17081500D01*
X79459666Y16912167D01*
X79459666Y16700500D01*
X79502000Y16531167D01*
X79544333Y16446500D01*
X79586666Y16404167D01*
X79671333Y16361834D01*
X79756000Y16361834D01*
X79840666Y16404167D01*
X79883000Y16446500D01*
X79925333Y16531167D01*
X79967666Y16700500D01*
X79967666Y16912167D01*
X79925333Y17081500D01*
X79883000Y17166167D01*
X79840666Y17208500D01*
X79756000Y17250834D01*
X79078666Y16700500D02*
X78401333Y16700500D01*
X77808666Y17250834D02*
X77724000Y17250834D01*
X77639333Y17208500D01*
X77597000Y17166167D01*
X77554666Y17081500D01*
X77512333Y16912167D01*
X77512333Y16700500D01*
X77554666Y16531167D01*
X77597000Y16446500D01*
X77639333Y16404167D01*
X77724000Y16361834D01*
X77808666Y16361834D01*
X77893333Y16404167D01*
X77935666Y16446500D01*
X77978000Y16531167D01*
X78020333Y16700500D01*
X78020333Y16912167D01*
X77978000Y17081500D01*
X77935666Y17166167D01*
X77893333Y17208500D01*
X77808666Y17250834D01*
X76665666Y16361834D02*
X77173666Y16361834D01*
X76919666Y16361834D02*
X76919666Y17250834D01*
X77004333Y17123834D01*
X77089000Y17039167D01*
X77173666Y16996834D01*
X76284666Y16700500D02*
X75607333Y16700500D01*
X74887666Y16827500D02*
X75184000Y16827500D01*
X75184000Y16361834D02*
X75184000Y17250834D01*
X74760666Y17250834D01*
X74422000Y16700500D02*
X73744666Y16700500D01*
X73321333Y16361834D02*
X73321333Y17250834D01*
X73109666Y17250834D01*
X72982666Y17208500D01*
X72898000Y17123834D01*
X72855666Y17039167D01*
X72813333Y16869834D01*
X72813333Y16742834D01*
X72855666Y16573500D01*
X72898000Y16488834D01*
X72982666Y16404167D01*
X73109666Y16361834D01*
X73321333Y16361834D01*
X72432333Y16700500D02*
X71755000Y16700500D01*
X71374000Y16615834D02*
X70950666Y16615834D01*
X71458666Y16361834D02*
X71162333Y17250834D01*
X70866000Y16361834D01*
D11*
%TO.C,P5*%
X66258095Y68587620D02*
X66258095Y69587620D01*
X65877142Y69587620D01*
X65781904Y69540000D01*
X65734285Y69492381D01*
X65686666Y69397143D01*
X65686666Y69254286D01*
X65734285Y69159048D01*
X65781904Y69111429D01*
X65877142Y69063810D01*
X66258095Y69063810D01*
X64781904Y69587620D02*
X65258095Y69587620D01*
X65305714Y69111429D01*
X65258095Y69159048D01*
X65162857Y69206667D01*
X64924761Y69206667D01*
X64829523Y69159048D01*
X64781904Y69111429D01*
X64734285Y69016191D01*
X64734285Y68778096D01*
X64781904Y68682858D01*
X64829523Y68635239D01*
X64924761Y68587620D01*
X65162857Y68587620D01*
X65258095Y68635239D01*
X65305714Y68682858D01*
%TO.C,P9*%
X81593295Y777620D02*
X81593295Y1777620D01*
X81212342Y1777620D01*
X81117104Y1730000D01*
X81069485Y1682381D01*
X81021866Y1587143D01*
X81021866Y1444286D01*
X81069485Y1349048D01*
X81117104Y1301429D01*
X81212342Y1253810D01*
X81593295Y1253810D01*
X80545676Y777620D02*
X80355200Y777620D01*
X80259961Y825239D01*
X80212342Y872858D01*
X80117104Y1015715D01*
X80069485Y1206191D01*
X80069485Y1587143D01*
X80117104Y1682381D01*
X80164723Y1730000D01*
X80259961Y1777620D01*
X80450438Y1777620D01*
X80545676Y1730000D01*
X80593295Y1682381D01*
X80640914Y1587143D01*
X80640914Y1349048D01*
X80593295Y1253810D01*
X80545676Y1206191D01*
X80450438Y1158572D01*
X80259961Y1158572D01*
X80164723Y1206191D01*
X80117104Y1253810D01*
X80069485Y1349048D01*
D14*
X75706190Y7818143D02*
X75706190Y8103858D01*
X75706190Y7961000D02*
X75206190Y7961000D01*
X75277619Y8008620D01*
X75325238Y8056239D01*
X75349047Y8103858D01*
D11*
%TO.C,P6*%
X21958095Y68787620D02*
X21958095Y69787620D01*
X21577142Y69787620D01*
X21481904Y69740000D01*
X21434285Y69692381D01*
X21386666Y69597143D01*
X21386666Y69454286D01*
X21434285Y69359048D01*
X21481904Y69311429D01*
X21577142Y69263810D01*
X21958095Y69263810D01*
X20529523Y69787620D02*
X20720000Y69787620D01*
X20815238Y69740000D01*
X20862857Y69692381D01*
X20958095Y69549524D01*
X21005714Y69359048D01*
X21005714Y68978096D01*
X20958095Y68882858D01*
X20910476Y68835239D01*
X20815238Y68787620D01*
X20624761Y68787620D01*
X20529523Y68835239D01*
X20481904Y68882858D01*
X20434285Y68978096D01*
X20434285Y69216191D01*
X20481904Y69311429D01*
X20529523Y69359048D01*
X20624761Y69406667D01*
X20815238Y69406667D01*
X20910476Y69359048D01*
X20958095Y69311429D01*
X21005714Y69216191D01*
%TO.C,P10*%
X87134285Y77287620D02*
X87134285Y78287620D01*
X86753333Y78287620D01*
X86658095Y78240000D01*
X86610476Y78192381D01*
X86562857Y78097143D01*
X86562857Y77954286D01*
X86610476Y77859048D01*
X86658095Y77811429D01*
X86753333Y77763810D01*
X87134285Y77763810D01*
X85610476Y77287620D02*
X86181904Y77287620D01*
X85896190Y77287620D02*
X85896190Y78287620D01*
X85991428Y78144762D01*
X86086666Y78049524D01*
X86181904Y78001905D01*
X84991428Y78287620D02*
X84896190Y78287620D01*
X84800952Y78240000D01*
X84753333Y78192381D01*
X84705714Y78097143D01*
X84658095Y77906667D01*
X84658095Y77668572D01*
X84705714Y77478096D01*
X84753333Y77382858D01*
X84800952Y77335239D01*
X84896190Y77287620D01*
X84991428Y77287620D01*
X85086666Y77335239D01*
X85134285Y77382858D01*
X85181904Y77478096D01*
X85229523Y77668572D01*
X85229523Y77906667D01*
X85181904Y78097143D01*
X85134285Y78192381D01*
X85086666Y78240000D01*
X84991428Y78287620D01*
D10*
%TO.C,C1*%
X91257142Y9406667D02*
X91304761Y9454286D01*
X91352380Y9597143D01*
X91352380Y9692381D01*
X91304761Y9835239D01*
X91209523Y9930477D01*
X91114285Y9978096D01*
X90923809Y10025715D01*
X90780952Y10025715D01*
X90590476Y9978096D01*
X90495238Y9930477D01*
X90400000Y9835239D01*
X90352380Y9692381D01*
X90352380Y9597143D01*
X90400000Y9454286D01*
X90447619Y9406667D01*
X91352380Y8454286D02*
X91352380Y9025715D01*
X91352380Y8740000D02*
X90352380Y8740000D01*
X90495238Y8835239D01*
X90590476Y8930477D01*
X90638095Y9025715D01*
%TO.C,C2*%
X89226666Y4582858D02*
X89274285Y4535239D01*
X89417142Y4487620D01*
X89512380Y4487620D01*
X89655238Y4535239D01*
X89750476Y4630477D01*
X89798095Y4725715D01*
X89845714Y4916191D01*
X89845714Y5059048D01*
X89798095Y5249524D01*
X89750476Y5344762D01*
X89655238Y5440000D01*
X89512380Y5487620D01*
X89417142Y5487620D01*
X89274285Y5440000D01*
X89226666Y5392381D01*
X88845714Y5392381D02*
X88798095Y5440000D01*
X88702857Y5487620D01*
X88464761Y5487620D01*
X88369523Y5440000D01*
X88321904Y5392381D01*
X88274285Y5297143D01*
X88274285Y5201905D01*
X88321904Y5059048D01*
X88893333Y4487620D01*
X88274285Y4487620D01*
%TO.C,D1*%
X84618095Y5837620D02*
X84618095Y6837620D01*
X84380000Y6837620D01*
X84237142Y6790000D01*
X84141904Y6694762D01*
X84094285Y6599524D01*
X84046666Y6409048D01*
X84046666Y6266191D01*
X84094285Y6075715D01*
X84141904Y5980477D01*
X84237142Y5885239D01*
X84380000Y5837620D01*
X84618095Y5837620D01*
X83094285Y5837620D02*
X83665714Y5837620D01*
X83380000Y5837620D02*
X83380000Y6837620D01*
X83475238Y6694762D01*
X83570476Y6599524D01*
X83665714Y6551905D01*
%TO.C,C3*%
X68066666Y81422858D02*
X68114285Y81375239D01*
X68257142Y81327620D01*
X68352380Y81327620D01*
X68495238Y81375239D01*
X68590476Y81470477D01*
X68638095Y81565715D01*
X68685714Y81756191D01*
X68685714Y81899048D01*
X68638095Y82089524D01*
X68590476Y82184762D01*
X68495238Y82280000D01*
X68352380Y82327620D01*
X68257142Y82327620D01*
X68114285Y82280000D01*
X68066666Y82232381D01*
X67733333Y82327620D02*
X67114285Y82327620D01*
X67447619Y81946667D01*
X67304761Y81946667D01*
X67209523Y81899048D01*
X67161904Y81851429D01*
X67114285Y81756191D01*
X67114285Y81518096D01*
X67161904Y81422858D01*
X67209523Y81375239D01*
X67304761Y81327620D01*
X67590476Y81327620D01*
X67685714Y81375239D01*
X67733333Y81422858D01*
%TO.C,C4*%
X1217142Y85903667D02*
X1264761Y85951286D01*
X1312380Y86094143D01*
X1312380Y86189381D01*
X1264761Y86332239D01*
X1169523Y86427477D01*
X1074285Y86475096D01*
X883809Y86522715D01*
X740952Y86522715D01*
X550476Y86475096D01*
X455238Y86427477D01*
X360000Y86332239D01*
X312380Y86189381D01*
X312380Y86094143D01*
X360000Y85951286D01*
X407619Y85903667D01*
X645714Y85046524D02*
X1312380Y85046524D01*
X264761Y85284620D02*
X979047Y85522715D01*
X979047Y84903667D01*
%TO.C,R1*%
X68048166Y82985620D02*
X68381500Y83461810D01*
X68619595Y82985620D02*
X68619595Y83985620D01*
X68238642Y83985620D01*
X68143404Y83938000D01*
X68095785Y83890381D01*
X68048166Y83795143D01*
X68048166Y83652286D01*
X68095785Y83557048D01*
X68143404Y83509429D01*
X68238642Y83461810D01*
X68619595Y83461810D01*
X67095785Y82985620D02*
X67667214Y82985620D01*
X67381500Y82985620D02*
X67381500Y83985620D01*
X67476738Y83842762D01*
X67571976Y83747524D01*
X67667214Y83699905D01*
%TO.C,R2*%
X2866380Y86030667D02*
X2390190Y86364000D01*
X2866380Y86602096D02*
X1866380Y86602096D01*
X1866380Y86221143D01*
X1914000Y86125905D01*
X1961619Y86078286D01*
X2056857Y86030667D01*
X2199714Y86030667D01*
X2294952Y86078286D01*
X2342571Y86125905D01*
X2390190Y86221143D01*
X2390190Y86602096D01*
X1961619Y85649715D02*
X1914000Y85602096D01*
X1866380Y85506858D01*
X1866380Y85268762D01*
X1914000Y85173524D01*
X1961619Y85125905D01*
X2056857Y85078286D01*
X2152095Y85078286D01*
X2294952Y85125905D01*
X2866380Y85697334D01*
X2866380Y85078286D01*
D16*
%TO.C,SW1*%
X7169238Y16594667D02*
X7217619Y16449524D01*
X7217619Y16207620D01*
X7169238Y16110858D01*
X7120857Y16062477D01*
X7024095Y16014096D01*
X6927333Y16014096D01*
X6830571Y16062477D01*
X6782190Y16110858D01*
X6733809Y16207620D01*
X6685428Y16401143D01*
X6637047Y16497905D01*
X6588666Y16546286D01*
X6491904Y16594667D01*
X6395142Y16594667D01*
X6298380Y16546286D01*
X6250000Y16497905D01*
X6201619Y16401143D01*
X6201619Y16159239D01*
X6250000Y16014096D01*
X6201619Y15675429D02*
X7217619Y15433524D01*
X6491904Y15240000D01*
X7217619Y15046477D01*
X6201619Y14804572D01*
X7217619Y13885334D02*
X7217619Y14465905D01*
X7217619Y14175620D02*
X6201619Y14175620D01*
X6346761Y14272381D01*
X6443523Y14369143D01*
X6491904Y14465905D01*
D10*
%TO.C,R3*%
X37736666Y10487620D02*
X38070000Y10963810D01*
X38308095Y10487620D02*
X38308095Y11487620D01*
X37927142Y11487620D01*
X37831904Y11440000D01*
X37784285Y11392381D01*
X37736666Y11297143D01*
X37736666Y11154286D01*
X37784285Y11059048D01*
X37831904Y11011429D01*
X37927142Y10963810D01*
X38308095Y10963810D01*
X37403333Y11487620D02*
X36784285Y11487620D01*
X37117619Y11106667D01*
X36974761Y11106667D01*
X36879523Y11059048D01*
X36831904Y11011429D01*
X36784285Y10916191D01*
X36784285Y10678096D01*
X36831904Y10582858D01*
X36879523Y10535239D01*
X36974761Y10487620D01*
X37260476Y10487620D01*
X37355714Y10535239D01*
X37403333Y10582858D01*
D16*
%TO.C,P1*%
X42926000Y64960500D02*
X44924980Y64960500D01*
X24917400Y64960500D02*
X24917400Y60515500D01*
X44924980Y64960500D02*
X44924980Y60515500D01*
X24925020Y60515500D02*
X26449020Y58991500D01*
X26924000Y58991500D02*
X26449020Y58991500D01*
X26924000Y64960500D02*
X24925020Y64960500D01*
X42926000Y58991500D02*
X43400980Y58991500D01*
X44924980Y60515500D02*
X43400980Y58991500D01*
X44304211Y66230500D02*
G75*
G03*
X44304211Y66230500I-689871J0D01*
G01*
%TO.C,P2*%
X86106000Y58991500D02*
X86580980Y58991500D01*
X68097400Y64960500D02*
X68097400Y60515500D01*
X70104000Y58991500D02*
X69629020Y58991500D01*
X70104000Y64960500D02*
X68105020Y64960500D01*
X68105020Y60515500D02*
X69629020Y58991500D01*
X88104980Y60515500D02*
X86580980Y58991500D01*
X88104980Y64960500D02*
X88104980Y60515500D01*
X86106000Y64960500D02*
X88104980Y64960500D01*
X87484211Y66230500D02*
G75*
G03*
X87484211Y66230500I-689871J0D01*
G01*
%TO.C,P3*%
X24917400Y19748500D02*
X24917400Y15303500D01*
X44924980Y19748500D02*
X44924980Y15303500D01*
X42926000Y13779500D02*
X43400980Y13779500D01*
X26924000Y13779500D02*
X26449020Y13779500D01*
X24925020Y15303500D02*
X26449020Y13779500D01*
X44924980Y15303500D02*
X43400980Y13779500D01*
X26924000Y19748500D02*
X24925020Y19748500D01*
X42926000Y19748500D02*
X44924980Y19748500D01*
X44304211Y21018500D02*
G75*
G03*
X44304211Y21018500I-689871J0D01*
G01*
%TO.C,P4*%
X70104000Y13779500D02*
X69629020Y13779500D01*
X70104000Y19748500D02*
X68105020Y19748500D01*
X86106000Y19748500D02*
X88104980Y19748500D01*
X88104980Y19748500D02*
X88104980Y15303500D01*
X68097400Y19748500D02*
X68097400Y15303500D01*
X86106000Y13779500D02*
X86580980Y13779500D01*
X88104980Y15303500D02*
X86580980Y13779500D01*
X68105020Y15303500D02*
X69629020Y13779500D01*
X87484211Y21018500D02*
G75*
G03*
X87484211Y21018500I-689871J0D01*
G01*
D17*
%TO.C,P5*%
X47015000Y83969995D02*
X66015000Y83969995D01*
X64445000Y70969995D02*
X47015000Y70969995D01*
X47015000Y80260995D02*
X47015000Y80688995D01*
X66015000Y82299995D02*
X66015000Y83969995D01*
X50515000Y84809995D02*
X50015000Y84359995D01*
X47015000Y76269995D02*
X47015000Y78658995D01*
X66015000Y72029995D02*
X66015000Y74659995D01*
X50015000Y84359995D02*
X49515000Y84809995D01*
X47015000Y82290995D02*
X47015000Y83969995D01*
X66015000Y76269995D02*
X66015000Y78659995D01*
X47015000Y73029995D02*
X47015000Y74659995D01*
X47015000Y70969995D02*
X47015000Y71409995D01*
X49515000Y84809995D02*
X50515000Y84809995D01*
X66015000Y80269995D02*
X66015000Y80689995D01*
D10*
%TO.C,P9*%
X74210000Y7580000D02*
X74210000Y2500000D01*
X74210000Y2500000D02*
X81830000Y2500000D01*
X81830000Y7580000D02*
X74210000Y7580000D01*
X81830000Y2500000D02*
X81830000Y7580000D01*
D17*
%TO.C,P6*%
X21565000Y82299995D02*
X21565000Y83969995D01*
X6065000Y84809995D02*
X5565000Y84359995D01*
X19995000Y70969995D02*
X2565000Y70969995D01*
X5065000Y84809995D02*
X6065000Y84809995D01*
X2565000Y73029995D02*
X2565000Y74659995D01*
X2565000Y80260995D02*
X2565000Y80688995D01*
X21565000Y72029995D02*
X21565000Y74659995D01*
X2565000Y76269995D02*
X2565000Y78658995D01*
X2565000Y70969995D02*
X2565000Y71409995D01*
X2565000Y83969995D02*
X21565000Y83969995D01*
X2565000Y82290995D02*
X2565000Y83969995D01*
X21565000Y76269995D02*
X21565000Y78659995D01*
X21565000Y80269995D02*
X21565000Y80689995D01*
X5565000Y84359995D02*
X5065000Y84809995D01*
%TO.C,P10*%
X70567000Y79058000D02*
X87167000Y79058000D01*
X87167000Y84058000D02*
X70567000Y84058000D01*
X70567000Y84058000D02*
X70567000Y79058000D01*
X87167000Y79058000D02*
X87167000Y84058000D01*
%TO.C,C1*%
X88485000Y8978748D02*
X88485000Y9501252D01*
X89955000Y8978748D02*
X89955000Y9501252D01*
%TO.C,C2*%
X90580000Y5651252D02*
X90580000Y4228748D01*
X87860000Y5651252D02*
X87860000Y4228748D01*
%TO.C,D1*%
X83670000Y9690000D02*
X86970000Y9690000D01*
X86970000Y9690000D02*
X86970000Y4290000D01*
X83670000Y9690000D02*
X83670000Y4290000D01*
%TO.C,C3*%
X68161252Y79365000D02*
X67638748Y79365000D01*
X68161252Y80835000D02*
X67638748Y80835000D01*
%TO.C,C4*%
X3275000Y85998252D02*
X3275000Y85475748D01*
X1805000Y85998252D02*
X1805000Y85475748D01*
%TO.C,R1*%
X68108564Y82523000D02*
X67654436Y82523000D01*
X68108564Y81053000D02*
X67654436Y81053000D01*
%TO.C,R2*%
X3329000Y86091064D02*
X3329000Y85636936D01*
X4799000Y86091064D02*
X4799000Y85636936D01*
D18*
%TO.C,SW1*%
X10668000Y11430000D02*
X10668000Y19050000D01*
X3048000Y11430000D02*
X10668000Y11430000D01*
X3048000Y19050000D02*
X3048000Y11430000D01*
X3048000Y19050000D02*
X10668000Y19050000D01*
X9398000Y15240000D02*
G75*
G03*
X9398000Y15240000I-2540000J0D01*
G01*
D17*
%TO.C,R3*%
X37797064Y8555000D02*
X37342936Y8555000D01*
X37797064Y10025000D02*
X37342936Y10025000D01*
%TD*%
D19*
%TO.C,SW1*%
X4608000Y12090000D03*
X4608000Y18390000D03*
X9108000Y18390000D03*
X9108000Y12090000D03*
%TD*%
M02*
