%TF.GenerationSoftware,KiCad,Pcbnew,6.0.4-6f826c9f35~116~ubuntu20.04.1*%
%TF.CreationDate,2022-05-14T18:47:08+00:00*%
%TF.ProjectId,MPPB01B,4d505042-3031-4422-9e6b-696361645f70,**%
%TF.SameCoordinates,Original*%
%TF.FileFunction,Copper,L1,Top*%
%TF.FilePolarity,Positive*%
%FSLAX46Y46*%
G04 Gerber Fmt 4.6, Leading zero omitted, Abs format (unit mm)*
G04 Created by KiCad (PCBNEW 6.0.4-6f826c9f35~116~ubuntu20.04.1) date 2022-05-14 18:47:08*
%MOMM*%
%LPD*%
G01*
G04 APERTURE LIST*
%TA.AperFunction,ComponentPad*%
%ADD10R,6.350000X6.350000*%
%TD*%
%TA.AperFunction,ComponentPad*%
%ADD11C,6.000000*%
%TD*%
%TA.AperFunction,ComponentPad*%
%ADD12R,1.524000X1.524000*%
%TD*%
%TA.AperFunction,ComponentPad*%
%ADD13C,1.550000*%
%TD*%
%TA.AperFunction,ComponentPad*%
%ADD14O,1.100000X1.300000*%
%TD*%
%TA.AperFunction,ComponentPad*%
%ADD15C,2.500000*%
%TD*%
%TA.AperFunction,ComponentPad*%
%ADD16R,1.676400X1.676400*%
%TD*%
%TA.AperFunction,ViaPad*%
%ADD17C,0.750000*%
%TD*%
%TA.AperFunction,ViaPad*%
%ADD18C,1.000000*%
%TD*%
%TA.AperFunction,Conductor*%
%ADD19C,0.300000*%
%TD*%
%TA.AperFunction,Conductor*%
%ADD20C,0.250000*%
%TD*%
%TA.AperFunction,Conductor*%
%ADD21C,0.200000*%
%TD*%
%TA.AperFunction,Conductor*%
%ADD22C,1.500000*%
%TD*%
%TA.AperFunction,Conductor*%
%ADD23C,0.280000*%
%TD*%
G04 APERTURE END LIST*
D10*
%TO.P,MH1,1*%
%TO.N,/SYS-5POV*%
X16510000Y63500000D03*
%TD*%
%TO.P,MH2,1*%
%TO.N,GND*%
X96520000Y15240000D03*
%TD*%
%TO.P,MH3,1*%
%TO.N,GND*%
X96520000Y63500000D03*
%TD*%
%TO.P,MH4,1*%
%TO.N,GND*%
X16510000Y15240000D03*
%TD*%
D11*
%TO.P,MH5,1*%
%TO.N,GND*%
X5080000Y96520000D03*
%TD*%
%TO.P,MH6,1*%
%TO.N,GND*%
X96520000Y96520000D03*
%TD*%
%TO.P,MH8,1*%
%TO.N,GND*%
X5080000Y5080000D03*
%TD*%
%TO.P,MH7,1*%
%TO.N,GND*%
X96774000Y5080000D03*
%TD*%
D12*
%TO.P,P7,1*%
%TO.N,/POWER/SYS-5POV*%
X46460000Y6310000D03*
%TO.P,P7,2*%
X46460000Y3770000D03*
%TO.P,P7,3*%
%TO.N,/UART_RX*%
X43920000Y6310000D03*
%TO.P,P7,4*%
%TO.N,/UART_TX*%
X43920000Y3770000D03*
%TO.P,P7,5*%
%TO.N,GND*%
X41380000Y6310000D03*
%TO.P,P7,6*%
%TO.N,/3P3V*%
X41380000Y3770000D03*
%TO.P,P7,7*%
%TO.N,GND*%
X38840000Y6310000D03*
%TO.P,P7,8*%
%TO.N,/3P3V*%
X38840000Y3770000D03*
%TO.P,P7,9*%
%TO.N,/REG_EN3*%
X36300000Y6310000D03*
%TO.P,P7,10*%
%TO.N,/REG_EN4*%
X36300000Y3770000D03*
%TO.P,P7,11*%
%TO.N,/PROG_IO*%
X33760000Y6310000D03*
%TO.P,P7,12*%
%TO.N,/2P5V*%
X33760000Y3770000D03*
%TO.P,P7,13*%
%TO.N,/JTAG_TCK*%
X31220000Y6310000D03*
%TO.P,P7,14*%
%TO.N,/JTAG_TDI*%
X31220000Y3770000D03*
%TO.P,P7,15*%
%TO.N,/JTAG_TMS*%
X28680000Y6310000D03*
%TO.P,P7,16*%
%TO.N,/JTAG_TDO*%
X28680000Y3770000D03*
%TO.P,P7,17*%
%TO.N,/VADC_N*%
X26140000Y6310000D03*
%TO.P,P7,18*%
%TO.N,/USER_LED*%
X26140000Y3770000D03*
%TO.P,P7,19*%
%TO.N,/JTAG_BOOT_EN*%
X23600000Y6310000D03*
%TO.P,P7,20*%
%TO.N,/RESET_N*%
X23600000Y3770000D03*
%TO.P,P7,21*%
%TO.N,/SPDIF*%
X21060000Y6310000D03*
%TO.P,P7,22*%
%TO.N,/VADC_P*%
X21060000Y3770000D03*
%TO.P,P7,23*%
%TO.N,/TURBO_MODE*%
X18520000Y6310000D03*
%TO.P,P7,24*%
%TO.N,/VDD_ADJ*%
X18520000Y3770000D03*
%TO.P,P7,25*%
%TO.N,/DSP_FLAG*%
X15980000Y6310000D03*
%TO.P,P7,26*%
%TO.N,/VDD_GPIO*%
X15980000Y3770000D03*
%TD*%
%TO.P,P11,1*%
%TO.N,GND*%
X69900000Y6310000D03*
%TO.P,P11,2*%
X69900000Y3770000D03*
%TO.P,P11,3*%
%TO.N,/I2C_SCL*%
X67360000Y6310000D03*
%TO.P,P11,4*%
X67360000Y3770000D03*
%TO.P,P11,5*%
%TO.N,/POWER/SYS-5POV*%
X64820000Y6310000D03*
%TO.P,P11,6*%
X64820000Y3770000D03*
%TO.P,P11,7*%
%TO.N,/I2C_SDA*%
X62280000Y6310000D03*
%TO.P,P11,8*%
X62280000Y3770000D03*
%TO.P,P11,9*%
%TO.N,GND*%
X59740000Y6310000D03*
%TO.P,P11,10*%
X59740000Y3770000D03*
%TD*%
D13*
%TO.P,P5,1*%
%TO.N,Net-(C3-Pad2)*%
X47615000Y72229995D03*
%TO.P,P5,2*%
X47615000Y75469995D03*
%TO.P,P5,3*%
X47615000Y79459995D03*
%TO.P,P5,4*%
X47615000Y81489995D03*
%TO.P,P5,5*%
X65415000Y71229995D03*
%TO.P,P5,6*%
X65415000Y75469995D03*
%TO.P,P5,7*%
X65415000Y79459995D03*
%TO.P,P5,8*%
X65415000Y81489995D03*
%TD*%
D12*
%TO.P,P9,1*%
%TO.N,GND*%
X75480000Y6310000D03*
%TO.P,P9,2*%
X75480000Y3770000D03*
%TO.P,P9,3*%
%TO.N,/SYS-5POV*%
X78020000Y6310000D03*
%TO.P,P9,4*%
X78020000Y3770000D03*
%TO.P,P9,5*%
%TO.N,GND*%
X80560000Y6310000D03*
%TO.P,P9,6*%
X80560000Y3770000D03*
%TD*%
D13*
%TO.P,P6,1*%
%TO.N,Net-(C4-Pad2)*%
X3165000Y72229995D03*
%TO.P,P6,2*%
X3165000Y75469995D03*
%TO.P,P6,3*%
X3165000Y79459995D03*
%TO.P,P6,4*%
X3165000Y81489995D03*
%TO.P,P6,5*%
X20965000Y71229995D03*
%TO.P,P6,6*%
X20965000Y75469995D03*
%TO.P,P6,7*%
X20965000Y79459995D03*
%TO.P,P6,8*%
X20965000Y81489995D03*
%TD*%
D14*
%TO.P,P10,1,1*%
%TO.N,GND*%
X82677000Y83058000D03*
%TO.P,P10,2,2*%
%TO.N,/GPIO_N1*%
X81407000Y81558000D03*
%TO.P,P10,3,3*%
%TO.N,/GPIO_P1*%
X80137000Y81558000D03*
%TO.P,P10,4,4*%
%TO.N,GND*%
X78867000Y83058000D03*
%TO.P,P10,5,5*%
%TO.N,/GPIO_P8*%
X77597000Y81558000D03*
%TO.P,P10,6,6*%
%TO.N,/GPIO_N8*%
X76327000Y81558000D03*
%TO.P,P10,7,7*%
%TO.N,GND*%
X75057000Y83058000D03*
D15*
%TO.P,P10,8*%
%TO.N,N/C*%
X72307000Y80558000D03*
%TO.P,P10,9*%
X85137000Y81558000D03*
%TD*%
D16*
%TO.P,SW1,1,1*%
%TO.N,GND*%
X4608000Y12090000D03*
X4608000Y18390000D03*
%TO.P,SW1,2,2*%
%TO.N,/RESET_N*%
X9108000Y18390000D03*
X9108000Y12090000D03*
%TD*%
D17*
%TO.N,GND*%
X99695000Y91440000D03*
X86995000Y13970000D03*
X4699000Y50800000D03*
X4699000Y40640000D03*
X2794000Y35560000D03*
X4699000Y60960000D03*
X4699000Y45720000D03*
X58420000Y17780000D03*
X74041000Y69596000D03*
X71247000Y74676000D03*
X75311000Y78486000D03*
X81153000Y76962000D03*
X68199000Y73152000D03*
X73279000Y76454000D03*
X79629000Y73914000D03*
X78867000Y80010000D03*
X77343000Y71374000D03*
X13868400Y73050400D03*
X16256000Y73050400D03*
X60706000Y73025000D03*
X33909000Y46228000D03*
X93574000Y42014000D03*
X98849000Y45414000D03*
X98849000Y49414000D03*
X98849000Y53414000D03*
X99674000Y77114000D03*
X87774000Y36114000D03*
X93574000Y59114000D03*
X93574000Y51214000D03*
X99674000Y27714000D03*
X30174000Y97914000D03*
X39374000Y41614000D03*
X47074000Y41714000D03*
X87574000Y54514000D03*
X61974000Y41714010D03*
X71774000Y41714010D03*
X54441807Y41714010D03*
X30674000Y43514000D03*
X83774000Y45614000D03*
X79774000Y41714000D03*
X79774000Y41714000D03*
X87574000Y49414000D03*
X98874000Y37714000D03*
X98874000Y42014000D03*
X99674000Y24114000D03*
X99674000Y73114000D03*
X99674000Y68614000D03*
X98774000Y57414000D03*
X99774000Y86614000D03*
X79374000Y85314000D03*
X72274000Y85514000D03*
X87374000Y66814000D03*
X87374000Y78114000D03*
X85974000Y85314000D03*
X90674000Y78914000D03*
X87374000Y72514000D03*
X90674000Y68914000D03*
X90674000Y73914000D03*
X75374500Y57023000D03*
X15174000Y97914000D03*
X34671000Y63246000D03*
X5537200Y81965800D03*
X64135000Y97790000D03*
X79375000Y97790000D03*
X34671000Y60706000D03*
X37465000Y93980000D03*
X61214000Y81915000D03*
X29654500Y63246000D03*
X9855200Y76047600D03*
X38735000Y63500000D03*
X16764000Y82016600D03*
X7874000Y45720000D03*
X10363200Y81991200D03*
X38420000Y7840000D03*
X61595000Y53848000D03*
X64897000Y68580000D03*
X77851000Y66865500D03*
X5207000Y91186000D03*
X54864000Y78867000D03*
X92011989Y13970000D03*
X7975600Y81991200D03*
X65913000Y87376000D03*
X48920000Y15640000D03*
X77851000Y63246000D03*
X75374500Y66865500D03*
X7874000Y40640000D03*
X29654500Y60706000D03*
X37147500Y60706000D03*
X33420000Y18240000D03*
X26074000Y43514000D03*
X19278600Y81991200D03*
X43815000Y97790000D03*
X82867500Y66865500D03*
X63119000Y73025000D03*
X62865000Y93980000D03*
X72834500Y60706000D03*
X80327500Y57023000D03*
X57785000Y44704000D03*
X55245000Y20320000D03*
X90674000Y83814000D03*
X11174000Y43514000D03*
X58293000Y73025000D03*
X77851000Y57023000D03*
X36274000Y44014000D03*
X77851000Y60706000D03*
X48895000Y97790000D03*
X49530000Y73025000D03*
X80391000Y63246000D03*
X5207000Y86614000D03*
X35174000Y97914000D03*
X50165000Y20320000D03*
X75374500Y63246000D03*
X64389000Y56642000D03*
X89535000Y97790000D03*
X64135000Y17145000D03*
X72834500Y57023000D03*
X61341000Y48260000D03*
X84455000Y97790000D03*
X58801000Y81915000D03*
X32194500Y63246000D03*
X63627000Y81915000D03*
X75311000Y60706000D03*
X74295000Y97790000D03*
X33420000Y15340000D03*
X99695000Y20320000D03*
X5080000Y72999600D03*
X4064000Y89916000D03*
X38735000Y97790000D03*
X35820000Y18240000D03*
X28620000Y8640000D03*
X1270000Y67564000D03*
X2794000Y66040000D03*
X2794000Y68580000D03*
X4445000Y68580000D03*
X51943000Y73025000D03*
X7467600Y73025000D03*
X31877000Y93980000D03*
X72834500Y63246000D03*
X54356000Y73025000D03*
X82867500Y63246000D03*
X32194500Y60706000D03*
X80391000Y66865500D03*
X38820000Y21540000D03*
X7874000Y43180000D03*
X52451000Y81915000D03*
X37920000Y18240000D03*
X82867500Y57023000D03*
X39320000Y7840000D03*
X40120000Y5140000D03*
X39687500Y60706000D03*
X4699000Y55880000D03*
X19431000Y73406000D03*
X20174000Y97914000D03*
X38420000Y7840000D03*
X34671000Y91440000D03*
X65913000Y60452000D03*
X2286000Y89408000D03*
X25174000Y97914000D03*
X37920000Y21540000D03*
X6604000Y10668000D03*
X21574000Y43514000D03*
X72834500Y66865500D03*
X10174000Y97914000D03*
X69215000Y97790000D03*
X80327500Y60706000D03*
X16474000Y43514000D03*
X65862200Y91033600D03*
X50038000Y81915000D03*
X59055000Y97790000D03*
X38820000Y15340000D03*
X87074450Y59439376D03*
X1905000Y91440000D03*
X82867500Y60706000D03*
X14351000Y81991200D03*
X26289000Y59690000D03*
X53975000Y97790000D03*
%TO.N,/VDD_GPIO*%
X30420000Y11190469D03*
X19020000Y8540000D03*
%TO.N,/VDD_ADJ*%
X38320000Y12140000D03*
X30820000Y12140000D03*
%TO.N,/JTAG_TDO*%
X31820000Y11640000D03*
%TO.N,/JTAG_TDI*%
X32920000Y11640000D03*
%TO.N,/VADC_P*%
X34020000Y11640000D03*
%TO.N,/RESET_N*%
X34020000Y10540000D03*
%TO.N,/USER_LED*%
X35247975Y10778731D03*
%TO.N,/PROG_IO*%
X39020000Y17540000D03*
%TO.N,/I2C_SDA*%
X45320000Y14140000D03*
X41300000Y16650497D03*
%TO.N,/I2C_SCL*%
X41300000Y17600000D03*
X44620000Y14840000D03*
%TO.N,/SYS-5POV*%
X51620000Y12140000D03*
D18*
X3175000Y59944000D03*
X2159000Y57912000D03*
X2159000Y59944000D03*
D17*
X54220000Y10540000D03*
D18*
X2159000Y58928000D03*
D17*
X54220000Y9640000D03*
X50020000Y12140000D03*
X52420000Y12140000D03*
D18*
X3175000Y58928000D03*
D17*
X53870000Y11290000D03*
X50820000Y12140000D03*
X53270000Y11890000D03*
D18*
X3175000Y57912000D03*
D17*
%TO.N,/GPIO_N10*%
X58864218Y94518321D03*
X59515120Y89138760D03*
%TO.N,/GPIO_P10*%
X59571324Y95225427D03*
X60515120Y89138760D03*
%TO.N,/GPIO_N3*%
X61002687Y56736473D03*
X48552100Y56098060D03*
%TO.N,/GPIO_P3*%
X61709793Y56029367D03*
X48552100Y55098060D03*
%TO.N,/GPIO_N1*%
X66266554Y63400446D03*
X43815000Y60206000D03*
%TO.N,/GPIO_P1*%
X43815000Y61206000D03*
X65559446Y64107554D03*
%TO.N,/GPIO_P8*%
X41275000Y61730000D03*
X65504554Y65940446D03*
%TO.N,/GPIO_N8*%
X64797446Y66647554D03*
X41275000Y62730000D03*
%TO.N,/REG_EN3*%
X40120000Y17540000D03*
%TO.N,/REG_EN4*%
X40220000Y11740000D03*
%TD*%
D19*
%TO.N,GND*%
X9855200Y76047600D02*
X9855200Y73736200D01*
X9855200Y73736200D02*
X9144000Y73025000D01*
X9144000Y73025000D02*
X7467600Y73025000D01*
X54864000Y78867000D02*
X54864000Y80772000D01*
X54864000Y80772000D02*
X53721000Y81915000D01*
X53721000Y81915000D02*
X52451000Y81915000D01*
D20*
%TO.N,/VDD_GPIO*%
X30170020Y10940489D02*
X30420000Y11190469D01*
X24384282Y10675718D02*
X24649054Y10940489D01*
X24649054Y10940489D02*
X30120000Y10940489D01*
X22248564Y8540000D02*
X24384282Y10675718D01*
X30120000Y10940489D02*
X30170020Y10940489D01*
X19020000Y8540000D02*
X22248564Y8540000D01*
%TO.N,/VDD_ADJ*%
X31330741Y12140000D02*
X31530252Y12339511D01*
X31883793Y12339511D02*
X32784282Y13240000D01*
X31530252Y12339511D02*
X31883793Y12339511D01*
X18490000Y3770000D02*
X18490000Y3810000D01*
X32784282Y13240000D02*
X35047401Y13240000D01*
X36147401Y12140000D02*
X38320000Y12140000D01*
X35047401Y13240000D02*
X36147401Y12140000D01*
X30820000Y12140000D02*
X31330741Y12140000D01*
%TO.N,/JTAG_TDO*%
X34862651Y12789031D02*
X32969031Y12789031D01*
X32063022Y2440000D02*
X32420000Y2796978D01*
X32420000Y2796978D02*
X32420000Y7140000D01*
X33757708Y7641991D02*
X36397006Y10281289D01*
X36397006Y11254677D02*
X34862651Y12789031D01*
X36397006Y10281289D02*
X36397006Y11254677D01*
X32420000Y7140000D02*
X32921991Y7641991D01*
X30010000Y2440000D02*
X32063022Y2440000D01*
X28680000Y3770000D02*
X30010000Y2440000D01*
X32969031Y12789031D02*
X31820000Y11640000D01*
X32921991Y7641991D02*
X33757708Y7641991D01*
%TO.N,/JTAG_TDI*%
X34676454Y12339511D02*
X33619511Y12339511D01*
X29920000Y5070000D02*
X29920000Y7183022D01*
X35947486Y11068479D02*
X34676454Y12339511D01*
X31220000Y3770000D02*
X29920000Y5070000D01*
X33619511Y12339511D02*
X32920000Y11640000D01*
X33634221Y8175718D02*
X35947486Y10488983D01*
X29920000Y7183022D02*
X30912696Y8175718D01*
X30912696Y8175718D02*
X33634221Y8175718D01*
X35947486Y10488983D02*
X35947486Y11068479D01*
D21*
%TO.N,/JTAG_TMS*%
X28500000Y6552000D02*
X28803600Y6248400D01*
D20*
%TO.N,/VADC_P*%
X20316978Y7740000D02*
X19720000Y7143022D01*
X19720000Y5110000D02*
X21060000Y3770000D01*
X19720000Y7143022D02*
X19720000Y5110000D01*
X32870969Y10490969D02*
X24835251Y10490969D01*
X22084282Y7740000D02*
X20316978Y7740000D01*
X24835251Y10490969D02*
X22084282Y7740000D01*
X21030000Y3770000D02*
X21050000Y3770000D01*
X34020000Y11640000D02*
X32870969Y10490969D01*
%TO.N,/RESET_N*%
X22320000Y7340000D02*
X22320000Y5050000D01*
X25021449Y10041449D02*
X22320000Y7340000D01*
X33521449Y10041449D02*
X25021449Y10041449D01*
X23570000Y3770000D02*
X23570000Y3890000D01*
X9108000Y18390000D02*
X9108000Y7552000D01*
X22320000Y5050000D02*
X23600000Y3770000D01*
X34020000Y10540000D02*
X33521449Y10041449D01*
X22040000Y2240000D02*
X23570000Y3770000D01*
X9108000Y7552000D02*
X14420000Y2240000D01*
X14420000Y2240000D02*
X22040000Y2240000D01*
%TO.N,/USER_LED*%
X34061188Y9591929D02*
X25271929Y9591929D01*
X25271929Y9591929D02*
X24820000Y9140000D01*
X26140000Y3820000D02*
X26140000Y3770000D01*
X24820000Y9140000D02*
X24820000Y5140000D01*
X26110000Y3770000D02*
X26110000Y3830000D01*
X24820000Y5140000D02*
X26140000Y3820000D01*
X35247975Y10778731D02*
X35247975Y10778716D01*
X35247975Y10778716D02*
X34061188Y9591929D01*
%TO.N,/PROG_IO*%
X39670480Y16889520D02*
X39670480Y12815457D01*
X39020000Y17540000D02*
X39670480Y16889520D01*
X39070969Y12215946D02*
X39070969Y11862405D01*
X39670480Y12815457D02*
X39070969Y12215946D01*
X39070969Y11862405D02*
X33730000Y6521436D01*
X33730000Y6521436D02*
X33730000Y6310000D01*
%TO.N,/I2C_SDA*%
X43920000Y14904282D02*
X43920000Y14550741D01*
X42173785Y16650497D02*
X43920000Y14904282D01*
X44330741Y14140000D02*
X45320000Y14140000D01*
X43920000Y14550741D02*
X44330741Y14140000D01*
X41300000Y16650497D02*
X42173785Y16650497D01*
%TO.N,/I2C_SCL*%
X42060000Y17600000D02*
X44620000Y15040000D01*
X44620000Y15040000D02*
X44620000Y14840000D01*
X41300000Y17600000D02*
X42060000Y17600000D01*
D22*
%TO.N,/SYS-5POV*%
X51520000Y12140000D02*
X50820000Y12140000D01*
X78020000Y6310000D02*
X78020000Y7193022D01*
X53571368Y11588632D02*
X53270000Y11890000D01*
X53870000Y11290000D02*
X54220000Y10940000D01*
X53270000Y11890000D02*
X53020000Y12140000D01*
X53571368Y11588632D02*
X53870000Y11290000D01*
X53020000Y12140000D02*
X52420000Y12140000D01*
X52420000Y12140000D02*
X51520000Y12140000D01*
X54220000Y10540000D02*
X54220000Y9640000D01*
X54220000Y10940000D02*
X54220000Y10540000D01*
X50820000Y12140000D02*
X50020000Y12140000D01*
X73624390Y11588632D02*
X53571368Y11588632D01*
X78020000Y3770000D02*
X78020000Y6310000D01*
X78020000Y7193022D02*
X73624390Y11588632D01*
D23*
%TO.N,/GPIO_N10*%
X59775121Y89398761D02*
X59515120Y89138760D01*
X59231913Y94518321D02*
X59775121Y93975113D01*
X59775121Y93975113D02*
X59775121Y89398761D01*
X58864218Y94518321D02*
X59231913Y94518321D01*
%TO.N,/GPIO_P10*%
X59571324Y95225427D02*
X59571324Y94857732D01*
X60255119Y94173937D02*
X60255119Y89398761D01*
X59571324Y94857732D02*
X60255119Y94173937D01*
X60255119Y89398761D02*
X60515120Y89138760D01*
%TO.N,/GPIO_N3*%
X61002687Y56368778D02*
X60471969Y55838060D01*
X48812101Y55838059D02*
X48552100Y56098060D01*
X61002687Y56736473D02*
X61002687Y56368778D01*
X60471969Y55838060D02*
X48812101Y55838059D01*
%TO.N,/GPIO_P3*%
X61709793Y56029367D02*
X61342098Y56029367D01*
X48812101Y55358061D02*
X48552100Y55098060D01*
X61342098Y56029367D02*
X60670791Y55358060D01*
X60670791Y55358060D02*
X48812101Y55358061D01*
%TO.N,/GPIO_N1*%
X65898858Y63400446D02*
X66266554Y63400446D01*
X62964412Y60466000D02*
X65898858Y63400446D01*
X44075000Y60466000D02*
X62964412Y60466000D01*
X43815000Y60206000D02*
X44075000Y60466000D01*
%TO.N,/GPIO_P1*%
X44075000Y60946000D02*
X62765588Y60946000D01*
X43815000Y61206000D02*
X44075000Y60946000D01*
X65559446Y63739858D02*
X65559446Y64107554D01*
X62765588Y60946000D02*
X65559446Y63739858D01*
%TO.N,/GPIO_P8*%
X41535000Y61990000D02*
X61186412Y61990000D01*
X65136858Y65940446D02*
X65504554Y65940446D01*
X41275000Y61730000D02*
X41535000Y61990000D01*
X61186412Y61990000D02*
X65136858Y65940446D01*
%TO.N,/GPIO_N8*%
X64797446Y66279858D02*
X64797446Y66647554D01*
X41275000Y62730000D02*
X41535000Y62470000D01*
X41535000Y62470000D02*
X60987588Y62470000D01*
X60987588Y62470000D02*
X64797446Y66279858D01*
D20*
%TO.N,/REG_EN3*%
X40120000Y12629259D02*
X40120000Y17540000D01*
X36270000Y8425718D02*
X39520489Y11676207D01*
X39520489Y12029748D02*
X40120000Y12629259D01*
X36270000Y6310000D02*
X36270000Y8425718D01*
X39520489Y11676207D02*
X39520489Y12029748D01*
%TO.N,/REG_EN4*%
X37720000Y9240000D02*
X40220000Y11740000D01*
X37720000Y5220000D02*
X37720000Y9240000D01*
X36270000Y3770000D02*
X37720000Y5220000D01*
%TD*%
%TA.AperFunction,Conductor*%
%TO.N,Net-(C4-Pad2)*%
G36*
X4587931Y85450998D02*
G01*
X4608905Y85434095D01*
X4789095Y85253905D01*
X4823121Y85191593D01*
X4826000Y85164810D01*
X4826000Y79502000D01*
X5334000Y78994000D01*
X19431000Y78994000D01*
X19812000Y79375000D01*
X19812000Y81614714D01*
X19827585Y81675415D01*
X19829852Y81679538D01*
X19834286Y81685709D01*
X19841364Y81703314D01*
X19880905Y81801677D01*
X19891116Y81827077D01*
X19912584Y81977920D01*
X19912723Y81991200D01*
X19911920Y81997840D01*
X19897523Y82116810D01*
X19894419Y82142460D01*
X19891735Y82149564D01*
X19889922Y82156945D01*
X19892380Y82157549D01*
X19887922Y82216205D01*
X19922066Y82279066D01*
X20156095Y82513095D01*
X20218407Y82547121D01*
X20245190Y82550000D01*
X21537810Y82550000D01*
X21605931Y82529998D01*
X21626905Y82513095D01*
X21934095Y82205905D01*
X21968121Y82143593D01*
X21971000Y82116810D01*
X21971000Y70791190D01*
X21950998Y70723069D01*
X21934095Y70702095D01*
X21499905Y70267905D01*
X21437593Y70233879D01*
X21410810Y70231000D01*
X20499190Y70231000D01*
X20431069Y70251002D01*
X20410095Y70267905D01*
X19975905Y70702095D01*
X19941879Y70764407D01*
X19939000Y70791190D01*
X19939000Y72993572D01*
X19962676Y73067096D01*
X19986686Y73100509D01*
X20043516Y73241877D01*
X20064984Y73392720D01*
X20065123Y73406000D01*
X20064320Y73412640D01*
X20050835Y73524071D01*
X20046819Y73557260D01*
X19992962Y73699787D01*
X19906663Y73825353D01*
X19818674Y73903749D01*
X19798574Y73921658D01*
X19798570Y73921660D01*
X19792903Y73926710D01*
X19786195Y73930262D01*
X19786193Y73930263D01*
X19664960Y73994452D01*
X19664958Y73994453D01*
X19658249Y73998005D01*
X19615563Y74008727D01*
X19557164Y74041836D01*
X19340905Y74258095D01*
X19306879Y74320407D01*
X19304000Y74347190D01*
X19304000Y75311000D01*
X18669000Y75946000D01*
X10613289Y75946000D01*
X10545168Y75966002D01*
X10498675Y76019658D01*
X10488202Y76056863D01*
X10471931Y76191320D01*
X10471019Y76198860D01*
X10417162Y76341387D01*
X10337705Y76456998D01*
X10335165Y76460694D01*
X10335164Y76460696D01*
X10330863Y76466953D01*
X10325192Y76472006D01*
X10222774Y76563258D01*
X10222770Y76563260D01*
X10217103Y76568310D01*
X10210395Y76571862D01*
X10210393Y76571863D01*
X10089158Y76636053D01*
X10089157Y76636054D01*
X10082449Y76639605D01*
X9934677Y76676723D01*
X9927079Y76676763D01*
X9927077Y76676763D01*
X9863619Y76677095D01*
X9782316Y76677521D01*
X9774936Y76675749D01*
X9774934Y76675749D01*
X9641542Y76643724D01*
X9641540Y76643723D01*
X9634162Y76641952D01*
X9498770Y76572071D01*
X9383955Y76471911D01*
X9296345Y76347255D01*
X9240999Y76205300D01*
X9240007Y76197767D01*
X9240007Y76197766D01*
X9221285Y76055554D01*
X9192563Y75990627D01*
X9133298Y75951535D01*
X9096363Y75946000D01*
X4953000Y75946000D01*
X4445000Y75438000D01*
X4445000Y71807190D01*
X4424998Y71739069D01*
X4408095Y71718095D01*
X3846905Y71156905D01*
X3784593Y71122879D01*
X3757810Y71120000D01*
X2211190Y71120000D01*
X2143069Y71140002D01*
X2122095Y71156905D01*
X1814905Y71464095D01*
X1780879Y71526407D01*
X1778000Y71553190D01*
X1778000Y77477217D01*
X3030544Y77477217D01*
X3048843Y77276153D01*
X3050581Y77270247D01*
X3050582Y77270243D01*
X3093246Y77125285D01*
X3105846Y77082472D01*
X3108699Y77077015D01*
X3108700Y77077012D01*
X3115660Y77063699D01*
X3199383Y76903551D01*
X3203241Y76898753D01*
X3203242Y76898751D01*
X3322032Y76751007D01*
X3322036Y76751003D01*
X3325892Y76746207D01*
X3330610Y76742248D01*
X3330611Y76742247D01*
X3475835Y76620389D01*
X3480552Y76616431D01*
X3485941Y76613468D01*
X3485946Y76613465D01*
X3633166Y76532531D01*
X3657475Y76519167D01*
X3663342Y76517306D01*
X3663344Y76517305D01*
X3844049Y76459982D01*
X3849919Y76458120D01*
X4007050Y76440495D01*
X4115799Y76440495D01*
X4118855Y76440795D01*
X4118862Y76440795D01*
X4178596Y76446652D01*
X4265932Y76455216D01*
X4271833Y76456998D01*
X4271835Y76456998D01*
X4453311Y76511789D01*
X4459210Y76513570D01*
X4562161Y76568310D01*
X4632031Y76605460D01*
X4632034Y76605462D01*
X4637473Y76608354D01*
X4642243Y76612244D01*
X4642247Y76612247D01*
X4789156Y76732063D01*
X4789159Y76732066D01*
X4793931Y76735958D01*
X4806381Y76751007D01*
X4918695Y76886771D01*
X4918697Y76886775D01*
X4922624Y76891521D01*
X5018650Y77069117D01*
X5078352Y77261984D01*
X5080487Y77282292D01*
X5098812Y77456645D01*
X5098812Y77456646D01*
X5099456Y77462773D01*
X5098141Y77477217D01*
X19030544Y77477217D01*
X19048843Y77276153D01*
X19050581Y77270247D01*
X19050582Y77270243D01*
X19093246Y77125285D01*
X19105846Y77082472D01*
X19108699Y77077015D01*
X19108700Y77077012D01*
X19115660Y77063699D01*
X19199383Y76903551D01*
X19203241Y76898753D01*
X19203242Y76898751D01*
X19322032Y76751007D01*
X19322036Y76751003D01*
X19325892Y76746207D01*
X19330610Y76742248D01*
X19330611Y76742247D01*
X19475835Y76620389D01*
X19480552Y76616431D01*
X19485941Y76613468D01*
X19485946Y76613465D01*
X19633166Y76532531D01*
X19657475Y76519167D01*
X19663342Y76517306D01*
X19663344Y76517305D01*
X19844049Y76459982D01*
X19849919Y76458120D01*
X20007050Y76440495D01*
X20115799Y76440495D01*
X20118855Y76440795D01*
X20118862Y76440795D01*
X20178596Y76446652D01*
X20265932Y76455216D01*
X20271833Y76456998D01*
X20271835Y76456998D01*
X20453311Y76511789D01*
X20459210Y76513570D01*
X20562161Y76568310D01*
X20632031Y76605460D01*
X20632034Y76605462D01*
X20637473Y76608354D01*
X20642243Y76612244D01*
X20642247Y76612247D01*
X20789156Y76732063D01*
X20789159Y76732066D01*
X20793931Y76735958D01*
X20806381Y76751007D01*
X20918695Y76886771D01*
X20918697Y76886775D01*
X20922624Y76891521D01*
X21018650Y77069117D01*
X21078352Y77261984D01*
X21080487Y77282292D01*
X21098812Y77456645D01*
X21098812Y77456646D01*
X21099456Y77462773D01*
X21081157Y77663837D01*
X21075255Y77683893D01*
X21025893Y77851609D01*
X21024154Y77857518D01*
X21017173Y77870873D01*
X20933470Y78030981D01*
X20930617Y78036439D01*
X20926758Y78041239D01*
X20807968Y78188983D01*
X20807964Y78188987D01*
X20804108Y78193783D01*
X20797554Y78199283D01*
X20654165Y78319601D01*
X20649448Y78323559D01*
X20644059Y78326522D01*
X20644054Y78326525D01*
X20477920Y78417857D01*
X20477921Y78417857D01*
X20472525Y78420823D01*
X20466658Y78422684D01*
X20466656Y78422685D01*
X20285951Y78480008D01*
X20285950Y78480008D01*
X20280081Y78481870D01*
X20122950Y78499495D01*
X20014201Y78499495D01*
X20011145Y78499195D01*
X20011138Y78499195D01*
X19951404Y78493338D01*
X19864068Y78484774D01*
X19858167Y78482992D01*
X19858165Y78482992D01*
X19854449Y78481870D01*
X19670790Y78426420D01*
X19581659Y78379028D01*
X19497969Y78334530D01*
X19497966Y78334528D01*
X19492527Y78331636D01*
X19487757Y78327746D01*
X19487753Y78327743D01*
X19340844Y78207927D01*
X19340841Y78207924D01*
X19336069Y78204032D01*
X19332142Y78199285D01*
X19332140Y78199283D01*
X19211305Y78053219D01*
X19211303Y78053215D01*
X19207376Y78048469D01*
X19111350Y77870873D01*
X19051648Y77678006D01*
X19051004Y77671881D01*
X19051004Y77671880D01*
X19031188Y77483345D01*
X19030544Y77477217D01*
X5098141Y77477217D01*
X5081157Y77663837D01*
X5075255Y77683893D01*
X5025893Y77851609D01*
X5024154Y77857518D01*
X5017173Y77870873D01*
X4933470Y78030981D01*
X4930617Y78036439D01*
X4926758Y78041239D01*
X4807968Y78188983D01*
X4807964Y78188987D01*
X4804108Y78193783D01*
X4797554Y78199283D01*
X4654165Y78319601D01*
X4649448Y78323559D01*
X4644059Y78326522D01*
X4644054Y78326525D01*
X4477920Y78417857D01*
X4477921Y78417857D01*
X4472525Y78420823D01*
X4466658Y78422684D01*
X4466656Y78422685D01*
X4285951Y78480008D01*
X4285950Y78480008D01*
X4280081Y78481870D01*
X4122950Y78499495D01*
X4014201Y78499495D01*
X4011145Y78499195D01*
X4011138Y78499195D01*
X3951404Y78493338D01*
X3864068Y78484774D01*
X3858167Y78482992D01*
X3858165Y78482992D01*
X3854449Y78481870D01*
X3670790Y78426420D01*
X3581659Y78379028D01*
X3497969Y78334530D01*
X3497966Y78334528D01*
X3492527Y78331636D01*
X3487757Y78327746D01*
X3487753Y78327743D01*
X3340844Y78207927D01*
X3340841Y78207924D01*
X3336069Y78204032D01*
X3332142Y78199285D01*
X3332140Y78199283D01*
X3211305Y78053219D01*
X3211303Y78053215D01*
X3207376Y78048469D01*
X3111350Y77870873D01*
X3051648Y77678006D01*
X3051004Y77671881D01*
X3051004Y77671880D01*
X3031188Y77483345D01*
X3030544Y77477217D01*
X1778000Y77477217D01*
X1778000Y85164810D01*
X1798002Y85232931D01*
X1814905Y85253905D01*
X1995095Y85434095D01*
X2057407Y85468121D01*
X2084190Y85471000D01*
X4519810Y85471000D01*
X4587931Y85450998D01*
G37*
%TD.AperFunction*%
%TD*%
%TA.AperFunction,Conductor*%
%TO.N,Net-(C3-Pad2)*%
G36*
X48783931Y82529998D02*
G01*
X48804905Y82513095D01*
X49239095Y82078905D01*
X49273121Y82016593D01*
X49276000Y81989810D01*
X49276000Y79502000D01*
X49784000Y78994000D01*
X54104759Y78994000D01*
X54172880Y78973998D01*
X54219373Y78920342D01*
X54229290Y78873571D01*
X54229912Y78873640D01*
X54230603Y78867376D01*
X54230604Y78867371D01*
X54246631Y78722197D01*
X54298992Y78579114D01*
X54303229Y78572808D01*
X54303231Y78572805D01*
X54342113Y78514944D01*
X54383972Y78452651D01*
X54389590Y78447539D01*
X54491043Y78355223D01*
X54491047Y78355220D01*
X54496664Y78350109D01*
X54503341Y78346484D01*
X54503342Y78346483D01*
X54623887Y78281032D01*
X54623889Y78281031D01*
X54630564Y78277407D01*
X54637913Y78275479D01*
X54770590Y78240672D01*
X54770592Y78240672D01*
X54777940Y78238744D01*
X54855560Y78237525D01*
X54922685Y78236470D01*
X54922688Y78236470D01*
X54930284Y78236351D01*
X54937688Y78238047D01*
X54937690Y78238047D01*
X54992575Y78250618D01*
X55078802Y78270366D01*
X55214918Y78338825D01*
X55307453Y78417857D01*
X55325002Y78432845D01*
X55325004Y78432848D01*
X55330776Y78437777D01*
X55419686Y78561509D01*
X55476516Y78702877D01*
X55497984Y78853720D01*
X55498123Y78867000D01*
X55499570Y78866985D01*
X55514397Y78930175D01*
X55565409Y78979555D01*
X55623988Y78994000D01*
X63881000Y78994000D01*
X64262000Y79375000D01*
X64262000Y82116810D01*
X64282002Y82184931D01*
X64298905Y82205905D01*
X64606095Y82513095D01*
X64668407Y82547121D01*
X64695190Y82550000D01*
X67194310Y82550000D01*
X67262431Y82529998D01*
X67283405Y82513095D01*
X67400095Y82396405D01*
X67434121Y82334093D01*
X67437000Y82307310D01*
X67437000Y79808190D01*
X67416998Y79740069D01*
X67400095Y79719095D01*
X67283405Y79602405D01*
X67221093Y79568379D01*
X67194310Y79565500D01*
X66611500Y79565500D01*
X66421000Y79375000D01*
X66421000Y70791190D01*
X66400998Y70723069D01*
X66384095Y70702095D01*
X65949905Y70267905D01*
X65887593Y70233879D01*
X65860810Y70231000D01*
X64949190Y70231000D01*
X64881069Y70251002D01*
X64860095Y70267905D01*
X64425905Y70702095D01*
X64391879Y70764407D01*
X64389000Y70791190D01*
X64389000Y73660000D01*
X63790905Y74258095D01*
X63756879Y74320407D01*
X63754000Y74347190D01*
X63754000Y75311000D01*
X63119000Y75946000D01*
X49403000Y75946000D01*
X48895000Y75438000D01*
X48895000Y71807190D01*
X48874998Y71739069D01*
X48858095Y71718095D01*
X48296905Y71156905D01*
X48234593Y71122879D01*
X48207810Y71120000D01*
X46661190Y71120000D01*
X46593069Y71140002D01*
X46572095Y71156905D01*
X46264905Y71464095D01*
X46230879Y71526407D01*
X46228000Y71553190D01*
X46228000Y77477217D01*
X47480544Y77477217D01*
X47498843Y77276153D01*
X47500581Y77270247D01*
X47500582Y77270243D01*
X47543246Y77125285D01*
X47555846Y77082472D01*
X47558699Y77077015D01*
X47558700Y77077012D01*
X47565660Y77063699D01*
X47649383Y76903551D01*
X47653241Y76898753D01*
X47653242Y76898751D01*
X47772032Y76751007D01*
X47772036Y76751003D01*
X47775892Y76746207D01*
X47780610Y76742248D01*
X47780611Y76742247D01*
X47788106Y76735958D01*
X47930552Y76616431D01*
X47935941Y76613468D01*
X47935946Y76613465D01*
X48083166Y76532531D01*
X48107475Y76519167D01*
X48113342Y76517306D01*
X48113344Y76517305D01*
X48130733Y76511789D01*
X48299919Y76458120D01*
X48457050Y76440495D01*
X48565799Y76440495D01*
X48568855Y76440795D01*
X48568862Y76440795D01*
X48628596Y76446652D01*
X48715932Y76455216D01*
X48721833Y76456998D01*
X48721835Y76456998D01*
X48903311Y76511789D01*
X48909210Y76513570D01*
X48998341Y76560962D01*
X49082031Y76605460D01*
X49082034Y76605462D01*
X49087473Y76608354D01*
X49092243Y76612244D01*
X49092247Y76612247D01*
X49239156Y76732063D01*
X49239159Y76732066D01*
X49243931Y76735958D01*
X49256381Y76751007D01*
X49368695Y76886771D01*
X49368697Y76886775D01*
X49372624Y76891521D01*
X49468650Y77069117D01*
X49528352Y77261984D01*
X49530487Y77282292D01*
X49548812Y77456645D01*
X49548812Y77456646D01*
X49549456Y77462773D01*
X49548141Y77477217D01*
X63480544Y77477217D01*
X63498843Y77276153D01*
X63500581Y77270247D01*
X63500582Y77270243D01*
X63543246Y77125285D01*
X63555846Y77082472D01*
X63558699Y77077015D01*
X63558700Y77077012D01*
X63565660Y77063699D01*
X63649383Y76903551D01*
X63653241Y76898753D01*
X63653242Y76898751D01*
X63772032Y76751007D01*
X63772036Y76751003D01*
X63775892Y76746207D01*
X63780610Y76742248D01*
X63780611Y76742247D01*
X63788106Y76735958D01*
X63930552Y76616431D01*
X63935941Y76613468D01*
X63935946Y76613465D01*
X64083166Y76532531D01*
X64107475Y76519167D01*
X64113342Y76517306D01*
X64113344Y76517305D01*
X64130733Y76511789D01*
X64299919Y76458120D01*
X64457050Y76440495D01*
X64565799Y76440495D01*
X64568855Y76440795D01*
X64568862Y76440795D01*
X64628596Y76446652D01*
X64715932Y76455216D01*
X64721833Y76456998D01*
X64721835Y76456998D01*
X64903311Y76511789D01*
X64909210Y76513570D01*
X64998341Y76560962D01*
X65082031Y76605460D01*
X65082034Y76605462D01*
X65087473Y76608354D01*
X65092243Y76612244D01*
X65092247Y76612247D01*
X65239156Y76732063D01*
X65239159Y76732066D01*
X65243931Y76735958D01*
X65256381Y76751007D01*
X65368695Y76886771D01*
X65368697Y76886775D01*
X65372624Y76891521D01*
X65468650Y77069117D01*
X65528352Y77261984D01*
X65530487Y77282292D01*
X65548812Y77456645D01*
X65548812Y77456646D01*
X65549456Y77462773D01*
X65531157Y77663837D01*
X65525255Y77683893D01*
X65475893Y77851609D01*
X65474154Y77857518D01*
X65467173Y77870873D01*
X65383470Y78030981D01*
X65380617Y78036439D01*
X65376758Y78041239D01*
X65257968Y78188983D01*
X65257964Y78188987D01*
X65254108Y78193783D01*
X65247554Y78199283D01*
X65104165Y78319601D01*
X65099448Y78323559D01*
X65094059Y78326522D01*
X65094054Y78326525D01*
X64927920Y78417857D01*
X64927921Y78417857D01*
X64922525Y78420823D01*
X64916658Y78422684D01*
X64916656Y78422685D01*
X64735951Y78480008D01*
X64735950Y78480008D01*
X64730081Y78481870D01*
X64572950Y78499495D01*
X64464201Y78499495D01*
X64461145Y78499195D01*
X64461138Y78499195D01*
X64401404Y78493338D01*
X64314068Y78484774D01*
X64308167Y78482992D01*
X64308165Y78482992D01*
X64178826Y78443942D01*
X64120790Y78426420D01*
X64031659Y78379028D01*
X63947969Y78334530D01*
X63947966Y78334528D01*
X63942527Y78331636D01*
X63937757Y78327746D01*
X63937753Y78327743D01*
X63790844Y78207927D01*
X63790841Y78207924D01*
X63786069Y78204032D01*
X63782142Y78199285D01*
X63782140Y78199283D01*
X63661305Y78053219D01*
X63661303Y78053215D01*
X63657376Y78048469D01*
X63561350Y77870873D01*
X63501648Y77678006D01*
X63501004Y77671881D01*
X63501004Y77671880D01*
X63481188Y77483345D01*
X63480544Y77477217D01*
X49548141Y77477217D01*
X49531157Y77663837D01*
X49525255Y77683893D01*
X49475893Y77851609D01*
X49474154Y77857518D01*
X49467173Y77870873D01*
X49383470Y78030981D01*
X49380617Y78036439D01*
X49376758Y78041239D01*
X49257968Y78188983D01*
X49257964Y78188987D01*
X49254108Y78193783D01*
X49247554Y78199283D01*
X49104165Y78319601D01*
X49099448Y78323559D01*
X49094059Y78326522D01*
X49094054Y78326525D01*
X48927920Y78417857D01*
X48927921Y78417857D01*
X48922525Y78420823D01*
X48916658Y78422684D01*
X48916656Y78422685D01*
X48735951Y78480008D01*
X48735950Y78480008D01*
X48730081Y78481870D01*
X48572950Y78499495D01*
X48464201Y78499495D01*
X48461145Y78499195D01*
X48461138Y78499195D01*
X48401404Y78493338D01*
X48314068Y78484774D01*
X48308167Y78482992D01*
X48308165Y78482992D01*
X48178826Y78443942D01*
X48120790Y78426420D01*
X48031659Y78379028D01*
X47947969Y78334530D01*
X47947966Y78334528D01*
X47942527Y78331636D01*
X47937757Y78327746D01*
X47937753Y78327743D01*
X47790844Y78207927D01*
X47790841Y78207924D01*
X47786069Y78204032D01*
X47782142Y78199285D01*
X47782140Y78199283D01*
X47661305Y78053219D01*
X47661303Y78053215D01*
X47657376Y78048469D01*
X47561350Y77870873D01*
X47501648Y77678006D01*
X47501004Y77671881D01*
X47501004Y77671880D01*
X47481188Y77483345D01*
X47480544Y77477217D01*
X46228000Y77477217D01*
X46228000Y81989810D01*
X46248002Y82057931D01*
X46264905Y82078905D01*
X46699095Y82513095D01*
X46761407Y82547121D01*
X46788190Y82550000D01*
X48715810Y82550000D01*
X48783931Y82529998D01*
G37*
%TD.AperFunction*%
%TD*%
%TA.AperFunction,Conductor*%
%TO.N,/SYS-5POV*%
G36*
X18406732Y64590807D02*
G01*
X18996847Y64172663D01*
X19040865Y64116959D01*
X19050000Y64069856D01*
X19050000Y62941849D01*
X19029998Y62873728D01*
X18981675Y62829824D01*
X18201144Y62427975D01*
X18143469Y62414000D01*
X4774000Y62414000D01*
X3774000Y61414000D01*
X3774000Y57466190D01*
X3753998Y57398069D01*
X3737095Y57377095D01*
X3410905Y57050905D01*
X3348593Y57016879D01*
X3321810Y57014000D01*
X2026190Y57014000D01*
X1958069Y57034002D01*
X1937095Y57050905D01*
X1610905Y57377095D01*
X1576879Y57439407D01*
X1574000Y57466190D01*
X1574000Y62161810D01*
X1594002Y62229931D01*
X1610905Y62250905D01*
X3937095Y64577095D01*
X3999407Y64611121D01*
X4026190Y64614000D01*
X18333885Y64614000D01*
X18406732Y64590807D01*
G37*
%TD.AperFunction*%
%TD*%
%TA.AperFunction,Conductor*%
%TO.N,GND*%
G36*
X101055191Y101077093D02*
G01*
X101091155Y101027593D01*
X101096000Y100997000D01*
X101096000Y603000D01*
X101077093Y544809D01*
X101027593Y508845D01*
X100997000Y504000D01*
X603000Y504000D01*
X544809Y522907D01*
X508845Y572407D01*
X504000Y603000D01*
X504000Y11210161D01*
X3469800Y11210161D01*
X3470146Y11204315D01*
X3472034Y11188447D01*
X3475928Y11174281D01*
X3514570Y11087286D01*
X3524746Y11072479D01*
X3590908Y11006433D01*
X3605731Y10996283D01*
X3692780Y10957800D01*
X3706985Y10953927D01*
X3722380Y10952132D01*
X3728092Y10951800D01*
X4392320Y10951800D01*
X4405005Y10955922D01*
X4408000Y10960043D01*
X4408000Y10967480D01*
X4808000Y10967480D01*
X4812122Y10954795D01*
X4816243Y10951800D01*
X5487839Y10951800D01*
X5493685Y10952146D01*
X5509553Y10954034D01*
X5523719Y10957928D01*
X5610714Y10996570D01*
X5625521Y11006746D01*
X5691567Y11072908D01*
X5701717Y11087731D01*
X5740200Y11174780D01*
X5744073Y11188985D01*
X5745868Y11204380D01*
X5746200Y11210092D01*
X5746200Y11227126D01*
X8019300Y11227126D01*
X8033834Y11154060D01*
X8089199Y11071199D01*
X8097309Y11065780D01*
X8115070Y11053913D01*
X8172060Y11015834D01*
X8245126Y11001300D01*
X8633500Y11001300D01*
X8691691Y10982393D01*
X8727655Y10932893D01*
X8732500Y10902300D01*
X8732500Y7602624D01*
X8730283Y7581788D01*
X8727731Y7569934D01*
X8728692Y7561813D01*
X8728692Y7561810D01*
X8731814Y7535436D01*
X8732275Y7527613D01*
X8732500Y7524890D01*
X8732500Y7520807D01*
X8733170Y7516781D01*
X8733171Y7516770D01*
X8735735Y7501367D01*
X8736391Y7496760D01*
X8742424Y7445790D01*
X8745735Y7438895D01*
X8746578Y7436230D01*
X8747833Y7428687D01*
X8772219Y7383493D01*
X8774312Y7379384D01*
X8796537Y7333100D01*
X8800094Y7328869D01*
X8801603Y7327360D01*
X8802423Y7326466D01*
X8803991Y7324608D01*
X8807194Y7318671D01*
X8836672Y7291422D01*
X8846724Y7282130D01*
X8849527Y7279436D01*
X14118688Y2010275D01*
X14131852Y1993975D01*
X14138428Y1983790D01*
X14165711Y1962281D01*
X14171615Y1957036D01*
X14173658Y1955305D01*
X14176538Y1952425D01*
X14179854Y1950055D01*
X14179858Y1950052D01*
X14192559Y1940976D01*
X14196285Y1938179D01*
X14236600Y1906397D01*
X14243818Y1903862D01*
X14246295Y1902576D01*
X14252519Y1898128D01*
X14260362Y1895782D01*
X14260363Y1895782D01*
X14301685Y1883424D01*
X14306121Y1881983D01*
X14348675Y1867039D01*
X14348678Y1867038D01*
X14354548Y1864977D01*
X14360055Y1864500D01*
X14362192Y1864500D01*
X14363398Y1864448D01*
X14365824Y1864242D01*
X14372286Y1862310D01*
X14380458Y1862631D01*
X14380459Y1862631D01*
X14426089Y1864424D01*
X14429976Y1864500D01*
X21989376Y1864500D01*
X22010212Y1862283D01*
X22014070Y1861452D01*
X22014073Y1861452D01*
X22022066Y1859731D01*
X22030187Y1860692D01*
X22030190Y1860692D01*
X22056564Y1863814D01*
X22064387Y1864275D01*
X22067110Y1864500D01*
X22071193Y1864500D01*
X22075219Y1865170D01*
X22075230Y1865171D01*
X22090633Y1867735D01*
X22095240Y1868391D01*
X22119532Y1871267D01*
X22138084Y1873462D01*
X22138085Y1873462D01*
X22146210Y1874424D01*
X22153105Y1877735D01*
X22155770Y1878578D01*
X22163313Y1879833D01*
X22208507Y1904219D01*
X22212616Y1906312D01*
X22258900Y1928537D01*
X22263131Y1932094D01*
X22264640Y1933603D01*
X22265534Y1934423D01*
X22267392Y1935991D01*
X22273329Y1939194D01*
X22309871Y1978725D01*
X22312564Y1981527D01*
X23059542Y2728504D01*
X23114059Y2756281D01*
X23129546Y2757500D01*
X24386674Y2757500D01*
X24459740Y2772034D01*
X24501619Y2800016D01*
X24534491Y2821980D01*
X24542601Y2827399D01*
X24597966Y2910260D01*
X24612500Y2983326D01*
X24612500Y4556674D01*
X24611552Y4561437D01*
X24611075Y4566286D01*
X24612320Y4566409D01*
X24618851Y4621634D01*
X24660380Y4666567D01*
X24720389Y4678509D01*
X24778765Y4650198D01*
X25098504Y4330459D01*
X25126281Y4275942D01*
X25127500Y4260455D01*
X25127500Y2983326D01*
X25142034Y2910260D01*
X25197399Y2827399D01*
X25205509Y2821980D01*
X25238381Y2800016D01*
X25280260Y2772034D01*
X25353326Y2757500D01*
X26926674Y2757500D01*
X26999740Y2772034D01*
X27041619Y2800016D01*
X27074491Y2821980D01*
X27082601Y2827399D01*
X27137966Y2910260D01*
X27152500Y2983326D01*
X27152500Y4556674D01*
X27137966Y4629740D01*
X27082601Y4712601D01*
X26999740Y4767966D01*
X26926674Y4782500D01*
X25749545Y4782500D01*
X25691354Y4801407D01*
X25679541Y4811496D01*
X25362541Y5128496D01*
X25334764Y5183013D01*
X25344335Y5243445D01*
X25387600Y5286710D01*
X25432545Y5297500D01*
X26926674Y5297500D01*
X26999740Y5312034D01*
X27082601Y5367399D01*
X27137966Y5450260D01*
X27152500Y5523326D01*
X27152500Y7096674D01*
X27137966Y7169740D01*
X27082601Y7252601D01*
X27061538Y7266675D01*
X27020904Y7293825D01*
X26999740Y7307966D01*
X26926674Y7322500D01*
X25353326Y7322500D01*
X25348565Y7321553D01*
X25348555Y7321552D01*
X25313815Y7314641D01*
X25253054Y7321831D01*
X25208124Y7363363D01*
X25195500Y7411738D01*
X25195500Y8943455D01*
X25214407Y9001646D01*
X25224496Y9013459D01*
X25398470Y9187433D01*
X25452987Y9215210D01*
X25468474Y9216429D01*
X33904887Y9216429D01*
X33963078Y9197522D01*
X33999042Y9148022D01*
X33999042Y9086836D01*
X33974891Y9047425D01*
X33507680Y8580214D01*
X33453163Y8552437D01*
X33437676Y8551218D01*
X30963316Y8551218D01*
X30942479Y8553436D01*
X30938631Y8554265D01*
X30938628Y8554265D01*
X30930630Y8555987D01*
X30900636Y8552437D01*
X30896132Y8551904D01*
X30888309Y8551443D01*
X30885586Y8551218D01*
X30881503Y8551218D01*
X30877477Y8550548D01*
X30877466Y8550547D01*
X30862063Y8547983D01*
X30857456Y8547327D01*
X30833163Y8544451D01*
X30814612Y8542256D01*
X30814611Y8542256D01*
X30806486Y8541294D01*
X30799591Y8537983D01*
X30796926Y8537140D01*
X30789383Y8535885D01*
X30744189Y8511499D01*
X30740080Y8509406D01*
X30693796Y8487181D01*
X30689565Y8483624D01*
X30688056Y8482115D01*
X30687162Y8481295D01*
X30685304Y8479727D01*
X30679367Y8476524D01*
X30642826Y8436994D01*
X30640132Y8434191D01*
X29690275Y7484334D01*
X29673975Y7471170D01*
X29663790Y7464594D01*
X29642281Y7437311D01*
X29637036Y7431407D01*
X29635305Y7429364D01*
X29632425Y7426484D01*
X29630055Y7423168D01*
X29630052Y7423164D01*
X29620976Y7410463D01*
X29618179Y7406737D01*
X29586397Y7366422D01*
X29586206Y7365877D01*
X29544552Y7326758D01*
X29483081Y7319237D01*
X29471445Y7321552D01*
X29471435Y7321553D01*
X29466674Y7322500D01*
X27893326Y7322500D01*
X27820260Y7307966D01*
X27799096Y7293825D01*
X27758463Y7266675D01*
X27737399Y7252601D01*
X27682034Y7169740D01*
X27667500Y7096674D01*
X27667500Y5523326D01*
X27682034Y5450260D01*
X27737399Y5367399D01*
X27820260Y5312034D01*
X27893326Y5297500D01*
X29445500Y5297500D01*
X29503691Y5278593D01*
X29539655Y5229093D01*
X29544500Y5198500D01*
X29544500Y5120624D01*
X29542283Y5099788D01*
X29539731Y5087934D01*
X29540692Y5079813D01*
X29540692Y5079810D01*
X29543814Y5053436D01*
X29544275Y5045613D01*
X29544500Y5042890D01*
X29544500Y5038807D01*
X29545170Y5034781D01*
X29545171Y5034770D01*
X29547735Y5019367D01*
X29548390Y5014770D01*
X29554424Y4963790D01*
X29557735Y4956895D01*
X29558578Y4954230D01*
X29559833Y4946687D01*
X29563718Y4939487D01*
X29570529Y4926864D01*
X29581522Y4866674D01*
X29555037Y4811518D01*
X29501190Y4782464D01*
X29473703Y4781329D01*
X29471442Y4781552D01*
X29466674Y4782500D01*
X27893326Y4782500D01*
X27820260Y4767966D01*
X27737399Y4712601D01*
X27682034Y4629740D01*
X27667500Y4556674D01*
X27667500Y2983326D01*
X27682034Y2910260D01*
X27737399Y2827399D01*
X27745509Y2821980D01*
X27778381Y2800016D01*
X27820260Y2772034D01*
X27893326Y2757500D01*
X29120455Y2757500D01*
X29178646Y2738593D01*
X29190459Y2728504D01*
X29708688Y2210275D01*
X29721852Y2193975D01*
X29728428Y2183790D01*
X29755711Y2162281D01*
X29761615Y2157036D01*
X29763658Y2155305D01*
X29766538Y2152425D01*
X29769854Y2150055D01*
X29769858Y2150052D01*
X29782559Y2140976D01*
X29786285Y2138179D01*
X29826600Y2106397D01*
X29833818Y2103862D01*
X29836295Y2102576D01*
X29842519Y2098128D01*
X29850360Y2095783D01*
X29850362Y2095782D01*
X29891682Y2083425D01*
X29896118Y2081984D01*
X29938675Y2067039D01*
X29938678Y2067038D01*
X29944548Y2064977D01*
X29950055Y2064500D01*
X29952193Y2064500D01*
X29953399Y2064448D01*
X29955825Y2064242D01*
X29962287Y2062310D01*
X29970459Y2062631D01*
X29970460Y2062631D01*
X30016090Y2064424D01*
X30019977Y2064500D01*
X32012398Y2064500D01*
X32033234Y2062283D01*
X32037092Y2061452D01*
X32037095Y2061452D01*
X32045088Y2059731D01*
X32053209Y2060692D01*
X32053212Y2060692D01*
X32079586Y2063814D01*
X32087409Y2064275D01*
X32090132Y2064500D01*
X32094215Y2064500D01*
X32098241Y2065170D01*
X32098252Y2065171D01*
X32113655Y2067735D01*
X32118262Y2068391D01*
X32142554Y2071267D01*
X32161106Y2073462D01*
X32161107Y2073462D01*
X32169232Y2074424D01*
X32176127Y2077735D01*
X32178792Y2078578D01*
X32186335Y2079833D01*
X32231529Y2104219D01*
X32235638Y2106312D01*
X32281922Y2128537D01*
X32286153Y2132094D01*
X32287662Y2133603D01*
X32288556Y2134423D01*
X32290414Y2135991D01*
X32296351Y2139194D01*
X32332893Y2178725D01*
X32335586Y2181527D01*
X32649725Y2495666D01*
X32666025Y2508830D01*
X32676210Y2515406D01*
X32697719Y2542689D01*
X32702964Y2548593D01*
X32704695Y2550636D01*
X32707575Y2553516D01*
X32709945Y2556832D01*
X32709948Y2556836D01*
X32719024Y2569537D01*
X32721826Y2573270D01*
X32748538Y2607153D01*
X32748538Y2607154D01*
X32753603Y2613578D01*
X32756138Y2620796D01*
X32757424Y2623273D01*
X32761872Y2629497D01*
X32776576Y2678663D01*
X32778017Y2683100D01*
X32778301Y2683907D01*
X32786780Y2708053D01*
X32823901Y2756692D01*
X32882521Y2774223D01*
X32899963Y2770539D01*
X32900260Y2772034D01*
X32973326Y2757500D01*
X34546674Y2757500D01*
X34619740Y2772034D01*
X34661619Y2800016D01*
X34694491Y2821980D01*
X34702601Y2827399D01*
X34757966Y2910260D01*
X34772500Y2983326D01*
X34772500Y4556674D01*
X34757966Y4629740D01*
X34702601Y4712601D01*
X34619740Y4767966D01*
X34546674Y4782500D01*
X32973326Y4782500D01*
X32913814Y4770662D01*
X32853053Y4777854D01*
X32808123Y4819386D01*
X32795500Y4867760D01*
X32795500Y5212240D01*
X32814407Y5270431D01*
X32863907Y5306395D01*
X32913814Y5309338D01*
X32973326Y5297500D01*
X34546674Y5297500D01*
X34619740Y5312034D01*
X34702601Y5367399D01*
X34757966Y5450260D01*
X34772500Y5523326D01*
X34772500Y6991891D01*
X34791407Y7050082D01*
X34801496Y7061895D01*
X35725496Y7985895D01*
X35780013Y8013672D01*
X35840445Y8004101D01*
X35883710Y7960836D01*
X35894500Y7915891D01*
X35894500Y7421500D01*
X35875593Y7363309D01*
X35826093Y7327345D01*
X35795500Y7322500D01*
X35513326Y7322500D01*
X35440260Y7307966D01*
X35419096Y7293825D01*
X35378463Y7266675D01*
X35357399Y7252601D01*
X35302034Y7169740D01*
X35287500Y7096674D01*
X35287500Y5523326D01*
X35302034Y5450260D01*
X35357399Y5367399D01*
X35440260Y5312034D01*
X35513326Y5297500D01*
X37027455Y5297500D01*
X37085646Y5278593D01*
X37121610Y5229093D01*
X37121610Y5167907D01*
X37097459Y5128496D01*
X36780459Y4811496D01*
X36725942Y4783719D01*
X36710455Y4782500D01*
X35513326Y4782500D01*
X35440260Y4767966D01*
X35357399Y4712601D01*
X35302034Y4629740D01*
X35287500Y4556674D01*
X35287500Y2983326D01*
X35302034Y2910260D01*
X35357399Y2827399D01*
X35365509Y2821980D01*
X35398381Y2800016D01*
X35440260Y2772034D01*
X35513326Y2757500D01*
X37086674Y2757500D01*
X37159740Y2772034D01*
X37201619Y2800016D01*
X37234491Y2821980D01*
X37242601Y2827399D01*
X37297966Y2910260D01*
X37312500Y2983326D01*
X37312500Y4240454D01*
X37331407Y4298645D01*
X37341496Y4310458D01*
X37658581Y4627543D01*
X37713098Y4655320D01*
X37773530Y4645749D01*
X37816795Y4602484D01*
X37825445Y4556674D01*
X37827500Y4556674D01*
X37827500Y2983326D01*
X37842034Y2910260D01*
X37897399Y2827399D01*
X37905509Y2821980D01*
X37938381Y2800016D01*
X37980260Y2772034D01*
X38053326Y2757500D01*
X39626674Y2757500D01*
X39699740Y2772034D01*
X39741619Y2800016D01*
X39774491Y2821980D01*
X39782601Y2827399D01*
X39837966Y2910260D01*
X39852500Y2983326D01*
X40367500Y2983326D01*
X40382034Y2910260D01*
X40437399Y2827399D01*
X40445509Y2821980D01*
X40478381Y2800016D01*
X40520260Y2772034D01*
X40593326Y2757500D01*
X42166674Y2757500D01*
X42239740Y2772034D01*
X42281619Y2800016D01*
X42314491Y2821980D01*
X42322601Y2827399D01*
X42377966Y2910260D01*
X42392500Y2983326D01*
X42907500Y2983326D01*
X42922034Y2910260D01*
X42977399Y2827399D01*
X42985509Y2821980D01*
X43018381Y2800016D01*
X43060260Y2772034D01*
X43133326Y2757500D01*
X44706674Y2757500D01*
X44779740Y2772034D01*
X44821619Y2800016D01*
X44854491Y2821980D01*
X44862601Y2827399D01*
X44917966Y2910260D01*
X44932500Y2983326D01*
X45447500Y2983326D01*
X45462034Y2910260D01*
X45517399Y2827399D01*
X45525509Y2821980D01*
X45558381Y2800016D01*
X45600260Y2772034D01*
X45673326Y2757500D01*
X47246674Y2757500D01*
X47319740Y2772034D01*
X47361619Y2800016D01*
X47394491Y2821980D01*
X47402601Y2827399D01*
X47457966Y2910260D01*
X47469125Y2966361D01*
X58678000Y2966361D01*
X58678346Y2960515D01*
X58680234Y2944647D01*
X58684128Y2930481D01*
X58722770Y2843486D01*
X58732946Y2828679D01*
X58799108Y2762633D01*
X58813931Y2752483D01*
X58900980Y2714000D01*
X58915185Y2710127D01*
X58930580Y2708332D01*
X58936292Y2708000D01*
X59524320Y2708000D01*
X59537005Y2712122D01*
X59540000Y2716243D01*
X59540000Y2723680D01*
X59940000Y2723680D01*
X59944122Y2710995D01*
X59948243Y2708000D01*
X60543639Y2708000D01*
X60549485Y2708346D01*
X60565353Y2710234D01*
X60579519Y2714128D01*
X60666514Y2752770D01*
X60681321Y2762946D01*
X60747367Y2829108D01*
X60757517Y2843931D01*
X60796000Y2930980D01*
X60799873Y2945185D01*
X60801668Y2960580D01*
X60802000Y2966292D01*
X60802000Y2983326D01*
X61267500Y2983326D01*
X61282034Y2910260D01*
X61337399Y2827399D01*
X61345509Y2821980D01*
X61378381Y2800016D01*
X61420260Y2772034D01*
X61493326Y2757500D01*
X63066674Y2757500D01*
X63139740Y2772034D01*
X63181619Y2800016D01*
X63214491Y2821980D01*
X63222601Y2827399D01*
X63277966Y2910260D01*
X63292500Y2983326D01*
X63807500Y2983326D01*
X63822034Y2910260D01*
X63877399Y2827399D01*
X63885509Y2821980D01*
X63918381Y2800016D01*
X63960260Y2772034D01*
X64033326Y2757500D01*
X65606674Y2757500D01*
X65679740Y2772034D01*
X65721619Y2800016D01*
X65754491Y2821980D01*
X65762601Y2827399D01*
X65817966Y2910260D01*
X65832500Y2983326D01*
X66347500Y2983326D01*
X66362034Y2910260D01*
X66417399Y2827399D01*
X66425509Y2821980D01*
X66458381Y2800016D01*
X66500260Y2772034D01*
X66573326Y2757500D01*
X68146674Y2757500D01*
X68219740Y2772034D01*
X68261619Y2800016D01*
X68294491Y2821980D01*
X68302601Y2827399D01*
X68357966Y2910260D01*
X68369125Y2966361D01*
X68838000Y2966361D01*
X68838346Y2960515D01*
X68840234Y2944647D01*
X68844128Y2930481D01*
X68882770Y2843486D01*
X68892946Y2828679D01*
X68959108Y2762633D01*
X68973931Y2752483D01*
X69060980Y2714000D01*
X69075185Y2710127D01*
X69090580Y2708332D01*
X69096292Y2708000D01*
X69684320Y2708000D01*
X69697005Y2712122D01*
X69700000Y2716243D01*
X69700000Y2723680D01*
X70100000Y2723680D01*
X70104122Y2710995D01*
X70108243Y2708000D01*
X70703639Y2708000D01*
X70709485Y2708346D01*
X70725353Y2710234D01*
X70739519Y2714128D01*
X70826514Y2752770D01*
X70841321Y2762946D01*
X70907367Y2829108D01*
X70917517Y2843931D01*
X70956000Y2930980D01*
X70959873Y2945185D01*
X70961668Y2960580D01*
X70962000Y2966292D01*
X70962000Y2966361D01*
X74418000Y2966361D01*
X74418346Y2960515D01*
X74420234Y2944647D01*
X74424128Y2930481D01*
X74462770Y2843486D01*
X74472946Y2828679D01*
X74539108Y2762633D01*
X74553931Y2752483D01*
X74640980Y2714000D01*
X74655185Y2710127D01*
X74670580Y2708332D01*
X74676292Y2708000D01*
X75264320Y2708000D01*
X75277005Y2712122D01*
X75280000Y2716243D01*
X75280000Y2723680D01*
X75680000Y2723680D01*
X75684122Y2710995D01*
X75688243Y2708000D01*
X76283639Y2708000D01*
X76289485Y2708346D01*
X76305353Y2710234D01*
X76319519Y2714128D01*
X76406514Y2752770D01*
X76421321Y2762946D01*
X76487367Y2829108D01*
X76497517Y2843931D01*
X76536000Y2930980D01*
X76539873Y2945185D01*
X76541668Y2960580D01*
X76542000Y2966292D01*
X76542000Y3554320D01*
X76537878Y3567005D01*
X76533757Y3570000D01*
X75695680Y3570000D01*
X75682995Y3565878D01*
X75680000Y3561757D01*
X75680000Y2723680D01*
X75280000Y2723680D01*
X75280000Y3554320D01*
X75275878Y3567005D01*
X75271757Y3570000D01*
X74433680Y3570000D01*
X74420995Y3565878D01*
X74418000Y3561757D01*
X74418000Y2966361D01*
X70962000Y2966361D01*
X70962000Y3554320D01*
X70957878Y3567005D01*
X70953757Y3570000D01*
X70115680Y3570000D01*
X70102995Y3565878D01*
X70100000Y3561757D01*
X70100000Y2723680D01*
X69700000Y2723680D01*
X69700000Y3554320D01*
X69695878Y3567005D01*
X69691757Y3570000D01*
X68853680Y3570000D01*
X68840995Y3565878D01*
X68838000Y3561757D01*
X68838000Y2966361D01*
X68369125Y2966361D01*
X68372500Y2983326D01*
X68372500Y3985680D01*
X68838000Y3985680D01*
X68842122Y3972995D01*
X68846243Y3970000D01*
X69684320Y3970000D01*
X69697005Y3974122D01*
X69700000Y3978243D01*
X69700000Y3985680D01*
X70100000Y3985680D01*
X70104122Y3972995D01*
X70108243Y3970000D01*
X70946320Y3970000D01*
X70959005Y3974122D01*
X70962000Y3978243D01*
X70962000Y3985680D01*
X74418000Y3985680D01*
X74422122Y3972995D01*
X74426243Y3970000D01*
X75264320Y3970000D01*
X75277005Y3974122D01*
X75280000Y3978243D01*
X75280000Y3985680D01*
X75680000Y3985680D01*
X75684122Y3972995D01*
X75688243Y3970000D01*
X76526320Y3970000D01*
X76539005Y3974122D01*
X76542000Y3978243D01*
X76542000Y4573639D01*
X76541654Y4579485D01*
X76539766Y4595353D01*
X76535872Y4609519D01*
X76497230Y4696514D01*
X76487054Y4711321D01*
X76420892Y4777367D01*
X76406069Y4787517D01*
X76319020Y4826000D01*
X76304815Y4829873D01*
X76289420Y4831668D01*
X76283708Y4832000D01*
X75695680Y4832000D01*
X75682995Y4827878D01*
X75680000Y4823757D01*
X75680000Y3985680D01*
X75280000Y3985680D01*
X75280000Y4816320D01*
X75275878Y4829005D01*
X75271757Y4832000D01*
X74676361Y4832000D01*
X74670515Y4831654D01*
X74654647Y4829766D01*
X74640481Y4825872D01*
X74553486Y4787230D01*
X74538679Y4777054D01*
X74472633Y4710892D01*
X74462483Y4696069D01*
X74424000Y4609020D01*
X74420127Y4594815D01*
X74418332Y4579420D01*
X74418000Y4573708D01*
X74418000Y3985680D01*
X70962000Y3985680D01*
X70962000Y4573639D01*
X70961654Y4579485D01*
X70959766Y4595353D01*
X70955872Y4609519D01*
X70917230Y4696514D01*
X70907054Y4711321D01*
X70840892Y4777367D01*
X70826069Y4787517D01*
X70739020Y4826000D01*
X70724815Y4829873D01*
X70709420Y4831668D01*
X70703708Y4832000D01*
X70115680Y4832000D01*
X70102995Y4827878D01*
X70100000Y4823757D01*
X70100000Y3985680D01*
X69700000Y3985680D01*
X69700000Y4816320D01*
X69695878Y4829005D01*
X69691757Y4832000D01*
X69096361Y4832000D01*
X69090515Y4831654D01*
X69074647Y4829766D01*
X69060481Y4825872D01*
X68973486Y4787230D01*
X68958679Y4777054D01*
X68892633Y4710892D01*
X68882483Y4696069D01*
X68844000Y4609020D01*
X68840127Y4594815D01*
X68838332Y4579420D01*
X68838000Y4573708D01*
X68838000Y3985680D01*
X68372500Y3985680D01*
X68372500Y4556674D01*
X68357966Y4629740D01*
X68302601Y4712601D01*
X68219740Y4767966D01*
X68146674Y4782500D01*
X66573326Y4782500D01*
X66500260Y4767966D01*
X66417399Y4712601D01*
X66362034Y4629740D01*
X66347500Y4556674D01*
X66347500Y2983326D01*
X65832500Y2983326D01*
X65832500Y4556674D01*
X65817966Y4629740D01*
X65762601Y4712601D01*
X65679740Y4767966D01*
X65606674Y4782500D01*
X64033326Y4782500D01*
X63960260Y4767966D01*
X63877399Y4712601D01*
X63822034Y4629740D01*
X63807500Y4556674D01*
X63807500Y2983326D01*
X63292500Y2983326D01*
X63292500Y4556674D01*
X63277966Y4629740D01*
X63222601Y4712601D01*
X63139740Y4767966D01*
X63066674Y4782500D01*
X61493326Y4782500D01*
X61420260Y4767966D01*
X61337399Y4712601D01*
X61282034Y4629740D01*
X61267500Y4556674D01*
X61267500Y2983326D01*
X60802000Y2983326D01*
X60802000Y3554320D01*
X60797878Y3567005D01*
X60793757Y3570000D01*
X59955680Y3570000D01*
X59942995Y3565878D01*
X59940000Y3561757D01*
X59940000Y2723680D01*
X59540000Y2723680D01*
X59540000Y3554320D01*
X59535878Y3567005D01*
X59531757Y3570000D01*
X58693680Y3570000D01*
X58680995Y3565878D01*
X58678000Y3561757D01*
X58678000Y2966361D01*
X47469125Y2966361D01*
X47472500Y2983326D01*
X47472500Y3985680D01*
X58678000Y3985680D01*
X58682122Y3972995D01*
X58686243Y3970000D01*
X59524320Y3970000D01*
X59537005Y3974122D01*
X59540000Y3978243D01*
X59540000Y3985680D01*
X59940000Y3985680D01*
X59944122Y3972995D01*
X59948243Y3970000D01*
X60786320Y3970000D01*
X60799005Y3974122D01*
X60802000Y3978243D01*
X60802000Y4573639D01*
X60801654Y4579485D01*
X60799766Y4595353D01*
X60795872Y4609519D01*
X60757230Y4696514D01*
X60747054Y4711321D01*
X60680892Y4777367D01*
X60666069Y4787517D01*
X60579020Y4826000D01*
X60564815Y4829873D01*
X60549420Y4831668D01*
X60543708Y4832000D01*
X59955680Y4832000D01*
X59942995Y4827878D01*
X59940000Y4823757D01*
X59940000Y3985680D01*
X59540000Y3985680D01*
X59540000Y4816320D01*
X59535878Y4829005D01*
X59531757Y4832000D01*
X58936361Y4832000D01*
X58930515Y4831654D01*
X58914647Y4829766D01*
X58900481Y4825872D01*
X58813486Y4787230D01*
X58798679Y4777054D01*
X58732633Y4710892D01*
X58722483Y4696069D01*
X58684000Y4609020D01*
X58680127Y4594815D01*
X58678332Y4579420D01*
X58678000Y4573708D01*
X58678000Y3985680D01*
X47472500Y3985680D01*
X47472500Y4556674D01*
X47457966Y4629740D01*
X47402601Y4712601D01*
X47319740Y4767966D01*
X47246674Y4782500D01*
X45673326Y4782500D01*
X45600260Y4767966D01*
X45517399Y4712601D01*
X45462034Y4629740D01*
X45447500Y4556674D01*
X45447500Y2983326D01*
X44932500Y2983326D01*
X44932500Y4556674D01*
X44917966Y4629740D01*
X44862601Y4712601D01*
X44779740Y4767966D01*
X44706674Y4782500D01*
X43133326Y4782500D01*
X43060260Y4767966D01*
X42977399Y4712601D01*
X42922034Y4629740D01*
X42907500Y4556674D01*
X42907500Y2983326D01*
X42392500Y2983326D01*
X42392500Y4556674D01*
X42377966Y4629740D01*
X42322601Y4712601D01*
X42239740Y4767966D01*
X42166674Y4782500D01*
X40593326Y4782500D01*
X40520260Y4767966D01*
X40437399Y4712601D01*
X40382034Y4629740D01*
X40367500Y4556674D01*
X40367500Y2983326D01*
X39852500Y2983326D01*
X39852500Y4556674D01*
X39837966Y4629740D01*
X39782601Y4712601D01*
X39699740Y4767966D01*
X39626674Y4782500D01*
X38057396Y4782500D01*
X37999205Y4801407D01*
X37963241Y4850907D01*
X37963241Y4912093D01*
X37979649Y4942790D01*
X37997711Y4965702D01*
X38002968Y4971619D01*
X38004694Y4973656D01*
X38007576Y4976538D01*
X38009945Y4979854D01*
X38009949Y4979858D01*
X38019035Y4992572D01*
X38021834Y4996301D01*
X38048540Y5030178D01*
X38053603Y5036600D01*
X38056137Y5043816D01*
X38057427Y5046299D01*
X38061872Y5052519D01*
X38068527Y5074770D01*
X38076578Y5101691D01*
X38078019Y5106125D01*
X38092960Y5148672D01*
X38092961Y5148676D01*
X38095023Y5154548D01*
X38095500Y5160055D01*
X38095500Y5160469D01*
X38096872Y5166842D01*
X38099027Y5166378D01*
X38119132Y5213875D01*
X38171546Y5245440D01*
X38193913Y5248000D01*
X38624320Y5248000D01*
X38637005Y5252122D01*
X38640000Y5256243D01*
X38640000Y5263680D01*
X39040000Y5263680D01*
X39044122Y5250995D01*
X39048243Y5248000D01*
X39643639Y5248000D01*
X39649485Y5248346D01*
X39665353Y5250234D01*
X39679519Y5254128D01*
X39766514Y5292770D01*
X39781321Y5302946D01*
X39847367Y5369108D01*
X39857517Y5383931D01*
X39896000Y5470980D01*
X39899873Y5485185D01*
X39901668Y5500580D01*
X39902000Y5506292D01*
X39902000Y5506361D01*
X40318000Y5506361D01*
X40318346Y5500515D01*
X40320234Y5484647D01*
X40324128Y5470481D01*
X40362770Y5383486D01*
X40372946Y5368679D01*
X40439108Y5302633D01*
X40453931Y5292483D01*
X40540980Y5254000D01*
X40555185Y5250127D01*
X40570580Y5248332D01*
X40576292Y5248000D01*
X41164320Y5248000D01*
X41177005Y5252122D01*
X41180000Y5256243D01*
X41180000Y5263680D01*
X41580000Y5263680D01*
X41584122Y5250995D01*
X41588243Y5248000D01*
X42183639Y5248000D01*
X42189485Y5248346D01*
X42205353Y5250234D01*
X42219519Y5254128D01*
X42306514Y5292770D01*
X42321321Y5302946D01*
X42387367Y5369108D01*
X42397517Y5383931D01*
X42436000Y5470980D01*
X42439873Y5485185D01*
X42441668Y5500580D01*
X42442000Y5506292D01*
X42442000Y5523326D01*
X42907500Y5523326D01*
X42922034Y5450260D01*
X42977399Y5367399D01*
X43060260Y5312034D01*
X43133326Y5297500D01*
X44706674Y5297500D01*
X44779740Y5312034D01*
X44862601Y5367399D01*
X44917966Y5450260D01*
X44932500Y5523326D01*
X45447500Y5523326D01*
X45462034Y5450260D01*
X45517399Y5367399D01*
X45600260Y5312034D01*
X45673326Y5297500D01*
X47246674Y5297500D01*
X47319740Y5312034D01*
X47402601Y5367399D01*
X47457966Y5450260D01*
X47469125Y5506361D01*
X58678000Y5506361D01*
X58678346Y5500515D01*
X58680234Y5484647D01*
X58684128Y5470481D01*
X58722770Y5383486D01*
X58732946Y5368679D01*
X58799108Y5302633D01*
X58813931Y5292483D01*
X58900980Y5254000D01*
X58915185Y5250127D01*
X58930580Y5248332D01*
X58936292Y5248000D01*
X59524320Y5248000D01*
X59537005Y5252122D01*
X59540000Y5256243D01*
X59540000Y5263680D01*
X59940000Y5263680D01*
X59944122Y5250995D01*
X59948243Y5248000D01*
X60543639Y5248000D01*
X60549485Y5248346D01*
X60565353Y5250234D01*
X60579519Y5254128D01*
X60666514Y5292770D01*
X60681321Y5302946D01*
X60747367Y5369108D01*
X60757517Y5383931D01*
X60796000Y5470980D01*
X60799873Y5485185D01*
X60801668Y5500580D01*
X60802000Y5506292D01*
X60802000Y5523326D01*
X61267500Y5523326D01*
X61282034Y5450260D01*
X61337399Y5367399D01*
X61420260Y5312034D01*
X61493326Y5297500D01*
X63066674Y5297500D01*
X63139740Y5312034D01*
X63222601Y5367399D01*
X63277966Y5450260D01*
X63292500Y5523326D01*
X63807500Y5523326D01*
X63822034Y5450260D01*
X63877399Y5367399D01*
X63960260Y5312034D01*
X64033326Y5297500D01*
X65606674Y5297500D01*
X65679740Y5312034D01*
X65762601Y5367399D01*
X65817966Y5450260D01*
X65832500Y5523326D01*
X66347500Y5523326D01*
X66362034Y5450260D01*
X66417399Y5367399D01*
X66500260Y5312034D01*
X66573326Y5297500D01*
X68146674Y5297500D01*
X68219740Y5312034D01*
X68302601Y5367399D01*
X68357966Y5450260D01*
X68369125Y5506361D01*
X68838000Y5506361D01*
X68838346Y5500515D01*
X68840234Y5484647D01*
X68844128Y5470481D01*
X68882770Y5383486D01*
X68892946Y5368679D01*
X68959108Y5302633D01*
X68973931Y5292483D01*
X69060980Y5254000D01*
X69075185Y5250127D01*
X69090580Y5248332D01*
X69096292Y5248000D01*
X69684320Y5248000D01*
X69697005Y5252122D01*
X69700000Y5256243D01*
X69700000Y5263680D01*
X70100000Y5263680D01*
X70104122Y5250995D01*
X70108243Y5248000D01*
X70703639Y5248000D01*
X70709485Y5248346D01*
X70725353Y5250234D01*
X70739519Y5254128D01*
X70826514Y5292770D01*
X70841321Y5302946D01*
X70907367Y5369108D01*
X70917517Y5383931D01*
X70956000Y5470980D01*
X70959873Y5485185D01*
X70961668Y5500580D01*
X70962000Y5506292D01*
X70962000Y5506361D01*
X74418000Y5506361D01*
X74418346Y5500515D01*
X74420234Y5484647D01*
X74424128Y5470481D01*
X74462770Y5383486D01*
X74472946Y5368679D01*
X74539108Y5302633D01*
X74553931Y5292483D01*
X74640980Y5254000D01*
X74655185Y5250127D01*
X74670580Y5248332D01*
X74676292Y5248000D01*
X75264320Y5248000D01*
X75277005Y5252122D01*
X75280000Y5256243D01*
X75280000Y5263680D01*
X75680000Y5263680D01*
X75684122Y5250995D01*
X75688243Y5248000D01*
X76283639Y5248000D01*
X76289485Y5248346D01*
X76305353Y5250234D01*
X76319519Y5254128D01*
X76406514Y5292770D01*
X76421321Y5302946D01*
X76487367Y5369108D01*
X76497517Y5383931D01*
X76536000Y5470980D01*
X76539873Y5485185D01*
X76541668Y5500580D01*
X76542000Y5506292D01*
X76542000Y6094320D01*
X76537878Y6107005D01*
X76533757Y6110000D01*
X75695680Y6110000D01*
X75682995Y6105878D01*
X75680000Y6101757D01*
X75680000Y5263680D01*
X75280000Y5263680D01*
X75280000Y6094320D01*
X75275878Y6107005D01*
X75271757Y6110000D01*
X74433680Y6110000D01*
X74420995Y6105878D01*
X74418000Y6101757D01*
X74418000Y5506361D01*
X70962000Y5506361D01*
X70962000Y6094320D01*
X70957878Y6107005D01*
X70953757Y6110000D01*
X70115680Y6110000D01*
X70102995Y6105878D01*
X70100000Y6101757D01*
X70100000Y5263680D01*
X69700000Y5263680D01*
X69700000Y6094320D01*
X69695878Y6107005D01*
X69691757Y6110000D01*
X68853680Y6110000D01*
X68840995Y6105878D01*
X68838000Y6101757D01*
X68838000Y5506361D01*
X68369125Y5506361D01*
X68372500Y5523326D01*
X68372500Y6525680D01*
X68838000Y6525680D01*
X68842122Y6512995D01*
X68846243Y6510000D01*
X69684320Y6510000D01*
X69697005Y6514122D01*
X69700000Y6518243D01*
X69700000Y6525680D01*
X70100000Y6525680D01*
X70104122Y6512995D01*
X70108243Y6510000D01*
X70946320Y6510000D01*
X70959005Y6514122D01*
X70962000Y6518243D01*
X70962000Y6525680D01*
X74418000Y6525680D01*
X74422122Y6512995D01*
X74426243Y6510000D01*
X75264320Y6510000D01*
X75277005Y6514122D01*
X75280000Y6518243D01*
X75280000Y7356320D01*
X75275878Y7369005D01*
X75271757Y7372000D01*
X74676361Y7372000D01*
X74670515Y7371654D01*
X74654647Y7369766D01*
X74640481Y7365872D01*
X74553486Y7327230D01*
X74538679Y7317054D01*
X74472633Y7250892D01*
X74462483Y7236069D01*
X74424000Y7149020D01*
X74420127Y7134815D01*
X74418332Y7119420D01*
X74418000Y7113708D01*
X74418000Y6525680D01*
X70962000Y6525680D01*
X70962000Y7113639D01*
X70961654Y7119485D01*
X70959766Y7135353D01*
X70955872Y7149519D01*
X70917230Y7236514D01*
X70907054Y7251321D01*
X70840892Y7317367D01*
X70826069Y7327517D01*
X70739020Y7366000D01*
X70724815Y7369873D01*
X70709420Y7371668D01*
X70703708Y7372000D01*
X70115680Y7372000D01*
X70102995Y7367878D01*
X70100000Y7363757D01*
X70100000Y6525680D01*
X69700000Y6525680D01*
X69700000Y7356320D01*
X69695878Y7369005D01*
X69691757Y7372000D01*
X69096361Y7372000D01*
X69090515Y7371654D01*
X69074647Y7369766D01*
X69060481Y7365872D01*
X68973486Y7327230D01*
X68958679Y7317054D01*
X68892633Y7250892D01*
X68882483Y7236069D01*
X68844000Y7149020D01*
X68840127Y7134815D01*
X68838332Y7119420D01*
X68838000Y7113708D01*
X68838000Y6525680D01*
X68372500Y6525680D01*
X68372500Y7096674D01*
X68357966Y7169740D01*
X68302601Y7252601D01*
X68281538Y7266675D01*
X68240904Y7293825D01*
X68219740Y7307966D01*
X68146674Y7322500D01*
X66573326Y7322500D01*
X66500260Y7307966D01*
X66479096Y7293825D01*
X66438463Y7266675D01*
X66417399Y7252601D01*
X66362034Y7169740D01*
X66347500Y7096674D01*
X66347500Y5523326D01*
X65832500Y5523326D01*
X65832500Y7096674D01*
X65817966Y7169740D01*
X65762601Y7252601D01*
X65741538Y7266675D01*
X65700904Y7293825D01*
X65679740Y7307966D01*
X65606674Y7322500D01*
X64033326Y7322500D01*
X63960260Y7307966D01*
X63939096Y7293825D01*
X63898463Y7266675D01*
X63877399Y7252601D01*
X63822034Y7169740D01*
X63807500Y7096674D01*
X63807500Y5523326D01*
X63292500Y5523326D01*
X63292500Y7096674D01*
X63277966Y7169740D01*
X63222601Y7252601D01*
X63201538Y7266675D01*
X63160904Y7293825D01*
X63139740Y7307966D01*
X63066674Y7322500D01*
X61493326Y7322500D01*
X61420260Y7307966D01*
X61399096Y7293825D01*
X61358463Y7266675D01*
X61337399Y7252601D01*
X61282034Y7169740D01*
X61267500Y7096674D01*
X61267500Y5523326D01*
X60802000Y5523326D01*
X60802000Y6094320D01*
X60797878Y6107005D01*
X60793757Y6110000D01*
X59955680Y6110000D01*
X59942995Y6105878D01*
X59940000Y6101757D01*
X59940000Y5263680D01*
X59540000Y5263680D01*
X59540000Y6094320D01*
X59535878Y6107005D01*
X59531757Y6110000D01*
X58693680Y6110000D01*
X58680995Y6105878D01*
X58678000Y6101757D01*
X58678000Y5506361D01*
X47469125Y5506361D01*
X47472500Y5523326D01*
X47472500Y6525680D01*
X58678000Y6525680D01*
X58682122Y6512995D01*
X58686243Y6510000D01*
X59524320Y6510000D01*
X59537005Y6514122D01*
X59540000Y6518243D01*
X59540000Y6525680D01*
X59940000Y6525680D01*
X59944122Y6512995D01*
X59948243Y6510000D01*
X60786320Y6510000D01*
X60799005Y6514122D01*
X60802000Y6518243D01*
X60802000Y7113639D01*
X60801654Y7119485D01*
X60799766Y7135353D01*
X60795872Y7149519D01*
X60757230Y7236514D01*
X60747054Y7251321D01*
X60680892Y7317367D01*
X60666069Y7327517D01*
X60579020Y7366000D01*
X60564815Y7369873D01*
X60549420Y7371668D01*
X60543708Y7372000D01*
X59955680Y7372000D01*
X59942995Y7367878D01*
X59940000Y7363757D01*
X59940000Y6525680D01*
X59540000Y6525680D01*
X59540000Y7356320D01*
X59535878Y7369005D01*
X59531757Y7372000D01*
X58936361Y7372000D01*
X58930515Y7371654D01*
X58914647Y7369766D01*
X58900481Y7365872D01*
X58813486Y7327230D01*
X58798679Y7317054D01*
X58732633Y7250892D01*
X58722483Y7236069D01*
X58684000Y7149020D01*
X58680127Y7134815D01*
X58678332Y7119420D01*
X58678000Y7113708D01*
X58678000Y6525680D01*
X47472500Y6525680D01*
X47472500Y7096674D01*
X47457966Y7169740D01*
X47402601Y7252601D01*
X47381538Y7266675D01*
X47340904Y7293825D01*
X47319740Y7307966D01*
X47246674Y7322500D01*
X45673326Y7322500D01*
X45600260Y7307966D01*
X45579096Y7293825D01*
X45538463Y7266675D01*
X45517399Y7252601D01*
X45462034Y7169740D01*
X45447500Y7096674D01*
X45447500Y5523326D01*
X44932500Y5523326D01*
X44932500Y7096674D01*
X44917966Y7169740D01*
X44862601Y7252601D01*
X44841538Y7266675D01*
X44800904Y7293825D01*
X44779740Y7307966D01*
X44706674Y7322500D01*
X43133326Y7322500D01*
X43060260Y7307966D01*
X43039096Y7293825D01*
X42998463Y7266675D01*
X42977399Y7252601D01*
X42922034Y7169740D01*
X42907500Y7096674D01*
X42907500Y5523326D01*
X42442000Y5523326D01*
X42442000Y6094320D01*
X42437878Y6107005D01*
X42433757Y6110000D01*
X41595680Y6110000D01*
X41582995Y6105878D01*
X41580000Y6101757D01*
X41580000Y5263680D01*
X41180000Y5263680D01*
X41180000Y6094320D01*
X41175878Y6107005D01*
X41171757Y6110000D01*
X40333680Y6110000D01*
X40320995Y6105878D01*
X40318000Y6101757D01*
X40318000Y5506361D01*
X39902000Y5506361D01*
X39902000Y6094320D01*
X39897878Y6107005D01*
X39893757Y6110000D01*
X39055680Y6110000D01*
X39042995Y6105878D01*
X39040000Y6101757D01*
X39040000Y5263680D01*
X38640000Y5263680D01*
X38640000Y6525680D01*
X39040000Y6525680D01*
X39044122Y6512995D01*
X39048243Y6510000D01*
X39886320Y6510000D01*
X39899005Y6514122D01*
X39902000Y6518243D01*
X39902000Y6525680D01*
X40318000Y6525680D01*
X40322122Y6512995D01*
X40326243Y6510000D01*
X41164320Y6510000D01*
X41177005Y6514122D01*
X41180000Y6518243D01*
X41180000Y6525680D01*
X41580000Y6525680D01*
X41584122Y6512995D01*
X41588243Y6510000D01*
X42426320Y6510000D01*
X42439005Y6514122D01*
X42442000Y6518243D01*
X42442000Y7113639D01*
X42441654Y7119485D01*
X42439766Y7135353D01*
X42435872Y7149519D01*
X42397230Y7236514D01*
X42387054Y7251321D01*
X42320892Y7317367D01*
X42306069Y7327517D01*
X42219020Y7366000D01*
X42204815Y7369873D01*
X42189420Y7371668D01*
X42183708Y7372000D01*
X41595680Y7372000D01*
X41582995Y7367878D01*
X41580000Y7363757D01*
X41580000Y6525680D01*
X41180000Y6525680D01*
X41180000Y7356320D01*
X41175878Y7369005D01*
X41171757Y7372000D01*
X40576361Y7372000D01*
X40570515Y7371654D01*
X40554647Y7369766D01*
X40540481Y7365872D01*
X40453486Y7327230D01*
X40438679Y7317054D01*
X40372633Y7250892D01*
X40362483Y7236069D01*
X40324000Y7149020D01*
X40320127Y7134815D01*
X40318332Y7119420D01*
X40318000Y7113708D01*
X40318000Y6525680D01*
X39902000Y6525680D01*
X39902000Y7113639D01*
X39901654Y7119485D01*
X39899766Y7135353D01*
X39895872Y7149519D01*
X39857230Y7236514D01*
X39847054Y7251321D01*
X39780892Y7317367D01*
X39766069Y7327517D01*
X39679020Y7366000D01*
X39664815Y7369873D01*
X39649420Y7371668D01*
X39643708Y7372000D01*
X39055680Y7372000D01*
X39042995Y7367878D01*
X39040000Y7363757D01*
X39040000Y6525680D01*
X38640000Y6525680D01*
X38640000Y7356320D01*
X38635878Y7369005D01*
X38631757Y7372000D01*
X38194500Y7372000D01*
X38136309Y7390907D01*
X38100345Y7440407D01*
X38095500Y7471000D01*
X38095500Y9043455D01*
X38114407Y9101646D01*
X38124496Y9113459D01*
X40097250Y11086213D01*
X40151767Y11113990D01*
X40168807Y11115197D01*
X40285863Y11113358D01*
X40293823Y11115181D01*
X40427614Y11145823D01*
X40427617Y11145824D01*
X40433437Y11147157D01*
X40438772Y11149840D01*
X40563355Y11212498D01*
X40563357Y11212499D01*
X40568689Y11215181D01*
X40683810Y11313505D01*
X40753051Y11409863D01*
X40768672Y11431601D01*
X40768673Y11431603D01*
X40772156Y11436450D01*
X40828624Y11576920D01*
X40849956Y11726804D01*
X40849992Y11730190D01*
X40850060Y11736768D01*
X40850094Y11740000D01*
X40831906Y11890299D01*
X40778392Y12031920D01*
X40737874Y12090874D01*
X49015541Y12090874D01*
X49045935Y11889903D01*
X49116119Y11699148D01*
X49223226Y11526401D01*
X49362881Y11378720D01*
X49366986Y11375846D01*
X49366989Y11375843D01*
X49509182Y11276279D01*
X49529379Y11262137D01*
X49533975Y11260148D01*
X49533977Y11260147D01*
X49615454Y11224889D01*
X49715919Y11181414D01*
X49914880Y11139849D01*
X49919432Y11139610D01*
X49920234Y11139568D01*
X49920249Y11139568D01*
X49921539Y11139500D01*
X52564571Y11139500D01*
X52622762Y11120593D01*
X52634575Y11110504D01*
X52852761Y10892318D01*
X52854688Y10890336D01*
X52914249Y10827352D01*
X52918353Y10824478D01*
X52918357Y10824475D01*
X52918752Y10824199D01*
X52931972Y10813107D01*
X53190504Y10554575D01*
X53218281Y10500058D01*
X53219500Y10484571D01*
X53219500Y9589200D01*
X53219753Y9586712D01*
X53219753Y9586706D01*
X53225396Y9531153D01*
X53234880Y9437784D01*
X53295662Y9243828D01*
X53394203Y9066056D01*
X53526477Y8911729D01*
X53687081Y8787152D01*
X53869455Y8697413D01*
X53962911Y8673069D01*
X54061290Y8647443D01*
X54061294Y8647442D01*
X54066148Y8646178D01*
X54071160Y8645915D01*
X54071162Y8645915D01*
X54144048Y8642096D01*
X54269126Y8635541D01*
X54470097Y8665935D01*
X54660852Y8736119D01*
X54833599Y8843226D01*
X54981280Y8982881D01*
X54984154Y8986986D01*
X54984157Y8986989D01*
X55094988Y9145273D01*
X55097863Y9149379D01*
X55104678Y9165126D01*
X55176597Y9331323D01*
X55178586Y9335919D01*
X55220151Y9534880D01*
X55220500Y9541539D01*
X55220500Y10489132D01*
X55239407Y10547323D01*
X55288907Y10583287D01*
X55319500Y10588132D01*
X73168961Y10588132D01*
X73227152Y10569225D01*
X73238965Y10559136D01*
X76257097Y7541004D01*
X76284874Y7486487D01*
X76275303Y7426055D01*
X76232038Y7382790D01*
X76187093Y7372000D01*
X75695680Y7372000D01*
X75682995Y7367878D01*
X75680000Y7363757D01*
X75680000Y6525680D01*
X75684122Y6512995D01*
X75688243Y6510000D01*
X76526320Y6510000D01*
X76539005Y6514122D01*
X76542000Y6518243D01*
X76542000Y7017093D01*
X76560907Y7075284D01*
X76610407Y7111248D01*
X76671593Y7111248D01*
X76711004Y7087097D01*
X76978504Y6819597D01*
X77006281Y6765080D01*
X77007500Y6749593D01*
X77007500Y5523326D01*
X77015087Y5485185D01*
X77017598Y5472561D01*
X77019500Y5453247D01*
X77019500Y4626753D01*
X77017598Y4607439D01*
X77007500Y4556674D01*
X77007500Y2983326D01*
X77022034Y2910260D01*
X77077399Y2827399D01*
X77085509Y2821980D01*
X77118381Y2800016D01*
X77160260Y2772034D01*
X77233326Y2757500D01*
X78806674Y2757500D01*
X78879740Y2772034D01*
X78921619Y2800016D01*
X78954491Y2821980D01*
X78962601Y2827399D01*
X79017966Y2910260D01*
X79029125Y2966361D01*
X79498000Y2966361D01*
X79498346Y2960515D01*
X79500234Y2944647D01*
X79504128Y2930481D01*
X79542770Y2843486D01*
X79552946Y2828679D01*
X79619108Y2762633D01*
X79633931Y2752483D01*
X79720980Y2714000D01*
X79735185Y2710127D01*
X79750580Y2708332D01*
X79756292Y2708000D01*
X80344320Y2708000D01*
X80357005Y2712122D01*
X80360000Y2716243D01*
X80360000Y2723680D01*
X80760000Y2723680D01*
X80764122Y2710995D01*
X80768243Y2708000D01*
X81363639Y2708000D01*
X81369485Y2708346D01*
X81385353Y2710234D01*
X81399519Y2714128D01*
X81486514Y2752770D01*
X81501321Y2762946D01*
X81567367Y2829108D01*
X81577517Y2843931D01*
X81616000Y2930980D01*
X81619873Y2945185D01*
X81621668Y2960580D01*
X81622000Y2966292D01*
X81622000Y3554320D01*
X81617878Y3567005D01*
X81613757Y3570000D01*
X80775680Y3570000D01*
X80762995Y3565878D01*
X80760000Y3561757D01*
X80760000Y2723680D01*
X80360000Y2723680D01*
X80360000Y3554320D01*
X80355878Y3567005D01*
X80351757Y3570000D01*
X79513680Y3570000D01*
X79500995Y3565878D01*
X79498000Y3561757D01*
X79498000Y2966361D01*
X79029125Y2966361D01*
X79032500Y2983326D01*
X79032500Y3985680D01*
X79498000Y3985680D01*
X79502122Y3972995D01*
X79506243Y3970000D01*
X80344320Y3970000D01*
X80357005Y3974122D01*
X80360000Y3978243D01*
X80360000Y3985680D01*
X80760000Y3985680D01*
X80764122Y3972995D01*
X80768243Y3970000D01*
X81606320Y3970000D01*
X81619005Y3974122D01*
X81622000Y3978243D01*
X81622000Y4573639D01*
X81621654Y4579485D01*
X81619766Y4595353D01*
X81615872Y4609519D01*
X81577230Y4696514D01*
X81567054Y4711321D01*
X81500892Y4777367D01*
X81486069Y4787517D01*
X81399020Y4826000D01*
X81384815Y4829873D01*
X81369420Y4831668D01*
X81363708Y4832000D01*
X80775680Y4832000D01*
X80762995Y4827878D01*
X80760000Y4823757D01*
X80760000Y3985680D01*
X80360000Y3985680D01*
X80360000Y4816320D01*
X80355878Y4829005D01*
X80351757Y4832000D01*
X79756361Y4832000D01*
X79750515Y4831654D01*
X79734647Y4829766D01*
X79720481Y4825872D01*
X79633486Y4787230D01*
X79618679Y4777054D01*
X79552633Y4710892D01*
X79542483Y4696069D01*
X79504000Y4609020D01*
X79500127Y4594815D01*
X79498332Y4579420D01*
X79498000Y4573708D01*
X79498000Y3985680D01*
X79032500Y3985680D01*
X79032500Y4556674D01*
X79022402Y4607439D01*
X79020500Y4626753D01*
X79020500Y5453247D01*
X79022402Y5472561D01*
X79024913Y5485185D01*
X79029125Y5506361D01*
X79498000Y5506361D01*
X79498346Y5500515D01*
X79500234Y5484647D01*
X79504128Y5470481D01*
X79542770Y5383486D01*
X79552946Y5368679D01*
X79619108Y5302633D01*
X79633931Y5292483D01*
X79720980Y5254000D01*
X79735185Y5250127D01*
X79750580Y5248332D01*
X79756292Y5248000D01*
X80344320Y5248000D01*
X80357005Y5252122D01*
X80360000Y5256243D01*
X80360000Y5263680D01*
X80760000Y5263680D01*
X80764122Y5250995D01*
X80768243Y5248000D01*
X81363639Y5248000D01*
X81369485Y5248346D01*
X81385353Y5250234D01*
X81399519Y5254128D01*
X81486514Y5292770D01*
X81501321Y5302946D01*
X81567367Y5369108D01*
X81577517Y5383931D01*
X81616000Y5470980D01*
X81619873Y5485185D01*
X81621668Y5500580D01*
X81622000Y5506292D01*
X81622000Y6094320D01*
X81617878Y6107005D01*
X81613757Y6110000D01*
X80775680Y6110000D01*
X80762995Y6105878D01*
X80760000Y6101757D01*
X80760000Y5263680D01*
X80360000Y5263680D01*
X80360000Y6094320D01*
X80355878Y6107005D01*
X80351757Y6110000D01*
X79513680Y6110000D01*
X79500995Y6105878D01*
X79498000Y6101757D01*
X79498000Y5506361D01*
X79029125Y5506361D01*
X79032500Y5523326D01*
X79032500Y6525680D01*
X79498000Y6525680D01*
X79502122Y6512995D01*
X79506243Y6510000D01*
X80344320Y6510000D01*
X80357005Y6514122D01*
X80360000Y6518243D01*
X80360000Y6525680D01*
X80760000Y6525680D01*
X80764122Y6512995D01*
X80768243Y6510000D01*
X81606320Y6510000D01*
X81619005Y6514122D01*
X81622000Y6518243D01*
X81622000Y7113639D01*
X81621654Y7119485D01*
X81619766Y7135353D01*
X81615872Y7149519D01*
X81577230Y7236514D01*
X81567054Y7251321D01*
X81500892Y7317367D01*
X81486069Y7327517D01*
X81399020Y7366000D01*
X81384815Y7369873D01*
X81369420Y7371668D01*
X81363708Y7372000D01*
X80775680Y7372000D01*
X80762995Y7367878D01*
X80760000Y7363757D01*
X80760000Y6525680D01*
X80360000Y6525680D01*
X80360000Y7356320D01*
X80355878Y7369005D01*
X80351757Y7372000D01*
X79756361Y7372000D01*
X79750515Y7371654D01*
X79734647Y7369766D01*
X79720481Y7365872D01*
X79633486Y7327230D01*
X79618679Y7317054D01*
X79552633Y7250892D01*
X79542483Y7236069D01*
X79504000Y7149020D01*
X79500127Y7134815D01*
X79498332Y7119420D01*
X79498000Y7113708D01*
X79498000Y6525680D01*
X79032500Y6525680D01*
X79032500Y7096674D01*
X79022402Y7147439D01*
X79020500Y7166753D01*
X79020500Y7177270D01*
X79020539Y7180034D01*
X79022819Y7261661D01*
X79022959Y7266675D01*
X79013283Y7321552D01*
X79012313Y7327052D01*
X79011316Y7334239D01*
X79008363Y7363309D01*
X79005120Y7395238D01*
X78995988Y7424377D01*
X78992964Y7436785D01*
X78988536Y7461901D01*
X78988535Y7461905D01*
X78987664Y7466844D01*
X78965097Y7523843D01*
X78962675Y7530681D01*
X78945837Y7584410D01*
X78944338Y7589194D01*
X78936894Y7602624D01*
X78929536Y7615899D01*
X78924077Y7627449D01*
X78914691Y7651155D01*
X78914686Y7651165D01*
X78912840Y7655827D01*
X78879262Y7707141D01*
X78875526Y7713334D01*
X78848227Y7762583D01*
X78848225Y7762586D01*
X78845797Y7766966D01*
X78825928Y7790147D01*
X78818258Y7800364D01*
X78803628Y7822722D01*
X78803621Y7822732D01*
X78801544Y7825905D01*
X78797083Y7830860D01*
X78757434Y7870509D01*
X78752270Y7876086D01*
X78720324Y7913358D01*
X78713523Y7921293D01*
X78687810Y7941238D01*
X78678484Y7949459D01*
X74343015Y12284927D01*
X74341088Y12286909D01*
X74284954Y12346269D01*
X74281509Y12349912D01*
X74231280Y12385083D01*
X74225493Y12389460D01*
X74195979Y12413531D01*
X74177987Y12428205D01*
X74150933Y12442348D01*
X74140020Y12448984D01*
X74119120Y12463619D01*
X74119111Y12463624D01*
X74115011Y12466495D01*
X74110416Y12468484D01*
X74110413Y12468485D01*
X74058752Y12490840D01*
X74052202Y12493964D01*
X74002301Y12520052D01*
X73997860Y12522374D01*
X73993037Y12523757D01*
X73968510Y12530791D01*
X73956485Y12535096D01*
X73933075Y12545226D01*
X73933072Y12545227D01*
X73928471Y12547218D01*
X73923560Y12548244D01*
X73868456Y12559756D01*
X73861414Y12561499D01*
X73807305Y12577014D01*
X73807301Y12577015D01*
X73802477Y12578398D01*
X73787561Y12579546D01*
X73772044Y12580740D01*
X73759396Y12582540D01*
X73733240Y12588004D01*
X73733237Y12588004D01*
X73729510Y12588783D01*
X73724958Y12589022D01*
X73724156Y12589064D01*
X73724141Y12589064D01*
X73722851Y12589132D01*
X73666779Y12589132D01*
X73659184Y12589424D01*
X73655324Y12589721D01*
X73599819Y12593992D01*
X73594849Y12593364D01*
X73594845Y12593364D01*
X73567531Y12589913D01*
X73555123Y12589132D01*
X54026796Y12589132D01*
X53968605Y12608039D01*
X53956792Y12618128D01*
X53738625Y12836295D01*
X53736698Y12838277D01*
X53680564Y12897637D01*
X53677119Y12901280D01*
X53626890Y12936451D01*
X53621103Y12940828D01*
X53590488Y12965797D01*
X53573597Y12979573D01*
X53546543Y12993716D01*
X53535630Y13000352D01*
X53514730Y13014987D01*
X53514721Y13014992D01*
X53510621Y13017863D01*
X53506026Y13019852D01*
X53506023Y13019853D01*
X53454362Y13042208D01*
X53447812Y13045332D01*
X53416109Y13061906D01*
X53393470Y13073742D01*
X53388647Y13075125D01*
X53364120Y13082159D01*
X53352095Y13086464D01*
X53328685Y13096594D01*
X53328682Y13096595D01*
X53324081Y13098586D01*
X53314005Y13100691D01*
X53264066Y13111124D01*
X53257024Y13112867D01*
X53202915Y13128382D01*
X53202911Y13128383D01*
X53198087Y13129766D01*
X53183171Y13130914D01*
X53167654Y13132108D01*
X53155006Y13133908D01*
X53128850Y13139372D01*
X53128847Y13139372D01*
X53125120Y13140151D01*
X53120568Y13140390D01*
X53119766Y13140432D01*
X53119751Y13140432D01*
X53118461Y13140500D01*
X53062389Y13140500D01*
X53054794Y13140792D01*
X52995429Y13145360D01*
X52990459Y13144732D01*
X52990455Y13144732D01*
X52963141Y13141281D01*
X52950733Y13140500D01*
X49969200Y13140500D01*
X49966712Y13140247D01*
X49966706Y13140247D01*
X49906184Y13134099D01*
X49817784Y13125120D01*
X49813004Y13123622D01*
X49646427Y13071420D01*
X49623828Y13064338D01*
X49446056Y12965797D01*
X49291729Y12833523D01*
X49167152Y12672919D01*
X49077413Y12490545D01*
X49066587Y12448984D01*
X49028368Y12302259D01*
X49026178Y12293852D01*
X49025915Y12288840D01*
X49025915Y12288838D01*
X49024414Y12260192D01*
X49015541Y12090874D01*
X40737874Y12090874D01*
X40692640Y12156689D01*
X40579603Y12257401D01*
X40489454Y12305132D01*
X40446874Y12349071D01*
X40438253Y12409646D01*
X40448855Y12439836D01*
X40453603Y12445859D01*
X40456137Y12453075D01*
X40457427Y12455558D01*
X40461872Y12461778D01*
X40471821Y12495044D01*
X40476578Y12510950D01*
X40478019Y12515384D01*
X40492960Y12557931D01*
X40492961Y12557935D01*
X40495023Y12563807D01*
X40495500Y12569314D01*
X40495500Y12571455D01*
X40495551Y12572639D01*
X40495758Y12575082D01*
X40497691Y12581546D01*
X40495576Y12635374D01*
X40495500Y12639261D01*
X40495500Y16470089D01*
X40514407Y16528280D01*
X40563907Y16564244D01*
X40625093Y16564244D01*
X40674593Y16528280D01*
X40687470Y16504111D01*
X40736530Y16370046D01*
X40736532Y16370042D01*
X40738582Y16364440D01*
X40823022Y16238781D01*
X40827434Y16234766D01*
X40827437Y16234763D01*
X40843521Y16220128D01*
X40934998Y16136890D01*
X40993137Y16105323D01*
X41062801Y16067498D01*
X41062803Y16067497D01*
X41068047Y16064650D01*
X41144798Y16044515D01*
X41208717Y16027746D01*
X41208721Y16027746D01*
X41214486Y16026233D01*
X41220447Y16026139D01*
X41220450Y16026139D01*
X41290174Y16025044D01*
X41365863Y16023855D01*
X41371679Y16025187D01*
X41507614Y16056320D01*
X41507617Y16056321D01*
X41513437Y16057654D01*
X41524337Y16063136D01*
X41643355Y16122995D01*
X41643357Y16122996D01*
X41648689Y16125678D01*
X41763810Y16224002D01*
X41770829Y16233770D01*
X41820141Y16269991D01*
X41851224Y16274997D01*
X41977240Y16274997D01*
X42035431Y16256090D01*
X42047244Y16246001D01*
X43515504Y14777741D01*
X43543281Y14723224D01*
X43544500Y14707737D01*
X43544500Y14601365D01*
X43542283Y14580529D01*
X43539731Y14568675D01*
X43540692Y14560554D01*
X43540692Y14560551D01*
X43543814Y14534177D01*
X43544275Y14526354D01*
X43544500Y14523631D01*
X43544500Y14519548D01*
X43545170Y14515522D01*
X43545171Y14515511D01*
X43547735Y14500108D01*
X43548391Y14495501D01*
X43554424Y14444531D01*
X43557735Y14437636D01*
X43558578Y14434971D01*
X43559833Y14427428D01*
X43584219Y14382234D01*
X43586312Y14378125D01*
X43608537Y14331841D01*
X43612094Y14327610D01*
X43613603Y14326101D01*
X43614423Y14325207D01*
X43615991Y14323349D01*
X43619194Y14317412D01*
X43648525Y14290299D01*
X43658724Y14280871D01*
X43661527Y14278177D01*
X44029429Y13910275D01*
X44042593Y13893975D01*
X44049169Y13883790D01*
X44076452Y13862281D01*
X44082356Y13857036D01*
X44084399Y13855305D01*
X44087279Y13852425D01*
X44090595Y13850055D01*
X44090599Y13850052D01*
X44103300Y13840976D01*
X44107026Y13838179D01*
X44147341Y13806397D01*
X44154559Y13803862D01*
X44157036Y13802576D01*
X44163260Y13798128D01*
X44171103Y13795782D01*
X44171104Y13795782D01*
X44212426Y13783424D01*
X44216862Y13781983D01*
X44259416Y13767039D01*
X44259419Y13767038D01*
X44265289Y13764977D01*
X44270796Y13764500D01*
X44272933Y13764500D01*
X44274139Y13764448D01*
X44276565Y13764242D01*
X44283027Y13762310D01*
X44291199Y13762631D01*
X44291200Y13762631D01*
X44336830Y13764424D01*
X44340717Y13764500D01*
X44767383Y13764500D01*
X44825574Y13745593D01*
X44840799Y13731593D01*
X44843022Y13728284D01*
X44847434Y13724269D01*
X44847437Y13724266D01*
X44863521Y13709631D01*
X44954998Y13626393D01*
X45001630Y13601074D01*
X45082801Y13557001D01*
X45082803Y13557000D01*
X45088047Y13554153D01*
X45161833Y13534796D01*
X45228717Y13517249D01*
X45228721Y13517249D01*
X45234486Y13515736D01*
X45240447Y13515642D01*
X45240450Y13515642D01*
X45310175Y13514547D01*
X45385863Y13513358D01*
X45391679Y13514690D01*
X45527614Y13545823D01*
X45527617Y13545824D01*
X45533437Y13547157D01*
X45544337Y13552639D01*
X45663355Y13612498D01*
X45663357Y13612499D01*
X45668689Y13615181D01*
X45783810Y13713505D01*
X45833571Y13782754D01*
X45868672Y13831601D01*
X45868673Y13831603D01*
X45872156Y13836450D01*
X45928624Y13976920D01*
X45949956Y14126804D01*
X45950094Y14140000D01*
X45933373Y14278177D01*
X45932623Y14284377D01*
X45932622Y14284380D01*
X45931906Y14290299D01*
X45878392Y14431920D01*
X45792640Y14556689D01*
X45679603Y14657401D01*
X45545805Y14728243D01*
X45540017Y14729697D01*
X45540014Y14729698D01*
X45404760Y14763672D01*
X45404761Y14763672D01*
X45398972Y14765126D01*
X45346345Y14765401D01*
X45288255Y14784612D01*
X45252550Y14834300D01*
X45248581Y14852502D01*
X45231906Y14990299D01*
X45178392Y15131920D01*
X45092640Y15256689D01*
X44979603Y15357401D01*
X44845805Y15428243D01*
X44761486Y15449423D01*
X44715601Y15475436D01*
X42361312Y17829725D01*
X42348146Y17846028D01*
X42346010Y17849336D01*
X42341572Y17856210D01*
X42314289Y17877719D01*
X42308385Y17882964D01*
X42306342Y17884695D01*
X42303462Y17887575D01*
X42300146Y17889945D01*
X42300142Y17889948D01*
X42287441Y17899024D01*
X42283708Y17901826D01*
X42249825Y17928538D01*
X42249824Y17928538D01*
X42243400Y17933603D01*
X42236182Y17936138D01*
X42233705Y17937424D01*
X42227481Y17941872D01*
X42219640Y17944217D01*
X42219638Y17944218D01*
X42178318Y17956575D01*
X42173882Y17958016D01*
X42131325Y17972961D01*
X42131322Y17972962D01*
X42125452Y17975023D01*
X42119945Y17975500D01*
X42117807Y17975500D01*
X42116601Y17975552D01*
X42114175Y17975758D01*
X42107713Y17977690D01*
X42099541Y17977369D01*
X42099540Y17977369D01*
X42053910Y17975576D01*
X42050023Y17975500D01*
X41852697Y17975500D01*
X41794506Y17994407D01*
X41778435Y18009031D01*
X41776023Y18011767D01*
X41772640Y18016689D01*
X41748812Y18037919D01*
X41664057Y18113433D01*
X41664055Y18113434D01*
X41659603Y18117401D01*
X41525805Y18188243D01*
X41520017Y18189697D01*
X41520014Y18189698D01*
X41384760Y18223672D01*
X41384761Y18223672D01*
X41378972Y18225126D01*
X41303275Y18225522D01*
X41233545Y18225887D01*
X41233543Y18225887D01*
X41227579Y18225918D01*
X41080367Y18190576D01*
X41022419Y18160667D01*
X40951141Y18123878D01*
X40951139Y18123876D01*
X40945835Y18121139D01*
X40831749Y18021615D01*
X40770527Y17934504D01*
X40770204Y17934045D01*
X40721275Y17897308D01*
X40660097Y17896346D01*
X40607619Y17934895D01*
X40596021Y17951770D01*
X40596020Y17951771D01*
X40592640Y17956689D01*
X40550306Y17994407D01*
X40484057Y18053433D01*
X40484055Y18053434D01*
X40479603Y18057401D01*
X40345805Y18128243D01*
X40340017Y18129697D01*
X40340014Y18129698D01*
X40204760Y18163672D01*
X40204761Y18163672D01*
X40198972Y18165126D01*
X40123275Y18165522D01*
X40053545Y18165887D01*
X40053543Y18165887D01*
X40047579Y18165918D01*
X39900367Y18130576D01*
X39830544Y18094538D01*
X39771141Y18063878D01*
X39771139Y18063876D01*
X39765835Y18061139D01*
X39651749Y17961615D01*
X39648320Y17956736D01*
X39644322Y17952296D01*
X39642351Y17954071D01*
X39602075Y17923849D01*
X39540897Y17922905D01*
X39495870Y17951989D01*
X39492640Y17956689D01*
X39445483Y17998704D01*
X39384057Y18053433D01*
X39384055Y18053434D01*
X39379603Y18057401D01*
X39245805Y18128243D01*
X39240017Y18129697D01*
X39240014Y18129698D01*
X39104760Y18163672D01*
X39104761Y18163672D01*
X39098972Y18165126D01*
X39023275Y18165522D01*
X38953545Y18165887D01*
X38953543Y18165887D01*
X38947579Y18165918D01*
X38800367Y18130576D01*
X38730544Y18094538D01*
X38671141Y18063878D01*
X38671139Y18063876D01*
X38665835Y18061139D01*
X38551749Y17961615D01*
X38548318Y17956733D01*
X38548317Y17956732D01*
X38468127Y17842633D01*
X38464696Y17837751D01*
X38462529Y17832193D01*
X38462528Y17832191D01*
X38461567Y17829725D01*
X38409702Y17696698D01*
X38389941Y17546598D01*
X38390596Y17540665D01*
X38390596Y17540661D01*
X38397925Y17474281D01*
X38406554Y17396117D01*
X38408606Y17390510D01*
X38456530Y17259549D01*
X38456532Y17259545D01*
X38458582Y17253943D01*
X38543022Y17128284D01*
X38547434Y17124269D01*
X38547437Y17124266D01*
X38642154Y17038080D01*
X38654998Y17026393D01*
X38660242Y17023546D01*
X38782801Y16957001D01*
X38782803Y16957000D01*
X38788047Y16954153D01*
X38831750Y16942688D01*
X38928717Y16917249D01*
X38928721Y16917249D01*
X38934486Y16915736D01*
X38940447Y16915642D01*
X38940450Y16915642D01*
X39075984Y16913513D01*
X39133871Y16893694D01*
X39144433Y16884529D01*
X39265984Y16762978D01*
X39293761Y16708461D01*
X39294980Y16692974D01*
X39294980Y13012002D01*
X39276073Y12953811D01*
X39265984Y12941998D01*
X38905279Y12581293D01*
X38850762Y12553516D01*
X38790330Y12563087D01*
X38769417Y12577380D01*
X38684057Y12653433D01*
X38684055Y12653434D01*
X38679603Y12657401D01*
X38545805Y12728243D01*
X38540017Y12729697D01*
X38540014Y12729698D01*
X38404760Y12763672D01*
X38404761Y12763672D01*
X38398972Y12765126D01*
X38323275Y12765522D01*
X38253545Y12765887D01*
X38253543Y12765887D01*
X38247579Y12765918D01*
X38100367Y12730576D01*
X38040745Y12699803D01*
X37971141Y12663878D01*
X37971139Y12663876D01*
X37965835Y12661139D01*
X37851749Y12561615D01*
X37848317Y12556732D01*
X37844324Y12552297D01*
X37843212Y12553298D01*
X37799986Y12520839D01*
X37767913Y12515500D01*
X36343946Y12515500D01*
X36285755Y12534407D01*
X36273942Y12544496D01*
X35348713Y13469725D01*
X35335547Y13486028D01*
X35333411Y13489336D01*
X35328973Y13496210D01*
X35301690Y13517719D01*
X35295786Y13522964D01*
X35293743Y13524695D01*
X35290863Y13527575D01*
X35287547Y13529945D01*
X35287543Y13529948D01*
X35274842Y13539024D01*
X35271109Y13541826D01*
X35267799Y13544436D01*
X35230801Y13573603D01*
X35223583Y13576138D01*
X35221106Y13577424D01*
X35214882Y13581872D01*
X35207041Y13584217D01*
X35207039Y13584218D01*
X35165719Y13596575D01*
X35161283Y13598016D01*
X35118726Y13612961D01*
X35118723Y13612962D01*
X35112853Y13615023D01*
X35107346Y13615500D01*
X35105208Y13615500D01*
X35104002Y13615552D01*
X35101576Y13615758D01*
X35095114Y13617690D01*
X35086942Y13617369D01*
X35086941Y13617369D01*
X35041311Y13615576D01*
X35037424Y13615500D01*
X32834906Y13615500D01*
X32814070Y13617717D01*
X32810212Y13618548D01*
X32810209Y13618548D01*
X32802216Y13620269D01*
X32794095Y13619308D01*
X32794092Y13619308D01*
X32767718Y13616186D01*
X32759899Y13615725D01*
X32757174Y13615500D01*
X32753089Y13615500D01*
X32749065Y13614830D01*
X32749061Y13614830D01*
X32740309Y13613373D01*
X32733641Y13612263D01*
X32729035Y13611608D01*
X32678073Y13605576D01*
X32671180Y13602266D01*
X32668512Y13601423D01*
X32660969Y13600167D01*
X32621309Y13578768D01*
X32615795Y13575793D01*
X32611640Y13573676D01*
X32576915Y13557001D01*
X32565382Y13551463D01*
X32561151Y13547906D01*
X32559643Y13546398D01*
X32558748Y13545577D01*
X32556890Y13544009D01*
X32550953Y13540806D01*
X32514412Y13501276D01*
X32511718Y13498473D01*
X31757252Y12744007D01*
X31702735Y12716230D01*
X31687248Y12715011D01*
X31580872Y12715011D01*
X31560035Y12717229D01*
X31556187Y12718058D01*
X31556184Y12718058D01*
X31548186Y12719780D01*
X31518192Y12716230D01*
X31513688Y12715697D01*
X31505865Y12715236D01*
X31503142Y12715011D01*
X31499059Y12715011D01*
X31495033Y12714341D01*
X31495022Y12714340D01*
X31479619Y12711776D01*
X31475012Y12711120D01*
X31450719Y12708244D01*
X31432168Y12706049D01*
X31432167Y12706049D01*
X31424042Y12705087D01*
X31417147Y12701776D01*
X31414482Y12700933D01*
X31406939Y12699678D01*
X31361745Y12675292D01*
X31357636Y12673199D01*
X31311352Y12650974D01*
X31307121Y12647417D01*
X31306826Y12647122D01*
X31303050Y12644684D01*
X31243908Y12629004D01*
X31189854Y12651311D01*
X31188960Y12650025D01*
X31184056Y12653433D01*
X31179603Y12657401D01*
X31045805Y12728243D01*
X31040017Y12729697D01*
X31040014Y12729698D01*
X30904760Y12763672D01*
X30904761Y12763672D01*
X30898972Y12765126D01*
X30823275Y12765522D01*
X30753545Y12765887D01*
X30753543Y12765887D01*
X30747579Y12765918D01*
X30600367Y12730576D01*
X30540745Y12699803D01*
X30471141Y12663878D01*
X30471139Y12663876D01*
X30465835Y12661139D01*
X30351749Y12561615D01*
X30348318Y12556733D01*
X30348317Y12556732D01*
X30272591Y12448984D01*
X30264696Y12437751D01*
X30262529Y12432193D01*
X30262528Y12432191D01*
X30242004Y12379550D01*
X30209702Y12296698D01*
X30189941Y12146598D01*
X30190596Y12140665D01*
X30190596Y12140661D01*
X30196093Y12090874D01*
X30206554Y11996117D01*
X30241778Y11899862D01*
X30244019Y11838720D01*
X30209893Y11787935D01*
X30194213Y11777869D01*
X30071141Y11714347D01*
X30071139Y11714345D01*
X30065835Y11711608D01*
X29951749Y11612084D01*
X29948318Y11607202D01*
X29948317Y11607201D01*
X29888970Y11522759D01*
X29864696Y11488220D01*
X29822123Y11379026D01*
X29783371Y11331680D01*
X29729887Y11315989D01*
X24699674Y11315989D01*
X24678837Y11318207D01*
X24674989Y11319036D01*
X24674986Y11319036D01*
X24666988Y11320758D01*
X24633897Y11316842D01*
X24632490Y11316675D01*
X24624671Y11316214D01*
X24621946Y11315989D01*
X24617861Y11315989D01*
X24613837Y11315319D01*
X24613833Y11315319D01*
X24605081Y11313862D01*
X24598413Y11312752D01*
X24593807Y11312097D01*
X24542845Y11306065D01*
X24535951Y11302755D01*
X24533285Y11301912D01*
X24525741Y11300656D01*
X24481968Y11277037D01*
X24480563Y11276279D01*
X24476413Y11274165D01*
X24430155Y11251952D01*
X24425923Y11248395D01*
X24424395Y11246867D01*
X24423519Y11246064D01*
X24421665Y11244500D01*
X24415725Y11241295D01*
X24410171Y11235286D01*
X24410169Y11235285D01*
X24379173Y11201753D01*
X24376478Y11198950D01*
X24161152Y10983625D01*
X22122023Y8944496D01*
X22067507Y8916719D01*
X22052020Y8915500D01*
X19572697Y8915500D01*
X19514506Y8934407D01*
X19498435Y8949031D01*
X19496023Y8951767D01*
X19492640Y8956689D01*
X19379603Y9057401D01*
X19370451Y9062247D01*
X19328491Y9084463D01*
X19245805Y9128243D01*
X19240017Y9129697D01*
X19240014Y9129698D01*
X19104760Y9163672D01*
X19104761Y9163672D01*
X19098972Y9165126D01*
X19023275Y9165522D01*
X18953545Y9165887D01*
X18953543Y9165887D01*
X18947579Y9165918D01*
X18800367Y9130576D01*
X18744316Y9101646D01*
X18671141Y9063878D01*
X18671139Y9063876D01*
X18665835Y9061139D01*
X18551749Y8961615D01*
X18548318Y8956733D01*
X18548317Y8956732D01*
X18514526Y8908652D01*
X18464696Y8837751D01*
X18462529Y8832193D01*
X18462528Y8832191D01*
X18424397Y8734389D01*
X18409702Y8696698D01*
X18389941Y8546598D01*
X18390596Y8540665D01*
X18390596Y8540661D01*
X18402041Y8436994D01*
X18406554Y8396117D01*
X18408606Y8390510D01*
X18456530Y8259549D01*
X18456532Y8259545D01*
X18458582Y8253943D01*
X18543022Y8128284D01*
X18547434Y8124269D01*
X18547437Y8124266D01*
X18635169Y8044436D01*
X18654998Y8026393D01*
X18696055Y8004101D01*
X18782801Y7957001D01*
X18782803Y7957000D01*
X18788047Y7954153D01*
X18837277Y7941238D01*
X18928717Y7917249D01*
X18928721Y7917249D01*
X18934486Y7915736D01*
X18940447Y7915642D01*
X18940450Y7915642D01*
X19010175Y7914547D01*
X19085863Y7913358D01*
X19091679Y7914690D01*
X19227614Y7945823D01*
X19227617Y7945824D01*
X19233437Y7947157D01*
X19244337Y7952639D01*
X19363355Y8012498D01*
X19363357Y8012499D01*
X19368689Y8015181D01*
X19483810Y8113505D01*
X19490829Y8123273D01*
X19540141Y8159494D01*
X19571224Y8164500D01*
X19971433Y8164500D01*
X20029624Y8145593D01*
X20065588Y8096093D01*
X20065588Y8034907D01*
X20041437Y7995496D01*
X19490275Y7444334D01*
X19473975Y7431170D01*
X19463790Y7424594D01*
X19442281Y7397311D01*
X19437036Y7391407D01*
X19435305Y7389364D01*
X19432425Y7386484D01*
X19430055Y7383168D01*
X19430052Y7383164D01*
X19420976Y7370463D01*
X19418184Y7366743D01*
X19415477Y7363309D01*
X19410474Y7356963D01*
X19359598Y7322973D01*
X19316307Y7321274D01*
X19316287Y7321075D01*
X19314851Y7321216D01*
X19313414Y7321160D01*
X19311444Y7321552D01*
X19311436Y7321553D01*
X19306674Y7322500D01*
X17733326Y7322500D01*
X17660260Y7307966D01*
X17639096Y7293825D01*
X17598463Y7266675D01*
X17577399Y7252601D01*
X17522034Y7169740D01*
X17507500Y7096674D01*
X17507500Y5523326D01*
X17522034Y5450260D01*
X17577399Y5367399D01*
X17660260Y5312034D01*
X17733326Y5297500D01*
X19245500Y5297500D01*
X19303691Y5278593D01*
X19339655Y5229093D01*
X19344500Y5198500D01*
X19344500Y5160624D01*
X19342283Y5139788D01*
X19339731Y5127934D01*
X19340692Y5119813D01*
X19340692Y5119810D01*
X19343814Y5093436D01*
X19344275Y5085613D01*
X19344500Y5082890D01*
X19344500Y5078807D01*
X19345170Y5074781D01*
X19345171Y5074770D01*
X19347735Y5059367D01*
X19348391Y5054760D01*
X19350541Y5036600D01*
X19352898Y5016687D01*
X19354424Y5003790D01*
X19357735Y4996895D01*
X19358578Y4994230D01*
X19359833Y4986687D01*
X19384219Y4941493D01*
X19386325Y4937358D01*
X19392570Y4924352D01*
X19400714Y4863711D01*
X19371658Y4809865D01*
X19316502Y4783381D01*
X19303325Y4782500D01*
X17733326Y4782500D01*
X17660260Y4767966D01*
X17577399Y4712601D01*
X17522034Y4629740D01*
X17507500Y4556674D01*
X17507500Y2983326D01*
X17522034Y2910260D01*
X17577399Y2827399D01*
X17585509Y2821980D01*
X17623170Y2796816D01*
X17661050Y2748766D01*
X17663452Y2687628D01*
X17629460Y2636754D01*
X17568169Y2615500D01*
X16931831Y2615500D01*
X16873640Y2634407D01*
X16837676Y2683907D01*
X16837676Y2745093D01*
X16876830Y2796816D01*
X16914491Y2821980D01*
X16922601Y2827399D01*
X16977966Y2910260D01*
X16992500Y2983326D01*
X16992500Y4556674D01*
X16977966Y4629740D01*
X16922601Y4712601D01*
X16839740Y4767966D01*
X16766674Y4782500D01*
X15193326Y4782500D01*
X15120260Y4767966D01*
X15037399Y4712601D01*
X14982034Y4629740D01*
X14967500Y4556674D01*
X14967500Y2983326D01*
X14982034Y2910260D01*
X15037399Y2827399D01*
X15045509Y2821980D01*
X15083170Y2796816D01*
X15121050Y2748766D01*
X15123452Y2687628D01*
X15089460Y2636754D01*
X15028169Y2615500D01*
X14616545Y2615500D01*
X14558354Y2634407D01*
X14546541Y2644496D01*
X11667711Y5523326D01*
X14967500Y5523326D01*
X14982034Y5450260D01*
X15037399Y5367399D01*
X15120260Y5312034D01*
X15193326Y5297500D01*
X16766674Y5297500D01*
X16839740Y5312034D01*
X16922601Y5367399D01*
X16977966Y5450260D01*
X16992500Y5523326D01*
X16992500Y7096674D01*
X16977966Y7169740D01*
X16922601Y7252601D01*
X16901538Y7266675D01*
X16860904Y7293825D01*
X16839740Y7307966D01*
X16766674Y7322500D01*
X15193326Y7322500D01*
X15120260Y7307966D01*
X15099096Y7293825D01*
X15058463Y7266675D01*
X15037399Y7252601D01*
X14982034Y7169740D01*
X14967500Y7096674D01*
X14967500Y5523326D01*
X11667711Y5523326D01*
X9512496Y7678541D01*
X9484719Y7733058D01*
X9483500Y7748545D01*
X9483500Y10902300D01*
X9502407Y10960491D01*
X9551907Y10996455D01*
X9582500Y11001300D01*
X9970874Y11001300D01*
X10043940Y11015834D01*
X10100930Y11053913D01*
X10118691Y11065780D01*
X10126801Y11071199D01*
X10182166Y11154060D01*
X10196700Y11227126D01*
X10196700Y12952874D01*
X10182166Y13025940D01*
X10126801Y13108801D01*
X10104620Y13123622D01*
X10078190Y13141281D01*
X10043940Y13164166D01*
X9970874Y13178700D01*
X9582500Y13178700D01*
X9524309Y13197607D01*
X9488345Y13247107D01*
X9483500Y13277700D01*
X9483500Y17202300D01*
X9502407Y17260491D01*
X9551907Y17296455D01*
X9582500Y17301300D01*
X9970874Y17301300D01*
X10043940Y17315834D01*
X10126801Y17371199D01*
X10182166Y17454060D01*
X10196700Y17527126D01*
X10196700Y18754702D01*
X24921933Y18754702D01*
X24951886Y18580386D01*
X25021137Y18417636D01*
X25125972Y18275182D01*
X25130354Y18271460D01*
X25130356Y18271457D01*
X25255480Y18165157D01*
X25260765Y18160667D01*
X25316966Y18131969D01*
X25413164Y18082847D01*
X25413167Y18082846D01*
X25418288Y18080231D01*
X25423873Y18078864D01*
X25423874Y18078864D01*
X25585810Y18039239D01*
X25585813Y18039239D01*
X25590090Y18038192D01*
X25594488Y18037919D01*
X25594489Y18037919D01*
X25599728Y18037594D01*
X25599730Y18037594D01*
X25601244Y18037500D01*
X25728773Y18037500D01*
X25860161Y18052818D01*
X25865567Y18054780D01*
X25865570Y18054781D01*
X26021009Y18111204D01*
X26026417Y18113167D01*
X26031227Y18116320D01*
X26031230Y18116322D01*
X26139039Y18187005D01*
X26174332Y18210144D01*
X26295970Y18338547D01*
X26341909Y18417636D01*
X26381917Y18486516D01*
X26381917Y18486517D01*
X26384806Y18491490D01*
X26436075Y18660767D01*
X26441903Y18754702D01*
X43402973Y18754702D01*
X43432926Y18580386D01*
X43502177Y18417636D01*
X43607012Y18275182D01*
X43611394Y18271460D01*
X43611396Y18271457D01*
X43736520Y18165157D01*
X43741805Y18160667D01*
X43798006Y18131969D01*
X43894204Y18082847D01*
X43894207Y18082846D01*
X43899328Y18080231D01*
X43904913Y18078864D01*
X43904914Y18078864D01*
X44066850Y18039239D01*
X44066853Y18039239D01*
X44071130Y18038192D01*
X44075528Y18037919D01*
X44075529Y18037919D01*
X44080768Y18037594D01*
X44080770Y18037594D01*
X44082284Y18037500D01*
X44209813Y18037500D01*
X44341201Y18052818D01*
X44346607Y18054780D01*
X44346610Y18054781D01*
X44502049Y18111204D01*
X44507457Y18113167D01*
X44512267Y18116320D01*
X44512270Y18116322D01*
X44620079Y18187005D01*
X44655372Y18210144D01*
X44777010Y18338547D01*
X44822949Y18417636D01*
X44862957Y18486516D01*
X44862957Y18486517D01*
X44865846Y18491490D01*
X44917115Y18660767D01*
X44922943Y18754702D01*
X68101933Y18754702D01*
X68131886Y18580386D01*
X68201137Y18417636D01*
X68305972Y18275182D01*
X68310354Y18271460D01*
X68310356Y18271457D01*
X68435480Y18165157D01*
X68440765Y18160667D01*
X68496966Y18131969D01*
X68593164Y18082847D01*
X68593167Y18082846D01*
X68598288Y18080231D01*
X68603873Y18078864D01*
X68603874Y18078864D01*
X68765810Y18039239D01*
X68765813Y18039239D01*
X68770090Y18038192D01*
X68774488Y18037919D01*
X68774489Y18037919D01*
X68779728Y18037594D01*
X68779730Y18037594D01*
X68781244Y18037500D01*
X68908773Y18037500D01*
X69040161Y18052818D01*
X69045567Y18054780D01*
X69045570Y18054781D01*
X69201009Y18111204D01*
X69206417Y18113167D01*
X69211227Y18116320D01*
X69211230Y18116322D01*
X69319039Y18187005D01*
X69354332Y18210144D01*
X69475970Y18338547D01*
X69521909Y18417636D01*
X69561917Y18486516D01*
X69561917Y18486517D01*
X69564806Y18491490D01*
X69616075Y18660767D01*
X69621903Y18754702D01*
X86582973Y18754702D01*
X86612926Y18580386D01*
X86682177Y18417636D01*
X86787012Y18275182D01*
X86791394Y18271460D01*
X86791396Y18271457D01*
X86916520Y18165157D01*
X86921805Y18160667D01*
X86978006Y18131969D01*
X87074204Y18082847D01*
X87074207Y18082846D01*
X87079328Y18080231D01*
X87084913Y18078864D01*
X87084914Y18078864D01*
X87246850Y18039239D01*
X87246853Y18039239D01*
X87251130Y18038192D01*
X87255528Y18037919D01*
X87255529Y18037919D01*
X87260768Y18037594D01*
X87260770Y18037594D01*
X87262284Y18037500D01*
X87389813Y18037500D01*
X87521201Y18052818D01*
X87526607Y18054780D01*
X87526610Y18054781D01*
X87682049Y18111204D01*
X87687457Y18113167D01*
X87692267Y18116320D01*
X87692270Y18116322D01*
X87800079Y18187005D01*
X87835372Y18210144D01*
X87957010Y18338547D01*
X88002949Y18417636D01*
X88042957Y18486516D01*
X88042957Y18486517D01*
X88045846Y18491490D01*
X88097115Y18660767D01*
X88108067Y18837298D01*
X88078114Y19011614D01*
X88008863Y19174364D01*
X87904028Y19316818D01*
X87899646Y19320540D01*
X87899644Y19320543D01*
X87773621Y19427607D01*
X87773620Y19427608D01*
X87769235Y19431333D01*
X87676213Y19478833D01*
X87616836Y19509153D01*
X87616833Y19509154D01*
X87611712Y19511769D01*
X87606127Y19513136D01*
X87606126Y19513136D01*
X87444190Y19552761D01*
X87444187Y19552761D01*
X87439910Y19553808D01*
X87435512Y19554081D01*
X87435511Y19554081D01*
X87430272Y19554406D01*
X87430270Y19554406D01*
X87428756Y19554500D01*
X87301227Y19554500D01*
X87169839Y19539182D01*
X87164433Y19537220D01*
X87164430Y19537219D01*
X87023394Y19486024D01*
X87003583Y19478833D01*
X86998773Y19475680D01*
X86998770Y19475678D01*
X86935125Y19433950D01*
X86855668Y19381856D01*
X86734030Y19253453D01*
X86731143Y19248483D01*
X86731141Y19248480D01*
X86685019Y19169074D01*
X86645194Y19100510D01*
X86593925Y18931233D01*
X86582973Y18754702D01*
X69621903Y18754702D01*
X69627027Y18837298D01*
X69597074Y19011614D01*
X69527823Y19174364D01*
X69422988Y19316818D01*
X69418606Y19320540D01*
X69418604Y19320543D01*
X69292581Y19427607D01*
X69292580Y19427608D01*
X69288195Y19431333D01*
X69195173Y19478833D01*
X69135796Y19509153D01*
X69135793Y19509154D01*
X69130672Y19511769D01*
X69125087Y19513136D01*
X69125086Y19513136D01*
X68963150Y19552761D01*
X68963147Y19552761D01*
X68958870Y19553808D01*
X68954472Y19554081D01*
X68954471Y19554081D01*
X68949232Y19554406D01*
X68949230Y19554406D01*
X68947716Y19554500D01*
X68820187Y19554500D01*
X68688799Y19539182D01*
X68683393Y19537220D01*
X68683390Y19537219D01*
X68542354Y19486024D01*
X68522543Y19478833D01*
X68517733Y19475680D01*
X68517730Y19475678D01*
X68454085Y19433950D01*
X68374628Y19381856D01*
X68252990Y19253453D01*
X68250103Y19248483D01*
X68250101Y19248480D01*
X68203979Y19169074D01*
X68164154Y19100510D01*
X68112885Y18931233D01*
X68101933Y18754702D01*
X44922943Y18754702D01*
X44928067Y18837298D01*
X44898114Y19011614D01*
X44828863Y19174364D01*
X44724028Y19316818D01*
X44719646Y19320540D01*
X44719644Y19320543D01*
X44593621Y19427607D01*
X44593620Y19427608D01*
X44589235Y19431333D01*
X44496213Y19478833D01*
X44436836Y19509153D01*
X44436833Y19509154D01*
X44431712Y19511769D01*
X44426127Y19513136D01*
X44426126Y19513136D01*
X44264190Y19552761D01*
X44264187Y19552761D01*
X44259910Y19553808D01*
X44255512Y19554081D01*
X44255511Y19554081D01*
X44250272Y19554406D01*
X44250270Y19554406D01*
X44248756Y19554500D01*
X44121227Y19554500D01*
X43989839Y19539182D01*
X43984433Y19537220D01*
X43984430Y19537219D01*
X43843394Y19486024D01*
X43823583Y19478833D01*
X43818773Y19475680D01*
X43818770Y19475678D01*
X43755125Y19433950D01*
X43675668Y19381856D01*
X43554030Y19253453D01*
X43551143Y19248483D01*
X43551141Y19248480D01*
X43505019Y19169074D01*
X43465194Y19100510D01*
X43413925Y18931233D01*
X43402973Y18754702D01*
X26441903Y18754702D01*
X26447027Y18837298D01*
X26417074Y19011614D01*
X26347823Y19174364D01*
X26242988Y19316818D01*
X26238606Y19320540D01*
X26238604Y19320543D01*
X26112581Y19427607D01*
X26112580Y19427608D01*
X26108195Y19431333D01*
X26015173Y19478833D01*
X25955796Y19509153D01*
X25955793Y19509154D01*
X25950672Y19511769D01*
X25945087Y19513136D01*
X25945086Y19513136D01*
X25783150Y19552761D01*
X25783147Y19552761D01*
X25778870Y19553808D01*
X25774472Y19554081D01*
X25774471Y19554081D01*
X25769232Y19554406D01*
X25769230Y19554406D01*
X25767716Y19554500D01*
X25640187Y19554500D01*
X25508799Y19539182D01*
X25503393Y19537220D01*
X25503390Y19537219D01*
X25362354Y19486024D01*
X25342543Y19478833D01*
X25337733Y19475680D01*
X25337730Y19475678D01*
X25274085Y19433950D01*
X25194628Y19381856D01*
X25072990Y19253453D01*
X25070103Y19248483D01*
X25070101Y19248480D01*
X25023979Y19169074D01*
X24984154Y19100510D01*
X24932885Y18931233D01*
X24921933Y18754702D01*
X10196700Y18754702D01*
X10196700Y19252874D01*
X10182166Y19325940D01*
X10126801Y19408801D01*
X10043940Y19464166D01*
X9970874Y19478700D01*
X8245126Y19478700D01*
X8172060Y19464166D01*
X8089199Y19408801D01*
X8033834Y19325940D01*
X8019300Y19252874D01*
X8019300Y17527126D01*
X8033834Y17454060D01*
X8089199Y17371199D01*
X8172060Y17315834D01*
X8245126Y17301300D01*
X8633500Y17301300D01*
X8691691Y17282393D01*
X8727655Y17232893D01*
X8732500Y17202300D01*
X8732500Y13277700D01*
X8713593Y13219509D01*
X8664093Y13183545D01*
X8633500Y13178700D01*
X8245126Y13178700D01*
X8172060Y13164166D01*
X8137810Y13141281D01*
X8111381Y13123622D01*
X8089199Y13108801D01*
X8033834Y13025940D01*
X8019300Y12952874D01*
X8019300Y11227126D01*
X5746200Y11227126D01*
X5746200Y11874320D01*
X5742078Y11887005D01*
X5737957Y11890000D01*
X4823680Y11890000D01*
X4810995Y11885878D01*
X4808000Y11881757D01*
X4808000Y10967480D01*
X4408000Y10967480D01*
X4408000Y11874320D01*
X4403878Y11887005D01*
X4399757Y11890000D01*
X3485480Y11890000D01*
X3472795Y11885878D01*
X3469800Y11881757D01*
X3469800Y11210161D01*
X504000Y11210161D01*
X504000Y12305680D01*
X3469800Y12305680D01*
X3473922Y12292995D01*
X3478043Y12290000D01*
X4392320Y12290000D01*
X4405005Y12294122D01*
X4408000Y12298243D01*
X4408000Y12305680D01*
X4808000Y12305680D01*
X4812122Y12292995D01*
X4816243Y12290000D01*
X5730520Y12290000D01*
X5743205Y12294122D01*
X5746200Y12298243D01*
X5746200Y12969839D01*
X5745854Y12975685D01*
X5743966Y12991553D01*
X5740072Y13005719D01*
X5701430Y13092714D01*
X5691254Y13107521D01*
X5625092Y13173567D01*
X5610269Y13183717D01*
X5523220Y13222200D01*
X5509015Y13226073D01*
X5493620Y13227868D01*
X5487908Y13228200D01*
X4823680Y13228200D01*
X4810995Y13224078D01*
X4808000Y13219957D01*
X4808000Y12305680D01*
X4408000Y12305680D01*
X4408000Y13212520D01*
X4403878Y13225205D01*
X4399757Y13228200D01*
X3728161Y13228200D01*
X3722315Y13227854D01*
X3706447Y13225966D01*
X3692281Y13222072D01*
X3605286Y13183430D01*
X3590479Y13173254D01*
X3524433Y13107092D01*
X3514283Y13092269D01*
X3475800Y13005220D01*
X3471927Y12991015D01*
X3470132Y12975620D01*
X3469800Y12969908D01*
X3469800Y12305680D01*
X504000Y12305680D01*
X504000Y17510161D01*
X3469800Y17510161D01*
X3470146Y17504315D01*
X3472034Y17488447D01*
X3475928Y17474281D01*
X3514570Y17387286D01*
X3524746Y17372479D01*
X3590908Y17306433D01*
X3605731Y17296283D01*
X3692780Y17257800D01*
X3706985Y17253927D01*
X3722380Y17252132D01*
X3728092Y17251800D01*
X4392320Y17251800D01*
X4405005Y17255922D01*
X4408000Y17260043D01*
X4408000Y17267480D01*
X4808000Y17267480D01*
X4812122Y17254795D01*
X4816243Y17251800D01*
X5487839Y17251800D01*
X5493685Y17252146D01*
X5509553Y17254034D01*
X5523719Y17257928D01*
X5610714Y17296570D01*
X5625521Y17306746D01*
X5691567Y17372908D01*
X5701717Y17387731D01*
X5740200Y17474780D01*
X5744073Y17488985D01*
X5745868Y17504380D01*
X5746200Y17510092D01*
X5746200Y18174320D01*
X5742078Y18187005D01*
X5737957Y18190000D01*
X4823680Y18190000D01*
X4810995Y18185878D01*
X4808000Y18181757D01*
X4808000Y17267480D01*
X4408000Y17267480D01*
X4408000Y18174320D01*
X4403878Y18187005D01*
X4399757Y18190000D01*
X3485480Y18190000D01*
X3472795Y18185878D01*
X3469800Y18181757D01*
X3469800Y17510161D01*
X504000Y17510161D01*
X504000Y18605680D01*
X3469800Y18605680D01*
X3473922Y18592995D01*
X3478043Y18590000D01*
X4392320Y18590000D01*
X4405005Y18594122D01*
X4408000Y18598243D01*
X4408000Y18605680D01*
X4808000Y18605680D01*
X4812122Y18592995D01*
X4816243Y18590000D01*
X5730520Y18590000D01*
X5743205Y18594122D01*
X5746200Y18598243D01*
X5746200Y19269839D01*
X5745854Y19275685D01*
X5743966Y19291553D01*
X5740072Y19305719D01*
X5701430Y19392714D01*
X5691254Y19407521D01*
X5625092Y19473567D01*
X5610269Y19483717D01*
X5523220Y19522200D01*
X5509015Y19526073D01*
X5493620Y19527868D01*
X5487908Y19528200D01*
X4823680Y19528200D01*
X4810995Y19524078D01*
X4808000Y19519957D01*
X4808000Y18605680D01*
X4408000Y18605680D01*
X4408000Y19512520D01*
X4403878Y19525205D01*
X4399757Y19528200D01*
X3728161Y19528200D01*
X3722315Y19527854D01*
X3706447Y19525966D01*
X3692281Y19522072D01*
X3605286Y19483430D01*
X3590479Y19473254D01*
X3524433Y19407092D01*
X3514283Y19392269D01*
X3475800Y19305220D01*
X3471927Y19291015D01*
X3470132Y19275620D01*
X3469800Y19269908D01*
X3469800Y18605680D01*
X504000Y18605680D01*
X504000Y55104658D01*
X47922041Y55104658D01*
X47922696Y55098725D01*
X47922696Y55098721D01*
X47935187Y54985579D01*
X47938654Y54954177D01*
X47940706Y54948570D01*
X47988630Y54817609D01*
X47988632Y54817605D01*
X47990682Y54812003D01*
X48075122Y54686344D01*
X48079534Y54682329D01*
X48079537Y54682326D01*
X48095621Y54667691D01*
X48187098Y54584453D01*
X48245237Y54552886D01*
X48314901Y54515061D01*
X48314903Y54515060D01*
X48320147Y54512213D01*
X48396898Y54492078D01*
X48460817Y54475309D01*
X48460821Y54475309D01*
X48466586Y54473796D01*
X48472547Y54473702D01*
X48472550Y54473702D01*
X48542274Y54472607D01*
X48617963Y54471418D01*
X48623779Y54472750D01*
X48759714Y54503883D01*
X48759717Y54503884D01*
X48765537Y54505217D01*
X48776437Y54510699D01*
X48895455Y54570558D01*
X48895457Y54570559D01*
X48900789Y54573241D01*
X49015910Y54671565D01*
X49104256Y54794510D01*
X49148868Y54905487D01*
X49188115Y54952426D01*
X49240724Y54967561D01*
X60608942Y54967560D01*
X60732640Y54967560D01*
X60740045Y54969966D01*
X60740051Y54969967D01*
X60754827Y54974768D01*
X60769929Y54978394D01*
X60785272Y54980824D01*
X60785274Y54980825D01*
X60792966Y54982043D01*
X60813750Y54992633D01*
X60828099Y54998577D01*
X60850284Y55005785D01*
X60856583Y55010361D01*
X60856586Y55010363D01*
X60869154Y55019495D01*
X60882402Y55027613D01*
X60896241Y55034664D01*
X60896243Y55034665D01*
X60903182Y55038201D01*
X60990651Y55125670D01*
X61315817Y55450835D01*
X61370334Y55478612D01*
X61433059Y55467834D01*
X61453569Y55456698D01*
X61472594Y55446368D01*
X61472596Y55446367D01*
X61477840Y55443520D01*
X61554591Y55423385D01*
X61618510Y55406616D01*
X61618514Y55406616D01*
X61624279Y55405103D01*
X61630240Y55405009D01*
X61630243Y55405009D01*
X61699967Y55403914D01*
X61775656Y55402725D01*
X61781472Y55404057D01*
X61917407Y55435190D01*
X61917410Y55435191D01*
X61923230Y55436524D01*
X61934130Y55442006D01*
X62053148Y55501865D01*
X62053150Y55501866D01*
X62058482Y55504548D01*
X62173603Y55602872D01*
X62230699Y55682328D01*
X62258465Y55720968D01*
X62258466Y55720970D01*
X62261949Y55725817D01*
X62318417Y55866287D01*
X62339749Y56016171D01*
X62339887Y56029367D01*
X62321699Y56179666D01*
X62268185Y56321287D01*
X62182433Y56446056D01*
X62148743Y56476072D01*
X62073850Y56542800D01*
X62073848Y56542801D01*
X62069396Y56546768D01*
X61935598Y56617610D01*
X61929810Y56619064D01*
X61929807Y56619065D01*
X61794553Y56653039D01*
X61794554Y56653039D01*
X61788765Y56654493D01*
X61729888Y56654801D01*
X61671797Y56674013D01*
X61636093Y56723700D01*
X61632123Y56741907D01*
X61631983Y56743071D01*
X61620509Y56837888D01*
X61615310Y56880850D01*
X61615309Y56880853D01*
X61614593Y56886772D01*
X61561079Y57028393D01*
X61475327Y57153162D01*
X61362290Y57253874D01*
X61228492Y57324716D01*
X61222704Y57326170D01*
X61222701Y57326171D01*
X61087447Y57360145D01*
X61087448Y57360145D01*
X61081659Y57361599D01*
X61005963Y57361995D01*
X60936232Y57362360D01*
X60936230Y57362360D01*
X60930266Y57362391D01*
X60783054Y57327049D01*
X60722179Y57295629D01*
X60653828Y57260351D01*
X60653826Y57260349D01*
X60648522Y57257612D01*
X60534436Y57158088D01*
X60447383Y57034224D01*
X60445216Y57028666D01*
X60445215Y57028664D01*
X60442932Y57022809D01*
X60392389Y56893171D01*
X60391610Y56887256D01*
X60391610Y56887255D01*
X60390767Y56880850D01*
X60372628Y56743071D01*
X60373283Y56737138D01*
X60373283Y56737134D01*
X60382407Y56654493D01*
X60389241Y56592590D01*
X60439928Y56454081D01*
X60439928Y56454080D01*
X60441269Y56450416D01*
X60440550Y56450153D01*
X60449367Y56394438D01*
X60421592Y56339933D01*
X60339215Y56257556D01*
X60284698Y56229779D01*
X60269211Y56228560D01*
X56319670Y56228560D01*
X49239911Y56228559D01*
X49181720Y56247466D01*
X49147302Y56292565D01*
X49112602Y56384396D01*
X49110492Y56389980D01*
X49024740Y56514749D01*
X48911703Y56615461D01*
X48777905Y56686303D01*
X48772117Y56687757D01*
X48772114Y56687758D01*
X48649341Y56718597D01*
X48631072Y56723186D01*
X48555376Y56723582D01*
X48485645Y56723947D01*
X48485643Y56723947D01*
X48479679Y56723978D01*
X48332467Y56688636D01*
X48266913Y56654801D01*
X48203241Y56621938D01*
X48203239Y56621936D01*
X48197935Y56619199D01*
X48083849Y56519675D01*
X48080418Y56514793D01*
X48080417Y56514792D01*
X48000227Y56400693D01*
X47996796Y56395811D01*
X47994629Y56390253D01*
X47994628Y56390251D01*
X47967740Y56321287D01*
X47941802Y56254758D01*
X47941023Y56248843D01*
X47941023Y56248842D01*
X47940842Y56247466D01*
X47922041Y56104658D01*
X47938654Y55954177D01*
X47940706Y55948570D01*
X47988630Y55817609D01*
X47988632Y55817605D01*
X47990682Y55812003D01*
X48075122Y55686344D01*
X48090723Y55672148D01*
X48121039Y55619003D01*
X48114326Y55558187D01*
X48092096Y55528254D01*
X48092340Y55528034D01*
X48090017Y55525453D01*
X48089177Y55524323D01*
X48083849Y55519675D01*
X48080418Y55514793D01*
X48080417Y55514792D01*
X48003260Y55405009D01*
X47996796Y55395811D01*
X47941802Y55254758D01*
X47922041Y55104658D01*
X504000Y55104658D01*
X504000Y57466190D01*
X1274000Y57466190D01*
X1275718Y57434127D01*
X1278597Y57407344D01*
X1280050Y57402703D01*
X1280051Y57402699D01*
X1287697Y57378280D01*
X1313577Y57295629D01*
X1315907Y57291362D01*
X1336378Y57253874D01*
X1347603Y57233317D01*
X1398773Y57164963D01*
X1724963Y56838773D01*
X1748847Y56817318D01*
X1769821Y56800415D01*
X1774130Y56798161D01*
X1854906Y56755907D01*
X1873550Y56746154D01*
X1941671Y56726152D01*
X2026190Y56714000D01*
X3321810Y56714000D01*
X3323111Y56714070D01*
X3323122Y56714070D01*
X3352557Y56715647D01*
X3352575Y56715648D01*
X3353873Y56715718D01*
X3355165Y56715857D01*
X3355179Y56715858D01*
X3369740Y56717424D01*
X3380656Y56718597D01*
X3385297Y56720050D01*
X3385301Y56720051D01*
X3439857Y56737134D01*
X3492371Y56753577D01*
X3496638Y56755907D01*
X3551585Y56785911D01*
X3551588Y56785913D01*
X3554683Y56787603D01*
X3623037Y56838773D01*
X3949227Y57164963D01*
X3970682Y57188847D01*
X3987585Y57209821D01*
X4030239Y57291362D01*
X4039592Y57309241D01*
X4041846Y57313550D01*
X4061848Y57381671D01*
X4074000Y57466190D01*
X4074000Y61248728D01*
X4092907Y61306919D01*
X4102996Y61318732D01*
X4869268Y62085004D01*
X4923785Y62112781D01*
X4939272Y62114000D01*
X12727500Y62114000D01*
X12785691Y62095093D01*
X12821655Y62045593D01*
X12826500Y62015000D01*
X12826500Y60276866D01*
X12833255Y60214684D01*
X12835435Y60208869D01*
X12856887Y60151647D01*
X12884385Y60078295D01*
X12971739Y59961739D01*
X13088295Y59874385D01*
X13224684Y59823255D01*
X13230856Y59822585D01*
X13230858Y59822584D01*
X13266837Y59818676D01*
X13286866Y59816500D01*
X19733134Y59816500D01*
X19753163Y59818676D01*
X19789142Y59822584D01*
X19789144Y59822585D01*
X19795316Y59823255D01*
X19931705Y59874385D01*
X20048261Y59961739D01*
X20135615Y60078295D01*
X20163114Y60151647D01*
X20184565Y60208869D01*
X20186745Y60214684D01*
X20193500Y60276866D01*
X20193500Y61736598D01*
X40644941Y61736598D01*
X40645596Y61730665D01*
X40645596Y61730661D01*
X40658087Y61617519D01*
X40661554Y61586117D01*
X40668579Y61566920D01*
X40711530Y61449549D01*
X40711532Y61449545D01*
X40713582Y61443943D01*
X40798022Y61318284D01*
X40802434Y61314269D01*
X40802437Y61314266D01*
X40905582Y61220411D01*
X40909998Y61216393D01*
X40968137Y61184826D01*
X41037801Y61147001D01*
X41037803Y61147000D01*
X41043047Y61144153D01*
X41119798Y61124018D01*
X41183717Y61107249D01*
X41183721Y61107249D01*
X41189486Y61105736D01*
X41195447Y61105642D01*
X41195450Y61105642D01*
X41265174Y61104547D01*
X41340863Y61103358D01*
X41346679Y61104690D01*
X41482614Y61135823D01*
X41482617Y61135824D01*
X41488437Y61137157D01*
X41499337Y61142639D01*
X41618355Y61202498D01*
X41618357Y61202499D01*
X41623689Y61205181D01*
X41738810Y61303505D01*
X41788487Y61372637D01*
X41823672Y61421601D01*
X41823673Y61421603D01*
X41827156Y61426450D01*
X41871767Y61537425D01*
X41911014Y61584365D01*
X41963623Y61599500D01*
X43152171Y61599500D01*
X43210362Y61580593D01*
X43246326Y61531093D01*
X43244408Y61464539D01*
X43204702Y61362698D01*
X43203923Y61356783D01*
X43203923Y61356782D01*
X43203742Y61355407D01*
X43184941Y61212598D01*
X43185596Y61206665D01*
X43185596Y61206661D01*
X43193417Y61135823D01*
X43201554Y61062117D01*
X43203606Y61056510D01*
X43251530Y60925549D01*
X43251532Y60925545D01*
X43253582Y60919943D01*
X43338022Y60794284D01*
X43353623Y60780088D01*
X43383939Y60726943D01*
X43377226Y60666127D01*
X43354996Y60636194D01*
X43355240Y60635974D01*
X43352917Y60633393D01*
X43352077Y60632263D01*
X43346749Y60627615D01*
X43259696Y60503751D01*
X43204702Y60362698D01*
X43184941Y60212598D01*
X43185596Y60206665D01*
X43185596Y60206661D01*
X43198087Y60093519D01*
X43201554Y60062117D01*
X43203606Y60056510D01*
X43251530Y59925549D01*
X43251532Y59925545D01*
X43253582Y59919943D01*
X43338022Y59794284D01*
X43342434Y59790269D01*
X43342437Y59790266D01*
X43358521Y59775631D01*
X43449998Y59692393D01*
X43508137Y59660826D01*
X43577801Y59623001D01*
X43577803Y59623000D01*
X43583047Y59620153D01*
X43659798Y59600018D01*
X43723717Y59583249D01*
X43723721Y59583249D01*
X43729486Y59581736D01*
X43735447Y59581642D01*
X43735450Y59581642D01*
X43805175Y59580547D01*
X43880863Y59579358D01*
X43886679Y59580690D01*
X44022614Y59611823D01*
X44022617Y59611824D01*
X44028437Y59613157D01*
X44039337Y59618639D01*
X44158355Y59678498D01*
X44158357Y59678499D01*
X44163689Y59681181D01*
X44278810Y59779505D01*
X44367156Y59902450D01*
X44411767Y60013425D01*
X44451014Y60060365D01*
X44503623Y60075500D01*
X63026261Y60075500D01*
X63033666Y60077906D01*
X63033672Y60077907D01*
X63048448Y60082708D01*
X63063550Y60086334D01*
X63078893Y60088764D01*
X63078895Y60088765D01*
X63086587Y60089983D01*
X63107371Y60100573D01*
X63121720Y60106517D01*
X63143905Y60113725D01*
X63150204Y60118301D01*
X63150207Y60118303D01*
X63162775Y60127435D01*
X63176023Y60135553D01*
X63189862Y60142604D01*
X63189864Y60142605D01*
X63196803Y60146141D01*
X64577285Y61526623D01*
X65872577Y62821914D01*
X65927094Y62849691D01*
X65989819Y62838913D01*
X66020981Y62821994D01*
X66034601Y62814599D01*
X66061269Y62807603D01*
X66175271Y62777695D01*
X66175275Y62777695D01*
X66181040Y62776182D01*
X66187001Y62776088D01*
X66187004Y62776088D01*
X66256728Y62774993D01*
X66332417Y62773804D01*
X66338233Y62775136D01*
X66474168Y62806269D01*
X66474171Y62806270D01*
X66479991Y62807603D01*
X66490891Y62813085D01*
X66609909Y62872944D01*
X66609911Y62872945D01*
X66615243Y62875627D01*
X66730364Y62973951D01*
X66818710Y63096896D01*
X66875178Y63237366D01*
X66894062Y63370050D01*
X66896054Y63384045D01*
X66896054Y63384047D01*
X66896510Y63387250D01*
X66896648Y63400446D01*
X66886152Y63487182D01*
X66879177Y63544823D01*
X66879176Y63544826D01*
X66878460Y63550745D01*
X66824946Y63692366D01*
X66739194Y63817135D01*
X66626157Y63917847D01*
X66533885Y63966702D01*
X68101933Y63966702D01*
X68131886Y63792386D01*
X68134139Y63787091D01*
X68172352Y63697286D01*
X68201137Y63629636D01*
X68305972Y63487182D01*
X68310354Y63483460D01*
X68310356Y63483457D01*
X68427372Y63384045D01*
X68440765Y63372667D01*
X68521159Y63331615D01*
X68593164Y63294847D01*
X68593167Y63294846D01*
X68598288Y63292231D01*
X68603873Y63290864D01*
X68603874Y63290864D01*
X68765810Y63251239D01*
X68765813Y63251239D01*
X68770090Y63250192D01*
X68774488Y63249919D01*
X68774489Y63249919D01*
X68779728Y63249594D01*
X68779730Y63249594D01*
X68781244Y63249500D01*
X68908773Y63249500D01*
X69040161Y63264818D01*
X69045567Y63266780D01*
X69045570Y63266781D01*
X69201009Y63323204D01*
X69206417Y63325167D01*
X69211227Y63328320D01*
X69211230Y63328322D01*
X69321237Y63400446D01*
X69354332Y63422144D01*
X69475970Y63550547D01*
X69521909Y63629636D01*
X69561917Y63698516D01*
X69561917Y63698517D01*
X69564806Y63703490D01*
X69601660Y63825171D01*
X69614408Y63867262D01*
X69614408Y63867264D01*
X69616075Y63872767D01*
X69621903Y63966702D01*
X86582973Y63966702D01*
X86612926Y63792386D01*
X86615179Y63787091D01*
X86653392Y63697286D01*
X86682177Y63629636D01*
X86787012Y63487182D01*
X86791394Y63483460D01*
X86791396Y63483457D01*
X86908412Y63384045D01*
X86921805Y63372667D01*
X87002199Y63331615D01*
X87074204Y63294847D01*
X87074207Y63294846D01*
X87079328Y63292231D01*
X87084913Y63290864D01*
X87084914Y63290864D01*
X87246850Y63251239D01*
X87246853Y63251239D01*
X87251130Y63250192D01*
X87255528Y63249919D01*
X87255529Y63249919D01*
X87260768Y63249594D01*
X87260770Y63249594D01*
X87262284Y63249500D01*
X87389813Y63249500D01*
X87521201Y63264818D01*
X87526607Y63266780D01*
X87526610Y63266781D01*
X87682049Y63323204D01*
X87687457Y63325167D01*
X87692267Y63328320D01*
X87692270Y63328322D01*
X87802277Y63400446D01*
X87835372Y63422144D01*
X87957010Y63550547D01*
X88002949Y63629636D01*
X88042957Y63698516D01*
X88042957Y63698517D01*
X88045846Y63703490D01*
X88082700Y63825171D01*
X88095448Y63867262D01*
X88095448Y63867264D01*
X88097115Y63872767D01*
X88108067Y64049298D01*
X88078114Y64223614D01*
X88008863Y64386364D01*
X87904028Y64528818D01*
X87899646Y64532540D01*
X87899644Y64532543D01*
X87773621Y64639607D01*
X87773620Y64639608D01*
X87769235Y64643333D01*
X87676213Y64690833D01*
X87616836Y64721153D01*
X87616833Y64721154D01*
X87611712Y64723769D01*
X87606127Y64725136D01*
X87606126Y64725136D01*
X87444190Y64764761D01*
X87444187Y64764761D01*
X87439910Y64765808D01*
X87435512Y64766081D01*
X87435511Y64766081D01*
X87430272Y64766406D01*
X87430270Y64766406D01*
X87428756Y64766500D01*
X87301227Y64766500D01*
X87169839Y64751182D01*
X87164433Y64749220D01*
X87164430Y64749219D01*
X87027523Y64699523D01*
X87003583Y64690833D01*
X86998773Y64687680D01*
X86998770Y64687678D01*
X86935125Y64645950D01*
X86855668Y64593856D01*
X86734030Y64465453D01*
X86731143Y64460483D01*
X86731141Y64460480D01*
X86685019Y64381074D01*
X86645194Y64312510D01*
X86593925Y64143233D01*
X86582973Y63966702D01*
X69621903Y63966702D01*
X69627027Y64049298D01*
X69597074Y64223614D01*
X69527823Y64386364D01*
X69422988Y64528818D01*
X69418606Y64532540D01*
X69418604Y64532543D01*
X69292581Y64639607D01*
X69292580Y64639608D01*
X69288195Y64643333D01*
X69195173Y64690833D01*
X69135796Y64721153D01*
X69135793Y64721154D01*
X69130672Y64723769D01*
X69125087Y64725136D01*
X69125086Y64725136D01*
X68963150Y64764761D01*
X68963147Y64764761D01*
X68958870Y64765808D01*
X68954472Y64766081D01*
X68954471Y64766081D01*
X68949232Y64766406D01*
X68949230Y64766406D01*
X68947716Y64766500D01*
X68820187Y64766500D01*
X68688799Y64751182D01*
X68683393Y64749220D01*
X68683390Y64749219D01*
X68546483Y64699523D01*
X68522543Y64690833D01*
X68517733Y64687680D01*
X68517730Y64687678D01*
X68454085Y64645950D01*
X68374628Y64593856D01*
X68252990Y64465453D01*
X68250103Y64460483D01*
X68250101Y64460480D01*
X68203979Y64381074D01*
X68164154Y64312510D01*
X68112885Y64143233D01*
X68101933Y63966702D01*
X66533885Y63966702D01*
X66492359Y63988689D01*
X66486571Y63990143D01*
X66486568Y63990144D01*
X66351314Y64024118D01*
X66351315Y64024118D01*
X66345526Y64025572D01*
X66286648Y64025880D01*
X66228557Y64045092D01*
X66192853Y64094779D01*
X66188883Y64112985D01*
X66183886Y64154277D01*
X66171352Y64257853D01*
X66117838Y64399474D01*
X66032086Y64524243D01*
X65919049Y64624955D01*
X65785251Y64695797D01*
X65779463Y64697251D01*
X65779460Y64697252D01*
X65644206Y64731226D01*
X65644207Y64731226D01*
X65638418Y64732680D01*
X65562721Y64733076D01*
X65492991Y64733441D01*
X65492989Y64733441D01*
X65487025Y64733472D01*
X65339813Y64698130D01*
X65319563Y64687678D01*
X65210587Y64631432D01*
X65210585Y64631430D01*
X65205281Y64628693D01*
X65091195Y64529169D01*
X65087764Y64524287D01*
X65087763Y64524286D01*
X65007573Y64410187D01*
X65004142Y64405305D01*
X65001975Y64399747D01*
X65001974Y64399745D01*
X64951316Y64269813D01*
X64949148Y64264252D01*
X64948369Y64258337D01*
X64948369Y64258336D01*
X64947526Y64251932D01*
X64929387Y64114152D01*
X64930042Y64108219D01*
X64930042Y64108215D01*
X64939079Y64026364D01*
X64946000Y63963671D01*
X64996683Y63825173D01*
X64996683Y63825171D01*
X64998028Y63821497D01*
X64997307Y63821233D01*
X65006129Y63765531D01*
X64978352Y63711014D01*
X62632834Y61365496D01*
X62578317Y61337719D01*
X62562830Y61336500D01*
X44502811Y61336500D01*
X44444620Y61355407D01*
X44410202Y61400505D01*
X44393788Y61443943D01*
X44385640Y61465507D01*
X44382758Y61526623D01*
X44416349Y61577762D01*
X44478249Y61599500D01*
X61248261Y61599500D01*
X61255666Y61601906D01*
X61255672Y61601907D01*
X61270448Y61606708D01*
X61285550Y61610334D01*
X61300893Y61612764D01*
X61300895Y61612765D01*
X61308587Y61613983D01*
X61329371Y61624573D01*
X61343720Y61630517D01*
X61365905Y61637725D01*
X61372204Y61642301D01*
X61372207Y61642303D01*
X61384775Y61651435D01*
X61398023Y61659553D01*
X61411862Y61666604D01*
X61411864Y61666605D01*
X61418803Y61670141D01*
X65110577Y65361915D01*
X65165094Y65389692D01*
X65227821Y65378913D01*
X65267353Y65357448D01*
X65267356Y65357447D01*
X65272601Y65354599D01*
X65349352Y65334464D01*
X65413271Y65317695D01*
X65413275Y65317695D01*
X65419040Y65316182D01*
X65425001Y65316088D01*
X65425004Y65316088D01*
X65494729Y65314993D01*
X65570417Y65313804D01*
X65576233Y65315136D01*
X65712168Y65346269D01*
X65712171Y65346270D01*
X65717991Y65347603D01*
X65728891Y65353085D01*
X65847909Y65412944D01*
X65847911Y65412945D01*
X65853243Y65415627D01*
X65968364Y65513951D01*
X66056710Y65636896D01*
X66113178Y65777366D01*
X66134510Y65927250D01*
X66134648Y65940446D01*
X66116460Y66090745D01*
X66062946Y66232366D01*
X65977194Y66357135D01*
X65864157Y66457847D01*
X65730359Y66528689D01*
X65724571Y66530143D01*
X65724568Y66530144D01*
X65589314Y66564118D01*
X65589315Y66564118D01*
X65583526Y66565572D01*
X65524648Y66565880D01*
X65466557Y66585092D01*
X65430853Y66634779D01*
X65426883Y66652985D01*
X65421886Y66694277D01*
X65409352Y66797853D01*
X65355838Y66939474D01*
X65270086Y67064243D01*
X65205947Y67121389D01*
X65161503Y67160987D01*
X65161501Y67160988D01*
X65157049Y67164955D01*
X65134782Y67176745D01*
X65122016Y67183504D01*
X65023251Y67235797D01*
X65017463Y67237251D01*
X65017460Y67237252D01*
X64882206Y67271226D01*
X64882207Y67271226D01*
X64876418Y67272680D01*
X64800721Y67273076D01*
X64730991Y67273441D01*
X64730989Y67273441D01*
X64725025Y67273472D01*
X64577813Y67238130D01*
X64567880Y67233003D01*
X64448587Y67171432D01*
X64448585Y67171430D01*
X64443281Y67168693D01*
X64329195Y67069169D01*
X64325764Y67064287D01*
X64325763Y67064286D01*
X64303506Y67032617D01*
X64242142Y66945305D01*
X64239975Y66939747D01*
X64239974Y66939745D01*
X64237691Y66933890D01*
X64187148Y66804252D01*
X64186369Y66798337D01*
X64186369Y66798336D01*
X64184655Y66785316D01*
X64167387Y66654152D01*
X64168042Y66648219D01*
X64168042Y66648215D01*
X64169572Y66634358D01*
X64184000Y66503671D01*
X64234683Y66365173D01*
X64234683Y66365171D01*
X64236028Y66361497D01*
X64235307Y66361233D01*
X64244129Y66305531D01*
X64216352Y66251014D01*
X60854834Y62889496D01*
X60800317Y62861719D01*
X60784830Y62860500D01*
X41962811Y62860500D01*
X41904620Y62879407D01*
X41870202Y62924506D01*
X41835502Y63016335D01*
X41833392Y63021920D01*
X41747640Y63146689D01*
X41634603Y63247401D01*
X41627355Y63251239D01*
X41549933Y63292231D01*
X41500805Y63318243D01*
X41495017Y63319697D01*
X41495014Y63319698D01*
X41359760Y63353672D01*
X41359761Y63353672D01*
X41353972Y63355126D01*
X41278276Y63355522D01*
X41208545Y63355887D01*
X41208543Y63355887D01*
X41202579Y63355918D01*
X41196776Y63354525D01*
X41196777Y63354525D01*
X41066314Y63323204D01*
X41055367Y63320576D01*
X40997801Y63290864D01*
X40926141Y63253878D01*
X40926139Y63253876D01*
X40920835Y63251139D01*
X40806749Y63151615D01*
X40719696Y63027751D01*
X40717529Y63022193D01*
X40717528Y63022191D01*
X40666870Y62892259D01*
X40664702Y62886698D01*
X40663923Y62880783D01*
X40663923Y62880782D01*
X40663755Y62879504D01*
X40644941Y62736598D01*
X40661554Y62586117D01*
X40663606Y62580510D01*
X40711530Y62449549D01*
X40711532Y62449545D01*
X40713582Y62443943D01*
X40798022Y62318284D01*
X40813623Y62304088D01*
X40843939Y62250943D01*
X40837226Y62190127D01*
X40814996Y62160194D01*
X40815240Y62159974D01*
X40812917Y62157393D01*
X40812077Y62156263D01*
X40806749Y62151615D01*
X40803318Y62146733D01*
X40803317Y62146732D01*
X40723127Y62032633D01*
X40719696Y62027751D01*
X40717529Y62022193D01*
X40717528Y62022191D01*
X40666870Y61892259D01*
X40664702Y61886698D01*
X40644941Y61736598D01*
X20193500Y61736598D01*
X20193500Y63966702D01*
X24921933Y63966702D01*
X24951886Y63792386D01*
X24954139Y63787091D01*
X24992352Y63697286D01*
X25021137Y63629636D01*
X25125972Y63487182D01*
X25130354Y63483460D01*
X25130356Y63483457D01*
X25247372Y63384045D01*
X25260765Y63372667D01*
X25341159Y63331615D01*
X25413164Y63294847D01*
X25413167Y63294846D01*
X25418288Y63292231D01*
X25423873Y63290864D01*
X25423874Y63290864D01*
X25585810Y63251239D01*
X25585813Y63251239D01*
X25590090Y63250192D01*
X25594488Y63249919D01*
X25594489Y63249919D01*
X25599728Y63249594D01*
X25599730Y63249594D01*
X25601244Y63249500D01*
X25728773Y63249500D01*
X25860161Y63264818D01*
X25865567Y63266780D01*
X25865570Y63266781D01*
X26021009Y63323204D01*
X26026417Y63325167D01*
X26031227Y63328320D01*
X26031230Y63328322D01*
X26141237Y63400446D01*
X26174332Y63422144D01*
X26295970Y63550547D01*
X26341909Y63629636D01*
X26381917Y63698516D01*
X26381917Y63698517D01*
X26384806Y63703490D01*
X26421660Y63825171D01*
X26434408Y63867262D01*
X26434408Y63867264D01*
X26436075Y63872767D01*
X26441903Y63966702D01*
X43402973Y63966702D01*
X43432926Y63792386D01*
X43435179Y63787091D01*
X43473392Y63697286D01*
X43502177Y63629636D01*
X43607012Y63487182D01*
X43611394Y63483460D01*
X43611396Y63483457D01*
X43728412Y63384045D01*
X43741805Y63372667D01*
X43822199Y63331615D01*
X43894204Y63294847D01*
X43894207Y63294846D01*
X43899328Y63292231D01*
X43904913Y63290864D01*
X43904914Y63290864D01*
X44066850Y63251239D01*
X44066853Y63251239D01*
X44071130Y63250192D01*
X44075528Y63249919D01*
X44075529Y63249919D01*
X44080768Y63249594D01*
X44080770Y63249594D01*
X44082284Y63249500D01*
X44209813Y63249500D01*
X44341201Y63264818D01*
X44346607Y63266780D01*
X44346610Y63266781D01*
X44502049Y63323204D01*
X44507457Y63325167D01*
X44512267Y63328320D01*
X44512270Y63328322D01*
X44622277Y63400446D01*
X44655372Y63422144D01*
X44777010Y63550547D01*
X44822949Y63629636D01*
X44862957Y63698516D01*
X44862957Y63698517D01*
X44865846Y63703490D01*
X44902700Y63825171D01*
X44915448Y63867262D01*
X44915448Y63867264D01*
X44917115Y63872767D01*
X44928067Y64049298D01*
X44898114Y64223614D01*
X44828863Y64386364D01*
X44724028Y64528818D01*
X44719646Y64532540D01*
X44719644Y64532543D01*
X44593621Y64639607D01*
X44593620Y64639608D01*
X44589235Y64643333D01*
X44496213Y64690833D01*
X44436836Y64721153D01*
X44436833Y64721154D01*
X44431712Y64723769D01*
X44426127Y64725136D01*
X44426126Y64725136D01*
X44264190Y64764761D01*
X44264187Y64764761D01*
X44259910Y64765808D01*
X44255512Y64766081D01*
X44255511Y64766081D01*
X44250272Y64766406D01*
X44250270Y64766406D01*
X44248756Y64766500D01*
X44121227Y64766500D01*
X43989839Y64751182D01*
X43984433Y64749220D01*
X43984430Y64749219D01*
X43847523Y64699523D01*
X43823583Y64690833D01*
X43818773Y64687680D01*
X43818770Y64687678D01*
X43755125Y64645950D01*
X43675668Y64593856D01*
X43554030Y64465453D01*
X43551143Y64460483D01*
X43551141Y64460480D01*
X43505019Y64381074D01*
X43465194Y64312510D01*
X43413925Y64143233D01*
X43402973Y63966702D01*
X26441903Y63966702D01*
X26447027Y64049298D01*
X26417074Y64223614D01*
X26347823Y64386364D01*
X26242988Y64528818D01*
X26238606Y64532540D01*
X26238604Y64532543D01*
X26112581Y64639607D01*
X26112580Y64639608D01*
X26108195Y64643333D01*
X26015173Y64690833D01*
X25955796Y64721153D01*
X25955793Y64721154D01*
X25950672Y64723769D01*
X25945087Y64725136D01*
X25945086Y64725136D01*
X25783150Y64764761D01*
X25783147Y64764761D01*
X25778870Y64765808D01*
X25774472Y64766081D01*
X25774471Y64766081D01*
X25769232Y64766406D01*
X25769230Y64766406D01*
X25767716Y64766500D01*
X25640187Y64766500D01*
X25508799Y64751182D01*
X25503393Y64749220D01*
X25503390Y64749219D01*
X25366483Y64699523D01*
X25342543Y64690833D01*
X25337733Y64687680D01*
X25337730Y64687678D01*
X25274085Y64645950D01*
X25194628Y64593856D01*
X25072990Y64465453D01*
X25070103Y64460483D01*
X25070101Y64460480D01*
X25023979Y64381074D01*
X24984154Y64312510D01*
X24932885Y64143233D01*
X24921933Y63966702D01*
X20193500Y63966702D01*
X20193500Y66723134D01*
X20186745Y66785316D01*
X20135615Y66921705D01*
X20048261Y67038261D01*
X19931705Y67125615D01*
X19795316Y67176745D01*
X19789144Y67177415D01*
X19789142Y67177416D01*
X19753163Y67181324D01*
X19733134Y67183500D01*
X13286866Y67183500D01*
X13266837Y67181324D01*
X13230858Y67177416D01*
X13230856Y67177415D01*
X13224684Y67176745D01*
X13088295Y67125615D01*
X12971739Y67038261D01*
X12884385Y66921705D01*
X12833255Y66785316D01*
X12826500Y66723134D01*
X12826500Y65013000D01*
X12807593Y64954809D01*
X12758093Y64918845D01*
X12727500Y64914000D01*
X4026190Y64914000D01*
X4024889Y64913930D01*
X4024878Y64913930D01*
X3995443Y64912353D01*
X3995425Y64912352D01*
X3994127Y64912282D01*
X3992835Y64912143D01*
X3992821Y64912142D01*
X3978260Y64910576D01*
X3967344Y64909403D01*
X3962703Y64907950D01*
X3962699Y64907949D01*
X3914829Y64892960D01*
X3855629Y64874423D01*
X3851362Y64872093D01*
X3796415Y64842089D01*
X3796412Y64842087D01*
X3793317Y64840397D01*
X3724963Y64789227D01*
X1398773Y62463037D01*
X1377318Y62439153D01*
X1360415Y62418179D01*
X1358161Y62413870D01*
X1310751Y62323237D01*
X1306154Y62314450D01*
X1286152Y62246329D01*
X1274000Y62161810D01*
X1274000Y57466190D01*
X504000Y57466190D01*
X504000Y71553190D01*
X1524000Y71553190D01*
X1525455Y71526043D01*
X1528334Y71499260D01*
X1557950Y71404675D01*
X1591976Y71342363D01*
X1635300Y71284490D01*
X1942490Y70977300D01*
X1943472Y70976418D01*
X1943474Y70976416D01*
X1961714Y70960031D01*
X1961724Y70960022D01*
X1962712Y70959135D01*
X1983686Y70942232D01*
X2071509Y70896291D01*
X2139630Y70876289D01*
X2211190Y70866000D01*
X3757810Y70866000D01*
X3759114Y70866070D01*
X3759118Y70866070D01*
X3783636Y70867384D01*
X3783643Y70867385D01*
X3784957Y70867455D01*
X3786265Y70867596D01*
X3786270Y70867596D01*
X3795820Y70868623D01*
X3811740Y70870334D01*
X3816381Y70871787D01*
X3816385Y70871788D01*
X3856162Y70884243D01*
X3906325Y70899950D01*
X3910592Y70902280D01*
X3965539Y70932284D01*
X3965542Y70932286D01*
X3968637Y70933976D01*
X4026510Y70977300D01*
X4587700Y71538490D01*
X4605865Y71558712D01*
X4622768Y71579686D01*
X4668709Y71667509D01*
X4688711Y71735630D01*
X4699000Y71807190D01*
X4699000Y75291782D01*
X4717907Y75349973D01*
X4727996Y75361786D01*
X5029214Y75663004D01*
X5083731Y75690781D01*
X5099218Y75692000D01*
X9096363Y75692000D01*
X9098181Y75692135D01*
X9098195Y75692136D01*
X9118097Y75693620D01*
X9134007Y75694805D01*
X9170942Y75700340D01*
X9171474Y75700431D01*
X9171511Y75700437D01*
X9176061Y75701216D01*
X9176064Y75701217D01*
X9181369Y75702125D01*
X9230884Y75722291D01*
X9268643Y75737669D01*
X9268646Y75737671D01*
X9273155Y75739507D01*
X9279190Y75743488D01*
X9330583Y75777387D01*
X9330587Y75777390D01*
X9332420Y75778599D01*
X9367844Y75806799D01*
X9424849Y75887870D01*
X9426813Y75892309D01*
X9426815Y75892313D01*
X9452140Y75949562D01*
X9452140Y75949563D01*
X9453571Y75952797D01*
X9473112Y76022401D01*
X9487251Y76129795D01*
X9493166Y76152832D01*
X9517478Y76215189D01*
X9528715Y76236148D01*
X9567203Y76290911D01*
X9583119Y76308587D01*
X9633554Y76352584D01*
X9653226Y76365953D01*
X9712698Y76396650D01*
X9734996Y76404943D01*
X9800073Y76420566D01*
X9823701Y76423300D01*
X9862285Y76423098D01*
X9862290Y76423098D01*
X9890637Y76422950D01*
X9914233Y76419968D01*
X9974051Y76404943D01*
X9979139Y76403665D01*
X10001346Y76395141D01*
X10060499Y76363821D01*
X10080032Y76350245D01*
X10129997Y76305728D01*
X10145728Y76287884D01*
X10183639Y76232722D01*
X10194658Y76211645D01*
X10218316Y76149040D01*
X10223990Y76125941D01*
X10236042Y76026348D01*
X10243704Y75988038D01*
X10254177Y75950833D01*
X10257673Y75939445D01*
X10260368Y75934713D01*
X10304311Y75857543D01*
X10304314Y75857539D01*
X10306714Y75853324D01*
X10353207Y75799668D01*
X10385791Y75768227D01*
X10392063Y75764946D01*
X10392066Y75764944D01*
X10444209Y75737669D01*
X10473608Y75722291D01*
X10541729Y75702289D01*
X10613289Y75692000D01*
X18522782Y75692000D01*
X18580973Y75673093D01*
X18592786Y75663004D01*
X19021004Y75234786D01*
X19048781Y75180269D01*
X19050000Y75164782D01*
X19050000Y74347190D01*
X19051455Y74320043D01*
X19054334Y74293260D01*
X19083950Y74198675D01*
X19117976Y74136363D01*
X19161300Y74078490D01*
X19377559Y73862231D01*
X19431892Y73820877D01*
X19434801Y73819228D01*
X19487385Y73789415D01*
X19487391Y73789412D01*
X19490291Y73787768D01*
X19493390Y73786527D01*
X19550588Y73763620D01*
X19550592Y73763619D01*
X19553685Y73762380D01*
X19556919Y73761568D01*
X19560098Y73760537D01*
X19559968Y73760135D01*
X19577147Y73753540D01*
X19636296Y73722223D01*
X19655830Y73708647D01*
X19705799Y73664126D01*
X19721529Y73646284D01*
X19759440Y73591124D01*
X19770461Y73570042D01*
X19794116Y73507439D01*
X19799790Y73484339D01*
X19808184Y73414973D01*
X19807913Y73389131D01*
X19798069Y73319960D01*
X19791913Y73296983D01*
X19766668Y73234184D01*
X19759463Y73219775D01*
X19758660Y73218450D01*
X19756408Y73215317D01*
X19720902Y73144951D01*
X19697226Y73071427D01*
X19696629Y73067623D01*
X19696627Y73067616D01*
X19689388Y73021516D01*
X19685000Y72993572D01*
X19685000Y70791190D01*
X19686455Y70764043D01*
X19689334Y70737260D01*
X19718950Y70642675D01*
X19752976Y70580363D01*
X19796300Y70522490D01*
X20230490Y70088300D01*
X20231472Y70087418D01*
X20231474Y70087416D01*
X20249714Y70071031D01*
X20249724Y70071022D01*
X20250712Y70070135D01*
X20271686Y70053232D01*
X20359509Y70007291D01*
X20427630Y69987289D01*
X20499190Y69977000D01*
X21410810Y69977000D01*
X21412114Y69977070D01*
X21412118Y69977070D01*
X21436636Y69978384D01*
X21436643Y69978385D01*
X21437957Y69978455D01*
X21439265Y69978596D01*
X21439270Y69978596D01*
X21448820Y69979623D01*
X21464740Y69981334D01*
X21469381Y69982787D01*
X21469385Y69982788D01*
X21509162Y69995243D01*
X21559325Y70010950D01*
X21563592Y70013280D01*
X21618539Y70043284D01*
X21618542Y70043286D01*
X21621637Y70044976D01*
X21679510Y70088300D01*
X22113700Y70522490D01*
X22131865Y70542712D01*
X22148768Y70563686D01*
X22194709Y70651509D01*
X22214711Y70719630D01*
X22225000Y70791190D01*
X22225000Y71553190D01*
X45974000Y71553190D01*
X45975455Y71526043D01*
X45978334Y71499260D01*
X46007950Y71404675D01*
X46041976Y71342363D01*
X46085300Y71284490D01*
X46392490Y70977300D01*
X46393472Y70976418D01*
X46393474Y70976416D01*
X46411714Y70960031D01*
X46411724Y70960022D01*
X46412712Y70959135D01*
X46433686Y70942232D01*
X46521509Y70896291D01*
X46589630Y70876289D01*
X46661190Y70866000D01*
X48207810Y70866000D01*
X48209114Y70866070D01*
X48209118Y70866070D01*
X48233636Y70867384D01*
X48233643Y70867385D01*
X48234957Y70867455D01*
X48236265Y70867596D01*
X48236270Y70867596D01*
X48245820Y70868623D01*
X48261740Y70870334D01*
X48266381Y70871787D01*
X48266385Y70871788D01*
X48306162Y70884243D01*
X48356325Y70899950D01*
X48360592Y70902280D01*
X48415539Y70932284D01*
X48415542Y70932286D01*
X48418637Y70933976D01*
X48476510Y70977300D01*
X49037700Y71538490D01*
X49055865Y71558712D01*
X49072768Y71579686D01*
X49118709Y71667509D01*
X49138711Y71735630D01*
X49149000Y71807190D01*
X49149000Y75291782D01*
X49167907Y75349973D01*
X49177996Y75361786D01*
X49479214Y75663004D01*
X49533731Y75690781D01*
X49549218Y75692000D01*
X62972782Y75692000D01*
X63030973Y75673093D01*
X63042786Y75663004D01*
X63471004Y75234786D01*
X63498781Y75180269D01*
X63500000Y75164782D01*
X63500000Y74347190D01*
X63501455Y74320043D01*
X63504334Y74293260D01*
X63533950Y74198675D01*
X63567976Y74136363D01*
X63611300Y74078490D01*
X64106004Y73583786D01*
X64133781Y73529269D01*
X64135000Y73513782D01*
X64135000Y70791190D01*
X64136455Y70764043D01*
X64139334Y70737260D01*
X64168950Y70642675D01*
X64202976Y70580363D01*
X64246300Y70522490D01*
X64680490Y70088300D01*
X64681472Y70087418D01*
X64681474Y70087416D01*
X64699714Y70071031D01*
X64699724Y70071022D01*
X64700712Y70070135D01*
X64721686Y70053232D01*
X64809509Y70007291D01*
X64877630Y69987289D01*
X64949190Y69977000D01*
X65860810Y69977000D01*
X65862114Y69977070D01*
X65862118Y69977070D01*
X65886636Y69978384D01*
X65886643Y69978385D01*
X65887957Y69978455D01*
X65889265Y69978596D01*
X65889270Y69978596D01*
X65898820Y69979623D01*
X65914740Y69981334D01*
X65919381Y69982787D01*
X65919385Y69982788D01*
X65959162Y69995243D01*
X66009325Y70010950D01*
X66013592Y70013280D01*
X66068539Y70043284D01*
X66068542Y70043286D01*
X66071637Y70044976D01*
X66129510Y70088300D01*
X66563700Y70522490D01*
X66581865Y70542712D01*
X66598768Y70563686D01*
X66644709Y70651509D01*
X66664711Y70719630D01*
X66675000Y70791190D01*
X66675000Y79212500D01*
X66693907Y79270691D01*
X66743407Y79306655D01*
X66774000Y79311500D01*
X67194310Y79311500D01*
X67195614Y79311570D01*
X67195618Y79311570D01*
X67220136Y79312884D01*
X67220143Y79312885D01*
X67221457Y79312955D01*
X67222765Y79313096D01*
X67222770Y79313096D01*
X67232320Y79314123D01*
X67248240Y79315834D01*
X67252881Y79317287D01*
X67252885Y79317288D01*
X67292662Y79329743D01*
X67342825Y79345450D01*
X67347092Y79347780D01*
X67402039Y79377784D01*
X67402042Y79377786D01*
X67405137Y79379476D01*
X67463010Y79422800D01*
X67579700Y79539490D01*
X67597865Y79559712D01*
X67614768Y79580686D01*
X67660709Y79668509D01*
X67680711Y79736630D01*
X67691000Y79808190D01*
X67691000Y80594786D01*
X70801806Y80594786D01*
X70816010Y80348455D01*
X70816902Y80344498D01*
X70869266Y80112141D01*
X70870255Y80107751D01*
X70871784Y80103987D01*
X70871785Y80103982D01*
X70958565Y79890269D01*
X70963084Y79879139D01*
X71092006Y79668759D01*
X71094665Y79665689D01*
X71094666Y79665688D01*
X71219810Y79521218D01*
X71253557Y79482259D01*
X71443399Y79324649D01*
X71656433Y79200162D01*
X71660220Y79198716D01*
X71660224Y79198714D01*
X71774720Y79154993D01*
X71886939Y79112141D01*
X72128726Y79062948D01*
X72132781Y79062799D01*
X72132784Y79062799D01*
X72215474Y79059767D01*
X72375300Y79053907D01*
X72379319Y79054422D01*
X72379323Y79054422D01*
X72616009Y79084742D01*
X72616015Y79084743D01*
X72620041Y79085259D01*
X72623934Y79086427D01*
X72623939Y79086428D01*
X72808729Y79141868D01*
X72856374Y79156162D01*
X72982105Y79217757D01*
X73074307Y79262926D01*
X73074310Y79262928D01*
X73077954Y79264713D01*
X73278829Y79407996D01*
X73430074Y79558714D01*
X73450724Y79579292D01*
X73453605Y79582163D01*
X73597588Y79782537D01*
X73706911Y80003736D01*
X73708089Y80007612D01*
X73708091Y80007618D01*
X73777459Y80235936D01*
X73777459Y80235937D01*
X73778639Y80239820D01*
X73810845Y80484450D01*
X73812643Y80558000D01*
X73812427Y80560629D01*
X73792758Y80799864D01*
X73792757Y80799867D01*
X73792425Y80803911D01*
X73788307Y80820309D01*
X73733307Y81039271D01*
X73732316Y81043217D01*
X73633928Y81269493D01*
X73499905Y81476661D01*
X73333846Y81659158D01*
X73330660Y81661674D01*
X73330657Y81661677D01*
X73143398Y81809565D01*
X73143392Y81809569D01*
X73140210Y81812082D01*
X73100611Y81833942D01*
X72927756Y81929363D01*
X72927755Y81929364D01*
X72924198Y81931327D01*
X72920367Y81932684D01*
X72920364Y81932685D01*
X72695446Y82012333D01*
X72695442Y82012334D01*
X72691610Y82013691D01*
X72448694Y82056961D01*
X72444633Y82057011D01*
X72444629Y82057011D01*
X72331411Y82058394D01*
X72201972Y82059975D01*
X71958070Y82022653D01*
X71853582Y81988501D01*
X71727397Y81947258D01*
X71727393Y81947256D01*
X71723540Y81945997D01*
X71719940Y81944123D01*
X71508284Y81833942D01*
X71508281Y81833940D01*
X71504679Y81832065D01*
X71501436Y81829630D01*
X71501431Y81829627D01*
X71384015Y81741468D01*
X71307364Y81683917D01*
X71304559Y81680982D01*
X71304557Y81680980D01*
X71241232Y81614714D01*
X71136896Y81505532D01*
X70997851Y81301700D01*
X70996143Y81298020D01*
X70996140Y81298015D01*
X70969127Y81239820D01*
X70893965Y81077896D01*
X70828026Y80840129D01*
X70801806Y80594786D01*
X67691000Y80594786D01*
X67691000Y82307310D01*
X67690815Y82310768D01*
X67689616Y82333136D01*
X67689615Y82333143D01*
X67689545Y82334457D01*
X67689013Y82339411D01*
X67687186Y82356401D01*
X67686666Y82361240D01*
X67679541Y82383997D01*
X67672757Y82405662D01*
X67657050Y82455825D01*
X67649237Y82470133D01*
X67624716Y82515039D01*
X67624714Y82515042D01*
X67623024Y82518137D01*
X67579700Y82576010D01*
X67463010Y82692700D01*
X67460658Y82694813D01*
X67443786Y82709969D01*
X67443776Y82709978D01*
X67442788Y82710865D01*
X67421814Y82727768D01*
X67333991Y82773709D01*
X67265870Y82793711D01*
X67194310Y82804000D01*
X64695190Y82804000D01*
X64693886Y82803930D01*
X64693882Y82803930D01*
X64669364Y82802616D01*
X64669357Y82802615D01*
X64668043Y82802545D01*
X64666735Y82802404D01*
X64666730Y82802404D01*
X64657180Y82801377D01*
X64641260Y82799666D01*
X64636619Y82798213D01*
X64636615Y82798212D01*
X64596838Y82785757D01*
X64546675Y82770050D01*
X64542408Y82767720D01*
X64487461Y82737716D01*
X64487458Y82737714D01*
X64484363Y82736024D01*
X64426490Y82692700D01*
X64119300Y82385510D01*
X64118418Y82384528D01*
X64118416Y82384526D01*
X64107727Y82372626D01*
X64101135Y82365288D01*
X64084232Y82344314D01*
X64038291Y82256491D01*
X64018289Y82188370D01*
X64008000Y82116810D01*
X64008000Y79521218D01*
X63989093Y79463027D01*
X63979004Y79451214D01*
X63804786Y79276996D01*
X63750269Y79249219D01*
X63734782Y79248000D01*
X55623988Y79248000D01*
X55621036Y79247641D01*
X55621029Y79247641D01*
X55568196Y79241223D01*
X55563176Y79240613D01*
X55560272Y79239897D01*
X55560267Y79239896D01*
X55506231Y79226571D01*
X55504597Y79226168D01*
X55472035Y79215769D01*
X55388747Y79162056D01*
X55385251Y79158672D01*
X55385250Y79158671D01*
X55367892Y79141868D01*
X55337735Y79112676D01*
X55308141Y79078413D01*
X55305211Y79071970D01*
X55305209Y79071967D01*
X55301040Y79062799D01*
X55267113Y78988198D01*
X55252286Y78925008D01*
X55254326Y78924529D01*
X55253775Y78915594D01*
X55250318Y78899119D01*
X55248048Y78890328D01*
X55247742Y78889334D01*
X55246518Y78889509D01*
X55245419Y78881786D01*
X55231069Y78780960D01*
X55224913Y78757985D01*
X55199949Y78695884D01*
X55188490Y78675039D01*
X55149428Y78620679D01*
X55133335Y78603178D01*
X55082441Y78559710D01*
X55062632Y78546549D01*
X55002834Y78516475D01*
X54980460Y78508420D01*
X54935871Y78498208D01*
X54935867Y78498207D01*
X54915218Y78493478D01*
X54891564Y78490991D01*
X54873381Y78491277D01*
X54859559Y78491494D01*
X54859549Y78491494D01*
X54839364Y78491811D01*
X54824640Y78492042D01*
X54801072Y78495270D01*
X54750947Y78508420D01*
X54736334Y78512254D01*
X54714221Y78521009D01*
X54655401Y78552946D01*
X54636012Y78566726D01*
X54586512Y78611769D01*
X54570970Y78629774D01*
X54552936Y78656611D01*
X54552934Y78656614D01*
X54533642Y78685323D01*
X54522843Y78706517D01*
X54504008Y78757985D01*
X54499840Y78769374D01*
X54494409Y78792531D01*
X54483070Y78895243D01*
X54483069Y78895249D01*
X54482915Y78896645D01*
X54482382Y78901485D01*
X54483041Y78901558D01*
X54483241Y78903435D01*
X54481835Y78903217D01*
X54479838Y78916109D01*
X54479835Y78916128D01*
X54479671Y78917184D01*
X54479670Y78917189D01*
X54479647Y78917184D01*
X54479273Y78919288D01*
X54480486Y78919503D01*
X54478488Y78926409D01*
X54477766Y78926256D01*
X54468139Y78971658D01*
X54467849Y78973027D01*
X54460375Y79000555D01*
X54419710Y79071967D01*
X54413737Y79082457D01*
X54413734Y79082461D01*
X54411334Y79086676D01*
X54364841Y79140332D01*
X54332257Y79171773D01*
X54325985Y79175054D01*
X54325982Y79175056D01*
X54248751Y79215454D01*
X54244440Y79217709D01*
X54176319Y79237711D01*
X54104759Y79248000D01*
X49930218Y79248000D01*
X49872027Y79266907D01*
X49860214Y79276996D01*
X49558996Y79578214D01*
X49531219Y79632731D01*
X49530000Y79648218D01*
X49530000Y81989810D01*
X49529445Y82000174D01*
X49528616Y82015636D01*
X49528615Y82015643D01*
X49528545Y82016957D01*
X49525666Y82043740D01*
X49521527Y82056961D01*
X49507758Y82100934D01*
X49496050Y82138325D01*
X49462024Y82200637D01*
X49418700Y82258510D01*
X48984510Y82692700D01*
X48982158Y82694813D01*
X48965286Y82709969D01*
X48965276Y82709978D01*
X48964288Y82710865D01*
X48943314Y82727768D01*
X48855491Y82773709D01*
X48787370Y82793711D01*
X48715810Y82804000D01*
X46788190Y82804000D01*
X46786886Y82803930D01*
X46786882Y82803930D01*
X46762364Y82802616D01*
X46762357Y82802615D01*
X46761043Y82802545D01*
X46759735Y82802404D01*
X46759730Y82802404D01*
X46750180Y82801377D01*
X46734260Y82799666D01*
X46729619Y82798213D01*
X46729615Y82798212D01*
X46689838Y82785757D01*
X46639675Y82770050D01*
X46635408Y82767720D01*
X46580461Y82737716D01*
X46580458Y82737714D01*
X46577363Y82736024D01*
X46519490Y82692700D01*
X46085300Y82258510D01*
X46084418Y82257528D01*
X46084416Y82257526D01*
X46068275Y82239557D01*
X46067135Y82238288D01*
X46050232Y82217314D01*
X46004291Y82129491D01*
X45984289Y82061370D01*
X45974000Y81989810D01*
X45974000Y71553190D01*
X22225000Y71553190D01*
X22225000Y82116810D01*
X22224812Y82120319D01*
X22223616Y82142636D01*
X22223615Y82142643D01*
X22223545Y82143957D01*
X22220666Y82170740D01*
X22212458Y82196956D01*
X22204898Y82221099D01*
X22191050Y82265325D01*
X22179866Y82285807D01*
X22158716Y82324539D01*
X22158714Y82324542D01*
X22157024Y82327637D01*
X22113700Y82385510D01*
X21806510Y82692700D01*
X21804158Y82694813D01*
X21787286Y82709969D01*
X21787276Y82709978D01*
X21786288Y82710865D01*
X21765314Y82727768D01*
X21677491Y82773709D01*
X21609370Y82793711D01*
X21537810Y82804000D01*
X20245190Y82804000D01*
X20243886Y82803930D01*
X20243882Y82803930D01*
X20219364Y82802616D01*
X20219357Y82802615D01*
X20218043Y82802545D01*
X20216735Y82802404D01*
X20216730Y82802404D01*
X20207180Y82801377D01*
X20191260Y82799666D01*
X20186619Y82798213D01*
X20186615Y82798212D01*
X20146838Y82785757D01*
X20096675Y82770050D01*
X20092408Y82767720D01*
X20037461Y82737716D01*
X20037458Y82737714D01*
X20034363Y82736024D01*
X19976490Y82692700D01*
X19742461Y82458671D01*
X19740328Y82455816D01*
X19740327Y82455814D01*
X19730709Y82442936D01*
X19698866Y82400301D01*
X19690832Y82385510D01*
X19665792Y82339411D01*
X19665787Y82339401D01*
X19664722Y82337440D01*
X19646565Y82295343D01*
X19642368Y82260683D01*
X19635757Y82206080D01*
X19634652Y82196956D01*
X19639110Y82138300D01*
X19639759Y82138349D01*
X19641794Y82129129D01*
X19642558Y82111983D01*
X19641888Y82111953D01*
X19641926Y82111717D01*
X19642281Y82111759D01*
X19642304Y82111566D01*
X19642594Y82108017D01*
X19642734Y82108023D01*
X19642735Y82108014D01*
X19643254Y82096356D01*
X19644413Y82091636D01*
X19645105Y82086819D01*
X19645082Y82086816D01*
X19645728Y82083275D01*
X19655784Y82000174D01*
X19655513Y81974333D01*
X19645669Y81905161D01*
X19639513Y81882184D01*
X19608779Y81805729D01*
X19606505Y81800511D01*
X19605011Y81797795D01*
X19581565Y81738581D01*
X19565980Y81677880D01*
X19558000Y81614714D01*
X19558000Y79521218D01*
X19539093Y79463027D01*
X19529004Y79451214D01*
X19354786Y79276996D01*
X19300269Y79249219D01*
X19284782Y79248000D01*
X5480218Y79248000D01*
X5422027Y79266907D01*
X5410214Y79276996D01*
X5108996Y79578214D01*
X5081219Y79632731D01*
X5080000Y79648218D01*
X5080000Y82847568D01*
X74213984Y82847568D01*
X74221354Y82779724D01*
X74223642Y82769321D01*
X74279129Y82604443D01*
X74283600Y82594768D01*
X74373196Y82445657D01*
X74379639Y82437168D01*
X74499169Y82310768D01*
X74507280Y82303865D01*
X74651165Y82206080D01*
X74660571Y82201079D01*
X74822090Y82136476D01*
X74832360Y82133608D01*
X74841530Y82132090D01*
X74854720Y82134085D01*
X74855367Y82134723D01*
X74857000Y82141423D01*
X74857000Y82147103D01*
X75257000Y82147103D01*
X75260765Y82135514D01*
X75271009Y82135282D01*
X75366583Y82161607D01*
X75376494Y82165531D01*
X75535117Y82249163D01*
X75536379Y82246770D01*
X75585140Y82260624D01*
X75642584Y82239557D01*
X75676675Y82188749D01*
X75674391Y82127606D01*
X75664664Y82108072D01*
X75605446Y82016183D01*
X75544022Y81847422D01*
X75526500Y81708717D01*
X75526500Y81412845D01*
X75541454Y81279528D01*
X75600515Y81109927D01*
X75609738Y81095167D01*
X75666871Y81003736D01*
X75695684Y80957625D01*
X75704389Y80948859D01*
X75769883Y80882907D01*
X75822230Y80830193D01*
X75826904Y80827227D01*
X75826905Y80827226D01*
X75897324Y80782537D01*
X75973864Y80733963D01*
X76143049Y80673719D01*
X76148536Y80673065D01*
X76148539Y80673064D01*
X76315880Y80653110D01*
X76315883Y80653110D01*
X76321376Y80652455D01*
X76499983Y80671227D01*
X76505223Y80673011D01*
X76505224Y80673011D01*
X76664751Y80727318D01*
X76664755Y80727320D01*
X76669993Y80729103D01*
X76674703Y80732001D01*
X76674708Y80732003D01*
X76818246Y80820309D01*
X76822955Y80823206D01*
X76826905Y80827074D01*
X76826910Y80827078D01*
X76892750Y80891553D01*
X76947554Y80918758D01*
X77007883Y80908554D01*
X77032263Y80890579D01*
X77043624Y80879139D01*
X77092230Y80830193D01*
X77096904Y80827227D01*
X77096905Y80827226D01*
X77167324Y80782537D01*
X77243864Y80733963D01*
X77413049Y80673719D01*
X77418536Y80673065D01*
X77418539Y80673064D01*
X77585880Y80653110D01*
X77585883Y80653110D01*
X77591376Y80652455D01*
X77769983Y80671227D01*
X77775223Y80673011D01*
X77775224Y80673011D01*
X77934751Y80727318D01*
X77934755Y80727320D01*
X77939993Y80729103D01*
X77944703Y80732001D01*
X77944708Y80732003D01*
X78088246Y80820309D01*
X78092955Y80823206D01*
X78221268Y80948859D01*
X78318554Y81099817D01*
X78379978Y81268578D01*
X78397500Y81407283D01*
X78397500Y81703155D01*
X78382546Y81836472D01*
X78344406Y81945997D01*
X78325305Y82000847D01*
X78325305Y82000848D01*
X78323485Y82006073D01*
X78253587Y82117933D01*
X78238785Y82177301D01*
X78261706Y82234031D01*
X78313594Y82266454D01*
X78374630Y82262186D01*
X78393191Y82252276D01*
X78461165Y82206080D01*
X78470571Y82201079D01*
X78632090Y82136476D01*
X78642360Y82133608D01*
X78651530Y82132090D01*
X78664720Y82134085D01*
X78665367Y82134723D01*
X78667000Y82141423D01*
X78667000Y82147103D01*
X79067000Y82147103D01*
X79070765Y82135514D01*
X79081009Y82135282D01*
X79176583Y82161607D01*
X79186494Y82165531D01*
X79345117Y82249163D01*
X79346379Y82246770D01*
X79395140Y82260624D01*
X79452584Y82239557D01*
X79486675Y82188749D01*
X79484391Y82127606D01*
X79474664Y82108072D01*
X79415446Y82016183D01*
X79354022Y81847422D01*
X79336500Y81708717D01*
X79336500Y81412845D01*
X79351454Y81279528D01*
X79410515Y81109927D01*
X79419738Y81095167D01*
X79476871Y81003736D01*
X79505684Y80957625D01*
X79514389Y80948859D01*
X79579883Y80882907D01*
X79632230Y80830193D01*
X79636904Y80827227D01*
X79636905Y80827226D01*
X79707324Y80782537D01*
X79783864Y80733963D01*
X79953049Y80673719D01*
X79958536Y80673065D01*
X79958539Y80673064D01*
X80125880Y80653110D01*
X80125883Y80653110D01*
X80131376Y80652455D01*
X80309983Y80671227D01*
X80315223Y80673011D01*
X80315224Y80673011D01*
X80474751Y80727318D01*
X80474755Y80727320D01*
X80479993Y80729103D01*
X80484703Y80732001D01*
X80484708Y80732003D01*
X80628246Y80820309D01*
X80632955Y80823206D01*
X80636905Y80827074D01*
X80636910Y80827078D01*
X80702750Y80891553D01*
X80757554Y80918758D01*
X80817883Y80908554D01*
X80842263Y80890579D01*
X80853624Y80879139D01*
X80902230Y80830193D01*
X80906904Y80827227D01*
X80906905Y80827226D01*
X80977324Y80782537D01*
X81053864Y80733963D01*
X81223049Y80673719D01*
X81228536Y80673065D01*
X81228539Y80673064D01*
X81395880Y80653110D01*
X81395883Y80653110D01*
X81401376Y80652455D01*
X81579983Y80671227D01*
X81585223Y80673011D01*
X81585224Y80673011D01*
X81744751Y80727318D01*
X81744755Y80727320D01*
X81749993Y80729103D01*
X81754703Y80732001D01*
X81754708Y80732003D01*
X81898246Y80820309D01*
X81902955Y80823206D01*
X82031268Y80948859D01*
X82128554Y81099817D01*
X82189978Y81268578D01*
X82207500Y81407283D01*
X82207500Y81594786D01*
X83631806Y81594786D01*
X83646010Y81348455D01*
X83646902Y81344498D01*
X83698587Y81115153D01*
X83700255Y81107751D01*
X83701784Y81103987D01*
X83701785Y81103982D01*
X83781140Y80908554D01*
X83793084Y80879139D01*
X83922006Y80668759D01*
X83924665Y80665689D01*
X83924666Y80665688D01*
X84015671Y80560629D01*
X84083557Y80482259D01*
X84273399Y80324649D01*
X84486433Y80200162D01*
X84490220Y80198716D01*
X84490224Y80198714D01*
X84604720Y80154993D01*
X84716939Y80112141D01*
X84958726Y80062948D01*
X84962781Y80062799D01*
X84962784Y80062799D01*
X85045474Y80059767D01*
X85205300Y80053907D01*
X85209319Y80054422D01*
X85209323Y80054422D01*
X85446009Y80084742D01*
X85446015Y80084743D01*
X85450041Y80085259D01*
X85453934Y80086427D01*
X85453939Y80086428D01*
X85625132Y80137789D01*
X85686374Y80156162D01*
X85857141Y80239820D01*
X85904307Y80262926D01*
X85904310Y80262928D01*
X85907954Y80264713D01*
X86108829Y80407996D01*
X86283605Y80582163D01*
X86427588Y80782537D01*
X86536911Y81003736D01*
X86538089Y81007612D01*
X86538091Y81007618D01*
X86607459Y81235936D01*
X86607459Y81235937D01*
X86608639Y81239820D01*
X86640845Y81484450D01*
X86642643Y81558000D01*
X86639287Y81598825D01*
X86622758Y81799864D01*
X86622757Y81799867D01*
X86622425Y81803911D01*
X86615354Y81832065D01*
X86574849Y81993319D01*
X86562316Y82043217D01*
X86469931Y82255687D01*
X86465550Y82265763D01*
X86465549Y82265764D01*
X86463928Y82269493D01*
X86329905Y82476661D01*
X86163846Y82659158D01*
X86160660Y82661674D01*
X86160657Y82661677D01*
X85973398Y82809565D01*
X85973392Y82809569D01*
X85970210Y82812082D01*
X85754198Y82931327D01*
X85750367Y82932684D01*
X85750364Y82932685D01*
X85525446Y83012333D01*
X85525442Y83012334D01*
X85521610Y83013691D01*
X85278694Y83056961D01*
X85274633Y83057011D01*
X85274629Y83057011D01*
X85161411Y83058394D01*
X85031972Y83059975D01*
X84788070Y83022653D01*
X84661879Y82981407D01*
X84557397Y82947258D01*
X84557393Y82947256D01*
X84553540Y82945997D01*
X84549940Y82944123D01*
X84338284Y82833942D01*
X84338281Y82833940D01*
X84334679Y82832065D01*
X84331436Y82829630D01*
X84331431Y82829627D01*
X84248979Y82767720D01*
X84137364Y82683917D01*
X83966896Y82505532D01*
X83964604Y82502172D01*
X83850827Y82335381D01*
X83827851Y82301700D01*
X83826143Y82298020D01*
X83826140Y82298015D01*
X83791991Y82224447D01*
X83723965Y82077896D01*
X83722879Y82073980D01*
X83660049Y81847422D01*
X83658026Y81840129D01*
X83657593Y81836081D01*
X83657593Y81836079D01*
X83654576Y81807850D01*
X83631806Y81594786D01*
X82207500Y81594786D01*
X82207500Y81703155D01*
X82192546Y81836472D01*
X82154406Y81945997D01*
X82135305Y82000847D01*
X82135305Y82000848D01*
X82133485Y82006073D01*
X82063587Y82117933D01*
X82048785Y82177301D01*
X82071706Y82234031D01*
X82123594Y82266454D01*
X82184630Y82262186D01*
X82203191Y82252276D01*
X82271165Y82206080D01*
X82280571Y82201079D01*
X82442090Y82136476D01*
X82452360Y82133608D01*
X82461530Y82132090D01*
X82474720Y82134085D01*
X82475367Y82134723D01*
X82477000Y82141423D01*
X82477000Y82147103D01*
X82877000Y82147103D01*
X82880765Y82135514D01*
X82891009Y82135282D01*
X82986583Y82161607D01*
X82996494Y82165531D01*
X83150376Y82246664D01*
X83159211Y82252623D01*
X83292082Y82364907D01*
X83299432Y82372626D01*
X83405089Y82510819D01*
X83410613Y82519941D01*
X83484130Y82677600D01*
X83487566Y82687692D01*
X83522213Y82842697D01*
X83520991Y82855632D01*
X83512336Y82858000D01*
X82892680Y82858000D01*
X82879995Y82853878D01*
X82877000Y82849757D01*
X82877000Y82147103D01*
X82477000Y82147103D01*
X82477000Y82842320D01*
X82472878Y82855005D01*
X82468757Y82858000D01*
X81848531Y82858000D01*
X81835846Y82853878D01*
X81834436Y82851938D01*
X81833984Y82847568D01*
X81841354Y82779724D01*
X81843642Y82769321D01*
X81899129Y82604443D01*
X81903600Y82594768D01*
X81982929Y82462743D01*
X81996693Y82403126D01*
X81972786Y82346804D01*
X81920340Y82315291D01*
X81859388Y82320624D01*
X81845023Y82328166D01*
X81764810Y82379071D01*
X81764809Y82379072D01*
X81760136Y82382037D01*
X81746974Y82386724D01*
X81596160Y82440426D01*
X81596161Y82440426D01*
X81590951Y82442281D01*
X81585464Y82442935D01*
X81585461Y82442936D01*
X81418120Y82462890D01*
X81418117Y82462890D01*
X81412624Y82463545D01*
X81234017Y82444773D01*
X81228777Y82442989D01*
X81228776Y82442989D01*
X81069249Y82388682D01*
X81069245Y82388680D01*
X81064007Y82386897D01*
X81059297Y82383999D01*
X81059292Y82383997D01*
X80934640Y82307310D01*
X80911045Y82292794D01*
X80907095Y82288926D01*
X80907090Y82288922D01*
X80841250Y82224447D01*
X80786446Y82197242D01*
X80726117Y82207446D01*
X80701737Y82225421D01*
X80645671Y82281879D01*
X80645669Y82281880D01*
X80641770Y82285807D01*
X80636862Y82288922D01*
X80494810Y82379071D01*
X80494809Y82379072D01*
X80490136Y82382037D01*
X80476974Y82386724D01*
X80326160Y82440426D01*
X80326161Y82440426D01*
X80320951Y82442281D01*
X80315464Y82442935D01*
X80315461Y82442936D01*
X80148120Y82462890D01*
X80148117Y82462890D01*
X80142624Y82463545D01*
X79964017Y82444773D01*
X79958777Y82442989D01*
X79958776Y82442989D01*
X79799249Y82388682D01*
X79799245Y82388680D01*
X79794007Y82386897D01*
X79789297Y82383999D01*
X79789292Y82383997D01*
X79730942Y82348099D01*
X79697682Y82327637D01*
X79694504Y82325682D01*
X79635034Y82311295D01*
X79578465Y82334611D01*
X79546405Y82386724D01*
X79551099Y82447729D01*
X79563982Y82470133D01*
X79595089Y82510819D01*
X79600613Y82519941D01*
X79674130Y82677600D01*
X79677566Y82687692D01*
X79712213Y82842697D01*
X79710991Y82855632D01*
X79702336Y82858000D01*
X79082680Y82858000D01*
X79069995Y82853878D01*
X79067000Y82849757D01*
X79067000Y82147103D01*
X78667000Y82147103D01*
X78667000Y82842320D01*
X78662878Y82855005D01*
X78658757Y82858000D01*
X78038531Y82858000D01*
X78025846Y82853878D01*
X78024436Y82851938D01*
X78023984Y82847568D01*
X78031354Y82779724D01*
X78033642Y82769321D01*
X78089129Y82604443D01*
X78093600Y82594768D01*
X78172929Y82462743D01*
X78186693Y82403126D01*
X78162786Y82346804D01*
X78110340Y82315291D01*
X78049388Y82320624D01*
X78035023Y82328166D01*
X77954810Y82379071D01*
X77954809Y82379072D01*
X77950136Y82382037D01*
X77936974Y82386724D01*
X77786160Y82440426D01*
X77786161Y82440426D01*
X77780951Y82442281D01*
X77775464Y82442935D01*
X77775461Y82442936D01*
X77608120Y82462890D01*
X77608117Y82462890D01*
X77602624Y82463545D01*
X77424017Y82444773D01*
X77418777Y82442989D01*
X77418776Y82442989D01*
X77259249Y82388682D01*
X77259245Y82388680D01*
X77254007Y82386897D01*
X77249297Y82383999D01*
X77249292Y82383997D01*
X77124640Y82307310D01*
X77101045Y82292794D01*
X77097095Y82288926D01*
X77097090Y82288922D01*
X77031250Y82224447D01*
X76976446Y82197242D01*
X76916117Y82207446D01*
X76891737Y82225421D01*
X76835671Y82281879D01*
X76835669Y82281880D01*
X76831770Y82285807D01*
X76826862Y82288922D01*
X76684810Y82379071D01*
X76684809Y82379072D01*
X76680136Y82382037D01*
X76666974Y82386724D01*
X76516160Y82440426D01*
X76516161Y82440426D01*
X76510951Y82442281D01*
X76505464Y82442935D01*
X76505461Y82442936D01*
X76338120Y82462890D01*
X76338117Y82462890D01*
X76332624Y82463545D01*
X76154017Y82444773D01*
X76148777Y82442989D01*
X76148776Y82442989D01*
X75989249Y82388682D01*
X75989245Y82388680D01*
X75984007Y82386897D01*
X75979297Y82383999D01*
X75979292Y82383997D01*
X75920942Y82348099D01*
X75887682Y82327637D01*
X75884504Y82325682D01*
X75825034Y82311295D01*
X75768465Y82334611D01*
X75736405Y82386724D01*
X75741099Y82447729D01*
X75753982Y82470133D01*
X75785089Y82510819D01*
X75790613Y82519941D01*
X75864130Y82677600D01*
X75867566Y82687692D01*
X75902213Y82842697D01*
X75900991Y82855632D01*
X75892336Y82858000D01*
X75272680Y82858000D01*
X75259995Y82853878D01*
X75257000Y82849757D01*
X75257000Y82147103D01*
X74857000Y82147103D01*
X74857000Y82842320D01*
X74852878Y82855005D01*
X74848757Y82858000D01*
X74228531Y82858000D01*
X74215846Y82853878D01*
X74214436Y82851938D01*
X74213984Y82847568D01*
X5080000Y82847568D01*
X5080000Y83273303D01*
X74211787Y83273303D01*
X74213009Y83260368D01*
X74221664Y83258000D01*
X74841320Y83258000D01*
X74854005Y83262122D01*
X74857000Y83266243D01*
X74857000Y83273680D01*
X75257000Y83273680D01*
X75261122Y83260995D01*
X75265243Y83258000D01*
X75885469Y83258000D01*
X75898154Y83262122D01*
X75899564Y83264062D01*
X75900016Y83268432D01*
X75899487Y83273303D01*
X78021787Y83273303D01*
X78023009Y83260368D01*
X78031664Y83258000D01*
X78651320Y83258000D01*
X78664005Y83262122D01*
X78667000Y83266243D01*
X78667000Y83273680D01*
X79067000Y83273680D01*
X79071122Y83260995D01*
X79075243Y83258000D01*
X79695469Y83258000D01*
X79708154Y83262122D01*
X79709564Y83264062D01*
X79710016Y83268432D01*
X79709487Y83273303D01*
X81831787Y83273303D01*
X81833009Y83260368D01*
X81841664Y83258000D01*
X82461320Y83258000D01*
X82474005Y83262122D01*
X82477000Y83266243D01*
X82477000Y83273680D01*
X82877000Y83273680D01*
X82881122Y83260995D01*
X82885243Y83258000D01*
X83505469Y83258000D01*
X83518154Y83262122D01*
X83519564Y83264062D01*
X83520016Y83268432D01*
X83512646Y83336276D01*
X83510358Y83346679D01*
X83454871Y83511557D01*
X83450400Y83521232D01*
X83360804Y83670343D01*
X83354361Y83678832D01*
X83234831Y83805232D01*
X83226720Y83812135D01*
X83082835Y83909920D01*
X83073429Y83914921D01*
X82911910Y83979524D01*
X82901640Y83982392D01*
X82892470Y83983910D01*
X82879280Y83981915D01*
X82878633Y83981277D01*
X82877000Y83974577D01*
X82877000Y83273680D01*
X82477000Y83273680D01*
X82477000Y83968897D01*
X82473235Y83980486D01*
X82462991Y83980718D01*
X82367417Y83954393D01*
X82357506Y83950469D01*
X82203624Y83869336D01*
X82194789Y83863377D01*
X82061918Y83751093D01*
X82054568Y83743374D01*
X81948911Y83605181D01*
X81943387Y83596059D01*
X81869870Y83438400D01*
X81866434Y83428308D01*
X81831787Y83273303D01*
X79709487Y83273303D01*
X79702646Y83336276D01*
X79700358Y83346679D01*
X79644871Y83511557D01*
X79640400Y83521232D01*
X79550804Y83670343D01*
X79544361Y83678832D01*
X79424831Y83805232D01*
X79416720Y83812135D01*
X79272835Y83909920D01*
X79263429Y83914921D01*
X79101910Y83979524D01*
X79091640Y83982392D01*
X79082470Y83983910D01*
X79069280Y83981915D01*
X79068633Y83981277D01*
X79067000Y83974577D01*
X79067000Y83273680D01*
X78667000Y83273680D01*
X78667000Y83968897D01*
X78663235Y83980486D01*
X78652991Y83980718D01*
X78557417Y83954393D01*
X78547506Y83950469D01*
X78393624Y83869336D01*
X78384789Y83863377D01*
X78251918Y83751093D01*
X78244568Y83743374D01*
X78138911Y83605181D01*
X78133387Y83596059D01*
X78059870Y83438400D01*
X78056434Y83428308D01*
X78021787Y83273303D01*
X75899487Y83273303D01*
X75892646Y83336276D01*
X75890358Y83346679D01*
X75834871Y83511557D01*
X75830400Y83521232D01*
X75740804Y83670343D01*
X75734361Y83678832D01*
X75614831Y83805232D01*
X75606720Y83812135D01*
X75462835Y83909920D01*
X75453429Y83914921D01*
X75291910Y83979524D01*
X75281640Y83982392D01*
X75272470Y83983910D01*
X75259280Y83981915D01*
X75258633Y83981277D01*
X75257000Y83974577D01*
X75257000Y83273680D01*
X74857000Y83273680D01*
X74857000Y83968897D01*
X74853235Y83980486D01*
X74842991Y83980718D01*
X74747417Y83954393D01*
X74737506Y83950469D01*
X74583624Y83869336D01*
X74574789Y83863377D01*
X74441918Y83751093D01*
X74434568Y83743374D01*
X74328911Y83605181D01*
X74323387Y83596059D01*
X74249870Y83438400D01*
X74246434Y83428308D01*
X74211787Y83273303D01*
X5080000Y83273303D01*
X5080000Y85164810D01*
X5078545Y85191957D01*
X5075666Y85218740D01*
X5046050Y85313325D01*
X5012024Y85375637D01*
X4968700Y85433510D01*
X4788510Y85613700D01*
X4786158Y85615813D01*
X4769286Y85630969D01*
X4769276Y85630978D01*
X4768288Y85631865D01*
X4747314Y85648768D01*
X4659491Y85694709D01*
X4591370Y85714711D01*
X4519810Y85725000D01*
X2084190Y85725000D01*
X2082886Y85724930D01*
X2082882Y85724930D01*
X2058364Y85723616D01*
X2058357Y85723615D01*
X2057043Y85723545D01*
X2055735Y85723404D01*
X2055730Y85723404D01*
X2046180Y85722377D01*
X2030260Y85720666D01*
X2025619Y85719213D01*
X2025615Y85719212D01*
X1985838Y85706757D01*
X1935675Y85691050D01*
X1931408Y85688720D01*
X1876461Y85658716D01*
X1876458Y85658714D01*
X1873363Y85657024D01*
X1815490Y85613700D01*
X1635300Y85433510D01*
X1617135Y85413288D01*
X1600232Y85392314D01*
X1554291Y85304491D01*
X1534289Y85236370D01*
X1524000Y85164810D01*
X1524000Y71553190D01*
X504000Y71553190D01*
X504000Y94524919D01*
X58234159Y94524919D01*
X58234814Y94518986D01*
X58234814Y94518982D01*
X58249546Y94385543D01*
X58250772Y94374438D01*
X58252824Y94368831D01*
X58300748Y94237870D01*
X58300750Y94237866D01*
X58302800Y94232264D01*
X58387240Y94106605D01*
X58391652Y94102590D01*
X58391655Y94102587D01*
X58494800Y94008732D01*
X58499216Y94004714D01*
X58504460Y94001867D01*
X58627019Y93935322D01*
X58627021Y93935321D01*
X58632265Y93932474D01*
X58709016Y93912339D01*
X58772935Y93895570D01*
X58772939Y93895570D01*
X58778704Y93894057D01*
X58784665Y93893963D01*
X58784668Y93893963D01*
X58854393Y93892868D01*
X58930081Y93891679D01*
X58935897Y93893011D01*
X59071836Y93924145D01*
X59071838Y93924146D01*
X59077655Y93925478D01*
X59143396Y93958542D01*
X59203877Y93967797D01*
X59257882Y93940102D01*
X59355625Y93842359D01*
X59383402Y93787842D01*
X59384621Y93772355D01*
X59384621Y89828781D01*
X59365714Y89770590D01*
X59316214Y89734626D01*
X59308733Y89732517D01*
X59301295Y89730731D01*
X59301290Y89730729D01*
X59295487Y89729336D01*
X59285554Y89724209D01*
X59166261Y89662638D01*
X59166259Y89662636D01*
X59160955Y89659899D01*
X59046869Y89560375D01*
X58959816Y89436511D01*
X58957649Y89430953D01*
X58957648Y89430951D01*
X58955365Y89425096D01*
X58904822Y89295458D01*
X58904043Y89289543D01*
X58904043Y89289542D01*
X58903200Y89283137D01*
X58885061Y89145358D01*
X58885716Y89139425D01*
X58885716Y89139421D01*
X58887246Y89125564D01*
X58901674Y88994877D01*
X58903726Y88989270D01*
X58951650Y88858309D01*
X58951652Y88858305D01*
X58953702Y88852703D01*
X59038142Y88727044D01*
X59042554Y88723029D01*
X59042557Y88723026D01*
X59145702Y88629171D01*
X59150118Y88625153D01*
X59208257Y88593586D01*
X59277921Y88555761D01*
X59277923Y88555760D01*
X59283167Y88552913D01*
X59359918Y88532778D01*
X59423837Y88516009D01*
X59423841Y88516009D01*
X59429606Y88514496D01*
X59435567Y88514402D01*
X59435570Y88514402D01*
X59505294Y88513307D01*
X59580983Y88512118D01*
X59586799Y88513450D01*
X59722734Y88544583D01*
X59722737Y88544584D01*
X59728557Y88545917D01*
X59739457Y88551399D01*
X59858475Y88611258D01*
X59858477Y88611259D01*
X59863809Y88613941D01*
X59951484Y88688823D01*
X60008011Y88712238D01*
X60067506Y88697955D01*
X60082400Y88686772D01*
X60150118Y88625153D01*
X60208257Y88593586D01*
X60277921Y88555761D01*
X60277923Y88555760D01*
X60283167Y88552913D01*
X60359918Y88532778D01*
X60423837Y88516009D01*
X60423841Y88516009D01*
X60429606Y88514496D01*
X60435567Y88514402D01*
X60435570Y88514402D01*
X60505294Y88513307D01*
X60580983Y88512118D01*
X60586799Y88513450D01*
X60722734Y88544583D01*
X60722737Y88544584D01*
X60728557Y88545917D01*
X60739457Y88551399D01*
X60858475Y88611258D01*
X60858477Y88611259D01*
X60863809Y88613941D01*
X60978930Y88712265D01*
X61067276Y88835210D01*
X61123744Y88975680D01*
X61145076Y89125564D01*
X61145214Y89138760D01*
X61127026Y89289059D01*
X61073512Y89430680D01*
X60987760Y89555449D01*
X60874723Y89656161D01*
X60740925Y89727003D01*
X60720498Y89732134D01*
X60668668Y89764650D01*
X60645848Y89821420D01*
X60645619Y89828151D01*
X60645619Y94235786D01*
X60643213Y94243193D01*
X60643212Y94243196D01*
X60638411Y94257972D01*
X60634785Y94273075D01*
X60632355Y94288416D01*
X60631136Y94296112D01*
X60627599Y94303054D01*
X60627598Y94303057D01*
X60620548Y94316894D01*
X60614604Y94331244D01*
X60609803Y94346019D01*
X60609801Y94346023D01*
X60607394Y94353431D01*
X60593685Y94372300D01*
X60585569Y94385543D01*
X60578514Y94399388D01*
X60574978Y94406328D01*
X60151361Y94829945D01*
X60123584Y94884462D01*
X60129509Y94936874D01*
X60169170Y95035536D01*
X60179948Y95062347D01*
X60201280Y95212231D01*
X60201418Y95225427D01*
X60183230Y95375726D01*
X60129716Y95517347D01*
X60043964Y95642116D01*
X59930927Y95742828D01*
X59797129Y95813670D01*
X59791341Y95815124D01*
X59791338Y95815125D01*
X59656084Y95849099D01*
X59656085Y95849099D01*
X59650296Y95850553D01*
X59574599Y95850949D01*
X59504869Y95851314D01*
X59504867Y95851314D01*
X59498903Y95851345D01*
X59351691Y95816003D01*
X59341758Y95810876D01*
X59222465Y95749305D01*
X59222463Y95749303D01*
X59217159Y95746566D01*
X59103073Y95647042D01*
X59016020Y95523178D01*
X59013853Y95517620D01*
X59013852Y95517618D01*
X59011569Y95511763D01*
X58961026Y95382125D01*
X58960247Y95376210D01*
X58960247Y95376209D01*
X58959404Y95369804D01*
X58941265Y95232025D01*
X58938860Y95232342D01*
X58922560Y95183933D01*
X58872681Y95148497D01*
X58842574Y95143973D01*
X58813886Y95144123D01*
X58797763Y95144208D01*
X58797761Y95144208D01*
X58791797Y95144239D01*
X58644585Y95108897D01*
X58574762Y95072859D01*
X58515359Y95042199D01*
X58515357Y95042197D01*
X58510053Y95039460D01*
X58395967Y94939936D01*
X58308914Y94816072D01*
X58253920Y94675019D01*
X58234159Y94524919D01*
X504000Y94524919D01*
X504000Y100997000D01*
X522907Y101055191D01*
X572407Y101091155D01*
X603000Y101096000D01*
X100997000Y101096000D01*
X101055191Y101077093D01*
G37*
%TD.AperFunction*%
%TD*%
M02*
