%TF.GenerationSoftware,KiCad,Pcbnew,6.0.4-6f826c9f35~116~ubuntu20.04.1*%
%TF.CreationDate,2022-05-16T10:28:47+00:00*%
%TF.ProjectId,MPPB01B,4d505042-3031-4422-9e6b-696361645f70,**%
%TF.SameCoordinates,Original*%
%TF.FileFunction,Legend,Bot*%
%TF.FilePolarity,Positive*%
%FSLAX46Y46*%
G04 Gerber Fmt 4.6, Leading zero omitted, Abs format (unit mm)*
G04 Created by KiCad (PCBNEW 6.0.4-6f826c9f35~116~ubuntu20.04.1) date 2022-05-16 10:28:47*
%MOMM*%
%LPD*%
G01*
G04 APERTURE LIST*
%ADD10C,0.150000*%
%ADD11C,0.100000*%
%ADD12C,0.300000*%
%ADD13C,0.200000*%
%ADD14C,0.170000*%
%ADD15C,0.220000*%
%ADD16C,0.222250*%
%ADD17C,0.203200*%
%ADD18C,0.120000*%
%ADD19C,0.127000*%
%ADD20R,1.676400X1.676400*%
G04 APERTURE END LIST*
D10*
X71170000Y7590000D02*
X58470000Y7590000D01*
X58470000Y7590000D02*
X58470000Y2490000D01*
X58470000Y2490000D02*
X71170000Y2490000D01*
X71170000Y2490000D02*
X71170000Y7590000D01*
X34920000Y8340000D02*
X35820000Y7840000D01*
G36*
X49120000Y5340000D02*
G01*
X48120000Y6340000D01*
X49120000Y7340000D01*
X49120000Y5340000D01*
G37*
X49120000Y5340000D02*
X48120000Y6340000D01*
X49120000Y7340000D01*
X49120000Y5340000D01*
X35320000Y91040000D02*
X35320000Y71540000D01*
D11*
X100220000Y11540000D02*
X12820000Y11540000D01*
D10*
X47720000Y7590000D02*
X14720000Y7590000D01*
X14720000Y7590000D02*
X14720000Y2490000D01*
X14720000Y2490000D02*
X47720000Y2490000D01*
X47720000Y2490000D02*
X47720000Y7590000D01*
X43820000Y91040000D02*
X26820000Y91040000D01*
D11*
X12820000Y11540000D02*
X12820000Y67140000D01*
X100220000Y67140000D02*
X100220000Y11540000D01*
X12820000Y67140000D02*
X100220000Y67140000D01*
D12*
X80791428Y54566429D02*
X80791428Y56066429D01*
X79934285Y54566429D01*
X79934285Y56066429D01*
X78934285Y56066429D02*
X78648571Y56066429D01*
X78505714Y55995000D01*
X78362857Y55852143D01*
X78291428Y55566429D01*
X78291428Y55066429D01*
X78362857Y54780715D01*
X78505714Y54637858D01*
X78648571Y54566429D01*
X78934285Y54566429D01*
X79077142Y54637858D01*
X79220000Y54780715D01*
X79291428Y55066429D01*
X79291428Y55566429D01*
X79220000Y55852143D01*
X79077142Y55995000D01*
X78934285Y56066429D01*
X76791428Y54566429D02*
X77291428Y55280715D01*
X77648571Y54566429D02*
X77648571Y56066429D01*
X77077142Y56066429D01*
X76934285Y55995000D01*
X76862857Y55923572D01*
X76791428Y55780715D01*
X76791428Y55566429D01*
X76862857Y55423572D01*
X76934285Y55352143D01*
X77077142Y55280715D01*
X77648571Y55280715D01*
X76362857Y56066429D02*
X75505714Y56066429D01*
X75934285Y54566429D02*
X75934285Y56066429D01*
X75005714Y54566429D02*
X75005714Y56066429D01*
X75005714Y55352143D02*
X74148571Y55352143D01*
X74148571Y54566429D02*
X74148571Y56066429D01*
X81589142Y22887858D02*
X81374857Y22816429D01*
X81017714Y22816429D01*
X80874857Y22887858D01*
X80803428Y22959286D01*
X80732000Y23102143D01*
X80732000Y23245000D01*
X80803428Y23387858D01*
X80874857Y23459286D01*
X81017714Y23530715D01*
X81303428Y23602143D01*
X81446285Y23673572D01*
X81517714Y23745000D01*
X81589142Y23887858D01*
X81589142Y24030715D01*
X81517714Y24173572D01*
X81446285Y24245000D01*
X81303428Y24316429D01*
X80946285Y24316429D01*
X80732000Y24245000D01*
X79803428Y24316429D02*
X79517714Y24316429D01*
X79374857Y24245000D01*
X79232000Y24102143D01*
X79160571Y23816429D01*
X79160571Y23316429D01*
X79232000Y23030715D01*
X79374857Y22887858D01*
X79517714Y22816429D01*
X79803428Y22816429D01*
X79946285Y22887858D01*
X80089142Y23030715D01*
X80160571Y23316429D01*
X80160571Y23816429D01*
X80089142Y24102143D01*
X79946285Y24245000D01*
X79803428Y24316429D01*
X78517714Y24316429D02*
X78517714Y23102143D01*
X78446285Y22959286D01*
X78374857Y22887858D01*
X78232000Y22816429D01*
X77946285Y22816429D01*
X77803428Y22887858D01*
X77732000Y22959286D01*
X77660571Y23102143D01*
X77660571Y24316429D01*
X77160571Y24316429D02*
X76303428Y24316429D01*
X76732000Y22816429D02*
X76732000Y24316429D01*
X75803428Y22816429D02*
X75803428Y24316429D01*
X75803428Y23602143D02*
X74946285Y23602143D01*
X74946285Y22816429D02*
X74946285Y24316429D01*
X39024285Y22816429D02*
X39024285Y24316429D01*
X38452857Y24316429D01*
X38310000Y24245000D01*
X38238571Y24173572D01*
X38167142Y24030715D01*
X38167142Y23816429D01*
X38238571Y23673572D01*
X38310000Y23602143D01*
X38452857Y23530715D01*
X39024285Y23530715D01*
X37238571Y24316429D02*
X36952857Y24316429D01*
X36810000Y24245000D01*
X36667142Y24102143D01*
X36595714Y23816429D01*
X36595714Y23316429D01*
X36667142Y23030715D01*
X36810000Y22887858D01*
X36952857Y22816429D01*
X37238571Y22816429D01*
X37381428Y22887858D01*
X37524285Y23030715D01*
X37595714Y23316429D01*
X37595714Y23816429D01*
X37524285Y24102143D01*
X37381428Y24245000D01*
X37238571Y24316429D01*
X36095714Y24316429D02*
X35738571Y22816429D01*
X35452857Y23887858D01*
X35167142Y22816429D01*
X34810000Y24316429D01*
X34238571Y23602143D02*
X33738571Y23602143D01*
X33524285Y22816429D02*
X34238571Y22816429D01*
X34238571Y24316429D01*
X33524285Y24316429D01*
X32024285Y22816429D02*
X32524285Y23530715D01*
X32881428Y22816429D02*
X32881428Y24316429D01*
X32310000Y24316429D01*
X32167142Y24245000D01*
X32095714Y24173572D01*
X32024285Y24030715D01*
X32024285Y23816429D01*
X32095714Y23673572D01*
X32167142Y23602143D01*
X32310000Y23530715D01*
X32881428Y23530715D01*
D13*
X17795714Y68000572D02*
X17033809Y68000572D01*
X17414761Y67619620D02*
X17414761Y68381524D01*
X16081428Y68619620D02*
X16557619Y68619620D01*
X16605238Y68143429D01*
X16557619Y68191048D01*
X16462380Y68238667D01*
X16224285Y68238667D01*
X16129047Y68191048D01*
X16081428Y68143429D01*
X16033809Y68048191D01*
X16033809Y67810096D01*
X16081428Y67714858D01*
X16129047Y67667239D01*
X16224285Y67619620D01*
X16462380Y67619620D01*
X16557619Y67667239D01*
X16605238Y67714858D01*
X15748095Y68619620D02*
X15414761Y67619620D01*
X15081428Y68619620D01*
D12*
X90146428Y95475715D02*
X90146428Y97275715D01*
X89546428Y95990000D01*
X88946428Y97275715D01*
X88946428Y95475715D01*
X88089285Y95475715D02*
X88089285Y97275715D01*
X87403571Y97275715D01*
X87232142Y97190000D01*
X87146428Y97104286D01*
X87060714Y96932858D01*
X87060714Y96675715D01*
X87146428Y96504286D01*
X87232142Y96418572D01*
X87403571Y96332858D01*
X88089285Y96332858D01*
X86289285Y95475715D02*
X86289285Y97275715D01*
X85603571Y97275715D01*
X85432142Y97190000D01*
X85346428Y97104286D01*
X85260714Y96932858D01*
X85260714Y96675715D01*
X85346428Y96504286D01*
X85432142Y96418572D01*
X85603571Y96332858D01*
X86289285Y96332858D01*
X83889285Y96418572D02*
X83632142Y96332858D01*
X83546428Y96247143D01*
X83460714Y96075715D01*
X83460714Y95818572D01*
X83546428Y95647143D01*
X83632142Y95561429D01*
X83803571Y95475715D01*
X84489285Y95475715D01*
X84489285Y97275715D01*
X83889285Y97275715D01*
X83717857Y97190000D01*
X83632142Y97104286D01*
X83546428Y96932858D01*
X83546428Y96761429D01*
X83632142Y96590000D01*
X83717857Y96504286D01*
X83889285Y96418572D01*
X84489285Y96418572D01*
X82346428Y97275715D02*
X82175000Y97275715D01*
X82003571Y97190000D01*
X81917857Y97104286D01*
X81832142Y96932858D01*
X81746428Y96590000D01*
X81746428Y96161429D01*
X81832142Y95818572D01*
X81917857Y95647143D01*
X82003571Y95561429D01*
X82175000Y95475715D01*
X82346428Y95475715D01*
X82517857Y95561429D01*
X82603571Y95647143D01*
X82689285Y95818572D01*
X82775000Y96161429D01*
X82775000Y96590000D01*
X82689285Y96932858D01*
X82603571Y97104286D01*
X82517857Y97190000D01*
X82346428Y97275715D01*
X80032142Y95475715D02*
X81060714Y95475715D01*
X80546428Y95475715D02*
X80546428Y97275715D01*
X80717857Y97018572D01*
X80889285Y96847143D01*
X81060714Y96761429D01*
X78660714Y96418572D02*
X78403571Y96332858D01*
X78317857Y96247143D01*
X78232142Y96075715D01*
X78232142Y95818572D01*
X78317857Y95647143D01*
X78403571Y95561429D01*
X78575000Y95475715D01*
X79260714Y95475715D01*
X79260714Y97275715D01*
X78660714Y97275715D01*
X78489285Y97190000D01*
X78403571Y97104286D01*
X78317857Y96932858D01*
X78317857Y96761429D01*
X78403571Y96590000D01*
X78489285Y96504286D01*
X78660714Y96418572D01*
X79260714Y96418572D01*
D13*
X9877142Y19882858D02*
X10177142Y20311429D01*
X10391428Y19882858D02*
X10391428Y20782858D01*
X10048571Y20782858D01*
X9962857Y20740000D01*
X9920000Y20697143D01*
X9877142Y20611429D01*
X9877142Y20482858D01*
X9920000Y20397143D01*
X9962857Y20354286D01*
X10048571Y20311429D01*
X10391428Y20311429D01*
X9491428Y20354286D02*
X9191428Y20354286D01*
X9062857Y19882858D02*
X9491428Y19882858D01*
X9491428Y20782858D01*
X9062857Y20782858D01*
X8720000Y19925715D02*
X8591428Y19882858D01*
X8377142Y19882858D01*
X8291428Y19925715D01*
X8248571Y19968572D01*
X8205714Y20054286D01*
X8205714Y20140000D01*
X8248571Y20225715D01*
X8291428Y20268572D01*
X8377142Y20311429D01*
X8548571Y20354286D01*
X8634285Y20397143D01*
X8677142Y20440000D01*
X8720000Y20525715D01*
X8720000Y20611429D01*
X8677142Y20697143D01*
X8634285Y20740000D01*
X8548571Y20782858D01*
X8334285Y20782858D01*
X8205714Y20740000D01*
X7820000Y20354286D02*
X7520000Y20354286D01*
X7391428Y19882858D02*
X7820000Y19882858D01*
X7820000Y20782858D01*
X7391428Y20782858D01*
X7134285Y20782858D02*
X6620000Y20782858D01*
X6877142Y19882858D02*
X6877142Y20782858D01*
D10*
X41229523Y1987620D02*
X41420000Y1987620D01*
X41515238Y1940000D01*
X41562857Y1892381D01*
X41658095Y1749524D01*
X41705714Y1559048D01*
X41705714Y1178096D01*
X41658095Y1082858D01*
X41610476Y1035239D01*
X41515238Y987620D01*
X41324761Y987620D01*
X41229523Y1035239D01*
X41181904Y1082858D01*
X41134285Y1178096D01*
X41134285Y1416191D01*
X41181904Y1511429D01*
X41229523Y1559048D01*
X41324761Y1606667D01*
X41515238Y1606667D01*
X41610476Y1559048D01*
X41658095Y1511429D01*
X41705714Y1416191D01*
D12*
X66284285Y8661429D02*
X66284285Y10161429D01*
X65641428Y10018572D02*
X65570000Y10090000D01*
X65427142Y10161429D01*
X65070000Y10161429D01*
X64927142Y10090000D01*
X64855714Y10018572D01*
X64784285Y9875715D01*
X64784285Y9732858D01*
X64855714Y9518572D01*
X65712857Y8661429D01*
X64784285Y8661429D01*
X63284285Y8804286D02*
X63355714Y8732858D01*
X63570000Y8661429D01*
X63712857Y8661429D01*
X63927142Y8732858D01*
X64070000Y8875715D01*
X64141428Y9018572D01*
X64212857Y9304286D01*
X64212857Y9518572D01*
X64141428Y9804286D01*
X64070000Y9947143D01*
X63927142Y10090000D01*
X63712857Y10161429D01*
X63570000Y10161429D01*
X63355714Y10090000D01*
X63284285Y10018572D01*
D10*
X16781904Y1892381D02*
X16734285Y1940000D01*
X16639047Y1987620D01*
X16400952Y1987620D01*
X16305714Y1940000D01*
X16258095Y1892381D01*
X16210476Y1797143D01*
X16210476Y1701905D01*
X16258095Y1559048D01*
X16829523Y987620D01*
X16210476Y987620D01*
X15353333Y1987620D02*
X15543809Y1987620D01*
X15639047Y1940000D01*
X15686666Y1892381D01*
X15781904Y1749524D01*
X15829523Y1559048D01*
X15829523Y1178096D01*
X15781904Y1082858D01*
X15734285Y1035239D01*
X15639047Y987620D01*
X15448571Y987620D01*
X15353333Y1035239D01*
X15305714Y1082858D01*
X15258095Y1178096D01*
X15258095Y1416191D01*
X15305714Y1511429D01*
X15353333Y1559048D01*
X15448571Y1606667D01*
X15639047Y1606667D01*
X15734285Y1559048D01*
X15781904Y1511429D01*
X15829523Y1416191D01*
X21781904Y1892381D02*
X21734285Y1940000D01*
X21639047Y1987620D01*
X21400952Y1987620D01*
X21305714Y1940000D01*
X21258095Y1892381D01*
X21210476Y1797143D01*
X21210476Y1701905D01*
X21258095Y1559048D01*
X21829523Y987620D01*
X21210476Y987620D01*
X20829523Y1892381D02*
X20781904Y1940000D01*
X20686666Y1987620D01*
X20448571Y1987620D01*
X20353333Y1940000D01*
X20305714Y1892381D01*
X20258095Y1797143D01*
X20258095Y1701905D01*
X20305714Y1559048D01*
X20877142Y987620D01*
X20258095Y987620D01*
X41081904Y8987620D02*
X41558095Y8987620D01*
X41605714Y8511429D01*
X41558095Y8559048D01*
X41462857Y8606667D01*
X41224761Y8606667D01*
X41129523Y8559048D01*
X41081904Y8511429D01*
X41034285Y8416191D01*
X41034285Y8178096D01*
X41081904Y8082858D01*
X41129523Y8035239D01*
X41224761Y7987620D01*
X41462857Y7987620D01*
X41558095Y8035239D01*
X41605714Y8082858D01*
D13*
X34004285Y89326858D02*
X34518571Y89326858D01*
X34261428Y89326858D02*
X34261428Y90226858D01*
X34347142Y90098286D01*
X34432857Y90012572D01*
X34518571Y89969715D01*
X32290000Y89369715D02*
X32161428Y89326858D01*
X31947142Y89326858D01*
X31861428Y89369715D01*
X31818571Y89412572D01*
X31775714Y89498286D01*
X31775714Y89584000D01*
X31818571Y89669715D01*
X31861428Y89712572D01*
X31947142Y89755429D01*
X32118571Y89798286D01*
X32204285Y89841143D01*
X32247142Y89884000D01*
X32290000Y89969715D01*
X32290000Y90055429D01*
X32247142Y90141143D01*
X32204285Y90184000D01*
X32118571Y90226858D01*
X31904285Y90226858D01*
X31775714Y90184000D01*
X31218571Y89755429D02*
X31218571Y89326858D01*
X31518571Y90226858D02*
X31218571Y89755429D01*
X30918571Y90226858D01*
X30661428Y89369715D02*
X30532857Y89326858D01*
X30318571Y89326858D01*
X30232857Y89369715D01*
X30190000Y89412572D01*
X30147142Y89498286D01*
X30147142Y89584000D01*
X30190000Y89669715D01*
X30232857Y89712572D01*
X30318571Y89755429D01*
X30490000Y89798286D01*
X30575714Y89841143D01*
X30618571Y89884000D01*
X30661428Y89969715D01*
X30661428Y90055429D01*
X30618571Y90141143D01*
X30575714Y90184000D01*
X30490000Y90226858D01*
X30275714Y90226858D01*
X30147142Y90184000D01*
X29975714Y89241143D02*
X29290000Y89241143D01*
X28647142Y90226858D02*
X29075714Y90226858D01*
X29118571Y89798286D01*
X29075714Y89841143D01*
X28990000Y89884000D01*
X28775714Y89884000D01*
X28690000Y89841143D01*
X28647142Y89798286D01*
X28604285Y89712572D01*
X28604285Y89498286D01*
X28647142Y89412572D01*
X28690000Y89369715D01*
X28775714Y89326858D01*
X28990000Y89326858D01*
X29075714Y89369715D01*
X29118571Y89412572D01*
X28347142Y90226858D02*
X28047142Y89326858D01*
X27747142Y90226858D01*
X34561428Y88777858D02*
X34004285Y88777858D01*
X34304285Y88435000D01*
X34175714Y88435000D01*
X34090000Y88392143D01*
X34047142Y88349286D01*
X34004285Y88263572D01*
X34004285Y88049286D01*
X34047142Y87963572D01*
X34090000Y87920715D01*
X34175714Y87877858D01*
X34432857Y87877858D01*
X34518571Y87920715D01*
X34561428Y87963572D01*
X32332857Y88777858D02*
X31775714Y88777858D01*
X32075714Y88435000D01*
X31947142Y88435000D01*
X31861428Y88392143D01*
X31818571Y88349286D01*
X31775714Y88263572D01*
X31775714Y88049286D01*
X31818571Y87963572D01*
X31861428Y87920715D01*
X31947142Y87877858D01*
X32204285Y87877858D01*
X32290000Y87920715D01*
X32332857Y87963572D01*
X31390000Y87963572D02*
X31347142Y87920715D01*
X31390000Y87877858D01*
X31432857Y87920715D01*
X31390000Y87963572D01*
X31390000Y87877858D01*
X31047142Y88777858D02*
X30490000Y88777858D01*
X30790000Y88435000D01*
X30661428Y88435000D01*
X30575714Y88392143D01*
X30532857Y88349286D01*
X30490000Y88263572D01*
X30490000Y88049286D01*
X30532857Y87963572D01*
X30575714Y87920715D01*
X30661428Y87877858D01*
X30918571Y87877858D01*
X31004285Y87920715D01*
X31047142Y87963572D01*
X29547142Y88777858D02*
X29247142Y87877858D01*
X28947142Y88777858D01*
X34047142Y87328858D02*
X34475714Y87328858D01*
X34518571Y86900286D01*
X34475714Y86943143D01*
X34390000Y86986000D01*
X34175714Y86986000D01*
X34090000Y86943143D01*
X34047142Y86900286D01*
X34004285Y86814572D01*
X34004285Y86600286D01*
X34047142Y86514572D01*
X34090000Y86471715D01*
X34175714Y86428858D01*
X34390000Y86428858D01*
X34475714Y86471715D01*
X34518571Y86514572D01*
X31775714Y87286000D02*
X31861428Y87328858D01*
X31990000Y87328858D01*
X32118571Y87286000D01*
X32204285Y87200286D01*
X32247142Y87114572D01*
X32290000Y86943143D01*
X32290000Y86814572D01*
X32247142Y86643143D01*
X32204285Y86557429D01*
X32118571Y86471715D01*
X31990000Y86428858D01*
X31904285Y86428858D01*
X31775714Y86471715D01*
X31732857Y86514572D01*
X31732857Y86814572D01*
X31904285Y86814572D01*
X31347142Y86428858D02*
X31347142Y87328858D01*
X30832857Y86428858D01*
X30832857Y87328858D01*
X30404285Y86428858D02*
X30404285Y87328858D01*
X30190000Y87328858D01*
X30061428Y87286000D01*
X29975714Y87200286D01*
X29932857Y87114572D01*
X29890000Y86943143D01*
X29890000Y86814572D01*
X29932857Y86643143D01*
X29975714Y86557429D01*
X30061428Y86471715D01*
X30190000Y86428858D01*
X30404285Y86428858D01*
X34561428Y85879858D02*
X33961428Y85879858D01*
X34347142Y84979858D01*
X31732857Y84979858D02*
X32032857Y85408429D01*
X32247142Y84979858D02*
X32247142Y85879858D01*
X31904285Y85879858D01*
X31818571Y85837000D01*
X31775714Y85794143D01*
X31732857Y85708429D01*
X31732857Y85579858D01*
X31775714Y85494143D01*
X31818571Y85451286D01*
X31904285Y85408429D01*
X32247142Y85408429D01*
X31432857Y85879858D02*
X30832857Y84979858D01*
X30832857Y85879858D02*
X31432857Y84979858D01*
X34432857Y83530858D02*
X34261428Y83530858D01*
X34175714Y83573715D01*
X34132857Y83616572D01*
X34047142Y83745143D01*
X34004285Y83916572D01*
X34004285Y84259429D01*
X34047142Y84345143D01*
X34090000Y84388000D01*
X34175714Y84430858D01*
X34347142Y84430858D01*
X34432857Y84388000D01*
X34475714Y84345143D01*
X34518571Y84259429D01*
X34518571Y84045143D01*
X34475714Y83959429D01*
X34432857Y83916572D01*
X34347142Y83873715D01*
X34175714Y83873715D01*
X34090000Y83916572D01*
X34047142Y83959429D01*
X34004285Y84045143D01*
X31732857Y83530858D02*
X32032857Y83959429D01*
X32247142Y83530858D02*
X32247142Y84430858D01*
X31904285Y84430858D01*
X31818571Y84388000D01*
X31775714Y84345143D01*
X31732857Y84259429D01*
X31732857Y84130858D01*
X31775714Y84045143D01*
X31818571Y84002286D01*
X31904285Y83959429D01*
X32247142Y83959429D01*
X31347142Y84002286D02*
X31047142Y84002286D01*
X30918571Y83530858D02*
X31347142Y83530858D01*
X31347142Y84430858D01*
X30918571Y84430858D01*
X30061428Y84388000D02*
X30147142Y84430858D01*
X30275714Y84430858D01*
X30404285Y84388000D01*
X30490000Y84302286D01*
X30532857Y84216572D01*
X30575714Y84045143D01*
X30575714Y83916572D01*
X30532857Y83745143D01*
X30490000Y83659429D01*
X30404285Y83573715D01*
X30275714Y83530858D01*
X30190000Y83530858D01*
X30061428Y83573715D01*
X30018571Y83616572D01*
X30018571Y83916572D01*
X30190000Y83916572D01*
X29847142Y83445143D02*
X29161428Y83445143D01*
X28947142Y84002286D02*
X28647142Y84002286D01*
X28518571Y83530858D02*
X28947142Y83530858D01*
X28947142Y84430858D01*
X28518571Y84430858D01*
X28132857Y83530858D02*
X28132857Y84430858D01*
X27618571Y83530858D01*
X27618571Y84430858D01*
X27275714Y84430858D02*
X26718571Y84430858D01*
X27018571Y84088000D01*
X26890000Y84088000D01*
X26804285Y84045143D01*
X26761428Y84002286D01*
X26718571Y83916572D01*
X26718571Y83702286D01*
X26761428Y83616572D01*
X26804285Y83573715D01*
X26890000Y83530858D01*
X27147142Y83530858D01*
X27232857Y83573715D01*
X27275714Y83616572D01*
X34004285Y82081858D02*
X34518571Y82081858D01*
X34261428Y82081858D02*
X34261428Y82981858D01*
X34347142Y82853286D01*
X34432857Y82767572D01*
X34518571Y82724715D01*
X33147142Y82081858D02*
X33661428Y82081858D01*
X33404285Y82081858D02*
X33404285Y82981858D01*
X33490000Y82853286D01*
X33575714Y82767572D01*
X33661428Y82724715D01*
X32075714Y82081858D02*
X32075714Y82981858D01*
X31732857Y82981858D01*
X31647142Y82939000D01*
X31604285Y82896143D01*
X31561428Y82810429D01*
X31561428Y82681858D01*
X31604285Y82596143D01*
X31647142Y82553286D01*
X31732857Y82510429D01*
X32075714Y82510429D01*
X30661428Y82081858D02*
X30961428Y82510429D01*
X31175714Y82081858D02*
X31175714Y82981858D01*
X30832857Y82981858D01*
X30747142Y82939000D01*
X30704285Y82896143D01*
X30661428Y82810429D01*
X30661428Y82681858D01*
X30704285Y82596143D01*
X30747142Y82553286D01*
X30832857Y82510429D01*
X31175714Y82510429D01*
X30104285Y82981858D02*
X29932857Y82981858D01*
X29847142Y82939000D01*
X29761428Y82853286D01*
X29718571Y82681858D01*
X29718571Y82381858D01*
X29761428Y82210429D01*
X29847142Y82124715D01*
X29932857Y82081858D01*
X30104285Y82081858D01*
X30190000Y82124715D01*
X30275714Y82210429D01*
X30318571Y82381858D01*
X30318571Y82681858D01*
X30275714Y82853286D01*
X30190000Y82939000D01*
X30104285Y82981858D01*
X28861428Y82939000D02*
X28947142Y82981858D01*
X29075714Y82981858D01*
X29204285Y82939000D01*
X29290000Y82853286D01*
X29332857Y82767572D01*
X29375714Y82596143D01*
X29375714Y82467572D01*
X29332857Y82296143D01*
X29290000Y82210429D01*
X29204285Y82124715D01*
X29075714Y82081858D01*
X28990000Y82081858D01*
X28861428Y82124715D01*
X28818571Y82167572D01*
X28818571Y82467572D01*
X28990000Y82467572D01*
X28647142Y81996143D02*
X27961428Y81996143D01*
X27747142Y82081858D02*
X27747142Y82981858D01*
X27147142Y82981858D02*
X26975714Y82981858D01*
X26890000Y82939000D01*
X26804285Y82853286D01*
X26761428Y82681858D01*
X26761428Y82381858D01*
X26804285Y82210429D01*
X26890000Y82124715D01*
X26975714Y82081858D01*
X27147142Y82081858D01*
X27232857Y82124715D01*
X27318571Y82210429D01*
X27361428Y82381858D01*
X27361428Y82681858D01*
X27318571Y82853286D01*
X27232857Y82939000D01*
X27147142Y82981858D01*
X34004285Y80632858D02*
X34518571Y80632858D01*
X34261428Y80632858D02*
X34261428Y81532858D01*
X34347142Y81404286D01*
X34432857Y81318572D01*
X34518571Y81275715D01*
X33704285Y81532858D02*
X33147142Y81532858D01*
X33447142Y81190000D01*
X33318571Y81190000D01*
X33232857Y81147143D01*
X33190000Y81104286D01*
X33147142Y81018572D01*
X33147142Y80804286D01*
X33190000Y80718572D01*
X33232857Y80675715D01*
X33318571Y80632858D01*
X33575714Y80632858D01*
X33661428Y80675715D01*
X33704285Y80718572D01*
X31818571Y81532858D02*
X31818571Y80890000D01*
X31861428Y80761429D01*
X31947142Y80675715D01*
X32075714Y80632858D01*
X32161428Y80632858D01*
X31518571Y81532858D02*
X31004285Y81532858D01*
X31261428Y80632858D02*
X31261428Y81532858D01*
X30747142Y80890000D02*
X30318571Y80890000D01*
X30832857Y80632858D02*
X30532857Y81532858D01*
X30232857Y80632858D01*
X29461428Y81490000D02*
X29547142Y81532858D01*
X29675714Y81532858D01*
X29804285Y81490000D01*
X29890000Y81404286D01*
X29932857Y81318572D01*
X29975714Y81147143D01*
X29975714Y81018572D01*
X29932857Y80847143D01*
X29890000Y80761429D01*
X29804285Y80675715D01*
X29675714Y80632858D01*
X29590000Y80632858D01*
X29461428Y80675715D01*
X29418571Y80718572D01*
X29418571Y81018572D01*
X29590000Y81018572D01*
X29247142Y80547143D02*
X28561428Y80547143D01*
X28475714Y81532858D02*
X27961428Y81532858D01*
X28218571Y80632858D02*
X28218571Y81532858D01*
X27147142Y80718572D02*
X27190000Y80675715D01*
X27318571Y80632858D01*
X27404285Y80632858D01*
X27532857Y80675715D01*
X27618571Y80761429D01*
X27661428Y80847143D01*
X27704285Y81018572D01*
X27704285Y81147143D01*
X27661428Y81318572D01*
X27618571Y81404286D01*
X27532857Y81490000D01*
X27404285Y81532858D01*
X27318571Y81532858D01*
X27190000Y81490000D01*
X27147142Y81447143D01*
X26761428Y80632858D02*
X26761428Y81532858D01*
X26247142Y80632858D02*
X26632857Y81147143D01*
X26247142Y81532858D02*
X26761428Y81018572D01*
X34004285Y79183858D02*
X34518571Y79183858D01*
X34261428Y79183858D02*
X34261428Y80083858D01*
X34347142Y79955286D01*
X34432857Y79869572D01*
X34518571Y79826715D01*
X33190000Y80083858D02*
X33618571Y80083858D01*
X33661428Y79655286D01*
X33618571Y79698143D01*
X33532857Y79741000D01*
X33318571Y79741000D01*
X33232857Y79698143D01*
X33190000Y79655286D01*
X33147142Y79569572D01*
X33147142Y79355286D01*
X33190000Y79269572D01*
X33232857Y79226715D01*
X33318571Y79183858D01*
X33532857Y79183858D01*
X33618571Y79226715D01*
X33661428Y79269572D01*
X31818571Y80083858D02*
X31818571Y79441000D01*
X31861428Y79312429D01*
X31947142Y79226715D01*
X32075714Y79183858D01*
X32161428Y79183858D01*
X31518571Y80083858D02*
X31004285Y80083858D01*
X31261428Y79183858D02*
X31261428Y80083858D01*
X30747142Y79441000D02*
X30318571Y79441000D01*
X30832857Y79183858D02*
X30532857Y80083858D01*
X30232857Y79183858D01*
X29461428Y80041000D02*
X29547142Y80083858D01*
X29675714Y80083858D01*
X29804285Y80041000D01*
X29890000Y79955286D01*
X29932857Y79869572D01*
X29975714Y79698143D01*
X29975714Y79569572D01*
X29932857Y79398143D01*
X29890000Y79312429D01*
X29804285Y79226715D01*
X29675714Y79183858D01*
X29590000Y79183858D01*
X29461428Y79226715D01*
X29418571Y79269572D01*
X29418571Y79569572D01*
X29590000Y79569572D01*
X29247142Y79098143D02*
X28561428Y79098143D01*
X28475714Y80083858D02*
X27961428Y80083858D01*
X28218571Y79183858D02*
X28218571Y80083858D01*
X27661428Y79183858D02*
X27661428Y80083858D01*
X27361428Y79441000D01*
X27061428Y80083858D01*
X27061428Y79183858D01*
X26675714Y79226715D02*
X26547142Y79183858D01*
X26332857Y79183858D01*
X26247142Y79226715D01*
X26204285Y79269572D01*
X26161428Y79355286D01*
X26161428Y79441000D01*
X26204285Y79526715D01*
X26247142Y79569572D01*
X26332857Y79612429D01*
X26504285Y79655286D01*
X26590000Y79698143D01*
X26632857Y79741000D01*
X26675714Y79826715D01*
X26675714Y79912429D01*
X26632857Y79998143D01*
X26590000Y80041000D01*
X26504285Y80083858D01*
X26290000Y80083858D01*
X26161428Y80041000D01*
X34004285Y77734858D02*
X34518571Y77734858D01*
X34261428Y77734858D02*
X34261428Y78634858D01*
X34347142Y78506286D01*
X34432857Y78420572D01*
X34518571Y78377715D01*
X33704285Y78634858D02*
X33104285Y78634858D01*
X33490000Y77734858D01*
X32118571Y77777715D02*
X31990000Y77734858D01*
X31775714Y77734858D01*
X31690000Y77777715D01*
X31647142Y77820572D01*
X31604285Y77906286D01*
X31604285Y77992000D01*
X31647142Y78077715D01*
X31690000Y78120572D01*
X31775714Y78163429D01*
X31947142Y78206286D01*
X32032857Y78249143D01*
X32075714Y78292000D01*
X32118571Y78377715D01*
X32118571Y78463429D01*
X32075714Y78549143D01*
X32032857Y78592000D01*
X31947142Y78634858D01*
X31732857Y78634858D01*
X31604285Y78592000D01*
X31218571Y77734858D02*
X31218571Y78634858D01*
X30875714Y78634858D01*
X30790000Y78592000D01*
X30747142Y78549143D01*
X30704285Y78463429D01*
X30704285Y78334858D01*
X30747142Y78249143D01*
X30790000Y78206286D01*
X30875714Y78163429D01*
X31218571Y78163429D01*
X30318571Y77734858D02*
X30318571Y78634858D01*
X30104285Y78634858D01*
X29975714Y78592000D01*
X29890000Y78506286D01*
X29847142Y78420572D01*
X29804285Y78249143D01*
X29804285Y78120572D01*
X29847142Y77949143D01*
X29890000Y77863429D01*
X29975714Y77777715D01*
X30104285Y77734858D01*
X30318571Y77734858D01*
X29418571Y77734858D02*
X29418571Y78634858D01*
X28690000Y78206286D02*
X28990000Y78206286D01*
X28990000Y77734858D02*
X28990000Y78634858D01*
X28561428Y78634858D01*
X34004285Y76285858D02*
X34518571Y76285858D01*
X34261428Y76285858D02*
X34261428Y77185858D01*
X34347142Y77057286D01*
X34432857Y76971572D01*
X34518571Y76928715D01*
X33575714Y76285858D02*
X33404285Y76285858D01*
X33318571Y76328715D01*
X33275714Y76371572D01*
X33190000Y76500143D01*
X33147142Y76671572D01*
X33147142Y77014429D01*
X33190000Y77100143D01*
X33232857Y77143000D01*
X33318571Y77185858D01*
X33490000Y77185858D01*
X33575714Y77143000D01*
X33618571Y77100143D01*
X33661428Y77014429D01*
X33661428Y76800143D01*
X33618571Y76714429D01*
X33575714Y76671572D01*
X33490000Y76628715D01*
X33318571Y76628715D01*
X33232857Y76671572D01*
X33190000Y76714429D01*
X33147142Y76800143D01*
X31818571Y77185858D02*
X31818571Y76543000D01*
X31861428Y76414429D01*
X31947142Y76328715D01*
X32075714Y76285858D01*
X32161428Y76285858D01*
X31518571Y77185858D02*
X31004285Y77185858D01*
X31261428Y76285858D02*
X31261428Y77185858D01*
X30747142Y76543000D02*
X30318571Y76543000D01*
X30832857Y76285858D02*
X30532857Y77185858D01*
X30232857Y76285858D01*
X29461428Y77143000D02*
X29547142Y77185858D01*
X29675714Y77185858D01*
X29804285Y77143000D01*
X29890000Y77057286D01*
X29932857Y76971572D01*
X29975714Y76800143D01*
X29975714Y76671572D01*
X29932857Y76500143D01*
X29890000Y76414429D01*
X29804285Y76328715D01*
X29675714Y76285858D01*
X29590000Y76285858D01*
X29461428Y76328715D01*
X29418571Y76371572D01*
X29418571Y76671572D01*
X29590000Y76671572D01*
X29247142Y76200143D02*
X28561428Y76200143D01*
X28047142Y76757286D02*
X27918571Y76714429D01*
X27875714Y76671572D01*
X27832857Y76585858D01*
X27832857Y76457286D01*
X27875714Y76371572D01*
X27918571Y76328715D01*
X28004285Y76285858D01*
X28347142Y76285858D01*
X28347142Y77185858D01*
X28047142Y77185858D01*
X27961428Y77143000D01*
X27918571Y77100143D01*
X27875714Y77014429D01*
X27875714Y76928715D01*
X27918571Y76843000D01*
X27961428Y76800143D01*
X28047142Y76757286D01*
X28347142Y76757286D01*
X27275714Y77185858D02*
X27104285Y77185858D01*
X27018571Y77143000D01*
X26932857Y77057286D01*
X26890000Y76885858D01*
X26890000Y76585858D01*
X26932857Y76414429D01*
X27018571Y76328715D01*
X27104285Y76285858D01*
X27275714Y76285858D01*
X27361428Y76328715D01*
X27447142Y76414429D01*
X27490000Y76585858D01*
X27490000Y76885858D01*
X27447142Y77057286D01*
X27361428Y77143000D01*
X27275714Y77185858D01*
X26332857Y77185858D02*
X26161428Y77185858D01*
X26075714Y77143000D01*
X25990000Y77057286D01*
X25947142Y76885858D01*
X25947142Y76585858D01*
X25990000Y76414429D01*
X26075714Y76328715D01*
X26161428Y76285858D01*
X26332857Y76285858D01*
X26418571Y76328715D01*
X26504285Y76414429D01*
X26547142Y76585858D01*
X26547142Y76885858D01*
X26504285Y77057286D01*
X26418571Y77143000D01*
X26332857Y77185858D01*
X25690000Y77185858D02*
X25175714Y77185858D01*
X25432857Y76285858D02*
X25432857Y77185858D01*
X25090000Y76200143D02*
X24404285Y76200143D01*
X24190000Y76757286D02*
X23890000Y76757286D01*
X23761428Y76285858D02*
X24190000Y76285858D01*
X24190000Y77185858D01*
X23761428Y77185858D01*
X23375714Y76285858D02*
X23375714Y77185858D01*
X22861428Y76285858D01*
X22861428Y77185858D01*
X34518571Y75651143D02*
X34475714Y75694000D01*
X34390000Y75736858D01*
X34175714Y75736858D01*
X34090000Y75694000D01*
X34047142Y75651143D01*
X34004285Y75565429D01*
X34004285Y75479715D01*
X34047142Y75351143D01*
X34561428Y74836858D01*
X34004285Y74836858D01*
X33147142Y74836858D02*
X33661428Y74836858D01*
X33404285Y74836858D02*
X33404285Y75736858D01*
X33490000Y75608286D01*
X33575714Y75522572D01*
X33661428Y75479715D01*
X32204285Y75736858D02*
X31904285Y74836858D01*
X31604285Y75736858D01*
X31347142Y75094000D02*
X30918571Y75094000D01*
X31432857Y74836858D02*
X31132857Y75736858D01*
X30832857Y74836858D01*
X30532857Y74836858D02*
X30532857Y75736858D01*
X30318571Y75736858D01*
X30190000Y75694000D01*
X30104285Y75608286D01*
X30061428Y75522572D01*
X30018571Y75351143D01*
X30018571Y75222572D01*
X30061428Y75051143D01*
X30104285Y74965429D01*
X30190000Y74879715D01*
X30318571Y74836858D01*
X30532857Y74836858D01*
X29118571Y74922572D02*
X29161428Y74879715D01*
X29290000Y74836858D01*
X29375714Y74836858D01*
X29504285Y74879715D01*
X29590000Y74965429D01*
X29632857Y75051143D01*
X29675714Y75222572D01*
X29675714Y75351143D01*
X29632857Y75522572D01*
X29590000Y75608286D01*
X29504285Y75694000D01*
X29375714Y75736858D01*
X29290000Y75736858D01*
X29161428Y75694000D01*
X29118571Y75651143D01*
X28947142Y74751143D02*
X28261428Y74751143D01*
X28047142Y74836858D02*
X28047142Y75736858D01*
X27532857Y74836858D01*
X27532857Y75736858D01*
X34518571Y74202143D02*
X34475714Y74245000D01*
X34390000Y74287858D01*
X34175714Y74287858D01*
X34090000Y74245000D01*
X34047142Y74202143D01*
X34004285Y74116429D01*
X34004285Y74030715D01*
X34047142Y73902143D01*
X34561428Y73387858D01*
X34004285Y73387858D01*
X33704285Y74287858D02*
X33147142Y74287858D01*
X33447142Y73945000D01*
X33318571Y73945000D01*
X33232857Y73902143D01*
X33190000Y73859286D01*
X33147142Y73773572D01*
X33147142Y73559286D01*
X33190000Y73473572D01*
X33232857Y73430715D01*
X33318571Y73387858D01*
X33575714Y73387858D01*
X33661428Y73430715D01*
X33704285Y73473572D01*
X32204285Y74287858D02*
X31690000Y74287858D01*
X31947142Y73387858D02*
X31947142Y74287858D01*
X31390000Y74287858D02*
X31390000Y73559286D01*
X31347142Y73473572D01*
X31304285Y73430715D01*
X31218571Y73387858D01*
X31047142Y73387858D01*
X30961428Y73430715D01*
X30918571Y73473572D01*
X30875714Y73559286D01*
X30875714Y74287858D01*
X29932857Y73387858D02*
X30232857Y73816429D01*
X30447142Y73387858D02*
X30447142Y74287858D01*
X30104285Y74287858D01*
X30018571Y74245000D01*
X29975714Y74202143D01*
X29932857Y74116429D01*
X29932857Y73987858D01*
X29975714Y73902143D01*
X30018571Y73859286D01*
X30104285Y73816429D01*
X30447142Y73816429D01*
X29247142Y73859286D02*
X29118571Y73816429D01*
X29075714Y73773572D01*
X29032857Y73687858D01*
X29032857Y73559286D01*
X29075714Y73473572D01*
X29118571Y73430715D01*
X29204285Y73387858D01*
X29547142Y73387858D01*
X29547142Y74287858D01*
X29247142Y74287858D01*
X29161428Y74245000D01*
X29118571Y74202143D01*
X29075714Y74116429D01*
X29075714Y74030715D01*
X29118571Y73945000D01*
X29161428Y73902143D01*
X29247142Y73859286D01*
X29547142Y73859286D01*
X28475714Y74287858D02*
X28304285Y74287858D01*
X28218571Y74245000D01*
X28132857Y74159286D01*
X28090000Y73987858D01*
X28090000Y73687858D01*
X28132857Y73516429D01*
X28218571Y73430715D01*
X28304285Y73387858D01*
X28475714Y73387858D01*
X28561428Y73430715D01*
X28647142Y73516429D01*
X28690000Y73687858D01*
X28690000Y73987858D01*
X28647142Y74159286D01*
X28561428Y74245000D01*
X28475714Y74287858D01*
X27918571Y73302143D02*
X27232857Y73302143D01*
X27018571Y73387858D02*
X27018571Y74287858D01*
X26718571Y73645000D01*
X26418571Y74287858D01*
X26418571Y73387858D01*
X25818571Y74287858D02*
X25647142Y74287858D01*
X25561428Y74245000D01*
X25475714Y74159286D01*
X25432857Y73987858D01*
X25432857Y73687858D01*
X25475714Y73516429D01*
X25561428Y73430715D01*
X25647142Y73387858D01*
X25818571Y73387858D01*
X25904285Y73430715D01*
X25990000Y73516429D01*
X26032857Y73687858D01*
X26032857Y73987858D01*
X25990000Y74159286D01*
X25904285Y74245000D01*
X25818571Y74287858D01*
X25047142Y73387858D02*
X25047142Y74287858D01*
X24832857Y74287858D01*
X24704285Y74245000D01*
X24618571Y74159286D01*
X24575714Y74073572D01*
X24532857Y73902143D01*
X24532857Y73773572D01*
X24575714Y73602143D01*
X24618571Y73516429D01*
X24704285Y73430715D01*
X24832857Y73387858D01*
X25047142Y73387858D01*
X24147142Y73859286D02*
X23847142Y73859286D01*
X23718571Y73387858D02*
X24147142Y73387858D01*
X24147142Y74287858D01*
X23718571Y74287858D01*
X34518571Y72753143D02*
X34475714Y72796000D01*
X34390000Y72838858D01*
X34175714Y72838858D01*
X34090000Y72796000D01*
X34047142Y72753143D01*
X34004285Y72667429D01*
X34004285Y72581715D01*
X34047142Y72453143D01*
X34561428Y71938858D01*
X34004285Y71938858D01*
X33190000Y72838858D02*
X33618571Y72838858D01*
X33661428Y72410286D01*
X33618571Y72453143D01*
X33532857Y72496000D01*
X33318571Y72496000D01*
X33232857Y72453143D01*
X33190000Y72410286D01*
X33147142Y72324572D01*
X33147142Y72110286D01*
X33190000Y72024572D01*
X33232857Y71981715D01*
X33318571Y71938858D01*
X33532857Y71938858D01*
X33618571Y71981715D01*
X33661428Y72024572D01*
X32075714Y71938858D02*
X32075714Y72838858D01*
X31861428Y72838858D01*
X31732857Y72796000D01*
X31647142Y72710286D01*
X31604285Y72624572D01*
X31561428Y72453143D01*
X31561428Y72324572D01*
X31604285Y72153143D01*
X31647142Y72067429D01*
X31732857Y71981715D01*
X31861428Y71938858D01*
X32075714Y71938858D01*
X31218571Y71981715D02*
X31090000Y71938858D01*
X30875714Y71938858D01*
X30790000Y71981715D01*
X30747142Y72024572D01*
X30704285Y72110286D01*
X30704285Y72196000D01*
X30747142Y72281715D01*
X30790000Y72324572D01*
X30875714Y72367429D01*
X31047142Y72410286D01*
X31132857Y72453143D01*
X31175714Y72496000D01*
X31218571Y72581715D01*
X31218571Y72667429D01*
X31175714Y72753143D01*
X31132857Y72796000D01*
X31047142Y72838858D01*
X30832857Y72838858D01*
X30704285Y72796000D01*
X30318571Y71938858D02*
X30318571Y72838858D01*
X29975714Y72838858D01*
X29890000Y72796000D01*
X29847142Y72753143D01*
X29804285Y72667429D01*
X29804285Y72538858D01*
X29847142Y72453143D01*
X29890000Y72410286D01*
X29975714Y72367429D01*
X30318571Y72367429D01*
X29632857Y71853143D02*
X28947142Y71853143D01*
X28432857Y72410286D02*
X28732857Y72410286D01*
X28732857Y71938858D02*
X28732857Y72838858D01*
X28304285Y72838858D01*
X27532857Y71938858D02*
X27961428Y71938858D01*
X27961428Y72838858D01*
X27275714Y72196000D02*
X26847142Y72196000D01*
X27361428Y71938858D02*
X27061428Y72838858D01*
X26761428Y71938858D01*
X25990000Y72796000D02*
X26075714Y72838858D01*
X26204285Y72838858D01*
X26332857Y72796000D01*
X26418571Y72710286D01*
X26461428Y72624572D01*
X26504285Y72453143D01*
X26504285Y72324572D01*
X26461428Y72153143D01*
X26418571Y72067429D01*
X26332857Y71981715D01*
X26204285Y71938858D01*
X26118571Y71938858D01*
X25990000Y71981715D01*
X25947142Y72024572D01*
X25947142Y72324572D01*
X26118571Y72324572D01*
D10*
X16781904Y8992381D02*
X16734285Y9040000D01*
X16639047Y9087620D01*
X16400952Y9087620D01*
X16305714Y9040000D01*
X16258095Y8992381D01*
X16210476Y8897143D01*
X16210476Y8801905D01*
X16258095Y8659048D01*
X16829523Y8087620D01*
X16210476Y8087620D01*
X15305714Y9087620D02*
X15781904Y9087620D01*
X15829523Y8611429D01*
X15781904Y8659048D01*
X15686666Y8706667D01*
X15448571Y8706667D01*
X15353333Y8659048D01*
X15305714Y8611429D01*
X15258095Y8516191D01*
X15258095Y8278096D01*
X15305714Y8182858D01*
X15353333Y8135239D01*
X15448571Y8087620D01*
X15686666Y8087620D01*
X15781904Y8135239D01*
X15829523Y8182858D01*
X26310476Y987620D02*
X26881904Y987620D01*
X26596190Y987620D02*
X26596190Y1987620D01*
X26691428Y1844762D01*
X26786666Y1749524D01*
X26881904Y1701905D01*
X25739047Y1559048D02*
X25834285Y1606667D01*
X25881904Y1654286D01*
X25929523Y1749524D01*
X25929523Y1797143D01*
X25881904Y1892381D01*
X25834285Y1940000D01*
X25739047Y1987620D01*
X25548571Y1987620D01*
X25453333Y1940000D01*
X25405714Y1892381D01*
X25358095Y1797143D01*
X25358095Y1749524D01*
X25405714Y1654286D01*
X25453333Y1606667D01*
X25548571Y1559048D01*
X25739047Y1559048D01*
X25834285Y1511429D01*
X25881904Y1463810D01*
X25929523Y1368572D01*
X25929523Y1178096D01*
X25881904Y1082858D01*
X25834285Y1035239D01*
X25739047Y987620D01*
X25548571Y987620D01*
X25453333Y1035239D01*
X25405714Y1082858D01*
X25358095Y1178096D01*
X25358095Y1368572D01*
X25405714Y1463810D01*
X25453333Y1511429D01*
X25548571Y1559048D01*
D14*
X82022380Y2040000D02*
X82117619Y2087620D01*
X82260476Y2087620D01*
X82403333Y2040000D01*
X82498571Y1944762D01*
X82546190Y1849524D01*
X82593809Y1659048D01*
X82593809Y1516191D01*
X82546190Y1325715D01*
X82498571Y1230477D01*
X82403333Y1135239D01*
X82260476Y1087620D01*
X82165238Y1087620D01*
X82022380Y1135239D01*
X81974761Y1182858D01*
X81974761Y1516191D01*
X82165238Y1516191D01*
X81546190Y1087620D02*
X81546190Y2087620D01*
X80974761Y1087620D01*
X80974761Y2087620D01*
X80498571Y1087620D02*
X80498571Y2087620D01*
X80260476Y2087620D01*
X80117619Y2040000D01*
X80022380Y1944762D01*
X79974761Y1849524D01*
X79927142Y1659048D01*
X79927142Y1516191D01*
X79974761Y1325715D01*
X80022380Y1230477D01*
X80117619Y1135239D01*
X80260476Y1087620D01*
X80498571Y1087620D01*
X78260476Y2087620D02*
X78736666Y2087620D01*
X78784285Y1611429D01*
X78736666Y1659048D01*
X78641428Y1706667D01*
X78403333Y1706667D01*
X78308095Y1659048D01*
X78260476Y1611429D01*
X78212857Y1516191D01*
X78212857Y1278096D01*
X78260476Y1182858D01*
X78308095Y1135239D01*
X78403333Y1087620D01*
X78641428Y1087620D01*
X78736666Y1135239D01*
X78784285Y1182858D01*
X77927142Y2087620D02*
X77593809Y1087620D01*
X77260476Y2087620D01*
X75641428Y2040000D02*
X75736666Y2087620D01*
X75879523Y2087620D01*
X76022380Y2040000D01*
X76117619Y1944762D01*
X76165238Y1849524D01*
X76212857Y1659048D01*
X76212857Y1516191D01*
X76165238Y1325715D01*
X76117619Y1230477D01*
X76022380Y1135239D01*
X75879523Y1087620D01*
X75784285Y1087620D01*
X75641428Y1135239D01*
X75593809Y1182858D01*
X75593809Y1516191D01*
X75784285Y1516191D01*
X75165238Y1087620D02*
X75165238Y2087620D01*
X74593809Y1087620D01*
X74593809Y2087620D01*
X74117619Y1087620D02*
X74117619Y2087620D01*
X73879523Y2087620D01*
X73736666Y2040000D01*
X73641428Y1944762D01*
X73593809Y1849524D01*
X73546190Y1659048D01*
X73546190Y1516191D01*
X73593809Y1325715D01*
X73641428Y1230477D01*
X73736666Y1135239D01*
X73879523Y1087620D01*
X74117619Y1087620D01*
D10*
X21881904Y8992381D02*
X21834285Y9040000D01*
X21739047Y9087620D01*
X21500952Y9087620D01*
X21405714Y9040000D01*
X21358095Y8992381D01*
X21310476Y8897143D01*
X21310476Y8801905D01*
X21358095Y8659048D01*
X21929523Y8087620D01*
X21310476Y8087620D01*
X20358095Y8087620D02*
X20929523Y8087620D01*
X20643809Y8087620D02*
X20643809Y9087620D01*
X20739047Y8944762D01*
X20834285Y8849524D01*
X20929523Y8801905D01*
D13*
X43057142Y89369715D02*
X42928571Y89326858D01*
X42714285Y89326858D01*
X42628571Y89369715D01*
X42585714Y89412572D01*
X42542857Y89498286D01*
X42542857Y89584000D01*
X42585714Y89669715D01*
X42628571Y89712572D01*
X42714285Y89755429D01*
X42885714Y89798286D01*
X42971428Y89841143D01*
X43014285Y89884000D01*
X43057142Y89969715D01*
X43057142Y90055429D01*
X43014285Y90141143D01*
X42971428Y90184000D01*
X42885714Y90226858D01*
X42671428Y90226858D01*
X42542857Y90184000D01*
X41985714Y89755429D02*
X41985714Y89326858D01*
X42285714Y90226858D02*
X41985714Y89755429D01*
X41685714Y90226858D01*
X41428571Y89369715D02*
X41300000Y89326858D01*
X41085714Y89326858D01*
X41000000Y89369715D01*
X40957142Y89412572D01*
X40914285Y89498286D01*
X40914285Y89584000D01*
X40957142Y89669715D01*
X41000000Y89712572D01*
X41085714Y89755429D01*
X41257142Y89798286D01*
X41342857Y89841143D01*
X41385714Y89884000D01*
X41428571Y89969715D01*
X41428571Y90055429D01*
X41385714Y90141143D01*
X41342857Y90184000D01*
X41257142Y90226858D01*
X41042857Y90226858D01*
X40914285Y90184000D01*
X39414285Y90226858D02*
X39842857Y90226858D01*
X39885714Y89798286D01*
X39842857Y89841143D01*
X39757142Y89884000D01*
X39542857Y89884000D01*
X39457142Y89841143D01*
X39414285Y89798286D01*
X39371428Y89712572D01*
X39371428Y89498286D01*
X39414285Y89412572D01*
X39457142Y89369715D01*
X39542857Y89326858D01*
X39757142Y89326858D01*
X39842857Y89369715D01*
X39885714Y89412572D01*
X39114285Y90226858D02*
X38814285Y89326858D01*
X38514285Y90226858D01*
X36885714Y90141143D02*
X36842857Y90184000D01*
X36757142Y90226858D01*
X36542857Y90226858D01*
X36457142Y90184000D01*
X36414285Y90141143D01*
X36371428Y90055429D01*
X36371428Y89969715D01*
X36414285Y89841143D01*
X36928571Y89326858D01*
X36371428Y89326858D01*
X41214285Y88777858D02*
X40657142Y88777858D01*
X40957142Y88435000D01*
X40828571Y88435000D01*
X40742857Y88392143D01*
X40700000Y88349286D01*
X40657142Y88263572D01*
X40657142Y88049286D01*
X40700000Y87963572D01*
X40742857Y87920715D01*
X40828571Y87877858D01*
X41085714Y87877858D01*
X41171428Y87920715D01*
X41214285Y87963572D01*
X40271428Y87963572D02*
X40228571Y87920715D01*
X40271428Y87877858D01*
X40314285Y87920715D01*
X40271428Y87963572D01*
X40271428Y87877858D01*
X39928571Y88777858D02*
X39371428Y88777858D01*
X39671428Y88435000D01*
X39542857Y88435000D01*
X39457142Y88392143D01*
X39414285Y88349286D01*
X39371428Y88263572D01*
X39371428Y88049286D01*
X39414285Y87963572D01*
X39457142Y87920715D01*
X39542857Y87877858D01*
X39800000Y87877858D01*
X39885714Y87920715D01*
X39928571Y87963572D01*
X39114285Y88777858D02*
X38814285Y87877858D01*
X38514285Y88777858D01*
X36457142Y88477858D02*
X36457142Y87877858D01*
X36671428Y88820715D02*
X36885714Y88177858D01*
X36328571Y88177858D01*
X40485714Y87286000D02*
X40571428Y87328858D01*
X40700000Y87328858D01*
X40828571Y87286000D01*
X40914285Y87200286D01*
X40957142Y87114572D01*
X41000000Y86943143D01*
X41000000Y86814572D01*
X40957142Y86643143D01*
X40914285Y86557429D01*
X40828571Y86471715D01*
X40700000Y86428858D01*
X40614285Y86428858D01*
X40485714Y86471715D01*
X40442857Y86514572D01*
X40442857Y86814572D01*
X40614285Y86814572D01*
X40057142Y86428858D02*
X40057142Y87328858D01*
X39542857Y86428858D01*
X39542857Y87328858D01*
X39114285Y86428858D02*
X39114285Y87328858D01*
X38900000Y87328858D01*
X38771428Y87286000D01*
X38685714Y87200286D01*
X38642857Y87114572D01*
X38600000Y86943143D01*
X38600000Y86814572D01*
X38642857Y86643143D01*
X38685714Y86557429D01*
X38771428Y86471715D01*
X38900000Y86428858D01*
X39114285Y86428858D01*
X36457142Y87328858D02*
X36628571Y87328858D01*
X36714285Y87286000D01*
X36757142Y87243143D01*
X36842857Y87114572D01*
X36885714Y86943143D01*
X36885714Y86600286D01*
X36842857Y86514572D01*
X36800000Y86471715D01*
X36714285Y86428858D01*
X36542857Y86428858D01*
X36457142Y86471715D01*
X36414285Y86514572D01*
X36371428Y86600286D01*
X36371428Y86814572D01*
X36414285Y86900286D01*
X36457142Y86943143D01*
X36542857Y86986000D01*
X36714285Y86986000D01*
X36800000Y86943143D01*
X36842857Y86900286D01*
X36885714Y86814572D01*
X39885714Y85879858D02*
X39371428Y85879858D01*
X39628571Y84979858D02*
X39628571Y85879858D01*
X39157142Y85879858D02*
X38557142Y84979858D01*
X38557142Y85879858D02*
X39157142Y84979858D01*
X36714285Y85494143D02*
X36800000Y85537000D01*
X36842857Y85579858D01*
X36885714Y85665572D01*
X36885714Y85708429D01*
X36842857Y85794143D01*
X36800000Y85837000D01*
X36714285Y85879858D01*
X36542857Y85879858D01*
X36457142Y85837000D01*
X36414285Y85794143D01*
X36371428Y85708429D01*
X36371428Y85665572D01*
X36414285Y85579858D01*
X36457142Y85537000D01*
X36542857Y85494143D01*
X36714285Y85494143D01*
X36800000Y85451286D01*
X36842857Y85408429D01*
X36885714Y85322715D01*
X36885714Y85151286D01*
X36842857Y85065572D01*
X36800000Y85022715D01*
X36714285Y84979858D01*
X36542857Y84979858D01*
X36457142Y85022715D01*
X36414285Y85065572D01*
X36371428Y85151286D01*
X36371428Y85322715D01*
X36414285Y85408429D01*
X36457142Y85451286D01*
X36542857Y85494143D01*
X43785714Y83530858D02*
X44085714Y83959429D01*
X44300000Y83530858D02*
X44300000Y84430858D01*
X43957142Y84430858D01*
X43871428Y84388000D01*
X43828571Y84345143D01*
X43785714Y84259429D01*
X43785714Y84130858D01*
X43828571Y84045143D01*
X43871428Y84002286D01*
X43957142Y83959429D01*
X44300000Y83959429D01*
X43400000Y84002286D02*
X43100000Y84002286D01*
X42971428Y83530858D02*
X43400000Y83530858D01*
X43400000Y84430858D01*
X42971428Y84430858D01*
X42114285Y84388000D02*
X42200000Y84430858D01*
X42328571Y84430858D01*
X42457142Y84388000D01*
X42542857Y84302286D01*
X42585714Y84216572D01*
X42628571Y84045143D01*
X42628571Y83916572D01*
X42585714Y83745143D01*
X42542857Y83659429D01*
X42457142Y83573715D01*
X42328571Y83530858D01*
X42242857Y83530858D01*
X42114285Y83573715D01*
X42071428Y83616572D01*
X42071428Y83916572D01*
X42242857Y83916572D01*
X41900000Y83445143D02*
X41214285Y83445143D01*
X41000000Y84002286D02*
X40700000Y84002286D01*
X40571428Y83530858D02*
X41000000Y83530858D01*
X41000000Y84430858D01*
X40571428Y84430858D01*
X40185714Y83530858D02*
X40185714Y84430858D01*
X39671428Y83530858D01*
X39671428Y84430858D01*
X38857142Y84130858D02*
X38857142Y83530858D01*
X39071428Y84473715D02*
X39285714Y83830858D01*
X38728571Y83830858D01*
X37228571Y83530858D02*
X37742857Y83530858D01*
X37485714Y83530858D02*
X37485714Y84430858D01*
X37571428Y84302286D01*
X37657142Y84216572D01*
X37742857Y84173715D01*
X36671428Y84430858D02*
X36585714Y84430858D01*
X36500000Y84388000D01*
X36457142Y84345143D01*
X36414285Y84259429D01*
X36371428Y84088000D01*
X36371428Y83873715D01*
X36414285Y83702286D01*
X36457142Y83616572D01*
X36500000Y83573715D01*
X36585714Y83530858D01*
X36671428Y83530858D01*
X36757142Y83573715D01*
X36800000Y83616572D01*
X36842857Y83702286D01*
X36885714Y83873715D01*
X36885714Y84088000D01*
X36842857Y84259429D01*
X36800000Y84345143D01*
X36757142Y84388000D01*
X36671428Y84430858D01*
X41342857Y82896143D02*
X41300000Y82939000D01*
X41214285Y82981858D01*
X41000000Y82981858D01*
X40914285Y82939000D01*
X40871428Y82896143D01*
X40828571Y82810429D01*
X40828571Y82724715D01*
X40871428Y82596143D01*
X41385714Y82081858D01*
X40828571Y82081858D01*
X40442857Y82167572D02*
X40400000Y82124715D01*
X40442857Y82081858D01*
X40485714Y82124715D01*
X40442857Y82167572D01*
X40442857Y82081858D01*
X39585714Y82981858D02*
X40014285Y82981858D01*
X40057142Y82553286D01*
X40014285Y82596143D01*
X39928571Y82639000D01*
X39714285Y82639000D01*
X39628571Y82596143D01*
X39585714Y82553286D01*
X39542857Y82467572D01*
X39542857Y82253286D01*
X39585714Y82167572D01*
X39628571Y82124715D01*
X39714285Y82081858D01*
X39928571Y82081858D01*
X40014285Y82124715D01*
X40057142Y82167572D01*
X39285714Y82981858D02*
X38985714Y82081858D01*
X38685714Y82981858D01*
X37228571Y82081858D02*
X37742857Y82081858D01*
X37485714Y82081858D02*
X37485714Y82981858D01*
X37571428Y82853286D01*
X37657142Y82767572D01*
X37742857Y82724715D01*
X36885714Y82896143D02*
X36842857Y82939000D01*
X36757142Y82981858D01*
X36542857Y82981858D01*
X36457142Y82939000D01*
X36414285Y82896143D01*
X36371428Y82810429D01*
X36371428Y82724715D01*
X36414285Y82596143D01*
X36928571Y82081858D01*
X36371428Y82081858D01*
X43871428Y81532858D02*
X43871428Y80890000D01*
X43914285Y80761429D01*
X44000000Y80675715D01*
X44128571Y80632858D01*
X44214285Y80632858D01*
X43571428Y81532858D02*
X43057142Y81532858D01*
X43314285Y80632858D02*
X43314285Y81532858D01*
X42800000Y80890000D02*
X42371428Y80890000D01*
X42885714Y80632858D02*
X42585714Y81532858D01*
X42285714Y80632858D01*
X41514285Y81490000D02*
X41600000Y81532858D01*
X41728571Y81532858D01*
X41857142Y81490000D01*
X41942857Y81404286D01*
X41985714Y81318572D01*
X42028571Y81147143D01*
X42028571Y81018572D01*
X41985714Y80847143D01*
X41942857Y80761429D01*
X41857142Y80675715D01*
X41728571Y80632858D01*
X41642857Y80632858D01*
X41514285Y80675715D01*
X41471428Y80718572D01*
X41471428Y81018572D01*
X41642857Y81018572D01*
X41300000Y80547143D02*
X40614285Y80547143D01*
X40528571Y81532858D02*
X40014285Y81532858D01*
X40271428Y80632858D02*
X40271428Y81532858D01*
X39714285Y80632858D02*
X39714285Y81532858D01*
X39500000Y81532858D01*
X39371428Y81490000D01*
X39285714Y81404286D01*
X39242857Y81318572D01*
X39200000Y81147143D01*
X39200000Y81018572D01*
X39242857Y80847143D01*
X39285714Y80761429D01*
X39371428Y80675715D01*
X39500000Y80632858D01*
X39714285Y80632858D01*
X38814285Y80632858D02*
X38814285Y81532858D01*
X37228571Y80632858D02*
X37742857Y80632858D01*
X37485714Y80632858D02*
X37485714Y81532858D01*
X37571428Y81404286D01*
X37657142Y81318572D01*
X37742857Y81275715D01*
X36457142Y81232858D02*
X36457142Y80632858D01*
X36671428Y81575715D02*
X36885714Y80932858D01*
X36328571Y80932858D01*
X44385714Y80083858D02*
X44385714Y79441000D01*
X44428571Y79312429D01*
X44514285Y79226715D01*
X44642857Y79183858D01*
X44728571Y79183858D01*
X44085714Y80083858D02*
X43571428Y80083858D01*
X43828571Y79183858D02*
X43828571Y80083858D01*
X43314285Y79441000D02*
X42885714Y79441000D01*
X43400000Y79183858D02*
X43100000Y80083858D01*
X42800000Y79183858D01*
X42028571Y80041000D02*
X42114285Y80083858D01*
X42242857Y80083858D01*
X42371428Y80041000D01*
X42457142Y79955286D01*
X42500000Y79869572D01*
X42542857Y79698143D01*
X42542857Y79569572D01*
X42500000Y79398143D01*
X42457142Y79312429D01*
X42371428Y79226715D01*
X42242857Y79183858D01*
X42157142Y79183858D01*
X42028571Y79226715D01*
X41985714Y79269572D01*
X41985714Y79569572D01*
X42157142Y79569572D01*
X41814285Y79098143D02*
X41128571Y79098143D01*
X41042857Y80083858D02*
X40528571Y80083858D01*
X40785714Y79183858D02*
X40785714Y80083858D01*
X40228571Y79183858D02*
X40228571Y80083858D01*
X40014285Y80083858D01*
X39885714Y80041000D01*
X39800000Y79955286D01*
X39757142Y79869572D01*
X39714285Y79698143D01*
X39714285Y79569572D01*
X39757142Y79398143D01*
X39800000Y79312429D01*
X39885714Y79226715D01*
X40014285Y79183858D01*
X40228571Y79183858D01*
X39157142Y80083858D02*
X38985714Y80083858D01*
X38900000Y80041000D01*
X38814285Y79955286D01*
X38771428Y79783858D01*
X38771428Y79483858D01*
X38814285Y79312429D01*
X38900000Y79226715D01*
X38985714Y79183858D01*
X39157142Y79183858D01*
X39242857Y79226715D01*
X39328571Y79312429D01*
X39371428Y79483858D01*
X39371428Y79783858D01*
X39328571Y79955286D01*
X39242857Y80041000D01*
X39157142Y80083858D01*
X37228571Y79183858D02*
X37742857Y79183858D01*
X37485714Y79183858D02*
X37485714Y80083858D01*
X37571428Y79955286D01*
X37657142Y79869572D01*
X37742857Y79826715D01*
X36457142Y80083858D02*
X36628571Y80083858D01*
X36714285Y80041000D01*
X36757142Y79998143D01*
X36842857Y79869572D01*
X36885714Y79698143D01*
X36885714Y79355286D01*
X36842857Y79269572D01*
X36800000Y79226715D01*
X36714285Y79183858D01*
X36542857Y79183858D01*
X36457142Y79226715D01*
X36414285Y79269572D01*
X36371428Y79355286D01*
X36371428Y79569572D01*
X36414285Y79655286D01*
X36457142Y79698143D01*
X36542857Y79741000D01*
X36714285Y79741000D01*
X36800000Y79698143D01*
X36842857Y79655286D01*
X36885714Y79569572D01*
X45028571Y78634858D02*
X45028571Y77906286D01*
X44985714Y77820572D01*
X44942857Y77777715D01*
X44857142Y77734858D01*
X44685714Y77734858D01*
X44600000Y77777715D01*
X44557142Y77820572D01*
X44514285Y77906286D01*
X44514285Y78634858D01*
X44128571Y77777715D02*
X44000000Y77734858D01*
X43785714Y77734858D01*
X43700000Y77777715D01*
X43657142Y77820572D01*
X43614285Y77906286D01*
X43614285Y77992000D01*
X43657142Y78077715D01*
X43700000Y78120572D01*
X43785714Y78163429D01*
X43957142Y78206286D01*
X44042857Y78249143D01*
X44085714Y78292000D01*
X44128571Y78377715D01*
X44128571Y78463429D01*
X44085714Y78549143D01*
X44042857Y78592000D01*
X43957142Y78634858D01*
X43742857Y78634858D01*
X43614285Y78592000D01*
X43228571Y78206286D02*
X42928571Y78206286D01*
X42800000Y77734858D02*
X43228571Y77734858D01*
X43228571Y78634858D01*
X42800000Y78634858D01*
X41900000Y77734858D02*
X42200000Y78163429D01*
X42414285Y77734858D02*
X42414285Y78634858D01*
X42071428Y78634858D01*
X41985714Y78592000D01*
X41942857Y78549143D01*
X41900000Y78463429D01*
X41900000Y78334858D01*
X41942857Y78249143D01*
X41985714Y78206286D01*
X42071428Y78163429D01*
X42414285Y78163429D01*
X41728571Y77649143D02*
X41042857Y77649143D01*
X40400000Y77734858D02*
X40828571Y77734858D01*
X40828571Y78634858D01*
X40100000Y78206286D02*
X39800000Y78206286D01*
X39671428Y77734858D02*
X40100000Y77734858D01*
X40100000Y78634858D01*
X39671428Y78634858D01*
X39285714Y77734858D02*
X39285714Y78634858D01*
X39071428Y78634858D01*
X38942857Y78592000D01*
X38857142Y78506286D01*
X38814285Y78420572D01*
X38771428Y78249143D01*
X38771428Y78120572D01*
X38814285Y77949143D01*
X38857142Y77863429D01*
X38942857Y77777715D01*
X39071428Y77734858D01*
X39285714Y77734858D01*
X37228571Y77734858D02*
X37742857Y77734858D01*
X37485714Y77734858D02*
X37485714Y78634858D01*
X37571428Y78506286D01*
X37657142Y78420572D01*
X37742857Y78377715D01*
X36714285Y78249143D02*
X36800000Y78292000D01*
X36842857Y78334858D01*
X36885714Y78420572D01*
X36885714Y78463429D01*
X36842857Y78549143D01*
X36800000Y78592000D01*
X36714285Y78634858D01*
X36542857Y78634858D01*
X36457142Y78592000D01*
X36414285Y78549143D01*
X36371428Y78463429D01*
X36371428Y78420572D01*
X36414285Y78334858D01*
X36457142Y78292000D01*
X36542857Y78249143D01*
X36714285Y78249143D01*
X36800000Y78206286D01*
X36842857Y78163429D01*
X36885714Y78077715D01*
X36885714Y77906286D01*
X36842857Y77820572D01*
X36800000Y77777715D01*
X36714285Y77734858D01*
X36542857Y77734858D01*
X36457142Y77777715D01*
X36414285Y77820572D01*
X36371428Y77906286D01*
X36371428Y78077715D01*
X36414285Y78163429D01*
X36457142Y78206286D01*
X36542857Y78249143D01*
X43571428Y76285858D02*
X43871428Y76714429D01*
X44085714Y76285858D02*
X44085714Y77185858D01*
X43742857Y77185858D01*
X43657142Y77143000D01*
X43614285Y77100143D01*
X43571428Y77014429D01*
X43571428Y76885858D01*
X43614285Y76800143D01*
X43657142Y76757286D01*
X43742857Y76714429D01*
X44085714Y76714429D01*
X43185714Y76757286D02*
X42885714Y76757286D01*
X42757142Y76285858D02*
X43185714Y76285858D01*
X43185714Y77185858D01*
X42757142Y77185858D01*
X42414285Y76328715D02*
X42285714Y76285858D01*
X42071428Y76285858D01*
X41985714Y76328715D01*
X41942857Y76371572D01*
X41900000Y76457286D01*
X41900000Y76543000D01*
X41942857Y76628715D01*
X41985714Y76671572D01*
X42071428Y76714429D01*
X42242857Y76757286D01*
X42328571Y76800143D01*
X42371428Y76843000D01*
X42414285Y76928715D01*
X42414285Y77014429D01*
X42371428Y77100143D01*
X42328571Y77143000D01*
X42242857Y77185858D01*
X42028571Y77185858D01*
X41900000Y77143000D01*
X41514285Y76757286D02*
X41214285Y76757286D01*
X41085714Y76285858D02*
X41514285Y76285858D01*
X41514285Y77185858D01*
X41085714Y77185858D01*
X40828571Y77185858D02*
X40314285Y77185858D01*
X40571428Y76285858D02*
X40571428Y77185858D01*
X40228571Y76200143D02*
X39542857Y76200143D01*
X39328571Y76285858D02*
X39328571Y77185858D01*
X38814285Y76285858D01*
X38814285Y77185858D01*
X37742857Y77100143D02*
X37700000Y77143000D01*
X37614285Y77185858D01*
X37400000Y77185858D01*
X37314285Y77143000D01*
X37271428Y77100143D01*
X37228571Y77014429D01*
X37228571Y76928715D01*
X37271428Y76800143D01*
X37785714Y76285858D01*
X37228571Y76285858D01*
X36671428Y77185858D02*
X36585714Y77185858D01*
X36500000Y77143000D01*
X36457142Y77100143D01*
X36414285Y77014429D01*
X36371428Y76843000D01*
X36371428Y76628715D01*
X36414285Y76457286D01*
X36457142Y76371572D01*
X36500000Y76328715D01*
X36585714Y76285858D01*
X36671428Y76285858D01*
X36757142Y76328715D01*
X36800000Y76371572D01*
X36842857Y76457286D01*
X36885714Y76628715D01*
X36885714Y76843000D01*
X36842857Y77014429D01*
X36800000Y77100143D01*
X36757142Y77143000D01*
X36671428Y77185858D01*
X43442857Y75736858D02*
X43142857Y74836858D01*
X42842857Y75736858D01*
X42585714Y75094000D02*
X42157142Y75094000D01*
X42671428Y74836858D02*
X42371428Y75736858D01*
X42071428Y74836858D01*
X41771428Y74836858D02*
X41771428Y75736858D01*
X41557142Y75736858D01*
X41428571Y75694000D01*
X41342857Y75608286D01*
X41300000Y75522572D01*
X41257142Y75351143D01*
X41257142Y75222572D01*
X41300000Y75051143D01*
X41342857Y74965429D01*
X41428571Y74879715D01*
X41557142Y74836858D01*
X41771428Y74836858D01*
X40357142Y74922572D02*
X40400000Y74879715D01*
X40528571Y74836858D01*
X40614285Y74836858D01*
X40742857Y74879715D01*
X40828571Y74965429D01*
X40871428Y75051143D01*
X40914285Y75222572D01*
X40914285Y75351143D01*
X40871428Y75522572D01*
X40828571Y75608286D01*
X40742857Y75694000D01*
X40614285Y75736858D01*
X40528571Y75736858D01*
X40400000Y75694000D01*
X40357142Y75651143D01*
X40185714Y74751143D02*
X39500000Y74751143D01*
X39285714Y74836858D02*
X39285714Y75736858D01*
X38942857Y75736858D01*
X38857142Y75694000D01*
X38814285Y75651143D01*
X38771428Y75565429D01*
X38771428Y75436858D01*
X38814285Y75351143D01*
X38857142Y75308286D01*
X38942857Y75265429D01*
X39285714Y75265429D01*
X37742857Y75651143D02*
X37700000Y75694000D01*
X37614285Y75736858D01*
X37400000Y75736858D01*
X37314285Y75694000D01*
X37271428Y75651143D01*
X37228571Y75565429D01*
X37228571Y75479715D01*
X37271428Y75351143D01*
X37785714Y74836858D01*
X37228571Y74836858D01*
X36885714Y75651143D02*
X36842857Y75694000D01*
X36757142Y75736858D01*
X36542857Y75736858D01*
X36457142Y75694000D01*
X36414285Y75651143D01*
X36371428Y75565429D01*
X36371428Y75479715D01*
X36414285Y75351143D01*
X36928571Y74836858D01*
X36371428Y74836858D01*
X44128571Y74287858D02*
X43828571Y73387858D01*
X43528571Y74287858D01*
X43228571Y73387858D02*
X43228571Y74287858D01*
X43014285Y74287858D01*
X42885714Y74245000D01*
X42800000Y74159286D01*
X42757142Y74073572D01*
X42714285Y73902143D01*
X42714285Y73773572D01*
X42757142Y73602143D01*
X42800000Y73516429D01*
X42885714Y73430715D01*
X43014285Y73387858D01*
X43228571Y73387858D01*
X42328571Y73387858D02*
X42328571Y74287858D01*
X42114285Y74287858D01*
X41985714Y74245000D01*
X41900000Y74159286D01*
X41857142Y74073572D01*
X41814285Y73902143D01*
X41814285Y73773572D01*
X41857142Y73602143D01*
X41900000Y73516429D01*
X41985714Y73430715D01*
X42114285Y73387858D01*
X42328571Y73387858D01*
X41642857Y73302143D02*
X40957142Y73302143D01*
X40785714Y73645000D02*
X40357142Y73645000D01*
X40871428Y73387858D02*
X40571428Y74287858D01*
X40271428Y73387858D01*
X39971428Y73387858D02*
X39971428Y74287858D01*
X39757142Y74287858D01*
X39628571Y74245000D01*
X39542857Y74159286D01*
X39500000Y74073572D01*
X39457142Y73902143D01*
X39457142Y73773572D01*
X39500000Y73602143D01*
X39542857Y73516429D01*
X39628571Y73430715D01*
X39757142Y73387858D01*
X39971428Y73387858D01*
X38814285Y74287858D02*
X38814285Y73645000D01*
X38857142Y73516429D01*
X38942857Y73430715D01*
X39071428Y73387858D01*
X39157142Y73387858D01*
X37742857Y74202143D02*
X37700000Y74245000D01*
X37614285Y74287858D01*
X37400000Y74287858D01*
X37314285Y74245000D01*
X37271428Y74202143D01*
X37228571Y74116429D01*
X37228571Y74030715D01*
X37271428Y73902143D01*
X37785714Y73387858D01*
X37228571Y73387858D01*
X36457142Y73987858D02*
X36457142Y73387858D01*
X36671428Y74330715D02*
X36885714Y73687858D01*
X36328571Y73687858D01*
X44942857Y72838858D02*
X44642857Y71938858D01*
X44342857Y72838858D01*
X44042857Y71938858D02*
X44042857Y72838858D01*
X43828571Y72838858D01*
X43700000Y72796000D01*
X43614285Y72710286D01*
X43571428Y72624572D01*
X43528571Y72453143D01*
X43528571Y72324572D01*
X43571428Y72153143D01*
X43614285Y72067429D01*
X43700000Y71981715D01*
X43828571Y71938858D01*
X44042857Y71938858D01*
X43142857Y71938858D02*
X43142857Y72838858D01*
X42928571Y72838858D01*
X42800000Y72796000D01*
X42714285Y72710286D01*
X42671428Y72624572D01*
X42628571Y72453143D01*
X42628571Y72324572D01*
X42671428Y72153143D01*
X42714285Y72067429D01*
X42800000Y71981715D01*
X42928571Y71938858D01*
X43142857Y71938858D01*
X42457142Y71853143D02*
X41771428Y71853143D01*
X41085714Y72796000D02*
X41171428Y72838858D01*
X41300000Y72838858D01*
X41428571Y72796000D01*
X41514285Y72710286D01*
X41557142Y72624572D01*
X41600000Y72453143D01*
X41600000Y72324572D01*
X41557142Y72153143D01*
X41514285Y72067429D01*
X41428571Y71981715D01*
X41300000Y71938858D01*
X41214285Y71938858D01*
X41085714Y71981715D01*
X41042857Y72024572D01*
X41042857Y72324572D01*
X41214285Y72324572D01*
X40657142Y71938858D02*
X40657142Y72838858D01*
X40314285Y72838858D01*
X40228571Y72796000D01*
X40185714Y72753143D01*
X40142857Y72667429D01*
X40142857Y72538858D01*
X40185714Y72453143D01*
X40228571Y72410286D01*
X40314285Y72367429D01*
X40657142Y72367429D01*
X39757142Y71938858D02*
X39757142Y72838858D01*
X39157142Y72838858D02*
X38985714Y72838858D01*
X38900000Y72796000D01*
X38814285Y72710286D01*
X38771428Y72538858D01*
X38771428Y72238858D01*
X38814285Y72067429D01*
X38900000Y71981715D01*
X38985714Y71938858D01*
X39157142Y71938858D01*
X39242857Y71981715D01*
X39328571Y72067429D01*
X39371428Y72238858D01*
X39371428Y72538858D01*
X39328571Y72710286D01*
X39242857Y72796000D01*
X39157142Y72838858D01*
X37742857Y72753143D02*
X37700000Y72796000D01*
X37614285Y72838858D01*
X37400000Y72838858D01*
X37314285Y72796000D01*
X37271428Y72753143D01*
X37228571Y72667429D01*
X37228571Y72581715D01*
X37271428Y72453143D01*
X37785714Y71938858D01*
X37228571Y71938858D01*
X36457142Y72838858D02*
X36628571Y72838858D01*
X36714285Y72796000D01*
X36757142Y72753143D01*
X36842857Y72624572D01*
X36885714Y72453143D01*
X36885714Y72110286D01*
X36842857Y72024572D01*
X36800000Y71981715D01*
X36714285Y71938858D01*
X36542857Y71938858D01*
X36457142Y71981715D01*
X36414285Y72024572D01*
X36371428Y72110286D01*
X36371428Y72324572D01*
X36414285Y72410286D01*
X36457142Y72453143D01*
X36542857Y72496000D01*
X36714285Y72496000D01*
X36800000Y72453143D01*
X36842857Y72410286D01*
X36885714Y72324572D01*
D12*
X81527142Y85232858D02*
X81312857Y85161429D01*
X80955714Y85161429D01*
X80812857Y85232858D01*
X80741428Y85304286D01*
X80670000Y85447143D01*
X80670000Y85590000D01*
X80741428Y85732858D01*
X80812857Y85804286D01*
X80955714Y85875715D01*
X81241428Y85947143D01*
X81384285Y86018572D01*
X81455714Y86090000D01*
X81527142Y86232858D01*
X81527142Y86375715D01*
X81455714Y86518572D01*
X81384285Y86590000D01*
X81241428Y86661429D01*
X80884285Y86661429D01*
X80670000Y86590000D01*
X79741428Y85875715D02*
X79741428Y85161429D01*
X80241428Y86661429D02*
X79741428Y85875715D01*
X79241428Y86661429D01*
X78741428Y85161429D02*
X78741428Y86661429D01*
X77884285Y85161429D01*
X77884285Y86661429D01*
X76312857Y85304286D02*
X76384285Y85232858D01*
X76598571Y85161429D01*
X76741428Y85161429D01*
X76955714Y85232858D01*
X77098571Y85375715D01*
X77170000Y85518572D01*
X77241428Y85804286D01*
X77241428Y86018572D01*
X77170000Y86304286D01*
X77098571Y86447143D01*
X76955714Y86590000D01*
X76741428Y86661429D01*
X76598571Y86661429D01*
X76384285Y86590000D01*
X76312857Y86518572D01*
D10*
X31410476Y7987620D02*
X31981904Y7987620D01*
X31696190Y7987620D02*
X31696190Y8987620D01*
X31791428Y8844762D01*
X31886666Y8749524D01*
X31981904Y8701905D01*
X31077142Y8987620D02*
X30458095Y8987620D01*
X30791428Y8606667D01*
X30648571Y8606667D01*
X30553333Y8559048D01*
X30505714Y8511429D01*
X30458095Y8416191D01*
X30458095Y8178096D01*
X30505714Y8082858D01*
X30553333Y8035239D01*
X30648571Y7987620D01*
X30934285Y7987620D01*
X31029523Y8035239D01*
X31077142Y8082858D01*
D12*
X35917000Y56503000D02*
X36059857Y56574429D01*
X36274142Y56574429D01*
X36488428Y56503000D01*
X36631285Y56360143D01*
X36702714Y56217286D01*
X36774142Y55931572D01*
X36774142Y55717286D01*
X36702714Y55431572D01*
X36631285Y55288715D01*
X36488428Y55145858D01*
X36274142Y55074429D01*
X36131285Y55074429D01*
X35917000Y55145858D01*
X35845571Y55217286D01*
X35845571Y55717286D01*
X36131285Y55717286D01*
X35202714Y55074429D02*
X35202714Y56574429D01*
X34631285Y56574429D01*
X34488428Y56503000D01*
X34417000Y56431572D01*
X34345571Y56288715D01*
X34345571Y56074429D01*
X34417000Y55931572D01*
X34488428Y55860143D01*
X34631285Y55788715D01*
X35202714Y55788715D01*
X33702714Y55074429D02*
X33702714Y56574429D01*
X32702714Y56574429D02*
X32417000Y56574429D01*
X32274142Y56503000D01*
X32131285Y56360143D01*
X32059857Y56074429D01*
X32059857Y55574429D01*
X32131285Y55288715D01*
X32274142Y55145858D01*
X32417000Y55074429D01*
X32702714Y55074429D01*
X32845571Y55145858D01*
X32988428Y55288715D01*
X33059857Y55574429D01*
X33059857Y56074429D01*
X32988428Y56360143D01*
X32845571Y56503000D01*
X32702714Y56574429D01*
D14*
X71570000Y2040000D02*
X71655714Y2087620D01*
X71784285Y2087620D01*
X71912857Y2040000D01*
X71998571Y1944762D01*
X72041428Y1849524D01*
X72084285Y1659048D01*
X72084285Y1516191D01*
X72041428Y1325715D01*
X71998571Y1230477D01*
X71912857Y1135239D01*
X71784285Y1087620D01*
X71698571Y1087620D01*
X71570000Y1135239D01*
X71527142Y1182858D01*
X71527142Y1516191D01*
X71698571Y1516191D01*
X71141428Y1087620D02*
X71141428Y2087620D01*
X70627142Y1087620D01*
X70627142Y2087620D01*
X70198571Y1087620D02*
X70198571Y2087620D01*
X69984285Y2087620D01*
X69855714Y2040000D01*
X69770000Y1944762D01*
X69727142Y1849524D01*
X69684285Y1659048D01*
X69684285Y1516191D01*
X69727142Y1325715D01*
X69770000Y1230477D01*
X69855714Y1135239D01*
X69984285Y1087620D01*
X70198571Y1087620D01*
X68655714Y1135239D02*
X68527142Y1087620D01*
X68312857Y1087620D01*
X68227142Y1135239D01*
X68184285Y1182858D01*
X68141428Y1278096D01*
X68141428Y1373334D01*
X68184285Y1468572D01*
X68227142Y1516191D01*
X68312857Y1563810D01*
X68484285Y1611429D01*
X68570000Y1659048D01*
X68612857Y1706667D01*
X68655714Y1801905D01*
X68655714Y1897143D01*
X68612857Y1992381D01*
X68570000Y2040000D01*
X68484285Y2087620D01*
X68270000Y2087620D01*
X68141428Y2040000D01*
X67241428Y1182858D02*
X67284285Y1135239D01*
X67412857Y1087620D01*
X67498571Y1087620D01*
X67627142Y1135239D01*
X67712857Y1230477D01*
X67755714Y1325715D01*
X67798571Y1516191D01*
X67798571Y1659048D01*
X67755714Y1849524D01*
X67712857Y1944762D01*
X67627142Y2040000D01*
X67498571Y2087620D01*
X67412857Y2087620D01*
X67284285Y2040000D01*
X67241428Y1992381D01*
X66427142Y1087620D02*
X66855714Y1087620D01*
X66855714Y2087620D01*
X65012857Y2087620D02*
X65441428Y2087620D01*
X65484285Y1611429D01*
X65441428Y1659048D01*
X65355714Y1706667D01*
X65141428Y1706667D01*
X65055714Y1659048D01*
X65012857Y1611429D01*
X64970000Y1516191D01*
X64970000Y1278096D01*
X65012857Y1182858D01*
X65055714Y1135239D01*
X65141428Y1087620D01*
X65355714Y1087620D01*
X65441428Y1135239D01*
X65484285Y1182858D01*
X64712857Y2087620D02*
X64412857Y1087620D01*
X64112857Y2087620D01*
X63170000Y1135239D02*
X63041428Y1087620D01*
X62827142Y1087620D01*
X62741428Y1135239D01*
X62698571Y1182858D01*
X62655714Y1278096D01*
X62655714Y1373334D01*
X62698571Y1468572D01*
X62741428Y1516191D01*
X62827142Y1563810D01*
X62998571Y1611429D01*
X63084285Y1659048D01*
X63127142Y1706667D01*
X63170000Y1801905D01*
X63170000Y1897143D01*
X63127142Y1992381D01*
X63084285Y2040000D01*
X62998571Y2087620D01*
X62784285Y2087620D01*
X62655714Y2040000D01*
X62270000Y1087620D02*
X62270000Y2087620D01*
X62055714Y2087620D01*
X61927142Y2040000D01*
X61841428Y1944762D01*
X61798571Y1849524D01*
X61755714Y1659048D01*
X61755714Y1516191D01*
X61798571Y1325715D01*
X61841428Y1230477D01*
X61927142Y1135239D01*
X62055714Y1087620D01*
X62270000Y1087620D01*
X61412857Y1373334D02*
X60984285Y1373334D01*
X61498571Y1087620D02*
X61198571Y2087620D01*
X60898571Y1087620D01*
X59441428Y2040000D02*
X59527142Y2087620D01*
X59655714Y2087620D01*
X59784285Y2040000D01*
X59870000Y1944762D01*
X59912857Y1849524D01*
X59955714Y1659048D01*
X59955714Y1516191D01*
X59912857Y1325715D01*
X59870000Y1230477D01*
X59784285Y1135239D01*
X59655714Y1087620D01*
X59570000Y1087620D01*
X59441428Y1135239D01*
X59398571Y1182858D01*
X59398571Y1516191D01*
X59570000Y1516191D01*
X59012857Y1087620D02*
X59012857Y2087620D01*
X58498571Y1087620D01*
X58498571Y2087620D01*
X58070000Y1087620D02*
X58070000Y2087620D01*
X57855714Y2087620D01*
X57727142Y2040000D01*
X57641428Y1944762D01*
X57598571Y1849524D01*
X57555714Y1659048D01*
X57555714Y1516191D01*
X57598571Y1325715D01*
X57641428Y1230477D01*
X57727142Y1135239D01*
X57855714Y1087620D01*
X58070000Y1087620D01*
D10*
X46705714Y1897381D02*
X46658095Y1945000D01*
X46562857Y1992620D01*
X46324761Y1992620D01*
X46229523Y1945000D01*
X46181904Y1897381D01*
X46134285Y1802143D01*
X46134285Y1706905D01*
X46181904Y1564048D01*
X46753333Y992620D01*
X46134285Y992620D01*
X36510476Y987620D02*
X37081904Y987620D01*
X36796190Y987620D02*
X36796190Y1987620D01*
X36891428Y1844762D01*
X36986666Y1749524D01*
X37081904Y1701905D01*
X35891428Y1987620D02*
X35796190Y1987620D01*
X35700952Y1940000D01*
X35653333Y1892381D01*
X35605714Y1797143D01*
X35558095Y1606667D01*
X35558095Y1368572D01*
X35605714Y1178096D01*
X35653333Y1082858D01*
X35700952Y1035239D01*
X35796190Y987620D01*
X35891428Y987620D01*
X35986666Y1035239D01*
X36034285Y1082858D01*
X36081904Y1178096D01*
X36129523Y1368572D01*
X36129523Y1606667D01*
X36081904Y1797143D01*
X36034285Y1892381D01*
X35986666Y1940000D01*
X35891428Y1987620D01*
D12*
X51612857Y9461429D02*
X51612857Y10961429D01*
X51041428Y10961429D01*
X50898571Y10890000D01*
X50827142Y10818572D01*
X50755714Y10675715D01*
X50755714Y10461429D01*
X50827142Y10318572D01*
X50898571Y10247143D01*
X51041428Y10175715D01*
X51612857Y10175715D01*
X49541428Y9532858D02*
X49684285Y9461429D01*
X49970000Y9461429D01*
X50112857Y9532858D01*
X50184285Y9675715D01*
X50184285Y10247143D01*
X50112857Y10390000D01*
X49970000Y10461429D01*
X49684285Y10461429D01*
X49541428Y10390000D01*
X49470000Y10247143D01*
X49470000Y10104286D01*
X50184285Y9961429D01*
X48827142Y9461429D02*
X48827142Y10461429D01*
X48827142Y10175715D02*
X48755714Y10318572D01*
X48684285Y10390000D01*
X48541428Y10461429D01*
X48398571Y10461429D01*
X47898571Y9461429D02*
X47898571Y10461429D01*
X47898571Y10961429D02*
X47970000Y10890000D01*
X47898571Y10818572D01*
X47827142Y10890000D01*
X47898571Y10961429D01*
X47898571Y10818572D01*
X47184285Y10461429D02*
X47184285Y8961429D01*
X47184285Y10390000D02*
X47041428Y10461429D01*
X46755714Y10461429D01*
X46612857Y10390000D01*
X46541428Y10318572D01*
X46470000Y10175715D01*
X46470000Y9747143D01*
X46541428Y9604286D01*
X46612857Y9532858D01*
X46755714Y9461429D01*
X47041428Y9461429D01*
X47184285Y9532858D01*
X45827142Y9461429D02*
X45827142Y10961429D01*
X45184285Y9461429D02*
X45184285Y10247143D01*
X45255714Y10390000D01*
X45398571Y10461429D01*
X45612857Y10461429D01*
X45755714Y10390000D01*
X45827142Y10318572D01*
X43898571Y9532858D02*
X44041428Y9461429D01*
X44327142Y9461429D01*
X44470000Y9532858D01*
X44541428Y9675715D01*
X44541428Y10247143D01*
X44470000Y10390000D01*
X44327142Y10461429D01*
X44041428Y10461429D01*
X43898571Y10390000D01*
X43827142Y10247143D01*
X43827142Y10104286D01*
X44541428Y9961429D01*
X43184285Y9461429D02*
X43184285Y10461429D01*
X43184285Y10175715D02*
X43112857Y10318572D01*
X43041428Y10390000D01*
X42898571Y10461429D01*
X42755714Y10461429D01*
X41612857Y9461429D02*
X41612857Y10247143D01*
X41684285Y10390000D01*
X41827142Y10461429D01*
X42112857Y10461429D01*
X42255714Y10390000D01*
X41612857Y9532858D02*
X41755714Y9461429D01*
X42112857Y9461429D01*
X42255714Y9532858D01*
X42327142Y9675715D01*
X42327142Y9818572D01*
X42255714Y9961429D01*
X42112857Y10032858D01*
X41755714Y10032858D01*
X41612857Y10104286D01*
X40684285Y9461429D02*
X40827142Y9532858D01*
X40898571Y9675715D01*
X40898571Y10961429D01*
D10*
X26210476Y8087620D02*
X26781904Y8087620D01*
X26496190Y8087620D02*
X26496190Y9087620D01*
X26591428Y8944762D01*
X26686666Y8849524D01*
X26781904Y8801905D01*
X25877142Y9087620D02*
X25210476Y9087620D01*
X25639047Y8087620D01*
D12*
X79820000Y8661429D02*
X79820000Y10161429D01*
X79248571Y10161429D01*
X79105714Y10090000D01*
X79034285Y10018572D01*
X78962857Y9875715D01*
X78962857Y9661429D01*
X79034285Y9518572D01*
X79105714Y9447143D01*
X79248571Y9375715D01*
X79820000Y9375715D01*
X78462857Y10161429D02*
X78105714Y8661429D01*
X77820000Y9732858D01*
X77534285Y8661429D01*
X77177142Y10161429D01*
X75748571Y8661429D02*
X76248571Y9375715D01*
X76605714Y8661429D02*
X76605714Y10161429D01*
X76034285Y10161429D01*
X75891428Y10090000D01*
X75820000Y10018572D01*
X75748571Y9875715D01*
X75748571Y9661429D01*
X75820000Y9518572D01*
X75891428Y9447143D01*
X76034285Y9375715D01*
X76605714Y9375715D01*
D15*
X43522380Y91701905D02*
X43522380Y93001905D01*
X43027142Y93001905D01*
X42903333Y92940000D01*
X42841428Y92878096D01*
X42779523Y92754286D01*
X42779523Y92568572D01*
X42841428Y92444762D01*
X42903333Y92382858D01*
X43027142Y92320953D01*
X43522380Y92320953D01*
X41727142Y91763810D02*
X41850952Y91701905D01*
X42098571Y91701905D01*
X42222380Y91763810D01*
X42284285Y91887620D01*
X42284285Y92382858D01*
X42222380Y92506667D01*
X42098571Y92568572D01*
X41850952Y92568572D01*
X41727142Y92506667D01*
X41665238Y92382858D01*
X41665238Y92259048D01*
X42284285Y92135239D01*
X41108095Y91701905D02*
X41108095Y92568572D01*
X41108095Y92320953D02*
X41046190Y92444762D01*
X40984285Y92506667D01*
X40860476Y92568572D01*
X40736666Y92568572D01*
X40303333Y91701905D02*
X40303333Y92568572D01*
X40303333Y93001905D02*
X40365238Y92940000D01*
X40303333Y92878096D01*
X40241428Y92940000D01*
X40303333Y93001905D01*
X40303333Y92878096D01*
X39684285Y92568572D02*
X39684285Y91268572D01*
X39684285Y92506667D02*
X39560476Y92568572D01*
X39312857Y92568572D01*
X39189047Y92506667D01*
X39127142Y92444762D01*
X39065238Y92320953D01*
X39065238Y91949524D01*
X39127142Y91825715D01*
X39189047Y91763810D01*
X39312857Y91701905D01*
X39560476Y91701905D01*
X39684285Y91763810D01*
X38508095Y91701905D02*
X38508095Y93001905D01*
X37950952Y91701905D02*
X37950952Y92382858D01*
X38012857Y92506667D01*
X38136666Y92568572D01*
X38322380Y92568572D01*
X38446190Y92506667D01*
X38508095Y92444762D01*
X36836666Y91763810D02*
X36960476Y91701905D01*
X37208095Y91701905D01*
X37331904Y91763810D01*
X37393809Y91887620D01*
X37393809Y92382858D01*
X37331904Y92506667D01*
X37208095Y92568572D01*
X36960476Y92568572D01*
X36836666Y92506667D01*
X36774761Y92382858D01*
X36774761Y92259048D01*
X37393809Y92135239D01*
X36217619Y91701905D02*
X36217619Y92568572D01*
X36217619Y92320953D02*
X36155714Y92444762D01*
X36093809Y92506667D01*
X35970000Y92568572D01*
X35846190Y92568572D01*
X34855714Y91701905D02*
X34855714Y92382858D01*
X34917619Y92506667D01*
X35041428Y92568572D01*
X35289047Y92568572D01*
X35412857Y92506667D01*
X34855714Y91763810D02*
X34979523Y91701905D01*
X35289047Y91701905D01*
X35412857Y91763810D01*
X35474761Y91887620D01*
X35474761Y92011429D01*
X35412857Y92135239D01*
X35289047Y92197143D01*
X34979523Y92197143D01*
X34855714Y92259048D01*
X34050952Y91701905D02*
X34174761Y91763810D01*
X34236666Y91887620D01*
X34236666Y93001905D01*
X32565238Y92568572D02*
X32565238Y91268572D01*
X32565238Y92506667D02*
X32441428Y92568572D01*
X32193809Y92568572D01*
X32070000Y92506667D01*
X32008095Y92444762D01*
X31946190Y92320953D01*
X31946190Y91949524D01*
X32008095Y91825715D01*
X32070000Y91763810D01*
X32193809Y91701905D01*
X32441428Y91701905D01*
X32565238Y91763810D01*
X31389047Y91701905D02*
X31389047Y92568572D01*
X31389047Y93001905D02*
X31450952Y92940000D01*
X31389047Y92878096D01*
X31327142Y92940000D01*
X31389047Y93001905D01*
X31389047Y92878096D01*
X30770000Y92568572D02*
X30770000Y91701905D01*
X30770000Y92444762D02*
X30708095Y92506667D01*
X30584285Y92568572D01*
X30398571Y92568572D01*
X30274761Y92506667D01*
X30212857Y92382858D01*
X30212857Y91701905D01*
X29408095Y91701905D02*
X29531904Y91763810D01*
X29593809Y91825715D01*
X29655714Y91949524D01*
X29655714Y92320953D01*
X29593809Y92444762D01*
X29531904Y92506667D01*
X29408095Y92568572D01*
X29222380Y92568572D01*
X29098571Y92506667D01*
X29036666Y92444762D01*
X28974761Y92320953D01*
X28974761Y91949524D01*
X29036666Y91825715D01*
X29098571Y91763810D01*
X29222380Y91701905D01*
X29408095Y91701905D01*
X27860476Y92568572D02*
X27860476Y91701905D01*
X28417619Y92568572D02*
X28417619Y91887620D01*
X28355714Y91763810D01*
X28231904Y91701905D01*
X28046190Y91701905D01*
X27922380Y91763810D01*
X27860476Y91825715D01*
X27427142Y92568572D02*
X26931904Y92568572D01*
X27241428Y93001905D02*
X27241428Y91887620D01*
X27179523Y91763810D01*
X27055714Y91701905D01*
X26931904Y91701905D01*
D13*
X90247142Y91559286D02*
X90056666Y90892620D01*
X89866190Y91368810D01*
X89675714Y90892620D01*
X89485238Y91559286D01*
X89199523Y91559286D02*
X89009047Y90892620D01*
X88818571Y91368810D01*
X88628095Y90892620D01*
X88437619Y91559286D01*
X88151904Y91559286D02*
X87961428Y90892620D01*
X87770952Y91368810D01*
X87580476Y90892620D01*
X87390000Y91559286D01*
X87009047Y90987858D02*
X86961428Y90940239D01*
X87009047Y90892620D01*
X87056666Y90940239D01*
X87009047Y90987858D01*
X87009047Y90892620D01*
X86532857Y90892620D02*
X86532857Y91559286D01*
X86532857Y91464048D02*
X86485238Y91511667D01*
X86390000Y91559286D01*
X86247142Y91559286D01*
X86151904Y91511667D01*
X86104285Y91416429D01*
X86104285Y90892620D01*
X86104285Y91416429D02*
X86056666Y91511667D01*
X85961428Y91559286D01*
X85818571Y91559286D01*
X85723333Y91511667D01*
X85675714Y91416429D01*
X85675714Y90892620D01*
X85056666Y90892620D02*
X85151904Y90940239D01*
X85199523Y91035477D01*
X85199523Y91892620D01*
X84247142Y90892620D02*
X84247142Y91416429D01*
X84294761Y91511667D01*
X84390000Y91559286D01*
X84580476Y91559286D01*
X84675714Y91511667D01*
X84247142Y90940239D02*
X84342380Y90892620D01*
X84580476Y90892620D01*
X84675714Y90940239D01*
X84723333Y91035477D01*
X84723333Y91130715D01*
X84675714Y91225953D01*
X84580476Y91273572D01*
X84342380Y91273572D01*
X84247142Y91321191D01*
X83770952Y90892620D02*
X83770952Y91892620D01*
X83770952Y91511667D02*
X83675714Y91559286D01*
X83485238Y91559286D01*
X83390000Y91511667D01*
X83342380Y91464048D01*
X83294761Y91368810D01*
X83294761Y91083096D01*
X83342380Y90987858D01*
X83390000Y90940239D01*
X83485238Y90892620D01*
X83675714Y90892620D01*
X83770952Y90940239D01*
X82866190Y90987858D02*
X82818571Y90940239D01*
X82866190Y90892620D01*
X82913809Y90940239D01*
X82866190Y90987858D01*
X82866190Y90892620D01*
X81961428Y90940239D02*
X82056666Y90892620D01*
X82247142Y90892620D01*
X82342380Y90940239D01*
X82390000Y90987858D01*
X82437619Y91083096D01*
X82437619Y91368810D01*
X82390000Y91464048D01*
X82342380Y91511667D01*
X82247142Y91559286D01*
X82056666Y91559286D01*
X81961428Y91511667D01*
X81628095Y91559286D02*
X81104285Y91559286D01*
X81628095Y90892620D01*
X81104285Y90892620D01*
X90199523Y90187381D02*
X90151904Y90235000D01*
X90056666Y90282620D01*
X89818571Y90282620D01*
X89723333Y90235000D01*
X89675714Y90187381D01*
X89628095Y90092143D01*
X89628095Y89996905D01*
X89675714Y89854048D01*
X90247142Y89282620D01*
X89628095Y89282620D01*
X89009047Y90282620D02*
X88913809Y90282620D01*
X88818571Y90235000D01*
X88770952Y90187381D01*
X88723333Y90092143D01*
X88675714Y89901667D01*
X88675714Y89663572D01*
X88723333Y89473096D01*
X88770952Y89377858D01*
X88818571Y89330239D01*
X88913809Y89282620D01*
X89009047Y89282620D01*
X89104285Y89330239D01*
X89151904Y89377858D01*
X89199523Y89473096D01*
X89247142Y89663572D01*
X89247142Y89901667D01*
X89199523Y90092143D01*
X89151904Y90187381D01*
X89104285Y90235000D01*
X89009047Y90282620D01*
X88294761Y90187381D02*
X88247142Y90235000D01*
X88151904Y90282620D01*
X87913809Y90282620D01*
X87818571Y90235000D01*
X87770952Y90187381D01*
X87723333Y90092143D01*
X87723333Y89996905D01*
X87770952Y89854048D01*
X88342380Y89282620D01*
X87723333Y89282620D01*
X87342380Y90187381D02*
X87294761Y90235000D01*
X87199523Y90282620D01*
X86961428Y90282620D01*
X86866190Y90235000D01*
X86818571Y90187381D01*
X86770952Y90092143D01*
X86770952Y89996905D01*
X86818571Y89854048D01*
X87390000Y89282620D01*
X86770952Y89282620D01*
X90389047Y93087620D02*
X90389047Y94087620D01*
X90055714Y93373334D01*
X89722380Y94087620D01*
X89722380Y93087620D01*
X88865238Y93135239D02*
X88960476Y93087620D01*
X89150952Y93087620D01*
X89246190Y93135239D01*
X89293809Y93230477D01*
X89293809Y93611429D01*
X89246190Y93706667D01*
X89150952Y93754286D01*
X88960476Y93754286D01*
X88865238Y93706667D01*
X88817619Y93611429D01*
X88817619Y93516191D01*
X89293809Y93420953D01*
X87960476Y93135239D02*
X88055714Y93087620D01*
X88246190Y93087620D01*
X88341428Y93135239D01*
X88389047Y93182858D01*
X88436666Y93278096D01*
X88436666Y93563810D01*
X88389047Y93659048D01*
X88341428Y93706667D01*
X88246190Y93754286D01*
X88055714Y93754286D01*
X87960476Y93706667D01*
X87531904Y93087620D02*
X87531904Y94087620D01*
X87103333Y93087620D02*
X87103333Y93611429D01*
X87150952Y93706667D01*
X87246190Y93754286D01*
X87389047Y93754286D01*
X87484285Y93706667D01*
X87531904Y93659048D01*
X86198571Y93087620D02*
X86198571Y93611429D01*
X86246190Y93706667D01*
X86341428Y93754286D01*
X86531904Y93754286D01*
X86627142Y93706667D01*
X86198571Y93135239D02*
X86293809Y93087620D01*
X86531904Y93087620D01*
X86627142Y93135239D01*
X86674761Y93230477D01*
X86674761Y93325715D01*
X86627142Y93420953D01*
X86531904Y93468572D01*
X86293809Y93468572D01*
X86198571Y93516191D01*
X85722380Y93754286D02*
X85722380Y93087620D01*
X85722380Y93659048D02*
X85674761Y93706667D01*
X85579523Y93754286D01*
X85436666Y93754286D01*
X85341428Y93706667D01*
X85293809Y93611429D01*
X85293809Y93087620D01*
X84817619Y93087620D02*
X84817619Y93754286D01*
X84817619Y94087620D02*
X84865238Y94040000D01*
X84817619Y93992381D01*
X84770000Y94040000D01*
X84817619Y94087620D01*
X84817619Y93992381D01*
X83912857Y93135239D02*
X84008095Y93087620D01*
X84198571Y93087620D01*
X84293809Y93135239D01*
X84341428Y93182858D01*
X84389047Y93278096D01*
X84389047Y93563810D01*
X84341428Y93659048D01*
X84293809Y93706667D01*
X84198571Y93754286D01*
X84008095Y93754286D01*
X83912857Y93706667D01*
X83055714Y93087620D02*
X83055714Y93611429D01*
X83103333Y93706667D01*
X83198571Y93754286D01*
X83389047Y93754286D01*
X83484285Y93706667D01*
X83055714Y93135239D02*
X83150952Y93087620D01*
X83389047Y93087620D01*
X83484285Y93135239D01*
X83531904Y93230477D01*
X83531904Y93325715D01*
X83484285Y93420953D01*
X83389047Y93468572D01*
X83150952Y93468572D01*
X83055714Y93516191D01*
X82436666Y93087620D02*
X82531904Y93135239D01*
X82579523Y93230477D01*
X82579523Y94087620D01*
X81293809Y93087620D02*
X81293809Y94087620D01*
X80912857Y94087620D01*
X80817619Y94040000D01*
X80770000Y93992381D01*
X80722380Y93897143D01*
X80722380Y93754286D01*
X80770000Y93659048D01*
X80817619Y93611429D01*
X80912857Y93563810D01*
X81293809Y93563810D01*
X79865238Y93087620D02*
X79865238Y93611429D01*
X79912857Y93706667D01*
X80008095Y93754286D01*
X80198571Y93754286D01*
X80293809Y93706667D01*
X79865238Y93135239D02*
X79960476Y93087620D01*
X80198571Y93087620D01*
X80293809Y93135239D01*
X80341428Y93230477D01*
X80341428Y93325715D01*
X80293809Y93420953D01*
X80198571Y93468572D01*
X79960476Y93468572D01*
X79865238Y93516191D01*
X79389047Y93087620D02*
X79389047Y93754286D01*
X79389047Y93563810D02*
X79341428Y93659048D01*
X79293809Y93706667D01*
X79198571Y93754286D01*
X79103333Y93754286D01*
X78341428Y93087620D02*
X78341428Y93611429D01*
X78389047Y93706667D01*
X78484285Y93754286D01*
X78674761Y93754286D01*
X78770000Y93706667D01*
X78341428Y93135239D02*
X78436666Y93087620D01*
X78674761Y93087620D01*
X78770000Y93135239D01*
X78817619Y93230477D01*
X78817619Y93325715D01*
X78770000Y93420953D01*
X78674761Y93468572D01*
X78436666Y93468572D01*
X78341428Y93516191D01*
X77722380Y93087620D02*
X77817619Y93135239D01*
X77865238Y93230477D01*
X77865238Y94087620D01*
X77198571Y93087620D02*
X77293809Y93135239D01*
X77341428Y93230477D01*
X77341428Y94087620D01*
X76436666Y93135239D02*
X76531904Y93087620D01*
X76722380Y93087620D01*
X76817619Y93135239D01*
X76865238Y93230477D01*
X76865238Y93611429D01*
X76817619Y93706667D01*
X76722380Y93754286D01*
X76531904Y93754286D01*
X76436666Y93706667D01*
X76389047Y93611429D01*
X76389047Y93516191D01*
X76865238Y93420953D01*
X75817619Y93087620D02*
X75912857Y93135239D01*
X75960476Y93230477D01*
X75960476Y94087620D01*
X75293809Y93087620D02*
X75389047Y93135239D01*
X75436666Y93230477D01*
X75436666Y94087620D01*
X74484285Y93087620D02*
X74484285Y93611429D01*
X74531904Y93706667D01*
X74627142Y93754286D01*
X74817619Y93754286D01*
X74912857Y93706667D01*
X74484285Y93135239D02*
X74579523Y93087620D01*
X74817619Y93087620D01*
X74912857Y93135239D01*
X74960476Y93230477D01*
X74960476Y93325715D01*
X74912857Y93420953D01*
X74817619Y93468572D01*
X74579523Y93468572D01*
X74484285Y93516191D01*
X73246190Y93754286D02*
X73246190Y92754286D01*
X73246190Y93706667D02*
X73150952Y93754286D01*
X72960476Y93754286D01*
X72865238Y93706667D01*
X72817619Y93659048D01*
X72770000Y93563810D01*
X72770000Y93278096D01*
X72817619Y93182858D01*
X72865238Y93135239D01*
X72960476Y93087620D01*
X73150952Y93087620D01*
X73246190Y93135239D01*
X71960476Y93135239D02*
X72055714Y93087620D01*
X72246190Y93087620D01*
X72341428Y93135239D01*
X72389047Y93230477D01*
X72389047Y93611429D01*
X72341428Y93706667D01*
X72246190Y93754286D01*
X72055714Y93754286D01*
X71960476Y93706667D01*
X71912857Y93611429D01*
X71912857Y93516191D01*
X72389047Y93420953D01*
X71484285Y93087620D02*
X71484285Y93754286D01*
X71484285Y93563810D02*
X71436666Y93659048D01*
X71389047Y93706667D01*
X71293809Y93754286D01*
X71198571Y93754286D01*
X70865238Y93087620D02*
X70865238Y93754286D01*
X70865238Y94087620D02*
X70912857Y94040000D01*
X70865238Y93992381D01*
X70817619Y94040000D01*
X70865238Y94087620D01*
X70865238Y93992381D01*
X70389047Y93754286D02*
X70389047Y92754286D01*
X70389047Y93706667D02*
X70293809Y93754286D01*
X70103333Y93754286D01*
X70008095Y93706667D01*
X69960476Y93659048D01*
X69912857Y93563810D01*
X69912857Y93278096D01*
X69960476Y93182858D01*
X70008095Y93135239D01*
X70103333Y93087620D01*
X70293809Y93087620D01*
X70389047Y93135239D01*
X69484285Y93087620D02*
X69484285Y94087620D01*
X69055714Y93087620D02*
X69055714Y93611429D01*
X69103333Y93706667D01*
X69198571Y93754286D01*
X69341428Y93754286D01*
X69436666Y93706667D01*
X69484285Y93659048D01*
X68198571Y93135239D02*
X68293809Y93087620D01*
X68484285Y93087620D01*
X68579523Y93135239D01*
X68627142Y93230477D01*
X68627142Y93611429D01*
X68579523Y93706667D01*
X68484285Y93754286D01*
X68293809Y93754286D01*
X68198571Y93706667D01*
X68150952Y93611429D01*
X68150952Y93516191D01*
X68627142Y93420953D01*
X67722380Y93087620D02*
X67722380Y93754286D01*
X67722380Y93563810D02*
X67674761Y93659048D01*
X67627142Y93706667D01*
X67531904Y93754286D01*
X67436666Y93754286D01*
X66674761Y93087620D02*
X66674761Y93611429D01*
X66722380Y93706667D01*
X66817619Y93754286D01*
X67008095Y93754286D01*
X67103333Y93706667D01*
X66674761Y93135239D02*
X66770000Y93087620D01*
X67008095Y93087620D01*
X67103333Y93135239D01*
X67150952Y93230477D01*
X67150952Y93325715D01*
X67103333Y93420953D01*
X67008095Y93468572D01*
X66770000Y93468572D01*
X66674761Y93516191D01*
X66055714Y93087620D02*
X66150952Y93135239D01*
X66198571Y93230477D01*
X66198571Y94087620D01*
X64912857Y93087620D02*
X64912857Y94087620D01*
X64912857Y93706667D02*
X64817619Y93754286D01*
X64627142Y93754286D01*
X64531904Y93706667D01*
X64484285Y93659048D01*
X64436666Y93563810D01*
X64436666Y93278096D01*
X64484285Y93182858D01*
X64531904Y93135239D01*
X64627142Y93087620D01*
X64817619Y93087620D01*
X64912857Y93135239D01*
X63865238Y93087620D02*
X63960476Y93135239D01*
X64008095Y93182858D01*
X64055714Y93278096D01*
X64055714Y93563810D01*
X64008095Y93659048D01*
X63960476Y93706667D01*
X63865238Y93754286D01*
X63722380Y93754286D01*
X63627142Y93706667D01*
X63579523Y93659048D01*
X63531904Y93563810D01*
X63531904Y93278096D01*
X63579523Y93182858D01*
X63627142Y93135239D01*
X63722380Y93087620D01*
X63865238Y93087620D01*
X62674761Y93087620D02*
X62674761Y93611429D01*
X62722380Y93706667D01*
X62817619Y93754286D01*
X63008095Y93754286D01*
X63103333Y93706667D01*
X62674761Y93135239D02*
X62770000Y93087620D01*
X63008095Y93087620D01*
X63103333Y93135239D01*
X63150952Y93230477D01*
X63150952Y93325715D01*
X63103333Y93420953D01*
X63008095Y93468572D01*
X62770000Y93468572D01*
X62674761Y93516191D01*
X62198571Y93087620D02*
X62198571Y93754286D01*
X62198571Y93563810D02*
X62150952Y93659048D01*
X62103333Y93706667D01*
X62008095Y93754286D01*
X61912857Y93754286D01*
X61150952Y93087620D02*
X61150952Y94087620D01*
X61150952Y93135239D02*
X61246190Y93087620D01*
X61436666Y93087620D01*
X61531904Y93135239D01*
X61579523Y93182858D01*
X61627142Y93278096D01*
X61627142Y93563810D01*
X61579523Y93659048D01*
X61531904Y93706667D01*
X61436666Y93754286D01*
X61246190Y93754286D01*
X61150952Y93706667D01*
D10*
X46134285Y7987620D02*
X46705714Y7987620D01*
X46420000Y7987620D02*
X46420000Y8987620D01*
X46515238Y8844762D01*
X46610476Y8749524D01*
X46705714Y8701905D01*
X35010476Y8587620D02*
X34820000Y8587620D01*
X34724761Y8635239D01*
X34677142Y8682858D01*
X34581904Y8825715D01*
X34534285Y9016191D01*
X34534285Y9397143D01*
X34581904Y9492381D01*
X34629523Y9540000D01*
X34724761Y9587620D01*
X34915238Y9587620D01*
X35010476Y9540000D01*
X35058095Y9492381D01*
X35105714Y9397143D01*
X35105714Y9159048D01*
X35058095Y9063810D01*
X35010476Y9016191D01*
X34915238Y8968572D01*
X34724761Y8968572D01*
X34629523Y9016191D01*
X34581904Y9063810D01*
X34534285Y9159048D01*
X31410476Y987620D02*
X31981904Y987620D01*
X31696190Y987620D02*
X31696190Y1987620D01*
X31791428Y1844762D01*
X31886666Y1749524D01*
X31981904Y1701905D01*
X30553333Y1654286D02*
X30553333Y987620D01*
X30791428Y2035239D02*
X31029523Y1320953D01*
X30410476Y1320953D01*
D11*
%TO.C,P7*%
X49172380Y4478096D02*
X48172380Y4478096D01*
X48172380Y4097143D01*
X48220000Y4001905D01*
X48267619Y3954286D01*
X48362857Y3906667D01*
X48505714Y3906667D01*
X48600952Y3954286D01*
X48648571Y4001905D01*
X48696190Y4097143D01*
X48696190Y4478096D01*
X48172380Y3573334D02*
X48172380Y2906667D01*
X49172380Y3335239D01*
%TO.C,P11*%
X72572380Y4954286D02*
X71572380Y4954286D01*
X71572380Y4573334D01*
X71620000Y4478096D01*
X71667619Y4430477D01*
X71762857Y4382858D01*
X71905714Y4382858D01*
X72000952Y4430477D01*
X72048571Y4478096D01*
X72096190Y4573334D01*
X72096190Y4954286D01*
X72572380Y3430477D02*
X72572380Y4001905D01*
X72572380Y3716191D02*
X71572380Y3716191D01*
X71715238Y3811429D01*
X71810476Y3906667D01*
X71858095Y4001905D01*
X72572380Y2478096D02*
X72572380Y3049524D01*
X72572380Y2763810D02*
X71572380Y2763810D01*
X71715238Y2859048D01*
X71810476Y2954286D01*
X71858095Y3049524D01*
D16*
%TO.C,P1*%
X46459986Y62591527D02*
X45570986Y62591527D01*
X45570986Y62252860D01*
X45613320Y62168194D01*
X45655653Y62125860D01*
X45740320Y62083527D01*
X45867320Y62083527D01*
X45951986Y62125860D01*
X45994320Y62168194D01*
X46036653Y62252860D01*
X46036653Y62591527D01*
X46459986Y61236860D02*
X46459986Y61744860D01*
X46459986Y61490860D02*
X45570986Y61490860D01*
X45697986Y61575527D01*
X45782653Y61660194D01*
X45824986Y61744860D01*
X41740666Y62039500D02*
X41613666Y61997167D01*
X41571333Y61954834D01*
X41529000Y61870167D01*
X41529000Y61743167D01*
X41571333Y61658500D01*
X41613666Y61616167D01*
X41698333Y61573834D01*
X42037000Y61573834D01*
X42037000Y62462834D01*
X41740666Y62462834D01*
X41656000Y62420500D01*
X41613666Y62378167D01*
X41571333Y62293500D01*
X41571333Y62208834D01*
X41613666Y62124167D01*
X41656000Y62081834D01*
X41740666Y62039500D01*
X42037000Y62039500D01*
X41275000Y62462834D02*
X40767000Y62462834D01*
X41021000Y61573834D02*
X41021000Y62462834D01*
X40470666Y61573834D02*
X40470666Y62462834D01*
X40470666Y62039500D02*
X39962666Y62039500D01*
X39962666Y61573834D02*
X39962666Y62462834D01*
X39539333Y61912500D02*
X38862000Y61912500D01*
X38269333Y62462834D02*
X38184666Y62462834D01*
X38100000Y62420500D01*
X38057666Y62378167D01*
X38015333Y62293500D01*
X37973000Y62124167D01*
X37973000Y61912500D01*
X38015333Y61743167D01*
X38057666Y61658500D01*
X38100000Y61616167D01*
X38184666Y61573834D01*
X38269333Y61573834D01*
X38354000Y61616167D01*
X38396333Y61658500D01*
X38438666Y61743167D01*
X38481000Y61912500D01*
X38481000Y62124167D01*
X38438666Y62293500D01*
X38396333Y62378167D01*
X38354000Y62420500D01*
X38269333Y62462834D01*
X37676666Y62462834D02*
X37126333Y62462834D01*
X37422666Y62124167D01*
X37295666Y62124167D01*
X37211000Y62081834D01*
X37168666Y62039500D01*
X37126333Y61954834D01*
X37126333Y61743167D01*
X37168666Y61658500D01*
X37211000Y61616167D01*
X37295666Y61573834D01*
X37549666Y61573834D01*
X37634333Y61616167D01*
X37676666Y61658500D01*
X36576000Y62462834D02*
X36491333Y62462834D01*
X36406666Y62420500D01*
X36364333Y62378167D01*
X36322000Y62293500D01*
X36279666Y62124167D01*
X36279666Y61912500D01*
X36322000Y61743167D01*
X36364333Y61658500D01*
X36406666Y61616167D01*
X36491333Y61573834D01*
X36576000Y61573834D01*
X36660666Y61616167D01*
X36703000Y61658500D01*
X36745333Y61743167D01*
X36787666Y61912500D01*
X36787666Y62124167D01*
X36745333Y62293500D01*
X36703000Y62378167D01*
X36660666Y62420500D01*
X36576000Y62462834D01*
X35898666Y61912500D02*
X35221333Y61912500D01*
X34628666Y62462834D02*
X34544000Y62462834D01*
X34459333Y62420500D01*
X34417000Y62378167D01*
X34374666Y62293500D01*
X34332333Y62124167D01*
X34332333Y61912500D01*
X34374666Y61743167D01*
X34417000Y61658500D01*
X34459333Y61616167D01*
X34544000Y61573834D01*
X34628666Y61573834D01*
X34713333Y61616167D01*
X34755666Y61658500D01*
X34798000Y61743167D01*
X34840333Y61912500D01*
X34840333Y62124167D01*
X34798000Y62293500D01*
X34755666Y62378167D01*
X34713333Y62420500D01*
X34628666Y62462834D01*
X33485666Y61573834D02*
X33993666Y61573834D01*
X33739666Y61573834D02*
X33739666Y62462834D01*
X33824333Y62335834D01*
X33909000Y62251167D01*
X33993666Y62208834D01*
X33104666Y61912500D02*
X32427333Y61912500D01*
X31707666Y62039500D02*
X32004000Y62039500D01*
X32004000Y61573834D02*
X32004000Y62462834D01*
X31580666Y62462834D01*
X31242000Y61912500D02*
X30564666Y61912500D01*
X30141333Y61573834D02*
X30141333Y62462834D01*
X29929666Y62462834D01*
X29802666Y62420500D01*
X29718000Y62335834D01*
X29675666Y62251167D01*
X29633333Y62081834D01*
X29633333Y61954834D01*
X29675666Y61785500D01*
X29718000Y61700834D01*
X29802666Y61616167D01*
X29929666Y61573834D01*
X30141333Y61573834D01*
X29252333Y61912500D02*
X28575000Y61912500D01*
X28194000Y61827834D02*
X27770666Y61827834D01*
X28278666Y61573834D02*
X27982333Y62462834D01*
X27686000Y61573834D01*
%TO.C,P2*%
X89639986Y62591527D02*
X88750986Y62591527D01*
X88750986Y62252860D01*
X88793320Y62168194D01*
X88835653Y62125860D01*
X88920320Y62083527D01*
X89047320Y62083527D01*
X89131986Y62125860D01*
X89174320Y62168194D01*
X89216653Y62252860D01*
X89216653Y62591527D01*
X88835653Y61744860D02*
X88793320Y61702527D01*
X88750986Y61617860D01*
X88750986Y61406194D01*
X88793320Y61321527D01*
X88835653Y61279194D01*
X88920320Y61236860D01*
X89004986Y61236860D01*
X89131986Y61279194D01*
X89639986Y61787194D01*
X89639986Y61236860D01*
X84920666Y62039500D02*
X84793666Y61997167D01*
X84751333Y61954834D01*
X84709000Y61870167D01*
X84709000Y61743167D01*
X84751333Y61658500D01*
X84793666Y61616167D01*
X84878333Y61573834D01*
X85217000Y61573834D01*
X85217000Y62462834D01*
X84920666Y62462834D01*
X84836000Y62420500D01*
X84793666Y62378167D01*
X84751333Y62293500D01*
X84751333Y62208834D01*
X84793666Y62124167D01*
X84836000Y62081834D01*
X84920666Y62039500D01*
X85217000Y62039500D01*
X84455000Y62462834D02*
X83947000Y62462834D01*
X84201000Y61573834D02*
X84201000Y62462834D01*
X83650666Y61573834D02*
X83650666Y62462834D01*
X83650666Y62039500D02*
X83142666Y62039500D01*
X83142666Y61573834D02*
X83142666Y62462834D01*
X82719333Y61912500D02*
X82042000Y61912500D01*
X81449333Y62462834D02*
X81364666Y62462834D01*
X81280000Y62420500D01*
X81237666Y62378167D01*
X81195333Y62293500D01*
X81153000Y62124167D01*
X81153000Y61912500D01*
X81195333Y61743167D01*
X81237666Y61658500D01*
X81280000Y61616167D01*
X81364666Y61573834D01*
X81449333Y61573834D01*
X81534000Y61616167D01*
X81576333Y61658500D01*
X81618666Y61743167D01*
X81661000Y61912500D01*
X81661000Y62124167D01*
X81618666Y62293500D01*
X81576333Y62378167D01*
X81534000Y62420500D01*
X81449333Y62462834D01*
X80856666Y62462834D02*
X80306333Y62462834D01*
X80602666Y62124167D01*
X80475666Y62124167D01*
X80391000Y62081834D01*
X80348666Y62039500D01*
X80306333Y61954834D01*
X80306333Y61743167D01*
X80348666Y61658500D01*
X80391000Y61616167D01*
X80475666Y61573834D01*
X80729666Y61573834D01*
X80814333Y61616167D01*
X80856666Y61658500D01*
X79756000Y62462834D02*
X79671333Y62462834D01*
X79586666Y62420500D01*
X79544333Y62378167D01*
X79502000Y62293500D01*
X79459666Y62124167D01*
X79459666Y61912500D01*
X79502000Y61743167D01*
X79544333Y61658500D01*
X79586666Y61616167D01*
X79671333Y61573834D01*
X79756000Y61573834D01*
X79840666Y61616167D01*
X79883000Y61658500D01*
X79925333Y61743167D01*
X79967666Y61912500D01*
X79967666Y62124167D01*
X79925333Y62293500D01*
X79883000Y62378167D01*
X79840666Y62420500D01*
X79756000Y62462834D01*
X79078666Y61912500D02*
X78401333Y61912500D01*
X77808666Y62462834D02*
X77724000Y62462834D01*
X77639333Y62420500D01*
X77597000Y62378167D01*
X77554666Y62293500D01*
X77512333Y62124167D01*
X77512333Y61912500D01*
X77554666Y61743167D01*
X77597000Y61658500D01*
X77639333Y61616167D01*
X77724000Y61573834D01*
X77808666Y61573834D01*
X77893333Y61616167D01*
X77935666Y61658500D01*
X77978000Y61743167D01*
X78020333Y61912500D01*
X78020333Y62124167D01*
X77978000Y62293500D01*
X77935666Y62378167D01*
X77893333Y62420500D01*
X77808666Y62462834D01*
X76665666Y61573834D02*
X77173666Y61573834D01*
X76919666Y61573834D02*
X76919666Y62462834D01*
X77004333Y62335834D01*
X77089000Y62251167D01*
X77173666Y62208834D01*
X76284666Y61912500D02*
X75607333Y61912500D01*
X74887666Y62039500D02*
X75184000Y62039500D01*
X75184000Y61573834D02*
X75184000Y62462834D01*
X74760666Y62462834D01*
X74422000Y61912500D02*
X73744666Y61912500D01*
X73321333Y61573834D02*
X73321333Y62462834D01*
X73109666Y62462834D01*
X72982666Y62420500D01*
X72898000Y62335834D01*
X72855666Y62251167D01*
X72813333Y62081834D01*
X72813333Y61954834D01*
X72855666Y61785500D01*
X72898000Y61700834D01*
X72982666Y61616167D01*
X73109666Y61573834D01*
X73321333Y61573834D01*
X72432333Y61912500D02*
X71755000Y61912500D01*
X71374000Y61827834D02*
X70950666Y61827834D01*
X71458666Y61573834D02*
X71162333Y62462834D01*
X70866000Y61573834D01*
%TO.C,P3*%
X46459986Y17379527D02*
X45570986Y17379527D01*
X45570986Y17040860D01*
X45613320Y16956194D01*
X45655653Y16913860D01*
X45740320Y16871527D01*
X45867320Y16871527D01*
X45951986Y16913860D01*
X45994320Y16956194D01*
X46036653Y17040860D01*
X46036653Y17379527D01*
X45570986Y16575194D02*
X45570986Y16024860D01*
X45909653Y16321194D01*
X45909653Y16194194D01*
X45951986Y16109527D01*
X45994320Y16067194D01*
X46078986Y16024860D01*
X46290653Y16024860D01*
X46375320Y16067194D01*
X46417653Y16109527D01*
X46459986Y16194194D01*
X46459986Y16448194D01*
X46417653Y16532860D01*
X46375320Y16575194D01*
X41740666Y16827500D02*
X41613666Y16785167D01*
X41571333Y16742834D01*
X41529000Y16658167D01*
X41529000Y16531167D01*
X41571333Y16446500D01*
X41613666Y16404167D01*
X41698333Y16361834D01*
X42037000Y16361834D01*
X42037000Y17250834D01*
X41740666Y17250834D01*
X41656000Y17208500D01*
X41613666Y17166167D01*
X41571333Y17081500D01*
X41571333Y16996834D01*
X41613666Y16912167D01*
X41656000Y16869834D01*
X41740666Y16827500D01*
X42037000Y16827500D01*
X41275000Y17250834D02*
X40767000Y17250834D01*
X41021000Y16361834D02*
X41021000Y17250834D01*
X40470666Y16361834D02*
X40470666Y17250834D01*
X40470666Y16827500D02*
X39962666Y16827500D01*
X39962666Y16361834D02*
X39962666Y17250834D01*
X39539333Y16700500D02*
X38862000Y16700500D01*
X38269333Y17250834D02*
X38184666Y17250834D01*
X38100000Y17208500D01*
X38057666Y17166167D01*
X38015333Y17081500D01*
X37973000Y16912167D01*
X37973000Y16700500D01*
X38015333Y16531167D01*
X38057666Y16446500D01*
X38100000Y16404167D01*
X38184666Y16361834D01*
X38269333Y16361834D01*
X38354000Y16404167D01*
X38396333Y16446500D01*
X38438666Y16531167D01*
X38481000Y16700500D01*
X38481000Y16912167D01*
X38438666Y17081500D01*
X38396333Y17166167D01*
X38354000Y17208500D01*
X38269333Y17250834D01*
X37676666Y17250834D02*
X37126333Y17250834D01*
X37422666Y16912167D01*
X37295666Y16912167D01*
X37211000Y16869834D01*
X37168666Y16827500D01*
X37126333Y16742834D01*
X37126333Y16531167D01*
X37168666Y16446500D01*
X37211000Y16404167D01*
X37295666Y16361834D01*
X37549666Y16361834D01*
X37634333Y16404167D01*
X37676666Y16446500D01*
X36576000Y17250834D02*
X36491333Y17250834D01*
X36406666Y17208500D01*
X36364333Y17166167D01*
X36322000Y17081500D01*
X36279666Y16912167D01*
X36279666Y16700500D01*
X36322000Y16531167D01*
X36364333Y16446500D01*
X36406666Y16404167D01*
X36491333Y16361834D01*
X36576000Y16361834D01*
X36660666Y16404167D01*
X36703000Y16446500D01*
X36745333Y16531167D01*
X36787666Y16700500D01*
X36787666Y16912167D01*
X36745333Y17081500D01*
X36703000Y17166167D01*
X36660666Y17208500D01*
X36576000Y17250834D01*
X35898666Y16700500D02*
X35221333Y16700500D01*
X34628666Y17250834D02*
X34544000Y17250834D01*
X34459333Y17208500D01*
X34417000Y17166167D01*
X34374666Y17081500D01*
X34332333Y16912167D01*
X34332333Y16700500D01*
X34374666Y16531167D01*
X34417000Y16446500D01*
X34459333Y16404167D01*
X34544000Y16361834D01*
X34628666Y16361834D01*
X34713333Y16404167D01*
X34755666Y16446500D01*
X34798000Y16531167D01*
X34840333Y16700500D01*
X34840333Y16912167D01*
X34798000Y17081500D01*
X34755666Y17166167D01*
X34713333Y17208500D01*
X34628666Y17250834D01*
X33485666Y16361834D02*
X33993666Y16361834D01*
X33739666Y16361834D02*
X33739666Y17250834D01*
X33824333Y17123834D01*
X33909000Y17039167D01*
X33993666Y16996834D01*
X33104666Y16700500D02*
X32427333Y16700500D01*
X31707666Y16827500D02*
X32004000Y16827500D01*
X32004000Y16361834D02*
X32004000Y17250834D01*
X31580666Y17250834D01*
X31242000Y16700500D02*
X30564666Y16700500D01*
X30141333Y16361834D02*
X30141333Y17250834D01*
X29929666Y17250834D01*
X29802666Y17208500D01*
X29718000Y17123834D01*
X29675666Y17039167D01*
X29633333Y16869834D01*
X29633333Y16742834D01*
X29675666Y16573500D01*
X29718000Y16488834D01*
X29802666Y16404167D01*
X29929666Y16361834D01*
X30141333Y16361834D01*
X29252333Y16700500D02*
X28575000Y16700500D01*
X28194000Y16615834D02*
X27770666Y16615834D01*
X28278666Y16361834D02*
X27982333Y17250834D01*
X27686000Y16361834D01*
%TO.C,P4*%
X89639986Y17379527D02*
X88750986Y17379527D01*
X88750986Y17040860D01*
X88793320Y16956194D01*
X88835653Y16913860D01*
X88920320Y16871527D01*
X89047320Y16871527D01*
X89131986Y16913860D01*
X89174320Y16956194D01*
X89216653Y17040860D01*
X89216653Y17379527D01*
X89047320Y16109527D02*
X89639986Y16109527D01*
X88708653Y16321194D02*
X89343653Y16532860D01*
X89343653Y15982527D01*
X84920666Y16827500D02*
X84793666Y16785167D01*
X84751333Y16742834D01*
X84709000Y16658167D01*
X84709000Y16531167D01*
X84751333Y16446500D01*
X84793666Y16404167D01*
X84878333Y16361834D01*
X85217000Y16361834D01*
X85217000Y17250834D01*
X84920666Y17250834D01*
X84836000Y17208500D01*
X84793666Y17166167D01*
X84751333Y17081500D01*
X84751333Y16996834D01*
X84793666Y16912167D01*
X84836000Y16869834D01*
X84920666Y16827500D01*
X85217000Y16827500D01*
X84455000Y17250834D02*
X83947000Y17250834D01*
X84201000Y16361834D02*
X84201000Y17250834D01*
X83650666Y16361834D02*
X83650666Y17250834D01*
X83650666Y16827500D02*
X83142666Y16827500D01*
X83142666Y16361834D02*
X83142666Y17250834D01*
X82719333Y16700500D02*
X82042000Y16700500D01*
X81449333Y17250834D02*
X81364666Y17250834D01*
X81280000Y17208500D01*
X81237666Y17166167D01*
X81195333Y17081500D01*
X81153000Y16912167D01*
X81153000Y16700500D01*
X81195333Y16531167D01*
X81237666Y16446500D01*
X81280000Y16404167D01*
X81364666Y16361834D01*
X81449333Y16361834D01*
X81534000Y16404167D01*
X81576333Y16446500D01*
X81618666Y16531167D01*
X81661000Y16700500D01*
X81661000Y16912167D01*
X81618666Y17081500D01*
X81576333Y17166167D01*
X81534000Y17208500D01*
X81449333Y17250834D01*
X80856666Y17250834D02*
X80306333Y17250834D01*
X80602666Y16912167D01*
X80475666Y16912167D01*
X80391000Y16869834D01*
X80348666Y16827500D01*
X80306333Y16742834D01*
X80306333Y16531167D01*
X80348666Y16446500D01*
X80391000Y16404167D01*
X80475666Y16361834D01*
X80729666Y16361834D01*
X80814333Y16404167D01*
X80856666Y16446500D01*
X79756000Y17250834D02*
X79671333Y17250834D01*
X79586666Y17208500D01*
X79544333Y17166167D01*
X79502000Y17081500D01*
X79459666Y16912167D01*
X79459666Y16700500D01*
X79502000Y16531167D01*
X79544333Y16446500D01*
X79586666Y16404167D01*
X79671333Y16361834D01*
X79756000Y16361834D01*
X79840666Y16404167D01*
X79883000Y16446500D01*
X79925333Y16531167D01*
X79967666Y16700500D01*
X79967666Y16912167D01*
X79925333Y17081500D01*
X79883000Y17166167D01*
X79840666Y17208500D01*
X79756000Y17250834D01*
X79078666Y16700500D02*
X78401333Y16700500D01*
X77808666Y17250834D02*
X77724000Y17250834D01*
X77639333Y17208500D01*
X77597000Y17166167D01*
X77554666Y17081500D01*
X77512333Y16912167D01*
X77512333Y16700500D01*
X77554666Y16531167D01*
X77597000Y16446500D01*
X77639333Y16404167D01*
X77724000Y16361834D01*
X77808666Y16361834D01*
X77893333Y16404167D01*
X77935666Y16446500D01*
X77978000Y16531167D01*
X78020333Y16700500D01*
X78020333Y16912167D01*
X77978000Y17081500D01*
X77935666Y17166167D01*
X77893333Y17208500D01*
X77808666Y17250834D01*
X76665666Y16361834D02*
X77173666Y16361834D01*
X76919666Y16361834D02*
X76919666Y17250834D01*
X77004333Y17123834D01*
X77089000Y17039167D01*
X77173666Y16996834D01*
X76284666Y16700500D02*
X75607333Y16700500D01*
X74887666Y16827500D02*
X75184000Y16827500D01*
X75184000Y16361834D02*
X75184000Y17250834D01*
X74760666Y17250834D01*
X74422000Y16700500D02*
X73744666Y16700500D01*
X73321333Y16361834D02*
X73321333Y17250834D01*
X73109666Y17250834D01*
X72982666Y17208500D01*
X72898000Y17123834D01*
X72855666Y17039167D01*
X72813333Y16869834D01*
X72813333Y16742834D01*
X72855666Y16573500D01*
X72898000Y16488834D01*
X72982666Y16404167D01*
X73109666Y16361834D01*
X73321333Y16361834D01*
X72432333Y16700500D02*
X71755000Y16700500D01*
X71374000Y16615834D02*
X70950666Y16615834D01*
X71458666Y16361834D02*
X71162333Y17250834D01*
X70866000Y16361834D01*
D11*
%TO.C,P5*%
X66258095Y68587620D02*
X66258095Y69587620D01*
X65877142Y69587620D01*
X65781904Y69540000D01*
X65734285Y69492381D01*
X65686666Y69397143D01*
X65686666Y69254286D01*
X65734285Y69159048D01*
X65781904Y69111429D01*
X65877142Y69063810D01*
X66258095Y69063810D01*
X64781904Y69587620D02*
X65258095Y69587620D01*
X65305714Y69111429D01*
X65258095Y69159048D01*
X65162857Y69206667D01*
X64924761Y69206667D01*
X64829523Y69159048D01*
X64781904Y69111429D01*
X64734285Y69016191D01*
X64734285Y68778096D01*
X64781904Y68682858D01*
X64829523Y68635239D01*
X64924761Y68587620D01*
X65162857Y68587620D01*
X65258095Y68635239D01*
X65305714Y68682858D01*
%TO.C,P9*%
X83172380Y4178096D02*
X82172380Y4178096D01*
X82172380Y3797143D01*
X82220000Y3701905D01*
X82267619Y3654286D01*
X82362857Y3606667D01*
X82505714Y3606667D01*
X82600952Y3654286D01*
X82648571Y3701905D01*
X82696190Y3797143D01*
X82696190Y4178096D01*
X83172380Y3130477D02*
X83172380Y2940000D01*
X83124761Y2844762D01*
X83077142Y2797143D01*
X82934285Y2701905D01*
X82743809Y2654286D01*
X82362857Y2654286D01*
X82267619Y2701905D01*
X82220000Y2749524D01*
X82172380Y2844762D01*
X82172380Y3035239D01*
X82220000Y3130477D01*
X82267619Y3178096D01*
X82362857Y3225715D01*
X82600952Y3225715D01*
X82696190Y3178096D01*
X82743809Y3130477D01*
X82791428Y3035239D01*
X82791428Y2844762D01*
X82743809Y2749524D01*
X82696190Y2701905D01*
X82600952Y2654286D01*
D10*
%TO.C,P6*%
X21958095Y68787620D02*
X21958095Y69787620D01*
X21577142Y69787620D01*
X21481904Y69740000D01*
X21434285Y69692381D01*
X21386666Y69597143D01*
X21386666Y69454286D01*
X21434285Y69359048D01*
X21481904Y69311429D01*
X21577142Y69263810D01*
X21958095Y69263810D01*
X20529523Y69787620D02*
X20720000Y69787620D01*
X20815238Y69740000D01*
X20862857Y69692381D01*
X20958095Y69549524D01*
X21005714Y69359048D01*
X21005714Y68978096D01*
X20958095Y68882858D01*
X20910476Y68835239D01*
X20815238Y68787620D01*
X20624761Y68787620D01*
X20529523Y68835239D01*
X20481904Y68882858D01*
X20434285Y68978096D01*
X20434285Y69216191D01*
X20481904Y69311429D01*
X20529523Y69359048D01*
X20624761Y69406667D01*
X20815238Y69406667D01*
X20910476Y69359048D01*
X20958095Y69311429D01*
X21005714Y69216191D01*
%TO.C,P10*%
X87134285Y77287620D02*
X87134285Y78287620D01*
X86753333Y78287620D01*
X86658095Y78240000D01*
X86610476Y78192381D01*
X86562857Y78097143D01*
X86562857Y77954286D01*
X86610476Y77859048D01*
X86658095Y77811429D01*
X86753333Y77763810D01*
X87134285Y77763810D01*
X85610476Y77287620D02*
X86181904Y77287620D01*
X85896190Y77287620D02*
X85896190Y78287620D01*
X85991428Y78144762D01*
X86086666Y78049524D01*
X86181904Y78001905D01*
X84991428Y78287620D02*
X84896190Y78287620D01*
X84800952Y78240000D01*
X84753333Y78192381D01*
X84705714Y78097143D01*
X84658095Y77906667D01*
X84658095Y77668572D01*
X84705714Y77478096D01*
X84753333Y77382858D01*
X84800952Y77335239D01*
X84896190Y77287620D01*
X84991428Y77287620D01*
X85086666Y77335239D01*
X85134285Y77382858D01*
X85181904Y77478096D01*
X85229523Y77668572D01*
X85229523Y77906667D01*
X85181904Y78097143D01*
X85134285Y78192381D01*
X85086666Y78240000D01*
X84991428Y78287620D01*
%TO.C,C1*%
X91257142Y9406667D02*
X91304761Y9454286D01*
X91352380Y9597143D01*
X91352380Y9692381D01*
X91304761Y9835239D01*
X91209523Y9930477D01*
X91114285Y9978096D01*
X90923809Y10025715D01*
X90780952Y10025715D01*
X90590476Y9978096D01*
X90495238Y9930477D01*
X90400000Y9835239D01*
X90352380Y9692381D01*
X90352380Y9597143D01*
X90400000Y9454286D01*
X90447619Y9406667D01*
X91352380Y8454286D02*
X91352380Y9025715D01*
X91352380Y8740000D02*
X90352380Y8740000D01*
X90495238Y8835239D01*
X90590476Y8930477D01*
X90638095Y9025715D01*
%TO.C,C2*%
X91977142Y5106667D02*
X92024761Y5154286D01*
X92072380Y5297143D01*
X92072380Y5392381D01*
X92024761Y5535239D01*
X91929523Y5630477D01*
X91834285Y5678096D01*
X91643809Y5725715D01*
X91500952Y5725715D01*
X91310476Y5678096D01*
X91215238Y5630477D01*
X91120000Y5535239D01*
X91072380Y5392381D01*
X91072380Y5297143D01*
X91120000Y5154286D01*
X91167619Y5106667D01*
X91167619Y4725715D02*
X91120000Y4678096D01*
X91072380Y4582858D01*
X91072380Y4344762D01*
X91120000Y4249524D01*
X91167619Y4201905D01*
X91262857Y4154286D01*
X91358095Y4154286D01*
X91500952Y4201905D01*
X92072380Y4773334D01*
X92072380Y4154286D01*
%TO.C,D1*%
X86058095Y10187620D02*
X86058095Y11187620D01*
X85820000Y11187620D01*
X85677142Y11140000D01*
X85581904Y11044762D01*
X85534285Y10949524D01*
X85486666Y10759048D01*
X85486666Y10616191D01*
X85534285Y10425715D01*
X85581904Y10330477D01*
X85677142Y10235239D01*
X85820000Y10187620D01*
X86058095Y10187620D01*
X84534285Y10187620D02*
X85105714Y10187620D01*
X84820000Y10187620D02*
X84820000Y11187620D01*
X84915238Y11044762D01*
X85010476Y10949524D01*
X85105714Y10901905D01*
%TO.C,C3*%
X68364166Y77877858D02*
X68411785Y77830239D01*
X68554642Y77782620D01*
X68649880Y77782620D01*
X68792738Y77830239D01*
X68887976Y77925477D01*
X68935595Y78020715D01*
X68983214Y78211191D01*
X68983214Y78354048D01*
X68935595Y78544524D01*
X68887976Y78639762D01*
X68792738Y78735000D01*
X68649880Y78782620D01*
X68554642Y78782620D01*
X68411785Y78735000D01*
X68364166Y78687381D01*
X68030833Y78782620D02*
X67411785Y78782620D01*
X67745119Y78401667D01*
X67602261Y78401667D01*
X67507023Y78354048D01*
X67459404Y78306429D01*
X67411785Y78211191D01*
X67411785Y77973096D01*
X67459404Y77877858D01*
X67507023Y77830239D01*
X67602261Y77782620D01*
X67887976Y77782620D01*
X67983214Y77830239D01*
X68030833Y77877858D01*
%TO.C,C4*%
X2343142Y89302167D02*
X2390761Y89349786D01*
X2438380Y89492643D01*
X2438380Y89587881D01*
X2390761Y89730739D01*
X2295523Y89825977D01*
X2200285Y89873596D01*
X2009809Y89921215D01*
X1866952Y89921215D01*
X1676476Y89873596D01*
X1581238Y89825977D01*
X1486000Y89730739D01*
X1438380Y89587881D01*
X1438380Y89492643D01*
X1486000Y89349786D01*
X1533619Y89302167D01*
X1771714Y88445024D02*
X2438380Y88445024D01*
X1390761Y88683120D02*
X2105047Y88921215D01*
X2105047Y88302167D01*
%TO.C,R1*%
X68536666Y83137620D02*
X68870000Y83613810D01*
X69108095Y83137620D02*
X69108095Y84137620D01*
X68727142Y84137620D01*
X68631904Y84090000D01*
X68584285Y84042381D01*
X68536666Y83947143D01*
X68536666Y83804286D01*
X68584285Y83709048D01*
X68631904Y83661429D01*
X68727142Y83613810D01*
X69108095Y83613810D01*
X67584285Y83137620D02*
X68155714Y83137620D01*
X67870000Y83137620D02*
X67870000Y84137620D01*
X67965238Y83994762D01*
X68060476Y83899524D01*
X68155714Y83851905D01*
%TO.C,R2*%
X4682380Y89342667D02*
X4206190Y89676000D01*
X4682380Y89914096D02*
X3682380Y89914096D01*
X3682380Y89533143D01*
X3730000Y89437905D01*
X3777619Y89390286D01*
X3872857Y89342667D01*
X4015714Y89342667D01*
X4110952Y89390286D01*
X4158571Y89437905D01*
X4206190Y89533143D01*
X4206190Y89914096D01*
X3777619Y88961715D02*
X3730000Y88914096D01*
X3682380Y88818858D01*
X3682380Y88580762D01*
X3730000Y88485524D01*
X3777619Y88437905D01*
X3872857Y88390286D01*
X3968095Y88390286D01*
X4110952Y88437905D01*
X4682380Y89009334D01*
X4682380Y88390286D01*
D17*
%TO.C,SW1*%
X7169238Y16594667D02*
X7217619Y16449524D01*
X7217619Y16207620D01*
X7169238Y16110858D01*
X7120857Y16062477D01*
X7024095Y16014096D01*
X6927333Y16014096D01*
X6830571Y16062477D01*
X6782190Y16110858D01*
X6733809Y16207620D01*
X6685428Y16401143D01*
X6637047Y16497905D01*
X6588666Y16546286D01*
X6491904Y16594667D01*
X6395142Y16594667D01*
X6298380Y16546286D01*
X6250000Y16497905D01*
X6201619Y16401143D01*
X6201619Y16159239D01*
X6250000Y16014096D01*
X6201619Y15675429D02*
X7217619Y15433524D01*
X6491904Y15240000D01*
X7217619Y15046477D01*
X6201619Y14804572D01*
X7217619Y13885334D02*
X7217619Y14465905D01*
X7217619Y14175620D02*
X6201619Y14175620D01*
X6346761Y14272381D01*
X6443523Y14369143D01*
X6491904Y14465905D01*
D10*
%TO.C,R3*%
X37686666Y10387620D02*
X38020000Y10863810D01*
X38258095Y10387620D02*
X38258095Y11387620D01*
X37877142Y11387620D01*
X37781904Y11340000D01*
X37734285Y11292381D01*
X37686666Y11197143D01*
X37686666Y11054286D01*
X37734285Y10959048D01*
X37781904Y10911429D01*
X37877142Y10863810D01*
X38258095Y10863810D01*
X37353333Y11387620D02*
X36734285Y11387620D01*
X37067619Y11006667D01*
X36924761Y11006667D01*
X36829523Y10959048D01*
X36781904Y10911429D01*
X36734285Y10816191D01*
X36734285Y10578096D01*
X36781904Y10482858D01*
X36829523Y10435239D01*
X36924761Y10387620D01*
X37210476Y10387620D01*
X37305714Y10435239D01*
X37353333Y10482858D01*
D17*
%TO.C,P1*%
X44924980Y60515500D02*
X43400980Y58991500D01*
X44924980Y64960500D02*
X44924980Y60515500D01*
X42926000Y58991500D02*
X43400980Y58991500D01*
X24917400Y64960500D02*
X24917400Y60515500D01*
X26924000Y58991500D02*
X26449020Y58991500D01*
X42926000Y64960500D02*
X44924980Y64960500D01*
X24925020Y60515500D02*
X26449020Y58991500D01*
X26924000Y64960500D02*
X24925020Y64960500D01*
X44304211Y66230500D02*
G75*
G03*
X44304211Y66230500I-689871J0D01*
G01*
%TO.C,P2*%
X86106000Y58991500D02*
X86580980Y58991500D01*
X88104980Y64960500D02*
X88104980Y60515500D01*
X70104000Y58991500D02*
X69629020Y58991500D01*
X68105020Y60515500D02*
X69629020Y58991500D01*
X68097400Y64960500D02*
X68097400Y60515500D01*
X86106000Y64960500D02*
X88104980Y64960500D01*
X88104980Y60515500D02*
X86580980Y58991500D01*
X70104000Y64960500D02*
X68105020Y64960500D01*
X87484211Y66230500D02*
G75*
G03*
X87484211Y66230500I-689871J0D01*
G01*
%TO.C,P3*%
X26924000Y19748500D02*
X24925020Y19748500D01*
X24917400Y19748500D02*
X24917400Y15303500D01*
X44924980Y19748500D02*
X44924980Y15303500D01*
X26924000Y13779500D02*
X26449020Y13779500D01*
X42926000Y19748500D02*
X44924980Y19748500D01*
X42926000Y13779500D02*
X43400980Y13779500D01*
X24925020Y15303500D02*
X26449020Y13779500D01*
X44924980Y15303500D02*
X43400980Y13779500D01*
X44304211Y21018500D02*
G75*
G03*
X44304211Y21018500I-689871J0D01*
G01*
%TO.C,P4*%
X70104000Y13779500D02*
X69629020Y13779500D01*
X68105020Y15303500D02*
X69629020Y13779500D01*
X68097400Y19748500D02*
X68097400Y15303500D01*
X70104000Y19748500D02*
X68105020Y19748500D01*
X86106000Y19748500D02*
X88104980Y19748500D01*
X86106000Y13779500D02*
X86580980Y13779500D01*
X88104980Y15303500D02*
X86580980Y13779500D01*
X88104980Y19748500D02*
X88104980Y15303500D01*
X87484211Y21018500D02*
G75*
G03*
X87484211Y21018500I-689871J0D01*
G01*
D18*
%TO.C,P5*%
X47015000Y73029995D02*
X47015000Y74659995D01*
X66015000Y82299995D02*
X66015000Y83969995D01*
X66015000Y72029995D02*
X66015000Y74659995D01*
X66015000Y76269995D02*
X66015000Y78659995D01*
X47015000Y82290995D02*
X47015000Y83969995D01*
X47015000Y80260995D02*
X47015000Y80688995D01*
X50015000Y84359995D02*
X49515000Y84809995D01*
X47015000Y83969995D02*
X66015000Y83969995D01*
X49515000Y84809995D02*
X50515000Y84809995D01*
X66015000Y80269995D02*
X66015000Y80689995D01*
X50515000Y84809995D02*
X50015000Y84359995D01*
X47015000Y76269995D02*
X47015000Y78658995D01*
X47015000Y70969995D02*
X47015000Y71409995D01*
X64445000Y70969995D02*
X47015000Y70969995D01*
D10*
%TO.C,P9*%
X74210000Y2500000D02*
X81830000Y2500000D01*
X81830000Y7580000D02*
X74210000Y7580000D01*
X81830000Y2500000D02*
X81830000Y7580000D01*
X74210000Y7580000D02*
X74210000Y2500000D01*
D18*
%TO.C,P6*%
X19995000Y70969995D02*
X2565000Y70969995D01*
X5065000Y84809995D02*
X6065000Y84809995D01*
X6065000Y84809995D02*
X5565000Y84359995D01*
X2565000Y83969995D02*
X21565000Y83969995D01*
X2565000Y76269995D02*
X2565000Y78658995D01*
X2565000Y80260995D02*
X2565000Y80688995D01*
X5565000Y84359995D02*
X5065000Y84809995D01*
X2565000Y70969995D02*
X2565000Y71409995D01*
X2565000Y73029995D02*
X2565000Y74659995D01*
X2565000Y82290995D02*
X2565000Y83969995D01*
X21565000Y80269995D02*
X21565000Y80689995D01*
X21565000Y82299995D02*
X21565000Y83969995D01*
X21565000Y72029995D02*
X21565000Y74659995D01*
X21565000Y76269995D02*
X21565000Y78659995D01*
%TO.C,P10*%
X87167000Y84058000D02*
X70567000Y84058000D01*
X70567000Y79058000D02*
X87167000Y79058000D01*
X87167000Y79058000D02*
X87167000Y84058000D01*
X70567000Y84058000D02*
X70567000Y79058000D01*
%TO.C,C1*%
X89930000Y8981422D02*
X89930000Y9498578D01*
X88510000Y8981422D02*
X88510000Y9498578D01*
%TO.C,C2*%
X90580000Y5542064D02*
X90580000Y4337936D01*
X87860000Y5542064D02*
X87860000Y4337936D01*
%TO.C,D1*%
X83670000Y9690000D02*
X86970000Y9690000D01*
X83670000Y9690000D02*
X83670000Y4290000D01*
X86970000Y9690000D02*
X86970000Y4290000D01*
%TO.C,C3*%
X68456078Y80680000D02*
X67938922Y80680000D01*
X68456078Y79260000D02*
X67938922Y79260000D01*
%TO.C,C4*%
X1530000Y86231078D02*
X1530000Y85713922D01*
X2950000Y86231078D02*
X2950000Y85713922D01*
%TO.C,R1*%
X68597064Y82675000D02*
X68142936Y82675000D01*
X68597064Y81205000D02*
X68142936Y81205000D01*
%TO.C,R2*%
X3495000Y86367064D02*
X3495000Y85912936D01*
X4965000Y86367064D02*
X4965000Y85912936D01*
%TO.C,SW1*%
X10668000Y19040000D02*
X10668000Y11430000D01*
X3058000Y11440000D02*
X3558000Y11440000D01*
X5558000Y19040000D02*
X8158000Y19040000D01*
X10058000Y19040000D02*
X10668000Y19040000D01*
X5558000Y11440000D02*
X8158000Y11440000D01*
X3658000Y19040000D02*
X3058000Y19040000D01*
X3058000Y19040000D02*
X3058000Y11440000D01*
X10668000Y11430000D02*
X10061326Y11429259D01*
D19*
X9398000Y15240000D02*
G75*
G03*
X9398000Y15240000I-2540000J0D01*
G01*
D18*
%TO.C,R3*%
X37797064Y8555000D02*
X37342936Y8555000D01*
X37797064Y10025000D02*
X37342936Y10025000D01*
%TD*%
D20*
%TO.C,SW1*%
X4608000Y12090000D03*
X4608000Y18390000D03*
X9108000Y18390000D03*
X9108000Y12090000D03*
%TD*%
M02*
