%TF.GenerationSoftware,KiCad,Pcbnew,6.0.4-6f826c9f35~116~ubuntu20.04.1*%
%TF.CreationDate,2022-05-16T09:37:17+00:00*%
%TF.ProjectId,MPPB01B,4d505042-3031-4422-9e6b-696361645f70,**%
%TF.SameCoordinates,Original*%
%TF.FileFunction,Legend,Top*%
%TF.FilePolarity,Positive*%
%FSLAX46Y46*%
G04 Gerber Fmt 4.6, Leading zero omitted, Abs format (unit mm)*
G04 Created by KiCad (PCBNEW 6.0.4-6f826c9f35~116~ubuntu20.04.1) date 2022-05-16 09:37:17*
%MOMM*%
%LPD*%
G01*
G04 APERTURE LIST*
%ADD10C,0.200000*%
%ADD11C,0.150000*%
%ADD12R,1.524000X1.524000*%
G04 APERTURE END LIST*
D10*
X43948571Y36945239D02*
X43948571Y38945239D01*
X44615238Y37516667D01*
X45281904Y38945239D01*
X45281904Y36945239D01*
X46234285Y36945239D02*
X46234285Y38945239D01*
X46996190Y38945239D01*
X47186666Y38850000D01*
X47281904Y38754762D01*
X47377142Y38564286D01*
X47377142Y38278572D01*
X47281904Y38088096D01*
X47186666Y37992858D01*
X46996190Y37897620D01*
X46234285Y37897620D01*
X48234285Y36945239D02*
X48234285Y38945239D01*
X48996190Y38945239D01*
X49186666Y38850000D01*
X49281904Y38754762D01*
X49377142Y38564286D01*
X49377142Y38278572D01*
X49281904Y38088096D01*
X49186666Y37992858D01*
X48996190Y37897620D01*
X48234285Y37897620D01*
X50900952Y37992858D02*
X51186666Y37897620D01*
X51281904Y37802381D01*
X51377142Y37611905D01*
X51377142Y37326191D01*
X51281904Y37135715D01*
X51186666Y37040477D01*
X50996190Y36945239D01*
X50234285Y36945239D01*
X50234285Y38945239D01*
X50900952Y38945239D01*
X51091428Y38850000D01*
X51186666Y38754762D01*
X51281904Y38564286D01*
X51281904Y38373810D01*
X51186666Y38183334D01*
X51091428Y38088096D01*
X50900952Y37992858D01*
X50234285Y37992858D01*
X52615238Y38945239D02*
X52805714Y38945239D01*
X52996190Y38850000D01*
X53091428Y38754762D01*
X53186666Y38564286D01*
X53281904Y38183334D01*
X53281904Y37707143D01*
X53186666Y37326191D01*
X53091428Y37135715D01*
X52996190Y37040477D01*
X52805714Y36945239D01*
X52615238Y36945239D01*
X52424761Y37040477D01*
X52329523Y37135715D01*
X52234285Y37326191D01*
X52139047Y37707143D01*
X52139047Y38183334D01*
X52234285Y38564286D01*
X52329523Y38754762D01*
X52424761Y38850000D01*
X52615238Y38945239D01*
X55186666Y36945239D02*
X54043809Y36945239D01*
X54615238Y36945239D02*
X54615238Y38945239D01*
X54424761Y38659524D01*
X54234285Y38469048D01*
X54043809Y38373810D01*
X56710476Y37992858D02*
X56996190Y37897620D01*
X57091428Y37802381D01*
X57186666Y37611905D01*
X57186666Y37326191D01*
X57091428Y37135715D01*
X56996190Y37040477D01*
X56805714Y36945239D01*
X56043809Y36945239D01*
X56043809Y38945239D01*
X56710476Y38945239D01*
X56900952Y38850000D01*
X56996190Y38754762D01*
X57091428Y38564286D01*
X57091428Y38373810D01*
X56996190Y38183334D01*
X56900952Y38088096D01*
X56710476Y37992858D01*
X56043809Y37992858D01*
X42139047Y33725239D02*
X42139047Y35725239D01*
X42805714Y34296667D01*
X43472380Y35725239D01*
X43472380Y33725239D01*
X45377142Y33725239D02*
X44424761Y33725239D01*
X44424761Y35725239D01*
X45948571Y34296667D02*
X46900952Y34296667D01*
X45758095Y33725239D02*
X46424761Y35725239D01*
X47091428Y33725239D01*
X48424761Y34772858D02*
X48710476Y34677620D01*
X48805714Y34582381D01*
X48900952Y34391905D01*
X48900952Y34106191D01*
X48805714Y33915715D01*
X48710476Y33820477D01*
X48520000Y33725239D01*
X47758095Y33725239D01*
X47758095Y35725239D01*
X48424761Y35725239D01*
X48615238Y35630000D01*
X48710476Y35534762D01*
X48805714Y35344286D01*
X48805714Y35153810D01*
X48710476Y34963334D01*
X48615238Y34868096D01*
X48424761Y34772858D01*
X47758095Y34772858D01*
X49853333Y33820477D02*
X49853333Y33725239D01*
X49758095Y33534762D01*
X49662857Y33439524D01*
X52139047Y35534762D02*
X52234285Y35630000D01*
X52424761Y35725239D01*
X52900952Y35725239D01*
X53091428Y35630000D01*
X53186666Y35534762D01*
X53281904Y35344286D01*
X53281904Y35153810D01*
X53186666Y34868096D01*
X52043809Y33725239D01*
X53281904Y33725239D01*
X54520000Y35725239D02*
X54710476Y35725239D01*
X54900952Y35630000D01*
X54996190Y35534762D01*
X55091428Y35344286D01*
X55186666Y34963334D01*
X55186666Y34487143D01*
X55091428Y34106191D01*
X54996190Y33915715D01*
X54900952Y33820477D01*
X54710476Y33725239D01*
X54520000Y33725239D01*
X54329523Y33820477D01*
X54234285Y33915715D01*
X54139047Y34106191D01*
X54043809Y34487143D01*
X54043809Y34963334D01*
X54139047Y35344286D01*
X54234285Y35534762D01*
X54329523Y35630000D01*
X54520000Y35725239D01*
X55948571Y35534762D02*
X56043809Y35630000D01*
X56234285Y35725239D01*
X56710476Y35725239D01*
X56900952Y35630000D01*
X56996190Y35534762D01*
X57091428Y35344286D01*
X57091428Y35153810D01*
X56996190Y34868096D01*
X55853333Y33725239D01*
X57091428Y33725239D01*
X57853333Y35534762D02*
X57948571Y35630000D01*
X58139047Y35725239D01*
X58615238Y35725239D01*
X58805714Y35630000D01*
X58900952Y35534762D01*
X58996190Y35344286D01*
X58996190Y35153810D01*
X58900952Y34868096D01*
X57758095Y33725239D01*
X58996190Y33725239D01*
D11*
%TO.C,P7*%
X47730000Y7580000D02*
X47730000Y2500000D01*
X14710000Y2500000D02*
X14710000Y7580000D01*
X14710000Y7580000D02*
X47730000Y7580000D01*
X47730000Y2500000D02*
X14710000Y2500000D01*
%TO.C,P11*%
X58470000Y2500000D02*
X58470000Y7580000D01*
X71170000Y7580000D02*
X71170000Y2500000D01*
X71170000Y2500000D02*
X58470000Y2500000D01*
X58470000Y7580000D02*
X71170000Y7580000D01*
%TD*%
D12*
%TO.C,P7*%
X46460000Y6310000D03*
X46460000Y3770000D03*
X43920000Y6310000D03*
X43920000Y3770000D03*
X41380000Y6310000D03*
X41380000Y3770000D03*
X38840000Y6310000D03*
X38840000Y3770000D03*
X36300000Y6310000D03*
X36300000Y3770000D03*
X33760000Y6310000D03*
X33760000Y3770000D03*
X31220000Y6310000D03*
X31220000Y3770000D03*
X28680000Y6310000D03*
X28680000Y3770000D03*
X26140000Y6310000D03*
X26140000Y3770000D03*
X23600000Y6310000D03*
X23600000Y3770000D03*
X21060000Y6310000D03*
X21060000Y3770000D03*
X18520000Y6310000D03*
X18520000Y3770000D03*
X15980000Y6310000D03*
X15980000Y3770000D03*
%TD*%
%TO.C,P11*%
X69900000Y6310000D03*
X69900000Y3770000D03*
X67360000Y6310000D03*
X67360000Y3770000D03*
X64820000Y6310000D03*
X64820000Y3770000D03*
X62280000Y6310000D03*
X62280000Y3770000D03*
X59740000Y6310000D03*
X59740000Y3770000D03*
%TD*%
M02*
