  0
SECTION
  2
HEADER
  9
$ANGBASE
  50
0.0
  9
$ANGDIR
  70
1
  9
$MEASUREMENT
  70
0
  0
ENDSEC
  0
SECTION
  2
TABLES
  0
TABLE
  2
LTYPE
  70
4
  0
LTYPE
  5
40F
  2
CONTINUOUS
  70
0
  3
Solid line
  72
65
  73
0
  40
0.0
  0
LTYPE
  5
410
  2
DASHDOT
 70
0
  3
Dash Dot ____ _ ____ _
 72
65
 73
4
 40
2.0
 49
1.25
 49
-0.25
 49
0.25
 49
-0.25
  0
LTYPE
  5
411
  2
DASHED
 70
0
  3
Dashed __ __ __ __ __
 72
65
 73
2
 40
0.75
 49
0.5
 49
-0.25
  0
LTYPE
  5
43B
  2
DOTTED
 70
0
  3
Dotted .  .  .  .
 72
65
 73
2
 40
0.2
 49
0.0
 49
-0.2
  0
ENDTAB
  0
TABLE
  2
STYLE
  70
4
  0
STYLE
  2
KICAD
  70
0
  40
0
  41
1
  42
1
  50
0
  71
0
  3
isocp.shx
  0
STYLE
  2
KICADB
  70
0
  40
0
  41
1
  42
1
  50
0
  71
0
  3
isocp.shx
  0
STYLE
  2
KICADI
  70
0
  40
0
  41
1
  42
1
  50
15
  71
0
  3
isocp.shx
  0
STYLE
  2
KICADBI
  70
0
  40
0
  41
1
  42
1
  50
15
  71
0
  3
isocp.shx
  0
ENDTAB
  0
TABLE
  2
LAYER
  70
1
  0
LAYER
  2
BLACK
  70
0
  62
7
  6
CONTINUOUS
  0
ENDTAB
  0
ENDSEC
  0
SECTION
  2
ENTITIES
0
LINE
8
BLACK
6
CONTINUOUS
10
3.925
20
0.475
11
3.675
21
0.475
0
LINE
8
BLACK
6
CONTINUOUS
10
3.675
20
0.475
11
3.675
21
0.725
0
LINE
8
BLACK
6
CONTINUOUS
10
3.675
20
0.725
11
3.925
21
0.725
0
LINE
8
BLACK
6
CONTINUOUS
10
3.925
20
0.725
11
3.925
21
0.475
0
LINE
8
BLACK
6
CONTINUOUS
10
0.775
20
0.475
11
0.525
21
0.475
0
LINE
8
BLACK
6
CONTINUOUS
10
0.525
20
0.475
11
0.525
21
0.725
0
LINE
8
BLACK
6
CONTINUOUS
10
0.525
20
0.725
11
0.775
21
0.725
0
LINE
8
BLACK
6
CONTINUOUS
10
0.775
20
0.725
11
0.775
21
0.475
0
LINE
8
BLACK
6
CONTINUOUS
10
1.01416
20
0.75978
11
1.01959
21
0.758156
0
LINE
8
BLACK
6
CONTINUOUS
10
1.01959
20
0.758156
11
1.02435
21
0.755071
0
LINE
8
BLACK
6
CONTINUOUS
10
1.02435
20
0.755071
11
1.02805
21
0.750775
0
LINE
8
BLACK
6
CONTINUOUS
10
1.02805
20
0.750775
11
1.0304
21
0.745613
0
LINE
8
BLACK
6
CONTINUOUS
10
1.0304
20
0.745613
11
1.0312
21
0.74
0
LINE
8
BLACK
6
CONTINUOUS
10
1.0312
20
0.74
11
1.03119
21
0.739511
0
LINE
8
BLACK
6
CONTINUOUS
10
1.03119
20
0.739511
11
1.03025
21
0.733919
0
LINE
8
BLACK
6
CONTINUOUS
10
1.03025
20
0.733919
11
1.02778
21
0.728816
0
LINE
8
BLACK
6
CONTINUOUS
10
1.02778
20
0.728816
11
1.02398
21
0.724612
0
LINE
8
BLACK
6
CONTINUOUS
10
1.02398
20
0.724612
11
1.01914
21
0.721645
0
LINE
8
BLACK
6
CONTINUOUS
10
1.01914
20
0.721645
11
1.01367
21
0.720153
0
LINE
8
BLACK
6
CONTINUOUS
10
1.01367
20
0.720153
11
1.008
21
0.720257
0
LINE
8
BLACK
6
CONTINUOUS
10
1.008
20
0.720257
11
1.00259
21
0.721948
0
LINE
8
BLACK
6
CONTINUOUS
10
1.00259
20
0.721948
11
0.997869
21
0.72509
0
LINE
8
BLACK
6
CONTINUOUS
10
0.997869
20
0.72509
11
0.994221
21
0.729431
0
LINE
8
BLACK
6
CONTINUOUS
10
0.994221
20
0.729431
11
0.991937
21
0.734622
0
LINE
8
BLACK
6
CONTINUOUS
10
0.991937
20
0.734622
11
0.991201
21
0.740244
0
LINE
8
BLACK
6
CONTINUOUS
10
0.991201
20
0.740244
11
0.992074
21
0.745847
0
LINE
8
BLACK
6
CONTINUOUS
10
0.992074
20
0.745847
11
0.994484
21
0.75098
0
LINE
8
BLACK
6
CONTINUOUS
10
0.994484
20
0.75098
11
0.998238
21
0.755231
0
LINE
8
BLACK
6
CONTINUOUS
10
0.998238
20
0.755231
11
1.00303
21
0.758257
0
LINE
8
BLACK
6
CONTINUOUS
10
1.00303
20
0.758257
11
1.00849
21
0.759815
0
LINE
8
BLACK
6
CONTINUOUS
10
1.00849
20
0.759815
11
1.01416
21
0.75978
0
LINE
8
BLACK
6
CONTINUOUS
10
1.74176
20
0.75978
11
1.74719
21
0.758156
0
LINE
8
BLACK
6
CONTINUOUS
10
1.74719
20
0.758156
11
1.75195
21
0.755071
0
LINE
8
BLACK
6
CONTINUOUS
10
1.75195
20
0.755071
11
1.75565
21
0.750775
0
LINE
8
BLACK
6
CONTINUOUS
10
1.75565
20
0.750775
11
1.758
21
0.745613
0
LINE
8
BLACK
6
CONTINUOUS
10
1.758
20
0.745613
11
1.7588
21
0.74
0
LINE
8
BLACK
6
CONTINUOUS
10
1.7588
20
0.74
11
1.75879
21
0.739511
0
LINE
8
BLACK
6
CONTINUOUS
10
1.75879
20
0.739511
11
1.75785
21
0.733919
0
LINE
8
BLACK
6
CONTINUOUS
10
1.75785
20
0.733919
11
1.75538
21
0.728816
0
LINE
8
BLACK
6
CONTINUOUS
10
1.75538
20
0.728816
11
1.75158
21
0.724612
0
LINE
8
BLACK
6
CONTINUOUS
10
1.75158
20
0.724612
11
1.74674
21
0.721645
0
LINE
8
BLACK
6
CONTINUOUS
10
1.74674
20
0.721645
11
1.74127
21
0.720153
0
LINE
8
BLACK
6
CONTINUOUS
10
1.74127
20
0.720153
11
1.7356
21
0.720257
0
LINE
8
BLACK
6
CONTINUOUS
10
1.7356
20
0.720257
11
1.73019
21
0.721948
0
LINE
8
BLACK
6
CONTINUOUS
10
1.73019
20
0.721948
11
1.72547
21
0.72509
0
LINE
8
BLACK
6
CONTINUOUS
10
1.72547
20
0.72509
11
1.72182
21
0.729431
0
LINE
8
BLACK
6
CONTINUOUS
10
1.72182
20
0.729431
11
1.71954
21
0.734622
0
LINE
8
BLACK
6
CONTINUOUS
10
1.71954
20
0.734622
11
1.7188
21
0.740244
0
LINE
8
BLACK
6
CONTINUOUS
10
1.7188
20
0.740244
11
1.71967
21
0.745847
0
LINE
8
BLACK
6
CONTINUOUS
10
1.71967
20
0.745847
11
1.72208
21
0.75098
0
LINE
8
BLACK
6
CONTINUOUS
10
1.72208
20
0.75098
11
1.72584
21
0.755231
0
LINE
8
BLACK
6
CONTINUOUS
10
1.72584
20
0.755231
11
1.73063
21
0.758257
0
LINE
8
BLACK
6
CONTINUOUS
10
1.73063
20
0.758257
11
1.73609
21
0.759815
0
LINE
8
BLACK
6
CONTINUOUS
10
1.73609
20
0.759815
11
1.74176
21
0.75978
0
LINE
8
BLACK
6
CONTINUOUS
10
3.44176
20
0.75978
11
3.44719
21
0.758156
0
LINE
8
BLACK
6
CONTINUOUS
10
3.44719
20
0.758156
11
3.45195
21
0.755071
0
LINE
8
BLACK
6
CONTINUOUS
10
3.45195
20
0.755071
11
3.45565
21
0.750775
0
LINE
8
BLACK
6
CONTINUOUS
10
3.45565
20
0.750775
11
3.458
21
0.745613
0
LINE
8
BLACK
6
CONTINUOUS
10
3.458
20
0.745613
11
3.4588
21
0.74
0
LINE
8
BLACK
6
CONTINUOUS
10
3.4588
20
0.74
11
3.45879
21
0.739511
0
LINE
8
BLACK
6
CONTINUOUS
10
3.45879
20
0.739511
11
3.45785
21
0.733919
0
LINE
8
BLACK
6
CONTINUOUS
10
3.45785
20
0.733919
11
3.45538
21
0.728816
0
LINE
8
BLACK
6
CONTINUOUS
10
3.45538
20
0.728816
11
3.45158
21
0.724612
0
LINE
8
BLACK
6
CONTINUOUS
10
3.45158
20
0.724612
11
3.44674
21
0.721645
0
LINE
8
BLACK
6
CONTINUOUS
10
3.44674
20
0.721645
11
3.44127
21
0.720153
0
LINE
8
BLACK
6
CONTINUOUS
10
3.44127
20
0.720153
11
3.4356
21
0.720257
0
LINE
8
BLACK
6
CONTINUOUS
10
3.4356
20
0.720257
11
3.43019
21
0.721948
0
LINE
8
BLACK
6
CONTINUOUS
10
3.43019
20
0.721948
11
3.42547
21
0.72509
0
LINE
8
BLACK
6
CONTINUOUS
10
3.42547
20
0.72509
11
3.42182
21
0.729431
0
LINE
8
BLACK
6
CONTINUOUS
10
3.42182
20
0.729431
11
3.41954
21
0.734622
0
LINE
8
BLACK
6
CONTINUOUS
10
3.41954
20
0.734622
11
3.4188
21
0.740244
0
LINE
8
BLACK
6
CONTINUOUS
10
3.4188
20
0.740244
11
3.41967
21
0.745847
0
LINE
8
BLACK
6
CONTINUOUS
10
3.41967
20
0.745847
11
3.42208
21
0.75098
0
LINE
8
BLACK
6
CONTINUOUS
10
3.42208
20
0.75098
11
3.42584
21
0.755231
0
LINE
8
BLACK
6
CONTINUOUS
10
3.42584
20
0.755231
11
3.43063
21
0.758257
0
LINE
8
BLACK
6
CONTINUOUS
10
3.43063
20
0.758257
11
3.43609
21
0.759815
0
LINE
8
BLACK
6
CONTINUOUS
10
3.43609
20
0.759815
11
3.44176
21
0.75978
0
LINE
8
BLACK
6
CONTINUOUS
10
2.71416
20
0.75978
11
2.71959
21
0.758156
0
LINE
8
BLACK
6
CONTINUOUS
10
2.71959
20
0.758156
11
2.72435
21
0.755071
0
LINE
8
BLACK
6
CONTINUOUS
10
2.72435
20
0.755071
11
2.72805
21
0.750775
0
LINE
8
BLACK
6
CONTINUOUS
10
2.72805
20
0.750775
11
2.7304
21
0.745613
0
LINE
8
BLACK
6
CONTINUOUS
10
2.7304
20
0.745613
11
2.7312
21
0.74
0
LINE
8
BLACK
6
CONTINUOUS
10
2.7312
20
0.74
11
2.73119
21
0.739511
0
LINE
8
BLACK
6
CONTINUOUS
10
2.73119
20
0.739511
11
2.73025
21
0.733919
0
LINE
8
BLACK
6
CONTINUOUS
10
2.73025
20
0.733919
11
2.72778
21
0.728816
0
LINE
8
BLACK
6
CONTINUOUS
10
2.72778
20
0.728816
11
2.72398
21
0.724612
0
LINE
8
BLACK
6
CONTINUOUS
10
2.72398
20
0.724612
11
2.71914
21
0.721645
0
LINE
8
BLACK
6
CONTINUOUS
10
2.71914
20
0.721645
11
2.71367
21
0.720153
0
LINE
8
BLACK
6
CONTINUOUS
10
2.71367
20
0.720153
11
2.708
21
0.720257
0
LINE
8
BLACK
6
CONTINUOUS
10
2.708
20
0.720257
11
2.70259
21
0.721948
0
LINE
8
BLACK
6
CONTINUOUS
10
2.70259
20
0.721948
11
2.69787
21
0.72509
0
LINE
8
BLACK
6
CONTINUOUS
10
2.69787
20
0.72509
11
2.69422
21
0.729431
0
LINE
8
BLACK
6
CONTINUOUS
10
2.69422
20
0.729431
11
2.69194
21
0.734622
0
LINE
8
BLACK
6
CONTINUOUS
10
2.69194
20
0.734622
11
2.6912
21
0.740244
0
LINE
8
BLACK
6
CONTINUOUS
10
2.6912
20
0.740244
11
2.69207
21
0.745847
0
LINE
8
BLACK
6
CONTINUOUS
10
2.69207
20
0.745847
11
2.69448
21
0.75098
0
LINE
8
BLACK
6
CONTINUOUS
10
2.69448
20
0.75098
11
2.69824
21
0.755231
0
LINE
8
BLACK
6
CONTINUOUS
10
2.69824
20
0.755231
11
2.70303
21
0.758257
0
LINE
8
BLACK
6
CONTINUOUS
10
2.70303
20
0.758257
11
2.70849
21
0.759815
0
LINE
8
BLACK
6
CONTINUOUS
10
2.70849
20
0.759815
11
2.71416
21
0.75978
0
LINE
8
BLACK
6
CONTINUOUS
10
0.775
20
2.375
11
0.525
21
2.375
0
LINE
8
BLACK
6
CONTINUOUS
10
0.525
20
2.375
11
0.525
21
2.625
0
LINE
8
BLACK
6
CONTINUOUS
10
0.525
20
2.625
11
0.775
21
2.625
0
LINE
8
BLACK
6
CONTINUOUS
10
0.775
20
2.625
11
0.775
21
2.375
0
LINE
8
BLACK
6
CONTINUOUS
10
3.925
20
2.375
11
3.675
21
2.375
0
LINE
8
BLACK
6
CONTINUOUS
10
3.675
20
2.375
11
3.675
21
2.625
0
LINE
8
BLACK
6
CONTINUOUS
10
3.675
20
2.625
11
3.925
21
2.625
0
LINE
8
BLACK
6
CONTINUOUS
10
3.925
20
2.625
11
3.925
21
2.375
0
LINE
8
BLACK
6
CONTINUOUS
10
1.01416
20
2.53978
11
1.01959
21
2.53816
0
LINE
8
BLACK
6
CONTINUOUS
10
1.01959
20
2.53816
11
1.02435
21
2.53507
0
LINE
8
BLACK
6
CONTINUOUS
10
1.02435
20
2.53507
11
1.02805
21
2.53078
0
LINE
8
BLACK
6
CONTINUOUS
10
1.02805
20
2.53078
11
1.0304
21
2.52561
0
LINE
8
BLACK
6
CONTINUOUS
10
1.0304
20
2.52561
11
1.0312
21
2.52
0
LINE
8
BLACK
6
CONTINUOUS
10
1.0312
20
2.52
11
1.03119
21
2.51951
0
LINE
8
BLACK
6
CONTINUOUS
10
1.03119
20
2.51951
11
1.03025
21
2.51392
0
LINE
8
BLACK
6
CONTINUOUS
10
1.03025
20
2.51392
11
1.02778
21
2.50882
0
LINE
8
BLACK
6
CONTINUOUS
10
1.02778
20
2.50882
11
1.02398
21
2.50461
0
LINE
8
BLACK
6
CONTINUOUS
10
1.02398
20
2.50461
11
1.01914
21
2.50164
0
LINE
8
BLACK
6
CONTINUOUS
10
1.01914
20
2.50164
11
1.01367
21
2.50015
0
LINE
8
BLACK
6
CONTINUOUS
10
1.01367
20
2.50015
11
1.008
21
2.50026
0
LINE
8
BLACK
6
CONTINUOUS
10
1.008
20
2.50026
11
1.00259
21
2.50195
0
LINE
8
BLACK
6
CONTINUOUS
10
1.00259
20
2.50195
11
0.997869
21
2.50509
0
LINE
8
BLACK
6
CONTINUOUS
10
0.997869
20
2.50509
11
0.994221
21
2.50943
0
LINE
8
BLACK
6
CONTINUOUS
10
0.994221
20
2.50943
11
0.991937
21
2.51462
0
LINE
8
BLACK
6
CONTINUOUS
10
0.991937
20
2.51462
11
0.991201
21
2.52024
0
LINE
8
BLACK
6
CONTINUOUS
10
0.991201
20
2.52024
11
0.992074
21
2.52585
0
LINE
8
BLACK
6
CONTINUOUS
10
0.992074
20
2.52585
11
0.994484
21
2.53098
0
LINE
8
BLACK
6
CONTINUOUS
10
0.994484
20
2.53098
11
0.998238
21
2.53523
0
LINE
8
BLACK
6
CONTINUOUS
10
0.998238
20
2.53523
11
1.00303
21
2.53826
0
LINE
8
BLACK
6
CONTINUOUS
10
1.00303
20
2.53826
11
1.00849
21
2.53981
0
LINE
8
BLACK
6
CONTINUOUS
10
1.00849
20
2.53981
11
1.01416
21
2.53978
0
LINE
8
BLACK
6
CONTINUOUS
10
1.74176
20
2.53978
11
1.74719
21
2.53816
0
LINE
8
BLACK
6
CONTINUOUS
10
1.74719
20
2.53816
11
1.75195
21
2.53507
0
LINE
8
BLACK
6
CONTINUOUS
10
1.75195
20
2.53507
11
1.75565
21
2.53078
0
LINE
8
BLACK
6
CONTINUOUS
10
1.75565
20
2.53078
11
1.758
21
2.52561
0
LINE
8
BLACK
6
CONTINUOUS
10
1.758
20
2.52561
11
1.7588
21
2.52
0
LINE
8
BLACK
6
CONTINUOUS
10
1.7588
20
2.52
11
1.75879
21
2.51951
0
LINE
8
BLACK
6
CONTINUOUS
10
1.75879
20
2.51951
11
1.75785
21
2.51392
0
LINE
8
BLACK
6
CONTINUOUS
10
1.75785
20
2.51392
11
1.75538
21
2.50882
0
LINE
8
BLACK
6
CONTINUOUS
10
1.75538
20
2.50882
11
1.75158
21
2.50461
0
LINE
8
BLACK
6
CONTINUOUS
10
1.75158
20
2.50461
11
1.74674
21
2.50164
0
LINE
8
BLACK
6
CONTINUOUS
10
1.74674
20
2.50164
11
1.74127
21
2.50015
0
LINE
8
BLACK
6
CONTINUOUS
10
1.74127
20
2.50015
11
1.7356
21
2.50026
0
LINE
8
BLACK
6
CONTINUOUS
10
1.7356
20
2.50026
11
1.73019
21
2.50195
0
LINE
8
BLACK
6
CONTINUOUS
10
1.73019
20
2.50195
11
1.72547
21
2.50509
0
LINE
8
BLACK
6
CONTINUOUS
10
1.72547
20
2.50509
11
1.72182
21
2.50943
0
LINE
8
BLACK
6
CONTINUOUS
10
1.72182
20
2.50943
11
1.71954
21
2.51462
0
LINE
8
BLACK
6
CONTINUOUS
10
1.71954
20
2.51462
11
1.7188
21
2.52024
0
LINE
8
BLACK
6
CONTINUOUS
10
1.7188
20
2.52024
11
1.71967
21
2.52585
0
LINE
8
BLACK
6
CONTINUOUS
10
1.71967
20
2.52585
11
1.72208
21
2.53098
0
LINE
8
BLACK
6
CONTINUOUS
10
1.72208
20
2.53098
11
1.72584
21
2.53523
0
LINE
8
BLACK
6
CONTINUOUS
10
1.72584
20
2.53523
11
1.73063
21
2.53826
0
LINE
8
BLACK
6
CONTINUOUS
10
1.73063
20
2.53826
11
1.73609
21
2.53981
0
LINE
8
BLACK
6
CONTINUOUS
10
1.73609
20
2.53981
11
1.74176
21
2.53978
0
LINE
8
BLACK
6
CONTINUOUS
10
3.44176
20
2.53978
11
3.44719
21
2.53816
0
LINE
8
BLACK
6
CONTINUOUS
10
3.44719
20
2.53816
11
3.45195
21
2.53507
0
LINE
8
BLACK
6
CONTINUOUS
10
3.45195
20
2.53507
11
3.45565
21
2.53078
0
LINE
8
BLACK
6
CONTINUOUS
10
3.45565
20
2.53078
11
3.458
21
2.52561
0
LINE
8
BLACK
6
CONTINUOUS
10
3.458
20
2.52561
11
3.4588
21
2.52
0
LINE
8
BLACK
6
CONTINUOUS
10
3.4588
20
2.52
11
3.45879
21
2.51951
0
LINE
8
BLACK
6
CONTINUOUS
10
3.45879
20
2.51951
11
3.45785
21
2.51392
0
LINE
8
BLACK
6
CONTINUOUS
10
3.45785
20
2.51392
11
3.45538
21
2.50882
0
LINE
8
BLACK
6
CONTINUOUS
10
3.45538
20
2.50882
11
3.45158
21
2.50461
0
LINE
8
BLACK
6
CONTINUOUS
10
3.45158
20
2.50461
11
3.44674
21
2.50164
0
LINE
8
BLACK
6
CONTINUOUS
10
3.44674
20
2.50164
11
3.44127
21
2.50015
0
LINE
8
BLACK
6
CONTINUOUS
10
3.44127
20
2.50015
11
3.4356
21
2.50026
0
LINE
8
BLACK
6
CONTINUOUS
10
3.4356
20
2.50026
11
3.43019
21
2.50195
0
LINE
8
BLACK
6
CONTINUOUS
10
3.43019
20
2.50195
11
3.42547
21
2.50509
0
LINE
8
BLACK
6
CONTINUOUS
10
3.42547
20
2.50509
11
3.42182
21
2.50943
0
LINE
8
BLACK
6
CONTINUOUS
10
3.42182
20
2.50943
11
3.41954
21
2.51462
0
LINE
8
BLACK
6
CONTINUOUS
10
3.41954
20
2.51462
11
3.4188
21
2.52024
0
LINE
8
BLACK
6
CONTINUOUS
10
3.4188
20
2.52024
11
3.41967
21
2.52585
0
LINE
8
BLACK
6
CONTINUOUS
10
3.41967
20
2.52585
11
3.42208
21
2.53098
0
LINE
8
BLACK
6
CONTINUOUS
10
3.42208
20
2.53098
11
3.42584
21
2.53523
0
LINE
8
BLACK
6
CONTINUOUS
10
3.42584
20
2.53523
11
3.43063
21
2.53826
0
LINE
8
BLACK
6
CONTINUOUS
10
3.43063
20
2.53826
11
3.43609
21
2.53981
0
LINE
8
BLACK
6
CONTINUOUS
10
3.43609
20
2.53981
11
3.44176
21
2.53978
0
LINE
8
BLACK
6
CONTINUOUS
10
2.71416
20
2.53978
11
2.71959
21
2.53816
0
LINE
8
BLACK
6
CONTINUOUS
10
2.71959
20
2.53816
11
2.72435
21
2.53507
0
LINE
8
BLACK
6
CONTINUOUS
10
2.72435
20
2.53507
11
2.72805
21
2.53078
0
LINE
8
BLACK
6
CONTINUOUS
10
2.72805
20
2.53078
11
2.7304
21
2.52561
0
LINE
8
BLACK
6
CONTINUOUS
10
2.7304
20
2.52561
11
2.7312
21
2.52
0
LINE
8
BLACK
6
CONTINUOUS
10
2.7312
20
2.52
11
2.73119
21
2.51951
0
LINE
8
BLACK
6
CONTINUOUS
10
2.73119
20
2.51951
11
2.73025
21
2.51392
0
LINE
8
BLACK
6
CONTINUOUS
10
2.73025
20
2.51392
11
2.72778
21
2.50882
0
LINE
8
BLACK
6
CONTINUOUS
10
2.72778
20
2.50882
11
2.72398
21
2.50461
0
LINE
8
BLACK
6
CONTINUOUS
10
2.72398
20
2.50461
11
2.71914
21
2.50164
0
LINE
8
BLACK
6
CONTINUOUS
10
2.71914
20
2.50164
11
2.71367
21
2.50015
0
LINE
8
BLACK
6
CONTINUOUS
10
2.71367
20
2.50015
11
2.708
21
2.50026
0
LINE
8
BLACK
6
CONTINUOUS
10
2.708
20
2.50026
11
2.70259
21
2.50195
0
LINE
8
BLACK
6
CONTINUOUS
10
2.70259
20
2.50195
11
2.69787
21
2.50509
0
LINE
8
BLACK
6
CONTINUOUS
10
2.69787
20
2.50509
11
2.69422
21
2.50943
0
LINE
8
BLACK
6
CONTINUOUS
10
2.69422
20
2.50943
11
2.69194
21
2.51462
0
LINE
8
BLACK
6
CONTINUOUS
10
2.69194
20
2.51462
11
2.6912
21
2.52024
0
LINE
8
BLACK
6
CONTINUOUS
10
2.6912
20
2.52024
11
2.69207
21
2.52585
0
LINE
8
BLACK
6
CONTINUOUS
10
2.69207
20
2.52585
11
2.69448
21
2.53098
0
LINE
8
BLACK
6
CONTINUOUS
10
2.69448
20
2.53098
11
2.69824
21
2.53523
0
LINE
8
BLACK
6
CONTINUOUS
10
2.69824
20
2.53523
11
2.70303
21
2.53826
0
LINE
8
BLACK
6
CONTINUOUS
10
2.70303
20
2.53826
11
2.70849
21
2.53981
0
LINE
8
BLACK
6
CONTINUOUS
10
2.70849
20
2.53981
11
2.71416
21
2.53978
  0
ENDSEC
  0
EOF
