  0
SECTION
  2
HEADER
  9
$ANGBASE
  50
0.0
  9
$ANGDIR
  70
1
  9
$MEASUREMENT
  70
0
  0
ENDSEC
  0
SECTION
  2
TABLES
  0
TABLE
  2
LTYPE
  70
4
  0
LTYPE
  5
40F
  2
CONTINUOUS
  70
0
  3
Solid line
  72
65
  73
0
  40
0.0
  0
LTYPE
  5
410
  2
DASHDOT
 70
0
  3
Dash Dot ____ _ ____ _
 72
65
 73
4
 40
2.0
 49
1.25
 49
-0.25
 49
0.25
 49
-0.25
  0
LTYPE
  5
411
  2
DASHED
 70
0
  3
Dashed __ __ __ __ __
 72
65
 73
2
 40
0.75
 49
0.5
 49
-0.25
  0
LTYPE
  5
43B
  2
DOTTED
 70
0
  3
Dotted .  .  .  .
 72
65
 73
2
 40
0.2
 49
0.0
 49
-0.2
  0
ENDTAB
  0
TABLE
  2
STYLE
  70
4
  0
STYLE
  2
KICAD
  70
0
  40
0
  41
1
  42
1
  50
0
  71
0
  3
isocp.shx
  0
STYLE
  2
KICADB
  70
0
  40
0
  41
1
  42
1
  50
0
  71
0
  3
isocp.shx
  0
STYLE
  2
KICADI
  70
0
  40
0
  41
1
  42
1
  50
15
  71
0
  3
isocp.shx
  0
STYLE
  2
KICADBI
  70
0
  40
0
  41
1
  42
1
  50
15
  71
0
  3
isocp.shx
  0
ENDTAB
  0
TABLE
  2
LAYER
  70
1
  0
LAYER
  2
BLACK
  70
0
  62
7
  6
CONTINUOUS
  0
ENDTAB
  0
ENDSEC
  0
SECTION
  2
ENTITIES
0
LINE
8
BLACK
6
CONTINUOUS
10
3.39843
20
0.0586614
11
3.32756
21
0.0586614
0
LINE
8
BLACK
6
CONTINUOUS
10
3.32756
20
0.0586614
11
3.32756
21
0.157087
0
LINE
8
BLACK
6
CONTINUOUS
10
3.32756
20
0.157087
11
3.39843
21
0.157087
0
LINE
8
BLACK
6
CONTINUOUS
10
3.39843
20
0.157087
11
3.39843
21
0.0586614
0
LINE
8
BLACK
6
CONTINUOUS
10
3.55967
20
0.158306
11
3.56287
21
0.156172
0
LINE
8
BLACK
6
CONTINUOUS
10
3.56287
20
0.156172
11
3.565
21
0.152979
0
LINE
8
BLACK
6
CONTINUOUS
10
3.565
20
0.152979
11
3.56575
21
0.149213
0
LINE
8
BLACK
6
CONTINUOUS
10
3.56575
20
0.149213
11
3.56575
21
0.123622
0
LINE
8
BLACK
6
CONTINUOUS
10
3.56575
20
0.123622
11
3.565
21
0.119855
0
LINE
8
BLACK
6
CONTINUOUS
10
3.565
20
0.119855
11
3.56287
21
0.116662
0
LINE
8
BLACK
6
CONTINUOUS
10
3.56287
20
0.116662
11
3.55967
21
0.114529
0
LINE
8
BLACK
6
CONTINUOUS
10
3.55967
20
0.114529
11
3.55591
21
0.11378
0
LINE
8
BLACK
6
CONTINUOUS
10
3.55591
20
0.11378
11
3.46929
21
0.11378
0
LINE
8
BLACK
6
CONTINUOUS
10
3.46929
20
0.11378
11
3.46552
21
0.114529
0
LINE
8
BLACK
6
CONTINUOUS
10
3.46552
20
0.114529
11
3.46233
21
0.116662
0
LINE
8
BLACK
6
CONTINUOUS
10
3.46233
20
0.116662
11
3.4602
21
0.119855
0
LINE
8
BLACK
6
CONTINUOUS
10
3.4602
20
0.119855
11
3.45945
21
0.123622
0
LINE
8
BLACK
6
CONTINUOUS
10
3.45945
20
0.123622
11
3.45945
21
0.149213
0
LINE
8
BLACK
6
CONTINUOUS
10
3.45945
20
0.149213
11
3.4602
21
0.152979
0
LINE
8
BLACK
6
CONTINUOUS
10
3.4602
20
0.152979
11
3.46233
21
0.156172
0
LINE
8
BLACK
6
CONTINUOUS
10
3.46233
20
0.156172
11
3.46552
21
0.158306
0
LINE
8
BLACK
6
CONTINUOUS
10
3.46552
20
0.158306
11
3.46929
21
0.159055
0
LINE
8
BLACK
6
CONTINUOUS
10
3.46929
20
0.159055
11
3.55591
21
0.159055
0
LINE
8
BLACK
6
CONTINUOUS
10
3.55591
20
0.159055
11
3.55967
21
0.158306
0
LINE
8
BLACK
6
CONTINUOUS
10
3.39843
20
0.216142
11
3.32756
21
0.216142
0
LINE
8
BLACK
6
CONTINUOUS
10
3.32756
20
0.216142
11
3.32756
21
0.314567
0
LINE
8
BLACK
6
CONTINUOUS
10
3.32756
20
0.314567
11
3.39843
21
0.314567
0
LINE
8
BLACK
6
CONTINUOUS
10
3.39843
20
0.314567
11
3.39843
21
0.216142
0
LINE
8
BLACK
6
CONTINUOUS
10
3.55967
20
0.274448
11
3.56287
21
0.272314
0
LINE
8
BLACK
6
CONTINUOUS
10
3.56287
20
0.272314
11
3.565
21
0.269121
0
LINE
8
BLACK
6
CONTINUOUS
10
3.565
20
0.269121
11
3.56575
21
0.265354
0
LINE
8
BLACK
6
CONTINUOUS
10
3.56575
20
0.265354
11
3.56575
21
0.239764
0
LINE
8
BLACK
6
CONTINUOUS
10
3.56575
20
0.239764
11
3.565
21
0.235997
0
LINE
8
BLACK
6
CONTINUOUS
10
3.565
20
0.235997
11
3.56287
21
0.232804
0
LINE
8
BLACK
6
CONTINUOUS
10
3.56287
20
0.232804
11
3.55967
21
0.23067
0
LINE
8
BLACK
6
CONTINUOUS
10
3.55967
20
0.23067
11
3.55591
21
0.229921
0
LINE
8
BLACK
6
CONTINUOUS
10
3.55591
20
0.229921
11
3.46929
21
0.229921
0
LINE
8
BLACK
6
CONTINUOUS
10
3.46929
20
0.229921
11
3.46552
21
0.23067
0
LINE
8
BLACK
6
CONTINUOUS
10
3.46552
20
0.23067
11
3.46233
21
0.232804
0
LINE
8
BLACK
6
CONTINUOUS
10
3.46233
20
0.232804
11
3.4602
21
0.235997
0
LINE
8
BLACK
6
CONTINUOUS
10
3.4602
20
0.235997
11
3.45945
21
0.239764
0
LINE
8
BLACK
6
CONTINUOUS
10
3.45945
20
0.239764
11
3.45945
21
0.265354
0
LINE
8
BLACK
6
CONTINUOUS
10
3.45945
20
0.265354
11
3.4602
21
0.269121
0
LINE
8
BLACK
6
CONTINUOUS
10
3.4602
20
0.269121
11
3.46233
21
0.272314
0
LINE
8
BLACK
6
CONTINUOUS
10
3.46233
20
0.272314
11
3.46552
21
0.274448
0
LINE
8
BLACK
6
CONTINUOUS
10
3.46552
20
0.274448
11
3.46929
21
0.275197
0
LINE
8
BLACK
6
CONTINUOUS
10
3.46929
20
0.275197
11
3.55591
21
0.275197
0
LINE
8
BLACK
6
CONTINUOUS
10
3.55591
20
0.275197
11
3.55967
21
0.274448
0
LINE
8
BLACK
6
CONTINUOUS
10
3.53507
20
0.345314
11
3.53826
21
0.34318
0
LINE
8
BLACK
6
CONTINUOUS
10
3.53826
20
0.34318
11
3.54039
21
0.339987
0
LINE
8
BLACK
6
CONTINUOUS
10
3.54039
20
0.339987
11
3.54114
21
0.33622
0
LINE
8
BLACK
6
CONTINUOUS
10
3.54114
20
0.33622
11
3.54114
21
0.316535
0
LINE
8
BLACK
6
CONTINUOUS
10
3.54114
20
0.316535
11
3.54039
21
0.312769
0
LINE
8
BLACK
6
CONTINUOUS
10
3.54039
20
0.312769
11
3.53826
21
0.309576
0
LINE
8
BLACK
6
CONTINUOUS
10
3.53826
20
0.309576
11
3.53507
21
0.307442
0
LINE
8
BLACK
6
CONTINUOUS
10
3.53507
20
0.307442
11
3.5313
21
0.306693
0
LINE
8
BLACK
6
CONTINUOUS
10
3.5313
20
0.306693
11
3.4939
21
0.306693
0
LINE
8
BLACK
6
CONTINUOUS
10
3.4939
20
0.306693
11
3.49013
21
0.307442
0
LINE
8
BLACK
6
CONTINUOUS
10
3.49013
20
0.307442
11
3.48694
21
0.309576
0
LINE
8
BLACK
6
CONTINUOUS
10
3.48694
20
0.309576
11
3.4848
21
0.312769
0
LINE
8
BLACK
6
CONTINUOUS
10
3.4848
20
0.312769
11
3.48406
21
0.316535
0
LINE
8
BLACK
6
CONTINUOUS
10
3.48406
20
0.316535
11
3.48406
21
0.33622
0
LINE
8
BLACK
6
CONTINUOUS
10
3.48406
20
0.33622
11
3.4848
21
0.339987
0
LINE
8
BLACK
6
CONTINUOUS
10
3.4848
20
0.339987
11
3.48694
21
0.34318
0
LINE
8
BLACK
6
CONTINUOUS
10
3.48694
20
0.34318
11
3.49013
21
0.345314
0
LINE
8
BLACK
6
CONTINUOUS
10
3.49013
20
0.345314
11
3.4939
21
0.346063
0
LINE
8
BLACK
6
CONTINUOUS
10
3.4939
20
0.346063
11
3.5313
21
0.346063
0
LINE
8
BLACK
6
CONTINUOUS
10
3.5313
20
0.346063
11
3.53507
21
0.345314
0
LINE
8
BLACK
6
CONTINUOUS
10
1.67188
20
0.370904
11
1.67507
21
0.368771
0
LINE
8
BLACK
6
CONTINUOUS
10
1.67507
20
0.368771
11
1.6772
21
0.365578
0
LINE
8
BLACK
6
CONTINUOUS
10
1.6772
20
0.365578
11
1.67795
21
0.361811
0
LINE
8
BLACK
6
CONTINUOUS
10
1.67795
20
0.361811
11
1.67795
21
0.326378
0
LINE
8
BLACK
6
CONTINUOUS
10
1.67795
20
0.326378
11
1.6772
21
0.322611
0
LINE
8
BLACK
6
CONTINUOUS
10
1.6772
20
0.322611
11
1.67507
21
0.319418
0
LINE
8
BLACK
6
CONTINUOUS
10
1.67507
20
0.319418
11
1.67188
21
0.317285
0
LINE
8
BLACK
6
CONTINUOUS
10
1.67188
20
0.317285
11
1.66811
21
0.316535
0
LINE
8
BLACK
6
CONTINUOUS
10
1.66811
20
0.316535
11
1.64055
21
0.316535
0
LINE
8
BLACK
6
CONTINUOUS
10
1.64055
20
0.316535
11
1.63678
21
0.317285
0
LINE
8
BLACK
6
CONTINUOUS
10
1.63678
20
0.317285
11
1.63359
21
0.319418
0
LINE
8
BLACK
6
CONTINUOUS
10
1.63359
20
0.319418
11
1.63146
21
0.322611
0
LINE
8
BLACK
6
CONTINUOUS
10
1.63146
20
0.322611
11
1.63071
21
0.326378
0
LINE
8
BLACK
6
CONTINUOUS
10
1.63071
20
0.326378
11
1.63071
21
0.361811
0
LINE
8
BLACK
6
CONTINUOUS
10
1.63071
20
0.361811
11
1.63146
21
0.365578
0
LINE
8
BLACK
6
CONTINUOUS
10
1.63146
20
0.365578
11
1.63359
21
0.368771
0
LINE
8
BLACK
6
CONTINUOUS
10
1.63359
20
0.368771
11
1.63678
21
0.370904
0
LINE
8
BLACK
6
CONTINUOUS
10
1.63678
20
0.370904
11
1.64055
21
0.371654
0
LINE
8
BLACK
6
CONTINUOUS
10
1.64055
20
0.371654
11
1.66811
21
0.371654
0
LINE
8
BLACK
6
CONTINUOUS
10
1.66811
20
0.371654
11
1.67188
21
0.370904
0
LINE
8
BLACK
6
CONTINUOUS
10
1.75062
20
0.370904
11
1.75381
21
0.368771
0
LINE
8
BLACK
6
CONTINUOUS
10
1.75381
20
0.368771
11
1.75594
21
0.365578
0
LINE
8
BLACK
6
CONTINUOUS
10
1.75594
20
0.365578
11
1.75669
21
0.361811
0
LINE
8
BLACK
6
CONTINUOUS
10
1.75669
20
0.361811
11
1.75669
21
0.326378
0
LINE
8
BLACK
6
CONTINUOUS
10
1.75669
20
0.326378
11
1.75594
21
0.322611
0
LINE
8
BLACK
6
CONTINUOUS
10
1.75594
20
0.322611
11
1.75381
21
0.319418
0
LINE
8
BLACK
6
CONTINUOUS
10
1.75381
20
0.319418
11
1.75062
21
0.317285
0
LINE
8
BLACK
6
CONTINUOUS
10
1.75062
20
0.317285
11
1.74685
21
0.316535
0
LINE
8
BLACK
6
CONTINUOUS
10
1.74685
20
0.316535
11
1.71929
21
0.316535
0
LINE
8
BLACK
6
CONTINUOUS
10
1.71929
20
0.316535
11
1.71552
21
0.317285
0
LINE
8
BLACK
6
CONTINUOUS
10
1.71552
20
0.317285
11
1.71233
21
0.319418
0
LINE
8
BLACK
6
CONTINUOUS
10
1.71233
20
0.319418
11
1.7102
21
0.322611
0
LINE
8
BLACK
6
CONTINUOUS
10
1.7102
20
0.322611
11
1.70945
21
0.326378
0
LINE
8
BLACK
6
CONTINUOUS
10
1.70945
20
0.326378
11
1.70945
21
0.361811
0
LINE
8
BLACK
6
CONTINUOUS
10
1.70945
20
0.361811
11
1.7102
21
0.365578
0
LINE
8
BLACK
6
CONTINUOUS
10
1.7102
20
0.365578
11
1.71233
21
0.368771
0
LINE
8
BLACK
6
CONTINUOUS
10
1.71233
20
0.368771
11
1.71552
21
0.370904
0
LINE
8
BLACK
6
CONTINUOUS
10
1.71552
20
0.370904
11
1.71929
21
0.371654
0
LINE
8
BLACK
6
CONTINUOUS
10
1.71929
20
0.371654
11
1.74685
21
0.371654
0
LINE
8
BLACK
6
CONTINUOUS
10
1.74685
20
0.371654
11
1.75062
21
0.370904
0
LINE
8
BLACK
6
CONTINUOUS
10
3.53507
20
0.420117
11
3.53826
21
0.417983
0
LINE
8
BLACK
6
CONTINUOUS
10
3.53826
20
0.417983
11
3.54039
21
0.41479
0
LINE
8
BLACK
6
CONTINUOUS
10
3.54039
20
0.41479
11
3.54114
21
0.411024
0
LINE
8
BLACK
6
CONTINUOUS
10
3.54114
20
0.411024
11
3.54114
21
0.391339
0
LINE
8
BLACK
6
CONTINUOUS
10
3.54114
20
0.391339
11
3.54039
21
0.387572
0
LINE
8
BLACK
6
CONTINUOUS
10
3.54039
20
0.387572
11
3.53826
21
0.384379
0
LINE
8
BLACK
6
CONTINUOUS
10
3.53826
20
0.384379
11
3.53507
21
0.382245
0
LINE
8
BLACK
6
CONTINUOUS
10
3.53507
20
0.382245
11
3.5313
21
0.381496
0
LINE
8
BLACK
6
CONTINUOUS
10
3.5313
20
0.381496
11
3.4939
21
0.381496
0
LINE
8
BLACK
6
CONTINUOUS
10
3.4939
20
0.381496
11
3.49013
21
0.382245
0
LINE
8
BLACK
6
CONTINUOUS
10
3.49013
20
0.382245
11
3.48694
21
0.384379
0
LINE
8
BLACK
6
CONTINUOUS
10
3.48694
20
0.384379
11
3.4848
21
0.387572
0
LINE
8
BLACK
6
CONTINUOUS
10
3.4848
20
0.387572
11
3.48406
21
0.391339
0
LINE
8
BLACK
6
CONTINUOUS
10
3.48406
20
0.391339
11
3.48406
21
0.411024
0
LINE
8
BLACK
6
CONTINUOUS
10
3.48406
20
0.411024
11
3.4848
21
0.41479
0
LINE
8
BLACK
6
CONTINUOUS
10
3.4848
20
0.41479
11
3.48694
21
0.417983
0
LINE
8
BLACK
6
CONTINUOUS
10
3.48694
20
0.417983
11
3.49013
21
0.420117
0
LINE
8
BLACK
6
CONTINUOUS
10
3.49013
20
0.420117
11
3.4939
21
0.420866
0
LINE
8
BLACK
6
CONTINUOUS
10
3.4939
20
0.420866
11
3.5313
21
0.420866
0
LINE
8
BLACK
6
CONTINUOUS
10
3.5313
20
0.420866
11
3.53507
21
0.420117
0
LINE
8
BLACK
6
CONTINUOUS
10
1.0953
20
0.51
11
1.0833
21
0.51
0
LINE
8
BLACK
6
CONTINUOUS
10
1.0833
20
0.51
11
1.0833
21
0.567
0
LINE
8
BLACK
6
CONTINUOUS
10
1.0833
20
0.567
11
1.0953
21
0.567
0
LINE
8
BLACK
6
CONTINUOUS
10
1.0953
20
0.567
11
1.0953
21
0.51
0
LINE
8
BLACK
6
CONTINUOUS
10
1.2529
20
0.51
11
1.2409
21
0.51
0
LINE
8
BLACK
6
CONTINUOUS
10
1.2409
20
0.51
11
1.2409
21
0.567
0
LINE
8
BLACK
6
CONTINUOUS
10
1.2409
20
0.567
11
1.2529
21
0.567
0
LINE
8
BLACK
6
CONTINUOUS
10
1.2529
20
0.567
11
1.2529
21
0.51
0
LINE
8
BLACK
6
CONTINUOUS
10
1.115
20
0.51
11
1.103
21
0.51
0
LINE
8
BLACK
6
CONTINUOUS
10
1.103
20
0.51
11
1.103
21
0.567
0
LINE
8
BLACK
6
CONTINUOUS
10
1.103
20
0.567
11
1.115
21
0.567
0
LINE
8
BLACK
6
CONTINUOUS
10
1.115
20
0.567
11
1.115
21
0.51
0
LINE
8
BLACK
6
CONTINUOUS
10
1.1347
20
0.51
11
1.1227
21
0.51
0
LINE
8
BLACK
6
CONTINUOUS
10
1.1227
20
0.51
11
1.1227
21
0.567
0
LINE
8
BLACK
6
CONTINUOUS
10
1.1227
20
0.567
11
1.1347
21
0.567
0
LINE
8
BLACK
6
CONTINUOUS
10
1.1347
20
0.567
11
1.1347
21
0.51
0
LINE
8
BLACK
6
CONTINUOUS
10
1.1544
20
0.51
11
1.1424
21
0.51
0
LINE
8
BLACK
6
CONTINUOUS
10
1.1424
20
0.51
11
1.1424
21
0.567
0
LINE
8
BLACK
6
CONTINUOUS
10
1.1424
20
0.567
11
1.1544
21
0.567
0
LINE
8
BLACK
6
CONTINUOUS
10
1.1544
20
0.567
11
1.1544
21
0.51
0
LINE
8
BLACK
6
CONTINUOUS
10
1.1741
20
0.51
11
1.1621
21
0.51
0
LINE
8
BLACK
6
CONTINUOUS
10
1.1621
20
0.51
11
1.1621
21
0.567
0
LINE
8
BLACK
6
CONTINUOUS
10
1.1621
20
0.567
11
1.1741
21
0.567
0
LINE
8
BLACK
6
CONTINUOUS
10
1.1741
20
0.567
11
1.1741
21
0.51
0
LINE
8
BLACK
6
CONTINUOUS
10
1.1938
20
0.51
11
1.1818
21
0.51
0
LINE
8
BLACK
6
CONTINUOUS
10
1.1818
20
0.51
11
1.1818
21
0.567
0
LINE
8
BLACK
6
CONTINUOUS
10
1.1818
20
0.567
11
1.1938
21
0.567
0
LINE
8
BLACK
6
CONTINUOUS
10
1.1938
20
0.567
11
1.1938
21
0.51
0
LINE
8
BLACK
6
CONTINUOUS
10
1.2135
20
0.51
11
1.2015
21
0.51
0
LINE
8
BLACK
6
CONTINUOUS
10
1.2015
20
0.51
11
1.2015
21
0.567
0
LINE
8
BLACK
6
CONTINUOUS
10
1.2015
20
0.567
11
1.2135
21
0.567
0
LINE
8
BLACK
6
CONTINUOUS
10
1.2135
20
0.567
11
1.2135
21
0.51
0
LINE
8
BLACK
6
CONTINUOUS
10
1.2332
20
0.51
11
1.2212
21
0.51
0
LINE
8
BLACK
6
CONTINUOUS
10
1.2212
20
0.51
11
1.2212
21
0.567
0
LINE
8
BLACK
6
CONTINUOUS
10
1.2212
20
0.567
11
1.2332
21
0.567
0
LINE
8
BLACK
6
CONTINUOUS
10
1.2332
20
0.567
11
1.2332
21
0.51
0
LINE
8
BLACK
6
CONTINUOUS
10
3.1893
20
0.51
11
3.1773
21
0.51
0
LINE
8
BLACK
6
CONTINUOUS
10
3.1773
20
0.51
11
3.1773
21
0.567
0
LINE
8
BLACK
6
CONTINUOUS
10
3.1773
20
0.567
11
3.1893
21
0.567
0
LINE
8
BLACK
6
CONTINUOUS
10
3.1893
20
0.567
11
3.1893
21
0.51
0
LINE
8
BLACK
6
CONTINUOUS
10
3.3666
20
0.51
11
3.3546
21
0.51
0
LINE
8
BLACK
6
CONTINUOUS
10
3.3546
20
0.51
11
3.3546
21
0.567
0
LINE
8
BLACK
6
CONTINUOUS
10
3.3546
20
0.567
11
3.3666
21
0.567
0
LINE
8
BLACK
6
CONTINUOUS
10
3.3666
20
0.567
11
3.3666
21
0.51
0
LINE
8
BLACK
6
CONTINUOUS
10
3.3469
20
0.51
11
3.3349
21
0.51
0
LINE
8
BLACK
6
CONTINUOUS
10
3.3349
20
0.51
11
3.3349
21
0.567
0
LINE
8
BLACK
6
CONTINUOUS
10
3.3349
20
0.567
11
3.3469
21
0.567
0
LINE
8
BLACK
6
CONTINUOUS
10
3.3469
20
0.567
11
3.3469
21
0.51
0
LINE
8
BLACK
6
CONTINUOUS
10
3.3272
20
0.51
11
3.3152
21
0.51
0
LINE
8
BLACK
6
CONTINUOUS
10
3.3152
20
0.51
11
3.3152
21
0.567
0
LINE
8
BLACK
6
CONTINUOUS
10
3.3152
20
0.567
11
3.3272
21
0.567
0
LINE
8
BLACK
6
CONTINUOUS
10
3.3272
20
0.567
11
3.3272
21
0.51
0
LINE
8
BLACK
6
CONTINUOUS
10
3.3075
20
0.51
11
3.2955
21
0.51
0
LINE
8
BLACK
6
CONTINUOUS
10
3.2955
20
0.51
11
3.2955
21
0.567
0
LINE
8
BLACK
6
CONTINUOUS
10
3.2955
20
0.567
11
3.3075
21
0.567
0
LINE
8
BLACK
6
CONTINUOUS
10
3.3075
20
0.567
11
3.3075
21
0.51
0
LINE
8
BLACK
6
CONTINUOUS
10
3.2878
20
0.51
11
3.2758
21
0.51
0
LINE
8
BLACK
6
CONTINUOUS
10
3.2758
20
0.51
11
3.2758
21
0.567
0
LINE
8
BLACK
6
CONTINUOUS
10
3.2758
20
0.567
11
3.2878
21
0.567
0
LINE
8
BLACK
6
CONTINUOUS
10
3.2878
20
0.567
11
3.2878
21
0.51
0
LINE
8
BLACK
6
CONTINUOUS
10
3.2681
20
0.51
11
3.2561
21
0.51
0
LINE
8
BLACK
6
CONTINUOUS
10
3.2561
20
0.51
11
3.2561
21
0.567
0
LINE
8
BLACK
6
CONTINUOUS
10
3.2561
20
0.567
11
3.2681
21
0.567
0
LINE
8
BLACK
6
CONTINUOUS
10
3.2681
20
0.567
11
3.2681
21
0.51
0
LINE
8
BLACK
6
CONTINUOUS
10
3.2484
20
0.51
11
3.2364
21
0.51
0
LINE
8
BLACK
6
CONTINUOUS
10
3.2364
20
0.51
11
3.2364
21
0.567
0
LINE
8
BLACK
6
CONTINUOUS
10
3.2364
20
0.567
11
3.2484
21
0.567
0
LINE
8
BLACK
6
CONTINUOUS
10
3.2484
20
0.567
11
3.2484
21
0.51
0
LINE
8
BLACK
6
CONTINUOUS
10
3.2287
20
0.51
11
3.2167
21
0.51
0
LINE
8
BLACK
6
CONTINUOUS
10
3.2167
20
0.51
11
3.2167
21
0.567
0
LINE
8
BLACK
6
CONTINUOUS
10
3.2167
20
0.567
11
3.2287
21
0.567
0
LINE
8
BLACK
6
CONTINUOUS
10
3.2287
20
0.567
11
3.2287
21
0.51
0
LINE
8
BLACK
6
CONTINUOUS
10
3.209
20
0.51
11
3.197
21
0.51
0
LINE
8
BLACK
6
CONTINUOUS
10
3.197
20
0.51
11
3.197
21
0.567
0
LINE
8
BLACK
6
CONTINUOUS
10
3.197
20
0.567
11
3.209
21
0.567
0
LINE
8
BLACK
6
CONTINUOUS
10
3.209
20
0.567
11
3.209
21
0.51
0
LINE
8
BLACK
6
CONTINUOUS
10
1.6272
20
0.51
11
1.6152
21
0.51
0
LINE
8
BLACK
6
CONTINUOUS
10
1.6152
20
0.51
11
1.6152
21
0.567
0
LINE
8
BLACK
6
CONTINUOUS
10
1.6152
20
0.567
11
1.6272
21
0.567
0
LINE
8
BLACK
6
CONTINUOUS
10
1.6272
20
0.567
11
1.6272
21
0.51
0
LINE
8
BLACK
6
CONTINUOUS
10
1.4696
20
0.51
11
1.4576
21
0.51
0
LINE
8
BLACK
6
CONTINUOUS
10
1.4576
20
0.51
11
1.4576
21
0.567
0
LINE
8
BLACK
6
CONTINUOUS
10
1.4576
20
0.567
11
1.4696
21
0.567
0
LINE
8
BLACK
6
CONTINUOUS
10
1.4696
20
0.567
11
1.4696
21
0.51
0
LINE
8
BLACK
6
CONTINUOUS
10
1.6469
20
0.51
11
1.6349
21
0.51
0
LINE
8
BLACK
6
CONTINUOUS
10
1.6349
20
0.51
11
1.6349
21
0.567
0
LINE
8
BLACK
6
CONTINUOUS
10
1.6349
20
0.567
11
1.6469
21
0.567
0
LINE
8
BLACK
6
CONTINUOUS
10
1.6469
20
0.567
11
1.6469
21
0.51
0
LINE
8
BLACK
6
CONTINUOUS
10
1.6666
20
0.51
11
1.6546
21
0.51
0
LINE
8
BLACK
6
CONTINUOUS
10
1.6546
20
0.51
11
1.6546
21
0.567
0
LINE
8
BLACK
6
CONTINUOUS
10
1.6546
20
0.567
11
1.6666
21
0.567
0
LINE
8
BLACK
6
CONTINUOUS
10
1.6666
20
0.567
11
1.6666
21
0.51
0
LINE
8
BLACK
6
CONTINUOUS
10
1.6075
20
0.51
11
1.5955
21
0.51
0
LINE
8
BLACK
6
CONTINUOUS
10
1.5955
20
0.51
11
1.5955
21
0.567
0
LINE
8
BLACK
6
CONTINUOUS
10
1.5955
20
0.567
11
1.6075
21
0.567
0
LINE
8
BLACK
6
CONTINUOUS
10
1.6075
20
0.567
11
1.6075
21
0.51
0
LINE
8
BLACK
6
CONTINUOUS
10
1.5878
20
0.51
11
1.5758
21
0.51
0
LINE
8
BLACK
6
CONTINUOUS
10
1.5758
20
0.51
11
1.5758
21
0.567
0
LINE
8
BLACK
6
CONTINUOUS
10
1.5758
20
0.567
11
1.5878
21
0.567
0
LINE
8
BLACK
6
CONTINUOUS
10
1.5878
20
0.567
11
1.5878
21
0.51
0
LINE
8
BLACK
6
CONTINUOUS
10
1.5681
20
0.51
11
1.5561
21
0.51
0
LINE
8
BLACK
6
CONTINUOUS
10
1.5561
20
0.51
11
1.5561
21
0.567
0
LINE
8
BLACK
6
CONTINUOUS
10
1.5561
20
0.567
11
1.5681
21
0.567
0
LINE
8
BLACK
6
CONTINUOUS
10
1.5681
20
0.567
11
1.5681
21
0.51
0
LINE
8
BLACK
6
CONTINUOUS
10
1.5484
20
0.51
11
1.5364
21
0.51
0
LINE
8
BLACK
6
CONTINUOUS
10
1.5364
20
0.51
11
1.5364
21
0.567
0
LINE
8
BLACK
6
CONTINUOUS
10
1.5364
20
0.567
11
1.5484
21
0.567
0
LINE
8
BLACK
6
CONTINUOUS
10
1.5484
20
0.567
11
1.5484
21
0.51
0
LINE
8
BLACK
6
CONTINUOUS
10
1.5287
20
0.51
11
1.5167
21
0.51
0
LINE
8
BLACK
6
CONTINUOUS
10
1.5167
20
0.51
11
1.5167
21
0.567
0
LINE
8
BLACK
6
CONTINUOUS
10
1.5167
20
0.567
11
1.5287
21
0.567
0
LINE
8
BLACK
6
CONTINUOUS
10
1.5287
20
0.567
11
1.5287
21
0.51
0
LINE
8
BLACK
6
CONTINUOUS
10
1.509
20
0.51
11
1.497
21
0.51
0
LINE
8
BLACK
6
CONTINUOUS
10
1.497
20
0.51
11
1.497
21
0.567
0
LINE
8
BLACK
6
CONTINUOUS
10
1.497
20
0.567
11
1.509
21
0.567
0
LINE
8
BLACK
6
CONTINUOUS
10
1.509
20
0.567
11
1.509
21
0.51
0
LINE
8
BLACK
6
CONTINUOUS
10
1.4893
20
0.51
11
1.4773
21
0.51
0
LINE
8
BLACK
6
CONTINUOUS
10
1.4773
20
0.51
11
1.4773
21
0.567
0
LINE
8
BLACK
6
CONTINUOUS
10
1.4773
20
0.567
11
1.4893
21
0.567
0
LINE
8
BLACK
6
CONTINUOUS
10
1.4893
20
0.567
11
1.4893
21
0.51
0
LINE
8
BLACK
6
CONTINUOUS
10
1.2726
20
0.51
11
1.2606
21
0.51
0
LINE
8
BLACK
6
CONTINUOUS
10
1.2606
20
0.51
11
1.2606
21
0.567
0
LINE
8
BLACK
6
CONTINUOUS
10
1.2606
20
0.567
11
1.2726
21
0.567
0
LINE
8
BLACK
6
CONTINUOUS
10
1.2726
20
0.567
11
1.2726
21
0.51
0
LINE
8
BLACK
6
CONTINUOUS
10
1.4499
20
0.51
11
1.4379
21
0.51
0
LINE
8
BLACK
6
CONTINUOUS
10
1.4379
20
0.51
11
1.4379
21
0.567
0
LINE
8
BLACK
6
CONTINUOUS
10
1.4379
20
0.567
11
1.4499
21
0.567
0
LINE
8
BLACK
6
CONTINUOUS
10
1.4499
20
0.567
11
1.4499
21
0.51
0
LINE
8
BLACK
6
CONTINUOUS
10
1.4302
20
0.51
11
1.4182
21
0.51
0
LINE
8
BLACK
6
CONTINUOUS
10
1.4182
20
0.51
11
1.4182
21
0.567
0
LINE
8
BLACK
6
CONTINUOUS
10
1.4182
20
0.567
11
1.4302
21
0.567
0
LINE
8
BLACK
6
CONTINUOUS
10
1.4302
20
0.567
11
1.4302
21
0.51
0
LINE
8
BLACK
6
CONTINUOUS
10
1.4105
20
0.51
11
1.3985
21
0.51
0
LINE
8
BLACK
6
CONTINUOUS
10
1.3985
20
0.51
11
1.3985
21
0.567
0
LINE
8
BLACK
6
CONTINUOUS
10
1.3985
20
0.567
11
1.4105
21
0.567
0
LINE
8
BLACK
6
CONTINUOUS
10
1.4105
20
0.567
11
1.4105
21
0.51
0
LINE
8
BLACK
6
CONTINUOUS
10
1.3908
20
0.51
11
1.3788
21
0.51
0
LINE
8
BLACK
6
CONTINUOUS
10
1.3788
20
0.51
11
1.3788
21
0.567
0
LINE
8
BLACK
6
CONTINUOUS
10
1.3788
20
0.567
11
1.3908
21
0.567
0
LINE
8
BLACK
6
CONTINUOUS
10
1.3908
20
0.567
11
1.3908
21
0.51
0
LINE
8
BLACK
6
CONTINUOUS
10
1.3711
20
0.51
11
1.3591
21
0.51
0
LINE
8
BLACK
6
CONTINUOUS
10
1.3591
20
0.51
11
1.3591
21
0.567
0
LINE
8
BLACK
6
CONTINUOUS
10
1.3591
20
0.567
11
1.3711
21
0.567
0
LINE
8
BLACK
6
CONTINUOUS
10
1.3711
20
0.567
11
1.3711
21
0.51
0
LINE
8
BLACK
6
CONTINUOUS
10
1.3514
20
0.51
11
1.3394
21
0.51
0
LINE
8
BLACK
6
CONTINUOUS
10
1.3394
20
0.51
11
1.3394
21
0.567
0
LINE
8
BLACK
6
CONTINUOUS
10
1.3394
20
0.567
11
1.3514
21
0.567
0
LINE
8
BLACK
6
CONTINUOUS
10
1.3514
20
0.567
11
1.3514
21
0.51
0
LINE
8
BLACK
6
CONTINUOUS
10
1.3317
20
0.51
11
1.3197
21
0.51
0
LINE
8
BLACK
6
CONTINUOUS
10
1.3197
20
0.51
11
1.3197
21
0.567
0
LINE
8
BLACK
6
CONTINUOUS
10
1.3197
20
0.567
11
1.3317
21
0.567
0
LINE
8
BLACK
6
CONTINUOUS
10
1.3317
20
0.567
11
1.3317
21
0.51
0
LINE
8
BLACK
6
CONTINUOUS
10
1.312
20
0.51
11
1.3
21
0.51
0
LINE
8
BLACK
6
CONTINUOUS
10
1.3
20
0.51
11
1.3
21
0.567
0
LINE
8
BLACK
6
CONTINUOUS
10
1.3
20
0.567
11
1.312
21
0.567
0
LINE
8
BLACK
6
CONTINUOUS
10
1.312
20
0.567
11
1.312
21
0.51
0
LINE
8
BLACK
6
CONTINUOUS
10
1.2923
20
0.51
11
1.2803
21
0.51
0
LINE
8
BLACK
6
CONTINUOUS
10
1.2803
20
0.51
11
1.2803
21
0.567
0
LINE
8
BLACK
6
CONTINUOUS
10
1.2803
20
0.567
11
1.2923
21
0.567
0
LINE
8
BLACK
6
CONTINUOUS
10
1.2923
20
0.567
11
1.2923
21
0.51
0
LINE
8
BLACK
6
CONTINUOUS
10
3.1696
20
0.51
11
3.1576
21
0.51
0
LINE
8
BLACK
6
CONTINUOUS
10
3.1576
20
0.51
11
3.1576
21
0.567
0
LINE
8
BLACK
6
CONTINUOUS
10
3.1576
20
0.567
11
3.1696
21
0.567
0
LINE
8
BLACK
6
CONTINUOUS
10
3.1696
20
0.567
11
3.1696
21
0.51
0
LINE
8
BLACK
6
CONTINUOUS
10
2.9529
20
0.51
11
2.9409
21
0.51
0
LINE
8
BLACK
6
CONTINUOUS
10
2.9409
20
0.51
11
2.9409
21
0.567
0
LINE
8
BLACK
6
CONTINUOUS
10
2.9409
20
0.567
11
2.9529
21
0.567
0
LINE
8
BLACK
6
CONTINUOUS
10
2.9529
20
0.567
11
2.9529
21
0.51
0
LINE
8
BLACK
6
CONTINUOUS
10
2.9726
20
0.51
11
2.9606
21
0.51
0
LINE
8
BLACK
6
CONTINUOUS
10
2.9606
20
0.51
11
2.9606
21
0.567
0
LINE
8
BLACK
6
CONTINUOUS
10
2.9606
20
0.567
11
2.9726
21
0.567
0
LINE
8
BLACK
6
CONTINUOUS
10
2.9726
20
0.567
11
2.9726
21
0.51
0
LINE
8
BLACK
6
CONTINUOUS
10
2.9332
20
0.51
11
2.9212
21
0.51
0
LINE
8
BLACK
6
CONTINUOUS
10
2.9212
20
0.51
11
2.9212
21
0.567
0
LINE
8
BLACK
6
CONTINUOUS
10
2.9212
20
0.567
11
2.9332
21
0.567
0
LINE
8
BLACK
6
CONTINUOUS
10
2.9332
20
0.567
11
2.9332
21
0.51
0
LINE
8
BLACK
6
CONTINUOUS
10
2.9923
20
0.51
11
2.9803
21
0.51
0
LINE
8
BLACK
6
CONTINUOUS
10
2.9803
20
0.51
11
2.9803
21
0.567
0
LINE
8
BLACK
6
CONTINUOUS
10
2.9803
20
0.567
11
2.9923
21
0.567
0
LINE
8
BLACK
6
CONTINUOUS
10
2.9923
20
0.567
11
2.9923
21
0.51
0
LINE
8
BLACK
6
CONTINUOUS
10
2.9135
20
0.51
11
2.9015
21
0.51
0
LINE
8
BLACK
6
CONTINUOUS
10
2.9015
20
0.51
11
2.9015
21
0.567
0
LINE
8
BLACK
6
CONTINUOUS
10
2.9015
20
0.567
11
2.9135
21
0.567
0
LINE
8
BLACK
6
CONTINUOUS
10
2.9135
20
0.567
11
2.9135
21
0.51
0
LINE
8
BLACK
6
CONTINUOUS
10
3.012
20
0.51
11
3
21
0.51
0
LINE
8
BLACK
6
CONTINUOUS
10
3
20
0.51
11
3
21
0.567
0
LINE
8
BLACK
6
CONTINUOUS
10
3
20
0.567
11
3.012
21
0.567
0
LINE
8
BLACK
6
CONTINUOUS
10
3.012
20
0.567
11
3.012
21
0.51
0
LINE
8
BLACK
6
CONTINUOUS
10
3.0317
20
0.51
11
3.0197
21
0.51
0
LINE
8
BLACK
6
CONTINUOUS
10
3.0197
20
0.51
11
3.0197
21
0.567
0
LINE
8
BLACK
6
CONTINUOUS
10
3.0197
20
0.567
11
3.0317
21
0.567
0
LINE
8
BLACK
6
CONTINUOUS
10
3.0317
20
0.567
11
3.0317
21
0.51
0
LINE
8
BLACK
6
CONTINUOUS
10
2.8938
20
0.51
11
2.8818
21
0.51
0
LINE
8
BLACK
6
CONTINUOUS
10
2.8818
20
0.51
11
2.8818
21
0.567
0
LINE
8
BLACK
6
CONTINUOUS
10
2.8818
20
0.567
11
2.8938
21
0.567
0
LINE
8
BLACK
6
CONTINUOUS
10
2.8938
20
0.567
11
2.8938
21
0.51
0
LINE
8
BLACK
6
CONTINUOUS
10
3.0514
20
0.51
11
3.0394
21
0.51
0
LINE
8
BLACK
6
CONTINUOUS
10
3.0394
20
0.51
11
3.0394
21
0.567
0
LINE
8
BLACK
6
CONTINUOUS
10
3.0394
20
0.567
11
3.0514
21
0.567
0
LINE
8
BLACK
6
CONTINUOUS
10
3.0514
20
0.567
11
3.0514
21
0.51
0
LINE
8
BLACK
6
CONTINUOUS
10
2.8741
20
0.51
11
2.8621
21
0.51
0
LINE
8
BLACK
6
CONTINUOUS
10
2.8621
20
0.51
11
2.8621
21
0.567
0
LINE
8
BLACK
6
CONTINUOUS
10
2.8621
20
0.567
11
2.8741
21
0.567
0
LINE
8
BLACK
6
CONTINUOUS
10
2.8741
20
0.567
11
2.8741
21
0.51
0
LINE
8
BLACK
6
CONTINUOUS
10
3.0711
20
0.51
11
3.0591
21
0.51
0
LINE
8
BLACK
6
CONTINUOUS
10
3.0591
20
0.51
11
3.0591
21
0.567
0
LINE
8
BLACK
6
CONTINUOUS
10
3.0591
20
0.567
11
3.0711
21
0.567
0
LINE
8
BLACK
6
CONTINUOUS
10
3.0711
20
0.567
11
3.0711
21
0.51
0
LINE
8
BLACK
6
CONTINUOUS
10
2.8544
20
0.51
11
2.8424
21
0.51
0
LINE
8
BLACK
6
CONTINUOUS
10
2.8424
20
0.51
11
2.8424
21
0.567
0
LINE
8
BLACK
6
CONTINUOUS
10
2.8424
20
0.567
11
2.8544
21
0.567
0
LINE
8
BLACK
6
CONTINUOUS
10
2.8544
20
0.567
11
2.8544
21
0.51
0
LINE
8
BLACK
6
CONTINUOUS
10
3.0908
20
0.51
11
3.0788
21
0.51
0
LINE
8
BLACK
6
CONTINUOUS
10
3.0788
20
0.51
11
3.0788
21
0.567
0
LINE
8
BLACK
6
CONTINUOUS
10
3.0788
20
0.567
11
3.0908
21
0.567
0
LINE
8
BLACK
6
CONTINUOUS
10
3.0908
20
0.567
11
3.0908
21
0.51
0
LINE
8
BLACK
6
CONTINUOUS
10
3.1105
20
0.51
11
3.0985
21
0.51
0
LINE
8
BLACK
6
CONTINUOUS
10
3.0985
20
0.51
11
3.0985
21
0.567
0
LINE
8
BLACK
6
CONTINUOUS
10
3.0985
20
0.567
11
3.1105
21
0.567
0
LINE
8
BLACK
6
CONTINUOUS
10
3.1105
20
0.567
11
3.1105
21
0.51
0
LINE
8
BLACK
6
CONTINUOUS
10
2.8347
20
0.51
11
2.8227
21
0.51
0
LINE
8
BLACK
6
CONTINUOUS
10
2.8227
20
0.51
11
2.8227
21
0.567
0
LINE
8
BLACK
6
CONTINUOUS
10
2.8227
20
0.567
11
2.8347
21
0.567
0
LINE
8
BLACK
6
CONTINUOUS
10
2.8347
20
0.567
11
2.8347
21
0.51
0
LINE
8
BLACK
6
CONTINUOUS
10
2.815
20
0.51
11
2.803
21
0.51
0
LINE
8
BLACK
6
CONTINUOUS
10
2.803
20
0.51
11
2.803
21
0.567
0
LINE
8
BLACK
6
CONTINUOUS
10
2.803
20
0.567
11
2.815
21
0.567
0
LINE
8
BLACK
6
CONTINUOUS
10
2.815
20
0.567
11
2.815
21
0.51
0
LINE
8
BLACK
6
CONTINUOUS
10
3.1499
20
0.51
11
3.1379
21
0.51
0
LINE
8
BLACK
6
CONTINUOUS
10
3.1379
20
0.51
11
3.1379
21
0.567
0
LINE
8
BLACK
6
CONTINUOUS
10
3.1379
20
0.567
11
3.1499
21
0.567
0
LINE
8
BLACK
6
CONTINUOUS
10
3.1499
20
0.567
11
3.1499
21
0.51
0
LINE
8
BLACK
6
CONTINUOUS
10
2.7953
20
0.51
11
2.7833
21
0.51
0
LINE
8
BLACK
6
CONTINUOUS
10
2.7833
20
0.51
11
2.7833
21
0.567
0
LINE
8
BLACK
6
CONTINUOUS
10
2.7833
20
0.567
11
2.7953
21
0.567
0
LINE
8
BLACK
6
CONTINUOUS
10
2.7953
20
0.567
11
2.7953
21
0.51
0
LINE
8
BLACK
6
CONTINUOUS
10
3.1302
20
0.51
11
3.1182
21
0.51
0
LINE
8
BLACK
6
CONTINUOUS
10
3.1182
20
0.51
11
3.1182
21
0.567
0
LINE
8
BLACK
6
CONTINUOUS
10
3.1182
20
0.567
11
3.1302
21
0.567
0
LINE
8
BLACK
6
CONTINUOUS
10
3.1302
20
0.567
11
3.1302
21
0.51
0
LINE
8
BLACK
6
CONTINUOUS
10
1.3711
20
0.753
11
1.3591
21
0.753
0
LINE
8
BLACK
6
CONTINUOUS
10
1.3591
20
0.753
11
1.3591
21
0.81
0
LINE
8
BLACK
6
CONTINUOUS
10
1.3591
20
0.81
11
1.3711
21
0.81
0
LINE
8
BLACK
6
CONTINUOUS
10
1.3711
20
0.81
11
1.3711
21
0.753
0
LINE
8
BLACK
6
CONTINUOUS
10
1.4105
20
0.753
11
1.3985
21
0.753
0
LINE
8
BLACK
6
CONTINUOUS
10
1.3985
20
0.753
11
1.3985
21
0.81
0
LINE
8
BLACK
6
CONTINUOUS
10
1.3985
20
0.81
11
1.4105
21
0.81
0
LINE
8
BLACK
6
CONTINUOUS
10
1.4105
20
0.81
11
1.4105
21
0.753
0
LINE
8
BLACK
6
CONTINUOUS
10
2.7953
20
0.753
11
2.7833
21
0.753
0
LINE
8
BLACK
6
CONTINUOUS
10
2.7833
20
0.753
11
2.7833
21
0.81
0
LINE
8
BLACK
6
CONTINUOUS
10
2.7833
20
0.81
11
2.7953
21
0.81
0
LINE
8
BLACK
6
CONTINUOUS
10
2.7953
20
0.81
11
2.7953
21
0.753
0
LINE
8
BLACK
6
CONTINUOUS
10
1.3908
20
0.753
11
1.3788
21
0.753
0
LINE
8
BLACK
6
CONTINUOUS
10
1.3788
20
0.753
11
1.3788
21
0.81
0
LINE
8
BLACK
6
CONTINUOUS
10
1.3788
20
0.81
11
1.3908
21
0.81
0
LINE
8
BLACK
6
CONTINUOUS
10
1.3908
20
0.81
11
1.3908
21
0.753
0
LINE
8
BLACK
6
CONTINUOUS
10
1.6075
20
0.753
11
1.5955
21
0.753
0
LINE
8
BLACK
6
CONTINUOUS
10
1.5955
20
0.753
11
1.5955
21
0.81
0
LINE
8
BLACK
6
CONTINUOUS
10
1.5955
20
0.81
11
1.6075
21
0.81
0
LINE
8
BLACK
6
CONTINUOUS
10
1.6075
20
0.81
11
1.6075
21
0.753
0
LINE
8
BLACK
6
CONTINUOUS
10
2.9135
20
0.753
11
2.9015
21
0.753
0
LINE
8
BLACK
6
CONTINUOUS
10
2.9015
20
0.753
11
2.9015
21
0.81
0
LINE
8
BLACK
6
CONTINUOUS
10
2.9015
20
0.81
11
2.9135
21
0.81
0
LINE
8
BLACK
6
CONTINUOUS
10
2.9135
20
0.81
11
2.9135
21
0.753
0
LINE
8
BLACK
6
CONTINUOUS
10
1.2332
20
0.753
11
1.2212
21
0.753
0
LINE
8
BLACK
6
CONTINUOUS
10
1.2212
20
0.753
11
1.2212
21
0.81
0
LINE
8
BLACK
6
CONTINUOUS
10
1.2212
20
0.81
11
1.2332
21
0.81
0
LINE
8
BLACK
6
CONTINUOUS
10
1.2332
20
0.81
11
1.2332
21
0.753
0
LINE
8
BLACK
6
CONTINUOUS
10
3.1696
20
0.753
11
3.1576
21
0.753
0
LINE
8
BLACK
6
CONTINUOUS
10
3.1576
20
0.753
11
3.1576
21
0.81
0
LINE
8
BLACK
6
CONTINUOUS
10
3.1576
20
0.81
11
3.1696
21
0.81
0
LINE
8
BLACK
6
CONTINUOUS
10
3.1696
20
0.81
11
3.1696
21
0.753
0
LINE
8
BLACK
6
CONTINUOUS
10
1.3514
20
0.753
11
1.3394
21
0.753
0
LINE
8
BLACK
6
CONTINUOUS
10
1.3394
20
0.753
11
1.3394
21
0.81
0
LINE
8
BLACK
6
CONTINUOUS
10
1.3394
20
0.81
11
1.3514
21
0.81
0
LINE
8
BLACK
6
CONTINUOUS
10
1.3514
20
0.81
11
1.3514
21
0.753
0
LINE
8
BLACK
6
CONTINUOUS
10
2.9332
20
0.753
11
2.9212
21
0.753
0
LINE
8
BLACK
6
CONTINUOUS
10
2.9212
20
0.753
11
2.9212
21
0.81
0
LINE
8
BLACK
6
CONTINUOUS
10
2.9212
20
0.81
11
2.9332
21
0.81
0
LINE
8
BLACK
6
CONTINUOUS
10
2.9332
20
0.81
11
2.9332
21
0.753
0
LINE
8
BLACK
6
CONTINUOUS
10
1.3317
20
0.753
11
1.3197
21
0.753
0
LINE
8
BLACK
6
CONTINUOUS
10
1.3197
20
0.753
11
1.3197
21
0.81
0
LINE
8
BLACK
6
CONTINUOUS
10
1.3197
20
0.81
11
1.3317
21
0.81
0
LINE
8
BLACK
6
CONTINUOUS
10
1.3317
20
0.81
11
1.3317
21
0.753
0
LINE
8
BLACK
6
CONTINUOUS
10
1.5484
20
0.753
11
1.5364
21
0.753
0
LINE
8
BLACK
6
CONTINUOUS
10
1.5364
20
0.753
11
1.5364
21
0.81
0
LINE
8
BLACK
6
CONTINUOUS
10
1.5364
20
0.81
11
1.5484
21
0.81
0
LINE
8
BLACK
6
CONTINUOUS
10
1.5484
20
0.81
11
1.5484
21
0.753
0
LINE
8
BLACK
6
CONTINUOUS
10
2.8938
20
0.753
11
2.8818
21
0.753
0
LINE
8
BLACK
6
CONTINUOUS
10
2.8818
20
0.753
11
2.8818
21
0.81
0
LINE
8
BLACK
6
CONTINUOUS
10
2.8818
20
0.81
11
2.8938
21
0.81
0
LINE
8
BLACK
6
CONTINUOUS
10
2.8938
20
0.81
11
2.8938
21
0.753
0
LINE
8
BLACK
6
CONTINUOUS
10
1.4302
20
0.753
11
1.4182
21
0.753
0
LINE
8
BLACK
6
CONTINUOUS
10
1.4182
20
0.753
11
1.4182
21
0.81
0
LINE
8
BLACK
6
CONTINUOUS
10
1.4182
20
0.81
11
1.4302
21
0.81
0
LINE
8
BLACK
6
CONTINUOUS
10
1.4302
20
0.81
11
1.4302
21
0.753
0
LINE
8
BLACK
6
CONTINUOUS
10
1.5878
20
0.753
11
1.5758
21
0.753
0
LINE
8
BLACK
6
CONTINUOUS
10
1.5758
20
0.753
11
1.5758
21
0.81
0
LINE
8
BLACK
6
CONTINUOUS
10
1.5758
20
0.81
11
1.5878
21
0.81
0
LINE
8
BLACK
6
CONTINUOUS
10
1.5878
20
0.81
11
1.5878
21
0.753
0
LINE
8
BLACK
6
CONTINUOUS
10
1.4499
20
0.753
11
1.4379
21
0.753
0
LINE
8
BLACK
6
CONTINUOUS
10
1.4379
20
0.753
11
1.4379
21
0.81
0
LINE
8
BLACK
6
CONTINUOUS
10
1.4379
20
0.81
11
1.4499
21
0.81
0
LINE
8
BLACK
6
CONTINUOUS
10
1.4499
20
0.81
11
1.4499
21
0.753
0
LINE
8
BLACK
6
CONTINUOUS
10
2.8741
20
0.753
11
2.8621
21
0.753
0
LINE
8
BLACK
6
CONTINUOUS
10
2.8621
20
0.753
11
2.8621
21
0.81
0
LINE
8
BLACK
6
CONTINUOUS
10
2.8621
20
0.81
11
2.8741
21
0.81
0
LINE
8
BLACK
6
CONTINUOUS
10
2.8741
20
0.81
11
2.8741
21
0.753
0
LINE
8
BLACK
6
CONTINUOUS
10
1.4696
20
0.753
11
1.4576
21
0.753
0
LINE
8
BLACK
6
CONTINUOUS
10
1.4576
20
0.753
11
1.4576
21
0.81
0
LINE
8
BLACK
6
CONTINUOUS
10
1.4576
20
0.81
11
1.4696
21
0.81
0
LINE
8
BLACK
6
CONTINUOUS
10
1.4696
20
0.81
11
1.4696
21
0.753
0
LINE
8
BLACK
6
CONTINUOUS
10
2.815
20
0.753
11
2.803
21
0.753
0
LINE
8
BLACK
6
CONTINUOUS
10
2.803
20
0.753
11
2.803
21
0.81
0
LINE
8
BLACK
6
CONTINUOUS
10
2.803
20
0.81
11
2.815
21
0.81
0
LINE
8
BLACK
6
CONTINUOUS
10
2.815
20
0.81
11
2.815
21
0.753
0
LINE
8
BLACK
6
CONTINUOUS
10
1.4893
20
0.753
11
1.4773
21
0.753
0
LINE
8
BLACK
6
CONTINUOUS
10
1.4773
20
0.753
11
1.4773
21
0.81
0
LINE
8
BLACK
6
CONTINUOUS
10
1.4773
20
0.81
11
1.4893
21
0.81
0
LINE
8
BLACK
6
CONTINUOUS
10
1.4893
20
0.81
11
1.4893
21
0.753
0
LINE
8
BLACK
6
CONTINUOUS
10
1.5681
20
0.753
11
1.5561
21
0.753
0
LINE
8
BLACK
6
CONTINUOUS
10
1.5561
20
0.753
11
1.5561
21
0.81
0
LINE
8
BLACK
6
CONTINUOUS
10
1.5561
20
0.81
11
1.5681
21
0.81
0
LINE
8
BLACK
6
CONTINUOUS
10
1.5681
20
0.81
11
1.5681
21
0.753
0
LINE
8
BLACK
6
CONTINUOUS
10
2.8544
20
0.753
11
2.8424
21
0.753
0
LINE
8
BLACK
6
CONTINUOUS
10
2.8424
20
0.753
11
2.8424
21
0.81
0
LINE
8
BLACK
6
CONTINUOUS
10
2.8424
20
0.81
11
2.8544
21
0.81
0
LINE
8
BLACK
6
CONTINUOUS
10
2.8544
20
0.81
11
2.8544
21
0.753
0
LINE
8
BLACK
6
CONTINUOUS
10
1.509
20
0.753
11
1.497
21
0.753
0
LINE
8
BLACK
6
CONTINUOUS
10
1.497
20
0.753
11
1.497
21
0.81
0
LINE
8
BLACK
6
CONTINUOUS
10
1.497
20
0.81
11
1.509
21
0.81
0
LINE
8
BLACK
6
CONTINUOUS
10
1.509
20
0.81
11
1.509
21
0.753
0
LINE
8
BLACK
6
CONTINUOUS
10
1.5287
20
0.753
11
1.5167
21
0.753
0
LINE
8
BLACK
6
CONTINUOUS
10
1.5167
20
0.753
11
1.5167
21
0.81
0
LINE
8
BLACK
6
CONTINUOUS
10
1.5167
20
0.81
11
1.5287
21
0.81
0
LINE
8
BLACK
6
CONTINUOUS
10
1.5287
20
0.81
11
1.5287
21
0.753
0
LINE
8
BLACK
6
CONTINUOUS
10
2.8347
20
0.753
11
2.8227
21
0.753
0
LINE
8
BLACK
6
CONTINUOUS
10
2.8227
20
0.753
11
2.8227
21
0.81
0
LINE
8
BLACK
6
CONTINUOUS
10
2.8227
20
0.81
11
2.8347
21
0.81
0
LINE
8
BLACK
6
CONTINUOUS
10
2.8347
20
0.81
11
2.8347
21
0.753
0
LINE
8
BLACK
6
CONTINUOUS
10
1.0953
20
0.753
11
1.0833
21
0.753
0
LINE
8
BLACK
6
CONTINUOUS
10
1.0833
20
0.753
11
1.0833
21
0.81
0
LINE
8
BLACK
6
CONTINUOUS
10
1.0833
20
0.81
11
1.0953
21
0.81
0
LINE
8
BLACK
6
CONTINUOUS
10
1.0953
20
0.81
11
1.0953
21
0.753
0
LINE
8
BLACK
6
CONTINUOUS
10
3.1893
20
0.753
11
3.1773
21
0.753
0
LINE
8
BLACK
6
CONTINUOUS
10
3.1773
20
0.753
11
3.1773
21
0.81
0
LINE
8
BLACK
6
CONTINUOUS
10
3.1773
20
0.81
11
3.1893
21
0.81
0
LINE
8
BLACK
6
CONTINUOUS
10
3.1893
20
0.81
11
3.1893
21
0.753
0
LINE
8
BLACK
6
CONTINUOUS
10
3.1499
20
0.753
11
3.1379
21
0.753
0
LINE
8
BLACK
6
CONTINUOUS
10
3.1379
20
0.753
11
3.1379
21
0.81
0
LINE
8
BLACK
6
CONTINUOUS
10
3.1379
20
0.81
11
3.1499
21
0.81
0
LINE
8
BLACK
6
CONTINUOUS
10
3.1499
20
0.81
11
3.1499
21
0.753
0
LINE
8
BLACK
6
CONTINUOUS
10
3.209
20
0.753
11
3.197
21
0.753
0
LINE
8
BLACK
6
CONTINUOUS
10
3.197
20
0.753
11
3.197
21
0.81
0
LINE
8
BLACK
6
CONTINUOUS
10
3.197
20
0.81
11
3.209
21
0.81
0
LINE
8
BLACK
6
CONTINUOUS
10
3.209
20
0.81
11
3.209
21
0.753
0
LINE
8
BLACK
6
CONTINUOUS
10
3.2287
20
0.753
11
3.2167
21
0.753
0
LINE
8
BLACK
6
CONTINUOUS
10
3.2167
20
0.753
11
3.2167
21
0.81
0
LINE
8
BLACK
6
CONTINUOUS
10
3.2167
20
0.81
11
3.2287
21
0.81
0
LINE
8
BLACK
6
CONTINUOUS
10
3.2287
20
0.81
11
3.2287
21
0.753
0
LINE
8
BLACK
6
CONTINUOUS
10
3.1302
20
0.753
11
3.1182
21
0.753
0
LINE
8
BLACK
6
CONTINUOUS
10
3.1182
20
0.753
11
3.1182
21
0.81
0
LINE
8
BLACK
6
CONTINUOUS
10
3.1182
20
0.81
11
3.1302
21
0.81
0
LINE
8
BLACK
6
CONTINUOUS
10
3.1302
20
0.81
11
3.1302
21
0.753
0
LINE
8
BLACK
6
CONTINUOUS
10
3.2484
20
0.753
11
3.2364
21
0.753
0
LINE
8
BLACK
6
CONTINUOUS
10
3.2364
20
0.753
11
3.2364
21
0.81
0
LINE
8
BLACK
6
CONTINUOUS
10
3.2364
20
0.81
11
3.2484
21
0.81
0
LINE
8
BLACK
6
CONTINUOUS
10
3.2484
20
0.81
11
3.2484
21
0.753
0
LINE
8
BLACK
6
CONTINUOUS
10
3.2681
20
0.753
11
3.2561
21
0.753
0
LINE
8
BLACK
6
CONTINUOUS
10
3.2561
20
0.753
11
3.2561
21
0.81
0
LINE
8
BLACK
6
CONTINUOUS
10
3.2561
20
0.81
11
3.2681
21
0.81
0
LINE
8
BLACK
6
CONTINUOUS
10
3.2681
20
0.81
11
3.2681
21
0.753
0
LINE
8
BLACK
6
CONTINUOUS
10
3.1105
20
0.753
11
3.0985
21
0.753
0
LINE
8
BLACK
6
CONTINUOUS
10
3.0985
20
0.753
11
3.0985
21
0.81
0
LINE
8
BLACK
6
CONTINUOUS
10
3.0985
20
0.81
11
3.1105
21
0.81
0
LINE
8
BLACK
6
CONTINUOUS
10
3.1105
20
0.81
11
3.1105
21
0.753
0
LINE
8
BLACK
6
CONTINUOUS
10
3.2878
20
0.753
11
3.2758
21
0.753
0
LINE
8
BLACK
6
CONTINUOUS
10
3.2758
20
0.753
11
3.2758
21
0.81
0
LINE
8
BLACK
6
CONTINUOUS
10
3.2758
20
0.81
11
3.2878
21
0.81
0
LINE
8
BLACK
6
CONTINUOUS
10
3.2878
20
0.81
11
3.2878
21
0.753
0
LINE
8
BLACK
6
CONTINUOUS
10
3.3075
20
0.753
11
3.2955
21
0.753
0
LINE
8
BLACK
6
CONTINUOUS
10
3.2955
20
0.753
11
3.2955
21
0.81
0
LINE
8
BLACK
6
CONTINUOUS
10
3.2955
20
0.81
11
3.3075
21
0.81
0
LINE
8
BLACK
6
CONTINUOUS
10
3.3075
20
0.81
11
3.3075
21
0.753
0
LINE
8
BLACK
6
CONTINUOUS
10
3.0908
20
0.753
11
3.0788
21
0.753
0
LINE
8
BLACK
6
CONTINUOUS
10
3.0788
20
0.753
11
3.0788
21
0.81
0
LINE
8
BLACK
6
CONTINUOUS
10
3.0788
20
0.81
11
3.0908
21
0.81
0
LINE
8
BLACK
6
CONTINUOUS
10
3.0908
20
0.81
11
3.0908
21
0.753
0
LINE
8
BLACK
6
CONTINUOUS
10
3.3272
20
0.753
11
3.3152
21
0.753
0
LINE
8
BLACK
6
CONTINUOUS
10
3.3152
20
0.753
11
3.3152
21
0.81
0
LINE
8
BLACK
6
CONTINUOUS
10
3.3152
20
0.81
11
3.3272
21
0.81
0
LINE
8
BLACK
6
CONTINUOUS
10
3.3272
20
0.81
11
3.3272
21
0.753
0
LINE
8
BLACK
6
CONTINUOUS
10
3.3469
20
0.753
11
3.3349
21
0.753
0
LINE
8
BLACK
6
CONTINUOUS
10
3.3349
20
0.753
11
3.3349
21
0.81
0
LINE
8
BLACK
6
CONTINUOUS
10
3.3349
20
0.81
11
3.3469
21
0.81
0
LINE
8
BLACK
6
CONTINUOUS
10
3.3469
20
0.81
11
3.3469
21
0.753
0
LINE
8
BLACK
6
CONTINUOUS
10
3.0711
20
0.753
11
3.0591
21
0.753
0
LINE
8
BLACK
6
CONTINUOUS
10
3.0591
20
0.753
11
3.0591
21
0.81
0
LINE
8
BLACK
6
CONTINUOUS
10
3.0591
20
0.81
11
3.0711
21
0.81
0
LINE
8
BLACK
6
CONTINUOUS
10
3.0711
20
0.81
11
3.0711
21
0.753
0
LINE
8
BLACK
6
CONTINUOUS
10
3.3666
20
0.753
11
3.3546
21
0.753
0
LINE
8
BLACK
6
CONTINUOUS
10
3.3546
20
0.753
11
3.3546
21
0.81
0
LINE
8
BLACK
6
CONTINUOUS
10
3.3546
20
0.81
11
3.3666
21
0.81
0
LINE
8
BLACK
6
CONTINUOUS
10
3.3666
20
0.81
11
3.3666
21
0.753
0
LINE
8
BLACK
6
CONTINUOUS
10
1.312
20
0.753
11
1.3
21
0.753
0
LINE
8
BLACK
6
CONTINUOUS
10
1.3
20
0.753
11
1.3
21
0.81
0
LINE
8
BLACK
6
CONTINUOUS
10
1.3
20
0.81
11
1.312
21
0.81
0
LINE
8
BLACK
6
CONTINUOUS
10
1.312
20
0.81
11
1.312
21
0.753
0
LINE
8
BLACK
6
CONTINUOUS
10
3.0514
20
0.753
11
3.0394
21
0.753
0
LINE
8
BLACK
6
CONTINUOUS
10
3.0394
20
0.753
11
3.0394
21
0.81
0
LINE
8
BLACK
6
CONTINUOUS
10
3.0394
20
0.81
11
3.0514
21
0.81
0
LINE
8
BLACK
6
CONTINUOUS
10
3.0514
20
0.81
11
3.0514
21
0.753
0
LINE
8
BLACK
6
CONTINUOUS
10
1.115
20
0.753
11
1.103
21
0.753
0
LINE
8
BLACK
6
CONTINUOUS
10
1.103
20
0.753
11
1.103
21
0.81
0
LINE
8
BLACK
6
CONTINUOUS
10
1.103
20
0.81
11
1.115
21
0.81
0
LINE
8
BLACK
6
CONTINUOUS
10
1.115
20
0.81
11
1.115
21
0.753
0
LINE
8
BLACK
6
CONTINUOUS
10
1.1347
20
0.753
11
1.1227
21
0.753
0
LINE
8
BLACK
6
CONTINUOUS
10
1.1227
20
0.753
11
1.1227
21
0.81
0
LINE
8
BLACK
6
CONTINUOUS
10
1.1227
20
0.81
11
1.1347
21
0.81
0
LINE
8
BLACK
6
CONTINUOUS
10
1.1347
20
0.81
11
1.1347
21
0.753
0
LINE
8
BLACK
6
CONTINUOUS
10
3.0317
20
0.753
11
3.0197
21
0.753
0
LINE
8
BLACK
6
CONTINUOUS
10
3.0197
20
0.753
11
3.0197
21
0.81
0
LINE
8
BLACK
6
CONTINUOUS
10
3.0197
20
0.81
11
3.0317
21
0.81
0
LINE
8
BLACK
6
CONTINUOUS
10
3.0317
20
0.81
11
3.0317
21
0.753
0
LINE
8
BLACK
6
CONTINUOUS
10
1.1544
20
0.753
11
1.1424
21
0.753
0
LINE
8
BLACK
6
CONTINUOUS
10
1.1424
20
0.753
11
1.1424
21
0.81
0
LINE
8
BLACK
6
CONTINUOUS
10
1.1424
20
0.81
11
1.1544
21
0.81
0
LINE
8
BLACK
6
CONTINUOUS
10
1.1544
20
0.81
11
1.1544
21
0.753
0
LINE
8
BLACK
6
CONTINUOUS
10
1.1741
20
0.753
11
1.1621
21
0.753
0
LINE
8
BLACK
6
CONTINUOUS
10
1.1621
20
0.753
11
1.1621
21
0.81
0
LINE
8
BLACK
6
CONTINUOUS
10
1.1621
20
0.81
11
1.1741
21
0.81
0
LINE
8
BLACK
6
CONTINUOUS
10
1.1741
20
0.81
11
1.1741
21
0.753
0
LINE
8
BLACK
6
CONTINUOUS
10
3.012
20
0.753
11
3
21
0.753
0
LINE
8
BLACK
6
CONTINUOUS
10
3
20
0.753
11
3
21
0.81
0
LINE
8
BLACK
6
CONTINUOUS
10
3
20
0.81
11
3.012
21
0.81
0
LINE
8
BLACK
6
CONTINUOUS
10
3.012
20
0.81
11
3.012
21
0.753
0
LINE
8
BLACK
6
CONTINUOUS
10
1.1938
20
0.753
11
1.1818
21
0.753
0
LINE
8
BLACK
6
CONTINUOUS
10
1.1818
20
0.753
11
1.1818
21
0.81
0
LINE
8
BLACK
6
CONTINUOUS
10
1.1818
20
0.81
11
1.1938
21
0.81
0
LINE
8
BLACK
6
CONTINUOUS
10
1.1938
20
0.81
11
1.1938
21
0.753
0
LINE
8
BLACK
6
CONTINUOUS
10
1.2135
20
0.753
11
1.2015
21
0.753
0
LINE
8
BLACK
6
CONTINUOUS
10
1.2015
20
0.753
11
1.2015
21
0.81
0
LINE
8
BLACK
6
CONTINUOUS
10
1.2015
20
0.81
11
1.2135
21
0.81
0
LINE
8
BLACK
6
CONTINUOUS
10
1.2135
20
0.81
11
1.2135
21
0.753
0
LINE
8
BLACK
6
CONTINUOUS
10
2.9923
20
0.753
11
2.9803
21
0.753
0
LINE
8
BLACK
6
CONTINUOUS
10
2.9803
20
0.753
11
2.9803
21
0.81
0
LINE
8
BLACK
6
CONTINUOUS
10
2.9803
20
0.81
11
2.9923
21
0.81
0
LINE
8
BLACK
6
CONTINUOUS
10
2.9923
20
0.81
11
2.9923
21
0.753
0
LINE
8
BLACK
6
CONTINUOUS
10
1.2529
20
0.753
11
1.2409
21
0.753
0
LINE
8
BLACK
6
CONTINUOUS
10
1.2409
20
0.753
11
1.2409
21
0.81
0
LINE
8
BLACK
6
CONTINUOUS
10
1.2409
20
0.81
11
1.2529
21
0.81
0
LINE
8
BLACK
6
CONTINUOUS
10
1.2529
20
0.81
11
1.2529
21
0.753
0
LINE
8
BLACK
6
CONTINUOUS
10
2.9726
20
0.753
11
2.9606
21
0.753
0
LINE
8
BLACK
6
CONTINUOUS
10
2.9606
20
0.753
11
2.9606
21
0.81
0
LINE
8
BLACK
6
CONTINUOUS
10
2.9606
20
0.81
11
2.9726
21
0.81
0
LINE
8
BLACK
6
CONTINUOUS
10
2.9726
20
0.81
11
2.9726
21
0.753
0
LINE
8
BLACK
6
CONTINUOUS
10
1.2726
20
0.753
11
1.2606
21
0.753
0
LINE
8
BLACK
6
CONTINUOUS
10
1.2606
20
0.753
11
1.2606
21
0.81
0
LINE
8
BLACK
6
CONTINUOUS
10
1.2606
20
0.81
11
1.2726
21
0.81
0
LINE
8
BLACK
6
CONTINUOUS
10
1.2726
20
0.81
11
1.2726
21
0.753
0
LINE
8
BLACK
6
CONTINUOUS
10
1.2923
20
0.753
11
1.2803
21
0.753
0
LINE
8
BLACK
6
CONTINUOUS
10
1.2803
20
0.753
11
1.2803
21
0.81
0
LINE
8
BLACK
6
CONTINUOUS
10
1.2803
20
0.81
11
1.2923
21
0.81
0
LINE
8
BLACK
6
CONTINUOUS
10
1.2923
20
0.81
11
1.2923
21
0.753
0
LINE
8
BLACK
6
CONTINUOUS
10
2.9529
20
0.753
11
2.9409
21
0.753
0
LINE
8
BLACK
6
CONTINUOUS
10
2.9409
20
0.753
11
2.9409
21
0.81
0
LINE
8
BLACK
6
CONTINUOUS
10
2.9409
20
0.81
11
2.9529
21
0.81
0
LINE
8
BLACK
6
CONTINUOUS
10
2.9529
20
0.81
11
2.9529
21
0.753
0
LINE
8
BLACK
6
CONTINUOUS
10
1.6469
20
0.753
11
1.6349
21
0.753
0
LINE
8
BLACK
6
CONTINUOUS
10
1.6349
20
0.753
11
1.6349
21
0.81
0
LINE
8
BLACK
6
CONTINUOUS
10
1.6349
20
0.81
11
1.6469
21
0.81
0
LINE
8
BLACK
6
CONTINUOUS
10
1.6469
20
0.81
11
1.6469
21
0.753
0
LINE
8
BLACK
6
CONTINUOUS
10
1.6666
20
0.753
11
1.6546
21
0.753
0
LINE
8
BLACK
6
CONTINUOUS
10
1.6546
20
0.753
11
1.6546
21
0.81
0
LINE
8
BLACK
6
CONTINUOUS
10
1.6546
20
0.81
11
1.6666
21
0.81
0
LINE
8
BLACK
6
CONTINUOUS
10
1.6666
20
0.81
11
1.6666
21
0.753
0
LINE
8
BLACK
6
CONTINUOUS
10
1.6272
20
0.753
11
1.6152
21
0.753
0
LINE
8
BLACK
6
CONTINUOUS
10
1.6152
20
0.753
11
1.6152
21
0.81
0
LINE
8
BLACK
6
CONTINUOUS
10
1.6152
20
0.81
11
1.6272
21
0.81
0
LINE
8
BLACK
6
CONTINUOUS
10
1.6272
20
0.81
11
1.6272
21
0.753
0
LINE
8
BLACK
6
CONTINUOUS
10
1.2529
20
2.29
11
1.2409
21
2.29
0
LINE
8
BLACK
6
CONTINUOUS
10
1.2409
20
2.29
11
1.2409
21
2.347
0
LINE
8
BLACK
6
CONTINUOUS
10
1.2409
20
2.347
11
1.2529
21
2.347
0
LINE
8
BLACK
6
CONTINUOUS
10
1.2529
20
2.347
11
1.2529
21
2.29
0
LINE
8
BLACK
6
CONTINUOUS
10
3.1893
20
2.29
11
3.1773
21
2.29
0
LINE
8
BLACK
6
CONTINUOUS
10
3.1773
20
2.29
11
3.1773
21
2.347
0
LINE
8
BLACK
6
CONTINUOUS
10
3.1773
20
2.347
11
3.1893
21
2.347
0
LINE
8
BLACK
6
CONTINUOUS
10
3.1893
20
2.347
11
3.1893
21
2.29
0
LINE
8
BLACK
6
CONTINUOUS
10
1.2332
20
2.29
11
1.2212
21
2.29
0
LINE
8
BLACK
6
CONTINUOUS
10
1.2212
20
2.29
11
1.2212
21
2.347
0
LINE
8
BLACK
6
CONTINUOUS
10
1.2212
20
2.347
11
1.2332
21
2.347
0
LINE
8
BLACK
6
CONTINUOUS
10
1.2332
20
2.347
11
1.2332
21
2.29
0
LINE
8
BLACK
6
CONTINUOUS
10
1.2135
20
2.29
11
1.2015
21
2.29
0
LINE
8
BLACK
6
CONTINUOUS
10
1.2015
20
2.29
11
1.2015
21
2.347
0
LINE
8
BLACK
6
CONTINUOUS
10
1.2015
20
2.347
11
1.2135
21
2.347
0
LINE
8
BLACK
6
CONTINUOUS
10
1.2135
20
2.347
11
1.2135
21
2.29
0
LINE
8
BLACK
6
CONTINUOUS
10
1.1938
20
2.29
11
1.1818
21
2.29
0
LINE
8
BLACK
6
CONTINUOUS
10
1.1818
20
2.29
11
1.1818
21
2.347
0
LINE
8
BLACK
6
CONTINUOUS
10
1.1818
20
2.347
11
1.1938
21
2.347
0
LINE
8
BLACK
6
CONTINUOUS
10
1.1938
20
2.347
11
1.1938
21
2.29
0
LINE
8
BLACK
6
CONTINUOUS
10
1.1741
20
2.29
11
1.1621
21
2.29
0
LINE
8
BLACK
6
CONTINUOUS
10
1.1621
20
2.29
11
1.1621
21
2.347
0
LINE
8
BLACK
6
CONTINUOUS
10
1.1621
20
2.347
11
1.1741
21
2.347
0
LINE
8
BLACK
6
CONTINUOUS
10
1.1741
20
2.347
11
1.1741
21
2.29
0
LINE
8
BLACK
6
CONTINUOUS
10
1.1544
20
2.29
11
1.1424
21
2.29
0
LINE
8
BLACK
6
CONTINUOUS
10
1.1424
20
2.29
11
1.1424
21
2.347
0
LINE
8
BLACK
6
CONTINUOUS
10
1.1424
20
2.347
11
1.1544
21
2.347
0
LINE
8
BLACK
6
CONTINUOUS
10
1.1544
20
2.347
11
1.1544
21
2.29
0
LINE
8
BLACK
6
CONTINUOUS
10
1.1347
20
2.29
11
1.1227
21
2.29
0
LINE
8
BLACK
6
CONTINUOUS
10
1.1227
20
2.29
11
1.1227
21
2.347
0
LINE
8
BLACK
6
CONTINUOUS
10
1.1227
20
2.347
11
1.1347
21
2.347
0
LINE
8
BLACK
6
CONTINUOUS
10
1.1347
20
2.347
11
1.1347
21
2.29
0
LINE
8
BLACK
6
CONTINUOUS
10
1.115
20
2.29
11
1.103
21
2.29
0
LINE
8
BLACK
6
CONTINUOUS
10
1.103
20
2.29
11
1.103
21
2.347
0
LINE
8
BLACK
6
CONTINUOUS
10
1.103
20
2.347
11
1.115
21
2.347
0
LINE
8
BLACK
6
CONTINUOUS
10
1.115
20
2.347
11
1.115
21
2.29
0
LINE
8
BLACK
6
CONTINUOUS
10
1.0953
20
2.29
11
1.0833
21
2.29
0
LINE
8
BLACK
6
CONTINUOUS
10
1.0833
20
2.29
11
1.0833
21
2.347
0
LINE
8
BLACK
6
CONTINUOUS
10
1.0833
20
2.347
11
1.0953
21
2.347
0
LINE
8
BLACK
6
CONTINUOUS
10
1.0953
20
2.347
11
1.0953
21
2.29
0
LINE
8
BLACK
6
CONTINUOUS
10
3.3666
20
2.29
11
3.3546
21
2.29
0
LINE
8
BLACK
6
CONTINUOUS
10
3.3546
20
2.29
11
3.3546
21
2.347
0
LINE
8
BLACK
6
CONTINUOUS
10
3.3546
20
2.347
11
3.3666
21
2.347
0
LINE
8
BLACK
6
CONTINUOUS
10
3.3666
20
2.347
11
3.3666
21
2.29
0
LINE
8
BLACK
6
CONTINUOUS
10
3.3469
20
2.29
11
3.3349
21
2.29
0
LINE
8
BLACK
6
CONTINUOUS
10
3.3349
20
2.29
11
3.3349
21
2.347
0
LINE
8
BLACK
6
CONTINUOUS
10
3.3349
20
2.347
11
3.3469
21
2.347
0
LINE
8
BLACK
6
CONTINUOUS
10
3.3469
20
2.347
11
3.3469
21
2.29
0
LINE
8
BLACK
6
CONTINUOUS
10
3.3272
20
2.29
11
3.3152
21
2.29
0
LINE
8
BLACK
6
CONTINUOUS
10
3.3152
20
2.29
11
3.3152
21
2.347
0
LINE
8
BLACK
6
CONTINUOUS
10
3.3152
20
2.347
11
3.3272
21
2.347
0
LINE
8
BLACK
6
CONTINUOUS
10
3.3272
20
2.347
11
3.3272
21
2.29
0
LINE
8
BLACK
6
CONTINUOUS
10
3.3075
20
2.29
11
3.2955
21
2.29
0
LINE
8
BLACK
6
CONTINUOUS
10
3.2955
20
2.29
11
3.2955
21
2.347
0
LINE
8
BLACK
6
CONTINUOUS
10
3.2955
20
2.347
11
3.3075
21
2.347
0
LINE
8
BLACK
6
CONTINUOUS
10
3.3075
20
2.347
11
3.3075
21
2.29
0
LINE
8
BLACK
6
CONTINUOUS
10
3.2878
20
2.29
11
3.2758
21
2.29
0
LINE
8
BLACK
6
CONTINUOUS
10
3.2758
20
2.29
11
3.2758
21
2.347
0
LINE
8
BLACK
6
CONTINUOUS
10
3.2758
20
2.347
11
3.2878
21
2.347
0
LINE
8
BLACK
6
CONTINUOUS
10
3.2878
20
2.347
11
3.2878
21
2.29
0
LINE
8
BLACK
6
CONTINUOUS
10
3.2681
20
2.29
11
3.2561
21
2.29
0
LINE
8
BLACK
6
CONTINUOUS
10
3.2561
20
2.29
11
3.2561
21
2.347
0
LINE
8
BLACK
6
CONTINUOUS
10
3.2561
20
2.347
11
3.2681
21
2.347
0
LINE
8
BLACK
6
CONTINUOUS
10
3.2681
20
2.347
11
3.2681
21
2.29
0
LINE
8
BLACK
6
CONTINUOUS
10
3.2484
20
2.29
11
3.2364
21
2.29
0
LINE
8
BLACK
6
CONTINUOUS
10
3.2364
20
2.29
11
3.2364
21
2.347
0
LINE
8
BLACK
6
CONTINUOUS
10
3.2364
20
2.347
11
3.2484
21
2.347
0
LINE
8
BLACK
6
CONTINUOUS
10
3.2484
20
2.347
11
3.2484
21
2.29
0
LINE
8
BLACK
6
CONTINUOUS
10
3.2287
20
2.29
11
3.2167
21
2.29
0
LINE
8
BLACK
6
CONTINUOUS
10
3.2167
20
2.29
11
3.2167
21
2.347
0
LINE
8
BLACK
6
CONTINUOUS
10
3.2167
20
2.347
11
3.2287
21
2.347
0
LINE
8
BLACK
6
CONTINUOUS
10
3.2287
20
2.347
11
3.2287
21
2.29
0
LINE
8
BLACK
6
CONTINUOUS
10
3.209
20
2.29
11
3.197
21
2.29
0
LINE
8
BLACK
6
CONTINUOUS
10
3.197
20
2.29
11
3.197
21
2.347
0
LINE
8
BLACK
6
CONTINUOUS
10
3.197
20
2.347
11
3.209
21
2.347
0
LINE
8
BLACK
6
CONTINUOUS
10
3.209
20
2.347
11
3.209
21
2.29
0
LINE
8
BLACK
6
CONTINUOUS
10
1.6666
20
2.29
11
1.6546
21
2.29
0
LINE
8
BLACK
6
CONTINUOUS
10
1.6546
20
2.29
11
1.6546
21
2.347
0
LINE
8
BLACK
6
CONTINUOUS
10
1.6546
20
2.347
11
1.6666
21
2.347
0
LINE
8
BLACK
6
CONTINUOUS
10
1.6666
20
2.347
11
1.6666
21
2.29
0
LINE
8
BLACK
6
CONTINUOUS
10
1.4696
20
2.29
11
1.4576
21
2.29
0
LINE
8
BLACK
6
CONTINUOUS
10
1.4576
20
2.29
11
1.4576
21
2.347
0
LINE
8
BLACK
6
CONTINUOUS
10
1.4576
20
2.347
11
1.4696
21
2.347
0
LINE
8
BLACK
6
CONTINUOUS
10
1.4696
20
2.347
11
1.4696
21
2.29
0
LINE
8
BLACK
6
CONTINUOUS
10
1.6469
20
2.29
11
1.6349
21
2.29
0
LINE
8
BLACK
6
CONTINUOUS
10
1.6349
20
2.29
11
1.6349
21
2.347
0
LINE
8
BLACK
6
CONTINUOUS
10
1.6349
20
2.347
11
1.6469
21
2.347
0
LINE
8
BLACK
6
CONTINUOUS
10
1.6469
20
2.347
11
1.6469
21
2.29
0
LINE
8
BLACK
6
CONTINUOUS
10
1.6272
20
2.29
11
1.6152
21
2.29
0
LINE
8
BLACK
6
CONTINUOUS
10
1.6152
20
2.29
11
1.6152
21
2.347
0
LINE
8
BLACK
6
CONTINUOUS
10
1.6152
20
2.347
11
1.6272
21
2.347
0
LINE
8
BLACK
6
CONTINUOUS
10
1.6272
20
2.347
11
1.6272
21
2.29
0
LINE
8
BLACK
6
CONTINUOUS
10
1.6075
20
2.29
11
1.5955
21
2.29
0
LINE
8
BLACK
6
CONTINUOUS
10
1.5955
20
2.29
11
1.5955
21
2.347
0
LINE
8
BLACK
6
CONTINUOUS
10
1.5955
20
2.347
11
1.6075
21
2.347
0
LINE
8
BLACK
6
CONTINUOUS
10
1.6075
20
2.347
11
1.6075
21
2.29
0
LINE
8
BLACK
6
CONTINUOUS
10
1.5878
20
2.29
11
1.5758
21
2.29
0
LINE
8
BLACK
6
CONTINUOUS
10
1.5758
20
2.29
11
1.5758
21
2.347
0
LINE
8
BLACK
6
CONTINUOUS
10
1.5758
20
2.347
11
1.5878
21
2.347
0
LINE
8
BLACK
6
CONTINUOUS
10
1.5878
20
2.347
11
1.5878
21
2.29
0
LINE
8
BLACK
6
CONTINUOUS
10
1.5681
20
2.29
11
1.5561
21
2.29
0
LINE
8
BLACK
6
CONTINUOUS
10
1.5561
20
2.29
11
1.5561
21
2.347
0
LINE
8
BLACK
6
CONTINUOUS
10
1.5561
20
2.347
11
1.5681
21
2.347
0
LINE
8
BLACK
6
CONTINUOUS
10
1.5681
20
2.347
11
1.5681
21
2.29
0
LINE
8
BLACK
6
CONTINUOUS
10
1.5484
20
2.29
11
1.5364
21
2.29
0
LINE
8
BLACK
6
CONTINUOUS
10
1.5364
20
2.29
11
1.5364
21
2.347
0
LINE
8
BLACK
6
CONTINUOUS
10
1.5364
20
2.347
11
1.5484
21
2.347
0
LINE
8
BLACK
6
CONTINUOUS
10
1.5484
20
2.347
11
1.5484
21
2.29
0
LINE
8
BLACK
6
CONTINUOUS
10
1.5287
20
2.29
11
1.5167
21
2.29
0
LINE
8
BLACK
6
CONTINUOUS
10
1.5167
20
2.29
11
1.5167
21
2.347
0
LINE
8
BLACK
6
CONTINUOUS
10
1.5167
20
2.347
11
1.5287
21
2.347
0
LINE
8
BLACK
6
CONTINUOUS
10
1.5287
20
2.347
11
1.5287
21
2.29
0
LINE
8
BLACK
6
CONTINUOUS
10
1.509
20
2.29
11
1.497
21
2.29
0
LINE
8
BLACK
6
CONTINUOUS
10
1.497
20
2.29
11
1.497
21
2.347
0
LINE
8
BLACK
6
CONTINUOUS
10
1.497
20
2.347
11
1.509
21
2.347
0
LINE
8
BLACK
6
CONTINUOUS
10
1.509
20
2.347
11
1.509
21
2.29
0
LINE
8
BLACK
6
CONTINUOUS
10
1.4893
20
2.29
11
1.4773
21
2.29
0
LINE
8
BLACK
6
CONTINUOUS
10
1.4773
20
2.29
11
1.4773
21
2.347
0
LINE
8
BLACK
6
CONTINUOUS
10
1.4773
20
2.347
11
1.4893
21
2.347
0
LINE
8
BLACK
6
CONTINUOUS
10
1.4893
20
2.347
11
1.4893
21
2.29
0
LINE
8
BLACK
6
CONTINUOUS
10
1.2726
20
2.29
11
1.2606
21
2.29
0
LINE
8
BLACK
6
CONTINUOUS
10
1.2606
20
2.29
11
1.2606
21
2.347
0
LINE
8
BLACK
6
CONTINUOUS
10
1.2606
20
2.347
11
1.2726
21
2.347
0
LINE
8
BLACK
6
CONTINUOUS
10
1.2726
20
2.347
11
1.2726
21
2.29
0
LINE
8
BLACK
6
CONTINUOUS
10
1.4499
20
2.29
11
1.4379
21
2.29
0
LINE
8
BLACK
6
CONTINUOUS
10
1.4379
20
2.29
11
1.4379
21
2.347
0
LINE
8
BLACK
6
CONTINUOUS
10
1.4379
20
2.347
11
1.4499
21
2.347
0
LINE
8
BLACK
6
CONTINUOUS
10
1.4499
20
2.347
11
1.4499
21
2.29
0
LINE
8
BLACK
6
CONTINUOUS
10
1.4302
20
2.29
11
1.4182
21
2.29
0
LINE
8
BLACK
6
CONTINUOUS
10
1.4182
20
2.29
11
1.4182
21
2.347
0
LINE
8
BLACK
6
CONTINUOUS
10
1.4182
20
2.347
11
1.4302
21
2.347
0
LINE
8
BLACK
6
CONTINUOUS
10
1.4302
20
2.347
11
1.4302
21
2.29
0
LINE
8
BLACK
6
CONTINUOUS
10
1.4105
20
2.29
11
1.3985
21
2.29
0
LINE
8
BLACK
6
CONTINUOUS
10
1.3985
20
2.29
11
1.3985
21
2.347
0
LINE
8
BLACK
6
CONTINUOUS
10
1.3985
20
2.347
11
1.4105
21
2.347
0
LINE
8
BLACK
6
CONTINUOUS
10
1.4105
20
2.347
11
1.4105
21
2.29
0
LINE
8
BLACK
6
CONTINUOUS
10
1.3908
20
2.29
11
1.3788
21
2.29
0
LINE
8
BLACK
6
CONTINUOUS
10
1.3788
20
2.29
11
1.3788
21
2.347
0
LINE
8
BLACK
6
CONTINUOUS
10
1.3788
20
2.347
11
1.3908
21
2.347
0
LINE
8
BLACK
6
CONTINUOUS
10
1.3908
20
2.347
11
1.3908
21
2.29
0
LINE
8
BLACK
6
CONTINUOUS
10
1.3711
20
2.29
11
1.3591
21
2.29
0
LINE
8
BLACK
6
CONTINUOUS
10
1.3591
20
2.29
11
1.3591
21
2.347
0
LINE
8
BLACK
6
CONTINUOUS
10
1.3591
20
2.347
11
1.3711
21
2.347
0
LINE
8
BLACK
6
CONTINUOUS
10
1.3711
20
2.347
11
1.3711
21
2.29
0
LINE
8
BLACK
6
CONTINUOUS
10
1.3514
20
2.29
11
1.3394
21
2.29
0
LINE
8
BLACK
6
CONTINUOUS
10
1.3394
20
2.29
11
1.3394
21
2.347
0
LINE
8
BLACK
6
CONTINUOUS
10
1.3394
20
2.347
11
1.3514
21
2.347
0
LINE
8
BLACK
6
CONTINUOUS
10
1.3514
20
2.347
11
1.3514
21
2.29
0
LINE
8
BLACK
6
CONTINUOUS
10
1.3317
20
2.29
11
1.3197
21
2.29
0
LINE
8
BLACK
6
CONTINUOUS
10
1.3197
20
2.29
11
1.3197
21
2.347
0
LINE
8
BLACK
6
CONTINUOUS
10
1.3197
20
2.347
11
1.3317
21
2.347
0
LINE
8
BLACK
6
CONTINUOUS
10
1.3317
20
2.347
11
1.3317
21
2.29
0
LINE
8
BLACK
6
CONTINUOUS
10
1.312
20
2.29
11
1.3
21
2.29
0
LINE
8
BLACK
6
CONTINUOUS
10
1.3
20
2.29
11
1.3
21
2.347
0
LINE
8
BLACK
6
CONTINUOUS
10
1.3
20
2.347
11
1.312
21
2.347
0
LINE
8
BLACK
6
CONTINUOUS
10
1.312
20
2.347
11
1.312
21
2.29
0
LINE
8
BLACK
6
CONTINUOUS
10
1.2923
20
2.29
11
1.2803
21
2.29
0
LINE
8
BLACK
6
CONTINUOUS
10
1.2803
20
2.29
11
1.2803
21
2.347
0
LINE
8
BLACK
6
CONTINUOUS
10
1.2803
20
2.347
11
1.2923
21
2.347
0
LINE
8
BLACK
6
CONTINUOUS
10
1.2923
20
2.347
11
1.2923
21
2.29
0
LINE
8
BLACK
6
CONTINUOUS
10
2.9332
20
2.29
11
2.9212
21
2.29
0
LINE
8
BLACK
6
CONTINUOUS
10
2.9212
20
2.29
11
2.9212
21
2.347
0
LINE
8
BLACK
6
CONTINUOUS
10
2.9212
20
2.347
11
2.9332
21
2.347
0
LINE
8
BLACK
6
CONTINUOUS
10
2.9332
20
2.347
11
2.9332
21
2.29
0
LINE
8
BLACK
6
CONTINUOUS
10
3.0908
20
2.29
11
3.0788
21
2.29
0
LINE
8
BLACK
6
CONTINUOUS
10
3.0788
20
2.29
11
3.0788
21
2.347
0
LINE
8
BLACK
6
CONTINUOUS
10
3.0788
20
2.347
11
3.0908
21
2.347
0
LINE
8
BLACK
6
CONTINUOUS
10
3.0908
20
2.347
11
3.0908
21
2.29
0
LINE
8
BLACK
6
CONTINUOUS
10
3.0711
20
2.29
11
3.0591
21
2.29
0
LINE
8
BLACK
6
CONTINUOUS
10
3.0591
20
2.29
11
3.0591
21
2.347
0
LINE
8
BLACK
6
CONTINUOUS
10
3.0591
20
2.347
11
3.0711
21
2.347
0
LINE
8
BLACK
6
CONTINUOUS
10
3.0711
20
2.347
11
3.0711
21
2.29
0
LINE
8
BLACK
6
CONTINUOUS
10
3.0514
20
2.29
11
3.0394
21
2.29
0
LINE
8
BLACK
6
CONTINUOUS
10
3.0394
20
2.29
11
3.0394
21
2.347
0
LINE
8
BLACK
6
CONTINUOUS
10
3.0394
20
2.347
11
3.0514
21
2.347
0
LINE
8
BLACK
6
CONTINUOUS
10
3.0514
20
2.347
11
3.0514
21
2.29
0
LINE
8
BLACK
6
CONTINUOUS
10
3.0317
20
2.29
11
3.0197
21
2.29
0
LINE
8
BLACK
6
CONTINUOUS
10
3.0197
20
2.29
11
3.0197
21
2.347
0
LINE
8
BLACK
6
CONTINUOUS
10
3.0197
20
2.347
11
3.0317
21
2.347
0
LINE
8
BLACK
6
CONTINUOUS
10
3.0317
20
2.347
11
3.0317
21
2.29
0
LINE
8
BLACK
6
CONTINUOUS
10
3.012
20
2.29
11
3
21
2.29
0
LINE
8
BLACK
6
CONTINUOUS
10
3
20
2.29
11
3
21
2.347
0
LINE
8
BLACK
6
CONTINUOUS
10
3
20
2.347
11
3.012
21
2.347
0
LINE
8
BLACK
6
CONTINUOUS
10
3.012
20
2.347
11
3.012
21
2.29
0
LINE
8
BLACK
6
CONTINUOUS
10
2.9923
20
2.29
11
2.9803
21
2.29
0
LINE
8
BLACK
6
CONTINUOUS
10
2.9803
20
2.29
11
2.9803
21
2.347
0
LINE
8
BLACK
6
CONTINUOUS
10
2.9803
20
2.347
11
2.9923
21
2.347
0
LINE
8
BLACK
6
CONTINUOUS
10
2.9923
20
2.347
11
2.9923
21
2.29
0
LINE
8
BLACK
6
CONTINUOUS
10
2.9726
20
2.29
11
2.9606
21
2.29
0
LINE
8
BLACK
6
CONTINUOUS
10
2.9606
20
2.29
11
2.9606
21
2.347
0
LINE
8
BLACK
6
CONTINUOUS
10
2.9606
20
2.347
11
2.9726
21
2.347
0
LINE
8
BLACK
6
CONTINUOUS
10
2.9726
20
2.347
11
2.9726
21
2.29
0
LINE
8
BLACK
6
CONTINUOUS
10
2.9529
20
2.29
11
2.9409
21
2.29
0
LINE
8
BLACK
6
CONTINUOUS
10
2.9409
20
2.29
11
2.9409
21
2.347
0
LINE
8
BLACK
6
CONTINUOUS
10
2.9409
20
2.347
11
2.9529
21
2.347
0
LINE
8
BLACK
6
CONTINUOUS
10
2.9529
20
2.347
11
2.9529
21
2.29
0
LINE
8
BLACK
6
CONTINUOUS
10
3.1696
20
2.29
11
3.1576
21
2.29
0
LINE
8
BLACK
6
CONTINUOUS
10
3.1576
20
2.29
11
3.1576
21
2.347
0
LINE
8
BLACK
6
CONTINUOUS
10
3.1576
20
2.347
11
3.1696
21
2.347
0
LINE
8
BLACK
6
CONTINUOUS
10
3.1696
20
2.347
11
3.1696
21
2.29
0
LINE
8
BLACK
6
CONTINUOUS
10
2.9135
20
2.29
11
2.9015
21
2.29
0
LINE
8
BLACK
6
CONTINUOUS
10
2.9015
20
2.29
11
2.9015
21
2.347
0
LINE
8
BLACK
6
CONTINUOUS
10
2.9015
20
2.347
11
2.9135
21
2.347
0
LINE
8
BLACK
6
CONTINUOUS
10
2.9135
20
2.347
11
2.9135
21
2.29
0
LINE
8
BLACK
6
CONTINUOUS
10
2.8938
20
2.29
11
2.8818
21
2.29
0
LINE
8
BLACK
6
CONTINUOUS
10
2.8818
20
2.29
11
2.8818
21
2.347
0
LINE
8
BLACK
6
CONTINUOUS
10
2.8818
20
2.347
11
2.8938
21
2.347
0
LINE
8
BLACK
6
CONTINUOUS
10
2.8938
20
2.347
11
2.8938
21
2.29
0
LINE
8
BLACK
6
CONTINUOUS
10
2.8741
20
2.29
11
2.8621
21
2.29
0
LINE
8
BLACK
6
CONTINUOUS
10
2.8621
20
2.29
11
2.8621
21
2.347
0
LINE
8
BLACK
6
CONTINUOUS
10
2.8621
20
2.347
11
2.8741
21
2.347
0
LINE
8
BLACK
6
CONTINUOUS
10
2.8741
20
2.347
11
2.8741
21
2.29
0
LINE
8
BLACK
6
CONTINUOUS
10
2.8544
20
2.29
11
2.8424
21
2.29
0
LINE
8
BLACK
6
CONTINUOUS
10
2.8424
20
2.29
11
2.8424
21
2.347
0
LINE
8
BLACK
6
CONTINUOUS
10
2.8424
20
2.347
11
2.8544
21
2.347
0
LINE
8
BLACK
6
CONTINUOUS
10
2.8544
20
2.347
11
2.8544
21
2.29
0
LINE
8
BLACK
6
CONTINUOUS
10
2.8347
20
2.29
11
2.8227
21
2.29
0
LINE
8
BLACK
6
CONTINUOUS
10
2.8227
20
2.29
11
2.8227
21
2.347
0
LINE
8
BLACK
6
CONTINUOUS
10
2.8227
20
2.347
11
2.8347
21
2.347
0
LINE
8
BLACK
6
CONTINUOUS
10
2.8347
20
2.347
11
2.8347
21
2.29
0
LINE
8
BLACK
6
CONTINUOUS
10
2.815
20
2.29
11
2.803
21
2.29
0
LINE
8
BLACK
6
CONTINUOUS
10
2.803
20
2.29
11
2.803
21
2.347
0
LINE
8
BLACK
6
CONTINUOUS
10
2.803
20
2.347
11
2.815
21
2.347
0
LINE
8
BLACK
6
CONTINUOUS
10
2.815
20
2.347
11
2.815
21
2.29
0
LINE
8
BLACK
6
CONTINUOUS
10
2.7953
20
2.29
11
2.7833
21
2.29
0
LINE
8
BLACK
6
CONTINUOUS
10
2.7833
20
2.29
11
2.7833
21
2.347
0
LINE
8
BLACK
6
CONTINUOUS
10
2.7833
20
2.347
11
2.7953
21
2.347
0
LINE
8
BLACK
6
CONTINUOUS
10
2.7953
20
2.347
11
2.7953
21
2.29
0
LINE
8
BLACK
6
CONTINUOUS
10
3.1499
20
2.29
11
3.1379
21
2.29
0
LINE
8
BLACK
6
CONTINUOUS
10
3.1379
20
2.29
11
3.1379
21
2.347
0
LINE
8
BLACK
6
CONTINUOUS
10
3.1379
20
2.347
11
3.1499
21
2.347
0
LINE
8
BLACK
6
CONTINUOUS
10
3.1499
20
2.347
11
3.1499
21
2.29
0
LINE
8
BLACK
6
CONTINUOUS
10
3.1302
20
2.29
11
3.1182
21
2.29
0
LINE
8
BLACK
6
CONTINUOUS
10
3.1182
20
2.29
11
3.1182
21
2.347
0
LINE
8
BLACK
6
CONTINUOUS
10
3.1182
20
2.347
11
3.1302
21
2.347
0
LINE
8
BLACK
6
CONTINUOUS
10
3.1302
20
2.347
11
3.1302
21
2.29
0
LINE
8
BLACK
6
CONTINUOUS
10
3.1105
20
2.29
11
3.0985
21
2.29
0
LINE
8
BLACK
6
CONTINUOUS
10
3.0985
20
2.29
11
3.0985
21
2.347
0
LINE
8
BLACK
6
CONTINUOUS
10
3.0985
20
2.347
11
3.1105
21
2.347
0
LINE
8
BLACK
6
CONTINUOUS
10
3.1105
20
2.347
11
3.1105
21
2.29
0
LINE
8
BLACK
6
CONTINUOUS
10
1.4302
20
2.533
11
1.4182
21
2.533
0
LINE
8
BLACK
6
CONTINUOUS
10
1.4182
20
2.533
11
1.4182
21
2.59
0
LINE
8
BLACK
6
CONTINUOUS
10
1.4182
20
2.59
11
1.4302
21
2.59
0
LINE
8
BLACK
6
CONTINUOUS
10
1.4302
20
2.59
11
1.4302
21
2.533
0
LINE
8
BLACK
6
CONTINUOUS
10
1.4893
20
2.533
11
1.4773
21
2.533
0
LINE
8
BLACK
6
CONTINUOUS
10
1.4773
20
2.533
11
1.4773
21
2.59
0
LINE
8
BLACK
6
CONTINUOUS
10
1.4773
20
2.59
11
1.4893
21
2.59
0
LINE
8
BLACK
6
CONTINUOUS
10
1.4893
20
2.59
11
1.4893
21
2.533
0
LINE
8
BLACK
6
CONTINUOUS
10
2.8741
20
2.533
11
2.8621
21
2.533
0
LINE
8
BLACK
6
CONTINUOUS
10
2.8621
20
2.533
11
2.8621
21
2.59
0
LINE
8
BLACK
6
CONTINUOUS
10
2.8621
20
2.59
11
2.8741
21
2.59
0
LINE
8
BLACK
6
CONTINUOUS
10
2.8741
20
2.59
11
2.8741
21
2.533
0
LINE
8
BLACK
6
CONTINUOUS
10
1.4696
20
2.533
11
1.4576
21
2.533
0
LINE
8
BLACK
6
CONTINUOUS
10
1.4576
20
2.533
11
1.4576
21
2.59
0
LINE
8
BLACK
6
CONTINUOUS
10
1.4576
20
2.59
11
1.4696
21
2.59
0
LINE
8
BLACK
6
CONTINUOUS
10
1.4696
20
2.59
11
1.4696
21
2.533
0
LINE
8
BLACK
6
CONTINUOUS
10
3.2287
20
2.533
11
3.2167
21
2.533
0
LINE
8
BLACK
6
CONTINUOUS
10
3.2167
20
2.533
11
3.2167
21
2.59
0
LINE
8
BLACK
6
CONTINUOUS
10
3.2167
20
2.59
11
3.2287
21
2.59
0
LINE
8
BLACK
6
CONTINUOUS
10
3.2287
20
2.59
11
3.2287
21
2.533
0
LINE
8
BLACK
6
CONTINUOUS
10
1.4499
20
2.533
11
1.4379
21
2.533
0
LINE
8
BLACK
6
CONTINUOUS
10
1.4379
20
2.533
11
1.4379
21
2.59
0
LINE
8
BLACK
6
CONTINUOUS
10
1.4379
20
2.59
11
1.4499
21
2.59
0
LINE
8
BLACK
6
CONTINUOUS
10
1.4499
20
2.59
11
1.4499
21
2.533
0
LINE
8
BLACK
6
CONTINUOUS
10
2.8938
20
2.533
11
2.8818
21
2.533
0
LINE
8
BLACK
6
CONTINUOUS
10
2.8818
20
2.533
11
2.8818
21
2.59
0
LINE
8
BLACK
6
CONTINUOUS
10
2.8818
20
2.59
11
2.8938
21
2.59
0
LINE
8
BLACK
6
CONTINUOUS
10
2.8938
20
2.59
11
2.8938
21
2.533
0
LINE
8
BLACK
6
CONTINUOUS
10
2.8544
20
2.533
11
2.8424
21
2.533
0
LINE
8
BLACK
6
CONTINUOUS
10
2.8424
20
2.533
11
2.8424
21
2.59
0
LINE
8
BLACK
6
CONTINUOUS
10
2.8424
20
2.59
11
2.8544
21
2.59
0
LINE
8
BLACK
6
CONTINUOUS
10
2.8544
20
2.59
11
2.8544
21
2.533
0
LINE
8
BLACK
6
CONTINUOUS
10
1.6666
20
2.533
11
1.6546
21
2.533
0
LINE
8
BLACK
6
CONTINUOUS
10
1.6546
20
2.533
11
1.6546
21
2.59
0
LINE
8
BLACK
6
CONTINUOUS
10
1.6546
20
2.59
11
1.6666
21
2.59
0
LINE
8
BLACK
6
CONTINUOUS
10
1.6666
20
2.59
11
1.6666
21
2.533
0
LINE
8
BLACK
6
CONTINUOUS
10
1.4105
20
2.533
11
1.3985
21
2.533
0
LINE
8
BLACK
6
CONTINUOUS
10
1.3985
20
2.533
11
1.3985
21
2.59
0
LINE
8
BLACK
6
CONTINUOUS
10
1.3985
20
2.59
11
1.4105
21
2.59
0
LINE
8
BLACK
6
CONTINUOUS
10
1.4105
20
2.59
11
1.4105
21
2.533
0
LINE
8
BLACK
6
CONTINUOUS
10
2.9135
20
2.533
11
2.9015
21
2.533
0
LINE
8
BLACK
6
CONTINUOUS
10
2.9015
20
2.533
11
2.9015
21
2.59
0
LINE
8
BLACK
6
CONTINUOUS
10
2.9015
20
2.59
11
2.9135
21
2.59
0
LINE
8
BLACK
6
CONTINUOUS
10
2.9135
20
2.59
11
2.9135
21
2.533
0
LINE
8
BLACK
6
CONTINUOUS
10
1.3908
20
2.533
11
1.3788
21
2.533
0
LINE
8
BLACK
6
CONTINUOUS
10
1.3788
20
2.533
11
1.3788
21
2.59
0
LINE
8
BLACK
6
CONTINUOUS
10
1.3788
20
2.59
11
1.3908
21
2.59
0
LINE
8
BLACK
6
CONTINUOUS
10
1.3908
20
2.59
11
1.3908
21
2.533
0
LINE
8
BLACK
6
CONTINUOUS
10
3.2484
20
2.533
11
3.2364
21
2.533
0
LINE
8
BLACK
6
CONTINUOUS
10
3.2364
20
2.533
11
3.2364
21
2.59
0
LINE
8
BLACK
6
CONTINUOUS
10
3.2364
20
2.59
11
3.2484
21
2.59
0
LINE
8
BLACK
6
CONTINUOUS
10
3.2484
20
2.59
11
3.2484
21
2.533
0
LINE
8
BLACK
6
CONTINUOUS
10
1.3711
20
2.533
11
1.3591
21
2.533
0
LINE
8
BLACK
6
CONTINUOUS
10
1.3591
20
2.533
11
1.3591
21
2.59
0
LINE
8
BLACK
6
CONTINUOUS
10
1.3591
20
2.59
11
1.3711
21
2.59
0
LINE
8
BLACK
6
CONTINUOUS
10
1.3711
20
2.59
11
1.3711
21
2.533
0
LINE
8
BLACK
6
CONTINUOUS
10
1.509
20
2.533
11
1.497
21
2.533
0
LINE
8
BLACK
6
CONTINUOUS
10
1.497
20
2.533
11
1.497
21
2.59
0
LINE
8
BLACK
6
CONTINUOUS
10
1.497
20
2.59
11
1.509
21
2.59
0
LINE
8
BLACK
6
CONTINUOUS
10
1.509
20
2.59
11
1.509
21
2.533
0
LINE
8
BLACK
6
CONTINUOUS
10
3.3469
20
2.533
11
3.3349
21
2.533
0
LINE
8
BLACK
6
CONTINUOUS
10
3.3349
20
2.533
11
3.3349
21
2.59
0
LINE
8
BLACK
6
CONTINUOUS
10
3.3349
20
2.59
11
3.3469
21
2.59
0
LINE
8
BLACK
6
CONTINUOUS
10
3.3469
20
2.59
11
3.3469
21
2.533
0
LINE
8
BLACK
6
CONTINUOUS
10
1.5287
20
2.533
11
1.5167
21
2.533
0
LINE
8
BLACK
6
CONTINUOUS
10
1.5167
20
2.533
11
1.5167
21
2.59
0
LINE
8
BLACK
6
CONTINUOUS
10
1.5167
20
2.59
11
1.5287
21
2.59
0
LINE
8
BLACK
6
CONTINUOUS
10
1.5287
20
2.59
11
1.5287
21
2.533
0
LINE
8
BLACK
6
CONTINUOUS
10
3.209
20
2.533
11
3.197
21
2.533
0
LINE
8
BLACK
6
CONTINUOUS
10
3.197
20
2.533
11
3.197
21
2.59
0
LINE
8
BLACK
6
CONTINUOUS
10
3.197
20
2.59
11
3.209
21
2.59
0
LINE
8
BLACK
6
CONTINUOUS
10
3.209
20
2.59
11
3.209
21
2.533
0
LINE
8
BLACK
6
CONTINUOUS
10
1.5484
20
2.533
11
1.5364
21
2.533
0
LINE
8
BLACK
6
CONTINUOUS
10
1.5364
20
2.533
11
1.5364
21
2.59
0
LINE
8
BLACK
6
CONTINUOUS
10
1.5364
20
2.59
11
1.5484
21
2.59
0
LINE
8
BLACK
6
CONTINUOUS
10
1.5484
20
2.59
11
1.5484
21
2.533
0
LINE
8
BLACK
6
CONTINUOUS
10
2.8347
20
2.533
11
2.8227
21
2.533
0
LINE
8
BLACK
6
CONTINUOUS
10
2.8227
20
2.533
11
2.8227
21
2.59
0
LINE
8
BLACK
6
CONTINUOUS
10
2.8227
20
2.59
11
2.8347
21
2.59
0
LINE
8
BLACK
6
CONTINUOUS
10
2.8347
20
2.59
11
2.8347
21
2.533
0
LINE
8
BLACK
6
CONTINUOUS
10
1.5681
20
2.533
11
1.5561
21
2.533
0
LINE
8
BLACK
6
CONTINUOUS
10
1.5561
20
2.533
11
1.5561
21
2.59
0
LINE
8
BLACK
6
CONTINUOUS
10
1.5561
20
2.59
11
1.5681
21
2.59
0
LINE
8
BLACK
6
CONTINUOUS
10
1.5681
20
2.59
11
1.5681
21
2.533
0
LINE
8
BLACK
6
CONTINUOUS
10
3.1499
20
2.533
11
3.1379
21
2.533
0
LINE
8
BLACK
6
CONTINUOUS
10
3.1379
20
2.533
11
3.1379
21
2.59
0
LINE
8
BLACK
6
CONTINUOUS
10
3.1379
20
2.59
11
3.1499
21
2.59
0
LINE
8
BLACK
6
CONTINUOUS
10
3.1499
20
2.59
11
3.1499
21
2.533
0
LINE
8
BLACK
6
CONTINUOUS
10
1.5878
20
2.533
11
1.5758
21
2.533
0
LINE
8
BLACK
6
CONTINUOUS
10
1.5758
20
2.533
11
1.5758
21
2.59
0
LINE
8
BLACK
6
CONTINUOUS
10
1.5758
20
2.59
11
1.5878
21
2.59
0
LINE
8
BLACK
6
CONTINUOUS
10
1.5878
20
2.59
11
1.5878
21
2.533
0
LINE
8
BLACK
6
CONTINUOUS
10
2.815
20
2.533
11
2.803
21
2.533
0
LINE
8
BLACK
6
CONTINUOUS
10
2.803
20
2.533
11
2.803
21
2.59
0
LINE
8
BLACK
6
CONTINUOUS
10
2.803
20
2.59
11
2.815
21
2.59
0
LINE
8
BLACK
6
CONTINUOUS
10
2.815
20
2.59
11
2.815
21
2.533
0
LINE
8
BLACK
6
CONTINUOUS
10
1.6075
20
2.533
11
1.5955
21
2.533
0
LINE
8
BLACK
6
CONTINUOUS
10
1.5955
20
2.533
11
1.5955
21
2.59
0
LINE
8
BLACK
6
CONTINUOUS
10
1.5955
20
2.59
11
1.6075
21
2.59
0
LINE
8
BLACK
6
CONTINUOUS
10
1.6075
20
2.59
11
1.6075
21
2.533
0
LINE
8
BLACK
6
CONTINUOUS
10
3.1893
20
2.533
11
3.1773
21
2.533
0
LINE
8
BLACK
6
CONTINUOUS
10
3.1773
20
2.533
11
3.1773
21
2.59
0
LINE
8
BLACK
6
CONTINUOUS
10
3.1773
20
2.59
11
3.1893
21
2.59
0
LINE
8
BLACK
6
CONTINUOUS
10
3.1893
20
2.59
11
3.1893
21
2.533
0
LINE
8
BLACK
6
CONTINUOUS
10
1.6272
20
2.533
11
1.6152
21
2.533
0
LINE
8
BLACK
6
CONTINUOUS
10
1.6152
20
2.533
11
1.6152
21
2.59
0
LINE
8
BLACK
6
CONTINUOUS
10
1.6152
20
2.59
11
1.6272
21
2.59
0
LINE
8
BLACK
6
CONTINUOUS
10
1.6272
20
2.59
11
1.6272
21
2.533
0
LINE
8
BLACK
6
CONTINUOUS
10
2.7953
20
2.533
11
2.7833
21
2.533
0
LINE
8
BLACK
6
CONTINUOUS
10
2.7833
20
2.533
11
2.7833
21
2.59
0
LINE
8
BLACK
6
CONTINUOUS
10
2.7833
20
2.59
11
2.7953
21
2.59
0
LINE
8
BLACK
6
CONTINUOUS
10
2.7953
20
2.59
11
2.7953
21
2.533
0
LINE
8
BLACK
6
CONTINUOUS
10
1.6469
20
2.533
11
1.6349
21
2.533
0
LINE
8
BLACK
6
CONTINUOUS
10
1.6349
20
2.533
11
1.6349
21
2.59
0
LINE
8
BLACK
6
CONTINUOUS
10
1.6349
20
2.59
11
1.6469
21
2.59
0
LINE
8
BLACK
6
CONTINUOUS
10
1.6469
20
2.59
11
1.6469
21
2.533
0
LINE
8
BLACK
6
CONTINUOUS
10
3.1696
20
2.533
11
3.1576
21
2.533
0
LINE
8
BLACK
6
CONTINUOUS
10
3.1576
20
2.533
11
3.1576
21
2.59
0
LINE
8
BLACK
6
CONTINUOUS
10
3.1576
20
2.59
11
3.1696
21
2.59
0
LINE
8
BLACK
6
CONTINUOUS
10
3.1696
20
2.59
11
3.1696
21
2.533
0
LINE
8
BLACK
6
CONTINUOUS
10
1.3514
20
2.533
11
1.3394
21
2.533
0
LINE
8
BLACK
6
CONTINUOUS
10
1.3394
20
2.533
11
1.3394
21
2.59
0
LINE
8
BLACK
6
CONTINUOUS
10
1.3394
20
2.59
11
1.3514
21
2.59
0
LINE
8
BLACK
6
CONTINUOUS
10
1.3514
20
2.59
11
1.3514
21
2.533
0
LINE
8
BLACK
6
CONTINUOUS
10
3.0908
20
2.533
11
3.0788
21
2.533
0
LINE
8
BLACK
6
CONTINUOUS
10
3.0788
20
2.533
11
3.0788
21
2.59
0
LINE
8
BLACK
6
CONTINUOUS
10
3.0788
20
2.59
11
3.0908
21
2.59
0
LINE
8
BLACK
6
CONTINUOUS
10
3.0908
20
2.59
11
3.0908
21
2.533
0
LINE
8
BLACK
6
CONTINUOUS
10
3.3272
20
2.533
11
3.3152
21
2.533
0
LINE
8
BLACK
6
CONTINUOUS
10
3.3152
20
2.533
11
3.3152
21
2.59
0
LINE
8
BLACK
6
CONTINUOUS
10
3.3152
20
2.59
11
3.3272
21
2.59
0
LINE
8
BLACK
6
CONTINUOUS
10
3.3272
20
2.59
11
3.3272
21
2.533
0
LINE
8
BLACK
6
CONTINUOUS
10
3.3666
20
2.533
11
3.3546
21
2.533
0
LINE
8
BLACK
6
CONTINUOUS
10
3.3546
20
2.533
11
3.3546
21
2.59
0
LINE
8
BLACK
6
CONTINUOUS
10
3.3546
20
2.59
11
3.3666
21
2.59
0
LINE
8
BLACK
6
CONTINUOUS
10
3.3666
20
2.59
11
3.3666
21
2.533
0
LINE
8
BLACK
6
CONTINUOUS
10
3.0711
20
2.533
11
3.0591
21
2.533
0
LINE
8
BLACK
6
CONTINUOUS
10
3.0591
20
2.533
11
3.0591
21
2.59
0
LINE
8
BLACK
6
CONTINUOUS
10
3.0591
20
2.59
11
3.0711
21
2.59
0
LINE
8
BLACK
6
CONTINUOUS
10
3.0711
20
2.59
11
3.0711
21
2.533
0
LINE
8
BLACK
6
CONTINUOUS
10
1.0953
20
2.533
11
1.0833
21
2.533
0
LINE
8
BLACK
6
CONTINUOUS
10
1.0833
20
2.533
11
1.0833
21
2.59
0
LINE
8
BLACK
6
CONTINUOUS
10
1.0833
20
2.59
11
1.0953
21
2.59
0
LINE
8
BLACK
6
CONTINUOUS
10
1.0953
20
2.59
11
1.0953
21
2.533
0
LINE
8
BLACK
6
CONTINUOUS
10
1.115
20
2.533
11
1.103
21
2.533
0
LINE
8
BLACK
6
CONTINUOUS
10
1.103
20
2.533
11
1.103
21
2.59
0
LINE
8
BLACK
6
CONTINUOUS
10
1.103
20
2.59
11
1.115
21
2.59
0
LINE
8
BLACK
6
CONTINUOUS
10
1.115
20
2.59
11
1.115
21
2.533
0
LINE
8
BLACK
6
CONTINUOUS
10
3.0514
20
2.533
11
3.0394
21
2.533
0
LINE
8
BLACK
6
CONTINUOUS
10
3.0394
20
2.533
11
3.0394
21
2.59
0
LINE
8
BLACK
6
CONTINUOUS
10
3.0394
20
2.59
11
3.0514
21
2.59
0
LINE
8
BLACK
6
CONTINUOUS
10
3.0514
20
2.59
11
3.0514
21
2.533
0
LINE
8
BLACK
6
CONTINUOUS
10
1.1347
20
2.533
11
1.1227
21
2.533
0
LINE
8
BLACK
6
CONTINUOUS
10
1.1227
20
2.533
11
1.1227
21
2.59
0
LINE
8
BLACK
6
CONTINUOUS
10
1.1227
20
2.59
11
1.1347
21
2.59
0
LINE
8
BLACK
6
CONTINUOUS
10
1.1347
20
2.59
11
1.1347
21
2.533
0
LINE
8
BLACK
6
CONTINUOUS
10
3.3075
20
2.533
11
3.2955
21
2.533
0
LINE
8
BLACK
6
CONTINUOUS
10
3.2955
20
2.533
11
3.2955
21
2.59
0
LINE
8
BLACK
6
CONTINUOUS
10
3.2955
20
2.59
11
3.3075
21
2.59
0
LINE
8
BLACK
6
CONTINUOUS
10
3.3075
20
2.59
11
3.3075
21
2.533
0
LINE
8
BLACK
6
CONTINUOUS
10
1.1544
20
2.533
11
1.1424
21
2.533
0
LINE
8
BLACK
6
CONTINUOUS
10
1.1424
20
2.533
11
1.1424
21
2.59
0
LINE
8
BLACK
6
CONTINUOUS
10
1.1424
20
2.59
11
1.1544
21
2.59
0
LINE
8
BLACK
6
CONTINUOUS
10
1.1544
20
2.59
11
1.1544
21
2.533
0
LINE
8
BLACK
6
CONTINUOUS
10
3.0317
20
2.533
11
3.0197
21
2.533
0
LINE
8
BLACK
6
CONTINUOUS
10
3.0197
20
2.533
11
3.0197
21
2.59
0
LINE
8
BLACK
6
CONTINUOUS
10
3.0197
20
2.59
11
3.0317
21
2.59
0
LINE
8
BLACK
6
CONTINUOUS
10
3.0317
20
2.59
11
3.0317
21
2.533
0
LINE
8
BLACK
6
CONTINUOUS
10
1.1741
20
2.533
11
1.1621
21
2.533
0
LINE
8
BLACK
6
CONTINUOUS
10
1.1621
20
2.533
11
1.1621
21
2.59
0
LINE
8
BLACK
6
CONTINUOUS
10
1.1621
20
2.59
11
1.1741
21
2.59
0
LINE
8
BLACK
6
CONTINUOUS
10
1.1741
20
2.59
11
1.1741
21
2.533
0
LINE
8
BLACK
6
CONTINUOUS
10
3.1105
20
2.533
11
3.0985
21
2.533
0
LINE
8
BLACK
6
CONTINUOUS
10
3.0985
20
2.533
11
3.0985
21
2.59
0
LINE
8
BLACK
6
CONTINUOUS
10
3.0985
20
2.59
11
3.1105
21
2.59
0
LINE
8
BLACK
6
CONTINUOUS
10
3.1105
20
2.59
11
3.1105
21
2.533
0
LINE
8
BLACK
6
CONTINUOUS
10
1.1938
20
2.533
11
1.1818
21
2.533
0
LINE
8
BLACK
6
CONTINUOUS
10
1.1818
20
2.533
11
1.1818
21
2.59
0
LINE
8
BLACK
6
CONTINUOUS
10
1.1818
20
2.59
11
1.1938
21
2.59
0
LINE
8
BLACK
6
CONTINUOUS
10
1.1938
20
2.59
11
1.1938
21
2.533
0
LINE
8
BLACK
6
CONTINUOUS
10
1.2135
20
2.533
11
1.2015
21
2.533
0
LINE
8
BLACK
6
CONTINUOUS
10
1.2015
20
2.533
11
1.2015
21
2.59
0
LINE
8
BLACK
6
CONTINUOUS
10
1.2015
20
2.59
11
1.2135
21
2.59
0
LINE
8
BLACK
6
CONTINUOUS
10
1.2135
20
2.59
11
1.2135
21
2.533
0
LINE
8
BLACK
6
CONTINUOUS
10
2.9332
20
2.533
11
2.9212
21
2.533
0
LINE
8
BLACK
6
CONTINUOUS
10
2.9212
20
2.533
11
2.9212
21
2.59
0
LINE
8
BLACK
6
CONTINUOUS
10
2.9212
20
2.59
11
2.9332
21
2.59
0
LINE
8
BLACK
6
CONTINUOUS
10
2.9332
20
2.59
11
2.9332
21
2.533
0
LINE
8
BLACK
6
CONTINUOUS
10
3.1302
20
2.533
11
3.1182
21
2.533
0
LINE
8
BLACK
6
CONTINUOUS
10
3.1182
20
2.533
11
3.1182
21
2.59
0
LINE
8
BLACK
6
CONTINUOUS
10
3.1182
20
2.59
11
3.1302
21
2.59
0
LINE
8
BLACK
6
CONTINUOUS
10
3.1302
20
2.59
11
3.1302
21
2.533
0
LINE
8
BLACK
6
CONTINUOUS
10
1.3317
20
2.533
11
1.3197
21
2.533
0
LINE
8
BLACK
6
CONTINUOUS
10
1.3197
20
2.533
11
1.3197
21
2.59
0
LINE
8
BLACK
6
CONTINUOUS
10
1.3197
20
2.59
11
1.3317
21
2.59
0
LINE
8
BLACK
6
CONTINUOUS
10
1.3317
20
2.59
11
1.3317
21
2.533
0
LINE
8
BLACK
6
CONTINUOUS
10
2.9529
20
2.533
11
2.9409
21
2.533
0
LINE
8
BLACK
6
CONTINUOUS
10
2.9409
20
2.533
11
2.9409
21
2.59
0
LINE
8
BLACK
6
CONTINUOUS
10
2.9409
20
2.59
11
2.9529
21
2.59
0
LINE
8
BLACK
6
CONTINUOUS
10
2.9529
20
2.59
11
2.9529
21
2.533
0
LINE
8
BLACK
6
CONTINUOUS
10
1.312
20
2.533
11
1.3
21
2.533
0
LINE
8
BLACK
6
CONTINUOUS
10
1.3
20
2.533
11
1.3
21
2.59
0
LINE
8
BLACK
6
CONTINUOUS
10
1.3
20
2.59
11
1.312
21
2.59
0
LINE
8
BLACK
6
CONTINUOUS
10
1.312
20
2.59
11
1.312
21
2.533
0
LINE
8
BLACK
6
CONTINUOUS
10
3.2681
20
2.533
11
3.2561
21
2.533
0
LINE
8
BLACK
6
CONTINUOUS
10
3.2561
20
2.533
11
3.2561
21
2.59
0
LINE
8
BLACK
6
CONTINUOUS
10
3.2561
20
2.59
11
3.2681
21
2.59
0
LINE
8
BLACK
6
CONTINUOUS
10
3.2681
20
2.59
11
3.2681
21
2.533
0
LINE
8
BLACK
6
CONTINUOUS
10
1.2923
20
2.533
11
1.2803
21
2.533
0
LINE
8
BLACK
6
CONTINUOUS
10
1.2803
20
2.533
11
1.2803
21
2.59
0
LINE
8
BLACK
6
CONTINUOUS
10
1.2803
20
2.59
11
1.2923
21
2.59
0
LINE
8
BLACK
6
CONTINUOUS
10
1.2923
20
2.59
11
1.2923
21
2.533
0
LINE
8
BLACK
6
CONTINUOUS
10
2.9726
20
2.533
11
2.9606
21
2.533
0
LINE
8
BLACK
6
CONTINUOUS
10
2.9606
20
2.533
11
2.9606
21
2.59
0
LINE
8
BLACK
6
CONTINUOUS
10
2.9606
20
2.59
11
2.9726
21
2.59
0
LINE
8
BLACK
6
CONTINUOUS
10
2.9726
20
2.59
11
2.9726
21
2.533
0
LINE
8
BLACK
6
CONTINUOUS
10
3.012
20
2.533
11
3
21
2.533
0
LINE
8
BLACK
6
CONTINUOUS
10
3
20
2.533
11
3
21
2.59
0
LINE
8
BLACK
6
CONTINUOUS
10
3
20
2.59
11
3.012
21
2.59
0
LINE
8
BLACK
6
CONTINUOUS
10
3.012
20
2.59
11
3.012
21
2.533
0
LINE
8
BLACK
6
CONTINUOUS
10
1.2726
20
2.533
11
1.2606
21
2.533
0
LINE
8
BLACK
6
CONTINUOUS
10
1.2606
20
2.533
11
1.2606
21
2.59
0
LINE
8
BLACK
6
CONTINUOUS
10
1.2606
20
2.59
11
1.2726
21
2.59
0
LINE
8
BLACK
6
CONTINUOUS
10
1.2726
20
2.59
11
1.2726
21
2.533
0
LINE
8
BLACK
6
CONTINUOUS
10
1.2529
20
2.533
11
1.2409
21
2.533
0
LINE
8
BLACK
6
CONTINUOUS
10
1.2409
20
2.533
11
1.2409
21
2.59
0
LINE
8
BLACK
6
CONTINUOUS
10
1.2409
20
2.59
11
1.2529
21
2.59
0
LINE
8
BLACK
6
CONTINUOUS
10
1.2529
20
2.59
11
1.2529
21
2.533
0
LINE
8
BLACK
6
CONTINUOUS
10
2.9923
20
2.533
11
2.9803
21
2.533
0
LINE
8
BLACK
6
CONTINUOUS
10
2.9803
20
2.533
11
2.9803
21
2.59
0
LINE
8
BLACK
6
CONTINUOUS
10
2.9803
20
2.59
11
2.9923
21
2.59
0
LINE
8
BLACK
6
CONTINUOUS
10
2.9923
20
2.59
11
2.9923
21
2.533
0
LINE
8
BLACK
6
CONTINUOUS
10
1.2332
20
2.533
11
1.2212
21
2.533
0
LINE
8
BLACK
6
CONTINUOUS
10
1.2212
20
2.533
11
1.2212
21
2.59
0
LINE
8
BLACK
6
CONTINUOUS
10
1.2212
20
2.59
11
1.2332
21
2.59
0
LINE
8
BLACK
6
CONTINUOUS
10
1.2332
20
2.59
11
1.2332
21
2.533
0
LINE
8
BLACK
6
CONTINUOUS
10
3.2878
20
2.533
11
3.2758
21
2.533
0
LINE
8
BLACK
6
CONTINUOUS
10
3.2758
20
2.533
11
3.2758
21
2.59
0
LINE
8
BLACK
6
CONTINUOUS
10
3.2758
20
2.59
11
3.2878
21
2.59
0
LINE
8
BLACK
6
CONTINUOUS
10
3.2878
20
2.59
11
3.2878
21
2.533
0
LINE
8
BLACK
6
CONTINUOUS
10
2.33
20
2.97034
11
2.33223
21
2.96885
0
LINE
8
BLACK
6
CONTINUOUS
10
2.33223
20
2.96885
11
2.33373
21
2.96661
0
LINE
8
BLACK
6
CONTINUOUS
10
2.33373
20
2.96661
11
2.33425
21
2.96398
0
LINE
8
BLACK
6
CONTINUOUS
10
2.33425
20
2.96398
11
2.33425
21
2.90689
0
LINE
8
BLACK
6
CONTINUOUS
10
2.33425
20
2.90689
11
2.33373
21
2.90425
0
LINE
8
BLACK
6
CONTINUOUS
10
2.33373
20
2.90425
11
2.33223
21
2.90202
0
LINE
8
BLACK
6
CONTINUOUS
10
2.33223
20
2.90202
11
2.33
21
2.90052
0
LINE
8
BLACK
6
CONTINUOUS
10
2.33
20
2.90052
11
2.32736
21
2.9
0
LINE
8
BLACK
6
CONTINUOUS
10
2.32736
20
2.9
11
2.32473
21
2.90052
0
LINE
8
BLACK
6
CONTINUOUS
10
2.32473
20
2.90052
11
2.32249
21
2.90202
0
LINE
8
BLACK
6
CONTINUOUS
10
2.32249
20
2.90202
11
2.321
21
2.90425
0
LINE
8
BLACK
6
CONTINUOUS
10
2.321
20
2.90425
11
2.32047
21
2.90689
0
LINE
8
BLACK
6
CONTINUOUS
10
2.32047
20
2.90689
11
2.32047
21
2.96398
0
LINE
8
BLACK
6
CONTINUOUS
10
2.32047
20
2.96398
11
2.321
21
2.96661
0
LINE
8
BLACK
6
CONTINUOUS
10
2.321
20
2.96661
11
2.32249
21
2.96885
0
LINE
8
BLACK
6
CONTINUOUS
10
2.32249
20
2.96885
11
2.32473
21
2.97034
0
LINE
8
BLACK
6
CONTINUOUS
10
2.32473
20
2.97034
11
2.32736
21
2.97087
0
LINE
8
BLACK
6
CONTINUOUS
10
2.32736
20
2.97087
11
2.33
21
2.97034
0
LINE
8
BLACK
6
CONTINUOUS
10
2.20401
20
2.97034
11
2.20625
21
2.96885
0
LINE
8
BLACK
6
CONTINUOUS
10
2.20625
20
2.96885
11
2.20774
21
2.96661
0
LINE
8
BLACK
6
CONTINUOUS
10
2.20774
20
2.96661
11
2.20827
21
2.96398
0
LINE
8
BLACK
6
CONTINUOUS
10
2.20827
20
2.96398
11
2.20827
21
2.90689
0
LINE
8
BLACK
6
CONTINUOUS
10
2.20827
20
2.90689
11
2.20774
21
2.90425
0
LINE
8
BLACK
6
CONTINUOUS
10
2.20774
20
2.90425
11
2.20625
21
2.90202
0
LINE
8
BLACK
6
CONTINUOUS
10
2.20625
20
2.90202
11
2.20401
21
2.90052
0
LINE
8
BLACK
6
CONTINUOUS
10
2.20401
20
2.90052
11
2.20138
21
2.9
0
LINE
8
BLACK
6
CONTINUOUS
10
2.20138
20
2.9
11
2.19874
21
2.90052
0
LINE
8
BLACK
6
CONTINUOUS
10
2.19874
20
2.90052
11
2.19651
21
2.90202
0
LINE
8
BLACK
6
CONTINUOUS
10
2.19651
20
2.90202
11
2.19501
21
2.90425
0
LINE
8
BLACK
6
CONTINUOUS
10
2.19501
20
2.90425
11
2.19449
21
2.90689
0
LINE
8
BLACK
6
CONTINUOUS
10
2.19449
20
2.90689
11
2.19449
21
2.96398
0
LINE
8
BLACK
6
CONTINUOUS
10
2.19449
20
2.96398
11
2.19501
21
2.96661
0
LINE
8
BLACK
6
CONTINUOUS
10
2.19501
20
2.96661
11
2.19651
21
2.96885
0
LINE
8
BLACK
6
CONTINUOUS
10
2.19651
20
2.96885
11
2.19874
21
2.97034
0
LINE
8
BLACK
6
CONTINUOUS
10
2.19874
20
2.97034
11
2.20138
21
2.97087
0
LINE
8
BLACK
6
CONTINUOUS
10
2.20138
20
2.97087
11
2.20401
21
2.97034
0
LINE
8
BLACK
6
CONTINUOUS
10
2.2985
20
2.97034
11
2.30074
21
2.96885
0
LINE
8
BLACK
6
CONTINUOUS
10
2.30074
20
2.96885
11
2.30223
21
2.96661
0
LINE
8
BLACK
6
CONTINUOUS
10
2.30223
20
2.96661
11
2.30276
21
2.96398
0
LINE
8
BLACK
6
CONTINUOUS
10
2.30276
20
2.96398
11
2.30276
21
2.90689
0
LINE
8
BLACK
6
CONTINUOUS
10
2.30276
20
2.90689
11
2.30223
21
2.90425
0
LINE
8
BLACK
6
CONTINUOUS
10
2.30223
20
2.90425
11
2.30074
21
2.90202
0
LINE
8
BLACK
6
CONTINUOUS
10
2.30074
20
2.90202
11
2.2985
21
2.90052
0
LINE
8
BLACK
6
CONTINUOUS
10
2.2985
20
2.90052
11
2.29587
21
2.9
0
LINE
8
BLACK
6
CONTINUOUS
10
2.29587
20
2.9
11
2.29323
21
2.90052
0
LINE
8
BLACK
6
CONTINUOUS
10
2.29323
20
2.90052
11
2.29099
21
2.90202
0
LINE
8
BLACK
6
CONTINUOUS
10
2.29099
20
2.90202
11
2.2895
21
2.90425
0
LINE
8
BLACK
6
CONTINUOUS
10
2.2895
20
2.90425
11
2.28898
21
2.90689
0
LINE
8
BLACK
6
CONTINUOUS
10
2.28898
20
2.90689
11
2.28898
21
2.96398
0
LINE
8
BLACK
6
CONTINUOUS
10
2.28898
20
2.96398
11
2.2895
21
2.96661
0
LINE
8
BLACK
6
CONTINUOUS
10
2.2895
20
2.96661
11
2.29099
21
2.96885
0
LINE
8
BLACK
6
CONTINUOUS
10
2.29099
20
2.96885
11
2.29323
21
2.97034
0
LINE
8
BLACK
6
CONTINUOUS
10
2.29323
20
2.97034
11
2.29587
21
2.97087
0
LINE
8
BLACK
6
CONTINUOUS
10
2.29587
20
2.97087
11
2.2985
21
2.97034
0
LINE
8
BLACK
6
CONTINUOUS
10
2.36149
20
2.97034
11
2.36373
21
2.96885
0
LINE
8
BLACK
6
CONTINUOUS
10
2.36373
20
2.96885
11
2.36522
21
2.96661
0
LINE
8
BLACK
6
CONTINUOUS
10
2.36522
20
2.96661
11
2.36575
21
2.96398
0
LINE
8
BLACK
6
CONTINUOUS
10
2.36575
20
2.96398
11
2.36575
21
2.90689
0
LINE
8
BLACK
6
CONTINUOUS
10
2.36575
20
2.90689
11
2.36522
21
2.90425
0
LINE
8
BLACK
6
CONTINUOUS
10
2.36522
20
2.90425
11
2.36373
21
2.90202
0
LINE
8
BLACK
6
CONTINUOUS
10
2.36373
20
2.90202
11
2.36149
21
2.90052
0
LINE
8
BLACK
6
CONTINUOUS
10
2.36149
20
2.90052
11
2.35886
21
2.9
0
LINE
8
BLACK
6
CONTINUOUS
10
2.35886
20
2.9
11
2.35622
21
2.90052
0
LINE
8
BLACK
6
CONTINUOUS
10
2.35622
20
2.90052
11
2.35399
21
2.90202
0
LINE
8
BLACK
6
CONTINUOUS
10
2.35399
20
2.90202
11
2.35249
21
2.90425
0
LINE
8
BLACK
6
CONTINUOUS
10
2.35249
20
2.90425
11
2.35197
21
2.90689
0
LINE
8
BLACK
6
CONTINUOUS
10
2.35197
20
2.90689
11
2.35197
21
2.96398
0
LINE
8
BLACK
6
CONTINUOUS
10
2.35197
20
2.96398
11
2.35249
21
2.96661
0
LINE
8
BLACK
6
CONTINUOUS
10
2.35249
20
2.96661
11
2.35399
21
2.96885
0
LINE
8
BLACK
6
CONTINUOUS
10
2.35399
20
2.96885
11
2.35622
21
2.97034
0
LINE
8
BLACK
6
CONTINUOUS
10
2.35622
20
2.97034
11
2.35886
21
2.97087
0
LINE
8
BLACK
6
CONTINUOUS
10
2.35886
20
2.97087
11
2.36149
21
2.97034
0
LINE
8
BLACK
6
CONTINUOUS
10
2.39299
20
2.97034
11
2.39523
21
2.96885
0
LINE
8
BLACK
6
CONTINUOUS
10
2.39523
20
2.96885
11
2.39672
21
2.96661
0
LINE
8
BLACK
6
CONTINUOUS
10
2.39672
20
2.96661
11
2.39724
21
2.96398
0
LINE
8
BLACK
6
CONTINUOUS
10
2.39724
20
2.96398
11
2.39724
21
2.90689
0
LINE
8
BLACK
6
CONTINUOUS
10
2.39724
20
2.90689
11
2.39672
21
2.90425
0
LINE
8
BLACK
6
CONTINUOUS
10
2.39672
20
2.90425
11
2.39523
21
2.90202
0
LINE
8
BLACK
6
CONTINUOUS
10
2.39523
20
2.90202
11
2.39299
21
2.90052
0
LINE
8
BLACK
6
CONTINUOUS
10
2.39299
20
2.90052
11
2.39035
21
2.9
0
LINE
8
BLACK
6
CONTINUOUS
10
2.39035
20
2.9
11
2.38772
21
2.90052
0
LINE
8
BLACK
6
CONTINUOUS
10
2.38772
20
2.90052
11
2.38548
21
2.90202
0
LINE
8
BLACK
6
CONTINUOUS
10
2.38548
20
2.90202
11
2.38399
21
2.90425
0
LINE
8
BLACK
6
CONTINUOUS
10
2.38399
20
2.90425
11
2.38346
21
2.90689
0
LINE
8
BLACK
6
CONTINUOUS
10
2.38346
20
2.90689
11
2.38346
21
2.96398
0
LINE
8
BLACK
6
CONTINUOUS
10
2.38346
20
2.96398
11
2.38399
21
2.96661
0
LINE
8
BLACK
6
CONTINUOUS
10
2.38399
20
2.96661
11
2.38548
21
2.96885
0
LINE
8
BLACK
6
CONTINUOUS
10
2.38548
20
2.96885
11
2.38772
21
2.97034
0
LINE
8
BLACK
6
CONTINUOUS
10
2.38772
20
2.97034
11
2.39035
21
2.97087
0
LINE
8
BLACK
6
CONTINUOUS
10
2.39035
20
2.97087
11
2.39299
21
2.97034
0
LINE
8
BLACK
6
CONTINUOUS
10
2.42449
20
2.97034
11
2.42672
21
2.96885
0
LINE
8
BLACK
6
CONTINUOUS
10
2.42672
20
2.96885
11
2.42822
21
2.96661
0
LINE
8
BLACK
6
CONTINUOUS
10
2.42822
20
2.96661
11
2.42874
21
2.96398
0
LINE
8
BLACK
6
CONTINUOUS
10
2.42874
20
2.96398
11
2.42874
21
2.90689
0
LINE
8
BLACK
6
CONTINUOUS
10
2.42874
20
2.90689
11
2.42822
21
2.90425
0
LINE
8
BLACK
6
CONTINUOUS
10
2.42822
20
2.90425
11
2.42672
21
2.90202
0
LINE
8
BLACK
6
CONTINUOUS
10
2.42672
20
2.90202
11
2.42449
21
2.90052
0
LINE
8
BLACK
6
CONTINUOUS
10
2.42449
20
2.90052
11
2.42185
21
2.9
0
LINE
8
BLACK
6
CONTINUOUS
10
2.42185
20
2.9
11
2.41921
21
2.90052
0
LINE
8
BLACK
6
CONTINUOUS
10
2.41921
20
2.90052
11
2.41698
21
2.90202
0
LINE
8
BLACK
6
CONTINUOUS
10
2.41698
20
2.90202
11
2.41549
21
2.90425
0
LINE
8
BLACK
6
CONTINUOUS
10
2.41549
20
2.90425
11
2.41496
21
2.90689
0
LINE
8
BLACK
6
CONTINUOUS
10
2.41496
20
2.90689
11
2.41496
21
2.96398
0
LINE
8
BLACK
6
CONTINUOUS
10
2.41496
20
2.96398
11
2.41549
21
2.96661
0
LINE
8
BLACK
6
CONTINUOUS
10
2.41549
20
2.96661
11
2.41698
21
2.96885
0
LINE
8
BLACK
6
CONTINUOUS
10
2.41698
20
2.96885
11
2.41921
21
2.97034
0
LINE
8
BLACK
6
CONTINUOUS
10
2.41921
20
2.97034
11
2.42185
21
2.97087
0
LINE
8
BLACK
6
CONTINUOUS
10
2.42185
20
2.97087
11
2.42449
21
2.97034
0
LINE
8
BLACK
6
CONTINUOUS
10
2.45598
20
2.97034
11
2.45822
21
2.96885
0
LINE
8
BLACK
6
CONTINUOUS
10
2.45822
20
2.96885
11
2.45971
21
2.96661
0
LINE
8
BLACK
6
CONTINUOUS
10
2.45971
20
2.96661
11
2.46024
21
2.96398
0
LINE
8
BLACK
6
CONTINUOUS
10
2.46024
20
2.96398
11
2.46024
21
2.90689
0
LINE
8
BLACK
6
CONTINUOUS
10
2.46024
20
2.90689
11
2.45971
21
2.90425
0
LINE
8
BLACK
6
CONTINUOUS
10
2.45971
20
2.90425
11
2.45822
21
2.90202
0
LINE
8
BLACK
6
CONTINUOUS
10
2.45822
20
2.90202
11
2.45598
21
2.90052
0
LINE
8
BLACK
6
CONTINUOUS
10
2.45598
20
2.90052
11
2.45335
21
2.9
0
LINE
8
BLACK
6
CONTINUOUS
10
2.45335
20
2.9
11
2.45071
21
2.90052
0
LINE
8
BLACK
6
CONTINUOUS
10
2.45071
20
2.90052
11
2.44847
21
2.90202
0
LINE
8
BLACK
6
CONTINUOUS
10
2.44847
20
2.90202
11
2.44698
21
2.90425
0
LINE
8
BLACK
6
CONTINUOUS
10
2.44698
20
2.90425
11
2.44646
21
2.90689
0
LINE
8
BLACK
6
CONTINUOUS
10
2.44646
20
2.90689
11
2.44646
21
2.96398
0
LINE
8
BLACK
6
CONTINUOUS
10
2.44646
20
2.96398
11
2.44698
21
2.96661
0
LINE
8
BLACK
6
CONTINUOUS
10
2.44698
20
2.96661
11
2.44847
21
2.96885
0
LINE
8
BLACK
6
CONTINUOUS
10
2.44847
20
2.96885
11
2.45071
21
2.97034
0
LINE
8
BLACK
6
CONTINUOUS
10
2.45071
20
2.97034
11
2.45335
21
2.97087
0
LINE
8
BLACK
6
CONTINUOUS
10
2.45335
20
2.97087
11
2.45598
21
2.97034
0
LINE
8
BLACK
6
CONTINUOUS
10
2.48748
20
2.97034
11
2.48971
21
2.96885
0
LINE
8
BLACK
6
CONTINUOUS
10
2.48971
20
2.96885
11
2.49121
21
2.96661
0
LINE
8
BLACK
6
CONTINUOUS
10
2.49121
20
2.96661
11
2.49173
21
2.96398
0
LINE
8
BLACK
6
CONTINUOUS
10
2.49173
20
2.96398
11
2.49173
21
2.90689
0
LINE
8
BLACK
6
CONTINUOUS
10
2.49173
20
2.90689
11
2.49121
21
2.90425
0
LINE
8
BLACK
6
CONTINUOUS
10
2.49121
20
2.90425
11
2.48971
21
2.90202
0
LINE
8
BLACK
6
CONTINUOUS
10
2.48971
20
2.90202
11
2.48748
21
2.90052
0
LINE
8
BLACK
6
CONTINUOUS
10
2.48748
20
2.90052
11
2.48484
21
2.9
0
LINE
8
BLACK
6
CONTINUOUS
10
2.48484
20
2.9
11
2.48221
21
2.90052
0
LINE
8
BLACK
6
CONTINUOUS
10
2.48221
20
2.90052
11
2.47997
21
2.90202
0
LINE
8
BLACK
6
CONTINUOUS
10
2.47997
20
2.90202
11
2.47848
21
2.90425
0
LINE
8
BLACK
6
CONTINUOUS
10
2.47848
20
2.90425
11
2.47795
21
2.90689
0
LINE
8
BLACK
6
CONTINUOUS
10
2.47795
20
2.90689
11
2.47795
21
2.96398
0
LINE
8
BLACK
6
CONTINUOUS
10
2.47795
20
2.96398
11
2.47848
21
2.96661
0
LINE
8
BLACK
6
CONTINUOUS
10
2.47848
20
2.96661
11
2.47997
21
2.96885
0
LINE
8
BLACK
6
CONTINUOUS
10
2.47997
20
2.96885
11
2.48221
21
2.97034
0
LINE
8
BLACK
6
CONTINUOUS
10
2.48221
20
2.97034
11
2.48484
21
2.97087
0
LINE
8
BLACK
6
CONTINUOUS
10
2.48484
20
2.97087
11
2.48748
21
2.97034
0
LINE
8
BLACK
6
CONTINUOUS
10
0.579999
20
2.97034
11
0.582234
21
2.96885
0
LINE
8
BLACK
6
CONTINUOUS
10
0.582234
20
2.96885
11
0.583728
21
2.96661
0
LINE
8
BLACK
6
CONTINUOUS
10
0.583728
20
2.96661
11
0.584252
21
2.96398
0
LINE
8
BLACK
6
CONTINUOUS
10
0.584252
20
2.96398
11
0.584252
21
2.90689
0
LINE
8
BLACK
6
CONTINUOUS
10
0.584252
20
2.90689
11
0.583728
21
2.90425
0
LINE
8
BLACK
6
CONTINUOUS
10
0.583728
20
2.90425
11
0.582234
21
2.90202
0
LINE
8
BLACK
6
CONTINUOUS
10
0.582234
20
2.90202
11
0.579999
21
2.90052
0
LINE
8
BLACK
6
CONTINUOUS
10
0.579999
20
2.90052
11
0.577362
21
2.9
0
LINE
8
BLACK
6
CONTINUOUS
10
0.577362
20
2.9
11
0.574726
21
2.90052
0
LINE
8
BLACK
6
CONTINUOUS
10
0.574726
20
2.90052
11
0.57249
21
2.90202
0
LINE
8
BLACK
6
CONTINUOUS
10
0.57249
20
2.90202
11
0.570997
21
2.90425
0
LINE
8
BLACK
6
CONTINUOUS
10
0.570997
20
2.90425
11
0.570472
21
2.90689
0
LINE
8
BLACK
6
CONTINUOUS
10
0.570472
20
2.90689
11
0.570472
21
2.96398
0
LINE
8
BLACK
6
CONTINUOUS
10
0.570472
20
2.96398
11
0.570997
21
2.96661
0
LINE
8
BLACK
6
CONTINUOUS
10
0.570997
20
2.96661
11
0.57249
21
2.96885
0
LINE
8
BLACK
6
CONTINUOUS
10
0.57249
20
2.96885
11
0.574726
21
2.97034
0
LINE
8
BLACK
6
CONTINUOUS
10
0.574726
20
2.97034
11
0.577362
21
2.97087
0
LINE
8
BLACK
6
CONTINUOUS
10
0.577362
20
2.97087
11
0.579999
21
2.97034
0
LINE
8
BLACK
6
CONTINUOUS
10
0.548503
20
2.97034
11
0.550738
21
2.96885
0
LINE
8
BLACK
6
CONTINUOUS
10
0.550738
20
2.96885
11
0.552231
21
2.96661
0
LINE
8
BLACK
6
CONTINUOUS
10
0.552231
20
2.96661
11
0.552756
21
2.96398
0
LINE
8
BLACK
6
CONTINUOUS
10
0.552756
20
2.96398
11
0.552756
21
2.90689
0
LINE
8
BLACK
6
CONTINUOUS
10
0.552756
20
2.90689
11
0.552231
21
2.90425
0
LINE
8
BLACK
6
CONTINUOUS
10
0.552231
20
2.90425
11
0.550738
21
2.90202
0
LINE
8
BLACK
6
CONTINUOUS
10
0.550738
20
2.90202
11
0.548503
21
2.90052
0
LINE
8
BLACK
6
CONTINUOUS
10
0.548503
20
2.90052
11
0.545866
21
2.9
0
LINE
8
BLACK
6
CONTINUOUS
10
0.545866
20
2.9
11
0.54323
21
2.90052
0
LINE
8
BLACK
6
CONTINUOUS
10
0.54323
20
2.90052
11
0.540994
21
2.90202
0
LINE
8
BLACK
6
CONTINUOUS
10
0.540994
20
2.90202
11
0.539501
21
2.90425
0
LINE
8
BLACK
6
CONTINUOUS
10
0.539501
20
2.90425
11
0.538976
21
2.90689
0
LINE
8
BLACK
6
CONTINUOUS
10
0.538976
20
2.90689
11
0.538976
21
2.96398
0
LINE
8
BLACK
6
CONTINUOUS
10
0.538976
20
2.96398
11
0.539501
21
2.96661
0
LINE
8
BLACK
6
CONTINUOUS
10
0.539501
20
2.96661
11
0.540994
21
2.96885
0
LINE
8
BLACK
6
CONTINUOUS
10
0.540994
20
2.96885
11
0.54323
21
2.97034
0
LINE
8
BLACK
6
CONTINUOUS
10
0.54323
20
2.97034
11
0.545866
21
2.97087
0
LINE
8
BLACK
6
CONTINUOUS
10
0.545866
20
2.97087
11
0.548503
21
2.97034
0
LINE
8
BLACK
6
CONTINUOUS
10
0.517007
20
2.97034
11
0.519242
21
2.96885
0
LINE
8
BLACK
6
CONTINUOUS
10
0.519242
20
2.96885
11
0.520735
21
2.96661
0
LINE
8
BLACK
6
CONTINUOUS
10
0.520735
20
2.96661
11
0.52126
21
2.96398
0
LINE
8
BLACK
6
CONTINUOUS
10
0.52126
20
2.96398
11
0.52126
21
2.90689
0
LINE
8
BLACK
6
CONTINUOUS
10
0.52126
20
2.90689
11
0.520735
21
2.90425
0
LINE
8
BLACK
6
CONTINUOUS
10
0.520735
20
2.90425
11
0.519242
21
2.90202
0
LINE
8
BLACK
6
CONTINUOUS
10
0.519242
20
2.90202
11
0.517007
21
2.90052
0
LINE
8
BLACK
6
CONTINUOUS
10
0.517007
20
2.90052
11
0.51437
21
2.9
0
LINE
8
BLACK
6
CONTINUOUS
10
0.51437
20
2.9
11
0.511733
21
2.90052
0
LINE
8
BLACK
6
CONTINUOUS
10
0.511733
20
2.90052
11
0.509498
21
2.90202
0
LINE
8
BLACK
6
CONTINUOUS
10
0.509498
20
2.90202
11
0.508005
21
2.90425
0
LINE
8
BLACK
6
CONTINUOUS
10
0.508005
20
2.90425
11
0.50748
21
2.90689
0
LINE
8
BLACK
6
CONTINUOUS
10
0.50748
20
2.90689
11
0.50748
21
2.96398
0
LINE
8
BLACK
6
CONTINUOUS
10
0.50748
20
2.96398
11
0.508005
21
2.96661
0
LINE
8
BLACK
6
CONTINUOUS
10
0.508005
20
2.96661
11
0.509498
21
2.96885
0
LINE
8
BLACK
6
CONTINUOUS
10
0.509498
20
2.96885
11
0.511733
21
2.97034
0
LINE
8
BLACK
6
CONTINUOUS
10
0.511733
20
2.97034
11
0.51437
21
2.97087
0
LINE
8
BLACK
6
CONTINUOUS
10
0.51437
20
2.97087
11
0.517007
21
2.97034
0
LINE
8
BLACK
6
CONTINUOUS
10
0.485511
20
2.97034
11
0.487746
21
2.96885
0
LINE
8
BLACK
6
CONTINUOUS
10
0.487746
20
2.96885
11
0.489239
21
2.96661
0
LINE
8
BLACK
6
CONTINUOUS
10
0.489239
20
2.96661
11
0.489764
21
2.96398
0
LINE
8
BLACK
6
CONTINUOUS
10
0.489764
20
2.96398
11
0.489764
21
2.90689
0
LINE
8
BLACK
6
CONTINUOUS
10
0.489764
20
2.90689
11
0.489239
21
2.90425
0
LINE
8
BLACK
6
CONTINUOUS
10
0.489239
20
2.90425
11
0.487746
21
2.90202
0
LINE
8
BLACK
6
CONTINUOUS
10
0.487746
20
2.90202
11
0.485511
21
2.90052
0
LINE
8
BLACK
6
CONTINUOUS
10
0.485511
20
2.90052
11
0.482874
21
2.9
0
LINE
8
BLACK
6
CONTINUOUS
10
0.482874
20
2.9
11
0.480237
21
2.90052
0
LINE
8
BLACK
6
CONTINUOUS
10
0.480237
20
2.90052
11
0.478002
21
2.90202
0
LINE
8
BLACK
6
CONTINUOUS
10
0.478002
20
2.90202
11
0.476509
21
2.90425
0
LINE
8
BLACK
6
CONTINUOUS
10
0.476509
20
2.90425
11
0.475984
21
2.90689
0
LINE
8
BLACK
6
CONTINUOUS
10
0.475984
20
2.90689
11
0.475984
21
2.96398
0
LINE
8
BLACK
6
CONTINUOUS
10
0.475984
20
2.96398
11
0.476509
21
2.96661
0
LINE
8
BLACK
6
CONTINUOUS
10
0.476509
20
2.96661
11
0.478002
21
2.96885
0
LINE
8
BLACK
6
CONTINUOUS
10
0.478002
20
2.96885
11
0.480237
21
2.97034
0
LINE
8
BLACK
6
CONTINUOUS
10
0.480237
20
2.97034
11
0.482874
21
2.97087
0
LINE
8
BLACK
6
CONTINUOUS
10
0.482874
20
2.97087
11
0.485511
21
2.97034
0
LINE
8
BLACK
6
CONTINUOUS
10
0.454015
20
2.97034
11
0.45625
21
2.96885
0
LINE
8
BLACK
6
CONTINUOUS
10
0.45625
20
2.96885
11
0.457743
21
2.96661
0
LINE
8
BLACK
6
CONTINUOUS
10
0.457743
20
2.96661
11
0.458268
21
2.96398
0
LINE
8
BLACK
6
CONTINUOUS
10
0.458268
20
2.96398
11
0.458268
21
2.90689
0
LINE
8
BLACK
6
CONTINUOUS
10
0.458268
20
2.90689
11
0.457743
21
2.90425
0
LINE
8
BLACK
6
CONTINUOUS
10
0.457743
20
2.90425
11
0.45625
21
2.90202
0
LINE
8
BLACK
6
CONTINUOUS
10
0.45625
20
2.90202
11
0.454015
21
2.90052
0
LINE
8
BLACK
6
CONTINUOUS
10
0.454015
20
2.90052
11
0.451378
21
2.9
0
LINE
8
BLACK
6
CONTINUOUS
10
0.451378
20
2.9
11
0.448741
21
2.90052
0
LINE
8
BLACK
6
CONTINUOUS
10
0.448741
20
2.90052
11
0.446506
21
2.90202
0
LINE
8
BLACK
6
CONTINUOUS
10
0.446506
20
2.90202
11
0.445013
21
2.90425
0
LINE
8
BLACK
6
CONTINUOUS
10
0.445013
20
2.90425
11
0.444488
21
2.90689
0
LINE
8
BLACK
6
CONTINUOUS
10
0.444488
20
2.90689
11
0.444488
21
2.96398
0
LINE
8
BLACK
6
CONTINUOUS
10
0.444488
20
2.96398
11
0.445013
21
2.96661
0
LINE
8
BLACK
6
CONTINUOUS
10
0.445013
20
2.96661
11
0.446506
21
2.96885
0
LINE
8
BLACK
6
CONTINUOUS
10
0.446506
20
2.96885
11
0.448741
21
2.97034
0
LINE
8
BLACK
6
CONTINUOUS
10
0.448741
20
2.97034
11
0.451378
21
2.97087
0
LINE
8
BLACK
6
CONTINUOUS
10
0.451378
20
2.97087
11
0.454015
21
2.97034
0
LINE
8
BLACK
6
CONTINUOUS
10
0.422519
20
2.97034
11
0.424754
21
2.96885
0
LINE
8
BLACK
6
CONTINUOUS
10
0.424754
20
2.96885
11
0.426247
21
2.96661
0
LINE
8
BLACK
6
CONTINUOUS
10
0.426247
20
2.96661
11
0.426772
21
2.96398
0
LINE
8
BLACK
6
CONTINUOUS
10
0.426772
20
2.96398
11
0.426772
21
2.90689
0
LINE
8
BLACK
6
CONTINUOUS
10
0.426772
20
2.90689
11
0.426247
21
2.90425
0
LINE
8
BLACK
6
CONTINUOUS
10
0.426247
20
2.90425
11
0.424754
21
2.90202
0
LINE
8
BLACK
6
CONTINUOUS
10
0.424754
20
2.90202
11
0.422519
21
2.90052
0
LINE
8
BLACK
6
CONTINUOUS
10
0.422519
20
2.90052
11
0.419882
21
2.9
0
LINE
8
BLACK
6
CONTINUOUS
10
0.419882
20
2.9
11
0.417245
21
2.90052
0
LINE
8
BLACK
6
CONTINUOUS
10
0.417245
20
2.90052
11
0.41501
21
2.90202
0
LINE
8
BLACK
6
CONTINUOUS
10
0.41501
20
2.90202
11
0.413517
21
2.90425
0
LINE
8
BLACK
6
CONTINUOUS
10
0.413517
20
2.90425
11
0.412992
21
2.90689
0
LINE
8
BLACK
6
CONTINUOUS
10
0.412992
20
2.90689
11
0.412992
21
2.96398
0
LINE
8
BLACK
6
CONTINUOUS
10
0.412992
20
2.96398
11
0.413517
21
2.96661
0
LINE
8
BLACK
6
CONTINUOUS
10
0.413517
20
2.96661
11
0.41501
21
2.96885
0
LINE
8
BLACK
6
CONTINUOUS
10
0.41501
20
2.96885
11
0.417245
21
2.97034
0
LINE
8
BLACK
6
CONTINUOUS
10
0.417245
20
2.97034
11
0.419882
21
2.97087
0
LINE
8
BLACK
6
CONTINUOUS
10
0.419882
20
2.97087
11
0.422519
21
2.97034
0
LINE
8
BLACK
6
CONTINUOUS
10
0.391022
20
2.97034
11
0.393258
21
2.96885
0
LINE
8
BLACK
6
CONTINUOUS
10
0.393258
20
2.96885
11
0.394751
21
2.96661
0
LINE
8
BLACK
6
CONTINUOUS
10
0.394751
20
2.96661
11
0.395276
21
2.96398
0
LINE
8
BLACK
6
CONTINUOUS
10
0.395276
20
2.96398
11
0.395276
21
2.90689
0
LINE
8
BLACK
6
CONTINUOUS
10
0.395276
20
2.90689
11
0.394751
21
2.90425
0
LINE
8
BLACK
6
CONTINUOUS
10
0.394751
20
2.90425
11
0.393258
21
2.90202
0
LINE
8
BLACK
6
CONTINUOUS
10
0.393258
20
2.90202
11
0.391022
21
2.90052
0
LINE
8
BLACK
6
CONTINUOUS
10
0.391022
20
2.90052
11
0.388386
21
2.9
0
LINE
8
BLACK
6
CONTINUOUS
10
0.388386
20
2.9
11
0.385749
21
2.90052
0
LINE
8
BLACK
6
CONTINUOUS
10
0.385749
20
2.90052
11
0.383514
21
2.90202
0
LINE
8
BLACK
6
CONTINUOUS
10
0.383514
20
2.90202
11
0.382021
21
2.90425
0
LINE
8
BLACK
6
CONTINUOUS
10
0.382021
20
2.90425
11
0.381496
21
2.90689
0
LINE
8
BLACK
6
CONTINUOUS
10
0.381496
20
2.90689
11
0.381496
21
2.96398
0
LINE
8
BLACK
6
CONTINUOUS
10
0.381496
20
2.96398
11
0.382021
21
2.96661
0
LINE
8
BLACK
6
CONTINUOUS
10
0.382021
20
2.96661
11
0.383514
21
2.96885
0
LINE
8
BLACK
6
CONTINUOUS
10
0.383514
20
2.96885
11
0.385749
21
2.97034
0
LINE
8
BLACK
6
CONTINUOUS
10
0.385749
20
2.97034
11
0.388386
21
2.97087
0
LINE
8
BLACK
6
CONTINUOUS
10
0.388386
20
2.97087
11
0.391022
21
2.97034
0
LINE
8
BLACK
6
CONTINUOUS
10
0.359526
20
2.97034
11
0.361762
21
2.96885
0
LINE
8
BLACK
6
CONTINUOUS
10
0.361762
20
2.96885
11
0.363255
21
2.96661
0
LINE
8
BLACK
6
CONTINUOUS
10
0.363255
20
2.96661
11
0.36378
21
2.96398
0
LINE
8
BLACK
6
CONTINUOUS
10
0.36378
20
2.96398
11
0.36378
21
2.90689
0
LINE
8
BLACK
6
CONTINUOUS
10
0.36378
20
2.90689
11
0.363255
21
2.90425
0
LINE
8
BLACK
6
CONTINUOUS
10
0.363255
20
2.90425
11
0.361762
21
2.90202
0
LINE
8
BLACK
6
CONTINUOUS
10
0.361762
20
2.90202
11
0.359526
21
2.90052
0
LINE
8
BLACK
6
CONTINUOUS
10
0.359526
20
2.90052
11
0.35689
21
2.9
0
LINE
8
BLACK
6
CONTINUOUS
10
0.35689
20
2.9
11
0.354253
21
2.90052
0
LINE
8
BLACK
6
CONTINUOUS
10
0.354253
20
2.90052
11
0.352018
21
2.90202
0
LINE
8
BLACK
6
CONTINUOUS
10
0.352018
20
2.90202
11
0.350524
21
2.90425
0
LINE
8
BLACK
6
CONTINUOUS
10
0.350524
20
2.90425
11
0.35
21
2.90689
0
LINE
8
BLACK
6
CONTINUOUS
10
0.35
20
2.90689
11
0.35
21
2.96398
0
LINE
8
BLACK
6
CONTINUOUS
10
0.35
20
2.96398
11
0.350524
21
2.96661
0
LINE
8
BLACK
6
CONTINUOUS
10
0.350524
20
2.96661
11
0.352018
21
2.96885
0
LINE
8
BLACK
6
CONTINUOUS
10
0.352018
20
2.96885
11
0.354253
21
2.97034
0
LINE
8
BLACK
6
CONTINUOUS
10
0.354253
20
2.97034
11
0.35689
21
2.97087
0
LINE
8
BLACK
6
CONTINUOUS
10
0.35689
20
2.97087
11
0.359526
21
2.97034
0
LINE
8
BLACK
6
CONTINUOUS
10
0.32803
20
2.97034
11
0.330266
21
2.96885
0
LINE
8
BLACK
6
CONTINUOUS
10
0.330266
20
2.96885
11
0.331759
21
2.96661
0
LINE
8
BLACK
6
CONTINUOUS
10
0.331759
20
2.96661
11
0.332283
21
2.96398
0
LINE
8
BLACK
6
CONTINUOUS
10
0.332283
20
2.96398
11
0.332283
21
2.90689
0
LINE
8
BLACK
6
CONTINUOUS
10
0.332283
20
2.90689
11
0.331759
21
2.90425
0
LINE
8
BLACK
6
CONTINUOUS
10
0.331759
20
2.90425
11
0.330266
21
2.90202
0
LINE
8
BLACK
6
CONTINUOUS
10
0.330266
20
2.90202
11
0.32803
21
2.90052
0
LINE
8
BLACK
6
CONTINUOUS
10
0.32803
20
2.90052
11
0.325394
21
2.9
0
LINE
8
BLACK
6
CONTINUOUS
10
0.325394
20
2.9
11
0.322757
21
2.90052
0
LINE
8
BLACK
6
CONTINUOUS
10
0.322757
20
2.90052
11
0.320522
21
2.90202
0
LINE
8
BLACK
6
CONTINUOUS
10
0.320522
20
2.90202
11
0.319028
21
2.90425
0
LINE
8
BLACK
6
CONTINUOUS
10
0.319028
20
2.90425
11
0.318504
21
2.90689
0
LINE
8
BLACK
6
CONTINUOUS
10
0.318504
20
2.90689
11
0.318504
21
2.96398
0
LINE
8
BLACK
6
CONTINUOUS
10
0.318504
20
2.96398
11
0.319028
21
2.96661
0
LINE
8
BLACK
6
CONTINUOUS
10
0.319028
20
2.96661
11
0.320522
21
2.96885
0
LINE
8
BLACK
6
CONTINUOUS
10
0.320522
20
2.96885
11
0.322757
21
2.97034
0
LINE
8
BLACK
6
CONTINUOUS
10
0.322757
20
2.97034
11
0.325394
21
2.97087
0
LINE
8
BLACK
6
CONTINUOUS
10
0.325394
20
2.97087
11
0.32803
21
2.97034
0
LINE
8
BLACK
6
CONTINUOUS
10
0.296534
20
2.97034
11
0.298769
21
2.96885
0
LINE
8
BLACK
6
CONTINUOUS
10
0.298769
20
2.96885
11
0.300263
21
2.96661
0
LINE
8
BLACK
6
CONTINUOUS
10
0.300263
20
2.96661
11
0.300787
21
2.96398
0
LINE
8
BLACK
6
CONTINUOUS
10
0.300787
20
2.96398
11
0.300787
21
2.90689
0
LINE
8
BLACK
6
CONTINUOUS
10
0.300787
20
2.90689
11
0.300263
21
2.90425
0
LINE
8
BLACK
6
CONTINUOUS
10
0.300263
20
2.90425
11
0.298769
21
2.90202
0
LINE
8
BLACK
6
CONTINUOUS
10
0.298769
20
2.90202
11
0.296534
21
2.90052
0
LINE
8
BLACK
6
CONTINUOUS
10
0.296534
20
2.90052
11
0.293898
21
2.9
0
LINE
8
BLACK
6
CONTINUOUS
10
0.293898
20
2.9
11
0.291261
21
2.90052
0
LINE
8
BLACK
6
CONTINUOUS
10
0.291261
20
2.90052
11
0.289026
21
2.90202
0
LINE
8
BLACK
6
CONTINUOUS
10
0.289026
20
2.90202
11
0.287532
21
2.90425
0
LINE
8
BLACK
6
CONTINUOUS
10
0.287532
20
2.90425
11
0.287008
21
2.90689
0
LINE
8
BLACK
6
CONTINUOUS
10
0.287008
20
2.90689
11
0.287008
21
2.96398
0
LINE
8
BLACK
6
CONTINUOUS
10
0.287008
20
2.96398
11
0.287532
21
2.96661
0
LINE
8
BLACK
6
CONTINUOUS
10
0.287532
20
2.96661
11
0.289026
21
2.96885
0
LINE
8
BLACK
6
CONTINUOUS
10
0.289026
20
2.96885
11
0.291261
21
2.97034
0
LINE
8
BLACK
6
CONTINUOUS
10
0.291261
20
2.97034
11
0.293898
21
2.97087
0
LINE
8
BLACK
6
CONTINUOUS
10
0.293898
20
2.97087
11
0.296534
21
2.97034
0
LINE
8
BLACK
6
CONTINUOUS
10
0.265038
20
2.97034
11
0.267273
21
2.96885
0
LINE
8
BLACK
6
CONTINUOUS
10
0.267273
20
2.96885
11
0.268767
21
2.96661
0
LINE
8
BLACK
6
CONTINUOUS
10
0.268767
20
2.96661
11
0.269291
21
2.96398
0
LINE
8
BLACK
6
CONTINUOUS
10
0.269291
20
2.96398
11
0.269291
21
2.90689
0
LINE
8
BLACK
6
CONTINUOUS
10
0.269291
20
2.90689
11
0.268767
21
2.90425
0
LINE
8
BLACK
6
CONTINUOUS
10
0.268767
20
2.90425
11
0.267273
21
2.90202
0
LINE
8
BLACK
6
CONTINUOUS
10
0.267273
20
2.90202
11
0.265038
21
2.90052
0
LINE
8
BLACK
6
CONTINUOUS
10
0.265038
20
2.90052
11
0.262402
21
2.9
0
LINE
8
BLACK
6
CONTINUOUS
10
0.262402
20
2.9
11
0.259765
21
2.90052
0
LINE
8
BLACK
6
CONTINUOUS
10
0.259765
20
2.90052
11
0.25753
21
2.90202
0
LINE
8
BLACK
6
CONTINUOUS
10
0.25753
20
2.90202
11
0.256036
21
2.90425
0
LINE
8
BLACK
6
CONTINUOUS
10
0.256036
20
2.90425
11
0.255512
21
2.90689
0
LINE
8
BLACK
6
CONTINUOUS
10
0.255512
20
2.90689
11
0.255512
21
2.96398
0
LINE
8
BLACK
6
CONTINUOUS
10
0.255512
20
2.96398
11
0.256036
21
2.96661
0
LINE
8
BLACK
6
CONTINUOUS
10
0.256036
20
2.96661
11
0.25753
21
2.96885
0
LINE
8
BLACK
6
CONTINUOUS
10
0.25753
20
2.96885
11
0.259765
21
2.97034
0
LINE
8
BLACK
6
CONTINUOUS
10
0.259765
20
2.97034
11
0.262402
21
2.97087
0
LINE
8
BLACK
6
CONTINUOUS
10
0.262402
20
2.97087
11
0.265038
21
2.97034
0
LINE
8
BLACK
6
CONTINUOUS
10
0.233542
20
2.97034
11
0.235777
21
2.96885
0
LINE
8
BLACK
6
CONTINUOUS
10
0.235777
20
2.96885
11
0.237271
21
2.96661
0
LINE
8
BLACK
6
CONTINUOUS
10
0.237271
20
2.96661
11
0.237795
21
2.96398
0
LINE
8
BLACK
6
CONTINUOUS
10
0.237795
20
2.96398
11
0.237795
21
2.90689
0
LINE
8
BLACK
6
CONTINUOUS
10
0.237795
20
2.90689
11
0.237271
21
2.90425
0
LINE
8
BLACK
6
CONTINUOUS
10
0.237271
20
2.90425
11
0.235777
21
2.90202
0
LINE
8
BLACK
6
CONTINUOUS
10
0.235777
20
2.90202
11
0.233542
21
2.90052
0
LINE
8
BLACK
6
CONTINUOUS
10
0.233542
20
2.90052
11
0.230906
21
2.9
0
LINE
8
BLACK
6
CONTINUOUS
10
0.230906
20
2.9
11
0.228269
21
2.90052
0
LINE
8
BLACK
6
CONTINUOUS
10
0.228269
20
2.90052
11
0.226034
21
2.90202
0
LINE
8
BLACK
6
CONTINUOUS
10
0.226034
20
2.90202
11
0.22454
21
2.90425
0
LINE
8
BLACK
6
CONTINUOUS
10
0.22454
20
2.90425
11
0.224016
21
2.90689
0
LINE
8
BLACK
6
CONTINUOUS
10
0.224016
20
2.90689
11
0.224016
21
2.96398
0
LINE
8
BLACK
6
CONTINUOUS
10
0.224016
20
2.96398
11
0.22454
21
2.96661
0
LINE
8
BLACK
6
CONTINUOUS
10
0.22454
20
2.96661
11
0.226034
21
2.96885
0
LINE
8
BLACK
6
CONTINUOUS
10
0.226034
20
2.96885
11
0.228269
21
2.97034
0
LINE
8
BLACK
6
CONTINUOUS
10
0.228269
20
2.97034
11
0.230906
21
2.97087
0
LINE
8
BLACK
6
CONTINUOUS
10
0.230906
20
2.97087
11
0.233542
21
2.97034
0
LINE
8
BLACK
6
CONTINUOUS
10
0.202046
20
2.97034
11
0.204281
21
2.96885
0
LINE
8
BLACK
6
CONTINUOUS
10
0.204281
20
2.96885
11
0.205775
21
2.96661
0
LINE
8
BLACK
6
CONTINUOUS
10
0.205775
20
2.96661
11
0.206299
21
2.96398
0
LINE
8
BLACK
6
CONTINUOUS
10
0.206299
20
2.96398
11
0.206299
21
2.90689
0
LINE
8
BLACK
6
CONTINUOUS
10
0.206299
20
2.90689
11
0.205775
21
2.90425
0
LINE
8
BLACK
6
CONTINUOUS
10
0.205775
20
2.90425
11
0.204281
21
2.90202
0
LINE
8
BLACK
6
CONTINUOUS
10
0.204281
20
2.90202
11
0.202046
21
2.90052
0
LINE
8
BLACK
6
CONTINUOUS
10
0.202046
20
2.90052
11
0.199409
21
2.9
0
LINE
8
BLACK
6
CONTINUOUS
10
0.199409
20
2.9
11
0.196773
21
2.90052
0
LINE
8
BLACK
6
CONTINUOUS
10
0.196773
20
2.90052
11
0.194538
21
2.90202
0
LINE
8
BLACK
6
CONTINUOUS
10
0.194538
20
2.90202
11
0.193044
21
2.90425
0
LINE
8
BLACK
6
CONTINUOUS
10
0.193044
20
2.90425
11
0.19252
21
2.90689
0
LINE
8
BLACK
6
CONTINUOUS
10
0.19252
20
2.90689
11
0.19252
21
2.96398
0
LINE
8
BLACK
6
CONTINUOUS
10
0.19252
20
2.96398
11
0.193044
21
2.96661
0
LINE
8
BLACK
6
CONTINUOUS
10
0.193044
20
2.96661
11
0.194538
21
2.96885
0
LINE
8
BLACK
6
CONTINUOUS
10
0.194538
20
2.96885
11
0.196773
21
2.97034
0
LINE
8
BLACK
6
CONTINUOUS
10
0.196773
20
2.97034
11
0.199409
21
2.97087
0
LINE
8
BLACK
6
CONTINUOUS
10
0.199409
20
2.97087
11
0.202046
21
2.97034
0
LINE
8
BLACK
6
CONTINUOUS
10
2.23551
20
2.97034
11
2.23775
21
2.96885
0
LINE
8
BLACK
6
CONTINUOUS
10
2.23775
20
2.96885
11
2.23924
21
2.96661
0
LINE
8
BLACK
6
CONTINUOUS
10
2.23924
20
2.96661
11
2.23976
21
2.96398
0
LINE
8
BLACK
6
CONTINUOUS
10
2.23976
20
2.96398
11
2.23976
21
2.90689
0
LINE
8
BLACK
6
CONTINUOUS
10
2.23976
20
2.90689
11
2.23924
21
2.90425
0
LINE
8
BLACK
6
CONTINUOUS
10
2.23924
20
2.90425
11
2.23775
21
2.90202
0
LINE
8
BLACK
6
CONTINUOUS
10
2.23775
20
2.90202
11
2.23551
21
2.90052
0
LINE
8
BLACK
6
CONTINUOUS
10
2.23551
20
2.90052
11
2.23287
21
2.9
0
LINE
8
BLACK
6
CONTINUOUS
10
2.23287
20
2.9
11
2.23024
21
2.90052
0
LINE
8
BLACK
6
CONTINUOUS
10
2.23024
20
2.90052
11
2.228
21
2.90202
0
LINE
8
BLACK
6
CONTINUOUS
10
2.228
20
2.90202
11
2.22651
21
2.90425
0
LINE
8
BLACK
6
CONTINUOUS
10
2.22651
20
2.90425
11
2.22598
21
2.90689
0
LINE
8
BLACK
6
CONTINUOUS
10
2.22598
20
2.90689
11
2.22598
21
2.96398
0
LINE
8
BLACK
6
CONTINUOUS
10
2.22598
20
2.96398
11
2.22651
21
2.96661
0
LINE
8
BLACK
6
CONTINUOUS
10
2.22651
20
2.96661
11
2.228
21
2.96885
0
LINE
8
BLACK
6
CONTINUOUS
10
2.228
20
2.96885
11
2.23024
21
2.97034
0
LINE
8
BLACK
6
CONTINUOUS
10
2.23024
20
2.97034
11
2.23287
21
2.97087
0
LINE
8
BLACK
6
CONTINUOUS
10
2.23287
20
2.97087
11
2.23551
21
2.97034
0
LINE
8
BLACK
6
CONTINUOUS
10
0.737479
20
2.97034
11
0.739714
21
2.96885
0
LINE
8
BLACK
6
CONTINUOUS
10
0.739714
20
2.96885
11
0.741208
21
2.96661
0
LINE
8
BLACK
6
CONTINUOUS
10
0.741208
20
2.96661
11
0.741732
21
2.96398
0
LINE
8
BLACK
6
CONTINUOUS
10
0.741732
20
2.96398
11
0.741732
21
2.90689
0
LINE
8
BLACK
6
CONTINUOUS
10
0.741732
20
2.90689
11
0.741208
21
2.90425
0
LINE
8
BLACK
6
CONTINUOUS
10
0.741208
20
2.90425
11
0.739714
21
2.90202
0
LINE
8
BLACK
6
CONTINUOUS
10
0.739714
20
2.90202
11
0.737479
21
2.90052
0
LINE
8
BLACK
6
CONTINUOUS
10
0.737479
20
2.90052
11
0.734843
21
2.9
0
LINE
8
BLACK
6
CONTINUOUS
10
0.734843
20
2.9
11
0.732206
21
2.90052
0
LINE
8
BLACK
6
CONTINUOUS
10
0.732206
20
2.90052
11
0.729971
21
2.90202
0
LINE
8
BLACK
6
CONTINUOUS
10
0.729971
20
2.90202
11
0.728477
21
2.90425
0
LINE
8
BLACK
6
CONTINUOUS
10
0.728477
20
2.90425
11
0.727953
21
2.90689
0
LINE
8
BLACK
6
CONTINUOUS
10
0.727953
20
2.90689
11
0.727953
21
2.96398
0
LINE
8
BLACK
6
CONTINUOUS
10
0.727953
20
2.96398
11
0.728477
21
2.96661
0
LINE
8
BLACK
6
CONTINUOUS
10
0.728477
20
2.96661
11
0.729971
21
2.96885
0
LINE
8
BLACK
6
CONTINUOUS
10
0.729971
20
2.96885
11
0.732206
21
2.97034
0
LINE
8
BLACK
6
CONTINUOUS
10
0.732206
20
2.97034
11
0.734843
21
2.97087
0
LINE
8
BLACK
6
CONTINUOUS
10
0.734843
20
2.97087
11
0.737479
21
2.97034
0
LINE
8
BLACK
6
CONTINUOUS
10
0.705983
20
2.97034
11
0.708218
21
2.96885
0
LINE
8
BLACK
6
CONTINUOUS
10
0.708218
20
2.96885
11
0.709712
21
2.96661
0
LINE
8
BLACK
6
CONTINUOUS
10
0.709712
20
2.96661
11
0.710236
21
2.96398
0
LINE
8
BLACK
6
CONTINUOUS
10
0.710236
20
2.96398
11
0.710236
21
2.90689
0
LINE
8
BLACK
6
CONTINUOUS
10
0.710236
20
2.90689
11
0.709712
21
2.90425
0
LINE
8
BLACK
6
CONTINUOUS
10
0.709712
20
2.90425
11
0.708218
21
2.90202
0
LINE
8
BLACK
6
CONTINUOUS
10
0.708218
20
2.90202
11
0.705983
21
2.90052
0
LINE
8
BLACK
6
CONTINUOUS
10
0.705983
20
2.90052
11
0.703346
21
2.9
0
LINE
8
BLACK
6
CONTINUOUS
10
0.703346
20
2.9
11
0.70071
21
2.90052
0
LINE
8
BLACK
6
CONTINUOUS
10
0.70071
20
2.90052
11
0.698475
21
2.90202
0
LINE
8
BLACK
6
CONTINUOUS
10
0.698475
20
2.90202
11
0.696981
21
2.90425
0
LINE
8
BLACK
6
CONTINUOUS
10
0.696981
20
2.90425
11
0.696457
21
2.90689
0
LINE
8
BLACK
6
CONTINUOUS
10
0.696457
20
2.90689
11
0.696457
21
2.96398
0
LINE
8
BLACK
6
CONTINUOUS
10
0.696457
20
2.96398
11
0.696981
21
2.96661
0
LINE
8
BLACK
6
CONTINUOUS
10
0.696981
20
2.96661
11
0.698475
21
2.96885
0
LINE
8
BLACK
6
CONTINUOUS
10
0.698475
20
2.96885
11
0.70071
21
2.97034
0
LINE
8
BLACK
6
CONTINUOUS
10
0.70071
20
2.97034
11
0.703346
21
2.97087
0
LINE
8
BLACK
6
CONTINUOUS
10
0.703346
20
2.97087
11
0.705983
21
2.97034
0
LINE
8
BLACK
6
CONTINUOUS
10
0.674487
20
2.97034
11
0.676722
21
2.96885
0
LINE
8
BLACK
6
CONTINUOUS
10
0.676722
20
2.96885
11
0.678216
21
2.96661
0
LINE
8
BLACK
6
CONTINUOUS
10
0.678216
20
2.96661
11
0.67874
21
2.96398
0
LINE
8
BLACK
6
CONTINUOUS
10
0.67874
20
2.96398
11
0.67874
21
2.90689
0
LINE
8
BLACK
6
CONTINUOUS
10
0.67874
20
2.90689
11
0.678216
21
2.90425
0
LINE
8
BLACK
6
CONTINUOUS
10
0.678216
20
2.90425
11
0.676722
21
2.90202
0
LINE
8
BLACK
6
CONTINUOUS
10
0.676722
20
2.90202
11
0.674487
21
2.90052
0
LINE
8
BLACK
6
CONTINUOUS
10
0.674487
20
2.90052
11
0.67185
21
2.9
0
LINE
8
BLACK
6
CONTINUOUS
10
0.67185
20
2.9
11
0.669214
21
2.90052
0
LINE
8
BLACK
6
CONTINUOUS
10
0.669214
20
2.90052
11
0.666979
21
2.90202
0
LINE
8
BLACK
6
CONTINUOUS
10
0.666979
20
2.90202
11
0.665485
21
2.90425
0
LINE
8
BLACK
6
CONTINUOUS
10
0.665485
20
2.90425
11
0.664961
21
2.90689
0
LINE
8
BLACK
6
CONTINUOUS
10
0.664961
20
2.90689
11
0.664961
21
2.96398
0
LINE
8
BLACK
6
CONTINUOUS
10
0.664961
20
2.96398
11
0.665485
21
2.96661
0
LINE
8
BLACK
6
CONTINUOUS
10
0.665485
20
2.96661
11
0.666979
21
2.96885
0
LINE
8
BLACK
6
CONTINUOUS
10
0.666979
20
2.96885
11
0.669214
21
2.97034
0
LINE
8
BLACK
6
CONTINUOUS
10
0.669214
20
2.97034
11
0.67185
21
2.97087
0
LINE
8
BLACK
6
CONTINUOUS
10
0.67185
20
2.97087
11
0.674487
21
2.97034
0
LINE
8
BLACK
6
CONTINUOUS
10
0.642991
20
2.97034
11
0.645226
21
2.96885
0
LINE
8
BLACK
6
CONTINUOUS
10
0.645226
20
2.96885
11
0.64672
21
2.96661
0
LINE
8
BLACK
6
CONTINUOUS
10
0.64672
20
2.96661
11
0.647244
21
2.96398
0
LINE
8
BLACK
6
CONTINUOUS
10
0.647244
20
2.96398
11
0.647244
21
2.90689
0
LINE
8
BLACK
6
CONTINUOUS
10
0.647244
20
2.90689
11
0.64672
21
2.90425
0
LINE
8
BLACK
6
CONTINUOUS
10
0.64672
20
2.90425
11
0.645226
21
2.90202
0
LINE
8
BLACK
6
CONTINUOUS
10
0.645226
20
2.90202
11
0.642991
21
2.90052
0
LINE
8
BLACK
6
CONTINUOUS
10
0.642991
20
2.90052
11
0.640354
21
2.9
0
LINE
8
BLACK
6
CONTINUOUS
10
0.640354
20
2.9
11
0.637718
21
2.90052
0
LINE
8
BLACK
6
CONTINUOUS
10
0.637718
20
2.90052
11
0.635483
21
2.90202
0
LINE
8
BLACK
6
CONTINUOUS
10
0.635483
20
2.90202
11
0.633989
21
2.90425
0
LINE
8
BLACK
6
CONTINUOUS
10
0.633989
20
2.90425
11
0.633465
21
2.90689
0
LINE
8
BLACK
6
CONTINUOUS
10
0.633465
20
2.90689
11
0.633465
21
2.96398
0
LINE
8
BLACK
6
CONTINUOUS
10
0.633465
20
2.96398
11
0.633989
21
2.96661
0
LINE
8
BLACK
6
CONTINUOUS
10
0.633989
20
2.96661
11
0.635483
21
2.96885
0
LINE
8
BLACK
6
CONTINUOUS
10
0.635483
20
2.96885
11
0.637718
21
2.97034
0
LINE
8
BLACK
6
CONTINUOUS
10
0.637718
20
2.97034
11
0.640354
21
2.97087
0
LINE
8
BLACK
6
CONTINUOUS
10
0.640354
20
2.97087
11
0.642991
21
2.97034
0
LINE
8
BLACK
6
CONTINUOUS
10
0.611495
20
2.97034
11
0.61373
21
2.96885
0
LINE
8
BLACK
6
CONTINUOUS
10
0.61373
20
2.96885
11
0.615224
21
2.96661
0
LINE
8
BLACK
6
CONTINUOUS
10
0.615224
20
2.96661
11
0.615748
21
2.96398
0
LINE
8
BLACK
6
CONTINUOUS
10
0.615748
20
2.96398
11
0.615748
21
2.90689
0
LINE
8
BLACK
6
CONTINUOUS
10
0.615748
20
2.90689
11
0.615224
21
2.90425
0
LINE
8
BLACK
6
CONTINUOUS
10
0.615224
20
2.90425
11
0.61373
21
2.90202
0
LINE
8
BLACK
6
CONTINUOUS
10
0.61373
20
2.90202
11
0.611495
21
2.90052
0
LINE
8
BLACK
6
CONTINUOUS
10
0.611495
20
2.90052
11
0.608858
21
2.9
0
LINE
8
BLACK
6
CONTINUOUS
10
0.608858
20
2.9
11
0.606222
21
2.90052
0
LINE
8
BLACK
6
CONTINUOUS
10
0.606222
20
2.90052
11
0.603986
21
2.90202
0
LINE
8
BLACK
6
CONTINUOUS
10
0.603986
20
2.90202
11
0.602493
21
2.90425
0
LINE
8
BLACK
6
CONTINUOUS
10
0.602493
20
2.90425
11
0.601969
21
2.90689
0
LINE
8
BLACK
6
CONTINUOUS
10
0.601969
20
2.90689
11
0.601969
21
2.96398
0
LINE
8
BLACK
6
CONTINUOUS
10
0.601969
20
2.96398
11
0.602493
21
2.96661
0
LINE
8
BLACK
6
CONTINUOUS
10
0.602493
20
2.96661
11
0.603986
21
2.96885
0
LINE
8
BLACK
6
CONTINUOUS
10
0.603986
20
2.96885
11
0.606222
21
2.97034
0
LINE
8
BLACK
6
CONTINUOUS
10
0.606222
20
2.97034
11
0.608858
21
2.97087
0
LINE
8
BLACK
6
CONTINUOUS
10
0.608858
20
2.97087
11
0.611495
21
2.97034
0
LINE
8
BLACK
6
CONTINUOUS
10
1.95205
20
2.97034
11
1.95428
21
2.96885
0
LINE
8
BLACK
6
CONTINUOUS
10
1.95428
20
2.96885
11
1.95577
21
2.96661
0
LINE
8
BLACK
6
CONTINUOUS
10
1.95577
20
2.96661
11
1.9563
21
2.96398
0
LINE
8
BLACK
6
CONTINUOUS
10
1.9563
20
2.96398
11
1.9563
21
2.90689
0
LINE
8
BLACK
6
CONTINUOUS
10
1.9563
20
2.90689
11
1.95577
21
2.90425
0
LINE
8
BLACK
6
CONTINUOUS
10
1.95577
20
2.90425
11
1.95428
21
2.90202
0
LINE
8
BLACK
6
CONTINUOUS
10
1.95428
20
2.90202
11
1.95205
21
2.90052
0
LINE
8
BLACK
6
CONTINUOUS
10
1.95205
20
2.90052
11
1.94941
21
2.9
0
LINE
8
BLACK
6
CONTINUOUS
10
1.94941
20
2.9
11
1.94677
21
2.90052
0
LINE
8
BLACK
6
CONTINUOUS
10
1.94677
20
2.90052
11
1.94454
21
2.90202
0
LINE
8
BLACK
6
CONTINUOUS
10
1.94454
20
2.90202
11
1.94304
21
2.90425
0
LINE
8
BLACK
6
CONTINUOUS
10
1.94304
20
2.90425
11
1.94252
21
2.90689
0
LINE
8
BLACK
6
CONTINUOUS
10
1.94252
20
2.90689
11
1.94252
21
2.96398
0
LINE
8
BLACK
6
CONTINUOUS
10
1.94252
20
2.96398
11
1.94304
21
2.96661
0
LINE
8
BLACK
6
CONTINUOUS
10
1.94304
20
2.96661
11
1.94454
21
2.96885
0
LINE
8
BLACK
6
CONTINUOUS
10
1.94454
20
2.96885
11
1.94677
21
2.97034
0
LINE
8
BLACK
6
CONTINUOUS
10
1.94677
20
2.97034
11
1.94941
21
2.97087
0
LINE
8
BLACK
6
CONTINUOUS
10
1.94941
20
2.97087
11
1.95205
21
2.97034
0
LINE
8
BLACK
6
CONTINUOUS
10
1.98354
20
2.97034
11
1.98578
21
2.96885
0
LINE
8
BLACK
6
CONTINUOUS
10
1.98578
20
2.96885
11
1.98727
21
2.96661
0
LINE
8
BLACK
6
CONTINUOUS
10
1.98727
20
2.96661
11
1.9878
21
2.96398
0
LINE
8
BLACK
6
CONTINUOUS
10
1.9878
20
2.96398
11
1.9878
21
2.90689
0
LINE
8
BLACK
6
CONTINUOUS
10
1.9878
20
2.90689
11
1.98727
21
2.90425
0
LINE
8
BLACK
6
CONTINUOUS
10
1.98727
20
2.90425
11
1.98578
21
2.90202
0
LINE
8
BLACK
6
CONTINUOUS
10
1.98578
20
2.90202
11
1.98354
21
2.90052
0
LINE
8
BLACK
6
CONTINUOUS
10
1.98354
20
2.90052
11
1.98091
21
2.9
0
LINE
8
BLACK
6
CONTINUOUS
10
1.98091
20
2.9
11
1.97827
21
2.90052
0
LINE
8
BLACK
6
CONTINUOUS
10
1.97827
20
2.90052
11
1.97603
21
2.90202
0
LINE
8
BLACK
6
CONTINUOUS
10
1.97603
20
2.90202
11
1.97454
21
2.90425
0
LINE
8
BLACK
6
CONTINUOUS
10
1.97454
20
2.90425
11
1.97402
21
2.90689
0
LINE
8
BLACK
6
CONTINUOUS
10
1.97402
20
2.90689
11
1.97402
21
2.96398
0
LINE
8
BLACK
6
CONTINUOUS
10
1.97402
20
2.96398
11
1.97454
21
2.96661
0
LINE
8
BLACK
6
CONTINUOUS
10
1.97454
20
2.96661
11
1.97603
21
2.96885
0
LINE
8
BLACK
6
CONTINUOUS
10
1.97603
20
2.96885
11
1.97827
21
2.97034
0
LINE
8
BLACK
6
CONTINUOUS
10
1.97827
20
2.97034
11
1.98091
21
2.97087
0
LINE
8
BLACK
6
CONTINUOUS
10
1.98091
20
2.97087
11
1.98354
21
2.97034
0
LINE
8
BLACK
6
CONTINUOUS
10
2.01504
20
2.97034
11
2.01727
21
2.96885
0
LINE
8
BLACK
6
CONTINUOUS
10
2.01727
20
2.96885
11
2.01877
21
2.96661
0
LINE
8
BLACK
6
CONTINUOUS
10
2.01877
20
2.96661
11
2.01929
21
2.96398
0
LINE
8
BLACK
6
CONTINUOUS
10
2.01929
20
2.96398
11
2.01929
21
2.90689
0
LINE
8
BLACK
6
CONTINUOUS
10
2.01929
20
2.90689
11
2.01877
21
2.90425
0
LINE
8
BLACK
6
CONTINUOUS
10
2.01877
20
2.90425
11
2.01727
21
2.90202
0
LINE
8
BLACK
6
CONTINUOUS
10
2.01727
20
2.90202
11
2.01504
21
2.90052
0
LINE
8
BLACK
6
CONTINUOUS
10
2.01504
20
2.90052
11
2.0124
21
2.9
0
LINE
8
BLACK
6
CONTINUOUS
10
2.0124
20
2.9
11
2.00976
21
2.90052
0
LINE
8
BLACK
6
CONTINUOUS
10
2.00976
20
2.90052
11
2.00753
21
2.90202
0
LINE
8
BLACK
6
CONTINUOUS
10
2.00753
20
2.90202
11
2.00604
21
2.90425
0
LINE
8
BLACK
6
CONTINUOUS
10
2.00604
20
2.90425
11
2.00551
21
2.90689
0
LINE
8
BLACK
6
CONTINUOUS
10
2.00551
20
2.90689
11
2.00551
21
2.96398
0
LINE
8
BLACK
6
CONTINUOUS
10
2.00551
20
2.96398
11
2.00604
21
2.96661
0
LINE
8
BLACK
6
CONTINUOUS
10
2.00604
20
2.96661
11
2.00753
21
2.96885
0
LINE
8
BLACK
6
CONTINUOUS
10
2.00753
20
2.96885
11
2.00976
21
2.97034
0
LINE
8
BLACK
6
CONTINUOUS
10
2.00976
20
2.97034
11
2.0124
21
2.97087
0
LINE
8
BLACK
6
CONTINUOUS
10
2.0124
20
2.97087
11
2.01504
21
2.97034
0
LINE
8
BLACK
6
CONTINUOUS
10
2.04653
20
2.97034
11
2.04877
21
2.96885
0
LINE
8
BLACK
6
CONTINUOUS
10
2.04877
20
2.96885
11
2.05026
21
2.96661
0
LINE
8
BLACK
6
CONTINUOUS
10
2.05026
20
2.96661
11
2.05079
21
2.96398
0
LINE
8
BLACK
6
CONTINUOUS
10
2.05079
20
2.96398
11
2.05079
21
2.90689
0
LINE
8
BLACK
6
CONTINUOUS
10
2.05079
20
2.90689
11
2.05026
21
2.90425
0
LINE
8
BLACK
6
CONTINUOUS
10
2.05026
20
2.90425
11
2.04877
21
2.90202
0
LINE
8
BLACK
6
CONTINUOUS
10
2.04877
20
2.90202
11
2.04653
21
2.90052
0
LINE
8
BLACK
6
CONTINUOUS
10
2.04653
20
2.90052
11
2.0439
21
2.9
0
LINE
8
BLACK
6
CONTINUOUS
10
2.0439
20
2.9
11
2.04126
21
2.90052
0
LINE
8
BLACK
6
CONTINUOUS
10
2.04126
20
2.90052
11
2.03903
21
2.90202
0
LINE
8
BLACK
6
CONTINUOUS
10
2.03903
20
2.90202
11
2.03753
21
2.90425
0
LINE
8
BLACK
6
CONTINUOUS
10
2.03753
20
2.90425
11
2.03701
21
2.90689
0
LINE
8
BLACK
6
CONTINUOUS
10
2.03701
20
2.90689
11
2.03701
21
2.96398
0
LINE
8
BLACK
6
CONTINUOUS
10
2.03701
20
2.96398
11
2.03753
21
2.96661
0
LINE
8
BLACK
6
CONTINUOUS
10
2.03753
20
2.96661
11
2.03903
21
2.96885
0
LINE
8
BLACK
6
CONTINUOUS
10
2.03903
20
2.96885
11
2.04126
21
2.97034
0
LINE
8
BLACK
6
CONTINUOUS
10
2.04126
20
2.97034
11
2.0439
21
2.97087
0
LINE
8
BLACK
6
CONTINUOUS
10
2.0439
20
2.97087
11
2.04653
21
2.97034
0
LINE
8
BLACK
6
CONTINUOUS
10
2.07803
20
2.97034
11
2.08027
21
2.96885
0
LINE
8
BLACK
6
CONTINUOUS
10
2.08027
20
2.96885
11
2.08176
21
2.96661
0
LINE
8
BLACK
6
CONTINUOUS
10
2.08176
20
2.96661
11
2.08228
21
2.96398
0
LINE
8
BLACK
6
CONTINUOUS
10
2.08228
20
2.96398
11
2.08228
21
2.90689
0
LINE
8
BLACK
6
CONTINUOUS
10
2.08228
20
2.90689
11
2.08176
21
2.90425
0
LINE
8
BLACK
6
CONTINUOUS
10
2.08176
20
2.90425
11
2.08027
21
2.90202
0
LINE
8
BLACK
6
CONTINUOUS
10
2.08027
20
2.90202
11
2.07803
21
2.90052
0
LINE
8
BLACK
6
CONTINUOUS
10
2.07803
20
2.90052
11
2.07539
21
2.9
0
LINE
8
BLACK
6
CONTINUOUS
10
2.07539
20
2.9
11
2.07276
21
2.90052
0
LINE
8
BLACK
6
CONTINUOUS
10
2.07276
20
2.90052
11
2.07052
21
2.90202
0
LINE
8
BLACK
6
CONTINUOUS
10
2.07052
20
2.90202
11
2.06903
21
2.90425
0
LINE
8
BLACK
6
CONTINUOUS
10
2.06903
20
2.90425
11
2.0685
21
2.90689
0
LINE
8
BLACK
6
CONTINUOUS
10
2.0685
20
2.90689
11
2.0685
21
2.96398
0
LINE
8
BLACK
6
CONTINUOUS
10
2.0685
20
2.96398
11
2.06903
21
2.96661
0
LINE
8
BLACK
6
CONTINUOUS
10
2.06903
20
2.96661
11
2.07052
21
2.96885
0
LINE
8
BLACK
6
CONTINUOUS
10
2.07052
20
2.96885
11
2.07276
21
2.97034
0
LINE
8
BLACK
6
CONTINUOUS
10
2.07276
20
2.97034
11
2.07539
21
2.97087
0
LINE
8
BLACK
6
CONTINUOUS
10
2.07539
20
2.97087
11
2.07803
21
2.97034
0
LINE
8
BLACK
6
CONTINUOUS
10
2.10953
20
2.97034
11
2.11176
21
2.96885
0
LINE
8
BLACK
6
CONTINUOUS
10
2.11176
20
2.96885
11
2.11326
21
2.96661
0
LINE
8
BLACK
6
CONTINUOUS
10
2.11326
20
2.96661
11
2.11378
21
2.96398
0
LINE
8
BLACK
6
CONTINUOUS
10
2.11378
20
2.96398
11
2.11378
21
2.90689
0
LINE
8
BLACK
6
CONTINUOUS
10
2.11378
20
2.90689
11
2.11326
21
2.90425
0
LINE
8
BLACK
6
CONTINUOUS
10
2.11326
20
2.90425
11
2.11176
21
2.90202
0
LINE
8
BLACK
6
CONTINUOUS
10
2.11176
20
2.90202
11
2.10953
21
2.90052
0
LINE
8
BLACK
6
CONTINUOUS
10
2.10953
20
2.90052
11
2.10689
21
2.9
0
LINE
8
BLACK
6
CONTINUOUS
10
2.10689
20
2.9
11
2.10425
21
2.90052
0
LINE
8
BLACK
6
CONTINUOUS
10
2.10425
20
2.90052
11
2.10202
21
2.90202
0
LINE
8
BLACK
6
CONTINUOUS
10
2.10202
20
2.90202
11
2.10052
21
2.90425
0
LINE
8
BLACK
6
CONTINUOUS
10
2.10052
20
2.90425
11
2.1
21
2.90689
0
LINE
8
BLACK
6
CONTINUOUS
10
2.1
20
2.90689
11
2.1
21
2.96398
0
LINE
8
BLACK
6
CONTINUOUS
10
2.1
20
2.96398
11
2.10052
21
2.96661
0
LINE
8
BLACK
6
CONTINUOUS
10
2.10052
20
2.96661
11
2.10202
21
2.96885
0
LINE
8
BLACK
6
CONTINUOUS
10
2.10202
20
2.96885
11
2.10425
21
2.97034
0
LINE
8
BLACK
6
CONTINUOUS
10
2.10425
20
2.97034
11
2.10689
21
2.97087
0
LINE
8
BLACK
6
CONTINUOUS
10
2.10689
20
2.97087
11
2.10953
21
2.97034
0
LINE
8
BLACK
6
CONTINUOUS
10
2.14102
20
2.97034
11
2.14326
21
2.96885
0
LINE
8
BLACK
6
CONTINUOUS
10
2.14326
20
2.96885
11
2.14475
21
2.96661
0
LINE
8
BLACK
6
CONTINUOUS
10
2.14475
20
2.96661
11
2.14528
21
2.96398
0
LINE
8
BLACK
6
CONTINUOUS
10
2.14528
20
2.96398
11
2.14528
21
2.90689
0
LINE
8
BLACK
6
CONTINUOUS
10
2.14528
20
2.90689
11
2.14475
21
2.90425
0
LINE
8
BLACK
6
CONTINUOUS
10
2.14475
20
2.90425
11
2.14326
21
2.90202
0
LINE
8
BLACK
6
CONTINUOUS
10
2.14326
20
2.90202
11
2.14102
21
2.90052
0
LINE
8
BLACK
6
CONTINUOUS
10
2.14102
20
2.90052
11
2.13839
21
2.9
0
LINE
8
BLACK
6
CONTINUOUS
10
2.13839
20
2.9
11
2.13575
21
2.90052
0
LINE
8
BLACK
6
CONTINUOUS
10
2.13575
20
2.90052
11
2.13351
21
2.90202
0
LINE
8
BLACK
6
CONTINUOUS
10
2.13351
20
2.90202
11
2.13202
21
2.90425
0
LINE
8
BLACK
6
CONTINUOUS
10
2.13202
20
2.90425
11
2.1315
21
2.90689
0
LINE
8
BLACK
6
CONTINUOUS
10
2.1315
20
2.90689
11
2.1315
21
2.96398
0
LINE
8
BLACK
6
CONTINUOUS
10
2.1315
20
2.96398
11
2.13202
21
2.96661
0
LINE
8
BLACK
6
CONTINUOUS
10
2.13202
20
2.96661
11
2.13351
21
2.96885
0
LINE
8
BLACK
6
CONTINUOUS
10
2.13351
20
2.96885
11
2.13575
21
2.97034
0
LINE
8
BLACK
6
CONTINUOUS
10
2.13575
20
2.97034
11
2.13839
21
2.97087
0
LINE
8
BLACK
6
CONTINUOUS
10
2.13839
20
2.97087
11
2.14102
21
2.97034
0
LINE
8
BLACK
6
CONTINUOUS
10
2.17252
20
2.97034
11
2.17475
21
2.96885
0
LINE
8
BLACK
6
CONTINUOUS
10
2.17475
20
2.96885
11
2.17625
21
2.96661
0
LINE
8
BLACK
6
CONTINUOUS
10
2.17625
20
2.96661
11
2.17677
21
2.96398
0
LINE
8
BLACK
6
CONTINUOUS
10
2.17677
20
2.96398
11
2.17677
21
2.90689
0
LINE
8
BLACK
6
CONTINUOUS
10
2.17677
20
2.90689
11
2.17625
21
2.90425
0
LINE
8
BLACK
6
CONTINUOUS
10
2.17625
20
2.90425
11
2.17475
21
2.90202
0
LINE
8
BLACK
6
CONTINUOUS
10
2.17475
20
2.90202
11
2.17252
21
2.90052
0
LINE
8
BLACK
6
CONTINUOUS
10
2.17252
20
2.90052
11
2.16988
21
2.9
0
LINE
8
BLACK
6
CONTINUOUS
10
2.16988
20
2.9
11
2.16725
21
2.90052
0
LINE
8
BLACK
6
CONTINUOUS
10
2.16725
20
2.90052
11
2.16501
21
2.90202
0
LINE
8
BLACK
6
CONTINUOUS
10
2.16501
20
2.90202
11
2.16352
21
2.90425
0
LINE
8
BLACK
6
CONTINUOUS
10
2.16352
20
2.90425
11
2.16299
21
2.90689
0
LINE
8
BLACK
6
CONTINUOUS
10
2.16299
20
2.90689
11
2.16299
21
2.96398
0
LINE
8
BLACK
6
CONTINUOUS
10
2.16299
20
2.96398
11
2.16352
21
2.96661
0
LINE
8
BLACK
6
CONTINUOUS
10
2.16352
20
2.96661
11
2.16501
21
2.96885
0
LINE
8
BLACK
6
CONTINUOUS
10
2.16501
20
2.96885
11
2.16725
21
2.97034
0
LINE
8
BLACK
6
CONTINUOUS
10
2.16725
20
2.97034
11
2.16988
21
2.97087
0
LINE
8
BLACK
6
CONTINUOUS
10
2.16988
20
2.97087
11
2.17252
21
2.97034
0
LINE
8
BLACK
6
CONTINUOUS
10
2.26701
20
2.97034
11
2.26924
21
2.96885
0
LINE
8
BLACK
6
CONTINUOUS
10
2.26924
20
2.96885
11
2.27074
21
2.96661
0
LINE
8
BLACK
6
CONTINUOUS
10
2.27074
20
2.96661
11
2.27126
21
2.96398
0
LINE
8
BLACK
6
CONTINUOUS
10
2.27126
20
2.96398
11
2.27126
21
2.90689
0
LINE
8
BLACK
6
CONTINUOUS
10
2.27126
20
2.90689
11
2.27074
21
2.90425
0
LINE
8
BLACK
6
CONTINUOUS
10
2.27074
20
2.90425
11
2.26924
21
2.90202
0
LINE
8
BLACK
6
CONTINUOUS
10
2.26924
20
2.90202
11
2.26701
21
2.90052
0
LINE
8
BLACK
6
CONTINUOUS
10
2.26701
20
2.90052
11
2.26437
21
2.9
0
LINE
8
BLACK
6
CONTINUOUS
10
2.26437
20
2.9
11
2.26173
21
2.90052
0
LINE
8
BLACK
6
CONTINUOUS
10
2.26173
20
2.90052
11
2.2595
21
2.90202
0
LINE
8
BLACK
6
CONTINUOUS
10
2.2595
20
2.90202
11
2.258
21
2.90425
0
LINE
8
BLACK
6
CONTINUOUS
10
2.258
20
2.90425
11
2.25748
21
2.90689
0
LINE
8
BLACK
6
CONTINUOUS
10
2.25748
20
2.90689
11
2.25748
21
2.96398
0
LINE
8
BLACK
6
CONTINUOUS
10
2.25748
20
2.96398
11
2.258
21
2.96661
0
LINE
8
BLACK
6
CONTINUOUS
10
2.258
20
2.96661
11
2.2595
21
2.96885
0
LINE
8
BLACK
6
CONTINUOUS
10
2.2595
20
2.96885
11
2.26173
21
2.97034
0
LINE
8
BLACK
6
CONTINUOUS
10
2.26173
20
2.97034
11
2.26437
21
2.97087
0
LINE
8
BLACK
6
CONTINUOUS
10
2.26437
20
2.97087
11
2.26701
21
2.97034
0
LINE
8
BLACK
6
CONTINUOUS
10
2.72424
20
3.18134
11
2.72743
21
3.1792
0
LINE
8
BLACK
6
CONTINUOUS
10
2.72743
20
3.1792
11
2.72957
21
3.17601
0
LINE
8
BLACK
6
CONTINUOUS
10
2.72957
20
3.17601
11
2.73031
21
3.17224
0
LINE
8
BLACK
6
CONTINUOUS
10
2.73031
20
3.17224
11
2.73031
21
3.13484
0
LINE
8
BLACK
6
CONTINUOUS
10
2.73031
20
3.13484
11
2.72957
21
3.13108
0
LINE
8
BLACK
6
CONTINUOUS
10
2.72957
20
3.13108
11
2.72743
21
3.12788
0
LINE
8
BLACK
6
CONTINUOUS
10
2.72743
20
3.12788
11
2.72424
21
3.12575
0
LINE
8
BLACK
6
CONTINUOUS
10
2.72424
20
3.12575
11
2.72047
21
3.125
0
LINE
8
BLACK
6
CONTINUOUS
10
2.72047
20
3.125
11
2.70079
21
3.125
0
LINE
8
BLACK
6
CONTINUOUS
10
2.70079
20
3.125
11
2.69702
21
3.12575
0
LINE
8
BLACK
6
CONTINUOUS
10
2.69702
20
3.12575
11
2.69383
21
3.12788
0
LINE
8
BLACK
6
CONTINUOUS
10
2.69383
20
3.12788
11
2.69169
21
3.13108
0
LINE
8
BLACK
6
CONTINUOUS
10
2.69169
20
3.13108
11
2.69094
21
3.13484
0
LINE
8
BLACK
6
CONTINUOUS
10
2.69094
20
3.13484
11
2.69094
21
3.17224
0
LINE
8
BLACK
6
CONTINUOUS
10
2.69094
20
3.17224
11
2.69169
21
3.17601
0
LINE
8
BLACK
6
CONTINUOUS
10
2.69169
20
3.17601
11
2.69383
21
3.1792
0
LINE
8
BLACK
6
CONTINUOUS
10
2.69383
20
3.1792
11
2.69702
21
3.18134
0
LINE
8
BLACK
6
CONTINUOUS
10
2.69702
20
3.18134
11
2.70079
21
3.18209
0
LINE
8
BLACK
6
CONTINUOUS
10
2.70079
20
3.18209
11
2.72047
21
3.18209
0
LINE
8
BLACK
6
CONTINUOUS
10
2.72047
20
3.18209
11
2.72424
21
3.18134
0
LINE
8
BLACK
6
CONTINUOUS
10
2.64944
20
3.18134
11
2.65263
21
3.1792
0
LINE
8
BLACK
6
CONTINUOUS
10
2.65263
20
3.1792
11
2.65476
21
3.17601
0
LINE
8
BLACK
6
CONTINUOUS
10
2.65476
20
3.17601
11
2.65551
21
3.17224
0
LINE
8
BLACK
6
CONTINUOUS
10
2.65551
20
3.17224
11
2.65551
21
3.13484
0
LINE
8
BLACK
6
CONTINUOUS
10
2.65551
20
3.13484
11
2.65476
21
3.13108
0
LINE
8
BLACK
6
CONTINUOUS
10
2.65476
20
3.13108
11
2.65263
21
3.12788
0
LINE
8
BLACK
6
CONTINUOUS
10
2.65263
20
3.12788
11
2.64944
21
3.12575
0
LINE
8
BLACK
6
CONTINUOUS
10
2.64944
20
3.12575
11
2.64567
21
3.125
0
LINE
8
BLACK
6
CONTINUOUS
10
2.64567
20
3.125
11
2.62598
21
3.125
0
LINE
8
BLACK
6
CONTINUOUS
10
2.62598
20
3.125
11
2.62222
21
3.12575
0
LINE
8
BLACK
6
CONTINUOUS
10
2.62222
20
3.12575
11
2.61902
21
3.12788
0
LINE
8
BLACK
6
CONTINUOUS
10
2.61902
20
3.12788
11
2.61689
21
3.13108
0
LINE
8
BLACK
6
CONTINUOUS
10
2.61689
20
3.13108
11
2.61614
21
3.13484
0
LINE
8
BLACK
6
CONTINUOUS
10
2.61614
20
3.13484
11
2.61614
21
3.17224
0
LINE
8
BLACK
6
CONTINUOUS
10
2.61614
20
3.17224
11
2.61689
21
3.17601
0
LINE
8
BLACK
6
CONTINUOUS
10
2.61689
20
3.17601
11
2.61902
21
3.1792
0
LINE
8
BLACK
6
CONTINUOUS
10
2.61902
20
3.1792
11
2.62222
21
3.18134
0
LINE
8
BLACK
6
CONTINUOUS
10
2.62222
20
3.18134
11
2.62598
21
3.18209
0
LINE
8
BLACK
6
CONTINUOUS
10
2.62598
20
3.18209
11
2.64567
21
3.18209
0
LINE
8
BLACK
6
CONTINUOUS
10
2.64567
20
3.18209
11
2.64944
21
3.18134
0
LINE
8
BLACK
6
CONTINUOUS
10
0.501259
20
3.19908
11
0.503494
21
3.19759
0
LINE
8
BLACK
6
CONTINUOUS
10
0.503494
20
3.19759
11
0.504987
21
3.19535
0
LINE
8
BLACK
6
CONTINUOUS
10
0.504987
20
3.19535
11
0.505512
21
3.19272
0
LINE
8
BLACK
6
CONTINUOUS
10
0.505512
20
3.19272
11
0.505512
21
3.13563
0
LINE
8
BLACK
6
CONTINUOUS
10
0.505512
20
3.13563
11
0.504987
21
3.13299
0
LINE
8
BLACK
6
CONTINUOUS
10
0.504987
20
3.13299
11
0.503494
21
3.13076
0
LINE
8
BLACK
6
CONTINUOUS
10
0.503494
20
3.13076
11
0.501259
21
3.12926
0
LINE
8
BLACK
6
CONTINUOUS
10
0.501259
20
3.12926
11
0.498622
21
3.12874
0
LINE
8
BLACK
6
CONTINUOUS
10
0.498622
20
3.12874
11
0.495985
21
3.12926
0
LINE
8
BLACK
6
CONTINUOUS
10
0.495985
20
3.12926
11
0.49375
21
3.13076
0
LINE
8
BLACK
6
CONTINUOUS
10
0.49375
20
3.13076
11
0.492257
21
3.13299
0
LINE
8
BLACK
6
CONTINUOUS
10
0.492257
20
3.13299
11
0.491732
21
3.13563
0
LINE
8
BLACK
6
CONTINUOUS
10
0.491732
20
3.13563
11
0.491732
21
3.19272
0
LINE
8
BLACK
6
CONTINUOUS
10
0.491732
20
3.19272
11
0.492257
21
3.19535
0
LINE
8
BLACK
6
CONTINUOUS
10
0.492257
20
3.19535
11
0.49375
21
3.19759
0
LINE
8
BLACK
6
CONTINUOUS
10
0.49375
20
3.19759
11
0.495985
21
3.19908
0
LINE
8
BLACK
6
CONTINUOUS
10
0.495985
20
3.19908
11
0.498622
21
3.19961
0
LINE
8
BLACK
6
CONTINUOUS
10
0.498622
20
3.19961
11
0.501259
21
3.19908
0
LINE
8
BLACK
6
CONTINUOUS
10
1.99929
20
3.19908
11
2.00153
21
3.19759
0
LINE
8
BLACK
6
CONTINUOUS
10
2.00153
20
3.19759
11
2.00302
21
3.19535
0
LINE
8
BLACK
6
CONTINUOUS
10
2.00302
20
3.19535
11
2.00354
21
3.19272
0
LINE
8
BLACK
6
CONTINUOUS
10
2.00354
20
3.19272
11
2.00354
21
3.13563
0
LINE
8
BLACK
6
CONTINUOUS
10
2.00354
20
3.13563
11
2.00302
21
3.13299
0
LINE
8
BLACK
6
CONTINUOUS
10
2.00302
20
3.13299
11
2.00153
21
3.13076
0
LINE
8
BLACK
6
CONTINUOUS
10
2.00153
20
3.13076
11
1.99929
21
3.12926
0
LINE
8
BLACK
6
CONTINUOUS
10
1.99929
20
3.12926
11
1.99665
21
3.12874
0
LINE
8
BLACK
6
CONTINUOUS
10
1.99665
20
3.12874
11
1.99402
21
3.12926
0
LINE
8
BLACK
6
CONTINUOUS
10
1.99402
20
3.12926
11
1.99178
21
3.13076
0
LINE
8
BLACK
6
CONTINUOUS
10
1.99178
20
3.13076
11
1.99029
21
3.13299
0
LINE
8
BLACK
6
CONTINUOUS
10
1.99029
20
3.13299
11
1.98976
21
3.13563
0
LINE
8
BLACK
6
CONTINUOUS
10
1.98976
20
3.13563
11
1.98976
21
3.19272
0
LINE
8
BLACK
6
CONTINUOUS
10
1.98976
20
3.19272
11
1.99029
21
3.19535
0
LINE
8
BLACK
6
CONTINUOUS
10
1.99029
20
3.19535
11
1.99178
21
3.19759
0
LINE
8
BLACK
6
CONTINUOUS
10
1.99178
20
3.19759
11
1.99402
21
3.19908
0
LINE
8
BLACK
6
CONTINUOUS
10
1.99402
20
3.19908
11
1.99665
21
3.19961
0
LINE
8
BLACK
6
CONTINUOUS
10
1.99665
20
3.19961
11
1.99929
21
3.19908
0
LINE
8
BLACK
6
CONTINUOUS
10
1.96779
20
3.19908
11
1.97003
21
3.19759
0
LINE
8
BLACK
6
CONTINUOUS
10
1.97003
20
3.19759
11
1.97152
21
3.19535
0
LINE
8
BLACK
6
CONTINUOUS
10
1.97152
20
3.19535
11
1.97205
21
3.19272
0
LINE
8
BLACK
6
CONTINUOUS
10
1.97205
20
3.19272
11
1.97205
21
3.13563
0
LINE
8
BLACK
6
CONTINUOUS
10
1.97205
20
3.13563
11
1.97152
21
3.13299
0
LINE
8
BLACK
6
CONTINUOUS
10
1.97152
20
3.13299
11
1.97003
21
3.13076
0
LINE
8
BLACK
6
CONTINUOUS
10
1.97003
20
3.13076
11
1.96779
21
3.12926
0
LINE
8
BLACK
6
CONTINUOUS
10
1.96779
20
3.12926
11
1.96516
21
3.12874
0
LINE
8
BLACK
6
CONTINUOUS
10
1.96516
20
3.12874
11
1.96252
21
3.12926
0
LINE
8
BLACK
6
CONTINUOUS
10
1.96252
20
3.12926
11
1.96029
21
3.13076
0
LINE
8
BLACK
6
CONTINUOUS
10
1.96029
20
3.13076
11
1.95879
21
3.13299
0
LINE
8
BLACK
6
CONTINUOUS
10
1.95879
20
3.13299
11
1.95827
21
3.13563
0
LINE
8
BLACK
6
CONTINUOUS
10
1.95827
20
3.13563
11
1.95827
21
3.19272
0
LINE
8
BLACK
6
CONTINUOUS
10
1.95827
20
3.19272
11
1.95879
21
3.19535
0
LINE
8
BLACK
6
CONTINUOUS
10
1.95879
20
3.19535
11
1.96029
21
3.19759
0
LINE
8
BLACK
6
CONTINUOUS
10
1.96029
20
3.19759
11
1.96252
21
3.19908
0
LINE
8
BLACK
6
CONTINUOUS
10
1.96252
20
3.19908
11
1.96516
21
3.19961
0
LINE
8
BLACK
6
CONTINUOUS
10
1.96516
20
3.19961
11
1.96779
21
3.19908
0
LINE
8
BLACK
6
CONTINUOUS
10
0.753227
20
3.19908
11
0.755462
21
3.19759
0
LINE
8
BLACK
6
CONTINUOUS
10
0.755462
20
3.19759
11
0.756956
21
3.19535
0
LINE
8
BLACK
6
CONTINUOUS
10
0.756956
20
3.19535
11
0.75748
21
3.19272
0
LINE
8
BLACK
6
CONTINUOUS
10
0.75748
20
3.19272
11
0.75748
21
3.13563
0
LINE
8
BLACK
6
CONTINUOUS
10
0.75748
20
3.13563
11
0.756956
21
3.13299
0
LINE
8
BLACK
6
CONTINUOUS
10
0.756956
20
3.13299
11
0.755462
21
3.13076
0
LINE
8
BLACK
6
CONTINUOUS
10
0.755462
20
3.13076
11
0.753227
21
3.12926
0
LINE
8
BLACK
6
CONTINUOUS
10
0.753227
20
3.12926
11
0.750591
21
3.12874
0
LINE
8
BLACK
6
CONTINUOUS
10
0.750591
20
3.12874
11
0.747954
21
3.12926
0
LINE
8
BLACK
6
CONTINUOUS
10
0.747954
20
3.12926
11
0.745719
21
3.13076
0
LINE
8
BLACK
6
CONTINUOUS
10
0.745719
20
3.13076
11
0.744225
21
3.13299
0
LINE
8
BLACK
6
CONTINUOUS
10
0.744225
20
3.13299
11
0.743701
21
3.13563
0
LINE
8
BLACK
6
CONTINUOUS
10
0.743701
20
3.13563
11
0.743701
21
3.19272
0
LINE
8
BLACK
6
CONTINUOUS
10
0.743701
20
3.19272
11
0.744225
21
3.19535
0
LINE
8
BLACK
6
CONTINUOUS
10
0.744225
20
3.19535
11
0.745719
21
3.19759
0
LINE
8
BLACK
6
CONTINUOUS
10
0.745719
20
3.19759
11
0.747954
21
3.19908
0
LINE
8
BLACK
6
CONTINUOUS
10
0.747954
20
3.19908
11
0.750591
21
3.19961
0
LINE
8
BLACK
6
CONTINUOUS
10
0.750591
20
3.19961
11
0.753227
21
3.19908
0
LINE
8
BLACK
6
CONTINUOUS
10
0.721731
20
3.19908
11
0.723966
21
3.19759
0
LINE
8
BLACK
6
CONTINUOUS
10
0.723966
20
3.19759
11
0.72546
21
3.19535
0
LINE
8
BLACK
6
CONTINUOUS
10
0.72546
20
3.19535
11
0.725984
21
3.19272
0
LINE
8
BLACK
6
CONTINUOUS
10
0.725984
20
3.19272
11
0.725984
21
3.13563
0
LINE
8
BLACK
6
CONTINUOUS
10
0.725984
20
3.13563
11
0.72546
21
3.13299
0
LINE
8
BLACK
6
CONTINUOUS
10
0.72546
20
3.13299
11
0.723966
21
3.13076
0
LINE
8
BLACK
6
CONTINUOUS
10
0.723966
20
3.13076
11
0.721731
21
3.12926
0
LINE
8
BLACK
6
CONTINUOUS
10
0.721731
20
3.12926
11
0.719094
21
3.12874
0
LINE
8
BLACK
6
CONTINUOUS
10
0.719094
20
3.12874
11
0.716458
21
3.12926
0
LINE
8
BLACK
6
CONTINUOUS
10
0.716458
20
3.12926
11
0.714223
21
3.13076
0
LINE
8
BLACK
6
CONTINUOUS
10
0.714223
20
3.13076
11
0.712729
21
3.13299
0
LINE
8
BLACK
6
CONTINUOUS
10
0.712729
20
3.13299
11
0.712205
21
3.13563
0
LINE
8
BLACK
6
CONTINUOUS
10
0.712205
20
3.13563
11
0.712205
21
3.19272
0
LINE
8
BLACK
6
CONTINUOUS
10
0.712205
20
3.19272
11
0.712729
21
3.19535
0
LINE
8
BLACK
6
CONTINUOUS
10
0.712729
20
3.19535
11
0.714223
21
3.19759
0
LINE
8
BLACK
6
CONTINUOUS
10
0.714223
20
3.19759
11
0.716458
21
3.19908
0
LINE
8
BLACK
6
CONTINUOUS
10
0.716458
20
3.19908
11
0.719094
21
3.19961
0
LINE
8
BLACK
6
CONTINUOUS
10
0.719094
20
3.19961
11
0.721731
21
3.19908
0
LINE
8
BLACK
6
CONTINUOUS
10
2.44024
20
3.19908
11
2.44247
21
3.19759
0
LINE
8
BLACK
6
CONTINUOUS
10
2.44247
20
3.19759
11
2.44396
21
3.19535
0
LINE
8
BLACK
6
CONTINUOUS
10
2.44396
20
3.19535
11
2.44449
21
3.19272
0
LINE
8
BLACK
6
CONTINUOUS
10
2.44449
20
3.19272
11
2.44449
21
3.13563
0
LINE
8
BLACK
6
CONTINUOUS
10
2.44449
20
3.13563
11
2.44396
21
3.13299
0
LINE
8
BLACK
6
CONTINUOUS
10
2.44396
20
3.13299
11
2.44247
21
3.13076
0
LINE
8
BLACK
6
CONTINUOUS
10
2.44247
20
3.13076
11
2.44024
21
3.12926
0
LINE
8
BLACK
6
CONTINUOUS
10
2.44024
20
3.12926
11
2.4376
21
3.12874
0
LINE
8
BLACK
6
CONTINUOUS
10
2.4376
20
3.12874
11
2.43496
21
3.12926
0
LINE
8
BLACK
6
CONTINUOUS
10
2.43496
20
3.12926
11
2.43273
21
3.13076
0
LINE
8
BLACK
6
CONTINUOUS
10
2.43273
20
3.13076
11
2.43123
21
3.13299
0
LINE
8
BLACK
6
CONTINUOUS
10
2.43123
20
3.13299
11
2.43071
21
3.13563
0
LINE
8
BLACK
6
CONTINUOUS
10
2.43071
20
3.13563
11
2.43071
21
3.19272
0
LINE
8
BLACK
6
CONTINUOUS
10
2.43071
20
3.19272
11
2.43123
21
3.19535
0
LINE
8
BLACK
6
CONTINUOUS
10
2.43123
20
3.19535
11
2.43273
21
3.19759
0
LINE
8
BLACK
6
CONTINUOUS
10
2.43273
20
3.19759
11
2.43496
21
3.19908
0
LINE
8
BLACK
6
CONTINUOUS
10
2.43496
20
3.19908
11
2.4376
21
3.19961
0
LINE
8
BLACK
6
CONTINUOUS
10
2.4376
20
3.19961
11
2.44024
21
3.19908
0
LINE
8
BLACK
6
CONTINUOUS
10
2.06228
20
3.19908
11
2.06452
21
3.19759
0
LINE
8
BLACK
6
CONTINUOUS
10
2.06452
20
3.19759
11
2.06601
21
3.19535
0
LINE
8
BLACK
6
CONTINUOUS
10
2.06601
20
3.19535
11
2.06654
21
3.19272
0
LINE
8
BLACK
6
CONTINUOUS
10
2.06654
20
3.19272
11
2.06654
21
3.13563
0
LINE
8
BLACK
6
CONTINUOUS
10
2.06654
20
3.13563
11
2.06601
21
3.13299
0
LINE
8
BLACK
6
CONTINUOUS
10
2.06601
20
3.13299
11
2.06452
21
3.13076
0
LINE
8
BLACK
6
CONTINUOUS
10
2.06452
20
3.13076
11
2.06228
21
3.12926
0
LINE
8
BLACK
6
CONTINUOUS
10
2.06228
20
3.12926
11
2.05965
21
3.12874
0
LINE
8
BLACK
6
CONTINUOUS
10
2.05965
20
3.12874
11
2.05701
21
3.12926
0
LINE
8
BLACK
6
CONTINUOUS
10
2.05701
20
3.12926
11
2.05477
21
3.13076
0
LINE
8
BLACK
6
CONTINUOUS
10
2.05477
20
3.13076
11
2.05328
21
3.13299
0
LINE
8
BLACK
6
CONTINUOUS
10
2.05328
20
3.13299
11
2.05276
21
3.13563
0
LINE
8
BLACK
6
CONTINUOUS
10
2.05276
20
3.13563
11
2.05276
21
3.19272
0
LINE
8
BLACK
6
CONTINUOUS
10
2.05276
20
3.19272
11
2.05328
21
3.19535
0
LINE
8
BLACK
6
CONTINUOUS
10
2.05328
20
3.19535
11
2.05477
21
3.19759
0
LINE
8
BLACK
6
CONTINUOUS
10
2.05477
20
3.19759
11
2.05701
21
3.19908
0
LINE
8
BLACK
6
CONTINUOUS
10
2.05701
20
3.19908
11
2.05965
21
3.19961
0
LINE
8
BLACK
6
CONTINUOUS
10
2.05965
20
3.19961
11
2.06228
21
3.19908
0
LINE
8
BLACK
6
CONTINUOUS
10
2.09378
20
3.19908
11
2.09601
21
3.19759
0
LINE
8
BLACK
6
CONTINUOUS
10
2.09601
20
3.19759
11
2.09751
21
3.19535
0
LINE
8
BLACK
6
CONTINUOUS
10
2.09751
20
3.19535
11
2.09803
21
3.19272
0
LINE
8
BLACK
6
CONTINUOUS
10
2.09803
20
3.19272
11
2.09803
21
3.13563
0
LINE
8
BLACK
6
CONTINUOUS
10
2.09803
20
3.13563
11
2.09751
21
3.13299
0
LINE
8
BLACK
6
CONTINUOUS
10
2.09751
20
3.13299
11
2.09601
21
3.13076
0
LINE
8
BLACK
6
CONTINUOUS
10
2.09601
20
3.13076
11
2.09378
21
3.12926
0
LINE
8
BLACK
6
CONTINUOUS
10
2.09378
20
3.12926
11
2.09114
21
3.12874
0
LINE
8
BLACK
6
CONTINUOUS
10
2.09114
20
3.12874
11
2.08851
21
3.12926
0
LINE
8
BLACK
6
CONTINUOUS
10
2.08851
20
3.12926
11
2.08627
21
3.13076
0
LINE
8
BLACK
6
CONTINUOUS
10
2.08627
20
3.13076
11
2.08478
21
3.13299
0
LINE
8
BLACK
6
CONTINUOUS
10
2.08478
20
3.13299
11
2.08425
21
3.13563
0
LINE
8
BLACK
6
CONTINUOUS
10
2.08425
20
3.13563
11
2.08425
21
3.19272
0
LINE
8
BLACK
6
CONTINUOUS
10
2.08425
20
3.19272
11
2.08478
21
3.19535
0
LINE
8
BLACK
6
CONTINUOUS
10
2.08478
20
3.19535
11
2.08627
21
3.19759
0
LINE
8
BLACK
6
CONTINUOUS
10
2.08627
20
3.19759
11
2.08851
21
3.19908
0
LINE
8
BLACK
6
CONTINUOUS
10
2.08851
20
3.19908
11
2.09114
21
3.19961
0
LINE
8
BLACK
6
CONTINUOUS
10
2.09114
20
3.19961
11
2.09378
21
3.19908
0
LINE
8
BLACK
6
CONTINUOUS
10
2.12527
20
3.19908
11
2.12751
21
3.19759
0
LINE
8
BLACK
6
CONTINUOUS
10
2.12751
20
3.19759
11
2.129
21
3.19535
0
LINE
8
BLACK
6
CONTINUOUS
10
2.129
20
3.19535
11
2.12953
21
3.19272
0
LINE
8
BLACK
6
CONTINUOUS
10
2.12953
20
3.19272
11
2.12953
21
3.13563
0
LINE
8
BLACK
6
CONTINUOUS
10
2.12953
20
3.13563
11
2.129
21
3.13299
0
LINE
8
BLACK
6
CONTINUOUS
10
2.129
20
3.13299
11
2.12751
21
3.13076
0
LINE
8
BLACK
6
CONTINUOUS
10
2.12751
20
3.13076
11
2.12527
21
3.12926
0
LINE
8
BLACK
6
CONTINUOUS
10
2.12527
20
3.12926
11
2.12264
21
3.12874
0
LINE
8
BLACK
6
CONTINUOUS
10
2.12264
20
3.12874
11
2.12
21
3.12926
0
LINE
8
BLACK
6
CONTINUOUS
10
2.12
20
3.12926
11
2.11777
21
3.13076
0
LINE
8
BLACK
6
CONTINUOUS
10
2.11777
20
3.13076
11
2.11627
21
3.13299
0
LINE
8
BLACK
6
CONTINUOUS
10
2.11627
20
3.13299
11
2.11575
21
3.13563
0
LINE
8
BLACK
6
CONTINUOUS
10
2.11575
20
3.13563
11
2.11575
21
3.19272
0
LINE
8
BLACK
6
CONTINUOUS
10
2.11575
20
3.19272
11
2.11627
21
3.19535
0
LINE
8
BLACK
6
CONTINUOUS
10
2.11627
20
3.19535
11
2.11777
21
3.19759
0
LINE
8
BLACK
6
CONTINUOUS
10
2.11777
20
3.19759
11
2.12
21
3.19908
0
LINE
8
BLACK
6
CONTINUOUS
10
2.12
20
3.19908
11
2.12264
21
3.19961
0
LINE
8
BLACK
6
CONTINUOUS
10
2.12264
20
3.19961
11
2.12527
21
3.19908
0
LINE
8
BLACK
6
CONTINUOUS
10
2.15677
20
3.19908
11
2.15901
21
3.19759
0
LINE
8
BLACK
6
CONTINUOUS
10
2.15901
20
3.19759
11
2.1605
21
3.19535
0
LINE
8
BLACK
6
CONTINUOUS
10
2.1605
20
3.19535
11
2.16102
21
3.19272
0
LINE
8
BLACK
6
CONTINUOUS
10
2.16102
20
3.19272
11
2.16102
21
3.13563
0
LINE
8
BLACK
6
CONTINUOUS
10
2.16102
20
3.13563
11
2.1605
21
3.13299
0
LINE
8
BLACK
6
CONTINUOUS
10
2.1605
20
3.13299
11
2.15901
21
3.13076
0
LINE
8
BLACK
6
CONTINUOUS
10
2.15901
20
3.13076
11
2.15677
21
3.12926
0
LINE
8
BLACK
6
CONTINUOUS
10
2.15677
20
3.12926
11
2.15413
21
3.12874
0
LINE
8
BLACK
6
CONTINUOUS
10
2.15413
20
3.12874
11
2.1515
21
3.12926
0
LINE
8
BLACK
6
CONTINUOUS
10
2.1515
20
3.12926
11
2.14926
21
3.13076
0
LINE
8
BLACK
6
CONTINUOUS
10
2.14926
20
3.13076
11
2.14777
21
3.13299
0
LINE
8
BLACK
6
CONTINUOUS
10
2.14777
20
3.13299
11
2.14724
21
3.13563
0
LINE
8
BLACK
6
CONTINUOUS
10
2.14724
20
3.13563
11
2.14724
21
3.19272
0
LINE
8
BLACK
6
CONTINUOUS
10
2.14724
20
3.19272
11
2.14777
21
3.19535
0
LINE
8
BLACK
6
CONTINUOUS
10
2.14777
20
3.19535
11
2.14926
21
3.19759
0
LINE
8
BLACK
6
CONTINUOUS
10
2.14926
20
3.19759
11
2.1515
21
3.19908
0
LINE
8
BLACK
6
CONTINUOUS
10
2.1515
20
3.19908
11
2.15413
21
3.19961
0
LINE
8
BLACK
6
CONTINUOUS
10
2.15413
20
3.19961
11
2.15677
21
3.19908
0
LINE
8
BLACK
6
CONTINUOUS
10
2.18827
20
3.19908
11
2.1905
21
3.19759
0
LINE
8
BLACK
6
CONTINUOUS
10
2.1905
20
3.19759
11
2.192
21
3.19535
0
LINE
8
BLACK
6
CONTINUOUS
10
2.192
20
3.19535
11
2.19252
21
3.19272
0
LINE
8
BLACK
6
CONTINUOUS
10
2.19252
20
3.19272
11
2.19252
21
3.13563
0
LINE
8
BLACK
6
CONTINUOUS
10
2.19252
20
3.13563
11
2.192
21
3.13299
0
LINE
8
BLACK
6
CONTINUOUS
10
2.192
20
3.13299
11
2.1905
21
3.13076
0
LINE
8
BLACK
6
CONTINUOUS
10
2.1905
20
3.13076
11
2.18827
21
3.12926
0
LINE
8
BLACK
6
CONTINUOUS
10
2.18827
20
3.12926
11
2.18563
21
3.12874
0
LINE
8
BLACK
6
CONTINUOUS
10
2.18563
20
3.12874
11
2.18299
21
3.12926
0
LINE
8
BLACK
6
CONTINUOUS
10
2.18299
20
3.12926
11
2.18076
21
3.13076
0
LINE
8
BLACK
6
CONTINUOUS
10
2.18076
20
3.13076
11
2.17926
21
3.13299
0
LINE
8
BLACK
6
CONTINUOUS
10
2.17926
20
3.13299
11
2.17874
21
3.13563
0
LINE
8
BLACK
6
CONTINUOUS
10
2.17874
20
3.13563
11
2.17874
21
3.19272
0
LINE
8
BLACK
6
CONTINUOUS
10
2.17874
20
3.19272
11
2.17926
21
3.19535
0
LINE
8
BLACK
6
CONTINUOUS
10
2.17926
20
3.19535
11
2.18076
21
3.19759
0
LINE
8
BLACK
6
CONTINUOUS
10
2.18076
20
3.19759
11
2.18299
21
3.19908
0
LINE
8
BLACK
6
CONTINUOUS
10
2.18299
20
3.19908
11
2.18563
21
3.19961
0
LINE
8
BLACK
6
CONTINUOUS
10
2.18563
20
3.19961
11
2.18827
21
3.19908
0
LINE
8
BLACK
6
CONTINUOUS
10
2.21976
20
3.19908
11
2.222
21
3.19759
0
LINE
8
BLACK
6
CONTINUOUS
10
2.222
20
3.19759
11
2.22349
21
3.19535
0
LINE
8
BLACK
6
CONTINUOUS
10
2.22349
20
3.19535
11
2.22402
21
3.19272
0
LINE
8
BLACK
6
CONTINUOUS
10
2.22402
20
3.19272
11
2.22402
21
3.13563
0
LINE
8
BLACK
6
CONTINUOUS
10
2.22402
20
3.13563
11
2.22349
21
3.13299
0
LINE
8
BLACK
6
CONTINUOUS
10
2.22349
20
3.13299
11
2.222
21
3.13076
0
LINE
8
BLACK
6
CONTINUOUS
10
2.222
20
3.13076
11
2.21976
21
3.12926
0
LINE
8
BLACK
6
CONTINUOUS
10
2.21976
20
3.12926
11
2.21713
21
3.12874
0
LINE
8
BLACK
6
CONTINUOUS
10
2.21713
20
3.12874
11
2.21449
21
3.12926
0
LINE
8
BLACK
6
CONTINUOUS
10
2.21449
20
3.12926
11
2.21225
21
3.13076
0
LINE
8
BLACK
6
CONTINUOUS
10
2.21225
20
3.13076
11
2.21076
21
3.13299
0
LINE
8
BLACK
6
CONTINUOUS
10
2.21076
20
3.13299
11
2.21024
21
3.13563
0
LINE
8
BLACK
6
CONTINUOUS
10
2.21024
20
3.13563
11
2.21024
21
3.19272
0
LINE
8
BLACK
6
CONTINUOUS
10
2.21024
20
3.19272
11
2.21076
21
3.19535
0
LINE
8
BLACK
6
CONTINUOUS
10
2.21076
20
3.19535
11
2.21225
21
3.19759
0
LINE
8
BLACK
6
CONTINUOUS
10
2.21225
20
3.19759
11
2.21449
21
3.19908
0
LINE
8
BLACK
6
CONTINUOUS
10
2.21449
20
3.19908
11
2.21713
21
3.19961
0
LINE
8
BLACK
6
CONTINUOUS
10
2.21713
20
3.19961
11
2.21976
21
3.19908
0
LINE
8
BLACK
6
CONTINUOUS
10
2.25126
20
3.19908
11
2.25349
21
3.19759
0
LINE
8
BLACK
6
CONTINUOUS
10
2.25349
20
3.19759
11
2.25499
21
3.19535
0
LINE
8
BLACK
6
CONTINUOUS
10
2.25499
20
3.19535
11
2.25551
21
3.19272
0
LINE
8
BLACK
6
CONTINUOUS
10
2.25551
20
3.19272
11
2.25551
21
3.13563
0
LINE
8
BLACK
6
CONTINUOUS
10
2.25551
20
3.13563
11
2.25499
21
3.13299
0
LINE
8
BLACK
6
CONTINUOUS
10
2.25499
20
3.13299
11
2.25349
21
3.13076
0
LINE
8
BLACK
6
CONTINUOUS
10
2.25349
20
3.13076
11
2.25126
21
3.12926
0
LINE
8
BLACK
6
CONTINUOUS
10
2.25126
20
3.12926
11
2.24862
21
3.12874
0
LINE
8
BLACK
6
CONTINUOUS
10
2.24862
20
3.12874
11
2.24599
21
3.12926
0
LINE
8
BLACK
6
CONTINUOUS
10
2.24599
20
3.12926
11
2.24375
21
3.13076
0
LINE
8
BLACK
6
CONTINUOUS
10
2.24375
20
3.13076
11
2.24226
21
3.13299
0
LINE
8
BLACK
6
CONTINUOUS
10
2.24226
20
3.13299
11
2.24173
21
3.13563
0
LINE
8
BLACK
6
CONTINUOUS
10
2.24173
20
3.13563
11
2.24173
21
3.19272
0
LINE
8
BLACK
6
CONTINUOUS
10
2.24173
20
3.19272
11
2.24226
21
3.19535
0
LINE
8
BLACK
6
CONTINUOUS
10
2.24226
20
3.19535
11
2.24375
21
3.19759
0
LINE
8
BLACK
6
CONTINUOUS
10
2.24375
20
3.19759
11
2.24599
21
3.19908
0
LINE
8
BLACK
6
CONTINUOUS
10
2.24599
20
3.19908
11
2.24862
21
3.19961
0
LINE
8
BLACK
6
CONTINUOUS
10
2.24862
20
3.19961
11
2.25126
21
3.19908
0
LINE
8
BLACK
6
CONTINUOUS
10
2.28275
20
3.19908
11
2.28499
21
3.19759
0
LINE
8
BLACK
6
CONTINUOUS
10
2.28499
20
3.19759
11
2.28648
21
3.19535
0
LINE
8
BLACK
6
CONTINUOUS
10
2.28648
20
3.19535
11
2.28701
21
3.19272
0
LINE
8
BLACK
6
CONTINUOUS
10
2.28701
20
3.19272
11
2.28701
21
3.13563
0
LINE
8
BLACK
6
CONTINUOUS
10
2.28701
20
3.13563
11
2.28648
21
3.13299
0
LINE
8
BLACK
6
CONTINUOUS
10
2.28648
20
3.13299
11
2.28499
21
3.13076
0
LINE
8
BLACK
6
CONTINUOUS
10
2.28499
20
3.13076
11
2.28275
21
3.12926
0
LINE
8
BLACK
6
CONTINUOUS
10
2.28275
20
3.12926
11
2.28012
21
3.12874
0
LINE
8
BLACK
6
CONTINUOUS
10
2.28012
20
3.12874
11
2.27748
21
3.12926
0
LINE
8
BLACK
6
CONTINUOUS
10
2.27748
20
3.12926
11
2.27525
21
3.13076
0
LINE
8
BLACK
6
CONTINUOUS
10
2.27525
20
3.13076
11
2.27375
21
3.13299
0
LINE
8
BLACK
6
CONTINUOUS
10
2.27375
20
3.13299
11
2.27323
21
3.13563
0
LINE
8
BLACK
6
CONTINUOUS
10
2.27323
20
3.13563
11
2.27323
21
3.19272
0
LINE
8
BLACK
6
CONTINUOUS
10
2.27323
20
3.19272
11
2.27375
21
3.19535
0
LINE
8
BLACK
6
CONTINUOUS
10
2.27375
20
3.19535
11
2.27525
21
3.19759
0
LINE
8
BLACK
6
CONTINUOUS
10
2.27525
20
3.19759
11
2.27748
21
3.19908
0
LINE
8
BLACK
6
CONTINUOUS
10
2.27748
20
3.19908
11
2.28012
21
3.19961
0
LINE
8
BLACK
6
CONTINUOUS
10
2.28012
20
3.19961
11
2.28275
21
3.19908
0
LINE
8
BLACK
6
CONTINUOUS
10
2.31425
20
3.19908
11
2.31649
21
3.19759
0
LINE
8
BLACK
6
CONTINUOUS
10
2.31649
20
3.19759
11
2.31798
21
3.19535
0
LINE
8
BLACK
6
CONTINUOUS
10
2.31798
20
3.19535
11
2.3185
21
3.19272
0
LINE
8
BLACK
6
CONTINUOUS
10
2.3185
20
3.19272
11
2.3185
21
3.13563
0
LINE
8
BLACK
6
CONTINUOUS
10
2.3185
20
3.13563
11
2.31798
21
3.13299
0
LINE
8
BLACK
6
CONTINUOUS
10
2.31798
20
3.13299
11
2.31649
21
3.13076
0
LINE
8
BLACK
6
CONTINUOUS
10
2.31649
20
3.13076
11
2.31425
21
3.12926
0
LINE
8
BLACK
6
CONTINUOUS
10
2.31425
20
3.12926
11
2.31161
21
3.12874
0
LINE
8
BLACK
6
CONTINUOUS
10
2.31161
20
3.12874
11
2.30898
21
3.12926
0
LINE
8
BLACK
6
CONTINUOUS
10
2.30898
20
3.12926
11
2.30674
21
3.13076
0
LINE
8
BLACK
6
CONTINUOUS
10
2.30674
20
3.13076
11
2.30525
21
3.13299
0
LINE
8
BLACK
6
CONTINUOUS
10
2.30525
20
3.13299
11
2.30472
21
3.13563
0
LINE
8
BLACK
6
CONTINUOUS
10
2.30472
20
3.13563
11
2.30472
21
3.19272
0
LINE
8
BLACK
6
CONTINUOUS
10
2.30472
20
3.19272
11
2.30525
21
3.19535
0
LINE
8
BLACK
6
CONTINUOUS
10
2.30525
20
3.19535
11
2.30674
21
3.19759
0
LINE
8
BLACK
6
CONTINUOUS
10
2.30674
20
3.19759
11
2.30898
21
3.19908
0
LINE
8
BLACK
6
CONTINUOUS
10
2.30898
20
3.19908
11
2.31161
21
3.19961
0
LINE
8
BLACK
6
CONTINUOUS
10
2.31161
20
3.19961
11
2.31425
21
3.19908
0
LINE
8
BLACK
6
CONTINUOUS
10
2.34575
20
3.19908
11
2.34798
21
3.19759
0
LINE
8
BLACK
6
CONTINUOUS
10
2.34798
20
3.19759
11
2.34948
21
3.19535
0
LINE
8
BLACK
6
CONTINUOUS
10
2.34948
20
3.19535
11
2.35
21
3.19272
0
LINE
8
BLACK
6
CONTINUOUS
10
2.35
20
3.19272
11
2.35
21
3.13563
0
LINE
8
BLACK
6
CONTINUOUS
10
2.35
20
3.13563
11
2.34948
21
3.13299
0
LINE
8
BLACK
6
CONTINUOUS
10
2.34948
20
3.13299
11
2.34798
21
3.13076
0
LINE
8
BLACK
6
CONTINUOUS
10
2.34798
20
3.13076
11
2.34575
21
3.12926
0
LINE
8
BLACK
6
CONTINUOUS
10
2.34575
20
3.12926
11
2.34311
21
3.12874
0
LINE
8
BLACK
6
CONTINUOUS
10
2.34311
20
3.12874
11
2.34047
21
3.12926
0
LINE
8
BLACK
6
CONTINUOUS
10
2.34047
20
3.12926
11
2.33824
21
3.13076
0
LINE
8
BLACK
6
CONTINUOUS
10
2.33824
20
3.13076
11
2.33674
21
3.13299
0
LINE
8
BLACK
6
CONTINUOUS
10
2.33674
20
3.13299
11
2.33622
21
3.13563
0
LINE
8
BLACK
6
CONTINUOUS
10
2.33622
20
3.13563
11
2.33622
21
3.19272
0
LINE
8
BLACK
6
CONTINUOUS
10
2.33622
20
3.19272
11
2.33674
21
3.19535
0
LINE
8
BLACK
6
CONTINUOUS
10
2.33674
20
3.19535
11
2.33824
21
3.19759
0
LINE
8
BLACK
6
CONTINUOUS
10
2.33824
20
3.19759
11
2.34047
21
3.19908
0
LINE
8
BLACK
6
CONTINUOUS
10
2.34047
20
3.19908
11
2.34311
21
3.19961
0
LINE
8
BLACK
6
CONTINUOUS
10
2.34311
20
3.19961
11
2.34575
21
3.19908
0
LINE
8
BLACK
6
CONTINUOUS
10
2.37724
20
3.19908
11
2.37948
21
3.19759
0
LINE
8
BLACK
6
CONTINUOUS
10
2.37948
20
3.19759
11
2.38097
21
3.19535
0
LINE
8
BLACK
6
CONTINUOUS
10
2.38097
20
3.19535
11
2.3815
21
3.19272
0
LINE
8
BLACK
6
CONTINUOUS
10
2.3815
20
3.19272
11
2.3815
21
3.13563
0
LINE
8
BLACK
6
CONTINUOUS
10
2.3815
20
3.13563
11
2.38097
21
3.13299
0
LINE
8
BLACK
6
CONTINUOUS
10
2.38097
20
3.13299
11
2.37948
21
3.13076
0
LINE
8
BLACK
6
CONTINUOUS
10
2.37948
20
3.13076
11
2.37724
21
3.12926
0
LINE
8
BLACK
6
CONTINUOUS
10
2.37724
20
3.12926
11
2.37461
21
3.12874
0
LINE
8
BLACK
6
CONTINUOUS
10
2.37461
20
3.12874
11
2.37197
21
3.12926
0
LINE
8
BLACK
6
CONTINUOUS
10
2.37197
20
3.12926
11
2.36973
21
3.13076
0
LINE
8
BLACK
6
CONTINUOUS
10
2.36973
20
3.13076
11
2.36824
21
3.13299
0
LINE
8
BLACK
6
CONTINUOUS
10
2.36824
20
3.13299
11
2.36772
21
3.13563
0
LINE
8
BLACK
6
CONTINUOUS
10
2.36772
20
3.13563
11
2.36772
21
3.19272
0
LINE
8
BLACK
6
CONTINUOUS
10
2.36772
20
3.19272
11
2.36824
21
3.19535
0
LINE
8
BLACK
6
CONTINUOUS
10
2.36824
20
3.19535
11
2.36973
21
3.19759
0
LINE
8
BLACK
6
CONTINUOUS
10
2.36973
20
3.19759
11
2.37197
21
3.19908
0
LINE
8
BLACK
6
CONTINUOUS
10
2.37197
20
3.19908
11
2.37461
21
3.19961
0
LINE
8
BLACK
6
CONTINUOUS
10
2.37461
20
3.19961
11
2.37724
21
3.19908
0
LINE
8
BLACK
6
CONTINUOUS
10
2.40874
20
3.19908
11
2.41097
21
3.19759
0
LINE
8
BLACK
6
CONTINUOUS
10
2.41097
20
3.19759
11
2.41247
21
3.19535
0
LINE
8
BLACK
6
CONTINUOUS
10
2.41247
20
3.19535
11
2.41299
21
3.19272
0
LINE
8
BLACK
6
CONTINUOUS
10
2.41299
20
3.19272
11
2.41299
21
3.13563
0
LINE
8
BLACK
6
CONTINUOUS
10
2.41299
20
3.13563
11
2.41247
21
3.13299
0
LINE
8
BLACK
6
CONTINUOUS
10
2.41247
20
3.13299
11
2.41097
21
3.13076
0
LINE
8
BLACK
6
CONTINUOUS
10
2.41097
20
3.13076
11
2.40874
21
3.12926
0
LINE
8
BLACK
6
CONTINUOUS
10
2.40874
20
3.12926
11
2.4061
21
3.12874
0
LINE
8
BLACK
6
CONTINUOUS
10
2.4061
20
3.12874
11
2.40347
21
3.12926
0
LINE
8
BLACK
6
CONTINUOUS
10
2.40347
20
3.12926
11
2.40123
21
3.13076
0
LINE
8
BLACK
6
CONTINUOUS
10
2.40123
20
3.13076
11
2.39974
21
3.13299
0
LINE
8
BLACK
6
CONTINUOUS
10
2.39974
20
3.13299
11
2.39921
21
3.13563
0
LINE
8
BLACK
6
CONTINUOUS
10
2.39921
20
3.13563
11
2.39921
21
3.19272
0
LINE
8
BLACK
6
CONTINUOUS
10
2.39921
20
3.19272
11
2.39974
21
3.19535
0
LINE
8
BLACK
6
CONTINUOUS
10
2.39974
20
3.19535
11
2.40123
21
3.19759
0
LINE
8
BLACK
6
CONTINUOUS
10
2.40123
20
3.19759
11
2.40347
21
3.19908
0
LINE
8
BLACK
6
CONTINUOUS
10
2.40347
20
3.19908
11
2.4061
21
3.19961
0
LINE
8
BLACK
6
CONTINUOUS
10
2.4061
20
3.19961
11
2.40874
21
3.19908
0
LINE
8
BLACK
6
CONTINUOUS
10
0.690235
20
3.19908
11
0.69247
21
3.19759
0
LINE
8
BLACK
6
CONTINUOUS
10
0.69247
20
3.19759
11
0.693964
21
3.19535
0
LINE
8
BLACK
6
CONTINUOUS
10
0.693964
20
3.19535
11
0.694488
21
3.19272
0
LINE
8
BLACK
6
CONTINUOUS
10
0.694488
20
3.19272
11
0.694488
21
3.13563
0
LINE
8
BLACK
6
CONTINUOUS
10
0.694488
20
3.13563
11
0.693964
21
3.13299
0
LINE
8
BLACK
6
CONTINUOUS
10
0.693964
20
3.13299
11
0.69247
21
3.13076
0
LINE
8
BLACK
6
CONTINUOUS
10
0.69247
20
3.13076
11
0.690235
21
3.12926
0
LINE
8
BLACK
6
CONTINUOUS
10
0.690235
20
3.12926
11
0.687598
21
3.12874
0
LINE
8
BLACK
6
CONTINUOUS
10
0.687598
20
3.12874
11
0.684962
21
3.12926
0
LINE
8
BLACK
6
CONTINUOUS
10
0.684962
20
3.12926
11
0.682727
21
3.13076
0
LINE
8
BLACK
6
CONTINUOUS
10
0.682727
20
3.13076
11
0.681233
21
3.13299
0
LINE
8
BLACK
6
CONTINUOUS
10
0.681233
20
3.13299
11
0.680709
21
3.13563
0
LINE
8
BLACK
6
CONTINUOUS
10
0.680709
20
3.13563
11
0.680709
21
3.19272
0
LINE
8
BLACK
6
CONTINUOUS
10
0.680709
20
3.19272
11
0.681233
21
3.19535
0
LINE
8
BLACK
6
CONTINUOUS
10
0.681233
20
3.19535
11
0.682727
21
3.19759
0
LINE
8
BLACK
6
CONTINUOUS
10
0.682727
20
3.19759
11
0.684962
21
3.19908
0
LINE
8
BLACK
6
CONTINUOUS
10
0.684962
20
3.19908
11
0.687598
21
3.19961
0
LINE
8
BLACK
6
CONTINUOUS
10
0.687598
20
3.19961
11
0.690235
21
3.19908
0
LINE
8
BLACK
6
CONTINUOUS
10
2.47173
20
3.19908
11
2.47397
21
3.19759
0
LINE
8
BLACK
6
CONTINUOUS
10
2.47397
20
3.19759
11
2.47546
21
3.19535
0
LINE
8
BLACK
6
CONTINUOUS
10
2.47546
20
3.19535
11
2.47598
21
3.19272
0
LINE
8
BLACK
6
CONTINUOUS
10
2.47598
20
3.19272
11
2.47598
21
3.13563
0
LINE
8
BLACK
6
CONTINUOUS
10
2.47598
20
3.13563
11
2.47546
21
3.13299
0
LINE
8
BLACK
6
CONTINUOUS
10
2.47546
20
3.13299
11
2.47397
21
3.13076
0
LINE
8
BLACK
6
CONTINUOUS
10
2.47397
20
3.13076
11
2.47173
21
3.12926
0
LINE
8
BLACK
6
CONTINUOUS
10
2.47173
20
3.12926
11
2.46909
21
3.12874
0
LINE
8
BLACK
6
CONTINUOUS
10
2.46909
20
3.12874
11
2.46646
21
3.12926
0
LINE
8
BLACK
6
CONTINUOUS
10
2.46646
20
3.12926
11
2.46422
21
3.13076
0
LINE
8
BLACK
6
CONTINUOUS
10
2.46422
20
3.13076
11
2.46273
21
3.13299
0
LINE
8
BLACK
6
CONTINUOUS
10
2.46273
20
3.13299
11
2.4622
21
3.13563
0
LINE
8
BLACK
6
CONTINUOUS
10
2.4622
20
3.13563
11
2.4622
21
3.19272
0
LINE
8
BLACK
6
CONTINUOUS
10
2.4622
20
3.19272
11
2.46273
21
3.19535
0
LINE
8
BLACK
6
CONTINUOUS
10
2.46273
20
3.19535
11
2.46422
21
3.19759
0
LINE
8
BLACK
6
CONTINUOUS
10
2.46422
20
3.19759
11
2.46646
21
3.19908
0
LINE
8
BLACK
6
CONTINUOUS
10
2.46646
20
3.19908
11
2.46909
21
3.19961
0
LINE
8
BLACK
6
CONTINUOUS
10
2.46909
20
3.19961
11
2.47173
21
3.19908
0
LINE
8
BLACK
6
CONTINUOUS
10
2.50323
20
3.19908
11
2.50546
21
3.19759
0
LINE
8
BLACK
6
CONTINUOUS
10
2.50546
20
3.19759
11
2.50696
21
3.19535
0
LINE
8
BLACK
6
CONTINUOUS
10
2.50696
20
3.19535
11
2.50748
21
3.19272
0
LINE
8
BLACK
6
CONTINUOUS
10
2.50748
20
3.19272
11
2.50748
21
3.13563
0
LINE
8
BLACK
6
CONTINUOUS
10
2.50748
20
3.13563
11
2.50696
21
3.13299
0
LINE
8
BLACK
6
CONTINUOUS
10
2.50696
20
3.13299
11
2.50546
21
3.13076
0
LINE
8
BLACK
6
CONTINUOUS
10
2.50546
20
3.13076
11
2.50323
21
3.12926
0
LINE
8
BLACK
6
CONTINUOUS
10
2.50323
20
3.12926
11
2.50059
21
3.12874
0
LINE
8
BLACK
6
CONTINUOUS
10
2.50059
20
3.12874
11
2.49795
21
3.12926
0
LINE
8
BLACK
6
CONTINUOUS
10
2.49795
20
3.12926
11
2.49572
21
3.13076
0
LINE
8
BLACK
6
CONTINUOUS
10
2.49572
20
3.13076
11
2.49423
21
3.13299
0
LINE
8
BLACK
6
CONTINUOUS
10
2.49423
20
3.13299
11
2.4937
21
3.13563
0
LINE
8
BLACK
6
CONTINUOUS
10
2.4937
20
3.13563
11
2.4937
21
3.19272
0
LINE
8
BLACK
6
CONTINUOUS
10
2.4937
20
3.19272
11
2.49423
21
3.19535
0
LINE
8
BLACK
6
CONTINUOUS
10
2.49423
20
3.19535
11
2.49572
21
3.19759
0
LINE
8
BLACK
6
CONTINUOUS
10
2.49572
20
3.19759
11
2.49795
21
3.19908
0
LINE
8
BLACK
6
CONTINUOUS
10
2.49795
20
3.19908
11
2.50059
21
3.19961
0
LINE
8
BLACK
6
CONTINUOUS
10
2.50059
20
3.19961
11
2.50323
21
3.19908
0
LINE
8
BLACK
6
CONTINUOUS
10
0.532755
20
3.19908
11
0.53499
21
3.19759
0
LINE
8
BLACK
6
CONTINUOUS
10
0.53499
20
3.19759
11
0.536483
21
3.19535
0
LINE
8
BLACK
6
CONTINUOUS
10
0.536483
20
3.19535
11
0.537008
21
3.19272
0
LINE
8
BLACK
6
CONTINUOUS
10
0.537008
20
3.19272
11
0.537008
21
3.13563
0
LINE
8
BLACK
6
CONTINUOUS
10
0.537008
20
3.13563
11
0.536483
21
3.13299
0
LINE
8
BLACK
6
CONTINUOUS
10
0.536483
20
3.13299
11
0.53499
21
3.13076
0
LINE
8
BLACK
6
CONTINUOUS
10
0.53499
20
3.13076
11
0.532755
21
3.12926
0
LINE
8
BLACK
6
CONTINUOUS
10
0.532755
20
3.12926
11
0.530118
21
3.12874
0
LINE
8
BLACK
6
CONTINUOUS
10
0.530118
20
3.12874
11
0.527481
21
3.12926
0
LINE
8
BLACK
6
CONTINUOUS
10
0.527481
20
3.12926
11
0.525246
21
3.13076
0
LINE
8
BLACK
6
CONTINUOUS
10
0.525246
20
3.13076
11
0.523753
21
3.13299
0
LINE
8
BLACK
6
CONTINUOUS
10
0.523753
20
3.13299
11
0.523228
21
3.13563
0
LINE
8
BLACK
6
CONTINUOUS
10
0.523228
20
3.13563
11
0.523228
21
3.19272
0
LINE
8
BLACK
6
CONTINUOUS
10
0.523228
20
3.19272
11
0.523753
21
3.19535
0
LINE
8
BLACK
6
CONTINUOUS
10
0.523753
20
3.19535
11
0.525246
21
3.19759
0
LINE
8
BLACK
6
CONTINUOUS
10
0.525246
20
3.19759
11
0.527481
21
3.19908
0
LINE
8
BLACK
6
CONTINUOUS
10
0.527481
20
3.19908
11
0.530118
21
3.19961
0
LINE
8
BLACK
6
CONTINUOUS
10
0.530118
20
3.19961
11
0.532755
21
3.19908
0
LINE
8
BLACK
6
CONTINUOUS
10
0.658739
20
3.19908
11
0.660974
21
3.19759
0
LINE
8
BLACK
6
CONTINUOUS
10
0.660974
20
3.19759
11
0.662468
21
3.19535
0
LINE
8
BLACK
6
CONTINUOUS
10
0.662468
20
3.19535
11
0.662992
21
3.19272
0
LINE
8
BLACK
6
CONTINUOUS
10
0.662992
20
3.19272
11
0.662992
21
3.13563
0
LINE
8
BLACK
6
CONTINUOUS
10
0.662992
20
3.13563
11
0.662468
21
3.13299
0
LINE
8
BLACK
6
CONTINUOUS
10
0.662468
20
3.13299
11
0.660974
21
3.13076
0
LINE
8
BLACK
6
CONTINUOUS
10
0.660974
20
3.13076
11
0.658739
21
3.12926
0
LINE
8
BLACK
6
CONTINUOUS
10
0.658739
20
3.12926
11
0.656102
21
3.12874
0
LINE
8
BLACK
6
CONTINUOUS
10
0.656102
20
3.12874
11
0.653466
21
3.12926
0
LINE
8
BLACK
6
CONTINUOUS
10
0.653466
20
3.12926
11
0.651231
21
3.13076
0
LINE
8
BLACK
6
CONTINUOUS
10
0.651231
20
3.13076
11
0.649737
21
3.13299
0
LINE
8
BLACK
6
CONTINUOUS
10
0.649737
20
3.13299
11
0.649213
21
3.13563
0
LINE
8
BLACK
6
CONTINUOUS
10
0.649213
20
3.13563
11
0.649213
21
3.19272
0
LINE
8
BLACK
6
CONTINUOUS
10
0.649213
20
3.19272
11
0.649737
21
3.19535
0
LINE
8
BLACK
6
CONTINUOUS
10
0.649737
20
3.19535
11
0.651231
21
3.19759
0
LINE
8
BLACK
6
CONTINUOUS
10
0.651231
20
3.19759
11
0.653466
21
3.19908
0
LINE
8
BLACK
6
CONTINUOUS
10
0.653466
20
3.19908
11
0.656102
21
3.19961
0
LINE
8
BLACK
6
CONTINUOUS
10
0.656102
20
3.19961
11
0.658739
21
3.19908
0
LINE
8
BLACK
6
CONTINUOUS
10
0.627243
20
3.19908
11
0.629478
21
3.19759
0
LINE
8
BLACK
6
CONTINUOUS
10
0.629478
20
3.19759
11
0.630972
21
3.19535
0
LINE
8
BLACK
6
CONTINUOUS
10
0.630972
20
3.19535
11
0.631496
21
3.19272
0
LINE
8
BLACK
6
CONTINUOUS
10
0.631496
20
3.19272
11
0.631496
21
3.13563
0
LINE
8
BLACK
6
CONTINUOUS
10
0.631496
20
3.13563
11
0.630972
21
3.13299
0
LINE
8
BLACK
6
CONTINUOUS
10
0.630972
20
3.13299
11
0.629478
21
3.13076
0
LINE
8
BLACK
6
CONTINUOUS
10
0.629478
20
3.13076
11
0.627243
21
3.12926
0
LINE
8
BLACK
6
CONTINUOUS
10
0.627243
20
3.12926
11
0.624606
21
3.12874
0
LINE
8
BLACK
6
CONTINUOUS
10
0.624606
20
3.12874
11
0.62197
21
3.12926
0
LINE
8
BLACK
6
CONTINUOUS
10
0.62197
20
3.12926
11
0.619734
21
3.13076
0
LINE
8
BLACK
6
CONTINUOUS
10
0.619734
20
3.13076
11
0.618241
21
3.13299
0
LINE
8
BLACK
6
CONTINUOUS
10
0.618241
20
3.13299
11
0.617717
21
3.13563
0
LINE
8
BLACK
6
CONTINUOUS
10
0.617717
20
3.13563
11
0.617717
21
3.19272
0
LINE
8
BLACK
6
CONTINUOUS
10
0.617717
20
3.19272
11
0.618241
21
3.19535
0
LINE
8
BLACK
6
CONTINUOUS
10
0.618241
20
3.19535
11
0.619734
21
3.19759
0
LINE
8
BLACK
6
CONTINUOUS
10
0.619734
20
3.19759
11
0.62197
21
3.19908
0
LINE
8
BLACK
6
CONTINUOUS
10
0.62197
20
3.19908
11
0.624606
21
3.19961
0
LINE
8
BLACK
6
CONTINUOUS
10
0.624606
20
3.19961
11
0.627243
21
3.19908
0
LINE
8
BLACK
6
CONTINUOUS
10
0.595747
20
3.19908
11
0.597982
21
3.19759
0
LINE
8
BLACK
6
CONTINUOUS
10
0.597982
20
3.19759
11
0.599476
21
3.19535
0
LINE
8
BLACK
6
CONTINUOUS
10
0.599476
20
3.19535
11
0.6
21
3.19272
0
LINE
8
BLACK
6
CONTINUOUS
10
0.6
20
3.19272
11
0.6
21
3.13563
0
LINE
8
BLACK
6
CONTINUOUS
10
0.6
20
3.13563
11
0.599476
21
3.13299
0
LINE
8
BLACK
6
CONTINUOUS
10
0.599476
20
3.13299
11
0.597982
21
3.13076
0
LINE
8
BLACK
6
CONTINUOUS
10
0.597982
20
3.13076
11
0.595747
21
3.12926
0
LINE
8
BLACK
6
CONTINUOUS
10
0.595747
20
3.12926
11
0.59311
21
3.12874
0
LINE
8
BLACK
6
CONTINUOUS
10
0.59311
20
3.12874
11
0.590474
21
3.12926
0
LINE
8
BLACK
6
CONTINUOUS
10
0.590474
20
3.12926
11
0.588238
21
3.13076
0
LINE
8
BLACK
6
CONTINUOUS
10
0.588238
20
3.13076
11
0.586745
21
3.13299
0
LINE
8
BLACK
6
CONTINUOUS
10
0.586745
20
3.13299
11
0.58622
21
3.13563
0
LINE
8
BLACK
6
CONTINUOUS
10
0.58622
20
3.13563
11
0.58622
21
3.19272
0
LINE
8
BLACK
6
CONTINUOUS
10
0.58622
20
3.19272
11
0.586745
21
3.19535
0
LINE
8
BLACK
6
CONTINUOUS
10
0.586745
20
3.19535
11
0.588238
21
3.19759
0
LINE
8
BLACK
6
CONTINUOUS
10
0.588238
20
3.19759
11
0.590474
21
3.19908
0
LINE
8
BLACK
6
CONTINUOUS
10
0.590474
20
3.19908
11
0.59311
21
3.19961
0
LINE
8
BLACK
6
CONTINUOUS
10
0.59311
20
3.19961
11
0.595747
21
3.19908
0
LINE
8
BLACK
6
CONTINUOUS
10
0.564251
20
3.19908
11
0.566486
21
3.19759
0
LINE
8
BLACK
6
CONTINUOUS
10
0.566486
20
3.19759
11
0.567979
21
3.19535
0
LINE
8
BLACK
6
CONTINUOUS
10
0.567979
20
3.19535
11
0.568504
21
3.19272
0
LINE
8
BLACK
6
CONTINUOUS
10
0.568504
20
3.19272
11
0.568504
21
3.13563
0
LINE
8
BLACK
6
CONTINUOUS
10
0.568504
20
3.13563
11
0.567979
21
3.13299
0
LINE
8
BLACK
6
CONTINUOUS
10
0.567979
20
3.13299
11
0.566486
21
3.13076
0
LINE
8
BLACK
6
CONTINUOUS
10
0.566486
20
3.13076
11
0.564251
21
3.12926
0
LINE
8
BLACK
6
CONTINUOUS
10
0.564251
20
3.12926
11
0.561614
21
3.12874
0
LINE
8
BLACK
6
CONTINUOUS
10
0.561614
20
3.12874
11
0.558978
21
3.12926
0
LINE
8
BLACK
6
CONTINUOUS
10
0.558978
20
3.12926
11
0.556742
21
3.13076
0
LINE
8
BLACK
6
CONTINUOUS
10
0.556742
20
3.13076
11
0.555249
21
3.13299
0
LINE
8
BLACK
6
CONTINUOUS
10
0.555249
20
3.13299
11
0.554724
21
3.13563
0
LINE
8
BLACK
6
CONTINUOUS
10
0.554724
20
3.13563
11
0.554724
21
3.19272
0
LINE
8
BLACK
6
CONTINUOUS
10
0.554724
20
3.19272
11
0.555249
21
3.19535
0
LINE
8
BLACK
6
CONTINUOUS
10
0.555249
20
3.19535
11
0.556742
21
3.19759
0
LINE
8
BLACK
6
CONTINUOUS
10
0.556742
20
3.19759
11
0.558978
21
3.19908
0
LINE
8
BLACK
6
CONTINUOUS
10
0.558978
20
3.19908
11
0.561614
21
3.19961
0
LINE
8
BLACK
6
CONTINUOUS
10
0.561614
20
3.19961
11
0.564251
21
3.19908
0
LINE
8
BLACK
6
CONTINUOUS
10
0.217794
20
3.19908
11
0.220029
21
3.19759
0
LINE
8
BLACK
6
CONTINUOUS
10
0.220029
20
3.19759
11
0.221523
21
3.19535
0
LINE
8
BLACK
6
CONTINUOUS
10
0.221523
20
3.19535
11
0.222047
21
3.19272
0
LINE
8
BLACK
6
CONTINUOUS
10
0.222047
20
3.19272
11
0.222047
21
3.13563
0
LINE
8
BLACK
6
CONTINUOUS
10
0.222047
20
3.13563
11
0.221523
21
3.13299
0
LINE
8
BLACK
6
CONTINUOUS
10
0.221523
20
3.13299
11
0.220029
21
3.13076
0
LINE
8
BLACK
6
CONTINUOUS
10
0.220029
20
3.13076
11
0.217794
21
3.12926
0
LINE
8
BLACK
6
CONTINUOUS
10
0.217794
20
3.12926
11
0.215157
21
3.12874
0
LINE
8
BLACK
6
CONTINUOUS
10
0.215157
20
3.12874
11
0.212521
21
3.12926
0
LINE
8
BLACK
6
CONTINUOUS
10
0.212521
20
3.12926
11
0.210286
21
3.13076
0
LINE
8
BLACK
6
CONTINUOUS
10
0.210286
20
3.13076
11
0.208792
21
3.13299
0
LINE
8
BLACK
6
CONTINUOUS
10
0.208792
20
3.13299
11
0.208268
21
3.13563
0
LINE
8
BLACK
6
CONTINUOUS
10
0.208268
20
3.13563
11
0.208268
21
3.19272
0
LINE
8
BLACK
6
CONTINUOUS
10
0.208268
20
3.19272
11
0.208792
21
3.19535
0
LINE
8
BLACK
6
CONTINUOUS
10
0.208792
20
3.19535
11
0.210286
21
3.19759
0
LINE
8
BLACK
6
CONTINUOUS
10
0.210286
20
3.19759
11
0.212521
21
3.19908
0
LINE
8
BLACK
6
CONTINUOUS
10
0.212521
20
3.19908
11
0.215157
21
3.19961
0
LINE
8
BLACK
6
CONTINUOUS
10
0.215157
20
3.19961
11
0.217794
21
3.19908
0
LINE
8
BLACK
6
CONTINUOUS
10
2.03079
20
3.19908
11
2.03302
21
3.19759
0
LINE
8
BLACK
6
CONTINUOUS
10
2.03302
20
3.19759
11
2.03451
21
3.19535
0
LINE
8
BLACK
6
CONTINUOUS
10
2.03451
20
3.19535
11
2.03504
21
3.19272
0
LINE
8
BLACK
6
CONTINUOUS
10
2.03504
20
3.19272
11
2.03504
21
3.13563
0
LINE
8
BLACK
6
CONTINUOUS
10
2.03504
20
3.13563
11
2.03451
21
3.13299
0
LINE
8
BLACK
6
CONTINUOUS
10
2.03451
20
3.13299
11
2.03302
21
3.13076
0
LINE
8
BLACK
6
CONTINUOUS
10
2.03302
20
3.13076
11
2.03079
21
3.12926
0
LINE
8
BLACK
6
CONTINUOUS
10
2.03079
20
3.12926
11
2.02815
21
3.12874
0
LINE
8
BLACK
6
CONTINUOUS
10
2.02815
20
3.12874
11
2.02551
21
3.12926
0
LINE
8
BLACK
6
CONTINUOUS
10
2.02551
20
3.12926
11
2.02328
21
3.13076
0
LINE
8
BLACK
6
CONTINUOUS
10
2.02328
20
3.13076
11
2.02178
21
3.13299
0
LINE
8
BLACK
6
CONTINUOUS
10
2.02178
20
3.13299
11
2.02126
21
3.13563
0
LINE
8
BLACK
6
CONTINUOUS
10
2.02126
20
3.13563
11
2.02126
21
3.19272
0
LINE
8
BLACK
6
CONTINUOUS
10
2.02126
20
3.19272
11
2.02178
21
3.19535
0
LINE
8
BLACK
6
CONTINUOUS
10
2.02178
20
3.19535
11
2.02328
21
3.19759
0
LINE
8
BLACK
6
CONTINUOUS
10
2.02328
20
3.19759
11
2.02551
21
3.19908
0
LINE
8
BLACK
6
CONTINUOUS
10
2.02551
20
3.19908
11
2.02815
21
3.19961
0
LINE
8
BLACK
6
CONTINUOUS
10
2.02815
20
3.19961
11
2.03079
21
3.19908
0
LINE
8
BLACK
6
CONTINUOUS
10
0.469763
20
3.19908
11
0.471998
21
3.19759
0
LINE
8
BLACK
6
CONTINUOUS
10
0.471998
20
3.19759
11
0.473491
21
3.19535
0
LINE
8
BLACK
6
CONTINUOUS
10
0.473491
20
3.19535
11
0.474016
21
3.19272
0
LINE
8
BLACK
6
CONTINUOUS
10
0.474016
20
3.19272
11
0.474016
21
3.13563
0
LINE
8
BLACK
6
CONTINUOUS
10
0.474016
20
3.13563
11
0.473491
21
3.13299
0
LINE
8
BLACK
6
CONTINUOUS
10
0.473491
20
3.13299
11
0.471998
21
3.13076
0
LINE
8
BLACK
6
CONTINUOUS
10
0.471998
20
3.13076
11
0.469763
21
3.12926
0
LINE
8
BLACK
6
CONTINUOUS
10
0.469763
20
3.12926
11
0.467126
21
3.12874
0
LINE
8
BLACK
6
CONTINUOUS
10
0.467126
20
3.12874
11
0.464489
21
3.12926
0
LINE
8
BLACK
6
CONTINUOUS
10
0.464489
20
3.12926
11
0.462254
21
3.13076
0
LINE
8
BLACK
6
CONTINUOUS
10
0.462254
20
3.13076
11
0.460761
21
3.13299
0
LINE
8
BLACK
6
CONTINUOUS
10
0.460761
20
3.13299
11
0.460236
21
3.13563
0
LINE
8
BLACK
6
CONTINUOUS
10
0.460236
20
3.13563
11
0.460236
21
3.19272
0
LINE
8
BLACK
6
CONTINUOUS
10
0.460236
20
3.19272
11
0.460761
21
3.19535
0
LINE
8
BLACK
6
CONTINUOUS
10
0.460761
20
3.19535
11
0.462254
21
3.19759
0
LINE
8
BLACK
6
CONTINUOUS
10
0.462254
20
3.19759
11
0.464489
21
3.19908
0
LINE
8
BLACK
6
CONTINUOUS
10
0.464489
20
3.19908
11
0.467126
21
3.19961
0
LINE
8
BLACK
6
CONTINUOUS
10
0.467126
20
3.19961
11
0.469763
21
3.19908
0
LINE
8
BLACK
6
CONTINUOUS
10
0.438267
20
3.19908
11
0.440502
21
3.19759
0
LINE
8
BLACK
6
CONTINUOUS
10
0.440502
20
3.19759
11
0.441995
21
3.19535
0
LINE
8
BLACK
6
CONTINUOUS
10
0.441995
20
3.19535
11
0.44252
21
3.19272
0
LINE
8
BLACK
6
CONTINUOUS
10
0.44252
20
3.19272
11
0.44252
21
3.13563
0
LINE
8
BLACK
6
CONTINUOUS
10
0.44252
20
3.13563
11
0.441995
21
3.13299
0
LINE
8
BLACK
6
CONTINUOUS
10
0.441995
20
3.13299
11
0.440502
21
3.13076
0
LINE
8
BLACK
6
CONTINUOUS
10
0.440502
20
3.13076
11
0.438267
21
3.12926
0
LINE
8
BLACK
6
CONTINUOUS
10
0.438267
20
3.12926
11
0.43563
21
3.12874
0
LINE
8
BLACK
6
CONTINUOUS
10
0.43563
20
3.12874
11
0.432993
21
3.12926
0
LINE
8
BLACK
6
CONTINUOUS
10
0.432993
20
3.12926
11
0.430758
21
3.13076
0
LINE
8
BLACK
6
CONTINUOUS
10
0.430758
20
3.13076
11
0.429265
21
3.13299
0
LINE
8
BLACK
6
CONTINUOUS
10
0.429265
20
3.13299
11
0.42874
21
3.13563
0
LINE
8
BLACK
6
CONTINUOUS
10
0.42874
20
3.13563
11
0.42874
21
3.19272
0
LINE
8
BLACK
6
CONTINUOUS
10
0.42874
20
3.19272
11
0.429265
21
3.19535
0
LINE
8
BLACK
6
CONTINUOUS
10
0.429265
20
3.19535
11
0.430758
21
3.19759
0
LINE
8
BLACK
6
CONTINUOUS
10
0.430758
20
3.19759
11
0.432993
21
3.19908
0
LINE
8
BLACK
6
CONTINUOUS
10
0.432993
20
3.19908
11
0.43563
21
3.19961
0
LINE
8
BLACK
6
CONTINUOUS
10
0.43563
20
3.19961
11
0.438267
21
3.19908
0
LINE
8
BLACK
6
CONTINUOUS
10
0.40677
20
3.19908
11
0.409006
21
3.19759
0
LINE
8
BLACK
6
CONTINUOUS
10
0.409006
20
3.19759
11
0.410499
21
3.19535
0
LINE
8
BLACK
6
CONTINUOUS
10
0.410499
20
3.19535
11
0.411024
21
3.19272
0
LINE
8
BLACK
6
CONTINUOUS
10
0.411024
20
3.19272
11
0.411024
21
3.13563
0
LINE
8
BLACK
6
CONTINUOUS
10
0.411024
20
3.13563
11
0.410499
21
3.13299
0
LINE
8
BLACK
6
CONTINUOUS
10
0.410499
20
3.13299
11
0.409006
21
3.13076
0
LINE
8
BLACK
6
CONTINUOUS
10
0.409006
20
3.13076
11
0.40677
21
3.12926
0
LINE
8
BLACK
6
CONTINUOUS
10
0.40677
20
3.12926
11
0.404134
21
3.12874
0
LINE
8
BLACK
6
CONTINUOUS
10
0.404134
20
3.12874
11
0.401497
21
3.12926
0
LINE
8
BLACK
6
CONTINUOUS
10
0.401497
20
3.12926
11
0.399262
21
3.13076
0
LINE
8
BLACK
6
CONTINUOUS
10
0.399262
20
3.13076
11
0.397769
21
3.13299
0
LINE
8
BLACK
6
CONTINUOUS
10
0.397769
20
3.13299
11
0.397244
21
3.13563
0
LINE
8
BLACK
6
CONTINUOUS
10
0.397244
20
3.13563
11
0.397244
21
3.19272
0
LINE
8
BLACK
6
CONTINUOUS
10
0.397244
20
3.19272
11
0.397769
21
3.19535
0
LINE
8
BLACK
6
CONTINUOUS
10
0.397769
20
3.19535
11
0.399262
21
3.19759
0
LINE
8
BLACK
6
CONTINUOUS
10
0.399262
20
3.19759
11
0.401497
21
3.19908
0
LINE
8
BLACK
6
CONTINUOUS
10
0.401497
20
3.19908
11
0.404134
21
3.19961
0
LINE
8
BLACK
6
CONTINUOUS
10
0.404134
20
3.19961
11
0.40677
21
3.19908
0
LINE
8
BLACK
6
CONTINUOUS
10
0.375274
20
3.19908
11
0.37751
21
3.19759
0
LINE
8
BLACK
6
CONTINUOUS
10
0.37751
20
3.19759
11
0.379003
21
3.19535
0
LINE
8
BLACK
6
CONTINUOUS
10
0.379003
20
3.19535
11
0.379528
21
3.19272
0
LINE
8
BLACK
6
CONTINUOUS
10
0.379528
20
3.19272
11
0.379528
21
3.13563
0
LINE
8
BLACK
6
CONTINUOUS
10
0.379528
20
3.13563
11
0.379003
21
3.13299
0
LINE
8
BLACK
6
CONTINUOUS
10
0.379003
20
3.13299
11
0.37751
21
3.13076
0
LINE
8
BLACK
6
CONTINUOUS
10
0.37751
20
3.13076
11
0.375274
21
3.12926
0
LINE
8
BLACK
6
CONTINUOUS
10
0.375274
20
3.12926
11
0.372638
21
3.12874
0
LINE
8
BLACK
6
CONTINUOUS
10
0.372638
20
3.12874
11
0.370001
21
3.12926
0
LINE
8
BLACK
6
CONTINUOUS
10
0.370001
20
3.12926
11
0.367766
21
3.13076
0
LINE
8
BLACK
6
CONTINUOUS
10
0.367766
20
3.13076
11
0.366272
21
3.13299
0
LINE
8
BLACK
6
CONTINUOUS
10
0.366272
20
3.13299
11
0.365748
21
3.13563
0
LINE
8
BLACK
6
CONTINUOUS
10
0.365748
20
3.13563
11
0.365748
21
3.19272
0
LINE
8
BLACK
6
CONTINUOUS
10
0.365748
20
3.19272
11
0.366272
21
3.19535
0
LINE
8
BLACK
6
CONTINUOUS
10
0.366272
20
3.19535
11
0.367766
21
3.19759
0
LINE
8
BLACK
6
CONTINUOUS
10
0.367766
20
3.19759
11
0.370001
21
3.19908
0
LINE
8
BLACK
6
CONTINUOUS
10
0.370001
20
3.19908
11
0.372638
21
3.19961
0
LINE
8
BLACK
6
CONTINUOUS
10
0.372638
20
3.19961
11
0.375274
21
3.19908
0
LINE
8
BLACK
6
CONTINUOUS
10
0.343778
20
3.19908
11
0.346014
21
3.19759
0
LINE
8
BLACK
6
CONTINUOUS
10
0.346014
20
3.19759
11
0.347507
21
3.19535
0
LINE
8
BLACK
6
CONTINUOUS
10
0.347507
20
3.19535
11
0.348031
21
3.19272
0
LINE
8
BLACK
6
CONTINUOUS
10
0.348031
20
3.19272
11
0.348031
21
3.13563
0
LINE
8
BLACK
6
CONTINUOUS
10
0.348031
20
3.13563
11
0.347507
21
3.13299
0
LINE
8
BLACK
6
CONTINUOUS
10
0.347507
20
3.13299
11
0.346014
21
3.13076
0
LINE
8
BLACK
6
CONTINUOUS
10
0.346014
20
3.13076
11
0.343778
21
3.12926
0
LINE
8
BLACK
6
CONTINUOUS
10
0.343778
20
3.12926
11
0.341142
21
3.12874
0
LINE
8
BLACK
6
CONTINUOUS
10
0.341142
20
3.12874
11
0.338505
21
3.12926
0
LINE
8
BLACK
6
CONTINUOUS
10
0.338505
20
3.12926
11
0.33627
21
3.13076
0
LINE
8
BLACK
6
CONTINUOUS
10
0.33627
20
3.13076
11
0.334776
21
3.13299
0
LINE
8
BLACK
6
CONTINUOUS
10
0.334776
20
3.13299
11
0.334252
21
3.13563
0
LINE
8
BLACK
6
CONTINUOUS
10
0.334252
20
3.13563
11
0.334252
21
3.19272
0
LINE
8
BLACK
6
CONTINUOUS
10
0.334252
20
3.19272
11
0.334776
21
3.19535
0
LINE
8
BLACK
6
CONTINUOUS
10
0.334776
20
3.19535
11
0.33627
21
3.19759
0
LINE
8
BLACK
6
CONTINUOUS
10
0.33627
20
3.19759
11
0.338505
21
3.19908
0
LINE
8
BLACK
6
CONTINUOUS
10
0.338505
20
3.19908
11
0.341142
21
3.19961
0
LINE
8
BLACK
6
CONTINUOUS
10
0.341142
20
3.19961
11
0.343778
21
3.19908
0
LINE
8
BLACK
6
CONTINUOUS
10
0.312282
20
3.19908
11
0.314517
21
3.19759
0
LINE
8
BLACK
6
CONTINUOUS
10
0.314517
20
3.19759
11
0.316011
21
3.19535
0
LINE
8
BLACK
6
CONTINUOUS
10
0.316011
20
3.19535
11
0.316535
21
3.19272
0
LINE
8
BLACK
6
CONTINUOUS
10
0.316535
20
3.19272
11
0.316535
21
3.13563
0
LINE
8
BLACK
6
CONTINUOUS
10
0.316535
20
3.13563
11
0.316011
21
3.13299
0
LINE
8
BLACK
6
CONTINUOUS
10
0.316011
20
3.13299
11
0.314517
21
3.13076
0
LINE
8
BLACK
6
CONTINUOUS
10
0.314517
20
3.13076
11
0.312282
21
3.12926
0
LINE
8
BLACK
6
CONTINUOUS
10
0.312282
20
3.12926
11
0.309646
21
3.12874
0
LINE
8
BLACK
6
CONTINUOUS
10
0.309646
20
3.12874
11
0.307009
21
3.12926
0
LINE
8
BLACK
6
CONTINUOUS
10
0.307009
20
3.12926
11
0.304774
21
3.13076
0
LINE
8
BLACK
6
CONTINUOUS
10
0.304774
20
3.13076
11
0.30328
21
3.13299
0
LINE
8
BLACK
6
CONTINUOUS
10
0.30328
20
3.13299
11
0.302756
21
3.13563
0
LINE
8
BLACK
6
CONTINUOUS
10
0.302756
20
3.13563
11
0.302756
21
3.19272
0
LINE
8
BLACK
6
CONTINUOUS
10
0.302756
20
3.19272
11
0.30328
21
3.19535
0
LINE
8
BLACK
6
CONTINUOUS
10
0.30328
20
3.19535
11
0.304774
21
3.19759
0
LINE
8
BLACK
6
CONTINUOUS
10
0.304774
20
3.19759
11
0.307009
21
3.19908
0
LINE
8
BLACK
6
CONTINUOUS
10
0.307009
20
3.19908
11
0.309646
21
3.19961
0
LINE
8
BLACK
6
CONTINUOUS
10
0.309646
20
3.19961
11
0.312282
21
3.19908
0
LINE
8
BLACK
6
CONTINUOUS
10
0.280786
20
3.19908
11
0.283021
21
3.19759
0
LINE
8
BLACK
6
CONTINUOUS
10
0.283021
20
3.19759
11
0.284515
21
3.19535
0
LINE
8
BLACK
6
CONTINUOUS
10
0.284515
20
3.19535
11
0.285039
21
3.19272
0
LINE
8
BLACK
6
CONTINUOUS
10
0.285039
20
3.19272
11
0.285039
21
3.13563
0
LINE
8
BLACK
6
CONTINUOUS
10
0.285039
20
3.13563
11
0.284515
21
3.13299
0
LINE
8
BLACK
6
CONTINUOUS
10
0.284515
20
3.13299
11
0.283021
21
3.13076
0
LINE
8
BLACK
6
CONTINUOUS
10
0.283021
20
3.13076
11
0.280786
21
3.12926
0
LINE
8
BLACK
6
CONTINUOUS
10
0.280786
20
3.12926
11
0.27815
21
3.12874
0
LINE
8
BLACK
6
CONTINUOUS
10
0.27815
20
3.12874
11
0.275513
21
3.12926
0
LINE
8
BLACK
6
CONTINUOUS
10
0.275513
20
3.12926
11
0.273278
21
3.13076
0
LINE
8
BLACK
6
CONTINUOUS
10
0.273278
20
3.13076
11
0.271784
21
3.13299
0
LINE
8
BLACK
6
CONTINUOUS
10
0.271784
20
3.13299
11
0.27126
21
3.13563
0
LINE
8
BLACK
6
CONTINUOUS
10
0.27126
20
3.13563
11
0.27126
21
3.19272
0
LINE
8
BLACK
6
CONTINUOUS
10
0.27126
20
3.19272
11
0.271784
21
3.19535
0
LINE
8
BLACK
6
CONTINUOUS
10
0.271784
20
3.19535
11
0.273278
21
3.19759
0
LINE
8
BLACK
6
CONTINUOUS
10
0.273278
20
3.19759
11
0.275513
21
3.19908
0
LINE
8
BLACK
6
CONTINUOUS
10
0.275513
20
3.19908
11
0.27815
21
3.19961
0
LINE
8
BLACK
6
CONTINUOUS
10
0.27815
20
3.19961
11
0.280786
21
3.19908
0
LINE
8
BLACK
6
CONTINUOUS
10
0.24929
20
3.19908
11
0.251525
21
3.19759
0
LINE
8
BLACK
6
CONTINUOUS
10
0.251525
20
3.19759
11
0.253019
21
3.19535
0
LINE
8
BLACK
6
CONTINUOUS
10
0.253019
20
3.19535
11
0.253543
21
3.19272
0
LINE
8
BLACK
6
CONTINUOUS
10
0.253543
20
3.19272
11
0.253543
21
3.13563
0
LINE
8
BLACK
6
CONTINUOUS
10
0.253543
20
3.13563
11
0.253019
21
3.13299
0
LINE
8
BLACK
6
CONTINUOUS
10
0.253019
20
3.13299
11
0.251525
21
3.13076
0
LINE
8
BLACK
6
CONTINUOUS
10
0.251525
20
3.13076
11
0.24929
21
3.12926
0
LINE
8
BLACK
6
CONTINUOUS
10
0.24929
20
3.12926
11
0.246654
21
3.12874
0
LINE
8
BLACK
6
CONTINUOUS
10
0.246654
20
3.12874
11
0.244017
21
3.12926
0
LINE
8
BLACK
6
CONTINUOUS
10
0.244017
20
3.12926
11
0.241782
21
3.13076
0
LINE
8
BLACK
6
CONTINUOUS
10
0.241782
20
3.13076
11
0.240288
21
3.13299
0
LINE
8
BLACK
6
CONTINUOUS
10
0.240288
20
3.13299
11
0.239764
21
3.13563
0
LINE
8
BLACK
6
CONTINUOUS
10
0.239764
20
3.13563
11
0.239764
21
3.19272
0
LINE
8
BLACK
6
CONTINUOUS
10
0.239764
20
3.19272
11
0.240288
21
3.19535
0
LINE
8
BLACK
6
CONTINUOUS
10
0.240288
20
3.19535
11
0.241782
21
3.19759
0
LINE
8
BLACK
6
CONTINUOUS
10
0.241782
20
3.19759
11
0.244017
21
3.19908
0
LINE
8
BLACK
6
CONTINUOUS
10
0.244017
20
3.19908
11
0.246654
21
3.19961
0
LINE
8
BLACK
6
CONTINUOUS
10
0.246654
20
3.19961
11
0.24929
21
3.19908
0
LINE
8
BLACK
6
CONTINUOUS
10
2.72942
20
3.24681
11
2.73261
21
3.24468
0
LINE
8
BLACK
6
CONTINUOUS
10
2.73261
20
3.24468
11
2.73474
21
3.24148
0
LINE
8
BLACK
6
CONTINUOUS
10
2.73474
20
3.24148
11
2.73549
21
3.23772
0
LINE
8
BLACK
6
CONTINUOUS
10
2.73549
20
3.23772
11
2.73549
21
3.20228
0
LINE
8
BLACK
6
CONTINUOUS
10
2.73549
20
3.20228
11
2.73474
21
3.19852
0
LINE
8
BLACK
6
CONTINUOUS
10
2.73474
20
3.19852
11
2.73261
21
3.19532
0
LINE
8
BLACK
6
CONTINUOUS
10
2.73261
20
3.19532
11
2.72942
21
3.19319
0
LINE
8
BLACK
6
CONTINUOUS
10
2.72942
20
3.19319
11
2.72565
21
3.19244
0
LINE
8
BLACK
6
CONTINUOUS
10
2.72565
20
3.19244
11
2.69809
21
3.19244
0
LINE
8
BLACK
6
CONTINUOUS
10
2.69809
20
3.19244
11
2.69432
21
3.19319
0
LINE
8
BLACK
6
CONTINUOUS
10
2.69432
20
3.19319
11
2.69113
21
3.19532
0
LINE
8
BLACK
6
CONTINUOUS
10
2.69113
20
3.19532
11
2.689
21
3.19852
0
LINE
8
BLACK
6
CONTINUOUS
10
2.689
20
3.19852
11
2.68825
21
3.20228
0
LINE
8
BLACK
6
CONTINUOUS
10
2.68825
20
3.20228
11
2.68825
21
3.23772
0
LINE
8
BLACK
6
CONTINUOUS
10
2.68825
20
3.23772
11
2.689
21
3.24148
0
LINE
8
BLACK
6
CONTINUOUS
10
2.689
20
3.24148
11
2.69113
21
3.24468
0
LINE
8
BLACK
6
CONTINUOUS
10
2.69113
20
3.24468
11
2.69432
21
3.24681
0
LINE
8
BLACK
6
CONTINUOUS
10
2.69432
20
3.24681
11
2.69809
21
3.24756
0
LINE
8
BLACK
6
CONTINUOUS
10
2.69809
20
3.24756
11
2.72565
21
3.24756
0
LINE
8
BLACK
6
CONTINUOUS
10
2.72565
20
3.24756
11
2.72942
21
3.24681
0
LINE
8
BLACK
6
CONTINUOUS
10
2.65068
20
3.24681
11
2.65387
21
3.24468
0
LINE
8
BLACK
6
CONTINUOUS
10
2.65387
20
3.24468
11
2.656
21
3.24148
0
LINE
8
BLACK
6
CONTINUOUS
10
2.656
20
3.24148
11
2.65675
21
3.23772
0
LINE
8
BLACK
6
CONTINUOUS
10
2.65675
20
3.23772
11
2.65675
21
3.20228
0
LINE
8
BLACK
6
CONTINUOUS
10
2.65675
20
3.20228
11
2.656
21
3.19852
0
LINE
8
BLACK
6
CONTINUOUS
10
2.656
20
3.19852
11
2.65387
21
3.19532
0
LINE
8
BLACK
6
CONTINUOUS
10
2.65387
20
3.19532
11
2.65068
21
3.19319
0
LINE
8
BLACK
6
CONTINUOUS
10
2.65068
20
3.19319
11
2.64691
21
3.19244
0
LINE
8
BLACK
6
CONTINUOUS
10
2.64691
20
3.19244
11
2.61935
21
3.19244
0
LINE
8
BLACK
6
CONTINUOUS
10
2.61935
20
3.19244
11
2.61558
21
3.19319
0
LINE
8
BLACK
6
CONTINUOUS
10
2.61558
20
3.19319
11
2.61239
21
3.19532
0
LINE
8
BLACK
6
CONTINUOUS
10
2.61239
20
3.19532
11
2.61026
21
3.19852
0
LINE
8
BLACK
6
CONTINUOUS
10
2.61026
20
3.19852
11
2.60951
21
3.20228
0
LINE
8
BLACK
6
CONTINUOUS
10
2.60951
20
3.20228
11
2.60951
21
3.23772
0
LINE
8
BLACK
6
CONTINUOUS
10
2.60951
20
3.23772
11
2.61026
21
3.24148
0
LINE
8
BLACK
6
CONTINUOUS
10
2.61026
20
3.24148
11
2.61239
21
3.24468
0
LINE
8
BLACK
6
CONTINUOUS
10
2.61239
20
3.24468
11
2.61558
21
3.24681
0
LINE
8
BLACK
6
CONTINUOUS
10
2.61558
20
3.24681
11
2.61935
21
3.24756
0
LINE
8
BLACK
6
CONTINUOUS
10
2.61935
20
3.24756
11
2.64691
21
3.24756
0
LINE
8
BLACK
6
CONTINUOUS
10
2.64691
20
3.24756
11
2.65068
21
3.24681
0
LINE
8
BLACK
6
CONTINUOUS
10
0.181483
20
3.36398
11
0.184676
21
3.36184
0
LINE
8
BLACK
6
CONTINUOUS
10
0.184676
20
3.36184
11
0.18681
21
3.35865
0
LINE
8
BLACK
6
CONTINUOUS
10
0.18681
20
3.35865
11
0.187559
21
3.35488
0
LINE
8
BLACK
6
CONTINUOUS
10
0.187559
20
3.35488
11
0.187559
21
3.32732
0
LINE
8
BLACK
6
CONTINUOUS
10
0.187559
20
3.32732
11
0.18681
21
3.32356
0
LINE
8
BLACK
6
CONTINUOUS
10
0.18681
20
3.32356
11
0.184676
21
3.32036
0
LINE
8
BLACK
6
CONTINUOUS
10
0.184676
20
3.32036
11
0.181483
21
3.31823
0
LINE
8
BLACK
6
CONTINUOUS
10
0.181483
20
3.31823
11
0.177717
21
3.31748
0
LINE
8
BLACK
6
CONTINUOUS
10
0.177717
20
3.31748
11
0.142283
21
3.31748
0
LINE
8
BLACK
6
CONTINUOUS
10
0.142283
20
3.31748
11
0.138517
21
3.31823
0
LINE
8
BLACK
6
CONTINUOUS
10
0.138517
20
3.31823
11
0.135324
21
3.32036
0
LINE
8
BLACK
6
CONTINUOUS
10
0.135324
20
3.32036
11
0.13319
21
3.32356
0
LINE
8
BLACK
6
CONTINUOUS
10
0.13319
20
3.32356
11
0.132441
21
3.32732
0
LINE
8
BLACK
6
CONTINUOUS
10
0.132441
20
3.32732
11
0.132441
21
3.35488
0
LINE
8
BLACK
6
CONTINUOUS
10
0.132441
20
3.35488
11
0.13319
21
3.35865
0
LINE
8
BLACK
6
CONTINUOUS
10
0.13319
20
3.35865
11
0.135324
21
3.36184
0
LINE
8
BLACK
6
CONTINUOUS
10
0.135324
20
3.36184
11
0.138517
21
3.36398
0
LINE
8
BLACK
6
CONTINUOUS
10
0.138517
20
3.36398
11
0.142283
21
3.36472
0
LINE
8
BLACK
6
CONTINUOUS
10
0.142283
20
3.36472
11
0.177717
21
3.36472
0
LINE
8
BLACK
6
CONTINUOUS
10
0.177717
20
3.36472
11
0.181483
21
3.36398
0
LINE
8
BLACK
6
CONTINUOUS
10
0.122467
20
3.35701
11
0.125661
21
3.35487
0
LINE
8
BLACK
6
CONTINUOUS
10
0.125661
20
3.35487
11
0.127794
21
3.35168
0
LINE
8
BLACK
6
CONTINUOUS
10
0.127794
20
3.35168
11
0.128543
21
3.34791
0
LINE
8
BLACK
6
CONTINUOUS
10
0.128543
20
3.34791
11
0.128543
21
3.32823
0
LINE
8
BLACK
6
CONTINUOUS
10
0.128543
20
3.32823
11
0.127794
21
3.32446
0
LINE
8
BLACK
6
CONTINUOUS
10
0.127794
20
3.32446
11
0.125661
21
3.32127
0
LINE
8
BLACK
6
CONTINUOUS
10
0.125661
20
3.32127
11
0.122467
21
3.31914
0
LINE
8
BLACK
6
CONTINUOUS
10
0.122467
20
3.31914
11
0.118701
21
3.31839
0
LINE
8
BLACK
6
CONTINUOUS
10
0.118701
20
3.31839
11
0.0812992
21
3.31839
0
LINE
8
BLACK
6
CONTINUOUS
10
0.0812992
20
3.31839
11
0.0775326
21
3.31914
0
LINE
8
BLACK
6
CONTINUOUS
10
0.0775326
20
3.31914
11
0.0743395
21
3.32127
0
LINE
8
BLACK
6
CONTINUOUS
10
0.0743395
20
3.32127
11
0.0722059
21
3.32446
0
LINE
8
BLACK
6
CONTINUOUS
10
0.0722059
20
3.32446
11
0.0714567
21
3.32823
0
LINE
8
BLACK
6
CONTINUOUS
10
0.0714567
20
3.32823
11
0.0714567
21
3.34791
0
LINE
8
BLACK
6
CONTINUOUS
10
0.0714567
20
3.34791
11
0.0722059
21
3.35168
0
LINE
8
BLACK
6
CONTINUOUS
10
0.0722059
20
3.35168
11
0.0743395
21
3.35487
0
LINE
8
BLACK
6
CONTINUOUS
10
0.0743395
20
3.35487
11
0.0775326
21
3.35701
0
LINE
8
BLACK
6
CONTINUOUS
10
0.0775326
20
3.35701
11
0.0812992
21
3.35776
0
LINE
8
BLACK
6
CONTINUOUS
10
0.0812992
20
3.35776
11
0.118701
21
3.35776
0
LINE
8
BLACK
6
CONTINUOUS
10
0.118701
20
3.35776
11
0.122467
21
3.35701
0
LINE
8
BLACK
6
CONTINUOUS
10
0.122467
20
3.43181
11
0.125661
21
3.42968
0
LINE
8
BLACK
6
CONTINUOUS
10
0.125661
20
3.42968
11
0.127794
21
3.42648
0
LINE
8
BLACK
6
CONTINUOUS
10
0.127794
20
3.42648
11
0.128543
21
3.42272
0
LINE
8
BLACK
6
CONTINUOUS
10
0.128543
20
3.42272
11
0.128543
21
3.40303
0
LINE
8
BLACK
6
CONTINUOUS
10
0.128543
20
3.40303
11
0.127794
21
3.39926
0
LINE
8
BLACK
6
CONTINUOUS
10
0.127794
20
3.39926
11
0.125661
21
3.39607
0
LINE
8
BLACK
6
CONTINUOUS
10
0.125661
20
3.39607
11
0.122467
21
3.39394
0
LINE
8
BLACK
6
CONTINUOUS
10
0.122467
20
3.39394
11
0.118701
21
3.39319
0
LINE
8
BLACK
6
CONTINUOUS
10
0.118701
20
3.39319
11
0.0812992
21
3.39319
0
LINE
8
BLACK
6
CONTINUOUS
10
0.0812992
20
3.39319
11
0.0775326
21
3.39394
0
LINE
8
BLACK
6
CONTINUOUS
10
0.0775326
20
3.39394
11
0.0743395
21
3.39607
0
LINE
8
BLACK
6
CONTINUOUS
10
0.0743395
20
3.39607
11
0.0722059
21
3.39926
0
LINE
8
BLACK
6
CONTINUOUS
10
0.0722059
20
3.39926
11
0.0714567
21
3.40303
0
LINE
8
BLACK
6
CONTINUOUS
10
0.0714567
20
3.40303
11
0.0714567
21
3.42272
0
LINE
8
BLACK
6
CONTINUOUS
10
0.0714567
20
3.42272
11
0.0722059
21
3.42648
0
LINE
8
BLACK
6
CONTINUOUS
10
0.0722059
20
3.42648
11
0.0743395
21
3.42968
0
LINE
8
BLACK
6
CONTINUOUS
10
0.0743395
20
3.42968
11
0.0775326
21
3.43181
0
LINE
8
BLACK
6
CONTINUOUS
10
0.0775326
20
3.43181
11
0.0812992
21
3.43256
0
LINE
8
BLACK
6
CONTINUOUS
10
0.0812992
20
3.43256
11
0.118701
21
3.43256
0
LINE
8
BLACK
6
CONTINUOUS
10
0.118701
20
3.43256
11
0.122467
21
3.43181
0
LINE
8
BLACK
6
CONTINUOUS
10
0.181483
20
3.44272
11
0.184676
21
3.44058
0
LINE
8
BLACK
6
CONTINUOUS
10
0.184676
20
3.44058
11
0.18681
21
3.43739
0
LINE
8
BLACK
6
CONTINUOUS
10
0.18681
20
3.43739
11
0.187559
21
3.43362
0
LINE
8
BLACK
6
CONTINUOUS
10
0.187559
20
3.43362
11
0.187559
21
3.40606
0
LINE
8
BLACK
6
CONTINUOUS
10
0.187559
20
3.40606
11
0.18681
21
3.4023
0
LINE
8
BLACK
6
CONTINUOUS
10
0.18681
20
3.4023
11
0.184676
21
3.3991
0
LINE
8
BLACK
6
CONTINUOUS
10
0.184676
20
3.3991
11
0.181483
21
3.39697
0
LINE
8
BLACK
6
CONTINUOUS
10
0.181483
20
3.39697
11
0.177717
21
3.39622
0
LINE
8
BLACK
6
CONTINUOUS
10
0.177717
20
3.39622
11
0.142283
21
3.39622
0
LINE
8
BLACK
6
CONTINUOUS
10
0.142283
20
3.39622
11
0.138517
21
3.39697
0
LINE
8
BLACK
6
CONTINUOUS
10
0.138517
20
3.39697
11
0.135324
21
3.3991
0
LINE
8
BLACK
6
CONTINUOUS
10
0.135324
20
3.3991
11
0.13319
21
3.4023
0
LINE
8
BLACK
6
CONTINUOUS
10
0.13319
20
3.4023
11
0.132441
21
3.40606
0
LINE
8
BLACK
6
CONTINUOUS
10
0.132441
20
3.40606
11
0.132441
21
3.43362
0
LINE
8
BLACK
6
CONTINUOUS
10
0.132441
20
3.43362
11
0.13319
21
3.43739
0
LINE
8
BLACK
6
CONTINUOUS
10
0.13319
20
3.43739
11
0.135324
21
3.44058
0
LINE
8
BLACK
6
CONTINUOUS
10
0.135324
20
3.44058
11
0.138517
21
3.44272
0
LINE
8
BLACK
6
CONTINUOUS
10
0.138517
20
3.44272
11
0.142283
21
3.44346
0
LINE
8
BLACK
6
CONTINUOUS
10
0.142283
20
3.44346
11
0.177717
21
3.44346
0
LINE
8
BLACK
6
CONTINUOUS
10
0.177717
20
3.44346
11
0.181483
21
3.44272
  0
ENDSEC
  0
EOF
