  0
SECTION
  2
HEADER
  9
$ANGBASE
  50
0.0
  9
$ANGDIR
  70
1
  9
$MEASUREMENT
  70
0
  0
ENDSEC
  0
SECTION
  2
TABLES
  0
TABLE
  2
LTYPE
  70
4
  0
LTYPE
  5
40F
  2
CONTINUOUS
  70
0
  3
Solid line
  72
65
  73
0
  40
0.0
  0
LTYPE
  5
410
  2
DASHDOT
 70
0
  3
Dash Dot ____ _ ____ _
 72
65
 73
4
 40
2.0
 49
1.25
 49
-0.25
 49
0.25
 49
-0.25
  0
LTYPE
  5
411
  2
DASHED
 70
0
  3
Dashed __ __ __ __ __
 72
65
 73
2
 40
0.75
 49
0.5
 49
-0.25
  0
LTYPE
  5
43B
  2
DOTTED
 70
0
  3
Dotted .  .  .  .
 72
65
 73
2
 40
0.2
 49
0.0
 49
-0.2
  0
ENDTAB
  0
TABLE
  2
STYLE
  70
4
  0
STYLE
  2
KICAD
  70
0
  40
0
  41
1
  42
1
  50
0
  71
0
  3
isocp.shx
  0
STYLE
  2
KICADB
  70
0
  40
0
  41
1
  42
1
  50
0
  71
0
  3
isocp.shx
  0
STYLE
  2
KICADI
  70
0
  40
0
  41
1
  42
1
  50
15
  71
0
  3
isocp.shx
  0
STYLE
  2
KICADBI
  70
0
  40
0
  41
1
  42
1
  50
15
  71
0
  3
isocp.shx
  0
ENDTAB
  0
TABLE
  2
LAYER
  70
1
  0
LAYER
  2
BLACK
  70
0
  62
7
  6
CONTINUOUS
  0
ENDTAB
  0
ENDSEC
  0
SECTION
  2
ENTITIES
0
LINE
8
BLACK
6
CONTINUOUS
10
3.81865
20
0.317793
11
3.83213
21
0.316018
0
LINE
8
BLACK
6
CONTINUOUS
10
3.83213
20
0.316018
11
3.84532
21
0.312706
0
LINE
8
BLACK
6
CONTINUOUS
10
3.84532
20
0.312706
11
3.85804
21
0.307899
0
LINE
8
BLACK
6
CONTINUOUS
10
3.85804
20
0.307899
11
3.87012
21
0.301662
0
LINE
8
BLACK
6
CONTINUOUS
10
3.87012
20
0.301662
11
3.88141
21
0.294078
0
LINE
8
BLACK
6
CONTINUOUS
10
3.88141
20
0.294078
11
3.89175
21
0.285247
0
LINE
8
BLACK
6
CONTINUOUS
10
3.89175
20
0.285247
11
3.90101
21
0.275286
0
LINE
8
BLACK
6
CONTINUOUS
10
3.90101
20
0.275286
11
3.90906
21
0.264327
0
LINE
8
BLACK
6
CONTINUOUS
10
3.90906
20
0.264327
11
3.91579
21
0.252516
0
LINE
8
BLACK
6
CONTINUOUS
10
3.91579
20
0.252516
11
3.92113
21
0.240008
0
LINE
8
BLACK
6
CONTINUOUS
10
3.92113
20
0.240008
11
3.92499
21
0.226971
0
LINE
8
BLACK
6
CONTINUOUS
10
3.92499
20
0.226971
11
3.92733
21
0.213575
0
LINE
8
BLACK
6
CONTINUOUS
10
3.92733
20
0.213575
11
3.92811
21
0.2
0
LINE
8
BLACK
6
CONTINUOUS
10
3.92811
20
0.2
11
3.92788
21
0.192584
0
LINE
8
BLACK
6
CONTINUOUS
10
3.92788
20
0.192584
11
3.92624
21
0.179084
0
LINE
8
BLACK
6
CONTINUOUS
10
3.92624
20
0.179084
11
3.92307
21
0.165862
0
LINE
8
BLACK
6
CONTINUOUS
10
3.92307
20
0.165862
11
3.9184
21
0.153093
0
LINE
8
BLACK
6
CONTINUOUS
10
3.9184
20
0.153093
11
3.91229
21
0.140945
0
LINE
8
BLACK
6
CONTINUOUS
10
3.91229
20
0.140945
11
3.90482
21
0.12958
0
LINE
8
BLACK
6
CONTINUOUS
10
3.90482
20
0.12958
11
3.8961
21
0.119148
0
LINE
8
BLACK
6
CONTINUOUS
10
3.8961
20
0.119148
11
3.88624
21
0.109788
0
LINE
8
BLACK
6
CONTINUOUS
10
3.88624
20
0.109788
11
3.87536
21
0.101623
0
LINE
8
BLACK
6
CONTINUOUS
10
3.87536
20
0.101623
11
3.86362
21
0.094763
0
LINE
8
BLACK
6
CONTINUOUS
10
3.86362
20
0.094763
11
3.85117
21
0.0892974
0
LINE
8
BLACK
6
CONTINUOUS
10
3.85117
20
0.0892974
11
3.83817
21
0.0852991
0
LINE
8
BLACK
6
CONTINUOUS
10
3.83817
20
0.0852991
11
3.8248
21
0.0828211
0
LINE
8
BLACK
6
CONTINUOUS
10
3.8248
20
0.0828211
11
3.81124
21
0.0818962
0
LINE
8
BLACK
6
CONTINUOUS
10
3.81124
20
0.0818962
11
3.79765
21
0.0825368
0
LINE
8
BLACK
6
CONTINUOUS
10
3.79765
20
0.0825368
11
3.78424
21
0.0847343
0
LINE
8
BLACK
6
CONTINUOUS
10
3.78424
20
0.0847343
11
3.77116
21
0.0884595
0
LINE
8
BLACK
6
CONTINUOUS
10
3.77116
20
0.0884595
11
3.75859
21
0.0936631
0
LINE
8
BLACK
6
CONTINUOUS
10
3.75859
20
0.0936631
11
3.74671
21
0.100276
0
LINE
8
BLACK
6
CONTINUOUS
10
3.74671
20
0.100276
11
3.73567
21
0.108211
0
LINE
8
BLACK
6
CONTINUOUS
10
3.73567
20
0.108211
11
3.72561
21
0.117363
0
LINE
8
BLACK
6
CONTINUOUS
10
3.72561
20
0.117363
11
3.71667
21
0.127609
0
LINE
8
BLACK
6
CONTINUOUS
10
3.71667
20
0.127609
11
3.70897
21
0.138816
0
LINE
8
BLACK
6
CONTINUOUS
10
3.70897
20
0.138816
11
3.70261
21
0.150833
0
LINE
8
BLACK
6
CONTINUOUS
10
3.70261
20
0.150833
11
3.69767
21
0.163502
0
LINE
8
BLACK
6
CONTINUOUS
10
3.69767
20
0.163502
11
3.69422
21
0.176655
0
LINE
8
BLACK
6
CONTINUOUS
10
3.69422
20
0.176655
11
3.6923
21
0.190117
0
LINE
8
BLACK
6
CONTINUOUS
10
3.6923
20
0.190117
11
3.69195
21
0.20371
0
LINE
8
BLACK
6
CONTINUOUS
10
3.69195
20
0.20371
11
3.69316
21
0.217254
0
LINE
8
BLACK
6
CONTINUOUS
10
3.69316
20
0.217254
11
3.69591
21
0.230569
0
LINE
8
BLACK
6
CONTINUOUS
10
3.69591
20
0.230569
11
3.70018
21
0.243479
0
LINE
8
BLACK
6
CONTINUOUS
10
3.70018
20
0.243479
11
3.70591
21
0.255813
0
LINE
8
BLACK
6
CONTINUOUS
10
3.70591
20
0.255813
11
3.71301
21
0.267407
0
LINE
8
BLACK
6
CONTINUOUS
10
3.71301
20
0.267407
11
3.7214
21
0.278108
0
LINE
8
BLACK
6
CONTINUOUS
10
3.7214
20
0.278108
11
3.73097
21
0.287773
0
LINE
8
BLACK
6
CONTINUOUS
10
3.73097
20
0.287773
11
3.74158
21
0.296275
0
LINE
8
BLACK
6
CONTINUOUS
10
3.74158
20
0.296275
11
3.7531
21
0.303501
0
LINE
8
BLACK
6
CONTINUOUS
10
3.7531
20
0.303501
11
3.76537
21
0.309355
0
LINE
8
BLACK
6
CONTINUOUS
10
3.76537
20
0.309355
11
3.77824
21
0.313759
0
LINE
8
BLACK
6
CONTINUOUS
10
3.77824
20
0.313759
11
3.79152
21
0.316656
0
LINE
8
BLACK
6
CONTINUOUS
10
3.79152
20
0.316656
11
3.80505
21
0.318007
0
LINE
8
BLACK
6
CONTINUOUS
10
3.80505
20
0.318007
11
3.81865
21
0.317793
  0
ENDSEC
  0
EOF
