  0
SECTION
  2
HEADER
  9
$ANGBASE
  50
0.0
  9
$ANGDIR
  70
1
  9
$MEASUREMENT
  70
0
  0
ENDSEC
  0
SECTION
  2
TABLES
  0
TABLE
  2
LTYPE
  70
4
  0
LTYPE
  5
40F
  2
CONTINUOUS
  70
0
  3
Solid line
  72
65
  73
0
  40
0.0
  0
LTYPE
  5
410
  2
DASHDOT
 70
0
  3
Dash Dot ____ _ ____ _
 72
65
 73
4
 40
2.0
 49
1.25
 49
-0.25
 49
0.25
 49
-0.25
  0
LTYPE
  5
411
  2
DASHED
 70
0
  3
Dashed __ __ __ __ __
 72
65
 73
2
 40
0.75
 49
0.5
 49
-0.25
  0
LTYPE
  5
43B
  2
DOTTED
 70
0
  3
Dotted .  .  .  .
 72
65
 73
2
 40
0.2
 49
0.0
 49
-0.2
  0
ENDTAB
  0
TABLE
  2
STYLE
  70
4
  0
STYLE
  2
KICAD
  70
0
  40
0
  41
1
  42
1
  50
0
  71
0
  3
isocp.shx
  0
STYLE
  2
KICADB
  70
0
  40
0
  41
1
  42
1
  50
0
  71
0
  3
isocp.shx
  0
STYLE
  2
KICADI
  70
0
  40
0
  41
1
  42
1
  50
15
  71
0
  3
isocp.shx
  0
STYLE
  2
KICADBI
  70
0
  40
0
  41
1
  42
1
  50
15
  71
0
  3
isocp.shx
  0
ENDTAB
  0
TABLE
  2
LAYER
  70
1
  0
LAYER
  2
BLACK
  70
0
  62
7
  6
CONTINUOUS
  0
ENDTAB
  0
ENDSEC
  0
SECTION
  2
ENTITIES
0
LINE
8
BLACK
6
CONTINUOUS
10
0.775
20
0.475
11
0.525
21
0.475
0
LINE
8
BLACK
6
CONTINUOUS
10
0.525
20
0.475
11
0.525
21
0.725
0
LINE
8
BLACK
6
CONTINUOUS
10
0.525
20
0.725
11
0.775
21
0.725
0
LINE
8
BLACK
6
CONTINUOUS
10
0.775
20
0.725
11
0.775
21
0.475
0
LINE
8
BLACK
6
CONTINUOUS
10
3.925
20
0.475
11
3.675
21
0.475
0
LINE
8
BLACK
6
CONTINUOUS
10
3.675
20
0.475
11
3.675
21
0.725
0
LINE
8
BLACK
6
CONTINUOUS
10
3.675
20
0.725
11
3.925
21
0.725
0
LINE
8
BLACK
6
CONTINUOUS
10
3.925
20
0.725
11
3.925
21
0.475
0
LINE
8
BLACK
6
CONTINUOUS
10
1.01951
20
0.758193
11
1.0243
21
0.755115
0
LINE
8
BLACK
6
CONTINUOUS
10
1.0243
20
0.755115
11
1.02803
21
0.750813
0
LINE
8
BLACK
6
CONTINUOUS
10
1.02803
20
0.750813
11
1.03039
21
0.745635
0
LINE
8
BLACK
6
CONTINUOUS
10
1.03039
20
0.745635
11
1.0312
21
0.74
0
LINE
8
BLACK
6
CONTINUOUS
10
1.0312
20
0.74
11
1.03039
21
0.734365
0
LINE
8
BLACK
6
CONTINUOUS
10
1.03039
20
0.734365
11
1.02803
21
0.729187
0
LINE
8
BLACK
6
CONTINUOUS
10
1.02803
20
0.729187
11
1.0243
21
0.724885
0
LINE
8
BLACK
6
CONTINUOUS
10
1.0243
20
0.724885
11
1.01951
21
0.721807
0
LINE
8
BLACK
6
CONTINUOUS
10
1.01951
20
0.721807
11
1.01405
21
0.720204
0
LINE
8
BLACK
6
CONTINUOUS
10
1.01405
20
0.720204
11
1.00835
21
0.720204
0
LINE
8
BLACK
6
CONTINUOUS
10
1.00835
20
0.720204
11
1.00289
21
0.721807
0
LINE
8
BLACK
6
CONTINUOUS
10
1.00289
20
0.721807
11
0.998103
21
0.724885
0
LINE
8
BLACK
6
CONTINUOUS
10
0.998103
20
0.724885
11
0.994375
21
0.729187
0
LINE
8
BLACK
6
CONTINUOUS
10
0.994375
20
0.729187
11
0.99201
21
0.734365
0
LINE
8
BLACK
6
CONTINUOUS
10
0.99201
20
0.734365
11
0.9912
21
0.74
0
LINE
8
BLACK
6
CONTINUOUS
10
0.9912
20
0.74
11
0.99201
21
0.745635
0
LINE
8
BLACK
6
CONTINUOUS
10
0.99201
20
0.745635
11
0.994375
21
0.750813
0
LINE
8
BLACK
6
CONTINUOUS
10
0.994375
20
0.750813
11
0.998103
21
0.755115
0
LINE
8
BLACK
6
CONTINUOUS
10
0.998103
20
0.755115
11
1.00289
21
0.758193
0
LINE
8
BLACK
6
CONTINUOUS
10
1.00289
20
0.758193
11
1.00835
21
0.759796
0
LINE
8
BLACK
6
CONTINUOUS
10
1.00835
20
0.759796
11
1.01405
21
0.759796
0
LINE
8
BLACK
6
CONTINUOUS
10
1.01405
20
0.759796
11
1.01951
21
0.758193
0
LINE
8
BLACK
6
CONTINUOUS
10
1.74711
20
0.758193
11
1.7519
21
0.755115
0
LINE
8
BLACK
6
CONTINUOUS
10
1.7519
20
0.755115
11
1.75563
21
0.750813
0
LINE
8
BLACK
6
CONTINUOUS
10
1.75563
20
0.750813
11
1.75799
21
0.745635
0
LINE
8
BLACK
6
CONTINUOUS
10
1.75799
20
0.745635
11
1.7588
21
0.74
0
LINE
8
BLACK
6
CONTINUOUS
10
1.7588
20
0.74
11
1.75799
21
0.734365
0
LINE
8
BLACK
6
CONTINUOUS
10
1.75799
20
0.734365
11
1.75563
21
0.729187
0
LINE
8
BLACK
6
CONTINUOUS
10
1.75563
20
0.729187
11
1.7519
21
0.724885
0
LINE
8
BLACK
6
CONTINUOUS
10
1.7519
20
0.724885
11
1.74711
21
0.721807
0
LINE
8
BLACK
6
CONTINUOUS
10
1.74711
20
0.721807
11
1.74165
21
0.720204
0
LINE
8
BLACK
6
CONTINUOUS
10
1.74165
20
0.720204
11
1.73595
21
0.720204
0
LINE
8
BLACK
6
CONTINUOUS
10
1.73595
20
0.720204
11
1.73049
21
0.721807
0
LINE
8
BLACK
6
CONTINUOUS
10
1.73049
20
0.721807
11
1.7257
21
0.724885
0
LINE
8
BLACK
6
CONTINUOUS
10
1.7257
20
0.724885
11
1.72197
21
0.729187
0
LINE
8
BLACK
6
CONTINUOUS
10
1.72197
20
0.729187
11
1.71961
21
0.734365
0
LINE
8
BLACK
6
CONTINUOUS
10
1.71961
20
0.734365
11
1.7188
21
0.74
0
LINE
8
BLACK
6
CONTINUOUS
10
1.7188
20
0.74
11
1.71961
21
0.745635
0
LINE
8
BLACK
6
CONTINUOUS
10
1.71961
20
0.745635
11
1.72197
21
0.750813
0
LINE
8
BLACK
6
CONTINUOUS
10
1.72197
20
0.750813
11
1.7257
21
0.755115
0
LINE
8
BLACK
6
CONTINUOUS
10
1.7257
20
0.755115
11
1.73049
21
0.758193
0
LINE
8
BLACK
6
CONTINUOUS
10
1.73049
20
0.758193
11
1.73595
21
0.759796
0
LINE
8
BLACK
6
CONTINUOUS
10
1.73595
20
0.759796
11
1.74165
21
0.759796
0
LINE
8
BLACK
6
CONTINUOUS
10
1.74165
20
0.759796
11
1.74711
21
0.758193
0
LINE
8
BLACK
6
CONTINUOUS
10
2.71951
20
0.758193
11
2.7243
21
0.755115
0
LINE
8
BLACK
6
CONTINUOUS
10
2.7243
20
0.755115
11
2.72803
21
0.750813
0
LINE
8
BLACK
6
CONTINUOUS
10
2.72803
20
0.750813
11
2.73039
21
0.745635
0
LINE
8
BLACK
6
CONTINUOUS
10
2.73039
20
0.745635
11
2.7312
21
0.74
0
LINE
8
BLACK
6
CONTINUOUS
10
2.7312
20
0.74
11
2.73039
21
0.734365
0
LINE
8
BLACK
6
CONTINUOUS
10
2.73039
20
0.734365
11
2.72803
21
0.729187
0
LINE
8
BLACK
6
CONTINUOUS
10
2.72803
20
0.729187
11
2.7243
21
0.724885
0
LINE
8
BLACK
6
CONTINUOUS
10
2.7243
20
0.724885
11
2.71951
21
0.721807
0
LINE
8
BLACK
6
CONTINUOUS
10
2.71951
20
0.721807
11
2.71405
21
0.720204
0
LINE
8
BLACK
6
CONTINUOUS
10
2.71405
20
0.720204
11
2.70835
21
0.720204
0
LINE
8
BLACK
6
CONTINUOUS
10
2.70835
20
0.720204
11
2.70289
21
0.721807
0
LINE
8
BLACK
6
CONTINUOUS
10
2.70289
20
0.721807
11
2.6981
21
0.724885
0
LINE
8
BLACK
6
CONTINUOUS
10
2.6981
20
0.724885
11
2.69437
21
0.729187
0
LINE
8
BLACK
6
CONTINUOUS
10
2.69437
20
0.729187
11
2.69201
21
0.734365
0
LINE
8
BLACK
6
CONTINUOUS
10
2.69201
20
0.734365
11
2.6912
21
0.74
0
LINE
8
BLACK
6
CONTINUOUS
10
2.6912
20
0.74
11
2.69201
21
0.745635
0
LINE
8
BLACK
6
CONTINUOUS
10
2.69201
20
0.745635
11
2.69437
21
0.750813
0
LINE
8
BLACK
6
CONTINUOUS
10
2.69437
20
0.750813
11
2.6981
21
0.755115
0
LINE
8
BLACK
6
CONTINUOUS
10
2.6981
20
0.755115
11
2.70289
21
0.758193
0
LINE
8
BLACK
6
CONTINUOUS
10
2.70289
20
0.758193
11
2.70835
21
0.759796
0
LINE
8
BLACK
6
CONTINUOUS
10
2.70835
20
0.759796
11
2.71405
21
0.759796
0
LINE
8
BLACK
6
CONTINUOUS
10
2.71405
20
0.759796
11
2.71951
21
0.758193
0
LINE
8
BLACK
6
CONTINUOUS
10
3.44711
20
0.758193
11
3.4519
21
0.755115
0
LINE
8
BLACK
6
CONTINUOUS
10
3.4519
20
0.755115
11
3.45563
21
0.750813
0
LINE
8
BLACK
6
CONTINUOUS
10
3.45563
20
0.750813
11
3.45799
21
0.745635
0
LINE
8
BLACK
6
CONTINUOUS
10
3.45799
20
0.745635
11
3.4588
21
0.74
0
LINE
8
BLACK
6
CONTINUOUS
10
3.4588
20
0.74
11
3.45799
21
0.734365
0
LINE
8
BLACK
6
CONTINUOUS
10
3.45799
20
0.734365
11
3.45563
21
0.729187
0
LINE
8
BLACK
6
CONTINUOUS
10
3.45563
20
0.729187
11
3.4519
21
0.724885
0
LINE
8
BLACK
6
CONTINUOUS
10
3.4519
20
0.724885
11
3.44711
21
0.721807
0
LINE
8
BLACK
6
CONTINUOUS
10
3.44711
20
0.721807
11
3.44165
21
0.720204
0
LINE
8
BLACK
6
CONTINUOUS
10
3.44165
20
0.720204
11
3.43595
21
0.720204
0
LINE
8
BLACK
6
CONTINUOUS
10
3.43595
20
0.720204
11
3.43049
21
0.721807
0
LINE
8
BLACK
6
CONTINUOUS
10
3.43049
20
0.721807
11
3.4257
21
0.724885
0
LINE
8
BLACK
6
CONTINUOUS
10
3.4257
20
0.724885
11
3.42197
21
0.729187
0
LINE
8
BLACK
6
CONTINUOUS
10
3.42197
20
0.729187
11
3.41961
21
0.734365
0
LINE
8
BLACK
6
CONTINUOUS
10
3.41961
20
0.734365
11
3.4188
21
0.74
0
LINE
8
BLACK
6
CONTINUOUS
10
3.4188
20
0.74
11
3.41961
21
0.745635
0
LINE
8
BLACK
6
CONTINUOUS
10
3.41961
20
0.745635
11
3.42197
21
0.750813
0
LINE
8
BLACK
6
CONTINUOUS
10
3.42197
20
0.750813
11
3.4257
21
0.755115
0
LINE
8
BLACK
6
CONTINUOUS
10
3.4257
20
0.755115
11
3.43049
21
0.758193
0
LINE
8
BLACK
6
CONTINUOUS
10
3.43049
20
0.758193
11
3.43595
21
0.759796
0
LINE
8
BLACK
6
CONTINUOUS
10
3.43595
20
0.759796
11
3.44165
21
0.759796
0
LINE
8
BLACK
6
CONTINUOUS
10
3.44165
20
0.759796
11
3.44711
21
0.758193
0
LINE
8
BLACK
6
CONTINUOUS
10
0.775
20
2.375
11
0.525
21
2.375
0
LINE
8
BLACK
6
CONTINUOUS
10
0.525
20
2.375
11
0.525
21
2.625
0
LINE
8
BLACK
6
CONTINUOUS
10
0.525
20
2.625
11
0.775
21
2.625
0
LINE
8
BLACK
6
CONTINUOUS
10
0.775
20
2.625
11
0.775
21
2.375
0
LINE
8
BLACK
6
CONTINUOUS
10
3.925
20
2.375
11
3.675
21
2.375
0
LINE
8
BLACK
6
CONTINUOUS
10
3.675
20
2.375
11
3.675
21
2.625
0
LINE
8
BLACK
6
CONTINUOUS
10
3.675
20
2.625
11
3.925
21
2.625
0
LINE
8
BLACK
6
CONTINUOUS
10
3.925
20
2.625
11
3.925
21
2.375
0
LINE
8
BLACK
6
CONTINUOUS
10
1.01951
20
2.53819
11
1.0243
21
2.53511
0
LINE
8
BLACK
6
CONTINUOUS
10
1.0243
20
2.53511
11
1.02803
21
2.53081
0
LINE
8
BLACK
6
CONTINUOUS
10
1.02803
20
2.53081
11
1.03039
21
2.52563
0
LINE
8
BLACK
6
CONTINUOUS
10
1.03039
20
2.52563
11
1.0312
21
2.52
0
LINE
8
BLACK
6
CONTINUOUS
10
1.0312
20
2.52
11
1.03039
21
2.51437
0
LINE
8
BLACK
6
CONTINUOUS
10
1.03039
20
2.51437
11
1.02803
21
2.50919
0
LINE
8
BLACK
6
CONTINUOUS
10
1.02803
20
2.50919
11
1.0243
21
2.50488
0
LINE
8
BLACK
6
CONTINUOUS
10
1.0243
20
2.50488
11
1.01951
21
2.50181
0
LINE
8
BLACK
6
CONTINUOUS
10
1.01951
20
2.50181
11
1.01405
21
2.5002
0
LINE
8
BLACK
6
CONTINUOUS
10
1.01405
20
2.5002
11
1.00835
21
2.5002
0
LINE
8
BLACK
6
CONTINUOUS
10
1.00835
20
2.5002
11
1.00289
21
2.50181
0
LINE
8
BLACK
6
CONTINUOUS
10
1.00289
20
2.50181
11
0.998103
21
2.50488
0
LINE
8
BLACK
6
CONTINUOUS
10
0.998103
20
2.50488
11
0.994375
21
2.50919
0
LINE
8
BLACK
6
CONTINUOUS
10
0.994375
20
2.50919
11
0.99201
21
2.51437
0
LINE
8
BLACK
6
CONTINUOUS
10
0.99201
20
2.51437
11
0.9912
21
2.52
0
LINE
8
BLACK
6
CONTINUOUS
10
0.9912
20
2.52
11
0.99201
21
2.52563
0
LINE
8
BLACK
6
CONTINUOUS
10
0.99201
20
2.52563
11
0.994375
21
2.53081
0
LINE
8
BLACK
6
CONTINUOUS
10
0.994375
20
2.53081
11
0.998103
21
2.53511
0
LINE
8
BLACK
6
CONTINUOUS
10
0.998103
20
2.53511
11
1.00289
21
2.53819
0
LINE
8
BLACK
6
CONTINUOUS
10
1.00289
20
2.53819
11
1.00835
21
2.5398
0
LINE
8
BLACK
6
CONTINUOUS
10
1.00835
20
2.5398
11
1.01405
21
2.5398
0
LINE
8
BLACK
6
CONTINUOUS
10
1.01405
20
2.5398
11
1.01951
21
2.53819
0
LINE
8
BLACK
6
CONTINUOUS
10
1.74711
20
2.53819
11
1.7519
21
2.53511
0
LINE
8
BLACK
6
CONTINUOUS
10
1.7519
20
2.53511
11
1.75563
21
2.53081
0
LINE
8
BLACK
6
CONTINUOUS
10
1.75563
20
2.53081
11
1.75799
21
2.52563
0
LINE
8
BLACK
6
CONTINUOUS
10
1.75799
20
2.52563
11
1.7588
21
2.52
0
LINE
8
BLACK
6
CONTINUOUS
10
1.7588
20
2.52
11
1.75799
21
2.51437
0
LINE
8
BLACK
6
CONTINUOUS
10
1.75799
20
2.51437
11
1.75563
21
2.50919
0
LINE
8
BLACK
6
CONTINUOUS
10
1.75563
20
2.50919
11
1.7519
21
2.50488
0
LINE
8
BLACK
6
CONTINUOUS
10
1.7519
20
2.50488
11
1.74711
21
2.50181
0
LINE
8
BLACK
6
CONTINUOUS
10
1.74711
20
2.50181
11
1.74165
21
2.5002
0
LINE
8
BLACK
6
CONTINUOUS
10
1.74165
20
2.5002
11
1.73595
21
2.5002
0
LINE
8
BLACK
6
CONTINUOUS
10
1.73595
20
2.5002
11
1.73049
21
2.50181
0
LINE
8
BLACK
6
CONTINUOUS
10
1.73049
20
2.50181
11
1.7257
21
2.50488
0
LINE
8
BLACK
6
CONTINUOUS
10
1.7257
20
2.50488
11
1.72197
21
2.50919
0
LINE
8
BLACK
6
CONTINUOUS
10
1.72197
20
2.50919
11
1.71961
21
2.51437
0
LINE
8
BLACK
6
CONTINUOUS
10
1.71961
20
2.51437
11
1.7188
21
2.52
0
LINE
8
BLACK
6
CONTINUOUS
10
1.7188
20
2.52
11
1.71961
21
2.52563
0
LINE
8
BLACK
6
CONTINUOUS
10
1.71961
20
2.52563
11
1.72197
21
2.53081
0
LINE
8
BLACK
6
CONTINUOUS
10
1.72197
20
2.53081
11
1.7257
21
2.53511
0
LINE
8
BLACK
6
CONTINUOUS
10
1.7257
20
2.53511
11
1.73049
21
2.53819
0
LINE
8
BLACK
6
CONTINUOUS
10
1.73049
20
2.53819
11
1.73595
21
2.5398
0
LINE
8
BLACK
6
CONTINUOUS
10
1.73595
20
2.5398
11
1.74165
21
2.5398
0
LINE
8
BLACK
6
CONTINUOUS
10
1.74165
20
2.5398
11
1.74711
21
2.53819
0
LINE
8
BLACK
6
CONTINUOUS
10
2.71951
20
2.53819
11
2.7243
21
2.53511
0
LINE
8
BLACK
6
CONTINUOUS
10
2.7243
20
2.53511
11
2.72803
21
2.53081
0
LINE
8
BLACK
6
CONTINUOUS
10
2.72803
20
2.53081
11
2.73039
21
2.52563
0
LINE
8
BLACK
6
CONTINUOUS
10
2.73039
20
2.52563
11
2.7312
21
2.52
0
LINE
8
BLACK
6
CONTINUOUS
10
2.7312
20
2.52
11
2.73039
21
2.51437
0
LINE
8
BLACK
6
CONTINUOUS
10
2.73039
20
2.51437
11
2.72803
21
2.50919
0
LINE
8
BLACK
6
CONTINUOUS
10
2.72803
20
2.50919
11
2.7243
21
2.50488
0
LINE
8
BLACK
6
CONTINUOUS
10
2.7243
20
2.50488
11
2.71951
21
2.50181
0
LINE
8
BLACK
6
CONTINUOUS
10
2.71951
20
2.50181
11
2.71405
21
2.5002
0
LINE
8
BLACK
6
CONTINUOUS
10
2.71405
20
2.5002
11
2.70835
21
2.5002
0
LINE
8
BLACK
6
CONTINUOUS
10
2.70835
20
2.5002
11
2.70289
21
2.50181
0
LINE
8
BLACK
6
CONTINUOUS
10
2.70289
20
2.50181
11
2.6981
21
2.50488
0
LINE
8
BLACK
6
CONTINUOUS
10
2.6981
20
2.50488
11
2.69437
21
2.50919
0
LINE
8
BLACK
6
CONTINUOUS
10
2.69437
20
2.50919
11
2.69201
21
2.51437
0
LINE
8
BLACK
6
CONTINUOUS
10
2.69201
20
2.51437
11
2.6912
21
2.52
0
LINE
8
BLACK
6
CONTINUOUS
10
2.6912
20
2.52
11
2.69201
21
2.52563
0
LINE
8
BLACK
6
CONTINUOUS
10
2.69201
20
2.52563
11
2.69437
21
2.53081
0
LINE
8
BLACK
6
CONTINUOUS
10
2.69437
20
2.53081
11
2.6981
21
2.53511
0
LINE
8
BLACK
6
CONTINUOUS
10
2.6981
20
2.53511
11
2.70289
21
2.53819
0
LINE
8
BLACK
6
CONTINUOUS
10
2.70289
20
2.53819
11
2.70835
21
2.5398
0
LINE
8
BLACK
6
CONTINUOUS
10
2.70835
20
2.5398
11
2.71405
21
2.5398
0
LINE
8
BLACK
6
CONTINUOUS
10
2.71405
20
2.5398
11
2.71951
21
2.53819
0
LINE
8
BLACK
6
CONTINUOUS
10
3.44711
20
2.53819
11
3.4519
21
2.53511
0
LINE
8
BLACK
6
CONTINUOUS
10
3.4519
20
2.53511
11
3.45563
21
2.53081
0
LINE
8
BLACK
6
CONTINUOUS
10
3.45563
20
2.53081
11
3.45799
21
2.52563
0
LINE
8
BLACK
6
CONTINUOUS
10
3.45799
20
2.52563
11
3.4588
21
2.52
0
LINE
8
BLACK
6
CONTINUOUS
10
3.4588
20
2.52
11
3.45799
21
2.51437
0
LINE
8
BLACK
6
CONTINUOUS
10
3.45799
20
2.51437
11
3.45563
21
2.50919
0
LINE
8
BLACK
6
CONTINUOUS
10
3.45563
20
2.50919
11
3.4519
21
2.50488
0
LINE
8
BLACK
6
CONTINUOUS
10
3.4519
20
2.50488
11
3.44711
21
2.50181
0
LINE
8
BLACK
6
CONTINUOUS
10
3.44711
20
2.50181
11
3.44165
21
2.5002
0
LINE
8
BLACK
6
CONTINUOUS
10
3.44165
20
2.5002
11
3.43595
21
2.5002
0
LINE
8
BLACK
6
CONTINUOUS
10
3.43595
20
2.5002
11
3.43049
21
2.50181
0
LINE
8
BLACK
6
CONTINUOUS
10
3.43049
20
2.50181
11
3.4257
21
2.50488
0
LINE
8
BLACK
6
CONTINUOUS
10
3.4257
20
2.50488
11
3.42197
21
2.50919
0
LINE
8
BLACK
6
CONTINUOUS
10
3.42197
20
2.50919
11
3.41961
21
2.51437
0
LINE
8
BLACK
6
CONTINUOUS
10
3.41961
20
2.51437
11
3.4188
21
2.52
0
LINE
8
BLACK
6
CONTINUOUS
10
3.4188
20
2.52
11
3.41961
21
2.52563
0
LINE
8
BLACK
6
CONTINUOUS
10
3.41961
20
2.52563
11
3.42197
21
2.53081
0
LINE
8
BLACK
6
CONTINUOUS
10
3.42197
20
2.53081
11
3.4257
21
2.53511
0
LINE
8
BLACK
6
CONTINUOUS
10
3.4257
20
2.53511
11
3.43049
21
2.53819
0
LINE
8
BLACK
6
CONTINUOUS
10
3.43049
20
2.53819
11
3.43595
21
2.5398
0
LINE
8
BLACK
6
CONTINUOUS
10
3.43595
20
2.5398
11
3.44165
21
2.5398
0
LINE
8
BLACK
6
CONTINUOUS
10
3.44165
20
2.5398
11
3.44711
21
2.53819
  0
ENDSEC
  0
EOF
