  0
SECTION
  2
HEADER
  9
$ANGBASE
  50
0.0
  9
$ANGDIR
  70
1
  9
$MEASUREMENT
  70
0
  0
ENDSEC
  0
SECTION
  2
TABLES
  0
TABLE
  2
LTYPE
  70
4
  0
LTYPE
  5
40F
  2
CONTINUOUS
  70
0
  3
Solid line
  72
65
  73
0
  40
0.0
  0
LTYPE
  5
410
  2
DASHDOT
 70
0
  3
Dash Dot ____ _ ____ _
 72
65
 73
4
 40
2.0
 49
1.25
 49
-0.25
 49
0.25
 49
-0.25
  0
LTYPE
  5
411
  2
DASHED
 70
0
  3
Dashed __ __ __ __ __
 72
65
 73
2
 40
0.75
 49
0.5
 49
-0.25
  0
LTYPE
  5
43B
  2
DOTTED
 70
0
  3
Dotted .  .  .  .
 72
65
 73
2
 40
0.2
 49
0.0
 49
-0.2
  0
ENDTAB
  0
TABLE
  2
STYLE
  70
4
  0
STYLE
  2
KICAD
  70
0
  40
0
  41
1
  42
1
  50
0
  71
0
  3
isocp.shx
  0
STYLE
  2
KICADB
  70
0
  40
0
  41
1
  42
1
  50
0
  71
0
  3
isocp.shx
  0
STYLE
  2
KICADI
  70
0
  40
0
  41
1
  42
1
  50
15
  71
0
  3
isocp.shx
  0
STYLE
  2
KICADBI
  70
0
  40
0
  41
1
  42
1
  50
15
  71
0
  3
isocp.shx
  0
ENDTAB
  0
TABLE
  2
LAYER
  70
1
  0
LAYER
  2
BLACK
  70
0
  62
7
  6
CONTINUOUS
  0
ENDTAB
  0
ENDSEC
  0
SECTION
  2
ENTITIES
0
LINE
8
BLACK
6
CONTINUOUS
10
3.22204
20
0.30131
11
3.22217
21
0.301333
0
LINE
8
BLACK
6
CONTINUOUS
10
3.22217
20
0.301333
11
3.22228
21
0.301268
0
LINE
8
BLACK
6
CONTINUOUS
10
3.22228
20
0.301268
11
3.22266
21
0.3012
0
LINE
8
BLACK
6
CONTINUOUS
10
3.22266
20
0.3012
11
3.22325
21
0.300707
0
LINE
8
BLACK
6
CONTINUOUS
10
3.22325
20
0.300707
11
3.22392
21
0.300323
0
LINE
8
BLACK
6
CONTINUOUS
10
3.22392
20
0.300323
11
3.22401
21
0.300073
0
LINE
8
BLACK
6
CONTINUOUS
10
3.22401
20
0.300073
11
3.22421
21
0.299902
0
LINE
8
BLACK
6
CONTINUOUS
10
3.22421
20
0.299902
11
3.22434
21
0.299146
0
LINE
8
BLACK
6
CONTINUOUS
10
3.22434
20
0.299146
11
3.22461
21
0.298425
0
LINE
8
BLACK
6
CONTINUOUS
10
3.22461
20
0.298425
11
3.22461
21
0.0984252
0
LINE
8
BLACK
6
CONTINUOUS
10
3.22461
20
0.0984252
11
3.22454
21
0.0980417
0
LINE
8
BLACK
6
CONTINUOUS
10
3.22454
20
0.0980417
11
3.22456
21
0.0979124
0
LINE
8
BLACK
6
CONTINUOUS
10
3.22456
20
0.0979124
11
3.2245
21
0.0977988
0
LINE
8
BLACK
6
CONTINUOUS
10
3.2245
20
0.0977988
11
3.22443
21
0.0974153
0
LINE
8
BLACK
6
CONTINUOUS
10
3.22443
20
0.0974153
11
3.22394
21
0.0968276
0
LINE
8
BLACK
6
CONTINUOUS
10
3.22394
20
0.0968276
11
3.22355
21
0.0961633
0
LINE
8
BLACK
6
CONTINUOUS
10
3.22355
20
0.0961633
11
3.2233
21
0.0960722
0
LINE
8
BLACK
6
CONTINUOUS
10
3.2233
20
0.0960722
11
3.22313
21
0.095868
0
LINE
8
BLACK
6
CONTINUOUS
10
3.22313
20
0.095868
11
3.22237
21
0.0957348
0
LINE
8
BLACK
6
CONTINUOUS
10
3.22237
20
0.0957348
11
3.22165
21
0.0954724
0
LINE
8
BLACK
6
CONTINUOUS
10
3.22165
20
0.0954724
11
2.92165
21
0.0954724
0
LINE
8
BLACK
6
CONTINUOUS
10
2.92165
20
0.0954724
11
2.92127
21
0.0955401
0
LINE
8
BLACK
6
CONTINUOUS
10
2.92127
20
0.0955401
11
2.92114
21
0.0955173
0
LINE
8
BLACK
6
CONTINUOUS
10
2.92114
20
0.0955173
11
2.92103
21
0.0955829
0
LINE
8
BLACK
6
CONTINUOUS
10
2.92103
20
0.0955829
11
2.92064
21
0.0956505
0
LINE
8
BLACK
6
CONTINUOUS
10
2.92064
20
0.0956505
11
2.92006
21
0.0961437
0
LINE
8
BLACK
6
CONTINUOUS
10
2.92006
20
0.0961437
11
2.91939
21
0.0965272
0
LINE
8
BLACK
6
CONTINUOUS
10
2.91939
20
0.0965272
11
2.9193
21
0.0967776
0
LINE
8
BLACK
6
CONTINUOUS
10
2.9193
20
0.0967776
11
2.9191
21
0.0969488
0
LINE
8
BLACK
6
CONTINUOUS
10
2.9191
20
0.0969488
11
2.91896
21
0.0977044
0
LINE
8
BLACK
6
CONTINUOUS
10
2.91896
20
0.0977044
11
2.9187
21
0.0984252
0
LINE
8
BLACK
6
CONTINUOUS
10
2.9187
20
0.0984252
11
2.9187
21
0.298425
0
LINE
8
BLACK
6
CONTINUOUS
10
2.9187
20
0.298425
11
2.91877
21
0.298809
0
LINE
8
BLACK
6
CONTINUOUS
10
2.91877
20
0.298809
11
2.91875
21
0.298938
0
LINE
8
BLACK
6
CONTINUOUS
10
2.91875
20
0.298938
11
2.91881
21
0.299052
0
LINE
8
BLACK
6
CONTINUOUS
10
2.91881
20
0.299052
11
2.91888
21
0.299435
0
LINE
8
BLACK
6
CONTINUOUS
10
2.91888
20
0.299435
11
2.91937
21
0.300023
0
LINE
8
BLACK
6
CONTINUOUS
10
2.91937
20
0.300023
11
2.91976
21
0.300687
0
LINE
8
BLACK
6
CONTINUOUS
10
2.91976
20
0.300687
11
2.92001
21
0.300778
0
LINE
8
BLACK
6
CONTINUOUS
10
2.92001
20
0.300778
11
2.92018
21
0.300982
0
LINE
8
BLACK
6
CONTINUOUS
10
2.92018
20
0.300982
11
2.92093
21
0.301116
0
LINE
8
BLACK
6
CONTINUOUS
10
2.92093
20
0.301116
11
2.92165
21
0.301378
0
LINE
8
BLACK
6
CONTINUOUS
10
2.92165
20
0.301378
11
3.22165
21
0.301378
0
LINE
8
BLACK
6
CONTINUOUS
10
3.22165
20
0.301378
11
3.22204
21
0.30131
0
LINE
8
BLACK
6
CONTINUOUS
10
2.92461
20
0.295472
11
2.92461
21
0.101378
0
LINE
8
BLACK
6
CONTINUOUS
10
2.92461
20
0.101378
11
3.2187
21
0.101378
0
LINE
8
BLACK
6
CONTINUOUS
10
3.2187
20
0.101378
11
3.2187
21
0.295472
0
LINE
8
BLACK
6
CONTINUOUS
10
3.2187
20
0.295472
11
2.92461
21
0.295472
0
LINE
8
BLACK
6
CONTINUOUS
10
3.04673
20
0.21776
11
3.04686
21
0.217646
0
LINE
8
BLACK
6
CONTINUOUS
10
3.04686
20
0.217646
11
3.04704
21
0.217626
0
LINE
8
BLACK
6
CONTINUOUS
10
3.04704
20
0.217626
11
3.05079
21
0.215751
0
LINE
8
BLACK
6
CONTINUOUS
10
3.05079
20
0.215751
11
3.0515
21
0.215225
0
LINE
8
BLACK
6
CONTINUOUS
10
3.0515
20
0.215225
11
3.05156
21
0.215198
0
LINE
8
BLACK
6
CONTINUOUS
10
3.05156
20
0.215198
11
3.05343
21
0.213323
0
LINE
8
BLACK
6
CONTINUOUS
10
3.05343
20
0.213323
11
3.05394
21
0.2126
0
LINE
8
BLACK
6
CONTINUOUS
10
3.05394
20
0.2126
11
3.05398
21
0.212556
0
LINE
8
BLACK
6
CONTINUOUS
10
3.05398
20
0.212556
11
3.05586
21
0.208806
0
LINE
8
BLACK
6
CONTINUOUS
10
3.05586
20
0.208806
11
3.05615
21
0.207824
0
LINE
8
BLACK
6
CONTINUOUS
10
3.05615
20
0.207824
11
3.05611
21
0.207652
0
LINE
8
BLACK
6
CONTINUOUS
10
3.05611
20
0.207652
11
3.05617
21
0.207486
0
LINE
8
BLACK
6
CONTINUOUS
10
3.05617
20
0.207486
11
3.05617
21
0.198112
0
LINE
8
BLACK
6
CONTINUOUS
10
3.05617
20
0.198112
11
3.05599
21
0.197102
0
LINE
8
BLACK
6
CONTINUOUS
10
3.05599
20
0.197102
11
3.05588
21
0.196967
0
LINE
8
BLACK
6
CONTINUOUS
10
3.05588
20
0.196967
11
3.05586
21
0.196792
0
LINE
8
BLACK
6
CONTINUOUS
10
3.05586
20
0.196792
11
3.05398
21
0.193042
0
LINE
8
BLACK
6
CONTINUOUS
10
3.05398
20
0.193042
11
3.05346
21
0.192333
0
LINE
8
BLACK
6
CONTINUOUS
10
3.05346
20
0.192333
11
3.05343
21
0.192275
0
LINE
8
BLACK
6
CONTINUOUS
10
3.05343
20
0.192275
11
3.05156
21
0.1904
0
LINE
8
BLACK
6
CONTINUOUS
10
3.05156
20
0.1904
11
3.05083
21
0.189894
0
LINE
8
BLACK
6
CONTINUOUS
10
3.05083
20
0.189894
11
3.05079
21
0.189847
0
LINE
8
BLACK
6
CONTINUOUS
10
3.05079
20
0.189847
11
3.04704
21
0.187972
0
LINE
8
BLACK
6
CONTINUOUS
10
3.04704
20
0.187972
11
3.04606
21
0.18768
0
LINE
8
BLACK
6
CONTINUOUS
10
3.04606
20
0.18768
11
3.04588
21
0.187721
0
LINE
8
BLACK
6
CONTINUOUS
10
3.04588
20
0.187721
11
3.04572
21
0.18766
0
LINE
8
BLACK
6
CONTINUOUS
10
3.04572
20
0.18766
11
3.03822
21
0.18766
0
LINE
8
BLACK
6
CONTINUOUS
10
3.03822
20
0.18766
11
3.03721
21
0.187838
0
LINE
8
BLACK
6
CONTINUOUS
10
3.03721
20
0.187838
11
3.03707
21
0.187952
0
LINE
8
BLACK
6
CONTINUOUS
10
3.03707
20
0.187952
11
3.0369
21
0.187972
0
LINE
8
BLACK
6
CONTINUOUS
10
3.0369
20
0.187972
11
3.03461
21
0.189118
0
LINE
8
BLACK
6
CONTINUOUS
10
3.03461
20
0.189118
11
3.03534
21
0.186201
0
LINE
8
BLACK
6
CONTINUOUS
10
3.03534
20
0.186201
11
3.03864
21
0.181246
0
LINE
8
BLACK
6
CONTINUOUS
10
3.03864
20
0.181246
11
3.03997
21
0.179916
0
LINE
8
BLACK
6
CONTINUOUS
10
3.03997
20
0.179916
11
3.04267
21
0.178568
0
LINE
8
BLACK
6
CONTINUOUS
10
3.04267
20
0.178568
11
3.04947
21
0.178568
0
LINE
8
BLACK
6
CONTINUOUS
10
3.04947
20
0.178568
11
3.05048
21
0.17839
0
LINE
8
BLACK
6
CONTINUOUS
10
3.05048
20
0.17839
11
3.05202
21
0.177091
0
LINE
8
BLACK
6
CONTINUOUS
10
3.05202
20
0.177091
11
3.05238
21
0.175102
0
LINE
8
BLACK
6
CONTINUOUS
10
3.05238
20
0.175102
11
3.05137
21
0.173353
0
LINE
8
BLACK
6
CONTINUOUS
10
3.05137
20
0.173353
11
3.04947
21
0.172662
0
LINE
8
BLACK
6
CONTINUOUS
10
3.04947
20
0.172662
11
3.04197
21
0.172662
0
LINE
8
BLACK
6
CONTINUOUS
10
3.04197
20
0.172662
11
3.04096
21
0.17284
0
LINE
8
BLACK
6
CONTINUOUS
10
3.04096
20
0.17284
11
3.04082
21
0.172954
0
LINE
8
BLACK
6
CONTINUOUS
10
3.04082
20
0.172954
11
3.04065
21
0.172974
0
LINE
8
BLACK
6
CONTINUOUS
10
3.04065
20
0.172974
11
3.0369
21
0.174849
0
LINE
8
BLACK
6
CONTINUOUS
10
3.0369
20
0.174849
11
3.03619
21
0.175375
0
LINE
8
BLACK
6
CONTINUOUS
10
3.03619
20
0.175375
11
3.03613
21
0.175402
0
LINE
8
BLACK
6
CONTINUOUS
10
3.03613
20
0.175402
11
3.03426
21
0.177277
0
LINE
8
BLACK
6
CONTINUOUS
10
3.03426
20
0.177277
11
3.034
21
0.177645
0
LINE
8
BLACK
6
CONTINUOUS
10
3.034
20
0.177645
11
3.03389
21
0.177727
0
LINE
8
BLACK
6
CONTINUOUS
10
3.03389
20
0.177727
11
3.03014
21
0.183351
0
LINE
8
BLACK
6
CONTINUOUS
10
3.03014
20
0.183351
11
3.02974
21
0.184259
0
LINE
8
BLACK
6
CONTINUOUS
10
3.02974
20
0.184259
11
3.02973
21
0.184273
0
LINE
8
BLACK
6
CONTINUOUS
10
3.02973
20
0.184273
11
3.02786
21
0.191772
0
LINE
8
BLACK
6
CONTINUOUS
10
3.02786
20
0.191772
11
3.02781
21
0.19236
0
LINE
8
BLACK
6
CONTINUOUS
10
3.02781
20
0.19236
11
3.02777
21
0.192488
0
LINE
8
BLACK
6
CONTINUOUS
10
3.02777
20
0.192488
11
3.02777
21
0.207486
0
LINE
8
BLACK
6
CONTINUOUS
10
3.02777
20
0.207486
11
3.02795
21
0.208496
0
LINE
8
BLACK
6
CONTINUOUS
10
3.02795
20
0.208496
11
3.02806
21
0.208631
0
LINE
8
BLACK
6
CONTINUOUS
10
3.02806
20
0.208631
11
3.02808
21
0.208806
0
LINE
8
BLACK
6
CONTINUOUS
10
3.02808
20
0.208806
11
3.02995
21
0.212556
0
LINE
8
BLACK
6
CONTINUOUS
10
3.02995
20
0.212556
11
3.03048
21
0.213265
0
LINE
8
BLACK
6
CONTINUOUS
10
3.03048
20
0.213265
11
3.03051
21
0.213323
0
LINE
8
BLACK
6
CONTINUOUS
10
3.03051
20
0.213323
11
3.03238
21
0.215198
0
LINE
8
BLACK
6
CONTINUOUS
10
3.03238
20
0.215198
11
3.0331
21
0.215704
0
LINE
8
BLACK
6
CONTINUOUS
10
3.0331
20
0.215704
11
3.03315
21
0.215751
0
LINE
8
BLACK
6
CONTINUOUS
10
3.03315
20
0.215751
11
3.0369
21
0.217626
0
LINE
8
BLACK
6
CONTINUOUS
10
3.0369
20
0.217626
11
3.03788
21
0.217918
0
LINE
8
BLACK
6
CONTINUOUS
10
3.03788
20
0.217918
11
3.03805
21
0.217877
0
LINE
8
BLACK
6
CONTINUOUS
10
3.03805
20
0.217877
11
3.03822
21
0.217938
0
LINE
8
BLACK
6
CONTINUOUS
10
3.03822
20
0.217938
11
3.04572
21
0.217938
0
LINE
8
BLACK
6
CONTINUOUS
10
3.04572
20
0.217938
11
3.04673
21
0.21776
0
LINE
8
BLACK
6
CONTINUOUS
10
3.03892
20
0.212032
11
3.03622
21
0.210683
0
LINE
8
BLACK
6
CONTINUOUS
10
3.03622
20
0.210683
11
3.03502
21
0.209486
0
LINE
8
BLACK
6
CONTINUOUS
10
3.03502
20
0.209486
11
3.03367
21
0.206789
0
LINE
8
BLACK
6
CONTINUOUS
10
3.03367
20
0.206789
11
3.03367
21
0.198809
0
LINE
8
BLACK
6
CONTINUOUS
10
3.03367
20
0.198809
11
3.03502
21
0.196112
0
LINE
8
BLACK
6
CONTINUOUS
10
3.03502
20
0.196112
11
3.03622
21
0.194915
0
LINE
8
BLACK
6
CONTINUOUS
10
3.03622
20
0.194915
11
3.03892
21
0.193566
0
LINE
8
BLACK
6
CONTINUOUS
10
3.03892
20
0.193566
11
3.04502
21
0.193566
0
LINE
8
BLACK
6
CONTINUOUS
10
3.04502
20
0.193566
11
3.04772
21
0.194915
0
LINE
8
BLACK
6
CONTINUOUS
10
3.04772
20
0.194915
11
3.04892
21
0.196112
0
LINE
8
BLACK
6
CONTINUOUS
10
3.04892
20
0.196112
11
3.05026
21
0.198809
0
LINE
8
BLACK
6
CONTINUOUS
10
3.05026
20
0.198809
11
3.05026
21
0.206789
0
LINE
8
BLACK
6
CONTINUOUS
10
3.05026
20
0.206789
11
3.04892
21
0.209486
0
LINE
8
BLACK
6
CONTINUOUS
10
3.04892
20
0.209486
11
3.04772
21
0.210684
0
LINE
8
BLACK
6
CONTINUOUS
10
3.04772
20
0.210684
11
3.04502
21
0.212032
0
LINE
8
BLACK
6
CONTINUOUS
10
3.04502
20
0.212032
11
3.03892
21
0.212032
0
LINE
8
BLACK
6
CONTINUOUS
10
3.0911
20
0.21787
11
3.09123
21
0.217893
0
LINE
8
BLACK
6
CONTINUOUS
10
3.09123
20
0.217893
11
3.09134
21
0.217827
0
LINE
8
BLACK
6
CONTINUOUS
10
3.09134
20
0.217827
11
3.09172
21
0.21776
0
LINE
8
BLACK
6
CONTINUOUS
10
3.09172
20
0.21776
11
3.09231
21
0.217267
0
LINE
8
BLACK
6
CONTINUOUS
10
3.09231
20
0.217267
11
3.09297
21
0.216883
0
LINE
8
BLACK
6
CONTINUOUS
10
3.09297
20
0.216883
11
3.09307
21
0.216633
0
LINE
8
BLACK
6
CONTINUOUS
10
3.09307
20
0.216633
11
3.09327
21
0.216461
0
LINE
8
BLACK
6
CONTINUOUS
10
3.09327
20
0.216461
11
3.0934
21
0.215706
0
LINE
8
BLACK
6
CONTINUOUS
10
3.0934
20
0.215706
11
3.09367
21
0.214985
0
LINE
8
BLACK
6
CONTINUOUS
10
3.09367
20
0.214985
11
3.09367
21
0.175615
0
LINE
8
BLACK
6
CONTINUOUS
10
3.09367
20
0.175615
11
3.09349
21
0.174605
0
LINE
8
BLACK
6
CONTINUOUS
10
3.09349
20
0.174605
11
3.09219
21
0.173058
0
LINE
8
BLACK
6
CONTINUOUS
10
3.09219
20
0.173058
11
3.0902
21
0.172707
0
LINE
8
BLACK
6
CONTINUOUS
10
3.0902
20
0.172707
11
3.08845
21
0.173717
0
LINE
8
BLACK
6
CONTINUOUS
10
3.08845
20
0.173717
11
3.08776
21
0.175615
0
LINE
8
BLACK
6
CONTINUOUS
10
3.08776
20
0.175615
11
3.08776
21
0.19141
0
LINE
8
BLACK
6
CONTINUOUS
10
3.08776
20
0.19141
11
3.07571
21
0.19141
0
LINE
8
BLACK
6
CONTINUOUS
10
3.07571
20
0.19141
11
3.0747
21
0.191588
0
LINE
8
BLACK
6
CONTINUOUS
10
3.0747
20
0.191588
11
3.07457
21
0.191701
0
LINE
8
BLACK
6
CONTINUOUS
10
3.07457
20
0.191701
11
3.07439
21
0.191722
0
LINE
8
BLACK
6
CONTINUOUS
10
3.07439
20
0.191722
11
3.07064
21
0.193596
0
LINE
8
BLACK
6
CONTINUOUS
10
3.07064
20
0.193596
11
3.06994
21
0.194122
0
LINE
8
BLACK
6
CONTINUOUS
10
3.06994
20
0.194122
11
3.06988
21
0.194149
0
LINE
8
BLACK
6
CONTINUOUS
10
3.06988
20
0.194149
11
3.068
21
0.196024
0
LINE
8
BLACK
6
CONTINUOUS
10
3.068
20
0.196024
11
3.0675
21
0.196747
0
LINE
8
BLACK
6
CONTINUOUS
10
3.0675
20
0.196747
11
3.06745
21
0.196792
0
LINE
8
BLACK
6
CONTINUOUS
10
3.06745
20
0.196792
11
3.06557
21
0.200541
0
LINE
8
BLACK
6
CONTINUOUS
10
3.06557
20
0.200541
11
3.06528
21
0.201524
0
LINE
8
BLACK
6
CONTINUOUS
10
3.06528
20
0.201524
11
3.06532
21
0.201696
0
LINE
8
BLACK
6
CONTINUOUS
10
3.06532
20
0.201696
11
3.06526
21
0.201862
0
LINE
8
BLACK
6
CONTINUOUS
10
3.06526
20
0.201862
11
3.06526
21
0.207486
0
LINE
8
BLACK
6
CONTINUOUS
10
3.06526
20
0.207486
11
3.06544
21
0.208496
0
LINE
8
BLACK
6
CONTINUOUS
10
3.06544
20
0.208496
11
3.06555
21
0.208631
0
LINE
8
BLACK
6
CONTINUOUS
10
3.06555
20
0.208631
11
3.06557
21
0.208806
0
LINE
8
BLACK
6
CONTINUOUS
10
3.06557
20
0.208806
11
3.06745
21
0.212556
0
LINE
8
BLACK
6
CONTINUOUS
10
3.06745
20
0.212556
11
3.06797
21
0.213265
0
LINE
8
BLACK
6
CONTINUOUS
10
3.06797
20
0.213265
11
3.068
21
0.213323
0
LINE
8
BLACK
6
CONTINUOUS
10
3.068
20
0.213323
11
3.06988
21
0.215198
0
LINE
8
BLACK
6
CONTINUOUS
10
3.06988
20
0.215198
11
3.0706
21
0.215704
0
LINE
8
BLACK
6
CONTINUOUS
10
3.0706
20
0.215704
11
3.07064
21
0.215751
0
LINE
8
BLACK
6
CONTINUOUS
10
3.07064
20
0.215751
11
3.07439
21
0.217626
0
LINE
8
BLACK
6
CONTINUOUS
10
3.07439
20
0.217626
11
3.07538
21
0.217918
0
LINE
8
BLACK
6
CONTINUOUS
10
3.07538
20
0.217918
11
3.07555
21
0.217877
0
LINE
8
BLACK
6
CONTINUOUS
10
3.07555
20
0.217877
11
3.07571
21
0.217938
0
LINE
8
BLACK
6
CONTINUOUS
10
3.07571
20
0.217938
11
3.09071
21
0.217938
0
LINE
8
BLACK
6
CONTINUOUS
10
3.09071
20
0.217938
11
3.0911
21
0.21787
0
LINE
8
BLACK
6
CONTINUOUS
10
3.07641
20
0.212032
11
3.07371
21
0.210683
0
LINE
8
BLACK
6
CONTINUOUS
10
3.07371
20
0.210683
11
3.07252
21
0.209486
0
LINE
8
BLACK
6
CONTINUOUS
10
3.07252
20
0.209486
11
3.07117
21
0.206789
0
LINE
8
BLACK
6
CONTINUOUS
10
3.07117
20
0.206789
11
3.07117
21
0.202559
0
LINE
8
BLACK
6
CONTINUOUS
10
3.07117
20
0.202559
11
3.07252
21
0.199861
0
LINE
8
BLACK
6
CONTINUOUS
10
3.07252
20
0.199861
11
3.07371
21
0.198664
0
LINE
8
BLACK
6
CONTINUOUS
10
3.07371
20
0.198664
11
3.07641
21
0.197315
0
LINE
8
BLACK
6
CONTINUOUS
10
3.07641
20
0.197315
11
3.08776
21
0.197315
0
LINE
8
BLACK
6
CONTINUOUS
10
3.08776
20
0.197315
11
3.08776
21
0.212032
0
LINE
8
BLACK
6
CONTINUOUS
10
3.08776
20
0.212032
11
3.07641
21
0.212032
0
LINE
8
BLACK
6
CONTINUOUS
10
3.46199
20
0.130104
11
3.46142
21
0.131496
0
LINE
8
BLACK
6
CONTINUOUS
10
3.46142
20
0.131496
11
3.46142
21
0.25748
0
LINE
8
BLACK
6
CONTINUOUS
10
3.46142
20
0.25748
11
3.46199
21
0.258872
0
LINE
8
BLACK
6
CONTINUOUS
10
3.46199
20
0.258872
11
3.46339
21
0.259449
0
LINE
8
BLACK
6
CONTINUOUS
10
3.46339
20
0.259449
11
3.56181
21
0.259449
0
LINE
8
BLACK
6
CONTINUOUS
10
3.56181
20
0.259449
11
3.5632
21
0.258872
0
LINE
8
BLACK
6
CONTINUOUS
10
3.5632
20
0.258872
11
3.56378
21
0.25748
0
LINE
8
BLACK
6
CONTINUOUS
10
3.56378
20
0.25748
11
3.56378
21
0.131496
0
LINE
8
BLACK
6
CONTINUOUS
10
3.56378
20
0.131496
11
3.5632
21
0.130104
0
LINE
8
BLACK
6
CONTINUOUS
10
3.5632
20
0.130104
11
3.56181
21
0.129528
0
LINE
8
BLACK
6
CONTINUOUS
10
3.56181
20
0.129528
11
3.46339
21
0.129528
0
LINE
8
BLACK
6
CONTINUOUS
10
3.46339
20
0.129528
11
3.46199
21
0.130104
0
LINE
8
BLACK
6
CONTINUOUS
10
3.46535
20
0.255512
11
3.46535
21
0.133465
0
LINE
8
BLACK
6
CONTINUOUS
10
3.46535
20
0.133465
11
3.55984
21
0.133465
0
LINE
8
BLACK
6
CONTINUOUS
10
3.55984
20
0.133465
11
3.55984
21
0.255512
0
LINE
8
BLACK
6
CONTINUOUS
10
3.55984
20
0.255512
11
3.46535
21
0.255512
0
LINE
8
BLACK
6
CONTINUOUS
10
3.52852
20
0.190909
11
3.52896
21
0.189847
0
LINE
8
BLACK
6
CONTINUOUS
10
3.52896
20
0.189847
11
3.52921
21
0.189239
0
LINE
8
BLACK
6
CONTINUOUS
10
3.52921
20
0.189239
11
3.52921
21
0.169741
0
LINE
8
BLACK
6
CONTINUOUS
10
3.52921
20
0.169741
11
3.52852
21
0.168071
0
LINE
8
BLACK
6
CONTINUOUS
10
3.52852
20
0.168071
11
3.52685
21
0.167379
0
LINE
8
BLACK
6
CONTINUOUS
10
3.52685
20
0.167379
11
3.52518
21
0.168071
0
LINE
8
BLACK
6
CONTINUOUS
10
3.52518
20
0.168071
11
3.52448
21
0.169741
0
LINE
8
BLACK
6
CONTINUOUS
10
3.52448
20
0.169741
11
3.52448
21
0.183536
0
LINE
8
BLACK
6
CONTINUOUS
10
3.52448
20
0.183536
11
3.51052
21
0.169571
0
LINE
8
BLACK
6
CONTINUOUS
10
3.51052
20
0.169571
11
3.51001
21
0.16936
0
LINE
8
BLACK
6
CONTINUOUS
10
3.51001
20
0.16936
11
3.5096
21
0.169
0
LINE
8
BLACK
6
CONTINUOUS
10
3.5096
20
0.169
11
3.5051
21
0.1675
0
LINE
8
BLACK
6
CONTINUOUS
10
3.5051
20
0.1675
11
3.50471
21
0.167528
0
LINE
8
BLACK
6
CONTINUOUS
10
3.50471
20
0.167528
11
3.50435
21
0.167379
0
LINE
8
BLACK
6
CONTINUOUS
10
3.50435
20
0.167379
11
3.50135
21
0.167379
0
LINE
8
BLACK
6
CONTINUOUS
10
3.50135
20
0.167379
11
3.50084
21
0.167589
0
LINE
8
BLACK
6
CONTINUOUS
10
3.50084
20
0.167589
11
3.50029
21
0.167628
0
LINE
8
BLACK
6
CONTINUOUS
10
3.50029
20
0.167628
11
3.49729
21
0.169128
0
LINE
8
BLACK
6
CONTINUOUS
10
3.49729
20
0.169128
11
3.49704
21
0.169422
0
LINE
8
BLACK
6
CONTINUOUS
10
3.49704
20
0.169422
11
3.49668
21
0.169571
0
LINE
8
BLACK
6
CONTINUOUS
10
3.49668
20
0.169571
11
3.49518
21
0.171071
0
LINE
8
BLACK
6
CONTINUOUS
10
3.49518
20
0.171071
11
3.49503
21
0.17143
0
LINE
8
BLACK
6
CONTINUOUS
10
3.49503
20
0.17143
11
3.49474
21
0.171685
0
LINE
8
BLACK
6
CONTINUOUS
10
3.49474
20
0.171685
11
3.49324
21
0.174684
0
LINE
8
BLACK
6
CONTINUOUS
10
3.49324
20
0.174684
11
3.4932
21
0.175233
0
LINE
8
BLACK
6
CONTINUOUS
10
3.4932
20
0.175233
11
3.49299
21
0.175741
0
LINE
8
BLACK
6
CONTINUOUS
10
3.49299
20
0.175741
11
3.49299
21
0.18324
0
LINE
8
BLACK
6
CONTINUOUS
10
3.49299
20
0.18324
11
3.4932
21
0.183748
0
LINE
8
BLACK
6
CONTINUOUS
10
3.4932
20
0.183748
11
3.49324
21
0.184296
0
LINE
8
BLACK
6
CONTINUOUS
10
3.49324
20
0.184296
11
3.49474
21
0.187296
0
LINE
8
BLACK
6
CONTINUOUS
10
3.49474
20
0.187296
11
3.49503
21
0.18755
0
LINE
8
BLACK
6
CONTINUOUS
10
3.49503
20
0.18755
11
3.49518
21
0.18791
0
LINE
8
BLACK
6
CONTINUOUS
10
3.49518
20
0.18791
11
3.49668
21
0.189409
0
LINE
8
BLACK
6
CONTINUOUS
10
3.49668
20
0.189409
11
3.49835
21
0.190101
0
LINE
8
BLACK
6
CONTINUOUS
10
3.49835
20
0.190101
11
3.50002
21
0.189409
0
LINE
8
BLACK
6
CONTINUOUS
10
3.50002
20
0.189409
11
3.50071
21
0.187739
0
LINE
8
BLACK
6
CONTINUOUS
10
3.50071
20
0.187739
11
3.50002
21
0.186069
0
LINE
8
BLACK
6
CONTINUOUS
10
3.50002
20
0.186069
11
3.49879
21
0.18484
0
LINE
8
BLACK
6
CONTINUOUS
10
3.49879
20
0.18484
11
3.49771
21
0.182682
0
LINE
8
BLACK
6
CONTINUOUS
10
3.49771
20
0.182682
11
3.49771
21
0.176298
0
LINE
8
BLACK
6
CONTINUOUS
10
3.49771
20
0.176298
11
3.49879
21
0.17414
0
LINE
8
BLACK
6
CONTINUOUS
10
3.49879
20
0.17414
11
3.49975
21
0.173183
0
LINE
8
BLACK
6
CONTINUOUS
10
3.49975
20
0.173183
11
3.50191
21
0.172104
0
LINE
8
BLACK
6
CONTINUOUS
10
3.50191
20
0.172104
11
3.50397
21
0.172104
0
LINE
8
BLACK
6
CONTINUOUS
10
3.50397
20
0.172104
11
3.50757
21
0.173306
0
LINE
8
BLACK
6
CONTINUOUS
10
3.50757
20
0.173306
11
3.52518
21
0.190909
0
LINE
8
BLACK
6
CONTINUOUS
10
3.52518
20
0.190909
11
3.52685
21
0.191601
0
LINE
8
BLACK
6
CONTINUOUS
10
3.52685
20
0.191601
11
3.52852
21
0.190909
0
LINE
8
BLACK
6
CONTINUOUS
10
3.51362
20
0.221483
11
3.51392
21
0.221527
0
LINE
8
BLACK
6
CONTINUOUS
10
3.51392
20
0.221527
11
3.51992
21
0.220027
0
LINE
8
BLACK
6
CONTINUOUS
10
3.51992
20
0.220027
11
3.52014
21
0.219867
0
LINE
8
BLACK
6
CONTINUOUS
10
3.52014
20
0.219867
11
3.5204
21
0.219848
0
LINE
8
BLACK
6
CONTINUOUS
10
3.5204
20
0.219848
11
3.5234
21
0.218348
0
LINE
8
BLACK
6
CONTINUOUS
10
3.5234
20
0.218348
11
3.52366
21
0.218055
0
LINE
8
BLACK
6
CONTINUOUS
10
3.52366
20
0.218055
11
3.52402
21
0.217906
0
LINE
8
BLACK
6
CONTINUOUS
10
3.52402
20
0.217906
11
3.52702
21
0.214906
0
LINE
8
BLACK
6
CONTINUOUS
10
3.52702
20
0.214906
11
3.52723
21
0.214398
0
LINE
8
BLACK
6
CONTINUOUS
10
3.52723
20
0.214398
11
3.52759
21
0.213983
0
LINE
8
BLACK
6
CONTINUOUS
10
3.52759
20
0.213983
11
3.52909
21
0.209483
0
LINE
8
BLACK
6
CONTINUOUS
10
3.52909
20
0.209483
11
3.52906
21
0.209096
0
LINE
8
BLACK
6
CONTINUOUS
10
3.52906
20
0.209096
11
3.52921
21
0.208736
0
LINE
8
BLACK
6
CONTINUOUS
10
3.52921
20
0.208736
11
3.52921
21
0.205737
0
LINE
8
BLACK
6
CONTINUOUS
10
3.52921
20
0.205737
11
3.52906
21
0.205378
0
LINE
8
BLACK
6
CONTINUOUS
10
3.52906
20
0.205378
11
3.52909
21
0.20499
0
LINE
8
BLACK
6
CONTINUOUS
10
3.52909
20
0.20499
11
3.52759
21
0.20049
0
LINE
8
BLACK
6
CONTINUOUS
10
3.52759
20
0.20049
11
3.52723
21
0.200075
0
LINE
8
BLACK
6
CONTINUOUS
10
3.52723
20
0.200075
11
3.52702
21
0.199567
0
LINE
8
BLACK
6
CONTINUOUS
10
3.52702
20
0.199567
11
3.52552
21
0.198067
0
LINE
8
BLACK
6
CONTINUOUS
10
3.52552
20
0.198067
11
3.52385
21
0.197375
0
LINE
8
BLACK
6
CONTINUOUS
10
3.52385
20
0.197375
11
3.52218
21
0.198067
0
LINE
8
BLACK
6
CONTINUOUS
10
3.52218
20
0.198067
11
3.52148
21
0.199738
0
LINE
8
BLACK
6
CONTINUOUS
10
3.52148
20
0.199738
11
3.52218
21
0.201408
0
LINE
8
BLACK
6
CONTINUOUS
10
3.52218
20
0.201408
11
3.52328
21
0.202513
0
LINE
8
BLACK
6
CONTINUOUS
10
3.52328
20
0.202513
11
3.52448
21
0.20612
0
LINE
8
BLACK
6
CONTINUOUS
10
3.52448
20
0.20612
11
3.52448
21
0.208353
0
LINE
8
BLACK
6
CONTINUOUS
10
3.52448
20
0.208353
11
3.52328
21
0.21196
0
LINE
8
BLACK
6
CONTINUOUS
10
3.52328
20
0.21196
11
3.52095
21
0.214294
0
LINE
8
BLACK
6
CONTINUOUS
10
3.52095
20
0.214294
11
3.51852
21
0.215506
0
LINE
8
BLACK
6
CONTINUOUS
10
3.51852
20
0.215506
11
3.51306
21
0.216873
0
LINE
8
BLACK
6
CONTINUOUS
10
3.51306
20
0.216873
11
3.50914
21
0.216873
0
LINE
8
BLACK
6
CONTINUOUS
10
3.50914
20
0.216873
11
3.50367
21
0.215507
0
LINE
8
BLACK
6
CONTINUOUS
10
3.50367
20
0.215507
11
3.50125
21
0.214294
0
LINE
8
BLACK
6
CONTINUOUS
10
3.50125
20
0.214294
11
3.49892
21
0.21196
0
LINE
8
BLACK
6
CONTINUOUS
10
3.49892
20
0.21196
11
3.49771
21
0.208353
0
LINE
8
BLACK
6
CONTINUOUS
10
3.49771
20
0.208353
11
3.49771
21
0.20612
0
LINE
8
BLACK
6
CONTINUOUS
10
3.49771
20
0.20612
11
3.49892
21
0.202513
0
LINE
8
BLACK
6
CONTINUOUS
10
3.49892
20
0.202513
11
3.50002
21
0.201408
0
LINE
8
BLACK
6
CONTINUOUS
10
3.50002
20
0.201408
11
3.50071
21
0.199738
0
LINE
8
BLACK
6
CONTINUOUS
10
3.50071
20
0.199738
11
3.50002
21
0.198067
0
LINE
8
BLACK
6
CONTINUOUS
10
3.50002
20
0.198067
11
3.49835
21
0.197375
0
LINE
8
BLACK
6
CONTINUOUS
10
3.49835
20
0.197375
11
3.49668
21
0.198067
0
LINE
8
BLACK
6
CONTINUOUS
10
3.49668
20
0.198067
11
3.49518
21
0.199567
0
LINE
8
BLACK
6
CONTINUOUS
10
3.49518
20
0.199567
11
3.49497
21
0.200075
0
LINE
8
BLACK
6
CONTINUOUS
10
3.49497
20
0.200075
11
3.49461
21
0.20049
0
LINE
8
BLACK
6
CONTINUOUS
10
3.49461
20
0.20049
11
3.49311
21
0.20499
0
LINE
8
BLACK
6
CONTINUOUS
10
3.49311
20
0.20499
11
3.49314
21
0.205378
0
LINE
8
BLACK
6
CONTINUOUS
10
3.49314
20
0.205378
11
3.49299
21
0.205737
0
LINE
8
BLACK
6
CONTINUOUS
10
3.49299
20
0.205737
11
3.49299
21
0.208736
0
LINE
8
BLACK
6
CONTINUOUS
10
3.49299
20
0.208736
11
3.49314
21
0.209096
0
LINE
8
BLACK
6
CONTINUOUS
10
3.49314
20
0.209096
11
3.49311
21
0.209483
0
LINE
8
BLACK
6
CONTINUOUS
10
3.49311
20
0.209483
11
3.49461
21
0.213983
0
LINE
8
BLACK
6
CONTINUOUS
10
3.49461
20
0.213983
11
3.49497
21
0.214398
0
LINE
8
BLACK
6
CONTINUOUS
10
3.49497
20
0.214398
11
3.49518
21
0.214906
0
LINE
8
BLACK
6
CONTINUOUS
10
3.49518
20
0.214906
11
3.49818
21
0.217906
0
LINE
8
BLACK
6
CONTINUOUS
10
3.49818
20
0.217906
11
3.49854
21
0.218055
0
LINE
8
BLACK
6
CONTINUOUS
10
3.49854
20
0.218055
11
3.49879
21
0.218348
0
LINE
8
BLACK
6
CONTINUOUS
10
3.49879
20
0.218348
11
3.50179
21
0.219848
0
LINE
8
BLACK
6
CONTINUOUS
10
3.50179
20
0.219848
11
3.50206
21
0.219867
0
LINE
8
BLACK
6
CONTINUOUS
10
3.50206
20
0.219867
11
3.50228
21
0.220027
0
LINE
8
BLACK
6
CONTINUOUS
10
3.50228
20
0.220027
11
3.50828
21
0.221527
0
LINE
8
BLACK
6
CONTINUOUS
10
3.50828
20
0.221527
11
3.50857
21
0.221483
0
LINE
8
BLACK
6
CONTINUOUS
10
3.50857
20
0.221483
11
3.50885
21
0.221597
0
LINE
8
BLACK
6
CONTINUOUS
10
3.50885
20
0.221597
11
3.51335
21
0.221597
0
LINE
8
BLACK
6
CONTINUOUS
10
3.51335
20
0.221597
11
3.51362
21
0.221483
0
LINE
8
BLACK
6
CONTINUOUS
10
3.29861
20
0.155695
11
3.29803
21
0.157087
0
LINE
8
BLACK
6
CONTINUOUS
10
3.29803
20
0.157087
11
3.29803
21
0.338189
0
LINE
8
BLACK
6
CONTINUOUS
10
3.29803
20
0.338189
11
3.29861
21
0.339581
0
LINE
8
BLACK
6
CONTINUOUS
10
3.29861
20
0.339581
11
3.3
21
0.340157
0
LINE
8
BLACK
6
CONTINUOUS
10
3.3
20
0.340157
11
3.41811
21
0.340157
0
LINE
8
BLACK
6
CONTINUOUS
10
3.41811
20
0.340157
11
3.4195
21
0.339581
0
LINE
8
BLACK
6
CONTINUOUS
10
3.4195
20
0.339581
11
3.42008
21
0.338189
0
LINE
8
BLACK
6
CONTINUOUS
10
3.42008
20
0.338189
11
3.42008
21
0.157087
0
LINE
8
BLACK
6
CONTINUOUS
10
3.42008
20
0.157087
11
3.4195
21
0.155695
0
LINE
8
BLACK
6
CONTINUOUS
10
3.4195
20
0.155695
11
3.41811
21
0.155118
0
LINE
8
BLACK
6
CONTINUOUS
10
3.41811
20
0.155118
11
3.3
21
0.155118
0
LINE
8
BLACK
6
CONTINUOUS
10
3.3
20
0.155118
11
3.29861
21
0.155695
0
LINE
8
BLACK
6
CONTINUOUS
10
3.30197
20
0.33622
11
3.30197
21
0.159055
0
LINE
8
BLACK
6
CONTINUOUS
10
3.30197
20
0.159055
11
3.41614
21
0.159055
0
LINE
8
BLACK
6
CONTINUOUS
10
3.41614
20
0.159055
11
3.41614
21
0.33622
0
LINE
8
BLACK
6
CONTINUOUS
10
3.41614
20
0.33622
11
3.30197
21
0.33622
0
LINE
8
BLACK
6
CONTINUOUS
10
3.36049
20
0.310098
11
3.36106
21
0.308706
0
LINE
8
BLACK
6
CONTINUOUS
10
3.36106
20
0.308706
11
3.36106
21
0.275175
0
LINE
8
BLACK
6
CONTINUOUS
10
3.36106
20
0.275175
11
3.3906
21
0.275175
0
LINE
8
BLACK
6
CONTINUOUS
10
3.3906
20
0.275175
11
3.39199
21
0.274598
0
LINE
8
BLACK
6
CONTINUOUS
10
3.39199
20
0.274598
11
3.39256
21
0.273206
0
LINE
8
BLACK
6
CONTINUOUS
10
3.39256
20
0.273206
11
3.39199
21
0.271814
0
LINE
8
BLACK
6
CONTINUOUS
10
3.39199
20
0.271814
11
3.3906
21
0.271238
0
LINE
8
BLACK
6
CONTINUOUS
10
3.3906
20
0.271238
11
3.36273
21
0.271238
0
LINE
8
BLACK
6
CONTINUOUS
10
3.36273
20
0.271238
11
3.39024
21
0.228981
0
LINE
8
BLACK
6
CONTINUOUS
10
3.39024
20
0.228981
11
3.39035
21
0.228427
0
LINE
8
BLACK
6
CONTINUOUS
10
3.39035
20
0.228427
11
3.39056
21
0.227906
0
LINE
8
BLACK
6
CONTINUOUS
10
3.39056
20
0.227906
11
3.39048
21
0.227709
0
LINE
8
BLACK
6
CONTINUOUS
10
3.39048
20
0.227709
11
3.39052
21
0.227499
0
LINE
8
BLACK
6
CONTINUOUS
10
3.39052
20
0.227499
11
3.3902
21
0.227035
0
LINE
8
BLACK
6
CONTINUOUS
10
3.3902
20
0.227035
11
3.38999
21
0.226514
0
LINE
8
BLACK
6
CONTINUOUS
10
3.38999
20
0.226514
11
3.38979
21
0.226433
0
LINE
8
BLACK
6
CONTINUOUS
10
3.38979
20
0.226433
11
3.38967
21
0.226257
0
LINE
8
BLACK
6
CONTINUOUS
10
3.38967
20
0.226257
11
3.38912
21
0.226153
0
LINE
8
BLACK
6
CONTINUOUS
10
3.38912
20
0.226153
11
3.3886
21
0.225938
0
LINE
8
BLACK
6
CONTINUOUS
10
3.3886
20
0.225938
11
3.36106
21
0.225938
0
LINE
8
BLACK
6
CONTINUOUS
10
3.36106
20
0.225938
11
3.36106
21
0.188606
0
LINE
8
BLACK
6
CONTINUOUS
10
3.36106
20
0.188606
11
3.36049
21
0.187214
0
LINE
8
BLACK
6
CONTINUOUS
10
3.36049
20
0.187214
11
3.3591
21
0.186638
0
LINE
8
BLACK
6
CONTINUOUS
10
3.3591
20
0.186638
11
3.3577
21
0.187214
0
LINE
8
BLACK
6
CONTINUOUS
10
3.3577
20
0.187214
11
3.35713
21
0.188606
0
LINE
8
BLACK
6
CONTINUOUS
10
3.35713
20
0.188606
11
3.35713
21
0.225938
0
LINE
8
BLACK
6
CONTINUOUS
10
3.35713
20
0.225938
11
3.3276
21
0.225938
0
LINE
8
BLACK
6
CONTINUOUS
10
3.3276
20
0.225938
11
3.32705
21
0.226164
0
LINE
8
BLACK
6
CONTINUOUS
10
3.32705
20
0.226164
11
3.32647
21
0.22629
0
LINE
8
BLACK
6
CONTINUOUS
10
3.32647
20
0.22629
11
3.32637
21
0.226444
0
LINE
8
BLACK
6
CONTINUOUS
10
3.32637
20
0.226444
11
3.3262
21
0.226514
0
LINE
8
BLACK
6
CONTINUOUS
10
3.3262
20
0.226514
11
3.32598
21
0.227061
0
LINE
8
BLACK
6
CONTINUOUS
10
3.32598
20
0.227061
11
3.32566
21
0.227558
0
LINE
8
BLACK
6
CONTINUOUS
10
3.32566
20
0.227558
11
3.3257
21
0.227737
0
LINE
8
BLACK
6
CONTINUOUS
10
3.3257
20
0.227737
11
3.32563
21
0.227906
0
LINE
8
BLACK
6
CONTINUOUS
10
3.32563
20
0.227906
11
3.32585
21
0.228453
0
LINE
8
BLACK
6
CONTINUOUS
10
3.32585
20
0.228453
11
3.32598
21
0.22903
0
LINE
8
BLACK
6
CONTINUOUS
10
3.32598
20
0.22903
11
3.35533
21
0.271238
0
LINE
8
BLACK
6
CONTINUOUS
10
3.35533
20
0.271238
11
3.3276
21
0.271238
0
LINE
8
BLACK
6
CONTINUOUS
10
3.3276
20
0.271238
11
3.3262
21
0.271814
0
LINE
8
BLACK
6
CONTINUOUS
10
3.3262
20
0.271814
11
3.32563
21
0.273206
0
LINE
8
BLACK
6
CONTINUOUS
10
3.32563
20
0.273206
11
3.3262
21
0.274598
0
LINE
8
BLACK
6
CONTINUOUS
10
3.3262
20
0.274598
11
3.3276
21
0.275175
0
LINE
8
BLACK
6
CONTINUOUS
10
3.3276
20
0.275175
11
3.35713
21
0.275175
0
LINE
8
BLACK
6
CONTINUOUS
10
3.35713
20
0.275175
11
3.35713
21
0.308706
0
LINE
8
BLACK
6
CONTINUOUS
10
3.35713
20
0.308706
11
3.3577
21
0.310098
0
LINE
8
BLACK
6
CONTINUOUS
10
3.3577
20
0.310098
11
3.3591
21
0.310675
0
LINE
8
BLACK
6
CONTINUOUS
10
3.3591
20
0.310675
11
3.36049
21
0.310098
0
LINE
8
BLACK
6
CONTINUOUS
10
3.33136
20
0.229875
11
3.38496
21
0.229875
0
LINE
8
BLACK
6
CONTINUOUS
10
3.38496
20
0.229875
11
3.35904
21
0.269681
0
LINE
8
BLACK
6
CONTINUOUS
10
3.35904
20
0.269681
11
3.33136
21
0.229875
0
LINE
8
BLACK
6
CONTINUOUS
10
3.25208
20
0.241573
11
3.25319
21
0.239887
0
LINE
8
BLACK
6
CONTINUOUS
10
3.25319
20
0.239887
11
3.25296
21
0.237881
0
LINE
8
BLACK
6
CONTINUOUS
10
3.25296
20
0.237881
11
3.25108
21
0.234131
0
LINE
8
BLACK
6
CONTINUOUS
10
3.25108
20
0.234131
11
3.25056
21
0.233422
0
LINE
8
BLACK
6
CONTINUOUS
10
3.25056
20
0.233422
11
3.25053
21
0.233364
0
LINE
8
BLACK
6
CONTINUOUS
10
3.25053
20
0.233364
11
3.24807
21
0.230906
0
LINE
8
BLACK
6
CONTINUOUS
10
3.24807
20
0.230906
11
3.27549
21
0.230906
0
LINE
8
BLACK
6
CONTINUOUS
10
3.27549
20
0.230906
11
3.27549
21
0.239201
0
LINE
8
BLACK
6
CONTINUOUS
10
3.27549
20
0.239201
11
3.27567
21
0.240211
0
LINE
8
BLACK
6
CONTINUOUS
10
3.27567
20
0.240211
11
3.27696
21
0.241759
0
LINE
8
BLACK
6
CONTINUOUS
10
3.27696
20
0.241759
11
3.27895
21
0.242109
0
LINE
8
BLACK
6
CONTINUOUS
10
3.27895
20
0.242109
11
3.2807
21
0.241099
0
LINE
8
BLACK
6
CONTINUOUS
10
3.2807
20
0.241099
11
3.28139
21
0.239201
0
LINE
8
BLACK
6
CONTINUOUS
10
3.28139
20
0.239201
11
3.28139
21
0.216704
0
LINE
8
BLACK
6
CONTINUOUS
10
3.28139
20
0.216704
11
3.28121
21
0.215694
0
LINE
8
BLACK
6
CONTINUOUS
10
3.28121
20
0.215694
11
3.27992
21
0.214147
0
LINE
8
BLACK
6
CONTINUOUS
10
3.27992
20
0.214147
11
3.27793
21
0.213796
0
LINE
8
BLACK
6
CONTINUOUS
10
3.27793
20
0.213796
11
3.27618
21
0.214806
0
LINE
8
BLACK
6
CONTINUOUS
10
3.27618
20
0.214806
11
3.27549
21
0.216704
0
LINE
8
BLACK
6
CONTINUOUS
10
3.27549
20
0.216704
11
3.27549
21
0.225
0
LINE
8
BLACK
6
CONTINUOUS
10
3.27549
20
0.225
11
3.23907
21
0.225
0
LINE
8
BLACK
6
CONTINUOUS
10
3.23907
20
0.225
11
3.23806
21
0.225178
0
LINE
8
BLACK
6
CONTINUOUS
10
3.23806
20
0.225178
11
3.23793
21
0.225287
0
LINE
8
BLACK
6
CONTINUOUS
10
3.23793
20
0.225287
11
3.23776
21
0.225306
0
LINE
8
BLACK
6
CONTINUOUS
10
3.23776
20
0.225306
11
3.23717
21
0.225926
0
LINE
8
BLACK
6
CONTINUOUS
10
3.23717
20
0.225926
11
3.23651
21
0.226476
0
LINE
8
BLACK
6
CONTINUOUS
10
3.23651
20
0.226476
11
3.23648
21
0.226644
0
LINE
8
BLACK
6
CONTINUOUS
10
3.23648
20
0.226644
11
3.23637
21
0.226766
0
LINE
8
BLACK
6
CONTINUOUS
10
3.23637
20
0.226766
11
3.23631
21
0.227622
0
LINE
8
BLACK
6
CONTINUOUS
10
3.23631
20
0.227622
11
3.23616
21
0.228466
0
LINE
8
BLACK
6
CONTINUOUS
10
3.23616
20
0.228466
11
3.23625
21
0.228613
0
LINE
8
BLACK
6
CONTINUOUS
10
3.23625
20
0.228613
11
3.23624
21
0.228782
0
LINE
8
BLACK
6
CONTINUOUS
10
3.23624
20
0.228782
11
3.23674
21
0.229473
0
LINE
8
BLACK
6
CONTINUOUS
10
3.23674
20
0.229473
11
3.23717
21
0.230215
0
LINE
8
BLACK
6
CONTINUOUS
10
3.23717
20
0.230215
11
3.23733
21
0.230273
0
LINE
8
BLACK
6
CONTINUOUS
10
3.23733
20
0.230273
11
3.23743
21
0.23041
0
LINE
8
BLACK
6
CONTINUOUS
10
3.23743
20
0.23041
11
3.24281
21
0.233997
0
LINE
8
BLACK
6
CONTINUOUS
10
3.24281
20
0.233997
11
3.24602
21
0.237201
0
LINE
8
BLACK
6
CONTINUOUS
10
3.24602
20
0.237201
11
3.24768
21
0.240522
0
LINE
8
BLACK
6
CONTINUOUS
10
3.24768
20
0.240522
11
3.24829
21
0.241346
0
LINE
8
BLACK
6
CONTINUOUS
10
3.24829
20
0.241346
11
3.25014
21
0.242149
0
LINE
8
BLACK
6
CONTINUOUS
10
3.25014
20
0.242149
11
3.25208
21
0.241573
0
LINE
8
BLACK
6
CONTINUOUS
10
3.27882
20
0.279582
11
3.27895
21
0.279605
0
LINE
8
BLACK
6
CONTINUOUS
10
3.27895
20
0.279605
11
3.27907
21
0.279539
0
LINE
8
BLACK
6
CONTINUOUS
10
3.27907
20
0.279539
11
3.27945
21
0.279471
0
LINE
8
BLACK
6
CONTINUOUS
10
3.27945
20
0.279471
11
3.28004
21
0.278978
0
LINE
8
BLACK
6
CONTINUOUS
10
3.28004
20
0.278978
11
3.2807
21
0.278595
0
LINE
8
BLACK
6
CONTINUOUS
10
3.2807
20
0.278595
11
3.28079
21
0.278344
0
LINE
8
BLACK
6
CONTINUOUS
10
3.28079
20
0.278344
11
3.281
21
0.278173
0
LINE
8
BLACK
6
CONTINUOUS
10
3.281
20
0.278173
11
3.28113
21
0.277418
0
LINE
8
BLACK
6
CONTINUOUS
10
3.28113
20
0.277418
11
3.28139
21
0.276697
0
LINE
8
BLACK
6
CONTINUOUS
10
3.28139
20
0.276697
11
3.28139
21
0.267323
0
LINE
8
BLACK
6
CONTINUOUS
10
3.28139
20
0.267323
11
3.28124
21
0.266453
0
LINE
8
BLACK
6
CONTINUOUS
10
3.28124
20
0.266453
11
3.28124
21
0.266389
0
LINE
8
BLACK
6
CONTINUOUS
10
3.28124
20
0.266389
11
3.27937
21
0.260765
0
LINE
8
BLACK
6
CONTINUOUS
10
3.27937
20
0.260765
11
3.27888
21
0.259863
0
LINE
8
BLACK
6
CONTINUOUS
10
3.27888
20
0.259863
11
3.27873
21
0.259771
0
LINE
8
BLACK
6
CONTINUOUS
10
3.27873
20
0.259771
11
3.27865
21
0.259611
0
LINE
8
BLACK
6
CONTINUOUS
10
3.27865
20
0.259611
11
3.2749
21
0.255861
0
LINE
8
BLACK
6
CONTINUOUS
10
3.2749
20
0.255861
11
3.27418
21
0.255355
0
LINE
8
BLACK
6
CONTINUOUS
10
3.27418
20
0.255355
11
3.27414
21
0.255308
0
LINE
8
BLACK
6
CONTINUOUS
10
3.27414
20
0.255308
11
3.27039
21
0.253433
0
LINE
8
BLACK
6
CONTINUOUS
10
3.27039
20
0.253433
11
3.2699
21
0.253288
0
LINE
8
BLACK
6
CONTINUOUS
10
3.2699
20
0.253288
11
3.26978
21
0.25321
0
LINE
8
BLACK
6
CONTINUOUS
10
3.26978
20
0.25321
11
3.26228
21
0.251335
0
LINE
8
BLACK
6
CONTINUOUS
10
3.26228
20
0.251335
11
3.2617
21
0.251293
0
LINE
8
BLACK
6
CONTINUOUS
10
3.2617
20
0.251293
11
3.26157
21
0.251247
0
LINE
8
BLACK
6
CONTINUOUS
10
3.26157
20
0.251247
11
3.25594
21
0.251247
0
LINE
8
BLACK
6
CONTINUOUS
10
3.25594
20
0.251247
11
3.25536
21
0.251349
0
LINE
8
BLACK
6
CONTINUOUS
10
3.25536
20
0.251349
11
3.25523
21
0.251335
0
LINE
8
BLACK
6
CONTINUOUS
10
3.25523
20
0.251335
11
3.24773
21
0.25321
0
LINE
8
BLACK
6
CONTINUOUS
10
3.24773
20
0.25321
11
3.24726
21
0.253417
0
LINE
8
BLACK
6
CONTINUOUS
10
3.24726
20
0.253417
11
3.24712
21
0.253433
0
LINE
8
BLACK
6
CONTINUOUS
10
3.24712
20
0.253433
11
3.24337
21
0.255308
0
LINE
8
BLACK
6
CONTINUOUS
10
3.24337
20
0.255308
11
3.24266
21
0.255834
0
LINE
8
BLACK
6
CONTINUOUS
10
3.24266
20
0.255834
11
3.24261
21
0.255861
0
LINE
8
BLACK
6
CONTINUOUS
10
3.24261
20
0.255861
11
3.23886
21
0.259611
0
LINE
8
BLACK
6
CONTINUOUS
10
3.23886
20
0.259611
11
3.23827
21
0.260451
0
LINE
8
BLACK
6
CONTINUOUS
10
3.23827
20
0.260451
11
3.23825
21
0.260626
0
LINE
8
BLACK
6
CONTINUOUS
10
3.23825
20
0.260626
11
3.23814
21
0.260765
0
LINE
8
BLACK
6
CONTINUOUS
10
3.23814
20
0.260765
11
3.23627
21
0.266389
0
LINE
8
BLACK
6
CONTINUOUS
10
3.23627
20
0.266389
11
3.23614
21
0.267262
0
LINE
8
BLACK
6
CONTINUOUS
10
3.23614
20
0.267262
11
3.23612
21
0.267323
0
LINE
8
BLACK
6
CONTINUOUS
10
3.23612
20
0.267323
11
3.23612
21
0.276697
0
LINE
8
BLACK
6
CONTINUOUS
10
3.23612
20
0.276697
11
3.23618
21
0.27708
0
LINE
8
BLACK
6
CONTINUOUS
10
3.23618
20
0.27708
11
3.23616
21
0.277209
0
LINE
8
BLACK
6
CONTINUOUS
10
3.23616
20
0.277209
11
3.23623
21
0.277323
0
LINE
8
BLACK
6
CONTINUOUS
10
3.23623
20
0.277323
11
3.2363
21
0.277707
0
LINE
8
BLACK
6
CONTINUOUS
10
3.2363
20
0.277707
11
3.23679
21
0.278294
0
LINE
8
BLACK
6
CONTINUOUS
10
3.23679
20
0.278294
11
3.23717
21
0.278959
0
LINE
8
BLACK
6
CONTINUOUS
10
3.23717
20
0.278959
11
3.23742
21
0.27905
0
LINE
8
BLACK
6
CONTINUOUS
10
3.23742
20
0.27905
11
3.23759
21
0.279254
0
LINE
8
BLACK
6
CONTINUOUS
10
3.23759
20
0.279254
11
3.23835
21
0.279387
0
LINE
8
BLACK
6
CONTINUOUS
10
3.23835
20
0.279387
11
3.23907
21
0.279649
0
LINE
8
BLACK
6
CONTINUOUS
10
3.23907
20
0.279649
11
3.27844
21
0.279649
0
LINE
8
BLACK
6
CONTINUOUS
10
3.27844
20
0.279649
11
3.27882
21
0.279582
0
LINE
8
BLACK
6
CONTINUOUS
10
3.24202
20
0.273744
11
3.24202
21
0.267802
0
LINE
8
BLACK
6
CONTINUOUS
10
3.24202
20
0.267802
11
3.24353
21
0.263294
0
LINE
8
BLACK
6
CONTINUOUS
10
3.24353
20
0.263294
11
3.24644
21
0.260376
0
LINE
8
BLACK
6
CONTINUOUS
10
3.24644
20
0.260376
11
3.24947
21
0.25886
0
LINE
8
BLACK
6
CONTINUOUS
10
3.24947
20
0.25886
11
3.25631
21
0.257152
0
LINE
8
BLACK
6
CONTINUOUS
10
3.25631
20
0.257152
11
3.2612
21
0.257152
0
LINE
8
BLACK
6
CONTINUOUS
10
3.2612
20
0.257152
11
3.26804
21
0.25886
0
LINE
8
BLACK
6
CONTINUOUS
10
3.26804
20
0.25886
11
3.27107
21
0.260376
0
LINE
8
BLACK
6
CONTINUOUS
10
3.27107
20
0.260376
11
3.27398
21
0.263294
0
LINE
8
BLACK
6
CONTINUOUS
10
3.27398
20
0.263294
11
3.27549
21
0.267802
0
LINE
8
BLACK
6
CONTINUOUS
10
3.27549
20
0.267802
11
3.27549
21
0.273744
0
LINE
8
BLACK
6
CONTINUOUS
10
3.27549
20
0.273744
11
3.24202
21
0.273744
0
LINE
8
BLACK
6
CONTINUOUS
10
3.48758
20
0.323018
11
3.48701
21
0.324409
0
LINE
8
BLACK
6
CONTINUOUS
10
3.48701
20
0.324409
11
3.48701
21
0.40315
0
LINE
8
BLACK
6
CONTINUOUS
10
3.48701
20
0.40315
11
3.48758
21
0.404542
0
LINE
8
BLACK
6
CONTINUOUS
10
3.48758
20
0.404542
11
3.48898
21
0.405118
0
LINE
8
BLACK
6
CONTINUOUS
10
3.48898
20
0.405118
11
3.53622
21
0.405118
0
LINE
8
BLACK
6
CONTINUOUS
10
3.53622
20
0.405118
11
3.53761
21
0.404542
0
LINE
8
BLACK
6
CONTINUOUS
10
3.53761
20
0.404542
11
3.53819
21
0.40315
0
LINE
8
BLACK
6
CONTINUOUS
10
3.53819
20
0.40315
11
3.53819
21
0.324409
0
LINE
8
BLACK
6
CONTINUOUS
10
3.53819
20
0.324409
11
3.53761
21
0.323018
0
LINE
8
BLACK
6
CONTINUOUS
10
3.53761
20
0.323018
11
3.53622
21
0.322441
0
LINE
8
BLACK
6
CONTINUOUS
10
3.53622
20
0.322441
11
3.48898
21
0.322441
0
LINE
8
BLACK
6
CONTINUOUS
10
3.48898
20
0.322441
11
3.48758
21
0.323018
0
LINE
8
BLACK
6
CONTINUOUS
10
3.49094
20
0.401181
11
3.49094
21
0.326378
0
LINE
8
BLACK
6
CONTINUOUS
10
3.49094
20
0.326378
11
3.53425
21
0.326378
0
LINE
8
BLACK
6
CONTINUOUS
10
3.53425
20
0.326378
11
3.53425
21
0.401181
0
LINE
8
BLACK
6
CONTINUOUS
10
3.53425
20
0.401181
11
3.49094
21
0.401181
0
LINE
8
BLACK
6
CONTINUOUS
10
3.52262
20
0.360675
11
3.52308
21
0.359561
0
LINE
8
BLACK
6
CONTINUOUS
10
3.52308
20
0.359561
11
3.52308
21
0.348313
0
LINE
8
BLACK
6
CONTINUOUS
10
3.52308
20
0.348313
11
3.52262
21
0.347199
0
LINE
8
BLACK
6
CONTINUOUS
10
3.52262
20
0.347199
11
3.5215
21
0.346738
0
LINE
8
BLACK
6
CONTINUOUS
10
3.5215
20
0.346738
11
3.52039
21
0.347199
0
LINE
8
BLACK
6
CONTINUOUS
10
3.52039
20
0.347199
11
3.51993
21
0.348313
0
LINE
8
BLACK
6
CONTINUOUS
10
3.51993
20
0.348313
11
3.51993
21
0.352362
0
LINE
8
BLACK
6
CONTINUOUS
10
3.51993
20
0.352362
11
3.50182
21
0.352362
0
LINE
8
BLACK
6
CONTINUOUS
10
3.50182
20
0.352362
11
3.50167
21
0.352424
0
LINE
8
BLACK
6
CONTINUOUS
10
3.50167
20
0.352424
11
3.50151
21
0.352393
0
LINE
8
BLACK
6
CONTINUOUS
10
3.50151
20
0.352393
11
3.50113
21
0.352648
0
LINE
8
BLACK
6
CONTINUOUS
10
3.50113
20
0.352648
11
3.5007
21
0.352823
0
LINE
8
BLACK
6
CONTINUOUS
10
3.5007
20
0.352823
11
3.50064
21
0.352973
0
LINE
8
BLACK
6
CONTINUOUS
10
3.50064
20
0.352973
11
3.50051
21
0.353063
0
LINE
8
BLACK
6
CONTINUOUS
10
3.50051
20
0.353063
11
3.50042
21
0.353513
0
LINE
8
BLACK
6
CONTINUOUS
10
3.50042
20
0.353513
11
3.50024
21
0.353937
0
LINE
8
BLACK
6
CONTINUOUS
10
3.50024
20
0.353937
11
3.50031
21
0.354087
0
LINE
8
BLACK
6
CONTINUOUS
10
3.50031
20
0.354087
11
3.50027
21
0.354246
0
LINE
8
BLACK
6
CONTINUOUS
10
3.50027
20
0.354246
11
3.50053
21
0.354627
0
LINE
8
BLACK
6
CONTINUOUS
10
3.50053
20
0.354627
11
3.5007
21
0.355051
0
LINE
8
BLACK
6
CONTINUOUS
10
3.5007
20
0.355051
11
3.50085
21
0.355113
0
LINE
8
BLACK
6
CONTINUOUS
10
3.50085
20
0.355113
11
3.50094
21
0.355247
0
LINE
8
BLACK
6
CONTINUOUS
10
3.50094
20
0.355247
11
3.50363
21
0.357036
0
LINE
8
BLACK
6
CONTINUOUS
10
3.50363
20
0.357036
11
3.50521
21
0.358619
0
LINE
8
BLACK
6
CONTINUOUS
10
3.50521
20
0.358619
11
3.50603
21
0.360266
0
LINE
8
BLACK
6
CONTINUOUS
10
3.50603
20
0.360266
11
3.50694
21
0.361055
0
LINE
8
BLACK
6
CONTINUOUS
10
3.50694
20
0.361055
11
3.50815
21
0.36097
0
LINE
8
BLACK
6
CONTINUOUS
10
3.50815
20
0.36097
11
3.50894
21
0.360059
0
LINE
8
BLACK
6
CONTINUOUS
10
3.50894
20
0.360059
11
3.50885
21
0.358857
0
LINE
8
BLACK
6
CONTINUOUS
10
3.50885
20
0.358857
11
3.50791
21
0.356982
0
LINE
8
BLACK
6
CONTINUOUS
10
3.50791
20
0.356982
11
3.50772
21
0.356813
0
LINE
8
BLACK
6
CONTINUOUS
10
3.50772
20
0.356813
11
3.50762
21
0.356573
0
LINE
8
BLACK
6
CONTINUOUS
10
3.50762
20
0.356573
11
3.50656
21
0.355512
0
LINE
8
BLACK
6
CONTINUOUS
10
3.50656
20
0.355512
11
3.51993
21
0.355512
0
LINE
8
BLACK
6
CONTINUOUS
10
3.51993
20
0.355512
11
3.51993
21
0.359561
0
LINE
8
BLACK
6
CONTINUOUS
10
3.51993
20
0.359561
11
3.52039
21
0.360675
0
LINE
8
BLACK
6
CONTINUOUS
10
3.52039
20
0.360675
11
3.5215
21
0.361136
0
LINE
8
BLACK
6
CONTINUOUS
10
3.5215
20
0.361136
11
3.52262
21
0.360675
0
LINE
8
BLACK
6
CONTINUOUS
10
3.51325
20
0.380745
11
3.51345
21
0.380774
0
LINE
8
BLACK
6
CONTINUOUS
10
3.51345
20
0.380774
11
3.5172
21
0.379837
0
LINE
8
BLACK
6
CONTINUOUS
10
3.5172
20
0.379837
11
3.51734
21
0.37973
0
LINE
8
BLACK
6
CONTINUOUS
10
3.51734
20
0.37973
11
3.51752
21
0.379718
0
LINE
8
BLACK
6
CONTINUOUS
10
3.51752
20
0.379718
11
3.5194
21
0.37878
0
LINE
8
BLACK
6
CONTINUOUS
10
3.5194
20
0.37878
11
3.51957
21
0.378584
0
LINE
8
BLACK
6
CONTINUOUS
10
3.51957
20
0.378584
11
3.5198
21
0.378485
0
LINE
8
BLACK
6
CONTINUOUS
10
3.5198
20
0.378485
11
3.52168
21
0.37661
0
LINE
8
BLACK
6
CONTINUOUS
10
3.52168
20
0.37661
11
3.52182
21
0.376272
0
LINE
8
BLACK
6
CONTINUOUS
10
3.52182
20
0.376272
11
3.52206
21
0.375995
0
LINE
8
BLACK
6
CONTINUOUS
10
3.52206
20
0.375995
11
3.523
21
0.373183
0
LINE
8
BLACK
6
CONTINUOUS
10
3.523
20
0.373183
11
3.52298
21
0.372924
0
LINE
8
BLACK
6
CONTINUOUS
10
3.52298
20
0.372924
11
3.52308
21
0.372685
0
LINE
8
BLACK
6
CONTINUOUS
10
3.52308
20
0.372685
11
3.52308
21
0.37081
0
LINE
8
BLACK
6
CONTINUOUS
10
3.52308
20
0.37081
11
3.52298
21
0.37057
0
LINE
8
BLACK
6
CONTINUOUS
10
3.52298
20
0.37057
11
3.523
21
0.370312
0
LINE
8
BLACK
6
CONTINUOUS
10
3.523
20
0.370312
11
3.52206
21
0.3675
0
LINE
8
BLACK
6
CONTINUOUS
10
3.52206
20
0.3675
11
3.52182
21
0.367223
0
LINE
8
BLACK
6
CONTINUOUS
10
3.52182
20
0.367223
11
3.52168
21
0.366884
0
LINE
8
BLACK
6
CONTINUOUS
10
3.52168
20
0.366884
11
3.52074
21
0.365947
0
LINE
8
BLACK
6
CONTINUOUS
10
3.52074
20
0.365947
11
3.51963
21
0.365486
0
LINE
8
BLACK
6
CONTINUOUS
10
3.51963
20
0.365486
11
3.51852
21
0.365947
0
LINE
8
BLACK
6
CONTINUOUS
10
3.51852
20
0.365947
11
3.51805
21
0.36706
0
LINE
8
BLACK
6
CONTINUOUS
10
3.51805
20
0.36706
11
3.51852
21
0.368174
0
LINE
8
BLACK
6
CONTINUOUS
10
3.51852
20
0.368174
11
3.51919
21
0.368848
0
LINE
8
BLACK
6
CONTINUOUS
10
3.51919
20
0.368848
11
3.51993
21
0.371065
0
LINE
8
BLACK
6
CONTINUOUS
10
3.51993
20
0.371065
11
3.51993
21
0.372429
0
LINE
8
BLACK
6
CONTINUOUS
10
3.51993
20
0.372429
11
3.51919
21
0.374646
0
LINE
8
BLACK
6
CONTINUOUS
10
3.51919
20
0.374646
11
3.51776
21
0.376077
0
LINE
8
BLACK
6
CONTINUOUS
10
3.51776
20
0.376077
11
3.51627
21
0.376823
0
LINE
8
BLACK
6
CONTINUOUS
10
3.51627
20
0.376823
11
3.51287
21
0.377672
0
LINE
8
BLACK
6
CONTINUOUS
10
3.51287
20
0.377672
11
3.51045
21
0.377672
0
LINE
8
BLACK
6
CONTINUOUS
10
3.51045
20
0.377672
11
3.50705
21
0.376823
0
LINE
8
BLACK
6
CONTINUOUS
10
3.50705
20
0.376823
11
3.50556
21
0.376077
0
LINE
8
BLACK
6
CONTINUOUS
10
3.50556
20
0.376077
11
3.50413
21
0.374646
0
LINE
8
BLACK
6
CONTINUOUS
10
3.50413
20
0.374646
11
3.50339
21
0.372429
0
LINE
8
BLACK
6
CONTINUOUS
10
3.50339
20
0.372429
11
3.50339
21
0.371065
0
LINE
8
BLACK
6
CONTINUOUS
10
3.50339
20
0.371065
11
3.50413
21
0.368848
0
LINE
8
BLACK
6
CONTINUOUS
10
3.50413
20
0.368848
11
3.50481
21
0.368174
0
LINE
8
BLACK
6
CONTINUOUS
10
3.50481
20
0.368174
11
3.50527
21
0.36706
0
LINE
8
BLACK
6
CONTINUOUS
10
3.50527
20
0.36706
11
3.50481
21
0.365947
0
LINE
8
BLACK
6
CONTINUOUS
10
3.50481
20
0.365947
11
3.50369
21
0.365486
0
LINE
8
BLACK
6
CONTINUOUS
10
3.50369
20
0.365486
11
3.50258
21
0.365947
0
LINE
8
BLACK
6
CONTINUOUS
10
3.50258
20
0.365947
11
3.50164
21
0.366884
0
LINE
8
BLACK
6
CONTINUOUS
10
3.50164
20
0.366884
11
3.5015
21
0.367223
0
LINE
8
BLACK
6
CONTINUOUS
10
3.5015
20
0.367223
11
3.50126
21
0.3675
0
LINE
8
BLACK
6
CONTINUOUS
10
3.50126
20
0.3675
11
3.50032
21
0.370312
0
LINE
8
BLACK
6
CONTINUOUS
10
3.50032
20
0.370312
11
3.50034
21
0.37057
0
LINE
8
BLACK
6
CONTINUOUS
10
3.50034
20
0.37057
11
3.50024
21
0.37081
0
LINE
8
BLACK
6
CONTINUOUS
10
3.50024
20
0.37081
11
3.50024
21
0.372685
0
LINE
8
BLACK
6
CONTINUOUS
10
3.50024
20
0.372685
11
3.50034
21
0.372924
0
LINE
8
BLACK
6
CONTINUOUS
10
3.50034
20
0.372924
11
3.50032
21
0.373183
0
LINE
8
BLACK
6
CONTINUOUS
10
3.50032
20
0.373183
11
3.50126
21
0.375995
0
LINE
8
BLACK
6
CONTINUOUS
10
3.50126
20
0.375995
11
3.5015
21
0.376272
0
LINE
8
BLACK
6
CONTINUOUS
10
3.5015
20
0.376272
11
3.50164
21
0.37661
0
LINE
8
BLACK
6
CONTINUOUS
10
3.50164
20
0.37661
11
3.50352
21
0.378485
0
LINE
8
BLACK
6
CONTINUOUS
10
3.50352
20
0.378485
11
3.50376
21
0.378584
0
LINE
8
BLACK
6
CONTINUOUS
10
3.50376
20
0.378584
11
3.50393
21
0.37878
0
LINE
8
BLACK
6
CONTINUOUS
10
3.50393
20
0.37878
11
3.5058
21
0.379718
0
LINE
8
BLACK
6
CONTINUOUS
10
3.5058
20
0.379718
11
3.50598
21
0.37973
0
LINE
8
BLACK
6
CONTINUOUS
10
3.50598
20
0.37973
11
3.50612
21
0.379837
0
LINE
8
BLACK
6
CONTINUOUS
10
3.50612
20
0.379837
11
3.50987
21
0.380774
0
LINE
8
BLACK
6
CONTINUOUS
10
3.50987
20
0.380774
11
3.51007
21
0.380745
0
LINE
8
BLACK
6
CONTINUOUS
10
3.51007
20
0.380745
11
3.51025
21
0.380821
0
LINE
8
BLACK
6
CONTINUOUS
10
3.51025
20
0.380821
11
3.51307
21
0.380821
0
LINE
8
BLACK
6
CONTINUOUS
10
3.51307
20
0.380821
11
3.51325
21
0.380745
0
LINE
8
BLACK
6
CONTINUOUS
10
1.43837
20
0.33975
11
1.4378
21
0.341142
0
LINE
8
BLACK
6
CONTINUOUS
10
1.4378
20
0.341142
11
1.4378
21
0.390354
0
LINE
8
BLACK
6
CONTINUOUS
10
1.4378
20
0.390354
11
1.43837
21
0.391746
0
LINE
8
BLACK
6
CONTINUOUS
10
1.43837
20
0.391746
11
1.43976
21
0.392323
0
LINE
8
BLACK
6
CONTINUOUS
10
1.43976
20
0.392323
11
1.5185
21
0.392323
0
LINE
8
BLACK
6
CONTINUOUS
10
1.5185
20
0.392323
11
1.5199
21
0.391746
0
LINE
8
BLACK
6
CONTINUOUS
10
1.5199
20
0.391746
11
1.52047
21
0.390354
0
LINE
8
BLACK
6
CONTINUOUS
10
1.52047
20
0.390354
11
1.52047
21
0.341142
0
LINE
8
BLACK
6
CONTINUOUS
10
1.52047
20
0.341142
11
1.5199
21
0.33975
0
LINE
8
BLACK
6
CONTINUOUS
10
1.5199
20
0.33975
11
1.5185
21
0.339173
0
LINE
8
BLACK
6
CONTINUOUS
10
1.5185
20
0.339173
11
1.43976
21
0.339173
0
LINE
8
BLACK
6
CONTINUOUS
10
1.43976
20
0.339173
11
1.43837
21
0.33975
0
LINE
8
BLACK
6
CONTINUOUS
10
1.44173
20
0.388386
11
1.44173
21
0.34311
0
LINE
8
BLACK
6
CONTINUOUS
10
1.44173
20
0.34311
11
1.51654
21
0.34311
0
LINE
8
BLACK
6
CONTINUOUS
10
1.51654
20
0.34311
11
1.51654
21
0.388386
0
LINE
8
BLACK
6
CONTINUOUS
10
1.51654
20
0.388386
11
1.44173
21
0.388386
0
LINE
8
BLACK
6
CONTINUOUS
10
1.49478
20
0.377641
11
1.49524
21
0.376528
0
LINE
8
BLACK
6
CONTINUOUS
10
1.49524
20
0.376528
11
1.49524
21
0.356843
0
LINE
8
BLACK
6
CONTINUOUS
10
1.49524
20
0.356843
11
1.49478
21
0.355729
0
LINE
8
BLACK
6
CONTINUOUS
10
1.49478
20
0.355729
11
1.49366
21
0.355268
0
LINE
8
BLACK
6
CONTINUOUS
10
1.49366
20
0.355268
11
1.49255
21
0.355729
0
LINE
8
BLACK
6
CONTINUOUS
10
1.49255
20
0.355729
11
1.49209
21
0.356843
0
LINE
8
BLACK
6
CONTINUOUS
10
1.49209
20
0.356843
11
1.49209
21
0.364642
0
LINE
8
BLACK
6
CONTINUOUS
10
1.49209
20
0.364642
11
1.4898
21
0.364642
0
LINE
8
BLACK
6
CONTINUOUS
10
1.4898
20
0.364642
11
1.4837
21
0.35594
0
LINE
8
BLACK
6
CONTINUOUS
10
1.4837
20
0.35594
11
1.48269
21
0.355292
0
LINE
8
BLACK
6
CONTINUOUS
10
1.48269
20
0.355292
11
1.48151
21
0.355553
0
LINE
8
BLACK
6
CONTINUOUS
10
1.48151
20
0.355553
11
1.48086
21
0.356569
0
LINE
8
BLACK
6
CONTINUOUS
10
1.48086
20
0.356569
11
1.48112
21
0.357746
0
LINE
8
BLACK
6
CONTINUOUS
10
1.48112
20
0.357746
11
1.486
21
0.36471
0
LINE
8
BLACK
6
CONTINUOUS
10
1.486
20
0.36471
11
1.48583
21
0.364782
0
LINE
8
BLACK
6
CONTINUOUS
10
1.48583
20
0.364782
11
1.48546
21
0.364808
0
LINE
8
BLACK
6
CONTINUOUS
10
1.48546
20
0.364808
11
1.48359
21
0.365746
0
LINE
8
BLACK
6
CONTINUOUS
10
1.48359
20
0.365746
11
1.48342
21
0.365941
0
LINE
8
BLACK
6
CONTINUOUS
10
1.48342
20
0.365941
11
1.48318
21
0.366041
0
LINE
8
BLACK
6
CONTINUOUS
10
1.48318
20
0.366041
11
1.48224
21
0.366978
0
LINE
8
BLACK
6
CONTINUOUS
10
1.48224
20
0.366978
11
1.48214
21
0.367217
0
LINE
8
BLACK
6
CONTINUOUS
10
1.48214
20
0.367217
11
1.48194
21
0.367387
0
LINE
8
BLACK
6
CONTINUOUS
10
1.48194
20
0.367387
11
1.48101
21
0.369262
0
LINE
8
BLACK
6
CONTINUOUS
10
1.48101
20
0.369262
11
1.48098
21
0.369628
0
LINE
8
BLACK
6
CONTINUOUS
10
1.48098
20
0.369628
11
1.48084
21
0.369966
0
LINE
8
BLACK
6
CONTINUOUS
10
1.48084
20
0.369966
11
1.48084
21
0.372778
0
LINE
8
BLACK
6
CONTINUOUS
10
1.48084
20
0.372778
11
1.48098
21
0.373117
0
LINE
8
BLACK
6
CONTINUOUS
10
1.48098
20
0.373117
11
1.48101
21
0.373483
0
LINE
8
BLACK
6
CONTINUOUS
10
1.48101
20
0.373483
11
1.48194
21
0.375357
0
LINE
8
BLACK
6
CONTINUOUS
10
1.48194
20
0.375357
11
1.48214
21
0.375527
0
LINE
8
BLACK
6
CONTINUOUS
10
1.48214
20
0.375527
11
1.48224
21
0.375767
0
LINE
8
BLACK
6
CONTINUOUS
10
1.48224
20
0.375767
11
1.48318
21
0.376704
0
LINE
8
BLACK
6
CONTINUOUS
10
1.48318
20
0.376704
11
1.48342
21
0.376803
0
LINE
8
BLACK
6
CONTINUOUS
10
1.48342
20
0.376803
11
1.48359
21
0.376999
0
LINE
8
BLACK
6
CONTINUOUS
10
1.48359
20
0.376999
11
1.48546
21
0.377936
0
LINE
8
BLACK
6
CONTINUOUS
10
1.48546
20
0.377936
11
1.48583
21
0.377962
0
LINE
8
BLACK
6
CONTINUOUS
10
1.48583
20
0.377962
11
1.48616
21
0.378103
0
LINE
8
BLACK
6
CONTINUOUS
10
1.48616
20
0.378103
11
1.49366
21
0.378103
0
LINE
8
BLACK
6
CONTINUOUS
10
1.49366
20
0.378103
11
1.49478
21
0.377641
0
LINE
8
BLACK
6
CONTINUOUS
10
1.48654
20
0.374953
11
1.48522
21
0.374296
0
LINE
8
BLACK
6
CONTINUOUS
10
1.48522
20
0.374296
11
1.48465
21
0.37372
0
LINE
8
BLACK
6
CONTINUOUS
10
1.48465
20
0.37372
11
1.48399
21
0.372407
0
LINE
8
BLACK
6
CONTINUOUS
10
1.48399
20
0.372407
11
1.48399
21
0.370338
0
LINE
8
BLACK
6
CONTINUOUS
10
1.48399
20
0.370338
11
1.48465
21
0.369024
0
LINE
8
BLACK
6
CONTINUOUS
10
1.48465
20
0.369024
11
1.48522
21
0.368448
0
LINE
8
BLACK
6
CONTINUOUS
10
1.48522
20
0.368448
11
1.48654
21
0.367792
0
LINE
8
BLACK
6
CONTINUOUS
10
1.48654
20
0.367792
11
1.49209
21
0.367792
0
LINE
8
BLACK
6
CONTINUOUS
10
1.49209
20
0.367792
11
1.49209
21
0.374953
0
LINE
8
BLACK
6
CONTINUOUS
10
1.49209
20
0.374953
11
1.48654
21
0.374953
0
LINE
8
BLACK
6
CONTINUOUS
10
1.47697
20
0.377641
11
1.47743
21
0.376528
0
LINE
8
BLACK
6
CONTINUOUS
10
1.47743
20
0.376528
11
1.47697
21
0.375414
0
LINE
8
BLACK
6
CONTINUOUS
10
1.47697
20
0.375414
11
1.47585
21
0.374953
0
LINE
8
BLACK
6
CONTINUOUS
10
1.47585
20
0.374953
11
1.46714
21
0.374953
0
LINE
8
BLACK
6
CONTINUOUS
10
1.46714
20
0.374953
11
1.47141
21
0.370066
0
LINE
8
BLACK
6
CONTINUOUS
10
1.47141
20
0.370066
11
1.47159
21
0.369541
0
LINE
8
BLACK
6
CONTINUOUS
10
1.47159
20
0.369541
11
1.4718
21
0.369029
0
LINE
8
BLACK
6
CONTINUOUS
10
1.4718
20
0.369029
11
1.47178
21
0.368977
0
LINE
8
BLACK
6
CONTINUOUS
10
1.47178
20
0.368977
11
1.4718
21
0.368924
0
LINE
8
BLACK
6
CONTINUOUS
10
1.4718
20
0.368924
11
1.47155
21
0.368427
0
LINE
8
BLACK
6
CONTINUOUS
10
1.47155
20
0.368427
11
1.47134
21
0.367915
0
LINE
8
BLACK
6
CONTINUOUS
10
1.47134
20
0.367915
11
1.47129
21
0.367894
0
LINE
8
BLACK
6
CONTINUOUS
10
1.47129
20
0.367894
11
1.47127
21
0.367844
0
LINE
8
BLACK
6
CONTINUOUS
10
1.47127
20
0.367844
11
1.47074
21
0.367666
0
LINE
8
BLACK
6
CONTINUOUS
10
1.47074
20
0.367666
11
1.47023
21
0.367454
0
LINE
8
BLACK
6
CONTINUOUS
10
1.47023
20
0.367454
11
1.46779
21
0.367454
0
LINE
8
BLACK
6
CONTINUOUS
10
1.46779
20
0.367454
11
1.46647
21
0.366797
0
LINE
8
BLACK
6
CONTINUOUS
10
1.46647
20
0.366797
11
1.4659
21
0.366221
0
LINE
8
BLACK
6
CONTINUOUS
10
1.4659
20
0.366221
11
1.46524
21
0.364908
0
LINE
8
BLACK
6
CONTINUOUS
10
1.46524
20
0.364908
11
1.46524
21
0.360964
0
LINE
8
BLACK
6
CONTINUOUS
10
1.46524
20
0.360964
11
1.4659
21
0.35965
0
LINE
8
BLACK
6
CONTINUOUS
10
1.4659
20
0.35965
11
1.46647
21
0.359075
0
LINE
8
BLACK
6
CONTINUOUS
10
1.46647
20
0.359075
11
1.46779
21
0.358418
0
LINE
8
BLACK
6
CONTINUOUS
10
1.46779
20
0.358418
11
1.47267
21
0.358418
0
LINE
8
BLACK
6
CONTINUOUS
10
1.47267
20
0.358418
11
1.47398
21
0.359075
0
LINE
8
BLACK
6
CONTINUOUS
10
1.47398
20
0.359075
11
1.47474
21
0.359831
0
LINE
8
BLACK
6
CONTINUOUS
10
1.47474
20
0.359831
11
1.47585
21
0.360292
0
LINE
8
BLACK
6
CONTINUOUS
10
1.47585
20
0.360292
11
1.47697
21
0.359831
0
LINE
8
BLACK
6
CONTINUOUS
10
1.47697
20
0.359831
11
1.47743
21
0.358718
0
LINE
8
BLACK
6
CONTINUOUS
10
1.47743
20
0.358718
11
1.47697
21
0.357604
0
LINE
8
BLACK
6
CONTINUOUS
10
1.47697
20
0.357604
11
1.47603
21
0.356667
0
LINE
8
BLACK
6
CONTINUOUS
10
1.47603
20
0.356667
11
1.47579
21
0.356568
0
LINE
8
BLACK
6
CONTINUOUS
10
1.47579
20
0.356568
11
1.47562
21
0.356372
0
LINE
8
BLACK
6
CONTINUOUS
10
1.47562
20
0.356372
11
1.47375
21
0.355434
0
LINE
8
BLACK
6
CONTINUOUS
10
1.47375
20
0.355434
11
1.47338
21
0.355408
0
LINE
8
BLACK
6
CONTINUOUS
10
1.47338
20
0.355408
11
1.47304
21
0.355268
0
LINE
8
BLACK
6
CONTINUOUS
10
1.47304
20
0.355268
11
1.46742
21
0.355268
0
LINE
8
BLACK
6
CONTINUOUS
10
1.46742
20
0.355268
11
1.46708
21
0.355408
0
LINE
8
BLACK
6
CONTINUOUS
10
1.46708
20
0.355408
11
1.46671
21
0.355434
0
LINE
8
BLACK
6
CONTINUOUS
10
1.46671
20
0.355434
11
1.46484
21
0.356372
0
LINE
8
BLACK
6
CONTINUOUS
10
1.46484
20
0.356372
11
1.46467
21
0.356568
0
LINE
8
BLACK
6
CONTINUOUS
10
1.46467
20
0.356568
11
1.46443
21
0.356667
0
LINE
8
BLACK
6
CONTINUOUS
10
1.46443
20
0.356667
11
1.46349
21
0.357604
0
LINE
8
BLACK
6
CONTINUOUS
10
1.46349
20
0.357604
11
1.46339
21
0.357844
0
LINE
8
BLACK
6
CONTINUOUS
10
1.46339
20
0.357844
11
1.4632
21
0.358013
0
LINE
8
BLACK
6
CONTINUOUS
10
1.4632
20
0.358013
11
1.46226
21
0.359888
0
LINE
8
BLACK
6
CONTINUOUS
10
1.46226
20
0.359888
11
1.46223
21
0.360254
0
LINE
8
BLACK
6
CONTINUOUS
10
1.46223
20
0.360254
11
1.46209
21
0.360592
0
LINE
8
BLACK
6
CONTINUOUS
10
1.46209
20
0.360592
11
1.46209
21
0.365279
0
LINE
8
BLACK
6
CONTINUOUS
10
1.46209
20
0.365279
11
1.46223
21
0.365618
0
LINE
8
BLACK
6
CONTINUOUS
10
1.46223
20
0.365618
11
1.46226
21
0.365984
0
LINE
8
BLACK
6
CONTINUOUS
10
1.46226
20
0.365984
11
1.4632
21
0.367858
0
LINE
8
BLACK
6
CONTINUOUS
10
1.4632
20
0.367858
11
1.46339
21
0.368028
0
LINE
8
BLACK
6
CONTINUOUS
10
1.46339
20
0.368028
11
1.46349
21
0.368268
0
LINE
8
BLACK
6
CONTINUOUS
10
1.46349
20
0.368268
11
1.46443
21
0.369205
0
LINE
8
BLACK
6
CONTINUOUS
10
1.46443
20
0.369205
11
1.46467
21
0.369304
0
LINE
8
BLACK
6
CONTINUOUS
10
1.46467
20
0.369304
11
1.46484
21
0.3695
0
LINE
8
BLACK
6
CONTINUOUS
10
1.46484
20
0.3695
11
1.46671
21
0.370437
0
LINE
8
BLACK
6
CONTINUOUS
10
1.46671
20
0.370437
11
1.46689
21
0.37045
0
LINE
8
BLACK
6
CONTINUOUS
10
1.46689
20
0.37045
11
1.46248
21
0.375491
0
LINE
8
BLACK
6
CONTINUOUS
10
1.46248
20
0.375491
11
1.4623
21
0.376016
0
LINE
8
BLACK
6
CONTINUOUS
10
1.4623
20
0.376016
11
1.46209
21
0.376528
0
LINE
8
BLACK
6
CONTINUOUS
10
1.46209
20
0.376528
11
1.46211
21
0.37658
0
LINE
8
BLACK
6
CONTINUOUS
10
1.46211
20
0.37658
11
1.4621
21
0.376633
0
LINE
8
BLACK
6
CONTINUOUS
10
1.4621
20
0.376633
11
1.46234
21
0.377129
0
LINE
8
BLACK
6
CONTINUOUS
10
1.46234
20
0.377129
11
1.46255
21
0.377641
0
LINE
8
BLACK
6
CONTINUOUS
10
1.46255
20
0.377641
11
1.46261
21
0.377663
0
LINE
8
BLACK
6
CONTINUOUS
10
1.46261
20
0.377663
11
1.46263
21
0.377713
0
LINE
8
BLACK
6
CONTINUOUS
10
1.46263
20
0.377713
11
1.46315
21
0.377891
0
LINE
8
BLACK
6
CONTINUOUS
10
1.46315
20
0.377891
11
1.46367
21
0.378103
0
LINE
8
BLACK
6
CONTINUOUS
10
1.46367
20
0.378103
11
1.47585
21
0.378103
0
LINE
8
BLACK
6
CONTINUOUS
10
1.47585
20
0.378103
11
1.47697
21
0.377641
0
LINE
8
BLACK
6
CONTINUOUS
10
3.92655
20
2.62596
11
3.92713
21
2.62457
0
LINE
8
BLACK
6
CONTINUOUS
10
3.92713
20
2.62457
11
3.92713
21
0.474961
0
LINE
8
BLACK
6
CONTINUOUS
10
3.92713
20
0.474961
11
3.92655
21
0.473569
0
LINE
8
BLACK
6
CONTINUOUS
10
3.92655
20
0.473569
11
3.92516
21
0.472992
0
LINE
8
BLACK
6
CONTINUOUS
10
3.92516
20
0.472992
11
3.92377
21
0.473569
0
LINE
8
BLACK
6
CONTINUOUS
10
3.92377
20
0.473569
11
3.92319
21
0.474961
0
LINE
8
BLACK
6
CONTINUOUS
10
3.92319
20
0.474961
11
3.92319
21
2.6226
0
LINE
8
BLACK
6
CONTINUOUS
10
3.92319
20
2.6226
11
0.52752
21
2.6226
0
LINE
8
BLACK
6
CONTINUOUS
10
0.52752
20
2.6226
11
0.52752
21
0.474961
0
LINE
8
BLACK
6
CONTINUOUS
10
0.52752
20
0.474961
11
0.526943
21
0.473569
0
LINE
8
BLACK
6
CONTINUOUS
10
0.526943
20
0.473569
11
0.525551
21
0.472992
0
LINE
8
BLACK
6
CONTINUOUS
10
0.525551
20
0.472992
11
0.524159
21
0.473569
0
LINE
8
BLACK
6
CONTINUOUS
10
0.524159
20
0.473569
11
0.523583
21
0.474961
0
LINE
8
BLACK
6
CONTINUOUS
10
0.523583
20
0.474961
11
0.523583
21
2.62457
0
LINE
8
BLACK
6
CONTINUOUS
10
0.523583
20
2.62457
11
0.524159
21
2.62596
0
LINE
8
BLACK
6
CONTINUOUS
10
0.524159
20
2.62596
11
0.525551
21
2.62654
0
LINE
8
BLACK
6
CONTINUOUS
10
0.525551
20
2.62654
11
3.92516
21
2.62654
0
LINE
8
BLACK
6
CONTINUOUS
10
3.92516
20
2.62654
11
3.92655
21
2.62596
0
LINE
8
BLACK
6
CONTINUOUS
10
0.979828
20
0.540636
11
0.979251
21
0.542028
0
LINE
8
BLACK
6
CONTINUOUS
10
0.979251
20
0.542028
11
0.979251
21
0.778248
0
LINE
8
BLACK
6
CONTINUOUS
10
0.979251
20
0.778248
11
0.979828
21
0.77964
0
LINE
8
BLACK
6
CONTINUOUS
10
0.979828
20
0.77964
11
0.98122
21
0.780217
0
LINE
8
BLACK
6
CONTINUOUS
10
0.98122
20
0.780217
11
1.77059
21
0.780217
0
LINE
8
BLACK
6
CONTINUOUS
10
1.77059
20
0.780217
11
1.77198
21
0.77964
0
LINE
8
BLACK
6
CONTINUOUS
10
1.77198
20
0.77964
11
1.77256
21
0.778248
0
LINE
8
BLACK
6
CONTINUOUS
10
1.77256
20
0.778248
11
1.77256
21
0.542028
0
LINE
8
BLACK
6
CONTINUOUS
10
1.77256
20
0.542028
11
1.77198
21
0.540636
0
LINE
8
BLACK
6
CONTINUOUS
10
1.77198
20
0.540636
11
1.77059
21
0.540059
0
LINE
8
BLACK
6
CONTINUOUS
10
1.77059
20
0.540059
11
0.98122
21
0.540059
0
LINE
8
BLACK
6
CONTINUOUS
10
0.98122
20
0.540059
11
0.979828
21
0.540636
0
LINE
8
BLACK
6
CONTINUOUS
10
0.983188
20
0.77628
11
0.983188
21
0.543996
0
LINE
8
BLACK
6
CONTINUOUS
10
0.983188
20
0.543996
11
1.76862
21
0.543996
0
LINE
8
BLACK
6
CONTINUOUS
10
1.76862
20
0.543996
11
1.76862
21
0.77628
0
LINE
8
BLACK
6
CONTINUOUS
10
1.76862
20
0.77628
11
0.983188
21
0.77628
0
LINE
8
BLACK
6
CONTINUOUS
10
1.37102
20
0.701391
11
1.37319
21
0.699229
0
LINE
8
BLACK
6
CONTINUOUS
10
1.37319
20
0.699229
11
1.37398
21
0.696277
0
LINE
8
BLACK
6
CONTINUOUS
10
1.37398
20
0.696277
11
1.37319
21
0.693324
0
LINE
8
BLACK
6
CONTINUOUS
10
1.37319
20
0.693324
11
1.37102
21
0.691162
0
LINE
8
BLACK
6
CONTINUOUS
10
1.37102
20
0.691162
11
1.36807
21
0.690371
0
LINE
8
BLACK
6
CONTINUOUS
10
1.36807
20
0.690371
11
1.34453
21
0.690371
0
LINE
8
BLACK
6
CONTINUOUS
10
1.34453
20
0.690371
11
1.35564
21
0.677668
0
LINE
8
BLACK
6
CONTINUOUS
10
1.35564
20
0.677668
11
1.3559
21
0.677145
0
LINE
8
BLACK
6
CONTINUOUS
10
1.3559
20
0.677145
11
1.35631
21
0.676732
0
LINE
8
BLACK
6
CONTINUOUS
10
1.35631
20
0.676732
11
1.35656
21
0.675795
0
LINE
8
BLACK
6
CONTINUOUS
10
1.35656
20
0.675795
11
1.35699
21
0.674925
0
LINE
8
BLACK
6
CONTINUOUS
10
1.35699
20
0.674925
11
1.35695
21
0.674343
0
LINE
8
BLACK
6
CONTINUOUS
10
1.35695
20
0.674343
11
1.3571
21
0.67378
0
LINE
8
BLACK
6
CONTINUOUS
10
1.3571
20
0.67378
11
1.35685
21
0.672843
0
LINE
8
BLACK
6
CONTINUOUS
10
1.35685
20
0.672843
11
1.35679
21
0.671875
0
LINE
8
BLACK
6
CONTINUOUS
10
1.35679
20
0.671875
11
1.35646
21
0.67139
0
LINE
8
BLACK
6
CONTINUOUS
10
1.35646
20
0.67139
11
1.35631
21
0.670827
0
LINE
8
BLACK
6
CONTINUOUS
10
1.35631
20
0.670827
11
1.35563
21
0.670141
0
LINE
8
BLACK
6
CONTINUOUS
10
1.35563
20
0.670141
11
1.35509
21
0.669335
0
LINE
8
BLACK
6
CONTINUOUS
10
1.35509
20
0.669335
11
1.35456
21
0.669078
0
LINE
8
BLACK
6
CONTINUOUS
10
1.35456
20
0.669078
11
1.35415
21
0.668665
0
LINE
8
BLACK
6
CONTINUOUS
10
1.35415
20
0.668665
11
1.35321
21
0.668414
0
LINE
8
BLACK
6
CONTINUOUS
10
1.35321
20
0.668414
11
1.35234
21
0.667986
0
LINE
8
BLACK
6
CONTINUOUS
10
1.35234
20
0.667986
11
1.35176
21
0.668025
0
LINE
8
BLACK
6
CONTINUOUS
10
1.35176
20
0.668025
11
1.3512
21
0.667874
0
LINE
8
BLACK
6
CONTINUOUS
10
1.3512
20
0.667874
11
1.34416
21
0.667874
0
LINE
8
BLACK
6
CONTINUOUS
10
1.34416
20
0.667874
11
1.34064
21
0.666114
0
LINE
8
BLACK
6
CONTINUOUS
10
1.34064
20
0.666114
11
1.33918
21
0.664657
0
LINE
8
BLACK
6
CONTINUOUS
10
1.33918
20
0.664657
11
1.33742
21
0.661137
0
LINE
8
BLACK
6
CONTINUOUS
10
1.33742
20
0.661137
11
1.33742
21
0.649864
0
LINE
8
BLACK
6
CONTINUOUS
10
1.33742
20
0.649864
11
1.33918
21
0.646344
0
LINE
8
BLACK
6
CONTINUOUS
10
1.33918
20
0.646344
11
1.34064
21
0.644887
0
LINE
8
BLACK
6
CONTINUOUS
10
1.34064
20
0.644887
11
1.34416
21
0.643127
0
LINE
8
BLACK
6
CONTINUOUS
10
1.34416
20
0.643127
11
1.35824
21
0.643127
0
LINE
8
BLACK
6
CONTINUOUS
10
1.35824
20
0.643127
11
1.36176
21
0.644887
0
LINE
8
BLACK
6
CONTINUOUS
10
1.36176
20
0.644887
11
1.3639
21
0.647022
0
LINE
8
BLACK
6
CONTINUOUS
10
1.3639
20
0.647022
11
1.36654
21
0.64855
0
LINE
8
BLACK
6
CONTINUOUS
10
1.36654
20
0.64855
11
1.3696
21
0.64855
0
LINE
8
BLACK
6
CONTINUOUS
10
1.3696
20
0.64855
11
1.37225
21
0.647022
0
LINE
8
BLACK
6
CONTINUOUS
10
1.37225
20
0.647022
11
1.37378
21
0.644374
0
LINE
8
BLACK
6
CONTINUOUS
10
1.37378
20
0.644374
11
1.37378
21
0.641317
0
LINE
8
BLACK
6
CONTINUOUS
10
1.37378
20
0.641317
11
1.37225
21
0.63867
0
LINE
8
BLACK
6
CONTINUOUS
10
1.37225
20
0.63867
11
1.36943
21
0.635858
0
LINE
8
BLACK
6
CONTINUOUS
10
1.36943
20
0.635858
11
1.36861
21
0.635383
0
LINE
8
BLACK
6
CONTINUOUS
10
1.36861
20
0.635383
11
1.3679
21
0.634752
0
LINE
8
BLACK
6
CONTINUOUS
10
1.3679
20
0.634752
11
1.36228
21
0.63194
0
LINE
8
BLACK
6
CONTINUOUS
10
1.36228
20
0.63194
11
1.36095
21
0.631667
0
LINE
8
BLACK
6
CONTINUOUS
10
1.36095
20
0.631667
11
1.35963
21
0.631316
0
LINE
8
BLACK
6
CONTINUOUS
10
1.35963
20
0.631316
11
1.34276
21
0.631316
0
LINE
8
BLACK
6
CONTINUOUS
10
1.34276
20
0.631316
11
1.34145
21
0.631667
0
LINE
8
BLACK
6
CONTINUOUS
10
1.34145
20
0.631667
11
1.34012
21
0.63194
0
LINE
8
BLACK
6
CONTINUOUS
10
1.34012
20
0.63194
11
1.3345
21
0.634752
0
LINE
8
BLACK
6
CONTINUOUS
10
1.3345
20
0.634752
11
1.33378
21
0.635383
0
LINE
8
BLACK
6
CONTINUOUS
10
1.33378
20
0.635383
11
1.33296
21
0.635858
0
LINE
8
BLACK
6
CONTINUOUS
10
1.33296
20
0.635858
11
1.33015
21
0.63867
0
LINE
8
BLACK
6
CONTINUOUS
10
1.33015
20
0.63867
11
1.32967
21
0.639494
0
LINE
8
BLACK
6
CONTINUOUS
10
1.32967
20
0.639494
11
1.32904
21
0.640205
0
LINE
8
BLACK
6
CONTINUOUS
10
1.32904
20
0.640205
11
1.32623
21
0.645829
0
LINE
8
BLACK
6
CONTINUOUS
10
1.32623
20
0.645829
11
1.32596
21
0.647159
0
LINE
8
BLACK
6
CONTINUOUS
10
1.32596
20
0.647159
11
1.32561
21
0.64847
0
LINE
8
BLACK
6
CONTINUOUS
10
1.32561
20
0.64847
11
1.32561
21
0.662531
0
LINE
8
BLACK
6
CONTINUOUS
10
1.32561
20
0.662531
11
1.32596
21
0.663842
0
LINE
8
BLACK
6
CONTINUOUS
10
1.32596
20
0.663842
11
1.32623
21
0.665172
0
LINE
8
BLACK
6
CONTINUOUS
10
1.32623
20
0.665172
11
1.32904
21
0.670796
0
LINE
8
BLACK
6
CONTINUOUS
10
1.32904
20
0.670796
11
1.32967
21
0.671508
0
LINE
8
BLACK
6
CONTINUOUS
10
1.32967
20
0.671508
11
1.33015
21
0.672331
0
LINE
8
BLACK
6
CONTINUOUS
10
1.33015
20
0.672331
11
1.33296
21
0.675143
0
LINE
8
BLACK
6
CONTINUOUS
10
1.33296
20
0.675143
11
1.33378
21
0.675619
0
LINE
8
BLACK
6
CONTINUOUS
10
1.33378
20
0.675619
11
1.3345
21
0.676249
0
LINE
8
BLACK
6
CONTINUOUS
10
1.3345
20
0.676249
11
1.33915
21
0.678578
0
LINE
8
BLACK
6
CONTINUOUS
10
1.33915
20
0.678578
11
1.32707
21
0.692388
0
LINE
8
BLACK
6
CONTINUOUS
10
1.32707
20
0.692388
11
1.32681
21
0.692911
0
LINE
8
BLACK
6
CONTINUOUS
10
1.32681
20
0.692911
11
1.3264
21
0.693324
0
LINE
8
BLACK
6
CONTINUOUS
10
1.3264
20
0.693324
11
1.32615
21
0.694261
0
LINE
8
BLACK
6
CONTINUOUS
10
1.32615
20
0.694261
11
1.32572
21
0.695131
0
LINE
8
BLACK
6
CONTINUOUS
10
1.32572
20
0.695131
11
1.32576
21
0.695713
0
LINE
8
BLACK
6
CONTINUOUS
10
1.32576
20
0.695713
11
1.32561
21
0.696277
0
LINE
8
BLACK
6
CONTINUOUS
10
1.32561
20
0.696277
11
1.32586
21
0.697213
0
LINE
8
BLACK
6
CONTINUOUS
10
1.32586
20
0.697213
11
1.32592
21
0.698181
0
LINE
8
BLACK
6
CONTINUOUS
10
1.32592
20
0.698181
11
1.32625
21
0.698666
0
LINE
8
BLACK
6
CONTINUOUS
10
1.32625
20
0.698666
11
1.3264
21
0.699229
0
LINE
8
BLACK
6
CONTINUOUS
10
1.3264
20
0.699229
11
1.32708
21
0.699915
0
LINE
8
BLACK
6
CONTINUOUS
10
1.32708
20
0.699915
11
1.32762
21
0.700721
0
LINE
8
BLACK
6
CONTINUOUS
10
1.32762
20
0.700721
11
1.32815
21
0.700979
0
LINE
8
BLACK
6
CONTINUOUS
10
1.32815
20
0.700979
11
1.32856
21
0.701391
0
LINE
8
BLACK
6
CONTINUOUS
10
1.32856
20
0.701391
11
1.3295
21
0.701642
0
LINE
8
BLACK
6
CONTINUOUS
10
1.3295
20
0.701642
11
1.33037
21
0.70207
0
LINE
8
BLACK
6
CONTINUOUS
10
1.33037
20
0.70207
11
1.33095
21
0.702031
0
LINE
8
BLACK
6
CONTINUOUS
10
1.33095
20
0.702031
11
1.33151
21
0.702182
0
LINE
8
BLACK
6
CONTINUOUS
10
1.33151
20
0.702182
11
1.36807
21
0.702182
0
LINE
8
BLACK
6
CONTINUOUS
10
1.36807
20
0.702182
11
1.37102
21
0.701391
0
LINE
8
BLACK
6
CONTINUOUS
10
1.42445
20
0.701391
11
1.42662
21
0.699229
0
LINE
8
BLACK
6
CONTINUOUS
10
1.42662
20
0.699229
11
1.42741
21
0.696277
0
LINE
8
BLACK
6
CONTINUOUS
10
1.42741
20
0.696277
11
1.42741
21
0.637222
0
LINE
8
BLACK
6
CONTINUOUS
10
1.42741
20
0.637222
11
1.42662
21
0.634269
0
LINE
8
BLACK
6
CONTINUOUS
10
1.42662
20
0.634269
11
1.42445
21
0.632107
0
LINE
8
BLACK
6
CONTINUOUS
10
1.42445
20
0.632107
11
1.4215
21
0.631316
0
LINE
8
BLACK
6
CONTINUOUS
10
1.4215
20
0.631316
11
1.41855
21
0.632107
0
LINE
8
BLACK
6
CONTINUOUS
10
1.41855
20
0.632107
11
1.41639
21
0.634269
0
LINE
8
BLACK
6
CONTINUOUS
10
1.41639
20
0.634269
11
1.4156
21
0.637222
0
LINE
8
BLACK
6
CONTINUOUS
10
1.4156
20
0.637222
11
1.4156
21
0.659438
0
LINE
8
BLACK
6
CONTINUOUS
10
1.4156
20
0.659438
11
1.399
21
0.659438
0
LINE
8
BLACK
6
CONTINUOUS
10
1.399
20
0.659438
11
1.39769
21
0.659789
0
LINE
8
BLACK
6
CONTINUOUS
10
1.39769
20
0.659789
11
1.39636
21
0.660061
0
LINE
8
BLACK
6
CONTINUOUS
10
1.39636
20
0.660061
11
1.39074
21
0.662873
0
LINE
8
BLACK
6
CONTINUOUS
10
1.39074
20
0.662873
11
1.39003
21
0.663504
0
LINE
8
BLACK
6
CONTINUOUS
10
1.39003
20
0.663504
11
1.3892
21
0.663979
0
LINE
8
BLACK
6
CONTINUOUS
10
1.3892
20
0.663979
11
1.38639
21
0.666792
0
LINE
8
BLACK
6
CONTINUOUS
10
1.38639
20
0.666792
11
1.38592
21
0.667615
0
LINE
8
BLACK
6
CONTINUOUS
10
1.38592
20
0.667615
11
1.38529
21
0.668326
0
LINE
8
BLACK
6
CONTINUOUS
10
1.38529
20
0.668326
11
1.38247
21
0.673951
0
LINE
8
BLACK
6
CONTINUOUS
10
1.38247
20
0.673951
11
1.3822
21
0.675281
0
LINE
8
BLACK
6
CONTINUOUS
10
1.3822
20
0.675281
11
1.38185
21
0.676592
0
LINE
8
BLACK
6
CONTINUOUS
10
1.38185
20
0.676592
11
1.38185
21
0.685028
0
LINE
8
BLACK
6
CONTINUOUS
10
1.38185
20
0.685028
11
1.3822
21
0.686339
0
LINE
8
BLACK
6
CONTINUOUS
10
1.3822
20
0.686339
11
1.38247
21
0.687669
0
LINE
8
BLACK
6
CONTINUOUS
10
1.38247
20
0.687669
11
1.38529
21
0.693293
0
LINE
8
BLACK
6
CONTINUOUS
10
1.38529
20
0.693293
11
1.38592
21
0.694005
0
LINE
8
BLACK
6
CONTINUOUS
10
1.38592
20
0.694005
11
1.38639
21
0.694828
0
LINE
8
BLACK
6
CONTINUOUS
10
1.38639
20
0.694828
11
1.3892
21
0.69764
0
LINE
8
BLACK
6
CONTINUOUS
10
1.3892
20
0.69764
11
1.39003
21
0.698116
0
LINE
8
BLACK
6
CONTINUOUS
10
1.39003
20
0.698116
11
1.39074
21
0.698747
0
LINE
8
BLACK
6
CONTINUOUS
10
1.39074
20
0.698747
11
1.39636
21
0.701559
0
LINE
8
BLACK
6
CONTINUOUS
10
1.39636
20
0.701559
11
1.39769
21
0.701831
0
LINE
8
BLACK
6
CONTINUOUS
10
1.39769
20
0.701831
11
1.399
21
0.702182
0
LINE
8
BLACK
6
CONTINUOUS
10
1.399
20
0.702182
11
1.4215
21
0.702182
0
LINE
8
BLACK
6
CONTINUOUS
10
1.4215
20
0.702182
11
1.42445
21
0.701391
0
LINE
8
BLACK
6
CONTINUOUS
10
1.4004
20
0.690371
11
1.39688
21
0.688611
0
LINE
8
BLACK
6
CONTINUOUS
10
1.39688
20
0.688611
11
1.39542
21
0.687154
0
LINE
8
BLACK
6
CONTINUOUS
10
1.39542
20
0.687154
11
1.39366
21
0.683634
0
LINE
8
BLACK
6
CONTINUOUS
10
1.39366
20
0.683634
11
1.39366
21
0.677986
0
LINE
8
BLACK
6
CONTINUOUS
10
1.39366
20
0.677986
11
1.39542
21
0.674466
0
LINE
8
BLACK
6
CONTINUOUS
10
1.39542
20
0.674466
11
1.39688
21
0.673009
0
LINE
8
BLACK
6
CONTINUOUS
10
1.39688
20
0.673009
11
1.4004
21
0.671249
0
LINE
8
BLACK
6
CONTINUOUS
10
1.4004
20
0.671249
11
1.4156
21
0.671249
0
LINE
8
BLACK
6
CONTINUOUS
10
1.4156
20
0.671249
11
1.4156
21
0.690371
0
LINE
8
BLACK
6
CONTINUOUS
10
1.4156
20
0.690371
11
1.4004
21
0.690371
0
LINE
8
BLACK
6
CONTINUOUS
10
2.67865
20
0.540636
11
2.67807
21
0.542028
0
LINE
8
BLACK
6
CONTINUOUS
10
2.67807
20
0.542028
11
2.67807
21
0.778248
0
LINE
8
BLACK
6
CONTINUOUS
10
2.67807
20
0.778248
11
2.67865
21
0.77964
0
LINE
8
BLACK
6
CONTINUOUS
10
2.67865
20
0.77964
11
2.68004
21
0.780217
0
LINE
8
BLACK
6
CONTINUOUS
10
2.68004
20
0.780217
11
3.46941
21
0.780217
0
LINE
8
BLACK
6
CONTINUOUS
10
3.46941
20
0.780217
11
3.4708
21
0.77964
0
LINE
8
BLACK
6
CONTINUOUS
10
3.4708
20
0.77964
11
3.47138
21
0.778248
0
LINE
8
BLACK
6
CONTINUOUS
10
3.47138
20
0.778248
11
3.47138
21
0.542028
0
LINE
8
BLACK
6
CONTINUOUS
10
3.47138
20
0.542028
11
3.4708
21
0.540636
0
LINE
8
BLACK
6
CONTINUOUS
10
3.4708
20
0.540636
11
3.46941
21
0.540059
0
LINE
8
BLACK
6
CONTINUOUS
10
3.46941
20
0.540059
11
2.68004
21
0.540059
0
LINE
8
BLACK
6
CONTINUOUS
10
2.68004
20
0.540059
11
2.67865
21
0.540636
0
LINE
8
BLACK
6
CONTINUOUS
10
2.68201
20
0.77628
11
2.68201
21
0.543996
0
LINE
8
BLACK
6
CONTINUOUS
10
2.68201
20
0.543996
11
3.46744
21
0.543996
0
LINE
8
BLACK
6
CONTINUOUS
10
3.46744
20
0.543996
11
3.46744
21
0.77628
0
LINE
8
BLACK
6
CONTINUOUS
10
3.46744
20
0.77628
11
2.68201
21
0.77628
0
LINE
8
BLACK
6
CONTINUOUS
10
3.13508
20
0.693517
11
3.13725
21
0.691355
0
LINE
8
BLACK
6
CONTINUOUS
10
3.13725
20
0.691355
11
3.13804
21
0.688403
0
LINE
8
BLACK
6
CONTINUOUS
10
3.13804
20
0.688403
11
3.13804
21
0.629348
0
LINE
8
BLACK
6
CONTINUOUS
10
3.13804
20
0.629348
11
3.13725
21
0.626395
0
LINE
8
BLACK
6
CONTINUOUS
10
3.13725
20
0.626395
11
3.13508
21
0.624233
0
LINE
8
BLACK
6
CONTINUOUS
10
3.13508
20
0.624233
11
3.13213
21
0.623442
0
LINE
8
BLACK
6
CONTINUOUS
10
3.13213
20
0.623442
11
3.12918
21
0.624233
0
LINE
8
BLACK
6
CONTINUOUS
10
3.12918
20
0.624233
11
3.12702
21
0.626395
0
LINE
8
BLACK
6
CONTINUOUS
10
3.12702
20
0.626395
11
3.12623
21
0.629348
0
LINE
8
BLACK
6
CONTINUOUS
10
3.12623
20
0.629348
11
3.12623
21
0.651564
0
LINE
8
BLACK
6
CONTINUOUS
10
3.12623
20
0.651564
11
3.10963
21
0.651564
0
LINE
8
BLACK
6
CONTINUOUS
10
3.10963
20
0.651564
11
3.10832
21
0.651915
0
LINE
8
BLACK
6
CONTINUOUS
10
3.10832
20
0.651915
11
3.10699
21
0.652187
0
LINE
8
BLACK
6
CONTINUOUS
10
3.10699
20
0.652187
11
3.10137
21
0.654999
0
LINE
8
BLACK
6
CONTINUOUS
10
3.10137
20
0.654999
11
3.10066
21
0.65563
0
LINE
8
BLACK
6
CONTINUOUS
10
3.10066
20
0.65563
11
3.09983
21
0.656105
0
LINE
8
BLACK
6
CONTINUOUS
10
3.09983
20
0.656105
11
3.09702
21
0.658918
0
LINE
8
BLACK
6
CONTINUOUS
10
3.09702
20
0.658918
11
3.09655
21
0.659741
0
LINE
8
BLACK
6
CONTINUOUS
10
3.09655
20
0.659741
11
3.09592
21
0.660452
0
LINE
8
BLACK
6
CONTINUOUS
10
3.09592
20
0.660452
11
3.0931
21
0.666077
0
LINE
8
BLACK
6
CONTINUOUS
10
3.0931
20
0.666077
11
3.09283
21
0.667407
0
LINE
8
BLACK
6
CONTINUOUS
10
3.09283
20
0.667407
11
3.09248
21
0.668718
0
LINE
8
BLACK
6
CONTINUOUS
10
3.09248
20
0.668718
11
3.09248
21
0.677154
0
LINE
8
BLACK
6
CONTINUOUS
10
3.09248
20
0.677154
11
3.09283
21
0.678465
0
LINE
8
BLACK
6
CONTINUOUS
10
3.09283
20
0.678465
11
3.0931
21
0.679795
0
LINE
8
BLACK
6
CONTINUOUS
10
3.0931
20
0.679795
11
3.09592
21
0.685419
0
LINE
8
BLACK
6
CONTINUOUS
10
3.09592
20
0.685419
11
3.09655
21
0.686131
0
LINE
8
BLACK
6
CONTINUOUS
10
3.09655
20
0.686131
11
3.09702
21
0.686954
0
LINE
8
BLACK
6
CONTINUOUS
10
3.09702
20
0.686954
11
3.09983
21
0.689766
0
LINE
8
BLACK
6
CONTINUOUS
10
3.09983
20
0.689766
11
3.10066
21
0.690242
0
LINE
8
BLACK
6
CONTINUOUS
10
3.10066
20
0.690242
11
3.10137
21
0.690873
0
LINE
8
BLACK
6
CONTINUOUS
10
3.10137
20
0.690873
11
3.10699
21
0.693685
0
LINE
8
BLACK
6
CONTINUOUS
10
3.10699
20
0.693685
11
3.10832
21
0.693957
0
LINE
8
BLACK
6
CONTINUOUS
10
3.10832
20
0.693957
11
3.10963
21
0.694308
0
LINE
8
BLACK
6
CONTINUOUS
10
3.10963
20
0.694308
11
3.13213
21
0.694308
0
LINE
8
BLACK
6
CONTINUOUS
10
3.13213
20
0.694308
11
3.13508
21
0.693517
0
LINE
8
BLACK
6
CONTINUOUS
10
3.11103
20
0.682497
11
3.10751
21
0.680737
0
LINE
8
BLACK
6
CONTINUOUS
10
3.10751
20
0.680737
11
3.10605
21
0.67928
0
LINE
8
BLACK
6
CONTINUOUS
10
3.10605
20
0.67928
11
3.10429
21
0.67576
0
LINE
8
BLACK
6
CONTINUOUS
10
3.10429
20
0.67576
11
3.10429
21
0.670112
0
LINE
8
BLACK
6
CONTINUOUS
10
3.10429
20
0.670112
11
3.10605
21
0.666592
0
LINE
8
BLACK
6
CONTINUOUS
10
3.10605
20
0.666592
11
3.10751
21
0.665135
0
LINE
8
BLACK
6
CONTINUOUS
10
3.10751
20
0.665135
11
3.11103
21
0.663375
0
LINE
8
BLACK
6
CONTINUOUS
10
3.11103
20
0.663375
11
3.12623
21
0.663375
0
LINE
8
BLACK
6
CONTINUOUS
10
3.12623
20
0.663375
11
3.12623
21
0.682497
0
LINE
8
BLACK
6
CONTINUOUS
10
3.12623
20
0.682497
11
3.11103
21
0.682497
0
LINE
8
BLACK
6
CONTINUOUS
10
3.06575
20
0.695633
11
3.06743
21
0.693082
0
LINE
8
BLACK
6
CONTINUOUS
10
3.06743
20
0.693082
11
3.08149
21
0.6509
0
LINE
8
BLACK
6
CONTINUOUS
10
3.08149
20
0.6509
11
3.08155
21
0.649951
0
LINE
8
BLACK
6
CONTINUOUS
10
3.08155
20
0.649951
11
3.08179
21
0.649033
0
LINE
8
BLACK
6
CONTINUOUS
10
3.08179
20
0.649033
11
3.08164
21
0.64845
0
LINE
8
BLACK
6
CONTINUOUS
10
3.08164
20
0.64845
11
3.08167
21
0.647849
0
LINE
8
BLACK
6
CONTINUOUS
10
3.08167
20
0.647849
11
3.08125
21
0.646998
0
LINE
8
BLACK
6
CONTINUOUS
10
3.08125
20
0.646998
11
3.081
21
0.64608
0
LINE
8
BLACK
6
CONTINUOUS
10
3.081
20
0.64608
11
3.08058
21
0.645654
0
LINE
8
BLACK
6
CONTINUOUS
10
3.08058
20
0.645654
11
3.08031
21
0.645115
0
LINE
8
BLACK
6
CONTINUOUS
10
3.08031
20
0.645115
11
3.07951
21
0.644591
0
LINE
8
BLACK
6
CONTINUOUS
10
3.07951
20
0.644591
11
3.07884
21
0.643918
0
LINE
8
BLACK
6
CONTINUOUS
10
3.07884
20
0.643918
11
3.07826
21
0.643762
0
LINE
8
BLACK
6
CONTINUOUS
10
3.07826
20
0.643762
11
3.07776
21
0.64343
0
LINE
8
BLACK
6
CONTINUOUS
10
3.07776
20
0.64343
11
3.07681
21
0.643373
0
LINE
8
BLACK
6
CONTINUOUS
10
3.07681
20
0.643373
11
3.07589
21
0.643127
0
LINE
8
BLACK
6
CONTINUOUS
10
3.07589
20
0.643127
11
3.05367
21
0.643127
0
LINE
8
BLACK
6
CONTINUOUS
10
3.05367
20
0.643127
11
3.05367
21
0.629348
0
LINE
8
BLACK
6
CONTINUOUS
10
3.05367
20
0.629348
11
3.05288
21
0.626395
0
LINE
8
BLACK
6
CONTINUOUS
10
3.05288
20
0.626395
11
3.05072
21
0.624233
0
LINE
8
BLACK
6
CONTINUOUS
10
3.05072
20
0.624233
11
3.04777
21
0.623442
0
LINE
8
BLACK
6
CONTINUOUS
10
3.04777
20
0.623442
11
3.04481
21
0.624233
0
LINE
8
BLACK
6
CONTINUOUS
10
3.04481
20
0.624233
11
3.04265
21
0.626395
0
LINE
8
BLACK
6
CONTINUOUS
10
3.04265
20
0.626395
11
3.04186
21
0.629348
0
LINE
8
BLACK
6
CONTINUOUS
10
3.04186
20
0.629348
11
3.04186
21
0.643127
0
LINE
8
BLACK
6
CONTINUOUS
10
3.04186
20
0.643127
11
3.03933
21
0.643127
0
LINE
8
BLACK
6
CONTINUOUS
10
3.03933
20
0.643127
11
3.03638
21
0.643918
0
LINE
8
BLACK
6
CONTINUOUS
10
3.03638
20
0.643918
11
3.03422
21
0.64608
0
LINE
8
BLACK
6
CONTINUOUS
10
3.03422
20
0.64608
11
3.03343
21
0.649033
0
LINE
8
BLACK
6
CONTINUOUS
10
3.03343
20
0.649033
11
3.03422
21
0.651985
0
LINE
8
BLACK
6
CONTINUOUS
10
3.03422
20
0.651985
11
3.03638
21
0.654147
0
LINE
8
BLACK
6
CONTINUOUS
10
3.03638
20
0.654147
11
3.03933
21
0.654938
0
LINE
8
BLACK
6
CONTINUOUS
10
3.03933
20
0.654938
11
3.04186
21
0.654938
0
LINE
8
BLACK
6
CONTINUOUS
10
3.04186
20
0.654938
11
3.04186
21
0.668718
0
LINE
8
BLACK
6
CONTINUOUS
10
3.04186
20
0.668718
11
3.04265
21
0.67167
0
LINE
8
BLACK
6
CONTINUOUS
10
3.04265
20
0.67167
11
3.04481
21
0.673832
0
LINE
8
BLACK
6
CONTINUOUS
10
3.04481
20
0.673832
11
3.04777
21
0.674623
0
LINE
8
BLACK
6
CONTINUOUS
10
3.04777
20
0.674623
11
3.05072
21
0.673832
0
LINE
8
BLACK
6
CONTINUOUS
10
3.05072
20
0.673832
11
3.05288
21
0.67167
0
LINE
8
BLACK
6
CONTINUOUS
10
3.05288
20
0.67167
11
3.05367
21
0.668718
0
LINE
8
BLACK
6
CONTINUOUS
10
3.05367
20
0.668718
11
3.05367
21
0.654938
0
LINE
8
BLACK
6
CONTINUOUS
10
3.05367
20
0.654938
11
3.0677
21
0.654938
0
LINE
8
BLACK
6
CONTINUOUS
10
3.0677
20
0.654938
11
3.05623
21
0.689347
0
LINE
8
BLACK
6
CONTINUOUS
10
3.05623
20
0.689347
11
3.05604
21
0.692399
0
LINE
8
BLACK
6
CONTINUOUS
10
3.05604
20
0.692399
11
3.05741
21
0.695133
0
LINE
8
BLACK
6
CONTINUOUS
10
3.05741
20
0.695133
11
3.05996
21
0.696817
0
LINE
8
BLACK
6
CONTINUOUS
10
3.05996
20
0.696817
11
3.06301
21
0.697001
0
LINE
8
BLACK
6
CONTINUOUS
10
3.06301
20
0.697001
11
3.06575
21
0.695633
0
LINE
8
BLACK
6
CONTINUOUS
10
0.978884
20
2.32003
11
0.978307
21
2.32142
0
LINE
8
BLACK
6
CONTINUOUS
10
0.978307
20
2.32142
11
0.978307
21
2.55764
0
LINE
8
BLACK
6
CONTINUOUS
10
0.978307
20
2.55764
11
0.978884
21
2.55903
0
LINE
8
BLACK
6
CONTINUOUS
10
0.978884
20
2.55903
11
0.980276
21
2.55961
0
LINE
8
BLACK
6
CONTINUOUS
10
0.980276
20
2.55961
11
1.76965
21
2.55961
0
LINE
8
BLACK
6
CONTINUOUS
10
1.76965
20
2.55961
11
1.77104
21
2.55903
0
LINE
8
BLACK
6
CONTINUOUS
10
1.77104
20
2.55903
11
1.77161
21
2.55764
0
LINE
8
BLACK
6
CONTINUOUS
10
1.77161
20
2.55764
11
1.77161
21
2.32142
0
LINE
8
BLACK
6
CONTINUOUS
10
1.77161
20
2.32142
11
1.77104
21
2.32003
0
LINE
8
BLACK
6
CONTINUOUS
10
1.77104
20
2.32003
11
1.76965
21
2.31945
0
LINE
8
BLACK
6
CONTINUOUS
10
1.76965
20
2.31945
11
0.980276
21
2.31945
0
LINE
8
BLACK
6
CONTINUOUS
10
0.980276
20
2.31945
11
0.978884
21
2.32003
0
LINE
8
BLACK
6
CONTINUOUS
10
0.982244
20
2.55567
11
0.982244
21
2.32339
0
LINE
8
BLACK
6
CONTINUOUS
10
0.982244
20
2.32339
11
1.76768
21
2.32339
0
LINE
8
BLACK
6
CONTINUOUS
10
1.76768
20
2.32339
11
1.76768
21
2.55567
0
LINE
8
BLACK
6
CONTINUOUS
10
1.76768
20
2.55567
11
0.982244
21
2.55567
0
LINE
8
BLACK
6
CONTINUOUS
10
1.42642
20
2.48092
11
1.42858
21
2.47876
0
LINE
8
BLACK
6
CONTINUOUS
10
1.42858
20
2.47876
11
1.42938
21
2.4758
0
LINE
8
BLACK
6
CONTINUOUS
10
1.42938
20
2.4758
11
1.42938
21
2.41675
0
LINE
8
BLACK
6
CONTINUOUS
10
1.42938
20
2.41675
11
1.42858
21
2.4138
0
LINE
8
BLACK
6
CONTINUOUS
10
1.42858
20
2.4138
11
1.42642
21
2.41163
0
LINE
8
BLACK
6
CONTINUOUS
10
1.42642
20
2.41163
11
1.42347
21
2.41084
0
LINE
8
BLACK
6
CONTINUOUS
10
1.42347
20
2.41084
11
1.42052
21
2.41163
0
LINE
8
BLACK
6
CONTINUOUS
10
1.42052
20
2.41163
11
1.41836
21
2.4138
0
LINE
8
BLACK
6
CONTINUOUS
10
1.41836
20
2.4138
11
1.41756
21
2.41675
0
LINE
8
BLACK
6
CONTINUOUS
10
1.41756
20
2.41675
11
1.41756
21
2.43897
0
LINE
8
BLACK
6
CONTINUOUS
10
1.41756
20
2.43897
11
1.40097
21
2.43897
0
LINE
8
BLACK
6
CONTINUOUS
10
1.40097
20
2.43897
11
1.39966
21
2.43932
0
LINE
8
BLACK
6
CONTINUOUS
10
1.39966
20
2.43932
11
1.39833
21
2.43959
0
LINE
8
BLACK
6
CONTINUOUS
10
1.39833
20
2.43959
11
1.39271
21
2.4424
0
LINE
8
BLACK
6
CONTINUOUS
10
1.39271
20
2.4424
11
1.392
21
2.44303
0
LINE
8
BLACK
6
CONTINUOUS
10
1.392
20
2.44303
11
1.39117
21
2.44351
0
LINE
8
BLACK
6
CONTINUOUS
10
1.39117
20
2.44351
11
1.38836
21
2.44632
0
LINE
8
BLACK
6
CONTINUOUS
10
1.38836
20
2.44632
11
1.38789
21
2.44714
0
LINE
8
BLACK
6
CONTINUOUS
10
1.38789
20
2.44714
11
1.38725
21
2.44785
0
LINE
8
BLACK
6
CONTINUOUS
10
1.38725
20
2.44785
11
1.38444
21
2.45348
0
LINE
8
BLACK
6
CONTINUOUS
10
1.38444
20
2.45348
11
1.38417
21
2.45481
0
LINE
8
BLACK
6
CONTINUOUS
10
1.38417
20
2.45481
11
1.38382
21
2.45612
0
LINE
8
BLACK
6
CONTINUOUS
10
1.38382
20
2.45612
11
1.38382
21
2.46456
0
LINE
8
BLACK
6
CONTINUOUS
10
1.38382
20
2.46456
11
1.38417
21
2.46587
0
LINE
8
BLACK
6
CONTINUOUS
10
1.38417
20
2.46587
11
1.38444
21
2.4672
0
LINE
8
BLACK
6
CONTINUOUS
10
1.38444
20
2.4672
11
1.38725
21
2.47282
0
LINE
8
BLACK
6
CONTINUOUS
10
1.38725
20
2.47282
11
1.38789
21
2.47353
0
LINE
8
BLACK
6
CONTINUOUS
10
1.38789
20
2.47353
11
1.38836
21
2.47436
0
LINE
8
BLACK
6
CONTINUOUS
10
1.38836
20
2.47436
11
1.39117
21
2.47717
0
LINE
8
BLACK
6
CONTINUOUS
10
1.39117
20
2.47717
11
1.392
21
2.47764
0
LINE
8
BLACK
6
CONTINUOUS
10
1.392
20
2.47764
11
1.39271
21
2.47827
0
LINE
8
BLACK
6
CONTINUOUS
10
1.39271
20
2.47827
11
1.39833
21
2.48109
0
LINE
8
BLACK
6
CONTINUOUS
10
1.39833
20
2.48109
11
1.39966
21
2.48136
0
LINE
8
BLACK
6
CONTINUOUS
10
1.39966
20
2.48136
11
1.40097
21
2.48171
0
LINE
8
BLACK
6
CONTINUOUS
10
1.40097
20
2.48171
11
1.42347
21
2.48171
0
LINE
8
BLACK
6
CONTINUOUS
10
1.42347
20
2.48171
11
1.42642
21
2.48092
0
LINE
8
BLACK
6
CONTINUOUS
10
1.40237
20
2.4699
11
1.39885
21
2.46814
0
LINE
8
BLACK
6
CONTINUOUS
10
1.39885
20
2.46814
11
1.39739
21
2.46668
0
LINE
8
BLACK
6
CONTINUOUS
10
1.39739
20
2.46668
11
1.39563
21
2.46316
0
LINE
8
BLACK
6
CONTINUOUS
10
1.39563
20
2.46316
11
1.39563
21
2.45751
0
LINE
8
BLACK
6
CONTINUOUS
10
1.39563
20
2.45751
11
1.39739
21
2.45399
0
LINE
8
BLACK
6
CONTINUOUS
10
1.39739
20
2.45399
11
1.39885
21
2.45254
0
LINE
8
BLACK
6
CONTINUOUS
10
1.39885
20
2.45254
11
1.40237
21
2.45078
0
LINE
8
BLACK
6
CONTINUOUS
10
1.40237
20
2.45078
11
1.41756
21
2.45078
0
LINE
8
BLACK
6
CONTINUOUS
10
1.41756
20
2.45078
11
1.41756
21
2.4699
0
LINE
8
BLACK
6
CONTINUOUS
10
1.41756
20
2.4699
11
1.40237
21
2.4699
0
LINE
8
BLACK
6
CONTINUOUS
10
1.33053
20
2.41163
11
1.32837
21
2.4138
0
LINE
8
BLACK
6
CONTINUOUS
10
1.32837
20
2.4138
11
1.32758
21
2.41675
0
LINE
8
BLACK
6
CONTINUOUS
10
1.32758
20
2.41675
11
1.32837
21
2.4197
0
LINE
8
BLACK
6
CONTINUOUS
10
1.32837
20
2.4197
11
1.33053
21
2.42186
0
LINE
8
BLACK
6
CONTINUOUS
10
1.33053
20
2.42186
11
1.33348
21
2.42265
0
LINE
8
BLACK
6
CONTINUOUS
10
1.33348
20
2.42265
11
1.34445
21
2.42265
0
LINE
8
BLACK
6
CONTINUOUS
10
1.34445
20
2.42265
11
1.34445
21
2.4758
0
LINE
8
BLACK
6
CONTINUOUS
10
1.34445
20
2.4758
11
1.3448
21
2.4771
0
LINE
8
BLACK
6
CONTINUOUS
10
1.3448
20
2.4771
11
1.34506
21
2.47842
0
LINE
8
BLACK
6
CONTINUOUS
10
1.34506
20
2.47842
11
1.34519
21
2.47857
0
LINE
8
BLACK
6
CONTINUOUS
10
1.34519
20
2.47857
11
1.34524
21
2.47876
0
LINE
8
BLACK
6
CONTINUOUS
10
1.34524
20
2.47876
11
1.34619
21
2.47971
0
LINE
8
BLACK
6
CONTINUOUS
10
1.34619
20
2.47971
11
1.34708
21
2.48072
0
LINE
8
BLACK
6
CONTINUOUS
10
1.34708
20
2.48072
11
1.34726
21
2.48078
0
LINE
8
BLACK
6
CONTINUOUS
10
1.34726
20
2.48078
11
1.3474
21
2.48092
0
LINE
8
BLACK
6
CONTINUOUS
10
1.3474
20
2.48092
11
1.3487
21
2.48127
0
LINE
8
BLACK
6
CONTINUOUS
10
1.3487
20
2.48127
11
1.34997
21
2.4817
0
LINE
8
BLACK
6
CONTINUOUS
10
1.34997
20
2.4817
11
1.35017
21
2.48166
0
LINE
8
BLACK
6
CONTINUOUS
10
1.35017
20
2.48166
11
1.35035
21
2.48171
0
LINE
8
BLACK
6
CONTINUOUS
10
1.35035
20
2.48171
11
1.35165
21
2.48136
0
LINE
8
BLACK
6
CONTINUOUS
10
1.35165
20
2.48136
11
1.35297
21
2.4811
0
LINE
8
BLACK
6
CONTINUOUS
10
1.35297
20
2.4811
11
1.35312
21
2.48097
0
LINE
8
BLACK
6
CONTINUOUS
10
1.35312
20
2.48097
11
1.35331
21
2.48092
0
LINE
8
BLACK
6
CONTINUOUS
10
1.35331
20
2.48092
11
1.35426
21
2.47997
0
LINE
8
BLACK
6
CONTINUOUS
10
1.35426
20
2.47997
11
1.35527
21
2.47908
0
LINE
8
BLACK
6
CONTINUOUS
10
1.35527
20
2.47908
11
1.36057
21
2.47113
0
LINE
8
BLACK
6
CONTINUOUS
10
1.36057
20
2.47113
11
1.3651
21
2.4666
0
LINE
8
BLACK
6
CONTINUOUS
10
1.3651
20
2.4666
11
1.36987
21
2.46421
0
LINE
8
BLACK
6
CONTINUOUS
10
1.36987
20
2.46421
11
1.37216
21
2.46219
0
LINE
8
BLACK
6
CONTINUOUS
10
1.37216
20
2.46219
11
1.37312
21
2.45929
0
LINE
8
BLACK
6
CONTINUOUS
10
1.37312
20
2.45929
11
1.37251
21
2.45629
0
LINE
8
BLACK
6
CONTINUOUS
10
1.37251
20
2.45629
11
1.37048
21
2.454
0
LINE
8
BLACK
6
CONTINUOUS
10
1.37048
20
2.454
11
1.36758
21
2.45304
0
LINE
8
BLACK
6
CONTINUOUS
10
1.36758
20
2.45304
11
1.36459
21
2.45365
0
LINE
8
BLACK
6
CONTINUOUS
10
1.36459
20
2.45365
11
1.35896
21
2.45646
0
LINE
8
BLACK
6
CONTINUOUS
10
1.35896
20
2.45646
11
1.35825
21
2.45709
0
LINE
8
BLACK
6
CONTINUOUS
10
1.35825
20
2.45709
11
1.35743
21
2.45757
0
LINE
8
BLACK
6
CONTINUOUS
10
1.35743
20
2.45757
11
1.35626
21
2.45873
0
LINE
8
BLACK
6
CONTINUOUS
10
1.35626
20
2.45873
11
1.35626
21
2.42265
0
LINE
8
BLACK
6
CONTINUOUS
10
1.35626
20
2.42265
11
1.36723
21
2.42265
0
LINE
8
BLACK
6
CONTINUOUS
10
1.36723
20
2.42265
11
1.37018
21
2.42186
0
LINE
8
BLACK
6
CONTINUOUS
10
1.37018
20
2.42186
11
1.37234
21
2.4197
0
LINE
8
BLACK
6
CONTINUOUS
10
1.37234
20
2.4197
11
1.37313
21
2.41675
0
LINE
8
BLACK
6
CONTINUOUS
10
1.37313
20
2.41675
11
1.37234
21
2.4138
0
LINE
8
BLACK
6
CONTINUOUS
10
1.37234
20
2.4138
11
1.37018
21
2.41163
0
LINE
8
BLACK
6
CONTINUOUS
10
1.37018
20
2.41163
11
1.36723
21
2.41084
0
LINE
8
BLACK
6
CONTINUOUS
10
1.36723
20
2.41084
11
1.33348
21
2.41084
0
LINE
8
BLACK
6
CONTINUOUS
10
1.33348
20
2.41084
11
1.33053
21
2.41163
0
LINE
8
BLACK
6
CONTINUOUS
10
2.67865
20
2.32016
11
2.67807
21
2.32156
0
LINE
8
BLACK
6
CONTINUOUS
10
2.67807
20
2.32156
11
2.67807
21
2.55778
0
LINE
8
BLACK
6
CONTINUOUS
10
2.67807
20
2.55778
11
2.67865
21
2.55917
0
LINE
8
BLACK
6
CONTINUOUS
10
2.67865
20
2.55917
11
2.68004
21
2.55974
0
LINE
8
BLACK
6
CONTINUOUS
10
2.68004
20
2.55974
11
3.46941
21
2.55974
0
LINE
8
BLACK
6
CONTINUOUS
10
3.46941
20
2.55974
11
3.4708
21
2.55917
0
LINE
8
BLACK
6
CONTINUOUS
10
3.4708
20
2.55917
11
3.47138
21
2.55778
0
LINE
8
BLACK
6
CONTINUOUS
10
3.47138
20
2.55778
11
3.47138
21
2.32156
0
LINE
8
BLACK
6
CONTINUOUS
10
3.47138
20
2.32156
11
3.4708
21
2.32016
0
LINE
8
BLACK
6
CONTINUOUS
10
3.4708
20
2.32016
11
3.46941
21
2.31959
0
LINE
8
BLACK
6
CONTINUOUS
10
3.46941
20
2.31959
11
2.68004
21
2.31959
0
LINE
8
BLACK
6
CONTINUOUS
10
2.68004
20
2.31959
11
2.67865
21
2.32016
0
LINE
8
BLACK
6
CONTINUOUS
10
2.68201
20
2.55581
11
2.68201
21
2.32352
0
LINE
8
BLACK
6
CONTINUOUS
10
2.68201
20
2.32352
11
3.46744
21
2.32352
0
LINE
8
BLACK
6
CONTINUOUS
10
3.46744
20
2.32352
11
3.46744
21
2.55581
0
LINE
8
BLACK
6
CONTINUOUS
10
3.46744
20
2.55581
11
2.68201
21
2.55581
0
LINE
8
BLACK
6
CONTINUOUS
10
3.06286
20
2.47939
11
3.06419
21
2.47912
0
LINE
8
BLACK
6
CONTINUOUS
10
3.06419
20
2.47912
11
3.06981
21
2.47631
0
LINE
8
BLACK
6
CONTINUOUS
10
3.06981
20
2.47631
11
3.07052
21
2.47567
0
LINE
8
BLACK
6
CONTINUOUS
10
3.07052
20
2.47567
11
3.07135
21
2.4752
0
LINE
8
BLACK
6
CONTINUOUS
10
3.07135
20
2.4752
11
3.07416
21
2.47239
0
LINE
8
BLACK
6
CONTINUOUS
10
3.07416
20
2.47239
11
3.07569
21
2.46974
0
LINE
8
BLACK
6
CONTINUOUS
10
3.07569
20
2.46974
11
3.07569
21
2.46668
0
LINE
8
BLACK
6
CONTINUOUS
10
3.07569
20
2.46668
11
3.07416
21
2.46404
0
LINE
8
BLACK
6
CONTINUOUS
10
3.07416
20
2.46404
11
3.07151
21
2.46251
0
LINE
8
BLACK
6
CONTINUOUS
10
3.07151
20
2.46251
11
3.06845
21
2.46251
0
LINE
8
BLACK
6
CONTINUOUS
10
3.06845
20
2.46251
11
3.06581
21
2.46404
0
LINE
8
BLACK
6
CONTINUOUS
10
3.06581
20
2.46404
11
3.06367
21
2.46617
0
LINE
8
BLACK
6
CONTINUOUS
10
3.06367
20
2.46617
11
3.06015
21
2.46793
0
LINE
8
BLACK
6
CONTINUOUS
10
3.06015
20
2.46793
11
3.04888
21
2.46793
0
LINE
8
BLACK
6
CONTINUOUS
10
3.04888
20
2.46793
11
3.04536
21
2.46617
0
LINE
8
BLACK
6
CONTINUOUS
10
3.04536
20
2.46617
11
3.0439
21
2.46471
0
LINE
8
BLACK
6
CONTINUOUS
10
3.0439
20
2.46471
11
3.04214
21
2.46119
0
LINE
8
BLACK
6
CONTINUOUS
10
3.04214
20
2.46119
11
3.04214
21
2.45792
0
LINE
8
BLACK
6
CONTINUOUS
10
3.04214
20
2.45792
11
3.04421
21
2.45172
0
LINE
8
BLACK
6
CONTINUOUS
10
3.04421
20
2.45172
11
3.07697
21
2.41896
0
LINE
8
BLACK
6
CONTINUOUS
10
3.07697
20
2.41896
11
3.07736
21
2.41828
0
LINE
8
BLACK
6
CONTINUOUS
10
3.07736
20
2.41828
11
3.07791
21
2.41773
0
LINE
8
BLACK
6
CONTINUOUS
10
3.07791
20
2.41773
11
3.07811
21
2.41698
0
LINE
8
BLACK
6
CONTINUOUS
10
3.07811
20
2.41698
11
3.0785
21
2.41631
0
LINE
8
BLACK
6
CONTINUOUS
10
3.0785
20
2.41631
11
3.0785
21
2.41553
0
LINE
8
BLACK
6
CONTINUOUS
10
3.0785
20
2.41553
11
3.0787
21
2.41478
0
LINE
8
BLACK
6
CONTINUOUS
10
3.0787
20
2.41478
11
3.0785
21
2.41403
0
LINE
8
BLACK
6
CONTINUOUS
10
3.0785
20
2.41403
11
3.0785
21
2.41325
0
LINE
8
BLACK
6
CONTINUOUS
10
3.0785
20
2.41325
11
3.07811
21
2.41258
0
LINE
8
BLACK
6
CONTINUOUS
10
3.07811
20
2.41258
11
3.07791
21
2.41183
0
LINE
8
BLACK
6
CONTINUOUS
10
3.07791
20
2.41183
11
3.07736
21
2.41128
0
LINE
8
BLACK
6
CONTINUOUS
10
3.07736
20
2.41128
11
3.07697
21
2.4106
0
LINE
8
BLACK
6
CONTINUOUS
10
3.07697
20
2.4106
11
3.0763
21
2.41022
0
LINE
8
BLACK
6
CONTINUOUS
10
3.0763
20
2.41022
11
3.07575
21
2.40967
0
LINE
8
BLACK
6
CONTINUOUS
10
3.07575
20
2.40967
11
3.075
21
2.40947
0
LINE
8
BLACK
6
CONTINUOUS
10
3.075
20
2.40947
11
3.07432
21
2.40908
0
LINE
8
BLACK
6
CONTINUOUS
10
3.07432
20
2.40908
11
3.07355
21
2.40908
0
LINE
8
BLACK
6
CONTINUOUS
10
3.07355
20
2.40908
11
3.0728
21
2.40888
0
LINE
8
BLACK
6
CONTINUOUS
10
3.0728
20
2.40888
11
3.03624
21
2.40888
0
LINE
8
BLACK
6
CONTINUOUS
10
3.03624
20
2.40888
11
3.03328
21
2.40967
0
LINE
8
BLACK
6
CONTINUOUS
10
3.03328
20
2.40967
11
3.03112
21
2.41183
0
LINE
8
BLACK
6
CONTINUOUS
10
3.03112
20
2.41183
11
3.03033
21
2.41478
0
LINE
8
BLACK
6
CONTINUOUS
10
3.03033
20
2.41478
11
3.03112
21
2.41773
0
LINE
8
BLACK
6
CONTINUOUS
10
3.03112
20
2.41773
11
3.03328
21
2.41989
0
LINE
8
BLACK
6
CONTINUOUS
10
3.03328
20
2.41989
11
3.03624
21
2.42069
0
LINE
8
BLACK
6
CONTINUOUS
10
3.03624
20
2.42069
11
3.05854
21
2.42069
0
LINE
8
BLACK
6
CONTINUOUS
10
3.05854
20
2.42069
11
3.03487
21
2.44435
0
LINE
8
BLACK
6
CONTINUOUS
10
3.03487
20
2.44435
11
3.03419
21
2.44553
0
LINE
8
BLACK
6
CONTINUOUS
10
3.03419
20
2.44553
11
3.03345
21
2.44666
0
LINE
8
BLACK
6
CONTINUOUS
10
3.03345
20
2.44666
11
3.03063
21
2.4551
0
LINE
8
BLACK
6
CONTINUOUS
10
3.03063
20
2.4551
11
3.03058
21
2.45604
0
LINE
8
BLACK
6
CONTINUOUS
10
3.03058
20
2.45604
11
3.03033
21
2.45696
0
LINE
8
BLACK
6
CONTINUOUS
10
3.03033
20
2.45696
11
3.03033
21
2.46259
0
LINE
8
BLACK
6
CONTINUOUS
10
3.03033
20
2.46259
11
3.03068
21
2.4639
0
LINE
8
BLACK
6
CONTINUOUS
10
3.03068
20
2.4639
11
3.03096
21
2.46523
0
LINE
8
BLACK
6
CONTINUOUS
10
3.03096
20
2.46523
11
3.03377
21
2.47085
0
LINE
8
BLACK
6
CONTINUOUS
10
3.03377
20
2.47085
11
3.0344
21
2.47156
0
LINE
8
BLACK
6
CONTINUOUS
10
3.0344
20
2.47156
11
3.03487
21
2.47239
0
LINE
8
BLACK
6
CONTINUOUS
10
3.03487
20
2.47239
11
3.03769
21
2.4752
0
LINE
8
BLACK
6
CONTINUOUS
10
3.03769
20
2.4752
11
3.03851
21
2.47567
0
LINE
8
BLACK
6
CONTINUOUS
10
3.03851
20
2.47567
11
3.03922
21
2.47631
0
LINE
8
BLACK
6
CONTINUOUS
10
3.03922
20
2.47631
11
3.04484
21
2.47912
0
LINE
8
BLACK
6
CONTINUOUS
10
3.04484
20
2.47912
11
3.04617
21
2.47939
0
LINE
8
BLACK
6
CONTINUOUS
10
3.04617
20
2.47939
11
3.04749
21
2.47974
0
LINE
8
BLACK
6
CONTINUOUS
10
3.04749
20
2.47974
11
3.06155
21
2.47974
0
LINE
8
BLACK
6
CONTINUOUS
10
3.06155
20
2.47974
11
3.06286
21
2.47939
0
LINE
8
BLACK
6
CONTINUOUS
10
3.12918
20
2.47895
11
3.13134
21
2.47679
0
LINE
8
BLACK
6
CONTINUOUS
10
3.13134
20
2.47679
11
3.13213
21
2.47384
0
LINE
8
BLACK
6
CONTINUOUS
10
3.13213
20
2.47384
11
3.13213
21
2.41478
0
LINE
8
BLACK
6
CONTINUOUS
10
3.13213
20
2.41478
11
3.13134
21
2.41183
0
LINE
8
BLACK
6
CONTINUOUS
10
3.13134
20
2.41183
11
3.12918
21
2.40967
0
LINE
8
BLACK
6
CONTINUOUS
10
3.12918
20
2.40967
11
3.12623
21
2.40888
0
LINE
8
BLACK
6
CONTINUOUS
10
3.12623
20
2.40888
11
3.12327
21
2.40967
0
LINE
8
BLACK
6
CONTINUOUS
10
3.12327
20
2.40967
11
3.12111
21
2.41183
0
LINE
8
BLACK
6
CONTINUOUS
10
3.12111
20
2.41183
11
3.12032
21
2.41478
0
LINE
8
BLACK
6
CONTINUOUS
10
3.12032
20
2.41478
11
3.12032
21
2.437
0
LINE
8
BLACK
6
CONTINUOUS
10
3.12032
20
2.437
11
3.10373
21
2.437
0
LINE
8
BLACK
6
CONTINUOUS
10
3.10373
20
2.437
11
3.10242
21
2.43735
0
LINE
8
BLACK
6
CONTINUOUS
10
3.10242
20
2.43735
11
3.10109
21
2.43762
0
LINE
8
BLACK
6
CONTINUOUS
10
3.10109
20
2.43762
11
3.09546
21
2.44043
0
LINE
8
BLACK
6
CONTINUOUS
10
3.09546
20
2.44043
11
3.09475
21
2.44106
0
LINE
8
BLACK
6
CONTINUOUS
10
3.09475
20
2.44106
11
3.09393
21
2.44154
0
LINE
8
BLACK
6
CONTINUOUS
10
3.09393
20
2.44154
11
3.09112
21
2.44435
0
LINE
8
BLACK
6
CONTINUOUS
10
3.09112
20
2.44435
11
3.09064
21
2.44517
0
LINE
8
BLACK
6
CONTINUOUS
10
3.09064
20
2.44517
11
3.09001
21
2.44589
0
LINE
8
BLACK
6
CONTINUOUS
10
3.09001
20
2.44589
11
3.0872
21
2.45151
0
LINE
8
BLACK
6
CONTINUOUS
10
3.0872
20
2.45151
11
3.08693
21
2.45284
0
LINE
8
BLACK
6
CONTINUOUS
10
3.08693
20
2.45284
11
3.08657
21
2.45415
0
LINE
8
BLACK
6
CONTINUOUS
10
3.08657
20
2.45415
11
3.08657
21
2.46259
0
LINE
8
BLACK
6
CONTINUOUS
10
3.08657
20
2.46259
11
3.08693
21
2.4639
0
LINE
8
BLACK
6
CONTINUOUS
10
3.08693
20
2.4639
11
3.0872
21
2.46523
0
LINE
8
BLACK
6
CONTINUOUS
10
3.0872
20
2.46523
11
3.09001
21
2.47085
0
LINE
8
BLACK
6
CONTINUOUS
10
3.09001
20
2.47085
11
3.09064
21
2.47156
0
LINE
8
BLACK
6
CONTINUOUS
10
3.09064
20
2.47156
11
3.09112
21
2.47239
0
LINE
8
BLACK
6
CONTINUOUS
10
3.09112
20
2.47239
11
3.09393
21
2.4752
0
LINE
8
BLACK
6
CONTINUOUS
10
3.09393
20
2.4752
11
3.09475
21
2.47567
0
LINE
8
BLACK
6
CONTINUOUS
10
3.09475
20
2.47567
11
3.09546
21
2.47631
0
LINE
8
BLACK
6
CONTINUOUS
10
3.09546
20
2.47631
11
3.10109
21
2.47912
0
LINE
8
BLACK
6
CONTINUOUS
10
3.10109
20
2.47912
11
3.10242
21
2.47939
0
LINE
8
BLACK
6
CONTINUOUS
10
3.10242
20
2.47939
11
3.10373
21
2.47974
0
LINE
8
BLACK
6
CONTINUOUS
10
3.10373
20
2.47974
11
3.12623
21
2.47974
0
LINE
8
BLACK
6
CONTINUOUS
10
3.12623
20
2.47974
11
3.12918
21
2.47895
0
LINE
8
BLACK
6
CONTINUOUS
10
3.10512
20
2.46793
11
3.1016
21
2.46617
0
LINE
8
BLACK
6
CONTINUOUS
10
3.1016
20
2.46617
11
3.10015
21
2.46471
0
LINE
8
BLACK
6
CONTINUOUS
10
3.10015
20
2.46471
11
3.09839
21
2.46119
0
LINE
8
BLACK
6
CONTINUOUS
10
3.09839
20
2.46119
11
3.09839
21
2.45554
0
LINE
8
BLACK
6
CONTINUOUS
10
3.09839
20
2.45554
11
3.10015
21
2.45202
0
LINE
8
BLACK
6
CONTINUOUS
10
3.10015
20
2.45202
11
3.1016
21
2.45057
0
LINE
8
BLACK
6
CONTINUOUS
10
3.1016
20
2.45057
11
3.10512
21
2.44881
0
LINE
8
BLACK
6
CONTINUOUS
10
3.10512
20
2.44881
11
3.12032
21
2.44881
0
LINE
8
BLACK
6
CONTINUOUS
10
3.12032
20
2.44881
11
3.12032
21
2.46793
0
LINE
8
BLACK
6
CONTINUOUS
10
3.12032
20
2.46793
11
3.10512
21
2.46793
0
LINE
8
BLACK
6
CONTINUOUS
10
1.85128
20
2.794
11
1.85059
21
2.79567
0
LINE
8
BLACK
6
CONTINUOUS
10
1.85059
20
2.79567
11
1.85059
21
3.28189
0
LINE
8
BLACK
6
CONTINUOUS
10
1.85059
20
3.28189
11
1.85089
21
3.28262
0
LINE
8
BLACK
6
CONTINUOUS
10
1.85089
20
3.28262
11
1.85112
21
3.28339
0
LINE
8
BLACK
6
CONTINUOUS
10
1.85112
20
3.28339
11
1.86884
21
3.30504
0
LINE
8
BLACK
6
CONTINUOUS
10
1.86884
20
3.30504
11
1.86895
21
3.3051
0
LINE
8
BLACK
6
CONTINUOUS
10
1.86895
20
3.3051
11
1.869
21
3.30521
0
LINE
8
BLACK
6
CONTINUOUS
10
1.869
20
3.30521
11
1.86973
21
3.30552
0
LINE
8
BLACK
6
CONTINUOUS
10
1.86973
20
3.30552
11
1.87043
21
3.30589
0
LINE
8
BLACK
6
CONTINUOUS
10
1.87043
20
3.30589
11
1.87055
21
3.30586
0
LINE
8
BLACK
6
CONTINUOUS
10
1.87055
20
3.30586
11
1.87067
21
3.30591
0
LINE
8
BLACK
6
CONTINUOUS
10
1.87067
20
3.30591
11
2.59508
21
3.30591
0
LINE
8
BLACK
6
CONTINUOUS
10
2.59508
20
3.30591
11
2.59675
21
3.30521
0
LINE
8
BLACK
6
CONTINUOUS
10
2.59675
20
3.30521
11
2.59744
21
3.30354
0
LINE
8
BLACK
6
CONTINUOUS
10
2.59744
20
3.30354
11
2.59744
21
2.79567
0
LINE
8
BLACK
6
CONTINUOUS
10
2.59744
20
2.79567
11
2.59675
21
2.794
0
LINE
8
BLACK
6
CONTINUOUS
10
2.59675
20
2.794
11
2.59508
21
2.79331
0
LINE
8
BLACK
6
CONTINUOUS
10
2.59508
20
2.79331
11
1.85295
21
2.79331
0
LINE
8
BLACK
6
CONTINUOUS
10
1.85295
20
2.79331
11
1.85128
21
2.794
0
LINE
8
BLACK
6
CONTINUOUS
10
1.87179
20
3.30118
11
1.85531
21
3.28105
0
LINE
8
BLACK
6
CONTINUOUS
10
1.85531
20
3.28105
11
1.85531
21
2.79803
0
LINE
8
BLACK
6
CONTINUOUS
10
1.85531
20
2.79803
11
2.59272
21
2.79803
0
LINE
8
BLACK
6
CONTINUOUS
10
2.59272
20
2.79803
11
2.59272
21
3.30118
0
LINE
8
BLACK
6
CONTINUOUS
10
2.59272
20
3.30118
11
1.87179
21
3.30118
0
LINE
8
BLACK
6
CONTINUOUS
10
2.21386
20
3.07409
11
2.21393
21
3.07411
0
LINE
8
BLACK
6
CONTINUOUS
10
2.21393
20
3.07411
11
2.21404
21
3.07406
0
LINE
8
BLACK
6
CONTINUOUS
10
2.21404
20
3.07406
11
2.21471
21
3.07394
0
LINE
8
BLACK
6
CONTINUOUS
10
2.21471
20
3.07394
11
2.21519
21
3.07354
0
LINE
8
BLACK
6
CONTINUOUS
10
2.21519
20
3.07354
11
2.21577
21
3.07328
0
LINE
8
BLACK
6
CONTINUOUS
10
2.21577
20
3.07328
11
2.21595
21
3.07291
0
LINE
8
BLACK
6
CONTINUOUS
10
2.21595
20
3.07291
11
2.21626
21
3.07264
0
LINE
8
BLACK
6
CONTINUOUS
10
2.21626
20
3.07264
11
2.21637
21
3.07202
0
LINE
8
BLACK
6
CONTINUOUS
10
2.21637
20
3.07202
11
2.21664
21
3.07146
0
LINE
8
BLACK
6
CONTINUOUS
10
2.21664
20
3.07146
11
2.21852
21
3.05271
0
LINE
8
BLACK
6
CONTINUOUS
10
2.21852
20
3.05271
11
2.21844
21
3.05169
0
LINE
8
BLACK
6
CONTINUOUS
10
2.21844
20
3.05169
11
2.21843
21
3.05167
0
LINE
8
BLACK
6
CONTINUOUS
10
2.21843
20
3.05167
11
2.21843
21
3.05165
0
LINE
8
BLACK
6
CONTINUOUS
10
2.21843
20
3.05165
11
2.21786
21
3.05084
0
LINE
8
BLACK
6
CONTINUOUS
10
2.21786
20
3.05084
11
2.2173
21
3.05002
0
LINE
8
BLACK
6
CONTINUOUS
10
2.2173
20
3.05002
11
2.21728
21
3.05002
0
LINE
8
BLACK
6
CONTINUOUS
10
2.21728
20
3.05002
11
2.21727
21
3.05
0
LINE
8
BLACK
6
CONTINUOUS
10
2.21727
20
3.05
11
2.21631
21
3.04974
0
LINE
8
BLACK
6
CONTINUOUS
10
2.21631
20
3.04974
11
2.21536
21
3.04947
0
LINE
8
BLACK
6
CONTINUOUS
10
2.21536
20
3.04947
11
2.21534
21
3.04948
0
LINE
8
BLACK
6
CONTINUOUS
10
2.21534
20
3.04948
11
2.21532
21
3.04948
0
LINE
8
BLACK
6
CONTINUOUS
10
2.21532
20
3.04948
11
2.21442
21
3.0499
0
LINE
8
BLACK
6
CONTINUOUS
10
2.21442
20
3.0499
11
2.21352
21
3.0503
0
LINE
8
BLACK
6
CONTINUOUS
10
2.21352
20
3.0503
11
2.21351
21
3.05032
0
LINE
8
BLACK
6
CONTINUOUS
10
2.21351
20
3.05032
11
2.21349
21
3.05033
0
LINE
8
BLACK
6
CONTINUOUS
10
2.21349
20
3.05033
11
2.21196
21
3.05187
0
LINE
8
BLACK
6
CONTINUOUS
10
2.21196
20
3.05187
11
2.20926
21
3.05322
0
LINE
8
BLACK
6
CONTINUOUS
10
2.20926
20
3.05322
11
2.20128
21
3.05322
0
LINE
8
BLACK
6
CONTINUOUS
10
2.20128
20
3.05322
11
2.19858
21
3.05187
0
LINE
8
BLACK
6
CONTINUOUS
10
2.19858
20
3.05187
11
2.19738
21
3.05067
0
LINE
8
BLACK
6
CONTINUOUS
10
2.19738
20
3.05067
11
2.19603
21
3.04797
0
LINE
8
BLACK
6
CONTINUOUS
10
2.19603
20
3.04797
11
2.19603
21
3.03999
0
LINE
8
BLACK
6
CONTINUOUS
10
2.19603
20
3.03999
11
2.19738
21
3.03729
0
LINE
8
BLACK
6
CONTINUOUS
10
2.19738
20
3.03729
11
2.19858
21
3.0361
0
LINE
8
BLACK
6
CONTINUOUS
10
2.19858
20
3.0361
11
2.20128
21
3.03475
0
LINE
8
BLACK
6
CONTINUOUS
10
2.20128
20
3.03475
11
2.20926
21
3.03475
0
LINE
8
BLACK
6
CONTINUOUS
10
2.20926
20
3.03475
11
2.21196
21
3.0361
0
LINE
8
BLACK
6
CONTINUOUS
10
2.21196
20
3.0361
11
2.21349
21
3.03763
0
LINE
8
BLACK
6
CONTINUOUS
10
2.21349
20
3.03763
11
2.21433
21
3.03822
0
LINE
8
BLACK
6
CONTINUOUS
10
2.21433
20
3.03822
11
2.21634
21
3.0384
0
LINE
8
BLACK
6
CONTINUOUS
10
2.21634
20
3.0384
11
2.218
21
3.03724
0
LINE
8
BLACK
6
CONTINUOUS
10
2.218
20
3.03724
11
2.21852
21
3.03529
0
LINE
8
BLACK
6
CONTINUOUS
10
2.21852
20
3.03529
11
2.21767
21
3.03346
0
LINE
8
BLACK
6
CONTINUOUS
10
2.21767
20
3.03346
11
2.21579
21
3.03158
0
LINE
8
BLACK
6
CONTINUOUS
10
2.21579
20
3.03158
11
2.21507
21
3.03108
0
LINE
8
BLACK
6
CONTINUOUS
10
2.21507
20
3.03108
11
2.21503
21
3.03103
0
LINE
8
BLACK
6
CONTINUOUS
10
2.21503
20
3.03103
11
2.21128
21
3.02915
0
LINE
8
BLACK
6
CONTINUOUS
10
2.21128
20
3.02915
11
2.21029
21
3.02886
0
LINE
8
BLACK
6
CONTINUOUS
10
2.21029
20
3.02886
11
2.21012
21
3.0289
0
LINE
8
BLACK
6
CONTINUOUS
10
2.21012
20
3.0289
11
2.20995
21
3.02884
0
LINE
8
BLACK
6
CONTINUOUS
10
2.20995
20
3.02884
11
2.20058
21
3.02884
0
LINE
8
BLACK
6
CONTINUOUS
10
2.20058
20
3.02884
11
2.19957
21
3.02902
0
LINE
8
BLACK
6
CONTINUOUS
10
2.19957
20
3.02902
11
2.19944
21
3.02913
0
LINE
8
BLACK
6
CONTINUOUS
10
2.19944
20
3.02913
11
2.19926
21
3.02915
0
LINE
8
BLACK
6
CONTINUOUS
10
2.19926
20
3.02915
11
2.19551
21
3.03103
0
LINE
8
BLACK
6
CONTINUOUS
10
2.19551
20
3.03103
11
2.1948
21
3.03156
0
LINE
8
BLACK
6
CONTINUOUS
10
2.1948
20
3.03156
11
2.19474
21
3.03158
0
LINE
8
BLACK
6
CONTINUOUS
10
2.19474
20
3.03158
11
2.19287
21
3.03346
0
LINE
8
BLACK
6
CONTINUOUS
10
2.19287
20
3.03346
11
2.19236
21
3.03418
0
LINE
8
BLACK
6
CONTINUOUS
10
2.19236
20
3.03418
11
2.19232
21
3.03422
0
LINE
8
BLACK
6
CONTINUOUS
10
2.19232
20
3.03422
11
2.19044
21
3.03797
0
LINE
8
BLACK
6
CONTINUOUS
10
2.19044
20
3.03797
11
2.19015
21
3.03896
0
LINE
8
BLACK
6
CONTINUOUS
10
2.19015
20
3.03896
11
2.19019
21
3.03913
0
LINE
8
BLACK
6
CONTINUOUS
10
2.19019
20
3.03913
11
2.19013
21
3.03929
0
LINE
8
BLACK
6
CONTINUOUS
10
2.19013
20
3.03929
11
2.19013
21
3.04867
0
LINE
8
BLACK
6
CONTINUOUS
10
2.19013
20
3.04867
11
2.19031
21
3.04968
0
LINE
8
BLACK
6
CONTINUOUS
10
2.19031
20
3.04968
11
2.19042
21
3.04981
0
LINE
8
BLACK
6
CONTINUOUS
10
2.19042
20
3.04981
11
2.19044
21
3.04999
0
LINE
8
BLACK
6
CONTINUOUS
10
2.19044
20
3.04999
11
2.19232
21
3.05374
0
LINE
8
BLACK
6
CONTINUOUS
10
2.19232
20
3.05374
11
2.19284
21
3.05445
0
LINE
8
BLACK
6
CONTINUOUS
10
2.19284
20
3.05445
11
2.19287
21
3.05451
0
LINE
8
BLACK
6
CONTINUOUS
10
2.19287
20
3.05451
11
2.19474
21
3.05638
0
LINE
8
BLACK
6
CONTINUOUS
10
2.19474
20
3.05638
11
2.19547
21
3.05689
0
LINE
8
BLACK
6
CONTINUOUS
10
2.19547
20
3.05689
11
2.19551
21
3.05693
0
LINE
8
BLACK
6
CONTINUOUS
10
2.19551
20
3.05693
11
2.19926
21
3.05881
0
LINE
8
BLACK
6
CONTINUOUS
10
2.19926
20
3.05881
11
2.20024
21
3.0591
0
LINE
8
BLACK
6
CONTINUOUS
10
2.20024
20
3.0591
11
2.20042
21
3.05906
0
LINE
8
BLACK
6
CONTINUOUS
10
2.20042
20
3.05906
11
2.20058
21
3.05912
0
LINE
8
BLACK
6
CONTINUOUS
10
2.20058
20
3.05912
11
2.20995
21
3.05912
0
LINE
8
BLACK
6
CONTINUOUS
10
2.20995
20
3.05912
11
2.21096
21
3.05894
0
LINE
8
BLACK
6
CONTINUOUS
10
2.21096
20
3.05894
11
2.2111
21
3.05883
0
LINE
8
BLACK
6
CONTINUOUS
10
2.2111
20
3.05883
11
2.21128
21
3.05881
0
LINE
8
BLACK
6
CONTINUOUS
10
2.21128
20
3.05881
11
2.21201
21
3.05844
0
LINE
8
BLACK
6
CONTINUOUS
10
2.21201
20
3.05844
11
2.21103
21
3.06821
0
LINE
8
BLACK
6
CONTINUOUS
10
2.21103
20
3.06821
11
2.19496
21
3.06821
0
LINE
8
BLACK
6
CONTINUOUS
10
2.19496
20
3.06821
11
2.19395
21
3.06839
0
LINE
8
BLACK
6
CONTINUOUS
10
2.19395
20
3.06839
11
2.1924
21
3.06969
0
LINE
8
BLACK
6
CONTINUOUS
10
2.1924
20
3.06969
11
2.19205
21
3.07168
0
LINE
8
BLACK
6
CONTINUOUS
10
2.19205
20
3.07168
11
2.19306
21
3.07343
0
LINE
8
BLACK
6
CONTINUOUS
10
2.19306
20
3.07343
11
2.19496
21
3.07412
0
LINE
8
BLACK
6
CONTINUOUS
10
2.19496
20
3.07412
11
2.2137
21
3.07412
0
LINE
8
BLACK
6
CONTINUOUS
10
2.2137
20
3.07412
11
2.21386
21
3.07409
0
LINE
8
BLACK
6
CONTINUOUS
10
2.25346
20
3.07405
11
2.25359
21
3.07407
0
LINE
8
BLACK
6
CONTINUOUS
10
2.25359
20
3.07407
11
2.2537
21
3.07401
0
LINE
8
BLACK
6
CONTINUOUS
10
2.2537
20
3.07401
11
2.25408
21
3.07394
0
LINE
8
BLACK
6
CONTINUOUS
10
2.25408
20
3.07394
11
2.25467
21
3.07345
0
LINE
8
BLACK
6
CONTINUOUS
10
2.25467
20
3.07345
11
2.25534
21
3.07306
0
LINE
8
BLACK
6
CONTINUOUS
10
2.25534
20
3.07306
11
2.25543
21
3.07281
0
LINE
8
BLACK
6
CONTINUOUS
10
2.25543
20
3.07281
11
2.25563
21
3.07264
0
LINE
8
BLACK
6
CONTINUOUS
10
2.25563
20
3.07264
11
2.25576
21
3.07189
0
LINE
8
BLACK
6
CONTINUOUS
10
2.25576
20
3.07189
11
2.25603
21
3.07117
0
LINE
8
BLACK
6
CONTINUOUS
10
2.25603
20
3.07117
11
2.25603
21
3.0318
0
LINE
8
BLACK
6
CONTINUOUS
10
2.25603
20
3.0318
11
2.25585
21
3.03079
0
LINE
8
BLACK
6
CONTINUOUS
10
2.25585
20
3.03079
11
2.25455
21
3.02924
0
LINE
8
BLACK
6
CONTINUOUS
10
2.25455
20
3.02924
11
2.25256
21
3.02889
0
LINE
8
BLACK
6
CONTINUOUS
10
2.25256
20
3.02889
11
2.25081
21
3.0299
0
LINE
8
BLACK
6
CONTINUOUS
10
2.25081
20
3.0299
11
2.25012
21
3.0318
0
LINE
8
BLACK
6
CONTINUOUS
10
2.25012
20
3.0318
11
2.25012
21
3.04759
0
LINE
8
BLACK
6
CONTINUOUS
10
2.25012
20
3.04759
11
2.23808
21
3.04759
0
LINE
8
BLACK
6
CONTINUOUS
10
2.23808
20
3.04759
11
2.23707
21
3.04777
0
LINE
8
BLACK
6
CONTINUOUS
10
2.23707
20
3.04777
11
2.23693
21
3.04788
0
LINE
8
BLACK
6
CONTINUOUS
10
2.23693
20
3.04788
11
2.23676
21
3.0479
0
LINE
8
BLACK
6
CONTINUOUS
10
2.23676
20
3.0479
11
2.23301
21
3.04978
0
LINE
8
BLACK
6
CONTINUOUS
10
2.23301
20
3.04978
11
2.2323
21
3.0503
0
LINE
8
BLACK
6
CONTINUOUS
10
2.2323
20
3.0503
11
2.23224
21
3.05033
0
LINE
8
BLACK
6
CONTINUOUS
10
2.23224
20
3.05033
11
2.23036
21
3.05221
0
LINE
8
BLACK
6
CONTINUOUS
10
2.23036
20
3.05221
11
2.22986
21
3.05293
0
LINE
8
BLACK
6
CONTINUOUS
10
2.22986
20
3.05293
11
2.22981
21
3.05297
0
LINE
8
BLACK
6
CONTINUOUS
10
2.22981
20
3.05297
11
2.22794
21
3.05672
0
LINE
8
BLACK
6
CONTINUOUS
10
2.22794
20
3.05672
11
2.22764
21
3.0577
0
LINE
8
BLACK
6
CONTINUOUS
10
2.22764
20
3.0577
11
2.22769
21
3.05788
0
LINE
8
BLACK
6
CONTINUOUS
10
2.22769
20
3.05788
11
2.22762
21
3.05804
0
LINE
8
BLACK
6
CONTINUOUS
10
2.22762
20
3.05804
11
2.22762
21
3.06367
0
LINE
8
BLACK
6
CONTINUOUS
10
2.22762
20
3.06367
11
2.2278
21
3.06468
0
LINE
8
BLACK
6
CONTINUOUS
10
2.2278
20
3.06468
11
2.22792
21
3.06481
0
LINE
8
BLACK
6
CONTINUOUS
10
2.22792
20
3.06481
11
2.22794
21
3.06499
0
LINE
8
BLACK
6
CONTINUOUS
10
2.22794
20
3.06499
11
2.22981
21
3.06874
0
LINE
8
BLACK
6
CONTINUOUS
10
2.22981
20
3.06874
11
2.23034
21
3.06945
0
LINE
8
BLACK
6
CONTINUOUS
10
2.23034
20
3.06945
11
2.23036
21
3.0695
0
LINE
8
BLACK
6
CONTINUOUS
10
2.23036
20
3.0695
11
2.23224
21
3.07138
0
LINE
8
BLACK
6
CONTINUOUS
10
2.23224
20
3.07138
11
2.23296
21
3.07189
0
LINE
8
BLACK
6
CONTINUOUS
10
2.23296
20
3.07189
11
2.23301
21
3.07193
0
LINE
8
BLACK
6
CONTINUOUS
10
2.23301
20
3.07193
11
2.23676
21
3.07381
0
LINE
8
BLACK
6
CONTINUOUS
10
2.23676
20
3.07381
11
2.23774
21
3.0741
0
LINE
8
BLACK
6
CONTINUOUS
10
2.23774
20
3.0741
11
2.23791
21
3.07406
0
LINE
8
BLACK
6
CONTINUOUS
10
2.23791
20
3.07406
11
2.23808
21
3.07412
0
LINE
8
BLACK
6
CONTINUOUS
10
2.23808
20
3.07412
11
2.25307
21
3.07412
0
LINE
8
BLACK
6
CONTINUOUS
10
2.25307
20
3.07412
11
2.25346
21
3.07405
0
LINE
8
BLACK
6
CONTINUOUS
10
2.23877
20
3.06821
11
2.23608
21
3.06686
0
LINE
8
BLACK
6
CONTINUOUS
10
2.23608
20
3.06686
11
2.23488
21
3.06567
0
LINE
8
BLACK
6
CONTINUOUS
10
2.23488
20
3.06567
11
2.23353
21
3.06297
0
LINE
8
BLACK
6
CONTINUOUS
10
2.23353
20
3.06297
11
2.23353
21
3.05874
0
LINE
8
BLACK
6
CONTINUOUS
10
2.23353
20
3.05874
11
2.23488
21
3.05604
0
LINE
8
BLACK
6
CONTINUOUS
10
2.23488
20
3.05604
11
2.23608
21
3.05484
0
LINE
8
BLACK
6
CONTINUOUS
10
2.23608
20
3.05484
11
2.23877
21
3.0535
0
LINE
8
BLACK
6
CONTINUOUS
10
2.23877
20
3.0535
11
2.25012
21
3.0535
0
LINE
8
BLACK
6
CONTINUOUS
10
2.25012
20
3.0535
11
2.25012
21
3.06821
0
LINE
8
BLACK
6
CONTINUOUS
10
2.25012
20
3.06821
11
2.23877
21
3.06821
0
LINE
8
BLACK
6
CONTINUOUS
10
0.101282
20
2.794
11
0.100591
21
2.79567
0
LINE
8
BLACK
6
CONTINUOUS
10
0.100591
20
2.79567
11
0.100591
21
3.28189
0
LINE
8
BLACK
6
CONTINUOUS
10
0.100591
20
3.28189
11
0.100895
21
3.28262
0
LINE
8
BLACK
6
CONTINUOUS
10
0.100895
20
3.28262
11
0.101125
21
3.28339
0
LINE
8
BLACK
6
CONTINUOUS
10
0.101125
20
3.28339
11
0.118841
21
3.30504
0
LINE
8
BLACK
6
CONTINUOUS
10
0.118841
20
3.30504
11
0.118951
21
3.3051
0
LINE
8
BLACK
6
CONTINUOUS
10
0.118951
20
3.3051
11
0.118999
21
3.30521
0
LINE
8
BLACK
6
CONTINUOUS
10
0.118999
20
3.30521
11
0.119733
21
3.30552
0
LINE
8
BLACK
6
CONTINUOUS
10
0.119733
20
3.30552
11
0.120434
21
3.30589
0
LINE
8
BLACK
6
CONTINUOUS
10
0.120434
20
3.30589
11
0.120554
21
3.30586
0
LINE
8
BLACK
6
CONTINUOUS
10
0.120554
20
3.30586
11
0.120669
21
3.30591
0
LINE
8
BLACK
6
CONTINUOUS
10
0.120669
20
3.30591
11
0.845079
21
3.30591
0
LINE
8
BLACK
6
CONTINUOUS
10
0.845079
20
3.30591
11
0.846749
21
3.30521
0
LINE
8
BLACK
6
CONTINUOUS
10
0.846749
20
3.30521
11
0.847441
21
3.30354
0
LINE
8
BLACK
6
CONTINUOUS
10
0.847441
20
3.30354
11
0.847441
21
2.79567
0
LINE
8
BLACK
6
CONTINUOUS
10
0.847441
20
2.79567
11
0.846749
21
2.794
0
LINE
8
BLACK
6
CONTINUOUS
10
0.846749
20
2.794
11
0.845079
21
2.79331
0
LINE
8
BLACK
6
CONTINUOUS
10
0.845079
20
2.79331
11
0.102953
21
2.79331
0
LINE
8
BLACK
6
CONTINUOUS
10
0.102953
20
2.79331
11
0.101282
21
2.794
0
LINE
8
BLACK
6
CONTINUOUS
10
0.121789
20
3.30118
11
0.105315
21
3.28105
0
LINE
8
BLACK
6
CONTINUOUS
10
0.105315
20
3.28105
11
0.105315
21
2.79803
0
LINE
8
BLACK
6
CONTINUOUS
10
0.105315
20
2.79803
11
0.842717
21
2.79803
0
LINE
8
BLACK
6
CONTINUOUS
10
0.842717
20
2.79803
11
0.842717
21
3.30118
0
LINE
8
BLACK
6
CONTINUOUS
10
0.842717
20
3.30118
11
0.121789
21
3.30118
0
LINE
8
BLACK
6
CONTINUOUS
10
0.455341
20
3.07394
11
0.455476
21
3.07383
0
LINE
8
BLACK
6
CONTINUOUS
10
0.455476
20
3.07383
11
0.455651
21
3.07381
0
LINE
8
BLACK
6
CONTINUOUS
10
0.455651
20
3.07381
11
0.459401
21
3.07193
0
LINE
8
BLACK
6
CONTINUOUS
10
0.459401
20
3.07193
11
0.46011
21
3.07141
0
LINE
8
BLACK
6
CONTINUOUS
10
0.46011
20
3.07141
11
0.460168
21
3.07138
0
LINE
8
BLACK
6
CONTINUOUS
10
0.460168
20
3.07138
11
0.462043
21
3.0695
0
LINE
8
BLACK
6
CONTINUOUS
10
0.462043
20
3.0695
11
0.462301
21
3.06914
0
LINE
8
BLACK
6
CONTINUOUS
10
0.462301
20
3.06914
11
0.462412
21
3.06905
0
LINE
8
BLACK
6
CONTINUOUS
10
0.462412
20
3.06905
11
0.466161
21
3.06343
0
LINE
8
BLACK
6
CONTINUOUS
10
0.466161
20
3.06343
11
0.46656
21
3.06252
0
LINE
8
BLACK
6
CONTINUOUS
10
0.46656
20
3.06252
11
0.466569
21
3.06251
0
LINE
8
BLACK
6
CONTINUOUS
10
0.466569
20
3.06251
11
0.468444
21
3.05501
0
LINE
8
BLACK
6
CONTINUOUS
10
0.468444
20
3.05501
11
0.468485
21
3.05442
0
LINE
8
BLACK
6
CONTINUOUS
10
0.468485
20
3.05442
11
0.468532
21
3.05429
0
LINE
8
BLACK
6
CONTINUOUS
10
0.468532
20
3.05429
11
0.468532
21
3.03929
0
LINE
8
BLACK
6
CONTINUOUS
10
0.468532
20
3.03929
11
0.468354
21
3.03829
0
LINE
8
BLACK
6
CONTINUOUS
10
0.468354
20
3.03829
11
0.468241
21
3.03815
0
LINE
8
BLACK
6
CONTINUOUS
10
0.468241
20
3.03815
11
0.46822
21
3.03797
0
LINE
8
BLACK
6
CONTINUOUS
10
0.46822
20
3.03797
11
0.466346
21
3.03422
0
LINE
8
BLACK
6
CONTINUOUS
10
0.466346
20
3.03422
11
0.46582
21
3.03352
0
LINE
8
BLACK
6
CONTINUOUS
10
0.46582
20
3.03352
11
0.465792
21
3.03346
0
LINE
8
BLACK
6
CONTINUOUS
10
0.465792
20
3.03346
11
0.463918
21
3.03158
0
LINE
8
BLACK
6
CONTINUOUS
10
0.463918
20
3.03158
11
0.463195
21
3.03108
0
LINE
8
BLACK
6
CONTINUOUS
10
0.463195
20
3.03108
11
0.46315
21
3.03103
0
LINE
8
BLACK
6
CONTINUOUS
10
0.46315
20
3.03103
11
0.459401
21
3.02915
0
LINE
8
BLACK
6
CONTINUOUS
10
0.459401
20
3.02915
11
0.458418
21
3.02886
0
LINE
8
BLACK
6
CONTINUOUS
10
0.458418
20
3.02886
11
0.458246
21
3.0289
0
LINE
8
BLACK
6
CONTINUOUS
10
0.458246
20
3.0289
11
0.45808
21
3.02884
0
LINE
8
BLACK
6
CONTINUOUS
10
0.45808
20
3.02884
11
0.450581
21
3.02884
0
LINE
8
BLACK
6
CONTINUOUS
10
0.450581
20
3.02884
11
0.449571
21
3.02902
0
LINE
8
BLACK
6
CONTINUOUS
10
0.449571
20
3.02902
11
0.449436
21
3.02913
0
LINE
8
BLACK
6
CONTINUOUS
10
0.449436
20
3.02913
11
0.449261
21
3.02915
0
LINE
8
BLACK
6
CONTINUOUS
10
0.449261
20
3.02915
11
0.445511
21
3.03103
0
LINE
8
BLACK
6
CONTINUOUS
10
0.445511
20
3.03103
11
0.444802
21
3.03156
0
LINE
8
BLACK
6
CONTINUOUS
10
0.444802
20
3.03156
11
0.444744
21
3.03158
0
LINE
8
BLACK
6
CONTINUOUS
10
0.444744
20
3.03158
11
0.442869
21
3.03346
0
LINE
8
BLACK
6
CONTINUOUS
10
0.442869
20
3.03346
11
0.442363
21
3.03418
0
LINE
8
BLACK
6
CONTINUOUS
10
0.442363
20
3.03418
11
0.442316
21
3.03422
0
LINE
8
BLACK
6
CONTINUOUS
10
0.442316
20
3.03422
11
0.440441
21
3.03797
0
LINE
8
BLACK
6
CONTINUOUS
10
0.440441
20
3.03797
11
0.440149
21
3.03896
0
LINE
8
BLACK
6
CONTINUOUS
10
0.440149
20
3.03896
11
0.44019
21
3.03913
0
LINE
8
BLACK
6
CONTINUOUS
10
0.44019
20
3.03913
11
0.440129
21
3.03929
0
LINE
8
BLACK
6
CONTINUOUS
10
0.440129
20
3.03929
11
0.440129
21
3.04867
0
LINE
8
BLACK
6
CONTINUOUS
10
0.440129
20
3.04867
11
0.440307
21
3.04968
0
LINE
8
BLACK
6
CONTINUOUS
10
0.440307
20
3.04968
11
0.440421
21
3.04981
0
LINE
8
BLACK
6
CONTINUOUS
10
0.440421
20
3.04981
11
0.440441
21
3.04999
0
LINE
8
BLACK
6
CONTINUOUS
10
0.440441
20
3.04999
11
0.442316
21
3.05374
0
LINE
8
BLACK
6
CONTINUOUS
10
0.442316
20
3.05374
11
0.442842
21
3.05445
0
LINE
8
BLACK
6
CONTINUOUS
10
0.442842
20
3.05445
11
0.442869
21
3.05451
0
LINE
8
BLACK
6
CONTINUOUS
10
0.442869
20
3.05451
11
0.444744
21
3.05638
0
LINE
8
BLACK
6
CONTINUOUS
10
0.444744
20
3.05638
11
0.445467
21
3.05689
0
LINE
8
BLACK
6
CONTINUOUS
10
0.445467
20
3.05689
11
0.445511
21
3.05693
0
LINE
8
BLACK
6
CONTINUOUS
10
0.445511
20
3.05693
11
0.449261
21
3.05881
0
LINE
8
BLACK
6
CONTINUOUS
10
0.449261
20
3.05881
11
0.450244
21
3.0591
0
LINE
8
BLACK
6
CONTINUOUS
10
0.450244
20
3.0591
11
0.450415
21
3.05906
0
LINE
8
BLACK
6
CONTINUOUS
10
0.450415
20
3.05906
11
0.450581
21
3.05912
0
LINE
8
BLACK
6
CONTINUOUS
10
0.450581
20
3.05912
11
0.45808
21
3.05912
0
LINE
8
BLACK
6
CONTINUOUS
10
0.45808
20
3.05912
11
0.45909
21
3.05894
0
LINE
8
BLACK
6
CONTINUOUS
10
0.45909
20
3.05894
11
0.459225
21
3.05883
0
LINE
8
BLACK
6
CONTINUOUS
10
0.459225
20
3.05883
11
0.459401
21
3.05881
0
LINE
8
BLACK
6
CONTINUOUS
10
0.459401
20
3.05881
11
0.461693
21
3.05766
0
LINE
8
BLACK
6
CONTINUOUS
10
0.461693
20
3.05766
11
0.460964
21
3.06058
0
LINE
8
BLACK
6
CONTINUOUS
10
0.460964
20
3.06058
11
0.45766
21
3.06554
0
LINE
8
BLACK
6
CONTINUOUS
10
0.45766
20
3.06554
11
0.456331
21
3.06686
0
LINE
8
BLACK
6
CONTINUOUS
10
0.456331
20
3.06686
11
0.453634
21
3.06821
0
LINE
8
BLACK
6
CONTINUOUS
10
0.453634
20
3.06821
11
0.446832
21
3.06821
0
LINE
8
BLACK
6
CONTINUOUS
10
0.446832
20
3.06821
11
0.445822
21
3.06839
0
LINE
8
BLACK
6
CONTINUOUS
10
0.445822
20
3.06839
11
0.444274
21
3.06969
0
LINE
8
BLACK
6
CONTINUOUS
10
0.444274
20
3.06969
11
0.443924
21
3.07168
0
LINE
8
BLACK
6
CONTINUOUS
10
0.443924
20
3.07168
11
0.444934
21
3.07343
0
LINE
8
BLACK
6
CONTINUOUS
10
0.444934
20
3.07343
11
0.446832
21
3.07412
0
LINE
8
BLACK
6
CONTINUOUS
10
0.446832
20
3.07412
11
0.454331
21
3.07412
0
LINE
8
BLACK
6
CONTINUOUS
10
0.454331
20
3.07412
11
0.455341
21
3.07394
0
LINE
8
BLACK
6
CONTINUOUS
10
0.451278
20
3.05322
11
0.448581
21
3.05187
0
LINE
8
BLACK
6
CONTINUOUS
10
0.448581
20
3.05187
11
0.447384
21
3.05067
0
LINE
8
BLACK
6
CONTINUOUS
10
0.447384
20
3.05067
11
0.446035
21
3.04797
0
LINE
8
BLACK
6
CONTINUOUS
10
0.446035
20
3.04797
11
0.446035
21
3.03999
0
LINE
8
BLACK
6
CONTINUOUS
10
0.446035
20
3.03999
11
0.447384
21
3.03729
0
LINE
8
BLACK
6
CONTINUOUS
10
0.447384
20
3.03729
11
0.448581
21
3.0361
0
LINE
8
BLACK
6
CONTINUOUS
10
0.448581
20
3.0361
11
0.451278
21
3.03475
0
LINE
8
BLACK
6
CONTINUOUS
10
0.451278
20
3.03475
11
0.457383
21
3.03475
0
LINE
8
BLACK
6
CONTINUOUS
10
0.457383
20
3.03475
11
0.460081
21
3.0361
0
LINE
8
BLACK
6
CONTINUOUS
10
0.460081
20
3.0361
11
0.461278
21
3.03729
0
LINE
8
BLACK
6
CONTINUOUS
10
0.461278
20
3.03729
11
0.462627
21
3.03999
0
LINE
8
BLACK
6
CONTINUOUS
10
0.462627
20
3.03999
11
0.462627
21
3.04797
0
LINE
8
BLACK
6
CONTINUOUS
10
0.462627
20
3.04797
11
0.461278
21
3.05067
0
LINE
8
BLACK
6
CONTINUOUS
10
0.461278
20
3.05067
11
0.460081
21
3.05187
0
LINE
8
BLACK
6
CONTINUOUS
10
0.460081
20
3.05187
11
0.457383
21
3.05322
0
LINE
8
BLACK
6
CONTINUOUS
10
0.457383
20
3.05322
11
0.451278
21
3.05322
0
LINE
8
BLACK
6
CONTINUOUS
10
0.503458
20
3.07405
11
0.503587
21
3.07407
0
LINE
8
BLACK
6
CONTINUOUS
10
0.503587
20
3.07407
11
0.503701
21
3.07401
0
LINE
8
BLACK
6
CONTINUOUS
10
0.503701
20
3.07401
11
0.504085
21
3.07394
0
LINE
8
BLACK
6
CONTINUOUS
10
0.504085
20
3.07394
11
0.504672
21
3.07345
0
LINE
8
BLACK
6
CONTINUOUS
10
0.504672
20
3.07345
11
0.505337
21
3.07306
0
LINE
8
BLACK
6
CONTINUOUS
10
0.505337
20
3.07306
11
0.505428
21
3.07281
0
LINE
8
BLACK
6
CONTINUOUS
10
0.505428
20
3.07281
11
0.505632
21
3.07264
0
LINE
8
BLACK
6
CONTINUOUS
10
0.505632
20
3.07264
11
0.505765
21
3.07189
0
LINE
8
BLACK
6
CONTINUOUS
10
0.505765
20
3.07189
11
0.506027
21
3.07117
0
LINE
8
BLACK
6
CONTINUOUS
10
0.506027
20
3.07117
11
0.506027
21
3.0318
0
LINE
8
BLACK
6
CONTINUOUS
10
0.506027
20
3.0318
11
0.505849
21
3.03079
0
LINE
8
BLACK
6
CONTINUOUS
10
0.505849
20
3.03079
11
0.504551
21
3.02924
0
LINE
8
BLACK
6
CONTINUOUS
10
0.504551
20
3.02924
11
0.502562
21
3.02889
0
LINE
8
BLACK
6
CONTINUOUS
10
0.502562
20
3.02889
11
0.500813
21
3.0299
0
LINE
8
BLACK
6
CONTINUOUS
10
0.500813
20
3.0299
11
0.500122
21
3.0318
0
LINE
8
BLACK
6
CONTINUOUS
10
0.500122
20
3.0318
11
0.500122
21
3.04759
0
LINE
8
BLACK
6
CONTINUOUS
10
0.500122
20
3.04759
11
0.488076
21
3.04759
0
LINE
8
BLACK
6
CONTINUOUS
10
0.488076
20
3.04759
11
0.487067
21
3.04777
0
LINE
8
BLACK
6
CONTINUOUS
10
0.487067
20
3.04777
11
0.486931
21
3.04788
0
LINE
8
BLACK
6
CONTINUOUS
10
0.486931
20
3.04788
11
0.486756
21
3.0479
0
LINE
8
BLACK
6
CONTINUOUS
10
0.486756
20
3.0479
11
0.483006
21
3.04978
0
LINE
8
BLACK
6
CONTINUOUS
10
0.483006
20
3.04978
11
0.482297
21
3.0503
0
LINE
8
BLACK
6
CONTINUOUS
10
0.482297
20
3.0503
11
0.482239
21
3.05033
0
LINE
8
BLACK
6
CONTINUOUS
10
0.482239
20
3.05033
11
0.480364
21
3.05221
0
LINE
8
BLACK
6
CONTINUOUS
10
0.480364
20
3.05221
11
0.479858
21
3.05293
0
LINE
8
BLACK
6
CONTINUOUS
10
0.479858
20
3.05293
11
0.479811
21
3.05297
0
LINE
8
BLACK
6
CONTINUOUS
10
0.479811
20
3.05297
11
0.477936
21
3.05672
0
LINE
8
BLACK
6
CONTINUOUS
10
0.477936
20
3.05672
11
0.477644
21
3.0577
0
LINE
8
BLACK
6
CONTINUOUS
10
0.477644
20
3.0577
11
0.477685
21
3.05788
0
LINE
8
BLACK
6
CONTINUOUS
10
0.477685
20
3.05788
11
0.477625
21
3.05804
0
LINE
8
BLACK
6
CONTINUOUS
10
0.477625
20
3.05804
11
0.477625
21
3.06367
0
LINE
8
BLACK
6
CONTINUOUS
10
0.477625
20
3.06367
11
0.477803
21
3.06468
0
LINE
8
BLACK
6
CONTINUOUS
10
0.477803
20
3.06468
11
0.477916
21
3.06481
0
LINE
8
BLACK
6
CONTINUOUS
10
0.477916
20
3.06481
11
0.477936
21
3.06499
0
LINE
8
BLACK
6
CONTINUOUS
10
0.477936
20
3.06499
11
0.479811
21
3.06874
0
LINE
8
BLACK
6
CONTINUOUS
10
0.479811
20
3.06874
11
0.480337
21
3.06945
0
LINE
8
BLACK
6
CONTINUOUS
10
0.480337
20
3.06945
11
0.480364
21
3.0695
0
LINE
8
BLACK
6
CONTINUOUS
10
0.480364
20
3.0695
11
0.482239
21
3.07138
0
LINE
8
BLACK
6
CONTINUOUS
10
0.482239
20
3.07138
11
0.482962
21
3.07189
0
LINE
8
BLACK
6
CONTINUOUS
10
0.482962
20
3.07189
11
0.483006
21
3.07193
0
LINE
8
BLACK
6
CONTINUOUS
10
0.483006
20
3.07193
11
0.486756
21
3.07381
0
LINE
8
BLACK
6
CONTINUOUS
10
0.486756
20
3.07381
11
0.487739
21
3.0741
0
LINE
8
BLACK
6
CONTINUOUS
10
0.487739
20
3.0741
11
0.487911
21
3.07406
0
LINE
8
BLACK
6
CONTINUOUS
10
0.487911
20
3.07406
11
0.488076
21
3.07412
0
LINE
8
BLACK
6
CONTINUOUS
10
0.488076
20
3.07412
11
0.503075
21
3.07412
0
LINE
8
BLACK
6
CONTINUOUS
10
0.503075
20
3.07412
11
0.503458
21
3.07405
0
LINE
8
BLACK
6
CONTINUOUS
10
0.488774
20
3.06821
11
0.486076
21
3.06686
0
LINE
8
BLACK
6
CONTINUOUS
10
0.486076
20
3.06686
11
0.484879
21
3.06567
0
LINE
8
BLACK
6
CONTINUOUS
10
0.484879
20
3.06567
11
0.48353
21
3.06297
0
LINE
8
BLACK
6
CONTINUOUS
10
0.48353
20
3.06297
11
0.48353
21
3.05874
0
LINE
8
BLACK
6
CONTINUOUS
10
0.48353
20
3.05874
11
0.484879
21
3.05604
0
LINE
8
BLACK
6
CONTINUOUS
10
0.484879
20
3.05604
11
0.486076
21
3.05484
0
LINE
8
BLACK
6
CONTINUOUS
10
0.486076
20
3.05484
11
0.488774
21
3.0535
0
LINE
8
BLACK
6
CONTINUOUS
10
0.488774
20
3.0535
11
0.500122
21
3.0535
0
LINE
8
BLACK
6
CONTINUOUS
10
0.500122
20
3.0535
11
0.500122
21
3.06821
0
LINE
8
BLACK
6
CONTINUOUS
10
0.500122
20
3.06821
11
0.488774
21
3.06821
0
LINE
8
BLACK
6
CONTINUOUS
10
2.77361
20
3.10861
11
2.77303
21
3.11
0
LINE
8
BLACK
6
CONTINUOUS
10
2.77303
20
3.11
11
2.77303
21
3.315
0
LINE
8
BLACK
6
CONTINUOUS
10
2.77303
20
3.315
11
2.77361
21
3.31639
0
LINE
8
BLACK
6
CONTINUOUS
10
2.77361
20
3.31639
11
2.775
21
3.31697
0
LINE
8
BLACK
6
CONTINUOUS
10
2.775
20
3.31697
11
3.435
21
3.31697
0
LINE
8
BLACK
6
CONTINUOUS
10
3.435
20
3.31697
11
3.43639
21
3.31639
0
LINE
8
BLACK
6
CONTINUOUS
10
3.43639
20
3.31639
11
3.43697
21
3.315
0
LINE
8
BLACK
6
CONTINUOUS
10
3.43697
20
3.315
11
3.43697
21
3.11
0
LINE
8
BLACK
6
CONTINUOUS
10
3.43697
20
3.11
11
3.43639
21
3.10861
0
LINE
8
BLACK
6
CONTINUOUS
10
3.43639
20
3.10861
11
3.435
21
3.10803
0
LINE
8
BLACK
6
CONTINUOUS
10
3.435
20
3.10803
11
2.775
21
3.10803
0
LINE
8
BLACK
6
CONTINUOUS
10
2.775
20
3.10803
11
2.77361
21
3.10861
0
LINE
8
BLACK
6
CONTINUOUS
10
2.77697
20
3.31303
11
2.77697
21
3.11197
0
LINE
8
BLACK
6
CONTINUOUS
10
2.77697
20
3.11197
11
3.43303
21
3.11197
0
LINE
8
BLACK
6
CONTINUOUS
10
3.43303
20
3.11197
11
3.43303
21
3.31303
0
LINE
8
BLACK
6
CONTINUOUS
10
3.43303
20
3.31303
11
2.77697
21
3.31303
0
LINE
8
BLACK
6
CONTINUOUS
10
3.10472
20
3.17938
11
3.10489
21
3.17939
0
LINE
8
BLACK
6
CONTINUOUS
10
3.10489
20
3.17939
11
3.10558
21
3.17889
0
LINE
8
BLACK
6
CONTINUOUS
10
3.10558
20
3.17889
11
3.10632
21
3.17846
0
LINE
8
BLACK
6
CONTINUOUS
10
3.10632
20
3.17846
11
3.10638
21
3.1783
0
LINE
8
BLACK
6
CONTINUOUS
10
3.10638
20
3.1783
11
3.10652
21
3.1782
0
LINE
8
BLACK
6
CONTINUOUS
10
3.10652
20
3.1782
11
3.11011
21
3.17282
0
LINE
8
BLACK
6
CONTINUOUS
10
3.11011
20
3.17282
11
3.11331
21
3.16961
0
LINE
8
BLACK
6
CONTINUOUS
10
3.11331
20
3.16961
11
3.11663
21
3.16795
0
LINE
8
BLACK
6
CONTINUOUS
10
3.11663
20
3.16795
11
3.11746
21
3.16734
0
LINE
8
BLACK
6
CONTINUOUS
10
3.11746
20
3.16734
11
3.11826
21
3.16549
0
LINE
8
BLACK
6
CONTINUOUS
10
3.11826
20
3.16549
11
3.11768
21
3.16355
0
LINE
8
BLACK
6
CONTINUOUS
10
3.11768
20
3.16355
11
3.116
21
3.16244
0
LINE
8
BLACK
6
CONTINUOUS
10
3.116
20
3.16244
11
3.11399
21
3.16267
0
LINE
8
BLACK
6
CONTINUOUS
10
3.11399
20
3.16267
11
3.11024
21
3.16454
0
LINE
8
BLACK
6
CONTINUOUS
10
3.11024
20
3.16454
11
3.10953
21
3.16507
0
LINE
8
BLACK
6
CONTINUOUS
10
3.10953
20
3.16507
11
3.10947
21
3.1651
0
LINE
8
BLACK
6
CONTINUOUS
10
3.10947
20
3.1651
11
3.10702
21
3.16756
0
LINE
8
BLACK
6
CONTINUOUS
10
3.10702
20
3.16756
11
3.10702
21
3.14014
0
LINE
8
BLACK
6
CONTINUOUS
10
3.10702
20
3.14014
11
3.11531
21
3.14014
0
LINE
8
BLACK
6
CONTINUOUS
10
3.11531
20
3.14014
11
3.11632
21
3.13996
0
LINE
8
BLACK
6
CONTINUOUS
10
3.11632
20
3.13996
11
3.11787
21
3.13867
0
LINE
8
BLACK
6
CONTINUOUS
10
3.11787
20
3.13867
11
3.11822
21
3.13668
0
LINE
8
BLACK
6
CONTINUOUS
10
3.11822
20
3.13668
11
3.11721
21
3.13493
0
LINE
8
BLACK
6
CONTINUOUS
10
3.11721
20
3.13493
11
3.11531
21
3.13424
0
LINE
8
BLACK
6
CONTINUOUS
10
3.11531
20
3.13424
11
3.09281
21
3.13424
0
LINE
8
BLACK
6
CONTINUOUS
10
3.09281
20
3.13424
11
3.0918
21
3.13442
0
LINE
8
BLACK
6
CONTINUOUS
10
3.0918
20
3.13442
11
3.09026
21
3.13571
0
LINE
8
BLACK
6
CONTINUOUS
10
3.09026
20
3.13571
11
3.08991
21
3.1377
0
LINE
8
BLACK
6
CONTINUOUS
10
3.08991
20
3.1377
11
3.09092
21
3.13945
0
LINE
8
BLACK
6
CONTINUOUS
10
3.09092
20
3.13945
11
3.09281
21
3.14014
0
LINE
8
BLACK
6
CONTINUOUS
10
3.09281
20
3.14014
11
3.10111
21
3.14014
0
LINE
8
BLACK
6
CONTINUOUS
10
3.10111
20
3.14014
11
3.10111
21
3.17656
0
LINE
8
BLACK
6
CONTINUOUS
10
3.10111
20
3.17656
11
3.10129
21
3.17757
0
LINE
8
BLACK
6
CONTINUOUS
10
3.10129
20
3.17757
11
3.1014
21
3.1777
0
LINE
8
BLACK
6
CONTINUOUS
10
3.1014
20
3.1777
11
3.10142
21
3.17787
0
LINE
8
BLACK
6
CONTINUOUS
10
3.10142
20
3.17787
11
3.10204
21
3.17846
0
LINE
8
BLACK
6
CONTINUOUS
10
3.10204
20
3.17846
11
3.10259
21
3.17912
0
LINE
8
BLACK
6
CONTINUOUS
10
3.10259
20
3.17912
11
3.10275
21
3.17915
0
LINE
8
BLACK
6
CONTINUOUS
10
3.10275
20
3.17915
11
3.10288
21
3.17926
0
LINE
8
BLACK
6
CONTINUOUS
10
3.10288
20
3.17926
11
3.10373
21
3.17932
0
LINE
8
BLACK
6
CONTINUOUS
10
3.10373
20
3.17932
11
3.10458
21
3.17947
0
LINE
8
BLACK
6
CONTINUOUS
10
3.10458
20
3.17947
11
3.10472
21
3.17938
0
LINE
8
BLACK
6
CONTINUOUS
10
3.06945
20
3.17933
11
3.06959
21
3.17922
0
LINE
8
BLACK
6
CONTINUOUS
10
3.06959
20
3.17922
11
3.06976
21
3.1792
0
LINE
8
BLACK
6
CONTINUOUS
10
3.06976
20
3.1792
11
3.07351
21
3.17733
0
LINE
8
BLACK
6
CONTINUOUS
10
3.07351
20
3.17733
11
3.07422
21
3.1768
0
LINE
8
BLACK
6
CONTINUOUS
10
3.07422
20
3.1768
11
3.07428
21
3.17677
0
LINE
8
BLACK
6
CONTINUOUS
10
3.07428
20
3.17677
11
3.07615
21
3.1749
0
LINE
8
BLACK
6
CONTINUOUS
10
3.07615
20
3.1749
11
3.07666
21
3.17418
0
LINE
8
BLACK
6
CONTINUOUS
10
3.07666
20
3.17418
11
3.07671
21
3.17413
0
LINE
8
BLACK
6
CONTINUOUS
10
3.07671
20
3.17413
11
3.07858
21
3.17038
0
LINE
8
BLACK
6
CONTINUOUS
10
3.07858
20
3.17038
11
3.07873
21
3.16989
0
LINE
8
BLACK
6
CONTINUOUS
10
3.07873
20
3.16989
11
3.07881
21
3.16978
0
LINE
8
BLACK
6
CONTINUOUS
10
3.07881
20
3.16978
11
3.08068
21
3.16228
0
LINE
8
BLACK
6
CONTINUOUS
10
3.08068
20
3.16228
11
3.08072
21
3.16169
0
LINE
8
BLACK
6
CONTINUOUS
10
3.08072
20
3.16169
11
3.08077
21
3.16156
0
LINE
8
BLACK
6
CONTINUOUS
10
3.08077
20
3.16156
11
3.08077
21
3.15219
0
LINE
8
BLACK
6
CONTINUOUS
10
3.08077
20
3.15219
11
3.08067
21
3.15161
0
LINE
8
BLACK
6
CONTINUOUS
10
3.08067
20
3.15161
11
3.08068
21
3.15147
0
LINE
8
BLACK
6
CONTINUOUS
10
3.08068
20
3.15147
11
3.07881
21
3.14397
0
LINE
8
BLACK
6
CONTINUOUS
10
3.07881
20
3.14397
11
3.0786
21
3.14351
0
LINE
8
BLACK
6
CONTINUOUS
10
3.0786
20
3.14351
11
3.07858
21
3.14337
0
LINE
8
BLACK
6
CONTINUOUS
10
3.07858
20
3.14337
11
3.07671
21
3.13962
0
LINE
8
BLACK
6
CONTINUOUS
10
3.07671
20
3.13962
11
3.07618
21
3.13891
0
LINE
8
BLACK
6
CONTINUOUS
10
3.07618
20
3.13891
11
3.07615
21
3.13885
0
LINE
8
BLACK
6
CONTINUOUS
10
3.07615
20
3.13885
11
3.07428
21
3.13698
0
LINE
8
BLACK
6
CONTINUOUS
10
3.07428
20
3.13698
11
3.07356
21
3.13647
0
LINE
8
BLACK
6
CONTINUOUS
10
3.07356
20
3.13647
11
3.07351
21
3.13642
0
LINE
8
BLACK
6
CONTINUOUS
10
3.07351
20
3.13642
11
3.06976
21
3.13455
0
LINE
8
BLACK
6
CONTINUOUS
10
3.06976
20
3.13455
11
3.06878
21
3.13426
0
LINE
8
BLACK
6
CONTINUOUS
10
3.06878
20
3.13426
11
3.06861
21
3.1343
0
LINE
8
BLACK
6
CONTINUOUS
10
3.06861
20
3.1343
11
3.06844
21
3.13424
0
LINE
8
BLACK
6
CONTINUOUS
10
3.06844
20
3.13424
11
3.06469
21
3.13424
0
LINE
8
BLACK
6
CONTINUOUS
10
3.06469
20
3.13424
11
3.06368
21
3.13442
0
LINE
8
BLACK
6
CONTINUOUS
10
3.06368
20
3.13442
11
3.06355
21
3.13453
0
LINE
8
BLACK
6
CONTINUOUS
10
3.06355
20
3.13453
11
3.06337
21
3.13455
0
LINE
8
BLACK
6
CONTINUOUS
10
3.06337
20
3.13455
11
3.05962
21
3.13642
0
LINE
8
BLACK
6
CONTINUOUS
10
3.05962
20
3.13642
11
3.05891
21
3.13695
0
LINE
8
BLACK
6
CONTINUOUS
10
3.05891
20
3.13695
11
3.05886
21
3.13698
0
LINE
8
BLACK
6
CONTINUOUS
10
3.05886
20
3.13698
11
3.05698
21
3.13885
0
LINE
8
BLACK
6
CONTINUOUS
10
3.05698
20
3.13885
11
3.05647
21
3.13957
0
LINE
8
BLACK
6
CONTINUOUS
10
3.05647
20
3.13957
11
3.05643
21
3.13962
0
LINE
8
BLACK
6
CONTINUOUS
10
3.05643
20
3.13962
11
3.05455
21
3.14337
0
LINE
8
BLACK
6
CONTINUOUS
10
3.05455
20
3.14337
11
3.05441
21
3.14386
0
LINE
8
BLACK
6
CONTINUOUS
10
3.05441
20
3.14386
11
3.05433
21
3.14397
0
LINE
8
BLACK
6
CONTINUOUS
10
3.05433
20
3.14397
11
3.05245
21
3.15147
0
LINE
8
BLACK
6
CONTINUOUS
10
3.05245
20
3.15147
11
3.05241
21
3.15206
0
LINE
8
BLACK
6
CONTINUOUS
10
3.05241
20
3.15206
11
3.05237
21
3.15219
0
LINE
8
BLACK
6
CONTINUOUS
10
3.05237
20
3.15219
11
3.05237
21
3.16156
0
LINE
8
BLACK
6
CONTINUOUS
10
3.05237
20
3.16156
11
3.05247
21
3.16214
0
LINE
8
BLACK
6
CONTINUOUS
10
3.05247
20
3.16214
11
3.05245
21
3.16228
0
LINE
8
BLACK
6
CONTINUOUS
10
3.05245
20
3.16228
11
3.05433
21
3.16978
0
LINE
8
BLACK
6
CONTINUOUS
10
3.05433
20
3.16978
11
3.05454
21
3.17024
0
LINE
8
BLACK
6
CONTINUOUS
10
3.05454
20
3.17024
11
3.05455
21
3.17038
0
LINE
8
BLACK
6
CONTINUOUS
10
3.05455
20
3.17038
11
3.05643
21
3.17413
0
LINE
8
BLACK
6
CONTINUOUS
10
3.05643
20
3.17413
11
3.05695
21
3.17484
0
LINE
8
BLACK
6
CONTINUOUS
10
3.05695
20
3.17484
11
3.05698
21
3.1749
0
LINE
8
BLACK
6
CONTINUOUS
10
3.05698
20
3.1749
11
3.05886
21
3.17677
0
LINE
8
BLACK
6
CONTINUOUS
10
3.05886
20
3.17677
11
3.05958
21
3.17728
0
LINE
8
BLACK
6
CONTINUOUS
10
3.05958
20
3.17728
11
3.05962
21
3.17733
0
LINE
8
BLACK
6
CONTINUOUS
10
3.05962
20
3.17733
11
3.06337
21
3.1792
0
LINE
8
BLACK
6
CONTINUOUS
10
3.06337
20
3.1792
11
3.06435
21
3.17949
0
LINE
8
BLACK
6
CONTINUOUS
10
3.06435
20
3.17949
11
3.06453
21
3.17945
0
LINE
8
BLACK
6
CONTINUOUS
10
3.06453
20
3.17945
11
3.06469
21
3.17951
0
LINE
8
BLACK
6
CONTINUOUS
10
3.06469
20
3.17951
11
3.06844
21
3.17951
0
LINE
8
BLACK
6
CONTINUOUS
10
3.06844
20
3.17951
11
3.06945
21
3.17933
0
LINE
8
BLACK
6
CONTINUOUS
10
3.06539
20
3.17361
11
3.06269
21
3.17226
0
LINE
8
BLACK
6
CONTINUOUS
10
3.06269
20
3.17226
11
3.06149
21
3.17106
0
LINE
8
BLACK
6
CONTINUOUS
10
3.06149
20
3.17106
11
3.05998
21
3.16803
0
LINE
8
BLACK
6
CONTINUOUS
10
3.05998
20
3.16803
11
3.05827
21
3.1612
0
LINE
8
BLACK
6
CONTINUOUS
10
3.05827
20
3.1612
11
3.05827
21
3.15255
0
LINE
8
BLACK
6
CONTINUOUS
10
3.05827
20
3.15255
11
3.05998
21
3.14572
0
LINE
8
BLACK
6
CONTINUOUS
10
3.05998
20
3.14572
11
3.06149
21
3.14269
0
LINE
8
BLACK
6
CONTINUOUS
10
3.06149
20
3.14269
11
3.06269
21
3.14149
0
LINE
8
BLACK
6
CONTINUOUS
10
3.06269
20
3.14149
11
3.06539
21
3.14014
0
LINE
8
BLACK
6
CONTINUOUS
10
3.06539
20
3.14014
11
3.06774
21
3.14014
0
LINE
8
BLACK
6
CONTINUOUS
10
3.06774
20
3.14014
11
3.07044
21
3.14149
0
LINE
8
BLACK
6
CONTINUOUS
10
3.07044
20
3.14149
11
3.07164
21
3.14269
0
LINE
8
BLACK
6
CONTINUOUS
10
3.07164
20
3.14269
11
3.07316
21
3.14572
0
LINE
8
BLACK
6
CONTINUOUS
10
3.07316
20
3.14572
11
3.07486
21
3.15255
0
LINE
8
BLACK
6
CONTINUOUS
10
3.07486
20
3.15255
11
3.07486
21
3.1612
0
LINE
8
BLACK
6
CONTINUOUS
10
3.07486
20
3.1612
11
3.07316
21
3.16803
0
LINE
8
BLACK
6
CONTINUOUS
10
3.07316
20
3.16803
11
3.07164
21
3.17106
0
LINE
8
BLACK
6
CONTINUOUS
10
3.07164
20
3.17106
11
3.07044
21
3.17226
0
LINE
8
BLACK
6
CONTINUOUS
10
3.07044
20
3.17226
11
3.06774
21
3.17361
0
LINE
8
BLACK
6
CONTINUOUS
10
3.06774
20
3.17361
11
3.06539
21
3.17361
0
LINE
8
BLACK
6
CONTINUOUS
10
3.15319
20
3.17944
11
3.15332
21
3.17947
0
LINE
8
BLACK
6
CONTINUOUS
10
3.15332
20
3.17947
11
3.15343
21
3.1794
0
LINE
8
BLACK
6
CONTINUOUS
10
3.15343
20
3.1794
11
3.15382
21
3.17933
0
LINE
8
BLACK
6
CONTINUOUS
10
3.15382
20
3.17933
11
3.1544
21
3.17884
0
LINE
8
BLACK
6
CONTINUOUS
10
3.1544
20
3.17884
11
3.15507
21
3.17846
0
LINE
8
BLACK
6
CONTINUOUS
10
3.15507
20
3.17846
11
3.15516
21
3.17821
0
LINE
8
BLACK
6
CONTINUOUS
10
3.15516
20
3.17821
11
3.15536
21
3.17804
0
LINE
8
BLACK
6
CONTINUOUS
10
3.15536
20
3.17804
11
3.1555
21
3.17728
0
LINE
8
BLACK
6
CONTINUOUS
10
3.1555
20
3.17728
11
3.15576
21
3.17656
0
LINE
8
BLACK
6
CONTINUOUS
10
3.15576
20
3.17656
11
3.15576
21
3.13719
0
LINE
8
BLACK
6
CONTINUOUS
10
3.15576
20
3.13719
11
3.15558
21
3.13618
0
LINE
8
BLACK
6
CONTINUOUS
10
3.15558
20
3.13618
11
3.15428
21
3.13463
0
LINE
8
BLACK
6
CONTINUOUS
10
3.15428
20
3.13463
11
3.15229
21
3.13428
0
LINE
8
BLACK
6
CONTINUOUS
10
3.15229
20
3.13428
11
3.15054
21
3.13529
0
LINE
8
BLACK
6
CONTINUOUS
10
3.15054
20
3.13529
11
3.14985
21
3.13719
0
LINE
8
BLACK
6
CONTINUOUS
10
3.14985
20
3.13719
11
3.14985
21
3.15298
0
LINE
8
BLACK
6
CONTINUOUS
10
3.14985
20
3.15298
11
3.13781
21
3.15298
0
LINE
8
BLACK
6
CONTINUOUS
10
3.13781
20
3.15298
11
3.1368
21
3.15316
0
LINE
8
BLACK
6
CONTINUOUS
10
3.1368
20
3.15316
11
3.13666
21
3.15328
0
LINE
8
BLACK
6
CONTINUOUS
10
3.13666
20
3.15328
11
3.13649
21
3.1533
0
LINE
8
BLACK
6
CONTINUOUS
10
3.13649
20
3.1533
11
3.13274
21
3.15517
0
LINE
8
BLACK
6
CONTINUOUS
10
3.13274
20
3.15517
11
3.13203
21
3.1557
0
LINE
8
BLACK
6
CONTINUOUS
10
3.13203
20
3.1557
11
3.13197
21
3.15572
0
LINE
8
BLACK
6
CONTINUOUS
10
3.13197
20
3.15572
11
3.1301
21
3.1576
0
LINE
8
BLACK
6
CONTINUOUS
10
3.1301
20
3.1576
11
3.12959
21
3.15832
0
LINE
8
BLACK
6
CONTINUOUS
10
3.12959
20
3.15832
11
3.12954
21
3.15837
0
LINE
8
BLACK
6
CONTINUOUS
10
3.12954
20
3.15837
11
3.12767
21
3.16212
0
LINE
8
BLACK
6
CONTINUOUS
10
3.12767
20
3.16212
11
3.12738
21
3.1631
0
LINE
8
BLACK
6
CONTINUOUS
10
3.12738
20
3.1631
11
3.12742
21
3.16327
0
LINE
8
BLACK
6
CONTINUOUS
10
3.12742
20
3.16327
11
3.12736
21
3.16344
0
LINE
8
BLACK
6
CONTINUOUS
10
3.12736
20
3.16344
11
3.12736
21
3.16906
0
LINE
8
BLACK
6
CONTINUOUS
10
3.12736
20
3.16906
11
3.12753
21
3.17007
0
LINE
8
BLACK
6
CONTINUOUS
10
3.12753
20
3.17007
11
3.12765
21
3.17021
0
LINE
8
BLACK
6
CONTINUOUS
10
3.12765
20
3.17021
11
3.12767
21
3.17038
0
LINE
8
BLACK
6
CONTINUOUS
10
3.12767
20
3.17038
11
3.12954
21
3.17413
0
LINE
8
BLACK
6
CONTINUOUS
10
3.12954
20
3.17413
11
3.13007
21
3.17484
0
LINE
8
BLACK
6
CONTINUOUS
10
3.13007
20
3.17484
11
3.1301
21
3.1749
0
LINE
8
BLACK
6
CONTINUOUS
10
3.1301
20
3.1749
11
3.13197
21
3.17677
0
LINE
8
BLACK
6
CONTINUOUS
10
3.13197
20
3.17677
11
3.13269
21
3.17728
0
LINE
8
BLACK
6
CONTINUOUS
10
3.13269
20
3.17728
11
3.13274
21
3.17733
0
LINE
8
BLACK
6
CONTINUOUS
10
3.13274
20
3.17733
11
3.13649
21
3.1792
0
LINE
8
BLACK
6
CONTINUOUS
10
3.13649
20
3.1792
11
3.13747
21
3.17949
0
LINE
8
BLACK
6
CONTINUOUS
10
3.13747
20
3.17949
11
3.13764
21
3.17945
0
LINE
8
BLACK
6
CONTINUOUS
10
3.13764
20
3.17945
11
3.13781
21
3.17951
0
LINE
8
BLACK
6
CONTINUOUS
10
3.13781
20
3.17951
11
3.15281
21
3.17951
0
LINE
8
BLACK
6
CONTINUOUS
10
3.15281
20
3.17951
11
3.15319
21
3.17944
0
LINE
8
BLACK
6
CONTINUOUS
10
3.13851
20
3.17361
11
3.13581
21
3.17226
0
LINE
8
BLACK
6
CONTINUOUS
10
3.13581
20
3.17226
11
3.13461
21
3.17106
0
LINE
8
BLACK
6
CONTINUOUS
10
3.13461
20
3.17106
11
3.13326
21
3.16836
0
LINE
8
BLACK
6
CONTINUOUS
10
3.13326
20
3.16836
11
3.13326
21
3.16413
0
LINE
8
BLACK
6
CONTINUOUS
10
3.13326
20
3.16413
11
3.13461
21
3.16144
0
LINE
8
BLACK
6
CONTINUOUS
10
3.13461
20
3.16144
11
3.13581
21
3.16024
0
LINE
8
BLACK
6
CONTINUOUS
10
3.13581
20
3.16024
11
3.13851
21
3.15889
0
LINE
8
BLACK
6
CONTINUOUS
10
3.13851
20
3.15889
11
3.14985
21
3.15889
0
LINE
8
BLACK
6
CONTINUOUS
10
3.14985
20
3.15889
11
3.14985
21
3.17361
0
LINE
8
BLACK
6
CONTINUOUS
10
3.14985
20
3.17361
11
3.13851
21
3.17361
0
LINE
8
BLACK
6
CONTINUOUS
10
2.64418
20
3.12341
11
2.6436
21
3.1248
0
LINE
8
BLACK
6
CONTINUOUS
10
2.6436
20
3.1248
11
2.6436
21
3.17205
0
LINE
8
BLACK
6
CONTINUOUS
10
2.6436
20
3.17205
11
2.64418
21
3.17344
0
LINE
8
BLACK
6
CONTINUOUS
10
2.64418
20
3.17344
11
2.64557
21
3.17402
0
LINE
8
BLACK
6
CONTINUOUS
10
2.64557
20
3.17402
11
2.72431
21
3.17402
0
LINE
8
BLACK
6
CONTINUOUS
10
2.72431
20
3.17402
11
2.7257
21
3.17344
0
LINE
8
BLACK
6
CONTINUOUS
10
2.7257
20
3.17344
11
2.72628
21
3.17205
0
LINE
8
BLACK
6
CONTINUOUS
10
2.72628
20
3.17205
11
2.72628
21
3.1248
0
LINE
8
BLACK
6
CONTINUOUS
10
2.72628
20
3.1248
11
2.7257
21
3.12341
0
LINE
8
BLACK
6
CONTINUOUS
10
2.7257
20
3.12341
11
2.72431
21
3.12283
0
LINE
8
BLACK
6
CONTINUOUS
10
2.72431
20
3.12283
11
2.64557
21
3.12283
0
LINE
8
BLACK
6
CONTINUOUS
10
2.64557
20
3.12283
11
2.64418
21
3.12341
0
LINE
8
BLACK
6
CONTINUOUS
10
2.64754
20
3.17008
11
2.64754
21
3.12677
0
LINE
8
BLACK
6
CONTINUOUS
10
2.64754
20
3.12677
11
2.72234
21
3.12677
0
LINE
8
BLACK
6
CONTINUOUS
10
2.72234
20
3.12677
11
2.72234
21
3.17008
0
LINE
8
BLACK
6
CONTINUOUS
10
2.72234
20
3.17008
11
2.64754
21
3.17008
0
LINE
8
BLACK
6
CONTINUOUS
10
2.69409
20
3.16068
11
2.69434
21
3.1607
0
LINE
8
BLACK
6
CONTINUOUS
10
2.69434
20
3.1607
11
2.69716
21
3.15976
0
LINE
8
BLACK
6
CONTINUOUS
10
2.69716
20
3.15976
11
2.69743
21
3.15952
0
LINE
8
BLACK
6
CONTINUOUS
10
2.69743
20
3.15952
11
2.69777
21
3.15938
0
LINE
8
BLACK
6
CONTINUOUS
10
2.69777
20
3.15938
11
2.69965
21
3.15751
0
LINE
8
BLACK
6
CONTINUOUS
10
2.69965
20
3.15751
11
2.69975
21
3.15727
0
LINE
8
BLACK
6
CONTINUOUS
10
2.69975
20
3.15727
11
2.69994
21
3.1571
0
LINE
8
BLACK
6
CONTINUOUS
10
2.69994
20
3.1571
11
2.70088
21
3.15522
0
LINE
8
BLACK
6
CONTINUOUS
10
2.70088
20
3.15522
11
2.70089
21
3.15504
0
LINE
8
BLACK
6
CONTINUOUS
10
2.70089
20
3.15504
11
2.701
21
3.1549
0
LINE
8
BLACK
6
CONTINUOUS
10
2.701
20
3.1549
11
2.70194
21
3.15115
0
LINE
8
BLACK
6
CONTINUOUS
10
2.70194
20
3.15115
11
2.70191
21
3.15095
0
LINE
8
BLACK
6
CONTINUOUS
10
2.70191
20
3.15095
11
2.70198
21
3.15077
0
LINE
8
BLACK
6
CONTINUOUS
10
2.70198
20
3.15077
11
2.70198
21
3.14796
0
LINE
8
BLACK
6
CONTINUOUS
10
2.70198
20
3.14796
11
2.70191
21
3.14777
0
LINE
8
BLACK
6
CONTINUOUS
10
2.70191
20
3.14777
11
2.70194
21
3.14757
0
LINE
8
BLACK
6
CONTINUOUS
10
2.70194
20
3.14757
11
2.701
21
3.14383
0
LINE
8
BLACK
6
CONTINUOUS
10
2.701
20
3.14383
11
2.70089
21
3.14368
0
LINE
8
BLACK
6
CONTINUOUS
10
2.70089
20
3.14368
11
2.70088
21
3.1435
0
LINE
8
BLACK
6
CONTINUOUS
10
2.70088
20
3.1435
11
2.69994
21
3.14163
0
LINE
8
BLACK
6
CONTINUOUS
10
2.69994
20
3.14163
11
2.69975
21
3.14146
0
LINE
8
BLACK
6
CONTINUOUS
10
2.69975
20
3.14146
11
2.69965
21
3.14122
0
LINE
8
BLACK
6
CONTINUOUS
10
2.69965
20
3.14122
11
2.69777
21
3.13934
0
LINE
8
BLACK
6
CONTINUOUS
10
2.69777
20
3.13934
11
2.69743
21
3.1392
0
LINE
8
BLACK
6
CONTINUOUS
10
2.69743
20
3.1392
11
2.69716
21
3.13896
0
LINE
8
BLACK
6
CONTINUOUS
10
2.69716
20
3.13896
11
2.69434
21
3.13803
0
LINE
8
BLACK
6
CONTINUOUS
10
2.69434
20
3.13803
11
2.69409
21
3.13804
0
LINE
8
BLACK
6
CONTINUOUS
10
2.69409
20
3.13804
11
2.69385
21
3.13795
0
LINE
8
BLACK
6
CONTINUOUS
10
2.69385
20
3.13795
11
2.69197
21
3.13795
0
LINE
8
BLACK
6
CONTINUOUS
10
2.69197
20
3.13795
11
2.69173
21
3.13804
0
LINE
8
BLACK
6
CONTINUOUS
10
2.69173
20
3.13804
11
2.69147
21
3.13803
0
LINE
8
BLACK
6
CONTINUOUS
10
2.69147
20
3.13803
11
2.68866
21
3.13896
0
LINE
8
BLACK
6
CONTINUOUS
10
2.68866
20
3.13896
11
2.68838
21
3.1392
0
LINE
8
BLACK
6
CONTINUOUS
10
2.68838
20
3.1392
11
2.68805
21
3.13934
0
LINE
8
BLACK
6
CONTINUOUS
10
2.68805
20
3.13934
11
2.68711
21
3.14028
0
LINE
8
BLACK
6
CONTINUOUS
10
2.68711
20
3.14028
11
2.68665
21
3.14139
0
LINE
8
BLACK
6
CONTINUOUS
10
2.68665
20
3.14139
11
2.68711
21
3.14251
0
LINE
8
BLACK
6
CONTINUOUS
10
2.68711
20
3.14251
11
2.68822
21
3.14297
0
LINE
8
BLACK
6
CONTINUOUS
10
2.68822
20
3.14297
11
2.68934
21
3.14251
0
LINE
8
BLACK
6
CONTINUOUS
10
2.68934
20
3.14251
11
2.69001
21
3.14183
0
LINE
8
BLACK
6
CONTINUOUS
10
2.69001
20
3.14183
11
2.69223
21
3.14109
0
LINE
8
BLACK
6
CONTINUOUS
10
2.69223
20
3.14109
11
2.69359
21
3.14109
0
LINE
8
BLACK
6
CONTINUOUS
10
2.69359
20
3.14109
11
2.69581
21
3.14183
0
LINE
8
BLACK
6
CONTINUOUS
10
2.69581
20
3.14183
11
2.69724
21
3.14327
0
LINE
8
BLACK
6
CONTINUOUS
10
2.69724
20
3.14327
11
2.69798
21
3.14476
0
LINE
8
BLACK
6
CONTINUOUS
10
2.69798
20
3.14476
11
2.69883
21
3.14815
0
LINE
8
BLACK
6
CONTINUOUS
10
2.69883
20
3.14815
11
2.69883
21
3.15057
0
LINE
8
BLACK
6
CONTINUOUS
10
2.69883
20
3.15057
11
2.69798
21
3.15397
0
LINE
8
BLACK
6
CONTINUOUS
10
2.69798
20
3.15397
11
2.69724
21
3.15546
0
LINE
8
BLACK
6
CONTINUOUS
10
2.69724
20
3.15546
11
2.69581
21
3.15689
0
LINE
8
BLACK
6
CONTINUOUS
10
2.69581
20
3.15689
11
2.69359
21
3.15763
0
LINE
8
BLACK
6
CONTINUOUS
10
2.69359
20
3.15763
11
2.69223
21
3.15763
0
LINE
8
BLACK
6
CONTINUOUS
10
2.69223
20
3.15763
11
2.69001
21
3.15689
0
LINE
8
BLACK
6
CONTINUOUS
10
2.69001
20
3.15689
11
2.68934
21
3.15622
0
LINE
8
BLACK
6
CONTINUOUS
10
2.68934
20
3.15622
11
2.68822
21
3.15576
0
LINE
8
BLACK
6
CONTINUOUS
10
2.68822
20
3.15576
11
2.68711
21
3.15622
0
LINE
8
BLACK
6
CONTINUOUS
10
2.68711
20
3.15622
11
2.68665
21
3.15733
0
LINE
8
BLACK
6
CONTINUOUS
10
2.68665
20
3.15733
11
2.68711
21
3.15844
0
LINE
8
BLACK
6
CONTINUOUS
10
2.68711
20
3.15844
11
2.68805
21
3.15938
0
LINE
8
BLACK
6
CONTINUOUS
10
2.68805
20
3.15938
11
2.68838
21
3.15952
0
LINE
8
BLACK
6
CONTINUOUS
10
2.68838
20
3.15952
11
2.68866
21
3.15976
0
LINE
8
BLACK
6
CONTINUOUS
10
2.68866
20
3.15976
11
2.69147
21
3.1607
0
LINE
8
BLACK
6
CONTINUOUS
10
2.69147
20
3.1607
11
2.69173
21
3.16068
0
LINE
8
BLACK
6
CONTINUOUS
10
2.69173
20
3.16068
11
2.69197
21
3.16078
0
LINE
8
BLACK
6
CONTINUOUS
10
2.69197
20
3.16078
11
2.69385
21
3.16078
0
LINE
8
BLACK
6
CONTINUOUS
10
2.69385
20
3.16078
11
2.69409
21
3.16068
0
LINE
8
BLACK
6
CONTINUOUS
10
2.68277
20
3.16032
11
2.68323
21
3.15921
0
LINE
8
BLACK
6
CONTINUOUS
10
2.68323
20
3.15921
11
2.68277
21
3.15809
0
LINE
8
BLACK
6
CONTINUOUS
10
2.68277
20
3.15809
11
2.68166
21
3.15763
0
LINE
8
BLACK
6
CONTINUOUS
10
2.68166
20
3.15763
11
2.67294
21
3.15763
0
LINE
8
BLACK
6
CONTINUOUS
10
2.67294
20
3.15763
11
2.67722
21
3.15274
0
LINE
8
BLACK
6
CONTINUOUS
10
2.67722
20
3.15274
11
2.6774
21
3.15222
0
LINE
8
BLACK
6
CONTINUOUS
10
2.6774
20
3.15222
11
2.67761
21
3.15171
0
LINE
8
BLACK
6
CONTINUOUS
10
2.67761
20
3.15171
11
2.67759
21
3.15165
0
LINE
8
BLACK
6
CONTINUOUS
10
2.67759
20
3.15165
11
2.67761
21
3.1516
0
LINE
8
BLACK
6
CONTINUOUS
10
2.67761
20
3.1516
11
2.67736
21
3.1511
0
LINE
8
BLACK
6
CONTINUOUS
10
2.67736
20
3.1511
11
2.67715
21
3.15059
0
LINE
8
BLACK
6
CONTINUOUS
10
2.67715
20
3.15059
11
2.6771
21
3.15057
0
LINE
8
BLACK
6
CONTINUOUS
10
2.6771
20
3.15057
11
2.67707
21
3.15052
0
LINE
8
BLACK
6
CONTINUOUS
10
2.67707
20
3.15052
11
2.67655
21
3.15034
0
LINE
8
BLACK
6
CONTINUOUS
10
2.67655
20
3.15034
11
2.67604
21
3.15013
0
LINE
8
BLACK
6
CONTINUOUS
10
2.67604
20
3.15013
11
2.6736
21
3.15013
0
LINE
8
BLACK
6
CONTINUOUS
10
2.6736
20
3.15013
11
2.67228
21
3.14947
0
LINE
8
BLACK
6
CONTINUOUS
10
2.67228
20
3.14947
11
2.67171
21
3.1489
0
LINE
8
BLACK
6
CONTINUOUS
10
2.67171
20
3.1489
11
2.67105
21
3.14758
0
LINE
8
BLACK
6
CONTINUOUS
10
2.67105
20
3.14758
11
2.67105
21
3.14364
0
LINE
8
BLACK
6
CONTINUOUS
10
2.67105
20
3.14364
11
2.67171
21
3.14233
0
LINE
8
BLACK
6
CONTINUOUS
10
2.67171
20
3.14233
11
2.67228
21
3.14175
0
LINE
8
BLACK
6
CONTINUOUS
10
2.67228
20
3.14175
11
2.6736
21
3.14109
0
LINE
8
BLACK
6
CONTINUOUS
10
2.6736
20
3.14109
11
2.67848
21
3.14109
0
LINE
8
BLACK
6
CONTINUOUS
10
2.67848
20
3.14109
11
2.67979
21
3.14175
0
LINE
8
BLACK
6
CONTINUOUS
10
2.67979
20
3.14175
11
2.68055
21
3.14251
0
LINE
8
BLACK
6
CONTINUOUS
10
2.68055
20
3.14251
11
2.68166
21
3.14297
0
LINE
8
BLACK
6
CONTINUOUS
10
2.68166
20
3.14297
11
2.68277
21
3.14251
0
LINE
8
BLACK
6
CONTINUOUS
10
2.68277
20
3.14251
11
2.68323
21
3.14139
0
LINE
8
BLACK
6
CONTINUOUS
10
2.68323
20
3.14139
11
2.68277
21
3.14028
0
LINE
8
BLACK
6
CONTINUOUS
10
2.68277
20
3.14028
11
2.68184
21
3.13934
0
LINE
8
BLACK
6
CONTINUOUS
10
2.68184
20
3.13934
11
2.6816
21
3.13924
0
LINE
8
BLACK
6
CONTINUOUS
10
2.6816
20
3.13924
11
2.68143
21
3.13905
0
LINE
8
BLACK
6
CONTINUOUS
10
2.68143
20
3.13905
11
2.67955
21
3.13811
0
LINE
8
BLACK
6
CONTINUOUS
10
2.67955
20
3.13811
11
2.67919
21
3.13809
0
LINE
8
BLACK
6
CONTINUOUS
10
2.67919
20
3.13809
11
2.67885
21
3.13795
0
LINE
8
BLACK
6
CONTINUOUS
10
2.67885
20
3.13795
11
2.67322
21
3.13795
0
LINE
8
BLACK
6
CONTINUOUS
10
2.67322
20
3.13795
11
2.67288
21
3.13809
0
LINE
8
BLACK
6
CONTINUOUS
10
2.67288
20
3.13809
11
2.67252
21
3.13811
0
LINE
8
BLACK
6
CONTINUOUS
10
2.67252
20
3.13811
11
2.67064
21
3.13905
0
LINE
8
BLACK
6
CONTINUOUS
10
2.67064
20
3.13905
11
2.67047
21
3.13924
0
LINE
8
BLACK
6
CONTINUOUS
10
2.67047
20
3.13924
11
2.67024
21
3.13934
0
LINE
8
BLACK
6
CONTINUOUS
10
2.67024
20
3.13934
11
2.6693
21
3.14028
0
LINE
8
BLACK
6
CONTINUOUS
10
2.6693
20
3.14028
11
2.6692
21
3.14052
0
LINE
8
BLACK
6
CONTINUOUS
10
2.6692
20
3.14052
11
2.669
21
3.14069
0
LINE
8
BLACK
6
CONTINUOUS
10
2.669
20
3.14069
11
2.66807
21
3.14257
0
LINE
8
BLACK
6
CONTINUOUS
10
2.66807
20
3.14257
11
2.66804
21
3.14293
0
LINE
8
BLACK
6
CONTINUOUS
10
2.66804
20
3.14293
11
2.6679
21
3.14327
0
LINE
8
BLACK
6
CONTINUOUS
10
2.6679
20
3.14327
11
2.6679
21
3.14796
0
LINE
8
BLACK
6
CONTINUOUS
10
2.6679
20
3.14796
11
2.66804
21
3.1483
0
LINE
8
BLACK
6
CONTINUOUS
10
2.66804
20
3.1483
11
2.66807
21
3.14866
0
LINE
8
BLACK
6
CONTINUOUS
10
2.66807
20
3.14866
11
2.669
21
3.15054
0
LINE
8
BLACK
6
CONTINUOUS
10
2.669
20
3.15054
11
2.6692
21
3.15071
0
LINE
8
BLACK
6
CONTINUOUS
10
2.6692
20
3.15071
11
2.6693
21
3.15094
0
LINE
8
BLACK
6
CONTINUOUS
10
2.6693
20
3.15094
11
2.67024
21
3.15188
0
LINE
8
BLACK
6
CONTINUOUS
10
2.67024
20
3.15188
11
2.67047
21
3.15198
0
LINE
8
BLACK
6
CONTINUOUS
10
2.67047
20
3.15198
11
2.67064
21
3.15218
0
LINE
8
BLACK
6
CONTINUOUS
10
2.67064
20
3.15218
11
2.67252
21
3.15311
0
LINE
8
BLACK
6
CONTINUOUS
10
2.67252
20
3.15311
11
2.6727
21
3.15313
0
LINE
8
BLACK
6
CONTINUOUS
10
2.6727
20
3.15313
11
2.66829
21
3.15817
0
LINE
8
BLACK
6
CONTINUOUS
10
2.66829
20
3.15817
11
2.66811
21
3.15869
0
LINE
8
BLACK
6
CONTINUOUS
10
2.66811
20
3.15869
11
2.6679
21
3.15921
0
LINE
8
BLACK
6
CONTINUOUS
10
2.6679
20
3.15921
11
2.66792
21
3.15926
0
LINE
8
BLACK
6
CONTINUOUS
10
2.66792
20
3.15926
11
2.6679
21
3.15931
0
LINE
8
BLACK
6
CONTINUOUS
10
2.6679
20
3.15931
11
2.66815
21
3.15981
0
LINE
8
BLACK
6
CONTINUOUS
10
2.66815
20
3.15981
11
2.66836
21
3.16032
0
LINE
8
BLACK
6
CONTINUOUS
10
2.66836
20
3.16032
11
2.66841
21
3.16034
0
LINE
8
BLACK
6
CONTINUOUS
10
2.66841
20
3.16034
11
2.66844
21
3.16039
0
LINE
8
BLACK
6
CONTINUOUS
10
2.66844
20
3.16039
11
2.66896
21
3.16057
0
LINE
8
BLACK
6
CONTINUOUS
10
2.66896
20
3.16057
11
2.66947
21
3.16078
0
LINE
8
BLACK
6
CONTINUOUS
10
2.66947
20
3.16078
11
2.68166
21
3.16078
0
LINE
8
BLACK
6
CONTINUOUS
10
2.68166
20
3.16078
11
2.68277
21
3.16032
0
LINE
8
BLACK
6
CONTINUOUS
10
2.65097
20
3.19999
11
2.65039
21
3.20138
0
LINE
8
BLACK
6
CONTINUOUS
10
2.65039
20
3.20138
11
2.65039
21
3.25059
0
LINE
8
BLACK
6
CONTINUOUS
10
2.65039
20
3.25059
11
2.65097
21
3.25198
0
LINE
8
BLACK
6
CONTINUOUS
10
2.65097
20
3.25198
11
2.65236
21
3.25256
0
LINE
8
BLACK
6
CONTINUOUS
10
2.65236
20
3.25256
11
2.7311
21
3.25256
0
LINE
8
BLACK
6
CONTINUOUS
10
2.7311
20
3.25256
11
2.73249
21
3.25198
0
LINE
8
BLACK
6
CONTINUOUS
10
2.73249
20
3.25198
11
2.73307
21
3.25059
0
LINE
8
BLACK
6
CONTINUOUS
10
2.73307
20
3.25059
11
2.73307
21
3.20138
0
LINE
8
BLACK
6
CONTINUOUS
10
2.73307
20
3.20138
11
2.73249
21
3.19999
0
LINE
8
BLACK
6
CONTINUOUS
10
2.73249
20
3.19999
11
2.7311
21
3.19941
0
LINE
8
BLACK
6
CONTINUOUS
10
2.7311
20
3.19941
11
2.65236
21
3.19941
0
LINE
8
BLACK
6
CONTINUOUS
10
2.65236
20
3.19941
11
2.65097
21
3.19999
0
LINE
8
BLACK
6
CONTINUOUS
10
2.65433
20
3.24862
11
2.65433
21
3.20335
0
LINE
8
BLACK
6
CONTINUOUS
10
2.65433
20
3.20335
11
2.72913
21
3.20335
0
LINE
8
BLACK
6
CONTINUOUS
10
2.72913
20
3.20335
11
2.72913
21
3.24862
0
LINE
8
BLACK
6
CONTINUOUS
10
2.72913
20
3.24862
11
2.65433
21
3.24862
0
LINE
8
BLACK
6
CONTINUOUS
10
2.70738
20
3.23788
11
2.70784
21
3.23676
0
LINE
8
BLACK
6
CONTINUOUS
10
2.70784
20
3.23676
11
2.70784
21
3.21708
0
LINE
8
BLACK
6
CONTINUOUS
10
2.70784
20
3.21708
11
2.70738
21
3.21597
0
LINE
8
BLACK
6
CONTINUOUS
10
2.70738
20
3.21597
11
2.70626
21
3.2155
0
LINE
8
BLACK
6
CONTINUOUS
10
2.70626
20
3.2155
11
2.70515
21
3.21597
0
LINE
8
BLACK
6
CONTINUOUS
10
2.70515
20
3.21597
11
2.70469
21
3.21708
0
LINE
8
BLACK
6
CONTINUOUS
10
2.70469
20
3.21708
11
2.70469
21
3.22488
0
LINE
8
BLACK
6
CONTINUOUS
10
2.70469
20
3.22488
11
2.70239
21
3.22488
0
LINE
8
BLACK
6
CONTINUOUS
10
2.70239
20
3.22488
11
2.6963
21
3.21618
0
LINE
8
BLACK
6
CONTINUOUS
10
2.6963
20
3.21618
11
2.69529
21
3.21553
0
LINE
8
BLACK
6
CONTINUOUS
10
2.69529
20
3.21553
11
2.69411
21
3.21579
0
LINE
8
BLACK
6
CONTINUOUS
10
2.69411
20
3.21579
11
2.69346
21
3.21681
0
LINE
8
BLACK
6
CONTINUOUS
10
2.69346
20
3.21681
11
2.69372
21
3.21798
0
LINE
8
BLACK
6
CONTINUOUS
10
2.69372
20
3.21798
11
2.6986
21
3.22495
0
LINE
8
BLACK
6
CONTINUOUS
10
2.6986
20
3.22495
11
2.69842
21
3.22502
0
LINE
8
BLACK
6
CONTINUOUS
10
2.69842
20
3.22502
11
2.69806
21
3.22504
0
LINE
8
BLACK
6
CONTINUOUS
10
2.69806
20
3.22504
11
2.69618
21
3.22598
0
LINE
8
BLACK
6
CONTINUOUS
10
2.69618
20
3.22598
11
2.69601
21
3.22618
0
LINE
8
BLACK
6
CONTINUOUS
10
2.69601
20
3.22618
11
2.69577
21
3.22628
0
LINE
8
BLACK
6
CONTINUOUS
10
2.69577
20
3.22628
11
2.69484
21
3.22721
0
LINE
8
BLACK
6
CONTINUOUS
10
2.69484
20
3.22721
11
2.69474
21
3.22745
0
LINE
8
BLACK
6
CONTINUOUS
10
2.69474
20
3.22745
11
2.69454
21
3.22762
0
LINE
8
BLACK
6
CONTINUOUS
10
2.69454
20
3.22762
11
2.6936
21
3.2295
0
LINE
8
BLACK
6
CONTINUOUS
10
2.6936
20
3.2295
11
2.69358
21
3.22986
0
LINE
8
BLACK
6
CONTINUOUS
10
2.69358
20
3.22986
11
2.69344
21
3.2302
0
LINE
8
BLACK
6
CONTINUOUS
10
2.69344
20
3.2302
11
2.69344
21
3.23301
0
LINE
8
BLACK
6
CONTINUOUS
10
2.69344
20
3.23301
11
2.69358
21
3.23335
0
LINE
8
BLACK
6
CONTINUOUS
10
2.69358
20
3.23335
11
2.6936
21
3.23372
0
LINE
8
BLACK
6
CONTINUOUS
10
2.6936
20
3.23372
11
2.69454
21
3.23559
0
LINE
8
BLACK
6
CONTINUOUS
10
2.69454
20
3.23559
11
2.69474
21
3.23576
0
LINE
8
BLACK
6
CONTINUOUS
10
2.69474
20
3.23576
11
2.69484
21
3.236
0
LINE
8
BLACK
6
CONTINUOUS
10
2.69484
20
3.236
11
2.69577
21
3.23694
0
LINE
8
BLACK
6
CONTINUOUS
10
2.69577
20
3.23694
11
2.69601
21
3.23704
0
LINE
8
BLACK
6
CONTINUOUS
10
2.69601
20
3.23704
11
2.69618
21
3.23724
0
LINE
8
BLACK
6
CONTINUOUS
10
2.69618
20
3.23724
11
2.69806
21
3.23817
0
LINE
8
BLACK
6
CONTINUOUS
10
2.69806
20
3.23817
11
2.69842
21
3.2382
0
LINE
8
BLACK
6
CONTINUOUS
10
2.69842
20
3.2382
11
2.69876
21
3.23834
0
LINE
8
BLACK
6
CONTINUOUS
10
2.69876
20
3.23834
11
2.70626
21
3.23834
0
LINE
8
BLACK
6
CONTINUOUS
10
2.70626
20
3.23834
11
2.70738
21
3.23788
0
LINE
8
BLACK
6
CONTINUOUS
10
2.69913
20
3.23519
11
2.69782
21
3.23453
0
LINE
8
BLACK
6
CONTINUOUS
10
2.69782
20
3.23453
11
2.69724
21
3.23396
0
LINE
8
BLACK
6
CONTINUOUS
10
2.69724
20
3.23396
11
2.69659
21
3.23264
0
LINE
8
BLACK
6
CONTINUOUS
10
2.69659
20
3.23264
11
2.69659
21
3.23057
0
LINE
8
BLACK
6
CONTINUOUS
10
2.69659
20
3.23057
11
2.69724
21
3.22926
0
LINE
8
BLACK
6
CONTINUOUS
10
2.69724
20
3.22926
11
2.69782
21
3.22868
0
LINE
8
BLACK
6
CONTINUOUS
10
2.69782
20
3.22868
11
2.69913
21
3.22803
0
LINE
8
BLACK
6
CONTINUOUS
10
2.69913
20
3.22803
11
2.70469
21
3.22803
0
LINE
8
BLACK
6
CONTINUOUS
10
2.70469
20
3.22803
11
2.70469
21
3.23519
0
LINE
8
BLACK
6
CONTINUOUS
10
2.70469
20
3.23519
11
2.69913
21
3.23519
0
LINE
8
BLACK
6
CONTINUOUS
10
2.67515
20
3.21597
11
2.67469
21
3.21708
0
LINE
8
BLACK
6
CONTINUOUS
10
2.67469
20
3.21708
11
2.67515
21
3.21819
0
LINE
8
BLACK
6
CONTINUOUS
10
2.67515
20
3.21819
11
2.67627
21
3.21865
0
LINE
8
BLACK
6
CONTINUOUS
10
2.67627
20
3.21865
11
2.68031
21
3.21865
0
LINE
8
BLACK
6
CONTINUOUS
10
2.68031
20
3.21865
11
2.68031
21
3.23676
0
LINE
8
BLACK
6
CONTINUOUS
10
2.68031
20
3.23676
11
2.68038
21
3.23691
0
LINE
8
BLACK
6
CONTINUOUS
10
2.68038
20
3.23691
11
2.68035
21
3.23707
0
LINE
8
BLACK
6
CONTINUOUS
10
2.68035
20
3.23707
11
2.6806
21
3.23745
0
LINE
8
BLACK
6
CONTINUOUS
10
2.6806
20
3.23745
11
2.68078
21
3.23788
0
LINE
8
BLACK
6
CONTINUOUS
10
2.68078
20
3.23788
11
2.68093
21
3.23794
0
LINE
8
BLACK
6
CONTINUOUS
10
2.68093
20
3.23794
11
2.68102
21
3.23807
0
LINE
8
BLACK
6
CONTINUOUS
10
2.68102
20
3.23807
11
2.68147
21
3.23816
0
LINE
8
BLACK
6
CONTINUOUS
10
2.68147
20
3.23816
11
2.68189
21
3.23834
0
LINE
8
BLACK
6
CONTINUOUS
10
2.68189
20
3.23834
11
2.68204
21
3.23828
0
LINE
8
BLACK
6
CONTINUOUS
10
2.68204
20
3.23828
11
2.6822
21
3.23831
0
LINE
8
BLACK
6
CONTINUOUS
10
2.6822
20
3.23831
11
2.68258
21
3.23805
0
LINE
8
BLACK
6
CONTINUOUS
10
2.68258
20
3.23805
11
2.683
21
3.23788
0
LINE
8
BLACK
6
CONTINUOUS
10
2.683
20
3.23788
11
2.68307
21
3.23773
0
LINE
8
BLACK
6
CONTINUOUS
10
2.68307
20
3.23773
11
2.6832
21
3.23764
0
LINE
8
BLACK
6
CONTINUOUS
10
2.6832
20
3.23764
11
2.68499
21
3.23496
0
LINE
8
BLACK
6
CONTINUOUS
10
2.68499
20
3.23496
11
2.68657
21
3.23337
0
LINE
8
BLACK
6
CONTINUOUS
10
2.68657
20
3.23337
11
2.68822
21
3.23255
0
LINE
8
BLACK
6
CONTINUOUS
10
2.68822
20
3.23255
11
2.68901
21
3.23164
0
LINE
8
BLACK
6
CONTINUOUS
10
2.68901
20
3.23164
11
2.68892
21
3.23044
0
LINE
8
BLACK
6
CONTINUOUS
10
2.68892
20
3.23044
11
2.68801
21
3.22965
0
LINE
8
BLACK
6
CONTINUOUS
10
2.68801
20
3.22965
11
2.68681
21
3.22973
0
LINE
8
BLACK
6
CONTINUOUS
10
2.68681
20
3.22973
11
2.68494
21
3.23067
0
LINE
8
BLACK
6
CONTINUOUS
10
2.68494
20
3.23067
11
2.68477
21
3.23086
0
LINE
8
BLACK
6
CONTINUOUS
10
2.68477
20
3.23086
11
2.68453
21
3.23096
0
LINE
8
BLACK
6
CONTINUOUS
10
2.68453
20
3.23096
11
2.68346
21
3.23202
0
LINE
8
BLACK
6
CONTINUOUS
10
2.68346
20
3.23202
11
2.68346
21
3.21865
0
LINE
8
BLACK
6
CONTINUOUS
10
2.68346
20
3.21865
11
2.68751
21
3.21865
0
LINE
8
BLACK
6
CONTINUOUS
10
2.68751
20
3.21865
11
2.68863
21
3.21819
0
LINE
8
BLACK
6
CONTINUOUS
10
2.68863
20
3.21819
11
2.68909
21
3.21708
0
LINE
8
BLACK
6
CONTINUOUS
10
2.68909
20
3.21708
11
2.68863
21
3.21597
0
LINE
8
BLACK
6
CONTINUOUS
10
2.68863
20
3.21597
11
2.68751
21
3.2155
0
LINE
8
BLACK
6
CONTINUOUS
10
2.68751
20
3.2155
11
2.67627
21
3.2155
0
LINE
8
BLACK
6
CONTINUOUS
10
2.67627
20
3.2155
11
2.67515
21
3.21597
0
LINE
8
BLACK
6
CONTINUOUS
10
0.063175
20
3.34398
11
0.0625984
21
3.34537
0
LINE
8
BLACK
6
CONTINUOUS
10
0.0625984
20
3.34537
11
0.0625984
21
3.42411
0
LINE
8
BLACK
6
CONTINUOUS
10
0.0625984
20
3.42411
11
0.063175
21
3.42551
0
LINE
8
BLACK
6
CONTINUOUS
10
0.063175
20
3.42551
11
0.0645669
21
3.42608
0
LINE
8
BLACK
6
CONTINUOUS
10
0.0645669
20
3.42608
11
0.111811
21
3.42608
0
LINE
8
BLACK
6
CONTINUOUS
10
0.111811
20
3.42608
11
0.113203
21
3.42551
0
LINE
8
BLACK
6
CONTINUOUS
10
0.113203
20
3.42551
11
0.11378
21
3.42411
0
LINE
8
BLACK
6
CONTINUOUS
10
0.11378
20
3.42411
11
0.11378
21
3.34537
0
LINE
8
BLACK
6
CONTINUOUS
10
0.11378
20
3.34537
11
0.113203
21
3.34398
0
LINE
8
BLACK
6
CONTINUOUS
10
0.113203
20
3.34398
11
0.111811
21
3.34341
0
LINE
8
BLACK
6
CONTINUOUS
10
0.111811
20
3.34341
11
0.0645669
21
3.34341
0
LINE
8
BLACK
6
CONTINUOUS
10
0.0645669
20
3.34341
11
0.063175
21
3.34398
0
LINE
8
BLACK
6
CONTINUOUS
10
0.0665354
20
3.42215
11
0.0665354
21
3.34734
0
LINE
8
BLACK
6
CONTINUOUS
10
0.0665354
20
3.34734
11
0.109843
21
3.34734
0
LINE
8
BLACK
6
CONTINUOUS
10
0.109843
20
3.34734
11
0.109843
21
3.42215
0
LINE
8
BLACK
6
CONTINUOUS
10
0.109843
20
3.42215
11
0.0665354
21
3.42215
0
LINE
8
BLACK
6
CONTINUOUS
10
0.0908711
20
3.38196
11
0.0912367
21
3.38193
0
LINE
8
BLACK
6
CONTINUOUS
10
0.0912367
20
3.38193
11
0.0914065
21
3.38174
0
LINE
8
BLACK
6
CONTINUOUS
10
0.0914065
20
3.38174
11
0.0916459
21
3.38164
0
LINE
8
BLACK
6
CONTINUOUS
10
0.0916459
20
3.38164
11
0.0917862
21
3.3813
0
LINE
8
BLACK
6
CONTINUOUS
10
0.0917862
20
3.3813
11
0.0920264
21
3.38102
0
LINE
8
BLACK
6
CONTINUOUS
10
0.0920264
20
3.38102
11
0.092008
21
3.38077
0
LINE
8
BLACK
6
CONTINUOUS
10
0.092008
20
3.38077
11
0.0921072
21
3.38053
0
LINE
8
BLACK
6
CONTINUOUS
10
0.0921072
20
3.38053
11
0.0921072
21
3.37273
0
LINE
8
BLACK
6
CONTINUOUS
10
0.0921072
20
3.37273
11
0.0970941
21
3.37273
0
LINE
8
BLACK
6
CONTINUOUS
10
0.0970941
20
3.37273
11
0.0982076
21
3.37227
0
LINE
8
BLACK
6
CONTINUOUS
10
0.0982076
20
3.37227
11
0.0986689
21
3.37115
0
LINE
8
BLACK
6
CONTINUOUS
10
0.0986689
20
3.37115
11
0.0982076
21
3.37004
0
LINE
8
BLACK
6
CONTINUOUS
10
0.0982076
20
3.37004
11
0.0970941
21
3.36958
0
LINE
8
BLACK
6
CONTINUOUS
10
0.0970941
20
3.36958
11
0.0921072
21
3.36958
0
LINE
8
BLACK
6
CONTINUOUS
10
0.0921072
20
3.36958
11
0.0921072
21
3.36834
0
LINE
8
BLACK
6
CONTINUOUS
10
0.0921072
20
3.36834
11
0.0916459
21
3.36723
0
LINE
8
BLACK
6
CONTINUOUS
10
0.0916459
20
3.36723
11
0.0905324
21
3.36677
0
LINE
8
BLACK
6
CONTINUOUS
10
0.0905324
20
3.36677
11
0.0894189
21
3.36723
0
LINE
8
BLACK
6
CONTINUOUS
10
0.0894189
20
3.36723
11
0.0889576
21
3.36834
0
LINE
8
BLACK
6
CONTINUOUS
10
0.0889576
20
3.36834
11
0.0889576
21
3.36958
0
LINE
8
BLACK
6
CONTINUOUS
10
0.0889576
20
3.36958
11
0.0839707
21
3.36958
0
LINE
8
BLACK
6
CONTINUOUS
10
0.0839707
20
3.36958
11
0.0828572
21
3.37004
0
LINE
8
BLACK
6
CONTINUOUS
10
0.0828572
20
3.37004
11
0.0823959
21
3.37115
0
LINE
8
BLACK
6
CONTINUOUS
10
0.0823959
20
3.37115
11
0.0828572
21
3.37227
0
LINE
8
BLACK
6
CONTINUOUS
10
0.0828572
20
3.37227
11
0.0839707
21
3.37273
0
LINE
8
BLACK
6
CONTINUOUS
10
0.0839707
20
3.37273
11
0.0889576
21
3.37273
0
LINE
8
BLACK
6
CONTINUOUS
10
0.0889576
20
3.37273
11
0.0889576
21
3.37834
0
LINE
8
BLACK
6
CONTINUOUS
10
0.0889576
20
3.37834
11
0.0769696
21
3.37434
0
LINE
8
BLACK
6
CONTINUOUS
10
0.0769696
20
3.37434
11
0.0757674
21
3.37443
0
LINE
8
BLACK
6
CONTINUOUS
10
0.0757674
20
3.37443
11
0.0749777
21
3.37534
0
LINE
8
BLACK
6
CONTINUOUS
10
0.0749777
20
3.37534
11
0.0750631
21
3.37654
0
LINE
8
BLACK
6
CONTINUOUS
10
0.0750631
20
3.37654
11
0.0759737
21
3.37733
0
LINE
8
BLACK
6
CONTINUOUS
10
0.0759737
20
3.37733
11
0.0900344
21
3.38202
0
LINE
8
BLACK
6
CONTINUOUS
10
0.0900344
20
3.38202
11
0.0902929
21
3.382
0
LINE
8
BLACK
6
CONTINUOUS
10
0.0902929
20
3.382
11
0.0905324
21
3.3821
0
LINE
8
BLACK
6
CONTINUOUS
10
0.0905324
20
3.3821
11
0.0908711
21
3.38196
0
LINE
8
BLACK
6
CONTINUOUS
10
0.0888421
20
3.40171
11
0.0890396
21
3.40174
0
LINE
8
BLACK
6
CONTINUOUS
10
0.0890396
20
3.40174
11
0.0927891
21
3.4008
0
LINE
8
BLACK
6
CONTINUOUS
10
0.0927891
20
3.4008
11
0.0929329
21
3.40069
0
LINE
8
BLACK
6
CONTINUOUS
10
0.0929329
20
3.40069
11
0.0931114
21
3.40068
0
LINE
8
BLACK
6
CONTINUOUS
10
0.0931114
20
3.40068
11
0.0949862
21
3.39974
0
LINE
8
BLACK
6
CONTINUOUS
10
0.0949862
20
3.39974
11
0.095156
21
3.39955
0
LINE
8
BLACK
6
CONTINUOUS
10
0.095156
20
3.39955
11
0.0953955
21
3.39945
0
LINE
8
BLACK
6
CONTINUOUS
10
0.0953955
20
3.39945
11
0.0972702
21
3.39757
0
LINE
8
BLACK
6
CONTINUOUS
10
0.0972702
20
3.39757
11
0.0974105
21
3.39724
0
LINE
8
BLACK
6
CONTINUOUS
10
0.0974105
20
3.39724
11
0.0976507
21
3.39696
0
LINE
8
BLACK
6
CONTINUOUS
10
0.0976507
20
3.39696
11
0.0985881
21
3.39415
0
LINE
8
BLACK
6
CONTINUOUS
10
0.0985881
20
3.39415
11
0.0985697
21
3.39389
0
LINE
8
BLACK
6
CONTINUOUS
10
0.0985697
20
3.39389
11
0.0986689
21
3.39365
0
LINE
8
BLACK
6
CONTINUOUS
10
0.0986689
20
3.39365
11
0.0986689
21
3.39177
0
LINE
8
BLACK
6
CONTINUOUS
10
0.0986689
20
3.39177
11
0.0985697
21
3.39153
0
LINE
8
BLACK
6
CONTINUOUS
10
0.0985697
20
3.39153
11
0.0985881
21
3.39128
0
LINE
8
BLACK
6
CONTINUOUS
10
0.0985881
20
3.39128
11
0.0976507
21
3.38846
0
LINE
8
BLACK
6
CONTINUOUS
10
0.0976507
20
3.38846
11
0.0974105
21
3.38819
0
LINE
8
BLACK
6
CONTINUOUS
10
0.0974105
20
3.38819
11
0.0972702
21
3.38785
0
LINE
8
BLACK
6
CONTINUOUS
10
0.0972702
20
3.38785
11
0.0963329
21
3.38691
0
LINE
8
BLACK
6
CONTINUOUS
10
0.0963329
20
3.38691
11
0.0952193
21
3.38645
0
LINE
8
BLACK
6
CONTINUOUS
10
0.0952193
20
3.38645
11
0.0941058
21
3.38691
0
LINE
8
BLACK
6
CONTINUOUS
10
0.0941058
20
3.38691
11
0.0936445
21
3.38802
0
LINE
8
BLACK
6
CONTINUOUS
10
0.0936445
20
3.38802
11
0.0941058
21
3.38914
0
LINE
8
BLACK
6
CONTINUOUS
10
0.0941058
20
3.38914
11
0.0947803
21
3.38981
0
LINE
8
BLACK
6
CONTINUOUS
10
0.0947803
20
3.38981
11
0.0955193
21
3.39203
0
LINE
8
BLACK
6
CONTINUOUS
10
0.0955193
20
3.39203
11
0.0955193
21
3.39339
0
LINE
8
BLACK
6
CONTINUOUS
10
0.0955193
20
3.39339
11
0.0947803
21
3.39561
0
LINE
8
BLACK
6
CONTINUOUS
10
0.0947803
20
3.39561
11
0.0933491
21
3.39704
0
LINE
8
BLACK
6
CONTINUOUS
10
0.0933491
20
3.39704
11
0.0918576
21
3.39779
0
LINE
8
BLACK
6
CONTINUOUS
10
0.0918576
20
3.39779
11
0.0884637
21
3.39864
0
LINE
8
BLACK
6
CONTINUOUS
10
0.0884637
20
3.39864
11
0.0860394
21
3.39864
0
LINE
8
BLACK
6
CONTINUOUS
10
0.0860394
20
3.39864
11
0.0826455
21
3.39779
0
LINE
8
BLACK
6
CONTINUOUS
10
0.0826455
20
3.39779
11
0.0811541
21
3.39704
0
LINE
8
BLACK
6
CONTINUOUS
10
0.0811541
20
3.39704
11
0.0797229
21
3.39561
0
LINE
8
BLACK
6
CONTINUOUS
10
0.0797229
20
3.39561
11
0.0789839
21
3.39339
0
LINE
8
BLACK
6
CONTINUOUS
10
0.0789839
20
3.39339
11
0.0789839
21
3.39203
0
LINE
8
BLACK
6
CONTINUOUS
10
0.0789839
20
3.39203
11
0.0797229
21
3.38981
0
LINE
8
BLACK
6
CONTINUOUS
10
0.0797229
20
3.38981
11
0.0803974
21
3.38914
0
LINE
8
BLACK
6
CONTINUOUS
10
0.0803974
20
3.38914
11
0.0808586
21
3.38802
0
LINE
8
BLACK
6
CONTINUOUS
10
0.0808586
20
3.38802
11
0.0803974
21
3.38691
0
LINE
8
BLACK
6
CONTINUOUS
10
0.0803974
20
3.38691
11
0.0792838
21
3.38645
0
LINE
8
BLACK
6
CONTINUOUS
10
0.0792838
20
3.38645
11
0.0781703
21
3.38691
0
LINE
8
BLACK
6
CONTINUOUS
10
0.0781703
20
3.38691
11
0.0772329
21
3.38785
0
LINE
8
BLACK
6
CONTINUOUS
10
0.0772329
20
3.38785
11
0.0770926
21
3.38819
0
LINE
8
BLACK
6
CONTINUOUS
10
0.0770926
20
3.38819
11
0.0768525
21
3.38846
0
LINE
8
BLACK
6
CONTINUOUS
10
0.0768525
20
3.38846
11
0.0759151
21
3.39128
0
LINE
8
BLACK
6
CONTINUOUS
10
0.0759151
20
3.39128
11
0.0759335
21
3.39153
0
LINE
8
BLACK
6
CONTINUOUS
10
0.0759335
20
3.39153
11
0.0758343
21
3.39177
0
LINE
8
BLACK
6
CONTINUOUS
10
0.0758343
20
3.39177
11
0.0758343
21
3.39365
0
LINE
8
BLACK
6
CONTINUOUS
10
0.0758343
20
3.39365
11
0.0759335
21
3.39389
0
LINE
8
BLACK
6
CONTINUOUS
10
0.0759335
20
3.39389
11
0.0759151
21
3.39415
0
LINE
8
BLACK
6
CONTINUOUS
10
0.0759151
20
3.39415
11
0.0768525
21
3.39696
0
LINE
8
BLACK
6
CONTINUOUS
10
0.0768525
20
3.39696
11
0.0770926
21
3.39724
0
LINE
8
BLACK
6
CONTINUOUS
10
0.0770926
20
3.39724
11
0.0772329
21
3.39757
0
LINE
8
BLACK
6
CONTINUOUS
10
0.0772329
20
3.39757
11
0.0791076
21
3.39945
0
LINE
8
BLACK
6
CONTINUOUS
10
0.0791076
20
3.39945
11
0.0793472
21
3.39955
0
LINE
8
BLACK
6
CONTINUOUS
10
0.0793472
20
3.39955
11
0.079517
21
3.39974
0
LINE
8
BLACK
6
CONTINUOUS
10
0.079517
20
3.39974
11
0.0813917
21
3.40068
0
LINE
8
BLACK
6
CONTINUOUS
10
0.0813917
20
3.40068
11
0.0815702
21
3.40069
0
LINE
8
BLACK
6
CONTINUOUS
10
0.0815702
20
3.40069
11
0.081714
21
3.4008
0
LINE
8
BLACK
6
CONTINUOUS
10
0.081714
20
3.4008
11
0.0854635
21
3.40174
0
LINE
8
BLACK
6
CONTINUOUS
10
0.0854635
20
3.40174
11
0.0856611
21
3.40171
0
LINE
8
BLACK
6
CONTINUOUS
10
0.0856611
20
3.40171
11
0.0858455
21
3.40179
0
LINE
8
BLACK
6
CONTINUOUS
10
0.0858455
20
3.40179
11
0.0886576
21
3.40179
0
LINE
8
BLACK
6
CONTINUOUS
10
0.0886576
20
3.40179
11
0.0888421
21
3.40171
0
LINE
8
BLACK
6
CONTINUOUS
10
0.140537
20
3.35058
11
0.139961
21
3.35197
0
LINE
8
BLACK
6
CONTINUOUS
10
0.139961
20
3.35197
11
0.139961
21
3.43071
0
LINE
8
BLACK
6
CONTINUOUS
10
0.139961
20
3.43071
11
0.140537
21
3.4321
0
LINE
8
BLACK
6
CONTINUOUS
10
0.140537
20
3.4321
11
0.141929
21
3.43268
0
LINE
8
BLACK
6
CONTINUOUS
10
0.141929
20
3.43268
11
0.191142
21
3.43268
0
LINE
8
BLACK
6
CONTINUOUS
10
0.191142
20
3.43268
11
0.192534
21
3.4321
0
LINE
8
BLACK
6
CONTINUOUS
10
0.192534
20
3.4321
11
0.19311
21
3.43071
0
LINE
8
BLACK
6
CONTINUOUS
10
0.19311
20
3.43071
11
0.19311
21
3.35197
0
LINE
8
BLACK
6
CONTINUOUS
10
0.19311
20
3.35197
11
0.192534
21
3.35058
0
LINE
8
BLACK
6
CONTINUOUS
10
0.192534
20
3.35058
11
0.191142
21
3.35
0
LINE
8
BLACK
6
CONTINUOUS
10
0.191142
20
3.35
11
0.141929
21
3.35
0
LINE
8
BLACK
6
CONTINUOUS
10
0.141929
20
3.35
11
0.140537
21
3.35058
0
LINE
8
BLACK
6
CONTINUOUS
10
0.143898
20
3.42874
11
0.143898
21
3.35394
0
LINE
8
BLACK
6
CONTINUOUS
10
0.143898
20
3.35394
11
0.189173
21
3.35394
0
LINE
8
BLACK
6
CONTINUOUS
10
0.189173
20
3.35394
11
0.189173
21
3.42874
0
LINE
8
BLACK
6
CONTINUOUS
10
0.189173
20
3.42874
11
0.143898
21
3.42874
0
LINE
8
BLACK
6
CONTINUOUS
10
0.176554
20
3.38917
11
0.177015
21
3.38806
0
LINE
8
BLACK
6
CONTINUOUS
10
0.177015
20
3.38806
11
0.177015
21
3.37587
0
LINE
8
BLACK
6
CONTINUOUS
10
0.177015
20
3.37587
11
0.176554
21
3.37476
0
LINE
8
BLACK
6
CONTINUOUS
10
0.176554
20
3.37476
11
0.175441
21
3.3743
0
LINE
8
BLACK
6
CONTINUOUS
10
0.175441
20
3.3743
11
0.174327
21
3.37476
0
LINE
8
BLACK
6
CONTINUOUS
10
0.174327
20
3.37476
11
0.173866
21
3.37587
0
LINE
8
BLACK
6
CONTINUOUS
10
0.173866
20
3.37587
11
0.173866
21
3.38426
0
LINE
8
BLACK
6
CONTINUOUS
10
0.173866
20
3.38426
11
0.165306
21
3.3757
0
LINE
8
BLACK
6
CONTINUOUS
10
0.165306
20
3.3757
11
0.164967
21
3.37556
0
LINE
8
BLACK
6
CONTINUOUS
10
0.164967
20
3.37556
11
0.16469
21
3.37532
0
LINE
8
BLACK
6
CONTINUOUS
10
0.16469
20
3.37532
11
0.161878
21
3.37438
0
LINE
8
BLACK
6
CONTINUOUS
10
0.161878
20
3.37438
11
0.161619
21
3.3744
0
LINE
8
BLACK
6
CONTINUOUS
10
0.161619
20
3.3744
11
0.16138
21
3.3743
0
LINE
8
BLACK
6
CONTINUOUS
10
0.16138
20
3.3743
11
0.159505
21
3.3743
0
LINE
8
BLACK
6
CONTINUOUS
10
0.159505
20
3.3743
11
0.159166
21
3.37444
0
LINE
8
BLACK
6
CONTINUOUS
10
0.159166
20
3.37444
11
0.158801
21
3.37446
0
LINE
8
BLACK
6
CONTINUOUS
10
0.158801
20
3.37446
11
0.156926
21
3.3754
0
LINE
8
BLACK
6
CONTINUOUS
10
0.156926
20
3.3754
11
0.156756
21
3.3756
0
LINE
8
BLACK
6
CONTINUOUS
10
0.156756
20
3.3756
11
0.156517
21
3.3757
0
LINE
8
BLACK
6
CONTINUOUS
10
0.156517
20
3.3757
11
0.155579
21
3.37663
0
LINE
8
BLACK
6
CONTINUOUS
10
0.155579
20
3.37663
11
0.15548
21
3.37687
0
LINE
8
BLACK
6
CONTINUOUS
10
0.15548
20
3.37687
11
0.155284
21
3.37704
0
LINE
8
BLACK
6
CONTINUOUS
10
0.155284
20
3.37704
11
0.154347
21
3.37892
0
LINE
8
BLACK
6
CONTINUOUS
10
0.154347
20
3.37892
11
0.154321
21
3.37928
0
LINE
8
BLACK
6
CONTINUOUS
10
0.154321
20
3.37928
11
0.154181
21
3.37962
0
LINE
8
BLACK
6
CONTINUOUS
10
0.154181
20
3.37962
11
0.154181
21
3.38431
0
LINE
8
BLACK
6
CONTINUOUS
10
0.154181
20
3.38431
11
0.154321
21
3.38465
0
LINE
8
BLACK
6
CONTINUOUS
10
0.154321
20
3.38465
11
0.154347
21
3.38501
0
LINE
8
BLACK
6
CONTINUOUS
10
0.154347
20
3.38501
11
0.155284
21
3.38689
0
LINE
8
BLACK
6
CONTINUOUS
10
0.155284
20
3.38689
11
0.15548
21
3.38706
0
LINE
8
BLACK
6
CONTINUOUS
10
0.15548
20
3.38706
11
0.155579
21
3.3873
0
LINE
8
BLACK
6
CONTINUOUS
10
0.155579
20
3.3873
11
0.156517
21
3.38823
0
LINE
8
BLACK
6
CONTINUOUS
10
0.156517
20
3.38823
11
0.15763
21
3.3887
0
LINE
8
BLACK
6
CONTINUOUS
10
0.15763
20
3.3887
11
0.158744
21
3.38823
0
LINE
8
BLACK
6
CONTINUOUS
10
0.158744
20
3.38823
11
0.159205
21
3.38712
0
LINE
8
BLACK
6
CONTINUOUS
10
0.159205
20
3.38712
11
0.158744
21
3.38601
0
LINE
8
BLACK
6
CONTINUOUS
10
0.158744
20
3.38601
11
0.157987
21
3.38525
0
LINE
8
BLACK
6
CONTINUOUS
10
0.157987
20
3.38525
11
0.15733
21
3.38394
0
LINE
8
BLACK
6
CONTINUOUS
10
0.15733
20
3.38394
11
0.15733
21
3.37999
0
LINE
8
BLACK
6
CONTINUOUS
10
0.15733
20
3.37999
11
0.157987
21
3.37868
0
LINE
8
BLACK
6
CONTINUOUS
10
0.157987
20
3.37868
11
0.158563
21
3.3781
0
LINE
8
BLACK
6
CONTINUOUS
10
0.158563
20
3.3781
11
0.159877
21
3.37745
0
LINE
8
BLACK
6
CONTINUOUS
10
0.159877
20
3.37745
11
0.161124
21
3.37745
0
LINE
8
BLACK
6
CONTINUOUS
10
0.161124
20
3.37745
11
0.163341
21
3.37819
0
LINE
8
BLACK
6
CONTINUOUS
10
0.163341
20
3.37819
11
0.174327
21
3.38917
0
LINE
8
BLACK
6
CONTINUOUS
10
0.174327
20
3.38917
11
0.175441
21
3.38963
0
LINE
8
BLACK
6
CONTINUOUS
10
0.175441
20
3.38963
11
0.176554
21
3.38917
0
LINE
8
BLACK
6
CONTINUOUS
10
0.176554
20
3.40698
11
0.177015
21
3.40587
0
LINE
8
BLACK
6
CONTINUOUS
10
0.177015
20
3.40587
11
0.176554
21
3.40475
0
LINE
8
BLACK
6
CONTINUOUS
10
0.176554
20
3.40475
11
0.175441
21
3.40429
0
LINE
8
BLACK
6
CONTINUOUS
10
0.175441
20
3.40429
11
0.167642
21
3.40429
0
LINE
8
BLACK
6
CONTINUOUS
10
0.167642
20
3.40429
11
0.167642
21
3.402
0
LINE
8
BLACK
6
CONTINUOUS
10
0.167642
20
3.402
11
0.176344
21
3.39591
0
LINE
8
BLACK
6
CONTINUOUS
10
0.176344
20
3.39591
11
0.176991
21
3.39489
0
LINE
8
BLACK
6
CONTINUOUS
10
0.176991
20
3.39489
11
0.176731
21
3.39372
0
LINE
8
BLACK
6
CONTINUOUS
10
0.176731
20
3.39372
11
0.175714
21
3.39307
0
LINE
8
BLACK
6
CONTINUOUS
10
0.175714
20
3.39307
11
0.174537
21
3.39333
0
LINE
8
BLACK
6
CONTINUOUS
10
0.174537
20
3.39333
11
0.167573
21
3.3982
0
LINE
8
BLACK
6
CONTINUOUS
10
0.167573
20
3.3982
11
0.167501
21
3.39803
0
LINE
8
BLACK
6
CONTINUOUS
10
0.167501
20
3.39803
11
0.167475
21
3.39766
0
LINE
8
BLACK
6
CONTINUOUS
10
0.167475
20
3.39766
11
0.166538
21
3.39579
0
LINE
8
BLACK
6
CONTINUOUS
10
0.166538
20
3.39579
11
0.166342
21
3.39562
0
LINE
8
BLACK
6
CONTINUOUS
10
0.166342
20
3.39562
11
0.166243
21
3.39538
0
LINE
8
BLACK
6
CONTINUOUS
10
0.166243
20
3.39538
11
0.165306
21
3.39444
0
LINE
8
BLACK
6
CONTINUOUS
10
0.165306
20
3.39444
11
0.165066
21
3.39434
0
LINE
8
BLACK
6
CONTINUOUS
10
0.165066
20
3.39434
11
0.164896
21
3.39415
0
LINE
8
BLACK
6
CONTINUOUS
10
0.164896
20
3.39415
11
0.163021
21
3.39321
0
LINE
8
BLACK
6
CONTINUOUS
10
0.163021
20
3.39321
11
0.162656
21
3.39318
0
LINE
8
BLACK
6
CONTINUOUS
10
0.162656
20
3.39318
11
0.162317
21
3.39304
0
LINE
8
BLACK
6
CONTINUOUS
10
0.162317
20
3.39304
11
0.159505
21
3.39304
0
LINE
8
BLACK
6
CONTINUOUS
10
0.159505
20
3.39304
11
0.159166
21
3.39318
0
LINE
8
BLACK
6
CONTINUOUS
10
0.159166
20
3.39318
11
0.158801
21
3.39321
0
LINE
8
BLACK
6
CONTINUOUS
10
0.158801
20
3.39321
11
0.156926
21
3.39415
0
LINE
8
BLACK
6
CONTINUOUS
10
0.156926
20
3.39415
11
0.156756
21
3.39434
0
LINE
8
BLACK
6
CONTINUOUS
10
0.156756
20
3.39434
11
0.156517
21
3.39444
0
LINE
8
BLACK
6
CONTINUOUS
10
0.156517
20
3.39444
11
0.155579
21
3.39538
0
LINE
8
BLACK
6
CONTINUOUS
10
0.155579
20
3.39538
11
0.15548
21
3.39562
0
LINE
8
BLACK
6
CONTINUOUS
10
0.15548
20
3.39562
11
0.155284
21
3.39579
0
LINE
8
BLACK
6
CONTINUOUS
10
0.155284
20
3.39579
11
0.154347
21
3.39766
0
LINE
8
BLACK
6
CONTINUOUS
10
0.154347
20
3.39766
11
0.154321
21
3.39803
0
LINE
8
BLACK
6
CONTINUOUS
10
0.154321
20
3.39803
11
0.154181
21
3.39837
0
LINE
8
BLACK
6
CONTINUOUS
10
0.154181
20
3.39837
11
0.154181
21
3.40587
0
LINE
8
BLACK
6
CONTINUOUS
10
0.154181
20
3.40587
11
0.154642
21
3.40698
0
LINE
8
BLACK
6
CONTINUOUS
10
0.154642
20
3.40698
11
0.155756
21
3.40744
0
LINE
8
BLACK
6
CONTINUOUS
10
0.155756
20
3.40744
11
0.175441
21
3.40744
0
LINE
8
BLACK
6
CONTINUOUS
10
0.175441
20
3.40744
11
0.176554
21
3.40698
0
LINE
8
BLACK
6
CONTINUOUS
10
0.15733
20
3.40429
11
0.15733
21
3.39874
0
LINE
8
BLACK
6
CONTINUOUS
10
0.15733
20
3.39874
11
0.157987
21
3.39743
0
LINE
8
BLACK
6
CONTINUOUS
10
0.157987
20
3.39743
11
0.158563
21
3.39685
0
LINE
8
BLACK
6
CONTINUOUS
10
0.158563
20
3.39685
11
0.159877
21
3.39619
0
LINE
8
BLACK
6
CONTINUOUS
10
0.159877
20
3.39619
11
0.161945
21
3.39619
0
LINE
8
BLACK
6
CONTINUOUS
10
0.161945
20
3.39619
11
0.163259
21
3.39685
0
LINE
8
BLACK
6
CONTINUOUS
10
0.163259
20
3.39685
11
0.163835
21
3.39743
0
LINE
8
BLACK
6
CONTINUOUS
10
0.163835
20
3.39743
11
0.164492
21
3.39874
0
LINE
8
BLACK
6
CONTINUOUS
10
0.164492
20
3.39874
11
0.164492
21
3.40429
0
LINE
8
BLACK
6
CONTINUOUS
10
0.164492
20
3.40429
11
0.15733
21
3.40429
  0
ENDSEC
  0
EOF
