  0
SECTION
  2
HEADER
  9
$ANGBASE
  50
0.0
  9
$ANGDIR
  70
1
  9
$MEASUREMENT
  70
0
  0
ENDSEC
  0
SECTION
  2
TABLES
  0
TABLE
  2
LTYPE
  70
4
  0
LTYPE
  5
40F
  2
CONTINUOUS
  70
0
  3
Solid line
  72
65
  73
0
  40
0.0
  0
LTYPE
  5
410
  2
DASHDOT
 70
0
  3
Dash Dot ____ _ ____ _
 72
65
 73
4
 40
2.0
 49
1.25
 49
-0.25
 49
0.25
 49
-0.25
  0
LTYPE
  5
411
  2
DASHED
 70
0
  3
Dashed __ __ __ __ __
 72
65
 73
2
 40
0.75
 49
0.5
 49
-0.25
  0
LTYPE
  5
43B
  2
DOTTED
 70
0
  3
Dotted .  .  .  .
 72
65
 73
2
 40
0.2
 49
0.0
 49
-0.2
  0
ENDTAB
  0
TABLE
  2
STYLE
  70
4
  0
STYLE
  2
KICAD
  70
0
  40
0
  41
1
  42
1
  50
0
  71
0
  3
isocp.shx
  0
STYLE
  2
KICADB
  70
0
  40
0
  41
1
  42
1
  50
0
  71
0
  3
isocp.shx
  0
STYLE
  2
KICADI
  70
0
  40
0
  41
1
  42
1
  50
15
  71
0
  3
isocp.shx
  0
STYLE
  2
KICADBI
  70
0
  40
0
  41
1
  42
1
  50
15
  71
0
  3
isocp.shx
  0
ENDTAB
  0
TABLE
  2
LAYER
  70
1
  0
LAYER
  2
BLACK
  70
0
  62
7
  6
CONTINUOUS
  0
ENDTAB
  0
ENDSEC
  0
SECTION
  2
ENTITIES
0
LINE
8
BLACK
6
CONTINUOUS
10
2.80235
20
0.30131
11
2.80248
21
0.301333
0
LINE
8
BLACK
6
CONTINUOUS
10
2.80248
20
0.301333
11
2.80259
21
0.301268
0
LINE
8
BLACK
6
CONTINUOUS
10
2.80259
20
0.301268
11
2.80298
21
0.3012
0
LINE
8
BLACK
6
CONTINUOUS
10
2.80298
20
0.3012
11
2.80357
21
0.300707
0
LINE
8
BLACK
6
CONTINUOUS
10
2.80357
20
0.300707
11
2.80423
21
0.300323
0
LINE
8
BLACK
6
CONTINUOUS
10
2.80423
20
0.300323
11
2.80432
21
0.300073
0
LINE
8
BLACK
6
CONTINUOUS
10
2.80432
20
0.300073
11
2.80453
21
0.299902
0
LINE
8
BLACK
6
CONTINUOUS
10
2.80453
20
0.299902
11
2.80466
21
0.299146
0
LINE
8
BLACK
6
CONTINUOUS
10
2.80466
20
0.299146
11
2.80492
21
0.298425
0
LINE
8
BLACK
6
CONTINUOUS
10
2.80492
20
0.298425
11
2.80492
21
0.0984252
0
LINE
8
BLACK
6
CONTINUOUS
10
2.80492
20
0.0984252
11
2.80485
21
0.0980417
0
LINE
8
BLACK
6
CONTINUOUS
10
2.80485
20
0.0980417
11
2.80488
21
0.0979124
0
LINE
8
BLACK
6
CONTINUOUS
10
2.80488
20
0.0979124
11
2.80481
21
0.0977988
0
LINE
8
BLACK
6
CONTINUOUS
10
2.80481
20
0.0977988
11
2.80474
21
0.0974153
0
LINE
8
BLACK
6
CONTINUOUS
10
2.80474
20
0.0974153
11
2.80425
21
0.0968276
0
LINE
8
BLACK
6
CONTINUOUS
10
2.80425
20
0.0968276
11
2.80387
21
0.0961633
0
LINE
8
BLACK
6
CONTINUOUS
10
2.80387
20
0.0961633
11
2.80362
21
0.0960722
0
LINE
8
BLACK
6
CONTINUOUS
10
2.80362
20
0.0960722
11
2.80344
21
0.095868
0
LINE
8
BLACK
6
CONTINUOUS
10
2.80344
20
0.095868
11
2.80269
21
0.0957348
0
LINE
8
BLACK
6
CONTINUOUS
10
2.80269
20
0.0957348
11
2.80197
21
0.0954724
0
LINE
8
BLACK
6
CONTINUOUS
10
2.80197
20
0.0954724
11
2.30197
21
0.0954724
0
LINE
8
BLACK
6
CONTINUOUS
10
2.30197
20
0.0954724
11
2.30158
21
0.0955401
0
LINE
8
BLACK
6
CONTINUOUS
10
2.30158
20
0.0955401
11
2.30146
21
0.0955173
0
LINE
8
BLACK
6
CONTINUOUS
10
2.30146
20
0.0955173
11
2.30134
21
0.0955829
0
LINE
8
BLACK
6
CONTINUOUS
10
2.30134
20
0.0955829
11
2.30096
21
0.0956505
0
LINE
8
BLACK
6
CONTINUOUS
10
2.30096
20
0.0956505
11
2.30037
21
0.0961437
0
LINE
8
BLACK
6
CONTINUOUS
10
2.30037
20
0.0961437
11
2.29971
21
0.0965272
0
LINE
8
BLACK
6
CONTINUOUS
10
2.29971
20
0.0965272
11
2.29962
21
0.0967776
0
LINE
8
BLACK
6
CONTINUOUS
10
2.29962
20
0.0967776
11
2.29941
21
0.0969488
0
LINE
8
BLACK
6
CONTINUOUS
10
2.29941
20
0.0969488
11
2.29928
21
0.0977044
0
LINE
8
BLACK
6
CONTINUOUS
10
2.29928
20
0.0977044
11
2.29902
21
0.0984252
0
LINE
8
BLACK
6
CONTINUOUS
10
2.29902
20
0.0984252
11
2.29902
21
0.298425
0
LINE
8
BLACK
6
CONTINUOUS
10
2.29902
20
0.298425
11
2.29908
21
0.298809
0
LINE
8
BLACK
6
CONTINUOUS
10
2.29908
20
0.298809
11
2.29906
21
0.298938
0
LINE
8
BLACK
6
CONTINUOUS
10
2.29906
20
0.298938
11
2.29913
21
0.299052
0
LINE
8
BLACK
6
CONTINUOUS
10
2.29913
20
0.299052
11
2.29919
21
0.299435
0
LINE
8
BLACK
6
CONTINUOUS
10
2.29919
20
0.299435
11
2.29969
21
0.300023
0
LINE
8
BLACK
6
CONTINUOUS
10
2.29969
20
0.300023
11
2.30007
21
0.300687
0
LINE
8
BLACK
6
CONTINUOUS
10
2.30007
20
0.300687
11
2.30032
21
0.300778
0
LINE
8
BLACK
6
CONTINUOUS
10
2.30032
20
0.300778
11
2.30049
21
0.300982
0
LINE
8
BLACK
6
CONTINUOUS
10
2.30049
20
0.300982
11
2.30125
21
0.301116
0
LINE
8
BLACK
6
CONTINUOUS
10
2.30125
20
0.301116
11
2.30197
21
0.301378
0
LINE
8
BLACK
6
CONTINUOUS
10
2.30197
20
0.301378
11
2.80197
21
0.301378
0
LINE
8
BLACK
6
CONTINUOUS
10
2.80197
20
0.301378
11
2.80235
21
0.30131
0
LINE
8
BLACK
6
CONTINUOUS
10
2.30492
20
0.295472
11
2.30492
21
0.101378
0
LINE
8
BLACK
6
CONTINUOUS
10
2.30492
20
0.101378
11
2.79902
21
0.101378
0
LINE
8
BLACK
6
CONTINUOUS
10
2.79902
20
0.101378
11
2.79902
21
0.295472
0
LINE
8
BLACK
6
CONTINUOUS
10
2.79902
20
0.295472
11
2.30492
21
0.295472
0
LINE
8
BLACK
6
CONTINUOUS
10
2.78197
20
0.118425
11
2.72197
21
0.118425
0
LINE
8
BLACK
6
CONTINUOUS
10
2.72197
20
0.118425
11
2.72197
21
0.178425
0
LINE
8
BLACK
6
CONTINUOUS
10
2.72197
20
0.178425
11
2.78197
21
0.178425
0
LINE
8
BLACK
6
CONTINUOUS
10
2.78197
20
0.178425
11
2.78197
21
0.118425
0
LINE
8
BLACK
6
CONTINUOUS
10
2.68197
20
0.118425
11
2.62197
21
0.118425
0
LINE
8
BLACK
6
CONTINUOUS
10
2.62197
20
0.118425
11
2.62197
21
0.178425
0
LINE
8
BLACK
6
CONTINUOUS
10
2.62197
20
0.178425
11
2.68197
21
0.178425
0
LINE
8
BLACK
6
CONTINUOUS
10
2.68197
20
0.178425
11
2.68197
21
0.118425
0
LINE
8
BLACK
6
CONTINUOUS
10
2.58197
20
0.118425
11
2.52197
21
0.118425
0
LINE
8
BLACK
6
CONTINUOUS
10
2.52197
20
0.118425
11
2.52197
21
0.178425
0
LINE
8
BLACK
6
CONTINUOUS
10
2.52197
20
0.178425
11
2.58197
21
0.178425
0
LINE
8
BLACK
6
CONTINUOUS
10
2.58197
20
0.178425
11
2.58197
21
0.118425
0
LINE
8
BLACK
6
CONTINUOUS
10
2.48197
20
0.118425
11
2.42197
21
0.118425
0
LINE
8
BLACK
6
CONTINUOUS
10
2.42197
20
0.118425
11
2.42197
21
0.178425
0
LINE
8
BLACK
6
CONTINUOUS
10
2.42197
20
0.178425
11
2.48197
21
0.178425
0
LINE
8
BLACK
6
CONTINUOUS
10
2.48197
20
0.178425
11
2.48197
21
0.118425
0
LINE
8
BLACK
6
CONTINUOUS
10
2.38197
20
0.118425
11
2.32197
21
0.118425
0
LINE
8
BLACK
6
CONTINUOUS
10
2.32197
20
0.118425
11
2.32197
21
0.178425
0
LINE
8
BLACK
6
CONTINUOUS
10
2.32197
20
0.178425
11
2.38197
21
0.178425
0
LINE
8
BLACK
6
CONTINUOUS
10
2.38197
20
0.178425
11
2.38197
21
0.118425
0
LINE
8
BLACK
6
CONTINUOUS
10
2.38197
20
0.218425
11
2.32197
21
0.218425
0
LINE
8
BLACK
6
CONTINUOUS
10
2.32197
20
0.218425
11
2.32197
21
0.278425
0
LINE
8
BLACK
6
CONTINUOUS
10
2.32197
20
0.278425
11
2.38197
21
0.278425
0
LINE
8
BLACK
6
CONTINUOUS
10
2.38197
20
0.278425
11
2.38197
21
0.218425
0
LINE
8
BLACK
6
CONTINUOUS
10
2.48197
20
0.218425
11
2.42197
21
0.218425
0
LINE
8
BLACK
6
CONTINUOUS
10
2.42197
20
0.218425
11
2.42197
21
0.278425
0
LINE
8
BLACK
6
CONTINUOUS
10
2.42197
20
0.278425
11
2.48197
21
0.278425
0
LINE
8
BLACK
6
CONTINUOUS
10
2.48197
20
0.278425
11
2.48197
21
0.218425
0
LINE
8
BLACK
6
CONTINUOUS
10
2.58197
20
0.218425
11
2.52197
21
0.218425
0
LINE
8
BLACK
6
CONTINUOUS
10
2.52197
20
0.218425
11
2.52197
21
0.278425
0
LINE
8
BLACK
6
CONTINUOUS
10
2.52197
20
0.278425
11
2.58197
21
0.278425
0
LINE
8
BLACK
6
CONTINUOUS
10
2.58197
20
0.278425
11
2.58197
21
0.218425
0
LINE
8
BLACK
6
CONTINUOUS
10
2.78197
20
0.218425
11
2.72197
21
0.218425
0
LINE
8
BLACK
6
CONTINUOUS
10
2.72197
20
0.218425
11
2.72197
21
0.278425
0
LINE
8
BLACK
6
CONTINUOUS
10
2.72197
20
0.278425
11
2.78197
21
0.278425
0
LINE
8
BLACK
6
CONTINUOUS
10
2.78197
20
0.278425
11
2.78197
21
0.218425
0
LINE
8
BLACK
6
CONTINUOUS
10
2.68197
20
0.218425
11
2.62197
21
0.218425
0
LINE
8
BLACK
6
CONTINUOUS
10
2.62197
20
0.218425
11
2.62197
21
0.278425
0
LINE
8
BLACK
6
CONTINUOUS
10
2.62197
20
0.278425
11
2.68197
21
0.278425
0
LINE
8
BLACK
6
CONTINUOUS
10
2.68197
20
0.278425
11
2.68197
21
0.218425
0
LINE
8
BLACK
6
CONTINUOUS
10
1.87952
20
0.30131
11
1.87965
21
0.301333
0
LINE
8
BLACK
6
CONTINUOUS
10
1.87965
20
0.301333
11
1.87976
21
0.301268
0
LINE
8
BLACK
6
CONTINUOUS
10
1.87976
20
0.301268
11
1.88014
21
0.3012
0
LINE
8
BLACK
6
CONTINUOUS
10
1.88014
20
0.3012
11
1.88073
21
0.300707
0
LINE
8
BLACK
6
CONTINUOUS
10
1.88073
20
0.300707
11
1.8814
21
0.300323
0
LINE
8
BLACK
6
CONTINUOUS
10
1.8814
20
0.300323
11
1.88149
21
0.300073
0
LINE
8
BLACK
6
CONTINUOUS
10
1.88149
20
0.300073
11
1.88169
21
0.299902
0
LINE
8
BLACK
6
CONTINUOUS
10
1.88169
20
0.299902
11
1.88182
21
0.299146
0
LINE
8
BLACK
6
CONTINUOUS
10
1.88182
20
0.299146
11
1.88209
21
0.298425
0
LINE
8
BLACK
6
CONTINUOUS
10
1.88209
20
0.298425
11
1.88209
21
0.0984252
0
LINE
8
BLACK
6
CONTINUOUS
10
1.88209
20
0.0984252
11
1.88202
21
0.0980417
0
LINE
8
BLACK
6
CONTINUOUS
10
1.88202
20
0.0980417
11
1.88204
21
0.0979124
0
LINE
8
BLACK
6
CONTINUOUS
10
1.88204
20
0.0979124
11
1.88198
21
0.0977988
0
LINE
8
BLACK
6
CONTINUOUS
10
1.88198
20
0.0977988
11
1.88191
21
0.0974153
0
LINE
8
BLACK
6
CONTINUOUS
10
1.88191
20
0.0974153
11
1.88142
21
0.0968276
0
LINE
8
BLACK
6
CONTINUOUS
10
1.88142
20
0.0968276
11
1.88103
21
0.0961633
0
LINE
8
BLACK
6
CONTINUOUS
10
1.88103
20
0.0961633
11
1.88078
21
0.0960722
0
LINE
8
BLACK
6
CONTINUOUS
10
1.88078
20
0.0960722
11
1.88061
21
0.095868
0
LINE
8
BLACK
6
CONTINUOUS
10
1.88061
20
0.095868
11
1.87985
21
0.0957348
0
LINE
8
BLACK
6
CONTINUOUS
10
1.87985
20
0.0957348
11
1.87913
21
0.0954724
0
LINE
8
BLACK
6
CONTINUOUS
10
1.87913
20
0.0954724
11
0.579134
21
0.0954724
0
LINE
8
BLACK
6
CONTINUOUS
10
0.579134
20
0.0954724
11
0.57875
21
0.0955401
0
LINE
8
BLACK
6
CONTINUOUS
10
0.57875
20
0.0955401
11
0.578621
21
0.0955173
0
LINE
8
BLACK
6
CONTINUOUS
10
0.578621
20
0.0955173
11
0.578507
21
0.0955829
0
LINE
8
BLACK
6
CONTINUOUS
10
0.578507
20
0.0955829
11
0.578124
21
0.0956505
0
LINE
8
BLACK
6
CONTINUOUS
10
0.578124
20
0.0956505
11
0.577536
21
0.0961437
0
LINE
8
BLACK
6
CONTINUOUS
10
0.577536
20
0.0961437
11
0.576872
21
0.0965272
0
LINE
8
BLACK
6
CONTINUOUS
10
0.576872
20
0.0965272
11
0.576781
21
0.0967776
0
LINE
8
BLACK
6
CONTINUOUS
10
0.576781
20
0.0967776
11
0.576577
21
0.0969488
0
LINE
8
BLACK
6
CONTINUOUS
10
0.576577
20
0.0969488
11
0.576443
21
0.0977044
0
LINE
8
BLACK
6
CONTINUOUS
10
0.576443
20
0.0977044
11
0.576181
21
0.0984252
0
LINE
8
BLACK
6
CONTINUOUS
10
0.576181
20
0.0984252
11
0.576181
21
0.298425
0
LINE
8
BLACK
6
CONTINUOUS
10
0.576181
20
0.298425
11
0.576249
21
0.298809
0
LINE
8
BLACK
6
CONTINUOUS
10
0.576249
20
0.298809
11
0.576226
21
0.298938
0
LINE
8
BLACK
6
CONTINUOUS
10
0.576226
20
0.298938
11
0.576292
21
0.299052
0
LINE
8
BLACK
6
CONTINUOUS
10
0.576292
20
0.299052
11
0.576359
21
0.299435
0
LINE
8
BLACK
6
CONTINUOUS
10
0.576359
20
0.299435
11
0.576852
21
0.300023
0
LINE
8
BLACK
6
CONTINUOUS
10
0.576852
20
0.300023
11
0.577236
21
0.300687
0
LINE
8
BLACK
6
CONTINUOUS
10
0.577236
20
0.300687
11
0.577486
21
0.300778
0
LINE
8
BLACK
6
CONTINUOUS
10
0.577486
20
0.300778
11
0.577657
21
0.300982
0
LINE
8
BLACK
6
CONTINUOUS
10
0.577657
20
0.300982
11
0.578413
21
0.301116
0
LINE
8
BLACK
6
CONTINUOUS
10
0.578413
20
0.301116
11
0.579134
21
0.301378
0
LINE
8
BLACK
6
CONTINUOUS
10
0.579134
20
0.301378
11
1.87913
21
0.301378
0
LINE
8
BLACK
6
CONTINUOUS
10
1.87913
20
0.301378
11
1.87952
21
0.30131
0
LINE
8
BLACK
6
CONTINUOUS
10
0.582087
20
0.295472
11
0.582087
21
0.101378
0
LINE
8
BLACK
6
CONTINUOUS
10
0.582087
20
0.101378
11
1.87618
21
0.101378
0
LINE
8
BLACK
6
CONTINUOUS
10
1.87618
20
0.101378
11
1.87618
21
0.295472
0
LINE
8
BLACK
6
CONTINUOUS
10
1.87618
20
0.295472
11
0.582087
21
0.295472
0
LINE
8
BLACK
6
CONTINUOUS
10
1.05913
20
0.118425
11
0.999134
21
0.118425
0
LINE
8
BLACK
6
CONTINUOUS
10
0.999134
20
0.118425
11
0.999134
21
0.178425
0
LINE
8
BLACK
6
CONTINUOUS
10
0.999134
20
0.178425
11
1.05913
21
0.178425
0
LINE
8
BLACK
6
CONTINUOUS
10
1.05913
20
0.178425
11
1.05913
21
0.118425
0
LINE
8
BLACK
6
CONTINUOUS
10
1.85913
20
0.118425
11
1.79913
21
0.118425
0
LINE
8
BLACK
6
CONTINUOUS
10
1.79913
20
0.118425
11
1.79913
21
0.178425
0
LINE
8
BLACK
6
CONTINUOUS
10
1.79913
20
0.178425
11
1.85913
21
0.178425
0
LINE
8
BLACK
6
CONTINUOUS
10
1.85913
20
0.178425
11
1.85913
21
0.118425
0
LINE
8
BLACK
6
CONTINUOUS
10
0.959134
20
0.118425
11
0.899134
21
0.118425
0
LINE
8
BLACK
6
CONTINUOUS
10
0.899134
20
0.118425
11
0.899134
21
0.178425
0
LINE
8
BLACK
6
CONTINUOUS
10
0.899134
20
0.178425
11
0.959134
21
0.178425
0
LINE
8
BLACK
6
CONTINUOUS
10
0.959134
20
0.178425
11
0.959134
21
0.118425
0
LINE
8
BLACK
6
CONTINUOUS
10
0.859134
20
0.118425
11
0.799134
21
0.118425
0
LINE
8
BLACK
6
CONTINUOUS
10
0.799134
20
0.118425
11
0.799134
21
0.178425
0
LINE
8
BLACK
6
CONTINUOUS
10
0.799134
20
0.178425
11
0.859134
21
0.178425
0
LINE
8
BLACK
6
CONTINUOUS
10
0.859134
20
0.178425
11
0.859134
21
0.118425
0
LINE
8
BLACK
6
CONTINUOUS
10
0.759134
20
0.118425
11
0.699134
21
0.118425
0
LINE
8
BLACK
6
CONTINUOUS
10
0.699134
20
0.118425
11
0.699134
21
0.178425
0
LINE
8
BLACK
6
CONTINUOUS
10
0.699134
20
0.178425
11
0.759134
21
0.178425
0
LINE
8
BLACK
6
CONTINUOUS
10
0.759134
20
0.178425
11
0.759134
21
0.118425
0
LINE
8
BLACK
6
CONTINUOUS
10
0.659134
20
0.118425
11
0.599134
21
0.118425
0
LINE
8
BLACK
6
CONTINUOUS
10
0.599134
20
0.118425
11
0.599134
21
0.178425
0
LINE
8
BLACK
6
CONTINUOUS
10
0.599134
20
0.178425
11
0.659134
21
0.178425
0
LINE
8
BLACK
6
CONTINUOUS
10
0.659134
20
0.178425
11
0.659134
21
0.118425
0
LINE
8
BLACK
6
CONTINUOUS
10
1.15913
20
0.118425
11
1.09913
21
0.118425
0
LINE
8
BLACK
6
CONTINUOUS
10
1.09913
20
0.118425
11
1.09913
21
0.178425
0
LINE
8
BLACK
6
CONTINUOUS
10
1.09913
20
0.178425
11
1.15913
21
0.178425
0
LINE
8
BLACK
6
CONTINUOUS
10
1.15913
20
0.178425
11
1.15913
21
0.118425
0
LINE
8
BLACK
6
CONTINUOUS
10
1.75913
20
0.118425
11
1.69913
21
0.118425
0
LINE
8
BLACK
6
CONTINUOUS
10
1.69913
20
0.118425
11
1.69913
21
0.178425
0
LINE
8
BLACK
6
CONTINUOUS
10
1.69913
20
0.178425
11
1.75913
21
0.178425
0
LINE
8
BLACK
6
CONTINUOUS
10
1.75913
20
0.178425
11
1.75913
21
0.118425
0
LINE
8
BLACK
6
CONTINUOUS
10
1.25913
20
0.118425
11
1.19913
21
0.118425
0
LINE
8
BLACK
6
CONTINUOUS
10
1.19913
20
0.118425
11
1.19913
21
0.178425
0
LINE
8
BLACK
6
CONTINUOUS
10
1.19913
20
0.178425
11
1.25913
21
0.178425
0
LINE
8
BLACK
6
CONTINUOUS
10
1.25913
20
0.178425
11
1.25913
21
0.118425
0
LINE
8
BLACK
6
CONTINUOUS
10
1.65913
20
0.118425
11
1.59913
21
0.118425
0
LINE
8
BLACK
6
CONTINUOUS
10
1.59913
20
0.118425
11
1.59913
21
0.178425
0
LINE
8
BLACK
6
CONTINUOUS
10
1.59913
20
0.178425
11
1.65913
21
0.178425
0
LINE
8
BLACK
6
CONTINUOUS
10
1.65913
20
0.178425
11
1.65913
21
0.118425
0
LINE
8
BLACK
6
CONTINUOUS
10
1.35913
20
0.118425
11
1.29913
21
0.118425
0
LINE
8
BLACK
6
CONTINUOUS
10
1.29913
20
0.118425
11
1.29913
21
0.178425
0
LINE
8
BLACK
6
CONTINUOUS
10
1.29913
20
0.178425
11
1.35913
21
0.178425
0
LINE
8
BLACK
6
CONTINUOUS
10
1.35913
20
0.178425
11
1.35913
21
0.118425
0
LINE
8
BLACK
6
CONTINUOUS
10
1.45913
20
0.118425
11
1.39913
21
0.118425
0
LINE
8
BLACK
6
CONTINUOUS
10
1.39913
20
0.118425
11
1.39913
21
0.178425
0
LINE
8
BLACK
6
CONTINUOUS
10
1.39913
20
0.178425
11
1.45913
21
0.178425
0
LINE
8
BLACK
6
CONTINUOUS
10
1.45913
20
0.178425
11
1.45913
21
0.118425
0
LINE
8
BLACK
6
CONTINUOUS
10
1.55913
20
0.118425
11
1.49913
21
0.118425
0
LINE
8
BLACK
6
CONTINUOUS
10
1.49913
20
0.118425
11
1.49913
21
0.178425
0
LINE
8
BLACK
6
CONTINUOUS
10
1.49913
20
0.178425
11
1.55913
21
0.178425
0
LINE
8
BLACK
6
CONTINUOUS
10
1.55913
20
0.178425
11
1.55913
21
0.118425
0
LINE
8
BLACK
6
CONTINUOUS
10
0.959134
20
0.218425
11
0.899134
21
0.218425
0
LINE
8
BLACK
6
CONTINUOUS
10
0.899134
20
0.218425
11
0.899134
21
0.278425
0
LINE
8
BLACK
6
CONTINUOUS
10
0.899134
20
0.278425
11
0.959134
21
0.278425
0
LINE
8
BLACK
6
CONTINUOUS
10
0.959134
20
0.278425
11
0.959134
21
0.218425
0
LINE
8
BLACK
6
CONTINUOUS
10
1.85913
20
0.218425
11
1.79913
21
0.218425
0
LINE
8
BLACK
6
CONTINUOUS
10
1.79913
20
0.218425
11
1.79913
21
0.278425
0
LINE
8
BLACK
6
CONTINUOUS
10
1.79913
20
0.278425
11
1.85913
21
0.278425
0
LINE
8
BLACK
6
CONTINUOUS
10
1.85913
20
0.278425
11
1.85913
21
0.218425
0
LINE
8
BLACK
6
CONTINUOUS
10
1.75913
20
0.218425
11
1.69913
21
0.218425
0
LINE
8
BLACK
6
CONTINUOUS
10
1.69913
20
0.218425
11
1.69913
21
0.278425
0
LINE
8
BLACK
6
CONTINUOUS
10
1.69913
20
0.278425
11
1.75913
21
0.278425
0
LINE
8
BLACK
6
CONTINUOUS
10
1.75913
20
0.278425
11
1.75913
21
0.218425
0
LINE
8
BLACK
6
CONTINUOUS
10
1.65913
20
0.218425
11
1.59913
21
0.218425
0
LINE
8
BLACK
6
CONTINUOUS
10
1.59913
20
0.218425
11
1.59913
21
0.278425
0
LINE
8
BLACK
6
CONTINUOUS
10
1.59913
20
0.278425
11
1.65913
21
0.278425
0
LINE
8
BLACK
6
CONTINUOUS
10
1.65913
20
0.278425
11
1.65913
21
0.218425
0
LINE
8
BLACK
6
CONTINUOUS
10
1.55913
20
0.218425
11
1.49913
21
0.218425
0
LINE
8
BLACK
6
CONTINUOUS
10
1.49913
20
0.218425
11
1.49913
21
0.278425
0
LINE
8
BLACK
6
CONTINUOUS
10
1.49913
20
0.278425
11
1.55913
21
0.278425
0
LINE
8
BLACK
6
CONTINUOUS
10
1.55913
20
0.278425
11
1.55913
21
0.218425
0
LINE
8
BLACK
6
CONTINUOUS
10
1.45913
20
0.218425
11
1.39913
21
0.218425
0
LINE
8
BLACK
6
CONTINUOUS
10
1.39913
20
0.218425
11
1.39913
21
0.278425
0
LINE
8
BLACK
6
CONTINUOUS
10
1.39913
20
0.278425
11
1.45913
21
0.278425
0
LINE
8
BLACK
6
CONTINUOUS
10
1.45913
20
0.278425
11
1.45913
21
0.218425
0
LINE
8
BLACK
6
CONTINUOUS
10
1.35913
20
0.218425
11
1.29913
21
0.218425
0
LINE
8
BLACK
6
CONTINUOUS
10
1.29913
20
0.218425
11
1.29913
21
0.278425
0
LINE
8
BLACK
6
CONTINUOUS
10
1.29913
20
0.278425
11
1.35913
21
0.278425
0
LINE
8
BLACK
6
CONTINUOUS
10
1.35913
20
0.278425
11
1.35913
21
0.218425
0
LINE
8
BLACK
6
CONTINUOUS
10
1.25913
20
0.218425
11
1.19913
21
0.218425
0
LINE
8
BLACK
6
CONTINUOUS
10
1.19913
20
0.218425
11
1.19913
21
0.278425
0
LINE
8
BLACK
6
CONTINUOUS
10
1.19913
20
0.278425
11
1.25913
21
0.278425
0
LINE
8
BLACK
6
CONTINUOUS
10
1.25913
20
0.278425
11
1.25913
21
0.218425
0
LINE
8
BLACK
6
CONTINUOUS
10
0.659134
20
0.218425
11
0.599134
21
0.218425
0
LINE
8
BLACK
6
CONTINUOUS
10
0.599134
20
0.218425
11
0.599134
21
0.278425
0
LINE
8
BLACK
6
CONTINUOUS
10
0.599134
20
0.278425
11
0.659134
21
0.278425
0
LINE
8
BLACK
6
CONTINUOUS
10
0.659134
20
0.278425
11
0.659134
21
0.218425
0
LINE
8
BLACK
6
CONTINUOUS
10
0.759134
20
0.218425
11
0.699134
21
0.218425
0
LINE
8
BLACK
6
CONTINUOUS
10
0.699134
20
0.218425
11
0.699134
21
0.278425
0
LINE
8
BLACK
6
CONTINUOUS
10
0.699134
20
0.278425
11
0.759134
21
0.278425
0
LINE
8
BLACK
6
CONTINUOUS
10
0.759134
20
0.278425
11
0.759134
21
0.218425
0
LINE
8
BLACK
6
CONTINUOUS
10
1.15913
20
0.218425
11
1.09913
21
0.218425
0
LINE
8
BLACK
6
CONTINUOUS
10
1.09913
20
0.218425
11
1.09913
21
0.278425
0
LINE
8
BLACK
6
CONTINUOUS
10
1.09913
20
0.278425
11
1.15913
21
0.278425
0
LINE
8
BLACK
6
CONTINUOUS
10
1.15913
20
0.278425
11
1.15913
21
0.218425
0
LINE
8
BLACK
6
CONTINUOUS
10
0.859134
20
0.218425
11
0.799134
21
0.218425
0
LINE
8
BLACK
6
CONTINUOUS
10
0.799134
20
0.218425
11
0.799134
21
0.278425
0
LINE
8
BLACK
6
CONTINUOUS
10
0.799134
20
0.278425
11
0.859134
21
0.278425
0
LINE
8
BLACK
6
CONTINUOUS
10
0.859134
20
0.278425
11
0.859134
21
0.218425
0
LINE
8
BLACK
6
CONTINUOUS
10
1.05913
20
0.218425
11
0.999134
21
0.218425
0
LINE
8
BLACK
6
CONTINUOUS
10
0.999134
20
0.218425
11
0.999134
21
0.278425
0
LINE
8
BLACK
6
CONTINUOUS
10
0.999134
20
0.278425
11
1.05913
21
0.278425
0
LINE
8
BLACK
6
CONTINUOUS
10
1.05913
20
0.278425
11
1.05913
21
0.218425
0
LINE
8
BLACK
6
CONTINUOUS
10
1.96591
20
1.33383
11
1.96667
21
1.33151
0
LINE
8
BLACK
6
CONTINUOUS
10
1.96667
20
1.33151
11
1.96667
21
1.32777
0
LINE
8
BLACK
6
CONTINUOUS
10
1.96667
20
1.32777
11
1.96639
21
1.3269
0
LINE
8
BLACK
6
CONTINUOUS
10
1.96639
20
1.3269
11
1.96625
21
1.326
0
LINE
8
BLACK
6
CONTINUOUS
10
1.96625
20
1.326
11
1.9625
21
1.31851
0
LINE
8
BLACK
6
CONTINUOUS
10
1.9625
20
1.31851
11
1.96205
21
1.31805
0
LINE
8
BLACK
6
CONTINUOUS
10
1.96205
20
1.31805
11
1.96176
21
1.31748
0
LINE
8
BLACK
6
CONTINUOUS
10
1.96176
20
1.31748
11
1.95801
21
1.31373
0
LINE
8
BLACK
6
CONTINUOUS
10
1.95801
20
1.31373
11
1.95585
21
1.31263
0
LINE
8
BLACK
6
CONTINUOUS
10
1.95585
20
1.31263
11
1.95344
21
1.31301
0
LINE
8
BLACK
6
CONTINUOUS
10
1.95344
20
1.31301
11
1.95172
21
1.31473
0
LINE
8
BLACK
6
CONTINUOUS
10
1.95172
20
1.31473
11
1.95134
21
1.31713
0
LINE
8
BLACK
6
CONTINUOUS
10
1.95134
20
1.31713
11
1.95245
21
1.3193
0
LINE
8
BLACK
6
CONTINUOUS
10
1.95245
20
1.3193
11
1.95574
21
1.3226
0
LINE
8
BLACK
6
CONTINUOUS
10
1.95574
20
1.3226
11
1.95879
21
1.32869
0
LINE
8
BLACK
6
CONTINUOUS
10
1.95879
20
1.32869
11
1.95879
21
1.33151
0
LINE
8
BLACK
6
CONTINUOUS
10
1.95879
20
1.33151
11
1.95954
21
1.33383
0
LINE
8
BLACK
6
CONTINUOUS
10
1.95954
20
1.33383
11
1.96151
21
1.33526
0
LINE
8
BLACK
6
CONTINUOUS
10
1.96151
20
1.33526
11
1.96395
21
1.33526
0
LINE
8
BLACK
6
CONTINUOUS
10
1.96395
20
1.33526
11
1.96591
21
1.33383
0
LINE
8
BLACK
6
CONTINUOUS
10
1.75219
20
1.40882
11
1.75294
21
1.40651
0
LINE
8
BLACK
6
CONTINUOUS
10
1.75294
20
1.40651
11
1.75294
21
1.3317
0
LINE
8
BLACK
6
CONTINUOUS
10
1.75294
20
1.3317
11
1.7865
21
1.3317
0
LINE
8
BLACK
6
CONTINUOUS
10
1.7865
20
1.3317
11
1.78882
21
1.33095
0
LINE
8
BLACK
6
CONTINUOUS
10
1.78882
20
1.33095
11
1.79025
21
1.32898
0
LINE
8
BLACK
6
CONTINUOUS
10
1.79025
20
1.32898
11
1.79025
21
1.32655
0
LINE
8
BLACK
6
CONTINUOUS
10
1.79025
20
1.32655
11
1.78882
21
1.32458
0
LINE
8
BLACK
6
CONTINUOUS
10
1.78882
20
1.32458
11
1.7865
21
1.32383
0
LINE
8
BLACK
6
CONTINUOUS
10
1.7865
20
1.32383
11
1.74901
21
1.32383
0
LINE
8
BLACK
6
CONTINUOUS
10
1.74901
20
1.32383
11
1.74841
21
1.32402
0
LINE
8
BLACK
6
CONTINUOUS
10
1.74841
20
1.32402
11
1.74779
21
1.32402
0
LINE
8
BLACK
6
CONTINUOUS
10
1.74779
20
1.32402
11
1.74729
21
1.32439
0
LINE
8
BLACK
6
CONTINUOUS
10
1.74729
20
1.32439
11
1.74669
21
1.32458
0
LINE
8
BLACK
6
CONTINUOUS
10
1.74669
20
1.32458
11
1.74633
21
1.32508
0
LINE
8
BLACK
6
CONTINUOUS
10
1.74633
20
1.32508
11
1.74582
21
1.32545
0
LINE
8
BLACK
6
CONTINUOUS
10
1.74582
20
1.32545
11
1.74563
21
1.32604
0
LINE
8
BLACK
6
CONTINUOUS
10
1.74563
20
1.32604
11
1.74526
21
1.32655
0
LINE
8
BLACK
6
CONTINUOUS
10
1.74526
20
1.32655
11
1.74526
21
1.32717
0
LINE
8
BLACK
6
CONTINUOUS
10
1.74526
20
1.32717
11
1.74507
21
1.32777
0
LINE
8
BLACK
6
CONTINUOUS
10
1.74507
20
1.32777
11
1.74507
21
1.40651
0
LINE
8
BLACK
6
CONTINUOUS
10
1.74507
20
1.40651
11
1.74582
21
1.40882
0
LINE
8
BLACK
6
CONTINUOUS
10
1.74582
20
1.40882
11
1.74779
21
1.41025
0
LINE
8
BLACK
6
CONTINUOUS
10
1.74779
20
1.41025
11
1.75022
21
1.41025
0
LINE
8
BLACK
6
CONTINUOUS
10
1.75022
20
1.41025
11
1.75219
21
1.40882
0
LINE
8
BLACK
6
CONTINUOUS
10
1.90735
20
1.41016
11
1.90825
21
1.41003
0
LINE
8
BLACK
6
CONTINUOUS
10
1.90825
20
1.41003
11
1.91575
21
1.40628
0
LINE
8
BLACK
6
CONTINUOUS
10
1.91575
20
1.40628
11
1.9162
21
1.40583
0
LINE
8
BLACK
6
CONTINUOUS
10
1.9162
20
1.40583
11
1.91677
21
1.40554
0
LINE
8
BLACK
6
CONTINUOUS
10
1.91677
20
1.40554
11
1.92052
21
1.40179
0
LINE
8
BLACK
6
CONTINUOUS
10
1.92052
20
1.40179
11
1.92081
21
1.40122
0
LINE
8
BLACK
6
CONTINUOUS
10
1.92081
20
1.40122
11
1.92126
21
1.40077
0
LINE
8
BLACK
6
CONTINUOUS
10
1.92126
20
1.40077
11
1.92501
21
1.39327
0
LINE
8
BLACK
6
CONTINUOUS
10
1.92501
20
1.39327
11
1.92514
21
1.39237
0
LINE
8
BLACK
6
CONTINUOUS
10
1.92514
20
1.39237
11
1.92542
21
1.39151
0
LINE
8
BLACK
6
CONTINUOUS
10
1.92542
20
1.39151
11
1.92542
21
1.38401
0
LINE
8
BLACK
6
CONTINUOUS
10
1.92542
20
1.38401
11
1.92514
21
1.38315
0
LINE
8
BLACK
6
CONTINUOUS
10
1.92514
20
1.38315
11
1.92501
21
1.38225
0
LINE
8
BLACK
6
CONTINUOUS
10
1.92501
20
1.38225
11
1.92126
21
1.37475
0
LINE
8
BLACK
6
CONTINUOUS
10
1.92126
20
1.37475
11
1.92081
21
1.37429
0
LINE
8
BLACK
6
CONTINUOUS
10
1.92081
20
1.37429
11
1.92052
21
1.37373
0
LINE
8
BLACK
6
CONTINUOUS
10
1.92052
20
1.37373
11
1.91677
21
1.36998
0
LINE
8
BLACK
6
CONTINUOUS
10
1.91677
20
1.36998
11
1.91648
21
1.36983
0
LINE
8
BLACK
6
CONTINUOUS
10
1.91648
20
1.36983
11
1.91898
21
1.369
0
LINE
8
BLACK
6
CONTINUOUS
10
1.91898
20
1.369
11
1.91971
21
1.36846
0
LINE
8
BLACK
6
CONTINUOUS
10
1.91971
20
1.36846
11
1.92052
21
1.36804
0
LINE
8
BLACK
6
CONTINUOUS
10
1.92052
20
1.36804
11
1.92427
21
1.36429
0
LINE
8
BLACK
6
CONTINUOUS
10
1.92427
20
1.36429
11
1.92456
21
1.36373
0
LINE
8
BLACK
6
CONTINUOUS
10
1.92456
20
1.36373
11
1.92501
21
1.36327
0
LINE
8
BLACK
6
CONTINUOUS
10
1.92501
20
1.36327
11
1.92876
21
1.35577
0
LINE
8
BLACK
6
CONTINUOUS
10
1.92876
20
1.35577
11
1.92889
21
1.35488
0
LINE
8
BLACK
6
CONTINUOUS
10
1.92889
20
1.35488
11
1.92917
21
1.35401
0
LINE
8
BLACK
6
CONTINUOUS
10
1.92917
20
1.35401
11
1.92917
21
1.34276
0
LINE
8
BLACK
6
CONTINUOUS
10
1.92917
20
1.34276
11
1.92889
21
1.3419
0
LINE
8
BLACK
6
CONTINUOUS
10
1.92889
20
1.3419
11
1.92876
21
1.341
0
LINE
8
BLACK
6
CONTINUOUS
10
1.92876
20
1.341
11
1.92501
21
1.3335
0
LINE
8
BLACK
6
CONTINUOUS
10
1.92501
20
1.3335
11
1.92456
21
1.33305
0
LINE
8
BLACK
6
CONTINUOUS
10
1.92456
20
1.33305
11
1.92427
21
1.33248
0
LINE
8
BLACK
6
CONTINUOUS
10
1.92427
20
1.33248
11
1.92052
21
1.32873
0
LINE
8
BLACK
6
CONTINUOUS
10
1.92052
20
1.32873
11
1.91995
21
1.32844
0
LINE
8
BLACK
6
CONTINUOUS
10
1.91995
20
1.32844
11
1.9195
21
1.32799
0
LINE
8
BLACK
6
CONTINUOUS
10
1.9195
20
1.32799
11
1.912
21
1.32424
0
LINE
8
BLACK
6
CONTINUOUS
10
1.912
20
1.32424
11
1.9111
21
1.32411
0
LINE
8
BLACK
6
CONTINUOUS
10
1.9111
20
1.32411
11
1.91024
21
1.32383
0
LINE
8
BLACK
6
CONTINUOUS
10
1.91024
20
1.32383
11
1.88024
21
1.32383
0
LINE
8
BLACK
6
CONTINUOUS
10
1.88024
20
1.32383
11
1.87965
21
1.32402
0
LINE
8
BLACK
6
CONTINUOUS
10
1.87965
20
1.32402
11
1.87902
21
1.32402
0
LINE
8
BLACK
6
CONTINUOUS
10
1.87902
20
1.32402
11
1.87852
21
1.32439
0
LINE
8
BLACK
6
CONTINUOUS
10
1.87852
20
1.32439
11
1.87793
21
1.32458
0
LINE
8
BLACK
6
CONTINUOUS
10
1.87793
20
1.32458
11
1.87756
21
1.32508
0
LINE
8
BLACK
6
CONTINUOUS
10
1.87756
20
1.32508
11
1.87705
21
1.32545
0
LINE
8
BLACK
6
CONTINUOUS
10
1.87705
20
1.32545
11
1.87686
21
1.32604
0
LINE
8
BLACK
6
CONTINUOUS
10
1.87686
20
1.32604
11
1.8765
21
1.32655
0
LINE
8
BLACK
6
CONTINUOUS
10
1.8765
20
1.32655
11
1.8765
21
1.32717
0
LINE
8
BLACK
6
CONTINUOUS
10
1.8765
20
1.32717
11
1.8763
21
1.32777
0
LINE
8
BLACK
6
CONTINUOUS
10
1.8763
20
1.32777
11
1.8763
21
1.40651
0
LINE
8
BLACK
6
CONTINUOUS
10
1.8763
20
1.40651
11
1.8765
21
1.4071
0
LINE
8
BLACK
6
CONTINUOUS
10
1.8765
20
1.4071
11
1.8765
21
1.40772
0
LINE
8
BLACK
6
CONTINUOUS
10
1.8765
20
1.40772
11
1.87686
21
1.40823
0
LINE
8
BLACK
6
CONTINUOUS
10
1.87686
20
1.40823
11
1.87705
21
1.40882
0
LINE
8
BLACK
6
CONTINUOUS
10
1.87705
20
1.40882
11
1.87756
21
1.40919
0
LINE
8
BLACK
6
CONTINUOUS
10
1.87756
20
1.40919
11
1.87793
21
1.40969
0
LINE
8
BLACK
6
CONTINUOUS
10
1.87793
20
1.40969
11
1.87852
21
1.40988
0
LINE
8
BLACK
6
CONTINUOUS
10
1.87852
20
1.40988
11
1.87902
21
1.41025
0
LINE
8
BLACK
6
CONTINUOUS
10
1.87902
20
1.41025
11
1.87965
21
1.41025
0
LINE
8
BLACK
6
CONTINUOUS
10
1.87965
20
1.41025
11
1.88024
21
1.41044
0
LINE
8
BLACK
6
CONTINUOUS
10
1.88024
20
1.41044
11
1.90649
21
1.41044
0
LINE
8
BLACK
6
CONTINUOUS
10
1.90649
20
1.41044
11
1.90735
21
1.41016
0
LINE
8
BLACK
6
CONTINUOUS
10
1.88418
20
1.36507
11
1.88418
21
1.3317
0
LINE
8
BLACK
6
CONTINUOUS
10
1.88418
20
1.3317
11
1.90931
21
1.3317
0
LINE
8
BLACK
6
CONTINUOUS
10
1.90931
20
1.3317
11
1.9154
21
1.33475
0
LINE
8
BLACK
6
CONTINUOUS
10
1.9154
20
1.33475
11
1.91825
21
1.3376
0
LINE
8
BLACK
6
CONTINUOUS
10
1.91825
20
1.3376
11
1.9213
21
1.34369
0
LINE
8
BLACK
6
CONTINUOUS
10
1.9213
20
1.34369
11
1.9213
21
1.35308
0
LINE
8
BLACK
6
CONTINUOUS
10
1.9213
20
1.35308
11
1.91825
21
1.35918
0
LINE
8
BLACK
6
CONTINUOUS
10
1.91825
20
1.35918
11
1.91561
21
1.36182
0
LINE
8
BLACK
6
CONTINUOUS
10
1.91561
20
1.36182
11
1.90585
21
1.36507
0
LINE
8
BLACK
6
CONTINUOUS
10
1.90585
20
1.36507
11
1.88418
21
1.36507
0
LINE
8
BLACK
6
CONTINUOUS
10
1.88418
20
1.40257
11
1.88418
21
1.37295
0
LINE
8
BLACK
6
CONTINUOUS
10
1.88418
20
1.37295
11
1.90556
21
1.37295
0
LINE
8
BLACK
6
CONTINUOUS
10
1.90556
20
1.37295
11
1.91165
21
1.376
0
LINE
8
BLACK
6
CONTINUOUS
10
1.91165
20
1.376
11
1.9145
21
1.37884
0
LINE
8
BLACK
6
CONTINUOUS
10
1.9145
20
1.37884
11
1.91755
21
1.38494
0
LINE
8
BLACK
6
CONTINUOUS
10
1.91755
20
1.38494
11
1.91755
21
1.39058
0
LINE
8
BLACK
6
CONTINUOUS
10
1.91755
20
1.39058
11
1.9145
21
1.39667
0
LINE
8
BLACK
6
CONTINUOUS
10
1.9145
20
1.39667
11
1.91165
21
1.39952
0
LINE
8
BLACK
6
CONTINUOUS
10
1.91165
20
1.39952
11
1.90556
21
1.40257
0
LINE
8
BLACK
6
CONTINUOUS
10
1.90556
20
1.40257
11
1.88418
21
1.40257
0
LINE
8
BLACK
6
CONTINUOUS
10
2.08358
20
1.41016
11
2.08448
21
1.41003
0
LINE
8
BLACK
6
CONTINUOUS
10
2.08448
20
1.41003
11
2.09197
21
1.40628
0
LINE
8
BLACK
6
CONTINUOUS
10
2.09197
20
1.40628
11
2.09243
21
1.40583
0
LINE
8
BLACK
6
CONTINUOUS
10
2.09243
20
1.40583
11
2.093
21
1.40554
0
LINE
8
BLACK
6
CONTINUOUS
10
2.093
20
1.40554
11
2.09675
21
1.40179
0
LINE
8
BLACK
6
CONTINUOUS
10
2.09675
20
1.40179
11
2.09704
21
1.40122
0
LINE
8
BLACK
6
CONTINUOUS
10
2.09704
20
1.40122
11
2.09748
21
1.40077
0
LINE
8
BLACK
6
CONTINUOUS
10
2.09748
20
1.40077
11
2.10123
21
1.39327
0
LINE
8
BLACK
6
CONTINUOUS
10
2.10123
20
1.39327
11
2.10137
21
1.39237
0
LINE
8
BLACK
6
CONTINUOUS
10
2.10137
20
1.39237
11
2.10165
21
1.39151
0
LINE
8
BLACK
6
CONTINUOUS
10
2.10165
20
1.39151
11
2.10165
21
1.38401
0
LINE
8
BLACK
6
CONTINUOUS
10
2.10165
20
1.38401
11
2.10145
21
1.3834
0
LINE
8
BLACK
6
CONTINUOUS
10
2.10145
20
1.3834
11
2.10145
21
1.38276
0
LINE
8
BLACK
6
CONTINUOUS
10
2.10145
20
1.38276
11
2.0977
21
1.37151
0
LINE
8
BLACK
6
CONTINUOUS
10
2.0977
20
1.37151
11
2.09716
21
1.37078
0
LINE
8
BLACK
6
CONTINUOUS
10
2.09716
20
1.37078
11
2.09675
21
1.36998
0
LINE
8
BLACK
6
CONTINUOUS
10
2.09675
20
1.36998
11
2.05847
21
1.3317
0
LINE
8
BLACK
6
CONTINUOUS
10
2.05847
20
1.3317
11
2.09771
21
1.3317
0
LINE
8
BLACK
6
CONTINUOUS
10
2.09771
20
1.3317
11
2.10003
21
1.33095
0
LINE
8
BLACK
6
CONTINUOUS
10
2.10003
20
1.33095
11
2.10146
21
1.32898
0
LINE
8
BLACK
6
CONTINUOUS
10
2.10146
20
1.32898
11
2.10146
21
1.32655
0
LINE
8
BLACK
6
CONTINUOUS
10
2.10146
20
1.32655
11
2.10003
21
1.32458
0
LINE
8
BLACK
6
CONTINUOUS
10
2.10003
20
1.32458
11
2.09771
21
1.32383
0
LINE
8
BLACK
6
CONTINUOUS
10
2.09771
20
1.32383
11
2.04897
21
1.32383
0
LINE
8
BLACK
6
CONTINUOUS
10
2.04897
20
1.32383
11
2.04809
21
1.32411
0
LINE
8
BLACK
6
CONTINUOUS
10
2.04809
20
1.32411
11
2.04718
21
1.32426
0
LINE
8
BLACK
6
CONTINUOUS
10
2.04718
20
1.32426
11
2.04696
21
1.32448
0
LINE
8
BLACK
6
CONTINUOUS
10
2.04696
20
1.32448
11
2.04665
21
1.32458
0
LINE
8
BLACK
6
CONTINUOUS
10
2.04665
20
1.32458
11
2.04611
21
1.32533
0
LINE
8
BLACK
6
CONTINUOUS
10
2.04611
20
1.32533
11
2.04546
21
1.32598
0
LINE
8
BLACK
6
CONTINUOUS
10
2.04546
20
1.32598
11
2.04541
21
1.32629
0
LINE
8
BLACK
6
CONTINUOUS
10
2.04541
20
1.32629
11
2.04522
21
1.32655
0
LINE
8
BLACK
6
CONTINUOUS
10
2.04522
20
1.32655
11
2.04522
21
1.32747
0
LINE
8
BLACK
6
CONTINUOUS
10
2.04522
20
1.32747
11
2.04508
21
1.32838
0
LINE
8
BLACK
6
CONTINUOUS
10
2.04508
20
1.32838
11
2.04522
21
1.32866
0
LINE
8
BLACK
6
CONTINUOUS
10
2.04522
20
1.32866
11
2.04522
21
1.32898
0
LINE
8
BLACK
6
CONTINUOUS
10
2.04522
20
1.32898
11
2.04577
21
1.32973
0
LINE
8
BLACK
6
CONTINUOUS
10
2.04577
20
1.32973
11
2.04618
21
1.33055
0
LINE
8
BLACK
6
CONTINUOUS
10
2.04618
20
1.33055
11
2.09052
21
1.37489
0
LINE
8
BLACK
6
CONTINUOUS
10
2.09052
20
1.37489
11
2.09378
21
1.38465
0
LINE
8
BLACK
6
CONTINUOUS
10
2.09378
20
1.38465
11
2.09378
21
1.39058
0
LINE
8
BLACK
6
CONTINUOUS
10
2.09378
20
1.39058
11
2.09073
21
1.39667
0
LINE
8
BLACK
6
CONTINUOUS
10
2.09073
20
1.39667
11
2.08788
21
1.39952
0
LINE
8
BLACK
6
CONTINUOUS
10
2.08788
20
1.39952
11
2.08179
21
1.40257
0
LINE
8
BLACK
6
CONTINUOUS
10
2.08179
20
1.40257
11
2.0649
21
1.40257
0
LINE
8
BLACK
6
CONTINUOUS
10
2.0649
20
1.40257
11
2.0588
21
1.39952
0
LINE
8
BLACK
6
CONTINUOUS
10
2.0588
20
1.39952
11
2.0555
21
1.39622
0
LINE
8
BLACK
6
CONTINUOUS
10
2.0555
20
1.39622
11
2.05333
21
1.39512
0
LINE
8
BLACK
6
CONTINUOUS
10
2.05333
20
1.39512
11
2.05093
21
1.3955
0
LINE
8
BLACK
6
CONTINUOUS
10
2.05093
20
1.3955
11
2.04921
21
1.39722
0
LINE
8
BLACK
6
CONTINUOUS
10
2.04921
20
1.39722
11
2.04883
21
1.39962
0
LINE
8
BLACK
6
CONTINUOUS
10
2.04883
20
1.39962
11
2.04993
21
1.40179
0
LINE
8
BLACK
6
CONTINUOUS
10
2.04993
20
1.40179
11
2.05368
21
1.40554
0
LINE
8
BLACK
6
CONTINUOUS
10
2.05368
20
1.40554
11
2.05425
21
1.40583
0
LINE
8
BLACK
6
CONTINUOUS
10
2.05425
20
1.40583
11
2.05471
21
1.40628
0
LINE
8
BLACK
6
CONTINUOUS
10
2.05471
20
1.40628
11
2.06221
21
1.41003
0
LINE
8
BLACK
6
CONTINUOUS
10
2.06221
20
1.41003
11
2.0631
21
1.41016
0
LINE
8
BLACK
6
CONTINUOUS
10
2.0631
20
1.41016
11
2.06397
21
1.41044
0
LINE
8
BLACK
6
CONTINUOUS
10
2.06397
20
1.41044
11
2.08271
21
1.41044
0
LINE
8
BLACK
6
CONTINUOUS
10
2.08271
20
1.41044
11
2.08358
21
1.41016
0
LINE
8
BLACK
6
CONTINUOUS
10
2.15482
20
1.41016
11
2.15572
21
1.41003
0
LINE
8
BLACK
6
CONTINUOUS
10
2.15572
20
1.41003
11
2.16322
21
1.40628
0
LINE
8
BLACK
6
CONTINUOUS
10
2.16322
20
1.40628
11
2.16367
21
1.40583
0
LINE
8
BLACK
6
CONTINUOUS
10
2.16367
20
1.40583
11
2.16424
21
1.40554
0
LINE
8
BLACK
6
CONTINUOUS
10
2.16424
20
1.40554
11
2.16799
21
1.40179
0
LINE
8
BLACK
6
CONTINUOUS
10
2.16799
20
1.40179
11
2.16828
21
1.40122
0
LINE
8
BLACK
6
CONTINUOUS
10
2.16828
20
1.40122
11
2.16873
21
1.40077
0
LINE
8
BLACK
6
CONTINUOUS
10
2.16873
20
1.40077
11
2.17248
21
1.39327
0
LINE
8
BLACK
6
CONTINUOUS
10
2.17248
20
1.39327
11
2.17254
21
1.39283
0
LINE
8
BLACK
6
CONTINUOUS
10
2.17254
20
1.39283
11
2.17277
21
1.39246
0
LINE
8
BLACK
6
CONTINUOUS
10
2.17277
20
1.39246
11
2.17652
21
1.37746
0
LINE
8
BLACK
6
CONTINUOUS
10
2.17652
20
1.37746
11
2.17649
21
1.37698
0
LINE
8
BLACK
6
CONTINUOUS
10
2.17649
20
1.37698
11
2.17664
21
1.37651
0
LINE
8
BLACK
6
CONTINUOUS
10
2.17664
20
1.37651
11
2.17664
21
1.35776
0
LINE
8
BLACK
6
CONTINUOUS
10
2.17664
20
1.35776
11
2.17649
21
1.3573
0
LINE
8
BLACK
6
CONTINUOUS
10
2.17649
20
1.3573
11
2.17652
21
1.35681
0
LINE
8
BLACK
6
CONTINUOUS
10
2.17652
20
1.35681
11
2.17277
21
1.34181
0
LINE
8
BLACK
6
CONTINUOUS
10
2.17277
20
1.34181
11
2.17254
21
1.34144
0
LINE
8
BLACK
6
CONTINUOUS
10
2.17254
20
1.34144
11
2.17248
21
1.341
0
LINE
8
BLACK
6
CONTINUOUS
10
2.17248
20
1.341
11
2.16873
21
1.3335
0
LINE
8
BLACK
6
CONTINUOUS
10
2.16873
20
1.3335
11
2.16828
21
1.33305
0
LINE
8
BLACK
6
CONTINUOUS
10
2.16828
20
1.33305
11
2.16799
21
1.33248
0
LINE
8
BLACK
6
CONTINUOUS
10
2.16799
20
1.33248
11
2.16424
21
1.32873
0
LINE
8
BLACK
6
CONTINUOUS
10
2.16424
20
1.32873
11
2.16367
21
1.32844
0
LINE
8
BLACK
6
CONTINUOUS
10
2.16367
20
1.32844
11
2.16322
21
1.32799
0
LINE
8
BLACK
6
CONTINUOUS
10
2.16322
20
1.32799
11
2.15572
21
1.32424
0
LINE
8
BLACK
6
CONTINUOUS
10
2.15572
20
1.32424
11
2.15482
21
1.32411
0
LINE
8
BLACK
6
CONTINUOUS
10
2.15482
20
1.32411
11
2.15396
21
1.32383
0
LINE
8
BLACK
6
CONTINUOUS
10
2.15396
20
1.32383
11
2.14646
21
1.32383
0
LINE
8
BLACK
6
CONTINUOUS
10
2.14646
20
1.32383
11
2.14559
21
1.32411
0
LINE
8
BLACK
6
CONTINUOUS
10
2.14559
20
1.32411
11
2.1447
21
1.32424
0
LINE
8
BLACK
6
CONTINUOUS
10
2.1447
20
1.32424
11
2.1372
21
1.32799
0
LINE
8
BLACK
6
CONTINUOUS
10
2.1372
20
1.32799
11
2.13674
21
1.32844
0
LINE
8
BLACK
6
CONTINUOUS
10
2.13674
20
1.32844
11
2.13617
21
1.32873
0
LINE
8
BLACK
6
CONTINUOUS
10
2.13617
20
1.32873
11
2.13242
21
1.33248
0
LINE
8
BLACK
6
CONTINUOUS
10
2.13242
20
1.33248
11
2.13213
21
1.33305
0
LINE
8
BLACK
6
CONTINUOUS
10
2.13213
20
1.33305
11
2.13169
21
1.3335
0
LINE
8
BLACK
6
CONTINUOUS
10
2.13169
20
1.3335
11
2.12794
21
1.341
0
LINE
8
BLACK
6
CONTINUOUS
10
2.12794
20
1.341
11
2.12787
21
1.34144
0
LINE
8
BLACK
6
CONTINUOUS
10
2.12787
20
1.34144
11
2.12764
21
1.34181
0
LINE
8
BLACK
6
CONTINUOUS
10
2.12764
20
1.34181
11
2.12389
21
1.35681
0
LINE
8
BLACK
6
CONTINUOUS
10
2.12389
20
1.35681
11
2.12392
21
1.3573
0
LINE
8
BLACK
6
CONTINUOUS
10
2.12392
20
1.3573
11
2.12377
21
1.35776
0
LINE
8
BLACK
6
CONTINUOUS
10
2.12377
20
1.35776
11
2.12377
21
1.37651
0
LINE
8
BLACK
6
CONTINUOUS
10
2.12377
20
1.37651
11
2.12392
21
1.37698
0
LINE
8
BLACK
6
CONTINUOUS
10
2.12392
20
1.37698
11
2.12389
21
1.37746
0
LINE
8
BLACK
6
CONTINUOUS
10
2.12389
20
1.37746
11
2.12764
21
1.39246
0
LINE
8
BLACK
6
CONTINUOUS
10
2.12764
20
1.39246
11
2.12787
21
1.39283
0
LINE
8
BLACK
6
CONTINUOUS
10
2.12787
20
1.39283
11
2.12794
21
1.39327
0
LINE
8
BLACK
6
CONTINUOUS
10
2.12794
20
1.39327
11
2.13169
21
1.40077
0
LINE
8
BLACK
6
CONTINUOUS
10
2.13169
20
1.40077
11
2.13213
21
1.40122
0
LINE
8
BLACK
6
CONTINUOUS
10
2.13213
20
1.40122
11
2.13242
21
1.40179
0
LINE
8
BLACK
6
CONTINUOUS
10
2.13242
20
1.40179
11
2.13617
21
1.40554
0
LINE
8
BLACK
6
CONTINUOUS
10
2.13617
20
1.40554
11
2.13674
21
1.40583
0
LINE
8
BLACK
6
CONTINUOUS
10
2.13674
20
1.40583
11
2.1372
21
1.40628
0
LINE
8
BLACK
6
CONTINUOUS
10
2.1372
20
1.40628
11
2.1447
21
1.41003
0
LINE
8
BLACK
6
CONTINUOUS
10
2.1447
20
1.41003
11
2.14559
21
1.41016
0
LINE
8
BLACK
6
CONTINUOUS
10
2.14559
20
1.41016
11
2.14646
21
1.41044
0
LINE
8
BLACK
6
CONTINUOUS
10
2.14646
20
1.41044
11
2.15396
21
1.41044
0
LINE
8
BLACK
6
CONTINUOUS
10
2.15396
20
1.41044
11
2.15482
21
1.41016
0
LINE
8
BLACK
6
CONTINUOUS
10
2.14739
20
1.40257
11
2.14129
21
1.39952
0
LINE
8
BLACK
6
CONTINUOUS
10
2.14129
20
1.39952
11
2.13844
21
1.39667
0
LINE
8
BLACK
6
CONTINUOUS
10
2.13844
20
1.39667
11
2.13517
21
1.39013
0
LINE
8
BLACK
6
CONTINUOUS
10
2.13517
20
1.39013
11
2.13165
21
1.37602
0
LINE
8
BLACK
6
CONTINUOUS
10
2.13165
20
1.37602
11
2.13165
21
1.35825
0
LINE
8
BLACK
6
CONTINUOUS
10
2.13165
20
1.35825
11
2.13517
21
1.34414
0
LINE
8
BLACK
6
CONTINUOUS
10
2.13517
20
1.34414
11
2.13844
21
1.3376
0
LINE
8
BLACK
6
CONTINUOUS
10
2.13844
20
1.3376
11
2.14129
21
1.33475
0
LINE
8
BLACK
6
CONTINUOUS
10
2.14129
20
1.33475
11
2.14739
21
1.3317
0
LINE
8
BLACK
6
CONTINUOUS
10
2.14739
20
1.3317
11
2.15303
21
1.3317
0
LINE
8
BLACK
6
CONTINUOUS
10
2.15303
20
1.3317
11
2.15912
21
1.33475
0
LINE
8
BLACK
6
CONTINUOUS
10
2.15912
20
1.33475
11
2.16197
21
1.3376
0
LINE
8
BLACK
6
CONTINUOUS
10
2.16197
20
1.3376
11
2.16524
21
1.34414
0
LINE
8
BLACK
6
CONTINUOUS
10
2.16524
20
1.34414
11
2.16877
21
1.35825
0
LINE
8
BLACK
6
CONTINUOUS
10
2.16877
20
1.35825
11
2.16877
21
1.37602
0
LINE
8
BLACK
6
CONTINUOUS
10
2.16877
20
1.37602
11
2.16524
21
1.39013
0
LINE
8
BLACK
6
CONTINUOUS
10
2.16524
20
1.39013
11
2.16197
21
1.39667
0
LINE
8
BLACK
6
CONTINUOUS
10
2.16197
20
1.39667
11
2.15912
21
1.39952
0
LINE
8
BLACK
6
CONTINUOUS
10
2.15912
20
1.39952
11
2.15303
21
1.40257
0
LINE
8
BLACK
6
CONTINUOUS
10
2.15303
20
1.40257
11
2.14739
21
1.40257
0
LINE
8
BLACK
6
CONTINUOUS
10
2.23356
20
1.41016
11
2.23446
21
1.41003
0
LINE
8
BLACK
6
CONTINUOUS
10
2.23446
20
1.41003
11
2.24196
21
1.40628
0
LINE
8
BLACK
6
CONTINUOUS
10
2.24196
20
1.40628
11
2.24241
21
1.40583
0
LINE
8
BLACK
6
CONTINUOUS
10
2.24241
20
1.40583
11
2.24298
21
1.40554
0
LINE
8
BLACK
6
CONTINUOUS
10
2.24298
20
1.40554
11
2.24673
21
1.40179
0
LINE
8
BLACK
6
CONTINUOUS
10
2.24673
20
1.40179
11
2.24702
21
1.40122
0
LINE
8
BLACK
6
CONTINUOUS
10
2.24702
20
1.40122
11
2.24747
21
1.40077
0
LINE
8
BLACK
6
CONTINUOUS
10
2.24747
20
1.40077
11
2.25122
21
1.39327
0
LINE
8
BLACK
6
CONTINUOUS
10
2.25122
20
1.39327
11
2.25135
21
1.39237
0
LINE
8
BLACK
6
CONTINUOUS
10
2.25135
20
1.39237
11
2.25163
21
1.39151
0
LINE
8
BLACK
6
CONTINUOUS
10
2.25163
20
1.39151
11
2.25163
21
1.38401
0
LINE
8
BLACK
6
CONTINUOUS
10
2.25163
20
1.38401
11
2.25143
21
1.3834
0
LINE
8
BLACK
6
CONTINUOUS
10
2.25143
20
1.3834
11
2.25143
21
1.38276
0
LINE
8
BLACK
6
CONTINUOUS
10
2.25143
20
1.38276
11
2.24768
21
1.37151
0
LINE
8
BLACK
6
CONTINUOUS
10
2.24768
20
1.37151
11
2.24714
21
1.37078
0
LINE
8
BLACK
6
CONTINUOUS
10
2.24714
20
1.37078
11
2.24673
21
1.36998
0
LINE
8
BLACK
6
CONTINUOUS
10
2.24673
20
1.36998
11
2.20845
21
1.3317
0
LINE
8
BLACK
6
CONTINUOUS
10
2.20845
20
1.3317
11
2.24769
21
1.3317
0
LINE
8
BLACK
6
CONTINUOUS
10
2.24769
20
1.3317
11
2.25001
21
1.33095
0
LINE
8
BLACK
6
CONTINUOUS
10
2.25001
20
1.33095
11
2.25144
21
1.32898
0
LINE
8
BLACK
6
CONTINUOUS
10
2.25144
20
1.32898
11
2.25144
21
1.32655
0
LINE
8
BLACK
6
CONTINUOUS
10
2.25144
20
1.32655
11
2.25001
21
1.32458
0
LINE
8
BLACK
6
CONTINUOUS
10
2.25001
20
1.32458
11
2.24769
21
1.32383
0
LINE
8
BLACK
6
CONTINUOUS
10
2.24769
20
1.32383
11
2.19895
21
1.32383
0
LINE
8
BLACK
6
CONTINUOUS
10
2.19895
20
1.32383
11
2.19807
21
1.32411
0
LINE
8
BLACK
6
CONTINUOUS
10
2.19807
20
1.32411
11
2.19716
21
1.32426
0
LINE
8
BLACK
6
CONTINUOUS
10
2.19716
20
1.32426
11
2.19694
21
1.32448
0
LINE
8
BLACK
6
CONTINUOUS
10
2.19694
20
1.32448
11
2.19664
21
1.32458
0
LINE
8
BLACK
6
CONTINUOUS
10
2.19664
20
1.32458
11
2.19609
21
1.32533
0
LINE
8
BLACK
6
CONTINUOUS
10
2.19609
20
1.32533
11
2.19544
21
1.32598
0
LINE
8
BLACK
6
CONTINUOUS
10
2.19544
20
1.32598
11
2.19539
21
1.32629
0
LINE
8
BLACK
6
CONTINUOUS
10
2.19539
20
1.32629
11
2.19521
21
1.32655
0
LINE
8
BLACK
6
CONTINUOUS
10
2.19521
20
1.32655
11
2.19521
21
1.32747
0
LINE
8
BLACK
6
CONTINUOUS
10
2.19521
20
1.32747
11
2.19506
21
1.32838
0
LINE
8
BLACK
6
CONTINUOUS
10
2.19506
20
1.32838
11
2.19521
21
1.32866
0
LINE
8
BLACK
6
CONTINUOUS
10
2.19521
20
1.32866
11
2.19521
21
1.32898
0
LINE
8
BLACK
6
CONTINUOUS
10
2.19521
20
1.32898
11
2.19575
21
1.32973
0
LINE
8
BLACK
6
CONTINUOUS
10
2.19575
20
1.32973
11
2.19617
21
1.33055
0
LINE
8
BLACK
6
CONTINUOUS
10
2.19617
20
1.33055
11
2.2405
21
1.37489
0
LINE
8
BLACK
6
CONTINUOUS
10
2.2405
20
1.37489
11
2.24376
21
1.38465
0
LINE
8
BLACK
6
CONTINUOUS
10
2.24376
20
1.38465
11
2.24376
21
1.39058
0
LINE
8
BLACK
6
CONTINUOUS
10
2.24376
20
1.39058
11
2.24071
21
1.39667
0
LINE
8
BLACK
6
CONTINUOUS
10
2.24071
20
1.39667
11
2.23786
21
1.39952
0
LINE
8
BLACK
6
CONTINUOUS
10
2.23786
20
1.39952
11
2.23177
21
1.40257
0
LINE
8
BLACK
6
CONTINUOUS
10
2.23177
20
1.40257
11
2.21488
21
1.40257
0
LINE
8
BLACK
6
CONTINUOUS
10
2.21488
20
1.40257
11
2.20878
21
1.39952
0
LINE
8
BLACK
6
CONTINUOUS
10
2.20878
20
1.39952
11
2.20548
21
1.39622
0
LINE
8
BLACK
6
CONTINUOUS
10
2.20548
20
1.39622
11
2.20332
21
1.39512
0
LINE
8
BLACK
6
CONTINUOUS
10
2.20332
20
1.39512
11
2.20091
21
1.3955
0
LINE
8
BLACK
6
CONTINUOUS
10
2.20091
20
1.3955
11
2.19919
21
1.39722
0
LINE
8
BLACK
6
CONTINUOUS
10
2.19919
20
1.39722
11
2.19881
21
1.39962
0
LINE
8
BLACK
6
CONTINUOUS
10
2.19881
20
1.39962
11
2.19992
21
1.40179
0
LINE
8
BLACK
6
CONTINUOUS
10
2.19992
20
1.40179
11
2.20367
21
1.40554
0
LINE
8
BLACK
6
CONTINUOUS
10
2.20367
20
1.40554
11
2.20423
21
1.40583
0
LINE
8
BLACK
6
CONTINUOUS
10
2.20423
20
1.40583
11
2.20469
21
1.40628
0
LINE
8
BLACK
6
CONTINUOUS
10
2.20469
20
1.40628
11
2.21219
21
1.41003
0
LINE
8
BLACK
6
CONTINUOUS
10
2.21219
20
1.41003
11
2.21308
21
1.41016
0
LINE
8
BLACK
6
CONTINUOUS
10
2.21308
20
1.41016
11
2.21395
21
1.41044
0
LINE
8
BLACK
6
CONTINUOUS
10
2.21395
20
1.41044
11
2.2327
21
1.41044
0
LINE
8
BLACK
6
CONTINUOUS
10
2.2327
20
1.41044
11
2.23356
21
1.41016
0
LINE
8
BLACK
6
CONTINUOUS
10
2.30855
20
1.41016
11
2.30945
21
1.41003
0
LINE
8
BLACK
6
CONTINUOUS
10
2.30945
20
1.41003
11
2.31695
21
1.40628
0
LINE
8
BLACK
6
CONTINUOUS
10
2.31695
20
1.40628
11
2.3174
21
1.40583
0
LINE
8
BLACK
6
CONTINUOUS
10
2.3174
20
1.40583
11
2.31797
21
1.40554
0
LINE
8
BLACK
6
CONTINUOUS
10
2.31797
20
1.40554
11
2.32172
21
1.40179
0
LINE
8
BLACK
6
CONTINUOUS
10
2.32172
20
1.40179
11
2.32201
21
1.40122
0
LINE
8
BLACK
6
CONTINUOUS
10
2.32201
20
1.40122
11
2.32246
21
1.40077
0
LINE
8
BLACK
6
CONTINUOUS
10
2.32246
20
1.40077
11
2.32621
21
1.39327
0
LINE
8
BLACK
6
CONTINUOUS
10
2.32621
20
1.39327
11
2.32634
21
1.39237
0
LINE
8
BLACK
6
CONTINUOUS
10
2.32634
20
1.39237
11
2.32662
21
1.39151
0
LINE
8
BLACK
6
CONTINUOUS
10
2.32662
20
1.39151
11
2.32662
21
1.38401
0
LINE
8
BLACK
6
CONTINUOUS
10
2.32662
20
1.38401
11
2.32642
21
1.3834
0
LINE
8
BLACK
6
CONTINUOUS
10
2.32642
20
1.3834
11
2.32642
21
1.38276
0
LINE
8
BLACK
6
CONTINUOUS
10
2.32642
20
1.38276
11
2.32267
21
1.37151
0
LINE
8
BLACK
6
CONTINUOUS
10
2.32267
20
1.37151
11
2.32213
21
1.37078
0
LINE
8
BLACK
6
CONTINUOUS
10
2.32213
20
1.37078
11
2.32172
21
1.36998
0
LINE
8
BLACK
6
CONTINUOUS
10
2.32172
20
1.36998
11
2.28345
21
1.3317
0
LINE
8
BLACK
6
CONTINUOUS
10
2.28345
20
1.3317
11
2.32268
21
1.3317
0
LINE
8
BLACK
6
CONTINUOUS
10
2.32268
20
1.3317
11
2.325
21
1.33095
0
LINE
8
BLACK
6
CONTINUOUS
10
2.325
20
1.33095
11
2.32643
21
1.32898
0
LINE
8
BLACK
6
CONTINUOUS
10
2.32643
20
1.32898
11
2.32643
21
1.32655
0
LINE
8
BLACK
6
CONTINUOUS
10
2.32643
20
1.32655
11
2.325
21
1.32458
0
LINE
8
BLACK
6
CONTINUOUS
10
2.325
20
1.32458
11
2.32268
21
1.32383
0
LINE
8
BLACK
6
CONTINUOUS
10
2.32268
20
1.32383
11
2.27394
21
1.32383
0
LINE
8
BLACK
6
CONTINUOUS
10
2.27394
20
1.32383
11
2.27306
21
1.32411
0
LINE
8
BLACK
6
CONTINUOUS
10
2.27306
20
1.32411
11
2.27215
21
1.32426
0
LINE
8
BLACK
6
CONTINUOUS
10
2.27215
20
1.32426
11
2.27193
21
1.32448
0
LINE
8
BLACK
6
CONTINUOUS
10
2.27193
20
1.32448
11
2.27163
21
1.32458
0
LINE
8
BLACK
6
CONTINUOUS
10
2.27163
20
1.32458
11
2.27108
21
1.32533
0
LINE
8
BLACK
6
CONTINUOUS
10
2.27108
20
1.32533
11
2.27043
21
1.32598
0
LINE
8
BLACK
6
CONTINUOUS
10
2.27043
20
1.32598
11
2.27038
21
1.32629
0
LINE
8
BLACK
6
CONTINUOUS
10
2.27038
20
1.32629
11
2.2702
21
1.32655
0
LINE
8
BLACK
6
CONTINUOUS
10
2.2702
20
1.32655
11
2.2702
21
1.32747
0
LINE
8
BLACK
6
CONTINUOUS
10
2.2702
20
1.32747
11
2.27005
21
1.32838
0
LINE
8
BLACK
6
CONTINUOUS
10
2.27005
20
1.32838
11
2.2702
21
1.32866
0
LINE
8
BLACK
6
CONTINUOUS
10
2.2702
20
1.32866
11
2.2702
21
1.32898
0
LINE
8
BLACK
6
CONTINUOUS
10
2.2702
20
1.32898
11
2.27074
21
1.32973
0
LINE
8
BLACK
6
CONTINUOUS
10
2.27074
20
1.32973
11
2.27116
21
1.33055
0
LINE
8
BLACK
6
CONTINUOUS
10
2.27116
20
1.33055
11
2.31549
21
1.37489
0
LINE
8
BLACK
6
CONTINUOUS
10
2.31549
20
1.37489
11
2.31875
21
1.38465
0
LINE
8
BLACK
6
CONTINUOUS
10
2.31875
20
1.38465
11
2.31875
21
1.39058
0
LINE
8
BLACK
6
CONTINUOUS
10
2.31875
20
1.39058
11
2.3157
21
1.39667
0
LINE
8
BLACK
6
CONTINUOUS
10
2.3157
20
1.39667
11
2.31285
21
1.39952
0
LINE
8
BLACK
6
CONTINUOUS
10
2.31285
20
1.39952
11
2.30676
21
1.40257
0
LINE
8
BLACK
6
CONTINUOUS
10
2.30676
20
1.40257
11
2.28987
21
1.40257
0
LINE
8
BLACK
6
CONTINUOUS
10
2.28987
20
1.40257
11
2.28377
21
1.39952
0
LINE
8
BLACK
6
CONTINUOUS
10
2.28377
20
1.39952
11
2.28047
21
1.39622
0
LINE
8
BLACK
6
CONTINUOUS
10
2.28047
20
1.39622
11
2.27831
21
1.39512
0
LINE
8
BLACK
6
CONTINUOUS
10
2.27831
20
1.39512
11
2.2759
21
1.3955
0
LINE
8
BLACK
6
CONTINUOUS
10
2.2759
20
1.3955
11
2.27418
21
1.39722
0
LINE
8
BLACK
6
CONTINUOUS
10
2.27418
20
1.39722
11
2.2738
21
1.39962
0
LINE
8
BLACK
6
CONTINUOUS
10
2.2738
20
1.39962
11
2.27491
21
1.40179
0
LINE
8
BLACK
6
CONTINUOUS
10
2.27491
20
1.40179
11
2.27866
21
1.40554
0
LINE
8
BLACK
6
CONTINUOUS
10
2.27866
20
1.40554
11
2.27922
21
1.40583
0
LINE
8
BLACK
6
CONTINUOUS
10
2.27922
20
1.40583
11
2.27968
21
1.40628
0
LINE
8
BLACK
6
CONTINUOUS
10
2.27968
20
1.40628
11
2.28718
21
1.41003
0
LINE
8
BLACK
6
CONTINUOUS
10
2.28718
20
1.41003
11
2.28808
21
1.41016
0
LINE
8
BLACK
6
CONTINUOUS
10
2.28808
20
1.41016
11
2.28894
21
1.41044
0
LINE
8
BLACK
6
CONTINUOUS
10
2.28894
20
1.41044
11
2.30769
21
1.41044
0
LINE
8
BLACK
6
CONTINUOUS
10
2.30769
20
1.41044
11
2.30855
21
1.41016
0
LINE
8
BLACK
6
CONTINUOUS
10
1.8289
20
1.41007
11
1.83004
21
1.40971
0
LINE
8
BLACK
6
CONTINUOUS
10
1.83004
20
1.40971
11
1.83005
21
1.40968
0
LINE
8
BLACK
6
CONTINUOUS
10
1.83005
20
1.40968
11
1.83008
21
1.40967
0
LINE
8
BLACK
6
CONTINUOUS
10
1.83008
20
1.40967
11
1.83078
21
1.40871
0
LINE
8
BLACK
6
CONTINUOUS
10
1.83078
20
1.40871
11
1.83148
21
1.40775
0
LINE
8
BLACK
6
CONTINUOUS
10
1.83148
20
1.40775
11
1.85773
21
1.32901
0
LINE
8
BLACK
6
CONTINUOUS
10
1.85773
20
1.32901
11
1.85775
21
1.32658
0
LINE
8
BLACK
6
CONTINUOUS
10
1.85775
20
1.32658
11
1.85633
21
1.3246
0
LINE
8
BLACK
6
CONTINUOUS
10
1.85633
20
1.3246
11
1.85402
21
1.32383
0
LINE
8
BLACK
6
CONTINUOUS
10
1.85402
20
1.32383
11
1.8517
21
1.32456
0
LINE
8
BLACK
6
CONTINUOUS
10
1.8517
20
1.32456
11
1.85026
21
1.32652
0
LINE
8
BLACK
6
CONTINUOUS
10
1.85026
20
1.32652
11
1.84366
21
1.34633
0
LINE
8
BLACK
6
CONTINUOUS
10
1.84366
20
1.34633
11
1.81184
21
1.34633
0
LINE
8
BLACK
6
CONTINUOUS
10
1.81184
20
1.34633
11
1.80523
21
1.32652
0
LINE
8
BLACK
6
CONTINUOUS
10
1.80523
20
1.32652
11
1.80379
21
1.32456
0
LINE
8
BLACK
6
CONTINUOUS
10
1.80379
20
1.32456
11
1.80147
21
1.32383
0
LINE
8
BLACK
6
CONTINUOUS
10
1.80147
20
1.32383
11
1.79916
21
1.3246
0
LINE
8
BLACK
6
CONTINUOUS
10
1.79916
20
1.3246
11
1.79775
21
1.32658
0
LINE
8
BLACK
6
CONTINUOUS
10
1.79775
20
1.32658
11
1.79776
21
1.32901
0
LINE
8
BLACK
6
CONTINUOUS
10
1.79776
20
1.32901
11
1.82401
21
1.40775
0
LINE
8
BLACK
6
CONTINUOUS
10
1.82401
20
1.40775
11
1.82472
21
1.40871
0
LINE
8
BLACK
6
CONTINUOUS
10
1.82472
20
1.40871
11
1.82541
21
1.40967
0
LINE
8
BLACK
6
CONTINUOUS
10
1.82541
20
1.40967
11
1.82544
21
1.40968
0
LINE
8
BLACK
6
CONTINUOUS
10
1.82544
20
1.40968
11
1.82546
21
1.40971
0
LINE
8
BLACK
6
CONTINUOUS
10
1.82546
20
1.40971
11
1.82659
21
1.41007
0
LINE
8
BLACK
6
CONTINUOUS
10
1.82659
20
1.41007
11
1.82772
21
1.41044
0
LINE
8
BLACK
6
CONTINUOUS
10
1.82772
20
1.41044
11
1.82775
21
1.41043
0
LINE
8
BLACK
6
CONTINUOUS
10
1.82775
20
1.41043
11
1.82778
21
1.41044
0
LINE
8
BLACK
6
CONTINUOUS
10
1.82778
20
1.41044
11
1.8289
21
1.41007
0
LINE
8
BLACK
6
CONTINUOUS
10
1.81446
20
1.3542
11
1.84103
21
1.3542
0
LINE
8
BLACK
6
CONTINUOUS
10
1.84103
20
1.3542
11
1.82775
21
1.39406
0
LINE
8
BLACK
6
CONTINUOUS
10
1.82775
20
1.39406
11
1.81446
21
1.3542
0
LINE
8
BLACK
6
CONTINUOUS
10
1.71234
20
1.41025
11
1.71273
21
1.41025
0
LINE
8
BLACK
6
CONTINUOUS
10
1.71273
20
1.41025
11
1.71342
21
1.40975
0
LINE
8
BLACK
6
CONTINUOUS
10
1.71342
20
1.40975
11
1.7142
21
1.40938
0
LINE
8
BLACK
6
CONTINUOUS
10
1.7142
20
1.40938
11
1.71438
21
1.40905
0
LINE
8
BLACK
6
CONTINUOUS
10
1.71438
20
1.40905
11
1.7147
21
1.40882
0
LINE
8
BLACK
6
CONTINUOUS
10
1.7147
20
1.40882
11
1.71496
21
1.408
0
LINE
8
BLACK
6
CONTINUOUS
10
1.71496
20
1.408
11
1.71538
21
1.40726
0
LINE
8
BLACK
6
CONTINUOUS
10
1.71538
20
1.40726
11
1.71533
21
1.40687
0
LINE
8
BLACK
6
CONTINUOUS
10
1.71533
20
1.40687
11
1.71545
21
1.40651
0
LINE
8
BLACK
6
CONTINUOUS
10
1.71545
20
1.40651
11
1.71545
21
1.32777
0
LINE
8
BLACK
6
CONTINUOUS
10
1.71545
20
1.32777
11
1.7147
21
1.32545
0
LINE
8
BLACK
6
CONTINUOUS
10
1.7147
20
1.32545
11
1.71273
21
1.32402
0
LINE
8
BLACK
6
CONTINUOUS
10
1.71273
20
1.32402
11
1.71029
21
1.32402
0
LINE
8
BLACK
6
CONTINUOUS
10
1.71029
20
1.32402
11
1.70833
21
1.32545
0
LINE
8
BLACK
6
CONTINUOUS
10
1.70833
20
1.32545
11
1.70757
21
1.32777
0
LINE
8
BLACK
6
CONTINUOUS
10
1.70757
20
1.32777
11
1.70757
21
1.38876
0
LINE
8
BLACK
6
CONTINUOUS
10
1.70757
20
1.38876
11
1.68883
21
1.3486
0
LINE
8
BLACK
6
CONTINUOUS
10
1.68883
20
1.3486
11
1.68832
21
1.34805
0
LINE
8
BLACK
6
CONTINUOUS
10
1.68832
20
1.34805
11
1.68795
21
1.34738
0
LINE
8
BLACK
6
CONTINUOUS
10
1.68795
20
1.34738
11
1.68751
21
1.34718
0
LINE
8
BLACK
6
CONTINUOUS
10
1.68751
20
1.34718
11
1.68717
21
1.34682
0
LINE
8
BLACK
6
CONTINUOUS
10
1.68717
20
1.34682
11
1.68643
21
1.34667
0
LINE
8
BLACK
6
CONTINUOUS
10
1.68643
20
1.34667
11
1.68575
21
1.34635
0
LINE
8
BLACK
6
CONTINUOUS
10
1.68575
20
1.34635
11
1.68526
21
1.34645
0
LINE
8
BLACK
6
CONTINUOUS
10
1.68526
20
1.34645
11
1.68478
21
1.34635
0
LINE
8
BLACK
6
CONTINUOUS
10
1.68478
20
1.34635
11
1.6841
21
1.34667
0
LINE
8
BLACK
6
CONTINUOUS
10
1.6841
20
1.34667
11
1.68336
21
1.34682
0
LINE
8
BLACK
6
CONTINUOUS
10
1.68336
20
1.34682
11
1.68302
21
1.34718
0
LINE
8
BLACK
6
CONTINUOUS
10
1.68302
20
1.34718
11
1.68258
21
1.34738
0
LINE
8
BLACK
6
CONTINUOUS
10
1.68258
20
1.34738
11
1.68221
21
1.34805
0
LINE
8
BLACK
6
CONTINUOUS
10
1.68221
20
1.34805
11
1.6817
21
1.3486
0
LINE
8
BLACK
6
CONTINUOUS
10
1.6817
20
1.3486
11
1.66295
21
1.38876
0
LINE
8
BLACK
6
CONTINUOUS
10
1.66295
20
1.38876
11
1.66295
21
1.32777
0
LINE
8
BLACK
6
CONTINUOUS
10
1.66295
20
1.32777
11
1.6622
21
1.32545
0
LINE
8
BLACK
6
CONTINUOUS
10
1.6622
20
1.32545
11
1.66023
21
1.32402
0
LINE
8
BLACK
6
CONTINUOUS
10
1.66023
20
1.32402
11
1.6578
21
1.32402
0
LINE
8
BLACK
6
CONTINUOUS
10
1.6578
20
1.32402
11
1.65583
21
1.32545
0
LINE
8
BLACK
6
CONTINUOUS
10
1.65583
20
1.32545
11
1.65508
21
1.32777
0
LINE
8
BLACK
6
CONTINUOUS
10
1.65508
20
1.32777
11
1.65508
21
1.40651
0
LINE
8
BLACK
6
CONTINUOUS
10
1.65508
20
1.40651
11
1.6552
21
1.40687
0
LINE
8
BLACK
6
CONTINUOUS
10
1.6552
20
1.40687
11
1.65515
21
1.40726
0
LINE
8
BLACK
6
CONTINUOUS
10
1.65515
20
1.40726
11
1.65557
21
1.408
0
LINE
8
BLACK
6
CONTINUOUS
10
1.65557
20
1.408
11
1.65583
21
1.40882
0
LINE
8
BLACK
6
CONTINUOUS
10
1.65583
20
1.40882
11
1.65614
21
1.40905
0
LINE
8
BLACK
6
CONTINUOUS
10
1.65614
20
1.40905
11
1.65633
21
1.40938
0
LINE
8
BLACK
6
CONTINUOUS
10
1.65633
20
1.40938
11
1.65711
21
1.40975
0
LINE
8
BLACK
6
CONTINUOUS
10
1.65711
20
1.40975
11
1.6578
21
1.41025
0
LINE
8
BLACK
6
CONTINUOUS
10
1.6578
20
1.41025
11
1.65819
21
1.41025
0
LINE
8
BLACK
6
CONTINUOUS
10
1.65819
20
1.41025
11
1.65854
21
1.41041
0
LINE
8
BLACK
6
CONTINUOUS
10
1.65854
20
1.41041
11
1.65938
21
1.41025
0
LINE
8
BLACK
6
CONTINUOUS
10
1.65938
20
1.41025
11
1.66023
21
1.41025
0
LINE
8
BLACK
6
CONTINUOUS
10
1.66023
20
1.41025
11
1.66055
21
1.41002
0
LINE
8
BLACK
6
CONTINUOUS
10
1.66055
20
1.41002
11
1.66093
21
1.40995
0
LINE
8
BLACK
6
CONTINUOUS
10
1.66093
20
1.40995
11
1.66151
21
1.40932
0
LINE
8
BLACK
6
CONTINUOUS
10
1.66151
20
1.40932
11
1.6622
21
1.40882
0
LINE
8
BLACK
6
CONTINUOUS
10
1.6622
20
1.40882
11
1.66232
21
1.40845
0
LINE
8
BLACK
6
CONTINUOUS
10
1.66232
20
1.40845
11
1.66259
21
1.40817
0
LINE
8
BLACK
6
CONTINUOUS
10
1.66259
20
1.40817
11
1.68526
21
1.35957
0
LINE
8
BLACK
6
CONTINUOUS
10
1.68526
20
1.35957
11
1.70794
21
1.40817
0
LINE
8
BLACK
6
CONTINUOUS
10
1.70794
20
1.40817
11
1.70821
21
1.40845
0
LINE
8
BLACK
6
CONTINUOUS
10
1.70821
20
1.40845
11
1.70833
21
1.40882
0
LINE
8
BLACK
6
CONTINUOUS
10
1.70833
20
1.40882
11
1.70902
21
1.40932
0
LINE
8
BLACK
6
CONTINUOUS
10
1.70902
20
1.40932
11
1.7096
21
1.40995
0
LINE
8
BLACK
6
CONTINUOUS
10
1.7096
20
1.40995
11
1.70998
21
1.41002
0
LINE
8
BLACK
6
CONTINUOUS
10
1.70998
20
1.41002
11
1.71029
21
1.41025
0
LINE
8
BLACK
6
CONTINUOUS
10
1.71029
20
1.41025
11
1.71115
21
1.41025
0
LINE
8
BLACK
6
CONTINUOUS
10
1.71115
20
1.41025
11
1.71199
21
1.41041
0
LINE
8
BLACK
6
CONTINUOUS
10
1.71199
20
1.41041
11
1.71234
21
1.41025
0
LINE
8
BLACK
6
CONTINUOUS
10
2.15134
20
1.53702
11
2.15142
21
1.53702
0
LINE
8
BLACK
6
CONTINUOUS
10
2.15142
20
1.53702
11
2.15235
21
1.53635
0
LINE
8
BLACK
6
CONTINUOUS
10
2.15235
20
1.53635
11
2.1533
21
1.53572
0
LINE
8
BLACK
6
CONTINUOUS
10
2.1533
20
1.53572
11
2.15332
21
1.53564
0
LINE
8
BLACK
6
CONTINUOUS
10
2.15332
20
1.53564
11
2.15339
21
1.53559
0
LINE
8
BLACK
6
CONTINUOUS
10
2.15339
20
1.53559
11
2.15374
21
1.53451
0
LINE
8
BLACK
6
CONTINUOUS
10
2.15374
20
1.53451
11
2.15414
21
1.53344
0
LINE
8
BLACK
6
CONTINUOUS
10
2.15414
20
1.53344
11
2.15412
21
1.53336
0
LINE
8
BLACK
6
CONTINUOUS
10
2.15412
20
1.53336
11
2.15414
21
1.53328
0
LINE
8
BLACK
6
CONTINUOUS
10
2.15414
20
1.53328
11
2.15414
21
1.45847
0
LINE
8
BLACK
6
CONTINUOUS
10
2.15414
20
1.45847
11
2.1727
21
1.45847
0
LINE
8
BLACK
6
CONTINUOUS
10
2.1727
20
1.45847
11
2.17502
21
1.45772
0
LINE
8
BLACK
6
CONTINUOUS
10
2.17502
20
1.45772
11
2.17645
21
1.45575
0
LINE
8
BLACK
6
CONTINUOUS
10
2.17645
20
1.45575
11
2.17645
21
1.45332
0
LINE
8
BLACK
6
CONTINUOUS
10
2.17645
20
1.45332
11
2.17502
21
1.45135
0
LINE
8
BLACK
6
CONTINUOUS
10
2.17502
20
1.45135
11
2.1727
21
1.4506
0
LINE
8
BLACK
6
CONTINUOUS
10
2.1727
20
1.4506
11
2.12771
21
1.4506
0
LINE
8
BLACK
6
CONTINUOUS
10
2.12771
20
1.4506
11
2.12539
21
1.45135
0
LINE
8
BLACK
6
CONTINUOUS
10
2.12539
20
1.45135
11
2.12396
21
1.45332
0
LINE
8
BLACK
6
CONTINUOUS
10
2.12396
20
1.45332
11
2.12396
21
1.45575
0
LINE
8
BLACK
6
CONTINUOUS
10
2.12396
20
1.45575
11
2.12539
21
1.45772
0
LINE
8
BLACK
6
CONTINUOUS
10
2.12539
20
1.45772
11
2.12771
21
1.45847
0
LINE
8
BLACK
6
CONTINUOUS
10
2.12771
20
1.45847
11
2.14627
21
1.45847
0
LINE
8
BLACK
6
CONTINUOUS
10
2.14627
20
1.45847
11
2.14627
21
1.52027
0
LINE
8
BLACK
6
CONTINUOUS
10
2.14627
20
1.52027
11
2.14598
21
1.51984
0
LINE
8
BLACK
6
CONTINUOUS
10
2.14598
20
1.51984
11
2.14567
21
1.5196
0
LINE
8
BLACK
6
CONTINUOUS
10
2.14567
20
1.5196
11
2.14549
21
1.51924
0
LINE
8
BLACK
6
CONTINUOUS
10
2.14549
20
1.51924
11
2.13799
21
1.51175
0
LINE
8
BLACK
6
CONTINUOUS
10
2.13799
20
1.51175
11
2.13742
21
1.51146
0
LINE
8
BLACK
6
CONTINUOUS
10
2.13742
20
1.51146
11
2.13697
21
1.51101
0
LINE
8
BLACK
6
CONTINUOUS
10
2.13697
20
1.51101
11
2.12947
21
1.50726
0
LINE
8
BLACK
6
CONTINUOUS
10
2.12947
20
1.50726
11
2.12706
21
1.5069
0
LINE
8
BLACK
6
CONTINUOUS
10
2.12706
20
1.5069
11
2.1249
21
1.50802
0
LINE
8
BLACK
6
CONTINUOUS
10
2.1249
20
1.50802
11
2.12382
21
1.51019
0
LINE
8
BLACK
6
CONTINUOUS
10
2.12382
20
1.51019
11
2.12421
21
1.51259
0
LINE
8
BLACK
6
CONTINUOUS
10
2.12421
20
1.51259
11
2.12595
21
1.5143
0
LINE
8
BLACK
6
CONTINUOUS
10
2.12595
20
1.5143
11
2.13288
21
1.51777
0
LINE
8
BLACK
6
CONTINUOUS
10
2.13288
20
1.51777
11
2.13965
21
1.52454
0
LINE
8
BLACK
6
CONTINUOUS
10
2.13965
20
1.52454
11
2.14693
21
1.53546
0
LINE
8
BLACK
6
CONTINUOUS
10
2.14693
20
1.53546
11
2.147
21
1.53551
0
LINE
8
BLACK
6
CONTINUOUS
10
2.147
20
1.53551
11
2.14702
21
1.53559
0
LINE
8
BLACK
6
CONTINUOUS
10
2.14702
20
1.53559
11
2.14794
21
1.53626
0
LINE
8
BLACK
6
CONTINUOUS
10
2.14794
20
1.53626
11
2.14884
21
1.53697
0
LINE
8
BLACK
6
CONTINUOUS
10
2.14884
20
1.53697
11
2.14892
21
1.53697
0
LINE
8
BLACK
6
CONTINUOUS
10
2.14892
20
1.53697
11
2.14899
21
1.53702
0
LINE
8
BLACK
6
CONTINUOUS
10
2.14899
20
1.53702
11
2.15013
21
1.53702
0
LINE
8
BLACK
6
CONTINUOUS
10
2.15013
20
1.53702
11
2.15127
21
1.53707
0
LINE
8
BLACK
6
CONTINUOUS
10
2.15127
20
1.53707
11
2.15134
21
1.53702
0
LINE
8
BLACK
6
CONTINUOUS
10
2.07983
20
1.53693
11
2.08073
21
1.5368
0
LINE
8
BLACK
6
CONTINUOUS
10
2.08073
20
1.5368
11
2.08822
21
1.53305
0
LINE
8
BLACK
6
CONTINUOUS
10
2.08822
20
1.53305
11
2.08868
21
1.5326
0
LINE
8
BLACK
6
CONTINUOUS
10
2.08868
20
1.5326
11
2.08925
21
1.53231
0
LINE
8
BLACK
6
CONTINUOUS
10
2.08925
20
1.53231
11
2.093
21
1.52856
0
LINE
8
BLACK
6
CONTINUOUS
10
2.093
20
1.52856
11
2.09329
21
1.52799
0
LINE
8
BLACK
6
CONTINUOUS
10
2.09329
20
1.52799
11
2.09374
21
1.52754
0
LINE
8
BLACK
6
CONTINUOUS
10
2.09374
20
1.52754
11
2.09748
21
1.52004
0
LINE
8
BLACK
6
CONTINUOUS
10
2.09748
20
1.52004
11
2.09755
21
1.51961
0
LINE
8
BLACK
6
CONTINUOUS
10
2.09755
20
1.51961
11
2.09778
21
1.51923
0
LINE
8
BLACK
6
CONTINUOUS
10
2.09778
20
1.51923
11
2.10153
21
1.50424
0
LINE
8
BLACK
6
CONTINUOUS
10
2.10153
20
1.50424
11
2.1015
21
1.50375
0
LINE
8
BLACK
6
CONTINUOUS
10
2.1015
20
1.50375
11
2.10165
21
1.50328
0
LINE
8
BLACK
6
CONTINUOUS
10
2.10165
20
1.50328
11
2.10165
21
1.48453
0
LINE
8
BLACK
6
CONTINUOUS
10
2.10165
20
1.48453
11
2.1015
21
1.48407
0
LINE
8
BLACK
6
CONTINUOUS
10
2.1015
20
1.48407
11
2.10153
21
1.48358
0
LINE
8
BLACK
6
CONTINUOUS
10
2.10153
20
1.48358
11
2.09778
21
1.46858
0
LINE
8
BLACK
6
CONTINUOUS
10
2.09778
20
1.46858
11
2.09755
21
1.46821
0
LINE
8
BLACK
6
CONTINUOUS
10
2.09755
20
1.46821
11
2.09748
21
1.46777
0
LINE
8
BLACK
6
CONTINUOUS
10
2.09748
20
1.46777
11
2.09374
21
1.46028
0
LINE
8
BLACK
6
CONTINUOUS
10
2.09374
20
1.46028
11
2.09329
21
1.45982
0
LINE
8
BLACK
6
CONTINUOUS
10
2.09329
20
1.45982
11
2.093
21
1.45925
0
LINE
8
BLACK
6
CONTINUOUS
10
2.093
20
1.45925
11
2.08925
21
1.4555
0
LINE
8
BLACK
6
CONTINUOUS
10
2.08925
20
1.4555
11
2.08868
21
1.45521
0
LINE
8
BLACK
6
CONTINUOUS
10
2.08868
20
1.45521
11
2.08822
21
1.45477
0
LINE
8
BLACK
6
CONTINUOUS
10
2.08822
20
1.45477
11
2.08073
21
1.45102
0
LINE
8
BLACK
6
CONTINUOUS
10
2.08073
20
1.45102
11
2.07983
21
1.45088
0
LINE
8
BLACK
6
CONTINUOUS
10
2.07983
20
1.45088
11
2.07897
21
1.4506
0
LINE
8
BLACK
6
CONTINUOUS
10
2.07897
20
1.4506
11
2.07147
21
1.4506
0
LINE
8
BLACK
6
CONTINUOUS
10
2.07147
20
1.4506
11
2.0706
21
1.45088
0
LINE
8
BLACK
6
CONTINUOUS
10
2.0706
20
1.45088
11
2.06971
21
1.45102
0
LINE
8
BLACK
6
CONTINUOUS
10
2.06971
20
1.45102
11
2.06221
21
1.45477
0
LINE
8
BLACK
6
CONTINUOUS
10
2.06221
20
1.45477
11
2.06175
21
1.45521
0
LINE
8
BLACK
6
CONTINUOUS
10
2.06175
20
1.45521
11
2.06118
21
1.4555
0
LINE
8
BLACK
6
CONTINUOUS
10
2.06118
20
1.4555
11
2.05743
21
1.45925
0
LINE
8
BLACK
6
CONTINUOUS
10
2.05743
20
1.45925
11
2.05714
21
1.45982
0
LINE
8
BLACK
6
CONTINUOUS
10
2.05714
20
1.45982
11
2.0567
21
1.46028
0
LINE
8
BLACK
6
CONTINUOUS
10
2.0567
20
1.46028
11
2.05295
21
1.46777
0
LINE
8
BLACK
6
CONTINUOUS
10
2.05295
20
1.46777
11
2.05288
21
1.46821
0
LINE
8
BLACK
6
CONTINUOUS
10
2.05288
20
1.46821
11
2.05265
21
1.46858
0
LINE
8
BLACK
6
CONTINUOUS
10
2.05265
20
1.46858
11
2.0489
21
1.48358
0
LINE
8
BLACK
6
CONTINUOUS
10
2.0489
20
1.48358
11
2.04893
21
1.48407
0
LINE
8
BLACK
6
CONTINUOUS
10
2.04893
20
1.48407
11
2.04878
21
1.48453
0
LINE
8
BLACK
6
CONTINUOUS
10
2.04878
20
1.48453
11
2.04878
21
1.50328
0
LINE
8
BLACK
6
CONTINUOUS
10
2.04878
20
1.50328
11
2.04893
21
1.50375
0
LINE
8
BLACK
6
CONTINUOUS
10
2.04893
20
1.50375
11
2.0489
21
1.50424
0
LINE
8
BLACK
6
CONTINUOUS
10
2.0489
20
1.50424
11
2.05265
21
1.51923
0
LINE
8
BLACK
6
CONTINUOUS
10
2.05265
20
1.51923
11
2.05288
21
1.51961
0
LINE
8
BLACK
6
CONTINUOUS
10
2.05288
20
1.51961
11
2.05295
21
1.52004
0
LINE
8
BLACK
6
CONTINUOUS
10
2.05295
20
1.52004
11
2.0567
21
1.52754
0
LINE
8
BLACK
6
CONTINUOUS
10
2.0567
20
1.52754
11
2.05714
21
1.52799
0
LINE
8
BLACK
6
CONTINUOUS
10
2.05714
20
1.52799
11
2.05743
21
1.52856
0
LINE
8
BLACK
6
CONTINUOUS
10
2.05743
20
1.52856
11
2.06118
21
1.53231
0
LINE
8
BLACK
6
CONTINUOUS
10
2.06118
20
1.53231
11
2.06175
21
1.5326
0
LINE
8
BLACK
6
CONTINUOUS
10
2.06175
20
1.5326
11
2.06221
21
1.53305
0
LINE
8
BLACK
6
CONTINUOUS
10
2.06221
20
1.53305
11
2.06971
21
1.5368
0
LINE
8
BLACK
6
CONTINUOUS
10
2.06971
20
1.5368
11
2.0706
21
1.53693
0
LINE
8
BLACK
6
CONTINUOUS
10
2.0706
20
1.53693
11
2.07147
21
1.53721
0
LINE
8
BLACK
6
CONTINUOUS
10
2.07147
20
1.53721
11
2.07897
21
1.53721
0
LINE
8
BLACK
6
CONTINUOUS
10
2.07897
20
1.53721
11
2.07983
21
1.53693
0
LINE
8
BLACK
6
CONTINUOUS
10
2.0724
20
1.52934
11
2.0663
21
1.52629
0
LINE
8
BLACK
6
CONTINUOUS
10
2.0663
20
1.52629
11
2.06345
21
1.52345
0
LINE
8
BLACK
6
CONTINUOUS
10
2.06345
20
1.52345
11
2.06018
21
1.5169
0
LINE
8
BLACK
6
CONTINUOUS
10
2.06018
20
1.5169
11
2.05666
21
1.5028
0
LINE
8
BLACK
6
CONTINUOUS
10
2.05666
20
1.5028
11
2.05666
21
1.48502
0
LINE
8
BLACK
6
CONTINUOUS
10
2.05666
20
1.48502
11
2.06018
21
1.47091
0
LINE
8
BLACK
6
CONTINUOUS
10
2.06018
20
1.47091
11
2.06345
21
1.46437
0
LINE
8
BLACK
6
CONTINUOUS
10
2.06345
20
1.46437
11
2.0663
21
1.46152
0
LINE
8
BLACK
6
CONTINUOUS
10
2.0663
20
1.46152
11
2.0724
21
1.45847
0
LINE
8
BLACK
6
CONTINUOUS
10
2.0724
20
1.45847
11
2.07804
21
1.45847
0
LINE
8
BLACK
6
CONTINUOUS
10
2.07804
20
1.45847
11
2.08413
21
1.46152
0
LINE
8
BLACK
6
CONTINUOUS
10
2.08413
20
1.46152
11
2.08698
21
1.46437
0
LINE
8
BLACK
6
CONTINUOUS
10
2.08698
20
1.46437
11
2.09025
21
1.47091
0
LINE
8
BLACK
6
CONTINUOUS
10
2.09025
20
1.47091
11
2.09378
21
1.48502
0
LINE
8
BLACK
6
CONTINUOUS
10
2.09378
20
1.48502
11
2.09378
21
1.5028
0
LINE
8
BLACK
6
CONTINUOUS
10
2.09378
20
1.5028
11
2.09025
21
1.5169
0
LINE
8
BLACK
6
CONTINUOUS
10
2.09025
20
1.5169
11
2.08698
21
1.52345
0
LINE
8
BLACK
6
CONTINUOUS
10
2.08698
20
1.52345
11
2.08413
21
1.52629
0
LINE
8
BLACK
6
CONTINUOUS
10
2.08413
20
1.52629
11
2.07804
21
1.52934
0
LINE
8
BLACK
6
CONTINUOUS
10
2.07804
20
1.52934
11
2.0724
21
1.52934
0
LINE
8
BLACK
6
CONTINUOUS
10
2.00484
20
1.53693
11
2.00574
21
1.5368
0
LINE
8
BLACK
6
CONTINUOUS
10
2.00574
20
1.5368
11
2.01323
21
1.53305
0
LINE
8
BLACK
6
CONTINUOUS
10
2.01323
20
1.53305
11
2.01369
21
1.5326
0
LINE
8
BLACK
6
CONTINUOUS
10
2.01369
20
1.5326
11
2.01426
21
1.53231
0
LINE
8
BLACK
6
CONTINUOUS
10
2.01426
20
1.53231
11
2.01801
21
1.52856
0
LINE
8
BLACK
6
CONTINUOUS
10
2.01801
20
1.52856
11
2.0183
21
1.52799
0
LINE
8
BLACK
6
CONTINUOUS
10
2.0183
20
1.52799
11
2.01874
21
1.52754
0
LINE
8
BLACK
6
CONTINUOUS
10
2.01874
20
1.52754
11
2.02249
21
1.52004
0
LINE
8
BLACK
6
CONTINUOUS
10
2.02249
20
1.52004
11
2.02263
21
1.51914
0
LINE
8
BLACK
6
CONTINUOUS
10
2.02263
20
1.51914
11
2.02291
21
1.51828
0
LINE
8
BLACK
6
CONTINUOUS
10
2.02291
20
1.51828
11
2.02291
21
1.51078
0
LINE
8
BLACK
6
CONTINUOUS
10
2.02291
20
1.51078
11
2.02263
21
1.50992
0
LINE
8
BLACK
6
CONTINUOUS
10
2.02263
20
1.50992
11
2.02249
21
1.50902
0
LINE
8
BLACK
6
CONTINUOUS
10
2.02249
20
1.50902
11
2.01874
21
1.50152
0
LINE
8
BLACK
6
CONTINUOUS
10
2.01874
20
1.50152
11
2.0183
21
1.50107
0
LINE
8
BLACK
6
CONTINUOUS
10
2.0183
20
1.50107
11
2.01801
21
1.5005
0
LINE
8
BLACK
6
CONTINUOUS
10
2.01801
20
1.5005
11
2.01426
21
1.49675
0
LINE
8
BLACK
6
CONTINUOUS
10
2.01426
20
1.49675
11
2.01397
21
1.4966
0
LINE
8
BLACK
6
CONTINUOUS
10
2.01397
20
1.4966
11
2.01647
21
1.49577
0
LINE
8
BLACK
6
CONTINUOUS
10
2.01647
20
1.49577
11
2.0172
21
1.49523
0
LINE
8
BLACK
6
CONTINUOUS
10
2.0172
20
1.49523
11
2.01801
21
1.49482
0
LINE
8
BLACK
6
CONTINUOUS
10
2.01801
20
1.49482
11
2.02176
21
1.49107
0
LINE
8
BLACK
6
CONTINUOUS
10
2.02176
20
1.49107
11
2.02205
21
1.4905
0
LINE
8
BLACK
6
CONTINUOUS
10
2.02205
20
1.4905
11
2.02249
21
1.49004
0
LINE
8
BLACK
6
CONTINUOUS
10
2.02249
20
1.49004
11
2.02624
21
1.48254
0
LINE
8
BLACK
6
CONTINUOUS
10
2.02624
20
1.48254
11
2.02638
21
1.48165
0
LINE
8
BLACK
6
CONTINUOUS
10
2.02638
20
1.48165
11
2.02666
21
1.48078
0
LINE
8
BLACK
6
CONTINUOUS
10
2.02666
20
1.48078
11
2.02666
21
1.46954
0
LINE
8
BLACK
6
CONTINUOUS
10
2.02666
20
1.46954
11
2.02638
21
1.46867
0
LINE
8
BLACK
6
CONTINUOUS
10
2.02638
20
1.46867
11
2.02624
21
1.46777
0
LINE
8
BLACK
6
CONTINUOUS
10
2.02624
20
1.46777
11
2.02249
21
1.46028
0
LINE
8
BLACK
6
CONTINUOUS
10
2.02249
20
1.46028
11
2.02205
21
1.45982
0
LINE
8
BLACK
6
CONTINUOUS
10
2.02205
20
1.45982
11
2.02176
21
1.45925
0
LINE
8
BLACK
6
CONTINUOUS
10
2.02176
20
1.45925
11
2.01801
21
1.4555
0
LINE
8
BLACK
6
CONTINUOUS
10
2.01801
20
1.4555
11
2.01744
21
1.45521
0
LINE
8
BLACK
6
CONTINUOUS
10
2.01744
20
1.45521
11
2.01698
21
1.45477
0
LINE
8
BLACK
6
CONTINUOUS
10
2.01698
20
1.45477
11
2.00948
21
1.45102
0
LINE
8
BLACK
6
CONTINUOUS
10
2.00948
20
1.45102
11
2.00859
21
1.45088
0
LINE
8
BLACK
6
CONTINUOUS
10
2.00859
20
1.45088
11
2.00772
21
1.4506
0
LINE
8
BLACK
6
CONTINUOUS
10
2.00772
20
1.4506
11
1.97773
21
1.4506
0
LINE
8
BLACK
6
CONTINUOUS
10
1.97773
20
1.4506
11
1.97713
21
1.45079
0
LINE
8
BLACK
6
CONTINUOUS
10
1.97713
20
1.45079
11
1.97651
21
1.45079
0
LINE
8
BLACK
6
CONTINUOUS
10
1.97651
20
1.45079
11
1.97601
21
1.45116
0
LINE
8
BLACK
6
CONTINUOUS
10
1.97601
20
1.45116
11
1.97541
21
1.45135
0
LINE
8
BLACK
6
CONTINUOUS
10
1.97541
20
1.45135
11
1.97505
21
1.45186
0
LINE
8
BLACK
6
CONTINUOUS
10
1.97505
20
1.45186
11
1.97454
21
1.45222
0
LINE
8
BLACK
6
CONTINUOUS
10
1.97454
20
1.45222
11
1.97435
21
1.45282
0
LINE
8
BLACK
6
CONTINUOUS
10
1.97435
20
1.45282
11
1.97398
21
1.45332
0
LINE
8
BLACK
6
CONTINUOUS
10
1.97398
20
1.45332
11
1.97398
21
1.45394
0
LINE
8
BLACK
6
CONTINUOUS
10
1.97398
20
1.45394
11
1.97379
21
1.45454
0
LINE
8
BLACK
6
CONTINUOUS
10
1.97379
20
1.45454
11
1.97379
21
1.53328
0
LINE
8
BLACK
6
CONTINUOUS
10
1.97379
20
1.53328
11
1.97398
21
1.53387
0
LINE
8
BLACK
6
CONTINUOUS
10
1.97398
20
1.53387
11
1.97398
21
1.53449
0
LINE
8
BLACK
6
CONTINUOUS
10
1.97398
20
1.53449
11
1.97435
21
1.535
0
LINE
8
BLACK
6
CONTINUOUS
10
1.97435
20
1.535
11
1.97454
21
1.53559
0
LINE
8
BLACK
6
CONTINUOUS
10
1.97454
20
1.53559
11
1.97505
21
1.53596
0
LINE
8
BLACK
6
CONTINUOUS
10
1.97505
20
1.53596
11
1.97541
21
1.53646
0
LINE
8
BLACK
6
CONTINUOUS
10
1.97541
20
1.53646
11
1.97601
21
1.53665
0
LINE
8
BLACK
6
CONTINUOUS
10
1.97601
20
1.53665
11
1.97651
21
1.53702
0
LINE
8
BLACK
6
CONTINUOUS
10
1.97651
20
1.53702
11
1.97713
21
1.53702
0
LINE
8
BLACK
6
CONTINUOUS
10
1.97713
20
1.53702
11
1.97773
21
1.53721
0
LINE
8
BLACK
6
CONTINUOUS
10
1.97773
20
1.53721
11
2.00397
21
1.53721
0
LINE
8
BLACK
6
CONTINUOUS
10
2.00397
20
1.53721
11
2.00484
21
1.53693
0
LINE
8
BLACK
6
CONTINUOUS
10
1.98166
20
1.49184
11
1.98166
21
1.45847
0
LINE
8
BLACK
6
CONTINUOUS
10
1.98166
20
1.45847
11
2.00679
21
1.45847
0
LINE
8
BLACK
6
CONTINUOUS
10
2.00679
20
1.45847
11
2.01289
21
1.46152
0
LINE
8
BLACK
6
CONTINUOUS
10
2.01289
20
1.46152
11
2.01574
21
1.46437
0
LINE
8
BLACK
6
CONTINUOUS
10
2.01574
20
1.46437
11
2.01879
21
1.47046
0
LINE
8
BLACK
6
CONTINUOUS
10
2.01879
20
1.47046
11
2.01879
21
1.47985
0
LINE
8
BLACK
6
CONTINUOUS
10
2.01879
20
1.47985
11
2.01574
21
1.48595
0
LINE
8
BLACK
6
CONTINUOUS
10
2.01574
20
1.48595
11
2.0131
21
1.48859
0
LINE
8
BLACK
6
CONTINUOUS
10
2.0131
20
1.48859
11
2.00334
21
1.49184
0
LINE
8
BLACK
6
CONTINUOUS
10
2.00334
20
1.49184
11
1.98166
21
1.49184
0
LINE
8
BLACK
6
CONTINUOUS
10
1.98166
20
1.52934
11
1.98166
21
1.49972
0
LINE
8
BLACK
6
CONTINUOUS
10
1.98166
20
1.49972
11
2.00305
21
1.49972
0
LINE
8
BLACK
6
CONTINUOUS
10
2.00305
20
1.49972
11
2.00914
21
1.50277
0
LINE
8
BLACK
6
CONTINUOUS
10
2.00914
20
1.50277
11
2.01199
21
1.50561
0
LINE
8
BLACK
6
CONTINUOUS
10
2.01199
20
1.50561
11
2.01504
21
1.51171
0
LINE
8
BLACK
6
CONTINUOUS
10
2.01504
20
1.51171
11
2.01504
21
1.51735
0
LINE
8
BLACK
6
CONTINUOUS
10
2.01504
20
1.51735
11
2.01199
21
1.52345
0
LINE
8
BLACK
6
CONTINUOUS
10
2.01199
20
1.52345
11
2.00914
21
1.52629
0
LINE
8
BLACK
6
CONTINUOUS
10
2.00914
20
1.52629
11
2.00305
21
1.52934
0
LINE
8
BLACK
6
CONTINUOUS
10
2.00305
20
1.52934
11
1.98166
21
1.52934
0
LINE
8
BLACK
6
CONTINUOUS
10
2.23356
20
1.53693
11
2.23446
21
1.5368
0
LINE
8
BLACK
6
CONTINUOUS
10
2.23446
20
1.5368
11
2.24196
21
1.53305
0
LINE
8
BLACK
6
CONTINUOUS
10
2.24196
20
1.53305
11
2.24241
21
1.5326
0
LINE
8
BLACK
6
CONTINUOUS
10
2.24241
20
1.5326
11
2.24298
21
1.53231
0
LINE
8
BLACK
6
CONTINUOUS
10
2.24298
20
1.53231
11
2.24673
21
1.52856
0
LINE
8
BLACK
6
CONTINUOUS
10
2.24673
20
1.52856
11
2.24702
21
1.52799
0
LINE
8
BLACK
6
CONTINUOUS
10
2.24702
20
1.52799
11
2.24747
21
1.52754
0
LINE
8
BLACK
6
CONTINUOUS
10
2.24747
20
1.52754
11
2.25122
21
1.52004
0
LINE
8
BLACK
6
CONTINUOUS
10
2.25122
20
1.52004
11
2.25135
21
1.51914
0
LINE
8
BLACK
6
CONTINUOUS
10
2.25135
20
1.51914
11
2.25163
21
1.51828
0
LINE
8
BLACK
6
CONTINUOUS
10
2.25163
20
1.51828
11
2.25163
21
1.51078
0
LINE
8
BLACK
6
CONTINUOUS
10
2.25163
20
1.51078
11
2.25135
21
1.50992
0
LINE
8
BLACK
6
CONTINUOUS
10
2.25135
20
1.50992
11
2.25122
21
1.50902
0
LINE
8
BLACK
6
CONTINUOUS
10
2.25122
20
1.50902
11
2.24747
21
1.50152
0
LINE
8
BLACK
6
CONTINUOUS
10
2.24747
20
1.50152
11
2.24702
21
1.50107
0
LINE
8
BLACK
6
CONTINUOUS
10
2.24702
20
1.50107
11
2.24673
21
1.5005
0
LINE
8
BLACK
6
CONTINUOUS
10
2.24673
20
1.5005
11
2.24298
21
1.49675
0
LINE
8
BLACK
6
CONTINUOUS
10
2.24298
20
1.49675
11
2.24269
21
1.4966
0
LINE
8
BLACK
6
CONTINUOUS
10
2.24269
20
1.4966
11
2.24519
21
1.49577
0
LINE
8
BLACK
6
CONTINUOUS
10
2.24519
20
1.49577
11
2.24592
21
1.49523
0
LINE
8
BLACK
6
CONTINUOUS
10
2.24592
20
1.49523
11
2.24673
21
1.49482
0
LINE
8
BLACK
6
CONTINUOUS
10
2.24673
20
1.49482
11
2.25048
21
1.49107
0
LINE
8
BLACK
6
CONTINUOUS
10
2.25048
20
1.49107
11
2.25077
21
1.4905
0
LINE
8
BLACK
6
CONTINUOUS
10
2.25077
20
1.4905
11
2.25122
21
1.49004
0
LINE
8
BLACK
6
CONTINUOUS
10
2.25122
20
1.49004
11
2.25496
21
1.48254
0
LINE
8
BLACK
6
CONTINUOUS
10
2.25496
20
1.48254
11
2.2551
21
1.48165
0
LINE
8
BLACK
6
CONTINUOUS
10
2.2551
20
1.48165
11
2.25538
21
1.48078
0
LINE
8
BLACK
6
CONTINUOUS
10
2.25538
20
1.48078
11
2.25538
21
1.46954
0
LINE
8
BLACK
6
CONTINUOUS
10
2.25538
20
1.46954
11
2.2551
21
1.46867
0
LINE
8
BLACK
6
CONTINUOUS
10
2.2551
20
1.46867
11
2.25496
21
1.46777
0
LINE
8
BLACK
6
CONTINUOUS
10
2.25496
20
1.46777
11
2.25122
21
1.46028
0
LINE
8
BLACK
6
CONTINUOUS
10
2.25122
20
1.46028
11
2.25077
21
1.45982
0
LINE
8
BLACK
6
CONTINUOUS
10
2.25077
20
1.45982
11
2.25048
21
1.45925
0
LINE
8
BLACK
6
CONTINUOUS
10
2.25048
20
1.45925
11
2.24673
21
1.4555
0
LINE
8
BLACK
6
CONTINUOUS
10
2.24673
20
1.4555
11
2.24616
21
1.45521
0
LINE
8
BLACK
6
CONTINUOUS
10
2.24616
20
1.45521
11
2.24571
21
1.45477
0
LINE
8
BLACK
6
CONTINUOUS
10
2.24571
20
1.45477
11
2.23821
21
1.45102
0
LINE
8
BLACK
6
CONTINUOUS
10
2.23821
20
1.45102
11
2.23731
21
1.45088
0
LINE
8
BLACK
6
CONTINUOUS
10
2.23731
20
1.45088
11
2.23645
21
1.4506
0
LINE
8
BLACK
6
CONTINUOUS
10
2.23645
20
1.4506
11
2.20645
21
1.4506
0
LINE
8
BLACK
6
CONTINUOUS
10
2.20645
20
1.4506
11
2.20586
21
1.45079
0
LINE
8
BLACK
6
CONTINUOUS
10
2.20586
20
1.45079
11
2.20523
21
1.45079
0
LINE
8
BLACK
6
CONTINUOUS
10
2.20523
20
1.45079
11
2.20473
21
1.45116
0
LINE
8
BLACK
6
CONTINUOUS
10
2.20473
20
1.45116
11
2.20414
21
1.45135
0
LINE
8
BLACK
6
CONTINUOUS
10
2.20414
20
1.45135
11
2.20377
21
1.45186
0
LINE
8
BLACK
6
CONTINUOUS
10
2.20377
20
1.45186
11
2.20326
21
1.45222
0
LINE
8
BLACK
6
CONTINUOUS
10
2.20326
20
1.45222
11
2.20307
21
1.45282
0
LINE
8
BLACK
6
CONTINUOUS
10
2.20307
20
1.45282
11
2.2027
21
1.45332
0
LINE
8
BLACK
6
CONTINUOUS
10
2.2027
20
1.45332
11
2.2027
21
1.45394
0
LINE
8
BLACK
6
CONTINUOUS
10
2.2027
20
1.45394
11
2.20251
21
1.45454
0
LINE
8
BLACK
6
CONTINUOUS
10
2.20251
20
1.45454
11
2.20251
21
1.53328
0
LINE
8
BLACK
6
CONTINUOUS
10
2.20251
20
1.53328
11
2.2027
21
1.53387
0
LINE
8
BLACK
6
CONTINUOUS
10
2.2027
20
1.53387
11
2.2027
21
1.53449
0
LINE
8
BLACK
6
CONTINUOUS
10
2.2027
20
1.53449
11
2.20307
21
1.535
0
LINE
8
BLACK
6
CONTINUOUS
10
2.20307
20
1.535
11
2.20326
21
1.53559
0
LINE
8
BLACK
6
CONTINUOUS
10
2.20326
20
1.53559
11
2.20377
21
1.53596
0
LINE
8
BLACK
6
CONTINUOUS
10
2.20377
20
1.53596
11
2.20414
21
1.53646
0
LINE
8
BLACK
6
CONTINUOUS
10
2.20414
20
1.53646
11
2.20473
21
1.53665
0
LINE
8
BLACK
6
CONTINUOUS
10
2.20473
20
1.53665
11
2.20523
21
1.53702
0
LINE
8
BLACK
6
CONTINUOUS
10
2.20523
20
1.53702
11
2.20586
21
1.53702
0
LINE
8
BLACK
6
CONTINUOUS
10
2.20586
20
1.53702
11
2.20645
21
1.53721
0
LINE
8
BLACK
6
CONTINUOUS
10
2.20645
20
1.53721
11
2.2327
21
1.53721
0
LINE
8
BLACK
6
CONTINUOUS
10
2.2327
20
1.53721
11
2.23356
21
1.53693
0
LINE
8
BLACK
6
CONTINUOUS
10
2.21039
20
1.49184
11
2.21039
21
1.45847
0
LINE
8
BLACK
6
CONTINUOUS
10
2.21039
20
1.45847
11
2.23552
21
1.45847
0
LINE
8
BLACK
6
CONTINUOUS
10
2.23552
20
1.45847
11
2.24161
21
1.46152
0
LINE
8
BLACK
6
CONTINUOUS
10
2.24161
20
1.46152
11
2.24446
21
1.46437
0
LINE
8
BLACK
6
CONTINUOUS
10
2.24446
20
1.46437
11
2.24751
21
1.47046
0
LINE
8
BLACK
6
CONTINUOUS
10
2.24751
20
1.47046
11
2.24751
21
1.47985
0
LINE
8
BLACK
6
CONTINUOUS
10
2.24751
20
1.47985
11
2.24446
21
1.48595
0
LINE
8
BLACK
6
CONTINUOUS
10
2.24446
20
1.48595
11
2.24182
21
1.48859
0
LINE
8
BLACK
6
CONTINUOUS
10
2.24182
20
1.48859
11
2.23206
21
1.49184
0
LINE
8
BLACK
6
CONTINUOUS
10
2.23206
20
1.49184
11
2.21039
21
1.49184
0
LINE
8
BLACK
6
CONTINUOUS
10
2.21039
20
1.52934
11
2.21039
21
1.49972
0
LINE
8
BLACK
6
CONTINUOUS
10
2.21039
20
1.49972
11
2.23177
21
1.49972
0
LINE
8
BLACK
6
CONTINUOUS
10
2.23177
20
1.49972
11
2.23786
21
1.50277
0
LINE
8
BLACK
6
CONTINUOUS
10
2.23786
20
1.50277
11
2.24071
21
1.50561
0
LINE
8
BLACK
6
CONTINUOUS
10
2.24071
20
1.50561
11
2.24376
21
1.51171
0
LINE
8
BLACK
6
CONTINUOUS
10
2.24376
20
1.51171
11
2.24376
21
1.51735
0
LINE
8
BLACK
6
CONTINUOUS
10
2.24376
20
1.51735
11
2.24071
21
1.52345
0
LINE
8
BLACK
6
CONTINUOUS
10
2.24071
20
1.52345
11
2.23786
21
1.52629
0
LINE
8
BLACK
6
CONTINUOUS
10
2.23786
20
1.52629
11
2.23177
21
1.52934
0
LINE
8
BLACK
6
CONTINUOUS
10
2.23177
20
1.52934
11
2.21039
21
1.52934
0
LINE
8
BLACK
6
CONTINUOUS
10
1.78358
20
1.53702
11
1.78397
21
1.53702
0
LINE
8
BLACK
6
CONTINUOUS
10
1.78397
20
1.53702
11
1.78466
21
1.53652
0
LINE
8
BLACK
6
CONTINUOUS
10
1.78466
20
1.53652
11
1.78544
21
1.53616
0
LINE
8
BLACK
6
CONTINUOUS
10
1.78544
20
1.53616
11
1.78563
21
1.53582
0
LINE
8
BLACK
6
CONTINUOUS
10
1.78563
20
1.53582
11
1.78594
21
1.53559
0
LINE
8
BLACK
6
CONTINUOUS
10
1.78594
20
1.53559
11
1.7862
21
1.53478
0
LINE
8
BLACK
6
CONTINUOUS
10
1.7862
20
1.53478
11
1.78662
21
1.53403
0
LINE
8
BLACK
6
CONTINUOUS
10
1.78662
20
1.53403
11
1.78657
21
1.53364
0
LINE
8
BLACK
6
CONTINUOUS
10
1.78657
20
1.53364
11
1.78669
21
1.53328
0
LINE
8
BLACK
6
CONTINUOUS
10
1.78669
20
1.53328
11
1.78669
21
1.45454
0
LINE
8
BLACK
6
CONTINUOUS
10
1.78669
20
1.45454
11
1.78594
21
1.45222
0
LINE
8
BLACK
6
CONTINUOUS
10
1.78594
20
1.45222
11
1.78397
21
1.45079
0
LINE
8
BLACK
6
CONTINUOUS
10
1.78397
20
1.45079
11
1.78154
21
1.45079
0
LINE
8
BLACK
6
CONTINUOUS
10
1.78154
20
1.45079
11
1.77957
21
1.45222
0
LINE
8
BLACK
6
CONTINUOUS
10
1.77957
20
1.45222
11
1.77882
21
1.45454
0
LINE
8
BLACK
6
CONTINUOUS
10
1.77882
20
1.45454
11
1.77882
21
1.51553
0
LINE
8
BLACK
6
CONTINUOUS
10
1.77882
20
1.51553
11
1.76007
21
1.47537
0
LINE
8
BLACK
6
CONTINUOUS
10
1.76007
20
1.47537
11
1.75956
21
1.47482
0
LINE
8
BLACK
6
CONTINUOUS
10
1.75956
20
1.47482
11
1.75919
21
1.47416
0
LINE
8
BLACK
6
CONTINUOUS
10
1.75919
20
1.47416
11
1.75875
21
1.47395
0
LINE
8
BLACK
6
CONTINUOUS
10
1.75875
20
1.47395
11
1.75841
21
1.47359
0
LINE
8
BLACK
6
CONTINUOUS
10
1.75841
20
1.47359
11
1.75767
21
1.47345
0
LINE
8
BLACK
6
CONTINUOUS
10
1.75767
20
1.47345
11
1.75699
21
1.47313
0
LINE
8
BLACK
6
CONTINUOUS
10
1.75699
20
1.47313
11
1.75651
21
1.47322
0
LINE
8
BLACK
6
CONTINUOUS
10
1.75651
20
1.47322
11
1.75602
21
1.47313
0
LINE
8
BLACK
6
CONTINUOUS
10
1.75602
20
1.47313
11
1.75534
21
1.47345
0
LINE
8
BLACK
6
CONTINUOUS
10
1.75534
20
1.47345
11
1.7546
21
1.47359
0
LINE
8
BLACK
6
CONTINUOUS
10
1.7546
20
1.47359
11
1.75426
21
1.47395
0
LINE
8
BLACK
6
CONTINUOUS
10
1.75426
20
1.47395
11
1.75382
21
1.47416
0
LINE
8
BLACK
6
CONTINUOUS
10
1.75382
20
1.47416
11
1.75345
21
1.47482
0
LINE
8
BLACK
6
CONTINUOUS
10
1.75345
20
1.47482
11
1.75294
21
1.47537
0
LINE
8
BLACK
6
CONTINUOUS
10
1.75294
20
1.47537
11
1.7342
21
1.51553
0
LINE
8
BLACK
6
CONTINUOUS
10
1.7342
20
1.51553
11
1.7342
21
1.45454
0
LINE
8
BLACK
6
CONTINUOUS
10
1.7342
20
1.45454
11
1.73344
21
1.45222
0
LINE
8
BLACK
6
CONTINUOUS
10
1.73344
20
1.45222
11
1.73148
21
1.45079
0
LINE
8
BLACK
6
CONTINUOUS
10
1.73148
20
1.45079
11
1.72904
21
1.45079
0
LINE
8
BLACK
6
CONTINUOUS
10
1.72904
20
1.45079
11
1.72707
21
1.45222
0
LINE
8
BLACK
6
CONTINUOUS
10
1.72707
20
1.45222
11
1.72632
21
1.45454
0
LINE
8
BLACK
6
CONTINUOUS
10
1.72632
20
1.45454
11
1.72632
21
1.53328
0
LINE
8
BLACK
6
CONTINUOUS
10
1.72632
20
1.53328
11
1.72644
21
1.53364
0
LINE
8
BLACK
6
CONTINUOUS
10
1.72644
20
1.53364
11
1.72639
21
1.53403
0
LINE
8
BLACK
6
CONTINUOUS
10
1.72639
20
1.53403
11
1.72681
21
1.53478
0
LINE
8
BLACK
6
CONTINUOUS
10
1.72681
20
1.53478
11
1.72707
21
1.53559
0
LINE
8
BLACK
6
CONTINUOUS
10
1.72707
20
1.53559
11
1.72739
21
1.53582
0
LINE
8
BLACK
6
CONTINUOUS
10
1.72739
20
1.53582
11
1.72757
21
1.53616
0
LINE
8
BLACK
6
CONTINUOUS
10
1.72757
20
1.53616
11
1.72835
21
1.53652
0
LINE
8
BLACK
6
CONTINUOUS
10
1.72835
20
1.53652
11
1.72904
21
1.53702
0
LINE
8
BLACK
6
CONTINUOUS
10
1.72904
20
1.53702
11
1.72943
21
1.53702
0
LINE
8
BLACK
6
CONTINUOUS
10
1.72943
20
1.53702
11
1.72978
21
1.53718
0
LINE
8
BLACK
6
CONTINUOUS
10
1.72978
20
1.53718
11
1.73062
21
1.53702
0
LINE
8
BLACK
6
CONTINUOUS
10
1.73062
20
1.53702
11
1.73148
21
1.53702
0
LINE
8
BLACK
6
CONTINUOUS
10
1.73148
20
1.53702
11
1.73179
21
1.53679
0
LINE
8
BLACK
6
CONTINUOUS
10
1.73179
20
1.53679
11
1.73217
21
1.53672
0
LINE
8
BLACK
6
CONTINUOUS
10
1.73217
20
1.53672
11
1.73275
21
1.53609
0
LINE
8
BLACK
6
CONTINUOUS
10
1.73275
20
1.53609
11
1.73344
21
1.53559
0
LINE
8
BLACK
6
CONTINUOUS
10
1.73344
20
1.53559
11
1.73356
21
1.53522
0
LINE
8
BLACK
6
CONTINUOUS
10
1.73356
20
1.53522
11
1.73383
21
1.53494
0
LINE
8
BLACK
6
CONTINUOUS
10
1.73383
20
1.53494
11
1.75651
21
1.48634
0
LINE
8
BLACK
6
CONTINUOUS
10
1.75651
20
1.48634
11
1.77918
21
1.53494
0
LINE
8
BLACK
6
CONTINUOUS
10
1.77918
20
1.53494
11
1.77945
21
1.53522
0
LINE
8
BLACK
6
CONTINUOUS
10
1.77945
20
1.53522
11
1.77957
21
1.53559
0
LINE
8
BLACK
6
CONTINUOUS
10
1.77957
20
1.53559
11
1.78026
21
1.53609
0
LINE
8
BLACK
6
CONTINUOUS
10
1.78026
20
1.53609
11
1.78084
21
1.53672
0
LINE
8
BLACK
6
CONTINUOUS
10
1.78084
20
1.53672
11
1.78122
21
1.53679
0
LINE
8
BLACK
6
CONTINUOUS
10
1.78122
20
1.53679
11
1.78154
21
1.53702
0
LINE
8
BLACK
6
CONTINUOUS
10
1.78154
20
1.53702
11
1.78239
21
1.53702
0
LINE
8
BLACK
6
CONTINUOUS
10
1.78239
20
1.53702
11
1.78323
21
1.53718
0
LINE
8
BLACK
6
CONTINUOUS
10
1.78323
20
1.53718
11
1.78358
21
1.53702
0
LINE
8
BLACK
6
CONTINUOUS
10
1.85111
20
1.53693
11
1.852
21
1.5368
0
LINE
8
BLACK
6
CONTINUOUS
10
1.852
20
1.5368
11
1.8595
21
1.53305
0
LINE
8
BLACK
6
CONTINUOUS
10
1.8595
20
1.53305
11
1.85996
21
1.5326
0
LINE
8
BLACK
6
CONTINUOUS
10
1.85996
20
1.5326
11
1.86053
21
1.53231
0
LINE
8
BLACK
6
CONTINUOUS
10
1.86053
20
1.53231
11
1.86428
21
1.52856
0
LINE
8
BLACK
6
CONTINUOUS
10
1.86428
20
1.52856
11
1.86457
21
1.52799
0
LINE
8
BLACK
6
CONTINUOUS
10
1.86457
20
1.52799
11
1.86501
21
1.52754
0
LINE
8
BLACK
6
CONTINUOUS
10
1.86501
20
1.52754
11
1.86876
21
1.52004
0
LINE
8
BLACK
6
CONTINUOUS
10
1.86876
20
1.52004
11
1.8689
21
1.51914
0
LINE
8
BLACK
6
CONTINUOUS
10
1.8689
20
1.51914
11
1.86918
21
1.51828
0
LINE
8
BLACK
6
CONTINUOUS
10
1.86918
20
1.51828
11
1.86918
21
1.50703
0
LINE
8
BLACK
6
CONTINUOUS
10
1.86918
20
1.50703
11
1.8689
21
1.50617
0
LINE
8
BLACK
6
CONTINUOUS
10
1.8689
20
1.50617
11
1.86876
21
1.50527
0
LINE
8
BLACK
6
CONTINUOUS
10
1.86876
20
1.50527
11
1.86501
21
1.49777
0
LINE
8
BLACK
6
CONTINUOUS
10
1.86501
20
1.49777
11
1.86457
21
1.49732
0
LINE
8
BLACK
6
CONTINUOUS
10
1.86457
20
1.49732
11
1.86428
21
1.49675
0
LINE
8
BLACK
6
CONTINUOUS
10
1.86428
20
1.49675
11
1.86053
21
1.493
0
LINE
8
BLACK
6
CONTINUOUS
10
1.86053
20
1.493
11
1.85996
21
1.49271
0
LINE
8
BLACK
6
CONTINUOUS
10
1.85996
20
1.49271
11
1.8595
21
1.49226
0
LINE
8
BLACK
6
CONTINUOUS
10
1.8595
20
1.49226
11
1.852
21
1.48851
0
LINE
8
BLACK
6
CONTINUOUS
10
1.852
20
1.48851
11
1.85111
21
1.48838
0
LINE
8
BLACK
6
CONTINUOUS
10
1.85111
20
1.48838
11
1.85024
21
1.4881
0
LINE
8
BLACK
6
CONTINUOUS
10
1.85024
20
1.4881
11
1.82418
21
1.4881
0
LINE
8
BLACK
6
CONTINUOUS
10
1.82418
20
1.4881
11
1.82418
21
1.45454
0
LINE
8
BLACK
6
CONTINUOUS
10
1.82418
20
1.45454
11
1.82343
21
1.45222
0
LINE
8
BLACK
6
CONTINUOUS
10
1.82343
20
1.45222
11
1.82146
21
1.45079
0
LINE
8
BLACK
6
CONTINUOUS
10
1.82146
20
1.45079
11
1.81903
21
1.45079
0
LINE
8
BLACK
6
CONTINUOUS
10
1.81903
20
1.45079
11
1.81706
21
1.45222
0
LINE
8
BLACK
6
CONTINUOUS
10
1.81706
20
1.45222
11
1.81631
21
1.45454
0
LINE
8
BLACK
6
CONTINUOUS
10
1.81631
20
1.45454
11
1.81631
21
1.53328
0
LINE
8
BLACK
6
CONTINUOUS
10
1.81631
20
1.53328
11
1.8165
21
1.53387
0
LINE
8
BLACK
6
CONTINUOUS
10
1.8165
20
1.53387
11
1.8165
21
1.53449
0
LINE
8
BLACK
6
CONTINUOUS
10
1.8165
20
1.53449
11
1.81687
21
1.535
0
LINE
8
BLACK
6
CONTINUOUS
10
1.81687
20
1.535
11
1.81706
21
1.53559
0
LINE
8
BLACK
6
CONTINUOUS
10
1.81706
20
1.53559
11
1.81757
21
1.53596
0
LINE
8
BLACK
6
CONTINUOUS
10
1.81757
20
1.53596
11
1.81793
21
1.53646
0
LINE
8
BLACK
6
CONTINUOUS
10
1.81793
20
1.53646
11
1.81853
21
1.53665
0
LINE
8
BLACK
6
CONTINUOUS
10
1.81853
20
1.53665
11
1.81903
21
1.53702
0
LINE
8
BLACK
6
CONTINUOUS
10
1.81903
20
1.53702
11
1.81965
21
1.53702
0
LINE
8
BLACK
6
CONTINUOUS
10
1.81965
20
1.53702
11
1.82025
21
1.53721
0
LINE
8
BLACK
6
CONTINUOUS
10
1.82025
20
1.53721
11
1.85024
21
1.53721
0
LINE
8
BLACK
6
CONTINUOUS
10
1.85024
20
1.53721
11
1.85111
21
1.53693
0
LINE
8
BLACK
6
CONTINUOUS
10
1.82418
20
1.52934
11
1.82418
21
1.49597
0
LINE
8
BLACK
6
CONTINUOUS
10
1.82418
20
1.49597
11
1.84931
21
1.49597
0
LINE
8
BLACK
6
CONTINUOUS
10
1.84931
20
1.49597
11
1.85541
21
1.49902
0
LINE
8
BLACK
6
CONTINUOUS
10
1.85541
20
1.49902
11
1.85826
21
1.50186
0
LINE
8
BLACK
6
CONTINUOUS
10
1.85826
20
1.50186
11
1.8613
21
1.50796
0
LINE
8
BLACK
6
CONTINUOUS
10
1.8613
20
1.50796
11
1.8613
21
1.51735
0
LINE
8
BLACK
6
CONTINUOUS
10
1.8613
20
1.51735
11
1.85826
21
1.52345
0
LINE
8
BLACK
6
CONTINUOUS
10
1.85826
20
1.52345
11
1.85541
21
1.52629
0
LINE
8
BLACK
6
CONTINUOUS
10
1.85541
20
1.52629
11
1.84931
21
1.52934
0
LINE
8
BLACK
6
CONTINUOUS
10
1.84931
20
1.52934
11
1.82418
21
1.52934
0
LINE
8
BLACK
6
CONTINUOUS
10
1.92985
20
1.53693
11
1.93074
21
1.5368
0
LINE
8
BLACK
6
CONTINUOUS
10
1.93074
20
1.5368
11
1.93824
21
1.53305
0
LINE
8
BLACK
6
CONTINUOUS
10
1.93824
20
1.53305
11
1.9387
21
1.5326
0
LINE
8
BLACK
6
CONTINUOUS
10
1.9387
20
1.5326
11
1.93927
21
1.53231
0
LINE
8
BLACK
6
CONTINUOUS
10
1.93927
20
1.53231
11
1.94302
21
1.52856
0
LINE
8
BLACK
6
CONTINUOUS
10
1.94302
20
1.52856
11
1.94331
21
1.52799
0
LINE
8
BLACK
6
CONTINUOUS
10
1.94331
20
1.52799
11
1.94375
21
1.52754
0
LINE
8
BLACK
6
CONTINUOUS
10
1.94375
20
1.52754
11
1.9475
21
1.52004
0
LINE
8
BLACK
6
CONTINUOUS
10
1.9475
20
1.52004
11
1.94764
21
1.51914
0
LINE
8
BLACK
6
CONTINUOUS
10
1.94764
20
1.51914
11
1.94792
21
1.51828
0
LINE
8
BLACK
6
CONTINUOUS
10
1.94792
20
1.51828
11
1.94792
21
1.50703
0
LINE
8
BLACK
6
CONTINUOUS
10
1.94792
20
1.50703
11
1.94764
21
1.50617
0
LINE
8
BLACK
6
CONTINUOUS
10
1.94764
20
1.50617
11
1.9475
21
1.50527
0
LINE
8
BLACK
6
CONTINUOUS
10
1.9475
20
1.50527
11
1.94375
21
1.49777
0
LINE
8
BLACK
6
CONTINUOUS
10
1.94375
20
1.49777
11
1.94331
21
1.49732
0
LINE
8
BLACK
6
CONTINUOUS
10
1.94331
20
1.49732
11
1.94302
21
1.49675
0
LINE
8
BLACK
6
CONTINUOUS
10
1.94302
20
1.49675
11
1.93927
21
1.493
0
LINE
8
BLACK
6
CONTINUOUS
10
1.93927
20
1.493
11
1.9387
21
1.49271
0
LINE
8
BLACK
6
CONTINUOUS
10
1.9387
20
1.49271
11
1.93824
21
1.49226
0
LINE
8
BLACK
6
CONTINUOUS
10
1.93824
20
1.49226
11
1.93074
21
1.48851
0
LINE
8
BLACK
6
CONTINUOUS
10
1.93074
20
1.48851
11
1.92985
21
1.48838
0
LINE
8
BLACK
6
CONTINUOUS
10
1.92985
20
1.48838
11
1.92898
21
1.4881
0
LINE
8
BLACK
6
CONTINUOUS
10
1.92898
20
1.4881
11
1.90292
21
1.4881
0
LINE
8
BLACK
6
CONTINUOUS
10
1.90292
20
1.4881
11
1.90292
21
1.45454
0
LINE
8
BLACK
6
CONTINUOUS
10
1.90292
20
1.45454
11
1.90217
21
1.45222
0
LINE
8
BLACK
6
CONTINUOUS
10
1.90217
20
1.45222
11
1.9002
21
1.45079
0
LINE
8
BLACK
6
CONTINUOUS
10
1.9002
20
1.45079
11
1.89777
21
1.45079
0
LINE
8
BLACK
6
CONTINUOUS
10
1.89777
20
1.45079
11
1.8958
21
1.45222
0
LINE
8
BLACK
6
CONTINUOUS
10
1.8958
20
1.45222
11
1.89505
21
1.45454
0
LINE
8
BLACK
6
CONTINUOUS
10
1.89505
20
1.45454
11
1.89505
21
1.53328
0
LINE
8
BLACK
6
CONTINUOUS
10
1.89505
20
1.53328
11
1.89524
21
1.53387
0
LINE
8
BLACK
6
CONTINUOUS
10
1.89524
20
1.53387
11
1.89524
21
1.53449
0
LINE
8
BLACK
6
CONTINUOUS
10
1.89524
20
1.53449
11
1.89561
21
1.535
0
LINE
8
BLACK
6
CONTINUOUS
10
1.89561
20
1.535
11
1.8958
21
1.53559
0
LINE
8
BLACK
6
CONTINUOUS
10
1.8958
20
1.53559
11
1.89631
21
1.53596
0
LINE
8
BLACK
6
CONTINUOUS
10
1.89631
20
1.53596
11
1.89667
21
1.53646
0
LINE
8
BLACK
6
CONTINUOUS
10
1.89667
20
1.53646
11
1.89727
21
1.53665
0
LINE
8
BLACK
6
CONTINUOUS
10
1.89727
20
1.53665
11
1.89777
21
1.53702
0
LINE
8
BLACK
6
CONTINUOUS
10
1.89777
20
1.53702
11
1.89839
21
1.53702
0
LINE
8
BLACK
6
CONTINUOUS
10
1.89839
20
1.53702
11
1.89899
21
1.53721
0
LINE
8
BLACK
6
CONTINUOUS
10
1.89899
20
1.53721
11
1.92898
21
1.53721
0
LINE
8
BLACK
6
CONTINUOUS
10
1.92898
20
1.53721
11
1.92985
21
1.53693
0
LINE
8
BLACK
6
CONTINUOUS
10
1.90292
20
1.52934
11
1.90292
21
1.49597
0
LINE
8
BLACK
6
CONTINUOUS
10
1.90292
20
1.49597
11
1.92805
21
1.49597
0
LINE
8
BLACK
6
CONTINUOUS
10
1.92805
20
1.49597
11
1.93415
21
1.49902
0
LINE
8
BLACK
6
CONTINUOUS
10
1.93415
20
1.49902
11
1.937
21
1.50186
0
LINE
8
BLACK
6
CONTINUOUS
10
1.937
20
1.50186
11
1.94004
21
1.50796
0
LINE
8
BLACK
6
CONTINUOUS
10
1.94004
20
1.50796
11
1.94004
21
1.51735
0
LINE
8
BLACK
6
CONTINUOUS
10
1.94004
20
1.51735
11
1.937
21
1.52345
0
LINE
8
BLACK
6
CONTINUOUS
10
1.937
20
1.52345
11
1.93415
21
1.52629
0
LINE
8
BLACK
6
CONTINUOUS
10
1.93415
20
1.52629
11
1.92805
21
1.52934
0
LINE
8
BLACK
6
CONTINUOUS
10
1.92805
20
1.52934
11
1.90292
21
1.52934
  0
ENDSEC
  0
EOF
