  0
SECTION
  2
HEADER
  9
$ANGBASE
  50
0.0
  9
$ANGDIR
  70
1
  9
$MEASUREMENT
  70
0
  0
ENDSEC
  0
SECTION
  2
TABLES
  0
TABLE
  2
LTYPE
  70
4
  0
LTYPE
  5
40F
  2
CONTINUOUS
  70
0
  3
Solid line
  72
65
  73
0
  40
0.0
  0
LTYPE
  5
410
  2
DASHDOT
 70
0
  3
Dash Dot ____ _ ____ _
 72
65
 73
4
 40
2.0
 49
1.25
 49
-0.25
 49
0.25
 49
-0.25
  0
LTYPE
  5
411
  2
DASHED
 70
0
  3
Dashed __ __ __ __ __
 72
65
 73
2
 40
0.75
 49
0.5
 49
-0.25
  0
LTYPE
  5
43B
  2
DOTTED
 70
0
  3
Dotted .  .  .  .
 72
65
 73
2
 40
0.2
 49
0.0
 49
-0.2
  0
ENDTAB
  0
TABLE
  2
STYLE
  70
4
  0
STYLE
  2
KICAD
  70
0
  40
0
  41
1
  42
1
  50
0
  71
0
  3
isocp.shx
  0
STYLE
  2
KICADB
  70
0
  40
0
  41
1
  42
1
  50
0
  71
0
  3
isocp.shx
  0
STYLE
  2
KICADI
  70
0
  40
0
  41
1
  42
1
  50
15
  71
0
  3
isocp.shx
  0
STYLE
  2
KICADBI
  70
0
  40
0
  41
1
  42
1
  50
15
  71
0
  3
isocp.shx
  0
ENDTAB
  0
TABLE
  2
LAYER
  70
1
  0
LAYER
  2
BLACK
  70
0
  62
7
  6
CONTINUOUS
  0
ENDTAB
  0
ENDSEC
  0
SECTION
  2
ENTITIES
0
LINE
8
BLACK
6
CONTINUOUS
10
3.68792
20
0.229534
11
3.69197
21
0.242958
0
LINE
8
BLACK
6
CONTINUOUS
10
3.69197
20
0.242958
11
3.6975
21
0.255846
0
LINE
8
BLACK
6
CONTINUOUS
10
3.6975
20
0.255846
11
3.70442
21
0.268039
0
LINE
8
BLACK
6
CONTINUOUS
10
3.70442
20
0.268039
11
3.71267
21
0.279383
0
LINE
8
BLACK
6
CONTINUOUS
10
3.71267
20
0.279383
11
3.72212
21
0.289738
0
LINE
8
BLACK
6
CONTINUOUS
10
3.72212
20
0.289738
11
3.73267
21
0.298974
0
LINE
8
BLACK
6
CONTINUOUS
10
3.73267
20
0.298974
11
3.74419
21
0.306977
0
LINE
8
BLACK
6
CONTINUOUS
10
3.74419
20
0.306977
11
3.75652
21
0.313646
0
LINE
8
BLACK
6
CONTINUOUS
10
3.75652
20
0.313646
11
3.76952
21
0.318899
0
LINE
8
BLACK
6
CONTINUOUS
10
3.76952
20
0.318899
11
3.78303
21
0.32267
0
LINE
8
BLACK
6
CONTINUOUS
10
3.78303
20
0.32267
11
3.79687
21
0.324912
0
LINE
8
BLACK
6
CONTINUOUS
10
3.79687
20
0.324912
11
3.81088
21
0.325597
0
LINE
8
BLACK
6
CONTINUOUS
10
3.81088
20
0.325597
11
3.82487
21
0.324716
0
LINE
8
BLACK
6
CONTINUOUS
10
3.82487
20
0.324716
11
3.83868
21
0.322281
0
LINE
8
BLACK
6
CONTINUOUS
10
3.83868
20
0.322281
11
3.85213
21
0.318322
0
LINE
8
BLACK
6
CONTINUOUS
10
3.85213
20
0.318322
11
3.86506
21
0.312889
0
LINE
8
BLACK
6
CONTINUOUS
10
3.86506
20
0.312889
11
3.8773
21
0.306048
0
LINE
8
BLACK
6
CONTINUOUS
10
3.8773
20
0.306048
11
3.8887
21
0.297885
0
LINE
8
BLACK
6
CONTINUOUS
10
3.8887
20
0.297885
11
3.89912
21
0.288502
0
LINE
8
BLACK
6
CONTINUOUS
10
3.89912
20
0.288502
11
3.90843
21
0.278016
0
LINE
8
BLACK
6
CONTINUOUS
10
3.90843
20
0.278016
11
3.91651
21
0.266558
0
LINE
8
BLACK
6
CONTINUOUS
10
3.91651
20
0.266558
11
3.92327
21
0.25427
0
LINE
8
BLACK
6
CONTINUOUS
10
3.92327
20
0.25427
11
3.92861
21
0.241306
0
LINE
8
BLACK
6
CONTINUOUS
10
3.92861
20
0.241306
11
3.93248
21
0.227826
0
LINE
8
BLACK
6
CONTINUOUS
10
3.93248
20
0.227826
11
3.93482
21
0.214001
0
LINE
8
BLACK
6
CONTINUOUS
10
3.93482
20
0.214001
11
3.9356
21
0.2
0
LINE
8
BLACK
6
CONTINUOUS
10
3.9356
20
0.2
11
3.93555
21
0.196493
0
LINE
8
BLACK
6
CONTINUOUS
10
3.93555
20
0.196493
11
3.93438
21
0.18252
0
LINE
8
BLACK
6
CONTINUOUS
10
3.93438
20
0.18252
11
3.93165
21
0.168765
0
LINE
8
BLACK
6
CONTINUOUS
10
3.93165
20
0.168765
11
3.92741
21
0.155399
0
LINE
8
BLACK
6
CONTINUOUS
10
3.92741
20
0.155399
11
3.92171
21
0.142589
0
LINE
8
BLACK
6
CONTINUOUS
10
3.92171
20
0.142589
11
3.91461
21
0.130494
0
LINE
8
BLACK
6
CONTINUOUS
10
3.91461
20
0.130494
11
3.90622
21
0.119266
0
LINE
8
BLACK
6
CONTINUOUS
10
3.90622
20
0.119266
11
3.89662
21
0.109044
0
LINE
8
BLACK
6
CONTINUOUS
10
3.89662
20
0.109044
11
3.88594
21
0.0999558
0
LINE
8
BLACK
6
CONTINUOUS
10
3.88594
20
0.0999558
11
3.87431
21
0.0921146
0
LINE
8
BLACK
6
CONTINUOUS
10
3.87431
20
0.0921146
11
3.86189
21
0.0856181
0
LINE
8
BLACK
6
CONTINUOUS
10
3.86189
20
0.0856181
11
3.84881
21
0.0805473
0
LINE
8
BLACK
6
CONTINUOUS
10
3.84881
20
0.0805473
11
3.83526
21
0.0769654
0
LINE
8
BLACK
6
CONTINUOUS
10
3.83526
20
0.0769654
11
3.82138
21
0.0749169
0
LINE
8
BLACK
6
CONTINUOUS
10
3.82138
20
0.0749169
11
3.80737
21
0.0744276
0
LINE
8
BLACK
6
CONTINUOUS
10
3.80737
20
0.0744276
11
3.79339
21
0.0755033
0
LINE
8
BLACK
6
CONTINUOUS
10
3.79339
20
0.0755033
11
3.77961
21
0.0781309
0
LINE
8
BLACK
6
CONTINUOUS
10
3.77961
20
0.0781309
11
3.76622
21
0.0822774
0
LINE
8
BLACK
6
CONTINUOUS
10
3.76622
20
0.0822774
11
3.75337
21
0.0878912
0
LINE
8
BLACK
6
CONTINUOUS
10
3.75337
20
0.0878912
11
3.74123
21
0.0949024
0
LINE
8
BLACK
6
CONTINUOUS
10
3.74123
20
0.0949024
11
3.72994
21
0.103224
0
LINE
8
BLACK
6
CONTINUOUS
10
3.72994
20
0.103224
11
3.71965
21
0.112751
0
LINE
8
BLACK
6
CONTINUOUS
10
3.71965
20
0.112751
11
3.71049
21
0.123366
0
LINE
8
BLACK
6
CONTINUOUS
10
3.71049
20
0.123366
11
3.70257
21
0.134936
0
LINE
8
BLACK
6
CONTINUOUS
10
3.70257
20
0.134936
11
3.69598
21
0.147317
0
LINE
8
BLACK
6
CONTINUOUS
10
3.69598
20
0.147317
11
3.69082
21
0.160354
0
LINE
8
BLACK
6
CONTINUOUS
10
3.69082
20
0.160354
11
3.68714
21
0.173886
0
LINE
8
BLACK
6
CONTINUOUS
10
3.68714
20
0.173886
11
3.685
21
0.187744
0
LINE
8
BLACK
6
CONTINUOUS
10
3.685
20
0.187744
11
3.68441
21
0.201754
0
LINE
8
BLACK
6
CONTINUOUS
10
3.68441
20
0.201754
11
3.68453
21
0.20348
0
LINE
8
BLACK
6
CONTINUOUS
10
3.68453
20
0.20348
11
3.68539
21
0.215742
0
LINE
8
BLACK
6
CONTINUOUS
10
3.68539
20
0.215742
11
3.68792
21
0.229534
0
LINE
8
BLACK
6
CONTINUOUS
10
3.7014
20
0.178102
11
3.70463
21
0.165765
0
LINE
8
BLACK
6
CONTINUOUS
10
3.70463
20
0.165765
11
3.70927
21
0.153881
0
LINE
8
BLACK
6
CONTINUOUS
10
3.70927
20
0.153881
11
3.71524
21
0.142609
0
LINE
8
BLACK
6
CONTINUOUS
10
3.71524
20
0.142609
11
3.72246
21
0.132098
0
LINE
8
BLACK
6
CONTINUOUS
10
3.72246
20
0.132098
11
3.73085
21
0.122486
0
LINE
8
BLACK
6
CONTINUOUS
10
3.73085
20
0.122486
11
3.74028
21
0.113902
0
LINE
8
BLACK
6
CONTINUOUS
10
3.74028
20
0.113902
11
3.75064
21
0.106459
0
LINE
8
BLACK
6
CONTINUOUS
10
3.75064
20
0.106459
11
3.76178
21
0.100256
0
LINE
8
BLACK
6
CONTINUOUS
10
3.76178
20
0.100256
11
3.77357
21
0.095375
0
LINE
8
BLACK
6
CONTINUOUS
10
3.77357
20
0.095375
11
3.78583
21
0.0918807
0
LINE
8
BLACK
6
CONTINUOUS
10
3.78583
20
0.0918807
11
3.79842
21
0.0898194
0
LINE
8
BLACK
6
CONTINUOUS
10
3.79842
20
0.0898194
11
3.81116
21
0.0892186
0
LINE
8
BLACK
6
CONTINUOUS
10
3.81116
20
0.0892186
11
3.82389
21
0.0900861
0
LINE
8
BLACK
6
CONTINUOUS
10
3.82389
20
0.0900861
11
3.83643
21
0.0924105
0
LINE
8
BLACK
6
CONTINUOUS
10
3.83643
20
0.0924105
11
3.84862
21
0.0961609
0
LINE
8
BLACK
6
CONTINUOUS
10
3.84862
20
0.0961609
11
3.8603
21
0.101288
0
LINE
8
BLACK
6
CONTINUOUS
10
3.8603
20
0.101288
11
3.87131
21
0.107723
0
LINE
8
BLACK
6
CONTINUOUS
10
3.87131
20
0.107723
11
3.88151
21
0.115381
0
LINE
8
BLACK
6
CONTINUOUS
10
3.88151
20
0.115381
11
3.89076
21
0.124161
0
LINE
8
BLACK
6
CONTINUOUS
10
3.89076
20
0.124161
11
3.89894
21
0.133946
0
LINE
8
BLACK
6
CONTINUOUS
10
3.89894
20
0.133946
11
3.90594
21
0.144606
0
LINE
8
BLACK
6
CONTINUOUS
10
3.90594
20
0.144606
11
3.91168
21
0.156001
0
LINE
8
BLACK
6
CONTINUOUS
10
3.91168
20
0.156001
11
3.91606
21
0.167979
0
LINE
8
BLACK
6
CONTINUOUS
10
3.91606
20
0.167979
11
3.91904
21
0.180381
0
LINE
8
BLACK
6
CONTINUOUS
10
3.91904
20
0.180381
11
3.92057
21
0.193044
0
LINE
8
BLACK
6
CONTINUOUS
10
3.92057
20
0.193044
11
3.92079
21
0.2
0
LINE
8
BLACK
6
CONTINUOUS
10
3.92079
20
0.2
11
3.92005
21
0.212734
0
LINE
8
BLACK
6
CONTINUOUS
10
3.92005
20
0.212734
11
3.91786
21
0.225298
0
LINE
8
BLACK
6
CONTINUOUS
10
3.91786
20
0.225298
11
3.91424
21
0.237528
0
LINE
8
BLACK
6
CONTINUOUS
10
3.91424
20
0.237528
11
3.90923
21
0.24926
0
LINE
8
BLACK
6
CONTINUOUS
10
3.90923
20
0.24926
11
3.90291
21
0.260339
0
LINE
8
BLACK
6
CONTINUOUS
10
3.90291
20
0.260339
11
3.89536
21
0.270619
0
LINE
8
BLACK
6
CONTINUOUS
10
3.89536
20
0.270619
11
3.88668
21
0.279962
0
LINE
8
BLACK
6
CONTINUOUS
10
3.88668
20
0.279962
11
3.87698
21
0.288246
0
LINE
8
BLACK
6
CONTINUOUS
10
3.87698
20
0.288246
11
3.8664
21
0.295359
0
LINE
8
BLACK
6
CONTINUOUS
10
3.8664
20
0.295359
11
3.85506
21
0.301209
0
LINE
8
BLACK
6
CONTINUOUS
10
3.85506
20
0.301209
11
3.84313
21
0.305718
0
LINE
8
BLACK
6
CONTINUOUS
10
3.84313
20
0.305718
11
3.83076
21
0.308825
0
LINE
8
BLACK
6
CONTINUOUS
10
3.83076
20
0.308825
11
3.81811
21
0.31049
0
LINE
8
BLACK
6
CONTINUOUS
10
3.81811
20
0.31049
11
3.80536
21
0.31069
0
LINE
8
BLACK
6
CONTINUOUS
10
3.80536
20
0.31069
11
3.79267
21
0.309423
0
LINE
8
BLACK
6
CONTINUOUS
10
3.79267
20
0.309423
11
3.78021
21
0.306706
0
LINE
8
BLACK
6
CONTINUOUS
10
3.78021
20
0.306706
11
3.76814
21
0.302575
0
LINE
8
BLACK
6
CONTINUOUS
10
3.76814
20
0.302575
11
3.75663
21
0.297084
0
LINE
8
BLACK
6
CONTINUOUS
10
3.75663
20
0.297084
11
3.74582
21
0.290306
0
LINE
8
BLACK
6
CONTINUOUS
10
3.74582
20
0.290306
11
3.73587
21
0.282331
0
LINE
8
BLACK
6
CONTINUOUS
10
3.73587
20
0.282331
11
3.7269
21
0.273265
0
LINE
8
BLACK
6
CONTINUOUS
10
3.7269
20
0.273265
11
3.71903
21
0.263228
0
LINE
8
BLACK
6
CONTINUOUS
10
3.71903
20
0.263228
11
3.71236
21
0.252353
0
LINE
8
BLACK
6
CONTINUOUS
10
3.71236
20
0.252353
11
3.70699
21
0.240784
0
LINE
8
BLACK
6
CONTINUOUS
10
3.70699
20
0.240784
11
3.70299
21
0.228674
0
LINE
8
BLACK
6
CONTINUOUS
10
3.70299
20
0.228674
11
3.7004
21
0.216184
0
LINE
8
BLACK
6
CONTINUOUS
10
3.7004
20
0.216184
11
3.69927
21
0.20348
0
LINE
8
BLACK
6
CONTINUOUS
10
3.69927
20
0.20348
11
3.6996
21
0.19073
0
LINE
8
BLACK
6
CONTINUOUS
10
3.6996
20
0.19073
11
3.7014
21
0.178102
  0
ENDSEC
  0
EOF
