  0
SECTION
  2
HEADER
  9
$ANGBASE
  50
0.0
  9
$ANGDIR
  70
1
  9
$MEASUREMENT
  70
0
  0
ENDSEC
  0
SECTION
  2
TABLES
  0
TABLE
  2
LTYPE
  70
4
  0
LTYPE
  5
40F
  2
CONTINUOUS
  70
0
  3
Solid line
  72
65
  73
0
  40
0.0
  0
LTYPE
  5
410
  2
DASHDOT
 70
0
  3
Dash Dot ____ _ ____ _
 72
65
 73
4
 40
2.0
 49
1.25
 49
-0.25
 49
0.25
 49
-0.25
  0
LTYPE
  5
411
  2
DASHED
 70
0
  3
Dashed __ __ __ __ __
 72
65
 73
2
 40
0.75
 49
0.5
 49
-0.25
  0
LTYPE
  5
43B
  2
DOTTED
 70
0
  3
Dotted .  .  .  .
 72
65
 73
2
 40
0.2
 49
0.0
 49
-0.2
  0
ENDTAB
  0
TABLE
  2
STYLE
  70
4
  0
STYLE
  2
KICAD
  70
0
  40
0
  41
1
  42
1
  50
0
  71
0
  3
isocp.shx
  0
STYLE
  2
KICADB
  70
0
  40
0
  41
1
  42
1
  50
0
  71
0
  3
isocp.shx
  0
STYLE
  2
KICADI
  70
0
  40
0
  41
1
  42
1
  50
15
  71
0
  3
isocp.shx
  0
STYLE
  2
KICADBI
  70
0
  40
0
  41
1
  42
1
  50
15
  71
0
  3
isocp.shx
  0
ENDTAB
  0
TABLE
  2
LAYER
  70
1
  0
LAYER
  2
BLACK
  70
0
  62
7
  6
CONTINUOUS
  0
ENDTAB
  0
ENDSEC
  0
SECTION
  2
ENTITIES
0
LINE
8
BLACK
6
CONTINUOUS
10
0.214917
20
0.325098
11
0.228769
21
0.322656
0
LINE
8
BLACK
6
CONTINUOUS
10
0.228769
20
0.322656
11
0.242262
21
0.318684
0
LINE
8
BLACK
6
CONTINUOUS
10
0.242262
20
0.318684
11
0.255228
21
0.313234
0
LINE
8
BLACK
6
CONTINUOUS
10
0.255228
20
0.313234
11
0.267506
21
0.306372
0
LINE
8
BLACK
6
CONTINUOUS
10
0.267506
20
0.306372
11
0.278942
21
0.298184
0
LINE
8
BLACK
6
CONTINUOUS
10
0.278942
20
0.298184
11
0.289395
21
0.288773
0
LINE
8
BLACK
6
CONTINUOUS
10
0.289395
20
0.288773
11
0.298733
21
0.278255
0
LINE
8
BLACK
6
CONTINUOUS
10
0.298733
20
0.278255
11
0.306841
21
0.266761
0
LINE
8
BLACK
6
CONTINUOUS
10
0.306841
20
0.266761
11
0.313617
21
0.254436
0
LINE
8
BLACK
6
CONTINUOUS
10
0.313617
20
0.254436
11
0.318977
21
0.241432
0
LINE
8
BLACK
6
CONTINUOUS
10
0.318977
20
0.241432
11
0.322853
21
0.227912
0
LINE
8
BLACK
6
CONTINUOUS
10
0.322853
20
0.227912
11
0.325199
21
0.214043
0
LINE
8
BLACK
6
CONTINUOUS
10
0.325199
20
0.214043
11
0.325984
21
0.2
0
LINE
8
BLACK
6
CONTINUOUS
10
0.325984
20
0.2
11
0.325935
21
0.196482
0
LINE
8
BLACK
6
CONTINUOUS
10
0.325935
20
0.196482
11
0.324758
21
0.182466
0
LINE
8
BLACK
6
CONTINUOUS
10
0.324758
20
0.182466
11
0.322026
21
0.168669
0
LINE
8
BLACK
6
CONTINUOUS
10
0.322026
20
0.168669
11
0.317773
21
0.155262
0
LINE
8
BLACK
6
CONTINUOUS
10
0.317773
20
0.155262
11
0.312052
21
0.142413
0
LINE
8
BLACK
6
CONTINUOUS
10
0.312052
20
0.142413
11
0.304935
21
0.130281
0
LINE
8
BLACK
6
CONTINUOUS
10
0.304935
20
0.130281
11
0.29651
21
0.119019
0
LINE
8
BLACK
6
CONTINUOUS
10
0.29651
20
0.119019
11
0.286881
21
0.108766
0
LINE
8
BLACK
6
CONTINUOUS
10
0.286881
20
0.108766
11
0.27617
21
0.0996498
0
LINE
8
BLACK
6
CONTINUOUS
10
0.27617
20
0.0996498
11
0.264509
21
0.0917846
0
LINE
8
BLACK
6
CONTINUOUS
10
0.264509
20
0.0917846
11
0.252045
21
0.0852682
0
LINE
8
BLACK
6
CONTINUOUS
10
0.252045
20
0.0852682
11
0.238931
21
0.0801819
0
LINE
8
BLACK
6
CONTINUOUS
10
0.238931
20
0.0801819
11
0.225333
21
0.0765889
0
LINE
8
BLACK
6
CONTINUOUS
10
0.225333
20
0.0765889
11
0.211418
21
0.0745343
0
LINE
8
BLACK
6
CONTINUOUS
10
0.211418
20
0.0745343
11
0.197362
21
0.0740434
0
LINE
8
BLACK
6
CONTINUOUS
10
0.197362
20
0.0740434
11
0.183338
21
0.0751224
0
LINE
8
BLACK
6
CONTINUOUS
10
0.183338
20
0.0751224
11
0.169522
21
0.077758
0
LINE
8
BLACK
6
CONTINUOUS
10
0.169522
20
0.077758
11
0.156085
21
0.0819172
0
LINE
8
BLACK
6
CONTINUOUS
10
0.156085
20
0.0819172
11
0.143197
21
0.0875482
0
LINE
8
BLACK
6
CONTINUOUS
10
0.143197
20
0.0875482
11
0.131016
21
0.0945809
0
LINE
8
BLACK
6
CONTINUOUS
10
0.131016
20
0.0945809
11
0.119695
21
0.102927
0
LINE
8
BLACK
6
CONTINUOUS
10
0.119695
20
0.102927
11
0.109375
21
0.112484
0
LINE
8
BLACK
6
CONTINUOUS
10
0.109375
20
0.112484
11
0.100184
21
0.123131
0
LINE
8
BLACK
6
CONTINUOUS
10
0.100184
20
0.123131
11
0.0922376
21
0.134737
0
LINE
8
BLACK
6
CONTINUOUS
10
0.0922376
20
0.134737
11
0.0856343
21
0.147156
0
LINE
8
BLACK
6
CONTINUOUS
10
0.0856343
20
0.147156
11
0.0804566
21
0.160233
0
LINE
8
BLACK
6
CONTINUOUS
10
0.0804566
20
0.160233
11
0.0767688
21
0.173806
0
LINE
8
BLACK
6
CONTINUOUS
10
0.0767688
20
0.173806
11
0.074617
21
0.187706
0
LINE
8
BLACK
6
CONTINUOUS
10
0.074617
20
0.187706
11
0.074028
21
0.201759
0
LINE
8
BLACK
6
CONTINUOUS
10
0.074028
20
0.201759
11
0.0750092
21
0.21579
0
LINE
8
BLACK
6
CONTINUOUS
10
0.0750092
20
0.21579
11
0.0775482
21
0.229624
0
LINE
8
BLACK
6
CONTINUOUS
10
0.0775482
20
0.229624
11
0.0816135
21
0.243089
0
LINE
8
BLACK
6
CONTINUOUS
10
0.0816135
20
0.243089
11
0.0871544
21
0.256017
0
LINE
8
BLACK
6
CONTINUOUS
10
0.0871544
20
0.256017
11
0.0941019
21
0.268247
0
LINE
8
BLACK
6
CONTINUOUS
10
0.0941019
20
0.268247
11
0.102369
21
0.279626
0
LINE
8
BLACK
6
CONTINUOUS
10
0.102369
20
0.279626
11
0.111853
21
0.290012
0
LINE
8
BLACK
6
CONTINUOUS
10
0.111853
20
0.290012
11
0.122436
21
0.299277
0
LINE
8
BLACK
6
CONTINUOUS
10
0.122436
20
0.299277
11
0.133986
21
0.307304
0
LINE
8
BLACK
6
CONTINUOUS
10
0.133986
20
0.307304
11
0.146359
21
0.313994
0
LINE
8
BLACK
6
CONTINUOUS
10
0.146359
20
0.313994
11
0.1594
21
0.319263
0
LINE
8
BLACK
6
CONTINUOUS
10
0.1594
20
0.319263
11
0.172947
21
0.323045
0
LINE
8
BLACK
6
CONTINUOUS
10
0.172947
20
0.323045
11
0.186831
21
0.325294
0
LINE
8
BLACK
6
CONTINUOUS
10
0.186831
20
0.325294
11
0.20088
21
0.325981
0
LINE
8
BLACK
6
CONTINUOUS
10
0.20088
20
0.325981
11
0.214917
21
0.325098
0
LINE
8
BLACK
6
CONTINUOUS
10
3.82492
20
0.325098
11
3.83877
21
0.322656
0
LINE
8
BLACK
6
CONTINUOUS
10
3.83877
20
0.322656
11
3.85226
21
0.318684
0
LINE
8
BLACK
6
CONTINUOUS
10
3.85226
20
0.318684
11
3.86523
21
0.313234
0
LINE
8
BLACK
6
CONTINUOUS
10
3.86523
20
0.313234
11
3.87751
21
0.306372
0
LINE
8
BLACK
6
CONTINUOUS
10
3.87751
20
0.306372
11
3.88894
21
0.298184
0
LINE
8
BLACK
6
CONTINUOUS
10
3.88894
20
0.298184
11
3.89939
21
0.288773
0
LINE
8
BLACK
6
CONTINUOUS
10
3.89939
20
0.288773
11
3.90873
21
0.278255
0
LINE
8
BLACK
6
CONTINUOUS
10
3.90873
20
0.278255
11
3.91684
21
0.266761
0
LINE
8
BLACK
6
CONTINUOUS
10
3.91684
20
0.266761
11
3.92362
21
0.254436
0
LINE
8
BLACK
6
CONTINUOUS
10
3.92362
20
0.254436
11
3.92898
21
0.241432
0
LINE
8
BLACK
6
CONTINUOUS
10
3.92898
20
0.241432
11
3.93285
21
0.227912
0
LINE
8
BLACK
6
CONTINUOUS
10
3.93285
20
0.227912
11
3.9352
21
0.214043
0
LINE
8
BLACK
6
CONTINUOUS
10
3.9352
20
0.214043
11
3.93598
21
0.2
0
LINE
8
BLACK
6
CONTINUOUS
10
3.93598
20
0.2
11
3.93594
21
0.196482
0
LINE
8
BLACK
6
CONTINUOUS
10
3.93594
20
0.196482
11
3.93476
21
0.182466
0
LINE
8
BLACK
6
CONTINUOUS
10
3.93476
20
0.182466
11
3.93203
21
0.168669
0
LINE
8
BLACK
6
CONTINUOUS
10
3.93203
20
0.168669
11
3.92777
21
0.155262
0
LINE
8
BLACK
6
CONTINUOUS
10
3.92777
20
0.155262
11
3.92205
21
0.142413
0
LINE
8
BLACK
6
CONTINUOUS
10
3.92205
20
0.142413
11
3.91493
21
0.130281
0
LINE
8
BLACK
6
CONTINUOUS
10
3.91493
20
0.130281
11
3.90651
21
0.119019
0
LINE
8
BLACK
6
CONTINUOUS
10
3.90651
20
0.119019
11
3.89688
21
0.108766
0
LINE
8
BLACK
6
CONTINUOUS
10
3.89688
20
0.108766
11
3.88617
21
0.0996498
0
LINE
8
BLACK
6
CONTINUOUS
10
3.88617
20
0.0996498
11
3.87451
21
0.0917846
0
LINE
8
BLACK
6
CONTINUOUS
10
3.87451
20
0.0917846
11
3.86204
21
0.0852682
0
LINE
8
BLACK
6
CONTINUOUS
10
3.86204
20
0.0852682
11
3.84893
21
0.0801819
0
LINE
8
BLACK
6
CONTINUOUS
10
3.84893
20
0.0801819
11
3.83533
21
0.0765889
0
LINE
8
BLACK
6
CONTINUOUS
10
3.83533
20
0.0765889
11
3.82142
21
0.0745343
0
LINE
8
BLACK
6
CONTINUOUS
10
3.82142
20
0.0745343
11
3.80736
21
0.0740434
0
LINE
8
BLACK
6
CONTINUOUS
10
3.80736
20
0.0740434
11
3.79334
21
0.0751224
0
LINE
8
BLACK
6
CONTINUOUS
10
3.79334
20
0.0751224
11
3.77952
21
0.077758
0
LINE
8
BLACK
6
CONTINUOUS
10
3.77952
20
0.077758
11
3.76609
21
0.0819172
0
LINE
8
BLACK
6
CONTINUOUS
10
3.76609
20
0.0819172
11
3.7532
21
0.0875482
0
LINE
8
BLACK
6
CONTINUOUS
10
3.7532
20
0.0875482
11
3.74102
21
0.0945809
0
LINE
8
BLACK
6
CONTINUOUS
10
3.74102
20
0.0945809
11
3.72969
21
0.102927
0
LINE
8
BLACK
6
CONTINUOUS
10
3.72969
20
0.102927
11
3.71937
21
0.112484
0
LINE
8
BLACK
6
CONTINUOUS
10
3.71937
20
0.112484
11
3.71018
21
0.123131
0
LINE
8
BLACK
6
CONTINUOUS
10
3.71018
20
0.123131
11
3.70224
21
0.134737
0
LINE
8
BLACK
6
CONTINUOUS
10
3.70224
20
0.134737
11
3.69563
21
0.147156
0
LINE
8
BLACK
6
CONTINUOUS
10
3.69563
20
0.147156
11
3.69046
21
0.160233
0
LINE
8
BLACK
6
CONTINUOUS
10
3.69046
20
0.160233
11
3.68677
21
0.173806
0
LINE
8
BLACK
6
CONTINUOUS
10
3.68677
20
0.173806
11
3.68462
21
0.187706
0
LINE
8
BLACK
6
CONTINUOUS
10
3.68462
20
0.187706
11
3.68403
21
0.201759
0
LINE
8
BLACK
6
CONTINUOUS
10
3.68403
20
0.201759
11
3.68501
21
0.21579
0
LINE
8
BLACK
6
CONTINUOUS
10
3.68501
20
0.21579
11
3.68755
21
0.229624
0
LINE
8
BLACK
6
CONTINUOUS
10
3.68755
20
0.229624
11
3.69161
21
0.243089
0
LINE
8
BLACK
6
CONTINUOUS
10
3.69161
20
0.243089
11
3.69715
21
0.256017
0
LINE
8
BLACK
6
CONTINUOUS
10
3.69715
20
0.256017
11
3.7041
21
0.268247
0
LINE
8
BLACK
6
CONTINUOUS
10
3.7041
20
0.268247
11
3.71237
21
0.279626
0
LINE
8
BLACK
6
CONTINUOUS
10
3.71237
20
0.279626
11
3.72185
21
0.290012
0
LINE
8
BLACK
6
CONTINUOUS
10
3.72185
20
0.290012
11
3.73244
21
0.299277
0
LINE
8
BLACK
6
CONTINUOUS
10
3.73244
20
0.299277
11
3.74399
21
0.307304
0
LINE
8
BLACK
6
CONTINUOUS
10
3.74399
20
0.307304
11
3.75636
21
0.313994
0
LINE
8
BLACK
6
CONTINUOUS
10
3.75636
20
0.313994
11
3.7694
21
0.319263
0
LINE
8
BLACK
6
CONTINUOUS
10
3.7694
20
0.319263
11
3.78295
21
0.323045
0
LINE
8
BLACK
6
CONTINUOUS
10
3.78295
20
0.323045
11
3.79683
21
0.325294
0
LINE
8
BLACK
6
CONTINUOUS
10
3.79683
20
0.325294
11
3.81088
21
0.325981
0
LINE
8
BLACK
6
CONTINUOUS
10
3.81088
20
0.325981
11
3.82492
21
0.325098
0
LINE
8
BLACK
6
CONTINUOUS
10
1.56215
20
0.1857
11
1.5647
21
0.183993
0
LINE
8
BLACK
6
CONTINUOUS
10
1.5647
20
0.183993
11
1.56641
21
0.181438
0
LINE
8
BLACK
6
CONTINUOUS
10
1.56641
20
0.181438
11
1.56701
21
0.178425
0
LINE
8
BLACK
6
CONTINUOUS
10
1.56701
20
0.178425
11
1.56701
21
0.118425
0
LINE
8
BLACK
6
CONTINUOUS
10
1.56701
20
0.118425
11
1.56641
21
0.115412
0
LINE
8
BLACK
6
CONTINUOUS
10
1.56641
20
0.115412
11
1.5647
21
0.112857
0
LINE
8
BLACK
6
CONTINUOUS
10
1.5647
20
0.112857
11
1.56215
21
0.111151
0
LINE
8
BLACK
6
CONTINUOUS
10
1.56215
20
0.111151
11
1.55913
21
0.110551
0
LINE
8
BLACK
6
CONTINUOUS
10
1.55913
20
0.110551
11
1.49913
21
0.110551
0
LINE
8
BLACK
6
CONTINUOUS
10
1.49913
20
0.110551
11
1.49612
21
0.111151
0
LINE
8
BLACK
6
CONTINUOUS
10
1.49612
20
0.111151
11
1.49357
21
0.112857
0
LINE
8
BLACK
6
CONTINUOUS
10
1.49357
20
0.112857
11
1.49186
21
0.115412
0
LINE
8
BLACK
6
CONTINUOUS
10
1.49186
20
0.115412
11
1.49126
21
0.118425
0
LINE
8
BLACK
6
CONTINUOUS
10
1.49126
20
0.118425
11
1.49126
21
0.178425
0
LINE
8
BLACK
6
CONTINUOUS
10
1.49126
20
0.178425
11
1.49186
21
0.181438
0
LINE
8
BLACK
6
CONTINUOUS
10
1.49186
20
0.181438
11
1.49357
21
0.183993
0
LINE
8
BLACK
6
CONTINUOUS
10
1.49357
20
0.183993
11
1.49612
21
0.1857
0
LINE
8
BLACK
6
CONTINUOUS
10
1.49612
20
0.1857
11
1.49913
21
0.186299
0
LINE
8
BLACK
6
CONTINUOUS
10
1.49913
20
0.186299
11
1.55913
21
0.186299
0
LINE
8
BLACK
6
CONTINUOUS
10
1.55913
20
0.186299
11
1.56215
21
0.1857
0
LINE
8
BLACK
6
CONTINUOUS
10
0.762147
20
0.1857
11
0.764702
21
0.183993
0
LINE
8
BLACK
6
CONTINUOUS
10
0.764702
20
0.183993
11
0.766409
21
0.181438
0
LINE
8
BLACK
6
CONTINUOUS
10
0.766409
20
0.181438
11
0.767008
21
0.178425
0
LINE
8
BLACK
6
CONTINUOUS
10
0.767008
20
0.178425
11
0.767008
21
0.118425
0
LINE
8
BLACK
6
CONTINUOUS
10
0.767008
20
0.118425
11
0.766409
21
0.115412
0
LINE
8
BLACK
6
CONTINUOUS
10
0.766409
20
0.115412
11
0.764702
21
0.112857
0
LINE
8
BLACK
6
CONTINUOUS
10
0.764702
20
0.112857
11
0.762147
21
0.111151
0
LINE
8
BLACK
6
CONTINUOUS
10
0.762147
20
0.111151
11
0.759134
21
0.110551
0
LINE
8
BLACK
6
CONTINUOUS
10
0.759134
20
0.110551
11
0.699134
21
0.110551
0
LINE
8
BLACK
6
CONTINUOUS
10
0.699134
20
0.110551
11
0.696121
21
0.111151
0
LINE
8
BLACK
6
CONTINUOUS
10
0.696121
20
0.111151
11
0.693566
21
0.112857
0
LINE
8
BLACK
6
CONTINUOUS
10
0.693566
20
0.112857
11
0.691859
21
0.115412
0
LINE
8
BLACK
6
CONTINUOUS
10
0.691859
20
0.115412
11
0.69126
21
0.118425
0
LINE
8
BLACK
6
CONTINUOUS
10
0.69126
20
0.118425
11
0.69126
21
0.178425
0
LINE
8
BLACK
6
CONTINUOUS
10
0.69126
20
0.178425
11
0.691859
21
0.181438
0
LINE
8
BLACK
6
CONTINUOUS
10
0.691859
20
0.181438
11
0.693566
21
0.183993
0
LINE
8
BLACK
6
CONTINUOUS
10
0.693566
20
0.183993
11
0.696121
21
0.1857
0
LINE
8
BLACK
6
CONTINUOUS
10
0.696121
20
0.1857
11
0.699134
21
0.186299
0
LINE
8
BLACK
6
CONTINUOUS
10
0.699134
20
0.186299
11
0.759134
21
0.186299
0
LINE
8
BLACK
6
CONTINUOUS
10
0.759134
20
0.186299
11
0.762147
21
0.1857
0
LINE
8
BLACK
6
CONTINUOUS
10
0.862147
20
0.1857
11
0.864702
21
0.183993
0
LINE
8
BLACK
6
CONTINUOUS
10
0.864702
20
0.183993
11
0.866409
21
0.181438
0
LINE
8
BLACK
6
CONTINUOUS
10
0.866409
20
0.181438
11
0.867008
21
0.178425
0
LINE
8
BLACK
6
CONTINUOUS
10
0.867008
20
0.178425
11
0.867008
21
0.118425
0
LINE
8
BLACK
6
CONTINUOUS
10
0.867008
20
0.118425
11
0.866409
21
0.115412
0
LINE
8
BLACK
6
CONTINUOUS
10
0.866409
20
0.115412
11
0.864702
21
0.112857
0
LINE
8
BLACK
6
CONTINUOUS
10
0.864702
20
0.112857
11
0.862147
21
0.111151
0
LINE
8
BLACK
6
CONTINUOUS
10
0.862147
20
0.111151
11
0.859134
21
0.110551
0
LINE
8
BLACK
6
CONTINUOUS
10
0.859134
20
0.110551
11
0.799134
21
0.110551
0
LINE
8
BLACK
6
CONTINUOUS
10
0.799134
20
0.110551
11
0.796121
21
0.111151
0
LINE
8
BLACK
6
CONTINUOUS
10
0.796121
20
0.111151
11
0.793566
21
0.112857
0
LINE
8
BLACK
6
CONTINUOUS
10
0.793566
20
0.112857
11
0.791859
21
0.115412
0
LINE
8
BLACK
6
CONTINUOUS
10
0.791859
20
0.115412
11
0.79126
21
0.118425
0
LINE
8
BLACK
6
CONTINUOUS
10
0.79126
20
0.118425
11
0.79126
21
0.178425
0
LINE
8
BLACK
6
CONTINUOUS
10
0.79126
20
0.178425
11
0.791859
21
0.181438
0
LINE
8
BLACK
6
CONTINUOUS
10
0.791859
20
0.181438
11
0.793566
21
0.183993
0
LINE
8
BLACK
6
CONTINUOUS
10
0.793566
20
0.183993
11
0.796121
21
0.1857
0
LINE
8
BLACK
6
CONTINUOUS
10
0.796121
20
0.1857
11
0.799134
21
0.186299
0
LINE
8
BLACK
6
CONTINUOUS
10
0.799134
20
0.186299
11
0.859134
21
0.186299
0
LINE
8
BLACK
6
CONTINUOUS
10
0.859134
20
0.186299
11
0.862147
21
0.1857
0
LINE
8
BLACK
6
CONTINUOUS
10
0.962147
20
0.1857
11
0.964702
21
0.183993
0
LINE
8
BLACK
6
CONTINUOUS
10
0.964702
20
0.183993
11
0.966409
21
0.181438
0
LINE
8
BLACK
6
CONTINUOUS
10
0.966409
20
0.181438
11
0.967008
21
0.178425
0
LINE
8
BLACK
6
CONTINUOUS
10
0.967008
20
0.178425
11
0.967008
21
0.118425
0
LINE
8
BLACK
6
CONTINUOUS
10
0.967008
20
0.118425
11
0.966409
21
0.115412
0
LINE
8
BLACK
6
CONTINUOUS
10
0.966409
20
0.115412
11
0.964702
21
0.112857
0
LINE
8
BLACK
6
CONTINUOUS
10
0.964702
20
0.112857
11
0.962147
21
0.111151
0
LINE
8
BLACK
6
CONTINUOUS
10
0.962147
20
0.111151
11
0.959134
21
0.110551
0
LINE
8
BLACK
6
CONTINUOUS
10
0.959134
20
0.110551
11
0.899134
21
0.110551
0
LINE
8
BLACK
6
CONTINUOUS
10
0.899134
20
0.110551
11
0.896121
21
0.111151
0
LINE
8
BLACK
6
CONTINUOUS
10
0.896121
20
0.111151
11
0.893566
21
0.112857
0
LINE
8
BLACK
6
CONTINUOUS
10
0.893566
20
0.112857
11
0.891859
21
0.115412
0
LINE
8
BLACK
6
CONTINUOUS
10
0.891859
20
0.115412
11
0.89126
21
0.118425
0
LINE
8
BLACK
6
CONTINUOUS
10
0.89126
20
0.118425
11
0.89126
21
0.178425
0
LINE
8
BLACK
6
CONTINUOUS
10
0.89126
20
0.178425
11
0.891859
21
0.181438
0
LINE
8
BLACK
6
CONTINUOUS
10
0.891859
20
0.181438
11
0.893566
21
0.183993
0
LINE
8
BLACK
6
CONTINUOUS
10
0.893566
20
0.183993
11
0.896121
21
0.1857
0
LINE
8
BLACK
6
CONTINUOUS
10
0.896121
20
0.1857
11
0.899134
21
0.186299
0
LINE
8
BLACK
6
CONTINUOUS
10
0.899134
20
0.186299
11
0.959134
21
0.186299
0
LINE
8
BLACK
6
CONTINUOUS
10
0.959134
20
0.186299
11
0.962147
21
0.1857
0
LINE
8
BLACK
6
CONTINUOUS
10
0.662147
20
0.1857
11
0.664702
21
0.183993
0
LINE
8
BLACK
6
CONTINUOUS
10
0.664702
20
0.183993
11
0.666409
21
0.181438
0
LINE
8
BLACK
6
CONTINUOUS
10
0.666409
20
0.181438
11
0.667008
21
0.178425
0
LINE
8
BLACK
6
CONTINUOUS
10
0.667008
20
0.178425
11
0.667008
21
0.118425
0
LINE
8
BLACK
6
CONTINUOUS
10
0.667008
20
0.118425
11
0.666409
21
0.115412
0
LINE
8
BLACK
6
CONTINUOUS
10
0.666409
20
0.115412
11
0.664702
21
0.112857
0
LINE
8
BLACK
6
CONTINUOUS
10
0.664702
20
0.112857
11
0.662147
21
0.111151
0
LINE
8
BLACK
6
CONTINUOUS
10
0.662147
20
0.111151
11
0.659134
21
0.110551
0
LINE
8
BLACK
6
CONTINUOUS
10
0.659134
20
0.110551
11
0.599134
21
0.110551
0
LINE
8
BLACK
6
CONTINUOUS
10
0.599134
20
0.110551
11
0.596121
21
0.111151
0
LINE
8
BLACK
6
CONTINUOUS
10
0.596121
20
0.111151
11
0.593566
21
0.112857
0
LINE
8
BLACK
6
CONTINUOUS
10
0.593566
20
0.112857
11
0.591859
21
0.115412
0
LINE
8
BLACK
6
CONTINUOUS
10
0.591859
20
0.115412
11
0.59126
21
0.118425
0
LINE
8
BLACK
6
CONTINUOUS
10
0.59126
20
0.118425
11
0.59126
21
0.178425
0
LINE
8
BLACK
6
CONTINUOUS
10
0.59126
20
0.178425
11
0.591859
21
0.181438
0
LINE
8
BLACK
6
CONTINUOUS
10
0.591859
20
0.181438
11
0.593566
21
0.183993
0
LINE
8
BLACK
6
CONTINUOUS
10
0.593566
20
0.183993
11
0.596121
21
0.1857
0
LINE
8
BLACK
6
CONTINUOUS
10
0.596121
20
0.1857
11
0.599134
21
0.186299
0
LINE
8
BLACK
6
CONTINUOUS
10
0.599134
20
0.186299
11
0.659134
21
0.186299
0
LINE
8
BLACK
6
CONTINUOUS
10
0.659134
20
0.186299
11
0.662147
21
0.1857
0
LINE
8
BLACK
6
CONTINUOUS
10
1.06215
20
0.1857
11
1.0647
21
0.183993
0
LINE
8
BLACK
6
CONTINUOUS
10
1.0647
20
0.183993
11
1.06641
21
0.181438
0
LINE
8
BLACK
6
CONTINUOUS
10
1.06641
20
0.181438
11
1.06701
21
0.178425
0
LINE
8
BLACK
6
CONTINUOUS
10
1.06701
20
0.178425
11
1.06701
21
0.118425
0
LINE
8
BLACK
6
CONTINUOUS
10
1.06701
20
0.118425
11
1.06641
21
0.115412
0
LINE
8
BLACK
6
CONTINUOUS
10
1.06641
20
0.115412
11
1.0647
21
0.112857
0
LINE
8
BLACK
6
CONTINUOUS
10
1.0647
20
0.112857
11
1.06215
21
0.111151
0
LINE
8
BLACK
6
CONTINUOUS
10
1.06215
20
0.111151
11
1.05913
21
0.110551
0
LINE
8
BLACK
6
CONTINUOUS
10
1.05913
20
0.110551
11
0.999134
21
0.110551
0
LINE
8
BLACK
6
CONTINUOUS
10
0.999134
20
0.110551
11
0.996121
21
0.111151
0
LINE
8
BLACK
6
CONTINUOUS
10
0.996121
20
0.111151
11
0.993566
21
0.112857
0
LINE
8
BLACK
6
CONTINUOUS
10
0.993566
20
0.112857
11
0.991859
21
0.115412
0
LINE
8
BLACK
6
CONTINUOUS
10
0.991859
20
0.115412
11
0.99126
21
0.118425
0
LINE
8
BLACK
6
CONTINUOUS
10
0.99126
20
0.118425
11
0.99126
21
0.178425
0
LINE
8
BLACK
6
CONTINUOUS
10
0.99126
20
0.178425
11
0.991859
21
0.181438
0
LINE
8
BLACK
6
CONTINUOUS
10
0.991859
20
0.181438
11
0.993566
21
0.183993
0
LINE
8
BLACK
6
CONTINUOUS
10
0.993566
20
0.183993
11
0.996121
21
0.1857
0
LINE
8
BLACK
6
CONTINUOUS
10
0.996121
20
0.1857
11
0.999134
21
0.186299
0
LINE
8
BLACK
6
CONTINUOUS
10
0.999134
20
0.186299
11
1.05913
21
0.186299
0
LINE
8
BLACK
6
CONTINUOUS
10
1.05913
20
0.186299
11
1.06215
21
0.1857
0
LINE
8
BLACK
6
CONTINUOUS
10
1.16215
20
0.1857
11
1.1647
21
0.183993
0
LINE
8
BLACK
6
CONTINUOUS
10
1.1647
20
0.183993
11
1.16641
21
0.181438
0
LINE
8
BLACK
6
CONTINUOUS
10
1.16641
20
0.181438
11
1.16701
21
0.178425
0
LINE
8
BLACK
6
CONTINUOUS
10
1.16701
20
0.178425
11
1.16701
21
0.118425
0
LINE
8
BLACK
6
CONTINUOUS
10
1.16701
20
0.118425
11
1.16641
21
0.115412
0
LINE
8
BLACK
6
CONTINUOUS
10
1.16641
20
0.115412
11
1.1647
21
0.112857
0
LINE
8
BLACK
6
CONTINUOUS
10
1.1647
20
0.112857
11
1.16215
21
0.111151
0
LINE
8
BLACK
6
CONTINUOUS
10
1.16215
20
0.111151
11
1.15913
21
0.110551
0
LINE
8
BLACK
6
CONTINUOUS
10
1.15913
20
0.110551
11
1.09913
21
0.110551
0
LINE
8
BLACK
6
CONTINUOUS
10
1.09913
20
0.110551
11
1.09612
21
0.111151
0
LINE
8
BLACK
6
CONTINUOUS
10
1.09612
20
0.111151
11
1.09357
21
0.112857
0
LINE
8
BLACK
6
CONTINUOUS
10
1.09357
20
0.112857
11
1.09186
21
0.115412
0
LINE
8
BLACK
6
CONTINUOUS
10
1.09186
20
0.115412
11
1.09126
21
0.118425
0
LINE
8
BLACK
6
CONTINUOUS
10
1.09126
20
0.118425
11
1.09126
21
0.178425
0
LINE
8
BLACK
6
CONTINUOUS
10
1.09126
20
0.178425
11
1.09186
21
0.181438
0
LINE
8
BLACK
6
CONTINUOUS
10
1.09186
20
0.181438
11
1.09357
21
0.183993
0
LINE
8
BLACK
6
CONTINUOUS
10
1.09357
20
0.183993
11
1.09612
21
0.1857
0
LINE
8
BLACK
6
CONTINUOUS
10
1.09612
20
0.1857
11
1.09913
21
0.186299
0
LINE
8
BLACK
6
CONTINUOUS
10
1.09913
20
0.186299
11
1.15913
21
0.186299
0
LINE
8
BLACK
6
CONTINUOUS
10
1.15913
20
0.186299
11
1.16215
21
0.1857
0
LINE
8
BLACK
6
CONTINUOUS
10
2.78498
20
0.1857
11
2.78754
21
0.183993
0
LINE
8
BLACK
6
CONTINUOUS
10
2.78754
20
0.183993
11
2.78924
21
0.181438
0
LINE
8
BLACK
6
CONTINUOUS
10
2.78924
20
0.181438
11
2.78984
21
0.178425
0
LINE
8
BLACK
6
CONTINUOUS
10
2.78984
20
0.178425
11
2.78984
21
0.118425
0
LINE
8
BLACK
6
CONTINUOUS
10
2.78984
20
0.118425
11
2.78924
21
0.115412
0
LINE
8
BLACK
6
CONTINUOUS
10
2.78924
20
0.115412
11
2.78754
21
0.112857
0
LINE
8
BLACK
6
CONTINUOUS
10
2.78754
20
0.112857
11
2.78498
21
0.111151
0
LINE
8
BLACK
6
CONTINUOUS
10
2.78498
20
0.111151
11
2.78197
21
0.110551
0
LINE
8
BLACK
6
CONTINUOUS
10
2.78197
20
0.110551
11
2.72197
21
0.110551
0
LINE
8
BLACK
6
CONTINUOUS
10
2.72197
20
0.110551
11
2.71896
21
0.111151
0
LINE
8
BLACK
6
CONTINUOUS
10
2.71896
20
0.111151
11
2.7164
21
0.112857
0
LINE
8
BLACK
6
CONTINUOUS
10
2.7164
20
0.112857
11
2.71469
21
0.115412
0
LINE
8
BLACK
6
CONTINUOUS
10
2.71469
20
0.115412
11
2.71409
21
0.118425
0
LINE
8
BLACK
6
CONTINUOUS
10
2.71409
20
0.118425
11
2.71409
21
0.178425
0
LINE
8
BLACK
6
CONTINUOUS
10
2.71409
20
0.178425
11
2.71469
21
0.181438
0
LINE
8
BLACK
6
CONTINUOUS
10
2.71469
20
0.181438
11
2.7164
21
0.183993
0
LINE
8
BLACK
6
CONTINUOUS
10
2.7164
20
0.183993
11
2.71896
21
0.1857
0
LINE
8
BLACK
6
CONTINUOUS
10
2.71896
20
0.1857
11
2.72197
21
0.186299
0
LINE
8
BLACK
6
CONTINUOUS
10
2.72197
20
0.186299
11
2.78197
21
0.186299
0
LINE
8
BLACK
6
CONTINUOUS
10
2.78197
20
0.186299
11
2.78498
21
0.1857
0
LINE
8
BLACK
6
CONTINUOUS
10
1.26215
20
0.1857
11
1.2647
21
0.183993
0
LINE
8
BLACK
6
CONTINUOUS
10
1.2647
20
0.183993
11
1.26641
21
0.181438
0
LINE
8
BLACK
6
CONTINUOUS
10
1.26641
20
0.181438
11
1.26701
21
0.178425
0
LINE
8
BLACK
6
CONTINUOUS
10
1.26701
20
0.178425
11
1.26701
21
0.118425
0
LINE
8
BLACK
6
CONTINUOUS
10
1.26701
20
0.118425
11
1.26641
21
0.115412
0
LINE
8
BLACK
6
CONTINUOUS
10
1.26641
20
0.115412
11
1.2647
21
0.112857
0
LINE
8
BLACK
6
CONTINUOUS
10
1.2647
20
0.112857
11
1.26215
21
0.111151
0
LINE
8
BLACK
6
CONTINUOUS
10
1.26215
20
0.111151
11
1.25913
21
0.110551
0
LINE
8
BLACK
6
CONTINUOUS
10
1.25913
20
0.110551
11
1.19913
21
0.110551
0
LINE
8
BLACK
6
CONTINUOUS
10
1.19913
20
0.110551
11
1.19612
21
0.111151
0
LINE
8
BLACK
6
CONTINUOUS
10
1.19612
20
0.111151
11
1.19357
21
0.112857
0
LINE
8
BLACK
6
CONTINUOUS
10
1.19357
20
0.112857
11
1.19186
21
0.115412
0
LINE
8
BLACK
6
CONTINUOUS
10
1.19186
20
0.115412
11
1.19126
21
0.118425
0
LINE
8
BLACK
6
CONTINUOUS
10
1.19126
20
0.118425
11
1.19126
21
0.178425
0
LINE
8
BLACK
6
CONTINUOUS
10
1.19126
20
0.178425
11
1.19186
21
0.181438
0
LINE
8
BLACK
6
CONTINUOUS
10
1.19186
20
0.181438
11
1.19357
21
0.183993
0
LINE
8
BLACK
6
CONTINUOUS
10
1.19357
20
0.183993
11
1.19612
21
0.1857
0
LINE
8
BLACK
6
CONTINUOUS
10
1.19612
20
0.1857
11
1.19913
21
0.186299
0
LINE
8
BLACK
6
CONTINUOUS
10
1.19913
20
0.186299
11
1.25913
21
0.186299
0
LINE
8
BLACK
6
CONTINUOUS
10
1.25913
20
0.186299
11
1.26215
21
0.1857
0
LINE
8
BLACK
6
CONTINUOUS
10
1.36215
20
0.1857
11
1.3647
21
0.183993
0
LINE
8
BLACK
6
CONTINUOUS
10
1.3647
20
0.183993
11
1.36641
21
0.181438
0
LINE
8
BLACK
6
CONTINUOUS
10
1.36641
20
0.181438
11
1.36701
21
0.178425
0
LINE
8
BLACK
6
CONTINUOUS
10
1.36701
20
0.178425
11
1.36701
21
0.118425
0
LINE
8
BLACK
6
CONTINUOUS
10
1.36701
20
0.118425
11
1.36641
21
0.115412
0
LINE
8
BLACK
6
CONTINUOUS
10
1.36641
20
0.115412
11
1.3647
21
0.112857
0
LINE
8
BLACK
6
CONTINUOUS
10
1.3647
20
0.112857
11
1.36215
21
0.111151
0
LINE
8
BLACK
6
CONTINUOUS
10
1.36215
20
0.111151
11
1.35913
21
0.110551
0
LINE
8
BLACK
6
CONTINUOUS
10
1.35913
20
0.110551
11
1.29913
21
0.110551
0
LINE
8
BLACK
6
CONTINUOUS
10
1.29913
20
0.110551
11
1.29612
21
0.111151
0
LINE
8
BLACK
6
CONTINUOUS
10
1.29612
20
0.111151
11
1.29357
21
0.112857
0
LINE
8
BLACK
6
CONTINUOUS
10
1.29357
20
0.112857
11
1.29186
21
0.115412
0
LINE
8
BLACK
6
CONTINUOUS
10
1.29186
20
0.115412
11
1.29126
21
0.118425
0
LINE
8
BLACK
6
CONTINUOUS
10
1.29126
20
0.118425
11
1.29126
21
0.178425
0
LINE
8
BLACK
6
CONTINUOUS
10
1.29126
20
0.178425
11
1.29186
21
0.181438
0
LINE
8
BLACK
6
CONTINUOUS
10
1.29186
20
0.181438
11
1.29357
21
0.183993
0
LINE
8
BLACK
6
CONTINUOUS
10
1.29357
20
0.183993
11
1.29612
21
0.1857
0
LINE
8
BLACK
6
CONTINUOUS
10
1.29612
20
0.1857
11
1.29913
21
0.186299
0
LINE
8
BLACK
6
CONTINUOUS
10
1.29913
20
0.186299
11
1.35913
21
0.186299
0
LINE
8
BLACK
6
CONTINUOUS
10
1.35913
20
0.186299
11
1.36215
21
0.1857
0
LINE
8
BLACK
6
CONTINUOUS
10
2.68498
20
0.1857
11
2.68754
21
0.183993
0
LINE
8
BLACK
6
CONTINUOUS
10
2.68754
20
0.183993
11
2.68924
21
0.181438
0
LINE
8
BLACK
6
CONTINUOUS
10
2.68924
20
0.181438
11
2.68984
21
0.178425
0
LINE
8
BLACK
6
CONTINUOUS
10
2.68984
20
0.178425
11
2.68984
21
0.118425
0
LINE
8
BLACK
6
CONTINUOUS
10
2.68984
20
0.118425
11
2.68924
21
0.115412
0
LINE
8
BLACK
6
CONTINUOUS
10
2.68924
20
0.115412
11
2.68754
21
0.112857
0
LINE
8
BLACK
6
CONTINUOUS
10
2.68754
20
0.112857
11
2.68498
21
0.111151
0
LINE
8
BLACK
6
CONTINUOUS
10
2.68498
20
0.111151
11
2.68197
21
0.110551
0
LINE
8
BLACK
6
CONTINUOUS
10
2.68197
20
0.110551
11
2.62197
21
0.110551
0
LINE
8
BLACK
6
CONTINUOUS
10
2.62197
20
0.110551
11
2.61896
21
0.111151
0
LINE
8
BLACK
6
CONTINUOUS
10
2.61896
20
0.111151
11
2.6164
21
0.112857
0
LINE
8
BLACK
6
CONTINUOUS
10
2.6164
20
0.112857
11
2.61469
21
0.115412
0
LINE
8
BLACK
6
CONTINUOUS
10
2.61469
20
0.115412
11
2.61409
21
0.118425
0
LINE
8
BLACK
6
CONTINUOUS
10
2.61409
20
0.118425
11
2.61409
21
0.178425
0
LINE
8
BLACK
6
CONTINUOUS
10
2.61409
20
0.178425
11
2.61469
21
0.181438
0
LINE
8
BLACK
6
CONTINUOUS
10
2.61469
20
0.181438
11
2.6164
21
0.183993
0
LINE
8
BLACK
6
CONTINUOUS
10
2.6164
20
0.183993
11
2.61896
21
0.1857
0
LINE
8
BLACK
6
CONTINUOUS
10
2.61896
20
0.1857
11
2.62197
21
0.186299
0
LINE
8
BLACK
6
CONTINUOUS
10
2.62197
20
0.186299
11
2.68197
21
0.186299
0
LINE
8
BLACK
6
CONTINUOUS
10
2.68197
20
0.186299
11
2.68498
21
0.1857
0
LINE
8
BLACK
6
CONTINUOUS
10
1.46215
20
0.1857
11
1.4647
21
0.183993
0
LINE
8
BLACK
6
CONTINUOUS
10
1.4647
20
0.183993
11
1.46641
21
0.181438
0
LINE
8
BLACK
6
CONTINUOUS
10
1.46641
20
0.181438
11
1.46701
21
0.178425
0
LINE
8
BLACK
6
CONTINUOUS
10
1.46701
20
0.178425
11
1.46701
21
0.118425
0
LINE
8
BLACK
6
CONTINUOUS
10
1.46701
20
0.118425
11
1.46641
21
0.115412
0
LINE
8
BLACK
6
CONTINUOUS
10
1.46641
20
0.115412
11
1.4647
21
0.112857
0
LINE
8
BLACK
6
CONTINUOUS
10
1.4647
20
0.112857
11
1.46215
21
0.111151
0
LINE
8
BLACK
6
CONTINUOUS
10
1.46215
20
0.111151
11
1.45913
21
0.110551
0
LINE
8
BLACK
6
CONTINUOUS
10
1.45913
20
0.110551
11
1.39913
21
0.110551
0
LINE
8
BLACK
6
CONTINUOUS
10
1.39913
20
0.110551
11
1.39612
21
0.111151
0
LINE
8
BLACK
6
CONTINUOUS
10
1.39612
20
0.111151
11
1.39357
21
0.112857
0
LINE
8
BLACK
6
CONTINUOUS
10
1.39357
20
0.112857
11
1.39186
21
0.115412
0
LINE
8
BLACK
6
CONTINUOUS
10
1.39186
20
0.115412
11
1.39126
21
0.118425
0
LINE
8
BLACK
6
CONTINUOUS
10
1.39126
20
0.118425
11
1.39126
21
0.178425
0
LINE
8
BLACK
6
CONTINUOUS
10
1.39126
20
0.178425
11
1.39186
21
0.181438
0
LINE
8
BLACK
6
CONTINUOUS
10
1.39186
20
0.181438
11
1.39357
21
0.183993
0
LINE
8
BLACK
6
CONTINUOUS
10
1.39357
20
0.183993
11
1.39612
21
0.1857
0
LINE
8
BLACK
6
CONTINUOUS
10
1.39612
20
0.1857
11
1.39913
21
0.186299
0
LINE
8
BLACK
6
CONTINUOUS
10
1.39913
20
0.186299
11
1.45913
21
0.186299
0
LINE
8
BLACK
6
CONTINUOUS
10
1.45913
20
0.186299
11
1.46215
21
0.1857
0
LINE
8
BLACK
6
CONTINUOUS
10
1.86215
20
0.1857
11
1.8647
21
0.183993
0
LINE
8
BLACK
6
CONTINUOUS
10
1.8647
20
0.183993
11
1.86641
21
0.181438
0
LINE
8
BLACK
6
CONTINUOUS
10
1.86641
20
0.181438
11
1.86701
21
0.178425
0
LINE
8
BLACK
6
CONTINUOUS
10
1.86701
20
0.178425
11
1.86701
21
0.118425
0
LINE
8
BLACK
6
CONTINUOUS
10
1.86701
20
0.118425
11
1.86641
21
0.115412
0
LINE
8
BLACK
6
CONTINUOUS
10
1.86641
20
0.115412
11
1.8647
21
0.112857
0
LINE
8
BLACK
6
CONTINUOUS
10
1.8647
20
0.112857
11
1.86215
21
0.111151
0
LINE
8
BLACK
6
CONTINUOUS
10
1.86215
20
0.111151
11
1.85913
21
0.110551
0
LINE
8
BLACK
6
CONTINUOUS
10
1.85913
20
0.110551
11
1.79913
21
0.110551
0
LINE
8
BLACK
6
CONTINUOUS
10
1.79913
20
0.110551
11
1.79612
21
0.111151
0
LINE
8
BLACK
6
CONTINUOUS
10
1.79612
20
0.111151
11
1.79357
21
0.112857
0
LINE
8
BLACK
6
CONTINUOUS
10
1.79357
20
0.112857
11
1.79186
21
0.115412
0
LINE
8
BLACK
6
CONTINUOUS
10
1.79186
20
0.115412
11
1.79126
21
0.118425
0
LINE
8
BLACK
6
CONTINUOUS
10
1.79126
20
0.118425
11
1.79126
21
0.178425
0
LINE
8
BLACK
6
CONTINUOUS
10
1.79126
20
0.178425
11
1.79186
21
0.181438
0
LINE
8
BLACK
6
CONTINUOUS
10
1.79186
20
0.181438
11
1.79357
21
0.183993
0
LINE
8
BLACK
6
CONTINUOUS
10
1.79357
20
0.183993
11
1.79612
21
0.1857
0
LINE
8
BLACK
6
CONTINUOUS
10
1.79612
20
0.1857
11
1.79913
21
0.186299
0
LINE
8
BLACK
6
CONTINUOUS
10
1.79913
20
0.186299
11
1.85913
21
0.186299
0
LINE
8
BLACK
6
CONTINUOUS
10
1.85913
20
0.186299
11
1.86215
21
0.1857
0
LINE
8
BLACK
6
CONTINUOUS
10
3.00467
20
0.1857
11
3.00722
21
0.183993
0
LINE
8
BLACK
6
CONTINUOUS
10
3.00722
20
0.183993
11
3.00893
21
0.181438
0
LINE
8
BLACK
6
CONTINUOUS
10
3.00893
20
0.181438
11
3.00953
21
0.178425
0
LINE
8
BLACK
6
CONTINUOUS
10
3.00953
20
0.178425
11
3.00953
21
0.118425
0
LINE
8
BLACK
6
CONTINUOUS
10
3.00953
20
0.118425
11
3.00893
21
0.115412
0
LINE
8
BLACK
6
CONTINUOUS
10
3.00893
20
0.115412
11
3.00722
21
0.112857
0
LINE
8
BLACK
6
CONTINUOUS
10
3.00722
20
0.112857
11
3.00467
21
0.111151
0
LINE
8
BLACK
6
CONTINUOUS
10
3.00467
20
0.111151
11
3.00165
21
0.110551
0
LINE
8
BLACK
6
CONTINUOUS
10
3.00165
20
0.110551
11
2.94165
21
0.110551
0
LINE
8
BLACK
6
CONTINUOUS
10
2.94165
20
0.110551
11
2.93864
21
0.111151
0
LINE
8
BLACK
6
CONTINUOUS
10
2.93864
20
0.111151
11
2.93609
21
0.112857
0
LINE
8
BLACK
6
CONTINUOUS
10
2.93609
20
0.112857
11
2.93438
21
0.115412
0
LINE
8
BLACK
6
CONTINUOUS
10
2.93438
20
0.115412
11
2.93378
21
0.118425
0
LINE
8
BLACK
6
CONTINUOUS
10
2.93378
20
0.118425
11
2.93378
21
0.178425
0
LINE
8
BLACK
6
CONTINUOUS
10
2.93378
20
0.178425
11
2.93438
21
0.181438
0
LINE
8
BLACK
6
CONTINUOUS
10
2.93438
20
0.181438
11
2.93609
21
0.183993
0
LINE
8
BLACK
6
CONTINUOUS
10
2.93609
20
0.183993
11
2.93864
21
0.1857
0
LINE
8
BLACK
6
CONTINUOUS
10
2.93864
20
0.1857
11
2.94165
21
0.186299
0
LINE
8
BLACK
6
CONTINUOUS
10
2.94165
20
0.186299
11
3.00165
21
0.186299
0
LINE
8
BLACK
6
CONTINUOUS
10
3.00165
20
0.186299
11
3.00467
21
0.1857
0
LINE
8
BLACK
6
CONTINUOUS
10
3.20467
20
0.1857
11
3.20722
21
0.183993
0
LINE
8
BLACK
6
CONTINUOUS
10
3.20722
20
0.183993
11
3.20893
21
0.181438
0
LINE
8
BLACK
6
CONTINUOUS
10
3.20893
20
0.181438
11
3.20953
21
0.178425
0
LINE
8
BLACK
6
CONTINUOUS
10
3.20953
20
0.178425
11
3.20953
21
0.118425
0
LINE
8
BLACK
6
CONTINUOUS
10
3.20953
20
0.118425
11
3.20893
21
0.115412
0
LINE
8
BLACK
6
CONTINUOUS
10
3.20893
20
0.115412
11
3.20722
21
0.112857
0
LINE
8
BLACK
6
CONTINUOUS
10
3.20722
20
0.112857
11
3.20467
21
0.111151
0
LINE
8
BLACK
6
CONTINUOUS
10
3.20467
20
0.111151
11
3.20165
21
0.110551
0
LINE
8
BLACK
6
CONTINUOUS
10
3.20165
20
0.110551
11
3.14165
21
0.110551
0
LINE
8
BLACK
6
CONTINUOUS
10
3.14165
20
0.110551
11
3.13864
21
0.111151
0
LINE
8
BLACK
6
CONTINUOUS
10
3.13864
20
0.111151
11
3.13609
21
0.112857
0
LINE
8
BLACK
6
CONTINUOUS
10
3.13609
20
0.112857
11
3.13438
21
0.115412
0
LINE
8
BLACK
6
CONTINUOUS
10
3.13438
20
0.115412
11
3.13378
21
0.118425
0
LINE
8
BLACK
6
CONTINUOUS
10
3.13378
20
0.118425
11
3.13378
21
0.178425
0
LINE
8
BLACK
6
CONTINUOUS
10
3.13378
20
0.178425
11
3.13438
21
0.181438
0
LINE
8
BLACK
6
CONTINUOUS
10
3.13438
20
0.181438
11
3.13609
21
0.183993
0
LINE
8
BLACK
6
CONTINUOUS
10
3.13609
20
0.183993
11
3.13864
21
0.1857
0
LINE
8
BLACK
6
CONTINUOUS
10
3.13864
20
0.1857
11
3.14165
21
0.186299
0
LINE
8
BLACK
6
CONTINUOUS
10
3.14165
20
0.186299
11
3.20165
21
0.186299
0
LINE
8
BLACK
6
CONTINUOUS
10
3.20165
20
0.186299
11
3.20467
21
0.1857
0
LINE
8
BLACK
6
CONTINUOUS
10
2.38498
20
0.1857
11
2.38754
21
0.183993
0
LINE
8
BLACK
6
CONTINUOUS
10
2.38754
20
0.183993
11
2.38924
21
0.181438
0
LINE
8
BLACK
6
CONTINUOUS
10
2.38924
20
0.181438
11
2.38984
21
0.178425
0
LINE
8
BLACK
6
CONTINUOUS
10
2.38984
20
0.178425
11
2.38984
21
0.118425
0
LINE
8
BLACK
6
CONTINUOUS
10
2.38984
20
0.118425
11
2.38924
21
0.115412
0
LINE
8
BLACK
6
CONTINUOUS
10
2.38924
20
0.115412
11
2.38754
21
0.112857
0
LINE
8
BLACK
6
CONTINUOUS
10
2.38754
20
0.112857
11
2.38498
21
0.111151
0
LINE
8
BLACK
6
CONTINUOUS
10
2.38498
20
0.111151
11
2.38197
21
0.110551
0
LINE
8
BLACK
6
CONTINUOUS
10
2.38197
20
0.110551
11
2.32197
21
0.110551
0
LINE
8
BLACK
6
CONTINUOUS
10
2.32197
20
0.110551
11
2.31896
21
0.111151
0
LINE
8
BLACK
6
CONTINUOUS
10
2.31896
20
0.111151
11
2.3164
21
0.112857
0
LINE
8
BLACK
6
CONTINUOUS
10
2.3164
20
0.112857
11
2.31469
21
0.115412
0
LINE
8
BLACK
6
CONTINUOUS
10
2.31469
20
0.115412
11
2.31409
21
0.118425
0
LINE
8
BLACK
6
CONTINUOUS
10
2.31409
20
0.118425
11
2.31409
21
0.178425
0
LINE
8
BLACK
6
CONTINUOUS
10
2.31409
20
0.178425
11
2.31469
21
0.181438
0
LINE
8
BLACK
6
CONTINUOUS
10
2.31469
20
0.181438
11
2.3164
21
0.183993
0
LINE
8
BLACK
6
CONTINUOUS
10
2.3164
20
0.183993
11
2.31896
21
0.1857
0
LINE
8
BLACK
6
CONTINUOUS
10
2.31896
20
0.1857
11
2.32197
21
0.186299
0
LINE
8
BLACK
6
CONTINUOUS
10
2.32197
20
0.186299
11
2.38197
21
0.186299
0
LINE
8
BLACK
6
CONTINUOUS
10
2.38197
20
0.186299
11
2.38498
21
0.1857
0
LINE
8
BLACK
6
CONTINUOUS
10
3.10467
20
0.1857
11
3.10722
21
0.183993
0
LINE
8
BLACK
6
CONTINUOUS
10
3.10722
20
0.183993
11
3.10893
21
0.181438
0
LINE
8
BLACK
6
CONTINUOUS
10
3.10893
20
0.181438
11
3.10953
21
0.178425
0
LINE
8
BLACK
6
CONTINUOUS
10
3.10953
20
0.178425
11
3.10953
21
0.118425
0
LINE
8
BLACK
6
CONTINUOUS
10
3.10953
20
0.118425
11
3.10893
21
0.115412
0
LINE
8
BLACK
6
CONTINUOUS
10
3.10893
20
0.115412
11
3.10722
21
0.112857
0
LINE
8
BLACK
6
CONTINUOUS
10
3.10722
20
0.112857
11
3.10467
21
0.111151
0
LINE
8
BLACK
6
CONTINUOUS
10
3.10467
20
0.111151
11
3.10165
21
0.110551
0
LINE
8
BLACK
6
CONTINUOUS
10
3.10165
20
0.110551
11
3.04165
21
0.110551
0
LINE
8
BLACK
6
CONTINUOUS
10
3.04165
20
0.110551
11
3.03864
21
0.111151
0
LINE
8
BLACK
6
CONTINUOUS
10
3.03864
20
0.111151
11
3.03609
21
0.112857
0
LINE
8
BLACK
6
CONTINUOUS
10
3.03609
20
0.112857
11
3.03438
21
0.115412
0
LINE
8
BLACK
6
CONTINUOUS
10
3.03438
20
0.115412
11
3.03378
21
0.118425
0
LINE
8
BLACK
6
CONTINUOUS
10
3.03378
20
0.118425
11
3.03378
21
0.178425
0
LINE
8
BLACK
6
CONTINUOUS
10
3.03378
20
0.178425
11
3.03438
21
0.181438
0
LINE
8
BLACK
6
CONTINUOUS
10
3.03438
20
0.181438
11
3.03609
21
0.183993
0
LINE
8
BLACK
6
CONTINUOUS
10
3.03609
20
0.183993
11
3.03864
21
0.1857
0
LINE
8
BLACK
6
CONTINUOUS
10
3.03864
20
0.1857
11
3.04165
21
0.186299
0
LINE
8
BLACK
6
CONTINUOUS
10
3.04165
20
0.186299
11
3.10165
21
0.186299
0
LINE
8
BLACK
6
CONTINUOUS
10
3.10165
20
0.186299
11
3.10467
21
0.1857
0
LINE
8
BLACK
6
CONTINUOUS
10
2.58498
20
0.1857
11
2.58754
21
0.183993
0
LINE
8
BLACK
6
CONTINUOUS
10
2.58754
20
0.183993
11
2.58924
21
0.181438
0
LINE
8
BLACK
6
CONTINUOUS
10
2.58924
20
0.181438
11
2.58984
21
0.178425
0
LINE
8
BLACK
6
CONTINUOUS
10
2.58984
20
0.178425
11
2.58984
21
0.118425
0
LINE
8
BLACK
6
CONTINUOUS
10
2.58984
20
0.118425
11
2.58924
21
0.115412
0
LINE
8
BLACK
6
CONTINUOUS
10
2.58924
20
0.115412
11
2.58754
21
0.112857
0
LINE
8
BLACK
6
CONTINUOUS
10
2.58754
20
0.112857
11
2.58498
21
0.111151
0
LINE
8
BLACK
6
CONTINUOUS
10
2.58498
20
0.111151
11
2.58197
21
0.110551
0
LINE
8
BLACK
6
CONTINUOUS
10
2.58197
20
0.110551
11
2.52197
21
0.110551
0
LINE
8
BLACK
6
CONTINUOUS
10
2.52197
20
0.110551
11
2.51896
21
0.111151
0
LINE
8
BLACK
6
CONTINUOUS
10
2.51896
20
0.111151
11
2.5164
21
0.112857
0
LINE
8
BLACK
6
CONTINUOUS
10
2.5164
20
0.112857
11
2.51469
21
0.115412
0
LINE
8
BLACK
6
CONTINUOUS
10
2.51469
20
0.115412
11
2.51409
21
0.118425
0
LINE
8
BLACK
6
CONTINUOUS
10
2.51409
20
0.118425
11
2.51409
21
0.178425
0
LINE
8
BLACK
6
CONTINUOUS
10
2.51409
20
0.178425
11
2.51469
21
0.181438
0
LINE
8
BLACK
6
CONTINUOUS
10
2.51469
20
0.181438
11
2.5164
21
0.183993
0
LINE
8
BLACK
6
CONTINUOUS
10
2.5164
20
0.183993
11
2.51896
21
0.1857
0
LINE
8
BLACK
6
CONTINUOUS
10
2.51896
20
0.1857
11
2.52197
21
0.186299
0
LINE
8
BLACK
6
CONTINUOUS
10
2.52197
20
0.186299
11
2.58197
21
0.186299
0
LINE
8
BLACK
6
CONTINUOUS
10
2.58197
20
0.186299
11
2.58498
21
0.1857
0
LINE
8
BLACK
6
CONTINUOUS
10
2.48498
20
0.1857
11
2.48754
21
0.183993
0
LINE
8
BLACK
6
CONTINUOUS
10
2.48754
20
0.183993
11
2.48924
21
0.181438
0
LINE
8
BLACK
6
CONTINUOUS
10
2.48924
20
0.181438
11
2.48984
21
0.178425
0
LINE
8
BLACK
6
CONTINUOUS
10
2.48984
20
0.178425
11
2.48984
21
0.118425
0
LINE
8
BLACK
6
CONTINUOUS
10
2.48984
20
0.118425
11
2.48924
21
0.115412
0
LINE
8
BLACK
6
CONTINUOUS
10
2.48924
20
0.115412
11
2.48754
21
0.112857
0
LINE
8
BLACK
6
CONTINUOUS
10
2.48754
20
0.112857
11
2.48498
21
0.111151
0
LINE
8
BLACK
6
CONTINUOUS
10
2.48498
20
0.111151
11
2.48197
21
0.110551
0
LINE
8
BLACK
6
CONTINUOUS
10
2.48197
20
0.110551
11
2.42197
21
0.110551
0
LINE
8
BLACK
6
CONTINUOUS
10
2.42197
20
0.110551
11
2.41896
21
0.111151
0
LINE
8
BLACK
6
CONTINUOUS
10
2.41896
20
0.111151
11
2.4164
21
0.112857
0
LINE
8
BLACK
6
CONTINUOUS
10
2.4164
20
0.112857
11
2.41469
21
0.115412
0
LINE
8
BLACK
6
CONTINUOUS
10
2.41469
20
0.115412
11
2.41409
21
0.118425
0
LINE
8
BLACK
6
CONTINUOUS
10
2.41409
20
0.118425
11
2.41409
21
0.178425
0
LINE
8
BLACK
6
CONTINUOUS
10
2.41409
20
0.178425
11
2.41469
21
0.181438
0
LINE
8
BLACK
6
CONTINUOUS
10
2.41469
20
0.181438
11
2.4164
21
0.183993
0
LINE
8
BLACK
6
CONTINUOUS
10
2.4164
20
0.183993
11
2.41896
21
0.1857
0
LINE
8
BLACK
6
CONTINUOUS
10
2.41896
20
0.1857
11
2.42197
21
0.186299
0
LINE
8
BLACK
6
CONTINUOUS
10
2.42197
20
0.186299
11
2.48197
21
0.186299
0
LINE
8
BLACK
6
CONTINUOUS
10
2.48197
20
0.186299
11
2.48498
21
0.1857
0
LINE
8
BLACK
6
CONTINUOUS
10
1.76215
20
0.1857
11
1.7647
21
0.183993
0
LINE
8
BLACK
6
CONTINUOUS
10
1.7647
20
0.183993
11
1.76641
21
0.181438
0
LINE
8
BLACK
6
CONTINUOUS
10
1.76641
20
0.181438
11
1.76701
21
0.178425
0
LINE
8
BLACK
6
CONTINUOUS
10
1.76701
20
0.178425
11
1.76701
21
0.118425
0
LINE
8
BLACK
6
CONTINUOUS
10
1.76701
20
0.118425
11
1.76641
21
0.115412
0
LINE
8
BLACK
6
CONTINUOUS
10
1.76641
20
0.115412
11
1.7647
21
0.112857
0
LINE
8
BLACK
6
CONTINUOUS
10
1.7647
20
0.112857
11
1.76215
21
0.111151
0
LINE
8
BLACK
6
CONTINUOUS
10
1.76215
20
0.111151
11
1.75913
21
0.110551
0
LINE
8
BLACK
6
CONTINUOUS
10
1.75913
20
0.110551
11
1.69913
21
0.110551
0
LINE
8
BLACK
6
CONTINUOUS
10
1.69913
20
0.110551
11
1.69612
21
0.111151
0
LINE
8
BLACK
6
CONTINUOUS
10
1.69612
20
0.111151
11
1.69357
21
0.112857
0
LINE
8
BLACK
6
CONTINUOUS
10
1.69357
20
0.112857
11
1.69186
21
0.115412
0
LINE
8
BLACK
6
CONTINUOUS
10
1.69186
20
0.115412
11
1.69126
21
0.118425
0
LINE
8
BLACK
6
CONTINUOUS
10
1.69126
20
0.118425
11
1.69126
21
0.178425
0
LINE
8
BLACK
6
CONTINUOUS
10
1.69126
20
0.178425
11
1.69186
21
0.181438
0
LINE
8
BLACK
6
CONTINUOUS
10
1.69186
20
0.181438
11
1.69357
21
0.183993
0
LINE
8
BLACK
6
CONTINUOUS
10
1.69357
20
0.183993
11
1.69612
21
0.1857
0
LINE
8
BLACK
6
CONTINUOUS
10
1.69612
20
0.1857
11
1.69913
21
0.186299
0
LINE
8
BLACK
6
CONTINUOUS
10
1.69913
20
0.186299
11
1.75913
21
0.186299
0
LINE
8
BLACK
6
CONTINUOUS
10
1.75913
20
0.186299
11
1.76215
21
0.1857
0
LINE
8
BLACK
6
CONTINUOUS
10
1.66215
20
0.1857
11
1.6647
21
0.183993
0
LINE
8
BLACK
6
CONTINUOUS
10
1.6647
20
0.183993
11
1.66641
21
0.181438
0
LINE
8
BLACK
6
CONTINUOUS
10
1.66641
20
0.181438
11
1.66701
21
0.178425
0
LINE
8
BLACK
6
CONTINUOUS
10
1.66701
20
0.178425
11
1.66701
21
0.118425
0
LINE
8
BLACK
6
CONTINUOUS
10
1.66701
20
0.118425
11
1.66641
21
0.115412
0
LINE
8
BLACK
6
CONTINUOUS
10
1.66641
20
0.115412
11
1.6647
21
0.112857
0
LINE
8
BLACK
6
CONTINUOUS
10
1.6647
20
0.112857
11
1.66215
21
0.111151
0
LINE
8
BLACK
6
CONTINUOUS
10
1.66215
20
0.111151
11
1.65913
21
0.110551
0
LINE
8
BLACK
6
CONTINUOUS
10
1.65913
20
0.110551
11
1.59913
21
0.110551
0
LINE
8
BLACK
6
CONTINUOUS
10
1.59913
20
0.110551
11
1.59612
21
0.111151
0
LINE
8
BLACK
6
CONTINUOUS
10
1.59612
20
0.111151
11
1.59357
21
0.112857
0
LINE
8
BLACK
6
CONTINUOUS
10
1.59357
20
0.112857
11
1.59186
21
0.115412
0
LINE
8
BLACK
6
CONTINUOUS
10
1.59186
20
0.115412
11
1.59126
21
0.118425
0
LINE
8
BLACK
6
CONTINUOUS
10
1.59126
20
0.118425
11
1.59126
21
0.178425
0
LINE
8
BLACK
6
CONTINUOUS
10
1.59126
20
0.178425
11
1.59186
21
0.181438
0
LINE
8
BLACK
6
CONTINUOUS
10
1.59186
20
0.181438
11
1.59357
21
0.183993
0
LINE
8
BLACK
6
CONTINUOUS
10
1.59357
20
0.183993
11
1.59612
21
0.1857
0
LINE
8
BLACK
6
CONTINUOUS
10
1.59612
20
0.1857
11
1.59913
21
0.186299
0
LINE
8
BLACK
6
CONTINUOUS
10
1.59913
20
0.186299
11
1.65913
21
0.186299
0
LINE
8
BLACK
6
CONTINUOUS
10
1.65913
20
0.186299
11
1.66215
21
0.1857
0
LINE
8
BLACK
6
CONTINUOUS
10
2.68498
20
0.2857
11
2.68754
21
0.283993
0
LINE
8
BLACK
6
CONTINUOUS
10
2.68754
20
0.283993
11
2.68924
21
0.281438
0
LINE
8
BLACK
6
CONTINUOUS
10
2.68924
20
0.281438
11
2.68984
21
0.278425
0
LINE
8
BLACK
6
CONTINUOUS
10
2.68984
20
0.278425
11
2.68984
21
0.218425
0
LINE
8
BLACK
6
CONTINUOUS
10
2.68984
20
0.218425
11
2.68924
21
0.215412
0
LINE
8
BLACK
6
CONTINUOUS
10
2.68924
20
0.215412
11
2.68754
21
0.212857
0
LINE
8
BLACK
6
CONTINUOUS
10
2.68754
20
0.212857
11
2.68498
21
0.211151
0
LINE
8
BLACK
6
CONTINUOUS
10
2.68498
20
0.211151
11
2.68197
21
0.210551
0
LINE
8
BLACK
6
CONTINUOUS
10
2.68197
20
0.210551
11
2.62197
21
0.210551
0
LINE
8
BLACK
6
CONTINUOUS
10
2.62197
20
0.210551
11
2.61896
21
0.211151
0
LINE
8
BLACK
6
CONTINUOUS
10
2.61896
20
0.211151
11
2.6164
21
0.212857
0
LINE
8
BLACK
6
CONTINUOUS
10
2.6164
20
0.212857
11
2.61469
21
0.215412
0
LINE
8
BLACK
6
CONTINUOUS
10
2.61469
20
0.215412
11
2.61409
21
0.218425
0
LINE
8
BLACK
6
CONTINUOUS
10
2.61409
20
0.218425
11
2.61409
21
0.278425
0
LINE
8
BLACK
6
CONTINUOUS
10
2.61409
20
0.278425
11
2.61469
21
0.281438
0
LINE
8
BLACK
6
CONTINUOUS
10
2.61469
20
0.281438
11
2.6164
21
0.283993
0
LINE
8
BLACK
6
CONTINUOUS
10
2.6164
20
0.283993
11
2.61896
21
0.2857
0
LINE
8
BLACK
6
CONTINUOUS
10
2.61896
20
0.2857
11
2.62197
21
0.286299
0
LINE
8
BLACK
6
CONTINUOUS
10
2.62197
20
0.286299
11
2.68197
21
0.286299
0
LINE
8
BLACK
6
CONTINUOUS
10
2.68197
20
0.286299
11
2.68498
21
0.2857
0
LINE
8
BLACK
6
CONTINUOUS
10
2.38498
20
0.2857
11
2.38754
21
0.283993
0
LINE
8
BLACK
6
CONTINUOUS
10
2.38754
20
0.283993
11
2.38924
21
0.281438
0
LINE
8
BLACK
6
CONTINUOUS
10
2.38924
20
0.281438
11
2.38984
21
0.278425
0
LINE
8
BLACK
6
CONTINUOUS
10
2.38984
20
0.278425
11
2.38984
21
0.218425
0
LINE
8
BLACK
6
CONTINUOUS
10
2.38984
20
0.218425
11
2.38924
21
0.215412
0
LINE
8
BLACK
6
CONTINUOUS
10
2.38924
20
0.215412
11
2.38754
21
0.212857
0
LINE
8
BLACK
6
CONTINUOUS
10
2.38754
20
0.212857
11
2.38498
21
0.211151
0
LINE
8
BLACK
6
CONTINUOUS
10
2.38498
20
0.211151
11
2.38197
21
0.210551
0
LINE
8
BLACK
6
CONTINUOUS
10
2.38197
20
0.210551
11
2.32197
21
0.210551
0
LINE
8
BLACK
6
CONTINUOUS
10
2.32197
20
0.210551
11
2.31896
21
0.211151
0
LINE
8
BLACK
6
CONTINUOUS
10
2.31896
20
0.211151
11
2.3164
21
0.212857
0
LINE
8
BLACK
6
CONTINUOUS
10
2.3164
20
0.212857
11
2.31469
21
0.215412
0
LINE
8
BLACK
6
CONTINUOUS
10
2.31469
20
0.215412
11
2.31409
21
0.218425
0
LINE
8
BLACK
6
CONTINUOUS
10
2.31409
20
0.218425
11
2.31409
21
0.278425
0
LINE
8
BLACK
6
CONTINUOUS
10
2.31409
20
0.278425
11
2.31469
21
0.281438
0
LINE
8
BLACK
6
CONTINUOUS
10
2.31469
20
0.281438
11
2.3164
21
0.283993
0
LINE
8
BLACK
6
CONTINUOUS
10
2.3164
20
0.283993
11
2.31896
21
0.2857
0
LINE
8
BLACK
6
CONTINUOUS
10
2.31896
20
0.2857
11
2.32197
21
0.286299
0
LINE
8
BLACK
6
CONTINUOUS
10
2.32197
20
0.286299
11
2.38197
21
0.286299
0
LINE
8
BLACK
6
CONTINUOUS
10
2.38197
20
0.286299
11
2.38498
21
0.2857
0
LINE
8
BLACK
6
CONTINUOUS
10
2.78498
20
0.2857
11
2.78754
21
0.283993
0
LINE
8
BLACK
6
CONTINUOUS
10
2.78754
20
0.283993
11
2.78924
21
0.281438
0
LINE
8
BLACK
6
CONTINUOUS
10
2.78924
20
0.281438
11
2.78984
21
0.278425
0
LINE
8
BLACK
6
CONTINUOUS
10
2.78984
20
0.278425
11
2.78984
21
0.218425
0
LINE
8
BLACK
6
CONTINUOUS
10
2.78984
20
0.218425
11
2.78924
21
0.215412
0
LINE
8
BLACK
6
CONTINUOUS
10
2.78924
20
0.215412
11
2.78754
21
0.212857
0
LINE
8
BLACK
6
CONTINUOUS
10
2.78754
20
0.212857
11
2.78498
21
0.211151
0
LINE
8
BLACK
6
CONTINUOUS
10
2.78498
20
0.211151
11
2.78197
21
0.210551
0
LINE
8
BLACK
6
CONTINUOUS
10
2.78197
20
0.210551
11
2.72197
21
0.210551
0
LINE
8
BLACK
6
CONTINUOUS
10
2.72197
20
0.210551
11
2.71896
21
0.211151
0
LINE
8
BLACK
6
CONTINUOUS
10
2.71896
20
0.211151
11
2.7164
21
0.212857
0
LINE
8
BLACK
6
CONTINUOUS
10
2.7164
20
0.212857
11
2.71469
21
0.215412
0
LINE
8
BLACK
6
CONTINUOUS
10
2.71469
20
0.215412
11
2.71409
21
0.218425
0
LINE
8
BLACK
6
CONTINUOUS
10
2.71409
20
0.218425
11
2.71409
21
0.278425
0
LINE
8
BLACK
6
CONTINUOUS
10
2.71409
20
0.278425
11
2.71469
21
0.281438
0
LINE
8
BLACK
6
CONTINUOUS
10
2.71469
20
0.281438
11
2.7164
21
0.283993
0
LINE
8
BLACK
6
CONTINUOUS
10
2.7164
20
0.283993
11
2.71896
21
0.2857
0
LINE
8
BLACK
6
CONTINUOUS
10
2.71896
20
0.2857
11
2.72197
21
0.286299
0
LINE
8
BLACK
6
CONTINUOUS
10
2.72197
20
0.286299
11
2.78197
21
0.286299
0
LINE
8
BLACK
6
CONTINUOUS
10
2.78197
20
0.286299
11
2.78498
21
0.2857
0
LINE
8
BLACK
6
CONTINUOUS
10
2.48498
20
0.2857
11
2.48754
21
0.283993
0
LINE
8
BLACK
6
CONTINUOUS
10
2.48754
20
0.283993
11
2.48924
21
0.281438
0
LINE
8
BLACK
6
CONTINUOUS
10
2.48924
20
0.281438
11
2.48984
21
0.278425
0
LINE
8
BLACK
6
CONTINUOUS
10
2.48984
20
0.278425
11
2.48984
21
0.218425
0
LINE
8
BLACK
6
CONTINUOUS
10
2.48984
20
0.218425
11
2.48924
21
0.215412
0
LINE
8
BLACK
6
CONTINUOUS
10
2.48924
20
0.215412
11
2.48754
21
0.212857
0
LINE
8
BLACK
6
CONTINUOUS
10
2.48754
20
0.212857
11
2.48498
21
0.211151
0
LINE
8
BLACK
6
CONTINUOUS
10
2.48498
20
0.211151
11
2.48197
21
0.210551
0
LINE
8
BLACK
6
CONTINUOUS
10
2.48197
20
0.210551
11
2.42197
21
0.210551
0
LINE
8
BLACK
6
CONTINUOUS
10
2.42197
20
0.210551
11
2.41896
21
0.211151
0
LINE
8
BLACK
6
CONTINUOUS
10
2.41896
20
0.211151
11
2.4164
21
0.212857
0
LINE
8
BLACK
6
CONTINUOUS
10
2.4164
20
0.212857
11
2.41469
21
0.215412
0
LINE
8
BLACK
6
CONTINUOUS
10
2.41469
20
0.215412
11
2.41409
21
0.218425
0
LINE
8
BLACK
6
CONTINUOUS
10
2.41409
20
0.218425
11
2.41409
21
0.278425
0
LINE
8
BLACK
6
CONTINUOUS
10
2.41409
20
0.278425
11
2.41469
21
0.281438
0
LINE
8
BLACK
6
CONTINUOUS
10
2.41469
20
0.281438
11
2.4164
21
0.283993
0
LINE
8
BLACK
6
CONTINUOUS
10
2.4164
20
0.283993
11
2.41896
21
0.2857
0
LINE
8
BLACK
6
CONTINUOUS
10
2.41896
20
0.2857
11
2.42197
21
0.286299
0
LINE
8
BLACK
6
CONTINUOUS
10
2.42197
20
0.286299
11
2.48197
21
0.286299
0
LINE
8
BLACK
6
CONTINUOUS
10
2.48197
20
0.286299
11
2.48498
21
0.2857
0
LINE
8
BLACK
6
CONTINUOUS
10
2.58498
20
0.2857
11
2.58754
21
0.283993
0
LINE
8
BLACK
6
CONTINUOUS
10
2.58754
20
0.283993
11
2.58924
21
0.281438
0
LINE
8
BLACK
6
CONTINUOUS
10
2.58924
20
0.281438
11
2.58984
21
0.278425
0
LINE
8
BLACK
6
CONTINUOUS
10
2.58984
20
0.278425
11
2.58984
21
0.218425
0
LINE
8
BLACK
6
CONTINUOUS
10
2.58984
20
0.218425
11
2.58924
21
0.215412
0
LINE
8
BLACK
6
CONTINUOUS
10
2.58924
20
0.215412
11
2.58754
21
0.212857
0
LINE
8
BLACK
6
CONTINUOUS
10
2.58754
20
0.212857
11
2.58498
21
0.211151
0
LINE
8
BLACK
6
CONTINUOUS
10
2.58498
20
0.211151
11
2.58197
21
0.210551
0
LINE
8
BLACK
6
CONTINUOUS
10
2.58197
20
0.210551
11
2.52197
21
0.210551
0
LINE
8
BLACK
6
CONTINUOUS
10
2.52197
20
0.210551
11
2.51896
21
0.211151
0
LINE
8
BLACK
6
CONTINUOUS
10
2.51896
20
0.211151
11
2.5164
21
0.212857
0
LINE
8
BLACK
6
CONTINUOUS
10
2.5164
20
0.212857
11
2.51469
21
0.215412
0
LINE
8
BLACK
6
CONTINUOUS
10
2.51469
20
0.215412
11
2.51409
21
0.218425
0
LINE
8
BLACK
6
CONTINUOUS
10
2.51409
20
0.218425
11
2.51409
21
0.278425
0
LINE
8
BLACK
6
CONTINUOUS
10
2.51409
20
0.278425
11
2.51469
21
0.281438
0
LINE
8
BLACK
6
CONTINUOUS
10
2.51469
20
0.281438
11
2.5164
21
0.283993
0
LINE
8
BLACK
6
CONTINUOUS
10
2.5164
20
0.283993
11
2.51896
21
0.2857
0
LINE
8
BLACK
6
CONTINUOUS
10
2.51896
20
0.2857
11
2.52197
21
0.286299
0
LINE
8
BLACK
6
CONTINUOUS
10
2.52197
20
0.286299
11
2.58197
21
0.286299
0
LINE
8
BLACK
6
CONTINUOUS
10
2.58197
20
0.286299
11
2.58498
21
0.2857
0
LINE
8
BLACK
6
CONTINUOUS
10
0.662147
20
0.2857
11
0.664702
21
0.283993
0
LINE
8
BLACK
6
CONTINUOUS
10
0.664702
20
0.283993
11
0.666409
21
0.281438
0
LINE
8
BLACK
6
CONTINUOUS
10
0.666409
20
0.281438
11
0.667008
21
0.278425
0
LINE
8
BLACK
6
CONTINUOUS
10
0.667008
20
0.278425
11
0.667008
21
0.218425
0
LINE
8
BLACK
6
CONTINUOUS
10
0.667008
20
0.218425
11
0.666409
21
0.215412
0
LINE
8
BLACK
6
CONTINUOUS
10
0.666409
20
0.215412
11
0.664702
21
0.212857
0
LINE
8
BLACK
6
CONTINUOUS
10
0.664702
20
0.212857
11
0.662147
21
0.211151
0
LINE
8
BLACK
6
CONTINUOUS
10
0.662147
20
0.211151
11
0.659134
21
0.210551
0
LINE
8
BLACK
6
CONTINUOUS
10
0.659134
20
0.210551
11
0.599134
21
0.210551
0
LINE
8
BLACK
6
CONTINUOUS
10
0.599134
20
0.210551
11
0.596121
21
0.211151
0
LINE
8
BLACK
6
CONTINUOUS
10
0.596121
20
0.211151
11
0.593566
21
0.212857
0
LINE
8
BLACK
6
CONTINUOUS
10
0.593566
20
0.212857
11
0.591859
21
0.215412
0
LINE
8
BLACK
6
CONTINUOUS
10
0.591859
20
0.215412
11
0.59126
21
0.218425
0
LINE
8
BLACK
6
CONTINUOUS
10
0.59126
20
0.218425
11
0.59126
21
0.278425
0
LINE
8
BLACK
6
CONTINUOUS
10
0.59126
20
0.278425
11
0.591859
21
0.281438
0
LINE
8
BLACK
6
CONTINUOUS
10
0.591859
20
0.281438
11
0.593566
21
0.283993
0
LINE
8
BLACK
6
CONTINUOUS
10
0.593566
20
0.283993
11
0.596121
21
0.2857
0
LINE
8
BLACK
6
CONTINUOUS
10
0.596121
20
0.2857
11
0.599134
21
0.286299
0
LINE
8
BLACK
6
CONTINUOUS
10
0.599134
20
0.286299
11
0.659134
21
0.286299
0
LINE
8
BLACK
6
CONTINUOUS
10
0.659134
20
0.286299
11
0.662147
21
0.2857
0
LINE
8
BLACK
6
CONTINUOUS
10
3.10467
20
0.2857
11
3.10722
21
0.283993
0
LINE
8
BLACK
6
CONTINUOUS
10
3.10722
20
0.283993
11
3.10893
21
0.281438
0
LINE
8
BLACK
6
CONTINUOUS
10
3.10893
20
0.281438
11
3.10953
21
0.278425
0
LINE
8
BLACK
6
CONTINUOUS
10
3.10953
20
0.278425
11
3.10953
21
0.218425
0
LINE
8
BLACK
6
CONTINUOUS
10
3.10953
20
0.218425
11
3.10893
21
0.215412
0
LINE
8
BLACK
6
CONTINUOUS
10
3.10893
20
0.215412
11
3.10722
21
0.212857
0
LINE
8
BLACK
6
CONTINUOUS
10
3.10722
20
0.212857
11
3.10467
21
0.211151
0
LINE
8
BLACK
6
CONTINUOUS
10
3.10467
20
0.211151
11
3.10165
21
0.210551
0
LINE
8
BLACK
6
CONTINUOUS
10
3.10165
20
0.210551
11
3.04165
21
0.210551
0
LINE
8
BLACK
6
CONTINUOUS
10
3.04165
20
0.210551
11
3.03864
21
0.211151
0
LINE
8
BLACK
6
CONTINUOUS
10
3.03864
20
0.211151
11
3.03609
21
0.212857
0
LINE
8
BLACK
6
CONTINUOUS
10
3.03609
20
0.212857
11
3.03438
21
0.215412
0
LINE
8
BLACK
6
CONTINUOUS
10
3.03438
20
0.215412
11
3.03378
21
0.218425
0
LINE
8
BLACK
6
CONTINUOUS
10
3.03378
20
0.218425
11
3.03378
21
0.278425
0
LINE
8
BLACK
6
CONTINUOUS
10
3.03378
20
0.278425
11
3.03438
21
0.281438
0
LINE
8
BLACK
6
CONTINUOUS
10
3.03438
20
0.281438
11
3.03609
21
0.283993
0
LINE
8
BLACK
6
CONTINUOUS
10
3.03609
20
0.283993
11
3.03864
21
0.2857
0
LINE
8
BLACK
6
CONTINUOUS
10
3.03864
20
0.2857
11
3.04165
21
0.286299
0
LINE
8
BLACK
6
CONTINUOUS
10
3.04165
20
0.286299
11
3.10165
21
0.286299
0
LINE
8
BLACK
6
CONTINUOUS
10
3.10165
20
0.286299
11
3.10467
21
0.2857
0
LINE
8
BLACK
6
CONTINUOUS
10
3.00467
20
0.2857
11
3.00722
21
0.283993
0
LINE
8
BLACK
6
CONTINUOUS
10
3.00722
20
0.283993
11
3.00893
21
0.281438
0
LINE
8
BLACK
6
CONTINUOUS
10
3.00893
20
0.281438
11
3.00953
21
0.278425
0
LINE
8
BLACK
6
CONTINUOUS
10
3.00953
20
0.278425
11
3.00953
21
0.218425
0
LINE
8
BLACK
6
CONTINUOUS
10
3.00953
20
0.218425
11
3.00893
21
0.215412
0
LINE
8
BLACK
6
CONTINUOUS
10
3.00893
20
0.215412
11
3.00722
21
0.212857
0
LINE
8
BLACK
6
CONTINUOUS
10
3.00722
20
0.212857
11
3.00467
21
0.211151
0
LINE
8
BLACK
6
CONTINUOUS
10
3.00467
20
0.211151
11
3.00165
21
0.210551
0
LINE
8
BLACK
6
CONTINUOUS
10
3.00165
20
0.210551
11
2.94165
21
0.210551
0
LINE
8
BLACK
6
CONTINUOUS
10
2.94165
20
0.210551
11
2.93864
21
0.211151
0
LINE
8
BLACK
6
CONTINUOUS
10
2.93864
20
0.211151
11
2.93609
21
0.212857
0
LINE
8
BLACK
6
CONTINUOUS
10
2.93609
20
0.212857
11
2.93438
21
0.215412
0
LINE
8
BLACK
6
CONTINUOUS
10
2.93438
20
0.215412
11
2.93378
21
0.218425
0
LINE
8
BLACK
6
CONTINUOUS
10
2.93378
20
0.218425
11
2.93378
21
0.278425
0
LINE
8
BLACK
6
CONTINUOUS
10
2.93378
20
0.278425
11
2.93438
21
0.281438
0
LINE
8
BLACK
6
CONTINUOUS
10
2.93438
20
0.281438
11
2.93609
21
0.283993
0
LINE
8
BLACK
6
CONTINUOUS
10
2.93609
20
0.283993
11
2.93864
21
0.2857
0
LINE
8
BLACK
6
CONTINUOUS
10
2.93864
20
0.2857
11
2.94165
21
0.286299
0
LINE
8
BLACK
6
CONTINUOUS
10
2.94165
20
0.286299
11
3.00165
21
0.286299
0
LINE
8
BLACK
6
CONTINUOUS
10
3.00165
20
0.286299
11
3.00467
21
0.2857
0
LINE
8
BLACK
6
CONTINUOUS
10
0.762147
20
0.2857
11
0.764702
21
0.283993
0
LINE
8
BLACK
6
CONTINUOUS
10
0.764702
20
0.283993
11
0.766409
21
0.281438
0
LINE
8
BLACK
6
CONTINUOUS
10
0.766409
20
0.281438
11
0.767008
21
0.278425
0
LINE
8
BLACK
6
CONTINUOUS
10
0.767008
20
0.278425
11
0.767008
21
0.218425
0
LINE
8
BLACK
6
CONTINUOUS
10
0.767008
20
0.218425
11
0.766409
21
0.215412
0
LINE
8
BLACK
6
CONTINUOUS
10
0.766409
20
0.215412
11
0.764702
21
0.212857
0
LINE
8
BLACK
6
CONTINUOUS
10
0.764702
20
0.212857
11
0.762147
21
0.211151
0
LINE
8
BLACK
6
CONTINUOUS
10
0.762147
20
0.211151
11
0.759134
21
0.210551
0
LINE
8
BLACK
6
CONTINUOUS
10
0.759134
20
0.210551
11
0.699134
21
0.210551
0
LINE
8
BLACK
6
CONTINUOUS
10
0.699134
20
0.210551
11
0.696121
21
0.211151
0
LINE
8
BLACK
6
CONTINUOUS
10
0.696121
20
0.211151
11
0.693566
21
0.212857
0
LINE
8
BLACK
6
CONTINUOUS
10
0.693566
20
0.212857
11
0.691859
21
0.215412
0
LINE
8
BLACK
6
CONTINUOUS
10
0.691859
20
0.215412
11
0.69126
21
0.218425
0
LINE
8
BLACK
6
CONTINUOUS
10
0.69126
20
0.218425
11
0.69126
21
0.278425
0
LINE
8
BLACK
6
CONTINUOUS
10
0.69126
20
0.278425
11
0.691859
21
0.281438
0
LINE
8
BLACK
6
CONTINUOUS
10
0.691859
20
0.281438
11
0.693566
21
0.283993
0
LINE
8
BLACK
6
CONTINUOUS
10
0.693566
20
0.283993
11
0.696121
21
0.2857
0
LINE
8
BLACK
6
CONTINUOUS
10
0.696121
20
0.2857
11
0.699134
21
0.286299
0
LINE
8
BLACK
6
CONTINUOUS
10
0.699134
20
0.286299
11
0.759134
21
0.286299
0
LINE
8
BLACK
6
CONTINUOUS
10
0.759134
20
0.286299
11
0.762147
21
0.2857
0
LINE
8
BLACK
6
CONTINUOUS
10
0.862147
20
0.2857
11
0.864702
21
0.283993
0
LINE
8
BLACK
6
CONTINUOUS
10
0.864702
20
0.283993
11
0.866409
21
0.281438
0
LINE
8
BLACK
6
CONTINUOUS
10
0.866409
20
0.281438
11
0.867008
21
0.278425
0
LINE
8
BLACK
6
CONTINUOUS
10
0.867008
20
0.278425
11
0.867008
21
0.218425
0
LINE
8
BLACK
6
CONTINUOUS
10
0.867008
20
0.218425
11
0.866409
21
0.215412
0
LINE
8
BLACK
6
CONTINUOUS
10
0.866409
20
0.215412
11
0.864702
21
0.212857
0
LINE
8
BLACK
6
CONTINUOUS
10
0.864702
20
0.212857
11
0.862147
21
0.211151
0
LINE
8
BLACK
6
CONTINUOUS
10
0.862147
20
0.211151
11
0.859134
21
0.210551
0
LINE
8
BLACK
6
CONTINUOUS
10
0.859134
20
0.210551
11
0.799134
21
0.210551
0
LINE
8
BLACK
6
CONTINUOUS
10
0.799134
20
0.210551
11
0.796121
21
0.211151
0
LINE
8
BLACK
6
CONTINUOUS
10
0.796121
20
0.211151
11
0.793566
21
0.212857
0
LINE
8
BLACK
6
CONTINUOUS
10
0.793566
20
0.212857
11
0.791859
21
0.215412
0
LINE
8
BLACK
6
CONTINUOUS
10
0.791859
20
0.215412
11
0.79126
21
0.218425
0
LINE
8
BLACK
6
CONTINUOUS
10
0.79126
20
0.218425
11
0.79126
21
0.278425
0
LINE
8
BLACK
6
CONTINUOUS
10
0.79126
20
0.278425
11
0.791859
21
0.281438
0
LINE
8
BLACK
6
CONTINUOUS
10
0.791859
20
0.281438
11
0.793566
21
0.283993
0
LINE
8
BLACK
6
CONTINUOUS
10
0.793566
20
0.283993
11
0.796121
21
0.2857
0
LINE
8
BLACK
6
CONTINUOUS
10
0.796121
20
0.2857
11
0.799134
21
0.286299
0
LINE
8
BLACK
6
CONTINUOUS
10
0.799134
20
0.286299
11
0.859134
21
0.286299
0
LINE
8
BLACK
6
CONTINUOUS
10
0.859134
20
0.286299
11
0.862147
21
0.2857
0
LINE
8
BLACK
6
CONTINUOUS
10
0.962147
20
0.2857
11
0.964702
21
0.283993
0
LINE
8
BLACK
6
CONTINUOUS
10
0.964702
20
0.283993
11
0.966409
21
0.281438
0
LINE
8
BLACK
6
CONTINUOUS
10
0.966409
20
0.281438
11
0.967008
21
0.278425
0
LINE
8
BLACK
6
CONTINUOUS
10
0.967008
20
0.278425
11
0.967008
21
0.218425
0
LINE
8
BLACK
6
CONTINUOUS
10
0.967008
20
0.218425
11
0.966409
21
0.215412
0
LINE
8
BLACK
6
CONTINUOUS
10
0.966409
20
0.215412
11
0.964702
21
0.212857
0
LINE
8
BLACK
6
CONTINUOUS
10
0.964702
20
0.212857
11
0.962147
21
0.211151
0
LINE
8
BLACK
6
CONTINUOUS
10
0.962147
20
0.211151
11
0.959134
21
0.210551
0
LINE
8
BLACK
6
CONTINUOUS
10
0.959134
20
0.210551
11
0.899134
21
0.210551
0
LINE
8
BLACK
6
CONTINUOUS
10
0.899134
20
0.210551
11
0.896121
21
0.211151
0
LINE
8
BLACK
6
CONTINUOUS
10
0.896121
20
0.211151
11
0.893566
21
0.212857
0
LINE
8
BLACK
6
CONTINUOUS
10
0.893566
20
0.212857
11
0.891859
21
0.215412
0
LINE
8
BLACK
6
CONTINUOUS
10
0.891859
20
0.215412
11
0.89126
21
0.218425
0
LINE
8
BLACK
6
CONTINUOUS
10
0.89126
20
0.218425
11
0.89126
21
0.278425
0
LINE
8
BLACK
6
CONTINUOUS
10
0.89126
20
0.278425
11
0.891859
21
0.281438
0
LINE
8
BLACK
6
CONTINUOUS
10
0.891859
20
0.281438
11
0.893566
21
0.283993
0
LINE
8
BLACK
6
CONTINUOUS
10
0.893566
20
0.283993
11
0.896121
21
0.2857
0
LINE
8
BLACK
6
CONTINUOUS
10
0.896121
20
0.2857
11
0.899134
21
0.286299
0
LINE
8
BLACK
6
CONTINUOUS
10
0.899134
20
0.286299
11
0.959134
21
0.286299
0
LINE
8
BLACK
6
CONTINUOUS
10
0.959134
20
0.286299
11
0.962147
21
0.2857
0
LINE
8
BLACK
6
CONTINUOUS
10
1.06215
20
0.2857
11
1.0647
21
0.283993
0
LINE
8
BLACK
6
CONTINUOUS
10
1.0647
20
0.283993
11
1.06641
21
0.281438
0
LINE
8
BLACK
6
CONTINUOUS
10
1.06641
20
0.281438
11
1.06701
21
0.278425
0
LINE
8
BLACK
6
CONTINUOUS
10
1.06701
20
0.278425
11
1.06701
21
0.218425
0
LINE
8
BLACK
6
CONTINUOUS
10
1.06701
20
0.218425
11
1.06641
21
0.215412
0
LINE
8
BLACK
6
CONTINUOUS
10
1.06641
20
0.215412
11
1.0647
21
0.212857
0
LINE
8
BLACK
6
CONTINUOUS
10
1.0647
20
0.212857
11
1.06215
21
0.211151
0
LINE
8
BLACK
6
CONTINUOUS
10
1.06215
20
0.211151
11
1.05913
21
0.210551
0
LINE
8
BLACK
6
CONTINUOUS
10
1.05913
20
0.210551
11
0.999134
21
0.210551
0
LINE
8
BLACK
6
CONTINUOUS
10
0.999134
20
0.210551
11
0.996121
21
0.211151
0
LINE
8
BLACK
6
CONTINUOUS
10
0.996121
20
0.211151
11
0.993566
21
0.212857
0
LINE
8
BLACK
6
CONTINUOUS
10
0.993566
20
0.212857
11
0.991859
21
0.215412
0
LINE
8
BLACK
6
CONTINUOUS
10
0.991859
20
0.215412
11
0.99126
21
0.218425
0
LINE
8
BLACK
6
CONTINUOUS
10
0.99126
20
0.218425
11
0.99126
21
0.278425
0
LINE
8
BLACK
6
CONTINUOUS
10
0.99126
20
0.278425
11
0.991859
21
0.281438
0
LINE
8
BLACK
6
CONTINUOUS
10
0.991859
20
0.281438
11
0.993566
21
0.283993
0
LINE
8
BLACK
6
CONTINUOUS
10
0.993566
20
0.283993
11
0.996121
21
0.2857
0
LINE
8
BLACK
6
CONTINUOUS
10
0.996121
20
0.2857
11
0.999134
21
0.286299
0
LINE
8
BLACK
6
CONTINUOUS
10
0.999134
20
0.286299
11
1.05913
21
0.286299
0
LINE
8
BLACK
6
CONTINUOUS
10
1.05913
20
0.286299
11
1.06215
21
0.2857
0
LINE
8
BLACK
6
CONTINUOUS
10
1.16215
20
0.2857
11
1.1647
21
0.283993
0
LINE
8
BLACK
6
CONTINUOUS
10
1.1647
20
0.283993
11
1.16641
21
0.281438
0
LINE
8
BLACK
6
CONTINUOUS
10
1.16641
20
0.281438
11
1.16701
21
0.278425
0
LINE
8
BLACK
6
CONTINUOUS
10
1.16701
20
0.278425
11
1.16701
21
0.218425
0
LINE
8
BLACK
6
CONTINUOUS
10
1.16701
20
0.218425
11
1.16641
21
0.215412
0
LINE
8
BLACK
6
CONTINUOUS
10
1.16641
20
0.215412
11
1.1647
21
0.212857
0
LINE
8
BLACK
6
CONTINUOUS
10
1.1647
20
0.212857
11
1.16215
21
0.211151
0
LINE
8
BLACK
6
CONTINUOUS
10
1.16215
20
0.211151
11
1.15913
21
0.210551
0
LINE
8
BLACK
6
CONTINUOUS
10
1.15913
20
0.210551
11
1.09913
21
0.210551
0
LINE
8
BLACK
6
CONTINUOUS
10
1.09913
20
0.210551
11
1.09612
21
0.211151
0
LINE
8
BLACK
6
CONTINUOUS
10
1.09612
20
0.211151
11
1.09357
21
0.212857
0
LINE
8
BLACK
6
CONTINUOUS
10
1.09357
20
0.212857
11
1.09186
21
0.215412
0
LINE
8
BLACK
6
CONTINUOUS
10
1.09186
20
0.215412
11
1.09126
21
0.218425
0
LINE
8
BLACK
6
CONTINUOUS
10
1.09126
20
0.218425
11
1.09126
21
0.278425
0
LINE
8
BLACK
6
CONTINUOUS
10
1.09126
20
0.278425
11
1.09186
21
0.281438
0
LINE
8
BLACK
6
CONTINUOUS
10
1.09186
20
0.281438
11
1.09357
21
0.283993
0
LINE
8
BLACK
6
CONTINUOUS
10
1.09357
20
0.283993
11
1.09612
21
0.2857
0
LINE
8
BLACK
6
CONTINUOUS
10
1.09612
20
0.2857
11
1.09913
21
0.286299
0
LINE
8
BLACK
6
CONTINUOUS
10
1.09913
20
0.286299
11
1.15913
21
0.286299
0
LINE
8
BLACK
6
CONTINUOUS
10
1.15913
20
0.286299
11
1.16215
21
0.2857
0
LINE
8
BLACK
6
CONTINUOUS
10
1.26215
20
0.2857
11
1.2647
21
0.283993
0
LINE
8
BLACK
6
CONTINUOUS
10
1.2647
20
0.283993
11
1.26641
21
0.281438
0
LINE
8
BLACK
6
CONTINUOUS
10
1.26641
20
0.281438
11
1.26701
21
0.278425
0
LINE
8
BLACK
6
CONTINUOUS
10
1.26701
20
0.278425
11
1.26701
21
0.218425
0
LINE
8
BLACK
6
CONTINUOUS
10
1.26701
20
0.218425
11
1.26641
21
0.215412
0
LINE
8
BLACK
6
CONTINUOUS
10
1.26641
20
0.215412
11
1.2647
21
0.212857
0
LINE
8
BLACK
6
CONTINUOUS
10
1.2647
20
0.212857
11
1.26215
21
0.211151
0
LINE
8
BLACK
6
CONTINUOUS
10
1.26215
20
0.211151
11
1.25913
21
0.210551
0
LINE
8
BLACK
6
CONTINUOUS
10
1.25913
20
0.210551
11
1.19913
21
0.210551
0
LINE
8
BLACK
6
CONTINUOUS
10
1.19913
20
0.210551
11
1.19612
21
0.211151
0
LINE
8
BLACK
6
CONTINUOUS
10
1.19612
20
0.211151
11
1.19357
21
0.212857
0
LINE
8
BLACK
6
CONTINUOUS
10
1.19357
20
0.212857
11
1.19186
21
0.215412
0
LINE
8
BLACK
6
CONTINUOUS
10
1.19186
20
0.215412
11
1.19126
21
0.218425
0
LINE
8
BLACK
6
CONTINUOUS
10
1.19126
20
0.218425
11
1.19126
21
0.278425
0
LINE
8
BLACK
6
CONTINUOUS
10
1.19126
20
0.278425
11
1.19186
21
0.281438
0
LINE
8
BLACK
6
CONTINUOUS
10
1.19186
20
0.281438
11
1.19357
21
0.283993
0
LINE
8
BLACK
6
CONTINUOUS
10
1.19357
20
0.283993
11
1.19612
21
0.2857
0
LINE
8
BLACK
6
CONTINUOUS
10
1.19612
20
0.2857
11
1.19913
21
0.286299
0
LINE
8
BLACK
6
CONTINUOUS
10
1.19913
20
0.286299
11
1.25913
21
0.286299
0
LINE
8
BLACK
6
CONTINUOUS
10
1.25913
20
0.286299
11
1.26215
21
0.2857
0
LINE
8
BLACK
6
CONTINUOUS
10
1.36215
20
0.2857
11
1.3647
21
0.283993
0
LINE
8
BLACK
6
CONTINUOUS
10
1.3647
20
0.283993
11
1.36641
21
0.281438
0
LINE
8
BLACK
6
CONTINUOUS
10
1.36641
20
0.281438
11
1.36701
21
0.278425
0
LINE
8
BLACK
6
CONTINUOUS
10
1.36701
20
0.278425
11
1.36701
21
0.218425
0
LINE
8
BLACK
6
CONTINUOUS
10
1.36701
20
0.218425
11
1.36641
21
0.215412
0
LINE
8
BLACK
6
CONTINUOUS
10
1.36641
20
0.215412
11
1.3647
21
0.212857
0
LINE
8
BLACK
6
CONTINUOUS
10
1.3647
20
0.212857
11
1.36215
21
0.211151
0
LINE
8
BLACK
6
CONTINUOUS
10
1.36215
20
0.211151
11
1.35913
21
0.210551
0
LINE
8
BLACK
6
CONTINUOUS
10
1.35913
20
0.210551
11
1.29913
21
0.210551
0
LINE
8
BLACK
6
CONTINUOUS
10
1.29913
20
0.210551
11
1.29612
21
0.211151
0
LINE
8
BLACK
6
CONTINUOUS
10
1.29612
20
0.211151
11
1.29357
21
0.212857
0
LINE
8
BLACK
6
CONTINUOUS
10
1.29357
20
0.212857
11
1.29186
21
0.215412
0
LINE
8
BLACK
6
CONTINUOUS
10
1.29186
20
0.215412
11
1.29126
21
0.218425
0
LINE
8
BLACK
6
CONTINUOUS
10
1.29126
20
0.218425
11
1.29126
21
0.278425
0
LINE
8
BLACK
6
CONTINUOUS
10
1.29126
20
0.278425
11
1.29186
21
0.281438
0
LINE
8
BLACK
6
CONTINUOUS
10
1.29186
20
0.281438
11
1.29357
21
0.283993
0
LINE
8
BLACK
6
CONTINUOUS
10
1.29357
20
0.283993
11
1.29612
21
0.2857
0
LINE
8
BLACK
6
CONTINUOUS
10
1.29612
20
0.2857
11
1.29913
21
0.286299
0
LINE
8
BLACK
6
CONTINUOUS
10
1.29913
20
0.286299
11
1.35913
21
0.286299
0
LINE
8
BLACK
6
CONTINUOUS
10
1.35913
20
0.286299
11
1.36215
21
0.2857
0
LINE
8
BLACK
6
CONTINUOUS
10
1.46215
20
0.2857
11
1.4647
21
0.283993
0
LINE
8
BLACK
6
CONTINUOUS
10
1.4647
20
0.283993
11
1.46641
21
0.281438
0
LINE
8
BLACK
6
CONTINUOUS
10
1.46641
20
0.281438
11
1.46701
21
0.278425
0
LINE
8
BLACK
6
CONTINUOUS
10
1.46701
20
0.278425
11
1.46701
21
0.218425
0
LINE
8
BLACK
6
CONTINUOUS
10
1.46701
20
0.218425
11
1.46641
21
0.215412
0
LINE
8
BLACK
6
CONTINUOUS
10
1.46641
20
0.215412
11
1.4647
21
0.212857
0
LINE
8
BLACK
6
CONTINUOUS
10
1.4647
20
0.212857
11
1.46215
21
0.211151
0
LINE
8
BLACK
6
CONTINUOUS
10
1.46215
20
0.211151
11
1.45913
21
0.210551
0
LINE
8
BLACK
6
CONTINUOUS
10
1.45913
20
0.210551
11
1.39913
21
0.210551
0
LINE
8
BLACK
6
CONTINUOUS
10
1.39913
20
0.210551
11
1.39612
21
0.211151
0
LINE
8
BLACK
6
CONTINUOUS
10
1.39612
20
0.211151
11
1.39357
21
0.212857
0
LINE
8
BLACK
6
CONTINUOUS
10
1.39357
20
0.212857
11
1.39186
21
0.215412
0
LINE
8
BLACK
6
CONTINUOUS
10
1.39186
20
0.215412
11
1.39126
21
0.218425
0
LINE
8
BLACK
6
CONTINUOUS
10
1.39126
20
0.218425
11
1.39126
21
0.278425
0
LINE
8
BLACK
6
CONTINUOUS
10
1.39126
20
0.278425
11
1.39186
21
0.281438
0
LINE
8
BLACK
6
CONTINUOUS
10
1.39186
20
0.281438
11
1.39357
21
0.283993
0
LINE
8
BLACK
6
CONTINUOUS
10
1.39357
20
0.283993
11
1.39612
21
0.2857
0
LINE
8
BLACK
6
CONTINUOUS
10
1.39612
20
0.2857
11
1.39913
21
0.286299
0
LINE
8
BLACK
6
CONTINUOUS
10
1.39913
20
0.286299
11
1.45913
21
0.286299
0
LINE
8
BLACK
6
CONTINUOUS
10
1.45913
20
0.286299
11
1.46215
21
0.2857
0
LINE
8
BLACK
6
CONTINUOUS
10
1.56215
20
0.2857
11
1.5647
21
0.283993
0
LINE
8
BLACK
6
CONTINUOUS
10
1.5647
20
0.283993
11
1.56641
21
0.281438
0
LINE
8
BLACK
6
CONTINUOUS
10
1.56641
20
0.281438
11
1.56701
21
0.278425
0
LINE
8
BLACK
6
CONTINUOUS
10
1.56701
20
0.278425
11
1.56701
21
0.218425
0
LINE
8
BLACK
6
CONTINUOUS
10
1.56701
20
0.218425
11
1.56641
21
0.215412
0
LINE
8
BLACK
6
CONTINUOUS
10
1.56641
20
0.215412
11
1.5647
21
0.212857
0
LINE
8
BLACK
6
CONTINUOUS
10
1.5647
20
0.212857
11
1.56215
21
0.211151
0
LINE
8
BLACK
6
CONTINUOUS
10
1.56215
20
0.211151
11
1.55913
21
0.210551
0
LINE
8
BLACK
6
CONTINUOUS
10
1.55913
20
0.210551
11
1.49913
21
0.210551
0
LINE
8
BLACK
6
CONTINUOUS
10
1.49913
20
0.210551
11
1.49612
21
0.211151
0
LINE
8
BLACK
6
CONTINUOUS
10
1.49612
20
0.211151
11
1.49357
21
0.212857
0
LINE
8
BLACK
6
CONTINUOUS
10
1.49357
20
0.212857
11
1.49186
21
0.215412
0
LINE
8
BLACK
6
CONTINUOUS
10
1.49186
20
0.215412
11
1.49126
21
0.218425
0
LINE
8
BLACK
6
CONTINUOUS
10
1.49126
20
0.218425
11
1.49126
21
0.278425
0
LINE
8
BLACK
6
CONTINUOUS
10
1.49126
20
0.278425
11
1.49186
21
0.281438
0
LINE
8
BLACK
6
CONTINUOUS
10
1.49186
20
0.281438
11
1.49357
21
0.283993
0
LINE
8
BLACK
6
CONTINUOUS
10
1.49357
20
0.283993
11
1.49612
21
0.2857
0
LINE
8
BLACK
6
CONTINUOUS
10
1.49612
20
0.2857
11
1.49913
21
0.286299
0
LINE
8
BLACK
6
CONTINUOUS
10
1.49913
20
0.286299
11
1.55913
21
0.286299
0
LINE
8
BLACK
6
CONTINUOUS
10
1.55913
20
0.286299
11
1.56215
21
0.2857
0
LINE
8
BLACK
6
CONTINUOUS
10
1.66215
20
0.2857
11
1.6647
21
0.283993
0
LINE
8
BLACK
6
CONTINUOUS
10
1.6647
20
0.283993
11
1.66641
21
0.281438
0
LINE
8
BLACK
6
CONTINUOUS
10
1.66641
20
0.281438
11
1.66701
21
0.278425
0
LINE
8
BLACK
6
CONTINUOUS
10
1.66701
20
0.278425
11
1.66701
21
0.218425
0
LINE
8
BLACK
6
CONTINUOUS
10
1.66701
20
0.218425
11
1.66641
21
0.215412
0
LINE
8
BLACK
6
CONTINUOUS
10
1.66641
20
0.215412
11
1.6647
21
0.212857
0
LINE
8
BLACK
6
CONTINUOUS
10
1.6647
20
0.212857
11
1.66215
21
0.211151
0
LINE
8
BLACK
6
CONTINUOUS
10
1.66215
20
0.211151
11
1.65913
21
0.210551
0
LINE
8
BLACK
6
CONTINUOUS
10
1.65913
20
0.210551
11
1.59913
21
0.210551
0
LINE
8
BLACK
6
CONTINUOUS
10
1.59913
20
0.210551
11
1.59612
21
0.211151
0
LINE
8
BLACK
6
CONTINUOUS
10
1.59612
20
0.211151
11
1.59357
21
0.212857
0
LINE
8
BLACK
6
CONTINUOUS
10
1.59357
20
0.212857
11
1.59186
21
0.215412
0
LINE
8
BLACK
6
CONTINUOUS
10
1.59186
20
0.215412
11
1.59126
21
0.218425
0
LINE
8
BLACK
6
CONTINUOUS
10
1.59126
20
0.218425
11
1.59126
21
0.278425
0
LINE
8
BLACK
6
CONTINUOUS
10
1.59126
20
0.278425
11
1.59186
21
0.281438
0
LINE
8
BLACK
6
CONTINUOUS
10
1.59186
20
0.281438
11
1.59357
21
0.283993
0
LINE
8
BLACK
6
CONTINUOUS
10
1.59357
20
0.283993
11
1.59612
21
0.2857
0
LINE
8
BLACK
6
CONTINUOUS
10
1.59612
20
0.2857
11
1.59913
21
0.286299
0
LINE
8
BLACK
6
CONTINUOUS
10
1.59913
20
0.286299
11
1.65913
21
0.286299
0
LINE
8
BLACK
6
CONTINUOUS
10
1.65913
20
0.286299
11
1.66215
21
0.2857
0
LINE
8
BLACK
6
CONTINUOUS
10
1.76215
20
0.2857
11
1.7647
21
0.283993
0
LINE
8
BLACK
6
CONTINUOUS
10
1.7647
20
0.283993
11
1.76641
21
0.281438
0
LINE
8
BLACK
6
CONTINUOUS
10
1.76641
20
0.281438
11
1.76701
21
0.278425
0
LINE
8
BLACK
6
CONTINUOUS
10
1.76701
20
0.278425
11
1.76701
21
0.218425
0
LINE
8
BLACK
6
CONTINUOUS
10
1.76701
20
0.218425
11
1.76641
21
0.215412
0
LINE
8
BLACK
6
CONTINUOUS
10
1.76641
20
0.215412
11
1.7647
21
0.212857
0
LINE
8
BLACK
6
CONTINUOUS
10
1.7647
20
0.212857
11
1.76215
21
0.211151
0
LINE
8
BLACK
6
CONTINUOUS
10
1.76215
20
0.211151
11
1.75913
21
0.210551
0
LINE
8
BLACK
6
CONTINUOUS
10
1.75913
20
0.210551
11
1.69913
21
0.210551
0
LINE
8
BLACK
6
CONTINUOUS
10
1.69913
20
0.210551
11
1.69612
21
0.211151
0
LINE
8
BLACK
6
CONTINUOUS
10
1.69612
20
0.211151
11
1.69357
21
0.212857
0
LINE
8
BLACK
6
CONTINUOUS
10
1.69357
20
0.212857
11
1.69186
21
0.215412
0
LINE
8
BLACK
6
CONTINUOUS
10
1.69186
20
0.215412
11
1.69126
21
0.218425
0
LINE
8
BLACK
6
CONTINUOUS
10
1.69126
20
0.218425
11
1.69126
21
0.278425
0
LINE
8
BLACK
6
CONTINUOUS
10
1.69126
20
0.278425
11
1.69186
21
0.281438
0
LINE
8
BLACK
6
CONTINUOUS
10
1.69186
20
0.281438
11
1.69357
21
0.283993
0
LINE
8
BLACK
6
CONTINUOUS
10
1.69357
20
0.283993
11
1.69612
21
0.2857
0
LINE
8
BLACK
6
CONTINUOUS
10
1.69612
20
0.2857
11
1.69913
21
0.286299
0
LINE
8
BLACK
6
CONTINUOUS
10
1.69913
20
0.286299
11
1.75913
21
0.286299
0
LINE
8
BLACK
6
CONTINUOUS
10
1.75913
20
0.286299
11
1.76215
21
0.2857
0
LINE
8
BLACK
6
CONTINUOUS
10
1.86215
20
0.2857
11
1.8647
21
0.283993
0
LINE
8
BLACK
6
CONTINUOUS
10
1.8647
20
0.283993
11
1.86641
21
0.281438
0
LINE
8
BLACK
6
CONTINUOUS
10
1.86641
20
0.281438
11
1.86701
21
0.278425
0
LINE
8
BLACK
6
CONTINUOUS
10
1.86701
20
0.278425
11
1.86701
21
0.218425
0
LINE
8
BLACK
6
CONTINUOUS
10
1.86701
20
0.218425
11
1.86641
21
0.215412
0
LINE
8
BLACK
6
CONTINUOUS
10
1.86641
20
0.215412
11
1.8647
21
0.212857
0
LINE
8
BLACK
6
CONTINUOUS
10
1.8647
20
0.212857
11
1.86215
21
0.211151
0
LINE
8
BLACK
6
CONTINUOUS
10
1.86215
20
0.211151
11
1.85913
21
0.210551
0
LINE
8
BLACK
6
CONTINUOUS
10
1.85913
20
0.210551
11
1.79913
21
0.210551
0
LINE
8
BLACK
6
CONTINUOUS
10
1.79913
20
0.210551
11
1.79612
21
0.211151
0
LINE
8
BLACK
6
CONTINUOUS
10
1.79612
20
0.211151
11
1.79357
21
0.212857
0
LINE
8
BLACK
6
CONTINUOUS
10
1.79357
20
0.212857
11
1.79186
21
0.215412
0
LINE
8
BLACK
6
CONTINUOUS
10
1.79186
20
0.215412
11
1.79126
21
0.218425
0
LINE
8
BLACK
6
CONTINUOUS
10
1.79126
20
0.218425
11
1.79126
21
0.278425
0
LINE
8
BLACK
6
CONTINUOUS
10
1.79126
20
0.278425
11
1.79186
21
0.281438
0
LINE
8
BLACK
6
CONTINUOUS
10
1.79186
20
0.281438
11
1.79357
21
0.283993
0
LINE
8
BLACK
6
CONTINUOUS
10
1.79357
20
0.283993
11
1.79612
21
0.2857
0
LINE
8
BLACK
6
CONTINUOUS
10
1.79612
20
0.2857
11
1.79913
21
0.286299
0
LINE
8
BLACK
6
CONTINUOUS
10
1.79913
20
0.286299
11
1.85913
21
0.286299
0
LINE
8
BLACK
6
CONTINUOUS
10
1.85913
20
0.286299
11
1.86215
21
0.2857
0
LINE
8
BLACK
6
CONTINUOUS
10
3.20467
20
0.2857
11
3.20722
21
0.283993
0
LINE
8
BLACK
6
CONTINUOUS
10
3.20722
20
0.283993
11
3.20893
21
0.281438
0
LINE
8
BLACK
6
CONTINUOUS
10
3.20893
20
0.281438
11
3.20953
21
0.278425
0
LINE
8
BLACK
6
CONTINUOUS
10
3.20953
20
0.278425
11
3.20953
21
0.218425
0
LINE
8
BLACK
6
CONTINUOUS
10
3.20953
20
0.218425
11
3.20893
21
0.215412
0
LINE
8
BLACK
6
CONTINUOUS
10
3.20893
20
0.215412
11
3.20722
21
0.212857
0
LINE
8
BLACK
6
CONTINUOUS
10
3.20722
20
0.212857
11
3.20467
21
0.211151
0
LINE
8
BLACK
6
CONTINUOUS
10
3.20467
20
0.211151
11
3.20165
21
0.210551
0
LINE
8
BLACK
6
CONTINUOUS
10
3.20165
20
0.210551
11
3.14165
21
0.210551
0
LINE
8
BLACK
6
CONTINUOUS
10
3.14165
20
0.210551
11
3.13864
21
0.211151
0
LINE
8
BLACK
6
CONTINUOUS
10
3.13864
20
0.211151
11
3.13609
21
0.212857
0
LINE
8
BLACK
6
CONTINUOUS
10
3.13609
20
0.212857
11
3.13438
21
0.215412
0
LINE
8
BLACK
6
CONTINUOUS
10
3.13438
20
0.215412
11
3.13378
21
0.218425
0
LINE
8
BLACK
6
CONTINUOUS
10
3.13378
20
0.218425
11
3.13378
21
0.278425
0
LINE
8
BLACK
6
CONTINUOUS
10
3.13378
20
0.278425
11
3.13438
21
0.281438
0
LINE
8
BLACK
6
CONTINUOUS
10
3.13438
20
0.281438
11
3.13609
21
0.283993
0
LINE
8
BLACK
6
CONTINUOUS
10
3.13609
20
0.283993
11
3.13864
21
0.2857
0
LINE
8
BLACK
6
CONTINUOUS
10
3.13864
20
0.2857
11
3.14165
21
0.286299
0
LINE
8
BLACK
6
CONTINUOUS
10
3.14165
20
0.286299
11
3.20165
21
0.286299
0
LINE
8
BLACK
6
CONTINUOUS
10
3.20165
20
0.286299
11
3.20467
21
0.2857
0
LINE
8
BLACK
6
CONTINUOUS
10
0.217431
20
0.516259
11
0.219985
21
0.514552
0
LINE
8
BLACK
6
CONTINUOUS
10
0.219985
20
0.514552
11
0.221692
21
0.511998
0
LINE
8
BLACK
6
CONTINUOUS
10
0.221692
20
0.511998
11
0.222291
21
0.508984
0
LINE
8
BLACK
6
CONTINUOUS
10
0.222291
20
0.508984
11
0.222291
21
0.442984
0
LINE
8
BLACK
6
CONTINUOUS
10
0.222291
20
0.442984
11
0.221692
21
0.439971
0
LINE
8
BLACK
6
CONTINUOUS
10
0.221692
20
0.439971
11
0.219985
21
0.437416
0
LINE
8
BLACK
6
CONTINUOUS
10
0.219985
20
0.437416
11
0.217431
21
0.43571
0
LINE
8
BLACK
6
CONTINUOUS
10
0.217431
20
0.43571
11
0.214417
21
0.43511
0
LINE
8
BLACK
6
CONTINUOUS
10
0.214417
20
0.43511
11
0.148417
21
0.43511
0
LINE
8
BLACK
6
CONTINUOUS
10
0.148417
20
0.43511
11
0.145404
21
0.43571
0
LINE
8
BLACK
6
CONTINUOUS
10
0.145404
20
0.43571
11
0.14285
21
0.437416
0
LINE
8
BLACK
6
CONTINUOUS
10
0.14285
20
0.437416
11
0.141143
21
0.439971
0
LINE
8
BLACK
6
CONTINUOUS
10
0.141143
20
0.439971
11
0.140543
21
0.442984
0
LINE
8
BLACK
6
CONTINUOUS
10
0.140543
20
0.442984
11
0.140543
21
0.508984
0
LINE
8
BLACK
6
CONTINUOUS
10
0.140543
20
0.508984
11
0.141143
21
0.511998
0
LINE
8
BLACK
6
CONTINUOUS
10
0.141143
20
0.511998
11
0.14285
21
0.514552
0
LINE
8
BLACK
6
CONTINUOUS
10
0.14285
20
0.514552
11
0.145404
21
0.516259
0
LINE
8
BLACK
6
CONTINUOUS
10
0.145404
20
0.516259
11
0.148417
21
0.516858
0
LINE
8
BLACK
6
CONTINUOUS
10
0.148417
20
0.516858
11
0.214417
21
0.516858
0
LINE
8
BLACK
6
CONTINUOUS
10
0.214417
20
0.516858
11
0.217431
21
0.516259
0
LINE
8
BLACK
6
CONTINUOUS
10
0.394596
20
0.516259
11
0.39715
21
0.514552
0
LINE
8
BLACK
6
CONTINUOUS
10
0.39715
20
0.514552
11
0.398857
21
0.511998
0
LINE
8
BLACK
6
CONTINUOUS
10
0.398857
20
0.511998
11
0.399457
21
0.508984
0
LINE
8
BLACK
6
CONTINUOUS
10
0.399457
20
0.508984
11
0.399457
21
0.442984
0
LINE
8
BLACK
6
CONTINUOUS
10
0.399457
20
0.442984
11
0.398857
21
0.439971
0
LINE
8
BLACK
6
CONTINUOUS
10
0.398857
20
0.439971
11
0.39715
21
0.437416
0
LINE
8
BLACK
6
CONTINUOUS
10
0.39715
20
0.437416
11
0.394596
21
0.43571
0
LINE
8
BLACK
6
CONTINUOUS
10
0.394596
20
0.43571
11
0.391583
21
0.43511
0
LINE
8
BLACK
6
CONTINUOUS
10
0.391583
20
0.43511
11
0.325583
21
0.43511
0
LINE
8
BLACK
6
CONTINUOUS
10
0.325583
20
0.43511
11
0.322569
21
0.43571
0
LINE
8
BLACK
6
CONTINUOUS
10
0.322569
20
0.43571
11
0.320015
21
0.437416
0
LINE
8
BLACK
6
CONTINUOUS
10
0.320015
20
0.437416
11
0.318308
21
0.439971
0
LINE
8
BLACK
6
CONTINUOUS
10
0.318308
20
0.439971
11
0.317709
21
0.442984
0
LINE
8
BLACK
6
CONTINUOUS
10
0.317709
20
0.442984
11
0.317709
21
0.508984
0
LINE
8
BLACK
6
CONTINUOUS
10
0.317709
20
0.508984
11
0.318308
21
0.511998
0
LINE
8
BLACK
6
CONTINUOUS
10
0.318308
20
0.511998
11
0.320015
21
0.514552
0
LINE
8
BLACK
6
CONTINUOUS
10
0.320015
20
0.514552
11
0.322569
21
0.516259
0
LINE
8
BLACK
6
CONTINUOUS
10
0.322569
20
0.516259
11
0.325583
21
0.516858
0
LINE
8
BLACK
6
CONTINUOUS
10
0.325583
20
0.516858
11
0.391583
21
0.516858
0
LINE
8
BLACK
6
CONTINUOUS
10
0.391583
20
0.516858
11
0.394596
21
0.516259
0
LINE
8
BLACK
6
CONTINUOUS
10
3.92801
20
0.732275
11
3.93057
21
0.730568
0
LINE
8
BLACK
6
CONTINUOUS
10
3.93057
20
0.730568
11
3.93227
21
0.728013
0
LINE
8
BLACK
6
CONTINUOUS
10
3.93227
20
0.728013
11
3.93287
21
0.725
0
LINE
8
BLACK
6
CONTINUOUS
10
3.93287
20
0.725
11
3.93287
21
0.475
0
LINE
8
BLACK
6
CONTINUOUS
10
3.93287
20
0.475
11
3.93227
21
0.471987
0
LINE
8
BLACK
6
CONTINUOUS
10
3.93227
20
0.471987
11
3.93057
21
0.469432
0
LINE
8
BLACK
6
CONTINUOUS
10
3.93057
20
0.469432
11
3.92801
21
0.467725
0
LINE
8
BLACK
6
CONTINUOUS
10
3.92801
20
0.467725
11
3.925
21
0.467126
0
LINE
8
BLACK
6
CONTINUOUS
10
3.925
20
0.467126
11
3.675
21
0.467126
0
LINE
8
BLACK
6
CONTINUOUS
10
3.675
20
0.467126
11
3.67199
21
0.467725
0
LINE
8
BLACK
6
CONTINUOUS
10
3.67199
20
0.467725
11
3.66943
21
0.469432
0
LINE
8
BLACK
6
CONTINUOUS
10
3.66943
20
0.469432
11
3.66773
21
0.471987
0
LINE
8
BLACK
6
CONTINUOUS
10
3.66773
20
0.471987
11
3.66713
21
0.475
0
LINE
8
BLACK
6
CONTINUOUS
10
3.66713
20
0.475
11
3.66713
21
0.725
0
LINE
8
BLACK
6
CONTINUOUS
10
3.66713
20
0.725
11
3.66773
21
0.728013
0
LINE
8
BLACK
6
CONTINUOUS
10
3.66773
20
0.728013
11
3.66943
21
0.730568
0
LINE
8
BLACK
6
CONTINUOUS
10
3.66943
20
0.730568
11
3.67199
21
0.732275
0
LINE
8
BLACK
6
CONTINUOUS
10
3.67199
20
0.732275
11
3.675
21
0.732874
0
LINE
8
BLACK
6
CONTINUOUS
10
3.675
20
0.732874
11
3.925
21
0.732874
0
LINE
8
BLACK
6
CONTINUOUS
10
3.925
20
0.732874
11
3.92801
21
0.732275
0
LINE
8
BLACK
6
CONTINUOUS
10
0.778013
20
0.732275
11
0.780568
21
0.730568
0
LINE
8
BLACK
6
CONTINUOUS
10
0.780568
20
0.730568
11
0.782275
21
0.728013
0
LINE
8
BLACK
6
CONTINUOUS
10
0.782275
20
0.728013
11
0.782874
21
0.725
0
LINE
8
BLACK
6
CONTINUOUS
10
0.782874
20
0.725
11
0.782874
21
0.475
0
LINE
8
BLACK
6
CONTINUOUS
10
0.782874
20
0.475
11
0.782275
21
0.471987
0
LINE
8
BLACK
6
CONTINUOUS
10
0.782275
20
0.471987
11
0.780568
21
0.469432
0
LINE
8
BLACK
6
CONTINUOUS
10
0.780568
20
0.469432
11
0.778013
21
0.467725
0
LINE
8
BLACK
6
CONTINUOUS
10
0.778013
20
0.467725
11
0.775
21
0.467126
0
LINE
8
BLACK
6
CONTINUOUS
10
0.775
20
0.467126
11
0.525
21
0.467126
0
LINE
8
BLACK
6
CONTINUOUS
10
0.525
20
0.467126
11
0.521987
21
0.467725
0
LINE
8
BLACK
6
CONTINUOUS
10
0.521987
20
0.467725
11
0.519432
21
0.469432
0
LINE
8
BLACK
6
CONTINUOUS
10
0.519432
20
0.469432
11
0.517725
21
0.471987
0
LINE
8
BLACK
6
CONTINUOUS
10
0.517725
20
0.471987
11
0.517126
21
0.475
0
LINE
8
BLACK
6
CONTINUOUS
10
0.517126
20
0.475
11
0.517126
21
0.725
0
LINE
8
BLACK
6
CONTINUOUS
10
0.517126
20
0.725
11
0.517725
21
0.728013
0
LINE
8
BLACK
6
CONTINUOUS
10
0.517725
20
0.728013
11
0.519432
21
0.730568
0
LINE
8
BLACK
6
CONTINUOUS
10
0.519432
20
0.730568
11
0.521987
21
0.732275
0
LINE
8
BLACK
6
CONTINUOUS
10
0.521987
20
0.732275
11
0.525
21
0.732874
0
LINE
8
BLACK
6
CONTINUOUS
10
0.525
20
0.732874
11
0.775
21
0.732874
0
LINE
8
BLACK
6
CONTINUOUS
10
0.775
20
0.732874
11
0.778013
21
0.732275
0
LINE
8
BLACK
6
CONTINUOUS
10
0.394596
20
0.76429
11
0.39715
21
0.762584
0
LINE
8
BLACK
6
CONTINUOUS
10
0.39715
20
0.762584
11
0.398857
21
0.760029
0
LINE
8
BLACK
6
CONTINUOUS
10
0.398857
20
0.760029
11
0.399457
21
0.757016
0
LINE
8
BLACK
6
CONTINUOUS
10
0.399457
20
0.757016
11
0.399457
21
0.691016
0
LINE
8
BLACK
6
CONTINUOUS
10
0.399457
20
0.691016
11
0.398857
21
0.688002
0
LINE
8
BLACK
6
CONTINUOUS
10
0.398857
20
0.688002
11
0.39715
21
0.685448
0
LINE
8
BLACK
6
CONTINUOUS
10
0.39715
20
0.685448
11
0.394596
21
0.683741
0
LINE
8
BLACK
6
CONTINUOUS
10
0.394596
20
0.683741
11
0.391583
21
0.683142
0
LINE
8
BLACK
6
CONTINUOUS
10
0.391583
20
0.683142
11
0.325583
21
0.683142
0
LINE
8
BLACK
6
CONTINUOUS
10
0.325583
20
0.683142
11
0.322569
21
0.683741
0
LINE
8
BLACK
6
CONTINUOUS
10
0.322569
20
0.683741
11
0.320015
21
0.685448
0
LINE
8
BLACK
6
CONTINUOUS
10
0.320015
20
0.685448
11
0.318308
21
0.688002
0
LINE
8
BLACK
6
CONTINUOUS
10
0.318308
20
0.688002
11
0.317709
21
0.691016
0
LINE
8
BLACK
6
CONTINUOUS
10
0.317709
20
0.691016
11
0.317709
21
0.757016
0
LINE
8
BLACK
6
CONTINUOUS
10
0.317709
20
0.757016
11
0.318308
21
0.760029
0
LINE
8
BLACK
6
CONTINUOUS
10
0.318308
20
0.760029
11
0.320015
21
0.762584
0
LINE
8
BLACK
6
CONTINUOUS
10
0.320015
20
0.762584
11
0.322569
21
0.76429
0
LINE
8
BLACK
6
CONTINUOUS
10
0.322569
20
0.76429
11
0.325583
21
0.76489
0
LINE
8
BLACK
6
CONTINUOUS
10
0.325583
20
0.76489
11
0.391583
21
0.76489
0
LINE
8
BLACK
6
CONTINUOUS
10
0.391583
20
0.76489
11
0.394596
21
0.76429
0
LINE
8
BLACK
6
CONTINUOUS
10
0.217431
20
0.76429
11
0.219985
21
0.762584
0
LINE
8
BLACK
6
CONTINUOUS
10
0.219985
20
0.762584
11
0.221692
21
0.760029
0
LINE
8
BLACK
6
CONTINUOUS
10
0.221692
20
0.760029
11
0.222291
21
0.757016
0
LINE
8
BLACK
6
CONTINUOUS
10
0.222291
20
0.757016
11
0.222291
21
0.691016
0
LINE
8
BLACK
6
CONTINUOUS
10
0.222291
20
0.691016
11
0.221692
21
0.688002
0
LINE
8
BLACK
6
CONTINUOUS
10
0.221692
20
0.688002
11
0.219985
21
0.685448
0
LINE
8
BLACK
6
CONTINUOUS
10
0.219985
20
0.685448
11
0.217431
21
0.683741
0
LINE
8
BLACK
6
CONTINUOUS
10
0.217431
20
0.683741
11
0.214417
21
0.683142
0
LINE
8
BLACK
6
CONTINUOUS
10
0.214417
20
0.683142
11
0.148417
21
0.683142
0
LINE
8
BLACK
6
CONTINUOUS
10
0.148417
20
0.683142
11
0.145404
21
0.683741
0
LINE
8
BLACK
6
CONTINUOUS
10
0.145404
20
0.683741
11
0.14285
21
0.685448
0
LINE
8
BLACK
6
CONTINUOUS
10
0.14285
20
0.685448
11
0.141143
21
0.688002
0
LINE
8
BLACK
6
CONTINUOUS
10
0.141143
20
0.688002
11
0.140543
21
0.691016
0
LINE
8
BLACK
6
CONTINUOUS
10
0.140543
20
0.691016
11
0.140543
21
0.757016
0
LINE
8
BLACK
6
CONTINUOUS
10
0.140543
20
0.757016
11
0.141143
21
0.760029
0
LINE
8
BLACK
6
CONTINUOUS
10
0.141143
20
0.760029
11
0.14285
21
0.762584
0
LINE
8
BLACK
6
CONTINUOUS
10
0.14285
20
0.762584
11
0.145404
21
0.76429
0
LINE
8
BLACK
6
CONTINUOUS
10
0.145404
20
0.76429
11
0.148417
21
0.76489
0
LINE
8
BLACK
6
CONTINUOUS
10
0.148417
20
0.76489
11
0.214417
21
0.76489
0
LINE
8
BLACK
6
CONTINUOUS
10
0.214417
20
0.76489
11
0.217431
21
0.76429
0
LINE
8
BLACK
6
CONTINUOUS
10
1.01469
20
0.767654
11
1.02119
21
0.766023
0
LINE
8
BLACK
6
CONTINUOUS
10
1.02119
20
0.766023
11
1.02711
21
0.762889
0
LINE
8
BLACK
6
CONTINUOUS
10
1.02711
20
0.762889
11
1.03211
21
0.758433
0
LINE
8
BLACK
6
CONTINUOUS
10
1.03211
20
0.758433
11
1.0359
21
0.752914
0
LINE
8
BLACK
6
CONTINUOUS
10
1.0359
20
0.752914
11
1.03827
21
0.746649
0
LINE
8
BLACK
6
CONTINUOUS
10
1.03827
20
0.746649
11
1.03907
21
0.74
0
LINE
8
BLACK
6
CONTINUOUS
10
1.03907
20
0.74
11
1.03907
21
0.739416
0
LINE
8
BLACK
6
CONTINUOUS
10
1.03907
20
0.739416
11
1.03812
21
0.732786
0
LINE
8
BLACK
6
CONTINUOUS
10
1.03812
20
0.732786
11
1.03563
21
0.726572
0
LINE
8
BLACK
6
CONTINUOUS
10
1.03563
20
0.726572
11
1.03172
21
0.721133
0
LINE
8
BLACK
6
CONTINUOUS
10
1.03172
20
0.721133
11
1.02663
21
0.716783
0
LINE
8
BLACK
6
CONTINUOUS
10
1.02663
20
0.716783
11
1.02064
21
0.713774
0
LINE
8
BLACK
6
CONTINUOUS
10
1.02064
20
0.713774
11
1.01411
21
0.712279
0
LINE
8
BLACK
6
CONTINUOUS
10
1.01411
20
0.712279
11
1.00742
21
0.712384
0
LINE
8
BLACK
6
CONTINUOUS
10
1.00742
20
0.712384
11
1.00094
21
0.714083
0
LINE
8
BLACK
6
CONTINUOUS
10
1.00094
20
0.714083
11
0.995053
21
0.717279
0
LINE
8
BLACK
6
CONTINUOUS
10
0.995053
20
0.717279
11
0.9901
21
0.721787
0
LINE
8
BLACK
6
CONTINUOUS
10
0.9901
20
0.721787
11
0.986364
21
0.727345
0
LINE
8
BLACK
6
CONTINUOUS
10
0.986364
20
0.727345
11
0.984062
21
0.733635
0
LINE
8
BLACK
6
CONTINUOUS
10
0.984062
20
0.733635
11
0.983328
21
0.740292
0
LINE
8
BLACK
6
CONTINUOUS
10
0.983328
20
0.740292
11
0.984202
21
0.746932
0
LINE
8
BLACK
6
CONTINUOUS
10
0.984202
20
0.746932
11
0.986635
21
0.753172
0
LINE
8
BLACK
6
CONTINUOUS
10
0.986635
20
0.753172
11
0.990486
21
0.758651
0
LINE
8
BLACK
6
CONTINUOUS
10
0.990486
20
0.758651
11
0.995532
21
0.763054
0
LINE
8
BLACK
6
CONTINUOUS
10
0.995532
20
0.763054
11
1.00148
21
0.766126
0
LINE
8
BLACK
6
CONTINUOUS
10
1.00148
20
0.766126
11
1.008
21
0.767689
0
LINE
8
BLACK
6
CONTINUOUS
10
1.008
20
0.767689
11
1.01469
21
0.767654
0
LINE
8
BLACK
6
CONTINUOUS
10
1.74229
20
0.767654
11
1.74879
21
0.766023
0
LINE
8
BLACK
6
CONTINUOUS
10
1.74879
20
0.766023
11
1.75471
21
0.762889
0
LINE
8
BLACK
6
CONTINUOUS
10
1.75471
20
0.762889
11
1.75971
21
0.758433
0
LINE
8
BLACK
6
CONTINUOUS
10
1.75971
20
0.758433
11
1.7635
21
0.752914
0
LINE
8
BLACK
6
CONTINUOUS
10
1.7635
20
0.752914
11
1.76587
21
0.746649
0
LINE
8
BLACK
6
CONTINUOUS
10
1.76587
20
0.746649
11
1.76667
21
0.74
0
LINE
8
BLACK
6
CONTINUOUS
10
1.76667
20
0.74
11
1.76667
21
0.739416
0
LINE
8
BLACK
6
CONTINUOUS
10
1.76667
20
0.739416
11
1.76572
21
0.732786
0
LINE
8
BLACK
6
CONTINUOUS
10
1.76572
20
0.732786
11
1.76323
21
0.726572
0
LINE
8
BLACK
6
CONTINUOUS
10
1.76323
20
0.726572
11
1.75932
21
0.721133
0
LINE
8
BLACK
6
CONTINUOUS
10
1.75932
20
0.721133
11
1.75423
21
0.716783
0
LINE
8
BLACK
6
CONTINUOUS
10
1.75423
20
0.716783
11
1.74824
21
0.713774
0
LINE
8
BLACK
6
CONTINUOUS
10
1.74824
20
0.713774
11
1.74171
21
0.712279
0
LINE
8
BLACK
6
CONTINUOUS
10
1.74171
20
0.712279
11
1.73502
21
0.712384
0
LINE
8
BLACK
6
CONTINUOUS
10
1.73502
20
0.712384
11
1.72854
21
0.714083
0
LINE
8
BLACK
6
CONTINUOUS
10
1.72854
20
0.714083
11
1.72265
21
0.717279
0
LINE
8
BLACK
6
CONTINUOUS
10
1.72265
20
0.717279
11
1.7177
21
0.721787
0
LINE
8
BLACK
6
CONTINUOUS
10
1.7177
20
0.721787
11
1.71396
21
0.727345
0
LINE
8
BLACK
6
CONTINUOUS
10
1.71396
20
0.727345
11
1.71166
21
0.733635
0
LINE
8
BLACK
6
CONTINUOUS
10
1.71166
20
0.733635
11
1.71093
21
0.740292
0
LINE
8
BLACK
6
CONTINUOUS
10
1.71093
20
0.740292
11
1.7118
21
0.746932
0
LINE
8
BLACK
6
CONTINUOUS
10
1.7118
20
0.746932
11
1.71423
21
0.753172
0
LINE
8
BLACK
6
CONTINUOUS
10
1.71423
20
0.753172
11
1.71809
21
0.758651
0
LINE
8
BLACK
6
CONTINUOUS
10
1.71809
20
0.758651
11
1.72313
21
0.763054
0
LINE
8
BLACK
6
CONTINUOUS
10
1.72313
20
0.763054
11
1.72908
21
0.766126
0
LINE
8
BLACK
6
CONTINUOUS
10
1.72908
20
0.766126
11
1.7356
21
0.767689
0
LINE
8
BLACK
6
CONTINUOUS
10
1.7356
20
0.767689
11
1.74229
21
0.767654
0
LINE
8
BLACK
6
CONTINUOUS
10
3.44229
20
0.767654
11
3.44879
21
0.766023
0
LINE
8
BLACK
6
CONTINUOUS
10
3.44879
20
0.766023
11
3.45471
21
0.762889
0
LINE
8
BLACK
6
CONTINUOUS
10
3.45471
20
0.762889
11
3.45971
21
0.758433
0
LINE
8
BLACK
6
CONTINUOUS
10
3.45971
20
0.758433
11
3.4635
21
0.752914
0
LINE
8
BLACK
6
CONTINUOUS
10
3.4635
20
0.752914
11
3.46587
21
0.746649
0
LINE
8
BLACK
6
CONTINUOUS
10
3.46587
20
0.746649
11
3.46667
21
0.74
0
LINE
8
BLACK
6
CONTINUOUS
10
3.46667
20
0.74
11
3.46667
21
0.739416
0
LINE
8
BLACK
6
CONTINUOUS
10
3.46667
20
0.739416
11
3.46572
21
0.732786
0
LINE
8
BLACK
6
CONTINUOUS
10
3.46572
20
0.732786
11
3.46323
21
0.726572
0
LINE
8
BLACK
6
CONTINUOUS
10
3.46323
20
0.726572
11
3.45932
21
0.721133
0
LINE
8
BLACK
6
CONTINUOUS
10
3.45932
20
0.721133
11
3.45423
21
0.716783
0
LINE
8
BLACK
6
CONTINUOUS
10
3.45423
20
0.716783
11
3.44824
21
0.713774
0
LINE
8
BLACK
6
CONTINUOUS
10
3.44824
20
0.713774
11
3.44171
21
0.712279
0
LINE
8
BLACK
6
CONTINUOUS
10
3.44171
20
0.712279
11
3.43502
21
0.712384
0
LINE
8
BLACK
6
CONTINUOUS
10
3.43502
20
0.712384
11
3.42854
21
0.714083
0
LINE
8
BLACK
6
CONTINUOUS
10
3.42854
20
0.714083
11
3.42265
21
0.717279
0
LINE
8
BLACK
6
CONTINUOUS
10
3.42265
20
0.717279
11
3.4177
21
0.721787
0
LINE
8
BLACK
6
CONTINUOUS
10
3.4177
20
0.721787
11
3.41396
21
0.727345
0
LINE
8
BLACK
6
CONTINUOUS
10
3.41396
20
0.727345
11
3.41166
21
0.733635
0
LINE
8
BLACK
6
CONTINUOUS
10
3.41166
20
0.733635
11
3.41093
21
0.740292
0
LINE
8
BLACK
6
CONTINUOUS
10
3.41093
20
0.740292
11
3.4118
21
0.746932
0
LINE
8
BLACK
6
CONTINUOUS
10
3.4118
20
0.746932
11
3.41423
21
0.753172
0
LINE
8
BLACK
6
CONTINUOUS
10
3.41423
20
0.753172
11
3.41809
21
0.758651
0
LINE
8
BLACK
6
CONTINUOUS
10
3.41809
20
0.758651
11
3.42313
21
0.763054
0
LINE
8
BLACK
6
CONTINUOUS
10
3.42313
20
0.763054
11
3.42908
21
0.766126
0
LINE
8
BLACK
6
CONTINUOUS
10
3.42908
20
0.766126
11
3.4356
21
0.767689
0
LINE
8
BLACK
6
CONTINUOUS
10
3.4356
20
0.767689
11
3.44229
21
0.767654
0
LINE
8
BLACK
6
CONTINUOUS
10
2.71469
20
0.767654
11
2.72119
21
0.766023
0
LINE
8
BLACK
6
CONTINUOUS
10
2.72119
20
0.766023
11
2.72711
21
0.762889
0
LINE
8
BLACK
6
CONTINUOUS
10
2.72711
20
0.762889
11
2.73211
21
0.758433
0
LINE
8
BLACK
6
CONTINUOUS
10
2.73211
20
0.758433
11
2.7359
21
0.752914
0
LINE
8
BLACK
6
CONTINUOUS
10
2.7359
20
0.752914
11
2.73827
21
0.746649
0
LINE
8
BLACK
6
CONTINUOUS
10
2.73827
20
0.746649
11
2.73907
21
0.74
0
LINE
8
BLACK
6
CONTINUOUS
10
2.73907
20
0.74
11
2.73907
21
0.739416
0
LINE
8
BLACK
6
CONTINUOUS
10
2.73907
20
0.739416
11
2.73812
21
0.732786
0
LINE
8
BLACK
6
CONTINUOUS
10
2.73812
20
0.732786
11
2.73563
21
0.726572
0
LINE
8
BLACK
6
CONTINUOUS
10
2.73563
20
0.726572
11
2.73172
21
0.721133
0
LINE
8
BLACK
6
CONTINUOUS
10
2.73172
20
0.721133
11
2.72663
21
0.716783
0
LINE
8
BLACK
6
CONTINUOUS
10
2.72663
20
0.716783
11
2.72064
21
0.713774
0
LINE
8
BLACK
6
CONTINUOUS
10
2.72064
20
0.713774
11
2.71411
21
0.712279
0
LINE
8
BLACK
6
CONTINUOUS
10
2.71411
20
0.712279
11
2.70742
21
0.712384
0
LINE
8
BLACK
6
CONTINUOUS
10
2.70742
20
0.712384
11
2.70094
21
0.714083
0
LINE
8
BLACK
6
CONTINUOUS
10
2.70094
20
0.714083
11
2.69505
21
0.717279
0
LINE
8
BLACK
6
CONTINUOUS
10
2.69505
20
0.717279
11
2.6901
21
0.721787
0
LINE
8
BLACK
6
CONTINUOUS
10
2.6901
20
0.721787
11
2.68636
21
0.727345
0
LINE
8
BLACK
6
CONTINUOUS
10
2.68636
20
0.727345
11
2.68406
21
0.733635
0
LINE
8
BLACK
6
CONTINUOUS
10
2.68406
20
0.733635
11
2.68333
21
0.740292
0
LINE
8
BLACK
6
CONTINUOUS
10
2.68333
20
0.740292
11
2.6842
21
0.746932
0
LINE
8
BLACK
6
CONTINUOUS
10
2.6842
20
0.746932
11
2.68663
21
0.753172
0
LINE
8
BLACK
6
CONTINUOUS
10
2.68663
20
0.753172
11
2.69049
21
0.758651
0
LINE
8
BLACK
6
CONTINUOUS
10
2.69049
20
0.758651
11
2.69553
21
0.763054
0
LINE
8
BLACK
6
CONTINUOUS
10
2.69553
20
0.763054
11
2.70148
21
0.766126
0
LINE
8
BLACK
6
CONTINUOUS
10
2.70148
20
0.766126
11
2.708
21
0.767689
0
LINE
8
BLACK
6
CONTINUOUS
10
2.708
20
0.767689
11
2.71469
21
0.767654
0
LINE
8
BLACK
6
CONTINUOUS
10
0.778013
20
2.63227
11
0.780568
21
2.63057
0
LINE
8
BLACK
6
CONTINUOUS
10
0.780568
20
2.63057
11
0.782275
21
2.62801
0
LINE
8
BLACK
6
CONTINUOUS
10
0.782275
20
2.62801
11
0.782874
21
2.625
0
LINE
8
BLACK
6
CONTINUOUS
10
0.782874
20
2.625
11
0.782874
21
2.375
0
LINE
8
BLACK
6
CONTINUOUS
10
0.782874
20
2.375
11
0.782275
21
2.37199
0
LINE
8
BLACK
6
CONTINUOUS
10
0.782275
20
2.37199
11
0.780568
21
2.36943
0
LINE
8
BLACK
6
CONTINUOUS
10
0.780568
20
2.36943
11
0.778013
21
2.36773
0
LINE
8
BLACK
6
CONTINUOUS
10
0.778013
20
2.36773
11
0.775
21
2.36713
0
LINE
8
BLACK
6
CONTINUOUS
10
0.775
20
2.36713
11
0.525
21
2.36713
0
LINE
8
BLACK
6
CONTINUOUS
10
0.525
20
2.36713
11
0.521987
21
2.36773
0
LINE
8
BLACK
6
CONTINUOUS
10
0.521987
20
2.36773
11
0.519432
21
2.36943
0
LINE
8
BLACK
6
CONTINUOUS
10
0.519432
20
2.36943
11
0.517725
21
2.37199
0
LINE
8
BLACK
6
CONTINUOUS
10
0.517725
20
2.37199
11
0.517126
21
2.375
0
LINE
8
BLACK
6
CONTINUOUS
10
0.517126
20
2.375
11
0.517126
21
2.625
0
LINE
8
BLACK
6
CONTINUOUS
10
0.517126
20
2.625
11
0.517725
21
2.62801
0
LINE
8
BLACK
6
CONTINUOUS
10
0.517725
20
2.62801
11
0.519432
21
2.63057
0
LINE
8
BLACK
6
CONTINUOUS
10
0.519432
20
2.63057
11
0.521987
21
2.63227
0
LINE
8
BLACK
6
CONTINUOUS
10
0.521987
20
2.63227
11
0.525
21
2.63287
0
LINE
8
BLACK
6
CONTINUOUS
10
0.525
20
2.63287
11
0.775
21
2.63287
0
LINE
8
BLACK
6
CONTINUOUS
10
0.775
20
2.63287
11
0.778013
21
2.63227
0
LINE
8
BLACK
6
CONTINUOUS
10
3.92801
20
2.63227
11
3.93057
21
2.63057
0
LINE
8
BLACK
6
CONTINUOUS
10
3.93057
20
2.63057
11
3.93227
21
2.62801
0
LINE
8
BLACK
6
CONTINUOUS
10
3.93227
20
2.62801
11
3.93287
21
2.625
0
LINE
8
BLACK
6
CONTINUOUS
10
3.93287
20
2.625
11
3.93287
21
2.375
0
LINE
8
BLACK
6
CONTINUOUS
10
3.93287
20
2.375
11
3.93227
21
2.37199
0
LINE
8
BLACK
6
CONTINUOUS
10
3.93227
20
2.37199
11
3.93057
21
2.36943
0
LINE
8
BLACK
6
CONTINUOUS
10
3.93057
20
2.36943
11
3.92801
21
2.36773
0
LINE
8
BLACK
6
CONTINUOUS
10
3.92801
20
2.36773
11
3.925
21
2.36713
0
LINE
8
BLACK
6
CONTINUOUS
10
3.925
20
2.36713
11
3.675
21
2.36713
0
LINE
8
BLACK
6
CONTINUOUS
10
3.675
20
2.36713
11
3.67199
21
2.36773
0
LINE
8
BLACK
6
CONTINUOUS
10
3.67199
20
2.36773
11
3.66943
21
2.36943
0
LINE
8
BLACK
6
CONTINUOUS
10
3.66943
20
2.36943
11
3.66773
21
2.37199
0
LINE
8
BLACK
6
CONTINUOUS
10
3.66773
20
2.37199
11
3.66713
21
2.375
0
LINE
8
BLACK
6
CONTINUOUS
10
3.66713
20
2.375
11
3.66713
21
2.625
0
LINE
8
BLACK
6
CONTINUOUS
10
3.66713
20
2.625
11
3.66773
21
2.62801
0
LINE
8
BLACK
6
CONTINUOUS
10
3.66773
20
2.62801
11
3.66943
21
2.63057
0
LINE
8
BLACK
6
CONTINUOUS
10
3.66943
20
2.63057
11
3.67199
21
2.63227
0
LINE
8
BLACK
6
CONTINUOUS
10
3.67199
20
2.63227
11
3.675
21
2.63287
0
LINE
8
BLACK
6
CONTINUOUS
10
3.675
20
2.63287
11
3.925
21
2.63287
0
LINE
8
BLACK
6
CONTINUOUS
10
3.925
20
2.63287
11
3.92801
21
2.63227
0
LINE
8
BLACK
6
CONTINUOUS
10
2.71469
20
2.54765
11
2.72119
21
2.54602
0
LINE
8
BLACK
6
CONTINUOUS
10
2.72119
20
2.54602
11
2.72711
21
2.54289
0
LINE
8
BLACK
6
CONTINUOUS
10
2.72711
20
2.54289
11
2.73211
21
2.53843
0
LINE
8
BLACK
6
CONTINUOUS
10
2.73211
20
2.53843
11
2.7359
21
2.53291
0
LINE
8
BLACK
6
CONTINUOUS
10
2.7359
20
2.53291
11
2.73827
21
2.52665
0
LINE
8
BLACK
6
CONTINUOUS
10
2.73827
20
2.52665
11
2.73907
21
2.52
0
LINE
8
BLACK
6
CONTINUOUS
10
2.73907
20
2.52
11
2.73907
21
2.51942
0
LINE
8
BLACK
6
CONTINUOUS
10
2.73907
20
2.51942
11
2.73812
21
2.51279
0
LINE
8
BLACK
6
CONTINUOUS
10
2.73812
20
2.51279
11
2.73563
21
2.50657
0
LINE
8
BLACK
6
CONTINUOUS
10
2.73563
20
2.50657
11
2.73172
21
2.50113
0
LINE
8
BLACK
6
CONTINUOUS
10
2.73172
20
2.50113
11
2.72663
21
2.49678
0
LINE
8
BLACK
6
CONTINUOUS
10
2.72663
20
2.49678
11
2.72064
21
2.49377
0
LINE
8
BLACK
6
CONTINUOUS
10
2.72064
20
2.49377
11
2.71411
21
2.49228
0
LINE
8
BLACK
6
CONTINUOUS
10
2.71411
20
2.49228
11
2.70742
21
2.49238
0
LINE
8
BLACK
6
CONTINUOUS
10
2.70742
20
2.49238
11
2.70094
21
2.49408
0
LINE
8
BLACK
6
CONTINUOUS
10
2.70094
20
2.49408
11
2.69505
21
2.49728
0
LINE
8
BLACK
6
CONTINUOUS
10
2.69505
20
2.49728
11
2.6901
21
2.50179
0
LINE
8
BLACK
6
CONTINUOUS
10
2.6901
20
2.50179
11
2.68636
21
2.50735
0
LINE
8
BLACK
6
CONTINUOUS
10
2.68636
20
2.50735
11
2.68406
21
2.51363
0
LINE
8
BLACK
6
CONTINUOUS
10
2.68406
20
2.51363
11
2.68333
21
2.52029
0
LINE
8
BLACK
6
CONTINUOUS
10
2.68333
20
2.52029
11
2.6842
21
2.52693
0
LINE
8
BLACK
6
CONTINUOUS
10
2.6842
20
2.52693
11
2.68663
21
2.53317
0
LINE
8
BLACK
6
CONTINUOUS
10
2.68663
20
2.53317
11
2.69049
21
2.53865
0
LINE
8
BLACK
6
CONTINUOUS
10
2.69049
20
2.53865
11
2.69553
21
2.54305
0
LINE
8
BLACK
6
CONTINUOUS
10
2.69553
20
2.54305
11
2.70148
21
2.54613
0
LINE
8
BLACK
6
CONTINUOUS
10
2.70148
20
2.54613
11
2.708
21
2.54769
0
LINE
8
BLACK
6
CONTINUOUS
10
2.708
20
2.54769
11
2.71469
21
2.54765
0
LINE
8
BLACK
6
CONTINUOUS
10
3.44229
20
2.54765
11
3.44879
21
2.54602
0
LINE
8
BLACK
6
CONTINUOUS
10
3.44879
20
2.54602
11
3.45471
21
2.54289
0
LINE
8
BLACK
6
CONTINUOUS
10
3.45471
20
2.54289
11
3.45971
21
2.53843
0
LINE
8
BLACK
6
CONTINUOUS
10
3.45971
20
2.53843
11
3.4635
21
2.53291
0
LINE
8
BLACK
6
CONTINUOUS
10
3.4635
20
2.53291
11
3.46587
21
2.52665
0
LINE
8
BLACK
6
CONTINUOUS
10
3.46587
20
2.52665
11
3.46667
21
2.52
0
LINE
8
BLACK
6
CONTINUOUS
10
3.46667
20
2.52
11
3.46667
21
2.51942
0
LINE
8
BLACK
6
CONTINUOUS
10
3.46667
20
2.51942
11
3.46572
21
2.51279
0
LINE
8
BLACK
6
CONTINUOUS
10
3.46572
20
2.51279
11
3.46323
21
2.50657
0
LINE
8
BLACK
6
CONTINUOUS
10
3.46323
20
2.50657
11
3.45932
21
2.50113
0
LINE
8
BLACK
6
CONTINUOUS
10
3.45932
20
2.50113
11
3.45423
21
2.49678
0
LINE
8
BLACK
6
CONTINUOUS
10
3.45423
20
2.49678
11
3.44824
21
2.49377
0
LINE
8
BLACK
6
CONTINUOUS
10
3.44824
20
2.49377
11
3.44171
21
2.49228
0
LINE
8
BLACK
6
CONTINUOUS
10
3.44171
20
2.49228
11
3.43502
21
2.49238
0
LINE
8
BLACK
6
CONTINUOUS
10
3.43502
20
2.49238
11
3.42854
21
2.49408
0
LINE
8
BLACK
6
CONTINUOUS
10
3.42854
20
2.49408
11
3.42265
21
2.49728
0
LINE
8
BLACK
6
CONTINUOUS
10
3.42265
20
2.49728
11
3.4177
21
2.50179
0
LINE
8
BLACK
6
CONTINUOUS
10
3.4177
20
2.50179
11
3.41396
21
2.50735
0
LINE
8
BLACK
6
CONTINUOUS
10
3.41396
20
2.50735
11
3.41166
21
2.51363
0
LINE
8
BLACK
6
CONTINUOUS
10
3.41166
20
2.51363
11
3.41093
21
2.52029
0
LINE
8
BLACK
6
CONTINUOUS
10
3.41093
20
2.52029
11
3.4118
21
2.52693
0
LINE
8
BLACK
6
CONTINUOUS
10
3.4118
20
2.52693
11
3.41423
21
2.53317
0
LINE
8
BLACK
6
CONTINUOUS
10
3.41423
20
2.53317
11
3.41809
21
2.53865
0
LINE
8
BLACK
6
CONTINUOUS
10
3.41809
20
2.53865
11
3.42313
21
2.54305
0
LINE
8
BLACK
6
CONTINUOUS
10
3.42313
20
2.54305
11
3.42908
21
2.54613
0
LINE
8
BLACK
6
CONTINUOUS
10
3.42908
20
2.54613
11
3.4356
21
2.54769
0
LINE
8
BLACK
6
CONTINUOUS
10
3.4356
20
2.54769
11
3.44229
21
2.54765
0
LINE
8
BLACK
6
CONTINUOUS
10
1.74229
20
2.54765
11
1.74879
21
2.54602
0
LINE
8
BLACK
6
CONTINUOUS
10
1.74879
20
2.54602
11
1.75471
21
2.54289
0
LINE
8
BLACK
6
CONTINUOUS
10
1.75471
20
2.54289
11
1.75971
21
2.53843
0
LINE
8
BLACK
6
CONTINUOUS
10
1.75971
20
2.53843
11
1.7635
21
2.53291
0
LINE
8
BLACK
6
CONTINUOUS
10
1.7635
20
2.53291
11
1.76587
21
2.52665
0
LINE
8
BLACK
6
CONTINUOUS
10
1.76587
20
2.52665
11
1.76667
21
2.52
0
LINE
8
BLACK
6
CONTINUOUS
10
1.76667
20
2.52
11
1.76667
21
2.51942
0
LINE
8
BLACK
6
CONTINUOUS
10
1.76667
20
2.51942
11
1.76572
21
2.51279
0
LINE
8
BLACK
6
CONTINUOUS
10
1.76572
20
2.51279
11
1.76323
21
2.50657
0
LINE
8
BLACK
6
CONTINUOUS
10
1.76323
20
2.50657
11
1.75932
21
2.50113
0
LINE
8
BLACK
6
CONTINUOUS
10
1.75932
20
2.50113
11
1.75423
21
2.49678
0
LINE
8
BLACK
6
CONTINUOUS
10
1.75423
20
2.49678
11
1.74824
21
2.49377
0
LINE
8
BLACK
6
CONTINUOUS
10
1.74824
20
2.49377
11
1.74171
21
2.49228
0
LINE
8
BLACK
6
CONTINUOUS
10
1.74171
20
2.49228
11
1.73502
21
2.49238
0
LINE
8
BLACK
6
CONTINUOUS
10
1.73502
20
2.49238
11
1.72854
21
2.49408
0
LINE
8
BLACK
6
CONTINUOUS
10
1.72854
20
2.49408
11
1.72265
21
2.49728
0
LINE
8
BLACK
6
CONTINUOUS
10
1.72265
20
2.49728
11
1.7177
21
2.50179
0
LINE
8
BLACK
6
CONTINUOUS
10
1.7177
20
2.50179
11
1.71396
21
2.50735
0
LINE
8
BLACK
6
CONTINUOUS
10
1.71396
20
2.50735
11
1.71166
21
2.51363
0
LINE
8
BLACK
6
CONTINUOUS
10
1.71166
20
2.51363
11
1.71093
21
2.52029
0
LINE
8
BLACK
6
CONTINUOUS
10
1.71093
20
2.52029
11
1.7118
21
2.52693
0
LINE
8
BLACK
6
CONTINUOUS
10
1.7118
20
2.52693
11
1.71423
21
2.53317
0
LINE
8
BLACK
6
CONTINUOUS
10
1.71423
20
2.53317
11
1.71809
21
2.53865
0
LINE
8
BLACK
6
CONTINUOUS
10
1.71809
20
2.53865
11
1.72313
21
2.54305
0
LINE
8
BLACK
6
CONTINUOUS
10
1.72313
20
2.54305
11
1.72908
21
2.54613
0
LINE
8
BLACK
6
CONTINUOUS
10
1.72908
20
2.54613
11
1.7356
21
2.54769
0
LINE
8
BLACK
6
CONTINUOUS
10
1.7356
20
2.54769
11
1.74229
21
2.54765
0
LINE
8
BLACK
6
CONTINUOUS
10
1.01469
20
2.54765
11
1.02119
21
2.54602
0
LINE
8
BLACK
6
CONTINUOUS
10
1.02119
20
2.54602
11
1.02711
21
2.54289
0
LINE
8
BLACK
6
CONTINUOUS
10
1.02711
20
2.54289
11
1.03211
21
2.53843
0
LINE
8
BLACK
6
CONTINUOUS
10
1.03211
20
2.53843
11
1.0359
21
2.53291
0
LINE
8
BLACK
6
CONTINUOUS
10
1.0359
20
2.53291
11
1.03827
21
2.52665
0
LINE
8
BLACK
6
CONTINUOUS
10
1.03827
20
2.52665
11
1.03907
21
2.52
0
LINE
8
BLACK
6
CONTINUOUS
10
1.03907
20
2.52
11
1.03907
21
2.51942
0
LINE
8
BLACK
6
CONTINUOUS
10
1.03907
20
2.51942
11
1.03812
21
2.51279
0
LINE
8
BLACK
6
CONTINUOUS
10
1.03812
20
2.51279
11
1.03563
21
2.50657
0
LINE
8
BLACK
6
CONTINUOUS
10
1.03563
20
2.50657
11
1.03172
21
2.50113
0
LINE
8
BLACK
6
CONTINUOUS
10
1.03172
20
2.50113
11
1.02663
21
2.49678
0
LINE
8
BLACK
6
CONTINUOUS
10
1.02663
20
2.49678
11
1.02064
21
2.49377
0
LINE
8
BLACK
6
CONTINUOUS
10
1.02064
20
2.49377
11
1.01411
21
2.49228
0
LINE
8
BLACK
6
CONTINUOUS
10
1.01411
20
2.49228
11
1.00742
21
2.49238
0
LINE
8
BLACK
6
CONTINUOUS
10
1.00742
20
2.49238
11
1.00094
21
2.49408
0
LINE
8
BLACK
6
CONTINUOUS
10
1.00094
20
2.49408
11
0.995053
21
2.49728
0
LINE
8
BLACK
6
CONTINUOUS
10
0.995053
20
2.49728
11
0.9901
21
2.50179
0
LINE
8
BLACK
6
CONTINUOUS
10
0.9901
20
2.50179
11
0.986364
21
2.50735
0
LINE
8
BLACK
6
CONTINUOUS
10
0.986364
20
2.50735
11
0.984062
21
2.51363
0
LINE
8
BLACK
6
CONTINUOUS
10
0.984062
20
2.51363
11
0.983328
21
2.52029
0
LINE
8
BLACK
6
CONTINUOUS
10
0.983328
20
2.52029
11
0.984202
21
2.52693
0
LINE
8
BLACK
6
CONTINUOUS
10
0.984202
20
2.52693
11
0.986635
21
2.53317
0
LINE
8
BLACK
6
CONTINUOUS
10
0.986635
20
2.53317
11
0.990486
21
2.53865
0
LINE
8
BLACK
6
CONTINUOUS
10
0.990486
20
2.53865
11
0.995532
21
2.54305
0
LINE
8
BLACK
6
CONTINUOUS
10
0.995532
20
2.54305
11
1.00148
21
2.54613
0
LINE
8
BLACK
6
CONTINUOUS
10
1.00148
20
2.54613
11
1.008
21
2.54769
0
LINE
8
BLACK
6
CONTINUOUS
10
1.008
20
2.54769
11
1.01469
21
2.54765
0
LINE
8
BLACK
6
CONTINUOUS
10
2.58311
20
2.84193
11
2.59027
21
2.83972
0
LINE
8
BLACK
6
CONTINUOUS
10
2.59027
20
2.83972
11
2.59686
21
2.83615
0
LINE
8
BLACK
6
CONTINUOUS
10
2.59686
20
2.83615
11
2.60263
21
2.83138
0
LINE
8
BLACK
6
CONTINUOUS
10
2.60263
20
2.83138
11
2.60737
21
2.82557
0
LINE
8
BLACK
6
CONTINUOUS
10
2.60737
20
2.82557
11
2.61088
21
2.81896
0
LINE
8
BLACK
6
CONTINUOUS
10
2.61088
20
2.81896
11
2.61305
21
2.81179
0
LINE
8
BLACK
6
CONTINUOUS
10
2.61305
20
2.81179
11
2.61378
21
2.80433
0
LINE
8
BLACK
6
CONTINUOUS
10
2.61378
20
2.80433
11
2.61376
21
2.80326
0
LINE
8
BLACK
6
CONTINUOUS
10
2.61376
20
2.80326
11
2.61283
21
2.79583
0
LINE
8
BLACK
6
CONTINUOUS
10
2.61283
20
2.79583
11
2.61046
21
2.78872
0
LINE
8
BLACK
6
CONTINUOUS
10
2.61046
20
2.78872
11
2.60676
21
2.7822
0
LINE
8
BLACK
6
CONTINUOUS
10
2.60676
20
2.7822
11
2.60187
21
2.77653
0
LINE
8
BLACK
6
CONTINUOUS
10
2.60187
20
2.77653
11
2.59596
21
2.77192
0
LINE
8
BLACK
6
CONTINUOUS
10
2.59596
20
2.77192
11
2.58927
21
2.76854
0
LINE
8
BLACK
6
CONTINUOUS
10
2.58927
20
2.76854
11
2.58206
21
2.76653
0
LINE
8
BLACK
6
CONTINUOUS
10
2.58206
20
2.76653
11
2.57459
21
2.76595
0
LINE
8
BLACK
6
CONTINUOUS
10
2.57459
20
2.76595
11
2.56715
21
2.76684
0
LINE
8
BLACK
6
CONTINUOUS
10
2.56715
20
2.76684
11
2.56003
21
2.76916
0
LINE
8
BLACK
6
CONTINUOUS
10
2.56003
20
2.76916
11
2.55349
21
2.77281
0
LINE
8
BLACK
6
CONTINUOUS
10
2.55349
20
2.77281
11
2.54778
21
2.77767
0
LINE
8
BLACK
6
CONTINUOUS
10
2.54778
20
2.77767
11
2.54313
21
2.78354
0
LINE
8
BLACK
6
CONTINUOUS
10
2.54313
20
2.78354
11
2.5397
21
2.7902
0
LINE
8
BLACK
6
CONTINUOUS
10
2.5397
20
2.7902
11
2.53764
21
2.7974
0
LINE
8
BLACK
6
CONTINUOUS
10
2.53764
20
2.7974
11
2.53701
21
2.80487
0
LINE
8
BLACK
6
CONTINUOUS
10
2.53701
20
2.80487
11
2.53785
21
2.81231
0
LINE
8
BLACK
6
CONTINUOUS
10
2.53785
20
2.81231
11
2.54011
21
2.81945
0
LINE
8
BLACK
6
CONTINUOUS
10
2.54011
20
2.81945
11
2.54372
21
2.82602
0
LINE
8
BLACK
6
CONTINUOUS
10
2.54372
20
2.82602
11
2.54854
21
2.83176
0
LINE
8
BLACK
6
CONTINUOUS
10
2.54854
20
2.83176
11
2.55438
21
2.83645
0
LINE
8
BLACK
6
CONTINUOUS
10
2.55438
20
2.83645
11
2.56101
21
2.83992
0
LINE
8
BLACK
6
CONTINUOUS
10
2.56101
20
2.83992
11
2.5682
21
2.84204
0
LINE
8
BLACK
6
CONTINUOUS
10
2.5682
20
2.84204
11
2.57566
21
2.84272
0
LINE
8
BLACK
6
CONTINUOUS
10
2.57566
20
2.84272
11
2.58311
21
2.84193
0
LINE
8
BLACK
6
CONTINUOUS
10
0.833112
20
2.84193
11
0.840269
21
2.83972
0
LINE
8
BLACK
6
CONTINUOUS
10
0.840269
20
2.83972
11
0.846859
21
2.83615
0
LINE
8
BLACK
6
CONTINUOUS
10
0.846859
20
2.83615
11
0.852631
21
2.83138
0
LINE
8
BLACK
6
CONTINUOUS
10
0.852631
20
2.83138
11
0.857366
21
2.82557
0
LINE
8
BLACK
6
CONTINUOUS
10
0.857366
20
2.82557
11
0.860883
21
2.81896
0
LINE
8
BLACK
6
CONTINUOUS
10
0.860883
20
2.81896
11
0.863048
21
2.81179
0
LINE
8
BLACK
6
CONTINUOUS
10
0.863048
20
2.81179
11
0.86378
21
2.80433
0
LINE
8
BLACK
6
CONTINUOUS
10
0.86378
20
2.80433
11
0.863765
21
2.80326
0
LINE
8
BLACK
6
CONTINUOUS
10
0.863765
20
2.80326
11
0.862826
21
2.79583
0
LINE
8
BLACK
6
CONTINUOUS
10
0.862826
20
2.79583
11
0.860461
21
2.78872
0
LINE
8
BLACK
6
CONTINUOUS
10
0.860461
20
2.78872
11
0.85676
21
2.7822
0
LINE
8
BLACK
6
CONTINUOUS
10
0.85676
20
2.7822
11
0.851865
21
2.77653
0
LINE
8
BLACK
6
CONTINUOUS
10
0.851865
20
2.77653
11
0.845962
21
2.77192
0
LINE
8
BLACK
6
CONTINUOUS
10
0.845962
20
2.77192
11
0.839275
21
2.76854
0
LINE
8
BLACK
6
CONTINUOUS
10
0.839275
20
2.76854
11
0.832059
21
2.76653
0
LINE
8
BLACK
6
CONTINUOUS
10
0.832059
20
2.76653
11
0.82459
21
2.76595
0
LINE
8
BLACK
6
CONTINUOUS
10
0.82459
20
2.76595
11
0.817151
21
2.76684
0
LINE
8
BLACK
6
CONTINUOUS
10
0.817151
20
2.76684
11
0.810026
21
2.76916
0
LINE
8
BLACK
6
CONTINUOUS
10
0.810026
20
2.76916
11
0.803486
21
2.77281
0
LINE
8
BLACK
6
CONTINUOUS
10
0.803486
20
2.77281
11
0.797781
21
2.77767
0
LINE
8
BLACK
6
CONTINUOUS
10
0.797781
20
2.77767
11
0.793128
21
2.78354
0
LINE
8
BLACK
6
CONTINUOUS
10
0.793128
20
2.78354
11
0.789703
21
2.7902
0
LINE
8
BLACK
6
CONTINUOUS
10
0.789703
20
2.7902
11
0.787639
21
2.7974
0
LINE
8
BLACK
6
CONTINUOUS
10
0.787639
20
2.7974
11
0.787012
21
2.80487
0
LINE
8
BLACK
6
CONTINUOUS
10
0.787012
20
2.80487
11
0.787847
21
2.81231
0
LINE
8
BLACK
6
CONTINUOUS
10
0.787847
20
2.81231
11
0.790112
21
2.81945
0
LINE
8
BLACK
6
CONTINUOUS
10
0.790112
20
2.81945
11
0.793721
21
2.82602
0
LINE
8
BLACK
6
CONTINUOUS
10
0.793721
20
2.82602
11
0.798537
21
2.83176
0
LINE
8
BLACK
6
CONTINUOUS
10
0.798537
20
2.83176
11
0.804375
21
2.83645
0
LINE
8
BLACK
6
CONTINUOUS
10
0.804375
20
2.83645
11
0.811014
21
2.83992
0
LINE
8
BLACK
6
CONTINUOUS
10
0.811014
20
2.83992
11
0.818201
21
2.84204
0
LINE
8
BLACK
6
CONTINUOUS
10
0.818201
20
2.84204
11
0.825662
21
2.84272
0
LINE
8
BLACK
6
CONTINUOUS
10
0.825662
20
2.84272
11
0.833112
21
2.84193
0
LINE
8
BLACK
6
CONTINUOUS
10
0.132325
20
2.8813
11
0.139481
21
2.87909
0
LINE
8
BLACK
6
CONTINUOUS
10
0.139481
20
2.87909
11
0.146071
21
2.87552
0
LINE
8
BLACK
6
CONTINUOUS
10
0.146071
20
2.87552
11
0.151844
21
2.87075
0
LINE
8
BLACK
6
CONTINUOUS
10
0.151844
20
2.87075
11
0.156579
21
2.86494
0
LINE
8
BLACK
6
CONTINUOUS
10
0.156579
20
2.86494
11
0.160096
21
2.85833
0
LINE
8
BLACK
6
CONTINUOUS
10
0.160096
20
2.85833
11
0.162261
21
2.85116
0
LINE
8
BLACK
6
CONTINUOUS
10
0.162261
20
2.85116
11
0.162992
21
2.8437
0
LINE
8
BLACK
6
CONTINUOUS
10
0.162992
20
2.8437
11
0.162977
21
2.84263
0
LINE
8
BLACK
6
CONTINUOUS
10
0.162977
20
2.84263
11
0.162038
21
2.8352
0
LINE
8
BLACK
6
CONTINUOUS
10
0.162038
20
2.8352
11
0.159674
21
2.82809
0
LINE
8
BLACK
6
CONTINUOUS
10
0.159674
20
2.82809
11
0.155973
21
2.82157
0
LINE
8
BLACK
6
CONTINUOUS
10
0.155973
20
2.82157
11
0.151078
21
2.8159
0
LINE
8
BLACK
6
CONTINUOUS
10
0.151078
20
2.8159
11
0.145174
21
2.81129
0
LINE
8
BLACK
6
CONTINUOUS
10
0.145174
20
2.81129
11
0.138488
21
2.80791
0
LINE
8
BLACK
6
CONTINUOUS
10
0.138488
20
2.80791
11
0.131272
21
2.8059
0
LINE
8
BLACK
6
CONTINUOUS
10
0.131272
20
2.8059
11
0.123802
21
2.80532
0
LINE
8
BLACK
6
CONTINUOUS
10
0.123802
20
2.80532
11
0.116364
21
2.80621
0
LINE
8
BLACK
6
CONTINUOUS
10
0.116364
20
2.80621
11
0.109239
21
2.80853
0
LINE
8
BLACK
6
CONTINUOUS
10
0.109239
20
2.80853
11
0.102699
21
2.81218
0
LINE
8
BLACK
6
CONTINUOUS
10
0.102699
20
2.81218
11
0.0969939
21
2.81704
0
LINE
8
BLACK
6
CONTINUOUS
10
0.0969939
20
2.81704
11
0.0923405
21
2.82291
0
LINE
8
BLACK
6
CONTINUOUS
10
0.0923405
20
2.82291
11
0.0889161
21
2.82957
0
LINE
8
BLACK
6
CONTINUOUS
10
0.0889161
20
2.82957
11
0.0868511
21
2.83677
0
LINE
8
BLACK
6
CONTINUOUS
10
0.0868511
20
2.83677
11
0.0862242
21
2.84424
0
LINE
8
BLACK
6
CONTINUOUS
10
0.0862242
20
2.84424
11
0.0870593
21
2.85168
0
LINE
8
BLACK
6
CONTINUOUS
10
0.0870593
20
2.85168
11
0.0893245
21
2.85882
0
LINE
8
BLACK
6
CONTINUOUS
10
0.0893245
20
2.85882
11
0.0929336
21
2.86539
0
LINE
8
BLACK
6
CONTINUOUS
10
0.0929336
20
2.86539
11
0.0977491
21
2.87113
0
LINE
8
BLACK
6
CONTINUOUS
10
0.0977491
20
2.87113
11
0.103588
21
2.87582
0
LINE
8
BLACK
6
CONTINUOUS
10
0.103588
20
2.87582
11
0.110227
21
2.87929
0
LINE
8
BLACK
6
CONTINUOUS
10
0.110227
20
2.87929
11
0.117414
21
2.88141
0
LINE
8
BLACK
6
CONTINUOUS
10
0.117414
20
2.88141
11
0.124874
21
2.88209
0
LINE
8
BLACK
6
CONTINUOUS
10
0.124874
20
2.88209
11
0.132325
21
2.8813
0
LINE
8
BLACK
6
CONTINUOUS
10
1.88232
20
2.8813
11
1.88948
21
2.87909
0
LINE
8
BLACK
6
CONTINUOUS
10
1.88948
20
2.87909
11
1.89607
21
2.87552
0
LINE
8
BLACK
6
CONTINUOUS
10
1.89607
20
2.87552
11
1.90184
21
2.87075
0
LINE
8
BLACK
6
CONTINUOUS
10
1.90184
20
2.87075
11
1.90658
21
2.86494
0
LINE
8
BLACK
6
CONTINUOUS
10
1.90658
20
2.86494
11
1.9101
21
2.85833
0
LINE
8
BLACK
6
CONTINUOUS
10
1.9101
20
2.85833
11
1.91226
21
2.85116
0
LINE
8
BLACK
6
CONTINUOUS
10
1.91226
20
2.85116
11
1.91299
21
2.8437
0
LINE
8
BLACK
6
CONTINUOUS
10
1.91299
20
2.8437
11
1.91298
21
2.84263
0
LINE
8
BLACK
6
CONTINUOUS
10
1.91298
20
2.84263
11
1.91204
21
2.8352
0
LINE
8
BLACK
6
CONTINUOUS
10
1.91204
20
2.8352
11
1.90967
21
2.82809
0
LINE
8
BLACK
6
CONTINUOUS
10
1.90967
20
2.82809
11
1.90597
21
2.82157
0
LINE
8
BLACK
6
CONTINUOUS
10
1.90597
20
2.82157
11
1.90108
21
2.8159
0
LINE
8
BLACK
6
CONTINUOUS
10
1.90108
20
2.8159
11
1.89517
21
2.81129
0
LINE
8
BLACK
6
CONTINUOUS
10
1.89517
20
2.81129
11
1.88849
21
2.80791
0
LINE
8
BLACK
6
CONTINUOUS
10
1.88849
20
2.80791
11
1.88127
21
2.8059
0
LINE
8
BLACK
6
CONTINUOUS
10
1.88127
20
2.8059
11
1.8738
21
2.80532
0
LINE
8
BLACK
6
CONTINUOUS
10
1.8738
20
2.80532
11
1.86636
21
2.80621
0
LINE
8
BLACK
6
CONTINUOUS
10
1.86636
20
2.80621
11
1.85924
21
2.80853
0
LINE
8
BLACK
6
CONTINUOUS
10
1.85924
20
2.80853
11
1.8527
21
2.81218
0
LINE
8
BLACK
6
CONTINUOUS
10
1.8527
20
2.81218
11
1.84699
21
2.81704
0
LINE
8
BLACK
6
CONTINUOUS
10
1.84699
20
2.81704
11
1.84234
21
2.82291
0
LINE
8
BLACK
6
CONTINUOUS
10
1.84234
20
2.82291
11
1.83892
21
2.82957
0
LINE
8
BLACK
6
CONTINUOUS
10
1.83892
20
2.82957
11
1.83685
21
2.83677
0
LINE
8
BLACK
6
CONTINUOUS
10
1.83685
20
2.83677
11
1.83622
21
2.84424
0
LINE
8
BLACK
6
CONTINUOUS
10
1.83622
20
2.84424
11
1.83706
21
2.85168
0
LINE
8
BLACK
6
CONTINUOUS
10
1.83706
20
2.85168
11
1.83932
21
2.85882
0
LINE
8
BLACK
6
CONTINUOUS
10
1.83932
20
2.85882
11
1.84293
21
2.86539
0
LINE
8
BLACK
6
CONTINUOUS
10
1.84293
20
2.86539
11
1.84775
21
2.87113
0
LINE
8
BLACK
6
CONTINUOUS
10
1.84775
20
2.87113
11
1.85359
21
2.87582
0
LINE
8
BLACK
6
CONTINUOUS
10
1.85359
20
2.87582
11
1.86023
21
2.87929
0
LINE
8
BLACK
6
CONTINUOUS
10
1.86023
20
2.87929
11
1.86741
21
2.88141
0
LINE
8
BLACK
6
CONTINUOUS
10
1.86741
20
2.88141
11
1.87487
21
2.88209
0
LINE
8
BLACK
6
CONTINUOUS
10
1.87487
20
2.88209
11
1.88232
21
2.8813
0
LINE
8
BLACK
6
CONTINUOUS
10
1.88232
20
3.00886
11
1.88948
21
3.00665
0
LINE
8
BLACK
6
CONTINUOUS
10
1.88948
20
3.00665
11
1.89607
21
3.00308
0
LINE
8
BLACK
6
CONTINUOUS
10
1.89607
20
3.00308
11
1.90184
21
2.99831
0
LINE
8
BLACK
6
CONTINUOUS
10
1.90184
20
2.99831
11
1.90658
21
2.9925
0
LINE
8
BLACK
6
CONTINUOUS
10
1.90658
20
2.9925
11
1.9101
21
2.98589
0
LINE
8
BLACK
6
CONTINUOUS
10
1.9101
20
2.98589
11
1.91226
21
2.97872
0
LINE
8
BLACK
6
CONTINUOUS
10
1.91226
20
2.97872
11
1.91299
21
2.97126
0
LINE
8
BLACK
6
CONTINUOUS
10
1.91299
20
2.97126
11
1.91298
21
2.97019
0
LINE
8
BLACK
6
CONTINUOUS
10
1.91298
20
2.97019
11
1.91204
21
2.96276
0
LINE
8
BLACK
6
CONTINUOUS
10
1.91204
20
2.96276
11
1.90967
21
2.95565
0
LINE
8
BLACK
6
CONTINUOUS
10
1.90967
20
2.95565
11
1.90597
21
2.94913
0
LINE
8
BLACK
6
CONTINUOUS
10
1.90597
20
2.94913
11
1.90108
21
2.94346
0
LINE
8
BLACK
6
CONTINUOUS
10
1.90108
20
2.94346
11
1.89517
21
2.93885
0
LINE
8
BLACK
6
CONTINUOUS
10
1.89517
20
2.93885
11
1.88849
21
2.93547
0
LINE
8
BLACK
6
CONTINUOUS
10
1.88849
20
2.93547
11
1.88127
21
2.93346
0
LINE
8
BLACK
6
CONTINUOUS
10
1.88127
20
2.93346
11
1.8738
21
2.93288
0
LINE
8
BLACK
6
CONTINUOUS
10
1.8738
20
2.93288
11
1.86636
21
2.93377
0
LINE
8
BLACK
6
CONTINUOUS
10
1.86636
20
2.93377
11
1.85924
21
2.93608
0
LINE
8
BLACK
6
CONTINUOUS
10
1.85924
20
2.93608
11
1.8527
21
2.93974
0
LINE
8
BLACK
6
CONTINUOUS
10
1.8527
20
2.93974
11
1.84699
21
2.94459
0
LINE
8
BLACK
6
CONTINUOUS
10
1.84699
20
2.94459
11
1.84234
21
2.95047
0
LINE
8
BLACK
6
CONTINUOUS
10
1.84234
20
2.95047
11
1.83892
21
2.95713
0
LINE
8
BLACK
6
CONTINUOUS
10
1.83892
20
2.95713
11
1.83685
21
2.96433
0
LINE
8
BLACK
6
CONTINUOUS
10
1.83685
20
2.96433
11
1.83622
21
2.9718
0
LINE
8
BLACK
6
CONTINUOUS
10
1.83622
20
2.9718
11
1.83706
21
2.97924
0
LINE
8
BLACK
6
CONTINUOUS
10
1.83706
20
2.97924
11
1.83932
21
2.98638
0
LINE
8
BLACK
6
CONTINUOUS
10
1.83932
20
2.98638
11
1.84293
21
2.99295
0
LINE
8
BLACK
6
CONTINUOUS
10
1.84293
20
2.99295
11
1.84775
21
2.99869
0
LINE
8
BLACK
6
CONTINUOUS
10
1.84775
20
2.99869
11
1.85359
21
3.00338
0
LINE
8
BLACK
6
CONTINUOUS
10
1.85359
20
3.00338
11
1.86023
21
3.00685
0
LINE
8
BLACK
6
CONTINUOUS
10
1.86023
20
3.00685
11
1.86741
21
3.00897
0
LINE
8
BLACK
6
CONTINUOUS
10
1.86741
20
3.00897
11
1.87487
21
3.00964
0
LINE
8
BLACK
6
CONTINUOUS
10
1.87487
20
3.00964
11
1.88232
21
3.00886
0
LINE
8
BLACK
6
CONTINUOUS
10
0.833112
20
3.00886
11
0.840269
21
3.00665
0
LINE
8
BLACK
6
CONTINUOUS
10
0.840269
20
3.00665
11
0.846859
21
3.00308
0
LINE
8
BLACK
6
CONTINUOUS
10
0.846859
20
3.00308
11
0.852631
21
2.99831
0
LINE
8
BLACK
6
CONTINUOUS
10
0.852631
20
2.99831
11
0.857366
21
2.9925
0
LINE
8
BLACK
6
CONTINUOUS
10
0.857366
20
2.9925
11
0.860883
21
2.98589
0
LINE
8
BLACK
6
CONTINUOUS
10
0.860883
20
2.98589
11
0.863048
21
2.97872
0
LINE
8
BLACK
6
CONTINUOUS
10
0.863048
20
2.97872
11
0.86378
21
2.97126
0
LINE
8
BLACK
6
CONTINUOUS
10
0.86378
20
2.97126
11
0.863765
21
2.97019
0
LINE
8
BLACK
6
CONTINUOUS
10
0.863765
20
2.97019
11
0.862826
21
2.96276
0
LINE
8
BLACK
6
CONTINUOUS
10
0.862826
20
2.96276
11
0.860461
21
2.95565
0
LINE
8
BLACK
6
CONTINUOUS
10
0.860461
20
2.95565
11
0.85676
21
2.94913
0
LINE
8
BLACK
6
CONTINUOUS
10
0.85676
20
2.94913
11
0.851865
21
2.94346
0
LINE
8
BLACK
6
CONTINUOUS
10
0.851865
20
2.94346
11
0.845962
21
2.93885
0
LINE
8
BLACK
6
CONTINUOUS
10
0.845962
20
2.93885
11
0.839275
21
2.93547
0
LINE
8
BLACK
6
CONTINUOUS
10
0.839275
20
2.93547
11
0.832059
21
2.93346
0
LINE
8
BLACK
6
CONTINUOUS
10
0.832059
20
2.93346
11
0.82459
21
2.93288
0
LINE
8
BLACK
6
CONTINUOUS
10
0.82459
20
2.93288
11
0.817151
21
2.93377
0
LINE
8
BLACK
6
CONTINUOUS
10
0.817151
20
2.93377
11
0.810026
21
2.93608
0
LINE
8
BLACK
6
CONTINUOUS
10
0.810026
20
2.93608
11
0.803486
21
2.93974
0
LINE
8
BLACK
6
CONTINUOUS
10
0.803486
20
2.93974
11
0.797781
21
2.94459
0
LINE
8
BLACK
6
CONTINUOUS
10
0.797781
20
2.94459
11
0.793128
21
2.95047
0
LINE
8
BLACK
6
CONTINUOUS
10
0.793128
20
2.95047
11
0.789703
21
2.95713
0
LINE
8
BLACK
6
CONTINUOUS
10
0.789703
20
2.95713
11
0.787639
21
2.96433
0
LINE
8
BLACK
6
CONTINUOUS
10
0.787639
20
2.96433
11
0.787012
21
2.9718
0
LINE
8
BLACK
6
CONTINUOUS
10
0.787012
20
2.9718
11
0.787847
21
2.97924
0
LINE
8
BLACK
6
CONTINUOUS
10
0.787847
20
2.97924
11
0.790112
21
2.98638
0
LINE
8
BLACK
6
CONTINUOUS
10
0.790112
20
2.98638
11
0.793721
21
2.99295
0
LINE
8
BLACK
6
CONTINUOUS
10
0.793721
20
2.99295
11
0.798537
21
2.99869
0
LINE
8
BLACK
6
CONTINUOUS
10
0.798537
20
2.99869
11
0.804375
21
3.00338
0
LINE
8
BLACK
6
CONTINUOUS
10
0.804375
20
3.00338
11
0.811014
21
3.00685
0
LINE
8
BLACK
6
CONTINUOUS
10
0.811014
20
3.00685
11
0.818201
21
3.00897
0
LINE
8
BLACK
6
CONTINUOUS
10
0.818201
20
3.00897
11
0.825662
21
3.00964
0
LINE
8
BLACK
6
CONTINUOUS
10
0.825662
20
3.00964
11
0.833112
21
3.00886
0
LINE
8
BLACK
6
CONTINUOUS
10
0.132325
20
3.00886
11
0.139481
21
3.00665
0
LINE
8
BLACK
6
CONTINUOUS
10
0.139481
20
3.00665
11
0.146071
21
3.00308
0
LINE
8
BLACK
6
CONTINUOUS
10
0.146071
20
3.00308
11
0.151844
21
2.99831
0
LINE
8
BLACK
6
CONTINUOUS
10
0.151844
20
2.99831
11
0.156579
21
2.9925
0
LINE
8
BLACK
6
CONTINUOUS
10
0.156579
20
2.9925
11
0.160096
21
2.98589
0
LINE
8
BLACK
6
CONTINUOUS
10
0.160096
20
2.98589
11
0.162261
21
2.97872
0
LINE
8
BLACK
6
CONTINUOUS
10
0.162261
20
2.97872
11
0.162992
21
2.97126
0
LINE
8
BLACK
6
CONTINUOUS
10
0.162992
20
2.97126
11
0.162977
21
2.97019
0
LINE
8
BLACK
6
CONTINUOUS
10
0.162977
20
2.97019
11
0.162038
21
2.96276
0
LINE
8
BLACK
6
CONTINUOUS
10
0.162038
20
2.96276
11
0.159674
21
2.95565
0
LINE
8
BLACK
6
CONTINUOUS
10
0.159674
20
2.95565
11
0.155973
21
2.94913
0
LINE
8
BLACK
6
CONTINUOUS
10
0.155973
20
2.94913
11
0.151078
21
2.94346
0
LINE
8
BLACK
6
CONTINUOUS
10
0.151078
20
2.94346
11
0.145174
21
2.93885
0
LINE
8
BLACK
6
CONTINUOUS
10
0.145174
20
2.93885
11
0.138488
21
2.93547
0
LINE
8
BLACK
6
CONTINUOUS
10
0.138488
20
2.93547
11
0.131272
21
2.93346
0
LINE
8
BLACK
6
CONTINUOUS
10
0.131272
20
2.93346
11
0.123802
21
2.93288
0
LINE
8
BLACK
6
CONTINUOUS
10
0.123802
20
2.93288
11
0.116364
21
2.93377
0
LINE
8
BLACK
6
CONTINUOUS
10
0.116364
20
2.93377
11
0.109239
21
2.93608
0
LINE
8
BLACK
6
CONTINUOUS
10
0.109239
20
2.93608
11
0.102699
21
2.93974
0
LINE
8
BLACK
6
CONTINUOUS
10
0.102699
20
2.93974
11
0.0969939
21
2.94459
0
LINE
8
BLACK
6
CONTINUOUS
10
0.0969939
20
2.94459
11
0.0923405
21
2.95047
0
LINE
8
BLACK
6
CONTINUOUS
10
0.0923405
20
2.95047
11
0.0889161
21
2.95713
0
LINE
8
BLACK
6
CONTINUOUS
10
0.0889161
20
2.95713
11
0.0868511
21
2.96433
0
LINE
8
BLACK
6
CONTINUOUS
10
0.0868511
20
2.96433
11
0.0862242
21
2.9718
0
LINE
8
BLACK
6
CONTINUOUS
10
0.0862242
20
2.9718
11
0.0870593
21
2.97924
0
LINE
8
BLACK
6
CONTINUOUS
10
0.0870593
20
2.97924
11
0.0893245
21
2.98638
0
LINE
8
BLACK
6
CONTINUOUS
10
0.0893245
20
2.98638
11
0.0929336
21
2.99295
0
LINE
8
BLACK
6
CONTINUOUS
10
0.0929336
20
2.99295
11
0.0977491
21
2.99869
0
LINE
8
BLACK
6
CONTINUOUS
10
0.0977491
20
2.99869
11
0.103588
21
3.00338
0
LINE
8
BLACK
6
CONTINUOUS
10
0.103588
20
3.00338
11
0.110227
21
3.00685
0
LINE
8
BLACK
6
CONTINUOUS
10
0.110227
20
3.00685
11
0.117414
21
3.00897
0
LINE
8
BLACK
6
CONTINUOUS
10
0.117414
20
3.00897
11
0.124874
21
3.00964
0
LINE
8
BLACK
6
CONTINUOUS
10
0.124874
20
3.00964
11
0.132325
21
3.00886
0
LINE
8
BLACK
6
CONTINUOUS
10
2.58311
20
3.00886
11
2.59027
21
3.00665
0
LINE
8
BLACK
6
CONTINUOUS
10
2.59027
20
3.00665
11
2.59686
21
3.00308
0
LINE
8
BLACK
6
CONTINUOUS
10
2.59686
20
3.00308
11
2.60263
21
2.99831
0
LINE
8
BLACK
6
CONTINUOUS
10
2.60263
20
2.99831
11
2.60737
21
2.9925
0
LINE
8
BLACK
6
CONTINUOUS
10
2.60737
20
2.9925
11
2.61088
21
2.98589
0
LINE
8
BLACK
6
CONTINUOUS
10
2.61088
20
2.98589
11
2.61305
21
2.97872
0
LINE
8
BLACK
6
CONTINUOUS
10
2.61305
20
2.97872
11
2.61378
21
2.97126
0
LINE
8
BLACK
6
CONTINUOUS
10
2.61378
20
2.97126
11
2.61376
21
2.97019
0
LINE
8
BLACK
6
CONTINUOUS
10
2.61376
20
2.97019
11
2.61283
21
2.96276
0
LINE
8
BLACK
6
CONTINUOUS
10
2.61283
20
2.96276
11
2.61046
21
2.95565
0
LINE
8
BLACK
6
CONTINUOUS
10
2.61046
20
2.95565
11
2.60676
21
2.94913
0
LINE
8
BLACK
6
CONTINUOUS
10
2.60676
20
2.94913
11
2.60187
21
2.94346
0
LINE
8
BLACK
6
CONTINUOUS
10
2.60187
20
2.94346
11
2.59596
21
2.93885
0
LINE
8
BLACK
6
CONTINUOUS
10
2.59596
20
2.93885
11
2.58927
21
2.93547
0
LINE
8
BLACK
6
CONTINUOUS
10
2.58927
20
2.93547
11
2.58206
21
2.93346
0
LINE
8
BLACK
6
CONTINUOUS
10
2.58206
20
2.93346
11
2.57459
21
2.93288
0
LINE
8
BLACK
6
CONTINUOUS
10
2.57459
20
2.93288
11
2.56715
21
2.93377
0
LINE
8
BLACK
6
CONTINUOUS
10
2.56715
20
2.93377
11
2.56003
21
2.93608
0
LINE
8
BLACK
6
CONTINUOUS
10
2.56003
20
2.93608
11
2.55349
21
2.93974
0
LINE
8
BLACK
6
CONTINUOUS
10
2.55349
20
2.93974
11
2.54778
21
2.94459
0
LINE
8
BLACK
6
CONTINUOUS
10
2.54778
20
2.94459
11
2.54313
21
2.95047
0
LINE
8
BLACK
6
CONTINUOUS
10
2.54313
20
2.95047
11
2.5397
21
2.95713
0
LINE
8
BLACK
6
CONTINUOUS
10
2.5397
20
2.95713
11
2.53764
21
2.96433
0
LINE
8
BLACK
6
CONTINUOUS
10
2.53764
20
2.96433
11
2.53701
21
2.9718
0
LINE
8
BLACK
6
CONTINUOUS
10
2.53701
20
2.9718
11
2.53785
21
2.97924
0
LINE
8
BLACK
6
CONTINUOUS
10
2.53785
20
2.97924
11
2.54011
21
2.98638
0
LINE
8
BLACK
6
CONTINUOUS
10
2.54011
20
2.98638
11
2.54372
21
2.99295
0
LINE
8
BLACK
6
CONTINUOUS
10
2.54372
20
2.99295
11
2.54854
21
2.99869
0
LINE
8
BLACK
6
CONTINUOUS
10
2.54854
20
2.99869
11
2.55438
21
3.00338
0
LINE
8
BLACK
6
CONTINUOUS
10
2.55438
20
3.00338
11
2.56101
21
3.00685
0
LINE
8
BLACK
6
CONTINUOUS
10
2.56101
20
3.00685
11
2.5682
21
3.00897
0
LINE
8
BLACK
6
CONTINUOUS
10
2.5682
20
3.00897
11
2.57566
21
3.00964
0
LINE
8
BLACK
6
CONTINUOUS
10
2.57566
20
3.00964
11
2.58311
21
3.00886
0
LINE
8
BLACK
6
CONTINUOUS
10
0.797679
20
3.0876
11
0.804836
21
3.08539
0
LINE
8
BLACK
6
CONTINUOUS
10
0.804836
20
3.08539
11
0.811426
21
3.08182
0
LINE
8
BLACK
6
CONTINUOUS
10
0.811426
20
3.08182
11
0.817198
21
3.07705
0
LINE
8
BLACK
6
CONTINUOUS
10
0.817198
20
3.07705
11
0.821933
21
3.07124
0
LINE
8
BLACK
6
CONTINUOUS
10
0.821933
20
3.07124
11
0.82545
21
3.06463
0
LINE
8
BLACK
6
CONTINUOUS
10
0.82545
20
3.06463
11
0.827615
21
3.05746
0
LINE
8
BLACK
6
CONTINUOUS
10
0.827615
20
3.05746
11
0.828346
21
3.05
0
LINE
8
BLACK
6
CONTINUOUS
10
0.828346
20
3.05
11
0.828331
21
3.04893
0
LINE
8
BLACK
6
CONTINUOUS
10
0.828331
20
3.04893
11
0.827393
21
3.0415
0
LINE
8
BLACK
6
CONTINUOUS
10
0.827393
20
3.0415
11
0.825028
21
3.03439
0
LINE
8
BLACK
6
CONTINUOUS
10
0.825028
20
3.03439
11
0.821327
21
3.02787
0
LINE
8
BLACK
6
CONTINUOUS
10
0.821327
20
3.02787
11
0.816432
21
3.0222
0
LINE
8
BLACK
6
CONTINUOUS
10
0.816432
20
3.0222
11
0.810529
21
3.01759
0
LINE
8
BLACK
6
CONTINUOUS
10
0.810529
20
3.01759
11
0.803842
21
3.01421
0
LINE
8
BLACK
6
CONTINUOUS
10
0.803842
20
3.01421
11
0.796626
21
3.0122
0
LINE
8
BLACK
6
CONTINUOUS
10
0.796626
20
3.0122
11
0.789157
21
3.01162
0
LINE
8
BLACK
6
CONTINUOUS
10
0.789157
20
3.01162
11
0.781718
21
3.01251
0
LINE
8
BLACK
6
CONTINUOUS
10
0.781718
20
3.01251
11
0.774593
21
3.01482
0
LINE
8
BLACK
6
CONTINUOUS
10
0.774593
20
3.01482
11
0.768053
21
3.01848
0
LINE
8
BLACK
6
CONTINUOUS
10
0.768053
20
3.01848
11
0.762348
21
3.02333
0
LINE
8
BLACK
6
CONTINUOUS
10
0.762348
20
3.02333
11
0.757695
21
3.02921
0
LINE
8
BLACK
6
CONTINUOUS
10
0.757695
20
3.02921
11
0.75427
21
3.03587
0
LINE
8
BLACK
6
CONTINUOUS
10
0.75427
20
3.03587
11
0.752205
21
3.04307
0
LINE
8
BLACK
6
CONTINUOUS
10
0.752205
20
3.04307
11
0.751579
21
3.05054
0
LINE
8
BLACK
6
CONTINUOUS
10
0.751579
20
3.05054
11
0.752414
21
3.05798
0
LINE
8
BLACK
6
CONTINUOUS
10
0.752414
20
3.05798
11
0.754679
21
3.06512
0
LINE
8
BLACK
6
CONTINUOUS
10
0.754679
20
3.06512
11
0.758288
21
3.07169
0
LINE
8
BLACK
6
CONTINUOUS
10
0.758288
20
3.07169
11
0.763103
21
3.07743
0
LINE
8
BLACK
6
CONTINUOUS
10
0.763103
20
3.07743
11
0.768942
21
3.08212
0
LINE
8
BLACK
6
CONTINUOUS
10
0.768942
20
3.08212
11
0.775581
21
3.08559
0
LINE
8
BLACK
6
CONTINUOUS
10
0.775581
20
3.08559
11
0.782768
21
3.08771
0
LINE
8
BLACK
6
CONTINUOUS
10
0.782768
20
3.08771
11
0.790229
21
3.08838
0
LINE
8
BLACK
6
CONTINUOUS
10
0.790229
20
3.08838
11
0.797679
21
3.0876
0
LINE
8
BLACK
6
CONTINUOUS
10
0.167758
20
3.0876
11
0.174914
21
3.08539
0
LINE
8
BLACK
6
CONTINUOUS
10
0.174914
20
3.08539
11
0.181504
21
3.08182
0
LINE
8
BLACK
6
CONTINUOUS
10
0.181504
20
3.08182
11
0.187277
21
3.07705
0
LINE
8
BLACK
6
CONTINUOUS
10
0.187277
20
3.07705
11
0.192012
21
3.07124
0
LINE
8
BLACK
6
CONTINUOUS
10
0.192012
20
3.07124
11
0.195529
21
3.06463
0
LINE
8
BLACK
6
CONTINUOUS
10
0.195529
20
3.06463
11
0.197694
21
3.05746
0
LINE
8
BLACK
6
CONTINUOUS
10
0.197694
20
3.05746
11
0.198425
21
3.05
0
LINE
8
BLACK
6
CONTINUOUS
10
0.198425
20
3.05
11
0.19841
21
3.04893
0
LINE
8
BLACK
6
CONTINUOUS
10
0.19841
20
3.04893
11
0.197471
21
3.0415
0
LINE
8
BLACK
6
CONTINUOUS
10
0.197471
20
3.0415
11
0.195107
21
3.03439
0
LINE
8
BLACK
6
CONTINUOUS
10
0.195107
20
3.03439
11
0.191406
21
3.02787
0
LINE
8
BLACK
6
CONTINUOUS
10
0.191406
20
3.02787
11
0.186511
21
3.0222
0
LINE
8
BLACK
6
CONTINUOUS
10
0.186511
20
3.0222
11
0.180608
21
3.01759
0
LINE
8
BLACK
6
CONTINUOUS
10
0.180608
20
3.01759
11
0.173921
21
3.01421
0
LINE
8
BLACK
6
CONTINUOUS
10
0.173921
20
3.01421
11
0.166705
21
3.0122
0
LINE
8
BLACK
6
CONTINUOUS
10
0.166705
20
3.0122
11
0.159235
21
3.01162
0
LINE
8
BLACK
6
CONTINUOUS
10
0.159235
20
3.01162
11
0.151797
21
3.01251
0
LINE
8
BLACK
6
CONTINUOUS
10
0.151797
20
3.01251
11
0.144672
21
3.01482
0
LINE
8
BLACK
6
CONTINUOUS
10
0.144672
20
3.01482
11
0.138132
21
3.01848
0
LINE
8
BLACK
6
CONTINUOUS
10
0.138132
20
3.01848
11
0.132427
21
3.02333
0
LINE
8
BLACK
6
CONTINUOUS
10
0.132427
20
3.02333
11
0.127774
21
3.02921
0
LINE
8
BLACK
6
CONTINUOUS
10
0.127774
20
3.02921
11
0.124349
21
3.03587
0
LINE
8
BLACK
6
CONTINUOUS
10
0.124349
20
3.03587
11
0.122284
21
3.04307
0
LINE
8
BLACK
6
CONTINUOUS
10
0.122284
20
3.04307
11
0.121657
21
3.05054
0
LINE
8
BLACK
6
CONTINUOUS
10
0.121657
20
3.05054
11
0.122492
21
3.05798
0
LINE
8
BLACK
6
CONTINUOUS
10
0.122492
20
3.05798
11
0.124758
21
3.06512
0
LINE
8
BLACK
6
CONTINUOUS
10
0.124758
20
3.06512
11
0.128367
21
3.07169
0
LINE
8
BLACK
6
CONTINUOUS
10
0.128367
20
3.07169
11
0.133182
21
3.07743
0
LINE
8
BLACK
6
CONTINUOUS
10
0.133182
20
3.07743
11
0.139021
21
3.08212
0
LINE
8
BLACK
6
CONTINUOUS
10
0.139021
20
3.08212
11
0.14566
21
3.08559
0
LINE
8
BLACK
6
CONTINUOUS
10
0.14566
20
3.08559
11
0.152847
21
3.08771
0
LINE
8
BLACK
6
CONTINUOUS
10
0.152847
20
3.08771
11
0.160307
21
3.08838
0
LINE
8
BLACK
6
CONTINUOUS
10
0.160307
20
3.08838
11
0.167758
21
3.0876
0
LINE
8
BLACK
6
CONTINUOUS
10
1.91776
20
3.0876
11
1.92491
21
3.08539
0
LINE
8
BLACK
6
CONTINUOUS
10
1.92491
20
3.08539
11
1.9315
21
3.08182
0
LINE
8
BLACK
6
CONTINUOUS
10
1.9315
20
3.08182
11
1.93728
21
3.07705
0
LINE
8
BLACK
6
CONTINUOUS
10
1.93728
20
3.07705
11
1.94201
21
3.07124
0
LINE
8
BLACK
6
CONTINUOUS
10
1.94201
20
3.07124
11
1.94553
21
3.06463
0
LINE
8
BLACK
6
CONTINUOUS
10
1.94553
20
3.06463
11
1.94769
21
3.05746
0
LINE
8
BLACK
6
CONTINUOUS
10
1.94769
20
3.05746
11
1.94843
21
3.05
0
LINE
8
BLACK
6
CONTINUOUS
10
1.94843
20
3.05
11
1.94841
21
3.04893
0
LINE
8
BLACK
6
CONTINUOUS
10
1.94841
20
3.04893
11
1.94747
21
3.0415
0
LINE
8
BLACK
6
CONTINUOUS
10
1.94747
20
3.0415
11
1.94511
21
3.03439
0
LINE
8
BLACK
6
CONTINUOUS
10
1.94511
20
3.03439
11
1.94141
21
3.02787
0
LINE
8
BLACK
6
CONTINUOUS
10
1.94141
20
3.02787
11
1.93651
21
3.0222
0
LINE
8
BLACK
6
CONTINUOUS
10
1.93651
20
3.0222
11
1.93061
21
3.01759
0
LINE
8
BLACK
6
CONTINUOUS
10
1.93061
20
3.01759
11
1.92392
21
3.01421
0
LINE
8
BLACK
6
CONTINUOUS
10
1.92392
20
3.01421
11
1.9167
21
3.0122
0
LINE
8
BLACK
6
CONTINUOUS
10
1.9167
20
3.0122
11
1.90924
21
3.01162
0
LINE
8
BLACK
6
CONTINUOUS
10
1.90924
20
3.01162
11
1.9018
21
3.01251
0
LINE
8
BLACK
6
CONTINUOUS
10
1.9018
20
3.01251
11
1.89467
21
3.01482
0
LINE
8
BLACK
6
CONTINUOUS
10
1.89467
20
3.01482
11
1.88813
21
3.01848
0
LINE
8
BLACK
6
CONTINUOUS
10
1.88813
20
3.01848
11
1.88243
21
3.02333
0
LINE
8
BLACK
6
CONTINUOUS
10
1.88243
20
3.02333
11
1.87777
21
3.02921
0
LINE
8
BLACK
6
CONTINUOUS
10
1.87777
20
3.02921
11
1.87435
21
3.03587
0
LINE
8
BLACK
6
CONTINUOUS
10
1.87435
20
3.03587
11
1.87228
21
3.04307
0
LINE
8
BLACK
6
CONTINUOUS
10
1.87228
20
3.04307
11
1.87166
21
3.05054
0
LINE
8
BLACK
6
CONTINUOUS
10
1.87166
20
3.05054
11
1.87249
21
3.05798
0
LINE
8
BLACK
6
CONTINUOUS
10
1.87249
20
3.05798
11
1.87476
21
3.06512
0
LINE
8
BLACK
6
CONTINUOUS
10
1.87476
20
3.06512
11
1.87837
21
3.07169
0
LINE
8
BLACK
6
CONTINUOUS
10
1.87837
20
3.07169
11
1.88318
21
3.07743
0
LINE
8
BLACK
6
CONTINUOUS
10
1.88318
20
3.07743
11
1.88902
21
3.08212
0
LINE
8
BLACK
6
CONTINUOUS
10
1.88902
20
3.08212
11
1.89566
21
3.08559
0
LINE
8
BLACK
6
CONTINUOUS
10
1.89566
20
3.08559
11
1.90285
21
3.08771
0
LINE
8
BLACK
6
CONTINUOUS
10
1.90285
20
3.08771
11
1.91031
21
3.08838
0
LINE
8
BLACK
6
CONTINUOUS
10
1.91031
20
3.08838
11
1.91776
21
3.0876
0
LINE
8
BLACK
6
CONTINUOUS
10
2.54768
20
3.0876
11
2.55484
21
3.08539
0
LINE
8
BLACK
6
CONTINUOUS
10
2.55484
20
3.08539
11
2.56143
21
3.08182
0
LINE
8
BLACK
6
CONTINUOUS
10
2.56143
20
3.08182
11
2.5672
21
3.07705
0
LINE
8
BLACK
6
CONTINUOUS
10
2.5672
20
3.07705
11
2.57193
21
3.07124
0
LINE
8
BLACK
6
CONTINUOUS
10
2.57193
20
3.07124
11
2.57545
21
3.06463
0
LINE
8
BLACK
6
CONTINUOUS
10
2.57545
20
3.06463
11
2.57762
21
3.05746
0
LINE
8
BLACK
6
CONTINUOUS
10
2.57762
20
3.05746
11
2.57835
21
3.05
0
LINE
8
BLACK
6
CONTINUOUS
10
2.57835
20
3.05
11
2.57833
21
3.04893
0
LINE
8
BLACK
6
CONTINUOUS
10
2.57833
20
3.04893
11
2.57739
21
3.0415
0
LINE
8
BLACK
6
CONTINUOUS
10
2.57739
20
3.0415
11
2.57503
21
3.03439
0
LINE
8
BLACK
6
CONTINUOUS
10
2.57503
20
3.03439
11
2.57133
21
3.02787
0
LINE
8
BLACK
6
CONTINUOUS
10
2.57133
20
3.02787
11
2.56643
21
3.0222
0
LINE
8
BLACK
6
CONTINUOUS
10
2.56643
20
3.0222
11
2.56053
21
3.01759
0
LINE
8
BLACK
6
CONTINUOUS
10
2.56053
20
3.01759
11
2.55384
21
3.01421
0
LINE
8
BLACK
6
CONTINUOUS
10
2.55384
20
3.01421
11
2.54663
21
3.0122
0
LINE
8
BLACK
6
CONTINUOUS
10
2.54663
20
3.0122
11
2.53916
21
3.01162
0
LINE
8
BLACK
6
CONTINUOUS
10
2.53916
20
3.01162
11
2.53172
21
3.01251
0
LINE
8
BLACK
6
CONTINUOUS
10
2.53172
20
3.01251
11
2.52459
21
3.01482
0
LINE
8
BLACK
6
CONTINUOUS
10
2.52459
20
3.01482
11
2.51805
21
3.01848
0
LINE
8
BLACK
6
CONTINUOUS
10
2.51805
20
3.01848
11
2.51235
21
3.02333
0
LINE
8
BLACK
6
CONTINUOUS
10
2.51235
20
3.02333
11
2.50769
21
3.02921
0
LINE
8
BLACK
6
CONTINUOUS
10
2.50769
20
3.02921
11
2.50427
21
3.03587
0
LINE
8
BLACK
6
CONTINUOUS
10
2.50427
20
3.03587
11
2.50221
21
3.04307
0
LINE
8
BLACK
6
CONTINUOUS
10
2.50221
20
3.04307
11
2.50158
21
3.05054
0
LINE
8
BLACK
6
CONTINUOUS
10
2.50158
20
3.05054
11
2.50241
21
3.05798
0
LINE
8
BLACK
6
CONTINUOUS
10
2.50241
20
3.05798
11
2.50468
21
3.06512
0
LINE
8
BLACK
6
CONTINUOUS
10
2.50468
20
3.06512
11
2.50829
21
3.07169
0
LINE
8
BLACK
6
CONTINUOUS
10
2.50829
20
3.07169
11
2.5131
21
3.07743
0
LINE
8
BLACK
6
CONTINUOUS
10
2.5131
20
3.07743
11
2.51894
21
3.08212
0
LINE
8
BLACK
6
CONTINUOUS
10
2.51894
20
3.08212
11
2.52558
21
3.08559
0
LINE
8
BLACK
6
CONTINUOUS
10
2.52558
20
3.08559
11
2.53277
21
3.08771
0
LINE
8
BLACK
6
CONTINUOUS
10
2.53277
20
3.08771
11
2.54023
21
3.08838
0
LINE
8
BLACK
6
CONTINUOUS
10
2.54023
20
3.08838
11
2.54768
21
3.0876
0
LINE
8
BLACK
6
CONTINUOUS
10
0.132325
20
3.16595
11
0.139481
21
3.16373
0
LINE
8
BLACK
6
CONTINUOUS
10
0.139481
20
3.16373
11
0.146071
21
3.16017
0
LINE
8
BLACK
6
CONTINUOUS
10
0.146071
20
3.16017
11
0.151844
21
3.15539
0
LINE
8
BLACK
6
CONTINUOUS
10
0.151844
20
3.15539
11
0.156579
21
3.14959
0
LINE
8
BLACK
6
CONTINUOUS
10
0.156579
20
3.14959
11
0.160096
21
3.14297
0
LINE
8
BLACK
6
CONTINUOUS
10
0.160096
20
3.14297
11
0.162261
21
3.1358
0
LINE
8
BLACK
6
CONTINUOUS
10
0.162261
20
3.1358
11
0.162992
21
3.12835
0
LINE
8
BLACK
6
CONTINUOUS
10
0.162992
20
3.12835
11
0.162977
21
3.12727
0
LINE
8
BLACK
6
CONTINUOUS
10
0.162977
20
3.12727
11
0.162038
21
3.11984
0
LINE
8
BLACK
6
CONTINUOUS
10
0.162038
20
3.11984
11
0.159674
21
3.11273
0
LINE
8
BLACK
6
CONTINUOUS
10
0.159674
20
3.11273
11
0.155973
21
3.10622
0
LINE
8
BLACK
6
CONTINUOUS
10
0.155973
20
3.10622
11
0.151078
21
3.10055
0
LINE
8
BLACK
6
CONTINUOUS
10
0.151078
20
3.10055
11
0.145174
21
3.09594
0
LINE
8
BLACK
6
CONTINUOUS
10
0.145174
20
3.09594
11
0.138488
21
3.09256
0
LINE
8
BLACK
6
CONTINUOUS
10
0.138488
20
3.09256
11
0.131272
21
3.09054
0
LINE
8
BLACK
6
CONTINUOUS
10
0.131272
20
3.09054
11
0.123802
21
3.08997
0
LINE
8
BLACK
6
CONTINUOUS
10
0.123802
20
3.08997
11
0.116364
21
3.09086
0
LINE
8
BLACK
6
CONTINUOUS
10
0.116364
20
3.09086
11
0.109239
21
3.09317
0
LINE
8
BLACK
6
CONTINUOUS
10
0.109239
20
3.09317
11
0.102699
21
3.09683
0
LINE
8
BLACK
6
CONTINUOUS
10
0.102699
20
3.09683
11
0.0969939
21
3.10168
0
LINE
8
BLACK
6
CONTINUOUS
10
0.0969939
20
3.10168
11
0.0923405
21
3.10755
0
LINE
8
BLACK
6
CONTINUOUS
10
0.0923405
20
3.10755
11
0.0889161
21
3.11422
0
LINE
8
BLACK
6
CONTINUOUS
10
0.0889161
20
3.11422
11
0.0868511
21
3.12142
0
LINE
8
BLACK
6
CONTINUOUS
10
0.0868511
20
3.12142
11
0.0862242
21
3.12888
0
LINE
8
BLACK
6
CONTINUOUS
10
0.0862242
20
3.12888
11
0.0870593
21
3.13633
0
LINE
8
BLACK
6
CONTINUOUS
10
0.0870593
20
3.13633
11
0.0893245
21
3.14347
0
LINE
8
BLACK
6
CONTINUOUS
10
0.0893245
20
3.14347
11
0.0929336
21
3.15003
0
LINE
8
BLACK
6
CONTINUOUS
10
0.0929336
20
3.15003
11
0.0977491
21
3.15577
0
LINE
8
BLACK
6
CONTINUOUS
10
0.0977491
20
3.15577
11
0.103588
21
3.16047
0
LINE
8
BLACK
6
CONTINUOUS
10
0.103588
20
3.16047
11
0.110227
21
3.16394
0
LINE
8
BLACK
6
CONTINUOUS
10
0.110227
20
3.16394
11
0.117414
21
3.16605
0
LINE
8
BLACK
6
CONTINUOUS
10
0.117414
20
3.16605
11
0.124874
21
3.16673
0
LINE
8
BLACK
6
CONTINUOUS
10
0.124874
20
3.16673
11
0.132325
21
3.16595
0
LINE
8
BLACK
6
CONTINUOUS
10
1.88232
20
3.16595
11
1.88948
21
3.16373
0
LINE
8
BLACK
6
CONTINUOUS
10
1.88948
20
3.16373
11
1.89607
21
3.16017
0
LINE
8
BLACK
6
CONTINUOUS
10
1.89607
20
3.16017
11
1.90184
21
3.15539
0
LINE
8
BLACK
6
CONTINUOUS
10
1.90184
20
3.15539
11
1.90658
21
3.14959
0
LINE
8
BLACK
6
CONTINUOUS
10
1.90658
20
3.14959
11
1.9101
21
3.14297
0
LINE
8
BLACK
6
CONTINUOUS
10
1.9101
20
3.14297
11
1.91226
21
3.1358
0
LINE
8
BLACK
6
CONTINUOUS
10
1.91226
20
3.1358
11
1.91299
21
3.12835
0
LINE
8
BLACK
6
CONTINUOUS
10
1.91299
20
3.12835
11
1.91298
21
3.12727
0
LINE
8
BLACK
6
CONTINUOUS
10
1.91298
20
3.12727
11
1.91204
21
3.11984
0
LINE
8
BLACK
6
CONTINUOUS
10
1.91204
20
3.11984
11
1.90967
21
3.11273
0
LINE
8
BLACK
6
CONTINUOUS
10
1.90967
20
3.11273
11
1.90597
21
3.10622
0
LINE
8
BLACK
6
CONTINUOUS
10
1.90597
20
3.10622
11
1.90108
21
3.10055
0
LINE
8
BLACK
6
CONTINUOUS
10
1.90108
20
3.10055
11
1.89517
21
3.09594
0
LINE
8
BLACK
6
CONTINUOUS
10
1.89517
20
3.09594
11
1.88849
21
3.09256
0
LINE
8
BLACK
6
CONTINUOUS
10
1.88849
20
3.09256
11
1.88127
21
3.09054
0
LINE
8
BLACK
6
CONTINUOUS
10
1.88127
20
3.09054
11
1.8738
21
3.08997
0
LINE
8
BLACK
6
CONTINUOUS
10
1.8738
20
3.08997
11
1.86636
21
3.09086
0
LINE
8
BLACK
6
CONTINUOUS
10
1.86636
20
3.09086
11
1.85924
21
3.09317
0
LINE
8
BLACK
6
CONTINUOUS
10
1.85924
20
3.09317
11
1.8527
21
3.09683
0
LINE
8
BLACK
6
CONTINUOUS
10
1.8527
20
3.09683
11
1.84699
21
3.10168
0
LINE
8
BLACK
6
CONTINUOUS
10
1.84699
20
3.10168
11
1.84234
21
3.10755
0
LINE
8
BLACK
6
CONTINUOUS
10
1.84234
20
3.10755
11
1.83892
21
3.11422
0
LINE
8
BLACK
6
CONTINUOUS
10
1.83892
20
3.11422
11
1.83685
21
3.12142
0
LINE
8
BLACK
6
CONTINUOUS
10
1.83685
20
3.12142
11
1.83622
21
3.12888
0
LINE
8
BLACK
6
CONTINUOUS
10
1.83622
20
3.12888
11
1.83706
21
3.13633
0
LINE
8
BLACK
6
CONTINUOUS
10
1.83706
20
3.13633
11
1.83932
21
3.14347
0
LINE
8
BLACK
6
CONTINUOUS
10
1.83932
20
3.14347
11
1.84293
21
3.15003
0
LINE
8
BLACK
6
CONTINUOUS
10
1.84293
20
3.15003
11
1.84775
21
3.15577
0
LINE
8
BLACK
6
CONTINUOUS
10
1.84775
20
3.15577
11
1.85359
21
3.16047
0
LINE
8
BLACK
6
CONTINUOUS
10
1.85359
20
3.16047
11
1.86023
21
3.16394
0
LINE
8
BLACK
6
CONTINUOUS
10
1.86023
20
3.16394
11
1.86741
21
3.16605
0
LINE
8
BLACK
6
CONTINUOUS
10
1.86741
20
3.16605
11
1.87487
21
3.16673
0
LINE
8
BLACK
6
CONTINUOUS
10
1.87487
20
3.16673
11
1.88232
21
3.16595
0
LINE
8
BLACK
6
CONTINUOUS
10
2.58311
20
3.16595
11
2.59027
21
3.16373
0
LINE
8
BLACK
6
CONTINUOUS
10
2.59027
20
3.16373
11
2.59686
21
3.16017
0
LINE
8
BLACK
6
CONTINUOUS
10
2.59686
20
3.16017
11
2.60263
21
3.15539
0
LINE
8
BLACK
6
CONTINUOUS
10
2.60263
20
3.15539
11
2.60737
21
3.14959
0
LINE
8
BLACK
6
CONTINUOUS
10
2.60737
20
3.14959
11
2.61088
21
3.14297
0
LINE
8
BLACK
6
CONTINUOUS
10
2.61088
20
3.14297
11
2.61305
21
3.1358
0
LINE
8
BLACK
6
CONTINUOUS
10
2.61305
20
3.1358
11
2.61378
21
3.12835
0
LINE
8
BLACK
6
CONTINUOUS
10
2.61378
20
3.12835
11
2.61376
21
3.12727
0
LINE
8
BLACK
6
CONTINUOUS
10
2.61376
20
3.12727
11
2.61283
21
3.11984
0
LINE
8
BLACK
6
CONTINUOUS
10
2.61283
20
3.11984
11
2.61046
21
3.11273
0
LINE
8
BLACK
6
CONTINUOUS
10
2.61046
20
3.11273
11
2.60676
21
3.10622
0
LINE
8
BLACK
6
CONTINUOUS
10
2.60676
20
3.10622
11
2.60187
21
3.10055
0
LINE
8
BLACK
6
CONTINUOUS
10
2.60187
20
3.10055
11
2.59596
21
3.09594
0
LINE
8
BLACK
6
CONTINUOUS
10
2.59596
20
3.09594
11
2.58927
21
3.09256
0
LINE
8
BLACK
6
CONTINUOUS
10
2.58927
20
3.09256
11
2.58206
21
3.09054
0
LINE
8
BLACK
6
CONTINUOUS
10
2.58206
20
3.09054
11
2.57459
21
3.08997
0
LINE
8
BLACK
6
CONTINUOUS
10
2.57459
20
3.08997
11
2.56715
21
3.09086
0
LINE
8
BLACK
6
CONTINUOUS
10
2.56715
20
3.09086
11
2.56003
21
3.09317
0
LINE
8
BLACK
6
CONTINUOUS
10
2.56003
20
3.09317
11
2.55349
21
3.09683
0
LINE
8
BLACK
6
CONTINUOUS
10
2.55349
20
3.09683
11
2.54778
21
3.10168
0
LINE
8
BLACK
6
CONTINUOUS
10
2.54778
20
3.10168
11
2.54313
21
3.10755
0
LINE
8
BLACK
6
CONTINUOUS
10
2.54313
20
3.10755
11
2.5397
21
3.11422
0
LINE
8
BLACK
6
CONTINUOUS
10
2.5397
20
3.11422
11
2.53764
21
3.12142
0
LINE
8
BLACK
6
CONTINUOUS
10
2.53764
20
3.12142
11
2.53701
21
3.12888
0
LINE
8
BLACK
6
CONTINUOUS
10
2.53701
20
3.12888
11
2.53785
21
3.13633
0
LINE
8
BLACK
6
CONTINUOUS
10
2.53785
20
3.13633
11
2.54011
21
3.14347
0
LINE
8
BLACK
6
CONTINUOUS
10
2.54011
20
3.14347
11
2.54372
21
3.15003
0
LINE
8
BLACK
6
CONTINUOUS
10
2.54372
20
3.15003
11
2.54854
21
3.15577
0
LINE
8
BLACK
6
CONTINUOUS
10
2.54854
20
3.15577
11
2.55438
21
3.16047
0
LINE
8
BLACK
6
CONTINUOUS
10
2.55438
20
3.16047
11
2.56101
21
3.16394
0
LINE
8
BLACK
6
CONTINUOUS
10
2.56101
20
3.16394
11
2.5682
21
3.16605
0
LINE
8
BLACK
6
CONTINUOUS
10
2.5682
20
3.16605
11
2.57566
21
3.16673
0
LINE
8
BLACK
6
CONTINUOUS
10
2.57566
20
3.16673
11
2.58311
21
3.16595
0
LINE
8
BLACK
6
CONTINUOUS
10
0.833112
20
3.16595
11
0.840269
21
3.16373
0
LINE
8
BLACK
6
CONTINUOUS
10
0.840269
20
3.16373
11
0.846859
21
3.16017
0
LINE
8
BLACK
6
CONTINUOUS
10
0.846859
20
3.16017
11
0.852631
21
3.15539
0
LINE
8
BLACK
6
CONTINUOUS
10
0.852631
20
3.15539
11
0.857366
21
3.14959
0
LINE
8
BLACK
6
CONTINUOUS
10
0.857366
20
3.14959
11
0.860883
21
3.14297
0
LINE
8
BLACK
6
CONTINUOUS
10
0.860883
20
3.14297
11
0.863048
21
3.1358
0
LINE
8
BLACK
6
CONTINUOUS
10
0.863048
20
3.1358
11
0.86378
21
3.12835
0
LINE
8
BLACK
6
CONTINUOUS
10
0.86378
20
3.12835
11
0.863765
21
3.12727
0
LINE
8
BLACK
6
CONTINUOUS
10
0.863765
20
3.12727
11
0.862826
21
3.11984
0
LINE
8
BLACK
6
CONTINUOUS
10
0.862826
20
3.11984
11
0.860461
21
3.11273
0
LINE
8
BLACK
6
CONTINUOUS
10
0.860461
20
3.11273
11
0.85676
21
3.10622
0
LINE
8
BLACK
6
CONTINUOUS
10
0.85676
20
3.10622
11
0.851865
21
3.10055
0
LINE
8
BLACK
6
CONTINUOUS
10
0.851865
20
3.10055
11
0.845962
21
3.09594
0
LINE
8
BLACK
6
CONTINUOUS
10
0.845962
20
3.09594
11
0.839275
21
3.09256
0
LINE
8
BLACK
6
CONTINUOUS
10
0.839275
20
3.09256
11
0.832059
21
3.09054
0
LINE
8
BLACK
6
CONTINUOUS
10
0.832059
20
3.09054
11
0.82459
21
3.08997
0
LINE
8
BLACK
6
CONTINUOUS
10
0.82459
20
3.08997
11
0.817151
21
3.09086
0
LINE
8
BLACK
6
CONTINUOUS
10
0.817151
20
3.09086
11
0.810026
21
3.09317
0
LINE
8
BLACK
6
CONTINUOUS
10
0.810026
20
3.09317
11
0.803486
21
3.09683
0
LINE
8
BLACK
6
CONTINUOUS
10
0.803486
20
3.09683
11
0.797781
21
3.10168
0
LINE
8
BLACK
6
CONTINUOUS
10
0.797781
20
3.10168
11
0.793128
21
3.10755
0
LINE
8
BLACK
6
CONTINUOUS
10
0.793128
20
3.10755
11
0.789703
21
3.11422
0
LINE
8
BLACK
6
CONTINUOUS
10
0.789703
20
3.11422
11
0.787639
21
3.12142
0
LINE
8
BLACK
6
CONTINUOUS
10
0.787639
20
3.12142
11
0.787012
21
3.12888
0
LINE
8
BLACK
6
CONTINUOUS
10
0.787012
20
3.12888
11
0.787847
21
3.13633
0
LINE
8
BLACK
6
CONTINUOUS
10
0.787847
20
3.13633
11
0.790112
21
3.14347
0
LINE
8
BLACK
6
CONTINUOUS
10
0.790112
20
3.14347
11
0.793721
21
3.15003
0
LINE
8
BLACK
6
CONTINUOUS
10
0.793721
20
3.15003
11
0.798537
21
3.15577
0
LINE
8
BLACK
6
CONTINUOUS
10
0.798537
20
3.15577
11
0.804375
21
3.16047
0
LINE
8
BLACK
6
CONTINUOUS
10
0.804375
20
3.16047
11
0.811014
21
3.16394
0
LINE
8
BLACK
6
CONTINUOUS
10
0.811014
20
3.16394
11
0.818201
21
3.16605
0
LINE
8
BLACK
6
CONTINUOUS
10
0.818201
20
3.16605
11
0.825662
21
3.16673
0
LINE
8
BLACK
6
CONTINUOUS
10
0.825662
20
3.16673
11
0.833112
21
3.16595
0
LINE
8
BLACK
6
CONTINUOUS
10
2.8521
20
3.22841
11
2.86131
21
3.22677
0
LINE
8
BLACK
6
CONTINUOUS
10
2.86131
20
3.22677
11
2.87013
21
3.22364
0
LINE
8
BLACK
6
CONTINUOUS
10
2.87013
20
3.22364
11
2.87832
21
3.21912
0
LINE
8
BLACK
6
CONTINUOUS
10
2.87832
20
3.21912
11
2.88567
21
3.21333
0
LINE
8
BLACK
6
CONTINUOUS
10
2.88567
20
3.21333
11
2.89196
21
3.20641
0
LINE
8
BLACK
6
CONTINUOUS
10
2.89196
20
3.20641
11
2.89704
21
3.19855
0
LINE
8
BLACK
6
CONTINUOUS
10
2.89704
20
3.19855
11
2.90077
21
3.18997
0
LINE
8
BLACK
6
CONTINUOUS
10
2.90077
20
3.18997
11
2.90305
21
3.1809
0
LINE
8
BLACK
6
CONTINUOUS
10
2.90305
20
3.1809
11
2.90382
21
3.17157
0
LINE
8
BLACK
6
CONTINUOUS
10
2.90382
20
3.17157
11
2.90375
21
3.16879
0
LINE
8
BLACK
6
CONTINUOUS
10
2.90375
20
3.16879
11
2.90253
21
3.15951
0
LINE
8
BLACK
6
CONTINUOUS
10
2.90253
20
3.15951
11
2.89981
21
3.15056
0
LINE
8
BLACK
6
CONTINUOUS
10
2.89981
20
3.15056
11
2.89567
21
3.14217
0
LINE
8
BLACK
6
CONTINUOUS
10
2.89567
20
3.14217
11
2.89021
21
3.13458
0
LINE
8
BLACK
6
CONTINUOUS
10
2.89021
20
3.13458
11
2.88358
21
3.12797
0
LINE
8
BLACK
6
CONTINUOUS
10
2.88358
20
3.12797
11
2.87596
21
3.12254
0
LINE
8
BLACK
6
CONTINUOUS
10
2.87596
20
3.12254
11
2.86756
21
3.11842
0
LINE
8
BLACK
6
CONTINUOUS
10
2.86756
20
3.11842
11
2.8586
21
3.11574
0
LINE
8
BLACK
6
CONTINUOUS
10
2.8586
20
3.11574
11
2.84932
21
3.11455
0
LINE
8
BLACK
6
CONTINUOUS
10
2.84932
20
3.11455
11
2.83997
21
3.11489
0
LINE
8
BLACK
6
CONTINUOUS
10
2.83997
20
3.11489
11
2.83081
21
3.11675
0
LINE
8
BLACK
6
CONTINUOUS
10
2.83081
20
3.11675
11
2.82207
21
3.12009
0
LINE
8
BLACK
6
CONTINUOUS
10
2.82207
20
3.12009
11
2.81399
21
3.12481
0
LINE
8
BLACK
6
CONTINUOUS
10
2.81399
20
3.12481
11
2.80679
21
3.13079
0
LINE
8
BLACK
6
CONTINUOUS
10
2.80679
20
3.13079
11
2.80067
21
3.13786
0
LINE
8
BLACK
6
CONTINUOUS
10
2.80067
20
3.13786
11
2.79578
21
3.14584
0
LINE
8
BLACK
6
CONTINUOUS
10
2.79578
20
3.14584
11
2.79226
21
3.1545
0
LINE
8
BLACK
6
CONTINUOUS
10
2.79226
20
3.1545
11
2.7902
21
3.16363
0
LINE
8
BLACK
6
CONTINUOUS
10
2.7902
20
3.16363
11
2.78966
21
3.17297
0
LINE
8
BLACK
6
CONTINUOUS
10
2.78966
20
3.17297
11
2.79066
21
3.18227
0
LINE
8
BLACK
6
CONTINUOUS
10
2.79066
20
3.18227
11
2.79316
21
3.19129
0
LINE
8
BLACK
6
CONTINUOUS
10
2.79316
20
3.19129
11
2.7971
21
3.19977
0
LINE
8
BLACK
6
CONTINUOUS
10
2.7971
20
3.19977
11
2.80237
21
3.2075
0
LINE
8
BLACK
6
CONTINUOUS
10
2.80237
20
3.2075
11
2.80883
21
3.21426
0
LINE
8
BLACK
6
CONTINUOUS
10
2.80883
20
3.21426
11
2.81631
21
3.21988
0
LINE
8
BLACK
6
CONTINUOUS
10
2.81631
20
3.21988
11
2.82461
21
3.2242
0
LINE
8
BLACK
6
CONTINUOUS
10
2.82461
20
3.2242
11
2.8335
21
3.22711
0
LINE
8
BLACK
6
CONTINUOUS
10
2.8335
20
3.22711
11
2.84275
21
3.22852
0
LINE
8
BLACK
6
CONTINUOUS
10
2.84275
20
3.22852
11
2.8521
21
3.22841
0
LINE
8
BLACK
6
CONTINUOUS
10
3.35722
20
3.26778
11
3.36643
21
3.26614
0
LINE
8
BLACK
6
CONTINUOUS
10
3.36643
20
3.26614
11
3.37525
21
3.26301
0
LINE
8
BLACK
6
CONTINUOUS
10
3.37525
20
3.26301
11
3.38344
21
3.25849
0
LINE
8
BLACK
6
CONTINUOUS
10
3.38344
20
3.25849
11
3.39078
21
3.2527
0
LINE
8
BLACK
6
CONTINUOUS
10
3.39078
20
3.2527
11
3.39708
21
3.24578
0
LINE
8
BLACK
6
CONTINUOUS
10
3.39708
20
3.24578
11
3.40216
21
3.23792
0
LINE
8
BLACK
6
CONTINUOUS
10
3.40216
20
3.23792
11
3.40589
21
3.22934
0
LINE
8
BLACK
6
CONTINUOUS
10
3.40589
20
3.22934
11
3.40817
21
3.22027
0
LINE
8
BLACK
6
CONTINUOUS
10
3.40817
20
3.22027
11
3.40894
21
3.21094
0
LINE
8
BLACK
6
CONTINUOUS
10
3.40894
20
3.21094
11
3.40887
21
3.20816
0
LINE
8
BLACK
6
CONTINUOUS
10
3.40887
20
3.20816
11
3.40765
21
3.19888
0
LINE
8
BLACK
6
CONTINUOUS
10
3.40765
20
3.19888
11
3.40493
21
3.18993
0
LINE
8
BLACK
6
CONTINUOUS
10
3.40493
20
3.18993
11
3.40078
21
3.18154
0
LINE
8
BLACK
6
CONTINUOUS
10
3.40078
20
3.18154
11
3.39532
21
3.17395
0
LINE
8
BLACK
6
CONTINUOUS
10
3.39532
20
3.17395
11
3.3887
21
3.16734
0
LINE
8
BLACK
6
CONTINUOUS
10
3.3887
20
3.16734
11
3.38108
21
3.16191
0
LINE
8
BLACK
6
CONTINUOUS
10
3.38108
20
3.16191
11
3.37268
21
3.15779
0
LINE
8
BLACK
6
CONTINUOUS
10
3.37268
20
3.15779
11
3.36372
21
3.15511
0
LINE
8
BLACK
6
CONTINUOUS
10
3.36372
20
3.15511
11
3.35444
21
3.15392
0
LINE
8
BLACK
6
CONTINUOUS
10
3.35444
20
3.15392
11
3.34509
21
3.15426
0
LINE
8
BLACK
6
CONTINUOUS
10
3.34509
20
3.15426
11
3.33592
21
3.15612
0
LINE
8
BLACK
6
CONTINUOUS
10
3.33592
20
3.15612
11
3.32718
21
3.15946
0
LINE
8
BLACK
6
CONTINUOUS
10
3.32718
20
3.15946
11
3.31911
21
3.16418
0
LINE
8
BLACK
6
CONTINUOUS
10
3.31911
20
3.16418
11
3.31191
21
3.17016
0
LINE
8
BLACK
6
CONTINUOUS
10
3.31191
20
3.17016
11
3.30578
21
3.17723
0
LINE
8
BLACK
6
CONTINUOUS
10
3.30578
20
3.17723
11
3.3009
21
3.18521
0
LINE
8
BLACK
6
CONTINUOUS
10
3.3009
20
3.18521
11
3.29738
21
3.19387
0
LINE
8
BLACK
6
CONTINUOUS
10
3.29738
20
3.19387
11
3.29532
21
3.203
0
LINE
8
BLACK
6
CONTINUOUS
10
3.29532
20
3.203
11
3.29478
21
3.21234
0
LINE
8
BLACK
6
CONTINUOUS
10
3.29478
20
3.21234
11
3.29577
21
3.22164
0
LINE
8
BLACK
6
CONTINUOUS
10
3.29577
20
3.22164
11
3.29827
21
3.23066
0
LINE
8
BLACK
6
CONTINUOUS
10
3.29827
20
3.23066
11
3.30221
21
3.23914
0
LINE
8
BLACK
6
CONTINUOUS
10
3.30221
20
3.23914
11
3.30749
21
3.24687
0
LINE
8
BLACK
6
CONTINUOUS
10
3.30749
20
3.24687
11
3.31395
21
3.25363
0
LINE
8
BLACK
6
CONTINUOUS
10
3.31395
20
3.25363
11
3.32143
21
3.25925
0
LINE
8
BLACK
6
CONTINUOUS
10
3.32143
20
3.25925
11
3.32973
21
3.26357
0
LINE
8
BLACK
6
CONTINUOUS
10
3.32973
20
3.26357
11
3.33862
21
3.26648
0
LINE
8
BLACK
6
CONTINUOUS
10
3.33862
20
3.26648
11
3.34787
21
3.26789
0
LINE
8
BLACK
6
CONTINUOUS
10
3.34787
20
3.26789
11
3.35722
21
3.26778
0
LINE
8
BLACK
6
CONTINUOUS
10
0.132325
20
3.24587
11
0.139481
21
3.24365
0
LINE
8
BLACK
6
CONTINUOUS
10
0.139481
20
3.24365
11
0.146071
21
3.24009
0
LINE
8
BLACK
6
CONTINUOUS
10
0.146071
20
3.24009
11
0.151844
21
3.23532
0
LINE
8
BLACK
6
CONTINUOUS
10
0.151844
20
3.23532
11
0.156579
21
3.22951
0
LINE
8
BLACK
6
CONTINUOUS
10
0.156579
20
3.22951
11
0.160096
21
3.2229
0
LINE
8
BLACK
6
CONTINUOUS
10
0.160096
20
3.2229
11
0.162261
21
3.21572
0
LINE
8
BLACK
6
CONTINUOUS
10
0.162261
20
3.21572
11
0.162992
21
3.20827
0
LINE
8
BLACK
6
CONTINUOUS
10
0.162992
20
3.20827
11
0.162977
21
3.2072
0
LINE
8
BLACK
6
CONTINUOUS
10
0.162977
20
3.2072
11
0.162038
21
3.19976
0
LINE
8
BLACK
6
CONTINUOUS
10
0.162038
20
3.19976
11
0.159674
21
3.19265
0
LINE
8
BLACK
6
CONTINUOUS
10
0.159674
20
3.19265
11
0.155973
21
3.18614
0
LINE
8
BLACK
6
CONTINUOUS
10
0.155973
20
3.18614
11
0.151078
21
3.18047
0
LINE
8
BLACK
6
CONTINUOUS
10
0.151078
20
3.18047
11
0.145174
21
3.17586
0
LINE
8
BLACK
6
CONTINUOUS
10
0.145174
20
3.17586
11
0.138488
21
3.17248
0
LINE
8
BLACK
6
CONTINUOUS
10
0.138488
20
3.17248
11
0.131272
21
3.17046
0
LINE
8
BLACK
6
CONTINUOUS
10
0.131272
20
3.17046
11
0.123802
21
3.16989
0
LINE
8
BLACK
6
CONTINUOUS
10
0.123802
20
3.16989
11
0.116364
21
3.17078
0
LINE
8
BLACK
6
CONTINUOUS
10
0.116364
20
3.17078
11
0.109239
21
3.17309
0
LINE
8
BLACK
6
CONTINUOUS
10
0.109239
20
3.17309
11
0.102699
21
3.17675
0
LINE
8
BLACK
6
CONTINUOUS
10
0.102699
20
3.17675
11
0.0969939
21
3.1816
0
LINE
8
BLACK
6
CONTINUOUS
10
0.0969939
20
3.1816
11
0.0923405
21
3.18747
0
LINE
8
BLACK
6
CONTINUOUS
10
0.0923405
20
3.18747
11
0.0889161
21
3.19414
0
LINE
8
BLACK
6
CONTINUOUS
10
0.0889161
20
3.19414
11
0.0868511
21
3.20134
0
LINE
8
BLACK
6
CONTINUOUS
10
0.0868511
20
3.20134
11
0.0862242
21
3.2088
0
LINE
8
BLACK
6
CONTINUOUS
10
0.0862242
20
3.2088
11
0.0870593
21
3.21625
0
LINE
8
BLACK
6
CONTINUOUS
10
0.0870593
20
3.21625
11
0.0893245
21
3.22339
0
LINE
8
BLACK
6
CONTINUOUS
10
0.0893245
20
3.22339
11
0.0929336
21
3.22995
0
LINE
8
BLACK
6
CONTINUOUS
10
0.0929336
20
3.22995
11
0.0977491
21
3.23569
0
LINE
8
BLACK
6
CONTINUOUS
10
0.0977491
20
3.23569
11
0.103588
21
3.24039
0
LINE
8
BLACK
6
CONTINUOUS
10
0.103588
20
3.24039
11
0.110227
21
3.24386
0
LINE
8
BLACK
6
CONTINUOUS
10
0.110227
20
3.24386
11
0.117414
21
3.24597
0
LINE
8
BLACK
6
CONTINUOUS
10
0.117414
20
3.24597
11
0.124874
21
3.24665
0
LINE
8
BLACK
6
CONTINUOUS
10
0.124874
20
3.24665
11
0.132325
21
3.24587
0
LINE
8
BLACK
6
CONTINUOUS
10
0.833112
20
3.24587
11
0.840269
21
3.24365
0
LINE
8
BLACK
6
CONTINUOUS
10
0.840269
20
3.24365
11
0.846859
21
3.24009
0
LINE
8
BLACK
6
CONTINUOUS
10
0.846859
20
3.24009
11
0.852631
21
3.23532
0
LINE
8
BLACK
6
CONTINUOUS
10
0.852631
20
3.23532
11
0.857366
21
3.22951
0
LINE
8
BLACK
6
CONTINUOUS
10
0.857366
20
3.22951
11
0.860883
21
3.2229
0
LINE
8
BLACK
6
CONTINUOUS
10
0.860883
20
3.2229
11
0.863048
21
3.21572
0
LINE
8
BLACK
6
CONTINUOUS
10
0.863048
20
3.21572
11
0.86378
21
3.20827
0
LINE
8
BLACK
6
CONTINUOUS
10
0.86378
20
3.20827
11
0.863765
21
3.2072
0
LINE
8
BLACK
6
CONTINUOUS
10
0.863765
20
3.2072
11
0.862826
21
3.19976
0
LINE
8
BLACK
6
CONTINUOUS
10
0.862826
20
3.19976
11
0.860461
21
3.19265
0
LINE
8
BLACK
6
CONTINUOUS
10
0.860461
20
3.19265
11
0.85676
21
3.18614
0
LINE
8
BLACK
6
CONTINUOUS
10
0.85676
20
3.18614
11
0.851865
21
3.18047
0
LINE
8
BLACK
6
CONTINUOUS
10
0.851865
20
3.18047
11
0.845962
21
3.17586
0
LINE
8
BLACK
6
CONTINUOUS
10
0.845962
20
3.17586
11
0.839275
21
3.17248
0
LINE
8
BLACK
6
CONTINUOUS
10
0.839275
20
3.17248
11
0.832059
21
3.17046
0
LINE
8
BLACK
6
CONTINUOUS
10
0.832059
20
3.17046
11
0.82459
21
3.16989
0
LINE
8
BLACK
6
CONTINUOUS
10
0.82459
20
3.16989
11
0.817151
21
3.17078
0
LINE
8
BLACK
6
CONTINUOUS
10
0.817151
20
3.17078
11
0.810026
21
3.17309
0
LINE
8
BLACK
6
CONTINUOUS
10
0.810026
20
3.17309
11
0.803486
21
3.17675
0
LINE
8
BLACK
6
CONTINUOUS
10
0.803486
20
3.17675
11
0.797781
21
3.1816
0
LINE
8
BLACK
6
CONTINUOUS
10
0.797781
20
3.1816
11
0.793128
21
3.18747
0
LINE
8
BLACK
6
CONTINUOUS
10
0.793128
20
3.18747
11
0.789703
21
3.19414
0
LINE
8
BLACK
6
CONTINUOUS
10
0.789703
20
3.19414
11
0.787639
21
3.20134
0
LINE
8
BLACK
6
CONTINUOUS
10
0.787639
20
3.20134
11
0.787012
21
3.2088
0
LINE
8
BLACK
6
CONTINUOUS
10
0.787012
20
3.2088
11
0.787847
21
3.21625
0
LINE
8
BLACK
6
CONTINUOUS
10
0.787847
20
3.21625
11
0.790112
21
3.22339
0
LINE
8
BLACK
6
CONTINUOUS
10
0.790112
20
3.22339
11
0.793721
21
3.22995
0
LINE
8
BLACK
6
CONTINUOUS
10
0.793721
20
3.22995
11
0.798537
21
3.23569
0
LINE
8
BLACK
6
CONTINUOUS
10
0.798537
20
3.23569
11
0.804375
21
3.24039
0
LINE
8
BLACK
6
CONTINUOUS
10
0.804375
20
3.24039
11
0.811014
21
3.24386
0
LINE
8
BLACK
6
CONTINUOUS
10
0.811014
20
3.24386
11
0.818201
21
3.24597
0
LINE
8
BLACK
6
CONTINUOUS
10
0.818201
20
3.24597
11
0.825662
21
3.24665
0
LINE
8
BLACK
6
CONTINUOUS
10
0.825662
20
3.24665
11
0.833112
21
3.24587
0
LINE
8
BLACK
6
CONTINUOUS
10
2.58311
20
3.24587
11
2.59027
21
3.24365
0
LINE
8
BLACK
6
CONTINUOUS
10
2.59027
20
3.24365
11
2.59686
21
3.24009
0
LINE
8
BLACK
6
CONTINUOUS
10
2.59686
20
3.24009
11
2.60263
21
3.23532
0
LINE
8
BLACK
6
CONTINUOUS
10
2.60263
20
3.23532
11
2.60737
21
3.22951
0
LINE
8
BLACK
6
CONTINUOUS
10
2.60737
20
3.22951
11
2.61088
21
3.2229
0
LINE
8
BLACK
6
CONTINUOUS
10
2.61088
20
3.2229
11
2.61305
21
3.21572
0
LINE
8
BLACK
6
CONTINUOUS
10
2.61305
20
3.21572
11
2.61378
21
3.20827
0
LINE
8
BLACK
6
CONTINUOUS
10
2.61378
20
3.20827
11
2.61376
21
3.2072
0
LINE
8
BLACK
6
CONTINUOUS
10
2.61376
20
3.2072
11
2.61283
21
3.19976
0
LINE
8
BLACK
6
CONTINUOUS
10
2.61283
20
3.19976
11
2.61046
21
3.19265
0
LINE
8
BLACK
6
CONTINUOUS
10
2.61046
20
3.19265
11
2.60676
21
3.18614
0
LINE
8
BLACK
6
CONTINUOUS
10
2.60676
20
3.18614
11
2.60187
21
3.18047
0
LINE
8
BLACK
6
CONTINUOUS
10
2.60187
20
3.18047
11
2.59596
21
3.17586
0
LINE
8
BLACK
6
CONTINUOUS
10
2.59596
20
3.17586
11
2.58927
21
3.17248
0
LINE
8
BLACK
6
CONTINUOUS
10
2.58927
20
3.17248
11
2.58206
21
3.17046
0
LINE
8
BLACK
6
CONTINUOUS
10
2.58206
20
3.17046
11
2.57459
21
3.16989
0
LINE
8
BLACK
6
CONTINUOUS
10
2.57459
20
3.16989
11
2.56715
21
3.17078
0
LINE
8
BLACK
6
CONTINUOUS
10
2.56715
20
3.17078
11
2.56003
21
3.17309
0
LINE
8
BLACK
6
CONTINUOUS
10
2.56003
20
3.17309
11
2.55349
21
3.17675
0
LINE
8
BLACK
6
CONTINUOUS
10
2.55349
20
3.17675
11
2.54778
21
3.1816
0
LINE
8
BLACK
6
CONTINUOUS
10
2.54778
20
3.1816
11
2.54313
21
3.18747
0
LINE
8
BLACK
6
CONTINUOUS
10
2.54313
20
3.18747
11
2.5397
21
3.19414
0
LINE
8
BLACK
6
CONTINUOUS
10
2.5397
20
3.19414
11
2.53764
21
3.20134
0
LINE
8
BLACK
6
CONTINUOUS
10
2.53764
20
3.20134
11
2.53701
21
3.2088
0
LINE
8
BLACK
6
CONTINUOUS
10
2.53701
20
3.2088
11
2.53785
21
3.21625
0
LINE
8
BLACK
6
CONTINUOUS
10
2.53785
20
3.21625
11
2.54011
21
3.22339
0
LINE
8
BLACK
6
CONTINUOUS
10
2.54011
20
3.22339
11
2.54372
21
3.22995
0
LINE
8
BLACK
6
CONTINUOUS
10
2.54372
20
3.22995
11
2.54854
21
3.23569
0
LINE
8
BLACK
6
CONTINUOUS
10
2.54854
20
3.23569
11
2.55438
21
3.24039
0
LINE
8
BLACK
6
CONTINUOUS
10
2.55438
20
3.24039
11
2.56101
21
3.24386
0
LINE
8
BLACK
6
CONTINUOUS
10
2.56101
20
3.24386
11
2.5682
21
3.24597
0
LINE
8
BLACK
6
CONTINUOUS
10
2.5682
20
3.24597
11
2.57566
21
3.24665
0
LINE
8
BLACK
6
CONTINUOUS
10
2.57566
20
3.24665
11
2.58311
21
3.24587
0
LINE
8
BLACK
6
CONTINUOUS
10
1.88232
20
3.24587
11
1.88948
21
3.24365
0
LINE
8
BLACK
6
CONTINUOUS
10
1.88948
20
3.24365
11
1.89607
21
3.24009
0
LINE
8
BLACK
6
CONTINUOUS
10
1.89607
20
3.24009
11
1.90184
21
3.23532
0
LINE
8
BLACK
6
CONTINUOUS
10
1.90184
20
3.23532
11
1.90658
21
3.22951
0
LINE
8
BLACK
6
CONTINUOUS
10
1.90658
20
3.22951
11
1.9101
21
3.2229
0
LINE
8
BLACK
6
CONTINUOUS
10
1.9101
20
3.2229
11
1.91226
21
3.21572
0
LINE
8
BLACK
6
CONTINUOUS
10
1.91226
20
3.21572
11
1.91299
21
3.20827
0
LINE
8
BLACK
6
CONTINUOUS
10
1.91299
20
3.20827
11
1.91298
21
3.2072
0
LINE
8
BLACK
6
CONTINUOUS
10
1.91298
20
3.2072
11
1.91204
21
3.19976
0
LINE
8
BLACK
6
CONTINUOUS
10
1.91204
20
3.19976
11
1.90967
21
3.19265
0
LINE
8
BLACK
6
CONTINUOUS
10
1.90967
20
3.19265
11
1.90597
21
3.18614
0
LINE
8
BLACK
6
CONTINUOUS
10
1.90597
20
3.18614
11
1.90108
21
3.18047
0
LINE
8
BLACK
6
CONTINUOUS
10
1.90108
20
3.18047
11
1.89517
21
3.17586
0
LINE
8
BLACK
6
CONTINUOUS
10
1.89517
20
3.17586
11
1.88849
21
3.17248
0
LINE
8
BLACK
6
CONTINUOUS
10
1.88849
20
3.17248
11
1.88127
21
3.17046
0
LINE
8
BLACK
6
CONTINUOUS
10
1.88127
20
3.17046
11
1.8738
21
3.16989
0
LINE
8
BLACK
6
CONTINUOUS
10
1.8738
20
3.16989
11
1.86636
21
3.17078
0
LINE
8
BLACK
6
CONTINUOUS
10
1.86636
20
3.17078
11
1.85924
21
3.17309
0
LINE
8
BLACK
6
CONTINUOUS
10
1.85924
20
3.17309
11
1.8527
21
3.17675
0
LINE
8
BLACK
6
CONTINUOUS
10
1.8527
20
3.17675
11
1.84699
21
3.1816
0
LINE
8
BLACK
6
CONTINUOUS
10
1.84699
20
3.1816
11
1.84234
21
3.18747
0
LINE
8
BLACK
6
CONTINUOUS
10
1.84234
20
3.18747
11
1.83892
21
3.19414
0
LINE
8
BLACK
6
CONTINUOUS
10
1.83892
20
3.19414
11
1.83685
21
3.20134
0
LINE
8
BLACK
6
CONTINUOUS
10
1.83685
20
3.20134
11
1.83622
21
3.2088
0
LINE
8
BLACK
6
CONTINUOUS
10
1.83622
20
3.2088
11
1.83706
21
3.21625
0
LINE
8
BLACK
6
CONTINUOUS
10
1.83706
20
3.21625
11
1.83932
21
3.22339
0
LINE
8
BLACK
6
CONTINUOUS
10
1.83932
20
3.22339
11
1.84293
21
3.22995
0
LINE
8
BLACK
6
CONTINUOUS
10
1.84293
20
3.22995
11
1.84775
21
3.23569
0
LINE
8
BLACK
6
CONTINUOUS
10
1.84775
20
3.23569
11
1.85359
21
3.24039
0
LINE
8
BLACK
6
CONTINUOUS
10
1.85359
20
3.24039
11
1.86023
21
3.24386
0
LINE
8
BLACK
6
CONTINUOUS
10
1.86023
20
3.24386
11
1.86741
21
3.24597
0
LINE
8
BLACK
6
CONTINUOUS
10
1.86741
20
3.24597
11
1.87487
21
3.24665
0
LINE
8
BLACK
6
CONTINUOUS
10
1.87487
20
3.24665
11
1.88232
21
3.24587
0
LINE
8
BLACK
6
CONTINUOUS
10
3.21023
20
3.24394
11
3.21677
21
3.24196
0
LINE
8
BLACK
6
CONTINUOUS
10
3.21677
20
3.24196
11
3.22269
21
3.23853
0
LINE
8
BLACK
6
CONTINUOUS
10
3.22269
20
3.23853
11
3.22765
21
3.23382
0
LINE
8
BLACK
6
CONTINUOUS
10
3.22765
20
3.23382
11
3.2314
21
3.2281
0
LINE
8
BLACK
6
CONTINUOUS
10
3.2314
20
3.2281
11
3.23374
21
3.22167
0
LINE
8
BLACK
6
CONTINUOUS
10
3.23374
20
3.22167
11
3.23453
21
3.21488
0
LINE
8
BLACK
6
CONTINUOUS
10
3.23453
20
3.21488
11
3.23453
21
3.20701
0
LINE
8
BLACK
6
CONTINUOUS
10
3.23453
20
3.20701
11
3.2343
21
3.20336
0
LINE
8
BLACK
6
CONTINUOUS
10
3.2343
20
3.20336
11
3.23268
21
3.19672
0
LINE
8
BLACK
6
CONTINUOUS
10
3.23268
20
3.19672
11
3.22957
21
3.19062
0
LINE
8
BLACK
6
CONTINUOUS
10
3.22957
20
3.19062
11
3.22514
21
3.18541
0
LINE
8
BLACK
6
CONTINUOUS
10
3.22514
20
3.18541
11
3.21963
21
3.18136
0
LINE
8
BLACK
6
CONTINUOUS
10
3.21963
20
3.18136
11
3.21334
21
3.17868
0
LINE
8
BLACK
6
CONTINUOUS
10
3.21334
20
3.17868
11
3.2066
21
3.17752
0
LINE
8
BLACK
6
CONTINUOUS
10
3.2066
20
3.17752
11
3.19977
21
3.17795
0
LINE
8
BLACK
6
CONTINUOUS
10
3.19977
20
3.17795
11
3.19323
21
3.17993
0
LINE
8
BLACK
6
CONTINUOUS
10
3.19323
20
3.17993
11
3.18731
21
3.18336
0
LINE
8
BLACK
6
CONTINUOUS
10
3.18731
20
3.18336
11
3.18235
21
3.18807
0
LINE
8
BLACK
6
CONTINUOUS
10
3.18235
20
3.18807
11
3.18005
21
3.19157
0
LINE
8
BLACK
6
CONTINUOUS
10
3.18005
20
3.19157
11
3.17957
21
3.19062
0
LINE
8
BLACK
6
CONTINUOUS
10
3.17957
20
3.19062
11
3.17514
21
3.18541
0
LINE
8
BLACK
6
CONTINUOUS
10
3.17514
20
3.18541
11
3.16963
21
3.18136
0
LINE
8
BLACK
6
CONTINUOUS
10
3.16963
20
3.18136
11
3.16334
21
3.17868
0
LINE
8
BLACK
6
CONTINUOUS
10
3.16334
20
3.17868
11
3.1566
21
3.17752
0
LINE
8
BLACK
6
CONTINUOUS
10
3.1566
20
3.17752
11
3.14977
21
3.17795
0
LINE
8
BLACK
6
CONTINUOUS
10
3.14977
20
3.17795
11
3.14323
21
3.17993
0
LINE
8
BLACK
6
CONTINUOUS
10
3.14323
20
3.17993
11
3.13731
21
3.18336
0
LINE
8
BLACK
6
CONTINUOUS
10
3.13731
20
3.18336
11
3.13235
21
3.18807
0
LINE
8
BLACK
6
CONTINUOUS
10
3.13235
20
3.18807
11
3.1286
21
3.19379
0
LINE
8
BLACK
6
CONTINUOUS
10
3.1286
20
3.19379
11
3.12626
21
3.20022
0
LINE
8
BLACK
6
CONTINUOUS
10
3.12626
20
3.20022
11
3.12547
21
3.20701
0
LINE
8
BLACK
6
CONTINUOUS
10
3.12547
20
3.20701
11
3.12547
21
3.21488
0
LINE
8
BLACK
6
CONTINUOUS
10
3.12547
20
3.21488
11
3.1257
21
3.21853
0
LINE
8
BLACK
6
CONTINUOUS
10
3.1257
20
3.21853
11
3.12732
21
3.22517
0
LINE
8
BLACK
6
CONTINUOUS
10
3.12732
20
3.22517
11
3.13043
21
3.23127
0
LINE
8
BLACK
6
CONTINUOUS
10
3.13043
20
3.23127
11
3.13486
21
3.23648
0
LINE
8
BLACK
6
CONTINUOUS
10
3.13486
20
3.23648
11
3.14037
21
3.24053
0
LINE
8
BLACK
6
CONTINUOUS
10
3.14037
20
3.24053
11
3.14666
21
3.24321
0
LINE
8
BLACK
6
CONTINUOUS
10
3.14666
20
3.24321
11
3.1534
21
3.24437
0
LINE
8
BLACK
6
CONTINUOUS
10
3.1534
20
3.24437
11
3.16023
21
3.24394
0
LINE
8
BLACK
6
CONTINUOUS
10
3.16023
20
3.24394
11
3.16677
21
3.24196
0
LINE
8
BLACK
6
CONTINUOUS
10
3.16677
20
3.24196
11
3.17269
21
3.23853
0
LINE
8
BLACK
6
CONTINUOUS
10
3.17269
20
3.23853
11
3.17765
21
3.23382
0
LINE
8
BLACK
6
CONTINUOUS
10
3.17765
20
3.23382
11
3.17995
21
3.23032
0
LINE
8
BLACK
6
CONTINUOUS
10
3.17995
20
3.23032
11
3.18043
21
3.23127
0
LINE
8
BLACK
6
CONTINUOUS
10
3.18043
20
3.23127
11
3.18486
21
3.23648
0
LINE
8
BLACK
6
CONTINUOUS
10
3.18486
20
3.23648
11
3.19037
21
3.24053
0
LINE
8
BLACK
6
CONTINUOUS
10
3.19037
20
3.24053
11
3.19666
21
3.24321
0
LINE
8
BLACK
6
CONTINUOUS
10
3.19666
20
3.24321
11
3.2034
21
3.24437
0
LINE
8
BLACK
6
CONTINUOUS
10
3.2034
20
3.24437
11
3.21023
21
3.24394
0
LINE
8
BLACK
6
CONTINUOUS
10
3.06023
20
3.24394
11
3.06677
21
3.24196
0
LINE
8
BLACK
6
CONTINUOUS
10
3.06677
20
3.24196
11
3.07269
21
3.23853
0
LINE
8
BLACK
6
CONTINUOUS
10
3.07269
20
3.23853
11
3.07765
21
3.23382
0
LINE
8
BLACK
6
CONTINUOUS
10
3.07765
20
3.23382
11
3.0814
21
3.2281
0
LINE
8
BLACK
6
CONTINUOUS
10
3.0814
20
3.2281
11
3.08374
21
3.22167
0
LINE
8
BLACK
6
CONTINUOUS
10
3.08374
20
3.22167
11
3.08453
21
3.21488
0
LINE
8
BLACK
6
CONTINUOUS
10
3.08453
20
3.21488
11
3.08453
21
3.20701
0
LINE
8
BLACK
6
CONTINUOUS
10
3.08453
20
3.20701
11
3.0843
21
3.20336
0
LINE
8
BLACK
6
CONTINUOUS
10
3.0843
20
3.20336
11
3.08268
21
3.19672
0
LINE
8
BLACK
6
CONTINUOUS
10
3.08268
20
3.19672
11
3.07957
21
3.19062
0
LINE
8
BLACK
6
CONTINUOUS
10
3.07957
20
3.19062
11
3.07514
21
3.18541
0
LINE
8
BLACK
6
CONTINUOUS
10
3.07514
20
3.18541
11
3.06963
21
3.18136
0
LINE
8
BLACK
6
CONTINUOUS
10
3.06963
20
3.18136
11
3.06334
21
3.17868
0
LINE
8
BLACK
6
CONTINUOUS
10
3.06334
20
3.17868
11
3.0566
21
3.17752
0
LINE
8
BLACK
6
CONTINUOUS
10
3.0566
20
3.17752
11
3.04977
21
3.17795
0
LINE
8
BLACK
6
CONTINUOUS
10
3.04977
20
3.17795
11
3.04323
21
3.17993
0
LINE
8
BLACK
6
CONTINUOUS
10
3.04323
20
3.17993
11
3.03731
21
3.18336
0
LINE
8
BLACK
6
CONTINUOUS
10
3.03731
20
3.18336
11
3.03235
21
3.18807
0
LINE
8
BLACK
6
CONTINUOUS
10
3.03235
20
3.18807
11
3.03005
21
3.19157
0
LINE
8
BLACK
6
CONTINUOUS
10
3.03005
20
3.19157
11
3.02957
21
3.19062
0
LINE
8
BLACK
6
CONTINUOUS
10
3.02957
20
3.19062
11
3.02514
21
3.18541
0
LINE
8
BLACK
6
CONTINUOUS
10
3.02514
20
3.18541
11
3.01963
21
3.18136
0
LINE
8
BLACK
6
CONTINUOUS
10
3.01963
20
3.18136
11
3.01334
21
3.17868
0
LINE
8
BLACK
6
CONTINUOUS
10
3.01334
20
3.17868
11
3.0066
21
3.17752
0
LINE
8
BLACK
6
CONTINUOUS
10
3.0066
20
3.17752
11
2.99977
21
3.17795
0
LINE
8
BLACK
6
CONTINUOUS
10
2.99977
20
3.17795
11
2.99323
21
3.17993
0
LINE
8
BLACK
6
CONTINUOUS
10
2.99323
20
3.17993
11
2.98731
21
3.18336
0
LINE
8
BLACK
6
CONTINUOUS
10
2.98731
20
3.18336
11
2.98235
21
3.18807
0
LINE
8
BLACK
6
CONTINUOUS
10
2.98235
20
3.18807
11
2.9786
21
3.19379
0
LINE
8
BLACK
6
CONTINUOUS
10
2.9786
20
3.19379
11
2.97626
21
3.20022
0
LINE
8
BLACK
6
CONTINUOUS
10
2.97626
20
3.20022
11
2.97547
21
3.20701
0
LINE
8
BLACK
6
CONTINUOUS
10
2.97547
20
3.20701
11
2.97547
21
3.21488
0
LINE
8
BLACK
6
CONTINUOUS
10
2.97547
20
3.21488
11
2.9757
21
3.21853
0
LINE
8
BLACK
6
CONTINUOUS
10
2.9757
20
3.21853
11
2.97732
21
3.22517
0
LINE
8
BLACK
6
CONTINUOUS
10
2.97732
20
3.22517
11
2.98043
21
3.23127
0
LINE
8
BLACK
6
CONTINUOUS
10
2.98043
20
3.23127
11
2.98486
21
3.23648
0
LINE
8
BLACK
6
CONTINUOUS
10
2.98486
20
3.23648
11
2.99037
21
3.24053
0
LINE
8
BLACK
6
CONTINUOUS
10
2.99037
20
3.24053
11
2.99666
21
3.24321
0
LINE
8
BLACK
6
CONTINUOUS
10
2.99666
20
3.24321
11
3.0034
21
3.24437
0
LINE
8
BLACK
6
CONTINUOUS
10
3.0034
20
3.24437
11
3.01023
21
3.24394
0
LINE
8
BLACK
6
CONTINUOUS
10
3.01023
20
3.24394
11
3.01677
21
3.24196
0
LINE
8
BLACK
6
CONTINUOUS
10
3.01677
20
3.24196
11
3.02269
21
3.23853
0
LINE
8
BLACK
6
CONTINUOUS
10
3.02269
20
3.23853
11
3.02765
21
3.23382
0
LINE
8
BLACK
6
CONTINUOUS
10
3.02765
20
3.23382
11
3.02995
21
3.23032
0
LINE
8
BLACK
6
CONTINUOUS
10
3.02995
20
3.23032
11
3.03043
21
3.23127
0
LINE
8
BLACK
6
CONTINUOUS
10
3.03043
20
3.23127
11
3.03486
21
3.23648
0
LINE
8
BLACK
6
CONTINUOUS
10
3.03486
20
3.23648
11
3.04037
21
3.24053
0
LINE
8
BLACK
6
CONTINUOUS
10
3.04037
20
3.24053
11
3.04666
21
3.24321
0
LINE
8
BLACK
6
CONTINUOUS
10
3.04666
20
3.24321
11
3.0534
21
3.24437
0
LINE
8
BLACK
6
CONTINUOUS
10
3.0534
20
3.24437
11
3.06023
21
3.24394
0
LINE
8
BLACK
6
CONTINUOUS
10
3.11023
20
3.303
11
3.11677
21
3.30102
0
LINE
8
BLACK
6
CONTINUOUS
10
3.11677
20
3.30102
11
3.12269
21
3.29758
0
LINE
8
BLACK
6
CONTINUOUS
10
3.12269
20
3.29758
11
3.12765
21
3.29288
0
LINE
8
BLACK
6
CONTINUOUS
10
3.12765
20
3.29288
11
3.1314
21
3.28716
0
LINE
8
BLACK
6
CONTINUOUS
10
3.1314
20
3.28716
11
3.13374
21
3.28073
0
LINE
8
BLACK
6
CONTINUOUS
10
3.13374
20
3.28073
11
3.13453
21
3.27394
0
LINE
8
BLACK
6
CONTINUOUS
10
3.13453
20
3.27394
11
3.13453
21
3.26606
0
LINE
8
BLACK
6
CONTINUOUS
10
3.13453
20
3.26606
11
3.1343
21
3.26241
0
LINE
8
BLACK
6
CONTINUOUS
10
3.1343
20
3.26241
11
3.13268
21
3.25577
0
LINE
8
BLACK
6
CONTINUOUS
10
3.13268
20
3.25577
11
3.12957
21
3.24968
0
LINE
8
BLACK
6
CONTINUOUS
10
3.12957
20
3.24968
11
3.12514
21
3.24447
0
LINE
8
BLACK
6
CONTINUOUS
10
3.12514
20
3.24447
11
3.11963
21
3.24041
0
LINE
8
BLACK
6
CONTINUOUS
10
3.11963
20
3.24041
11
3.11334
21
3.23774
0
LINE
8
BLACK
6
CONTINUOUS
10
3.11334
20
3.23774
11
3.1066
21
3.23658
0
LINE
8
BLACK
6
CONTINUOUS
10
3.1066
20
3.23658
11
3.09977
21
3.237
0
LINE
8
BLACK
6
CONTINUOUS
10
3.09977
20
3.237
11
3.09323
21
3.23898
0
LINE
8
BLACK
6
CONTINUOUS
10
3.09323
20
3.23898
11
3.08731
21
3.24242
0
LINE
8
BLACK
6
CONTINUOUS
10
3.08731
20
3.24242
11
3.08235
21
3.24712
0
LINE
8
BLACK
6
CONTINUOUS
10
3.08235
20
3.24712
11
3.0786
21
3.25284
0
LINE
8
BLACK
6
CONTINUOUS
10
3.0786
20
3.25284
11
3.07626
21
3.25927
0
LINE
8
BLACK
6
CONTINUOUS
10
3.07626
20
3.25927
11
3.07547
21
3.26606
0
LINE
8
BLACK
6
CONTINUOUS
10
3.07547
20
3.26606
11
3.07547
21
3.27394
0
LINE
8
BLACK
6
CONTINUOUS
10
3.07547
20
3.27394
11
3.0757
21
3.27759
0
LINE
8
BLACK
6
CONTINUOUS
10
3.0757
20
3.27759
11
3.07732
21
3.28423
0
LINE
8
BLACK
6
CONTINUOUS
10
3.07732
20
3.28423
11
3.08043
21
3.29032
0
LINE
8
BLACK
6
CONTINUOUS
10
3.08043
20
3.29032
11
3.08486
21
3.29553
0
LINE
8
BLACK
6
CONTINUOUS
10
3.08486
20
3.29553
11
3.09037
21
3.29959
0
LINE
8
BLACK
6
CONTINUOUS
10
3.09037
20
3.29959
11
3.09666
21
3.30226
0
LINE
8
BLACK
6
CONTINUOUS
10
3.09666
20
3.30226
11
3.1034
21
3.30342
0
LINE
8
BLACK
6
CONTINUOUS
10
3.1034
20
3.30342
11
3.11023
21
3.303
0
LINE
8
BLACK
6
CONTINUOUS
10
2.96023
20
3.303
11
2.96677
21
3.30102
0
LINE
8
BLACK
6
CONTINUOUS
10
2.96677
20
3.30102
11
2.97269
21
3.29758
0
LINE
8
BLACK
6
CONTINUOUS
10
2.97269
20
3.29758
11
2.97765
21
3.29288
0
LINE
8
BLACK
6
CONTINUOUS
10
2.97765
20
3.29288
11
2.9814
21
3.28716
0
LINE
8
BLACK
6
CONTINUOUS
10
2.9814
20
3.28716
11
2.98374
21
3.28073
0
LINE
8
BLACK
6
CONTINUOUS
10
2.98374
20
3.28073
11
2.98453
21
3.27394
0
LINE
8
BLACK
6
CONTINUOUS
10
2.98453
20
3.27394
11
2.98453
21
3.26606
0
LINE
8
BLACK
6
CONTINUOUS
10
2.98453
20
3.26606
11
2.9843
21
3.26241
0
LINE
8
BLACK
6
CONTINUOUS
10
2.9843
20
3.26241
11
2.98268
21
3.25577
0
LINE
8
BLACK
6
CONTINUOUS
10
2.98268
20
3.25577
11
2.97957
21
3.24968
0
LINE
8
BLACK
6
CONTINUOUS
10
2.97957
20
3.24968
11
2.97514
21
3.24447
0
LINE
8
BLACK
6
CONTINUOUS
10
2.97514
20
3.24447
11
2.96963
21
3.24041
0
LINE
8
BLACK
6
CONTINUOUS
10
2.96963
20
3.24041
11
2.96334
21
3.23774
0
LINE
8
BLACK
6
CONTINUOUS
10
2.96334
20
3.23774
11
2.9566
21
3.23658
0
LINE
8
BLACK
6
CONTINUOUS
10
2.9566
20
3.23658
11
2.94977
21
3.237
0
LINE
8
BLACK
6
CONTINUOUS
10
2.94977
20
3.237
11
2.94323
21
3.23898
0
LINE
8
BLACK
6
CONTINUOUS
10
2.94323
20
3.23898
11
2.93731
21
3.24242
0
LINE
8
BLACK
6
CONTINUOUS
10
2.93731
20
3.24242
11
2.93235
21
3.24712
0
LINE
8
BLACK
6
CONTINUOUS
10
2.93235
20
3.24712
11
2.9286
21
3.25284
0
LINE
8
BLACK
6
CONTINUOUS
10
2.9286
20
3.25284
11
2.92626
21
3.25927
0
LINE
8
BLACK
6
CONTINUOUS
10
2.92626
20
3.25927
11
2.92547
21
3.26606
0
LINE
8
BLACK
6
CONTINUOUS
10
2.92547
20
3.26606
11
2.92547
21
3.27394
0
LINE
8
BLACK
6
CONTINUOUS
10
2.92547
20
3.27394
11
2.9257
21
3.27759
0
LINE
8
BLACK
6
CONTINUOUS
10
2.9257
20
3.27759
11
2.92732
21
3.28423
0
LINE
8
BLACK
6
CONTINUOUS
10
2.92732
20
3.28423
11
2.93043
21
3.29032
0
LINE
8
BLACK
6
CONTINUOUS
10
2.93043
20
3.29032
11
2.93486
21
3.29553
0
LINE
8
BLACK
6
CONTINUOUS
10
2.93486
20
3.29553
11
2.94037
21
3.29959
0
LINE
8
BLACK
6
CONTINUOUS
10
2.94037
20
3.29959
11
2.94666
21
3.30226
0
LINE
8
BLACK
6
CONTINUOUS
10
2.94666
20
3.30226
11
2.9534
21
3.30342
0
LINE
8
BLACK
6
CONTINUOUS
10
2.9534
20
3.30342
11
2.96023
21
3.303
0
LINE
8
BLACK
6
CONTINUOUS
10
3.26023
20
3.303
11
3.26677
21
3.30102
0
LINE
8
BLACK
6
CONTINUOUS
10
3.26677
20
3.30102
11
3.27269
21
3.29758
0
LINE
8
BLACK
6
CONTINUOUS
10
3.27269
20
3.29758
11
3.27765
21
3.29288
0
LINE
8
BLACK
6
CONTINUOUS
10
3.27765
20
3.29288
11
3.2814
21
3.28716
0
LINE
8
BLACK
6
CONTINUOUS
10
3.2814
20
3.28716
11
3.28374
21
3.28073
0
LINE
8
BLACK
6
CONTINUOUS
10
3.28374
20
3.28073
11
3.28453
21
3.27394
0
LINE
8
BLACK
6
CONTINUOUS
10
3.28453
20
3.27394
11
3.28453
21
3.26606
0
LINE
8
BLACK
6
CONTINUOUS
10
3.28453
20
3.26606
11
3.2843
21
3.26241
0
LINE
8
BLACK
6
CONTINUOUS
10
3.2843
20
3.26241
11
3.28268
21
3.25577
0
LINE
8
BLACK
6
CONTINUOUS
10
3.28268
20
3.25577
11
3.27957
21
3.24968
0
LINE
8
BLACK
6
CONTINUOUS
10
3.27957
20
3.24968
11
3.27514
21
3.24447
0
LINE
8
BLACK
6
CONTINUOUS
10
3.27514
20
3.24447
11
3.26963
21
3.24041
0
LINE
8
BLACK
6
CONTINUOUS
10
3.26963
20
3.24041
11
3.26334
21
3.23774
0
LINE
8
BLACK
6
CONTINUOUS
10
3.26334
20
3.23774
11
3.2566
21
3.23658
0
LINE
8
BLACK
6
CONTINUOUS
10
3.2566
20
3.23658
11
3.24977
21
3.237
0
LINE
8
BLACK
6
CONTINUOUS
10
3.24977
20
3.237
11
3.24323
21
3.23898
0
LINE
8
BLACK
6
CONTINUOUS
10
3.24323
20
3.23898
11
3.23731
21
3.24242
0
LINE
8
BLACK
6
CONTINUOUS
10
3.23731
20
3.24242
11
3.23235
21
3.24712
0
LINE
8
BLACK
6
CONTINUOUS
10
3.23235
20
3.24712
11
3.2286
21
3.25284
0
LINE
8
BLACK
6
CONTINUOUS
10
3.2286
20
3.25284
11
3.22626
21
3.25927
0
LINE
8
BLACK
6
CONTINUOUS
10
3.22626
20
3.25927
11
3.22547
21
3.26606
0
LINE
8
BLACK
6
CONTINUOUS
10
3.22547
20
3.26606
11
3.22547
21
3.27394
0
LINE
8
BLACK
6
CONTINUOUS
10
3.22547
20
3.27394
11
3.2257
21
3.27759
0
LINE
8
BLACK
6
CONTINUOUS
10
3.2257
20
3.27759
11
3.22732
21
3.28423
0
LINE
8
BLACK
6
CONTINUOUS
10
3.22732
20
3.28423
11
3.23043
21
3.29032
0
LINE
8
BLACK
6
CONTINUOUS
10
3.23043
20
3.29032
11
3.23486
21
3.29553
0
LINE
8
BLACK
6
CONTINUOUS
10
3.23486
20
3.29553
11
3.24037
21
3.29959
0
LINE
8
BLACK
6
CONTINUOUS
10
3.24037
20
3.29959
11
3.24666
21
3.30226
0
LINE
8
BLACK
6
CONTINUOUS
10
3.24666
20
3.30226
11
3.2534
21
3.30342
0
LINE
8
BLACK
6
CONTINUOUS
10
3.2534
20
3.30342
11
3.26023
21
3.303
0
LINE
8
BLACK
6
CONTINUOUS
10
0.214917
20
3.9251
11
0.228769
21
3.92266
0
LINE
8
BLACK
6
CONTINUOUS
10
0.228769
20
3.92266
11
0.242262
21
3.91868
0
LINE
8
BLACK
6
CONTINUOUS
10
0.242262
20
3.91868
11
0.255228
21
3.91323
0
LINE
8
BLACK
6
CONTINUOUS
10
0.255228
20
3.91323
11
0.267506
21
3.90637
0
LINE
8
BLACK
6
CONTINUOUS
10
0.267506
20
3.90637
11
0.278942
21
3.89818
0
LINE
8
BLACK
6
CONTINUOUS
10
0.278942
20
3.89818
11
0.289395
21
3.88877
0
LINE
8
BLACK
6
CONTINUOUS
10
0.289395
20
3.88877
11
0.298733
21
3.87825
0
LINE
8
BLACK
6
CONTINUOUS
10
0.298733
20
3.87825
11
0.306841
21
3.86676
0
LINE
8
BLACK
6
CONTINUOUS
10
0.306841
20
3.86676
11
0.313617
21
3.85444
0
LINE
8
BLACK
6
CONTINUOUS
10
0.313617
20
3.85444
11
0.318977
21
3.84143
0
LINE
8
BLACK
6
CONTINUOUS
10
0.318977
20
3.84143
11
0.322853
21
3.82791
0
LINE
8
BLACK
6
CONTINUOUS
10
0.322853
20
3.82791
11
0.325199
21
3.81404
0
LINE
8
BLACK
6
CONTINUOUS
10
0.325199
20
3.81404
11
0.325984
21
3.8
0
LINE
8
BLACK
6
CONTINUOUS
10
0.325984
20
3.8
11
0.325935
21
3.79648
0
LINE
8
BLACK
6
CONTINUOUS
10
0.325935
20
3.79648
11
0.324758
21
3.78247
0
LINE
8
BLACK
6
CONTINUOUS
10
0.324758
20
3.78247
11
0.322026
21
3.76867
0
LINE
8
BLACK
6
CONTINUOUS
10
0.322026
20
3.76867
11
0.317773
21
3.75526
0
LINE
8
BLACK
6
CONTINUOUS
10
0.317773
20
3.75526
11
0.312052
21
3.74241
0
LINE
8
BLACK
6
CONTINUOUS
10
0.312052
20
3.74241
11
0.304935
21
3.73028
0
LINE
8
BLACK
6
CONTINUOUS
10
0.304935
20
3.73028
11
0.29651
21
3.71902
0
LINE
8
BLACK
6
CONTINUOUS
10
0.29651
20
3.71902
11
0.286881
21
3.70877
0
LINE
8
BLACK
6
CONTINUOUS
10
0.286881
20
3.70877
11
0.27617
21
3.69965
0
LINE
8
BLACK
6
CONTINUOUS
10
0.27617
20
3.69965
11
0.264509
21
3.69178
0
LINE
8
BLACK
6
CONTINUOUS
10
0.264509
20
3.69178
11
0.252045
21
3.68527
0
LINE
8
BLACK
6
CONTINUOUS
10
0.252045
20
3.68527
11
0.238931
21
3.68018
0
LINE
8
BLACK
6
CONTINUOUS
10
0.238931
20
3.68018
11
0.225333
21
3.67659
0
LINE
8
BLACK
6
CONTINUOUS
10
0.225333
20
3.67659
11
0.211418
21
3.67453
0
LINE
8
BLACK
6
CONTINUOUS
10
0.211418
20
3.67453
11
0.197362
21
3.67404
0
LINE
8
BLACK
6
CONTINUOUS
10
0.197362
20
3.67404
11
0.183338
21
3.67512
0
LINE
8
BLACK
6
CONTINUOUS
10
0.183338
20
3.67512
11
0.169522
21
3.67776
0
LINE
8
BLACK
6
CONTINUOUS
10
0.169522
20
3.67776
11
0.156085
21
3.68192
0
LINE
8
BLACK
6
CONTINUOUS
10
0.156085
20
3.68192
11
0.143197
21
3.68755
0
LINE
8
BLACK
6
CONTINUOUS
10
0.143197
20
3.68755
11
0.131016
21
3.69458
0
LINE
8
BLACK
6
CONTINUOUS
10
0.131016
20
3.69458
11
0.119695
21
3.70293
0
LINE
8
BLACK
6
CONTINUOUS
10
0.119695
20
3.70293
11
0.109375
21
3.71248
0
LINE
8
BLACK
6
CONTINUOUS
10
0.109375
20
3.71248
11
0.100184
21
3.72313
0
LINE
8
BLACK
6
CONTINUOUS
10
0.100184
20
3.72313
11
0.0922376
21
3.73474
0
LINE
8
BLACK
6
CONTINUOUS
10
0.0922376
20
3.73474
11
0.0856343
21
3.74716
0
LINE
8
BLACK
6
CONTINUOUS
10
0.0856343
20
3.74716
11
0.0804566
21
3.76023
0
LINE
8
BLACK
6
CONTINUOUS
10
0.0804566
20
3.76023
11
0.0767688
21
3.77381
0
LINE
8
BLACK
6
CONTINUOUS
10
0.0767688
20
3.77381
11
0.074617
21
3.78771
0
LINE
8
BLACK
6
CONTINUOUS
10
0.074617
20
3.78771
11
0.074028
21
3.80176
0
LINE
8
BLACK
6
CONTINUOUS
10
0.074028
20
3.80176
11
0.0750092
21
3.81579
0
LINE
8
BLACK
6
CONTINUOUS
10
0.0750092
20
3.81579
11
0.0775482
21
3.82962
0
LINE
8
BLACK
6
CONTINUOUS
10
0.0775482
20
3.82962
11
0.0816135
21
3.84309
0
LINE
8
BLACK
6
CONTINUOUS
10
0.0816135
20
3.84309
11
0.0871544
21
3.85602
0
LINE
8
BLACK
6
CONTINUOUS
10
0.0871544
20
3.85602
11
0.0941019
21
3.86825
0
LINE
8
BLACK
6
CONTINUOUS
10
0.0941019
20
3.86825
11
0.102369
21
3.87963
0
LINE
8
BLACK
6
CONTINUOUS
10
0.102369
20
3.87963
11
0.111853
21
3.89001
0
LINE
8
BLACK
6
CONTINUOUS
10
0.111853
20
3.89001
11
0.122436
21
3.89928
0
LINE
8
BLACK
6
CONTINUOUS
10
0.122436
20
3.89928
11
0.133986
21
3.9073
0
LINE
8
BLACK
6
CONTINUOUS
10
0.133986
20
3.9073
11
0.146359
21
3.91399
0
LINE
8
BLACK
6
CONTINUOUS
10
0.146359
20
3.91399
11
0.1594
21
3.91926
0
LINE
8
BLACK
6
CONTINUOUS
10
0.1594
20
3.91926
11
0.172947
21
3.92305
0
LINE
8
BLACK
6
CONTINUOUS
10
0.172947
20
3.92305
11
0.186831
21
3.92529
0
LINE
8
BLACK
6
CONTINUOUS
10
0.186831
20
3.92529
11
0.20088
21
3.92598
0
LINE
8
BLACK
6
CONTINUOUS
10
0.20088
20
3.92598
11
0.214917
21
3.9251
0
LINE
8
BLACK
6
CONTINUOUS
10
3.81492
20
3.9251
11
3.82877
21
3.92266
0
LINE
8
BLACK
6
CONTINUOUS
10
3.82877
20
3.92266
11
3.84226
21
3.91868
0
LINE
8
BLACK
6
CONTINUOUS
10
3.84226
20
3.91868
11
3.85523
21
3.91323
0
LINE
8
BLACK
6
CONTINUOUS
10
3.85523
20
3.91323
11
3.86751
21
3.90637
0
LINE
8
BLACK
6
CONTINUOUS
10
3.86751
20
3.90637
11
3.87894
21
3.89818
0
LINE
8
BLACK
6
CONTINUOUS
10
3.87894
20
3.89818
11
3.88939
21
3.88877
0
LINE
8
BLACK
6
CONTINUOUS
10
3.88939
20
3.88877
11
3.89873
21
3.87825
0
LINE
8
BLACK
6
CONTINUOUS
10
3.89873
20
3.87825
11
3.90684
21
3.86676
0
LINE
8
BLACK
6
CONTINUOUS
10
3.90684
20
3.86676
11
3.91362
21
3.85444
0
LINE
8
BLACK
6
CONTINUOUS
10
3.91362
20
3.85444
11
3.91898
21
3.84143
0
LINE
8
BLACK
6
CONTINUOUS
10
3.91898
20
3.84143
11
3.92285
21
3.82791
0
LINE
8
BLACK
6
CONTINUOUS
10
3.92285
20
3.82791
11
3.9252
21
3.81404
0
LINE
8
BLACK
6
CONTINUOUS
10
3.9252
20
3.81404
11
3.92598
21
3.8
0
LINE
8
BLACK
6
CONTINUOUS
10
3.92598
20
3.8
11
3.92594
21
3.79648
0
LINE
8
BLACK
6
CONTINUOUS
10
3.92594
20
3.79648
11
3.92476
21
3.78247
0
LINE
8
BLACK
6
CONTINUOUS
10
3.92476
20
3.78247
11
3.92203
21
3.76867
0
LINE
8
BLACK
6
CONTINUOUS
10
3.92203
20
3.76867
11
3.91777
21
3.75526
0
LINE
8
BLACK
6
CONTINUOUS
10
3.91777
20
3.75526
11
3.91205
21
3.74241
0
LINE
8
BLACK
6
CONTINUOUS
10
3.91205
20
3.74241
11
3.90493
21
3.73028
0
LINE
8
BLACK
6
CONTINUOUS
10
3.90493
20
3.73028
11
3.89651
21
3.71902
0
LINE
8
BLACK
6
CONTINUOUS
10
3.89651
20
3.71902
11
3.88688
21
3.70877
0
LINE
8
BLACK
6
CONTINUOUS
10
3.88688
20
3.70877
11
3.87617
21
3.69965
0
LINE
8
BLACK
6
CONTINUOUS
10
3.87617
20
3.69965
11
3.86451
21
3.69178
0
LINE
8
BLACK
6
CONTINUOUS
10
3.86451
20
3.69178
11
3.85204
21
3.68527
0
LINE
8
BLACK
6
CONTINUOUS
10
3.85204
20
3.68527
11
3.83893
21
3.68018
0
LINE
8
BLACK
6
CONTINUOUS
10
3.83893
20
3.68018
11
3.82533
21
3.67659
0
LINE
8
BLACK
6
CONTINUOUS
10
3.82533
20
3.67659
11
3.81142
21
3.67453
0
LINE
8
BLACK
6
CONTINUOUS
10
3.81142
20
3.67453
11
3.79736
21
3.67404
0
LINE
8
BLACK
6
CONTINUOUS
10
3.79736
20
3.67404
11
3.78334
21
3.67512
0
LINE
8
BLACK
6
CONTINUOUS
10
3.78334
20
3.67512
11
3.76952
21
3.67776
0
LINE
8
BLACK
6
CONTINUOUS
10
3.76952
20
3.67776
11
3.75609
21
3.68192
0
LINE
8
BLACK
6
CONTINUOUS
10
3.75609
20
3.68192
11
3.7432
21
3.68755
0
LINE
8
BLACK
6
CONTINUOUS
10
3.7432
20
3.68755
11
3.73102
21
3.69458
0
LINE
8
BLACK
6
CONTINUOUS
10
3.73102
20
3.69458
11
3.71969
21
3.70293
0
LINE
8
BLACK
6
CONTINUOUS
10
3.71969
20
3.70293
11
3.70937
21
3.71248
0
LINE
8
BLACK
6
CONTINUOUS
10
3.70937
20
3.71248
11
3.70018
21
3.72313
0
LINE
8
BLACK
6
CONTINUOUS
10
3.70018
20
3.72313
11
3.69224
21
3.73474
0
LINE
8
BLACK
6
CONTINUOUS
10
3.69224
20
3.73474
11
3.68563
21
3.74716
0
LINE
8
BLACK
6
CONTINUOUS
10
3.68563
20
3.74716
11
3.68046
21
3.76023
0
LINE
8
BLACK
6
CONTINUOUS
10
3.68046
20
3.76023
11
3.67677
21
3.77381
0
LINE
8
BLACK
6
CONTINUOUS
10
3.67677
20
3.77381
11
3.67462
21
3.78771
0
LINE
8
BLACK
6
CONTINUOUS
10
3.67462
20
3.78771
11
3.67403
21
3.80176
0
LINE
8
BLACK
6
CONTINUOUS
10
3.67403
20
3.80176
11
3.67501
21
3.81579
0
LINE
8
BLACK
6
CONTINUOUS
10
3.67501
20
3.81579
11
3.67755
21
3.82962
0
LINE
8
BLACK
6
CONTINUOUS
10
3.67755
20
3.82962
11
3.68161
21
3.84309
0
LINE
8
BLACK
6
CONTINUOUS
10
3.68161
20
3.84309
11
3.68715
21
3.85602
0
LINE
8
BLACK
6
CONTINUOUS
10
3.68715
20
3.85602
11
3.6941
21
3.86825
0
LINE
8
BLACK
6
CONTINUOUS
10
3.6941
20
3.86825
11
3.70237
21
3.87963
0
LINE
8
BLACK
6
CONTINUOUS
10
3.70237
20
3.87963
11
3.71185
21
3.89001
0
LINE
8
BLACK
6
CONTINUOUS
10
3.71185
20
3.89001
11
3.72244
21
3.89928
0
LINE
8
BLACK
6
CONTINUOUS
10
3.72244
20
3.89928
11
3.73399
21
3.9073
0
LINE
8
BLACK
6
CONTINUOUS
10
3.73399
20
3.9073
11
3.74636
21
3.91399
0
LINE
8
BLACK
6
CONTINUOUS
10
3.74636
20
3.91399
11
3.7594
21
3.91926
0
LINE
8
BLACK
6
CONTINUOUS
10
3.7594
20
3.91926
11
3.77295
21
3.92305
0
LINE
8
BLACK
6
CONTINUOUS
10
3.77295
20
3.92305
11
3.78683
21
3.92529
0
LINE
8
BLACK
6
CONTINUOUS
10
3.78683
20
3.92529
11
3.80088
21
3.92598
0
LINE
8
BLACK
6
CONTINUOUS
10
3.80088
20
3.92598
11
3.81492
21
3.9251
  0
ENDSEC
  0
EOF
