  0
SECTION
  2
HEADER
  9
$ANGBASE
  50
0.0
  9
$ANGDIR
  70
1
  9
$MEASUREMENT
  70
0
  0
ENDSEC
  0
SECTION
  2
TABLES
  0
TABLE
  2
LTYPE
  70
4
  0
LTYPE
  5
40F
  2
CONTINUOUS
  70
0
  3
Solid line
  72
65
  73
0
  40
0.0
  0
LTYPE
  5
410
  2
DASHDOT
 70
0
  3
Dash Dot ____ _ ____ _
 72
65
 73
4
 40
2.0
 49
1.25
 49
-0.25
 49
0.25
 49
-0.25
  0
LTYPE
  5
411
  2
DASHED
 70
0
  3
Dashed __ __ __ __ __
 72
65
 73
2
 40
0.75
 49
0.5
 49
-0.25
  0
LTYPE
  5
43B
  2
DOTTED
 70
0
  3
Dotted .  .  .  .
 72
65
 73
2
 40
0.2
 49
0.0
 49
-0.2
  0
ENDTAB
  0
TABLE
  2
STYLE
  70
4
  0
STYLE
  2
KICAD
  70
0
  40
0
  41
1
  42
1
  50
0
  71
0
  3
isocp.shx
  0
STYLE
  2
KICADB
  70
0
  40
0
  41
1
  42
1
  50
0
  71
0
  3
isocp.shx
  0
STYLE
  2
KICADI
  70
0
  40
0
  41
1
  42
1
  50
15
  71
0
  3
isocp.shx
  0
STYLE
  2
KICADBI
  70
0
  40
0
  41
1
  42
1
  50
15
  71
0
  3
isocp.shx
  0
ENDTAB
  0
TABLE
  2
LAYER
  70
1
  0
LAYER
  2
BLACK
  70
0
  62
7
  6
CONTINUOUS
  0
ENDTAB
  0
ENDSEC
  0
SECTION
  2
ENTITIES
0
LINE
8
BLACK
6
CONTINUOUS
10
0.659134
20
0.118425
11
0.599134
21
0.118425
0
LINE
8
BLACK
6
CONTINUOUS
10
0.599134
20
0.118425
11
0.599134
21
0.178425
0
LINE
8
BLACK
6
CONTINUOUS
10
0.599134
20
0.178425
11
0.659134
21
0.178425
0
LINE
8
BLACK
6
CONTINUOUS
10
0.659134
20
0.178425
11
0.659134
21
0.118425
0
LINE
8
BLACK
6
CONTINUOUS
10
0.759134
20
0.118425
11
0.699134
21
0.118425
0
LINE
8
BLACK
6
CONTINUOUS
10
0.699134
20
0.118425
11
0.699134
21
0.178425
0
LINE
8
BLACK
6
CONTINUOUS
10
0.699134
20
0.178425
11
0.759134
21
0.178425
0
LINE
8
BLACK
6
CONTINUOUS
10
0.759134
20
0.178425
11
0.759134
21
0.118425
0
LINE
8
BLACK
6
CONTINUOUS
10
0.859134
20
0.118425
11
0.799134
21
0.118425
0
LINE
8
BLACK
6
CONTINUOUS
10
0.799134
20
0.118425
11
0.799134
21
0.178425
0
LINE
8
BLACK
6
CONTINUOUS
10
0.799134
20
0.178425
11
0.859134
21
0.178425
0
LINE
8
BLACK
6
CONTINUOUS
10
0.859134
20
0.178425
11
0.859134
21
0.118425
0
LINE
8
BLACK
6
CONTINUOUS
10
0.959134
20
0.118425
11
0.899134
21
0.118425
0
LINE
8
BLACK
6
CONTINUOUS
10
0.899134
20
0.118425
11
0.899134
21
0.178425
0
LINE
8
BLACK
6
CONTINUOUS
10
0.899134
20
0.178425
11
0.959134
21
0.178425
0
LINE
8
BLACK
6
CONTINUOUS
10
0.959134
20
0.178425
11
0.959134
21
0.118425
0
LINE
8
BLACK
6
CONTINUOUS
10
1.05913
20
0.118425
11
0.999134
21
0.118425
0
LINE
8
BLACK
6
CONTINUOUS
10
0.999134
20
0.118425
11
0.999134
21
0.178425
0
LINE
8
BLACK
6
CONTINUOUS
10
0.999134
20
0.178425
11
1.05913
21
0.178425
0
LINE
8
BLACK
6
CONTINUOUS
10
1.05913
20
0.178425
11
1.05913
21
0.118425
0
LINE
8
BLACK
6
CONTINUOUS
10
1.15913
20
0.118425
11
1.09913
21
0.118425
0
LINE
8
BLACK
6
CONTINUOUS
10
1.09913
20
0.118425
11
1.09913
21
0.178425
0
LINE
8
BLACK
6
CONTINUOUS
10
1.09913
20
0.178425
11
1.15913
21
0.178425
0
LINE
8
BLACK
6
CONTINUOUS
10
1.15913
20
0.178425
11
1.15913
21
0.118425
0
LINE
8
BLACK
6
CONTINUOUS
10
1.25913
20
0.118425
11
1.19913
21
0.118425
0
LINE
8
BLACK
6
CONTINUOUS
10
1.19913
20
0.118425
11
1.19913
21
0.178425
0
LINE
8
BLACK
6
CONTINUOUS
10
1.19913
20
0.178425
11
1.25913
21
0.178425
0
LINE
8
BLACK
6
CONTINUOUS
10
1.25913
20
0.178425
11
1.25913
21
0.118425
0
LINE
8
BLACK
6
CONTINUOUS
10
1.35913
20
0.118425
11
1.29913
21
0.118425
0
LINE
8
BLACK
6
CONTINUOUS
10
1.29913
20
0.118425
11
1.29913
21
0.178425
0
LINE
8
BLACK
6
CONTINUOUS
10
1.29913
20
0.178425
11
1.35913
21
0.178425
0
LINE
8
BLACK
6
CONTINUOUS
10
1.35913
20
0.178425
11
1.35913
21
0.118425
0
LINE
8
BLACK
6
CONTINUOUS
10
1.45913
20
0.118425
11
1.39913
21
0.118425
0
LINE
8
BLACK
6
CONTINUOUS
10
1.39913
20
0.118425
11
1.39913
21
0.178425
0
LINE
8
BLACK
6
CONTINUOUS
10
1.39913
20
0.178425
11
1.45913
21
0.178425
0
LINE
8
BLACK
6
CONTINUOUS
10
1.45913
20
0.178425
11
1.45913
21
0.118425
0
LINE
8
BLACK
6
CONTINUOUS
10
1.55913
20
0.118425
11
1.49913
21
0.118425
0
LINE
8
BLACK
6
CONTINUOUS
10
1.49913
20
0.118425
11
1.49913
21
0.178425
0
LINE
8
BLACK
6
CONTINUOUS
10
1.49913
20
0.178425
11
1.55913
21
0.178425
0
LINE
8
BLACK
6
CONTINUOUS
10
1.55913
20
0.178425
11
1.55913
21
0.118425
0
LINE
8
BLACK
6
CONTINUOUS
10
1.65913
20
0.118425
11
1.59913
21
0.118425
0
LINE
8
BLACK
6
CONTINUOUS
10
1.59913
20
0.118425
11
1.59913
21
0.178425
0
LINE
8
BLACK
6
CONTINUOUS
10
1.59913
20
0.178425
11
1.65913
21
0.178425
0
LINE
8
BLACK
6
CONTINUOUS
10
1.65913
20
0.178425
11
1.65913
21
0.118425
0
LINE
8
BLACK
6
CONTINUOUS
10
1.75913
20
0.118425
11
1.69913
21
0.118425
0
LINE
8
BLACK
6
CONTINUOUS
10
1.69913
20
0.118425
11
1.69913
21
0.178425
0
LINE
8
BLACK
6
CONTINUOUS
10
1.69913
20
0.178425
11
1.75913
21
0.178425
0
LINE
8
BLACK
6
CONTINUOUS
10
1.75913
20
0.178425
11
1.75913
21
0.118425
0
LINE
8
BLACK
6
CONTINUOUS
10
1.85913
20
0.118425
11
1.79913
21
0.118425
0
LINE
8
BLACK
6
CONTINUOUS
10
1.79913
20
0.118425
11
1.79913
21
0.178425
0
LINE
8
BLACK
6
CONTINUOUS
10
1.79913
20
0.178425
11
1.85913
21
0.178425
0
LINE
8
BLACK
6
CONTINUOUS
10
1.85913
20
0.178425
11
1.85913
21
0.118425
0
LINE
8
BLACK
6
CONTINUOUS
10
0.659134
20
0.218425
11
0.599134
21
0.218425
0
LINE
8
BLACK
6
CONTINUOUS
10
0.599134
20
0.218425
11
0.599134
21
0.278425
0
LINE
8
BLACK
6
CONTINUOUS
10
0.599134
20
0.278425
11
0.659134
21
0.278425
0
LINE
8
BLACK
6
CONTINUOUS
10
0.659134
20
0.278425
11
0.659134
21
0.218425
0
LINE
8
BLACK
6
CONTINUOUS
10
0.759134
20
0.218425
11
0.699134
21
0.218425
0
LINE
8
BLACK
6
CONTINUOUS
10
0.699134
20
0.218425
11
0.699134
21
0.278425
0
LINE
8
BLACK
6
CONTINUOUS
10
0.699134
20
0.278425
11
0.759134
21
0.278425
0
LINE
8
BLACK
6
CONTINUOUS
10
0.759134
20
0.278425
11
0.759134
21
0.218425
0
LINE
8
BLACK
6
CONTINUOUS
10
0.859134
20
0.218425
11
0.799134
21
0.218425
0
LINE
8
BLACK
6
CONTINUOUS
10
0.799134
20
0.218425
11
0.799134
21
0.278425
0
LINE
8
BLACK
6
CONTINUOUS
10
0.799134
20
0.278425
11
0.859134
21
0.278425
0
LINE
8
BLACK
6
CONTINUOUS
10
0.859134
20
0.278425
11
0.859134
21
0.218425
0
LINE
8
BLACK
6
CONTINUOUS
10
0.959134
20
0.218425
11
0.899134
21
0.218425
0
LINE
8
BLACK
6
CONTINUOUS
10
0.899134
20
0.218425
11
0.899134
21
0.278425
0
LINE
8
BLACK
6
CONTINUOUS
10
0.899134
20
0.278425
11
0.959134
21
0.278425
0
LINE
8
BLACK
6
CONTINUOUS
10
0.959134
20
0.278425
11
0.959134
21
0.218425
0
LINE
8
BLACK
6
CONTINUOUS
10
1.05913
20
0.218425
11
0.999134
21
0.218425
0
LINE
8
BLACK
6
CONTINUOUS
10
0.999134
20
0.218425
11
0.999134
21
0.278425
0
LINE
8
BLACK
6
CONTINUOUS
10
0.999134
20
0.278425
11
1.05913
21
0.278425
0
LINE
8
BLACK
6
CONTINUOUS
10
1.05913
20
0.278425
11
1.05913
21
0.218425
0
LINE
8
BLACK
6
CONTINUOUS
10
1.15913
20
0.218425
11
1.09913
21
0.218425
0
LINE
8
BLACK
6
CONTINUOUS
10
1.09913
20
0.218425
11
1.09913
21
0.278425
0
LINE
8
BLACK
6
CONTINUOUS
10
1.09913
20
0.278425
11
1.15913
21
0.278425
0
LINE
8
BLACK
6
CONTINUOUS
10
1.15913
20
0.278425
11
1.15913
21
0.218425
0
LINE
8
BLACK
6
CONTINUOUS
10
1.25913
20
0.218425
11
1.19913
21
0.218425
0
LINE
8
BLACK
6
CONTINUOUS
10
1.19913
20
0.218425
11
1.19913
21
0.278425
0
LINE
8
BLACK
6
CONTINUOUS
10
1.19913
20
0.278425
11
1.25913
21
0.278425
0
LINE
8
BLACK
6
CONTINUOUS
10
1.25913
20
0.278425
11
1.25913
21
0.218425
0
LINE
8
BLACK
6
CONTINUOUS
10
1.35913
20
0.218425
11
1.29913
21
0.218425
0
LINE
8
BLACK
6
CONTINUOUS
10
1.29913
20
0.218425
11
1.29913
21
0.278425
0
LINE
8
BLACK
6
CONTINUOUS
10
1.29913
20
0.278425
11
1.35913
21
0.278425
0
LINE
8
BLACK
6
CONTINUOUS
10
1.35913
20
0.278425
11
1.35913
21
0.218425
0
LINE
8
BLACK
6
CONTINUOUS
10
1.45913
20
0.218425
11
1.39913
21
0.218425
0
LINE
8
BLACK
6
CONTINUOUS
10
1.39913
20
0.218425
11
1.39913
21
0.278425
0
LINE
8
BLACK
6
CONTINUOUS
10
1.39913
20
0.278425
11
1.45913
21
0.278425
0
LINE
8
BLACK
6
CONTINUOUS
10
1.45913
20
0.278425
11
1.45913
21
0.218425
0
LINE
8
BLACK
6
CONTINUOUS
10
1.55913
20
0.218425
11
1.49913
21
0.218425
0
LINE
8
BLACK
6
CONTINUOUS
10
1.49913
20
0.218425
11
1.49913
21
0.278425
0
LINE
8
BLACK
6
CONTINUOUS
10
1.49913
20
0.278425
11
1.55913
21
0.278425
0
LINE
8
BLACK
6
CONTINUOUS
10
1.55913
20
0.278425
11
1.55913
21
0.218425
0
LINE
8
BLACK
6
CONTINUOUS
10
1.65913
20
0.218425
11
1.59913
21
0.218425
0
LINE
8
BLACK
6
CONTINUOUS
10
1.59913
20
0.218425
11
1.59913
21
0.278425
0
LINE
8
BLACK
6
CONTINUOUS
10
1.59913
20
0.278425
11
1.65913
21
0.278425
0
LINE
8
BLACK
6
CONTINUOUS
10
1.65913
20
0.278425
11
1.65913
21
0.218425
0
LINE
8
BLACK
6
CONTINUOUS
10
1.75913
20
0.218425
11
1.69913
21
0.218425
0
LINE
8
BLACK
6
CONTINUOUS
10
1.69913
20
0.218425
11
1.69913
21
0.278425
0
LINE
8
BLACK
6
CONTINUOUS
10
1.69913
20
0.278425
11
1.75913
21
0.278425
0
LINE
8
BLACK
6
CONTINUOUS
10
1.75913
20
0.278425
11
1.75913
21
0.218425
0
LINE
8
BLACK
6
CONTINUOUS
10
1.85913
20
0.218425
11
1.79913
21
0.218425
0
LINE
8
BLACK
6
CONTINUOUS
10
1.79913
20
0.218425
11
1.79913
21
0.278425
0
LINE
8
BLACK
6
CONTINUOUS
10
1.79913
20
0.278425
11
1.85913
21
0.278425
0
LINE
8
BLACK
6
CONTINUOUS
10
1.85913
20
0.278425
11
1.85913
21
0.218425
0
LINE
8
BLACK
6
CONTINUOUS
10
1.87952
20
0.30131
11
1.87965
21
0.301333
0
LINE
8
BLACK
6
CONTINUOUS
10
1.87965
20
0.301333
11
1.87976
21
0.301268
0
LINE
8
BLACK
6
CONTINUOUS
10
1.87976
20
0.301268
11
1.88014
21
0.3012
0
LINE
8
BLACK
6
CONTINUOUS
10
1.88014
20
0.3012
11
1.88073
21
0.300707
0
LINE
8
BLACK
6
CONTINUOUS
10
1.88073
20
0.300707
11
1.8814
21
0.300323
0
LINE
8
BLACK
6
CONTINUOUS
10
1.8814
20
0.300323
11
1.88149
21
0.300073
0
LINE
8
BLACK
6
CONTINUOUS
10
1.88149
20
0.300073
11
1.88169
21
0.299902
0
LINE
8
BLACK
6
CONTINUOUS
10
1.88169
20
0.299902
11
1.88182
21
0.299146
0
LINE
8
BLACK
6
CONTINUOUS
10
1.88182
20
0.299146
11
1.88209
21
0.298425
0
LINE
8
BLACK
6
CONTINUOUS
10
1.88209
20
0.298425
11
1.88209
21
0.0984252
0
LINE
8
BLACK
6
CONTINUOUS
10
1.88209
20
0.0984252
11
1.88202
21
0.0980417
0
LINE
8
BLACK
6
CONTINUOUS
10
1.88202
20
0.0980417
11
1.88204
21
0.0979124
0
LINE
8
BLACK
6
CONTINUOUS
10
1.88204
20
0.0979124
11
1.88198
21
0.0977989
0
LINE
8
BLACK
6
CONTINUOUS
10
1.88198
20
0.0977989
11
1.88191
21
0.0974153
0
LINE
8
BLACK
6
CONTINUOUS
10
1.88191
20
0.0974153
11
1.88142
21
0.0968276
0
LINE
8
BLACK
6
CONTINUOUS
10
1.88142
20
0.0968276
11
1.88103
21
0.0961633
0
LINE
8
BLACK
6
CONTINUOUS
10
1.88103
20
0.0961633
11
1.88078
21
0.0960722
0
LINE
8
BLACK
6
CONTINUOUS
10
1.88078
20
0.0960722
11
1.88061
21
0.095868
0
LINE
8
BLACK
6
CONTINUOUS
10
1.88061
20
0.095868
11
1.87985
21
0.0957348
0
LINE
8
BLACK
6
CONTINUOUS
10
1.87985
20
0.0957348
11
1.87913
21
0.0954724
0
LINE
8
BLACK
6
CONTINUOUS
10
1.87913
20
0.0954724
11
0.579134
21
0.0954724
0
LINE
8
BLACK
6
CONTINUOUS
10
0.579134
20
0.0954724
11
0.57875
21
0.0955401
0
LINE
8
BLACK
6
CONTINUOUS
10
0.57875
20
0.0955401
11
0.578621
21
0.0955173
0
LINE
8
BLACK
6
CONTINUOUS
10
0.578621
20
0.0955173
11
0.578507
21
0.0955829
0
LINE
8
BLACK
6
CONTINUOUS
10
0.578507
20
0.0955829
11
0.578124
21
0.0956505
0
LINE
8
BLACK
6
CONTINUOUS
10
0.578124
20
0.0956505
11
0.577536
21
0.0961437
0
LINE
8
BLACK
6
CONTINUOUS
10
0.577536
20
0.0961437
11
0.576872
21
0.0965272
0
LINE
8
BLACK
6
CONTINUOUS
10
0.576872
20
0.0965272
11
0.576781
21
0.0967776
0
LINE
8
BLACK
6
CONTINUOUS
10
0.576781
20
0.0967776
11
0.576577
21
0.0969488
0
LINE
8
BLACK
6
CONTINUOUS
10
0.576577
20
0.0969488
11
0.576443
21
0.0977044
0
LINE
8
BLACK
6
CONTINUOUS
10
0.576443
20
0.0977044
11
0.576181
21
0.0984252
0
LINE
8
BLACK
6
CONTINUOUS
10
0.576181
20
0.0984252
11
0.576181
21
0.298425
0
LINE
8
BLACK
6
CONTINUOUS
10
0.576181
20
0.298425
11
0.576249
21
0.298809
0
LINE
8
BLACK
6
CONTINUOUS
10
0.576249
20
0.298809
11
0.576226
21
0.298938
0
LINE
8
BLACK
6
CONTINUOUS
10
0.576226
20
0.298938
11
0.576292
21
0.299052
0
LINE
8
BLACK
6
CONTINUOUS
10
0.576292
20
0.299052
11
0.576359
21
0.299435
0
LINE
8
BLACK
6
CONTINUOUS
10
0.576359
20
0.299435
11
0.576852
21
0.300023
0
LINE
8
BLACK
6
CONTINUOUS
10
0.576852
20
0.300023
11
0.577236
21
0.300687
0
LINE
8
BLACK
6
CONTINUOUS
10
0.577236
20
0.300687
11
0.577486
21
0.300778
0
LINE
8
BLACK
6
CONTINUOUS
10
0.577486
20
0.300778
11
0.577657
21
0.300982
0
LINE
8
BLACK
6
CONTINUOUS
10
0.577657
20
0.300982
11
0.578413
21
0.301116
0
LINE
8
BLACK
6
CONTINUOUS
10
0.578413
20
0.301116
11
0.579134
21
0.301378
0
LINE
8
BLACK
6
CONTINUOUS
10
0.579134
20
0.301378
11
1.87913
21
0.301378
0
LINE
8
BLACK
6
CONTINUOUS
10
1.87913
20
0.301378
11
1.87952
21
0.30131
0
LINE
8
BLACK
6
CONTINUOUS
10
0.582087
20
0.295472
11
0.582087
21
0.101378
0
LINE
8
BLACK
6
CONTINUOUS
10
0.582087
20
0.101378
11
1.87618
21
0.101378
0
LINE
8
BLACK
6
CONTINUOUS
10
1.87618
20
0.101378
11
1.87618
21
0.295472
0
LINE
8
BLACK
6
CONTINUOUS
10
1.87618
20
0.295472
11
0.582087
21
0.295472
0
LINE
8
BLACK
6
CONTINUOUS
10
2.83156
20
0.22609
11
2.83201
21
0.226058
0
LINE
8
BLACK
6
CONTINUOUS
10
2.83201
20
0.226058
11
2.83576
21
0.224183
0
LINE
8
BLACK
6
CONTINUOUS
10
2.83576
20
0.224183
11
2.83597
21
0.223938
0
LINE
8
BLACK
6
CONTINUOUS
10
2.83597
20
0.223938
11
2.83627
21
0.223814
0
LINE
8
BLACK
6
CONTINUOUS
10
2.83627
20
0.223814
11
2.83815
21
0.221939
0
LINE
8
BLACK
6
CONTINUOUS
10
2.83815
20
0.221939
11
2.83827
21
0.22164
0
LINE
8
BLACK
6
CONTINUOUS
10
2.83827
20
0.22164
11
2.83852
21
0.221428
0
LINE
8
BLACK
6
CONTINUOUS
10
2.83852
20
0.221428
11
2.84039
21
0.217678
0
LINE
8
BLACK
6
CONTINUOUS
10
2.84039
20
0.217678
11
2.84042
21
0.217221
0
LINE
8
BLACK
6
CONTINUOUS
10
2.84042
20
0.217221
11
2.8406
21
0.216798
0
LINE
8
BLACK
6
CONTINUOUS
10
2.8406
20
0.216798
11
2.8406
21
0.203768
0
LINE
8
BLACK
6
CONTINUOUS
10
2.8406
20
0.203768
11
2.85738
21
0.203768
0
LINE
8
BLACK
6
CONTINUOUS
10
2.85738
20
0.203768
11
2.85877
21
0.203192
0
LINE
8
BLACK
6
CONTINUOUS
10
2.85877
20
0.203192
11
2.85935
21
0.2018
0
LINE
8
BLACK
6
CONTINUOUS
10
2.85935
20
0.2018
11
2.85877
21
0.200408
0
LINE
8
BLACK
6
CONTINUOUS
10
2.85877
20
0.200408
11
2.85738
21
0.199831
0
LINE
8
BLACK
6
CONTINUOUS
10
2.85738
20
0.199831
11
2.83863
21
0.199831
0
LINE
8
BLACK
6
CONTINUOUS
10
2.83863
20
0.199831
11
2.81801
21
0.199831
0
LINE
8
BLACK
6
CONTINUOUS
10
2.81801
20
0.199831
11
2.81662
21
0.200408
0
LINE
8
BLACK
6
CONTINUOUS
10
2.81662
20
0.200408
11
2.81604
21
0.2018
0
LINE
8
BLACK
6
CONTINUOUS
10
2.81604
20
0.2018
11
2.81604
21
0.2018
0
LINE
8
BLACK
6
CONTINUOUS
10
2.81604
20
0.2018
11
2.81604
21
0.216798
0
LINE
8
BLACK
6
CONTINUOUS
10
2.81604
20
0.216798
11
2.81622
21
0.217221
0
LINE
8
BLACK
6
CONTINUOUS
10
2.81622
20
0.217221
11
2.81625
21
0.217678
0
LINE
8
BLACK
6
CONTINUOUS
10
2.81625
20
0.217678
11
2.81812
21
0.221428
0
LINE
8
BLACK
6
CONTINUOUS
10
2.81812
20
0.221428
11
2.81837
21
0.22164
0
LINE
8
BLACK
6
CONTINUOUS
10
2.81837
20
0.22164
11
2.81849
21
0.221939
0
LINE
8
BLACK
6
CONTINUOUS
10
2.81849
20
0.221939
11
2.82037
21
0.223814
0
LINE
8
BLACK
6
CONTINUOUS
10
2.82037
20
0.223814
11
2.82067
21
0.223938
0
LINE
8
BLACK
6
CONTINUOUS
10
2.82067
20
0.223938
11
2.82088
21
0.224183
0
LINE
8
BLACK
6
CONTINUOUS
10
2.82088
20
0.224183
11
2.82463
21
0.226058
0
LINE
8
BLACK
6
CONTINUOUS
10
2.82463
20
0.226058
11
2.82508
21
0.22609
0
LINE
8
BLACK
6
CONTINUOUS
10
2.82508
20
0.22609
11
2.82551
21
0.226265
0
LINE
8
BLACK
6
CONTINUOUS
10
2.82551
20
0.226265
11
2.83113
21
0.226265
0
LINE
8
BLACK
6
CONTINUOUS
10
2.83113
20
0.226265
11
2.83156
21
0.22609
0
LINE
8
BLACK
6
CONTINUOUS
10
2.82292
20
0.220804
11
2.8215
21
0.219381
0
LINE
8
BLACK
6
CONTINUOUS
10
2.8215
20
0.219381
11
2.81998
21
0.216333
0
LINE
8
BLACK
6
CONTINUOUS
10
2.81998
20
0.216333
11
2.81998
21
0.203768
0
LINE
8
BLACK
6
CONTINUOUS
10
2.81998
20
0.203768
11
2.83666
21
0.203768
0
LINE
8
BLACK
6
CONTINUOUS
10
2.83666
20
0.203768
11
2.83666
21
0.216333
0
LINE
8
BLACK
6
CONTINUOUS
10
2.83666
20
0.216333
11
2.83514
21
0.219381
0
LINE
8
BLACK
6
CONTINUOUS
10
2.83514
20
0.219381
11
2.83372
21
0.220804
0
LINE
8
BLACK
6
CONTINUOUS
10
2.83372
20
0.220804
11
2.83067
21
0.222328
0
LINE
8
BLACK
6
CONTINUOUS
10
2.83067
20
0.222328
11
2.82597
21
0.222328
0
LINE
8
BLACK
6
CONTINUOUS
10
2.82597
20
0.222328
11
2.82292
21
0.220804
0
LINE
8
BLACK
6
CONTINUOUS
10
2.85877
20
0.263184
11
2.85935
21
0.261792
0
LINE
8
BLACK
6
CONTINUOUS
10
2.85935
20
0.261792
11
2.85935
21
0.239295
0
LINE
8
BLACK
6
CONTINUOUS
10
2.85935
20
0.239295
11
2.85877
21
0.237903
0
LINE
8
BLACK
6
CONTINUOUS
10
2.85877
20
0.237903
11
2.85738
21
0.237327
0
LINE
8
BLACK
6
CONTINUOUS
10
2.85738
20
0.237327
11
2.85599
21
0.237903
0
LINE
8
BLACK
6
CONTINUOUS
10
2.85599
20
0.237903
11
2.85541
21
0.239295
0
LINE
8
BLACK
6
CONTINUOUS
10
2.85541
20
0.239295
11
2.85541
21
0.248575
0
LINE
8
BLACK
6
CONTINUOUS
10
2.85541
20
0.248575
11
2.82451
21
0.248575
0
LINE
8
BLACK
6
CONTINUOUS
10
2.82451
20
0.248575
11
2.82472
21
0.248432
0
LINE
8
BLACK
6
CONTINUOUS
10
2.82472
20
0.248432
11
2.82484
21
0.248264
0
LINE
8
BLACK
6
CONTINUOUS
10
2.82484
20
0.248264
11
2.82502
21
0.248186
0
LINE
8
BLACK
6
CONTINUOUS
10
2.82502
20
0.248186
11
2.82877
21
0.244437
0
LINE
8
BLACK
6
CONTINUOUS
10
2.82877
20
0.244437
11
2.8289
21
0.244137
0
LINE
8
BLACK
6
CONTINUOUS
10
2.8289
20
0.244137
11
2.82914
21
0.243925
0
LINE
8
BLACK
6
CONTINUOUS
10
2.82914
20
0.243925
11
2.83102
21
0.240175
0
LINE
8
BLACK
6
CONTINUOUS
10
2.83102
20
0.240175
11
2.83112
21
0.238673
0
LINE
8
BLACK
6
CONTINUOUS
10
2.83112
20
0.238673
11
2.83014
21
0.237534
0
LINE
8
BLACK
6
CONTINUOUS
10
2.83014
20
0.237534
11
2.82863
21
0.237428
0
LINE
8
BLACK
6
CONTINUOUS
10
2.82863
20
0.237428
11
2.8275
21
0.238415
0
LINE
8
BLACK
6
CONTINUOUS
10
2.8275
20
0.238415
11
2.82576
21
0.241879
0
LINE
8
BLACK
6
CONTINUOUS
10
2.82576
20
0.241879
11
2.82238
21
0.245264
0
LINE
8
BLACK
6
CONTINUOUS
10
2.82238
20
0.245264
11
2.81692
21
0.248906
0
LINE
8
BLACK
6
CONTINUOUS
10
2.81692
20
0.248906
11
2.8168
21
0.249074
0
LINE
8
BLACK
6
CONTINUOUS
10
2.8168
20
0.249074
11
2.81662
21
0.249152
0
LINE
8
BLACK
6
CONTINUOUS
10
2.81662
20
0.249152
11
2.8164
21
0.249681
0
LINE
8
BLACK
6
CONTINUOUS
10
2.8164
20
0.249681
11
2.81608
21
0.250158
0
LINE
8
BLACK
6
CONTINUOUS
10
2.81608
20
0.250158
11
2.81612
21
0.250356
0
LINE
8
BLACK
6
CONTINUOUS
10
2.81612
20
0.250356
11
2.81604
21
0.250544
0
LINE
8
BLACK
6
CONTINUOUS
10
2.81604
20
0.250544
11
2.81626
21
0.251073
0
LINE
8
BLACK
6
CONTINUOUS
10
2.81626
20
0.251073
11
2.81637
21
0.251636
0
LINE
8
BLACK
6
CONTINUOUS
10
2.81637
20
0.251636
11
2.81654
21
0.251748
0
LINE
8
BLACK
6
CONTINUOUS
10
2.81654
20
0.251748
11
2.81662
21
0.251936
0
LINE
8
BLACK
6
CONTINUOUS
10
2.81662
20
0.251936
11
2.81715
21
0.252155
0
LINE
8
BLACK
6
CONTINUOUS
10
2.81715
20
0.252155
11
2.81762
21
0.252474
0
LINE
8
BLACK
6
CONTINUOUS
10
2.81762
20
0.252474
11
2.81782
21
0.252435
0
LINE
8
BLACK
6
CONTINUOUS
10
2.81782
20
0.252435
11
2.81801
21
0.252512
0
LINE
8
BLACK
6
CONTINUOUS
10
2.81801
20
0.252512
11
2.85541
21
0.252512
0
LINE
8
BLACK
6
CONTINUOUS
10
2.85541
20
0.252512
11
2.85541
21
0.261792
0
LINE
8
BLACK
6
CONTINUOUS
10
2.85541
20
0.261792
11
2.85599
21
0.263184
0
LINE
8
BLACK
6
CONTINUOUS
10
2.85599
20
0.263184
11
2.85738
21
0.263761
0
LINE
8
BLACK
6
CONTINUOUS
10
2.85738
20
0.263761
11
2.85877
21
0.263184
0
LINE
8
BLACK
6
CONTINUOUS
10
2.85877
20
0.30068
11
2.85935
21
0.299288
0
LINE
8
BLACK
6
CONTINUOUS
10
2.85935
20
0.299288
11
2.85935
21
0.27679
0
LINE
8
BLACK
6
CONTINUOUS
10
2.85935
20
0.27679
11
2.85877
21
0.275399
0
LINE
8
BLACK
6
CONTINUOUS
10
2.85877
20
0.275399
11
2.85738
21
0.274822
0
LINE
8
BLACK
6
CONTINUOUS
10
2.85738
20
0.274822
11
2.85599
21
0.275399
0
LINE
8
BLACK
6
CONTINUOUS
10
2.85599
20
0.275399
11
2.85541
21
0.27679
0
LINE
8
BLACK
6
CONTINUOUS
10
2.85541
20
0.27679
11
2.85541
21
0.286071
0
LINE
8
BLACK
6
CONTINUOUS
10
2.85541
20
0.286071
11
2.82451
21
0.286071
0
LINE
8
BLACK
6
CONTINUOUS
10
2.82451
20
0.286071
11
2.82472
21
0.285927
0
LINE
8
BLACK
6
CONTINUOUS
10
2.82472
20
0.285927
11
2.82484
21
0.285759
0
LINE
8
BLACK
6
CONTINUOUS
10
2.82484
20
0.285759
11
2.82502
21
0.285681
0
LINE
8
BLACK
6
CONTINUOUS
10
2.82502
20
0.285681
11
2.82877
21
0.281932
0
LINE
8
BLACK
6
CONTINUOUS
10
2.82877
20
0.281932
11
2.8289
21
0.281633
0
LINE
8
BLACK
6
CONTINUOUS
10
2.8289
20
0.281633
11
2.82914
21
0.28142
0
LINE
8
BLACK
6
CONTINUOUS
10
2.82914
20
0.28142
11
2.83102
21
0.277671
0
LINE
8
BLACK
6
CONTINUOUS
10
2.83102
20
0.277671
11
2.83112
21
0.276168
0
LINE
8
BLACK
6
CONTINUOUS
10
2.83112
20
0.276168
11
2.83014
21
0.27503
0
LINE
8
BLACK
6
CONTINUOUS
10
2.83014
20
0.27503
11
2.82863
21
0.274923
0
LINE
8
BLACK
6
CONTINUOUS
10
2.82863
20
0.274923
11
2.8275
21
0.27591
0
LINE
8
BLACK
6
CONTINUOUS
10
2.8275
20
0.27591
11
2.82576
21
0.279374
0
LINE
8
BLACK
6
CONTINUOUS
10
2.82576
20
0.279374
11
2.82238
21
0.28276
0
LINE
8
BLACK
6
CONTINUOUS
10
2.82238
20
0.28276
11
2.81692
21
0.286401
0
LINE
8
BLACK
6
CONTINUOUS
10
2.81692
20
0.286401
11
2.8168
21
0.28657
0
LINE
8
BLACK
6
CONTINUOUS
10
2.8168
20
0.28657
11
2.81662
21
0.286647
0
LINE
8
BLACK
6
CONTINUOUS
10
2.81662
20
0.286647
11
2.8164
21
0.287177
0
LINE
8
BLACK
6
CONTINUOUS
10
2.8164
20
0.287177
11
2.81608
21
0.287653
0
LINE
8
BLACK
6
CONTINUOUS
10
2.81608
20
0.287653
11
2.81612
21
0.287852
0
LINE
8
BLACK
6
CONTINUOUS
10
2.81612
20
0.287852
11
2.81604
21
0.288039
0
LINE
8
BLACK
6
CONTINUOUS
10
2.81604
20
0.288039
11
2.81626
21
0.288569
0
LINE
8
BLACK
6
CONTINUOUS
10
2.81626
20
0.288569
11
2.81637
21
0.289131
0
LINE
8
BLACK
6
CONTINUOUS
10
2.81637
20
0.289131
11
2.81654
21
0.289244
0
LINE
8
BLACK
6
CONTINUOUS
10
2.81654
20
0.289244
11
2.81662
21
0.289431
0
LINE
8
BLACK
6
CONTINUOUS
10
2.81662
20
0.289431
11
2.81715
21
0.28965
0
LINE
8
BLACK
6
CONTINUOUS
10
2.81715
20
0.28965
11
2.81762
21
0.289969
0
LINE
8
BLACK
6
CONTINUOUS
10
2.81762
20
0.289969
11
2.81782
21
0.28993
0
LINE
8
BLACK
6
CONTINUOUS
10
2.81782
20
0.28993
11
2.81801
21
0.290008
0
LINE
8
BLACK
6
CONTINUOUS
10
2.81801
20
0.290008
11
2.85541
21
0.290008
0
LINE
8
BLACK
6
CONTINUOUS
10
2.85541
20
0.290008
11
2.85541
21
0.299288
0
LINE
8
BLACK
6
CONTINUOUS
10
2.85541
20
0.299288
11
2.85599
21
0.30068
0
LINE
8
BLACK
6
CONTINUOUS
10
2.85599
20
0.30068
11
2.85738
21
0.301256
0
LINE
8
BLACK
6
CONTINUOUS
10
2.85738
20
0.301256
11
2.85877
21
0.30068
0
LINE
8
BLACK
6
CONTINUOUS
10
1.96591
20
1.33343
11
1.96667
21
1.33112
0
LINE
8
BLACK
6
CONTINUOUS
10
1.96667
20
1.33112
11
1.96667
21
1.32737
0
LINE
8
BLACK
6
CONTINUOUS
10
1.96667
20
1.32737
11
1.96639
21
1.32651
0
LINE
8
BLACK
6
CONTINUOUS
10
1.96639
20
1.32651
11
1.96625
21
1.32561
0
LINE
8
BLACK
6
CONTINUOUS
10
1.96625
20
1.32561
11
1.9625
21
1.31811
0
LINE
8
BLACK
6
CONTINUOUS
10
1.9625
20
1.31811
11
1.96205
21
1.31765
0
LINE
8
BLACK
6
CONTINUOUS
10
1.96205
20
1.31765
11
1.96176
21
1.31709
0
LINE
8
BLACK
6
CONTINUOUS
10
1.96176
20
1.31709
11
1.95801
21
1.31334
0
LINE
8
BLACK
6
CONTINUOUS
10
1.95801
20
1.31334
11
1.95585
21
1.31223
0
LINE
8
BLACK
6
CONTINUOUS
10
1.95585
20
1.31223
11
1.95344
21
1.31261
0
LINE
8
BLACK
6
CONTINUOUS
10
1.95344
20
1.31261
11
1.95172
21
1.31433
0
LINE
8
BLACK
6
CONTINUOUS
10
1.95172
20
1.31433
11
1.95134
21
1.31674
0
LINE
8
BLACK
6
CONTINUOUS
10
1.95134
20
1.31674
11
1.95245
21
1.3189
0
LINE
8
BLACK
6
CONTINUOUS
10
1.95245
20
1.3189
11
1.95574
21
1.3222
0
LINE
8
BLACK
6
CONTINUOUS
10
1.95574
20
1.3222
11
1.95879
21
1.3283
0
LINE
8
BLACK
6
CONTINUOUS
10
1.95879
20
1.3283
11
1.95879
21
1.33112
0
LINE
8
BLACK
6
CONTINUOUS
10
1.95879
20
1.33112
11
1.95954
21
1.33343
0
LINE
8
BLACK
6
CONTINUOUS
10
1.95954
20
1.33343
11
1.96151
21
1.33486
0
LINE
8
BLACK
6
CONTINUOUS
10
1.96151
20
1.33486
11
1.96395
21
1.33486
0
LINE
8
BLACK
6
CONTINUOUS
10
1.96395
20
1.33486
11
1.96591
21
1.33343
0
LINE
8
BLACK
6
CONTINUOUS
10
1.75219
20
1.40842
11
1.75294
21
1.40611
0
LINE
8
BLACK
6
CONTINUOUS
10
1.75294
20
1.40611
11
1.75294
21
1.33131
0
LINE
8
BLACK
6
CONTINUOUS
10
1.75294
20
1.33131
11
1.7865
21
1.33131
0
LINE
8
BLACK
6
CONTINUOUS
10
1.7865
20
1.33131
11
1.78882
21
1.33055
0
LINE
8
BLACK
6
CONTINUOUS
10
1.78882
20
1.33055
11
1.79025
21
1.32859
0
LINE
8
BLACK
6
CONTINUOUS
10
1.79025
20
1.32859
11
1.79025
21
1.32615
0
LINE
8
BLACK
6
CONTINUOUS
10
1.79025
20
1.32615
11
1.78882
21
1.32418
0
LINE
8
BLACK
6
CONTINUOUS
10
1.78882
20
1.32418
11
1.7865
21
1.32343
0
LINE
8
BLACK
6
CONTINUOUS
10
1.7865
20
1.32343
11
1.74901
21
1.32343
0
LINE
8
BLACK
6
CONTINUOUS
10
1.74901
20
1.32343
11
1.74841
21
1.32362
0
LINE
8
BLACK
6
CONTINUOUS
10
1.74841
20
1.32362
11
1.74779
21
1.32362
0
LINE
8
BLACK
6
CONTINUOUS
10
1.74779
20
1.32362
11
1.74729
21
1.32399
0
LINE
8
BLACK
6
CONTINUOUS
10
1.74729
20
1.32399
11
1.74669
21
1.32418
0
LINE
8
BLACK
6
CONTINUOUS
10
1.74669
20
1.32418
11
1.74633
21
1.32469
0
LINE
8
BLACK
6
CONTINUOUS
10
1.74633
20
1.32469
11
1.74582
21
1.32505
0
LINE
8
BLACK
6
CONTINUOUS
10
1.74582
20
1.32505
11
1.74563
21
1.32565
0
LINE
8
BLACK
6
CONTINUOUS
10
1.74563
20
1.32565
11
1.74526
21
1.32615
0
LINE
8
BLACK
6
CONTINUOUS
10
1.74526
20
1.32615
11
1.74526
21
1.32678
0
LINE
8
BLACK
6
CONTINUOUS
10
1.74526
20
1.32678
11
1.74507
21
1.32737
0
LINE
8
BLACK
6
CONTINUOUS
10
1.74507
20
1.32737
11
1.74507
21
1.40611
0
LINE
8
BLACK
6
CONTINUOUS
10
1.74507
20
1.40611
11
1.74582
21
1.40842
0
LINE
8
BLACK
6
CONTINUOUS
10
1.74582
20
1.40842
11
1.74779
21
1.40985
0
LINE
8
BLACK
6
CONTINUOUS
10
1.74779
20
1.40985
11
1.75022
21
1.40985
0
LINE
8
BLACK
6
CONTINUOUS
10
1.75022
20
1.40985
11
1.75219
21
1.40842
0
LINE
8
BLACK
6
CONTINUOUS
10
1.90735
20
1.40977
11
1.90825
21
1.40963
0
LINE
8
BLACK
6
CONTINUOUS
10
1.90825
20
1.40963
11
1.91575
21
1.40588
0
LINE
8
BLACK
6
CONTINUOUS
10
1.91575
20
1.40588
11
1.9162
21
1.40543
0
LINE
8
BLACK
6
CONTINUOUS
10
1.9162
20
1.40543
11
1.91677
21
1.40514
0
LINE
8
BLACK
6
CONTINUOUS
10
1.91677
20
1.40514
11
1.92052
21
1.40139
0
LINE
8
BLACK
6
CONTINUOUS
10
1.92052
20
1.40139
11
1.92081
21
1.40082
0
LINE
8
BLACK
6
CONTINUOUS
10
1.92081
20
1.40082
11
1.92126
21
1.40037
0
LINE
8
BLACK
6
CONTINUOUS
10
1.92126
20
1.40037
11
1.92501
21
1.39287
0
LINE
8
BLACK
6
CONTINUOUS
10
1.92501
20
1.39287
11
1.92514
21
1.39197
0
LINE
8
BLACK
6
CONTINUOUS
10
1.92514
20
1.39197
11
1.92542
21
1.39111
0
LINE
8
BLACK
6
CONTINUOUS
10
1.92542
20
1.39111
11
1.92542
21
1.38361
0
LINE
8
BLACK
6
CONTINUOUS
10
1.92542
20
1.38361
11
1.92514
21
1.38275
0
LINE
8
BLACK
6
CONTINUOUS
10
1.92514
20
1.38275
11
1.92501
21
1.38185
0
LINE
8
BLACK
6
CONTINUOUS
10
1.92501
20
1.38185
11
1.92126
21
1.37435
0
LINE
8
BLACK
6
CONTINUOUS
10
1.92126
20
1.37435
11
1.92081
21
1.3739
0
LINE
8
BLACK
6
CONTINUOUS
10
1.92081
20
1.3739
11
1.92052
21
1.37333
0
LINE
8
BLACK
6
CONTINUOUS
10
1.92052
20
1.37333
11
1.91677
21
1.36958
0
LINE
8
BLACK
6
CONTINUOUS
10
1.91677
20
1.36958
11
1.91648
21
1.36943
0
LINE
8
BLACK
6
CONTINUOUS
10
1.91648
20
1.36943
11
1.91898
21
1.3686
0
LINE
8
BLACK
6
CONTINUOUS
10
1.91898
20
1.3686
11
1.91971
21
1.36806
0
LINE
8
BLACK
6
CONTINUOUS
10
1.91971
20
1.36806
11
1.92052
21
1.36765
0
LINE
8
BLACK
6
CONTINUOUS
10
1.92052
20
1.36765
11
1.92427
21
1.3639
0
LINE
8
BLACK
6
CONTINUOUS
10
1.92427
20
1.3639
11
1.92456
21
1.36333
0
LINE
8
BLACK
6
CONTINUOUS
10
1.92456
20
1.36333
11
1.92501
21
1.36288
0
LINE
8
BLACK
6
CONTINUOUS
10
1.92501
20
1.36288
11
1.92876
21
1.35538
0
LINE
8
BLACK
6
CONTINUOUS
10
1.92876
20
1.35538
11
1.92889
21
1.35448
0
LINE
8
BLACK
6
CONTINUOUS
10
1.92889
20
1.35448
11
1.92917
21
1.35362
0
LINE
8
BLACK
6
CONTINUOUS
10
1.92917
20
1.35362
11
1.92917
21
1.34237
0
LINE
8
BLACK
6
CONTINUOUS
10
1.92917
20
1.34237
11
1.92889
21
1.3415
0
LINE
8
BLACK
6
CONTINUOUS
10
1.92889
20
1.3415
11
1.92876
21
1.34061
0
LINE
8
BLACK
6
CONTINUOUS
10
1.92876
20
1.34061
11
1.92501
21
1.33311
0
LINE
8
BLACK
6
CONTINUOUS
10
1.92501
20
1.33311
11
1.92456
21
1.33265
0
LINE
8
BLACK
6
CONTINUOUS
10
1.92456
20
1.33265
11
1.92427
21
1.33208
0
LINE
8
BLACK
6
CONTINUOUS
10
1.92427
20
1.33208
11
1.92052
21
1.32833
0
LINE
8
BLACK
6
CONTINUOUS
10
1.92052
20
1.32833
11
1.91995
21
1.32804
0
LINE
8
BLACK
6
CONTINUOUS
10
1.91995
20
1.32804
11
1.9195
21
1.3276
0
LINE
8
BLACK
6
CONTINUOUS
10
1.9195
20
1.3276
11
1.912
21
1.32385
0
LINE
8
BLACK
6
CONTINUOUS
10
1.912
20
1.32385
11
1.9111
21
1.32371
0
LINE
8
BLACK
6
CONTINUOUS
10
1.9111
20
1.32371
11
1.91024
21
1.32343
0
LINE
8
BLACK
6
CONTINUOUS
10
1.91024
20
1.32343
11
1.88024
21
1.32343
0
LINE
8
BLACK
6
CONTINUOUS
10
1.88024
20
1.32343
11
1.87965
21
1.32362
0
LINE
8
BLACK
6
CONTINUOUS
10
1.87965
20
1.32362
11
1.87902
21
1.32362
0
LINE
8
BLACK
6
CONTINUOUS
10
1.87902
20
1.32362
11
1.87852
21
1.32399
0
LINE
8
BLACK
6
CONTINUOUS
10
1.87852
20
1.32399
11
1.87793
21
1.32418
0
LINE
8
BLACK
6
CONTINUOUS
10
1.87793
20
1.32418
11
1.87756
21
1.32469
0
LINE
8
BLACK
6
CONTINUOUS
10
1.87756
20
1.32469
11
1.87705
21
1.32505
0
LINE
8
BLACK
6
CONTINUOUS
10
1.87705
20
1.32505
11
1.87686
21
1.32565
0
LINE
8
BLACK
6
CONTINUOUS
10
1.87686
20
1.32565
11
1.8765
21
1.32615
0
LINE
8
BLACK
6
CONTINUOUS
10
1.8765
20
1.32615
11
1.8765
21
1.32678
0
LINE
8
BLACK
6
CONTINUOUS
10
1.8765
20
1.32678
11
1.8763
21
1.32737
0
LINE
8
BLACK
6
CONTINUOUS
10
1.8763
20
1.32737
11
1.8763
21
1.40611
0
LINE
8
BLACK
6
CONTINUOUS
10
1.8763
20
1.40611
11
1.8765
21
1.4067
0
LINE
8
BLACK
6
CONTINUOUS
10
1.8765
20
1.4067
11
1.8765
21
1.40733
0
LINE
8
BLACK
6
CONTINUOUS
10
1.8765
20
1.40733
11
1.87686
21
1.40783
0
LINE
8
BLACK
6
CONTINUOUS
10
1.87686
20
1.40783
11
1.87705
21
1.40842
0
LINE
8
BLACK
6
CONTINUOUS
10
1.87705
20
1.40842
11
1.87756
21
1.40879
0
LINE
8
BLACK
6
CONTINUOUS
10
1.87756
20
1.40879
11
1.87793
21
1.40929
0
LINE
8
BLACK
6
CONTINUOUS
10
1.87793
20
1.40929
11
1.87852
21
1.40949
0
LINE
8
BLACK
6
CONTINUOUS
10
1.87852
20
1.40949
11
1.87902
21
1.40985
0
LINE
8
BLACK
6
CONTINUOUS
10
1.87902
20
1.40985
11
1.87965
21
1.40985
0
LINE
8
BLACK
6
CONTINUOUS
10
1.87965
20
1.40985
11
1.88024
21
1.41005
0
LINE
8
BLACK
6
CONTINUOUS
10
1.88024
20
1.41005
11
1.90649
21
1.41005
0
LINE
8
BLACK
6
CONTINUOUS
10
1.90649
20
1.41005
11
1.90735
21
1.40977
0
LINE
8
BLACK
6
CONTINUOUS
10
1.88418
20
1.33131
11
1.90931
21
1.33131
0
LINE
8
BLACK
6
CONTINUOUS
10
1.90931
20
1.33131
11
1.9154
21
1.33435
0
LINE
8
BLACK
6
CONTINUOUS
10
1.9154
20
1.33435
11
1.91825
21
1.3372
0
LINE
8
BLACK
6
CONTINUOUS
10
1.91825
20
1.3372
11
1.9213
21
1.3433
0
LINE
8
BLACK
6
CONTINUOUS
10
1.9213
20
1.3433
11
1.9213
21
1.35269
0
LINE
8
BLACK
6
CONTINUOUS
10
1.9213
20
1.35269
11
1.91825
21
1.35878
0
LINE
8
BLACK
6
CONTINUOUS
10
1.91825
20
1.35878
11
1.91561
21
1.36142
0
LINE
8
BLACK
6
CONTINUOUS
10
1.91561
20
1.36142
11
1.90585
21
1.36468
0
LINE
8
BLACK
6
CONTINUOUS
10
1.90585
20
1.36468
11
1.88418
21
1.36468
0
LINE
8
BLACK
6
CONTINUOUS
10
1.88418
20
1.36468
11
1.88418
21
1.33131
0
LINE
8
BLACK
6
CONTINUOUS
10
1.88418
20
1.37255
11
1.90556
21
1.37255
0
LINE
8
BLACK
6
CONTINUOUS
10
1.90556
20
1.37255
11
1.91165
21
1.3756
0
LINE
8
BLACK
6
CONTINUOUS
10
1.91165
20
1.3756
11
1.9145
21
1.37844
0
LINE
8
BLACK
6
CONTINUOUS
10
1.9145
20
1.37844
11
1.91755
21
1.38454
0
LINE
8
BLACK
6
CONTINUOUS
10
1.91755
20
1.38454
11
1.91755
21
1.39018
0
LINE
8
BLACK
6
CONTINUOUS
10
1.91755
20
1.39018
11
1.9145
21
1.39628
0
LINE
8
BLACK
6
CONTINUOUS
10
1.9145
20
1.39628
11
1.91165
21
1.39912
0
LINE
8
BLACK
6
CONTINUOUS
10
1.91165
20
1.39912
11
1.90556
21
1.40217
0
LINE
8
BLACK
6
CONTINUOUS
10
1.90556
20
1.40217
11
1.88418
21
1.40217
0
LINE
8
BLACK
6
CONTINUOUS
10
1.88418
20
1.40217
11
1.88418
21
1.37255
0
LINE
8
BLACK
6
CONTINUOUS
10
2.08358
20
1.40977
11
2.08448
21
1.40963
0
LINE
8
BLACK
6
CONTINUOUS
10
2.08448
20
1.40963
11
2.09197
21
1.40588
0
LINE
8
BLACK
6
CONTINUOUS
10
2.09197
20
1.40588
11
2.09243
21
1.40543
0
LINE
8
BLACK
6
CONTINUOUS
10
2.09243
20
1.40543
11
2.093
21
1.40514
0
LINE
8
BLACK
6
CONTINUOUS
10
2.093
20
1.40514
11
2.09675
21
1.40139
0
LINE
8
BLACK
6
CONTINUOUS
10
2.09675
20
1.40139
11
2.09704
21
1.40082
0
LINE
8
BLACK
6
CONTINUOUS
10
2.09704
20
1.40082
11
2.09748
21
1.40037
0
LINE
8
BLACK
6
CONTINUOUS
10
2.09748
20
1.40037
11
2.10123
21
1.39287
0
LINE
8
BLACK
6
CONTINUOUS
10
2.10123
20
1.39287
11
2.10137
21
1.39197
0
LINE
8
BLACK
6
CONTINUOUS
10
2.10137
20
1.39197
11
2.10165
21
1.39111
0
LINE
8
BLACK
6
CONTINUOUS
10
2.10165
20
1.39111
11
2.10165
21
1.38361
0
LINE
8
BLACK
6
CONTINUOUS
10
2.10165
20
1.38361
11
2.10145
21
1.383
0
LINE
8
BLACK
6
CONTINUOUS
10
2.10145
20
1.383
11
2.10145
21
1.38237
0
LINE
8
BLACK
6
CONTINUOUS
10
2.10145
20
1.38237
11
2.0977
21
1.37112
0
LINE
8
BLACK
6
CONTINUOUS
10
2.0977
20
1.37112
11
2.09716
21
1.37039
0
LINE
8
BLACK
6
CONTINUOUS
10
2.09716
20
1.37039
11
2.09675
21
1.36958
0
LINE
8
BLACK
6
CONTINUOUS
10
2.09675
20
1.36958
11
2.05847
21
1.33131
0
LINE
8
BLACK
6
CONTINUOUS
10
2.05847
20
1.33131
11
2.09771
21
1.33131
0
LINE
8
BLACK
6
CONTINUOUS
10
2.09771
20
1.33131
11
2.10003
21
1.33055
0
LINE
8
BLACK
6
CONTINUOUS
10
2.10003
20
1.33055
11
2.10146
21
1.32859
0
LINE
8
BLACK
6
CONTINUOUS
10
2.10146
20
1.32859
11
2.10146
21
1.32615
0
LINE
8
BLACK
6
CONTINUOUS
10
2.10146
20
1.32615
11
2.10003
21
1.32418
0
LINE
8
BLACK
6
CONTINUOUS
10
2.10003
20
1.32418
11
2.09771
21
1.32343
0
LINE
8
BLACK
6
CONTINUOUS
10
2.09771
20
1.32343
11
2.04897
21
1.32343
0
LINE
8
BLACK
6
CONTINUOUS
10
2.04897
20
1.32343
11
2.04809
21
1.32372
0
LINE
8
BLACK
6
CONTINUOUS
10
2.04809
20
1.32372
11
2.04718
21
1.32386
0
LINE
8
BLACK
6
CONTINUOUS
10
2.04718
20
1.32386
11
2.04696
21
1.32409
0
LINE
8
BLACK
6
CONTINUOUS
10
2.04696
20
1.32409
11
2.04665
21
1.32418
0
LINE
8
BLACK
6
CONTINUOUS
10
2.04665
20
1.32418
11
2.04611
21
1.32493
0
LINE
8
BLACK
6
CONTINUOUS
10
2.04611
20
1.32493
11
2.04546
21
1.32558
0
LINE
8
BLACK
6
CONTINUOUS
10
2.04546
20
1.32558
11
2.04541
21
1.3259
0
LINE
8
BLACK
6
CONTINUOUS
10
2.04541
20
1.3259
11
2.04522
21
1.32615
0
LINE
8
BLACK
6
CONTINUOUS
10
2.04522
20
1.32615
11
2.04522
21
1.32707
0
LINE
8
BLACK
6
CONTINUOUS
10
2.04522
20
1.32707
11
2.04508
21
1.32798
0
LINE
8
BLACK
6
CONTINUOUS
10
2.04508
20
1.32798
11
2.04522
21
1.32827
0
LINE
8
BLACK
6
CONTINUOUS
10
2.04522
20
1.32827
11
2.04522
21
1.32859
0
LINE
8
BLACK
6
CONTINUOUS
10
2.04522
20
1.32859
11
2.04577
21
1.32933
0
LINE
8
BLACK
6
CONTINUOUS
10
2.04577
20
1.32933
11
2.04618
21
1.33015
0
LINE
8
BLACK
6
CONTINUOUS
10
2.04618
20
1.33015
11
2.09052
21
1.37449
0
LINE
8
BLACK
6
CONTINUOUS
10
2.09052
20
1.37449
11
2.09378
21
1.38425
0
LINE
8
BLACK
6
CONTINUOUS
10
2.09378
20
1.38425
11
2.09378
21
1.39018
0
LINE
8
BLACK
6
CONTINUOUS
10
2.09378
20
1.39018
11
2.09073
21
1.39628
0
LINE
8
BLACK
6
CONTINUOUS
10
2.09073
20
1.39628
11
2.08788
21
1.39912
0
LINE
8
BLACK
6
CONTINUOUS
10
2.08788
20
1.39912
11
2.08179
21
1.40217
0
LINE
8
BLACK
6
CONTINUOUS
10
2.08179
20
1.40217
11
2.0649
21
1.40217
0
LINE
8
BLACK
6
CONTINUOUS
10
2.0649
20
1.40217
11
2.0588
21
1.39912
0
LINE
8
BLACK
6
CONTINUOUS
10
2.0588
20
1.39912
11
2.0555
21
1.39583
0
LINE
8
BLACK
6
CONTINUOUS
10
2.0555
20
1.39583
11
2.05333
21
1.39472
0
LINE
8
BLACK
6
CONTINUOUS
10
2.05333
20
1.39472
11
2.05093
21
1.3951
0
LINE
8
BLACK
6
CONTINUOUS
10
2.05093
20
1.3951
11
2.04921
21
1.39682
0
LINE
8
BLACK
6
CONTINUOUS
10
2.04921
20
1.39682
11
2.04883
21
1.39923
0
LINE
8
BLACK
6
CONTINUOUS
10
2.04883
20
1.39923
11
2.04993
21
1.40139
0
LINE
8
BLACK
6
CONTINUOUS
10
2.04993
20
1.40139
11
2.05368
21
1.40514
0
LINE
8
BLACK
6
CONTINUOUS
10
2.05368
20
1.40514
11
2.05425
21
1.40543
0
LINE
8
BLACK
6
CONTINUOUS
10
2.05425
20
1.40543
11
2.05471
21
1.40588
0
LINE
8
BLACK
6
CONTINUOUS
10
2.05471
20
1.40588
11
2.06221
21
1.40963
0
LINE
8
BLACK
6
CONTINUOUS
10
2.06221
20
1.40963
11
2.0631
21
1.40977
0
LINE
8
BLACK
6
CONTINUOUS
10
2.0631
20
1.40977
11
2.06397
21
1.41005
0
LINE
8
BLACK
6
CONTINUOUS
10
2.06397
20
1.41005
11
2.08271
21
1.41005
0
LINE
8
BLACK
6
CONTINUOUS
10
2.08271
20
1.41005
11
2.08358
21
1.40977
0
LINE
8
BLACK
6
CONTINUOUS
10
2.15482
20
1.40977
11
2.15572
21
1.40963
0
LINE
8
BLACK
6
CONTINUOUS
10
2.15572
20
1.40963
11
2.16322
21
1.40588
0
LINE
8
BLACK
6
CONTINUOUS
10
2.16322
20
1.40588
11
2.16367
21
1.40543
0
LINE
8
BLACK
6
CONTINUOUS
10
2.16367
20
1.40543
11
2.16424
21
1.40514
0
LINE
8
BLACK
6
CONTINUOUS
10
2.16424
20
1.40514
11
2.16799
21
1.40139
0
LINE
8
BLACK
6
CONTINUOUS
10
2.16799
20
1.40139
11
2.16828
21
1.40082
0
LINE
8
BLACK
6
CONTINUOUS
10
2.16828
20
1.40082
11
2.16873
21
1.40037
0
LINE
8
BLACK
6
CONTINUOUS
10
2.16873
20
1.40037
11
2.17248
21
1.39287
0
LINE
8
BLACK
6
CONTINUOUS
10
2.17248
20
1.39287
11
2.17254
21
1.39244
0
LINE
8
BLACK
6
CONTINUOUS
10
2.17254
20
1.39244
11
2.17277
21
1.39207
0
LINE
8
BLACK
6
CONTINUOUS
10
2.17277
20
1.39207
11
2.17652
21
1.37707
0
LINE
8
BLACK
6
CONTINUOUS
10
2.17652
20
1.37707
11
2.17649
21
1.37658
0
LINE
8
BLACK
6
CONTINUOUS
10
2.17649
20
1.37658
11
2.17664
21
1.37611
0
LINE
8
BLACK
6
CONTINUOUS
10
2.17664
20
1.37611
11
2.17664
21
1.35736
0
LINE
8
BLACK
6
CONTINUOUS
10
2.17664
20
1.35736
11
2.17649
21
1.3569
0
LINE
8
BLACK
6
CONTINUOUS
10
2.17649
20
1.3569
11
2.17652
21
1.35641
0
LINE
8
BLACK
6
CONTINUOUS
10
2.17652
20
1.35641
11
2.17277
21
1.34141
0
LINE
8
BLACK
6
CONTINUOUS
10
2.17277
20
1.34141
11
2.17254
21
1.34104
0
LINE
8
BLACK
6
CONTINUOUS
10
2.17254
20
1.34104
11
2.17248
21
1.34061
0
LINE
8
BLACK
6
CONTINUOUS
10
2.17248
20
1.34061
11
2.16873
21
1.33311
0
LINE
8
BLACK
6
CONTINUOUS
10
2.16873
20
1.33311
11
2.16828
21
1.33265
0
LINE
8
BLACK
6
CONTINUOUS
10
2.16828
20
1.33265
11
2.16799
21
1.33208
0
LINE
8
BLACK
6
CONTINUOUS
10
2.16799
20
1.33208
11
2.16424
21
1.32833
0
LINE
8
BLACK
6
CONTINUOUS
10
2.16424
20
1.32833
11
2.16367
21
1.32804
0
LINE
8
BLACK
6
CONTINUOUS
10
2.16367
20
1.32804
11
2.16322
21
1.3276
0
LINE
8
BLACK
6
CONTINUOUS
10
2.16322
20
1.3276
11
2.15572
21
1.32385
0
LINE
8
BLACK
6
CONTINUOUS
10
2.15572
20
1.32385
11
2.15482
21
1.32371
0
LINE
8
BLACK
6
CONTINUOUS
10
2.15482
20
1.32371
11
2.15396
21
1.32343
0
LINE
8
BLACK
6
CONTINUOUS
10
2.15396
20
1.32343
11
2.14646
21
1.32343
0
LINE
8
BLACK
6
CONTINUOUS
10
2.14646
20
1.32343
11
2.14559
21
1.32371
0
LINE
8
BLACK
6
CONTINUOUS
10
2.14559
20
1.32371
11
2.1447
21
1.32385
0
LINE
8
BLACK
6
CONTINUOUS
10
2.1447
20
1.32385
11
2.1372
21
1.3276
0
LINE
8
BLACK
6
CONTINUOUS
10
2.1372
20
1.3276
11
2.13674
21
1.32804
0
LINE
8
BLACK
6
CONTINUOUS
10
2.13674
20
1.32804
11
2.13617
21
1.32833
0
LINE
8
BLACK
6
CONTINUOUS
10
2.13617
20
1.32833
11
2.13242
21
1.33208
0
LINE
8
BLACK
6
CONTINUOUS
10
2.13242
20
1.33208
11
2.13213
21
1.33265
0
LINE
8
BLACK
6
CONTINUOUS
10
2.13213
20
1.33265
11
2.13169
21
1.33311
0
LINE
8
BLACK
6
CONTINUOUS
10
2.13169
20
1.33311
11
2.12794
21
1.34061
0
LINE
8
BLACK
6
CONTINUOUS
10
2.12794
20
1.34061
11
2.12787
21
1.34104
0
LINE
8
BLACK
6
CONTINUOUS
10
2.12787
20
1.34104
11
2.12764
21
1.34141
0
LINE
8
BLACK
6
CONTINUOUS
10
2.12764
20
1.34141
11
2.12389
21
1.35641
0
LINE
8
BLACK
6
CONTINUOUS
10
2.12389
20
1.35641
11
2.12392
21
1.3569
0
LINE
8
BLACK
6
CONTINUOUS
10
2.12392
20
1.3569
11
2.12377
21
1.35736
0
LINE
8
BLACK
6
CONTINUOUS
10
2.12377
20
1.35736
11
2.12377
21
1.37611
0
LINE
8
BLACK
6
CONTINUOUS
10
2.12377
20
1.37611
11
2.12392
21
1.37658
0
LINE
8
BLACK
6
CONTINUOUS
10
2.12392
20
1.37658
11
2.12389
21
1.37707
0
LINE
8
BLACK
6
CONTINUOUS
10
2.12389
20
1.37707
11
2.12764
21
1.39207
0
LINE
8
BLACK
6
CONTINUOUS
10
2.12764
20
1.39207
11
2.12787
21
1.39244
0
LINE
8
BLACK
6
CONTINUOUS
10
2.12787
20
1.39244
11
2.12794
21
1.39287
0
LINE
8
BLACK
6
CONTINUOUS
10
2.12794
20
1.39287
11
2.13169
21
1.40037
0
LINE
8
BLACK
6
CONTINUOUS
10
2.13169
20
1.40037
11
2.13213
21
1.40083
0
LINE
8
BLACK
6
CONTINUOUS
10
2.13213
20
1.40083
11
2.13242
21
1.40139
0
LINE
8
BLACK
6
CONTINUOUS
10
2.13242
20
1.40139
11
2.13617
21
1.40514
0
LINE
8
BLACK
6
CONTINUOUS
10
2.13617
20
1.40514
11
2.13674
21
1.40543
0
LINE
8
BLACK
6
CONTINUOUS
10
2.13674
20
1.40543
11
2.1372
21
1.40588
0
LINE
8
BLACK
6
CONTINUOUS
10
2.1372
20
1.40588
11
2.1447
21
1.40963
0
LINE
8
BLACK
6
CONTINUOUS
10
2.1447
20
1.40963
11
2.14559
21
1.40977
0
LINE
8
BLACK
6
CONTINUOUS
10
2.14559
20
1.40977
11
2.14646
21
1.41005
0
LINE
8
BLACK
6
CONTINUOUS
10
2.14646
20
1.41005
11
2.15396
21
1.41005
0
LINE
8
BLACK
6
CONTINUOUS
10
2.15396
20
1.41005
11
2.15482
21
1.40977
0
LINE
8
BLACK
6
CONTINUOUS
10
2.14129
20
1.39912
11
2.13844
21
1.39628
0
LINE
8
BLACK
6
CONTINUOUS
10
2.13844
20
1.39628
11
2.13517
21
1.38974
0
LINE
8
BLACK
6
CONTINUOUS
10
2.13517
20
1.38974
11
2.13165
21
1.37563
0
LINE
8
BLACK
6
CONTINUOUS
10
2.13165
20
1.37563
11
2.13165
21
1.35785
0
LINE
8
BLACK
6
CONTINUOUS
10
2.13165
20
1.35785
11
2.13517
21
1.34374
0
LINE
8
BLACK
6
CONTINUOUS
10
2.13517
20
1.34374
11
2.13844
21
1.3372
0
LINE
8
BLACK
6
CONTINUOUS
10
2.13844
20
1.3372
11
2.14129
21
1.33435
0
LINE
8
BLACK
6
CONTINUOUS
10
2.14129
20
1.33435
11
2.14739
21
1.33131
0
LINE
8
BLACK
6
CONTINUOUS
10
2.14739
20
1.33131
11
2.15303
21
1.33131
0
LINE
8
BLACK
6
CONTINUOUS
10
2.15303
20
1.33131
11
2.15912
21
1.33435
0
LINE
8
BLACK
6
CONTINUOUS
10
2.15912
20
1.33435
11
2.16197
21
1.3372
0
LINE
8
BLACK
6
CONTINUOUS
10
2.16197
20
1.3372
11
2.16524
21
1.34374
0
LINE
8
BLACK
6
CONTINUOUS
10
2.16524
20
1.34374
11
2.16877
21
1.35785
0
LINE
8
BLACK
6
CONTINUOUS
10
2.16877
20
1.35785
11
2.16877
21
1.37563
0
LINE
8
BLACK
6
CONTINUOUS
10
2.16877
20
1.37563
11
2.16524
21
1.38974
0
LINE
8
BLACK
6
CONTINUOUS
10
2.16524
20
1.38974
11
2.16197
21
1.39628
0
LINE
8
BLACK
6
CONTINUOUS
10
2.16197
20
1.39628
11
2.15912
21
1.39912
0
LINE
8
BLACK
6
CONTINUOUS
10
2.15912
20
1.39912
11
2.15303
21
1.40217
0
LINE
8
BLACK
6
CONTINUOUS
10
2.15303
20
1.40217
11
2.14739
21
1.40217
0
LINE
8
BLACK
6
CONTINUOUS
10
2.14739
20
1.40217
11
2.14129
21
1.39912
0
LINE
8
BLACK
6
CONTINUOUS
10
2.23356
20
1.40977
11
2.23446
21
1.40963
0
LINE
8
BLACK
6
CONTINUOUS
10
2.23446
20
1.40963
11
2.24196
21
1.40588
0
LINE
8
BLACK
6
CONTINUOUS
10
2.24196
20
1.40588
11
2.24241
21
1.40543
0
LINE
8
BLACK
6
CONTINUOUS
10
2.24241
20
1.40543
11
2.24298
21
1.40514
0
LINE
8
BLACK
6
CONTINUOUS
10
2.24298
20
1.40514
11
2.24673
21
1.40139
0
LINE
8
BLACK
6
CONTINUOUS
10
2.24673
20
1.40139
11
2.24702
21
1.40082
0
LINE
8
BLACK
6
CONTINUOUS
10
2.24702
20
1.40082
11
2.24747
21
1.40037
0
LINE
8
BLACK
6
CONTINUOUS
10
2.24747
20
1.40037
11
2.25122
21
1.39287
0
LINE
8
BLACK
6
CONTINUOUS
10
2.25122
20
1.39287
11
2.25135
21
1.39197
0
LINE
8
BLACK
6
CONTINUOUS
10
2.25135
20
1.39197
11
2.25163
21
1.39111
0
LINE
8
BLACK
6
CONTINUOUS
10
2.25163
20
1.39111
11
2.25163
21
1.38361
0
LINE
8
BLACK
6
CONTINUOUS
10
2.25163
20
1.38361
11
2.25143
21
1.383
0
LINE
8
BLACK
6
CONTINUOUS
10
2.25143
20
1.383
11
2.25143
21
1.38237
0
LINE
8
BLACK
6
CONTINUOUS
10
2.25143
20
1.38237
11
2.24768
21
1.37112
0
LINE
8
BLACK
6
CONTINUOUS
10
2.24768
20
1.37112
11
2.24714
21
1.37039
0
LINE
8
BLACK
6
CONTINUOUS
10
2.24714
20
1.37039
11
2.24673
21
1.36958
0
LINE
8
BLACK
6
CONTINUOUS
10
2.24673
20
1.36958
11
2.20845
21
1.33131
0
LINE
8
BLACK
6
CONTINUOUS
10
2.20845
20
1.33131
11
2.24769
21
1.33131
0
LINE
8
BLACK
6
CONTINUOUS
10
2.24769
20
1.33131
11
2.25001
21
1.33055
0
LINE
8
BLACK
6
CONTINUOUS
10
2.25001
20
1.33055
11
2.25144
21
1.32859
0
LINE
8
BLACK
6
CONTINUOUS
10
2.25144
20
1.32859
11
2.25144
21
1.32615
0
LINE
8
BLACK
6
CONTINUOUS
10
2.25144
20
1.32615
11
2.25001
21
1.32418
0
LINE
8
BLACK
6
CONTINUOUS
10
2.25001
20
1.32418
11
2.24769
21
1.32343
0
LINE
8
BLACK
6
CONTINUOUS
10
2.24769
20
1.32343
11
2.19895
21
1.32343
0
LINE
8
BLACK
6
CONTINUOUS
10
2.19895
20
1.32343
11
2.19807
21
1.32372
0
LINE
8
BLACK
6
CONTINUOUS
10
2.19807
20
1.32372
11
2.19716
21
1.32386
0
LINE
8
BLACK
6
CONTINUOUS
10
2.19716
20
1.32386
11
2.19694
21
1.32409
0
LINE
8
BLACK
6
CONTINUOUS
10
2.19694
20
1.32409
11
2.19664
21
1.32418
0
LINE
8
BLACK
6
CONTINUOUS
10
2.19664
20
1.32418
11
2.19609
21
1.32493
0
LINE
8
BLACK
6
CONTINUOUS
10
2.19609
20
1.32493
11
2.19544
21
1.32558
0
LINE
8
BLACK
6
CONTINUOUS
10
2.19544
20
1.32558
11
2.19539
21
1.3259
0
LINE
8
BLACK
6
CONTINUOUS
10
2.19539
20
1.3259
11
2.19521
21
1.32615
0
LINE
8
BLACK
6
CONTINUOUS
10
2.19521
20
1.32615
11
2.19521
21
1.32707
0
LINE
8
BLACK
6
CONTINUOUS
10
2.19521
20
1.32707
11
2.19506
21
1.32798
0
LINE
8
BLACK
6
CONTINUOUS
10
2.19506
20
1.32798
11
2.19521
21
1.32827
0
LINE
8
BLACK
6
CONTINUOUS
10
2.19521
20
1.32827
11
2.19521
21
1.32859
0
LINE
8
BLACK
6
CONTINUOUS
10
2.19521
20
1.32859
11
2.19575
21
1.32933
0
LINE
8
BLACK
6
CONTINUOUS
10
2.19575
20
1.32933
11
2.19617
21
1.33015
0
LINE
8
BLACK
6
CONTINUOUS
10
2.19617
20
1.33015
11
2.2405
21
1.37449
0
LINE
8
BLACK
6
CONTINUOUS
10
2.2405
20
1.37449
11
2.24376
21
1.38425
0
LINE
8
BLACK
6
CONTINUOUS
10
2.24376
20
1.38425
11
2.24376
21
1.39018
0
LINE
8
BLACK
6
CONTINUOUS
10
2.24376
20
1.39018
11
2.24071
21
1.39628
0
LINE
8
BLACK
6
CONTINUOUS
10
2.24071
20
1.39628
11
2.23786
21
1.39912
0
LINE
8
BLACK
6
CONTINUOUS
10
2.23786
20
1.39912
11
2.23177
21
1.40217
0
LINE
8
BLACK
6
CONTINUOUS
10
2.23177
20
1.40217
11
2.21488
21
1.40217
0
LINE
8
BLACK
6
CONTINUOUS
10
2.21488
20
1.40217
11
2.20878
21
1.39912
0
LINE
8
BLACK
6
CONTINUOUS
10
2.20878
20
1.39912
11
2.20548
21
1.39583
0
LINE
8
BLACK
6
CONTINUOUS
10
2.20548
20
1.39583
11
2.20332
21
1.39472
0
LINE
8
BLACK
6
CONTINUOUS
10
2.20332
20
1.39472
11
2.20091
21
1.3951
0
LINE
8
BLACK
6
CONTINUOUS
10
2.20091
20
1.3951
11
2.19919
21
1.39682
0
LINE
8
BLACK
6
CONTINUOUS
10
2.19919
20
1.39682
11
2.19881
21
1.39923
0
LINE
8
BLACK
6
CONTINUOUS
10
2.19881
20
1.39923
11
2.19992
21
1.40139
0
LINE
8
BLACK
6
CONTINUOUS
10
2.19992
20
1.40139
11
2.20367
21
1.40514
0
LINE
8
BLACK
6
CONTINUOUS
10
2.20367
20
1.40514
11
2.20423
21
1.40543
0
LINE
8
BLACK
6
CONTINUOUS
10
2.20423
20
1.40543
11
2.20469
21
1.40588
0
LINE
8
BLACK
6
CONTINUOUS
10
2.20469
20
1.40588
11
2.21219
21
1.40963
0
LINE
8
BLACK
6
CONTINUOUS
10
2.21219
20
1.40963
11
2.21309
21
1.40977
0
LINE
8
BLACK
6
CONTINUOUS
10
2.21309
20
1.40977
11
2.21395
21
1.41005
0
LINE
8
BLACK
6
CONTINUOUS
10
2.21395
20
1.41005
11
2.2327
21
1.41005
0
LINE
8
BLACK
6
CONTINUOUS
10
2.2327
20
1.41005
11
2.23356
21
1.40977
0
LINE
8
BLACK
6
CONTINUOUS
10
2.30855
20
1.40977
11
2.30945
21
1.40963
0
LINE
8
BLACK
6
CONTINUOUS
10
2.30945
20
1.40963
11
2.31695
21
1.40588
0
LINE
8
BLACK
6
CONTINUOUS
10
2.31695
20
1.40588
11
2.3174
21
1.40543
0
LINE
8
BLACK
6
CONTINUOUS
10
2.3174
20
1.40543
11
2.31797
21
1.40514
0
LINE
8
BLACK
6
CONTINUOUS
10
2.31797
20
1.40514
11
2.32172
21
1.40139
0
LINE
8
BLACK
6
CONTINUOUS
10
2.32172
20
1.40139
11
2.32201
21
1.40082
0
LINE
8
BLACK
6
CONTINUOUS
10
2.32201
20
1.40082
11
2.32246
21
1.40037
0
LINE
8
BLACK
6
CONTINUOUS
10
2.32246
20
1.40037
11
2.32621
21
1.39287
0
LINE
8
BLACK
6
CONTINUOUS
10
2.32621
20
1.39287
11
2.32634
21
1.39197
0
LINE
8
BLACK
6
CONTINUOUS
10
2.32634
20
1.39197
11
2.32662
21
1.39111
0
LINE
8
BLACK
6
CONTINUOUS
10
2.32662
20
1.39111
11
2.32662
21
1.38361
0
LINE
8
BLACK
6
CONTINUOUS
10
2.32662
20
1.38361
11
2.32642
21
1.383
0
LINE
8
BLACK
6
CONTINUOUS
10
2.32642
20
1.383
11
2.32642
21
1.38237
0
LINE
8
BLACK
6
CONTINUOUS
10
2.32642
20
1.38237
11
2.32267
21
1.37112
0
LINE
8
BLACK
6
CONTINUOUS
10
2.32267
20
1.37112
11
2.32213
21
1.37039
0
LINE
8
BLACK
6
CONTINUOUS
10
2.32213
20
1.37039
11
2.32172
21
1.36958
0
LINE
8
BLACK
6
CONTINUOUS
10
2.32172
20
1.36958
11
2.28345
21
1.33131
0
LINE
8
BLACK
6
CONTINUOUS
10
2.28345
20
1.33131
11
2.32268
21
1.33131
0
LINE
8
BLACK
6
CONTINUOUS
10
2.32268
20
1.33131
11
2.325
21
1.33055
0
LINE
8
BLACK
6
CONTINUOUS
10
2.325
20
1.33055
11
2.32643
21
1.32859
0
LINE
8
BLACK
6
CONTINUOUS
10
2.32643
20
1.32859
11
2.32643
21
1.32615
0
LINE
8
BLACK
6
CONTINUOUS
10
2.32643
20
1.32615
11
2.325
21
1.32418
0
LINE
8
BLACK
6
CONTINUOUS
10
2.325
20
1.32418
11
2.32268
21
1.32343
0
LINE
8
BLACK
6
CONTINUOUS
10
2.32268
20
1.32343
11
2.27394
21
1.32343
0
LINE
8
BLACK
6
CONTINUOUS
10
2.27394
20
1.32343
11
2.27306
21
1.32372
0
LINE
8
BLACK
6
CONTINUOUS
10
2.27306
20
1.32372
11
2.27215
21
1.32386
0
LINE
8
BLACK
6
CONTINUOUS
10
2.27215
20
1.32386
11
2.27193
21
1.32409
0
LINE
8
BLACK
6
CONTINUOUS
10
2.27193
20
1.32409
11
2.27163
21
1.32418
0
LINE
8
BLACK
6
CONTINUOUS
10
2.27163
20
1.32418
11
2.27108
21
1.32493
0
LINE
8
BLACK
6
CONTINUOUS
10
2.27108
20
1.32493
11
2.27043
21
1.32558
0
LINE
8
BLACK
6
CONTINUOUS
10
2.27043
20
1.32558
11
2.27038
21
1.3259
0
LINE
8
BLACK
6
CONTINUOUS
10
2.27038
20
1.3259
11
2.2702
21
1.32615
0
LINE
8
BLACK
6
CONTINUOUS
10
2.2702
20
1.32615
11
2.2702
21
1.32707
0
LINE
8
BLACK
6
CONTINUOUS
10
2.2702
20
1.32707
11
2.27005
21
1.32798
0
LINE
8
BLACK
6
CONTINUOUS
10
2.27005
20
1.32798
11
2.2702
21
1.32827
0
LINE
8
BLACK
6
CONTINUOUS
10
2.2702
20
1.32827
11
2.2702
21
1.32859
0
LINE
8
BLACK
6
CONTINUOUS
10
2.2702
20
1.32859
11
2.27074
21
1.32933
0
LINE
8
BLACK
6
CONTINUOUS
10
2.27074
20
1.32933
11
2.27116
21
1.33015
0
LINE
8
BLACK
6
CONTINUOUS
10
2.27116
20
1.33015
11
2.31549
21
1.37449
0
LINE
8
BLACK
6
CONTINUOUS
10
2.31549
20
1.37449
11
2.31875
21
1.38425
0
LINE
8
BLACK
6
CONTINUOUS
10
2.31875
20
1.38425
11
2.31875
21
1.39018
0
LINE
8
BLACK
6
CONTINUOUS
10
2.31875
20
1.39018
11
2.3157
21
1.39628
0
LINE
8
BLACK
6
CONTINUOUS
10
2.3157
20
1.39628
11
2.31285
21
1.39912
0
LINE
8
BLACK
6
CONTINUOUS
10
2.31285
20
1.39912
11
2.30676
21
1.40217
0
LINE
8
BLACK
6
CONTINUOUS
10
2.30676
20
1.40217
11
2.28987
21
1.40217
0
LINE
8
BLACK
6
CONTINUOUS
10
2.28987
20
1.40217
11
2.28377
21
1.39912
0
LINE
8
BLACK
6
CONTINUOUS
10
2.28377
20
1.39912
11
2.28047
21
1.39583
0
LINE
8
BLACK
6
CONTINUOUS
10
2.28047
20
1.39583
11
2.27831
21
1.39472
0
LINE
8
BLACK
6
CONTINUOUS
10
2.27831
20
1.39472
11
2.2759
21
1.3951
0
LINE
8
BLACK
6
CONTINUOUS
10
2.2759
20
1.3951
11
2.27418
21
1.39682
0
LINE
8
BLACK
6
CONTINUOUS
10
2.27418
20
1.39682
11
2.2738
21
1.39923
0
LINE
8
BLACK
6
CONTINUOUS
10
2.2738
20
1.39923
11
2.27491
21
1.40139
0
LINE
8
BLACK
6
CONTINUOUS
10
2.27491
20
1.40139
11
2.27866
21
1.40514
0
LINE
8
BLACK
6
CONTINUOUS
10
2.27866
20
1.40514
11
2.27922
21
1.40543
0
LINE
8
BLACK
6
CONTINUOUS
10
2.27922
20
1.40543
11
2.27968
21
1.40588
0
LINE
8
BLACK
6
CONTINUOUS
10
2.27968
20
1.40588
11
2.28718
21
1.40963
0
LINE
8
BLACK
6
CONTINUOUS
10
2.28718
20
1.40963
11
2.28808
21
1.40977
0
LINE
8
BLACK
6
CONTINUOUS
10
2.28808
20
1.40977
11
2.28894
21
1.41005
0
LINE
8
BLACK
6
CONTINUOUS
10
2.28894
20
1.41005
11
2.30769
21
1.41005
0
LINE
8
BLACK
6
CONTINUOUS
10
2.30769
20
1.41005
11
2.30855
21
1.40977
0
LINE
8
BLACK
6
CONTINUOUS
10
1.8289
20
1.40967
11
1.83004
21
1.40931
0
LINE
8
BLACK
6
CONTINUOUS
10
1.83004
20
1.40931
11
1.83005
21
1.40929
0
LINE
8
BLACK
6
CONTINUOUS
10
1.83005
20
1.40929
11
1.83008
21
1.40928
0
LINE
8
BLACK
6
CONTINUOUS
10
1.83008
20
1.40928
11
1.83078
21
1.40831
0
LINE
8
BLACK
6
CONTINUOUS
10
1.83078
20
1.40831
11
1.83148
21
1.40735
0
LINE
8
BLACK
6
CONTINUOUS
10
1.83148
20
1.40735
11
1.85773
21
1.32861
0
LINE
8
BLACK
6
CONTINUOUS
10
1.85773
20
1.32861
11
1.85775
21
1.32618
0
LINE
8
BLACK
6
CONTINUOUS
10
1.85775
20
1.32618
11
1.85633
21
1.3242
0
LINE
8
BLACK
6
CONTINUOUS
10
1.85633
20
1.3242
11
1.85402
21
1.32343
0
LINE
8
BLACK
6
CONTINUOUS
10
1.85402
20
1.32343
11
1.8517
21
1.32417
0
LINE
8
BLACK
6
CONTINUOUS
10
1.8517
20
1.32417
11
1.85026
21
1.32612
0
LINE
8
BLACK
6
CONTINUOUS
10
1.85026
20
1.32612
11
1.84366
21
1.34593
0
LINE
8
BLACK
6
CONTINUOUS
10
1.84366
20
1.34593
11
1.81184
21
1.34593
0
LINE
8
BLACK
6
CONTINUOUS
10
1.81184
20
1.34593
11
1.80523
21
1.32612
0
LINE
8
BLACK
6
CONTINUOUS
10
1.80523
20
1.32612
11
1.80379
21
1.32417
0
LINE
8
BLACK
6
CONTINUOUS
10
1.80379
20
1.32417
11
1.80147
21
1.32343
0
LINE
8
BLACK
6
CONTINUOUS
10
1.80147
20
1.32343
11
1.79916
21
1.3242
0
LINE
8
BLACK
6
CONTINUOUS
10
1.79916
20
1.3242
11
1.79775
21
1.32618
0
LINE
8
BLACK
6
CONTINUOUS
10
1.79775
20
1.32618
11
1.79776
21
1.32861
0
LINE
8
BLACK
6
CONTINUOUS
10
1.79776
20
1.32861
11
1.82401
21
1.40735
0
LINE
8
BLACK
6
CONTINUOUS
10
1.82401
20
1.40735
11
1.82472
21
1.40831
0
LINE
8
BLACK
6
CONTINUOUS
10
1.82472
20
1.40831
11
1.82541
21
1.40928
0
LINE
8
BLACK
6
CONTINUOUS
10
1.82541
20
1.40928
11
1.82544
21
1.40929
0
LINE
8
BLACK
6
CONTINUOUS
10
1.82544
20
1.40929
11
1.82546
21
1.40931
0
LINE
8
BLACK
6
CONTINUOUS
10
1.82546
20
1.40931
11
1.82659
21
1.40967
0
LINE
8
BLACK
6
CONTINUOUS
10
1.82659
20
1.40967
11
1.82772
21
1.41005
0
LINE
8
BLACK
6
CONTINUOUS
10
1.82772
20
1.41005
11
1.82775
21
1.41004
0
LINE
8
BLACK
6
CONTINUOUS
10
1.82775
20
1.41004
11
1.82778
21
1.41005
0
LINE
8
BLACK
6
CONTINUOUS
10
1.82778
20
1.41005
11
1.8289
21
1.40967
0
LINE
8
BLACK
6
CONTINUOUS
10
1.81446
20
1.3538
11
1.84103
21
1.3538
0
LINE
8
BLACK
6
CONTINUOUS
10
1.84103
20
1.3538
11
1.82775
21
1.39366
0
LINE
8
BLACK
6
CONTINUOUS
10
1.82775
20
1.39366
11
1.81446
21
1.3538
0
LINE
8
BLACK
6
CONTINUOUS
10
1.71234
20
1.40985
11
1.71273
21
1.40985
0
LINE
8
BLACK
6
CONTINUOUS
10
1.71273
20
1.40985
11
1.71342
21
1.40935
0
LINE
8
BLACK
6
CONTINUOUS
10
1.71342
20
1.40935
11
1.7142
21
1.40899
0
LINE
8
BLACK
6
CONTINUOUS
10
1.7142
20
1.40899
11
1.71438
21
1.40865
0
LINE
8
BLACK
6
CONTINUOUS
10
1.71438
20
1.40865
11
1.7147
21
1.40842
0
LINE
8
BLACK
6
CONTINUOUS
10
1.7147
20
1.40842
11
1.71496
21
1.40761
0
LINE
8
BLACK
6
CONTINUOUS
10
1.71496
20
1.40761
11
1.71538
21
1.40686
0
LINE
8
BLACK
6
CONTINUOUS
10
1.71538
20
1.40686
11
1.71533
21
1.40648
0
LINE
8
BLACK
6
CONTINUOUS
10
1.71533
20
1.40648
11
1.71545
21
1.40611
0
LINE
8
BLACK
6
CONTINUOUS
10
1.71545
20
1.40611
11
1.71545
21
1.32737
0
LINE
8
BLACK
6
CONTINUOUS
10
1.71545
20
1.32737
11
1.7147
21
1.32505
0
LINE
8
BLACK
6
CONTINUOUS
10
1.7147
20
1.32505
11
1.71273
21
1.32362
0
LINE
8
BLACK
6
CONTINUOUS
10
1.71273
20
1.32362
11
1.71029
21
1.32362
0
LINE
8
BLACK
6
CONTINUOUS
10
1.71029
20
1.32362
11
1.70833
21
1.32505
0
LINE
8
BLACK
6
CONTINUOUS
10
1.70833
20
1.32505
11
1.70757
21
1.32737
0
LINE
8
BLACK
6
CONTINUOUS
10
1.70757
20
1.32737
11
1.70757
21
1.38836
0
LINE
8
BLACK
6
CONTINUOUS
10
1.70757
20
1.38836
11
1.68883
21
1.3482
0
LINE
8
BLACK
6
CONTINUOUS
10
1.68883
20
1.3482
11
1.68832
21
1.34765
0
LINE
8
BLACK
6
CONTINUOUS
10
1.68832
20
1.34765
11
1.68795
21
1.34699
0
LINE
8
BLACK
6
CONTINUOUS
10
1.68795
20
1.34699
11
1.68751
21
1.34678
0
LINE
8
BLACK
6
CONTINUOUS
10
1.68751
20
1.34678
11
1.68717
21
1.34642
0
LINE
8
BLACK
6
CONTINUOUS
10
1.68717
20
1.34642
11
1.68643
21
1.34628
0
LINE
8
BLACK
6
CONTINUOUS
10
1.68643
20
1.34628
11
1.68575
21
1.34596
0
LINE
8
BLACK
6
CONTINUOUS
10
1.68575
20
1.34596
11
1.68526
21
1.34605
0
LINE
8
BLACK
6
CONTINUOUS
10
1.68526
20
1.34605
11
1.68478
21
1.34596
0
LINE
8
BLACK
6
CONTINUOUS
10
1.68478
20
1.34596
11
1.6841
21
1.34628
0
LINE
8
BLACK
6
CONTINUOUS
10
1.6841
20
1.34628
11
1.68336
21
1.34642
0
LINE
8
BLACK
6
CONTINUOUS
10
1.68336
20
1.34642
11
1.68302
21
1.34678
0
LINE
8
BLACK
6
CONTINUOUS
10
1.68302
20
1.34678
11
1.68258
21
1.34699
0
LINE
8
BLACK
6
CONTINUOUS
10
1.68258
20
1.34699
11
1.68221
21
1.34765
0
LINE
8
BLACK
6
CONTINUOUS
10
1.68221
20
1.34765
11
1.6817
21
1.3482
0
LINE
8
BLACK
6
CONTINUOUS
10
1.6817
20
1.3482
11
1.66295
21
1.38836
0
LINE
8
BLACK
6
CONTINUOUS
10
1.66295
20
1.38836
11
1.66295
21
1.32737
0
LINE
8
BLACK
6
CONTINUOUS
10
1.66295
20
1.32737
11
1.6622
21
1.32505
0
LINE
8
BLACK
6
CONTINUOUS
10
1.6622
20
1.32505
11
1.66023
21
1.32362
0
LINE
8
BLACK
6
CONTINUOUS
10
1.66023
20
1.32362
11
1.6578
21
1.32362
0
LINE
8
BLACK
6
CONTINUOUS
10
1.6578
20
1.32362
11
1.65583
21
1.32505
0
LINE
8
BLACK
6
CONTINUOUS
10
1.65583
20
1.32505
11
1.65508
21
1.32737
0
LINE
8
BLACK
6
CONTINUOUS
10
1.65508
20
1.32737
11
1.65508
21
1.40611
0
LINE
8
BLACK
6
CONTINUOUS
10
1.65508
20
1.40611
11
1.6552
21
1.40648
0
LINE
8
BLACK
6
CONTINUOUS
10
1.6552
20
1.40648
11
1.65515
21
1.40686
0
LINE
8
BLACK
6
CONTINUOUS
10
1.65515
20
1.40686
11
1.65557
21
1.40761
0
LINE
8
BLACK
6
CONTINUOUS
10
1.65557
20
1.40761
11
1.65583
21
1.40842
0
LINE
8
BLACK
6
CONTINUOUS
10
1.65583
20
1.40842
11
1.65614
21
1.40865
0
LINE
8
BLACK
6
CONTINUOUS
10
1.65614
20
1.40865
11
1.65633
21
1.40899
0
LINE
8
BLACK
6
CONTINUOUS
10
1.65633
20
1.40899
11
1.65711
21
1.40935
0
LINE
8
BLACK
6
CONTINUOUS
10
1.65711
20
1.40935
11
1.6578
21
1.40985
0
LINE
8
BLACK
6
CONTINUOUS
10
1.6578
20
1.40985
11
1.65819
21
1.40985
0
LINE
8
BLACK
6
CONTINUOUS
10
1.65819
20
1.40985
11
1.65854
21
1.41002
0
LINE
8
BLACK
6
CONTINUOUS
10
1.65854
20
1.41002
11
1.65938
21
1.40985
0
LINE
8
BLACK
6
CONTINUOUS
10
1.65938
20
1.40985
11
1.66023
21
1.40985
0
LINE
8
BLACK
6
CONTINUOUS
10
1.66023
20
1.40985
11
1.66055
21
1.40963
0
LINE
8
BLACK
6
CONTINUOUS
10
1.66055
20
1.40963
11
1.66093
21
1.40955
0
LINE
8
BLACK
6
CONTINUOUS
10
1.66093
20
1.40955
11
1.66151
21
1.40893
0
LINE
8
BLACK
6
CONTINUOUS
10
1.66151
20
1.40893
11
1.6622
21
1.40842
0
LINE
8
BLACK
6
CONTINUOUS
10
1.6622
20
1.40842
11
1.66232
21
1.40806
0
LINE
8
BLACK
6
CONTINUOUS
10
1.66232
20
1.40806
11
1.66259
21
1.40777
0
LINE
8
BLACK
6
CONTINUOUS
10
1.66259
20
1.40777
11
1.68526
21
1.35918
0
LINE
8
BLACK
6
CONTINUOUS
10
1.68526
20
1.35918
11
1.70794
21
1.40777
0
LINE
8
BLACK
6
CONTINUOUS
10
1.70794
20
1.40777
11
1.70821
21
1.40806
0
LINE
8
BLACK
6
CONTINUOUS
10
1.70821
20
1.40806
11
1.70833
21
1.40842
0
LINE
8
BLACK
6
CONTINUOUS
10
1.70833
20
1.40842
11
1.70902
21
1.40893
0
LINE
8
BLACK
6
CONTINUOUS
10
1.70902
20
1.40893
11
1.7096
21
1.40955
0
LINE
8
BLACK
6
CONTINUOUS
10
1.7096
20
1.40955
11
1.70998
21
1.40963
0
LINE
8
BLACK
6
CONTINUOUS
10
1.70998
20
1.40963
11
1.71029
21
1.40985
0
LINE
8
BLACK
6
CONTINUOUS
10
1.71029
20
1.40985
11
1.71115
21
1.40985
0
LINE
8
BLACK
6
CONTINUOUS
10
1.71115
20
1.40985
11
1.71199
21
1.41002
0
LINE
8
BLACK
6
CONTINUOUS
10
1.71199
20
1.41002
11
1.71234
21
1.40985
0
LINE
8
BLACK
6
CONTINUOUS
10
2.00484
20
1.53654
11
2.00574
21
1.5364
0
LINE
8
BLACK
6
CONTINUOUS
10
2.00574
20
1.5364
11
2.01323
21
1.53265
0
LINE
8
BLACK
6
CONTINUOUS
10
2.01323
20
1.53265
11
2.01369
21
1.5322
0
LINE
8
BLACK
6
CONTINUOUS
10
2.01369
20
1.5322
11
2.01426
21
1.53191
0
LINE
8
BLACK
6
CONTINUOUS
10
2.01426
20
1.53191
11
2.01801
21
1.52817
0
LINE
8
BLACK
6
CONTINUOUS
10
2.01801
20
1.52817
11
2.0183
21
1.5276
0
LINE
8
BLACK
6
CONTINUOUS
10
2.0183
20
1.5276
11
2.01874
21
1.52714
0
LINE
8
BLACK
6
CONTINUOUS
10
2.01874
20
1.52714
11
2.02249
21
1.51964
0
LINE
8
BLACK
6
CONTINUOUS
10
2.02249
20
1.51964
11
2.02263
21
1.51875
0
LINE
8
BLACK
6
CONTINUOUS
10
2.02263
20
1.51875
11
2.02291
21
1.51788
0
LINE
8
BLACK
6
CONTINUOUS
10
2.02291
20
1.51788
11
2.02291
21
1.51038
0
LINE
8
BLACK
6
CONTINUOUS
10
2.02291
20
1.51038
11
2.02263
21
1.50952
0
LINE
8
BLACK
6
CONTINUOUS
10
2.02263
20
1.50952
11
2.02249
21
1.50862
0
LINE
8
BLACK
6
CONTINUOUS
10
2.02249
20
1.50862
11
2.01874
21
1.50112
0
LINE
8
BLACK
6
CONTINUOUS
10
2.01874
20
1.50112
11
2.0183
21
1.50067
0
LINE
8
BLACK
6
CONTINUOUS
10
2.0183
20
1.50067
11
2.01801
21
1.5001
0
LINE
8
BLACK
6
CONTINUOUS
10
2.01801
20
1.5001
11
2.01426
21
1.49635
0
LINE
8
BLACK
6
CONTINUOUS
10
2.01426
20
1.49635
11
2.01397
21
1.4962
0
LINE
8
BLACK
6
CONTINUOUS
10
2.01397
20
1.4962
11
2.01647
21
1.49537
0
LINE
8
BLACK
6
CONTINUOUS
10
2.01647
20
1.49537
11
2.0172
21
1.49483
0
LINE
8
BLACK
6
CONTINUOUS
10
2.0172
20
1.49483
11
2.01801
21
1.49442
0
LINE
8
BLACK
6
CONTINUOUS
10
2.01801
20
1.49442
11
2.02176
21
1.49067
0
LINE
8
BLACK
6
CONTINUOUS
10
2.02176
20
1.49067
11
2.02205
21
1.4901
0
LINE
8
BLACK
6
CONTINUOUS
10
2.02205
20
1.4901
11
2.02249
21
1.48965
0
LINE
8
BLACK
6
CONTINUOUS
10
2.02249
20
1.48965
11
2.02624
21
1.48215
0
LINE
8
BLACK
6
CONTINUOUS
10
2.02624
20
1.48215
11
2.02638
21
1.48125
0
LINE
8
BLACK
6
CONTINUOUS
10
2.02638
20
1.48125
11
2.02666
21
1.48039
0
LINE
8
BLACK
6
CONTINUOUS
10
2.02666
20
1.48039
11
2.02666
21
1.46914
0
LINE
8
BLACK
6
CONTINUOUS
10
2.02666
20
1.46914
11
2.02638
21
1.46828
0
LINE
8
BLACK
6
CONTINUOUS
10
2.02638
20
1.46828
11
2.02624
21
1.46738
0
LINE
8
BLACK
6
CONTINUOUS
10
2.02624
20
1.46738
11
2.02249
21
1.45988
0
LINE
8
BLACK
6
CONTINUOUS
10
2.02249
20
1.45988
11
2.02205
21
1.45942
0
LINE
8
BLACK
6
CONTINUOUS
10
2.02205
20
1.45942
11
2.02176
21
1.45886
0
LINE
8
BLACK
6
CONTINUOUS
10
2.02176
20
1.45886
11
2.01801
21
1.45511
0
LINE
8
BLACK
6
CONTINUOUS
10
2.01801
20
1.45511
11
2.01744
21
1.45482
0
LINE
8
BLACK
6
CONTINUOUS
10
2.01744
20
1.45482
11
2.01698
21
1.45437
0
LINE
8
BLACK
6
CONTINUOUS
10
2.01698
20
1.45437
11
2.00948
21
1.45062
0
LINE
8
BLACK
6
CONTINUOUS
10
2.00948
20
1.45062
11
2.00859
21
1.45048
0
LINE
8
BLACK
6
CONTINUOUS
10
2.00859
20
1.45048
11
2.00772
21
1.4502
0
LINE
8
BLACK
6
CONTINUOUS
10
2.00772
20
1.4502
11
1.97773
21
1.4502
0
LINE
8
BLACK
6
CONTINUOUS
10
1.97773
20
1.4502
11
1.97713
21
1.4504
0
LINE
8
BLACK
6
CONTINUOUS
10
1.97713
20
1.4504
11
1.97651
21
1.4504
0
LINE
8
BLACK
6
CONTINUOUS
10
1.97651
20
1.4504
11
1.97601
21
1.45076
0
LINE
8
BLACK
6
CONTINUOUS
10
1.97601
20
1.45076
11
1.97541
21
1.45096
0
LINE
8
BLACK
6
CONTINUOUS
10
1.97541
20
1.45096
11
1.97505
21
1.45146
0
LINE
8
BLACK
6
CONTINUOUS
10
1.97505
20
1.45146
11
1.97454
21
1.45183
0
LINE
8
BLACK
6
CONTINUOUS
10
1.97454
20
1.45183
11
1.97435
21
1.45242
0
LINE
8
BLACK
6
CONTINUOUS
10
1.97435
20
1.45242
11
1.97398
21
1.45292
0
LINE
8
BLACK
6
CONTINUOUS
10
1.97398
20
1.45292
11
1.97398
21
1.45355
0
LINE
8
BLACK
6
CONTINUOUS
10
1.97398
20
1.45355
11
1.97379
21
1.45414
0
LINE
8
BLACK
6
CONTINUOUS
10
1.97379
20
1.45414
11
1.97379
21
1.53288
0
LINE
8
BLACK
6
CONTINUOUS
10
1.97379
20
1.53288
11
1.97398
21
1.53347
0
LINE
8
BLACK
6
CONTINUOUS
10
1.97398
20
1.53347
11
1.97398
21
1.5341
0
LINE
8
BLACK
6
CONTINUOUS
10
1.97398
20
1.5341
11
1.97435
21
1.5346
0
LINE
8
BLACK
6
CONTINUOUS
10
1.97435
20
1.5346
11
1.97454
21
1.53519
0
LINE
8
BLACK
6
CONTINUOUS
10
1.97454
20
1.53519
11
1.97505
21
1.53556
0
LINE
8
BLACK
6
CONTINUOUS
10
1.97505
20
1.53556
11
1.97541
21
1.53607
0
LINE
8
BLACK
6
CONTINUOUS
10
1.97541
20
1.53607
11
1.97601
21
1.53626
0
LINE
8
BLACK
6
CONTINUOUS
10
1.97601
20
1.53626
11
1.97651
21
1.53662
0
LINE
8
BLACK
6
CONTINUOUS
10
1.97651
20
1.53662
11
1.97713
21
1.53662
0
LINE
8
BLACK
6
CONTINUOUS
10
1.97713
20
1.53662
11
1.97773
21
1.53682
0
LINE
8
BLACK
6
CONTINUOUS
10
1.97773
20
1.53682
11
2.00397
21
1.53682
0
LINE
8
BLACK
6
CONTINUOUS
10
2.00397
20
1.53682
11
2.00484
21
1.53654
0
LINE
8
BLACK
6
CONTINUOUS
10
1.98166
20
1.45808
11
2.00679
21
1.45808
0
LINE
8
BLACK
6
CONTINUOUS
10
2.00679
20
1.45808
11
2.01289
21
1.46113
0
LINE
8
BLACK
6
CONTINUOUS
10
2.01289
20
1.46113
11
2.01574
21
1.46397
0
LINE
8
BLACK
6
CONTINUOUS
10
2.01574
20
1.46397
11
2.01879
21
1.47007
0
LINE
8
BLACK
6
CONTINUOUS
10
2.01879
20
1.47007
11
2.01879
21
1.47946
0
LINE
8
BLACK
6
CONTINUOUS
10
2.01879
20
1.47946
11
2.01574
21
1.48555
0
LINE
8
BLACK
6
CONTINUOUS
10
2.01574
20
1.48555
11
2.0131
21
1.48819
0
LINE
8
BLACK
6
CONTINUOUS
10
2.0131
20
1.48819
11
2.00334
21
1.49145
0
LINE
8
BLACK
6
CONTINUOUS
10
2.00334
20
1.49145
11
1.98166
21
1.49145
0
LINE
8
BLACK
6
CONTINUOUS
10
1.98166
20
1.49145
11
1.98166
21
1.45808
0
LINE
8
BLACK
6
CONTINUOUS
10
1.98166
20
1.49932
11
2.00305
21
1.49932
0
LINE
8
BLACK
6
CONTINUOUS
10
2.00305
20
1.49932
11
2.00914
21
1.50237
0
LINE
8
BLACK
6
CONTINUOUS
10
2.00914
20
1.50237
11
2.01199
21
1.50522
0
LINE
8
BLACK
6
CONTINUOUS
10
2.01199
20
1.50522
11
2.01504
21
1.51131
0
LINE
8
BLACK
6
CONTINUOUS
10
2.01504
20
1.51131
11
2.01504
21
1.51695
0
LINE
8
BLACK
6
CONTINUOUS
10
2.01504
20
1.51695
11
2.01199
21
1.52305
0
LINE
8
BLACK
6
CONTINUOUS
10
2.01199
20
1.52305
11
2.00914
21
1.5259
0
LINE
8
BLACK
6
CONTINUOUS
10
2.00914
20
1.5259
11
2.00305
21
1.52894
0
LINE
8
BLACK
6
CONTINUOUS
10
2.00305
20
1.52894
11
1.98166
21
1.52894
0
LINE
8
BLACK
6
CONTINUOUS
10
1.98166
20
1.52894
11
1.98166
21
1.49932
0
LINE
8
BLACK
6
CONTINUOUS
10
2.07983
20
1.53654
11
2.08073
21
1.5364
0
LINE
8
BLACK
6
CONTINUOUS
10
2.08073
20
1.5364
11
2.08822
21
1.53265
0
LINE
8
BLACK
6
CONTINUOUS
10
2.08822
20
1.53265
11
2.08868
21
1.5322
0
LINE
8
BLACK
6
CONTINUOUS
10
2.08868
20
1.5322
11
2.08925
21
1.53191
0
LINE
8
BLACK
6
CONTINUOUS
10
2.08925
20
1.53191
11
2.093
21
1.52817
0
LINE
8
BLACK
6
CONTINUOUS
10
2.093
20
1.52817
11
2.09329
21
1.5276
0
LINE
8
BLACK
6
CONTINUOUS
10
2.09329
20
1.5276
11
2.09374
21
1.52714
0
LINE
8
BLACK
6
CONTINUOUS
10
2.09374
20
1.52714
11
2.09748
21
1.51964
0
LINE
8
BLACK
6
CONTINUOUS
10
2.09748
20
1.51964
11
2.09755
21
1.51921
0
LINE
8
BLACK
6
CONTINUOUS
10
2.09755
20
1.51921
11
2.09778
21
1.51884
0
LINE
8
BLACK
6
CONTINUOUS
10
2.09778
20
1.51884
11
2.10153
21
1.50384
0
LINE
8
BLACK
6
CONTINUOUS
10
2.10153
20
1.50384
11
2.1015
21
1.50335
0
LINE
8
BLACK
6
CONTINUOUS
10
2.1015
20
1.50335
11
2.10165
21
1.50288
0
LINE
8
BLACK
6
CONTINUOUS
10
2.10165
20
1.50288
11
2.10165
21
1.48414
0
LINE
8
BLACK
6
CONTINUOUS
10
2.10165
20
1.48414
11
2.1015
21
1.48367
0
LINE
8
BLACK
6
CONTINUOUS
10
2.1015
20
1.48367
11
2.10153
21
1.48318
0
LINE
8
BLACK
6
CONTINUOUS
10
2.10153
20
1.48318
11
2.09778
21
1.46818
0
LINE
8
BLACK
6
CONTINUOUS
10
2.09778
20
1.46818
11
2.09755
21
1.46781
0
LINE
8
BLACK
6
CONTINUOUS
10
2.09755
20
1.46781
11
2.09748
21
1.46738
0
LINE
8
BLACK
6
CONTINUOUS
10
2.09748
20
1.46738
11
2.09374
21
1.45988
0
LINE
8
BLACK
6
CONTINUOUS
10
2.09374
20
1.45988
11
2.09329
21
1.45942
0
LINE
8
BLACK
6
CONTINUOUS
10
2.09329
20
1.45942
11
2.093
21
1.45886
0
LINE
8
BLACK
6
CONTINUOUS
10
2.093
20
1.45886
11
2.08925
21
1.45511
0
LINE
8
BLACK
6
CONTINUOUS
10
2.08925
20
1.45511
11
2.08868
21
1.45482
0
LINE
8
BLACK
6
CONTINUOUS
10
2.08868
20
1.45482
11
2.08822
21
1.45437
0
LINE
8
BLACK
6
CONTINUOUS
10
2.08822
20
1.45437
11
2.08073
21
1.45062
0
LINE
8
BLACK
6
CONTINUOUS
10
2.08073
20
1.45062
11
2.07983
21
1.45048
0
LINE
8
BLACK
6
CONTINUOUS
10
2.07983
20
1.45048
11
2.07897
21
1.4502
0
LINE
8
BLACK
6
CONTINUOUS
10
2.07897
20
1.4502
11
2.07147
21
1.4502
0
LINE
8
BLACK
6
CONTINUOUS
10
2.07147
20
1.4502
11
2.0706
21
1.45048
0
LINE
8
BLACK
6
CONTINUOUS
10
2.0706
20
1.45048
11
2.06971
21
1.45062
0
LINE
8
BLACK
6
CONTINUOUS
10
2.06971
20
1.45062
11
2.06221
21
1.45437
0
LINE
8
BLACK
6
CONTINUOUS
10
2.06221
20
1.45437
11
2.06175
21
1.45482
0
LINE
8
BLACK
6
CONTINUOUS
10
2.06175
20
1.45482
11
2.06118
21
1.45511
0
LINE
8
BLACK
6
CONTINUOUS
10
2.06118
20
1.45511
11
2.05743
21
1.45886
0
LINE
8
BLACK
6
CONTINUOUS
10
2.05743
20
1.45886
11
2.05714
21
1.45942
0
LINE
8
BLACK
6
CONTINUOUS
10
2.05714
20
1.45942
11
2.0567
21
1.45988
0
LINE
8
BLACK
6
CONTINUOUS
10
2.0567
20
1.45988
11
2.05295
21
1.46738
0
LINE
8
BLACK
6
CONTINUOUS
10
2.05295
20
1.46738
11
2.05288
21
1.46781
0
LINE
8
BLACK
6
CONTINUOUS
10
2.05288
20
1.46781
11
2.05265
21
1.46818
0
LINE
8
BLACK
6
CONTINUOUS
10
2.05265
20
1.46818
11
2.0489
21
1.48318
0
LINE
8
BLACK
6
CONTINUOUS
10
2.0489
20
1.48318
11
2.04893
21
1.48367
0
LINE
8
BLACK
6
CONTINUOUS
10
2.04893
20
1.48367
11
2.04878
21
1.48414
0
LINE
8
BLACK
6
CONTINUOUS
10
2.04878
20
1.48414
11
2.04878
21
1.50288
0
LINE
8
BLACK
6
CONTINUOUS
10
2.04878
20
1.50288
11
2.04893
21
1.50335
0
LINE
8
BLACK
6
CONTINUOUS
10
2.04893
20
1.50335
11
2.0489
21
1.50384
0
LINE
8
BLACK
6
CONTINUOUS
10
2.0489
20
1.50384
11
2.05265
21
1.51884
0
LINE
8
BLACK
6
CONTINUOUS
10
2.05265
20
1.51884
11
2.05288
21
1.51921
0
LINE
8
BLACK
6
CONTINUOUS
10
2.05288
20
1.51921
11
2.05295
21
1.51964
0
LINE
8
BLACK
6
CONTINUOUS
10
2.05295
20
1.51964
11
2.0567
21
1.52714
0
LINE
8
BLACK
6
CONTINUOUS
10
2.0567
20
1.52714
11
2.05714
21
1.5276
0
LINE
8
BLACK
6
CONTINUOUS
10
2.05714
20
1.5276
11
2.05743
21
1.52817
0
LINE
8
BLACK
6
CONTINUOUS
10
2.05743
20
1.52817
11
2.06118
21
1.53191
0
LINE
8
BLACK
6
CONTINUOUS
10
2.06118
20
1.53191
11
2.06175
21
1.5322
0
LINE
8
BLACK
6
CONTINUOUS
10
2.06175
20
1.5322
11
2.06221
21
1.53265
0
LINE
8
BLACK
6
CONTINUOUS
10
2.06221
20
1.53265
11
2.06971
21
1.5364
0
LINE
8
BLACK
6
CONTINUOUS
10
2.06971
20
1.5364
11
2.0706
21
1.53654
0
LINE
8
BLACK
6
CONTINUOUS
10
2.0706
20
1.53654
11
2.07147
21
1.53682
0
LINE
8
BLACK
6
CONTINUOUS
10
2.07147
20
1.53682
11
2.07897
21
1.53682
0
LINE
8
BLACK
6
CONTINUOUS
10
2.07897
20
1.53682
11
2.07983
21
1.53654
0
LINE
8
BLACK
6
CONTINUOUS
10
2.0663
20
1.5259
11
2.06345
21
1.52305
0
LINE
8
BLACK
6
CONTINUOUS
10
2.06345
20
1.52305
11
2.06018
21
1.51651
0
LINE
8
BLACK
6
CONTINUOUS
10
2.06018
20
1.51651
11
2.05666
21
1.5024
0
LINE
8
BLACK
6
CONTINUOUS
10
2.05666
20
1.5024
11
2.05666
21
1.48462
0
LINE
8
BLACK
6
CONTINUOUS
10
2.05666
20
1.48462
11
2.06018
21
1.47051
0
LINE
8
BLACK
6
CONTINUOUS
10
2.06018
20
1.47051
11
2.06345
21
1.46397
0
LINE
8
BLACK
6
CONTINUOUS
10
2.06345
20
1.46397
11
2.0663
21
1.46113
0
LINE
8
BLACK
6
CONTINUOUS
10
2.0663
20
1.46113
11
2.0724
21
1.45808
0
LINE
8
BLACK
6
CONTINUOUS
10
2.0724
20
1.45808
11
2.07804
21
1.45808
0
LINE
8
BLACK
6
CONTINUOUS
10
2.07804
20
1.45808
11
2.08413
21
1.46113
0
LINE
8
BLACK
6
CONTINUOUS
10
2.08413
20
1.46113
11
2.08698
21
1.46397
0
LINE
8
BLACK
6
CONTINUOUS
10
2.08698
20
1.46397
11
2.09025
21
1.47051
0
LINE
8
BLACK
6
CONTINUOUS
10
2.09025
20
1.47051
11
2.09378
21
1.48462
0
LINE
8
BLACK
6
CONTINUOUS
10
2.09378
20
1.48462
11
2.09378
21
1.5024
0
LINE
8
BLACK
6
CONTINUOUS
10
2.09378
20
1.5024
11
2.09025
21
1.51651
0
LINE
8
BLACK
6
CONTINUOUS
10
2.09025
20
1.51651
11
2.08698
21
1.52305
0
LINE
8
BLACK
6
CONTINUOUS
10
2.08698
20
1.52305
11
2.08413
21
1.5259
0
LINE
8
BLACK
6
CONTINUOUS
10
2.08413
20
1.5259
11
2.07804
21
1.52894
0
LINE
8
BLACK
6
CONTINUOUS
10
2.07804
20
1.52894
11
2.0724
21
1.52894
0
LINE
8
BLACK
6
CONTINUOUS
10
2.0724
20
1.52894
11
2.0663
21
1.5259
0
LINE
8
BLACK
6
CONTINUOUS
10
2.15134
20
1.53662
11
2.15142
21
1.53662
0
LINE
8
BLACK
6
CONTINUOUS
10
2.15142
20
1.53662
11
2.15235
21
1.53595
0
LINE
8
BLACK
6
CONTINUOUS
10
2.15235
20
1.53595
11
2.1533
21
1.53532
0
LINE
8
BLACK
6
CONTINUOUS
10
2.1533
20
1.53532
11
2.15332
21
1.53524
0
LINE
8
BLACK
6
CONTINUOUS
10
2.15332
20
1.53524
11
2.15339
21
1.53519
0
LINE
8
BLACK
6
CONTINUOUS
10
2.15339
20
1.53519
11
2.15374
21
1.53411
0
LINE
8
BLACK
6
CONTINUOUS
10
2.15374
20
1.53411
11
2.15414
21
1.53304
0
LINE
8
BLACK
6
CONTINUOUS
10
2.15414
20
1.53304
11
2.15412
21
1.53296
0
LINE
8
BLACK
6
CONTINUOUS
10
2.15412
20
1.53296
11
2.15414
21
1.53288
0
LINE
8
BLACK
6
CONTINUOUS
10
2.15414
20
1.53288
11
2.15414
21
1.45808
0
LINE
8
BLACK
6
CONTINUOUS
10
2.15414
20
1.45808
11
2.1727
21
1.45808
0
LINE
8
BLACK
6
CONTINUOUS
10
2.1727
20
1.45808
11
2.17502
21
1.45733
0
LINE
8
BLACK
6
CONTINUOUS
10
2.17502
20
1.45733
11
2.17645
21
1.45536
0
LINE
8
BLACK
6
CONTINUOUS
10
2.17645
20
1.45536
11
2.17645
21
1.45292
0
LINE
8
BLACK
6
CONTINUOUS
10
2.17645
20
1.45292
11
2.17502
21
1.45096
0
LINE
8
BLACK
6
CONTINUOUS
10
2.17502
20
1.45096
11
2.1727
21
1.4502
0
LINE
8
BLACK
6
CONTINUOUS
10
2.1727
20
1.4502
11
2.12771
21
1.4502
0
LINE
8
BLACK
6
CONTINUOUS
10
2.12771
20
1.4502
11
2.12539
21
1.45096
0
LINE
8
BLACK
6
CONTINUOUS
10
2.12539
20
1.45096
11
2.12396
21
1.45292
0
LINE
8
BLACK
6
CONTINUOUS
10
2.12396
20
1.45292
11
2.12396
21
1.45536
0
LINE
8
BLACK
6
CONTINUOUS
10
2.12396
20
1.45536
11
2.12539
21
1.45733
0
LINE
8
BLACK
6
CONTINUOUS
10
2.12539
20
1.45733
11
2.12771
21
1.45808
0
LINE
8
BLACK
6
CONTINUOUS
10
2.12771
20
1.45808
11
2.14627
21
1.45808
0
LINE
8
BLACK
6
CONTINUOUS
10
2.14627
20
1.45808
11
2.14627
21
1.51988
0
LINE
8
BLACK
6
CONTINUOUS
10
2.14627
20
1.51988
11
2.14598
21
1.51945
0
LINE
8
BLACK
6
CONTINUOUS
10
2.14598
20
1.51945
11
2.14567
21
1.5192
0
LINE
8
BLACK
6
CONTINUOUS
10
2.14567
20
1.5192
11
2.14549
21
1.51885
0
LINE
8
BLACK
6
CONTINUOUS
10
2.14549
20
1.51885
11
2.13799
21
1.51135
0
LINE
8
BLACK
6
CONTINUOUS
10
2.13799
20
1.51135
11
2.13742
21
1.51106
0
LINE
8
BLACK
6
CONTINUOUS
10
2.13742
20
1.51106
11
2.13697
21
1.51061
0
LINE
8
BLACK
6
CONTINUOUS
10
2.13697
20
1.51061
11
2.12947
21
1.50686
0
LINE
8
BLACK
6
CONTINUOUS
10
2.12947
20
1.50686
11
2.12706
21
1.5065
0
LINE
8
BLACK
6
CONTINUOUS
10
2.12706
20
1.5065
11
2.1249
21
1.50762
0
LINE
8
BLACK
6
CONTINUOUS
10
2.1249
20
1.50762
11
2.12382
21
1.5098
0
LINE
8
BLACK
6
CONTINUOUS
10
2.12382
20
1.5098
11
2.12421
21
1.5122
0
LINE
8
BLACK
6
CONTINUOUS
10
2.12421
20
1.5122
11
2.12595
21
1.5139
0
LINE
8
BLACK
6
CONTINUOUS
10
2.12595
20
1.5139
11
2.13288
21
1.51737
0
LINE
8
BLACK
6
CONTINUOUS
10
2.13288
20
1.51737
11
2.13965
21
1.52414
0
LINE
8
BLACK
6
CONTINUOUS
10
2.13965
20
1.52414
11
2.14693
21
1.53506
0
LINE
8
BLACK
6
CONTINUOUS
10
2.14693
20
1.53506
11
2.147
21
1.53512
0
LINE
8
BLACK
6
CONTINUOUS
10
2.147
20
1.53512
11
2.14702
21
1.53519
0
LINE
8
BLACK
6
CONTINUOUS
10
2.14702
20
1.53519
11
2.14794
21
1.53587
0
LINE
8
BLACK
6
CONTINUOUS
10
2.14794
20
1.53587
11
2.14884
21
1.53657
0
LINE
8
BLACK
6
CONTINUOUS
10
2.14884
20
1.53657
11
2.14892
21
1.53658
0
LINE
8
BLACK
6
CONTINUOUS
10
2.14892
20
1.53658
11
2.14899
21
1.53662
0
LINE
8
BLACK
6
CONTINUOUS
10
2.14899
20
1.53662
11
2.15013
21
1.53662
0
LINE
8
BLACK
6
CONTINUOUS
10
2.15013
20
1.53662
11
2.15127
21
1.53667
0
LINE
8
BLACK
6
CONTINUOUS
10
2.15127
20
1.53667
11
2.15134
21
1.53662
0
LINE
8
BLACK
6
CONTINUOUS
10
2.23356
20
1.53654
11
2.23446
21
1.5364
0
LINE
8
BLACK
6
CONTINUOUS
10
2.23446
20
1.5364
11
2.24196
21
1.53265
0
LINE
8
BLACK
6
CONTINUOUS
10
2.24196
20
1.53265
11
2.24241
21
1.5322
0
LINE
8
BLACK
6
CONTINUOUS
10
2.24241
20
1.5322
11
2.24298
21
1.53191
0
LINE
8
BLACK
6
CONTINUOUS
10
2.24298
20
1.53191
11
2.24673
21
1.52817
0
LINE
8
BLACK
6
CONTINUOUS
10
2.24673
20
1.52817
11
2.24702
21
1.5276
0
LINE
8
BLACK
6
CONTINUOUS
10
2.24702
20
1.5276
11
2.24747
21
1.52714
0
LINE
8
BLACK
6
CONTINUOUS
10
2.24747
20
1.52714
11
2.25122
21
1.51964
0
LINE
8
BLACK
6
CONTINUOUS
10
2.25122
20
1.51964
11
2.25135
21
1.51875
0
LINE
8
BLACK
6
CONTINUOUS
10
2.25135
20
1.51875
11
2.25163
21
1.51788
0
LINE
8
BLACK
6
CONTINUOUS
10
2.25163
20
1.51788
11
2.25163
21
1.51038
0
LINE
8
BLACK
6
CONTINUOUS
10
2.25163
20
1.51038
11
2.25135
21
1.50952
0
LINE
8
BLACK
6
CONTINUOUS
10
2.25135
20
1.50952
11
2.25122
21
1.50862
0
LINE
8
BLACK
6
CONTINUOUS
10
2.25122
20
1.50862
11
2.24747
21
1.50112
0
LINE
8
BLACK
6
CONTINUOUS
10
2.24747
20
1.50112
11
2.24702
21
1.50067
0
LINE
8
BLACK
6
CONTINUOUS
10
2.24702
20
1.50067
11
2.24673
21
1.5001
0
LINE
8
BLACK
6
CONTINUOUS
10
2.24673
20
1.5001
11
2.24298
21
1.49635
0
LINE
8
BLACK
6
CONTINUOUS
10
2.24298
20
1.49635
11
2.24269
21
1.4962
0
LINE
8
BLACK
6
CONTINUOUS
10
2.24269
20
1.4962
11
2.24519
21
1.49537
0
LINE
8
BLACK
6
CONTINUOUS
10
2.24519
20
1.49537
11
2.24592
21
1.49483
0
LINE
8
BLACK
6
CONTINUOUS
10
2.24592
20
1.49483
11
2.24673
21
1.49442
0
LINE
8
BLACK
6
CONTINUOUS
10
2.24673
20
1.49442
11
2.25048
21
1.49067
0
LINE
8
BLACK
6
CONTINUOUS
10
2.25048
20
1.49067
11
2.25077
21
1.4901
0
LINE
8
BLACK
6
CONTINUOUS
10
2.25077
20
1.4901
11
2.25122
21
1.48965
0
LINE
8
BLACK
6
CONTINUOUS
10
2.25122
20
1.48965
11
2.25496
21
1.48215
0
LINE
8
BLACK
6
CONTINUOUS
10
2.25496
20
1.48215
11
2.2551
21
1.48125
0
LINE
8
BLACK
6
CONTINUOUS
10
2.2551
20
1.48125
11
2.25538
21
1.48039
0
LINE
8
BLACK
6
CONTINUOUS
10
2.25538
20
1.48039
11
2.25538
21
1.46914
0
LINE
8
BLACK
6
CONTINUOUS
10
2.25538
20
1.46914
11
2.2551
21
1.46828
0
LINE
8
BLACK
6
CONTINUOUS
10
2.2551
20
1.46828
11
2.25496
21
1.46738
0
LINE
8
BLACK
6
CONTINUOUS
10
2.25496
20
1.46738
11
2.25122
21
1.45988
0
LINE
8
BLACK
6
CONTINUOUS
10
2.25122
20
1.45988
11
2.25077
21
1.45942
0
LINE
8
BLACK
6
CONTINUOUS
10
2.25077
20
1.45942
11
2.25048
21
1.45886
0
LINE
8
BLACK
6
CONTINUOUS
10
2.25048
20
1.45886
11
2.24673
21
1.45511
0
LINE
8
BLACK
6
CONTINUOUS
10
2.24673
20
1.45511
11
2.24616
21
1.45482
0
LINE
8
BLACK
6
CONTINUOUS
10
2.24616
20
1.45482
11
2.24571
21
1.45437
0
LINE
8
BLACK
6
CONTINUOUS
10
2.24571
20
1.45437
11
2.23821
21
1.45062
0
LINE
8
BLACK
6
CONTINUOUS
10
2.23821
20
1.45062
11
2.23731
21
1.45048
0
LINE
8
BLACK
6
CONTINUOUS
10
2.23731
20
1.45048
11
2.23645
21
1.4502
0
LINE
8
BLACK
6
CONTINUOUS
10
2.23645
20
1.4502
11
2.20645
21
1.4502
0
LINE
8
BLACK
6
CONTINUOUS
10
2.20645
20
1.4502
11
2.20586
21
1.4504
0
LINE
8
BLACK
6
CONTINUOUS
10
2.20586
20
1.4504
11
2.20523
21
1.4504
0
LINE
8
BLACK
6
CONTINUOUS
10
2.20523
20
1.4504
11
2.20473
21
1.45076
0
LINE
8
BLACK
6
CONTINUOUS
10
2.20473
20
1.45076
11
2.20414
21
1.45096
0
LINE
8
BLACK
6
CONTINUOUS
10
2.20414
20
1.45096
11
2.20377
21
1.45146
0
LINE
8
BLACK
6
CONTINUOUS
10
2.20377
20
1.45146
11
2.20326
21
1.45183
0
LINE
8
BLACK
6
CONTINUOUS
10
2.20326
20
1.45183
11
2.20307
21
1.45242
0
LINE
8
BLACK
6
CONTINUOUS
10
2.20307
20
1.45242
11
2.2027
21
1.45292
0
LINE
8
BLACK
6
CONTINUOUS
10
2.2027
20
1.45292
11
2.2027
21
1.45355
0
LINE
8
BLACK
6
CONTINUOUS
10
2.2027
20
1.45355
11
2.20251
21
1.45414
0
LINE
8
BLACK
6
CONTINUOUS
10
2.20251
20
1.45414
11
2.20251
21
1.53288
0
LINE
8
BLACK
6
CONTINUOUS
10
2.20251
20
1.53288
11
2.2027
21
1.53347
0
LINE
8
BLACK
6
CONTINUOUS
10
2.2027
20
1.53347
11
2.2027
21
1.5341
0
LINE
8
BLACK
6
CONTINUOUS
10
2.2027
20
1.5341
11
2.20307
21
1.5346
0
LINE
8
BLACK
6
CONTINUOUS
10
2.20307
20
1.5346
11
2.20326
21
1.53519
0
LINE
8
BLACK
6
CONTINUOUS
10
2.20326
20
1.53519
11
2.20377
21
1.53556
0
LINE
8
BLACK
6
CONTINUOUS
10
2.20377
20
1.53556
11
2.20414
21
1.53607
0
LINE
8
BLACK
6
CONTINUOUS
10
2.20414
20
1.53607
11
2.20473
21
1.53626
0
LINE
8
BLACK
6
CONTINUOUS
10
2.20473
20
1.53626
11
2.20523
21
1.53662
0
LINE
8
BLACK
6
CONTINUOUS
10
2.20523
20
1.53662
11
2.20586
21
1.53662
0
LINE
8
BLACK
6
CONTINUOUS
10
2.20586
20
1.53662
11
2.20645
21
1.53682
0
LINE
8
BLACK
6
CONTINUOUS
10
2.20645
20
1.53682
11
2.2327
21
1.53682
0
LINE
8
BLACK
6
CONTINUOUS
10
2.2327
20
1.53682
11
2.23356
21
1.53654
0
LINE
8
BLACK
6
CONTINUOUS
10
2.21039
20
1.45808
11
2.23552
21
1.45808
0
LINE
8
BLACK
6
CONTINUOUS
10
2.23552
20
1.45808
11
2.24161
21
1.46113
0
LINE
8
BLACK
6
CONTINUOUS
10
2.24161
20
1.46113
11
2.24446
21
1.46397
0
LINE
8
BLACK
6
CONTINUOUS
10
2.24446
20
1.46397
11
2.24751
21
1.47007
0
LINE
8
BLACK
6
CONTINUOUS
10
2.24751
20
1.47007
11
2.24751
21
1.47946
0
LINE
8
BLACK
6
CONTINUOUS
10
2.24751
20
1.47946
11
2.24446
21
1.48555
0
LINE
8
BLACK
6
CONTINUOUS
10
2.24446
20
1.48555
11
2.24182
21
1.48819
0
LINE
8
BLACK
6
CONTINUOUS
10
2.24182
20
1.48819
11
2.23206
21
1.49145
0
LINE
8
BLACK
6
CONTINUOUS
10
2.23206
20
1.49145
11
2.21039
21
1.49145
0
LINE
8
BLACK
6
CONTINUOUS
10
2.21039
20
1.49145
11
2.21039
21
1.45808
0
LINE
8
BLACK
6
CONTINUOUS
10
2.21039
20
1.49932
11
2.23177
21
1.49932
0
LINE
8
BLACK
6
CONTINUOUS
10
2.23177
20
1.49932
11
2.23786
21
1.50237
0
LINE
8
BLACK
6
CONTINUOUS
10
2.23786
20
1.50237
11
2.24071
21
1.50522
0
LINE
8
BLACK
6
CONTINUOUS
10
2.24071
20
1.50522
11
2.24376
21
1.51131
0
LINE
8
BLACK
6
CONTINUOUS
10
2.24376
20
1.51131
11
2.24376
21
1.51695
0
LINE
8
BLACK
6
CONTINUOUS
10
2.24376
20
1.51695
11
2.24071
21
1.52305
0
LINE
8
BLACK
6
CONTINUOUS
10
2.24071
20
1.52305
11
2.23786
21
1.5259
0
LINE
8
BLACK
6
CONTINUOUS
10
2.23786
20
1.5259
11
2.23177
21
1.52894
0
LINE
8
BLACK
6
CONTINUOUS
10
2.23177
20
1.52894
11
2.21039
21
1.52894
0
LINE
8
BLACK
6
CONTINUOUS
10
2.21039
20
1.52894
11
2.21039
21
1.49932
0
LINE
8
BLACK
6
CONTINUOUS
10
1.78358
20
1.53662
11
1.78397
21
1.53662
0
LINE
8
BLACK
6
CONTINUOUS
10
1.78397
20
1.53662
11
1.78466
21
1.53612
0
LINE
8
BLACK
6
CONTINUOUS
10
1.78466
20
1.53612
11
1.78544
21
1.53576
0
LINE
8
BLACK
6
CONTINUOUS
10
1.78544
20
1.53576
11
1.78563
21
1.53542
0
LINE
8
BLACK
6
CONTINUOUS
10
1.78563
20
1.53542
11
1.78594
21
1.53519
0
LINE
8
BLACK
6
CONTINUOUS
10
1.78594
20
1.53519
11
1.7862
21
1.53438
0
LINE
8
BLACK
6
CONTINUOUS
10
1.7862
20
1.53438
11
1.78662
21
1.53363
0
LINE
8
BLACK
6
CONTINUOUS
10
1.78662
20
1.53363
11
1.78657
21
1.53325
0
LINE
8
BLACK
6
CONTINUOUS
10
1.78657
20
1.53325
11
1.78669
21
1.53288
0
LINE
8
BLACK
6
CONTINUOUS
10
1.78669
20
1.53288
11
1.78669
21
1.45414
0
LINE
8
BLACK
6
CONTINUOUS
10
1.78669
20
1.45414
11
1.78594
21
1.45183
0
LINE
8
BLACK
6
CONTINUOUS
10
1.78594
20
1.45183
11
1.78397
21
1.4504
0
LINE
8
BLACK
6
CONTINUOUS
10
1.78397
20
1.4504
11
1.78154
21
1.4504
0
LINE
8
BLACK
6
CONTINUOUS
10
1.78154
20
1.4504
11
1.77957
21
1.45183
0
LINE
8
BLACK
6
CONTINUOUS
10
1.77957
20
1.45183
11
1.77882
21
1.45414
0
LINE
8
BLACK
6
CONTINUOUS
10
1.77882
20
1.45414
11
1.77882
21
1.51513
0
LINE
8
BLACK
6
CONTINUOUS
10
1.77882
20
1.51513
11
1.76007
21
1.47497
0
LINE
8
BLACK
6
CONTINUOUS
10
1.76007
20
1.47497
11
1.75956
21
1.47442
0
LINE
8
BLACK
6
CONTINUOUS
10
1.75956
20
1.47442
11
1.75919
21
1.47376
0
LINE
8
BLACK
6
CONTINUOUS
10
1.75919
20
1.47376
11
1.75875
21
1.47355
0
LINE
8
BLACK
6
CONTINUOUS
10
1.75875
20
1.47355
11
1.75841
21
1.47319
0
LINE
8
BLACK
6
CONTINUOUS
10
1.75841
20
1.47319
11
1.75767
21
1.47305
0
LINE
8
BLACK
6
CONTINUOUS
10
1.75767
20
1.47305
11
1.75699
21
1.47273
0
LINE
8
BLACK
6
CONTINUOUS
10
1.75699
20
1.47273
11
1.75651
21
1.47282
0
LINE
8
BLACK
6
CONTINUOUS
10
1.75651
20
1.47282
11
1.75602
21
1.47273
0
LINE
8
BLACK
6
CONTINUOUS
10
1.75602
20
1.47273
11
1.75534
21
1.47305
0
LINE
8
BLACK
6
CONTINUOUS
10
1.75534
20
1.47305
11
1.7546
21
1.47319
0
LINE
8
BLACK
6
CONTINUOUS
10
1.7546
20
1.47319
11
1.75426
21
1.47355
0
LINE
8
BLACK
6
CONTINUOUS
10
1.75426
20
1.47355
11
1.75382
21
1.47376
0
LINE
8
BLACK
6
CONTINUOUS
10
1.75382
20
1.47376
11
1.75345
21
1.47442
0
LINE
8
BLACK
6
CONTINUOUS
10
1.75345
20
1.47442
11
1.75294
21
1.47497
0
LINE
8
BLACK
6
CONTINUOUS
10
1.75294
20
1.47497
11
1.7342
21
1.51513
0
LINE
8
BLACK
6
CONTINUOUS
10
1.7342
20
1.51513
11
1.7342
21
1.45414
0
LINE
8
BLACK
6
CONTINUOUS
10
1.7342
20
1.45414
11
1.73344
21
1.45183
0
LINE
8
BLACK
6
CONTINUOUS
10
1.73344
20
1.45183
11
1.73148
21
1.4504
0
LINE
8
BLACK
6
CONTINUOUS
10
1.73148
20
1.4504
11
1.72904
21
1.4504
0
LINE
8
BLACK
6
CONTINUOUS
10
1.72904
20
1.4504
11
1.72707
21
1.45183
0
LINE
8
BLACK
6
CONTINUOUS
10
1.72707
20
1.45183
11
1.72632
21
1.45414
0
LINE
8
BLACK
6
CONTINUOUS
10
1.72632
20
1.45414
11
1.72632
21
1.53288
0
LINE
8
BLACK
6
CONTINUOUS
10
1.72632
20
1.53288
11
1.72644
21
1.53325
0
LINE
8
BLACK
6
CONTINUOUS
10
1.72644
20
1.53325
11
1.72639
21
1.53363
0
LINE
8
BLACK
6
CONTINUOUS
10
1.72639
20
1.53363
11
1.72681
21
1.53438
0
LINE
8
BLACK
6
CONTINUOUS
10
1.72681
20
1.53438
11
1.72707
21
1.53519
0
LINE
8
BLACK
6
CONTINUOUS
10
1.72707
20
1.53519
11
1.72739
21
1.53542
0
LINE
8
BLACK
6
CONTINUOUS
10
1.72739
20
1.53542
11
1.72757
21
1.53576
0
LINE
8
BLACK
6
CONTINUOUS
10
1.72757
20
1.53576
11
1.72835
21
1.53612
0
LINE
8
BLACK
6
CONTINUOUS
10
1.72835
20
1.53612
11
1.72904
21
1.53662
0
LINE
8
BLACK
6
CONTINUOUS
10
1.72904
20
1.53662
11
1.72943
21
1.53662
0
LINE
8
BLACK
6
CONTINUOUS
10
1.72943
20
1.53662
11
1.72978
21
1.53679
0
LINE
8
BLACK
6
CONTINUOUS
10
1.72978
20
1.53679
11
1.73062
21
1.53662
0
LINE
8
BLACK
6
CONTINUOUS
10
1.73062
20
1.53662
11
1.73148
21
1.53662
0
LINE
8
BLACK
6
CONTINUOUS
10
1.73148
20
1.53662
11
1.73179
21
1.5364
0
LINE
8
BLACK
6
CONTINUOUS
10
1.73179
20
1.5364
11
1.73217
21
1.53632
0
LINE
8
BLACK
6
CONTINUOUS
10
1.73217
20
1.53632
11
1.73275
21
1.5357
0
LINE
8
BLACK
6
CONTINUOUS
10
1.73275
20
1.5357
11
1.73344
21
1.53519
0
LINE
8
BLACK
6
CONTINUOUS
10
1.73344
20
1.53519
11
1.73356
21
1.53483
0
LINE
8
BLACK
6
CONTINUOUS
10
1.73356
20
1.53483
11
1.73383
21
1.53455
0
LINE
8
BLACK
6
CONTINUOUS
10
1.73383
20
1.53455
11
1.75651
21
1.48595
0
LINE
8
BLACK
6
CONTINUOUS
10
1.75651
20
1.48595
11
1.77918
21
1.53455
0
LINE
8
BLACK
6
CONTINUOUS
10
1.77918
20
1.53455
11
1.77945
21
1.53483
0
LINE
8
BLACK
6
CONTINUOUS
10
1.77945
20
1.53483
11
1.77957
21
1.53519
0
LINE
8
BLACK
6
CONTINUOUS
10
1.77957
20
1.53519
11
1.78026
21
1.5357
0
LINE
8
BLACK
6
CONTINUOUS
10
1.78026
20
1.5357
11
1.78084
21
1.53632
0
LINE
8
BLACK
6
CONTINUOUS
10
1.78084
20
1.53632
11
1.78122
21
1.5364
0
LINE
8
BLACK
6
CONTINUOUS
10
1.78122
20
1.5364
11
1.78154
21
1.53662
0
LINE
8
BLACK
6
CONTINUOUS
10
1.78154
20
1.53662
11
1.78239
21
1.53662
0
LINE
8
BLACK
6
CONTINUOUS
10
1.78239
20
1.53662
11
1.78323
21
1.53679
0
LINE
8
BLACK
6
CONTINUOUS
10
1.78323
20
1.53679
11
1.78358
21
1.53662
0
LINE
8
BLACK
6
CONTINUOUS
10
1.85111
20
1.53654
11
1.852
21
1.5364
0
LINE
8
BLACK
6
CONTINUOUS
10
1.852
20
1.5364
11
1.8595
21
1.53265
0
LINE
8
BLACK
6
CONTINUOUS
10
1.8595
20
1.53265
11
1.85996
21
1.5322
0
LINE
8
BLACK
6
CONTINUOUS
10
1.85996
20
1.5322
11
1.86053
21
1.53191
0
LINE
8
BLACK
6
CONTINUOUS
10
1.86053
20
1.53191
11
1.86428
21
1.52817
0
LINE
8
BLACK
6
CONTINUOUS
10
1.86428
20
1.52817
11
1.86457
21
1.5276
0
LINE
8
BLACK
6
CONTINUOUS
10
1.86457
20
1.5276
11
1.86501
21
1.52714
0
LINE
8
BLACK
6
CONTINUOUS
10
1.86501
20
1.52714
11
1.86876
21
1.51964
0
LINE
8
BLACK
6
CONTINUOUS
10
1.86876
20
1.51964
11
1.8689
21
1.51875
0
LINE
8
BLACK
6
CONTINUOUS
10
1.8689
20
1.51875
11
1.86918
21
1.51788
0
LINE
8
BLACK
6
CONTINUOUS
10
1.86918
20
1.51788
11
1.86918
21
1.50663
0
LINE
8
BLACK
6
CONTINUOUS
10
1.86918
20
1.50663
11
1.8689
21
1.50577
0
LINE
8
BLACK
6
CONTINUOUS
10
1.8689
20
1.50577
11
1.86876
21
1.50487
0
LINE
8
BLACK
6
CONTINUOUS
10
1.86876
20
1.50487
11
1.86501
21
1.49737
0
LINE
8
BLACK
6
CONTINUOUS
10
1.86501
20
1.49737
11
1.86457
21
1.49692
0
LINE
8
BLACK
6
CONTINUOUS
10
1.86457
20
1.49692
11
1.86428
21
1.49635
0
LINE
8
BLACK
6
CONTINUOUS
10
1.86428
20
1.49635
11
1.86053
21
1.4926
0
LINE
8
BLACK
6
CONTINUOUS
10
1.86053
20
1.4926
11
1.85996
21
1.49231
0
LINE
8
BLACK
6
CONTINUOUS
10
1.85996
20
1.49231
11
1.8595
21
1.49186
0
LINE
8
BLACK
6
CONTINUOUS
10
1.8595
20
1.49186
11
1.852
21
1.48811
0
LINE
8
BLACK
6
CONTINUOUS
10
1.852
20
1.48811
11
1.85111
21
1.48798
0
LINE
8
BLACK
6
CONTINUOUS
10
1.85111
20
1.48798
11
1.85024
21
1.4877
0
LINE
8
BLACK
6
CONTINUOUS
10
1.85024
20
1.4877
11
1.82418
21
1.4877
0
LINE
8
BLACK
6
CONTINUOUS
10
1.82418
20
1.4877
11
1.82418
21
1.45414
0
LINE
8
BLACK
6
CONTINUOUS
10
1.82418
20
1.45414
11
1.82343
21
1.45183
0
LINE
8
BLACK
6
CONTINUOUS
10
1.82343
20
1.45183
11
1.82146
21
1.4504
0
LINE
8
BLACK
6
CONTINUOUS
10
1.82146
20
1.4504
11
1.81903
21
1.4504
0
LINE
8
BLACK
6
CONTINUOUS
10
1.81903
20
1.4504
11
1.81706
21
1.45183
0
LINE
8
BLACK
6
CONTINUOUS
10
1.81706
20
1.45183
11
1.81631
21
1.45414
0
LINE
8
BLACK
6
CONTINUOUS
10
1.81631
20
1.45414
11
1.81631
21
1.53288
0
LINE
8
BLACK
6
CONTINUOUS
10
1.81631
20
1.53288
11
1.8165
21
1.53347
0
LINE
8
BLACK
6
CONTINUOUS
10
1.8165
20
1.53347
11
1.8165
21
1.5341
0
LINE
8
BLACK
6
CONTINUOUS
10
1.8165
20
1.5341
11
1.81687
21
1.5346
0
LINE
8
BLACK
6
CONTINUOUS
10
1.81687
20
1.5346
11
1.81706
21
1.53519
0
LINE
8
BLACK
6
CONTINUOUS
10
1.81706
20
1.53519
11
1.81757
21
1.53556
0
LINE
8
BLACK
6
CONTINUOUS
10
1.81757
20
1.53556
11
1.81793
21
1.53607
0
LINE
8
BLACK
6
CONTINUOUS
10
1.81793
20
1.53607
11
1.81853
21
1.53626
0
LINE
8
BLACK
6
CONTINUOUS
10
1.81853
20
1.53626
11
1.81903
21
1.53662
0
LINE
8
BLACK
6
CONTINUOUS
10
1.81903
20
1.53662
11
1.81965
21
1.53662
0
LINE
8
BLACK
6
CONTINUOUS
10
1.81965
20
1.53662
11
1.82025
21
1.53682
0
LINE
8
BLACK
6
CONTINUOUS
10
1.82025
20
1.53682
11
1.85024
21
1.53682
0
LINE
8
BLACK
6
CONTINUOUS
10
1.85024
20
1.53682
11
1.85111
21
1.53654
0
LINE
8
BLACK
6
CONTINUOUS
10
1.82418
20
1.49557
11
1.84931
21
1.49557
0
LINE
8
BLACK
6
CONTINUOUS
10
1.84931
20
1.49557
11
1.85541
21
1.49862
0
LINE
8
BLACK
6
CONTINUOUS
10
1.85541
20
1.49862
11
1.85826
21
1.50147
0
LINE
8
BLACK
6
CONTINUOUS
10
1.85826
20
1.50147
11
1.8613
21
1.50756
0
LINE
8
BLACK
6
CONTINUOUS
10
1.8613
20
1.50756
11
1.8613
21
1.51695
0
LINE
8
BLACK
6
CONTINUOUS
10
1.8613
20
1.51695
11
1.85826
21
1.52305
0
LINE
8
BLACK
6
CONTINUOUS
10
1.85826
20
1.52305
11
1.85541
21
1.5259
0
LINE
8
BLACK
6
CONTINUOUS
10
1.85541
20
1.5259
11
1.84931
21
1.52894
0
LINE
8
BLACK
6
CONTINUOUS
10
1.84931
20
1.52894
11
1.82418
21
1.52894
0
LINE
8
BLACK
6
CONTINUOUS
10
1.82418
20
1.52894
11
1.82418
21
1.49557
0
LINE
8
BLACK
6
CONTINUOUS
10
1.92985
20
1.53654
11
1.93074
21
1.5364
0
LINE
8
BLACK
6
CONTINUOUS
10
1.93074
20
1.5364
11
1.93824
21
1.53265
0
LINE
8
BLACK
6
CONTINUOUS
10
1.93824
20
1.53265
11
1.9387
21
1.5322
0
LINE
8
BLACK
6
CONTINUOUS
10
1.9387
20
1.5322
11
1.93927
21
1.53191
0
LINE
8
BLACK
6
CONTINUOUS
10
1.93927
20
1.53191
11
1.94302
21
1.52817
0
LINE
8
BLACK
6
CONTINUOUS
10
1.94302
20
1.52817
11
1.94331
21
1.5276
0
LINE
8
BLACK
6
CONTINUOUS
10
1.94331
20
1.5276
11
1.94375
21
1.52714
0
LINE
8
BLACK
6
CONTINUOUS
10
1.94375
20
1.52714
11
1.9475
21
1.51964
0
LINE
8
BLACK
6
CONTINUOUS
10
1.9475
20
1.51964
11
1.94764
21
1.51875
0
LINE
8
BLACK
6
CONTINUOUS
10
1.94764
20
1.51875
11
1.94792
21
1.51788
0
LINE
8
BLACK
6
CONTINUOUS
10
1.94792
20
1.51788
11
1.94792
21
1.50663
0
LINE
8
BLACK
6
CONTINUOUS
10
1.94792
20
1.50663
11
1.94764
21
1.50577
0
LINE
8
BLACK
6
CONTINUOUS
10
1.94764
20
1.50577
11
1.9475
21
1.50487
0
LINE
8
BLACK
6
CONTINUOUS
10
1.9475
20
1.50487
11
1.94375
21
1.49737
0
LINE
8
BLACK
6
CONTINUOUS
10
1.94375
20
1.49737
11
1.94331
21
1.49692
0
LINE
8
BLACK
6
CONTINUOUS
10
1.94331
20
1.49692
11
1.94302
21
1.49635
0
LINE
8
BLACK
6
CONTINUOUS
10
1.94302
20
1.49635
11
1.93927
21
1.4926
0
LINE
8
BLACK
6
CONTINUOUS
10
1.93927
20
1.4926
11
1.9387
21
1.49231
0
LINE
8
BLACK
6
CONTINUOUS
10
1.9387
20
1.49231
11
1.93824
21
1.49186
0
LINE
8
BLACK
6
CONTINUOUS
10
1.93824
20
1.49186
11
1.93074
21
1.48811
0
LINE
8
BLACK
6
CONTINUOUS
10
1.93074
20
1.48811
11
1.92985
21
1.48798
0
LINE
8
BLACK
6
CONTINUOUS
10
1.92985
20
1.48798
11
1.92898
21
1.4877
0
LINE
8
BLACK
6
CONTINUOUS
10
1.92898
20
1.4877
11
1.90292
21
1.4877
0
LINE
8
BLACK
6
CONTINUOUS
10
1.90292
20
1.4877
11
1.90292
21
1.45414
0
LINE
8
BLACK
6
CONTINUOUS
10
1.90292
20
1.45414
11
1.90217
21
1.45183
0
LINE
8
BLACK
6
CONTINUOUS
10
1.90217
20
1.45183
11
1.9002
21
1.4504
0
LINE
8
BLACK
6
CONTINUOUS
10
1.9002
20
1.4504
11
1.89777
21
1.4504
0
LINE
8
BLACK
6
CONTINUOUS
10
1.89777
20
1.4504
11
1.8958
21
1.45183
0
LINE
8
BLACK
6
CONTINUOUS
10
1.8958
20
1.45183
11
1.89505
21
1.45414
0
LINE
8
BLACK
6
CONTINUOUS
10
1.89505
20
1.45414
11
1.89505
21
1.53288
0
LINE
8
BLACK
6
CONTINUOUS
10
1.89505
20
1.53288
11
1.89524
21
1.53347
0
LINE
8
BLACK
6
CONTINUOUS
10
1.89524
20
1.53347
11
1.89524
21
1.5341
0
LINE
8
BLACK
6
CONTINUOUS
10
1.89524
20
1.5341
11
1.89561
21
1.5346
0
LINE
8
BLACK
6
CONTINUOUS
10
1.89561
20
1.5346
11
1.8958
21
1.53519
0
LINE
8
BLACK
6
CONTINUOUS
10
1.8958
20
1.53519
11
1.89631
21
1.53556
0
LINE
8
BLACK
6
CONTINUOUS
10
1.89631
20
1.53556
11
1.89667
21
1.53607
0
LINE
8
BLACK
6
CONTINUOUS
10
1.89667
20
1.53607
11
1.89727
21
1.53626
0
LINE
8
BLACK
6
CONTINUOUS
10
1.89727
20
1.53626
11
1.89777
21
1.53662
0
LINE
8
BLACK
6
CONTINUOUS
10
1.89777
20
1.53662
11
1.89839
21
1.53662
0
LINE
8
BLACK
6
CONTINUOUS
10
1.89839
20
1.53662
11
1.89899
21
1.53682
0
LINE
8
BLACK
6
CONTINUOUS
10
1.89899
20
1.53682
11
1.92898
21
1.53682
0
LINE
8
BLACK
6
CONTINUOUS
10
1.92898
20
1.53682
11
1.92985
21
1.53654
0
LINE
8
BLACK
6
CONTINUOUS
10
1.90292
20
1.49557
11
1.92805
21
1.49557
0
LINE
8
BLACK
6
CONTINUOUS
10
1.92805
20
1.49557
11
1.93415
21
1.49862
0
LINE
8
BLACK
6
CONTINUOUS
10
1.93415
20
1.49862
11
1.937
21
1.50147
0
LINE
8
BLACK
6
CONTINUOUS
10
1.937
20
1.50147
11
1.94004
21
1.50756
0
LINE
8
BLACK
6
CONTINUOUS
10
1.94004
20
1.50756
11
1.94004
21
1.51695
0
LINE
8
BLACK
6
CONTINUOUS
10
1.94004
20
1.51695
11
1.937
21
1.52305
0
LINE
8
BLACK
6
CONTINUOUS
10
1.937
20
1.52305
11
1.93415
21
1.5259
0
LINE
8
BLACK
6
CONTINUOUS
10
1.93415
20
1.5259
11
1.92805
21
1.52894
0
LINE
8
BLACK
6
CONTINUOUS
10
1.92805
20
1.52894
11
1.90292
21
1.52894
0
LINE
8
BLACK
6
CONTINUOUS
10
1.90292
20
1.52894
11
1.90292
21
1.49557
0
CIRCLE
8
BLACK
10
0.65
20
2.5
40
0.00688976
0
CIRCLE
8
BLACK
10
3.8
20
0.6
40
0.00688976
0
CIRCLE
8
BLACK
10
3.8
20
2.5
40
0.00688976
0
CIRCLE
8
BLACK
10
0.65
20
0.6
40
0.00688976
0
CIRCLE
8
BLACK
10
1.82913
20
0.248425
40
0.00688976
0
CIRCLE
8
BLACK
10
1.82913
20
0.148425
40
0.00688976
0
CIRCLE
8
BLACK
10
1.72913
20
0.248425
40
0.00688976
0
CIRCLE
8
BLACK
10
1.72913
20
0.148425
40
0.00688976
0
CIRCLE
8
BLACK
10
1.62913
20
0.248425
40
0.00688976
0
CIRCLE
8
BLACK
10
1.62913
20
0.148425
40
0.00688976
0
CIRCLE
8
BLACK
10
1.52913
20
0.248425
40
0.00688976
0
CIRCLE
8
BLACK
10
1.52913
20
0.148425
40
0.00688976
0
CIRCLE
8
BLACK
10
1.42913
20
0.248425
40
0.00688976
0
CIRCLE
8
BLACK
10
1.42913
20
0.148425
40
0.00688976
0
CIRCLE
8
BLACK
10
1.32913
20
0.248425
40
0.00688976
0
CIRCLE
8
BLACK
10
1.32913
20
0.148425
40
0.00688976
0
CIRCLE
8
BLACK
10
1.22913
20
0.248425
40
0.00688976
0
CIRCLE
8
BLACK
10
1.22913
20
0.148425
40
0.00688976
0
CIRCLE
8
BLACK
10
1.12913
20
0.248425
40
0.00688976
0
CIRCLE
8
BLACK
10
1.12913
20
0.148425
40
0.00688976
0
CIRCLE
8
BLACK
10
1.02913
20
0.248425
40
0.00688976
0
CIRCLE
8
BLACK
10
1.02913
20
0.148425
40
0.00688976
0
CIRCLE
8
BLACK
10
0.929134
20
0.248425
40
0.00688976
0
CIRCLE
8
BLACK
10
0.929134
20
0.148425
40
0.00688976
0
CIRCLE
8
BLACK
10
0.829134
20
0.248425
40
0.00688976
0
CIRCLE
8
BLACK
10
0.829134
20
0.148425
40
0.00688976
0
CIRCLE
8
BLACK
10
0.729134
20
0.248425
40
0.00688976
0
CIRCLE
8
BLACK
10
0.729134
20
0.148425
40
0.00688976
0
CIRCLE
8
BLACK
10
0.629134
20
0.248425
40
0.00688976
0
CIRCLE
8
BLACK
10
0.629134
20
0.148425
40
0.00688976
0
CIRCLE
8
BLACK
10
1.7388
20
2.52
40
0.00688976
0
CIRCLE
8
BLACK
10
1.0112
20
2.52
40
0.00688976
0
CIRCLE
8
BLACK
10
3.4388
20
2.52
40
0.00688976
0
CIRCLE
8
BLACK
10
2.7112
20
2.52
40
0.00688976
0
CIRCLE
8
BLACK
10
1.7388
20
0.74
40
0.00688976
0
CIRCLE
8
BLACK
10
1.0112
20
0.74
40
0.00688976
0
CIRCLE
8
BLACK
10
3.4388
20
0.74
40
0.00688976
0
CIRCLE
8
BLACK
10
2.7112
20
0.74
40
0.00688976
0
CIRCLE
8
BLACK
10
1.91004
20
3.05
40
0.00688976
0
CIRCLE
8
BLACK
10
2.53996
20
3.05
40
0.00688976
0
CIRCLE
8
BLACK
10
1.87461
20
2.8437
40
0.00688976
0
CIRCLE
8
BLACK
10
1.87461
20
2.97126
40
0.00688976
0
CIRCLE
8
BLACK
10
1.87461
20
3.12835
40
0.00688976
0
CIRCLE
8
BLACK
10
1.87461
20
3.20827
40
0.00688976
0
CIRCLE
8
BLACK
10
2.57539
20
2.80433
40
0.00688976
0
CIRCLE
8
BLACK
10
2.57539
20
2.97126
40
0.00688976
0
CIRCLE
8
BLACK
10
2.57539
20
3.12835
40
0.00688976
0
CIRCLE
8
BLACK
10
2.57539
20
3.20827
40
0.00688976
0
CIRCLE
8
BLACK
10
2.97165
20
0.248425
40
0.00688976
0
CIRCLE
8
BLACK
10
2.97165
20
0.148425
40
0.00688976
0
CIRCLE
8
BLACK
10
3.07165
20
0.248425
40
0.00688976
0
CIRCLE
8
BLACK
10
3.07165
20
0.148425
40
0.00688976
0
CIRCLE
8
BLACK
10
3.17165
20
0.248425
40
0.00688976
0
CIRCLE
8
BLACK
10
3.17165
20
0.148425
40
0.00688976
0
CIRCLE
8
BLACK
10
0.160039
20
3.05
40
0.00688976
0
CIRCLE
8
BLACK
10
0.789961
20
3.05
40
0.00688976
0
CIRCLE
8
BLACK
10
0.124606
20
2.8437
40
0.00688976
0
CIRCLE
8
BLACK
10
0.124606
20
2.97126
40
0.00688976
0
CIRCLE
8
BLACK
10
0.124606
20
3.12835
40
0.00688976
0
CIRCLE
8
BLACK
10
0.124606
20
3.20827
40
0.00688976
0
CIRCLE
8
BLACK
10
0.825394
20
2.80433
40
0.00688976
0
CIRCLE
8
BLACK
10
0.825394
20
2.97126
40
0.00688976
0
CIRCLE
8
BLACK
10
0.825394
20
3.12835
40
0.00688976
0
CIRCLE
8
BLACK
10
0.825394
20
3.20827
40
0.00688976
0
CIRCLE
8
BLACK
10
3.255
20
3.27
40
0.00688976
0
CIRCLE
8
BLACK
10
3.205
20
3.21094
40
0.00688976
0
CIRCLE
8
BLACK
10
3.155
20
3.21094
40
0.00688976
0
CIRCLE
8
BLACK
10
3.105
20
3.27
40
0.00688976
0
CIRCLE
8
BLACK
10
3.055
20
3.21094
40
0.00688976
0
CIRCLE
8
BLACK
10
3.005
20
3.21094
40
0.00688976
0
CIRCLE
8
BLACK
10
2.955
20
3.27
40
0.00688976
0
CIRCLE
8
BLACK
10
2.84673
20
3.17157
40
0.00688976
0
CIRCLE
8
BLACK
10
3.35185
20
3.21094
40
0.00688976
0
CIRCLE
8
BLACK
10
0.2
20
3.8
40
0.00688976
0
CIRCLE
8
BLACK
10
3.8
20
3.8
40
0.00688976
0
CIRCLE
8
BLACK
10
0.2
20
0.2
40
0.00688976
0
CIRCLE
8
BLACK
10
0.181417
20
0.724016
40
0.00688976
0
CIRCLE
8
BLACK
10
0.181417
20
0.475984
40
0.00688976
0
CIRCLE
8
BLACK
10
0.358583
20
0.724016
40
0.00688976
0
CIRCLE
8
BLACK
10
0.358583
20
0.475984
40
0.00688976
0
CIRCLE
8
BLACK
10
3.81
20
0.2
40
0.00688976
0
CIRCLE
8
BLACK
10
2.75197
20
0.148425
40
0.00688976
0
CIRCLE
8
BLACK
10
2.75197
20
0.248425
40
0.00688976
0
CIRCLE
8
BLACK
10
2.65197
20
0.148425
40
0.00688976
0
CIRCLE
8
BLACK
10
2.65197
20
0.248425
40
0.00688976
0
CIRCLE
8
BLACK
10
2.55197
20
0.148425
40
0.00688976
0
CIRCLE
8
BLACK
10
2.55197
20
0.248425
40
0.00688976
0
CIRCLE
8
BLACK
10
2.45197
20
0.148425
40
0.00688976
0
CIRCLE
8
BLACK
10
2.45197
20
0.248425
40
0.00688976
0
CIRCLE
8
BLACK
10
2.35197
20
0.148425
40
0.00688976
0
CIRCLE
8
BLACK
10
2.35197
20
0.248425
40
0.00688976
  0
ENDSEC
  0
EOF
