  0
SECTION
  2
HEADER
  9
$ANGBASE
  50
0.0
  9
$ANGDIR
  70
1
  9
$MEASUREMENT
  70
0
  0
ENDSEC
  0
SECTION
  2
TABLES
  0
TABLE
  2
LTYPE
  70
4
  0
LTYPE
  5
40F
  2
CONTINUOUS
  70
0
  3
Solid line
  72
65
  73
0
  40
0.0
  0
LTYPE
  5
410
  2
DASHDOT
 70
0
  3
Dash Dot ____ _ ____ _
 72
65
 73
4
 40
2.0
 49
1.25
 49
-0.25
 49
0.25
 49
-0.25
  0
LTYPE
  5
411
  2
DASHED
 70
0
  3
Dashed __ __ __ __ __
 72
65
 73
2
 40
0.75
 49
0.5
 49
-0.25
  0
LTYPE
  5
43B
  2
DOTTED
 70
0
  3
Dotted .  .  .  .
 72
65
 73
2
 40
0.2
 49
0.0
 49
-0.2
  0
ENDTAB
  0
TABLE
  2
STYLE
  70
4
  0
STYLE
  2
KICAD
  70
0
  40
0
  41
1
  42
1
  50
0
  71
0
  3
isocp.shx
  0
STYLE
  2
KICADB
  70
0
  40
0
  41
1
  42
1
  50
0
  71
0
  3
isocp.shx
  0
STYLE
  2
KICADI
  70
0
  40
0
  41
1
  42
1
  50
15
  71
0
  3
isocp.shx
  0
STYLE
  2
KICADBI
  70
0
  40
0
  41
1
  42
1
  50
15
  71
0
  3
isocp.shx
  0
ENDTAB
  0
TABLE
  2
LAYER
  70
1
  0
LAYER
  2
BLACK
  70
0
  62
7
  6
CONTINUOUS
  0
ENDTAB
  0
ENDSEC
  0
SECTION
  2
ENTITIES
0
LINE
8
BLACK
6
CONTINUOUS
10
0.525
20
2.625
11
0.525
21
2.375
0
LINE
8
BLACK
6
CONTINUOUS
10
0.525
20
2.375
11
0.775
21
2.375
0
LINE
8
BLACK
6
CONTINUOUS
10
0.775
20
2.375
11
0.775
21
2.625
0
LINE
8
BLACK
6
CONTINUOUS
10
0.775
20
2.625
11
0.525
21
2.625
0
LINE
8
BLACK
6
CONTINUOUS
10
3.675
20
0.725
11
3.675
21
0.475
0
LINE
8
BLACK
6
CONTINUOUS
10
3.675
20
0.475
11
3.925
21
0.475
0
LINE
8
BLACK
6
CONTINUOUS
10
3.925
20
0.475
11
3.925
21
0.725
0
LINE
8
BLACK
6
CONTINUOUS
10
3.925
20
0.725
11
3.675
21
0.725
0
LINE
8
BLACK
6
CONTINUOUS
10
3.675
20
2.625
11
3.675
21
2.375
0
LINE
8
BLACK
6
CONTINUOUS
10
3.675
20
2.375
11
3.925
21
2.375
0
LINE
8
BLACK
6
CONTINUOUS
10
3.925
20
2.375
11
3.925
21
2.625
0
LINE
8
BLACK
6
CONTINUOUS
10
3.925
20
2.625
11
3.675
21
2.625
0
LINE
8
BLACK
6
CONTINUOUS
10
0.525
20
0.725
11
0.525
21
0.475
0
LINE
8
BLACK
6
CONTINUOUS
10
0.525
20
0.475
11
0.775
21
0.475
0
LINE
8
BLACK
6
CONTINUOUS
10
0.775
20
0.475
11
0.775
21
0.725
0
LINE
8
BLACK
6
CONTINUOUS
10
0.775
20
0.725
11
0.525
21
0.725
0
CIRCLE
8
BLACK
10
0.2
20
3.8
40
0.11811
0
CIRCLE
8
BLACK
10
3.8
20
3.8
40
0.11811
0
CIRCLE
8
BLACK
10
0.2
20
0.2
40
0.11811
0
CIRCLE
8
BLACK
10
3.81
20
0.2
40
0.11811
0
LINE
8
BLACK
6
CONTINUOUS
10
1.85913
20
0.278425
11
1.79913
21
0.278425
0
LINE
8
BLACK
6
CONTINUOUS
10
1.79913
20
0.278425
11
1.79913
21
0.218425
0
LINE
8
BLACK
6
CONTINUOUS
10
1.79913
20
0.218425
11
1.85913
21
0.218425
0
LINE
8
BLACK
6
CONTINUOUS
10
1.85913
20
0.218425
11
1.85913
21
0.278425
0
LINE
8
BLACK
6
CONTINUOUS
10
1.85913
20
0.178425
11
1.79913
21
0.178425
0
LINE
8
BLACK
6
CONTINUOUS
10
1.79913
20
0.178425
11
1.79913
21
0.118425
0
LINE
8
BLACK
6
CONTINUOUS
10
1.79913
20
0.118425
11
1.85913
21
0.118425
0
LINE
8
BLACK
6
CONTINUOUS
10
1.85913
20
0.118425
11
1.85913
21
0.178425
0
LINE
8
BLACK
6
CONTINUOUS
10
1.75913
20
0.278425
11
1.69913
21
0.278425
0
LINE
8
BLACK
6
CONTINUOUS
10
1.69913
20
0.278425
11
1.69913
21
0.218425
0
LINE
8
BLACK
6
CONTINUOUS
10
1.69913
20
0.218425
11
1.75913
21
0.218425
0
LINE
8
BLACK
6
CONTINUOUS
10
1.75913
20
0.218425
11
1.75913
21
0.278425
0
LINE
8
BLACK
6
CONTINUOUS
10
1.75913
20
0.178425
11
1.69913
21
0.178425
0
LINE
8
BLACK
6
CONTINUOUS
10
1.69913
20
0.178425
11
1.69913
21
0.118425
0
LINE
8
BLACK
6
CONTINUOUS
10
1.69913
20
0.118425
11
1.75913
21
0.118425
0
LINE
8
BLACK
6
CONTINUOUS
10
1.75913
20
0.118425
11
1.75913
21
0.178425
0
LINE
8
BLACK
6
CONTINUOUS
10
1.65913
20
0.278425
11
1.59913
21
0.278425
0
LINE
8
BLACK
6
CONTINUOUS
10
1.59913
20
0.278425
11
1.59913
21
0.218425
0
LINE
8
BLACK
6
CONTINUOUS
10
1.59913
20
0.218425
11
1.65913
21
0.218425
0
LINE
8
BLACK
6
CONTINUOUS
10
1.65913
20
0.218425
11
1.65913
21
0.278425
0
LINE
8
BLACK
6
CONTINUOUS
10
1.65913
20
0.178425
11
1.59913
21
0.178425
0
LINE
8
BLACK
6
CONTINUOUS
10
1.59913
20
0.178425
11
1.59913
21
0.118425
0
LINE
8
BLACK
6
CONTINUOUS
10
1.59913
20
0.118425
11
1.65913
21
0.118425
0
LINE
8
BLACK
6
CONTINUOUS
10
1.65913
20
0.118425
11
1.65913
21
0.178425
0
LINE
8
BLACK
6
CONTINUOUS
10
1.55913
20
0.278425
11
1.49913
21
0.278425
0
LINE
8
BLACK
6
CONTINUOUS
10
1.49913
20
0.278425
11
1.49913
21
0.218425
0
LINE
8
BLACK
6
CONTINUOUS
10
1.49913
20
0.218425
11
1.55913
21
0.218425
0
LINE
8
BLACK
6
CONTINUOUS
10
1.55913
20
0.218425
11
1.55913
21
0.278425
0
LINE
8
BLACK
6
CONTINUOUS
10
1.55913
20
0.178425
11
1.49913
21
0.178425
0
LINE
8
BLACK
6
CONTINUOUS
10
1.49913
20
0.178425
11
1.49913
21
0.118425
0
LINE
8
BLACK
6
CONTINUOUS
10
1.49913
20
0.118425
11
1.55913
21
0.118425
0
LINE
8
BLACK
6
CONTINUOUS
10
1.55913
20
0.118425
11
1.55913
21
0.178425
0
LINE
8
BLACK
6
CONTINUOUS
10
1.45913
20
0.278425
11
1.39913
21
0.278425
0
LINE
8
BLACK
6
CONTINUOUS
10
1.39913
20
0.278425
11
1.39913
21
0.218425
0
LINE
8
BLACK
6
CONTINUOUS
10
1.39913
20
0.218425
11
1.45913
21
0.218425
0
LINE
8
BLACK
6
CONTINUOUS
10
1.45913
20
0.218425
11
1.45913
21
0.278425
0
LINE
8
BLACK
6
CONTINUOUS
10
1.45913
20
0.178425
11
1.39913
21
0.178425
0
LINE
8
BLACK
6
CONTINUOUS
10
1.39913
20
0.178425
11
1.39913
21
0.118425
0
LINE
8
BLACK
6
CONTINUOUS
10
1.39913
20
0.118425
11
1.45913
21
0.118425
0
LINE
8
BLACK
6
CONTINUOUS
10
1.45913
20
0.118425
11
1.45913
21
0.178425
0
LINE
8
BLACK
6
CONTINUOUS
10
1.35913
20
0.278425
11
1.29913
21
0.278425
0
LINE
8
BLACK
6
CONTINUOUS
10
1.29913
20
0.278425
11
1.29913
21
0.218425
0
LINE
8
BLACK
6
CONTINUOUS
10
1.29913
20
0.218425
11
1.35913
21
0.218425
0
LINE
8
BLACK
6
CONTINUOUS
10
1.35913
20
0.218425
11
1.35913
21
0.278425
0
LINE
8
BLACK
6
CONTINUOUS
10
1.35913
20
0.178425
11
1.29913
21
0.178425
0
LINE
8
BLACK
6
CONTINUOUS
10
1.29913
20
0.178425
11
1.29913
21
0.118425
0
LINE
8
BLACK
6
CONTINUOUS
10
1.29913
20
0.118425
11
1.35913
21
0.118425
0
LINE
8
BLACK
6
CONTINUOUS
10
1.35913
20
0.118425
11
1.35913
21
0.178425
0
LINE
8
BLACK
6
CONTINUOUS
10
1.25913
20
0.278425
11
1.19913
21
0.278425
0
LINE
8
BLACK
6
CONTINUOUS
10
1.19913
20
0.278425
11
1.19913
21
0.218425
0
LINE
8
BLACK
6
CONTINUOUS
10
1.19913
20
0.218425
11
1.25913
21
0.218425
0
LINE
8
BLACK
6
CONTINUOUS
10
1.25913
20
0.218425
11
1.25913
21
0.278425
0
LINE
8
BLACK
6
CONTINUOUS
10
1.25913
20
0.178425
11
1.19913
21
0.178425
0
LINE
8
BLACK
6
CONTINUOUS
10
1.19913
20
0.178425
11
1.19913
21
0.118425
0
LINE
8
BLACK
6
CONTINUOUS
10
1.19913
20
0.118425
11
1.25913
21
0.118425
0
LINE
8
BLACK
6
CONTINUOUS
10
1.25913
20
0.118425
11
1.25913
21
0.178425
0
LINE
8
BLACK
6
CONTINUOUS
10
1.15913
20
0.278425
11
1.09913
21
0.278425
0
LINE
8
BLACK
6
CONTINUOUS
10
1.09913
20
0.278425
11
1.09913
21
0.218425
0
LINE
8
BLACK
6
CONTINUOUS
10
1.09913
20
0.218425
11
1.15913
21
0.218425
0
LINE
8
BLACK
6
CONTINUOUS
10
1.15913
20
0.218425
11
1.15913
21
0.278425
0
LINE
8
BLACK
6
CONTINUOUS
10
1.15913
20
0.178425
11
1.09913
21
0.178425
0
LINE
8
BLACK
6
CONTINUOUS
10
1.09913
20
0.178425
11
1.09913
21
0.118425
0
LINE
8
BLACK
6
CONTINUOUS
10
1.09913
20
0.118425
11
1.15913
21
0.118425
0
LINE
8
BLACK
6
CONTINUOUS
10
1.15913
20
0.118425
11
1.15913
21
0.178425
0
LINE
8
BLACK
6
CONTINUOUS
10
1.05913
20
0.278425
11
0.999134
21
0.278425
0
LINE
8
BLACK
6
CONTINUOUS
10
0.999134
20
0.278425
11
0.999134
21
0.218425
0
LINE
8
BLACK
6
CONTINUOUS
10
0.999134
20
0.218425
11
1.05913
21
0.218425
0
LINE
8
BLACK
6
CONTINUOUS
10
1.05913
20
0.218425
11
1.05913
21
0.278425
0
LINE
8
BLACK
6
CONTINUOUS
10
1.05913
20
0.178425
11
0.999134
21
0.178425
0
LINE
8
BLACK
6
CONTINUOUS
10
0.999134
20
0.178425
11
0.999134
21
0.118425
0
LINE
8
BLACK
6
CONTINUOUS
10
0.999134
20
0.118425
11
1.05913
21
0.118425
0
LINE
8
BLACK
6
CONTINUOUS
10
1.05913
20
0.118425
11
1.05913
21
0.178425
0
LINE
8
BLACK
6
CONTINUOUS
10
0.959134
20
0.278425
11
0.899134
21
0.278425
0
LINE
8
BLACK
6
CONTINUOUS
10
0.899134
20
0.278425
11
0.899134
21
0.218425
0
LINE
8
BLACK
6
CONTINUOUS
10
0.899134
20
0.218425
11
0.959134
21
0.218425
0
LINE
8
BLACK
6
CONTINUOUS
10
0.959134
20
0.218425
11
0.959134
21
0.278425
0
LINE
8
BLACK
6
CONTINUOUS
10
0.959134
20
0.178425
11
0.899134
21
0.178425
0
LINE
8
BLACK
6
CONTINUOUS
10
0.899134
20
0.178425
11
0.899134
21
0.118425
0
LINE
8
BLACK
6
CONTINUOUS
10
0.899134
20
0.118425
11
0.959134
21
0.118425
0
LINE
8
BLACK
6
CONTINUOUS
10
0.959134
20
0.118425
11
0.959134
21
0.178425
0
LINE
8
BLACK
6
CONTINUOUS
10
0.859134
20
0.278425
11
0.799134
21
0.278425
0
LINE
8
BLACK
6
CONTINUOUS
10
0.799134
20
0.278425
11
0.799134
21
0.218425
0
LINE
8
BLACK
6
CONTINUOUS
10
0.799134
20
0.218425
11
0.859134
21
0.218425
0
LINE
8
BLACK
6
CONTINUOUS
10
0.859134
20
0.218425
11
0.859134
21
0.278425
0
LINE
8
BLACK
6
CONTINUOUS
10
0.859134
20
0.178425
11
0.799134
21
0.178425
0
LINE
8
BLACK
6
CONTINUOUS
10
0.799134
20
0.178425
11
0.799134
21
0.118425
0
LINE
8
BLACK
6
CONTINUOUS
10
0.799134
20
0.118425
11
0.859134
21
0.118425
0
LINE
8
BLACK
6
CONTINUOUS
10
0.859134
20
0.118425
11
0.859134
21
0.178425
0
LINE
8
BLACK
6
CONTINUOUS
10
0.759134
20
0.278425
11
0.699134
21
0.278425
0
LINE
8
BLACK
6
CONTINUOUS
10
0.699134
20
0.278425
11
0.699134
21
0.218425
0
LINE
8
BLACK
6
CONTINUOUS
10
0.699134
20
0.218425
11
0.759134
21
0.218425
0
LINE
8
BLACK
6
CONTINUOUS
10
0.759134
20
0.218425
11
0.759134
21
0.278425
0
LINE
8
BLACK
6
CONTINUOUS
10
0.759134
20
0.178425
11
0.699134
21
0.178425
0
LINE
8
BLACK
6
CONTINUOUS
10
0.699134
20
0.178425
11
0.699134
21
0.118425
0
LINE
8
BLACK
6
CONTINUOUS
10
0.699134
20
0.118425
11
0.759134
21
0.118425
0
LINE
8
BLACK
6
CONTINUOUS
10
0.759134
20
0.118425
11
0.759134
21
0.178425
0
LINE
8
BLACK
6
CONTINUOUS
10
0.659134
20
0.278425
11
0.599134
21
0.278425
0
LINE
8
BLACK
6
CONTINUOUS
10
0.599134
20
0.278425
11
0.599134
21
0.218425
0
LINE
8
BLACK
6
CONTINUOUS
10
0.599134
20
0.218425
11
0.659134
21
0.218425
0
LINE
8
BLACK
6
CONTINUOUS
10
0.659134
20
0.218425
11
0.659134
21
0.278425
0
LINE
8
BLACK
6
CONTINUOUS
10
0.659134
20
0.178425
11
0.599134
21
0.178425
0
LINE
8
BLACK
6
CONTINUOUS
10
0.599134
20
0.178425
11
0.599134
21
0.118425
0
LINE
8
BLACK
6
CONTINUOUS
10
0.599134
20
0.118425
11
0.659134
21
0.118425
0
LINE
8
BLACK
6
CONTINUOUS
10
0.659134
20
0.118425
11
0.659134
21
0.178425
0
LINE
8
BLACK
6
CONTINUOUS
10
2.78197
20
0.278425
11
2.72197
21
0.278425
0
LINE
8
BLACK
6
CONTINUOUS
10
2.72197
20
0.278425
11
2.72197
21
0.218425
0
LINE
8
BLACK
6
CONTINUOUS
10
2.72197
20
0.218425
11
2.78197
21
0.218425
0
LINE
8
BLACK
6
CONTINUOUS
10
2.78197
20
0.218425
11
2.78197
21
0.278425
0
LINE
8
BLACK
6
CONTINUOUS
10
2.78197
20
0.178425
11
2.72197
21
0.178425
0
LINE
8
BLACK
6
CONTINUOUS
10
2.72197
20
0.178425
11
2.72197
21
0.118425
0
LINE
8
BLACK
6
CONTINUOUS
10
2.72197
20
0.118425
11
2.78197
21
0.118425
0
LINE
8
BLACK
6
CONTINUOUS
10
2.78197
20
0.118425
11
2.78197
21
0.178425
0
LINE
8
BLACK
6
CONTINUOUS
10
2.68197
20
0.278425
11
2.62197
21
0.278425
0
LINE
8
BLACK
6
CONTINUOUS
10
2.62197
20
0.278425
11
2.62197
21
0.218425
0
LINE
8
BLACK
6
CONTINUOUS
10
2.62197
20
0.218425
11
2.68197
21
0.218425
0
LINE
8
BLACK
6
CONTINUOUS
10
2.68197
20
0.218425
11
2.68197
21
0.278425
0
LINE
8
BLACK
6
CONTINUOUS
10
2.68197
20
0.178425
11
2.62197
21
0.178425
0
LINE
8
BLACK
6
CONTINUOUS
10
2.62197
20
0.178425
11
2.62197
21
0.118425
0
LINE
8
BLACK
6
CONTINUOUS
10
2.62197
20
0.118425
11
2.68197
21
0.118425
0
LINE
8
BLACK
6
CONTINUOUS
10
2.68197
20
0.118425
11
2.68197
21
0.178425
0
LINE
8
BLACK
6
CONTINUOUS
10
2.58197
20
0.278425
11
2.52197
21
0.278425
0
LINE
8
BLACK
6
CONTINUOUS
10
2.52197
20
0.278425
11
2.52197
21
0.218425
0
LINE
8
BLACK
6
CONTINUOUS
10
2.52197
20
0.218425
11
2.58197
21
0.218425
0
LINE
8
BLACK
6
CONTINUOUS
10
2.58197
20
0.218425
11
2.58197
21
0.278425
0
LINE
8
BLACK
6
CONTINUOUS
10
2.58197
20
0.178425
11
2.52197
21
0.178425
0
LINE
8
BLACK
6
CONTINUOUS
10
2.52197
20
0.178425
11
2.52197
21
0.118425
0
LINE
8
BLACK
6
CONTINUOUS
10
2.52197
20
0.118425
11
2.58197
21
0.118425
0
LINE
8
BLACK
6
CONTINUOUS
10
2.58197
20
0.118425
11
2.58197
21
0.178425
0
LINE
8
BLACK
6
CONTINUOUS
10
2.48197
20
0.278425
11
2.42197
21
0.278425
0
LINE
8
BLACK
6
CONTINUOUS
10
2.42197
20
0.278425
11
2.42197
21
0.218425
0
LINE
8
BLACK
6
CONTINUOUS
10
2.42197
20
0.218425
11
2.48197
21
0.218425
0
LINE
8
BLACK
6
CONTINUOUS
10
2.48197
20
0.218425
11
2.48197
21
0.278425
0
LINE
8
BLACK
6
CONTINUOUS
10
2.48197
20
0.178425
11
2.42197
21
0.178425
0
LINE
8
BLACK
6
CONTINUOUS
10
2.42197
20
0.178425
11
2.42197
21
0.118425
0
LINE
8
BLACK
6
CONTINUOUS
10
2.42197
20
0.118425
11
2.48197
21
0.118425
0
LINE
8
BLACK
6
CONTINUOUS
10
2.48197
20
0.118425
11
2.48197
21
0.178425
0
LINE
8
BLACK
6
CONTINUOUS
10
2.38197
20
0.278425
11
2.32197
21
0.278425
0
LINE
8
BLACK
6
CONTINUOUS
10
2.32197
20
0.278425
11
2.32197
21
0.218425
0
LINE
8
BLACK
6
CONTINUOUS
10
2.32197
20
0.218425
11
2.38197
21
0.218425
0
LINE
8
BLACK
6
CONTINUOUS
10
2.38197
20
0.218425
11
2.38197
21
0.278425
0
LINE
8
BLACK
6
CONTINUOUS
10
2.38197
20
0.178425
11
2.32197
21
0.178425
0
LINE
8
BLACK
6
CONTINUOUS
10
2.32197
20
0.178425
11
2.32197
21
0.118425
0
LINE
8
BLACK
6
CONTINUOUS
10
2.32197
20
0.118425
11
2.38197
21
0.118425
0
LINE
8
BLACK
6
CONTINUOUS
10
2.38197
20
0.118425
11
2.38197
21
0.178425
0
CIRCLE
8
BLACK
10
1.7388
20
2.52
40
0.02
0
CIRCLE
8
BLACK
10
1.0112
20
2.52
40
0.02
0
CIRCLE
8
BLACK
10
3.4388
20
2.52
40
0.02
0
CIRCLE
8
BLACK
10
2.7112
20
2.52
40
0.02
0
CIRCLE
8
BLACK
10
1.0112
20
0.74
40
0.02
0
CIRCLE
8
BLACK
10
1.7388
20
0.74
40
0.02
0
CIRCLE
8
BLACK
10
3.4388
20
0.74
40
0.02
0
CIRCLE
8
BLACK
10
2.7112
20
0.74
40
0.02
0
CIRCLE
8
BLACK
10
1.91004
20
3.05
40
0.0305118
0
CIRCLE
8
BLACK
10
2.53996
20
3.05
40
0.0305118
0
CIRCLE
8
BLACK
10
1.87461
20
2.8437
40
0.0305118
0
CIRCLE
8
BLACK
10
1.87461
20
2.97126
40
0.0305118
0
CIRCLE
8
BLACK
10
1.87461
20
3.12835
40
0.0305118
0
CIRCLE
8
BLACK
10
1.87461
20
3.20827
40
0.0305118
0
CIRCLE
8
BLACK
10
2.57539
20
2.80433
40
0.0305118
0
CIRCLE
8
BLACK
10
2.57539
20
2.97126
40
0.0305118
0
CIRCLE
8
BLACK
10
2.57539
20
3.12835
40
0.0305118
0
CIRCLE
8
BLACK
10
2.57539
20
3.20827
40
0.0305118
0
LINE
8
BLACK
6
CONTINUOUS
10
3.00165
20
0.278425
11
2.94165
21
0.278425
0
LINE
8
BLACK
6
CONTINUOUS
10
2.94165
20
0.278425
11
2.94165
21
0.218425
0
LINE
8
BLACK
6
CONTINUOUS
10
2.94165
20
0.218425
11
3.00165
21
0.218425
0
LINE
8
BLACK
6
CONTINUOUS
10
3.00165
20
0.218425
11
3.00165
21
0.278425
0
LINE
8
BLACK
6
CONTINUOUS
10
3.00165
20
0.178425
11
2.94165
21
0.178425
0
LINE
8
BLACK
6
CONTINUOUS
10
2.94165
20
0.178425
11
2.94165
21
0.118425
0
LINE
8
BLACK
6
CONTINUOUS
10
2.94165
20
0.118425
11
3.00165
21
0.118425
0
LINE
8
BLACK
6
CONTINUOUS
10
3.00165
20
0.118425
11
3.00165
21
0.178425
0
LINE
8
BLACK
6
CONTINUOUS
10
3.10165
20
0.278425
11
3.04165
21
0.278425
0
LINE
8
BLACK
6
CONTINUOUS
10
3.04165
20
0.278425
11
3.04165
21
0.218425
0
LINE
8
BLACK
6
CONTINUOUS
10
3.04165
20
0.218425
11
3.10165
21
0.218425
0
LINE
8
BLACK
6
CONTINUOUS
10
3.10165
20
0.218425
11
3.10165
21
0.278425
0
LINE
8
BLACK
6
CONTINUOUS
10
3.10165
20
0.178425
11
3.04165
21
0.178425
0
LINE
8
BLACK
6
CONTINUOUS
10
3.04165
20
0.178425
11
3.04165
21
0.118425
0
LINE
8
BLACK
6
CONTINUOUS
10
3.04165
20
0.118425
11
3.10165
21
0.118425
0
LINE
8
BLACK
6
CONTINUOUS
10
3.10165
20
0.118425
11
3.10165
21
0.178425
0
LINE
8
BLACK
6
CONTINUOUS
10
3.20165
20
0.278425
11
3.14165
21
0.278425
0
LINE
8
BLACK
6
CONTINUOUS
10
3.14165
20
0.278425
11
3.14165
21
0.218425
0
LINE
8
BLACK
6
CONTINUOUS
10
3.14165
20
0.218425
11
3.20165
21
0.218425
0
LINE
8
BLACK
6
CONTINUOUS
10
3.20165
20
0.218425
11
3.20165
21
0.278425
0
LINE
8
BLACK
6
CONTINUOUS
10
3.20165
20
0.178425
11
3.14165
21
0.178425
0
LINE
8
BLACK
6
CONTINUOUS
10
3.14165
20
0.178425
11
3.14165
21
0.118425
0
LINE
8
BLACK
6
CONTINUOUS
10
3.14165
20
0.118425
11
3.20165
21
0.118425
0
LINE
8
BLACK
6
CONTINUOUS
10
3.20165
20
0.118425
11
3.20165
21
0.178425
0
CIRCLE
8
BLACK
10
0.160039
20
3.05
40
0.0305118
0
CIRCLE
8
BLACK
10
0.789961
20
3.05
40
0.0305118
0
CIRCLE
8
BLACK
10
0.124606
20
2.8437
40
0.0305118
0
CIRCLE
8
BLACK
10
0.124606
20
2.97126
40
0.0305118
0
CIRCLE
8
BLACK
10
0.124606
20
3.12835
40
0.0305118
0
CIRCLE
8
BLACK
10
0.124606
20
3.20827
40
0.0305118
0
CIRCLE
8
BLACK
10
0.825394
20
2.80433
40
0.0305118
0
CIRCLE
8
BLACK
10
0.825394
20
2.97126
40
0.0305118
0
CIRCLE
8
BLACK
10
0.825394
20
3.12835
40
0.0305118
0
CIRCLE
8
BLACK
10
0.825394
20
3.20827
40
0.0305118
0
LINE
8
BLACK
6
CONTINUOUS
10
3.23335
20
3.27394
11
3.23335
21
3.26606
0
LINE
8
BLACK
6
CONTINUOUS
10
3.27665
20
3.27394
11
3.27665
21
3.26606
0
ARC
8
BLACK
10
3.255
20
3.26606
40
0.0216535
50
180
51
360
0
ARC
8
BLACK
10
3.255
20
3.27394
40
0.0216535
50
0
51
180
0
LINE
8
BLACK
6
CONTINUOUS
10
3.18335
20
3.21488
11
3.18335
21
3.20701
0
LINE
8
BLACK
6
CONTINUOUS
10
3.22665
20
3.21488
11
3.22665
21
3.20701
0
ARC
8
BLACK
10
3.205
20
3.20701
40
0.0216535
50
180
51
360
0
ARC
8
BLACK
10
3.205
20
3.21488
40
0.0216535
50
0
51
180
0
LINE
8
BLACK
6
CONTINUOUS
10
3.13335
20
3.21488
11
3.13335
21
3.20701
0
LINE
8
BLACK
6
CONTINUOUS
10
3.17665
20
3.21488
11
3.17665
21
3.20701
0
ARC
8
BLACK
10
3.155
20
3.20701
40
0.0216535
50
180
51
360
0
ARC
8
BLACK
10
3.155
20
3.21488
40
0.0216535
50
0
51
180
0
LINE
8
BLACK
6
CONTINUOUS
10
3.08335
20
3.27394
11
3.08335
21
3.26606
0
LINE
8
BLACK
6
CONTINUOUS
10
3.12665
20
3.27394
11
3.12665
21
3.26606
0
ARC
8
BLACK
10
3.105
20
3.26606
40
0.0216535
50
180
51
360
0
ARC
8
BLACK
10
3.105
20
3.27394
40
0.0216535
50
0
51
180
0
LINE
8
BLACK
6
CONTINUOUS
10
3.03335
20
3.21488
11
3.03335
21
3.20701
0
LINE
8
BLACK
6
CONTINUOUS
10
3.07665
20
3.21488
11
3.07665
21
3.20701
0
ARC
8
BLACK
10
3.055
20
3.20701
40
0.0216535
50
180
51
360
0
ARC
8
BLACK
10
3.055
20
3.21488
40
0.0216535
50
0
51
180
0
LINE
8
BLACK
6
CONTINUOUS
10
2.98335
20
3.21488
11
2.98335
21
3.20701
0
LINE
8
BLACK
6
CONTINUOUS
10
3.02665
20
3.21488
11
3.02665
21
3.20701
0
ARC
8
BLACK
10
3.005
20
3.20701
40
0.0216535
50
180
51
360
0
ARC
8
BLACK
10
3.005
20
3.21488
40
0.0216535
50
0
51
180
0
LINE
8
BLACK
6
CONTINUOUS
10
2.93335
20
3.27394
11
2.93335
21
3.26606
0
LINE
8
BLACK
6
CONTINUOUS
10
2.97665
20
3.27394
11
2.97665
21
3.26606
0
ARC
8
BLACK
10
2.955
20
3.26606
40
0.0216535
50
180
51
360
0
ARC
8
BLACK
10
2.955
20
3.27394
40
0.0216535
50
0
51
180
0
CIRCLE
8
BLACK
10
2.84673
20
3.17157
40
0.0492126
0
CIRCLE
8
BLACK
10
3.35185
20
3.21094
40
0.0492126
0
LINE
8
BLACK
6
CONTINUOUS
10
0.214417
20
0.508984
11
0.148417
21
0.508984
0
LINE
8
BLACK
6
CONTINUOUS
10
0.148417
20
0.508984
11
0.148417
21
0.442984
0
LINE
8
BLACK
6
CONTINUOUS
10
0.148417
20
0.442984
11
0.214417
21
0.442984
0
LINE
8
BLACK
6
CONTINUOUS
10
0.214417
20
0.442984
11
0.214417
21
0.508984
0
LINE
8
BLACK
6
CONTINUOUS
10
0.214417
20
0.757016
11
0.148417
21
0.757016
0
LINE
8
BLACK
6
CONTINUOUS
10
0.148417
20
0.757016
11
0.148417
21
0.691016
0
LINE
8
BLACK
6
CONTINUOUS
10
0.148417
20
0.691016
11
0.214417
21
0.691016
0
LINE
8
BLACK
6
CONTINUOUS
10
0.214417
20
0.691016
11
0.214417
21
0.757016
0
LINE
8
BLACK
6
CONTINUOUS
10
0.391583
20
0.757016
11
0.325583
21
0.757016
0
LINE
8
BLACK
6
CONTINUOUS
10
0.325583
20
0.757016
11
0.325583
21
0.691016
0
LINE
8
BLACK
6
CONTINUOUS
10
0.325583
20
0.691016
11
0.391583
21
0.691016
0
LINE
8
BLACK
6
CONTINUOUS
10
0.391583
20
0.691016
11
0.391583
21
0.757016
0
LINE
8
BLACK
6
CONTINUOUS
10
0.391583
20
0.508984
11
0.325583
21
0.508984
0
LINE
8
BLACK
6
CONTINUOUS
10
0.325583
20
0.508984
11
0.325583
21
0.442984
0
LINE
8
BLACK
6
CONTINUOUS
10
0.325583
20
0.442984
11
0.391583
21
0.442984
0
LINE
8
BLACK
6
CONTINUOUS
10
0.391583
20
0.442984
11
0.391583
21
0.508984
0
LINE
8
BLACK
6
CONTINUOUS
10
3.18475
20
3.22192
11
3.18477
21
3.22185
0
LINE
8
BLACK
6
CONTINUOUS
10
3.18477
20
3.22185
11
3.18366
21
3.21803
0
LINE
8
BLACK
6
CONTINUOUS
10
3.18366
20
3.21803
11
3.18343
21
3.21488
0
LINE
8
BLACK
6
CONTINUOUS
10
3.18343
20
3.21488
11
3.18343
21
3.20701
0
LINE
8
BLACK
6
CONTINUOUS
10
3.18343
20
3.20701
11
3.18422
21
3.20121
0
LINE
8
BLACK
6
CONTINUOUS
10
3.18422
20
3.20121
11
3.18453
21
3.20048
0
LINE
8
BLACK
6
CONTINUOUS
10
3.18453
20
3.20048
11
3.18452
21
3.2004
0
LINE
8
BLACK
6
CONTINUOUS
10
3.18452
20
3.2004
11
3.18445
21
3.20037
0
LINE
8
BLACK
6
CONTINUOUS
10
3.18445
20
3.20037
11
3.1844
21
3.2004
0
LINE
8
BLACK
6
CONTINUOUS
10
3.1844
20
3.2004
11
3.18289
21
3.2024
0
LINE
8
BLACK
6
CONTINUOUS
10
3.18289
20
3.2024
11
3.18033
21
3.20334
0
LINE
8
BLACK
6
CONTINUOUS
10
3.18033
20
3.20334
11
3.17767
21
3.20275
0
LINE
8
BLACK
6
CONTINUOUS
10
3.17767
20
3.20275
11
3.17574
21
3.20081
0
LINE
8
BLACK
6
CONTINUOUS
10
3.17574
20
3.20081
11
3.17549
21
3.20027
0
LINE
8
BLACK
6
CONTINUOUS
10
3.17549
20
3.20027
11
3.17538
21
3.19999
0
LINE
8
BLACK
6
CONTINUOUS
10
3.17538
20
3.19999
11
3.17532
21
3.19994
0
LINE
8
BLACK
6
CONTINUOUS
10
3.17532
20
3.19994
11
3.17525
21
3.19997
0
LINE
8
BLACK
6
CONTINUOUS
10
3.17525
20
3.19997
11
3.17523
21
3.20004
0
LINE
8
BLACK
6
CONTINUOUS
10
3.17523
20
3.20004
11
3.17634
21
3.20386
0
LINE
8
BLACK
6
CONTINUOUS
10
3.17634
20
3.20386
11
3.17657
21
3.20701
0
LINE
8
BLACK
6
CONTINUOUS
10
3.17657
20
3.20701
11
3.17657
21
3.21488
0
LINE
8
BLACK
6
CONTINUOUS
10
3.17657
20
3.21488
11
3.17578
21
3.22068
0
LINE
8
BLACK
6
CONTINUOUS
10
3.17578
20
3.22068
11
3.17547
21
3.22141
0
LINE
8
BLACK
6
CONTINUOUS
10
3.17547
20
3.22141
11
3.17548
21
3.22149
0
LINE
8
BLACK
6
CONTINUOUS
10
3.17548
20
3.22149
11
3.17555
21
3.22152
0
LINE
8
BLACK
6
CONTINUOUS
10
3.17555
20
3.22152
11
3.1756
21
3.22149
0
LINE
8
BLACK
6
CONTINUOUS
10
3.1756
20
3.22149
11
3.17711
21
3.21949
0
LINE
8
BLACK
6
CONTINUOUS
10
3.17711
20
3.21949
11
3.17967
21
3.21855
0
LINE
8
BLACK
6
CONTINUOUS
10
3.17967
20
3.21855
11
3.18233
21
3.21914
0
LINE
8
BLACK
6
CONTINUOUS
10
3.18233
20
3.21914
11
3.18426
21
3.22108
0
LINE
8
BLACK
6
CONTINUOUS
10
3.18426
20
3.22108
11
3.18451
21
3.22162
0
LINE
8
BLACK
6
CONTINUOUS
10
3.18451
20
3.22162
11
3.18462
21
3.2219
0
LINE
8
BLACK
6
CONTINUOUS
10
3.18462
20
3.2219
11
3.18468
21
3.22195
0
LINE
8
BLACK
6
CONTINUOUS
10
3.18468
20
3.22195
11
3.18475
21
3.22192
0
LINE
8
BLACK
6
CONTINUOUS
10
3.03475
20
3.22192
11
3.03477
21
3.22185
0
LINE
8
BLACK
6
CONTINUOUS
10
3.03477
20
3.22185
11
3.03366
21
3.21803
0
LINE
8
BLACK
6
CONTINUOUS
10
3.03366
20
3.21803
11
3.03343
21
3.21488
0
LINE
8
BLACK
6
CONTINUOUS
10
3.03343
20
3.21488
11
3.03343
21
3.20701
0
LINE
8
BLACK
6
CONTINUOUS
10
3.03343
20
3.20701
11
3.03422
21
3.20121
0
LINE
8
BLACK
6
CONTINUOUS
10
3.03422
20
3.20121
11
3.03453
21
3.20048
0
LINE
8
BLACK
6
CONTINUOUS
10
3.03453
20
3.20048
11
3.03452
21
3.2004
0
LINE
8
BLACK
6
CONTINUOUS
10
3.03452
20
3.2004
11
3.03445
21
3.20037
0
LINE
8
BLACK
6
CONTINUOUS
10
3.03445
20
3.20037
11
3.0344
21
3.2004
0
LINE
8
BLACK
6
CONTINUOUS
10
3.0344
20
3.2004
11
3.03289
21
3.2024
0
LINE
8
BLACK
6
CONTINUOUS
10
3.03289
20
3.2024
11
3.03033
21
3.20334
0
LINE
8
BLACK
6
CONTINUOUS
10
3.03033
20
3.20334
11
3.02767
21
3.20275
0
LINE
8
BLACK
6
CONTINUOUS
10
3.02767
20
3.20275
11
3.02574
21
3.20081
0
LINE
8
BLACK
6
CONTINUOUS
10
3.02574
20
3.20081
11
3.02549
21
3.20027
0
LINE
8
BLACK
6
CONTINUOUS
10
3.02549
20
3.20027
11
3.02538
21
3.19999
0
LINE
8
BLACK
6
CONTINUOUS
10
3.02538
20
3.19999
11
3.02532
21
3.19994
0
LINE
8
BLACK
6
CONTINUOUS
10
3.02532
20
3.19994
11
3.02525
21
3.19997
0
LINE
8
BLACK
6
CONTINUOUS
10
3.02525
20
3.19997
11
3.02523
21
3.20004
0
LINE
8
BLACK
6
CONTINUOUS
10
3.02523
20
3.20004
11
3.02634
21
3.20386
0
LINE
8
BLACK
6
CONTINUOUS
10
3.02634
20
3.20386
11
3.02657
21
3.20701
0
LINE
8
BLACK
6
CONTINUOUS
10
3.02657
20
3.20701
11
3.02657
21
3.21488
0
LINE
8
BLACK
6
CONTINUOUS
10
3.02657
20
3.21488
11
3.02578
21
3.22068
0
LINE
8
BLACK
6
CONTINUOUS
10
3.02578
20
3.22068
11
3.02547
21
3.22141
0
LINE
8
BLACK
6
CONTINUOUS
10
3.02547
20
3.22141
11
3.02548
21
3.22149
0
LINE
8
BLACK
6
CONTINUOUS
10
3.02548
20
3.22149
11
3.02555
21
3.22152
0
LINE
8
BLACK
6
CONTINUOUS
10
3.02555
20
3.22152
11
3.0256
21
3.22149
0
LINE
8
BLACK
6
CONTINUOUS
10
3.0256
20
3.22149
11
3.02711
21
3.21949
0
LINE
8
BLACK
6
CONTINUOUS
10
3.02711
20
3.21949
11
3.02967
21
3.21855
0
LINE
8
BLACK
6
CONTINUOUS
10
3.02967
20
3.21855
11
3.03233
21
3.21914
0
LINE
8
BLACK
6
CONTINUOUS
10
3.03233
20
3.21914
11
3.03426
21
3.22108
0
LINE
8
BLACK
6
CONTINUOUS
10
3.03426
20
3.22108
11
3.03451
21
3.22162
0
LINE
8
BLACK
6
CONTINUOUS
10
3.03451
20
3.22162
11
3.03462
21
3.2219
0
LINE
8
BLACK
6
CONTINUOUS
10
3.03462
20
3.2219
11
3.03468
21
3.22195
0
LINE
8
BLACK
6
CONTINUOUS
10
3.03468
20
3.22195
11
3.03475
21
3.22192
  0
ENDSEC
  0
EOF
