  0
SECTION
  2
HEADER
  9
$ANGBASE
  50
0.0
  9
$ANGDIR
  70
1
  9
$MEASUREMENT
  70
0
  0
ENDSEC
  0
SECTION
  2
TABLES
  0
TABLE
  2
LTYPE
  70
4
  0
LTYPE
  5
40F
  2
CONTINUOUS
  70
0
  3
Solid line
  72
65
  73
0
  40
0.0
  0
LTYPE
  5
410
  2
DASHDOT
 70
0
  3
Dash Dot ____ _ ____ _
 72
65
 73
4
 40
2.0
 49
1.25
 49
-0.25
 49
0.25
 49
-0.25
  0
LTYPE
  5
411
  2
DASHED
 70
0
  3
Dashed __ __ __ __ __
 72
65
 73
2
 40
0.75
 49
0.5
 49
-0.25
  0
LTYPE
  5
43B
  2
DOTTED
 70
0
  3
Dotted .  .  .  .
 72
65
 73
2
 40
0.2
 49
0.0
 49
-0.2
  0
ENDTAB
  0
TABLE
  2
STYLE
  70
4
  0
STYLE
  2
KICAD
  70
0
  40
0
  41
1
  42
1
  50
0
  71
0
  3
isocp.shx
  0
STYLE
  2
KICADB
  70
0
  40
0
  41
1
  42
1
  50
0
  71
0
  3
isocp.shx
  0
STYLE
  2
KICADI
  70
0
  40
0
  41
1
  42
1
  50
15
  71
0
  3
isocp.shx
  0
STYLE
  2
KICADBI
  70
0
  40
0
  41
1
  42
1
  50
15
  71
0
  3
isocp.shx
  0
ENDTAB
  0
TABLE
  2
LAYER
  70
1
  0
LAYER
  2
BLACK
  70
0
  62
7
  6
CONTINUOUS
  0
ENDTAB
  0
ENDSEC
  0
SECTION
  2
ENTITIES
0
LINE
8
BLACK
6
CONTINUOUS
10
0.0779217
20
0.229534
11
0.0819746
21
0.242958
0
LINE
8
BLACK
6
CONTINUOUS
10
0.0819746
20
0.242958
11
0.0874986
21
0.255846
0
LINE
8
BLACK
6
CONTINUOUS
10
0.0874986
20
0.255846
11
0.0944248
21
0.268039
0
LINE
8
BLACK
6
CONTINUOUS
10
0.0944248
20
0.268039
11
0.102667
21
0.279383
0
LINE
8
BLACK
6
CONTINUOUS
10
0.102667
20
0.279383
11
0.112122
21
0.289738
0
LINE
8
BLACK
6
CONTINUOUS
10
0.112122
20
0.289738
11
0.122673
21
0.298974
0
LINE
8
BLACK
6
CONTINUOUS
10
0.122673
20
0.298974
11
0.134187
21
0.306977
0
LINE
8
BLACK
6
CONTINUOUS
10
0.134187
20
0.306977
11
0.146522
21
0.313646
0
LINE
8
BLACK
6
CONTINUOUS
10
0.146522
20
0.313646
11
0.159523
21
0.318899
0
LINE
8
BLACK
6
CONTINUOUS
10
0.159523
20
0.318899
11
0.173029
21
0.32267
0
LINE
8
BLACK
6
CONTINUOUS
10
0.173029
20
0.32267
11
0.186871
21
0.324912
0
LINE
8
BLACK
6
CONTINUOUS
10
0.186871
20
0.324912
11
0.200877
21
0.325597
0
LINE
8
BLACK
6
CONTINUOUS
10
0.200877
20
0.325597
11
0.214872
21
0.324716
0
LINE
8
BLACK
6
CONTINUOUS
10
0.214872
20
0.324716
11
0.228681
21
0.322281
0
LINE
8
BLACK
6
CONTINUOUS
10
0.228681
20
0.322281
11
0.242133
21
0.318322
0
LINE
8
BLACK
6
CONTINUOUS
10
0.242133
20
0.318322
11
0.255059
21
0.312889
0
LINE
8
BLACK
6
CONTINUOUS
10
0.255059
20
0.312889
11
0.2673
21
0.306048
0
LINE
8
BLACK
6
CONTINUOUS
10
0.2673
20
0.306048
11
0.278701
21
0.297885
0
LINE
8
BLACK
6
CONTINUOUS
10
0.278701
20
0.297885
11
0.289122
21
0.288502
0
LINE
8
BLACK
6
CONTINUOUS
10
0.289122
20
0.288502
11
0.298432
21
0.278016
0
LINE
8
BLACK
6
CONTINUOUS
10
0.298432
20
0.278016
11
0.306515
21
0.266558
0
LINE
8
BLACK
6
CONTINUOUS
10
0.306515
20
0.266558
11
0.31327
21
0.25427
0
LINE
8
BLACK
6
CONTINUOUS
10
0.31327
20
0.25427
11
0.318614
21
0.241306
0
LINE
8
BLACK
6
CONTINUOUS
10
0.318614
20
0.241306
11
0.322479
21
0.227826
0
LINE
8
BLACK
6
CONTINUOUS
10
0.322479
20
0.227826
11
0.324817
21
0.214001
0
LINE
8
BLACK
6
CONTINUOUS
10
0.324817
20
0.214001
11
0.3256
21
0.2
0
LINE
8
BLACK
6
CONTINUOUS
10
0.3256
20
0.2
11
0.325551
21
0.196493
0
LINE
8
BLACK
6
CONTINUOUS
10
0.325551
20
0.196493
11
0.324378
21
0.18252
0
LINE
8
BLACK
6
CONTINUOUS
10
0.324378
20
0.18252
11
0.321654
21
0.168765
0
LINE
8
BLACK
6
CONTINUOUS
10
0.321654
20
0.168765
11
0.317414
21
0.155399
0
LINE
8
BLACK
6
CONTINUOUS
10
0.317414
20
0.155399
11
0.311711
21
0.142589
0
LINE
8
BLACK
6
CONTINUOUS
10
0.311711
20
0.142589
11
0.304615
21
0.130494
0
LINE
8
BLACK
6
CONTINUOUS
10
0.304615
20
0.130494
11
0.296215
21
0.119266
0
LINE
8
BLACK
6
CONTINUOUS
10
0.296215
20
0.119266
11
0.286616
21
0.109044
0
LINE
8
BLACK
6
CONTINUOUS
10
0.286616
20
0.109044
11
0.275938
21
0.0999558
0
LINE
8
BLACK
6
CONTINUOUS
10
0.275938
20
0.0999558
11
0.264313
21
0.0921146
0
LINE
8
BLACK
6
CONTINUOUS
10
0.264313
20
0.0921146
11
0.251886
21
0.0856181
0
LINE
8
BLACK
6
CONTINUOUS
10
0.251886
20
0.0856181
11
0.238813
21
0.0805473
0
LINE
8
BLACK
6
CONTINUOUS
10
0.238813
20
0.0805473
11
0.225255
21
0.0769654
0
LINE
8
BLACK
6
CONTINUOUS
10
0.225255
20
0.0769654
11
0.211383
21
0.0749169
0
LINE
8
BLACK
6
CONTINUOUS
10
0.211383
20
0.0749169
11
0.19737
21
0.0744276
0
LINE
8
BLACK
6
CONTINUOUS
10
0.19737
20
0.0744276
11
0.183389
21
0.0755033
0
LINE
8
BLACK
6
CONTINUOUS
10
0.183389
20
0.0755033
11
0.169615
21
0.0781309
0
LINE
8
BLACK
6
CONTINUOUS
10
0.169615
20
0.0781309
11
0.156219
21
0.0822774
0
LINE
8
BLACK
6
CONTINUOUS
10
0.156219
20
0.0822774
11
0.14337
21
0.0878912
0
LINE
8
BLACK
6
CONTINUOUS
10
0.14337
20
0.0878912
11
0.131226
21
0.0949024
0
LINE
8
BLACK
6
CONTINUOUS
10
0.131226
20
0.0949024
11
0.11994
21
0.103224
0
LINE
8
BLACK
6
CONTINUOUS
10
0.11994
20
0.103224
11
0.109651
21
0.112751
0
LINE
8
BLACK
6
CONTINUOUS
10
0.109651
20
0.112751
11
0.100488
21
0.123366
0
LINE
8
BLACK
6
CONTINUOUS
10
0.100488
20
0.123366
11
0.0925663
21
0.134936
0
LINE
8
BLACK
6
CONTINUOUS
10
0.0925663
20
0.134936
11
0.0859831
21
0.147317
0
LINE
8
BLACK
6
CONTINUOUS
10
0.0859831
20
0.147317
11
0.0808212
21
0.160354
0
LINE
8
BLACK
6
CONTINUOUS
10
0.0808212
20
0.160354
11
0.0771446
21
0.173886
0
LINE
8
BLACK
6
CONTINUOUS
10
0.0771446
20
0.173886
11
0.0749994
21
0.187744
0
LINE
8
BLACK
6
CONTINUOUS
10
0.0749994
20
0.187744
11
0.0744122
21
0.201754
0
LINE
8
BLACK
6
CONTINUOUS
10
0.0744122
20
0.201754
11
0.074533
21
0.20348
0
LINE
8
BLACK
6
CONTINUOUS
10
0.074533
20
0.20348
11
0.0753904
21
0.215742
0
LINE
8
BLACK
6
CONTINUOUS
10
0.0753904
20
0.215742
11
0.0779217
21
0.229534
0
LINE
8
BLACK
6
CONTINUOUS
10
0.0913983
20
0.178102
11
0.0946349
21
0.165765
0
LINE
8
BLACK
6
CONTINUOUS
10
0.0946349
20
0.165765
11
0.0992681
21
0.153881
0
LINE
8
BLACK
6
CONTINUOUS
10
0.0992681
20
0.153881
11
0.105236
21
0.142609
0
LINE
8
BLACK
6
CONTINUOUS
10
0.105236
20
0.142609
11
0.112461
21
0.132098
0
LINE
8
BLACK
6
CONTINUOUS
10
0.112461
20
0.132098
11
0.120845
21
0.122486
0
LINE
8
BLACK
6
CONTINUOUS
10
0.120845
20
0.122486
11
0.130279
21
0.113902
0
LINE
8
BLACK
6
CONTINUOUS
10
0.130279
20
0.113902
11
0.140637
21
0.106459
0
LINE
8
BLACK
6
CONTINUOUS
10
0.140637
20
0.106459
11
0.151782
21
0.100256
0
LINE
8
BLACK
6
CONTINUOUS
10
0.151782
20
0.100256
11
0.163566
21
0.095375
0
LINE
8
BLACK
6
CONTINUOUS
10
0.163566
20
0.095375
11
0.175832
21
0.0918807
0
LINE
8
BLACK
6
CONTINUOUS
10
0.175832
20
0.0918807
11
0.18842
21
0.0898194
0
LINE
8
BLACK
6
CONTINUOUS
10
0.18842
20
0.0898194
11
0.20116
21
0.0892186
0
LINE
8
BLACK
6
CONTINUOUS
10
0.20116
20
0.0892186
11
0.213885
21
0.0900861
0
LINE
8
BLACK
6
CONTINUOUS
10
0.213885
20
0.0900861
11
0.226426
21
0.0924105
0
LINE
8
BLACK
6
CONTINUOUS
10
0.226426
20
0.0924105
11
0.238617
21
0.0961609
0
LINE
8
BLACK
6
CONTINUOUS
10
0.238617
20
0.0961609
11
0.250296
21
0.101288
0
LINE
8
BLACK
6
CONTINUOUS
10
0.250296
20
0.101288
11
0.261309
21
0.107723
0
LINE
8
BLACK
6
CONTINUOUS
10
0.261309
20
0.107723
11
0.271509
21
0.115381
0
LINE
8
BLACK
6
CONTINUOUS
10
0.271509
20
0.115381
11
0.280761
21
0.124161
0
LINE
8
BLACK
6
CONTINUOUS
10
0.280761
20
0.124161
11
0.288942
21
0.133946
0
LINE
8
BLACK
6
CONTINUOUS
10
0.288942
20
0.133946
11
0.295945
21
0.144606
0
LINE
8
BLACK
6
CONTINUOUS
10
0.295945
20
0.144606
11
0.301676
21
0.156001
0
LINE
8
BLACK
6
CONTINUOUS
10
0.301676
20
0.156001
11
0.306059
21
0.167979
0
LINE
8
BLACK
6
CONTINUOUS
10
0.306059
20
0.167979
11
0.309036
21
0.180381
0
LINE
8
BLACK
6
CONTINUOUS
10
0.309036
20
0.180381
11
0.310569
21
0.193044
0
LINE
8
BLACK
6
CONTINUOUS
10
0.310569
20
0.193044
11
0.310787
21
0.2
0
LINE
8
BLACK
6
CONTINUOUS
10
0.310787
20
0.2
11
0.310053
21
0.212734
0
LINE
8
BLACK
6
CONTINUOUS
10
0.310053
20
0.212734
11
0.30786
21
0.225298
0
LINE
8
BLACK
6
CONTINUOUS
10
0.30786
20
0.225298
11
0.304238
21
0.237528
0
LINE
8
BLACK
6
CONTINUOUS
10
0.304238
20
0.237528
11
0.299234
21
0.24926
0
LINE
8
BLACK
6
CONTINUOUS
10
0.299234
20
0.24926
11
0.292914
21
0.260339
0
LINE
8
BLACK
6
CONTINUOUS
10
0.292914
20
0.260339
11
0.285363
21
0.270619
0
LINE
8
BLACK
6
CONTINUOUS
10
0.285363
20
0.270619
11
0.276681
21
0.279962
0
LINE
8
BLACK
6
CONTINUOUS
10
0.276681
20
0.279962
11
0.266982
21
0.288246
0
LINE
8
BLACK
6
CONTINUOUS
10
0.266982
20
0.288246
11
0.256395
21
0.295359
0
LINE
8
BLACK
6
CONTINUOUS
10
0.256395
20
0.295359
11
0.245061
21
0.301209
0
LINE
8
BLACK
6
CONTINUOUS
10
0.245061
20
0.301209
11
0.23313
21
0.305718
0
LINE
8
BLACK
6
CONTINUOUS
10
0.23313
20
0.305718
11
0.220759
21
0.308825
0
LINE
8
BLACK
6
CONTINUOUS
10
0.220759
20
0.308825
11
0.208114
21
0.31049
0
LINE
8
BLACK
6
CONTINUOUS
10
0.208114
20
0.31049
11
0.195361
21
0.31069
0
LINE
8
BLACK
6
CONTINUOUS
10
0.195361
20
0.31069
11
0.182669
21
0.309423
0
LINE
8
BLACK
6
CONTINUOUS
10
0.182669
20
0.309423
11
0.170207
21
0.306706
0
LINE
8
BLACK
6
CONTINUOUS
10
0.170207
20
0.306706
11
0.15814
21
0.302575
0
LINE
8
BLACK
6
CONTINUOUS
10
0.15814
20
0.302575
11
0.146628
21
0.297084
0
LINE
8
BLACK
6
CONTINUOUS
10
0.146628
20
0.297084
11
0.135823
21
0.290306
0
LINE
8
BLACK
6
CONTINUOUS
10
0.135823
20
0.290306
11
0.125869
21
0.282331
0
LINE
8
BLACK
6
CONTINUOUS
10
0.125869
20
0.282331
11
0.116897
21
0.273265
0
LINE
8
BLACK
6
CONTINUOUS
10
0.116897
20
0.273265
11
0.109027
21
0.263228
0
LINE
8
BLACK
6
CONTINUOUS
10
0.109027
20
0.263228
11
0.102363
21
0.252353
0
LINE
8
BLACK
6
CONTINUOUS
10
0.102363
20
0.252353
11
0.0969924
21
0.240784
0
LINE
8
BLACK
6
CONTINUOUS
10
0.0969924
20
0.240784
11
0.0929876
21
0.228674
0
LINE
8
BLACK
6
CONTINUOUS
10
0.0929876
20
0.228674
11
0.0904011
21
0.216184
0
LINE
8
BLACK
6
CONTINUOUS
10
0.0904011
20
0.216184
11
0.0892672
21
0.20348
0
LINE
8
BLACK
6
CONTINUOUS
10
0.0892672
20
0.20348
11
0.0896011
21
0.19073
0
LINE
8
BLACK
6
CONTINUOUS
10
0.0896011
20
0.19073
11
0.0913983
21
0.178102
0
LINE
8
BLACK
6
CONTINUOUS
10
0.0779217
20
3.82953
11
0.0819746
21
3.84296
0
LINE
8
BLACK
6
CONTINUOUS
10
0.0819746
20
3.84296
11
0.0874986
21
3.85585
0
LINE
8
BLACK
6
CONTINUOUS
10
0.0874986
20
3.85585
11
0.0944248
21
3.86804
0
LINE
8
BLACK
6
CONTINUOUS
10
0.0944248
20
3.86804
11
0.102667
21
3.87938
0
LINE
8
BLACK
6
CONTINUOUS
10
0.102667
20
3.87938
11
0.112122
21
3.88974
0
LINE
8
BLACK
6
CONTINUOUS
10
0.112122
20
3.88974
11
0.122673
21
3.89897
0
LINE
8
BLACK
6
CONTINUOUS
10
0.122673
20
3.89897
11
0.134187
21
3.90698
0
LINE
8
BLACK
6
CONTINUOUS
10
0.134187
20
3.90698
11
0.146522
21
3.91365
0
LINE
8
BLACK
6
CONTINUOUS
10
0.146522
20
3.91365
11
0.159523
21
3.9189
0
LINE
8
BLACK
6
CONTINUOUS
10
0.159523
20
3.9189
11
0.173029
21
3.92267
0
LINE
8
BLACK
6
CONTINUOUS
10
0.173029
20
3.92267
11
0.186871
21
3.92491
0
LINE
8
BLACK
6
CONTINUOUS
10
0.186871
20
3.92491
11
0.200877
21
3.9256
0
LINE
8
BLACK
6
CONTINUOUS
10
0.200877
20
3.9256
11
0.214872
21
3.92472
0
LINE
8
BLACK
6
CONTINUOUS
10
0.214872
20
3.92472
11
0.228681
21
3.92228
0
LINE
8
BLACK
6
CONTINUOUS
10
0.228681
20
3.92228
11
0.242133
21
3.91832
0
LINE
8
BLACK
6
CONTINUOUS
10
0.242133
20
3.91832
11
0.255059
21
3.91289
0
LINE
8
BLACK
6
CONTINUOUS
10
0.255059
20
3.91289
11
0.2673
21
3.90605
0
LINE
8
BLACK
6
CONTINUOUS
10
0.2673
20
3.90605
11
0.278701
21
3.89788
0
LINE
8
BLACK
6
CONTINUOUS
10
0.278701
20
3.89788
11
0.289122
21
3.8885
0
LINE
8
BLACK
6
CONTINUOUS
10
0.289122
20
3.8885
11
0.298432
21
3.87802
0
LINE
8
BLACK
6
CONTINUOUS
10
0.298432
20
3.87802
11
0.306515
21
3.86656
0
LINE
8
BLACK
6
CONTINUOUS
10
0.306515
20
3.86656
11
0.31327
21
3.85427
0
LINE
8
BLACK
6
CONTINUOUS
10
0.31327
20
3.85427
11
0.318614
21
3.84131
0
LINE
8
BLACK
6
CONTINUOUS
10
0.318614
20
3.84131
11
0.322479
21
3.82783
0
LINE
8
BLACK
6
CONTINUOUS
10
0.322479
20
3.82783
11
0.324817
21
3.814
0
LINE
8
BLACK
6
CONTINUOUS
10
0.324817
20
3.814
11
0.3256
21
3.8
0
LINE
8
BLACK
6
CONTINUOUS
10
0.3256
20
3.8
11
0.325551
21
3.79649
0
LINE
8
BLACK
6
CONTINUOUS
10
0.325551
20
3.79649
11
0.324378
21
3.78252
0
LINE
8
BLACK
6
CONTINUOUS
10
0.324378
20
3.78252
11
0.321654
21
3.76876
0
LINE
8
BLACK
6
CONTINUOUS
10
0.321654
20
3.76876
11
0.317414
21
3.7554
0
LINE
8
BLACK
6
CONTINUOUS
10
0.317414
20
3.7554
11
0.311711
21
3.74259
0
LINE
8
BLACK
6
CONTINUOUS
10
0.311711
20
3.74259
11
0.304615
21
3.73049
0
LINE
8
BLACK
6
CONTINUOUS
10
0.304615
20
3.73049
11
0.296215
21
3.71927
0
LINE
8
BLACK
6
CONTINUOUS
10
0.296215
20
3.71927
11
0.286616
21
3.70904
0
LINE
8
BLACK
6
CONTINUOUS
10
0.286616
20
3.70904
11
0.275938
21
3.69996
0
LINE
8
BLACK
6
CONTINUOUS
10
0.275938
20
3.69996
11
0.264313
21
3.69211
0
LINE
8
BLACK
6
CONTINUOUS
10
0.264313
20
3.69211
11
0.251886
21
3.68562
0
LINE
8
BLACK
6
CONTINUOUS
10
0.251886
20
3.68562
11
0.238813
21
3.68055
0
LINE
8
BLACK
6
CONTINUOUS
10
0.238813
20
3.68055
11
0.225255
21
3.67697
0
LINE
8
BLACK
6
CONTINUOUS
10
0.225255
20
3.67697
11
0.211383
21
3.67492
0
LINE
8
BLACK
6
CONTINUOUS
10
0.211383
20
3.67492
11
0.19737
21
3.67443
0
LINE
8
BLACK
6
CONTINUOUS
10
0.19737
20
3.67443
11
0.183389
21
3.6755
0
LINE
8
BLACK
6
CONTINUOUS
10
0.183389
20
3.6755
11
0.169615
21
3.67813
0
LINE
8
BLACK
6
CONTINUOUS
10
0.169615
20
3.67813
11
0.156219
21
3.68228
0
LINE
8
BLACK
6
CONTINUOUS
10
0.156219
20
3.68228
11
0.14337
21
3.68789
0
LINE
8
BLACK
6
CONTINUOUS
10
0.14337
20
3.68789
11
0.131226
21
3.6949
0
LINE
8
BLACK
6
CONTINUOUS
10
0.131226
20
3.6949
11
0.11994
21
3.70322
0
LINE
8
BLACK
6
CONTINUOUS
10
0.11994
20
3.70322
11
0.109651
21
3.71275
0
LINE
8
BLACK
6
CONTINUOUS
10
0.109651
20
3.71275
11
0.100488
21
3.72337
0
LINE
8
BLACK
6
CONTINUOUS
10
0.100488
20
3.72337
11
0.0925663
21
3.73494
0
LINE
8
BLACK
6
CONTINUOUS
10
0.0925663
20
3.73494
11
0.0859831
21
3.74732
0
LINE
8
BLACK
6
CONTINUOUS
10
0.0859831
20
3.74732
11
0.0808212
21
3.76035
0
LINE
8
BLACK
6
CONTINUOUS
10
0.0808212
20
3.76035
11
0.0771446
21
3.77389
0
LINE
8
BLACK
6
CONTINUOUS
10
0.0771446
20
3.77389
11
0.0749994
21
3.78774
0
LINE
8
BLACK
6
CONTINUOUS
10
0.0749994
20
3.78774
11
0.0744122
21
3.80175
0
LINE
8
BLACK
6
CONTINUOUS
10
0.0744122
20
3.80175
11
0.074533
21
3.80348
0
LINE
8
BLACK
6
CONTINUOUS
10
0.074533
20
3.80348
11
0.0753904
21
3.81574
0
LINE
8
BLACK
6
CONTINUOUS
10
0.0753904
20
3.81574
11
0.0779217
21
3.82953
0
LINE
8
BLACK
6
CONTINUOUS
10
0.0913983
20
3.7781
11
0.0946349
21
3.76576
0
LINE
8
BLACK
6
CONTINUOUS
10
0.0946349
20
3.76576
11
0.0992681
21
3.75388
0
LINE
8
BLACK
6
CONTINUOUS
10
0.0992681
20
3.75388
11
0.105236
21
3.74261
0
LINE
8
BLACK
6
CONTINUOUS
10
0.105236
20
3.74261
11
0.112461
21
3.7321
0
LINE
8
BLACK
6
CONTINUOUS
10
0.112461
20
3.7321
11
0.120845
21
3.72249
0
LINE
8
BLACK
6
CONTINUOUS
10
0.120845
20
3.72249
11
0.130279
21
3.7139
0
LINE
8
BLACK
6
CONTINUOUS
10
0.130279
20
3.7139
11
0.140637
21
3.70646
0
LINE
8
BLACK
6
CONTINUOUS
10
0.140637
20
3.70646
11
0.151782
21
3.70026
0
LINE
8
BLACK
6
CONTINUOUS
10
0.151782
20
3.70026
11
0.163566
21
3.69537
0
LINE
8
BLACK
6
CONTINUOUS
10
0.163566
20
3.69537
11
0.175832
21
3.69188
0
LINE
8
BLACK
6
CONTINUOUS
10
0.175832
20
3.69188
11
0.18842
21
3.68982
0
LINE
8
BLACK
6
CONTINUOUS
10
0.18842
20
3.68982
11
0.20116
21
3.68922
0
LINE
8
BLACK
6
CONTINUOUS
10
0.20116
20
3.68922
11
0.213885
21
3.69009
0
LINE
8
BLACK
6
CONTINUOUS
10
0.213885
20
3.69009
11
0.226426
21
3.69241
0
LINE
8
BLACK
6
CONTINUOUS
10
0.226426
20
3.69241
11
0.238617
21
3.69616
0
LINE
8
BLACK
6
CONTINUOUS
10
0.238617
20
3.69616
11
0.250296
21
3.70129
0
LINE
8
BLACK
6
CONTINUOUS
10
0.250296
20
3.70129
11
0.261309
21
3.70772
0
LINE
8
BLACK
6
CONTINUOUS
10
0.261309
20
3.70772
11
0.271509
21
3.71538
0
LINE
8
BLACK
6
CONTINUOUS
10
0.271509
20
3.71538
11
0.280761
21
3.72416
0
LINE
8
BLACK
6
CONTINUOUS
10
0.280761
20
3.72416
11
0.288942
21
3.73395
0
LINE
8
BLACK
6
CONTINUOUS
10
0.288942
20
3.73395
11
0.295945
21
3.74461
0
LINE
8
BLACK
6
CONTINUOUS
10
0.295945
20
3.74461
11
0.301676
21
3.756
0
LINE
8
BLACK
6
CONTINUOUS
10
0.301676
20
3.756
11
0.306059
21
3.76798
0
LINE
8
BLACK
6
CONTINUOUS
10
0.306059
20
3.76798
11
0.309036
21
3.78038
0
LINE
8
BLACK
6
CONTINUOUS
10
0.309036
20
3.78038
11
0.310569
21
3.79304
0
LINE
8
BLACK
6
CONTINUOUS
10
0.310569
20
3.79304
11
0.310787
21
3.8
0
LINE
8
BLACK
6
CONTINUOUS
10
0.310787
20
3.8
11
0.310053
21
3.81273
0
LINE
8
BLACK
6
CONTINUOUS
10
0.310053
20
3.81273
11
0.30786
21
3.8253
0
LINE
8
BLACK
6
CONTINUOUS
10
0.30786
20
3.8253
11
0.304238
21
3.83753
0
LINE
8
BLACK
6
CONTINUOUS
10
0.304238
20
3.83753
11
0.299234
21
3.84926
0
LINE
8
BLACK
6
CONTINUOUS
10
0.299234
20
3.84926
11
0.292914
21
3.86034
0
LINE
8
BLACK
6
CONTINUOUS
10
0.292914
20
3.86034
11
0.285363
21
3.87062
0
LINE
8
BLACK
6
CONTINUOUS
10
0.285363
20
3.87062
11
0.276681
21
3.87996
0
LINE
8
BLACK
6
CONTINUOUS
10
0.276681
20
3.87996
11
0.266982
21
3.88825
0
LINE
8
BLACK
6
CONTINUOUS
10
0.266982
20
3.88825
11
0.256395
21
3.89536
0
LINE
8
BLACK
6
CONTINUOUS
10
0.256395
20
3.89536
11
0.245061
21
3.90121
0
LINE
8
BLACK
6
CONTINUOUS
10
0.245061
20
3.90121
11
0.23313
21
3.90572
0
LINE
8
BLACK
6
CONTINUOUS
10
0.23313
20
3.90572
11
0.220759
21
3.90883
0
LINE
8
BLACK
6
CONTINUOUS
10
0.220759
20
3.90883
11
0.208114
21
3.91049
0
LINE
8
BLACK
6
CONTINUOUS
10
0.208114
20
3.91049
11
0.195361
21
3.91069
0
LINE
8
BLACK
6
CONTINUOUS
10
0.195361
20
3.91069
11
0.182669
21
3.90942
0
LINE
8
BLACK
6
CONTINUOUS
10
0.182669
20
3.90942
11
0.170207
21
3.90671
0
LINE
8
BLACK
6
CONTINUOUS
10
0.170207
20
3.90671
11
0.15814
21
3.90257
0
LINE
8
BLACK
6
CONTINUOUS
10
0.15814
20
3.90257
11
0.146628
21
3.89708
0
LINE
8
BLACK
6
CONTINUOUS
10
0.146628
20
3.89708
11
0.135823
21
3.89031
0
LINE
8
BLACK
6
CONTINUOUS
10
0.135823
20
3.89031
11
0.125869
21
3.88233
0
LINE
8
BLACK
6
CONTINUOUS
10
0.125869
20
3.88233
11
0.116897
21
3.87327
0
LINE
8
BLACK
6
CONTINUOUS
10
0.116897
20
3.87327
11
0.109027
21
3.86323
0
LINE
8
BLACK
6
CONTINUOUS
10
0.109027
20
3.86323
11
0.102363
21
3.85235
0
LINE
8
BLACK
6
CONTINUOUS
10
0.102363
20
3.85235
11
0.0969924
21
3.84078
0
LINE
8
BLACK
6
CONTINUOUS
10
0.0969924
20
3.84078
11
0.0929876
21
3.82867
0
LINE
8
BLACK
6
CONTINUOUS
10
0.0929876
20
3.82867
11
0.0904011
21
3.81618
0
LINE
8
BLACK
6
CONTINUOUS
10
0.0904011
20
3.81618
11
0.0892672
21
3.80348
0
LINE
8
BLACK
6
CONTINUOUS
10
0.0892672
20
3.80348
11
0.0896011
21
3.79073
0
LINE
8
BLACK
6
CONTINUOUS
10
0.0896011
20
3.79073
11
0.0913983
21
3.7781
0
LINE
8
BLACK
6
CONTINUOUS
10
3.67792
20
3.82953
11
3.68197
21
3.84296
0
LINE
8
BLACK
6
CONTINUOUS
10
3.68197
20
3.84296
11
3.6875
21
3.85585
0
LINE
8
BLACK
6
CONTINUOUS
10
3.6875
20
3.85585
11
3.69442
21
3.86804
0
LINE
8
BLACK
6
CONTINUOUS
10
3.69442
20
3.86804
11
3.70267
21
3.87938
0
LINE
8
BLACK
6
CONTINUOUS
10
3.70267
20
3.87938
11
3.71212
21
3.88974
0
LINE
8
BLACK
6
CONTINUOUS
10
3.71212
20
3.88974
11
3.72267
21
3.89897
0
LINE
8
BLACK
6
CONTINUOUS
10
3.72267
20
3.89897
11
3.73419
21
3.90698
0
LINE
8
BLACK
6
CONTINUOUS
10
3.73419
20
3.90698
11
3.74652
21
3.91365
0
LINE
8
BLACK
6
CONTINUOUS
10
3.74652
20
3.91365
11
3.75952
21
3.9189
0
LINE
8
BLACK
6
CONTINUOUS
10
3.75952
20
3.9189
11
3.77303
21
3.92267
0
LINE
8
BLACK
6
CONTINUOUS
10
3.77303
20
3.92267
11
3.78687
21
3.92491
0
LINE
8
BLACK
6
CONTINUOUS
10
3.78687
20
3.92491
11
3.80088
21
3.9256
0
LINE
8
BLACK
6
CONTINUOUS
10
3.80088
20
3.9256
11
3.81487
21
3.92472
0
LINE
8
BLACK
6
CONTINUOUS
10
3.81487
20
3.92472
11
3.82868
21
3.92228
0
LINE
8
BLACK
6
CONTINUOUS
10
3.82868
20
3.92228
11
3.84213
21
3.91832
0
LINE
8
BLACK
6
CONTINUOUS
10
3.84213
20
3.91832
11
3.85506
21
3.91289
0
LINE
8
BLACK
6
CONTINUOUS
10
3.85506
20
3.91289
11
3.8673
21
3.90605
0
LINE
8
BLACK
6
CONTINUOUS
10
3.8673
20
3.90605
11
3.8787
21
3.89788
0
LINE
8
BLACK
6
CONTINUOUS
10
3.8787
20
3.89788
11
3.88912
21
3.8885
0
LINE
8
BLACK
6
CONTINUOUS
10
3.88912
20
3.8885
11
3.89843
21
3.87802
0
LINE
8
BLACK
6
CONTINUOUS
10
3.89843
20
3.87802
11
3.90651
21
3.86656
0
LINE
8
BLACK
6
CONTINUOUS
10
3.90651
20
3.86656
11
3.91327
21
3.85427
0
LINE
8
BLACK
6
CONTINUOUS
10
3.91327
20
3.85427
11
3.91861
21
3.84131
0
LINE
8
BLACK
6
CONTINUOUS
10
3.91861
20
3.84131
11
3.92248
21
3.82783
0
LINE
8
BLACK
6
CONTINUOUS
10
3.92248
20
3.82783
11
3.92482
21
3.814
0
LINE
8
BLACK
6
CONTINUOUS
10
3.92482
20
3.814
11
3.9256
21
3.8
0
LINE
8
BLACK
6
CONTINUOUS
10
3.9256
20
3.8
11
3.92555
21
3.79649
0
LINE
8
BLACK
6
CONTINUOUS
10
3.92555
20
3.79649
11
3.92438
21
3.78252
0
LINE
8
BLACK
6
CONTINUOUS
10
3.92438
20
3.78252
11
3.92165
21
3.76876
0
LINE
8
BLACK
6
CONTINUOUS
10
3.92165
20
3.76876
11
3.91741
21
3.7554
0
LINE
8
BLACK
6
CONTINUOUS
10
3.91741
20
3.7554
11
3.91171
21
3.74259
0
LINE
8
BLACK
6
CONTINUOUS
10
3.91171
20
3.74259
11
3.90461
21
3.73049
0
LINE
8
BLACK
6
CONTINUOUS
10
3.90461
20
3.73049
11
3.89622
21
3.71927
0
LINE
8
BLACK
6
CONTINUOUS
10
3.89622
20
3.71927
11
3.88662
21
3.70904
0
LINE
8
BLACK
6
CONTINUOUS
10
3.88662
20
3.70904
11
3.87594
21
3.69996
0
LINE
8
BLACK
6
CONTINUOUS
10
3.87594
20
3.69996
11
3.86431
21
3.69211
0
LINE
8
BLACK
6
CONTINUOUS
10
3.86431
20
3.69211
11
3.85189
21
3.68562
0
LINE
8
BLACK
6
CONTINUOUS
10
3.85189
20
3.68562
11
3.83881
21
3.68055
0
LINE
8
BLACK
6
CONTINUOUS
10
3.83881
20
3.68055
11
3.82526
21
3.67697
0
LINE
8
BLACK
6
CONTINUOUS
10
3.82526
20
3.67697
11
3.81138
21
3.67492
0
LINE
8
BLACK
6
CONTINUOUS
10
3.81138
20
3.67492
11
3.79737
21
3.67443
0
LINE
8
BLACK
6
CONTINUOUS
10
3.79737
20
3.67443
11
3.78339
21
3.6755
0
LINE
8
BLACK
6
CONTINUOUS
10
3.78339
20
3.6755
11
3.76961
21
3.67813
0
LINE
8
BLACK
6
CONTINUOUS
10
3.76961
20
3.67813
11
3.75622
21
3.68228
0
LINE
8
BLACK
6
CONTINUOUS
10
3.75622
20
3.68228
11
3.74337
21
3.68789
0
LINE
8
BLACK
6
CONTINUOUS
10
3.74337
20
3.68789
11
3.73123
21
3.6949
0
LINE
8
BLACK
6
CONTINUOUS
10
3.73123
20
3.6949
11
3.71994
21
3.70322
0
LINE
8
BLACK
6
CONTINUOUS
10
3.71994
20
3.70322
11
3.70965
21
3.71275
0
LINE
8
BLACK
6
CONTINUOUS
10
3.70965
20
3.71275
11
3.70049
21
3.72337
0
LINE
8
BLACK
6
CONTINUOUS
10
3.70049
20
3.72337
11
3.69257
21
3.73494
0
LINE
8
BLACK
6
CONTINUOUS
10
3.69257
20
3.73494
11
3.68598
21
3.74732
0
LINE
8
BLACK
6
CONTINUOUS
10
3.68598
20
3.74732
11
3.68082
21
3.76035
0
LINE
8
BLACK
6
CONTINUOUS
10
3.68082
20
3.76035
11
3.67714
21
3.77389
0
LINE
8
BLACK
6
CONTINUOUS
10
3.67714
20
3.77389
11
3.675
21
3.78774
0
LINE
8
BLACK
6
CONTINUOUS
10
3.675
20
3.78774
11
3.67441
21
3.80175
0
LINE
8
BLACK
6
CONTINUOUS
10
3.67441
20
3.80175
11
3.67453
21
3.80348
0
LINE
8
BLACK
6
CONTINUOUS
10
3.67453
20
3.80348
11
3.67539
21
3.81574
0
LINE
8
BLACK
6
CONTINUOUS
10
3.67539
20
3.81574
11
3.67792
21
3.82953
0
LINE
8
BLACK
6
CONTINUOUS
10
3.6914
20
3.7781
11
3.69463
21
3.76576
0
LINE
8
BLACK
6
CONTINUOUS
10
3.69463
20
3.76576
11
3.69927
21
3.75388
0
LINE
8
BLACK
6
CONTINUOUS
10
3.69927
20
3.75388
11
3.70524
21
3.74261
0
LINE
8
BLACK
6
CONTINUOUS
10
3.70524
20
3.74261
11
3.71246
21
3.7321
0
LINE
8
BLACK
6
CONTINUOUS
10
3.71246
20
3.7321
11
3.72085
21
3.72249
0
LINE
8
BLACK
6
CONTINUOUS
10
3.72085
20
3.72249
11
3.73028
21
3.7139
0
LINE
8
BLACK
6
CONTINUOUS
10
3.73028
20
3.7139
11
3.74064
21
3.70646
0
LINE
8
BLACK
6
CONTINUOUS
10
3.74064
20
3.70646
11
3.75178
21
3.70026
0
LINE
8
BLACK
6
CONTINUOUS
10
3.75178
20
3.70026
11
3.76357
21
3.69537
0
LINE
8
BLACK
6
CONTINUOUS
10
3.76357
20
3.69537
11
3.77583
21
3.69188
0
LINE
8
BLACK
6
CONTINUOUS
10
3.77583
20
3.69188
11
3.78842
21
3.68982
0
LINE
8
BLACK
6
CONTINUOUS
10
3.78842
20
3.68982
11
3.80116
21
3.68922
0
LINE
8
BLACK
6
CONTINUOUS
10
3.80116
20
3.68922
11
3.81389
21
3.69009
0
LINE
8
BLACK
6
CONTINUOUS
10
3.81389
20
3.69009
11
3.82643
21
3.69241
0
LINE
8
BLACK
6
CONTINUOUS
10
3.82643
20
3.69241
11
3.83862
21
3.69616
0
LINE
8
BLACK
6
CONTINUOUS
10
3.83862
20
3.69616
11
3.8503
21
3.70129
0
LINE
8
BLACK
6
CONTINUOUS
10
3.8503
20
3.70129
11
3.86131
21
3.70772
0
LINE
8
BLACK
6
CONTINUOUS
10
3.86131
20
3.70772
11
3.87151
21
3.71538
0
LINE
8
BLACK
6
CONTINUOUS
10
3.87151
20
3.71538
11
3.88076
21
3.72416
0
LINE
8
BLACK
6
CONTINUOUS
10
3.88076
20
3.72416
11
3.88894
21
3.73395
0
LINE
8
BLACK
6
CONTINUOUS
10
3.88894
20
3.73395
11
3.89594
21
3.74461
0
LINE
8
BLACK
6
CONTINUOUS
10
3.89594
20
3.74461
11
3.90168
21
3.756
0
LINE
8
BLACK
6
CONTINUOUS
10
3.90168
20
3.756
11
3.90606
21
3.76798
0
LINE
8
BLACK
6
CONTINUOUS
10
3.90606
20
3.76798
11
3.90904
21
3.78038
0
LINE
8
BLACK
6
CONTINUOUS
10
3.90904
20
3.78038
11
3.91057
21
3.79304
0
LINE
8
BLACK
6
CONTINUOUS
10
3.91057
20
3.79304
11
3.91079
21
3.8
0
LINE
8
BLACK
6
CONTINUOUS
10
3.91079
20
3.8
11
3.91005
21
3.81273
0
LINE
8
BLACK
6
CONTINUOUS
10
3.91005
20
3.81273
11
3.90786
21
3.8253
0
LINE
8
BLACK
6
CONTINUOUS
10
3.90786
20
3.8253
11
3.90424
21
3.83753
0
LINE
8
BLACK
6
CONTINUOUS
10
3.90424
20
3.83753
11
3.89923
21
3.84926
0
LINE
8
BLACK
6
CONTINUOUS
10
3.89923
20
3.84926
11
3.89291
21
3.86034
0
LINE
8
BLACK
6
CONTINUOUS
10
3.89291
20
3.86034
11
3.88536
21
3.87062
0
LINE
8
BLACK
6
CONTINUOUS
10
3.88536
20
3.87062
11
3.87668
21
3.87996
0
LINE
8
BLACK
6
CONTINUOUS
10
3.87668
20
3.87996
11
3.86698
21
3.88825
0
LINE
8
BLACK
6
CONTINUOUS
10
3.86698
20
3.88825
11
3.8564
21
3.89536
0
LINE
8
BLACK
6
CONTINUOUS
10
3.8564
20
3.89536
11
3.84506
21
3.90121
0
LINE
8
BLACK
6
CONTINUOUS
10
3.84506
20
3.90121
11
3.83313
21
3.90572
0
LINE
8
BLACK
6
CONTINUOUS
10
3.83313
20
3.90572
11
3.82076
21
3.90883
0
LINE
8
BLACK
6
CONTINUOUS
10
3.82076
20
3.90883
11
3.80811
21
3.91049
0
LINE
8
BLACK
6
CONTINUOUS
10
3.80811
20
3.91049
11
3.79536
21
3.91069
0
LINE
8
BLACK
6
CONTINUOUS
10
3.79536
20
3.91069
11
3.78267
21
3.90942
0
LINE
8
BLACK
6
CONTINUOUS
10
3.78267
20
3.90942
11
3.77021
21
3.90671
0
LINE
8
BLACK
6
CONTINUOUS
10
3.77021
20
3.90671
11
3.75814
21
3.90257
0
LINE
8
BLACK
6
CONTINUOUS
10
3.75814
20
3.90257
11
3.74663
21
3.89708
0
LINE
8
BLACK
6
CONTINUOUS
10
3.74663
20
3.89708
11
3.73582
21
3.89031
0
LINE
8
BLACK
6
CONTINUOUS
10
3.73582
20
3.89031
11
3.72587
21
3.88233
0
LINE
8
BLACK
6
CONTINUOUS
10
3.72587
20
3.88233
11
3.7169
21
3.87327
0
LINE
8
BLACK
6
CONTINUOUS
10
3.7169
20
3.87327
11
3.70903
21
3.86323
0
LINE
8
BLACK
6
CONTINUOUS
10
3.70903
20
3.86323
11
3.70236
21
3.85235
0
LINE
8
BLACK
6
CONTINUOUS
10
3.70236
20
3.85235
11
3.69699
21
3.84078
0
LINE
8
BLACK
6
CONTINUOUS
10
3.69699
20
3.84078
11
3.69299
21
3.82867
0
LINE
8
BLACK
6
CONTINUOUS
10
3.69299
20
3.82867
11
3.6904
21
3.81618
0
LINE
8
BLACK
6
CONTINUOUS
10
3.6904
20
3.81618
11
3.68927
21
3.80348
0
LINE
8
BLACK
6
CONTINUOUS
10
3.68927
20
3.80348
11
3.6896
21
3.79073
0
LINE
8
BLACK
6
CONTINUOUS
10
3.6896
20
3.79073
11
3.6914
21
3.7781
  0
ENDSEC
  0
EOF
