  0
SECTION
  2
HEADER
  9
$ANGBASE
  50
0.0
  9
$ANGDIR
  70
1
  9
$MEASUREMENT
  70
0
  0
ENDSEC
  0
SECTION
  2
TABLES
  0
TABLE
  2
LTYPE
  70
4
  0
LTYPE
  5
40F
  2
CONTINUOUS
  70
0
  3
Solid line
  72
65
  73
0
  40
0.0
  0
LTYPE
  5
410
  2
DASHDOT
 70
0
  3
Dash Dot ____ _ ____ _
 72
65
 73
4
 40
2.0
 49
1.25
 49
-0.25
 49
0.25
 49
-0.25
  0
LTYPE
  5
411
  2
DASHED
 70
0
  3
Dashed __ __ __ __ __
 72
65
 73
2
 40
0.75
 49
0.5
 49
-0.25
  0
LTYPE
  5
43B
  2
DOTTED
 70
0
  3
Dotted .  .  .  .
 72
65
 73
2
 40
0.2
 49
0.0
 49
-0.2
  0
ENDTAB
  0
TABLE
  2
STYLE
  70
4
  0
STYLE
  2
KICAD
  70
0
  40
0
  41
1
  42
1
  50
0
  71
0
  3
isocp.shx
  0
STYLE
  2
KICADB
  70
0
  40
0
  41
1
  42
1
  50
0
  71
0
  3
isocp.shx
  0
STYLE
  2
KICADI
  70
0
  40
0
  41
1
  42
1
  50
15
  71
0
  3
isocp.shx
  0
STYLE
  2
KICADBI
  70
0
  40
0
  41
1
  42
1
  50
15
  71
0
  3
isocp.shx
  0
ENDTAB
  0
TABLE
  2
LAYER
  70
1
  0
LAYER
  2
BLACK
  70
0
  62
7
  6
CONTINUOUS
  0
ENDTAB
  0
ENDSEC
  0
SECTION
  2
ENTITIES
0
LINE
8
BLACK
6
CONTINUOUS
10
2.80235
20
0.30131
11
2.80248
21
0.301333
0
LINE
8
BLACK
6
CONTINUOUS
10
2.80248
20
0.301333
11
2.80259
21
0.301268
0
LINE
8
BLACK
6
CONTINUOUS
10
2.80259
20
0.301268
11
2.80298
21
0.3012
0
LINE
8
BLACK
6
CONTINUOUS
10
2.80298
20
0.3012
11
2.80357
21
0.300707
0
LINE
8
BLACK
6
CONTINUOUS
10
2.80357
20
0.300707
11
2.80423
21
0.300323
0
LINE
8
BLACK
6
CONTINUOUS
10
2.80423
20
0.300323
11
2.80432
21
0.300073
0
LINE
8
BLACK
6
CONTINUOUS
10
2.80432
20
0.300073
11
2.80453
21
0.299902
0
LINE
8
BLACK
6
CONTINUOUS
10
2.80453
20
0.299902
11
2.80466
21
0.299146
0
LINE
8
BLACK
6
CONTINUOUS
10
2.80466
20
0.299146
11
2.80492
21
0.298425
0
LINE
8
BLACK
6
CONTINUOUS
10
2.80492
20
0.298425
11
2.80492
21
0.0984252
0
LINE
8
BLACK
6
CONTINUOUS
10
2.80492
20
0.0984252
11
2.80485
21
0.0980417
0
LINE
8
BLACK
6
CONTINUOUS
10
2.80485
20
0.0980417
11
2.80488
21
0.0979124
0
LINE
8
BLACK
6
CONTINUOUS
10
2.80488
20
0.0979124
11
2.80481
21
0.0977988
0
LINE
8
BLACK
6
CONTINUOUS
10
2.80481
20
0.0977988
11
2.80474
21
0.0974153
0
LINE
8
BLACK
6
CONTINUOUS
10
2.80474
20
0.0974153
11
2.80425
21
0.0968276
0
LINE
8
BLACK
6
CONTINUOUS
10
2.80425
20
0.0968276
11
2.80387
21
0.0961633
0
LINE
8
BLACK
6
CONTINUOUS
10
2.80387
20
0.0961633
11
2.80362
21
0.0960722
0
LINE
8
BLACK
6
CONTINUOUS
10
2.80362
20
0.0960722
11
2.80344
21
0.095868
0
LINE
8
BLACK
6
CONTINUOUS
10
2.80344
20
0.095868
11
2.80269
21
0.0957348
0
LINE
8
BLACK
6
CONTINUOUS
10
2.80269
20
0.0957348
11
2.80197
21
0.0954724
0
LINE
8
BLACK
6
CONTINUOUS
10
2.80197
20
0.0954724
11
2.30197
21
0.0954724
0
LINE
8
BLACK
6
CONTINUOUS
10
2.30197
20
0.0954724
11
2.30158
21
0.0955401
0
LINE
8
BLACK
6
CONTINUOUS
10
2.30158
20
0.0955401
11
2.30146
21
0.0955173
0
LINE
8
BLACK
6
CONTINUOUS
10
2.30146
20
0.0955173
11
2.30134
21
0.0955829
0
LINE
8
BLACK
6
CONTINUOUS
10
2.30134
20
0.0955829
11
2.30096
21
0.0956505
0
LINE
8
BLACK
6
CONTINUOUS
10
2.30096
20
0.0956505
11
2.30037
21
0.0961437
0
LINE
8
BLACK
6
CONTINUOUS
10
2.30037
20
0.0961437
11
2.29971
21
0.0965272
0
LINE
8
BLACK
6
CONTINUOUS
10
2.29971
20
0.0965272
11
2.29962
21
0.0967776
0
LINE
8
BLACK
6
CONTINUOUS
10
2.29962
20
0.0967776
11
2.29941
21
0.0969488
0
LINE
8
BLACK
6
CONTINUOUS
10
2.29941
20
0.0969488
11
2.29928
21
0.0977044
0
LINE
8
BLACK
6
CONTINUOUS
10
2.29928
20
0.0977044
11
2.29902
21
0.0984252
0
LINE
8
BLACK
6
CONTINUOUS
10
2.29902
20
0.0984252
11
2.29902
21
0.298425
0
LINE
8
BLACK
6
CONTINUOUS
10
2.29902
20
0.298425
11
2.29908
21
0.298809
0
LINE
8
BLACK
6
CONTINUOUS
10
2.29908
20
0.298809
11
2.29906
21
0.298938
0
LINE
8
BLACK
6
CONTINUOUS
10
2.29906
20
0.298938
11
2.29913
21
0.299052
0
LINE
8
BLACK
6
CONTINUOUS
10
2.29913
20
0.299052
11
2.29919
21
0.299435
0
LINE
8
BLACK
6
CONTINUOUS
10
2.29919
20
0.299435
11
2.29969
21
0.300023
0
LINE
8
BLACK
6
CONTINUOUS
10
2.29969
20
0.300023
11
2.30007
21
0.300687
0
LINE
8
BLACK
6
CONTINUOUS
10
2.30007
20
0.300687
11
2.30032
21
0.300778
0
LINE
8
BLACK
6
CONTINUOUS
10
2.30032
20
0.300778
11
2.30049
21
0.300982
0
LINE
8
BLACK
6
CONTINUOUS
10
2.30049
20
0.300982
11
2.30125
21
0.301116
0
LINE
8
BLACK
6
CONTINUOUS
10
2.30125
20
0.301116
11
2.30197
21
0.301378
0
LINE
8
BLACK
6
CONTINUOUS
10
2.30197
20
0.301378
11
2.80197
21
0.301378
0
LINE
8
BLACK
6
CONTINUOUS
10
2.80197
20
0.301378
11
2.80235
21
0.30131
0
LINE
8
BLACK
6
CONTINUOUS
10
2.30492
20
0.295472
11
2.30492
21
0.101378
0
LINE
8
BLACK
6
CONTINUOUS
10
2.30492
20
0.101378
11
2.79902
21
0.101378
0
LINE
8
BLACK
6
CONTINUOUS
10
2.79902
20
0.101378
11
2.79902
21
0.295472
0
LINE
8
BLACK
6
CONTINUOUS
10
2.79902
20
0.295472
11
2.30492
21
0.295472
0
LINE
8
BLACK
6
CONTINUOUS
10
2.38197
20
0.118425
11
2.32197
21
0.118425
0
LINE
8
BLACK
6
CONTINUOUS
10
2.32197
20
0.118425
11
2.32197
21
0.178425
0
LINE
8
BLACK
6
CONTINUOUS
10
2.32197
20
0.178425
11
2.38197
21
0.178425
0
LINE
8
BLACK
6
CONTINUOUS
10
2.38197
20
0.178425
11
2.38197
21
0.118425
0
LINE
8
BLACK
6
CONTINUOUS
10
2.48197
20
0.118425
11
2.42197
21
0.118425
0
LINE
8
BLACK
6
CONTINUOUS
10
2.42197
20
0.118425
11
2.42197
21
0.178425
0
LINE
8
BLACK
6
CONTINUOUS
10
2.42197
20
0.178425
11
2.48197
21
0.178425
0
LINE
8
BLACK
6
CONTINUOUS
10
2.48197
20
0.178425
11
2.48197
21
0.118425
0
LINE
8
BLACK
6
CONTINUOUS
10
2.58197
20
0.118425
11
2.52197
21
0.118425
0
LINE
8
BLACK
6
CONTINUOUS
10
2.52197
20
0.118425
11
2.52197
21
0.178425
0
LINE
8
BLACK
6
CONTINUOUS
10
2.52197
20
0.178425
11
2.58197
21
0.178425
0
LINE
8
BLACK
6
CONTINUOUS
10
2.58197
20
0.178425
11
2.58197
21
0.118425
0
LINE
8
BLACK
6
CONTINUOUS
10
2.68197
20
0.118425
11
2.62197
21
0.118425
0
LINE
8
BLACK
6
CONTINUOUS
10
2.62197
20
0.118425
11
2.62197
21
0.178425
0
LINE
8
BLACK
6
CONTINUOUS
10
2.62197
20
0.178425
11
2.68197
21
0.178425
0
LINE
8
BLACK
6
CONTINUOUS
10
2.68197
20
0.178425
11
2.68197
21
0.118425
0
LINE
8
BLACK
6
CONTINUOUS
10
2.78197
20
0.118425
11
2.72197
21
0.118425
0
LINE
8
BLACK
6
CONTINUOUS
10
2.72197
20
0.118425
11
2.72197
21
0.178425
0
LINE
8
BLACK
6
CONTINUOUS
10
2.72197
20
0.178425
11
2.78197
21
0.178425
0
LINE
8
BLACK
6
CONTINUOUS
10
2.78197
20
0.178425
11
2.78197
21
0.118425
0
LINE
8
BLACK
6
CONTINUOUS
10
2.38197
20
0.218425
11
2.32197
21
0.218425
0
LINE
8
BLACK
6
CONTINUOUS
10
2.32197
20
0.218425
11
2.32197
21
0.278425
0
LINE
8
BLACK
6
CONTINUOUS
10
2.32197
20
0.278425
11
2.38197
21
0.278425
0
LINE
8
BLACK
6
CONTINUOUS
10
2.38197
20
0.278425
11
2.38197
21
0.218425
0
LINE
8
BLACK
6
CONTINUOUS
10
2.48197
20
0.218425
11
2.42197
21
0.218425
0
LINE
8
BLACK
6
CONTINUOUS
10
2.42197
20
0.218425
11
2.42197
21
0.278425
0
LINE
8
BLACK
6
CONTINUOUS
10
2.42197
20
0.278425
11
2.48197
21
0.278425
0
LINE
8
BLACK
6
CONTINUOUS
10
2.48197
20
0.278425
11
2.48197
21
0.218425
0
LINE
8
BLACK
6
CONTINUOUS
10
2.58197
20
0.218425
11
2.52197
21
0.218425
0
LINE
8
BLACK
6
CONTINUOUS
10
2.52197
20
0.218425
11
2.52197
21
0.278425
0
LINE
8
BLACK
6
CONTINUOUS
10
2.52197
20
0.278425
11
2.58197
21
0.278425
0
LINE
8
BLACK
6
CONTINUOUS
10
2.58197
20
0.278425
11
2.58197
21
0.218425
0
LINE
8
BLACK
6
CONTINUOUS
10
2.68197
20
0.218425
11
2.62197
21
0.218425
0
LINE
8
BLACK
6
CONTINUOUS
10
2.62197
20
0.218425
11
2.62197
21
0.278425
0
LINE
8
BLACK
6
CONTINUOUS
10
2.62197
20
0.278425
11
2.68197
21
0.278425
0
LINE
8
BLACK
6
CONTINUOUS
10
2.68197
20
0.278425
11
2.68197
21
0.218425
0
LINE
8
BLACK
6
CONTINUOUS
10
2.78197
20
0.218425
11
2.72197
21
0.218425
0
LINE
8
BLACK
6
CONTINUOUS
10
2.72197
20
0.218425
11
2.72197
21
0.278425
0
LINE
8
BLACK
6
CONTINUOUS
10
2.72197
20
0.278425
11
2.78197
21
0.278425
0
LINE
8
BLACK
6
CONTINUOUS
10
2.78197
20
0.278425
11
2.78197
21
0.218425
0
LINE
8
BLACK
6
CONTINUOUS
10
1.87952
20
0.30131
11
1.87965
21
0.301333
0
LINE
8
BLACK
6
CONTINUOUS
10
1.87965
20
0.301333
11
1.87976
21
0.301268
0
LINE
8
BLACK
6
CONTINUOUS
10
1.87976
20
0.301268
11
1.88014
21
0.3012
0
LINE
8
BLACK
6
CONTINUOUS
10
1.88014
20
0.3012
11
1.88073
21
0.300707
0
LINE
8
BLACK
6
CONTINUOUS
10
1.88073
20
0.300707
11
1.8814
21
0.300323
0
LINE
8
BLACK
6
CONTINUOUS
10
1.8814
20
0.300323
11
1.88149
21
0.300073
0
LINE
8
BLACK
6
CONTINUOUS
10
1.88149
20
0.300073
11
1.88169
21
0.299902
0
LINE
8
BLACK
6
CONTINUOUS
10
1.88169
20
0.299902
11
1.88182
21
0.299146
0
LINE
8
BLACK
6
CONTINUOUS
10
1.88182
20
0.299146
11
1.88209
21
0.298425
0
LINE
8
BLACK
6
CONTINUOUS
10
1.88209
20
0.298425
11
1.88209
21
0.0984252
0
LINE
8
BLACK
6
CONTINUOUS
10
1.88209
20
0.0984252
11
1.88202
21
0.0980417
0
LINE
8
BLACK
6
CONTINUOUS
10
1.88202
20
0.0980417
11
1.88204
21
0.0979124
0
LINE
8
BLACK
6
CONTINUOUS
10
1.88204
20
0.0979124
11
1.88198
21
0.0977988
0
LINE
8
BLACK
6
CONTINUOUS
10
1.88198
20
0.0977988
11
1.88191
21
0.0974153
0
LINE
8
BLACK
6
CONTINUOUS
10
1.88191
20
0.0974153
11
1.88142
21
0.0968276
0
LINE
8
BLACK
6
CONTINUOUS
10
1.88142
20
0.0968276
11
1.88103
21
0.0961633
0
LINE
8
BLACK
6
CONTINUOUS
10
1.88103
20
0.0961633
11
1.88078
21
0.0960722
0
LINE
8
BLACK
6
CONTINUOUS
10
1.88078
20
0.0960722
11
1.88061
21
0.095868
0
LINE
8
BLACK
6
CONTINUOUS
10
1.88061
20
0.095868
11
1.87985
21
0.0957348
0
LINE
8
BLACK
6
CONTINUOUS
10
1.87985
20
0.0957348
11
1.87913
21
0.0954724
0
LINE
8
BLACK
6
CONTINUOUS
10
1.87913
20
0.0954724
11
0.579134
21
0.0954724
0
LINE
8
BLACK
6
CONTINUOUS
10
0.579134
20
0.0954724
11
0.57875
21
0.0955401
0
LINE
8
BLACK
6
CONTINUOUS
10
0.57875
20
0.0955401
11
0.578621
21
0.0955173
0
LINE
8
BLACK
6
CONTINUOUS
10
0.578621
20
0.0955173
11
0.578507
21
0.0955829
0
LINE
8
BLACK
6
CONTINUOUS
10
0.578507
20
0.0955829
11
0.578124
21
0.0956505
0
LINE
8
BLACK
6
CONTINUOUS
10
0.578124
20
0.0956505
11
0.577536
21
0.0961437
0
LINE
8
BLACK
6
CONTINUOUS
10
0.577536
20
0.0961437
11
0.576872
21
0.0965272
0
LINE
8
BLACK
6
CONTINUOUS
10
0.576872
20
0.0965272
11
0.576781
21
0.0967776
0
LINE
8
BLACK
6
CONTINUOUS
10
0.576781
20
0.0967776
11
0.576577
21
0.0969488
0
LINE
8
BLACK
6
CONTINUOUS
10
0.576577
20
0.0969488
11
0.576443
21
0.0977044
0
LINE
8
BLACK
6
CONTINUOUS
10
0.576443
20
0.0977044
11
0.576181
21
0.0984252
0
LINE
8
BLACK
6
CONTINUOUS
10
0.576181
20
0.0984252
11
0.576181
21
0.298425
0
LINE
8
BLACK
6
CONTINUOUS
10
0.576181
20
0.298425
11
0.576249
21
0.298809
0
LINE
8
BLACK
6
CONTINUOUS
10
0.576249
20
0.298809
11
0.576226
21
0.298938
0
LINE
8
BLACK
6
CONTINUOUS
10
0.576226
20
0.298938
11
0.576292
21
0.299052
0
LINE
8
BLACK
6
CONTINUOUS
10
0.576292
20
0.299052
11
0.576359
21
0.299435
0
LINE
8
BLACK
6
CONTINUOUS
10
0.576359
20
0.299435
11
0.576852
21
0.300023
0
LINE
8
BLACK
6
CONTINUOUS
10
0.576852
20
0.300023
11
0.577236
21
0.300687
0
LINE
8
BLACK
6
CONTINUOUS
10
0.577236
20
0.300687
11
0.577486
21
0.300778
0
LINE
8
BLACK
6
CONTINUOUS
10
0.577486
20
0.300778
11
0.577657
21
0.300982
0
LINE
8
BLACK
6
CONTINUOUS
10
0.577657
20
0.300982
11
0.578413
21
0.301116
0
LINE
8
BLACK
6
CONTINUOUS
10
0.578413
20
0.301116
11
0.579134
21
0.301378
0
LINE
8
BLACK
6
CONTINUOUS
10
0.579134
20
0.301378
11
1.87913
21
0.301378
0
LINE
8
BLACK
6
CONTINUOUS
10
1.87913
20
0.301378
11
1.87952
21
0.30131
0
LINE
8
BLACK
6
CONTINUOUS
10
0.582087
20
0.295472
11
0.582087
21
0.101378
0
LINE
8
BLACK
6
CONTINUOUS
10
0.582087
20
0.101378
11
1.87618
21
0.101378
0
LINE
8
BLACK
6
CONTINUOUS
10
1.87618
20
0.101378
11
1.87618
21
0.295472
0
LINE
8
BLACK
6
CONTINUOUS
10
1.87618
20
0.295472
11
0.582087
21
0.295472
0
LINE
8
BLACK
6
CONTINUOUS
10
0.859134
20
0.118425
11
0.799134
21
0.118425
0
LINE
8
BLACK
6
CONTINUOUS
10
0.799134
20
0.118425
11
0.799134
21
0.178425
0
LINE
8
BLACK
6
CONTINUOUS
10
0.799134
20
0.178425
11
0.859134
21
0.178425
0
LINE
8
BLACK
6
CONTINUOUS
10
0.859134
20
0.178425
11
0.859134
21
0.118425
0
LINE
8
BLACK
6
CONTINUOUS
10
0.659134
20
0.118425
11
0.599134
21
0.118425
0
LINE
8
BLACK
6
CONTINUOUS
10
0.599134
20
0.118425
11
0.599134
21
0.178425
0
LINE
8
BLACK
6
CONTINUOUS
10
0.599134
20
0.178425
11
0.659134
21
0.178425
0
LINE
8
BLACK
6
CONTINUOUS
10
0.659134
20
0.178425
11
0.659134
21
0.118425
0
LINE
8
BLACK
6
CONTINUOUS
10
0.759134
20
0.118425
11
0.699134
21
0.118425
0
LINE
8
BLACK
6
CONTINUOUS
10
0.699134
20
0.118425
11
0.699134
21
0.178425
0
LINE
8
BLACK
6
CONTINUOUS
10
0.699134
20
0.178425
11
0.759134
21
0.178425
0
LINE
8
BLACK
6
CONTINUOUS
10
0.759134
20
0.178425
11
0.759134
21
0.118425
0
LINE
8
BLACK
6
CONTINUOUS
10
0.959134
20
0.118425
11
0.899134
21
0.118425
0
LINE
8
BLACK
6
CONTINUOUS
10
0.899134
20
0.118425
11
0.899134
21
0.178425
0
LINE
8
BLACK
6
CONTINUOUS
10
0.899134
20
0.178425
11
0.959134
21
0.178425
0
LINE
8
BLACK
6
CONTINUOUS
10
0.959134
20
0.178425
11
0.959134
21
0.118425
0
LINE
8
BLACK
6
CONTINUOUS
10
1.05913
20
0.118425
11
0.999134
21
0.118425
0
LINE
8
BLACK
6
CONTINUOUS
10
0.999134
20
0.118425
11
0.999134
21
0.178425
0
LINE
8
BLACK
6
CONTINUOUS
10
0.999134
20
0.178425
11
1.05913
21
0.178425
0
LINE
8
BLACK
6
CONTINUOUS
10
1.05913
20
0.178425
11
1.05913
21
0.118425
0
LINE
8
BLACK
6
CONTINUOUS
10
1.45913
20
0.118425
11
1.39913
21
0.118425
0
LINE
8
BLACK
6
CONTINUOUS
10
1.39913
20
0.118425
11
1.39913
21
0.178425
0
LINE
8
BLACK
6
CONTINUOUS
10
1.39913
20
0.178425
11
1.45913
21
0.178425
0
LINE
8
BLACK
6
CONTINUOUS
10
1.45913
20
0.178425
11
1.45913
21
0.118425
0
LINE
8
BLACK
6
CONTINUOUS
10
1.85913
20
0.118425
11
1.79913
21
0.118425
0
LINE
8
BLACK
6
CONTINUOUS
10
1.79913
20
0.118425
11
1.79913
21
0.178425
0
LINE
8
BLACK
6
CONTINUOUS
10
1.79913
20
0.178425
11
1.85913
21
0.178425
0
LINE
8
BLACK
6
CONTINUOUS
10
1.85913
20
0.178425
11
1.85913
21
0.118425
0
LINE
8
BLACK
6
CONTINUOUS
10
1.75913
20
0.118425
11
1.69913
21
0.118425
0
LINE
8
BLACK
6
CONTINUOUS
10
1.69913
20
0.118425
11
1.69913
21
0.178425
0
LINE
8
BLACK
6
CONTINUOUS
10
1.69913
20
0.178425
11
1.75913
21
0.178425
0
LINE
8
BLACK
6
CONTINUOUS
10
1.75913
20
0.178425
11
1.75913
21
0.118425
0
LINE
8
BLACK
6
CONTINUOUS
10
1.65913
20
0.118425
11
1.59913
21
0.118425
0
LINE
8
BLACK
6
CONTINUOUS
10
1.59913
20
0.118425
11
1.59913
21
0.178425
0
LINE
8
BLACK
6
CONTINUOUS
10
1.59913
20
0.178425
11
1.65913
21
0.178425
0
LINE
8
BLACK
6
CONTINUOUS
10
1.65913
20
0.178425
11
1.65913
21
0.118425
0
LINE
8
BLACK
6
CONTINUOUS
10
1.55913
20
0.118425
11
1.49913
21
0.118425
0
LINE
8
BLACK
6
CONTINUOUS
10
1.49913
20
0.118425
11
1.49913
21
0.178425
0
LINE
8
BLACK
6
CONTINUOUS
10
1.49913
20
0.178425
11
1.55913
21
0.178425
0
LINE
8
BLACK
6
CONTINUOUS
10
1.55913
20
0.178425
11
1.55913
21
0.118425
0
LINE
8
BLACK
6
CONTINUOUS
10
1.35913
20
0.118425
11
1.29913
21
0.118425
0
LINE
8
BLACK
6
CONTINUOUS
10
1.29913
20
0.118425
11
1.29913
21
0.178425
0
LINE
8
BLACK
6
CONTINUOUS
10
1.29913
20
0.178425
11
1.35913
21
0.178425
0
LINE
8
BLACK
6
CONTINUOUS
10
1.35913
20
0.178425
11
1.35913
21
0.118425
0
LINE
8
BLACK
6
CONTINUOUS
10
1.25913
20
0.118425
11
1.19913
21
0.118425
0
LINE
8
BLACK
6
CONTINUOUS
10
1.19913
20
0.118425
11
1.19913
21
0.178425
0
LINE
8
BLACK
6
CONTINUOUS
10
1.19913
20
0.178425
11
1.25913
21
0.178425
0
LINE
8
BLACK
6
CONTINUOUS
10
1.25913
20
0.178425
11
1.25913
21
0.118425
0
LINE
8
BLACK
6
CONTINUOUS
10
1.15913
20
0.118425
11
1.09913
21
0.118425
0
LINE
8
BLACK
6
CONTINUOUS
10
1.09913
20
0.118425
11
1.09913
21
0.178425
0
LINE
8
BLACK
6
CONTINUOUS
10
1.09913
20
0.178425
11
1.15913
21
0.178425
0
LINE
8
BLACK
6
CONTINUOUS
10
1.15913
20
0.178425
11
1.15913
21
0.118425
0
LINE
8
BLACK
6
CONTINUOUS
10
0.859134
20
0.218425
11
0.799134
21
0.218425
0
LINE
8
BLACK
6
CONTINUOUS
10
0.799134
20
0.218425
11
0.799134
21
0.278425
0
LINE
8
BLACK
6
CONTINUOUS
10
0.799134
20
0.278425
11
0.859134
21
0.278425
0
LINE
8
BLACK
6
CONTINUOUS
10
0.859134
20
0.278425
11
0.859134
21
0.218425
0
LINE
8
BLACK
6
CONTINUOUS
10
1.75913
20
0.218425
11
1.69913
21
0.218425
0
LINE
8
BLACK
6
CONTINUOUS
10
1.69913
20
0.218425
11
1.69913
21
0.278425
0
LINE
8
BLACK
6
CONTINUOUS
10
1.69913
20
0.278425
11
1.75913
21
0.278425
0
LINE
8
BLACK
6
CONTINUOUS
10
1.75913
20
0.278425
11
1.75913
21
0.218425
0
LINE
8
BLACK
6
CONTINUOUS
10
0.959134
20
0.218425
11
0.899134
21
0.218425
0
LINE
8
BLACK
6
CONTINUOUS
10
0.899134
20
0.218425
11
0.899134
21
0.278425
0
LINE
8
BLACK
6
CONTINUOUS
10
0.899134
20
0.278425
11
0.959134
21
0.278425
0
LINE
8
BLACK
6
CONTINUOUS
10
0.959134
20
0.278425
11
0.959134
21
0.218425
0
LINE
8
BLACK
6
CONTINUOUS
10
1.65913
20
0.218425
11
1.59913
21
0.218425
0
LINE
8
BLACK
6
CONTINUOUS
10
1.59913
20
0.218425
11
1.59913
21
0.278425
0
LINE
8
BLACK
6
CONTINUOUS
10
1.59913
20
0.278425
11
1.65913
21
0.278425
0
LINE
8
BLACK
6
CONTINUOUS
10
1.65913
20
0.278425
11
1.65913
21
0.218425
0
LINE
8
BLACK
6
CONTINUOUS
10
1.15913
20
0.218425
11
1.09913
21
0.218425
0
LINE
8
BLACK
6
CONTINUOUS
10
1.09913
20
0.218425
11
1.09913
21
0.278425
0
LINE
8
BLACK
6
CONTINUOUS
10
1.09913
20
0.278425
11
1.15913
21
0.278425
0
LINE
8
BLACK
6
CONTINUOUS
10
1.15913
20
0.278425
11
1.15913
21
0.218425
0
LINE
8
BLACK
6
CONTINUOUS
10
1.55913
20
0.218425
11
1.49913
21
0.218425
0
LINE
8
BLACK
6
CONTINUOUS
10
1.49913
20
0.218425
11
1.49913
21
0.278425
0
LINE
8
BLACK
6
CONTINUOUS
10
1.49913
20
0.278425
11
1.55913
21
0.278425
0
LINE
8
BLACK
6
CONTINUOUS
10
1.55913
20
0.278425
11
1.55913
21
0.218425
0
LINE
8
BLACK
6
CONTINUOUS
10
0.759134
20
0.218425
11
0.699134
21
0.218425
0
LINE
8
BLACK
6
CONTINUOUS
10
0.699134
20
0.218425
11
0.699134
21
0.278425
0
LINE
8
BLACK
6
CONTINUOUS
10
0.699134
20
0.278425
11
0.759134
21
0.278425
0
LINE
8
BLACK
6
CONTINUOUS
10
0.759134
20
0.278425
11
0.759134
21
0.218425
0
LINE
8
BLACK
6
CONTINUOUS
10
1.45913
20
0.218425
11
1.39913
21
0.218425
0
LINE
8
BLACK
6
CONTINUOUS
10
1.39913
20
0.218425
11
1.39913
21
0.278425
0
LINE
8
BLACK
6
CONTINUOUS
10
1.39913
20
0.278425
11
1.45913
21
0.278425
0
LINE
8
BLACK
6
CONTINUOUS
10
1.45913
20
0.278425
11
1.45913
21
0.218425
0
LINE
8
BLACK
6
CONTINUOUS
10
1.05913
20
0.218425
11
0.999134
21
0.218425
0
LINE
8
BLACK
6
CONTINUOUS
10
0.999134
20
0.218425
11
0.999134
21
0.278425
0
LINE
8
BLACK
6
CONTINUOUS
10
0.999134
20
0.278425
11
1.05913
21
0.278425
0
LINE
8
BLACK
6
CONTINUOUS
10
1.05913
20
0.278425
11
1.05913
21
0.218425
0
LINE
8
BLACK
6
CONTINUOUS
10
1.35913
20
0.218425
11
1.29913
21
0.218425
0
LINE
8
BLACK
6
CONTINUOUS
10
1.29913
20
0.218425
11
1.29913
21
0.278425
0
LINE
8
BLACK
6
CONTINUOUS
10
1.29913
20
0.278425
11
1.35913
21
0.278425
0
LINE
8
BLACK
6
CONTINUOUS
10
1.35913
20
0.278425
11
1.35913
21
0.218425
0
LINE
8
BLACK
6
CONTINUOUS
10
1.85913
20
0.218425
11
1.79913
21
0.218425
0
LINE
8
BLACK
6
CONTINUOUS
10
1.79913
20
0.218425
11
1.79913
21
0.278425
0
LINE
8
BLACK
6
CONTINUOUS
10
1.79913
20
0.278425
11
1.85913
21
0.278425
0
LINE
8
BLACK
6
CONTINUOUS
10
1.85913
20
0.278425
11
1.85913
21
0.218425
0
LINE
8
BLACK
6
CONTINUOUS
10
1.25913
20
0.218425
11
1.19913
21
0.218425
0
LINE
8
BLACK
6
CONTINUOUS
10
1.19913
20
0.218425
11
1.19913
21
0.278425
0
LINE
8
BLACK
6
CONTINUOUS
10
1.19913
20
0.278425
11
1.25913
21
0.278425
0
LINE
8
BLACK
6
CONTINUOUS
10
1.25913
20
0.278425
11
1.25913
21
0.218425
0
LINE
8
BLACK
6
CONTINUOUS
10
0.659134
20
0.218425
11
0.599134
21
0.218425
0
LINE
8
BLACK
6
CONTINUOUS
10
0.599134
20
0.218425
11
0.599134
21
0.278425
0
LINE
8
BLACK
6
CONTINUOUS
10
0.599134
20
0.278425
11
0.659134
21
0.278425
0
LINE
8
BLACK
6
CONTINUOUS
10
0.659134
20
0.278425
11
0.659134
21
0.218425
0
LINE
8
BLACK
6
CONTINUOUS
10
2.1152
20
1.51998
11
2.11589
21
1.51808
0
LINE
8
BLACK
6
CONTINUOUS
10
2.11589
20
1.51808
11
2.11589
21
1.51565
0
LINE
8
BLACK
6
CONTINUOUS
10
2.11589
20
1.51565
11
2.11571
21
1.51464
0
LINE
8
BLACK
6
CONTINUOUS
10
2.11571
20
1.51464
11
2.1156
21
1.5145
0
LINE
8
BLACK
6
CONTINUOUS
10
2.1156
20
1.5145
11
2.11558
21
1.51433
0
LINE
8
BLACK
6
CONTINUOUS
10
2.11558
20
1.51433
11
2.11314
21
1.50945
0
LINE
8
BLACK
6
CONTINUOUS
10
2.11314
20
1.50945
11
2.11262
21
1.50874
0
LINE
8
BLACK
6
CONTINUOUS
10
2.11262
20
1.50874
11
2.11259
21
1.50868
0
LINE
8
BLACK
6
CONTINUOUS
10
2.11259
20
1.50868
11
2.11015
21
1.50625
0
LINE
8
BLACK
6
CONTINUOUS
10
2.11015
20
1.50625
11
2.10931
21
1.50566
0
LINE
8
BLACK
6
CONTINUOUS
10
2.10931
20
1.50566
11
2.1073
21
1.50548
0
LINE
8
BLACK
6
CONTINUOUS
10
2.1073
20
1.50548
11
2.10565
21
1.50664
0
LINE
8
BLACK
6
CONTINUOUS
10
2.10565
20
1.50664
11
2.10512
21
1.50859
0
LINE
8
BLACK
6
CONTINUOUS
10
2.10512
20
1.50859
11
2.10598
21
1.51042
0
LINE
8
BLACK
6
CONTINUOUS
10
2.10598
20
1.51042
11
2.10808
21
1.51252
0
LINE
8
BLACK
6
CONTINUOUS
10
2.10808
20
1.51252
11
2.10999
21
1.51634
0
LINE
8
BLACK
6
CONTINUOUS
10
2.10999
20
1.51634
11
2.10999
21
1.51808
0
LINE
8
BLACK
6
CONTINUOUS
10
2.10999
20
1.51808
11
2.11016
21
1.51909
0
LINE
8
BLACK
6
CONTINUOUS
10
2.11016
20
1.51909
11
2.11146
21
1.52064
0
LINE
8
BLACK
6
CONTINUOUS
10
2.11146
20
1.52064
11
2.11345
21
1.52099
0
LINE
8
BLACK
6
CONTINUOUS
10
2.11345
20
1.52099
11
2.1152
21
1.51998
0
LINE
8
BLACK
6
CONTINUOUS
10
2.33817
20
1.5696
11
2.33831
21
1.56949
0
LINE
8
BLACK
6
CONTINUOUS
10
2.33831
20
1.56949
11
2.33848
21
1.56947
0
LINE
8
BLACK
6
CONTINUOUS
10
2.33848
20
1.56947
11
2.34336
21
1.56703
0
LINE
8
BLACK
6
CONTINUOUS
10
2.34336
20
1.56703
11
2.34407
21
1.5665
0
LINE
8
BLACK
6
CONTINUOUS
10
2.34407
20
1.5665
11
2.34412
21
1.56648
0
LINE
8
BLACK
6
CONTINUOUS
10
2.34412
20
1.56648
11
2.34656
21
1.56404
0
LINE
8
BLACK
6
CONTINUOUS
10
2.34656
20
1.56404
11
2.34707
21
1.56332
0
LINE
8
BLACK
6
CONTINUOUS
10
2.34707
20
1.56332
11
2.34711
21
1.56327
0
LINE
8
BLACK
6
CONTINUOUS
10
2.34711
20
1.56327
11
2.34955
21
1.5584
0
LINE
8
BLACK
6
CONTINUOUS
10
2.34955
20
1.5584
11
2.34984
21
1.55742
0
LINE
8
BLACK
6
CONTINUOUS
10
2.34984
20
1.55742
11
2.3498
21
1.55724
0
LINE
8
BLACK
6
CONTINUOUS
10
2.3498
20
1.55724
11
2.34986
21
1.55708
0
LINE
8
BLACK
6
CONTINUOUS
10
2.34986
20
1.55708
11
2.34986
21
1.5522
0
LINE
8
BLACK
6
CONTINUOUS
10
2.34986
20
1.5522
11
2.34971
21
1.55133
0
LINE
8
BLACK
6
CONTINUOUS
10
2.34971
20
1.55133
11
2.34971
21
1.55127
0
LINE
8
BLACK
6
CONTINUOUS
10
2.34971
20
1.55127
11
2.34727
21
1.54396
0
LINE
8
BLACK
6
CONTINUOUS
10
2.34727
20
1.54396
11
2.34679
21
1.54306
0
LINE
8
BLACK
6
CONTINUOUS
10
2.34679
20
1.54306
11
2.34664
21
1.54296
0
LINE
8
BLACK
6
CONTINUOUS
10
2.34664
20
1.54296
11
2.34656
21
1.5428
0
LINE
8
BLACK
6
CONTINUOUS
10
2.34656
20
1.5428
11
2.32236
21
1.5186
0
LINE
8
BLACK
6
CONTINUOUS
10
2.32236
20
1.5186
11
2.34691
21
1.5186
0
LINE
8
BLACK
6
CONTINUOUS
10
2.34691
20
1.5186
11
2.34792
21
1.51842
0
LINE
8
BLACK
6
CONTINUOUS
10
2.34792
20
1.51842
11
2.34947
21
1.51712
0
LINE
8
BLACK
6
CONTINUOUS
10
2.34947
20
1.51712
11
2.34982
21
1.51513
0
LINE
8
BLACK
6
CONTINUOUS
10
2.34982
20
1.51513
11
2.34881
21
1.51338
0
LINE
8
BLACK
6
CONTINUOUS
10
2.34881
20
1.51338
11
2.34691
21
1.51269
0
LINE
8
BLACK
6
CONTINUOUS
10
2.34691
20
1.51269
11
2.31523
21
1.51269
0
LINE
8
BLACK
6
CONTINUOUS
10
2.31523
20
1.51269
11
2.31459
21
1.51281
0
LINE
8
BLACK
6
CONTINUOUS
10
2.31459
20
1.51281
11
2.31446
21
1.51279
0
LINE
8
BLACK
6
CONTINUOUS
10
2.31446
20
1.51279
11
2.3144
21
1.51284
0
LINE
8
BLACK
6
CONTINUOUS
10
2.3144
20
1.51284
11
2.31422
21
1.51287
0
LINE
8
BLACK
6
CONTINUOUS
10
2.31422
20
1.51287
11
2.31354
21
1.51344
0
LINE
8
BLACK
6
CONTINUOUS
10
2.31354
20
1.51344
11
2.31281
21
1.51395
0
LINE
8
BLACK
6
CONTINUOUS
10
2.31281
20
1.51395
11
2.31277
21
1.51408
0
LINE
8
BLACK
6
CONTINUOUS
10
2.31277
20
1.51408
11
2.31267
21
1.51417
0
LINE
8
BLACK
6
CONTINUOUS
10
2.31267
20
1.51417
11
2.31252
21
1.51504
0
LINE
8
BLACK
6
CONTINUOUS
10
2.31252
20
1.51504
11
2.31229
21
1.5159
0
LINE
8
BLACK
6
CONTINUOUS
10
2.31229
20
1.5159
11
2.31234
21
1.51603
0
LINE
8
BLACK
6
CONTINUOUS
10
2.31234
20
1.51603
11
2.31232
21
1.51616
0
LINE
8
BLACK
6
CONTINUOUS
10
2.31232
20
1.51616
11
2.31276
21
1.51693
0
LINE
8
BLACK
6
CONTINUOUS
10
2.31276
20
1.51693
11
2.31314
21
1.51773
0
LINE
8
BLACK
6
CONTINUOUS
10
2.31314
20
1.51773
11
2.34189
21
1.54649
0
LINE
8
BLACK
6
CONTINUOUS
10
2.34189
20
1.54649
11
2.34396
21
1.55268
0
LINE
8
BLACK
6
CONTINUOUS
10
2.34396
20
1.55268
11
2.34396
21
1.55638
0
LINE
8
BLACK
6
CONTINUOUS
10
2.34396
20
1.55638
11
2.34205
21
1.5602
0
LINE
8
BLACK
6
CONTINUOUS
10
2.34205
20
1.5602
11
2.34029
21
1.56196
0
LINE
8
BLACK
6
CONTINUOUS
10
2.34029
20
1.56196
11
2.33646
21
1.56387
0
LINE
8
BLACK
6
CONTINUOUS
10
2.33646
20
1.56387
11
2.32567
21
1.56387
0
LINE
8
BLACK
6
CONTINUOUS
10
2.32567
20
1.56387
11
2.32185
21
1.56196
0
LINE
8
BLACK
6
CONTINUOUS
10
2.32185
20
1.56196
11
2.31975
21
1.55986
0
LINE
8
BLACK
6
CONTINUOUS
10
2.31975
20
1.55986
11
2.31891
21
1.55928
0
LINE
8
BLACK
6
CONTINUOUS
10
2.31891
20
1.55928
11
2.3169
21
1.5591
0
LINE
8
BLACK
6
CONTINUOUS
10
2.3169
20
1.5591
11
2.31525
21
1.56026
0
LINE
8
BLACK
6
CONTINUOUS
10
2.31525
20
1.56026
11
2.31472
21
1.56221
0
LINE
8
BLACK
6
CONTINUOUS
10
2.31472
20
1.56221
11
2.31558
21
1.56404
0
LINE
8
BLACK
6
CONTINUOUS
10
2.31558
20
1.56404
11
2.31801
21
1.56648
0
LINE
8
BLACK
6
CONTINUOUS
10
2.31801
20
1.56648
11
2.31874
21
1.56698
0
LINE
8
BLACK
6
CONTINUOUS
10
2.31874
20
1.56698
11
2.31878
21
1.56703
0
LINE
8
BLACK
6
CONTINUOUS
10
2.31878
20
1.56703
11
2.32366
21
1.56947
0
LINE
8
BLACK
6
CONTINUOUS
10
2.32366
20
1.56947
11
2.32464
21
1.56976
0
LINE
8
BLACK
6
CONTINUOUS
10
2.32464
20
1.56976
11
2.32481
21
1.56972
0
LINE
8
BLACK
6
CONTINUOUS
10
2.32481
20
1.56972
11
2.32498
21
1.56978
0
LINE
8
BLACK
6
CONTINUOUS
10
2.32498
20
1.56978
11
2.33716
21
1.56978
0
LINE
8
BLACK
6
CONTINUOUS
10
2.33716
20
1.56978
11
2.33817
21
1.5696
0
LINE
8
BLACK
6
CONTINUOUS
10
2.28943
20
1.5696
11
2.28956
21
1.56949
0
LINE
8
BLACK
6
CONTINUOUS
10
2.28956
20
1.56949
11
2.28974
21
1.56947
0
LINE
8
BLACK
6
CONTINUOUS
10
2.28974
20
1.56947
11
2.29461
21
1.56703
0
LINE
8
BLACK
6
CONTINUOUS
10
2.29461
20
1.56703
11
2.29532
21
1.5665
0
LINE
8
BLACK
6
CONTINUOUS
10
2.29532
20
1.5665
11
2.29538
21
1.56648
0
LINE
8
BLACK
6
CONTINUOUS
10
2.29538
20
1.56648
11
2.29782
21
1.56404
0
LINE
8
BLACK
6
CONTINUOUS
10
2.29782
20
1.56404
11
2.29832
21
1.56332
0
LINE
8
BLACK
6
CONTINUOUS
10
2.29832
20
1.56332
11
2.29837
21
1.56327
0
LINE
8
BLACK
6
CONTINUOUS
10
2.29837
20
1.56327
11
2.30081
21
1.5584
0
LINE
8
BLACK
6
CONTINUOUS
10
2.30081
20
1.5584
11
2.3011
21
1.55742
0
LINE
8
BLACK
6
CONTINUOUS
10
2.3011
20
1.55742
11
2.30106
21
1.55724
0
LINE
8
BLACK
6
CONTINUOUS
10
2.30106
20
1.55724
11
2.30112
21
1.55708
0
LINE
8
BLACK
6
CONTINUOUS
10
2.30112
20
1.55708
11
2.30112
21
1.5522
0
LINE
8
BLACK
6
CONTINUOUS
10
2.30112
20
1.5522
11
2.30097
21
1.55133
0
LINE
8
BLACK
6
CONTINUOUS
10
2.30097
20
1.55133
11
2.30097
21
1.55127
0
LINE
8
BLACK
6
CONTINUOUS
10
2.30097
20
1.55127
11
2.29853
21
1.54396
0
LINE
8
BLACK
6
CONTINUOUS
10
2.29853
20
1.54396
11
2.29804
21
1.54306
0
LINE
8
BLACK
6
CONTINUOUS
10
2.29804
20
1.54306
11
2.29789
21
1.54296
0
LINE
8
BLACK
6
CONTINUOUS
10
2.29789
20
1.54296
11
2.29782
21
1.5428
0
LINE
8
BLACK
6
CONTINUOUS
10
2.29782
20
1.5428
11
2.27361
21
1.5186
0
LINE
8
BLACK
6
CONTINUOUS
10
2.27361
20
1.5186
11
2.29817
21
1.5186
0
LINE
8
BLACK
6
CONTINUOUS
10
2.29817
20
1.5186
11
2.29918
21
1.51842
0
LINE
8
BLACK
6
CONTINUOUS
10
2.29918
20
1.51842
11
2.30072
21
1.51712
0
LINE
8
BLACK
6
CONTINUOUS
10
2.30072
20
1.51712
11
2.30107
21
1.51513
0
LINE
8
BLACK
6
CONTINUOUS
10
2.30107
20
1.51513
11
2.30006
21
1.51338
0
LINE
8
BLACK
6
CONTINUOUS
10
2.30006
20
1.51338
11
2.29817
21
1.51269
0
LINE
8
BLACK
6
CONTINUOUS
10
2.29817
20
1.51269
11
2.26648
21
1.51269
0
LINE
8
BLACK
6
CONTINUOUS
10
2.26648
20
1.51269
11
2.26585
21
1.51281
0
LINE
8
BLACK
6
CONTINUOUS
10
2.26585
20
1.51281
11
2.26572
21
1.51279
0
LINE
8
BLACK
6
CONTINUOUS
10
2.26572
20
1.51279
11
2.26565
21
1.51284
0
LINE
8
BLACK
6
CONTINUOUS
10
2.26565
20
1.51284
11
2.26547
21
1.51287
0
LINE
8
BLACK
6
CONTINUOUS
10
2.26547
20
1.51287
11
2.26479
21
1.51344
0
LINE
8
BLACK
6
CONTINUOUS
10
2.26479
20
1.51344
11
2.26406
21
1.51395
0
LINE
8
BLACK
6
CONTINUOUS
10
2.26406
20
1.51395
11
2.26403
21
1.51408
0
LINE
8
BLACK
6
CONTINUOUS
10
2.26403
20
1.51408
11
2.26393
21
1.51417
0
LINE
8
BLACK
6
CONTINUOUS
10
2.26393
20
1.51417
11
2.26377
21
1.51504
0
LINE
8
BLACK
6
CONTINUOUS
10
2.26377
20
1.51504
11
2.26354
21
1.5159
0
LINE
8
BLACK
6
CONTINUOUS
10
2.26354
20
1.5159
11
2.2636
21
1.51603
0
LINE
8
BLACK
6
CONTINUOUS
10
2.2636
20
1.51603
11
2.26357
21
1.51616
0
LINE
8
BLACK
6
CONTINUOUS
10
2.26357
20
1.51616
11
2.26402
21
1.51693
0
LINE
8
BLACK
6
CONTINUOUS
10
2.26402
20
1.51693
11
2.26439
21
1.51773
0
LINE
8
BLACK
6
CONTINUOUS
10
2.26439
20
1.51773
11
2.29315
21
1.54649
0
LINE
8
BLACK
6
CONTINUOUS
10
2.29315
20
1.54649
11
2.29521
21
1.55268
0
LINE
8
BLACK
6
CONTINUOUS
10
2.29521
20
1.55268
11
2.29521
21
1.55638
0
LINE
8
BLACK
6
CONTINUOUS
10
2.29521
20
1.55638
11
2.2933
21
1.5602
0
LINE
8
BLACK
6
CONTINUOUS
10
2.2933
20
1.5602
11
2.29154
21
1.56196
0
LINE
8
BLACK
6
CONTINUOUS
10
2.29154
20
1.56196
11
2.28772
21
1.56387
0
LINE
8
BLACK
6
CONTINUOUS
10
2.28772
20
1.56387
11
2.27693
21
1.56387
0
LINE
8
BLACK
6
CONTINUOUS
10
2.27693
20
1.56387
11
2.27311
21
1.56196
0
LINE
8
BLACK
6
CONTINUOUS
10
2.27311
20
1.56196
11
2.27101
21
1.55986
0
LINE
8
BLACK
6
CONTINUOUS
10
2.27101
20
1.55986
11
2.27017
21
1.55928
0
LINE
8
BLACK
6
CONTINUOUS
10
2.27017
20
1.55928
11
2.26816
21
1.5591
0
LINE
8
BLACK
6
CONTINUOUS
10
2.26816
20
1.5591
11
2.2665
21
1.56026
0
LINE
8
BLACK
6
CONTINUOUS
10
2.2665
20
1.56026
11
2.26598
21
1.56221
0
LINE
8
BLACK
6
CONTINUOUS
10
2.26598
20
1.56221
11
2.26683
21
1.56404
0
LINE
8
BLACK
6
CONTINUOUS
10
2.26683
20
1.56404
11
2.26927
21
1.56648
0
LINE
8
BLACK
6
CONTINUOUS
10
2.26927
20
1.56648
11
2.26999
21
1.56698
0
LINE
8
BLACK
6
CONTINUOUS
10
2.26999
20
1.56698
11
2.27004
21
1.56703
0
LINE
8
BLACK
6
CONTINUOUS
10
2.27004
20
1.56703
11
2.27491
21
1.56947
0
LINE
8
BLACK
6
CONTINUOUS
10
2.27491
20
1.56947
11
2.27589
21
1.56976
0
LINE
8
BLACK
6
CONTINUOUS
10
2.27589
20
1.56976
11
2.27607
21
1.56972
0
LINE
8
BLACK
6
CONTINUOUS
10
2.27607
20
1.56972
11
2.27623
21
1.56978
0
LINE
8
BLACK
6
CONTINUOUS
10
2.27623
20
1.56978
11
2.28842
21
1.56978
0
LINE
8
BLACK
6
CONTINUOUS
10
2.28842
20
1.56978
11
2.28943
21
1.5696
0
LINE
8
BLACK
6
CONTINUOUS
10
2.23825
20
1.5696
11
2.23838
21
1.56949
0
LINE
8
BLACK
6
CONTINUOUS
10
2.23838
20
1.56949
11
2.23856
21
1.56947
0
LINE
8
BLACK
6
CONTINUOUS
10
2.23856
20
1.56947
11
2.24343
21
1.56703
0
LINE
8
BLACK
6
CONTINUOUS
10
2.24343
20
1.56703
11
2.24414
21
1.5665
0
LINE
8
BLACK
6
CONTINUOUS
10
2.24414
20
1.5665
11
2.2442
21
1.56648
0
LINE
8
BLACK
6
CONTINUOUS
10
2.2442
20
1.56648
11
2.24664
21
1.56404
0
LINE
8
BLACK
6
CONTINUOUS
10
2.24664
20
1.56404
11
2.24714
21
1.56332
0
LINE
8
BLACK
6
CONTINUOUS
10
2.24714
20
1.56332
11
2.24719
21
1.56327
0
LINE
8
BLACK
6
CONTINUOUS
10
2.24719
20
1.56327
11
2.24963
21
1.5584
0
LINE
8
BLACK
6
CONTINUOUS
10
2.24963
20
1.5584
11
2.24977
21
1.55791
0
LINE
8
BLACK
6
CONTINUOUS
10
2.24977
20
1.55791
11
2.24985
21
1.55779
0
LINE
8
BLACK
6
CONTINUOUS
10
2.24985
20
1.55779
11
2.25229
21
1.54805
0
LINE
8
BLACK
6
CONTINUOUS
10
2.25229
20
1.54805
11
2.25233
21
1.54746
0
LINE
8
BLACK
6
CONTINUOUS
10
2.25233
20
1.54746
11
2.25238
21
1.54733
0
LINE
8
BLACK
6
CONTINUOUS
10
2.25238
20
1.54733
11
2.25238
21
1.53514
0
LINE
8
BLACK
6
CONTINUOUS
10
2.25238
20
1.53514
11
2.25227
21
1.53456
0
LINE
8
BLACK
6
CONTINUOUS
10
2.25227
20
1.53456
11
2.25229
21
1.53443
0
LINE
8
BLACK
6
CONTINUOUS
10
2.25229
20
1.53443
11
2.24985
21
1.52468
0
LINE
8
BLACK
6
CONTINUOUS
10
2.24985
20
1.52468
11
2.24964
21
1.52421
0
LINE
8
BLACK
6
CONTINUOUS
10
2.24964
20
1.52421
11
2.24963
21
1.52407
0
LINE
8
BLACK
6
CONTINUOUS
10
2.24963
20
1.52407
11
2.24719
21
1.5192
0
LINE
8
BLACK
6
CONTINUOUS
10
2.24719
20
1.5192
11
2.24666
21
1.51849
0
LINE
8
BLACK
6
CONTINUOUS
10
2.24666
20
1.51849
11
2.24664
21
1.51843
0
LINE
8
BLACK
6
CONTINUOUS
10
2.24664
20
1.51843
11
2.2442
21
1.516
0
LINE
8
BLACK
6
CONTINUOUS
10
2.2442
20
1.516
11
2.24348
21
1.51549
0
LINE
8
BLACK
6
CONTINUOUS
10
2.24348
20
1.51549
11
2.24343
21
1.51544
0
LINE
8
BLACK
6
CONTINUOUS
10
2.24343
20
1.51544
11
2.23856
21
1.513
0
LINE
8
BLACK
6
CONTINUOUS
10
2.23856
20
1.513
11
2.23757
21
1.51271
0
LINE
8
BLACK
6
CONTINUOUS
10
2.23757
20
1.51271
11
2.2374
21
1.51275
0
LINE
8
BLACK
6
CONTINUOUS
10
2.2374
20
1.51275
11
2.23724
21
1.51269
0
LINE
8
BLACK
6
CONTINUOUS
10
2.23724
20
1.51269
11
2.23236
21
1.51269
0
LINE
8
BLACK
6
CONTINUOUS
10
2.23236
20
1.51269
11
2.23135
21
1.51287
0
LINE
8
BLACK
6
CONTINUOUS
10
2.23135
20
1.51287
11
2.23122
21
1.51298
0
LINE
8
BLACK
6
CONTINUOUS
10
2.23122
20
1.51298
11
2.23104
21
1.513
0
LINE
8
BLACK
6
CONTINUOUS
10
2.23104
20
1.513
11
2.22617
21
1.51544
0
LINE
8
BLACK
6
CONTINUOUS
10
2.22617
20
1.51544
11
2.22546
21
1.51597
0
LINE
8
BLACK
6
CONTINUOUS
10
2.22546
20
1.51597
11
2.2254
21
1.516
0
LINE
8
BLACK
6
CONTINUOUS
10
2.2254
20
1.516
11
2.22296
21
1.51843
0
LINE
8
BLACK
6
CONTINUOUS
10
2.22296
20
1.51843
11
2.22246
21
1.51916
0
LINE
8
BLACK
6
CONTINUOUS
10
2.22246
20
1.51916
11
2.22241
21
1.5192
0
LINE
8
BLACK
6
CONTINUOUS
10
2.22241
20
1.5192
11
2.21997
21
1.52407
0
LINE
8
BLACK
6
CONTINUOUS
10
2.21997
20
1.52407
11
2.21983
21
1.52456
0
LINE
8
BLACK
6
CONTINUOUS
10
2.21983
20
1.52456
11
2.21975
21
1.52468
0
LINE
8
BLACK
6
CONTINUOUS
10
2.21975
20
1.52468
11
2.21731
21
1.53443
0
LINE
8
BLACK
6
CONTINUOUS
10
2.21731
20
1.53443
11
2.21727
21
1.53502
0
LINE
8
BLACK
6
CONTINUOUS
10
2.21727
20
1.53502
11
2.21722
21
1.53514
0
LINE
8
BLACK
6
CONTINUOUS
10
2.21722
20
1.53514
11
2.21722
21
1.54733
0
LINE
8
BLACK
6
CONTINUOUS
10
2.21722
20
1.54733
11
2.21733
21
1.54791
0
LINE
8
BLACK
6
CONTINUOUS
10
2.21733
20
1.54791
11
2.21731
21
1.54805
0
LINE
8
BLACK
6
CONTINUOUS
10
2.21731
20
1.54805
11
2.21975
21
1.55779
0
LINE
8
BLACK
6
CONTINUOUS
10
2.21975
20
1.55779
11
2.21996
21
1.55826
0
LINE
8
BLACK
6
CONTINUOUS
10
2.21996
20
1.55826
11
2.21997
21
1.5584
0
LINE
8
BLACK
6
CONTINUOUS
10
2.21997
20
1.5584
11
2.22241
21
1.56327
0
LINE
8
BLACK
6
CONTINUOUS
10
2.22241
20
1.56327
11
2.22294
21
1.56398
0
LINE
8
BLACK
6
CONTINUOUS
10
2.22294
20
1.56398
11
2.22296
21
1.56404
0
LINE
8
BLACK
6
CONTINUOUS
10
2.22296
20
1.56404
11
2.2254
21
1.56648
0
LINE
8
BLACK
6
CONTINUOUS
10
2.2254
20
1.56648
11
2.22612
21
1.56698
0
LINE
8
BLACK
6
CONTINUOUS
10
2.22612
20
1.56698
11
2.22617
21
1.56703
0
LINE
8
BLACK
6
CONTINUOUS
10
2.22617
20
1.56703
11
2.23104
21
1.56947
0
LINE
8
BLACK
6
CONTINUOUS
10
2.23104
20
1.56947
11
2.23202
21
1.56976
0
LINE
8
BLACK
6
CONTINUOUS
10
2.23202
20
1.56976
11
2.2322
21
1.56972
0
LINE
8
BLACK
6
CONTINUOUS
10
2.2322
20
1.56972
11
2.23236
21
1.56978
0
LINE
8
BLACK
6
CONTINUOUS
10
2.23236
20
1.56978
11
2.23724
21
1.56978
0
LINE
8
BLACK
6
CONTINUOUS
10
2.23724
20
1.56978
11
2.23825
21
1.5696
0
LINE
8
BLACK
6
CONTINUOUS
10
2.23306
20
1.56387
11
2.22924
21
1.56196
0
LINE
8
BLACK
6
CONTINUOUS
10
2.22924
20
1.56196
11
2.22748
21
1.5602
0
LINE
8
BLACK
6
CONTINUOUS
10
2.22748
20
1.5602
11
2.2254
21
1.55605
0
LINE
8
BLACK
6
CONTINUOUS
10
2.2254
20
1.55605
11
2.22313
21
1.54697
0
LINE
8
BLACK
6
CONTINUOUS
10
2.22313
20
1.54697
11
2.22313
21
1.53551
0
LINE
8
BLACK
6
CONTINUOUS
10
2.22313
20
1.53551
11
2.2254
21
1.52643
0
LINE
8
BLACK
6
CONTINUOUS
10
2.2254
20
1.52643
11
2.22748
21
1.52227
0
LINE
8
BLACK
6
CONTINUOUS
10
2.22748
20
1.52227
11
2.22924
21
1.52051
0
LINE
8
BLACK
6
CONTINUOUS
10
2.22924
20
1.52051
11
2.23306
21
1.5186
0
LINE
8
BLACK
6
CONTINUOUS
10
2.23306
20
1.5186
11
2.23654
21
1.5186
0
LINE
8
BLACK
6
CONTINUOUS
10
2.23654
20
1.5186
11
2.24036
21
1.52051
0
LINE
8
BLACK
6
CONTINUOUS
10
2.24036
20
1.52051
11
2.24212
21
1.52227
0
LINE
8
BLACK
6
CONTINUOUS
10
2.24212
20
1.52227
11
2.2442
21
1.52643
0
LINE
8
BLACK
6
CONTINUOUS
10
2.2442
20
1.52643
11
2.24647
21
1.53551
0
LINE
8
BLACK
6
CONTINUOUS
10
2.24647
20
1.53551
11
2.24647
21
1.54697
0
LINE
8
BLACK
6
CONTINUOUS
10
2.24647
20
1.54697
11
2.2442
21
1.55605
0
LINE
8
BLACK
6
CONTINUOUS
10
2.2442
20
1.55605
11
2.24212
21
1.5602
0
LINE
8
BLACK
6
CONTINUOUS
10
2.24212
20
1.5602
11
2.24036
21
1.56196
0
LINE
8
BLACK
6
CONTINUOUS
10
2.24036
20
1.56196
11
2.23654
21
1.56387
0
LINE
8
BLACK
6
CONTINUOUS
10
2.23654
20
1.56387
11
2.23306
21
1.56387
0
LINE
8
BLACK
6
CONTINUOUS
10
2.19194
20
1.5696
11
2.19208
21
1.56949
0
LINE
8
BLACK
6
CONTINUOUS
10
2.19208
20
1.56949
11
2.19225
21
1.56947
0
LINE
8
BLACK
6
CONTINUOUS
10
2.19225
20
1.56947
11
2.19712
21
1.56703
0
LINE
8
BLACK
6
CONTINUOUS
10
2.19712
20
1.56703
11
2.19783
21
1.5665
0
LINE
8
BLACK
6
CONTINUOUS
10
2.19783
20
1.5665
11
2.19789
21
1.56648
0
LINE
8
BLACK
6
CONTINUOUS
10
2.19789
20
1.56648
11
2.20033
21
1.56404
0
LINE
8
BLACK
6
CONTINUOUS
10
2.20033
20
1.56404
11
2.20084
21
1.56332
0
LINE
8
BLACK
6
CONTINUOUS
10
2.20084
20
1.56332
11
2.20088
21
1.56327
0
LINE
8
BLACK
6
CONTINUOUS
10
2.20088
20
1.56327
11
2.20332
21
1.5584
0
LINE
8
BLACK
6
CONTINUOUS
10
2.20332
20
1.5584
11
2.20361
21
1.55742
0
LINE
8
BLACK
6
CONTINUOUS
10
2.20361
20
1.55742
11
2.20357
21
1.55724
0
LINE
8
BLACK
6
CONTINUOUS
10
2.20357
20
1.55724
11
2.20363
21
1.55708
0
LINE
8
BLACK
6
CONTINUOUS
10
2.20363
20
1.55708
11
2.20363
21
1.5522
0
LINE
8
BLACK
6
CONTINUOUS
10
2.20363
20
1.5522
11
2.20348
21
1.55133
0
LINE
8
BLACK
6
CONTINUOUS
10
2.20348
20
1.55133
11
2.20348
21
1.55127
0
LINE
8
BLACK
6
CONTINUOUS
10
2.20348
20
1.55127
11
2.20104
21
1.54396
0
LINE
8
BLACK
6
CONTINUOUS
10
2.20104
20
1.54396
11
2.20055
21
1.54306
0
LINE
8
BLACK
6
CONTINUOUS
10
2.20055
20
1.54306
11
2.2004
21
1.54296
0
LINE
8
BLACK
6
CONTINUOUS
10
2.2004
20
1.54296
11
2.20033
21
1.5428
0
LINE
8
BLACK
6
CONTINUOUS
10
2.20033
20
1.5428
11
2.17612
21
1.5186
0
LINE
8
BLACK
6
CONTINUOUS
10
2.17612
20
1.5186
11
2.20068
21
1.5186
0
LINE
8
BLACK
6
CONTINUOUS
10
2.20068
20
1.5186
11
2.20169
21
1.51842
0
LINE
8
BLACK
6
CONTINUOUS
10
2.20169
20
1.51842
11
2.20324
21
1.51712
0
LINE
8
BLACK
6
CONTINUOUS
10
2.20324
20
1.51712
11
2.20359
21
1.51513
0
LINE
8
BLACK
6
CONTINUOUS
10
2.20359
20
1.51513
11
2.20258
21
1.51338
0
LINE
8
BLACK
6
CONTINUOUS
10
2.20258
20
1.51338
11
2.20068
21
1.51269
0
LINE
8
BLACK
6
CONTINUOUS
10
2.20068
20
1.51269
11
2.169
21
1.51269
0
LINE
8
BLACK
6
CONTINUOUS
10
2.169
20
1.51269
11
2.16836
21
1.51281
0
LINE
8
BLACK
6
CONTINUOUS
10
2.16836
20
1.51281
11
2.16823
21
1.51279
0
LINE
8
BLACK
6
CONTINUOUS
10
2.16823
20
1.51279
11
2.16817
21
1.51284
0
LINE
8
BLACK
6
CONTINUOUS
10
2.16817
20
1.51284
11
2.16799
21
1.51287
0
LINE
8
BLACK
6
CONTINUOUS
10
2.16799
20
1.51287
11
2.1673
21
1.51344
0
LINE
8
BLACK
6
CONTINUOUS
10
2.1673
20
1.51344
11
2.16658
21
1.51395
0
LINE
8
BLACK
6
CONTINUOUS
10
2.16658
20
1.51395
11
2.16654
21
1.51408
0
LINE
8
BLACK
6
CONTINUOUS
10
2.16654
20
1.51408
11
2.16644
21
1.51417
0
LINE
8
BLACK
6
CONTINUOUS
10
2.16644
20
1.51417
11
2.16628
21
1.51504
0
LINE
8
BLACK
6
CONTINUOUS
10
2.16628
20
1.51504
11
2.16605
21
1.5159
0
LINE
8
BLACK
6
CONTINUOUS
10
2.16605
20
1.5159
11
2.16611
21
1.51603
0
LINE
8
BLACK
6
CONTINUOUS
10
2.16611
20
1.51603
11
2.16609
21
1.51616
0
LINE
8
BLACK
6
CONTINUOUS
10
2.16609
20
1.51616
11
2.16653
21
1.51693
0
LINE
8
BLACK
6
CONTINUOUS
10
2.16653
20
1.51693
11
2.16691
21
1.51773
0
LINE
8
BLACK
6
CONTINUOUS
10
2.16691
20
1.51773
11
2.19566
21
1.54649
0
LINE
8
BLACK
6
CONTINUOUS
10
2.19566
20
1.54649
11
2.19773
21
1.55268
0
LINE
8
BLACK
6
CONTINUOUS
10
2.19773
20
1.55268
11
2.19773
21
1.55638
0
LINE
8
BLACK
6
CONTINUOUS
10
2.19773
20
1.55638
11
2.19581
21
1.5602
0
LINE
8
BLACK
6
CONTINUOUS
10
2.19581
20
1.5602
11
2.19406
21
1.56196
0
LINE
8
BLACK
6
CONTINUOUS
10
2.19406
20
1.56196
11
2.19023
21
1.56387
0
LINE
8
BLACK
6
CONTINUOUS
10
2.19023
20
1.56387
11
2.17944
21
1.56387
0
LINE
8
BLACK
6
CONTINUOUS
10
2.17944
20
1.56387
11
2.17562
21
1.56196
0
LINE
8
BLACK
6
CONTINUOUS
10
2.17562
20
1.56196
11
2.17352
21
1.55986
0
LINE
8
BLACK
6
CONTINUOUS
10
2.17352
20
1.55986
11
2.17268
21
1.55928
0
LINE
8
BLACK
6
CONTINUOUS
10
2.17268
20
1.55928
11
2.17067
21
1.5591
0
LINE
8
BLACK
6
CONTINUOUS
10
2.17067
20
1.5591
11
2.16901
21
1.56026
0
LINE
8
BLACK
6
CONTINUOUS
10
2.16901
20
1.56026
11
2.16849
21
1.56221
0
LINE
8
BLACK
6
CONTINUOUS
10
2.16849
20
1.56221
11
2.16934
21
1.56404
0
LINE
8
BLACK
6
CONTINUOUS
10
2.16934
20
1.56404
11
2.17178
21
1.56648
0
LINE
8
BLACK
6
CONTINUOUS
10
2.17178
20
1.56648
11
2.1725
21
1.56698
0
LINE
8
BLACK
6
CONTINUOUS
10
2.1725
20
1.56698
11
2.17255
21
1.56703
0
LINE
8
BLACK
6
CONTINUOUS
10
2.17255
20
1.56703
11
2.17742
21
1.56947
0
LINE
8
BLACK
6
CONTINUOUS
10
2.17742
20
1.56947
11
2.17841
21
1.56976
0
LINE
8
BLACK
6
CONTINUOUS
10
2.17841
20
1.56976
11
2.17858
21
1.56972
0
LINE
8
BLACK
6
CONTINUOUS
10
2.17858
20
1.56972
11
2.17874
21
1.56978
0
LINE
8
BLACK
6
CONTINUOUS
10
2.17874
20
1.56978
11
2.19093
21
1.56978
0
LINE
8
BLACK
6
CONTINUOUS
10
2.19093
20
1.56978
11
2.19194
21
1.5696
0
LINE
8
BLACK
6
CONTINUOUS
10
2.07739
20
1.5696
11
2.07753
21
1.56949
0
LINE
8
BLACK
6
CONTINUOUS
10
2.07753
20
1.56949
11
2.0777
21
1.56947
0
LINE
8
BLACK
6
CONTINUOUS
10
2.0777
20
1.56947
11
2.08258
21
1.56703
0
LINE
8
BLACK
6
CONTINUOUS
10
2.08258
20
1.56703
11
2.08329
21
1.5665
0
LINE
8
BLACK
6
CONTINUOUS
10
2.08329
20
1.5665
11
2.08334
21
1.56648
0
LINE
8
BLACK
6
CONTINUOUS
10
2.08334
20
1.56648
11
2.08578
21
1.56404
0
LINE
8
BLACK
6
CONTINUOUS
10
2.08578
20
1.56404
11
2.08629
21
1.56332
0
LINE
8
BLACK
6
CONTINUOUS
10
2.08629
20
1.56332
11
2.08633
21
1.56327
0
LINE
8
BLACK
6
CONTINUOUS
10
2.08633
20
1.56327
11
2.08877
21
1.5584
0
LINE
8
BLACK
6
CONTINUOUS
10
2.08877
20
1.5584
11
2.08906
21
1.55742
0
LINE
8
BLACK
6
CONTINUOUS
10
2.08906
20
1.55742
11
2.08902
21
1.55724
0
LINE
8
BLACK
6
CONTINUOUS
10
2.08902
20
1.55724
11
2.08908
21
1.55708
0
LINE
8
BLACK
6
CONTINUOUS
10
2.08908
20
1.55708
11
2.08908
21
1.5522
0
LINE
8
BLACK
6
CONTINUOUS
10
2.08908
20
1.5522
11
2.08891
21
1.55119
0
LINE
8
BLACK
6
CONTINUOUS
10
2.08891
20
1.55119
11
2.08879
21
1.55106
0
LINE
8
BLACK
6
CONTINUOUS
10
2.08879
20
1.55106
11
2.08877
21
1.55088
0
LINE
8
BLACK
6
CONTINUOUS
10
2.08877
20
1.55088
11
2.08633
21
1.54601
0
LINE
8
BLACK
6
CONTINUOUS
10
2.08633
20
1.54601
11
2.08581
21
1.5453
0
LINE
8
BLACK
6
CONTINUOUS
10
2.08581
20
1.5453
11
2.08578
21
1.54524
0
LINE
8
BLACK
6
CONTINUOUS
10
2.08578
20
1.54524
11
2.08368
21
1.54314
0
LINE
8
BLACK
6
CONTINUOUS
10
2.08368
20
1.54314
11
2.08463
21
1.54282
0
LINE
8
BLACK
6
CONTINUOUS
10
2.08463
20
1.54282
11
2.08553
21
1.54233
0
LINE
8
BLACK
6
CONTINUOUS
10
2.08553
20
1.54233
11
2.08562
21
1.54218
0
LINE
8
BLACK
6
CONTINUOUS
10
2.08562
20
1.54218
11
2.08578
21
1.54211
0
LINE
8
BLACK
6
CONTINUOUS
10
2.08578
20
1.54211
11
2.08822
21
1.53967
0
LINE
8
BLACK
6
CONTINUOUS
10
2.08822
20
1.53967
11
2.08872
21
1.53895
0
LINE
8
BLACK
6
CONTINUOUS
10
2.08872
20
1.53895
11
2.08877
21
1.5389
0
LINE
8
BLACK
6
CONTINUOUS
10
2.08877
20
1.5389
11
2.09121
21
1.53403
0
LINE
8
BLACK
6
CONTINUOUS
10
2.09121
20
1.53403
11
2.0915
21
1.53304
0
LINE
8
BLACK
6
CONTINUOUS
10
2.0915
20
1.53304
11
2.09146
21
1.53287
0
LINE
8
BLACK
6
CONTINUOUS
10
2.09146
20
1.53287
11
2.09152
21
1.53271
0
LINE
8
BLACK
6
CONTINUOUS
10
2.09152
20
1.53271
11
2.09152
21
1.52539
0
LINE
8
BLACK
6
CONTINUOUS
10
2.09152
20
1.52539
11
2.09134
21
1.52438
0
LINE
8
BLACK
6
CONTINUOUS
10
2.09134
20
1.52438
11
2.09123
21
1.52425
0
LINE
8
BLACK
6
CONTINUOUS
10
2.09123
20
1.52425
11
2.09121
21
1.52407
0
LINE
8
BLACK
6
CONTINUOUS
10
2.09121
20
1.52407
11
2.08877
21
1.5192
0
LINE
8
BLACK
6
CONTINUOUS
10
2.08877
20
1.5192
11
2.08825
21
1.51849
0
LINE
8
BLACK
6
CONTINUOUS
10
2.08825
20
1.51849
11
2.08822
21
1.51843
0
LINE
8
BLACK
6
CONTINUOUS
10
2.08822
20
1.51843
11
2.08578
21
1.516
0
LINE
8
BLACK
6
CONTINUOUS
10
2.08578
20
1.516
11
2.08506
21
1.51549
0
LINE
8
BLACK
6
CONTINUOUS
10
2.08506
20
1.51549
11
2.08501
21
1.51544
0
LINE
8
BLACK
6
CONTINUOUS
10
2.08501
20
1.51544
11
2.08014
21
1.513
0
LINE
8
BLACK
6
CONTINUOUS
10
2.08014
20
1.513
11
2.07916
21
1.51271
0
LINE
8
BLACK
6
CONTINUOUS
10
2.07916
20
1.51271
11
2.07898
21
1.51275
0
LINE
8
BLACK
6
CONTINUOUS
10
2.07898
20
1.51275
11
2.07882
21
1.51269
0
LINE
8
BLACK
6
CONTINUOUS
10
2.07882
20
1.51269
11
2.05932
21
1.51269
0
LINE
8
BLACK
6
CONTINUOUS
10
2.05932
20
1.51269
11
2.05894
21
1.51276
0
LINE
8
BLACK
6
CONTINUOUS
10
2.05894
20
1.51276
11
2.05881
21
1.51274
0
LINE
8
BLACK
6
CONTINUOUS
10
2.05881
20
1.51274
11
2.05869
21
1.5128
0
LINE
8
BLACK
6
CONTINUOUS
10
2.05869
20
1.5128
11
2.05831
21
1.51287
0
LINE
8
BLACK
6
CONTINUOUS
10
2.05831
20
1.51287
11
2.05772
21
1.51336
0
LINE
8
BLACK
6
CONTINUOUS
10
2.05772
20
1.51336
11
2.05706
21
1.51375
0
LINE
8
BLACK
6
CONTINUOUS
10
2.05706
20
1.51375
11
2.05697
21
1.514
0
LINE
8
BLACK
6
CONTINUOUS
10
2.05697
20
1.514
11
2.05676
21
1.51417
0
LINE
8
BLACK
6
CONTINUOUS
10
2.05676
20
1.51417
11
2.05663
21
1.51493
0
LINE
8
BLACK
6
CONTINUOUS
10
2.05663
20
1.51493
11
2.05637
21
1.51565
0
LINE
8
BLACK
6
CONTINUOUS
10
2.05637
20
1.51565
11
2.05637
21
1.56683
0
LINE
8
BLACK
6
CONTINUOUS
10
2.05637
20
1.56683
11
2.05644
21
1.56721
0
LINE
8
BLACK
6
CONTINUOUS
10
2.05644
20
1.56721
11
2.05641
21
1.56734
0
LINE
8
BLACK
6
CONTINUOUS
10
2.05641
20
1.56734
11
2.05648
21
1.56745
0
LINE
8
BLACK
6
CONTINUOUS
10
2.05648
20
1.56745
11
2.05655
21
1.56784
0
LINE
8
BLACK
6
CONTINUOUS
10
2.05655
20
1.56784
11
2.05704
21
1.56842
0
LINE
8
BLACK
6
CONTINUOUS
10
2.05704
20
1.56842
11
2.05742
21
1.56909
0
LINE
8
BLACK
6
CONTINUOUS
10
2.05742
20
1.56909
11
2.05767
21
1.56918
0
LINE
8
BLACK
6
CONTINUOUS
10
2.05767
20
1.56918
11
2.05784
21
1.56938
0
LINE
8
BLACK
6
CONTINUOUS
10
2.05784
20
1.56938
11
2.0586
21
1.56952
0
LINE
8
BLACK
6
CONTINUOUS
10
2.0586
20
1.56952
11
2.05932
21
1.56978
0
LINE
8
BLACK
6
CONTINUOUS
10
2.05932
20
1.56978
11
2.07638
21
1.56978
0
LINE
8
BLACK
6
CONTINUOUS
10
2.07638
20
1.56978
11
2.07739
21
1.5696
0
LINE
8
BLACK
6
CONTINUOUS
10
2.06227
20
1.5395
11
2.06227
21
1.5186
0
LINE
8
BLACK
6
CONTINUOUS
10
2.06227
20
1.5186
11
2.07812
21
1.5186
0
LINE
8
BLACK
6
CONTINUOUS
10
2.07812
20
1.5186
11
2.08194
21
1.52051
0
LINE
8
BLACK
6
CONTINUOUS
10
2.08194
20
1.52051
11
2.0837
21
1.52227
0
LINE
8
BLACK
6
CONTINUOUS
10
2.0837
20
1.52227
11
2.08561
21
1.52609
0
LINE
8
BLACK
6
CONTINUOUS
10
2.08561
20
1.52609
11
2.08561
21
1.53201
0
LINE
8
BLACK
6
CONTINUOUS
10
2.08561
20
1.53201
11
2.0837
21
1.53583
0
LINE
8
BLACK
6
CONTINUOUS
10
2.0837
20
1.53583
11
2.0821
21
1.53744
0
LINE
8
BLACK
6
CONTINUOUS
10
2.0821
20
1.53744
11
2.0759
21
1.5395
0
LINE
8
BLACK
6
CONTINUOUS
10
2.0759
20
1.5395
11
2.06227
21
1.5395
0
LINE
8
BLACK
6
CONTINUOUS
10
2.06227
20
1.56387
11
2.06227
21
1.54541
0
LINE
8
BLACK
6
CONTINUOUS
10
2.06227
20
1.54541
11
2.07568
21
1.54541
0
LINE
8
BLACK
6
CONTINUOUS
10
2.07568
20
1.54541
11
2.07951
21
1.54732
0
LINE
8
BLACK
6
CONTINUOUS
10
2.07951
20
1.54732
11
2.08127
21
1.54908
0
LINE
8
BLACK
6
CONTINUOUS
10
2.08127
20
1.54908
11
2.08318
21
1.5529
0
LINE
8
BLACK
6
CONTINUOUS
10
2.08318
20
1.5529
11
2.08318
21
1.55638
0
LINE
8
BLACK
6
CONTINUOUS
10
2.08318
20
1.55638
11
2.08127
21
1.5602
0
LINE
8
BLACK
6
CONTINUOUS
10
2.08127
20
1.5602
11
2.07951
21
1.56196
0
LINE
8
BLACK
6
CONTINUOUS
10
2.07951
20
1.56196
11
2.07568
21
1.56387
0
LINE
8
BLACK
6
CONTINUOUS
10
2.07568
20
1.56387
11
2.06227
21
1.56387
0
LINE
8
BLACK
6
CONTINUOUS
10
1.97628
20
1.56872
11
1.97697
21
1.56683
0
LINE
8
BLACK
6
CONTINUOUS
10
1.97697
20
1.56683
11
1.97697
21
1.5186
0
LINE
8
BLACK
6
CONTINUOUS
10
1.97697
20
1.5186
11
1.99839
21
1.5186
0
LINE
8
BLACK
6
CONTINUOUS
10
1.99839
20
1.5186
11
1.9994
21
1.51842
0
LINE
8
BLACK
6
CONTINUOUS
10
1.9994
20
1.51842
11
2.00095
21
1.51712
0
LINE
8
BLACK
6
CONTINUOUS
10
2.00095
20
1.51712
11
2.0013
21
1.51513
0
LINE
8
BLACK
6
CONTINUOUS
10
2.0013
20
1.51513
11
2.00029
21
1.51338
0
LINE
8
BLACK
6
CONTINUOUS
10
2.00029
20
1.51338
11
1.99839
21
1.51269
0
LINE
8
BLACK
6
CONTINUOUS
10
1.99839
20
1.51269
11
1.97402
21
1.51269
0
LINE
8
BLACK
6
CONTINUOUS
10
1.97402
20
1.51269
11
1.97364
21
1.51276
0
LINE
8
BLACK
6
CONTINUOUS
10
1.97364
20
1.51276
11
1.97351
21
1.51274
0
LINE
8
BLACK
6
CONTINUOUS
10
1.97351
20
1.51274
11
1.97339
21
1.5128
0
LINE
8
BLACK
6
CONTINUOUS
10
1.97339
20
1.5128
11
1.97301
21
1.51287
0
LINE
8
BLACK
6
CONTINUOUS
10
1.97301
20
1.51287
11
1.97242
21
1.51336
0
LINE
8
BLACK
6
CONTINUOUS
10
1.97242
20
1.51336
11
1.97176
21
1.51375
0
LINE
8
BLACK
6
CONTINUOUS
10
1.97176
20
1.51375
11
1.97167
21
1.514
0
LINE
8
BLACK
6
CONTINUOUS
10
1.97167
20
1.514
11
1.97146
21
1.51417
0
LINE
8
BLACK
6
CONTINUOUS
10
1.97146
20
1.51417
11
1.97133
21
1.51493
0
LINE
8
BLACK
6
CONTINUOUS
10
1.97133
20
1.51493
11
1.97107
21
1.51565
0
LINE
8
BLACK
6
CONTINUOUS
10
1.97107
20
1.51565
11
1.97107
21
1.56683
0
LINE
8
BLACK
6
CONTINUOUS
10
1.97107
20
1.56683
11
1.97124
21
1.56784
0
LINE
8
BLACK
6
CONTINUOUS
10
1.97124
20
1.56784
11
1.97254
21
1.56938
0
LINE
8
BLACK
6
CONTINUOUS
10
1.97254
20
1.56938
11
1.97453
21
1.56973
0
LINE
8
BLACK
6
CONTINUOUS
10
1.97453
20
1.56973
11
1.97628
21
1.56872
0
LINE
8
BLACK
6
CONTINUOUS
10
2.02568
20
1.56956
11
2.02661
21
1.56942
0
LINE
8
BLACK
6
CONTINUOUS
10
2.02661
20
1.56942
11
2.02666
21
1.56936
0
LINE
8
BLACK
6
CONTINUOUS
10
2.02666
20
1.56936
11
2.02675
21
1.56934
0
LINE
8
BLACK
6
CONTINUOUS
10
2.02675
20
1.56934
11
2.02733
21
1.56861
0
LINE
8
BLACK
6
CONTINUOUS
10
2.02733
20
1.56861
11
2.02795
21
1.56791
0
LINE
8
BLACK
6
CONTINUOUS
10
2.02795
20
1.56791
11
2.02795
21
1.56783
0
LINE
8
BLACK
6
CONTINUOUS
10
2.02795
20
1.56783
11
2.028
21
1.56776
0
LINE
8
BLACK
6
CONTINUOUS
10
2.028
20
1.56776
11
2.04506
21
1.51658
0
LINE
8
BLACK
6
CONTINUOUS
10
2.04506
20
1.51658
11
2.04521
21
1.51557
0
LINE
8
BLACK
6
CONTINUOUS
10
2.04521
20
1.51557
11
2.04447
21
1.51369
0
LINE
8
BLACK
6
CONTINUOUS
10
2.04447
20
1.51369
11
2.04269
21
1.51273
0
LINE
8
BLACK
6
CONTINUOUS
10
2.04269
20
1.51273
11
2.04072
21
1.51313
0
LINE
8
BLACK
6
CONTINUOUS
10
2.04072
20
1.51313
11
2.03946
21
1.51471
0
LINE
8
BLACK
6
CONTINUOUS
10
2.03946
20
1.51471
11
2.03526
21
1.52732
0
LINE
8
BLACK
6
CONTINUOUS
10
2.03526
20
1.52732
11
2.01514
21
1.52732
0
LINE
8
BLACK
6
CONTINUOUS
10
2.01514
20
1.52732
11
2.01094
21
1.51471
0
LINE
8
BLACK
6
CONTINUOUS
10
2.01094
20
1.51471
11
2.01045
21
1.51381
0
LINE
8
BLACK
6
CONTINUOUS
10
2.01045
20
1.51381
11
2.00873
21
1.51275
0
LINE
8
BLACK
6
CONTINUOUS
10
2.00873
20
1.51275
11
2.00673
21
1.51305
0
LINE
8
BLACK
6
CONTINUOUS
10
2.00673
20
1.51305
11
2.00539
21
1.51456
0
LINE
8
BLACK
6
CONTINUOUS
10
2.00539
20
1.51456
11
2.00534
21
1.51658
0
LINE
8
BLACK
6
CONTINUOUS
10
2.00534
20
1.51658
11
2.0224
21
1.56776
0
LINE
8
BLACK
6
CONTINUOUS
10
2.0224
20
1.56776
11
2.02289
21
1.56866
0
LINE
8
BLACK
6
CONTINUOUS
10
2.02289
20
1.56866
11
2.02296
21
1.56871
0
LINE
8
BLACK
6
CONTINUOUS
10
2.02296
20
1.56871
11
2.02299
21
1.56879
0
LINE
8
BLACK
6
CONTINUOUS
10
2.02299
20
1.56879
11
2.02381
21
1.56923
0
LINE
8
BLACK
6
CONTINUOUS
10
2.02381
20
1.56923
11
2.02461
21
1.56972
0
LINE
8
BLACK
6
CONTINUOUS
10
2.02461
20
1.56972
11
2.02469
21
1.56971
0
LINE
8
BLACK
6
CONTINUOUS
10
2.02469
20
1.56971
11
2.02477
21
1.56975
0
LINE
8
BLACK
6
CONTINUOUS
10
2.02477
20
1.56975
11
2.02568
21
1.56956
0
LINE
8
BLACK
6
CONTINUOUS
10
2.01711
20
1.53322
11
2.03329
21
1.53322
0
LINE
8
BLACK
6
CONTINUOUS
10
2.03329
20
1.53322
11
2.0252
21
1.55749
0
LINE
8
BLACK
6
CONTINUOUS
10
2.0252
20
1.55749
11
2.01711
21
1.53322
0
LINE
8
BLACK
6
CONTINUOUS
10
1.94977
20
1.56967
11
1.95016
21
1.56973
0
LINE
8
BLACK
6
CONTINUOUS
10
1.95016
20
1.56973
11
1.95072
21
1.56941
0
LINE
8
BLACK
6
CONTINUOUS
10
1.95072
20
1.56941
11
1.95134
21
1.56925
0
LINE
8
BLACK
6
CONTINUOUS
10
1.95134
20
1.56925
11
1.95157
21
1.56892
0
LINE
8
BLACK
6
CONTINUOUS
10
1.95157
20
1.56892
11
1.95191
21
1.56872
0
LINE
8
BLACK
6
CONTINUOUS
10
1.95191
20
1.56872
11
1.95213
21
1.56812
0
LINE
8
BLACK
6
CONTINUOUS
10
1.95213
20
1.56812
11
1.9525
21
1.56759
0
LINE
8
BLACK
6
CONTINUOUS
10
1.9525
20
1.56759
11
1.95247
21
1.5672
0
LINE
8
BLACK
6
CONTINUOUS
10
1.95247
20
1.5672
11
1.9526
21
1.56683
0
LINE
8
BLACK
6
CONTINUOUS
10
1.9526
20
1.56683
11
1.9526
21
1.51565
0
LINE
8
BLACK
6
CONTINUOUS
10
1.9526
20
1.51565
11
1.95242
21
1.51464
0
LINE
8
BLACK
6
CONTINUOUS
10
1.95242
20
1.51464
11
1.95112
21
1.51309
0
LINE
8
BLACK
6
CONTINUOUS
10
1.95112
20
1.51309
11
1.94913
21
1.51274
0
LINE
8
BLACK
6
CONTINUOUS
10
1.94913
20
1.51274
11
1.94739
21
1.51375
0
LINE
8
BLACK
6
CONTINUOUS
10
1.94739
20
1.51375
11
1.94669
21
1.51565
0
LINE
8
BLACK
6
CONTINUOUS
10
1.94669
20
1.51565
11
1.94669
21
1.55352
0
LINE
8
BLACK
6
CONTINUOUS
10
1.94669
20
1.55352
11
1.93526
21
1.52902
0
LINE
8
BLACK
6
CONTINUOUS
10
1.93526
20
1.52902
11
1.93504
21
1.5287
0
LINE
8
BLACK
6
CONTINUOUS
10
1.93504
20
1.5287
11
1.93501
21
1.52858
0
LINE
8
BLACK
6
CONTINUOUS
10
1.93501
20
1.52858
11
1.9349
21
1.5285
0
LINE
8
BLACK
6
CONTINUOUS
10
1.9349
20
1.5285
11
1.93467
21
1.52818
0
LINE
8
BLACK
6
CONTINUOUS
10
1.93467
20
1.52818
11
1.93398
21
1.52786
0
LINE
8
BLACK
6
CONTINUOUS
10
1.93398
20
1.52786
11
1.93335
21
1.52742
0
LINE
8
BLACK
6
CONTINUOUS
10
1.93335
20
1.52742
11
1.93309
21
1.52744
0
LINE
8
BLACK
6
CONTINUOUS
10
1.93309
20
1.52744
11
1.93284
21
1.52733
0
LINE
8
BLACK
6
CONTINUOUS
10
1.93284
20
1.52733
11
1.9321
21
1.52753
0
LINE
8
BLACK
6
CONTINUOUS
10
1.9321
20
1.52753
11
1.93134
21
1.52759
0
LINE
8
BLACK
6
CONTINUOUS
10
1.93134
20
1.52759
11
1.93115
21
1.52778
0
LINE
8
BLACK
6
CONTINUOUS
10
1.93115
20
1.52778
11
1.93089
21
1.52785
0
LINE
8
BLACK
6
CONTINUOUS
10
1.93089
20
1.52785
11
1.93045
21
1.52848
0
LINE
8
BLACK
6
CONTINUOUS
10
1.93045
20
1.52848
11
1.92991
21
1.52902
0
LINE
8
BLACK
6
CONTINUOUS
10
1.92991
20
1.52902
11
1.91848
21
1.55352
0
LINE
8
BLACK
6
CONTINUOUS
10
1.91848
20
1.55352
11
1.91848
21
1.51565
0
LINE
8
BLACK
6
CONTINUOUS
10
1.91848
20
1.51565
11
1.9183
21
1.51464
0
LINE
8
BLACK
6
CONTINUOUS
10
1.9183
20
1.51464
11
1.917
21
1.51309
0
LINE
8
BLACK
6
CONTINUOUS
10
1.917
20
1.51309
11
1.91501
21
1.51274
0
LINE
8
BLACK
6
CONTINUOUS
10
1.91501
20
1.51274
11
1.91326
21
1.51375
0
LINE
8
BLACK
6
CONTINUOUS
10
1.91326
20
1.51375
11
1.91257
21
1.51565
0
LINE
8
BLACK
6
CONTINUOUS
10
1.91257
20
1.51565
11
1.91257
21
1.56683
0
LINE
8
BLACK
6
CONTINUOUS
10
1.91257
20
1.56683
11
1.91275
21
1.56784
0
LINE
8
BLACK
6
CONTINUOUS
10
1.91275
20
1.56784
11
1.91301
21
1.56814
0
LINE
8
BLACK
6
CONTINUOUS
10
1.91301
20
1.56814
11
1.91311
21
1.56852
0
LINE
8
BLACK
6
CONTINUOUS
10
1.91311
20
1.56852
11
1.91364
21
1.56889
0
LINE
8
BLACK
6
CONTINUOUS
10
1.91364
20
1.56889
11
1.91405
21
1.56938
0
LINE
8
BLACK
6
CONTINUOUS
10
1.91405
20
1.56938
11
1.91444
21
1.56945
0
LINE
8
BLACK
6
CONTINUOUS
10
1.91444
20
1.56945
11
1.91476
21
1.56968
0
LINE
8
BLACK
6
CONTINUOUS
10
1.91476
20
1.56968
11
1.9154
21
1.56962
0
LINE
8
BLACK
6
CONTINUOUS
10
1.9154
20
1.56962
11
1.91604
21
1.56973
0
LINE
8
BLACK
6
CONTINUOUS
10
1.91604
20
1.56973
11
1.91638
21
1.56954
0
LINE
8
BLACK
6
CONTINUOUS
10
1.91638
20
1.56954
11
1.91677
21
1.5695
0
LINE
8
BLACK
6
CONTINUOUS
10
1.91677
20
1.5695
11
1.91723
21
1.56905
0
LINE
8
BLACK
6
CONTINUOUS
10
1.91723
20
1.56905
11
1.91779
21
1.56872
0
LINE
8
BLACK
6
CONTINUOUS
10
1.91779
20
1.56872
11
1.91792
21
1.56835
0
LINE
8
BLACK
6
CONTINUOUS
10
1.91792
20
1.56835
11
1.9182
21
1.56808
0
LINE
8
BLACK
6
CONTINUOUS
10
1.9182
20
1.56808
11
1.93259
21
1.53725
0
LINE
8
BLACK
6
CONTINUOUS
10
1.93259
20
1.53725
11
1.94697
21
1.56808
0
LINE
8
BLACK
6
CONTINUOUS
10
1.94697
20
1.56808
11
1.94756
21
1.56892
0
LINE
8
BLACK
6
CONTINUOUS
10
1.94756
20
1.56892
11
1.94792
21
1.56908
0
LINE
8
BLACK
6
CONTINUOUS
10
1.94792
20
1.56908
11
1.94817
21
1.56938
0
LINE
8
BLACK
6
CONTINUOUS
10
1.94817
20
1.56938
11
1.94881
21
1.5695
0
LINE
8
BLACK
6
CONTINUOUS
10
1.94881
20
1.5695
11
1.94939
21
1.56977
0
LINE
8
BLACK
6
CONTINUOUS
10
1.94939
20
1.56977
11
1.94977
21
1.56967
0
LINE
8
BLACK
6
CONTINUOUS
10
2.1895
20
1.652
11
2.18964
21
1.65189
0
LINE
8
BLACK
6
CONTINUOUS
10
2.18964
20
1.65189
11
2.18981
21
1.65187
0
LINE
8
BLACK
6
CONTINUOUS
10
2.18981
20
1.65187
11
2.19469
21
1.64943
0
LINE
8
BLACK
6
CONTINUOUS
10
2.19469
20
1.64943
11
2.1954
21
1.64891
0
LINE
8
BLACK
6
CONTINUOUS
10
2.1954
20
1.64891
11
2.19545
21
1.64888
0
LINE
8
BLACK
6
CONTINUOUS
10
2.19545
20
1.64888
11
2.19789
21
1.64644
0
LINE
8
BLACK
6
CONTINUOUS
10
2.19789
20
1.64644
11
2.1984
21
1.64572
0
LINE
8
BLACK
6
CONTINUOUS
10
2.1984
20
1.64572
11
2.19845
21
1.64567
0
LINE
8
BLACK
6
CONTINUOUS
10
2.19845
20
1.64567
11
2.20088
21
1.6408
0
LINE
8
BLACK
6
CONTINUOUS
10
2.20088
20
1.6408
11
2.20103
21
1.64031
0
LINE
8
BLACK
6
CONTINUOUS
10
2.20103
20
1.64031
11
2.20111
21
1.6402
0
LINE
8
BLACK
6
CONTINUOUS
10
2.20111
20
1.6402
11
2.20354
21
1.63045
0
LINE
8
BLACK
6
CONTINUOUS
10
2.20354
20
1.63045
11
2.20358
21
1.62986
0
LINE
8
BLACK
6
CONTINUOUS
10
2.20358
20
1.62986
11
2.20363
21
1.62973
0
LINE
8
BLACK
6
CONTINUOUS
10
2.20363
20
1.62973
11
2.20363
21
1.61755
0
LINE
8
BLACK
6
CONTINUOUS
10
2.20363
20
1.61755
11
2.20353
21
1.61696
0
LINE
8
BLACK
6
CONTINUOUS
10
2.20353
20
1.61696
11
2.20354
21
1.61683
0
LINE
8
BLACK
6
CONTINUOUS
10
2.20354
20
1.61683
11
2.20111
21
1.60708
0
LINE
8
BLACK
6
CONTINUOUS
10
2.20111
20
1.60708
11
2.2009
21
1.60661
0
LINE
8
BLACK
6
CONTINUOUS
10
2.2009
20
1.60661
11
2.20088
21
1.60648
0
LINE
8
BLACK
6
CONTINUOUS
10
2.20088
20
1.60648
11
2.19845
21
1.6016
0
LINE
8
BLACK
6
CONTINUOUS
10
2.19845
20
1.6016
11
2.19792
21
1.60089
0
LINE
8
BLACK
6
CONTINUOUS
10
2.19792
20
1.60089
11
2.19789
21
1.60083
0
LINE
8
BLACK
6
CONTINUOUS
10
2.19789
20
1.60083
11
2.19545
21
1.5984
0
LINE
8
BLACK
6
CONTINUOUS
10
2.19545
20
1.5984
11
2.19473
21
1.59789
0
LINE
8
BLACK
6
CONTINUOUS
10
2.19473
20
1.59789
11
2.19469
21
1.59784
0
LINE
8
BLACK
6
CONTINUOUS
10
2.19469
20
1.59784
11
2.18981
21
1.59541
0
LINE
8
BLACK
6
CONTINUOUS
10
2.18981
20
1.59541
11
2.18883
21
1.59511
0
LINE
8
BLACK
6
CONTINUOUS
10
2.18883
20
1.59511
11
2.18866
21
1.59516
0
LINE
8
BLACK
6
CONTINUOUS
10
2.18866
20
1.59516
11
2.18849
21
1.59509
0
LINE
8
BLACK
6
CONTINUOUS
10
2.18849
20
1.59509
11
2.18362
21
1.59509
0
LINE
8
BLACK
6
CONTINUOUS
10
2.18362
20
1.59509
11
2.18261
21
1.59527
0
LINE
8
BLACK
6
CONTINUOUS
10
2.18261
20
1.59527
11
2.18247
21
1.59539
0
LINE
8
BLACK
6
CONTINUOUS
10
2.18247
20
1.59539
11
2.1823
21
1.59541
0
LINE
8
BLACK
6
CONTINUOUS
10
2.1823
20
1.59541
11
2.17742
21
1.59784
0
LINE
8
BLACK
6
CONTINUOUS
10
2.17742
20
1.59784
11
2.17671
21
1.59837
0
LINE
8
BLACK
6
CONTINUOUS
10
2.17671
20
1.59837
11
2.17666
21
1.5984
0
LINE
8
BLACK
6
CONTINUOUS
10
2.17666
20
1.5984
11
2.17422
21
1.60083
0
LINE
8
BLACK
6
CONTINUOUS
10
2.17422
20
1.60083
11
2.17371
21
1.60156
0
LINE
8
BLACK
6
CONTINUOUS
10
2.17371
20
1.60156
11
2.17367
21
1.6016
0
LINE
8
BLACK
6
CONTINUOUS
10
2.17367
20
1.6016
11
2.17123
21
1.60648
0
LINE
8
BLACK
6
CONTINUOUS
10
2.17123
20
1.60648
11
2.17108
21
1.60696
0
LINE
8
BLACK
6
CONTINUOUS
10
2.17108
20
1.60696
11
2.171
21
1.60708
0
LINE
8
BLACK
6
CONTINUOUS
10
2.171
20
1.60708
11
2.16857
21
1.61683
0
LINE
8
BLACK
6
CONTINUOUS
10
2.16857
20
1.61683
11
2.16853
21
1.61742
0
LINE
8
BLACK
6
CONTINUOUS
10
2.16853
20
1.61742
11
2.16848
21
1.61755
0
LINE
8
BLACK
6
CONTINUOUS
10
2.16848
20
1.61755
11
2.16848
21
1.62973
0
LINE
8
BLACK
6
CONTINUOUS
10
2.16848
20
1.62973
11
2.16858
21
1.63031
0
LINE
8
BLACK
6
CONTINUOUS
10
2.16858
20
1.63031
11
2.16857
21
1.63045
0
LINE
8
BLACK
6
CONTINUOUS
10
2.16857
20
1.63045
11
2.171
21
1.6402
0
LINE
8
BLACK
6
CONTINUOUS
10
2.171
20
1.6402
11
2.17121
21
1.64066
0
LINE
8
BLACK
6
CONTINUOUS
10
2.17121
20
1.64066
11
2.17123
21
1.6408
0
LINE
8
BLACK
6
CONTINUOUS
10
2.17123
20
1.6408
11
2.17367
21
1.64567
0
LINE
8
BLACK
6
CONTINUOUS
10
2.17367
20
1.64567
11
2.17419
21
1.64638
0
LINE
8
BLACK
6
CONTINUOUS
10
2.17419
20
1.64638
11
2.17422
21
1.64644
0
LINE
8
BLACK
6
CONTINUOUS
10
2.17422
20
1.64644
11
2.17666
21
1.64888
0
LINE
8
BLACK
6
CONTINUOUS
10
2.17666
20
1.64888
11
2.17738
21
1.64939
0
LINE
8
BLACK
6
CONTINUOUS
10
2.17738
20
1.64939
11
2.17742
21
1.64943
0
LINE
8
BLACK
6
CONTINUOUS
10
2.17742
20
1.64943
11
2.1823
21
1.65187
0
LINE
8
BLACK
6
CONTINUOUS
10
2.1823
20
1.65187
11
2.18328
21
1.65216
0
LINE
8
BLACK
6
CONTINUOUS
10
2.18328
20
1.65216
11
2.18345
21
1.65212
0
LINE
8
BLACK
6
CONTINUOUS
10
2.18345
20
1.65212
11
2.18362
21
1.65218
0
LINE
8
BLACK
6
CONTINUOUS
10
2.18362
20
1.65218
11
2.18849
21
1.65218
0
LINE
8
BLACK
6
CONTINUOUS
10
2.18849
20
1.65218
11
2.1895
21
1.652
0
LINE
8
BLACK
6
CONTINUOUS
10
2.18432
20
1.64628
11
2.18049
21
1.64436
0
LINE
8
BLACK
6
CONTINUOUS
10
2.18049
20
1.64436
11
2.17873
21
1.64261
0
LINE
8
BLACK
6
CONTINUOUS
10
2.17873
20
1.64261
11
2.17666
21
1.63845
0
LINE
8
BLACK
6
CONTINUOUS
10
2.17666
20
1.63845
11
2.17439
21
1.62937
0
LINE
8
BLACK
6
CONTINUOUS
10
2.17439
20
1.62937
11
2.17439
21
1.61791
0
LINE
8
BLACK
6
CONTINUOUS
10
2.17439
20
1.61791
11
2.17666
21
1.60883
0
LINE
8
BLACK
6
CONTINUOUS
10
2.17666
20
1.60883
11
2.17873
21
1.60467
0
LINE
8
BLACK
6
CONTINUOUS
10
2.17873
20
1.60467
11
2.18049
21
1.60291
0
LINE
8
BLACK
6
CONTINUOUS
10
2.18049
20
1.60291
11
2.18432
21
1.601
0
LINE
8
BLACK
6
CONTINUOUS
10
2.18432
20
1.601
11
2.1878
21
1.601
0
LINE
8
BLACK
6
CONTINUOUS
10
2.1878
20
1.601
11
2.19162
21
1.60291
0
LINE
8
BLACK
6
CONTINUOUS
10
2.19162
20
1.60291
11
2.19338
21
1.60467
0
LINE
8
BLACK
6
CONTINUOUS
10
2.19338
20
1.60467
11
2.19546
21
1.60883
0
LINE
8
BLACK
6
CONTINUOUS
10
2.19546
20
1.60883
11
2.19773
21
1.61791
0
LINE
8
BLACK
6
CONTINUOUS
10
2.19773
20
1.61791
11
2.19773
21
1.62937
0
LINE
8
BLACK
6
CONTINUOUS
10
2.19773
20
1.62937
11
2.19546
21
1.63845
0
LINE
8
BLACK
6
CONTINUOUS
10
2.19546
20
1.63845
11
2.19338
21
1.64261
0
LINE
8
BLACK
6
CONTINUOUS
10
2.19338
20
1.64261
11
2.19162
21
1.64436
0
LINE
8
BLACK
6
CONTINUOUS
10
2.19162
20
1.64436
11
2.1878
21
1.64628
0
LINE
8
BLACK
6
CONTINUOUS
10
2.1878
20
1.64628
11
2.18432
21
1.64628
0
LINE
8
BLACK
6
CONTINUOUS
10
2.23514
20
1.65211
11
2.23531
21
1.65214
0
LINE
8
BLACK
6
CONTINUOUS
10
2.23531
20
1.65214
11
2.23605
21
1.65171
0
LINE
8
BLACK
6
CONTINUOUS
10
2.23605
20
1.65171
11
2.23684
21
1.65136
0
LINE
8
BLACK
6
CONTINUOUS
10
2.23684
20
1.65136
11
2.23691
21
1.65121
0
LINE
8
BLACK
6
CONTINUOUS
10
2.23691
20
1.65121
11
2.23706
21
1.65113
0
LINE
8
BLACK
6
CONTINUOUS
10
2.23706
20
1.65113
11
2.23735
21
1.65032
0
LINE
8
BLACK
6
CONTINUOUS
10
2.23735
20
1.65032
11
2.23773
21
1.64955
0
LINE
8
BLACK
6
CONTINUOUS
10
2.23773
20
1.64955
11
2.23769
21
1.64939
0
LINE
8
BLACK
6
CONTINUOUS
10
2.23769
20
1.64939
11
2.23775
21
1.64923
0
LINE
8
BLACK
6
CONTINUOUS
10
2.23775
20
1.64923
11
2.23775
21
1.601
0
LINE
8
BLACK
6
CONTINUOUS
10
2.23775
20
1.601
11
2.24942
21
1.601
0
LINE
8
BLACK
6
CONTINUOUS
10
2.24942
20
1.601
11
2.25043
21
1.60082
0
LINE
8
BLACK
6
CONTINUOUS
10
2.25043
20
1.60082
11
2.25198
21
1.59952
0
LINE
8
BLACK
6
CONTINUOUS
10
2.25198
20
1.59952
11
2.25233
21
1.59753
0
LINE
8
BLACK
6
CONTINUOUS
10
2.25233
20
1.59753
11
2.25132
21
1.59579
0
LINE
8
BLACK
6
CONTINUOUS
10
2.25132
20
1.59579
11
2.24942
21
1.59509
0
LINE
8
BLACK
6
CONTINUOUS
10
2.24942
20
1.59509
11
2.22018
21
1.59509
0
LINE
8
BLACK
6
CONTINUOUS
10
2.22018
20
1.59509
11
2.21917
21
1.59527
0
LINE
8
BLACK
6
CONTINUOUS
10
2.21917
20
1.59527
11
2.21762
21
1.59657
0
LINE
8
BLACK
6
CONTINUOUS
10
2.21762
20
1.59657
11
2.21727
21
1.59856
0
LINE
8
BLACK
6
CONTINUOUS
10
2.21727
20
1.59856
11
2.21828
21
1.60031
0
LINE
8
BLACK
6
CONTINUOUS
10
2.21828
20
1.60031
11
2.22018
21
1.601
0
LINE
8
BLACK
6
CONTINUOUS
10
2.22018
20
1.601
11
2.23185
21
1.601
0
LINE
8
BLACK
6
CONTINUOUS
10
2.23185
20
1.601
11
2.23185
21
1.63966
0
LINE
8
BLACK
6
CONTINUOUS
10
2.23185
20
1.63966
11
2.22714
21
1.63495
0
LINE
8
BLACK
6
CONTINUOUS
10
2.22714
20
1.63495
11
2.22642
21
1.63445
0
LINE
8
BLACK
6
CONTINUOUS
10
2.22642
20
1.63445
11
2.22637
21
1.6344
0
LINE
8
BLACK
6
CONTINUOUS
10
2.22637
20
1.6344
11
2.2215
21
1.63196
0
LINE
8
BLACK
6
CONTINUOUS
10
2.2215
20
1.63196
11
2.22051
21
1.63167
0
LINE
8
BLACK
6
CONTINUOUS
10
2.22051
20
1.63167
11
2.21855
21
1.63214
0
LINE
8
BLACK
6
CONTINUOUS
10
2.21855
20
1.63214
11
2.21735
21
1.63376
0
LINE
8
BLACK
6
CONTINUOUS
10
2.21735
20
1.63376
11
2.21747
21
1.63578
0
LINE
8
BLACK
6
CONTINUOUS
10
2.21747
20
1.63578
11
2.21886
21
1.63725
0
LINE
8
BLACK
6
CONTINUOUS
10
2.21886
20
1.63725
11
2.2233
21
1.63947
0
LINE
8
BLACK
6
CONTINUOUS
10
2.2233
20
1.63947
11
2.22763
21
1.6438
0
LINE
8
BLACK
6
CONTINUOUS
10
2.22763
20
1.6438
11
2.23234
21
1.65087
0
LINE
8
BLACK
6
CONTINUOUS
10
2.23234
20
1.65087
11
2.23305
21
1.65161
0
LINE
8
BLACK
6
CONTINUOUS
10
2.23305
20
1.65161
11
2.23321
21
1.65166
0
LINE
8
BLACK
6
CONTINUOUS
10
2.23321
20
1.65166
11
2.23332
21
1.65179
0
LINE
8
BLACK
6
CONTINUOUS
10
2.23332
20
1.65179
11
2.23417
21
1.65193
0
LINE
8
BLACK
6
CONTINUOUS
10
2.23417
20
1.65193
11
2.23499
21
1.65218
0
LINE
8
BLACK
6
CONTINUOUS
10
2.23499
20
1.65218
11
2.23514
21
1.65211
0
LINE
8
BLACK
6
CONTINUOUS
10
2.14076
20
1.652
11
2.14089
21
1.65189
0
LINE
8
BLACK
6
CONTINUOUS
10
2.14089
20
1.65189
11
2.14107
21
1.65187
0
LINE
8
BLACK
6
CONTINUOUS
10
2.14107
20
1.65187
11
2.14594
21
1.64943
0
LINE
8
BLACK
6
CONTINUOUS
10
2.14594
20
1.64943
11
2.14665
21
1.64891
0
LINE
8
BLACK
6
CONTINUOUS
10
2.14665
20
1.64891
11
2.14671
21
1.64888
0
LINE
8
BLACK
6
CONTINUOUS
10
2.14671
20
1.64888
11
2.14915
21
1.64644
0
LINE
8
BLACK
6
CONTINUOUS
10
2.14915
20
1.64644
11
2.14965
21
1.64572
0
LINE
8
BLACK
6
CONTINUOUS
10
2.14965
20
1.64572
11
2.1497
21
1.64567
0
LINE
8
BLACK
6
CONTINUOUS
10
2.1497
20
1.64567
11
2.15214
21
1.6408
0
LINE
8
BLACK
6
CONTINUOUS
10
2.15214
20
1.6408
11
2.15243
21
1.63982
0
LINE
8
BLACK
6
CONTINUOUS
10
2.15243
20
1.63982
11
2.15239
21
1.63965
0
LINE
8
BLACK
6
CONTINUOUS
10
2.15239
20
1.63965
11
2.15245
21
1.63948
0
LINE
8
BLACK
6
CONTINUOUS
10
2.15245
20
1.63948
11
2.15245
21
1.63461
0
LINE
8
BLACK
6
CONTINUOUS
10
2.15245
20
1.63461
11
2.15227
21
1.6336
0
LINE
8
BLACK
6
CONTINUOUS
10
2.15227
20
1.6336
11
2.15216
21
1.63346
0
LINE
8
BLACK
6
CONTINUOUS
10
2.15216
20
1.63346
11
2.15214
21
1.63328
0
LINE
8
BLACK
6
CONTINUOUS
10
2.15214
20
1.63328
11
2.1497
21
1.62841
0
LINE
8
BLACK
6
CONTINUOUS
10
2.1497
20
1.62841
11
2.14918
21
1.6277
0
LINE
8
BLACK
6
CONTINUOUS
10
2.14918
20
1.6277
11
2.14915
21
1.62764
0
LINE
8
BLACK
6
CONTINUOUS
10
2.14915
20
1.62764
11
2.14704
21
1.62554
0
LINE
8
BLACK
6
CONTINUOUS
10
2.14704
20
1.62554
11
2.14799
21
1.62522
0
LINE
8
BLACK
6
CONTINUOUS
10
2.14799
20
1.62522
11
2.1489
21
1.62473
0
LINE
8
BLACK
6
CONTINUOUS
10
2.1489
20
1.62473
11
2.14899
21
1.62458
0
LINE
8
BLACK
6
CONTINUOUS
10
2.14899
20
1.62458
11
2.14915
21
1.62451
0
LINE
8
BLACK
6
CONTINUOUS
10
2.14915
20
1.62451
11
2.15159
21
1.62207
0
LINE
8
BLACK
6
CONTINUOUS
10
2.15159
20
1.62207
11
2.15209
21
1.62135
0
LINE
8
BLACK
6
CONTINUOUS
10
2.15209
20
1.62135
11
2.15214
21
1.6213
0
LINE
8
BLACK
6
CONTINUOUS
10
2.15214
20
1.6213
11
2.15458
21
1.61643
0
LINE
8
BLACK
6
CONTINUOUS
10
2.15458
20
1.61643
11
2.15487
21
1.61545
0
LINE
8
BLACK
6
CONTINUOUS
10
2.15487
20
1.61545
11
2.15483
21
1.61527
0
LINE
8
BLACK
6
CONTINUOUS
10
2.15483
20
1.61527
11
2.15489
21
1.61511
0
LINE
8
BLACK
6
CONTINUOUS
10
2.15489
20
1.61511
11
2.15489
21
1.6078
0
LINE
8
BLACK
6
CONTINUOUS
10
2.15489
20
1.6078
11
2.15471
21
1.60679
0
LINE
8
BLACK
6
CONTINUOUS
10
2.15471
20
1.60679
11
2.1546
21
1.60665
0
LINE
8
BLACK
6
CONTINUOUS
10
2.1546
20
1.60665
11
2.15458
21
1.60648
0
LINE
8
BLACK
6
CONTINUOUS
10
2.15458
20
1.60648
11
2.15214
21
1.6016
0
LINE
8
BLACK
6
CONTINUOUS
10
2.15214
20
1.6016
11
2.15161
21
1.60089
0
LINE
8
BLACK
6
CONTINUOUS
10
2.15161
20
1.60089
11
2.15159
21
1.60083
0
LINE
8
BLACK
6
CONTINUOUS
10
2.15159
20
1.60083
11
2.14915
21
1.5984
0
LINE
8
BLACK
6
CONTINUOUS
10
2.14915
20
1.5984
11
2.14843
21
1.59789
0
LINE
8
BLACK
6
CONTINUOUS
10
2.14843
20
1.59789
11
2.14838
21
1.59784
0
LINE
8
BLACK
6
CONTINUOUS
10
2.14838
20
1.59784
11
2.14351
21
1.59541
0
LINE
8
BLACK
6
CONTINUOUS
10
2.14351
20
1.59541
11
2.14252
21
1.59511
0
LINE
8
BLACK
6
CONTINUOUS
10
2.14252
20
1.59511
11
2.14235
21
1.59516
0
LINE
8
BLACK
6
CONTINUOUS
10
2.14235
20
1.59516
11
2.14219
21
1.59509
0
LINE
8
BLACK
6
CONTINUOUS
10
2.14219
20
1.59509
11
2.12269
21
1.59509
0
LINE
8
BLACK
6
CONTINUOUS
10
2.12269
20
1.59509
11
2.1223
21
1.59516
0
LINE
8
BLACK
6
CONTINUOUS
10
2.1223
20
1.59516
11
2.12218
21
1.59514
0
LINE
8
BLACK
6
CONTINUOUS
10
2.12218
20
1.59514
11
2.12206
21
1.59521
0
LINE
8
BLACK
6
CONTINUOUS
10
2.12206
20
1.59521
11
2.12168
21
1.59527
0
LINE
8
BLACK
6
CONTINUOUS
10
2.12168
20
1.59527
11
2.12109
21
1.59577
0
LINE
8
BLACK
6
CONTINUOUS
10
2.12109
20
1.59577
11
2.12043
21
1.59615
0
LINE
8
BLACK
6
CONTINUOUS
10
2.12043
20
1.59615
11
2.12034
21
1.5964
0
LINE
8
BLACK
6
CONTINUOUS
10
2.12034
20
1.5964
11
2.12013
21
1.59657
0
LINE
8
BLACK
6
CONTINUOUS
10
2.12013
20
1.59657
11
2.12
21
1.59733
0
LINE
8
BLACK
6
CONTINUOUS
10
2.12
20
1.59733
11
2.11974
21
1.59805
0
LINE
8
BLACK
6
CONTINUOUS
10
2.11974
20
1.59805
11
2.11974
21
1.64923
0
LINE
8
BLACK
6
CONTINUOUS
10
2.11974
20
1.64923
11
2.1198
21
1.64961
0
LINE
8
BLACK
6
CONTINUOUS
10
2.1198
20
1.64961
11
2.11978
21
1.64974
0
LINE
8
BLACK
6
CONTINUOUS
10
2.11978
20
1.64974
11
2.11985
21
1.64985
0
LINE
8
BLACK
6
CONTINUOUS
10
2.11985
20
1.64985
11
2.11991
21
1.65024
0
LINE
8
BLACK
6
CONTINUOUS
10
2.11991
20
1.65024
11
2.12041
21
1.65083
0
LINE
8
BLACK
6
CONTINUOUS
10
2.12041
20
1.65083
11
2.12079
21
1.65149
0
LINE
8
BLACK
6
CONTINUOUS
10
2.12079
20
1.65149
11
2.12104
21
1.65158
0
LINE
8
BLACK
6
CONTINUOUS
10
2.12104
20
1.65158
11
2.12121
21
1.65179
0
LINE
8
BLACK
6
CONTINUOUS
10
2.12121
20
1.65179
11
2.12197
21
1.65192
0
LINE
8
BLACK
6
CONTINUOUS
10
2.12197
20
1.65192
11
2.12269
21
1.65218
0
LINE
8
BLACK
6
CONTINUOUS
10
2.12269
20
1.65218
11
2.13975
21
1.65218
0
LINE
8
BLACK
6
CONTINUOUS
10
2.13975
20
1.65218
11
2.14076
21
1.652
0
LINE
8
BLACK
6
CONTINUOUS
10
2.12564
20
1.6219
11
2.12564
21
1.601
0
LINE
8
BLACK
6
CONTINUOUS
10
2.12564
20
1.601
11
2.14149
21
1.601
0
LINE
8
BLACK
6
CONTINUOUS
10
2.14149
20
1.601
11
2.14531
21
1.60291
0
LINE
8
BLACK
6
CONTINUOUS
10
2.14531
20
1.60291
11
2.14707
21
1.60467
0
LINE
8
BLACK
6
CONTINUOUS
10
2.14707
20
1.60467
11
2.14898
21
1.60849
0
LINE
8
BLACK
6
CONTINUOUS
10
2.14898
20
1.60849
11
2.14898
21
1.61441
0
LINE
8
BLACK
6
CONTINUOUS
10
2.14898
20
1.61441
11
2.14707
21
1.61823
0
LINE
8
BLACK
6
CONTINUOUS
10
2.14707
20
1.61823
11
2.14547
21
1.61984
0
LINE
8
BLACK
6
CONTINUOUS
10
2.14547
20
1.61984
11
2.13927
21
1.6219
0
LINE
8
BLACK
6
CONTINUOUS
10
2.13927
20
1.6219
11
2.12564
21
1.6219
0
LINE
8
BLACK
6
CONTINUOUS
10
2.12564
20
1.64628
11
2.12564
21
1.62781
0
LINE
8
BLACK
6
CONTINUOUS
10
2.12564
20
1.62781
11
2.13905
21
1.62781
0
LINE
8
BLACK
6
CONTINUOUS
10
2.13905
20
1.62781
11
2.14287
21
1.62972
0
LINE
8
BLACK
6
CONTINUOUS
10
2.14287
20
1.62972
11
2.14463
21
1.63148
0
LINE
8
BLACK
6
CONTINUOUS
10
2.14463
20
1.63148
11
2.14654
21
1.6353
0
LINE
8
BLACK
6
CONTINUOUS
10
2.14654
20
1.6353
11
2.14654
21
1.63878
0
LINE
8
BLACK
6
CONTINUOUS
10
2.14654
20
1.63878
11
2.14463
21
1.64261
0
LINE
8
BLACK
6
CONTINUOUS
10
2.14463
20
1.64261
11
2.14287
21
1.64436
0
LINE
8
BLACK
6
CONTINUOUS
10
2.14287
20
1.64436
11
2.13905
21
1.64628
0
LINE
8
BLACK
6
CONTINUOUS
10
2.13905
20
1.64628
11
2.12564
21
1.64628
0
LINE
8
BLACK
6
CONTINUOUS
10
2.28943
20
1.652
11
2.28956
21
1.65189
0
LINE
8
BLACK
6
CONTINUOUS
10
2.28956
20
1.65189
11
2.28974
21
1.65187
0
LINE
8
BLACK
6
CONTINUOUS
10
2.28974
20
1.65187
11
2.29461
21
1.64943
0
LINE
8
BLACK
6
CONTINUOUS
10
2.29461
20
1.64943
11
2.29532
21
1.64891
0
LINE
8
BLACK
6
CONTINUOUS
10
2.29532
20
1.64891
11
2.29538
21
1.64888
0
LINE
8
BLACK
6
CONTINUOUS
10
2.29538
20
1.64888
11
2.29782
21
1.64644
0
LINE
8
BLACK
6
CONTINUOUS
10
2.29782
20
1.64644
11
2.29832
21
1.64572
0
LINE
8
BLACK
6
CONTINUOUS
10
2.29832
20
1.64572
11
2.29837
21
1.64567
0
LINE
8
BLACK
6
CONTINUOUS
10
2.29837
20
1.64567
11
2.30081
21
1.6408
0
LINE
8
BLACK
6
CONTINUOUS
10
2.30081
20
1.6408
11
2.3011
21
1.63982
0
LINE
8
BLACK
6
CONTINUOUS
10
2.3011
20
1.63982
11
2.30106
21
1.63965
0
LINE
8
BLACK
6
CONTINUOUS
10
2.30106
20
1.63965
11
2.30112
21
1.63948
0
LINE
8
BLACK
6
CONTINUOUS
10
2.30112
20
1.63948
11
2.30112
21
1.63461
0
LINE
8
BLACK
6
CONTINUOUS
10
2.30112
20
1.63461
11
2.30094
21
1.6336
0
LINE
8
BLACK
6
CONTINUOUS
10
2.30094
20
1.6336
11
2.30083
21
1.63346
0
LINE
8
BLACK
6
CONTINUOUS
10
2.30083
20
1.63346
11
2.30081
21
1.63328
0
LINE
8
BLACK
6
CONTINUOUS
10
2.30081
20
1.63328
11
2.29837
21
1.62841
0
LINE
8
BLACK
6
CONTINUOUS
10
2.29837
20
1.62841
11
2.29784
21
1.6277
0
LINE
8
BLACK
6
CONTINUOUS
10
2.29784
20
1.6277
11
2.29782
21
1.62764
0
LINE
8
BLACK
6
CONTINUOUS
10
2.29782
20
1.62764
11
2.29571
21
1.62554
0
LINE
8
BLACK
6
CONTINUOUS
10
2.29571
20
1.62554
11
2.29666
21
1.62522
0
LINE
8
BLACK
6
CONTINUOUS
10
2.29666
20
1.62522
11
2.29756
21
1.62473
0
LINE
8
BLACK
6
CONTINUOUS
10
2.29756
20
1.62473
11
2.29766
21
1.62458
0
LINE
8
BLACK
6
CONTINUOUS
10
2.29766
20
1.62458
11
2.29782
21
1.62451
0
LINE
8
BLACK
6
CONTINUOUS
10
2.29782
20
1.62451
11
2.30025
21
1.62207
0
LINE
8
BLACK
6
CONTINUOUS
10
2.30025
20
1.62207
11
2.30076
21
1.62135
0
LINE
8
BLACK
6
CONTINUOUS
10
2.30076
20
1.62135
11
2.30081
21
1.6213
0
LINE
8
BLACK
6
CONTINUOUS
10
2.30081
20
1.6213
11
2.30324
21
1.61643
0
LINE
8
BLACK
6
CONTINUOUS
10
2.30324
20
1.61643
11
2.30354
21
1.61545
0
LINE
8
BLACK
6
CONTINUOUS
10
2.30354
20
1.61545
11
2.3035
21
1.61527
0
LINE
8
BLACK
6
CONTINUOUS
10
2.3035
20
1.61527
11
2.30356
21
1.61511
0
LINE
8
BLACK
6
CONTINUOUS
10
2.30356
20
1.61511
11
2.30356
21
1.6078
0
LINE
8
BLACK
6
CONTINUOUS
10
2.30356
20
1.6078
11
2.30338
21
1.60679
0
LINE
8
BLACK
6
CONTINUOUS
10
2.30338
20
1.60679
11
2.30326
21
1.60665
0
LINE
8
BLACK
6
CONTINUOUS
10
2.30326
20
1.60665
11
2.30324
21
1.60648
0
LINE
8
BLACK
6
CONTINUOUS
10
2.30324
20
1.60648
11
2.30081
21
1.6016
0
LINE
8
BLACK
6
CONTINUOUS
10
2.30081
20
1.6016
11
2.30028
21
1.60089
0
LINE
8
BLACK
6
CONTINUOUS
10
2.30028
20
1.60089
11
2.30025
21
1.60083
0
LINE
8
BLACK
6
CONTINUOUS
10
2.30025
20
1.60083
11
2.29782
21
1.5984
0
LINE
8
BLACK
6
CONTINUOUS
10
2.29782
20
1.5984
11
2.29709
21
1.59789
0
LINE
8
BLACK
6
CONTINUOUS
10
2.29709
20
1.59789
11
2.29705
21
1.59784
0
LINE
8
BLACK
6
CONTINUOUS
10
2.29705
20
1.59784
11
2.29218
21
1.59541
0
LINE
8
BLACK
6
CONTINUOUS
10
2.29218
20
1.59541
11
2.29119
21
1.59511
0
LINE
8
BLACK
6
CONTINUOUS
10
2.29119
20
1.59511
11
2.29102
21
1.59516
0
LINE
8
BLACK
6
CONTINUOUS
10
2.29102
20
1.59516
11
2.29085
21
1.59509
0
LINE
8
BLACK
6
CONTINUOUS
10
2.29085
20
1.59509
11
2.27136
21
1.59509
0
LINE
8
BLACK
6
CONTINUOUS
10
2.27136
20
1.59509
11
2.27097
21
1.59516
0
LINE
8
BLACK
6
CONTINUOUS
10
2.27097
20
1.59516
11
2.27084
21
1.59514
0
LINE
8
BLACK
6
CONTINUOUS
10
2.27084
20
1.59514
11
2.27073
21
1.59521
0
LINE
8
BLACK
6
CONTINUOUS
10
2.27073
20
1.59521
11
2.27035
21
1.59527
0
LINE
8
BLACK
6
CONTINUOUS
10
2.27035
20
1.59527
11
2.26976
21
1.59577
0
LINE
8
BLACK
6
CONTINUOUS
10
2.26976
20
1.59577
11
2.2691
21
1.59615
0
LINE
8
BLACK
6
CONTINUOUS
10
2.2691
20
1.59615
11
2.269
21
1.5964
0
LINE
8
BLACK
6
CONTINUOUS
10
2.269
20
1.5964
11
2.2688
21
1.59657
0
LINE
8
BLACK
6
CONTINUOUS
10
2.2688
20
1.59657
11
2.26867
21
1.59733
0
LINE
8
BLACK
6
CONTINUOUS
10
2.26867
20
1.59733
11
2.2684
21
1.59805
0
LINE
8
BLACK
6
CONTINUOUS
10
2.2684
20
1.59805
11
2.2684
21
1.64923
0
LINE
8
BLACK
6
CONTINUOUS
10
2.2684
20
1.64923
11
2.26847
21
1.64961
0
LINE
8
BLACK
6
CONTINUOUS
10
2.26847
20
1.64961
11
2.26845
21
1.64974
0
LINE
8
BLACK
6
CONTINUOUS
10
2.26845
20
1.64974
11
2.26851
21
1.64985
0
LINE
8
BLACK
6
CONTINUOUS
10
2.26851
20
1.64985
11
2.26858
21
1.65024
0
LINE
8
BLACK
6
CONTINUOUS
10
2.26858
20
1.65024
11
2.26908
21
1.65083
0
LINE
8
BLACK
6
CONTINUOUS
10
2.26908
20
1.65083
11
2.26946
21
1.65149
0
LINE
8
BLACK
6
CONTINUOUS
10
2.26946
20
1.65149
11
2.26971
21
1.65158
0
LINE
8
BLACK
6
CONTINUOUS
10
2.26971
20
1.65158
11
2.26988
21
1.65179
0
LINE
8
BLACK
6
CONTINUOUS
10
2.26988
20
1.65179
11
2.27064
21
1.65192
0
LINE
8
BLACK
6
CONTINUOUS
10
2.27064
20
1.65192
11
2.27136
21
1.65218
0
LINE
8
BLACK
6
CONTINUOUS
10
2.27136
20
1.65218
11
2.28842
21
1.65218
0
LINE
8
BLACK
6
CONTINUOUS
10
2.28842
20
1.65218
11
2.28943
21
1.652
0
LINE
8
BLACK
6
CONTINUOUS
10
2.27431
20
1.6219
11
2.27431
21
1.601
0
LINE
8
BLACK
6
CONTINUOUS
10
2.27431
20
1.601
11
2.29016
21
1.601
0
LINE
8
BLACK
6
CONTINUOUS
10
2.29016
20
1.601
11
2.29398
21
1.60291
0
LINE
8
BLACK
6
CONTINUOUS
10
2.29398
20
1.60291
11
2.29574
21
1.60467
0
LINE
8
BLACK
6
CONTINUOUS
10
2.29574
20
1.60467
11
2.29765
21
1.60849
0
LINE
8
BLACK
6
CONTINUOUS
10
2.29765
20
1.60849
11
2.29765
21
1.61441
0
LINE
8
BLACK
6
CONTINUOUS
10
2.29765
20
1.61441
11
2.29574
21
1.61823
0
LINE
8
BLACK
6
CONTINUOUS
10
2.29574
20
1.61823
11
2.29413
21
1.61984
0
LINE
8
BLACK
6
CONTINUOUS
10
2.29413
20
1.61984
11
2.28794
21
1.6219
0
LINE
8
BLACK
6
CONTINUOUS
10
2.28794
20
1.6219
11
2.27431
21
1.6219
0
LINE
8
BLACK
6
CONTINUOUS
10
2.27431
20
1.64628
11
2.27431
21
1.62781
0
LINE
8
BLACK
6
CONTINUOUS
10
2.27431
20
1.62781
11
2.28772
21
1.62781
0
LINE
8
BLACK
6
CONTINUOUS
10
2.28772
20
1.62781
11
2.29154
21
1.62972
0
LINE
8
BLACK
6
CONTINUOUS
10
2.29154
20
1.62972
11
2.2933
21
1.63148
0
LINE
8
BLACK
6
CONTINUOUS
10
2.2933
20
1.63148
11
2.29521
21
1.6353
0
LINE
8
BLACK
6
CONTINUOUS
10
2.29521
20
1.6353
11
2.29521
21
1.63878
0
LINE
8
BLACK
6
CONTINUOUS
10
2.29521
20
1.63878
11
2.2933
21
1.64261
0
LINE
8
BLACK
6
CONTINUOUS
10
2.2933
20
1.64261
11
2.29154
21
1.64436
0
LINE
8
BLACK
6
CONTINUOUS
10
2.29154
20
1.64436
11
2.28772
21
1.64628
0
LINE
8
BLACK
6
CONTINUOUS
10
2.28772
20
1.64628
11
2.27431
21
1.64628
0
LINE
8
BLACK
6
CONTINUOUS
10
1.99608
20
1.65207
11
1.99647
21
1.65214
0
LINE
8
BLACK
6
CONTINUOUS
10
1.99647
20
1.65214
11
1.99703
21
1.65181
0
LINE
8
BLACK
6
CONTINUOUS
10
1.99703
20
1.65181
11
1.99765
21
1.65165
0
LINE
8
BLACK
6
CONTINUOUS
10
1.99765
20
1.65165
11
1.99787
21
1.65132
0
LINE
8
BLACK
6
CONTINUOUS
10
1.99787
20
1.65132
11
1.99822
21
1.65113
0
LINE
8
BLACK
6
CONTINUOUS
10
1.99822
20
1.65113
11
1.99844
21
1.65052
0
LINE
8
BLACK
6
CONTINUOUS
10
1.99844
20
1.65052
11
1.99881
21
1.64999
0
LINE
8
BLACK
6
CONTINUOUS
10
1.99881
20
1.64999
11
1.99877
21
1.6496
0
LINE
8
BLACK
6
CONTINUOUS
10
1.99877
20
1.6496
11
1.99891
21
1.64923
0
LINE
8
BLACK
6
CONTINUOUS
10
1.99891
20
1.64923
11
1.99891
21
1.59805
0
LINE
8
BLACK
6
CONTINUOUS
10
1.99891
20
1.59805
11
1.99873
21
1.59704
0
LINE
8
BLACK
6
CONTINUOUS
10
1.99873
20
1.59704
11
1.99743
21
1.59549
0
LINE
8
BLACK
6
CONTINUOUS
10
1.99743
20
1.59549
11
1.99544
21
1.59514
0
LINE
8
BLACK
6
CONTINUOUS
10
1.99544
20
1.59514
11
1.99369
21
1.59615
0
LINE
8
BLACK
6
CONTINUOUS
10
1.99369
20
1.59615
11
1.993
21
1.59805
0
LINE
8
BLACK
6
CONTINUOUS
10
1.993
20
1.59805
11
1.993
21
1.63592
0
LINE
8
BLACK
6
CONTINUOUS
10
1.993
20
1.63592
11
1.98157
21
1.61142
0
LINE
8
BLACK
6
CONTINUOUS
10
1.98157
20
1.61142
11
1.98135
21
1.6111
0
LINE
8
BLACK
6
CONTINUOUS
10
1.98135
20
1.6111
11
1.98131
21
1.61098
0
LINE
8
BLACK
6
CONTINUOUS
10
1.98131
20
1.61098
11
1.98121
21
1.6109
0
LINE
8
BLACK
6
CONTINUOUS
10
1.98121
20
1.6109
11
1.98098
21
1.61058
0
LINE
8
BLACK
6
CONTINUOUS
10
1.98098
20
1.61058
11
1.98029
21
1.61026
0
LINE
8
BLACK
6
CONTINUOUS
10
1.98029
20
1.61026
11
1.97966
21
1.60982
0
LINE
8
BLACK
6
CONTINUOUS
10
1.97966
20
1.60982
11
1.97939
21
1.60984
0
LINE
8
BLACK
6
CONTINUOUS
10
1.97939
20
1.60984
11
1.97915
21
1.60973
0
LINE
8
BLACK
6
CONTINUOUS
10
1.97915
20
1.60973
11
1.97841
21
1.60993
0
LINE
8
BLACK
6
CONTINUOUS
10
1.97841
20
1.60993
11
1.97765
21
1.60999
0
LINE
8
BLACK
6
CONTINUOUS
10
1.97765
20
1.60999
11
1.97746
21
1.61018
0
LINE
8
BLACK
6
CONTINUOUS
10
1.97746
20
1.61018
11
1.9772
21
1.61025
0
LINE
8
BLACK
6
CONTINUOUS
10
1.9772
20
1.61025
11
1.97676
21
1.61088
0
LINE
8
BLACK
6
CONTINUOUS
10
1.97676
20
1.61088
11
1.97622
21
1.61142
0
LINE
8
BLACK
6
CONTINUOUS
10
1.97622
20
1.61142
11
1.96479
21
1.63592
0
LINE
8
BLACK
6
CONTINUOUS
10
1.96479
20
1.63592
11
1.96479
21
1.59805
0
LINE
8
BLACK
6
CONTINUOUS
10
1.96479
20
1.59805
11
1.96461
21
1.59704
0
LINE
8
BLACK
6
CONTINUOUS
10
1.96461
20
1.59704
11
1.96331
21
1.59549
0
LINE
8
BLACK
6
CONTINUOUS
10
1.96331
20
1.59549
11
1.96132
21
1.59514
0
LINE
8
BLACK
6
CONTINUOUS
10
1.96132
20
1.59514
11
1.95957
21
1.59615
0
LINE
8
BLACK
6
CONTINUOUS
10
1.95957
20
1.59615
11
1.95888
21
1.59805
0
LINE
8
BLACK
6
CONTINUOUS
10
1.95888
20
1.59805
11
1.95888
21
1.64923
0
LINE
8
BLACK
6
CONTINUOUS
10
1.95888
20
1.64923
11
1.95906
21
1.65024
0
LINE
8
BLACK
6
CONTINUOUS
10
1.95906
20
1.65024
11
1.95931
21
1.65054
0
LINE
8
BLACK
6
CONTINUOUS
10
1.95931
20
1.65054
11
1.95941
21
1.65092
0
LINE
8
BLACK
6
CONTINUOUS
10
1.95941
20
1.65092
11
1.95994
21
1.65129
0
LINE
8
BLACK
6
CONTINUOUS
10
1.95994
20
1.65129
11
1.96036
21
1.65179
0
LINE
8
BLACK
6
CONTINUOUS
10
1.96036
20
1.65179
11
1.96075
21
1.65185
0
LINE
8
BLACK
6
CONTINUOUS
10
1.96075
20
1.65185
11
1.96107
21
1.65208
0
LINE
8
BLACK
6
CONTINUOUS
10
1.96107
20
1.65208
11
1.96171
21
1.65202
0
LINE
8
BLACK
6
CONTINUOUS
10
1.96171
20
1.65202
11
1.96235
21
1.65214
0
LINE
8
BLACK
6
CONTINUOUS
10
1.96235
20
1.65214
11
1.96269
21
1.65194
0
LINE
8
BLACK
6
CONTINUOUS
10
1.96269
20
1.65194
11
1.96308
21
1.6519
0
LINE
8
BLACK
6
CONTINUOUS
10
1.96308
20
1.6519
11
1.96354
21
1.65145
0
LINE
8
BLACK
6
CONTINUOUS
10
1.96354
20
1.65145
11
1.9641
21
1.65113
0
LINE
8
BLACK
6
CONTINUOUS
10
1.9641
20
1.65113
11
1.96423
21
1.65076
0
LINE
8
BLACK
6
CONTINUOUS
10
1.96423
20
1.65076
11
1.96451
21
1.65048
0
LINE
8
BLACK
6
CONTINUOUS
10
1.96451
20
1.65048
11
1.97889
21
1.61965
0
LINE
8
BLACK
6
CONTINUOUS
10
1.97889
20
1.61965
11
1.99328
21
1.65048
0
LINE
8
BLACK
6
CONTINUOUS
10
1.99328
20
1.65048
11
1.99387
21
1.65132
0
LINE
8
BLACK
6
CONTINUOUS
10
1.99387
20
1.65132
11
1.99422
21
1.65148
0
LINE
8
BLACK
6
CONTINUOUS
10
1.99422
20
1.65148
11
1.99448
21
1.65179
0
LINE
8
BLACK
6
CONTINUOUS
10
1.99448
20
1.65179
11
1.99511
21
1.6519
0
LINE
8
BLACK
6
CONTINUOUS
10
1.99511
20
1.6519
11
1.9957
21
1.65217
0
LINE
8
BLACK
6
CONTINUOUS
10
1.9957
20
1.65217
11
1.99608
21
1.65207
0
LINE
8
BLACK
6
CONTINUOUS
10
2.04083
20
1.652
11
2.04097
21
1.65189
0
LINE
8
BLACK
6
CONTINUOUS
10
2.04097
20
1.65189
11
2.04114
21
1.65187
0
LINE
8
BLACK
6
CONTINUOUS
10
2.04114
20
1.65187
11
2.04602
21
1.64943
0
LINE
8
BLACK
6
CONTINUOUS
10
2.04602
20
1.64943
11
2.04673
21
1.64891
0
LINE
8
BLACK
6
CONTINUOUS
10
2.04673
20
1.64891
11
2.04679
21
1.64888
0
LINE
8
BLACK
6
CONTINUOUS
10
2.04679
20
1.64888
11
2.04922
21
1.64644
0
LINE
8
BLACK
6
CONTINUOUS
10
2.04922
20
1.64644
11
2.04973
21
1.64572
0
LINE
8
BLACK
6
CONTINUOUS
10
2.04973
20
1.64572
11
2.04978
21
1.64567
0
LINE
8
BLACK
6
CONTINUOUS
10
2.04978
20
1.64567
11
2.05221
21
1.6408
0
LINE
8
BLACK
6
CONTINUOUS
10
2.05221
20
1.6408
11
2.05251
21
1.63982
0
LINE
8
BLACK
6
CONTINUOUS
10
2.05251
20
1.63982
11
2.05246
21
1.63965
0
LINE
8
BLACK
6
CONTINUOUS
10
2.05246
20
1.63965
11
2.05253
21
1.63948
0
LINE
8
BLACK
6
CONTINUOUS
10
2.05253
20
1.63948
11
2.05253
21
1.63217
0
LINE
8
BLACK
6
CONTINUOUS
10
2.05253
20
1.63217
11
2.05235
21
1.63116
0
LINE
8
BLACK
6
CONTINUOUS
10
2.05235
20
1.63116
11
2.05223
21
1.63102
0
LINE
8
BLACK
6
CONTINUOUS
10
2.05223
20
1.63102
11
2.05221
21
1.63085
0
LINE
8
BLACK
6
CONTINUOUS
10
2.05221
20
1.63085
11
2.04978
21
1.62597
0
LINE
8
BLACK
6
CONTINUOUS
10
2.04978
20
1.62597
11
2.04925
21
1.62526
0
LINE
8
BLACK
6
CONTINUOUS
10
2.04925
20
1.62526
11
2.04922
21
1.62521
0
LINE
8
BLACK
6
CONTINUOUS
10
2.04922
20
1.62521
11
2.04679
21
1.62277
0
LINE
8
BLACK
6
CONTINUOUS
10
2.04679
20
1.62277
11
2.04606
21
1.62226
0
LINE
8
BLACK
6
CONTINUOUS
10
2.04606
20
1.62226
11
2.04602
21
1.62222
0
LINE
8
BLACK
6
CONTINUOUS
10
2.04602
20
1.62222
11
2.04114
21
1.61978
0
LINE
8
BLACK
6
CONTINUOUS
10
2.04114
20
1.61978
11
2.04016
21
1.61949
0
LINE
8
BLACK
6
CONTINUOUS
10
2.04016
20
1.61949
11
2.03999
21
1.61953
0
LINE
8
BLACK
6
CONTINUOUS
10
2.03999
20
1.61953
11
2.03982
21
1.61947
0
LINE
8
BLACK
6
CONTINUOUS
10
2.03982
20
1.61947
11
2.02328
21
1.61947
0
LINE
8
BLACK
6
CONTINUOUS
10
2.02328
20
1.61947
11
2.02328
21
1.59805
0
LINE
8
BLACK
6
CONTINUOUS
10
2.02328
20
1.59805
11
2.0231
21
1.59704
0
LINE
8
BLACK
6
CONTINUOUS
10
2.0231
20
1.59704
11
2.0218
21
1.59549
0
LINE
8
BLACK
6
CONTINUOUS
10
2.0218
20
1.59549
11
2.01981
21
1.59514
0
LINE
8
BLACK
6
CONTINUOUS
10
2.01981
20
1.59514
11
2.01806
21
1.59615
0
LINE
8
BLACK
6
CONTINUOUS
10
2.01806
20
1.59615
11
2.01737
21
1.59805
0
LINE
8
BLACK
6
CONTINUOUS
10
2.01737
20
1.59805
11
2.01737
21
1.64923
0
LINE
8
BLACK
6
CONTINUOUS
10
2.01737
20
1.64923
11
2.01744
21
1.64961
0
LINE
8
BLACK
6
CONTINUOUS
10
2.01744
20
1.64961
11
2.01742
21
1.64974
0
LINE
8
BLACK
6
CONTINUOUS
10
2.01742
20
1.64974
11
2.01748
21
1.64985
0
LINE
8
BLACK
6
CONTINUOUS
10
2.01748
20
1.64985
11
2.01755
21
1.65024
0
LINE
8
BLACK
6
CONTINUOUS
10
2.01755
20
1.65024
11
2.01804
21
1.65083
0
LINE
8
BLACK
6
CONTINUOUS
10
2.01804
20
1.65083
11
2.01843
21
1.65149
0
LINE
8
BLACK
6
CONTINUOUS
10
2.01843
20
1.65149
11
2.01868
21
1.65158
0
LINE
8
BLACK
6
CONTINUOUS
10
2.01868
20
1.65158
11
2.01885
21
1.65179
0
LINE
8
BLACK
6
CONTINUOUS
10
2.01885
20
1.65179
11
2.01961
21
1.65192
0
LINE
8
BLACK
6
CONTINUOUS
10
2.01961
20
1.65192
11
2.02033
21
1.65218
0
LINE
8
BLACK
6
CONTINUOUS
10
2.02033
20
1.65218
11
2.03982
21
1.65218
0
LINE
8
BLACK
6
CONTINUOUS
10
2.03982
20
1.65218
11
2.04083
21
1.652
0
LINE
8
BLACK
6
CONTINUOUS
10
2.02328
20
1.64628
11
2.02328
21
1.62537
0
LINE
8
BLACK
6
CONTINUOUS
10
2.02328
20
1.62537
11
2.03913
21
1.62537
0
LINE
8
BLACK
6
CONTINUOUS
10
2.03913
20
1.62537
11
2.04295
21
1.62728
0
LINE
8
BLACK
6
CONTINUOUS
10
2.04295
20
1.62728
11
2.04471
21
1.62904
0
LINE
8
BLACK
6
CONTINUOUS
10
2.04471
20
1.62904
11
2.04662
21
1.63287
0
LINE
8
BLACK
6
CONTINUOUS
10
2.04662
20
1.63287
11
2.04662
21
1.63878
0
LINE
8
BLACK
6
CONTINUOUS
10
2.04662
20
1.63878
11
2.04471
21
1.64261
0
LINE
8
BLACK
6
CONTINUOUS
10
2.04471
20
1.64261
11
2.04295
21
1.64436
0
LINE
8
BLACK
6
CONTINUOUS
10
2.04295
20
1.64436
11
2.03913
21
1.64628
0
LINE
8
BLACK
6
CONTINUOUS
10
2.03913
20
1.64628
11
2.02328
21
1.64628
0
LINE
8
BLACK
6
CONTINUOUS
10
2.09201
20
1.652
11
2.09215
21
1.65189
0
LINE
8
BLACK
6
CONTINUOUS
10
2.09215
20
1.65189
11
2.09233
21
1.65187
0
LINE
8
BLACK
6
CONTINUOUS
10
2.09233
20
1.65187
11
2.0972
21
1.64943
0
LINE
8
BLACK
6
CONTINUOUS
10
2.0972
20
1.64943
11
2.09791
21
1.64891
0
LINE
8
BLACK
6
CONTINUOUS
10
2.09791
20
1.64891
11
2.09797
21
1.64888
0
LINE
8
BLACK
6
CONTINUOUS
10
2.09797
20
1.64888
11
2.1004
21
1.64644
0
LINE
8
BLACK
6
CONTINUOUS
10
2.1004
20
1.64644
11
2.10091
21
1.64572
0
LINE
8
BLACK
6
CONTINUOUS
10
2.10091
20
1.64572
11
2.10096
21
1.64567
0
LINE
8
BLACK
6
CONTINUOUS
10
2.10096
20
1.64567
11
2.10339
21
1.6408
0
LINE
8
BLACK
6
CONTINUOUS
10
2.10339
20
1.6408
11
2.10369
21
1.63982
0
LINE
8
BLACK
6
CONTINUOUS
10
2.10369
20
1.63982
11
2.10365
21
1.63965
0
LINE
8
BLACK
6
CONTINUOUS
10
2.10365
20
1.63965
11
2.10371
21
1.63948
0
LINE
8
BLACK
6
CONTINUOUS
10
2.10371
20
1.63948
11
2.10371
21
1.63217
0
LINE
8
BLACK
6
CONTINUOUS
10
2.10371
20
1.63217
11
2.10353
21
1.63116
0
LINE
8
BLACK
6
CONTINUOUS
10
2.10353
20
1.63116
11
2.10341
21
1.63102
0
LINE
8
BLACK
6
CONTINUOUS
10
2.10341
20
1.63102
11
2.10339
21
1.63085
0
LINE
8
BLACK
6
CONTINUOUS
10
2.10339
20
1.63085
11
2.10096
21
1.62597
0
LINE
8
BLACK
6
CONTINUOUS
10
2.10096
20
1.62597
11
2.10043
21
1.62526
0
LINE
8
BLACK
6
CONTINUOUS
10
2.10043
20
1.62526
11
2.1004
21
1.62521
0
LINE
8
BLACK
6
CONTINUOUS
10
2.1004
20
1.62521
11
2.09797
21
1.62277
0
LINE
8
BLACK
6
CONTINUOUS
10
2.09797
20
1.62277
11
2.09724
21
1.62226
0
LINE
8
BLACK
6
CONTINUOUS
10
2.09724
20
1.62226
11
2.0972
21
1.62222
0
LINE
8
BLACK
6
CONTINUOUS
10
2.0972
20
1.62222
11
2.09233
21
1.61978
0
LINE
8
BLACK
6
CONTINUOUS
10
2.09233
20
1.61978
11
2.09134
21
1.61949
0
LINE
8
BLACK
6
CONTINUOUS
10
2.09134
20
1.61949
11
2.09117
21
1.61953
0
LINE
8
BLACK
6
CONTINUOUS
10
2.09117
20
1.61953
11
2.091
21
1.61947
0
LINE
8
BLACK
6
CONTINUOUS
10
2.091
20
1.61947
11
2.07446
21
1.61947
0
LINE
8
BLACK
6
CONTINUOUS
10
2.07446
20
1.61947
11
2.07446
21
1.59805
0
LINE
8
BLACK
6
CONTINUOUS
10
2.07446
20
1.59805
11
2.07428
21
1.59704
0
LINE
8
BLACK
6
CONTINUOUS
10
2.07428
20
1.59704
11
2.07298
21
1.59549
0
LINE
8
BLACK
6
CONTINUOUS
10
2.07298
20
1.59549
11
2.07099
21
1.59514
0
LINE
8
BLACK
6
CONTINUOUS
10
2.07099
20
1.59514
11
2.06925
21
1.59615
0
LINE
8
BLACK
6
CONTINUOUS
10
2.06925
20
1.59615
11
2.06855
21
1.59805
0
LINE
8
BLACK
6
CONTINUOUS
10
2.06855
20
1.59805
11
2.06855
21
1.64923
0
LINE
8
BLACK
6
CONTINUOUS
10
2.06855
20
1.64923
11
2.06862
21
1.64961
0
LINE
8
BLACK
6
CONTINUOUS
10
2.06862
20
1.64961
11
2.0686
21
1.64974
0
LINE
8
BLACK
6
CONTINUOUS
10
2.0686
20
1.64974
11
2.06866
21
1.64985
0
LINE
8
BLACK
6
CONTINUOUS
10
2.06866
20
1.64985
11
2.06873
21
1.65024
0
LINE
8
BLACK
6
CONTINUOUS
10
2.06873
20
1.65024
11
2.06923
21
1.65083
0
LINE
8
BLACK
6
CONTINUOUS
10
2.06923
20
1.65083
11
2.06961
21
1.65149
0
LINE
8
BLACK
6
CONTINUOUS
10
2.06961
20
1.65149
11
2.06986
21
1.65158
0
LINE
8
BLACK
6
CONTINUOUS
10
2.06986
20
1.65158
11
2.07003
21
1.65179
0
LINE
8
BLACK
6
CONTINUOUS
10
2.07003
20
1.65179
11
2.07079
21
1.65192
0
LINE
8
BLACK
6
CONTINUOUS
10
2.07079
20
1.65192
11
2.07151
21
1.65218
0
LINE
8
BLACK
6
CONTINUOUS
10
2.07151
20
1.65218
11
2.091
21
1.65218
0
LINE
8
BLACK
6
CONTINUOUS
10
2.091
20
1.65218
11
2.09201
21
1.652
0
LINE
8
BLACK
6
CONTINUOUS
10
2.07446
20
1.64628
11
2.07446
21
1.62537
0
LINE
8
BLACK
6
CONTINUOUS
10
2.07446
20
1.62537
11
2.09031
21
1.62537
0
LINE
8
BLACK
6
CONTINUOUS
10
2.09031
20
1.62537
11
2.09413
21
1.62728
0
LINE
8
BLACK
6
CONTINUOUS
10
2.09413
20
1.62728
11
2.09589
21
1.62904
0
LINE
8
BLACK
6
CONTINUOUS
10
2.09589
20
1.62904
11
2.0978
21
1.63287
0
LINE
8
BLACK
6
CONTINUOUS
10
2.0978
20
1.63287
11
2.0978
21
1.63878
0
LINE
8
BLACK
6
CONTINUOUS
10
2.0978
20
1.63878
11
2.09589
21
1.64261
0
LINE
8
BLACK
6
CONTINUOUS
10
2.09589
20
1.64261
11
2.09413
21
1.64436
0
LINE
8
BLACK
6
CONTINUOUS
10
2.09413
20
1.64436
11
2.09031
21
1.64628
0
LINE
8
BLACK
6
CONTINUOUS
10
2.09031
20
1.64628
11
2.07446
21
1.64628
  0
ENDSEC
  0
EOF
