  0
SECTION
  2
HEADER
  9
$ANGBASE
  50
0.0
  9
$ANGDIR
  70
1
  9
$MEASUREMENT
  70
0
  0
ENDSEC
  0
SECTION
  2
TABLES
  0
TABLE
  2
LTYPE
  70
4
  0
LTYPE
  5
40F
  2
CONTINUOUS
  70
0
  3
Solid line
  72
65
  73
0
  40
0.0
  0
LTYPE
  5
410
  2
DASHDOT
 70
0
  3
Dash Dot ____ _ ____ _
 72
65
 73
4
 40
2.0
 49
1.25
 49
-0.25
 49
0.25
 49
-0.25
  0
LTYPE
  5
411
  2
DASHED
 70
0
  3
Dashed __ __ __ __ __
 72
65
 73
2
 40
0.75
 49
0.5
 49
-0.25
  0
LTYPE
  5
43B
  2
DOTTED
 70
0
  3
Dotted .  .  .  .
 72
65
 73
2
 40
0.2
 49
0.0
 49
-0.2
  0
ENDTAB
  0
TABLE
  2
STYLE
  70
4
  0
STYLE
  2
KICAD
  70
0
  40
0
  41
1
  42
1
  50
0
  71
0
  3
isocp.shx
  0
STYLE
  2
KICADB
  70
0
  40
0
  41
1
  42
1
  50
0
  71
0
  3
isocp.shx
  0
STYLE
  2
KICADI
  70
0
  40
0
  41
1
  42
1
  50
15
  71
0
  3
isocp.shx
  0
STYLE
  2
KICADBI
  70
0
  40
0
  41
1
  42
1
  50
15
  71
0
  3
isocp.shx
  0
ENDTAB
  0
TABLE
  2
LAYER
  70
1
  0
LAYER
  2
BLACK
  70
0
  62
7
  6
CONTINUOUS
  0
ENDTAB
  0
ENDSEC
  0
SECTION
  2
ENTITIES
0
LINE
8
BLACK
6
CONTINUOUS
10
3.39544
20
0.0793511
11
3.39613
21
0.0774531
0
LINE
8
BLACK
6
CONTINUOUS
10
3.39613
20
0.0774531
11
3.39613
21
0.0750159
0
LINE
8
BLACK
6
CONTINUOUS
10
3.39613
20
0.0750159
11
3.39595
21
0.074006
0
LINE
8
BLACK
6
CONTINUOUS
10
3.39595
20
0.074006
11
3.39584
21
0.0738708
0
LINE
8
BLACK
6
CONTINUOUS
10
3.39584
20
0.0738708
11
3.39582
21
0.0736954
0
LINE
8
BLACK
6
CONTINUOUS
10
3.39582
20
0.0736954
11
3.39338
21
0.0688211
0
LINE
8
BLACK
6
CONTINUOUS
10
3.39338
20
0.0688211
11
3.39285
21
0.0681121
0
LINE
8
BLACK
6
CONTINUOUS
10
3.39285
20
0.0681121
11
3.39283
21
0.0680537
0
LINE
8
BLACK
6
CONTINUOUS
10
3.39283
20
0.0680537
11
3.39039
21
0.0656165
0
LINE
8
BLACK
6
CONTINUOUS
10
3.39039
20
0.0656165
11
3.38955
21
0.0650283
0
LINE
8
BLACK
6
CONTINUOUS
10
3.38955
20
0.0650283
11
3.38754
21
0.0648522
0
LINE
8
BLACK
6
CONTINUOUS
10
3.38754
20
0.0648522
11
3.38588
21
0.0660107
0
LINE
8
BLACK
6
CONTINUOUS
10
3.38588
20
0.0660107
11
3.38536
21
0.0679617
0
LINE
8
BLACK
6
CONTINUOUS
10
3.38536
20
0.0679617
11
3.38621
21
0.0697923
0
LINE
8
BLACK
6
CONTINUOUS
10
3.38621
20
0.0697923
11
3.38831
21
0.0718907
0
LINE
8
BLACK
6
CONTINUOUS
10
3.38831
20
0.0718907
11
3.39022
21
0.075713
0
LINE
8
BLACK
6
CONTINUOUS
10
3.39022
20
0.075713
11
3.39022
21
0.0774531
0
LINE
8
BLACK
6
CONTINUOUS
10
3.39022
20
0.0774531
11
3.3904
21
0.0784631
0
LINE
8
BLACK
6
CONTINUOUS
10
3.3904
20
0.0784631
11
3.3917
21
0.0800103
0
LINE
8
BLACK
6
CONTINUOUS
10
3.3917
20
0.0800103
11
3.39369
21
0.0803611
0
LINE
8
BLACK
6
CONTINUOUS
10
3.39369
20
0.0803611
11
3.39544
21
0.0793511
0
LINE
8
BLACK
6
CONTINUOUS
10
3.61841
20
0.128972
11
3.61854
21
0.128858
0
LINE
8
BLACK
6
CONTINUOUS
10
3.61854
20
0.128858
11
3.61872
21
0.128838
0
LINE
8
BLACK
6
CONTINUOUS
10
3.61872
20
0.128838
11
3.62359
21
0.126401
0
LINE
8
BLACK
6
CONTINUOUS
10
3.62359
20
0.126401
11
3.6243
21
0.125875
0
LINE
8
BLACK
6
CONTINUOUS
10
3.6243
20
0.125875
11
3.62436
21
0.125848
0
LINE
8
BLACK
6
CONTINUOUS
10
3.62436
20
0.125848
11
3.6268
21
0.123411
0
LINE
8
BLACK
6
CONTINUOUS
10
3.6268
20
0.123411
11
3.6273
21
0.122687
0
LINE
8
BLACK
6
CONTINUOUS
10
3.6273
20
0.122687
11
3.62735
21
0.122643
0
LINE
8
BLACK
6
CONTINUOUS
10
3.62735
20
0.122643
11
3.62979
21
0.117769
0
LINE
8
BLACK
6
CONTINUOUS
10
3.62979
20
0.117769
11
3.63008
21
0.116786
0
LINE
8
BLACK
6
CONTINUOUS
10
3.63008
20
0.116786
11
3.63004
21
0.116614
0
LINE
8
BLACK
6
CONTINUOUS
10
3.63004
20
0.116614
11
3.6301
21
0.116448
0
LINE
8
BLACK
6
CONTINUOUS
10
3.6301
20
0.116448
11
3.6301
21
0.111574
0
LINE
8
BLACK
6
CONTINUOUS
10
3.6301
20
0.111574
11
3.62995
21
0.110704
0
LINE
8
BLACK
6
CONTINUOUS
10
3.62995
20
0.110704
11
3.62995
21
0.11064
0
LINE
8
BLACK
6
CONTINUOUS
10
3.62995
20
0.11064
11
3.62751
21
0.103329
0
LINE
8
BLACK
6
CONTINUOUS
10
3.62751
20
0.103329
11
3.62702
21
0.102427
0
LINE
8
BLACK
6
CONTINUOUS
10
3.62702
20
0.102427
11
3.62687
21
0.102334
0
LINE
8
BLACK
6
CONTINUOUS
10
3.62687
20
0.102334
11
3.6268
21
0.102174
0
LINE
8
BLACK
6
CONTINUOUS
10
3.6268
20
0.102174
11
3.60259
21
0.0779687
0
LINE
8
BLACK
6
CONTINUOUS
10
3.60259
20
0.0779687
11
3.62715
21
0.0779687
0
LINE
8
BLACK
6
CONTINUOUS
10
3.62715
20
0.0779687
11
3.62816
21
0.0777906
0
LINE
8
BLACK
6
CONTINUOUS
10
3.62816
20
0.0777906
11
3.6297
21
0.0764923
0
LINE
8
BLACK
6
CONTINUOUS
10
3.6297
20
0.0764923
11
3.63005
21
0.0745032
0
LINE
8
BLACK
6
CONTINUOUS
10
3.63005
20
0.0745032
11
3.62904
21
0.072754
0
LINE
8
BLACK
6
CONTINUOUS
10
3.62904
20
0.072754
11
3.62715
21
0.0720632
0
LINE
8
BLACK
6
CONTINUOUS
10
3.62715
20
0.0720632
11
3.59546
21
0.0720632
0
LINE
8
BLACK
6
CONTINUOUS
10
3.59546
20
0.0720632
11
3.59483
21
0.0721751
0
LINE
8
BLACK
6
CONTINUOUS
10
3.59483
20
0.0721751
11
3.5947
21
0.0721638
0
LINE
8
BLACK
6
CONTINUOUS
10
3.5947
20
0.0721638
11
3.59463
21
0.0722094
0
LINE
8
BLACK
6
CONTINUOUS
10
3.59463
20
0.0722094
11
3.59445
21
0.0722413
0
LINE
8
BLACK
6
CONTINUOUS
10
3.59445
20
0.0722413
11
3.59377
21
0.0728126
0
LINE
8
BLACK
6
CONTINUOUS
10
3.59377
20
0.0728126
11
3.59304
21
0.0733223
0
LINE
8
BLACK
6
CONTINUOUS
10
3.59304
20
0.0733223
11
3.59301
21
0.0734528
0
LINE
8
BLACK
6
CONTINUOUS
10
3.59301
20
0.0734528
11
3.59291
21
0.0735396
0
LINE
8
BLACK
6
CONTINUOUS
10
3.59291
20
0.0735396
11
3.59275
21
0.074415
0
LINE
8
BLACK
6
CONTINUOUS
10
3.59275
20
0.074415
11
3.59252
21
0.0752733
0
LINE
8
BLACK
6
CONTINUOUS
10
3.59252
20
0.0752733
11
3.59258
21
0.0753956
0
LINE
8
BLACK
6
CONTINUOUS
10
3.59258
20
0.0753956
11
3.59256
21
0.0755287
0
LINE
8
BLACK
6
CONTINUOUS
10
3.59256
20
0.0755287
11
3.593
21
0.0762985
0
LINE
8
BLACK
6
CONTINUOUS
10
3.593
20
0.0762985
11
3.59338
21
0.0771039
0
LINE
8
BLACK
6
CONTINUOUS
10
3.59338
20
0.0771039
11
3.62213
21
0.105857
0
LINE
8
BLACK
6
CONTINUOUS
10
3.62213
20
0.105857
11
3.62419
21
0.112053
0
LINE
8
BLACK
6
CONTINUOUS
10
3.62419
20
0.112053
11
3.62419
21
0.115751
0
LINE
8
BLACK
6
CONTINUOUS
10
3.62419
20
0.115751
11
3.62228
21
0.119574
0
LINE
8
BLACK
6
CONTINUOUS
10
3.62228
20
0.119574
11
3.62052
21
0.121333
0
LINE
8
BLACK
6
CONTINUOUS
10
3.62052
20
0.121333
11
3.6167
21
0.123244
0
LINE
8
BLACK
6
CONTINUOUS
10
3.6167
20
0.123244
11
3.60591
21
0.123244
0
LINE
8
BLACK
6
CONTINUOUS
10
3.60591
20
0.123244
11
3.60209
21
0.121333
0
LINE
8
BLACK
6
CONTINUOUS
10
3.60209
20
0.121333
11
3.59999
21
0.119235
0
LINE
8
BLACK
6
CONTINUOUS
10
3.59999
20
0.119235
11
3.59915
21
0.118647
0
LINE
8
BLACK
6
CONTINUOUS
10
3.59915
20
0.118647
11
3.59714
21
0.118471
0
LINE
8
BLACK
6
CONTINUOUS
10
3.59714
20
0.118471
11
3.59548
21
0.119629
0
LINE
8
BLACK
6
CONTINUOUS
10
3.59548
20
0.119629
11
3.59496
21
0.12158
0
LINE
8
BLACK
6
CONTINUOUS
10
3.59496
20
0.12158
11
3.59581
21
0.123411
0
LINE
8
BLACK
6
CONTINUOUS
10
3.59581
20
0.123411
11
3.59825
21
0.125848
0
LINE
8
BLACK
6
CONTINUOUS
10
3.59825
20
0.125848
11
3.59897
21
0.126354
0
LINE
8
BLACK
6
CONTINUOUS
10
3.59897
20
0.126354
11
3.59902
21
0.126401
0
LINE
8
BLACK
6
CONTINUOUS
10
3.59902
20
0.126401
11
3.60389
21
0.128838
0
LINE
8
BLACK
6
CONTINUOUS
10
3.60389
20
0.128838
11
3.60487
21
0.12913
0
LINE
8
BLACK
6
CONTINUOUS
10
3.60487
20
0.12913
11
3.60505
21
0.129089
0
LINE
8
BLACK
6
CONTINUOUS
10
3.60505
20
0.129089
11
3.60521
21
0.12915
0
LINE
8
BLACK
6
CONTINUOUS
10
3.60521
20
0.12915
11
3.6174
21
0.12915
0
LINE
8
BLACK
6
CONTINUOUS
10
3.6174
20
0.12915
11
3.61841
21
0.128972
0
LINE
8
BLACK
6
CONTINUOUS
10
3.25652
20
0.128095
11
3.25721
21
0.126197
0
LINE
8
BLACK
6
CONTINUOUS
10
3.25721
20
0.126197
11
3.25721
21
0.0779687
0
LINE
8
BLACK
6
CONTINUOUS
10
3.25721
20
0.0779687
11
3.27863
21
0.0779687
0
LINE
8
BLACK
6
CONTINUOUS
10
3.27863
20
0.0779687
11
3.27964
21
0.0777906
0
LINE
8
BLACK
6
CONTINUOUS
10
3.27964
20
0.0777906
11
3.28118
21
0.0764923
0
LINE
8
BLACK
6
CONTINUOUS
10
3.28118
20
0.0764923
11
3.28154
21
0.0745032
0
LINE
8
BLACK
6
CONTINUOUS
10
3.28154
20
0.0745032
11
3.28053
21
0.072754
0
LINE
8
BLACK
6
CONTINUOUS
10
3.28053
20
0.072754
11
3.27863
21
0.0720632
0
LINE
8
BLACK
6
CONTINUOUS
10
3.27863
20
0.0720632
11
3.25426
21
0.0720632
0
LINE
8
BLACK
6
CONTINUOUS
10
3.25426
20
0.0720632
11
3.25387
21
0.0721308
0
LINE
8
BLACK
6
CONTINUOUS
10
3.25387
20
0.0721308
11
3.25374
21
0.072108
0
LINE
8
BLACK
6
CONTINUOUS
10
3.25374
20
0.072108
11
3.25363
21
0.0721736
0
LINE
8
BLACK
6
CONTINUOUS
10
3.25363
20
0.0721736
11
3.25325
21
0.0722413
0
LINE
8
BLACK
6
CONTINUOUS
10
3.25325
20
0.0722413
11
3.25266
21
0.0727344
0
LINE
8
BLACK
6
CONTINUOUS
10
3.25266
20
0.0727344
11
3.25199
21
0.073118
0
LINE
8
BLACK
6
CONTINUOUS
10
3.25199
20
0.073118
11
3.2519
21
0.0733683
0
LINE
8
BLACK
6
CONTINUOUS
10
3.2519
20
0.0733683
11
3.2517
21
0.0735396
0
LINE
8
BLACK
6
CONTINUOUS
10
3.2517
20
0.0735396
11
3.25157
21
0.0742951
0
LINE
8
BLACK
6
CONTINUOUS
10
3.25157
20
0.0742951
11
3.2513
21
0.0750159
0
LINE
8
BLACK
6
CONTINUOUS
10
3.2513
20
0.0750159
11
3.2513
21
0.126197
0
LINE
8
BLACK
6
CONTINUOUS
10
3.2513
20
0.126197
11
3.25148
21
0.127207
0
LINE
8
BLACK
6
CONTINUOUS
10
3.25148
20
0.127207
11
3.25278
21
0.128754
0
LINE
8
BLACK
6
CONTINUOUS
10
3.25278
20
0.128754
11
3.25477
21
0.129105
0
LINE
8
BLACK
6
CONTINUOUS
10
3.25477
20
0.129105
11
3.25652
21
0.128095
0
LINE
8
BLACK
6
CONTINUOUS
10
3.56966
20
0.128972
11
3.5698
21
0.128858
0
LINE
8
BLACK
6
CONTINUOUS
10
3.5698
20
0.128858
11
3.56997
21
0.128838
0
LINE
8
BLACK
6
CONTINUOUS
10
3.56997
20
0.128838
11
3.57485
21
0.126401
0
LINE
8
BLACK
6
CONTINUOUS
10
3.57485
20
0.126401
11
3.57556
21
0.125875
0
LINE
8
BLACK
6
CONTINUOUS
10
3.57556
20
0.125875
11
3.57562
21
0.125848
0
LINE
8
BLACK
6
CONTINUOUS
10
3.57562
20
0.125848
11
3.57805
21
0.123411
0
LINE
8
BLACK
6
CONTINUOUS
10
3.57805
20
0.123411
11
3.57856
21
0.122688
0
LINE
8
BLACK
6
CONTINUOUS
10
3.57856
20
0.122688
11
3.57861
21
0.122643
0
LINE
8
BLACK
6
CONTINUOUS
10
3.57861
20
0.122643
11
3.58104
21
0.117769
0
LINE
8
BLACK
6
CONTINUOUS
10
3.58104
20
0.117769
11
3.58134
21
0.116786
0
LINE
8
BLACK
6
CONTINUOUS
10
3.58134
20
0.116786
11
3.5813
21
0.116614
0
LINE
8
BLACK
6
CONTINUOUS
10
3.5813
20
0.116614
11
3.58136
21
0.116448
0
LINE
8
BLACK
6
CONTINUOUS
10
3.58136
20
0.116448
11
3.58136
21
0.111574
0
LINE
8
BLACK
6
CONTINUOUS
10
3.58136
20
0.111574
11
3.5812
21
0.110704
0
LINE
8
BLACK
6
CONTINUOUS
10
3.5812
20
0.110704
11
3.5812
21
0.11064
0
LINE
8
BLACK
6
CONTINUOUS
10
3.5812
20
0.11064
11
3.57877
21
0.103329
0
LINE
8
BLACK
6
CONTINUOUS
10
3.57877
20
0.103329
11
3.57828
21
0.102427
0
LINE
8
BLACK
6
CONTINUOUS
10
3.57828
20
0.102427
11
3.57813
21
0.102334
0
LINE
8
BLACK
6
CONTINUOUS
10
3.57813
20
0.102334
11
3.57805
21
0.102174
0
LINE
8
BLACK
6
CONTINUOUS
10
3.57805
20
0.102174
11
3.55385
21
0.0779687
0
LINE
8
BLACK
6
CONTINUOUS
10
3.55385
20
0.0779687
11
3.5784
21
0.0779687
0
LINE
8
BLACK
6
CONTINUOUS
10
3.5784
20
0.0779687
11
3.57941
21
0.0777906
0
LINE
8
BLACK
6
CONTINUOUS
10
3.57941
20
0.0777906
11
3.58096
21
0.0764923
0
LINE
8
BLACK
6
CONTINUOUS
10
3.58096
20
0.0764923
11
3.58131
21
0.0745032
0
LINE
8
BLACK
6
CONTINUOUS
10
3.58131
20
0.0745032
11
3.5803
21
0.072754
0
LINE
8
BLACK
6
CONTINUOUS
10
3.5803
20
0.072754
11
3.5784
21
0.0720632
0
LINE
8
BLACK
6
CONTINUOUS
10
3.5784
20
0.0720632
11
3.54672
21
0.0720632
0
LINE
8
BLACK
6
CONTINUOUS
10
3.54672
20
0.0720632
11
3.54608
21
0.0721751
0
LINE
8
BLACK
6
CONTINUOUS
10
3.54608
20
0.0721751
11
3.54595
21
0.0721638
0
LINE
8
BLACK
6
CONTINUOUS
10
3.54595
20
0.0721638
11
3.54589
21
0.0722094
0
LINE
8
BLACK
6
CONTINUOUS
10
3.54589
20
0.0722094
11
3.54571
21
0.0722413
0
LINE
8
BLACK
6
CONTINUOUS
10
3.54571
20
0.0722413
11
3.54503
21
0.0728126
0
LINE
8
BLACK
6
CONTINUOUS
10
3.54503
20
0.0728126
11
3.5443
21
0.0733223
0
LINE
8
BLACK
6
CONTINUOUS
10
3.5443
20
0.0733223
11
3.54427
21
0.0734528
0
LINE
8
BLACK
6
CONTINUOUS
10
3.54427
20
0.0734528
11
3.54416
21
0.0735396
0
LINE
8
BLACK
6
CONTINUOUS
10
3.54416
20
0.0735396
11
3.54401
21
0.0744149
0
LINE
8
BLACK
6
CONTINUOUS
10
3.54401
20
0.0744149
11
3.54378
21
0.0752733
0
LINE
8
BLACK
6
CONTINUOUS
10
3.54378
20
0.0752733
11
3.54383
21
0.0753956
0
LINE
8
BLACK
6
CONTINUOUS
10
3.54383
20
0.0753956
11
3.54381
21
0.0755287
0
LINE
8
BLACK
6
CONTINUOUS
10
3.54381
20
0.0755287
11
3.54426
21
0.0762986
0
LINE
8
BLACK
6
CONTINUOUS
10
3.54426
20
0.0762986
11
3.54463
21
0.0771039
0
LINE
8
BLACK
6
CONTINUOUS
10
3.54463
20
0.0771039
11
3.57338
21
0.105857
0
LINE
8
BLACK
6
CONTINUOUS
10
3.57338
20
0.105857
11
3.57545
21
0.112053
0
LINE
8
BLACK
6
CONTINUOUS
10
3.57545
20
0.112053
11
3.57545
21
0.115751
0
LINE
8
BLACK
6
CONTINUOUS
10
3.57545
20
0.115751
11
3.57354
21
0.119574
0
LINE
8
BLACK
6
CONTINUOUS
10
3.57354
20
0.119574
11
3.57178
21
0.121333
0
LINE
8
BLACK
6
CONTINUOUS
10
3.57178
20
0.121333
11
3.56796
21
0.123244
0
LINE
8
BLACK
6
CONTINUOUS
10
3.56796
20
0.123244
11
3.55716
21
0.123244
0
LINE
8
BLACK
6
CONTINUOUS
10
3.55716
20
0.123244
11
3.55334
21
0.121333
0
LINE
8
BLACK
6
CONTINUOUS
10
3.55334
20
0.121333
11
3.55124
21
0.119235
0
LINE
8
BLACK
6
CONTINUOUS
10
3.55124
20
0.119235
11
3.5504
21
0.118647
0
LINE
8
BLACK
6
CONTINUOUS
10
3.5504
20
0.118647
11
3.54839
21
0.118471
0
LINE
8
BLACK
6
CONTINUOUS
10
3.54839
20
0.118471
11
3.54674
21
0.119629
0
LINE
8
BLACK
6
CONTINUOUS
10
3.54674
20
0.119629
11
3.54621
21
0.12158
0
LINE
8
BLACK
6
CONTINUOUS
10
3.54621
20
0.12158
11
3.54707
21
0.123411
0
LINE
8
BLACK
6
CONTINUOUS
10
3.54707
20
0.123411
11
3.54951
21
0.125848
0
LINE
8
BLACK
6
CONTINUOUS
10
3.54951
20
0.125848
11
3.55023
21
0.126354
0
LINE
8
BLACK
6
CONTINUOUS
10
3.55023
20
0.126354
11
3.55027
21
0.126401
0
LINE
8
BLACK
6
CONTINUOUS
10
3.55027
20
0.126401
11
3.55515
21
0.128838
0
LINE
8
BLACK
6
CONTINUOUS
10
3.55515
20
0.128838
11
3.55613
21
0.12913
0
LINE
8
BLACK
6
CONTINUOUS
10
3.55613
20
0.12913
11
3.5563
21
0.129089
0
LINE
8
BLACK
6
CONTINUOUS
10
3.5563
20
0.129089
11
3.55647
21
0.12915
0
LINE
8
BLACK
6
CONTINUOUS
10
3.55647
20
0.12915
11
3.56865
21
0.12915
0
LINE
8
BLACK
6
CONTINUOUS
10
3.56865
20
0.12915
11
3.56966
21
0.128972
0
LINE
8
BLACK
6
CONTINUOUS
10
3.35763
20
0.128972
11
3.35776
21
0.128858
0
LINE
8
BLACK
6
CONTINUOUS
10
3.35776
20
0.128858
11
3.35794
21
0.128838
0
LINE
8
BLACK
6
CONTINUOUS
10
3.35794
20
0.128838
11
3.36281
21
0.126401
0
LINE
8
BLACK
6
CONTINUOUS
10
3.36281
20
0.126401
11
3.36352
21
0.125875
0
LINE
8
BLACK
6
CONTINUOUS
10
3.36352
20
0.125875
11
3.36358
21
0.125848
0
LINE
8
BLACK
6
CONTINUOUS
10
3.36358
20
0.125848
11
3.36602
21
0.123411
0
LINE
8
BLACK
6
CONTINUOUS
10
3.36602
20
0.123411
11
3.36652
21
0.122687
0
LINE
8
BLACK
6
CONTINUOUS
10
3.36652
20
0.122687
11
3.36657
21
0.122643
0
LINE
8
BLACK
6
CONTINUOUS
10
3.36657
20
0.122643
11
3.36901
21
0.117769
0
LINE
8
BLACK
6
CONTINUOUS
10
3.36901
20
0.117769
11
3.3693
21
0.116786
0
LINE
8
BLACK
6
CONTINUOUS
10
3.3693
20
0.116786
11
3.36926
21
0.116614
0
LINE
8
BLACK
6
CONTINUOUS
10
3.36926
20
0.116614
11
3.36932
21
0.116448
0
LINE
8
BLACK
6
CONTINUOUS
10
3.36932
20
0.116448
11
3.36932
21
0.111574
0
LINE
8
BLACK
6
CONTINUOUS
10
3.36932
20
0.111574
11
3.36914
21
0.110564
0
LINE
8
BLACK
6
CONTINUOUS
10
3.36914
20
0.110564
11
3.36903
21
0.110429
0
LINE
8
BLACK
6
CONTINUOUS
10
3.36903
20
0.110429
11
3.36901
21
0.110253
0
LINE
8
BLACK
6
CONTINUOUS
10
3.36901
20
0.110253
11
3.36657
21
0.105379
0
LINE
8
BLACK
6
CONTINUOUS
10
3.36657
20
0.105379
11
3.36604
21
0.10467
0
LINE
8
BLACK
6
CONTINUOUS
10
3.36604
20
0.10467
11
3.36602
21
0.104612
0
LINE
8
BLACK
6
CONTINUOUS
10
3.36602
20
0.104612
11
3.36391
21
0.102506
0
LINE
8
BLACK
6
CONTINUOUS
10
3.36391
20
0.102506
11
3.36486
21
0.102189
0
LINE
8
BLACK
6
CONTINUOUS
10
3.36486
20
0.102189
11
3.36577
21
0.101701
0
LINE
8
BLACK
6
CONTINUOUS
10
3.36577
20
0.101701
11
3.36586
21
0.10155
0
LINE
8
BLACK
6
CONTINUOUS
10
3.36586
20
0.10155
11
3.36602
21
0.101476
0
LINE
8
BLACK
6
CONTINUOUS
10
3.36602
20
0.101476
11
3.36845
21
0.0990386
0
LINE
8
BLACK
6
CONTINUOUS
10
3.36845
20
0.0990386
11
3.36896
21
0.0983155
0
LINE
8
BLACK
6
CONTINUOUS
10
3.36896
20
0.0983155
11
3.36901
21
0.0982712
0
LINE
8
BLACK
6
CONTINUOUS
10
3.36901
20
0.0982712
11
3.37144
21
0.0933969
0
LINE
8
BLACK
6
CONTINUOUS
10
3.37144
20
0.0933969
11
3.37174
21
0.0924139
0
LINE
8
BLACK
6
CONTINUOUS
10
3.37174
20
0.0924139
11
3.3717
21
0.0922422
0
LINE
8
BLACK
6
CONTINUOUS
10
3.3717
20
0.0922422
11
3.37176
21
0.0920763
0
LINE
8
BLACK
6
CONTINUOUS
10
3.37176
20
0.0920763
11
3.37176
21
0.0847647
0
LINE
8
BLACK
6
CONTINUOUS
10
3.37176
20
0.0847647
11
3.37158
21
0.0837548
0
LINE
8
BLACK
6
CONTINUOUS
10
3.37158
20
0.0837548
11
3.37147
21
0.0836196
0
LINE
8
BLACK
6
CONTINUOUS
10
3.37147
20
0.0836196
11
3.37144
21
0.0834442
0
LINE
8
BLACK
6
CONTINUOUS
10
3.37144
20
0.0834442
11
3.36901
21
0.0785698
0
LINE
8
BLACK
6
CONTINUOUS
10
3.36901
20
0.0785698
11
3.36848
21
0.0778609
0
LINE
8
BLACK
6
CONTINUOUS
10
3.36848
20
0.0778609
11
3.36845
21
0.0778024
0
LINE
8
BLACK
6
CONTINUOUS
10
3.36845
20
0.0778024
11
3.36602
21
0.0753652
0
LINE
8
BLACK
6
CONTINUOUS
10
3.36602
20
0.0753652
11
3.36529
21
0.0748589
0
LINE
8
BLACK
6
CONTINUOUS
10
3.36529
20
0.0748589
11
3.36525
21
0.0748121
0
LINE
8
BLACK
6
CONTINUOUS
10
3.36525
20
0.0748121
11
3.36038
21
0.0723749
0
LINE
8
BLACK
6
CONTINUOUS
10
3.36038
20
0.0723749
11
3.35939
21
0.0720826
0
LINE
8
BLACK
6
CONTINUOUS
10
3.35939
20
0.0720826
11
3.35922
21
0.0721236
0
LINE
8
BLACK
6
CONTINUOUS
10
3.35922
20
0.0721236
11
3.35906
21
0.0720632
0
LINE
8
BLACK
6
CONTINUOUS
10
3.35906
20
0.0720632
11
3.33956
21
0.0720632
0
LINE
8
BLACK
6
CONTINUOUS
10
3.33956
20
0.0720632
11
3.33917
21
0.0721308
0
LINE
8
BLACK
6
CONTINUOUS
10
3.33917
20
0.0721308
11
3.33904
21
0.072108
0
LINE
8
BLACK
6
CONTINUOUS
10
3.33904
20
0.072108
11
3.33893
21
0.0721736
0
LINE
8
BLACK
6
CONTINUOUS
10
3.33893
20
0.0721736
11
3.33855
21
0.0722413
0
LINE
8
BLACK
6
CONTINUOUS
10
3.33855
20
0.0722413
11
3.33796
21
0.0727344
0
LINE
8
BLACK
6
CONTINUOUS
10
3.33796
20
0.0727344
11
3.3373
21
0.073118
0
LINE
8
BLACK
6
CONTINUOUS
10
3.3373
20
0.073118
11
3.3372
21
0.0733683
0
LINE
8
BLACK
6
CONTINUOUS
10
3.3372
20
0.0733683
11
3.337
21
0.0735396
0
LINE
8
BLACK
6
CONTINUOUS
10
3.337
20
0.0735396
11
3.33687
21
0.0742951
0
LINE
8
BLACK
6
CONTINUOUS
10
3.33687
20
0.0742951
11
3.3366
21
0.0750159
0
LINE
8
BLACK
6
CONTINUOUS
10
3.3366
20
0.0750159
11
3.3366
21
0.126197
0
LINE
8
BLACK
6
CONTINUOUS
10
3.3366
20
0.126197
11
3.33667
21
0.126581
0
LINE
8
BLACK
6
CONTINUOUS
10
3.33667
20
0.126581
11
3.33665
21
0.12671
0
LINE
8
BLACK
6
CONTINUOUS
10
3.33665
20
0.12671
11
3.33672
21
0.126823
0
LINE
8
BLACK
6
CONTINUOUS
10
3.33672
20
0.126823
11
3.33678
21
0.127207
0
LINE
8
BLACK
6
CONTINUOUS
10
3.33678
20
0.127207
11
3.33728
21
0.127795
0
LINE
8
BLACK
6
CONTINUOUS
10
3.33728
20
0.127795
11
3.33766
21
0.128459
0
LINE
8
BLACK
6
CONTINUOUS
10
3.33766
20
0.128459
11
3.33791
21
0.12855
0
LINE
8
BLACK
6
CONTINUOUS
10
3.33791
20
0.12855
11
3.33808
21
0.128754
0
LINE
8
BLACK
6
CONTINUOUS
10
3.33808
20
0.128754
11
3.33884
21
0.128887
0
LINE
8
BLACK
6
CONTINUOUS
10
3.33884
20
0.128887
11
3.33956
21
0.12915
0
LINE
8
BLACK
6
CONTINUOUS
10
3.33956
20
0.12915
11
3.35662
21
0.12915
0
LINE
8
BLACK
6
CONTINUOUS
10
3.35662
20
0.12915
11
3.35763
21
0.128972
0
LINE
8
BLACK
6
CONTINUOUS
10
3.34251
20
0.0988724
11
3.34251
21
0.0779687
0
LINE
8
BLACK
6
CONTINUOUS
10
3.34251
20
0.0779687
11
3.35836
21
0.0779687
0
LINE
8
BLACK
6
CONTINUOUS
10
3.35836
20
0.0779687
11
3.36218
21
0.0798799
0
LINE
8
BLACK
6
CONTINUOUS
10
3.36218
20
0.0798799
11
3.36394
21
0.0816394
0
LINE
8
BLACK
6
CONTINUOUS
10
3.36394
20
0.0816394
11
3.36585
21
0.0854618
0
LINE
8
BLACK
6
CONTINUOUS
10
3.36585
20
0.0854618
11
3.36585
21
0.0913793
0
LINE
8
BLACK
6
CONTINUOUS
10
3.36585
20
0.0913793
11
3.36394
21
0.0952016
0
LINE
8
BLACK
6
CONTINUOUS
10
3.36394
20
0.0952016
11
3.36233
21
0.0968071
0
LINE
8
BLACK
6
CONTINUOUS
10
3.36233
20
0.0968071
11
3.35614
21
0.0988724
0
LINE
8
BLACK
6
CONTINUOUS
10
3.35614
20
0.0988724
11
3.34251
21
0.0988724
0
LINE
8
BLACK
6
CONTINUOUS
10
3.34251
20
0.123244
11
3.34251
21
0.104778
0
LINE
8
BLACK
6
CONTINUOUS
10
3.34251
20
0.104778
11
3.35592
21
0.104778
0
LINE
8
BLACK
6
CONTINUOUS
10
3.35592
20
0.104778
11
3.35974
21
0.106689
0
LINE
8
BLACK
6
CONTINUOUS
10
3.35974
20
0.106689
11
3.3615
21
0.108449
0
LINE
8
BLACK
6
CONTINUOUS
10
3.3615
20
0.108449
11
3.36341
21
0.112271
0
LINE
8
BLACK
6
CONTINUOUS
10
3.36341
20
0.112271
11
3.36341
21
0.115751
0
LINE
8
BLACK
6
CONTINUOUS
10
3.36341
20
0.115751
11
3.3615
21
0.119574
0
LINE
8
BLACK
6
CONTINUOUS
10
3.3615
20
0.119574
11
3.35974
21
0.121333
0
LINE
8
BLACK
6
CONTINUOUS
10
3.35974
20
0.121333
11
3.35592
21
0.123244
0
LINE
8
BLACK
6
CONTINUOUS
10
3.35592
20
0.123244
11
3.34251
21
0.123244
0
LINE
8
BLACK
6
CONTINUOUS
10
3.47218
20
0.128972
11
3.47231
21
0.128858
0
LINE
8
BLACK
6
CONTINUOUS
10
3.47231
20
0.128858
11
3.47249
21
0.128838
0
LINE
8
BLACK
6
CONTINUOUS
10
3.47249
20
0.128838
11
3.47736
21
0.126401
0
LINE
8
BLACK
6
CONTINUOUS
10
3.47736
20
0.126401
11
3.47807
21
0.125875
0
LINE
8
BLACK
6
CONTINUOUS
10
3.47807
20
0.125875
11
3.47813
21
0.125848
0
LINE
8
BLACK
6
CONTINUOUS
10
3.47813
20
0.125848
11
3.48057
21
0.123411
0
LINE
8
BLACK
6
CONTINUOUS
10
3.48057
20
0.123411
11
3.48107
21
0.122687
0
LINE
8
BLACK
6
CONTINUOUS
10
3.48107
20
0.122687
11
3.48112
21
0.122643
0
LINE
8
BLACK
6
CONTINUOUS
10
3.48112
20
0.122643
11
3.48356
21
0.117769
0
LINE
8
BLACK
6
CONTINUOUS
10
3.48356
20
0.117769
11
3.48385
21
0.116786
0
LINE
8
BLACK
6
CONTINUOUS
10
3.48385
20
0.116786
11
3.48381
21
0.116614
0
LINE
8
BLACK
6
CONTINUOUS
10
3.48381
20
0.116614
11
3.48387
21
0.116448
0
LINE
8
BLACK
6
CONTINUOUS
10
3.48387
20
0.116448
11
3.48387
21
0.111574
0
LINE
8
BLACK
6
CONTINUOUS
10
3.48387
20
0.111574
11
3.48371
21
0.110704
0
LINE
8
BLACK
6
CONTINUOUS
10
3.48371
20
0.110704
11
3.48372
21
0.11064
0
LINE
8
BLACK
6
CONTINUOUS
10
3.48372
20
0.11064
11
3.48128
21
0.103329
0
LINE
8
BLACK
6
CONTINUOUS
10
3.48128
20
0.103329
11
3.48079
21
0.102427
0
LINE
8
BLACK
6
CONTINUOUS
10
3.48079
20
0.102427
11
3.48064
21
0.102334
0
LINE
8
BLACK
6
CONTINUOUS
10
3.48064
20
0.102334
11
3.48057
21
0.102174
0
LINE
8
BLACK
6
CONTINUOUS
10
3.48057
20
0.102174
11
3.45636
21
0.0779687
0
LINE
8
BLACK
6
CONTINUOUS
10
3.45636
20
0.0779687
11
3.48091
21
0.0779687
0
LINE
8
BLACK
6
CONTINUOUS
10
3.48091
20
0.0779687
11
3.48192
21
0.0777906
0
LINE
8
BLACK
6
CONTINUOUS
10
3.48192
20
0.0777906
11
3.48347
21
0.0764923
0
LINE
8
BLACK
6
CONTINUOUS
10
3.48347
20
0.0764923
11
3.48382
21
0.0745032
0
LINE
8
BLACK
6
CONTINUOUS
10
3.48382
20
0.0745032
11
3.48281
21
0.072754
0
LINE
8
BLACK
6
CONTINUOUS
10
3.48281
20
0.072754
11
3.48091
21
0.0720632
0
LINE
8
BLACK
6
CONTINUOUS
10
3.48091
20
0.0720632
11
3.44923
21
0.0720632
0
LINE
8
BLACK
6
CONTINUOUS
10
3.44923
20
0.0720632
11
3.4486
21
0.0721751
0
LINE
8
BLACK
6
CONTINUOUS
10
3.4486
20
0.0721751
11
3.44847
21
0.0721638
0
LINE
8
BLACK
6
CONTINUOUS
10
3.44847
20
0.0721638
11
3.4484
21
0.0722094
0
LINE
8
BLACK
6
CONTINUOUS
10
3.4484
20
0.0722094
11
3.44822
21
0.0722413
0
LINE
8
BLACK
6
CONTINUOUS
10
3.44822
20
0.0722413
11
3.44754
21
0.0728126
0
LINE
8
BLACK
6
CONTINUOUS
10
3.44754
20
0.0728126
11
3.44681
21
0.0733223
0
LINE
8
BLACK
6
CONTINUOUS
10
3.44681
20
0.0733223
11
3.44678
21
0.0734528
0
LINE
8
BLACK
6
CONTINUOUS
10
3.44678
20
0.0734528
11
3.44667
21
0.0735396
0
LINE
8
BLACK
6
CONTINUOUS
10
3.44667
20
0.0735396
11
3.44652
21
0.0744149
0
LINE
8
BLACK
6
CONTINUOUS
10
3.44652
20
0.0744149
11
3.44629
21
0.0752733
0
LINE
8
BLACK
6
CONTINUOUS
10
3.44629
20
0.0752733
11
3.44635
21
0.0753956
0
LINE
8
BLACK
6
CONTINUOUS
10
3.44635
20
0.0753956
11
3.44632
21
0.0755287
0
LINE
8
BLACK
6
CONTINUOUS
10
3.44632
20
0.0755287
11
3.44677
21
0.0762986
0
LINE
8
BLACK
6
CONTINUOUS
10
3.44677
20
0.0762986
11
3.44714
21
0.0771039
0
LINE
8
BLACK
6
CONTINUOUS
10
3.44714
20
0.0771039
11
3.4759
21
0.105857
0
LINE
8
BLACK
6
CONTINUOUS
10
3.4759
20
0.105857
11
3.47796
21
0.112053
0
LINE
8
BLACK
6
CONTINUOUS
10
3.47796
20
0.112053
11
3.47796
21
0.115751
0
LINE
8
BLACK
6
CONTINUOUS
10
3.47796
20
0.115751
11
3.47605
21
0.119574
0
LINE
8
BLACK
6
CONTINUOUS
10
3.47605
20
0.119574
11
3.47429
21
0.121333
0
LINE
8
BLACK
6
CONTINUOUS
10
3.47429
20
0.121333
11
3.47047
21
0.123244
0
LINE
8
BLACK
6
CONTINUOUS
10
3.47047
20
0.123244
11
3.45968
21
0.123244
0
LINE
8
BLACK
6
CONTINUOUS
10
3.45968
20
0.123244
11
3.45585
21
0.121333
0
LINE
8
BLACK
6
CONTINUOUS
10
3.45585
20
0.121333
11
3.45376
21
0.119235
0
LINE
8
BLACK
6
CONTINUOUS
10
3.45376
20
0.119235
11
3.45292
21
0.118647
0
LINE
8
BLACK
6
CONTINUOUS
10
3.45292
20
0.118647
11
3.4509
21
0.118471
0
LINE
8
BLACK
6
CONTINUOUS
10
3.4509
20
0.118471
11
3.44925
21
0.119629
0
LINE
8
BLACK
6
CONTINUOUS
10
3.44925
20
0.119629
11
3.44873
21
0.12158
0
LINE
8
BLACK
6
CONTINUOUS
10
3.44873
20
0.12158
11
3.44958
21
0.123411
0
LINE
8
BLACK
6
CONTINUOUS
10
3.44958
20
0.123411
11
3.45202
21
0.125848
0
LINE
8
BLACK
6
CONTINUOUS
10
3.45202
20
0.125848
11
3.45274
21
0.126354
0
LINE
8
BLACK
6
CONTINUOUS
10
3.45274
20
0.126354
11
3.45279
21
0.126401
0
LINE
8
BLACK
6
CONTINUOUS
10
3.45279
20
0.126401
11
3.45766
21
0.128838
0
LINE
8
BLACK
6
CONTINUOUS
10
3.45766
20
0.128838
11
3.45864
21
0.12913
0
LINE
8
BLACK
6
CONTINUOUS
10
3.45864
20
0.12913
11
3.45881
21
0.129089
0
LINE
8
BLACK
6
CONTINUOUS
10
3.45881
20
0.129089
11
3.45898
21
0.12915
0
LINE
8
BLACK
6
CONTINUOUS
10
3.45898
20
0.12915
11
3.47117
21
0.12915
0
LINE
8
BLACK
6
CONTINUOUS
10
3.47117
20
0.12915
11
3.47218
21
0.128972
0
LINE
8
BLACK
6
CONTINUOUS
10
3.51848
20
0.128972
11
3.51862
21
0.128858
0
LINE
8
BLACK
6
CONTINUOUS
10
3.51862
20
0.128858
11
3.51879
21
0.128838
0
LINE
8
BLACK
6
CONTINUOUS
10
3.51879
20
0.128838
11
3.52367
21
0.126401
0
LINE
8
BLACK
6
CONTINUOUS
10
3.52367
20
0.126401
11
3.52438
21
0.125875
0
LINE
8
BLACK
6
CONTINUOUS
10
3.52438
20
0.125875
11
3.52444
21
0.125848
0
LINE
8
BLACK
6
CONTINUOUS
10
3.52444
20
0.125848
11
3.52687
21
0.123411
0
LINE
8
BLACK
6
CONTINUOUS
10
3.52687
20
0.123411
11
3.52738
21
0.122688
0
LINE
8
BLACK
6
CONTINUOUS
10
3.52738
20
0.122688
11
3.52743
21
0.122643
0
LINE
8
BLACK
6
CONTINUOUS
10
3.52743
20
0.122643
11
3.52986
21
0.117769
0
LINE
8
BLACK
6
CONTINUOUS
10
3.52986
20
0.117769
11
3.53001
21
0.11728
0
LINE
8
BLACK
6
CONTINUOUS
10
3.53001
20
0.11728
11
3.53009
21
0.117164
0
LINE
8
BLACK
6
CONTINUOUS
10
3.53009
20
0.117164
11
3.53252
21
0.107416
0
LINE
8
BLACK
6
CONTINUOUS
10
3.53252
20
0.107416
11
3.53256
21
0.106828
0
LINE
8
BLACK
6
CONTINUOUS
10
3.53256
20
0.106828
11
3.53261
21
0.106699
0
LINE
8
BLACK
6
CONTINUOUS
10
3.53261
20
0.106699
11
3.53261
21
0.0945135
0
LINE
8
BLACK
6
CONTINUOUS
10
3.53261
20
0.0945135
11
3.53251
21
0.0939331
0
LINE
8
BLACK
6
CONTINUOUS
10
3.53251
20
0.0939331
11
3.53252
21
0.0937974
0
LINE
8
BLACK
6
CONTINUOUS
10
3.53252
20
0.0937974
11
3.53009
21
0.0840486
0
LINE
8
BLACK
6
CONTINUOUS
10
3.53009
20
0.0840486
11
3.52988
21
0.0835831
0
LINE
8
BLACK
6
CONTINUOUS
10
3.52988
20
0.0835831
11
3.52986
21
0.0834442
0
LINE
8
BLACK
6
CONTINUOUS
10
3.52986
20
0.0834442
11
3.52743
21
0.0785698
0
LINE
8
BLACK
6
CONTINUOUS
10
3.52743
20
0.0785698
11
3.5269
21
0.0778609
0
LINE
8
BLACK
6
CONTINUOUS
10
3.5269
20
0.0778609
11
3.52687
21
0.0778024
0
LINE
8
BLACK
6
CONTINUOUS
10
3.52687
20
0.0778024
11
3.52444
21
0.0753652
0
LINE
8
BLACK
6
CONTINUOUS
10
3.52444
20
0.0753652
11
3.52371
21
0.0748589
0
LINE
8
BLACK
6
CONTINUOUS
10
3.52371
20
0.0748589
11
3.52367
21
0.0748121
0
LINE
8
BLACK
6
CONTINUOUS
10
3.52367
20
0.0748121
11
3.51879
21
0.0723749
0
LINE
8
BLACK
6
CONTINUOUS
10
3.51879
20
0.0723749
11
3.51781
21
0.0720826
0
LINE
8
BLACK
6
CONTINUOUS
10
3.51781
20
0.0720826
11
3.51764
21
0.0721236
0
LINE
8
BLACK
6
CONTINUOUS
10
3.51764
20
0.0721236
11
3.51747
21
0.0720632
0
LINE
8
BLACK
6
CONTINUOUS
10
3.51747
20
0.0720632
11
3.5126
21
0.0720632
0
LINE
8
BLACK
6
CONTINUOUS
10
3.5126
20
0.0720632
11
3.51159
21
0.0722413
0
LINE
8
BLACK
6
CONTINUOUS
10
3.51159
20
0.0722413
11
3.51145
21
0.0723547
0
LINE
8
BLACK
6
CONTINUOUS
10
3.51145
20
0.0723547
11
3.51128
21
0.0723749
0
LINE
8
BLACK
6
CONTINUOUS
10
3.51128
20
0.0723749
11
3.5064
21
0.0748121
0
LINE
8
BLACK
6
CONTINUOUS
10
3.5064
20
0.0748121
11
3.50569
21
0.075338
0
LINE
8
BLACK
6
CONTINUOUS
10
3.50569
20
0.075338
11
3.50564
21
0.0753652
0
LINE
8
BLACK
6
CONTINUOUS
10
3.50564
20
0.0753652
11
3.5032
21
0.0778024
0
LINE
8
BLACK
6
CONTINUOUS
10
3.5032
20
0.0778024
11
3.50269
21
0.0785255
0
LINE
8
BLACK
6
CONTINUOUS
10
3.50269
20
0.0785255
11
3.50265
21
0.0785698
0
LINE
8
BLACK
6
CONTINUOUS
10
3.50265
20
0.0785698
11
3.50021
21
0.0834442
0
LINE
8
BLACK
6
CONTINUOUS
10
3.50021
20
0.0834442
11
3.50006
21
0.0839327
0
LINE
8
BLACK
6
CONTINUOUS
10
3.50006
20
0.0839327
11
3.49999
21
0.0840486
0
LINE
8
BLACK
6
CONTINUOUS
10
3.49999
20
0.0840486
11
3.49755
21
0.0937974
0
LINE
8
BLACK
6
CONTINUOUS
10
3.49755
20
0.0937974
11
3.49751
21
0.0943853
0
LINE
8
BLACK
6
CONTINUOUS
10
3.49751
20
0.0943853
11
3.49746
21
0.0945135
0
LINE
8
BLACK
6
CONTINUOUS
10
3.49746
20
0.0945135
11
3.49746
21
0.106699
0
LINE
8
BLACK
6
CONTINUOUS
10
3.49746
20
0.106699
11
3.49756
21
0.10728
0
LINE
8
BLACK
6
CONTINUOUS
10
3.49756
20
0.10728
11
3.49755
21
0.107416
0
LINE
8
BLACK
6
CONTINUOUS
10
3.49755
20
0.107416
11
3.49999
21
0.117164
0
LINE
8
BLACK
6
CONTINUOUS
10
3.49999
20
0.117164
11
3.50019
21
0.11763
0
LINE
8
BLACK
6
CONTINUOUS
10
3.50019
20
0.11763
11
3.50021
21
0.117769
0
LINE
8
BLACK
6
CONTINUOUS
10
3.50021
20
0.117769
11
3.50265
21
0.122643
0
LINE
8
BLACK
6
CONTINUOUS
10
3.50265
20
0.122643
11
3.50317
21
0.123352
0
LINE
8
BLACK
6
CONTINUOUS
10
3.50317
20
0.123352
11
3.5032
21
0.123411
0
LINE
8
BLACK
6
CONTINUOUS
10
3.5032
20
0.123411
11
3.50564
21
0.125848
0
LINE
8
BLACK
6
CONTINUOUS
10
3.50564
20
0.125848
11
3.50636
21
0.126354
0
LINE
8
BLACK
6
CONTINUOUS
10
3.50636
20
0.126354
11
3.5064
21
0.126401
0
LINE
8
BLACK
6
CONTINUOUS
10
3.5064
20
0.126401
11
3.51128
21
0.128838
0
LINE
8
BLACK
6
CONTINUOUS
10
3.51128
20
0.128838
11
3.51226
21
0.12913
0
LINE
8
BLACK
6
CONTINUOUS
10
3.51226
20
0.12913
11
3.51243
21
0.129089
0
LINE
8
BLACK
6
CONTINUOUS
10
3.51243
20
0.129089
11
3.5126
21
0.12915
0
LINE
8
BLACK
6
CONTINUOUS
10
3.5126
20
0.12915
11
3.51747
21
0.12915
0
LINE
8
BLACK
6
CONTINUOUS
10
3.51747
20
0.12915
11
3.51848
21
0.128972
0
LINE
8
BLACK
6
CONTINUOUS
10
3.5133
20
0.123244
11
3.50947
21
0.121333
0
LINE
8
BLACK
6
CONTINUOUS
10
3.50947
20
0.121333
11
3.50771
21
0.119574
0
LINE
8
BLACK
6
CONTINUOUS
10
3.50771
20
0.119574
11
3.50564
21
0.115418
0
LINE
8
BLACK
6
CONTINUOUS
10
3.50564
20
0.115418
11
3.50337
21
0.106336
0
LINE
8
BLACK
6
CONTINUOUS
10
3.50337
20
0.106336
11
3.50337
21
0.094877
0
LINE
8
BLACK
6
CONTINUOUS
10
3.50337
20
0.094877
11
3.50564
21
0.0857953
0
LINE
8
BLACK
6
CONTINUOUS
10
3.50564
20
0.0857953
11
3.50771
21
0.0816394
0
LINE
8
BLACK
6
CONTINUOUS
10
3.50771
20
0.0816394
11
3.50947
21
0.0798799
0
LINE
8
BLACK
6
CONTINUOUS
10
3.50947
20
0.0798799
11
3.5133
21
0.0779687
0
LINE
8
BLACK
6
CONTINUOUS
10
3.5133
20
0.0779687
11
3.51678
21
0.0779687
0
LINE
8
BLACK
6
CONTINUOUS
10
3.51678
20
0.0779687
11
3.5206
21
0.0798799
0
LINE
8
BLACK
6
CONTINUOUS
10
3.5206
20
0.0798799
11
3.52236
21
0.0816394
0
LINE
8
BLACK
6
CONTINUOUS
10
3.52236
20
0.0816394
11
3.52444
21
0.0857953
0
LINE
8
BLACK
6
CONTINUOUS
10
3.52444
20
0.0857953
11
3.52671
21
0.094877
0
LINE
8
BLACK
6
CONTINUOUS
10
3.52671
20
0.094877
11
3.52671
21
0.106336
0
LINE
8
BLACK
6
CONTINUOUS
10
3.52671
20
0.106336
11
3.52444
21
0.115418
0
LINE
8
BLACK
6
CONTINUOUS
10
3.52444
20
0.115418
11
3.52236
21
0.119574
0
LINE
8
BLACK
6
CONTINUOUS
10
3.52236
20
0.119574
11
3.5206
21
0.121333
0
LINE
8
BLACK
6
CONTINUOUS
10
3.5206
20
0.121333
11
3.51678
21
0.123244
0
LINE
8
BLACK
6
CONTINUOUS
10
3.51678
20
0.123244
11
3.5133
21
0.123244
0
LINE
8
BLACK
6
CONTINUOUS
10
3.30592
20
0.128931
11
3.30684
21
0.128794
0
LINE
8
BLACK
6
CONTINUOUS
10
3.30684
20
0.128794
11
3.3069
21
0.12873
0
LINE
8
BLACK
6
CONTINUOUS
10
3.3069
20
0.12873
11
3.30698
21
0.128713
0
LINE
8
BLACK
6
CONTINUOUS
10
3.30698
20
0.128713
11
3.30756
21
0.127982
0
LINE
8
BLACK
6
CONTINUOUS
10
3.30756
20
0.127982
11
3.30818
21
0.127282
0
LINE
8
BLACK
6
CONTINUOUS
10
3.30818
20
0.127282
11
3.30819
21
0.127197
0
LINE
8
BLACK
6
CONTINUOUS
10
3.30819
20
0.127197
11
3.30824
21
0.127131
0
LINE
8
BLACK
6
CONTINUOUS
10
3.30824
20
0.127131
11
3.3253
21
0.0759497
0
LINE
8
BLACK
6
CONTINUOUS
10
3.3253
20
0.0759497
11
3.32545
21
0.0749353
0
LINE
8
BLACK
6
CONTINUOUS
10
3.32545
20
0.0749353
11
3.32471
21
0.0730569
0
LINE
8
BLACK
6
CONTINUOUS
10
3.32471
20
0.0730569
11
3.32293
21
0.0720951
0
LINE
8
BLACK
6
CONTINUOUS
10
3.32293
20
0.0720951
11
3.32095
21
0.0725001
0
LINE
8
BLACK
6
CONTINUOUS
10
3.32095
20
0.0725001
11
3.3197
21
0.0740822
0
LINE
8
BLACK
6
CONTINUOUS
10
3.3197
20
0.0740822
11
3.31549
21
0.0866864
0
LINE
8
BLACK
6
CONTINUOUS
10
3.31549
20
0.0866864
11
3.29538
21
0.0866864
0
LINE
8
BLACK
6
CONTINUOUS
10
3.29538
20
0.0866864
11
3.29118
21
0.0740822
0
LINE
8
BLACK
6
CONTINUOUS
10
3.29118
20
0.0740822
11
3.29069
21
0.0731804
0
LINE
8
BLACK
6
CONTINUOUS
10
3.29069
20
0.0731804
11
3.28897
21
0.0721231
0
LINE
8
BLACK
6
CONTINUOUS
10
3.28897
20
0.0721231
11
3.28697
21
0.0724194
0
LINE
8
BLACK
6
CONTINUOUS
10
3.28697
20
0.0724194
11
3.28563
21
0.0739306
0
LINE
8
BLACK
6
CONTINUOUS
10
3.28563
20
0.0739306
11
3.28558
21
0.0759497
0
LINE
8
BLACK
6
CONTINUOUS
10
3.28558
20
0.0759497
11
3.30264
21
0.127131
0
LINE
8
BLACK
6
CONTINUOUS
10
3.30264
20
0.127131
11
3.30312
21
0.128033
0
LINE
8
BLACK
6
CONTINUOUS
10
3.30312
20
0.128033
11
3.3032
21
0.128077
0
LINE
8
BLACK
6
CONTINUOUS
10
3.3032
20
0.128077
11
3.30323
21
0.128156
0
LINE
8
BLACK
6
CONTINUOUS
10
3.30323
20
0.128156
11
3.30405
21
0.128601
0
LINE
8
BLACK
6
CONTINUOUS
10
3.30405
20
0.128601
11
3.30484
21
0.12909
0
LINE
8
BLACK
6
CONTINUOUS
10
3.30484
20
0.12909
11
3.30493
21
0.129077
0
LINE
8
BLACK
6
CONTINUOUS
10
3.30493
20
0.129077
11
3.305
21
0.129118
0
LINE
8
BLACK
6
CONTINUOUS
10
3.305
20
0.129118
11
3.30592
21
0.128931
0
LINE
8
BLACK
6
CONTINUOUS
10
3.29735
20
0.0925919
11
3.31353
21
0.0925919
0
LINE
8
BLACK
6
CONTINUOUS
10
3.31353
20
0.0925919
11
3.30544
21
0.11686
0
LINE
8
BLACK
6
CONTINUOUS
10
3.30544
20
0.11686
11
3.29735
21
0.0925919
0
LINE
8
BLACK
6
CONTINUOUS
10
3.23001
20
0.129036
11
3.2304
21
0.129105
0
LINE
8
BLACK
6
CONTINUOUS
10
3.2304
20
0.129105
11
3.23096
21
0.128782
0
LINE
8
BLACK
6
CONTINUOUS
10
3.23096
20
0.128782
11
3.23158
21
0.128615
0
LINE
8
BLACK
6
CONTINUOUS
10
3.23158
20
0.128615
11
3.2318
21
0.128292
0
LINE
8
BLACK
6
CONTINUOUS
10
3.2318
20
0.128292
11
3.23215
21
0.128095
0
LINE
8
BLACK
6
CONTINUOUS
10
3.23215
20
0.128095
11
3.23237
21
0.127489
0
LINE
8
BLACK
6
CONTINUOUS
10
3.23237
20
0.127489
11
3.23274
21
0.12696
0
LINE
8
BLACK
6
CONTINUOUS
10
3.23274
20
0.12696
11
3.2327
21
0.126568
0
LINE
8
BLACK
6
CONTINUOUS
10
3.2327
20
0.126568
11
3.23284
21
0.126197
0
LINE
8
BLACK
6
CONTINUOUS
10
3.23284
20
0.126197
11
3.23284
21
0.0750159
0
LINE
8
BLACK
6
CONTINUOUS
10
3.23284
20
0.0750159
11
3.23266
21
0.074006
0
LINE
8
BLACK
6
CONTINUOUS
10
3.23266
20
0.074006
11
3.23136
21
0.0724588
0
LINE
8
BLACK
6
CONTINUOUS
10
3.23136
20
0.0724588
11
3.22937
21
0.072108
0
LINE
8
BLACK
6
CONTINUOUS
10
3.22937
20
0.072108
11
3.22762
21
0.073118
0
LINE
8
BLACK
6
CONTINUOUS
10
3.22762
20
0.073118
11
3.22693
21
0.0750159
0
LINE
8
BLACK
6
CONTINUOUS
10
3.22693
20
0.0750159
11
3.22693
21
0.112887
0
LINE
8
BLACK
6
CONTINUOUS
10
3.22693
20
0.112887
11
3.2155
21
0.0883905
0
LINE
8
BLACK
6
CONTINUOUS
10
3.2155
20
0.0883905
11
3.21528
21
0.0880727
0
LINE
8
BLACK
6
CONTINUOUS
10
3.21528
20
0.0880727
11
3.21524
21
0.0879462
0
LINE
8
BLACK
6
CONTINUOUS
10
3.21524
20
0.0879462
11
3.21514
21
0.0878708
0
LINE
8
BLACK
6
CONTINUOUS
10
3.21514
20
0.0878708
11
3.21491
21
0.0875506
0
LINE
8
BLACK
6
CONTINUOUS
10
3.21491
20
0.0875506
11
3.21422
21
0.0872269
0
LINE
8
BLACK
6
CONTINUOUS
10
3.21422
20
0.0872269
11
3.21359
21
0.0867872
0
LINE
8
BLACK
6
CONTINUOUS
10
3.21359
20
0.0867872
11
3.21332
21
0.0868104
0
LINE
8
BLACK
6
CONTINUOUS
10
3.21332
20
0.0868104
11
3.21308
21
0.0866975
0
LINE
8
BLACK
6
CONTINUOUS
10
3.21308
20
0.0866975
11
3.21234
21
0.0868961
0
LINE
8
BLACK
6
CONTINUOUS
10
3.21234
20
0.0868961
11
3.21158
21
0.0869627
0
LINE
8
BLACK
6
CONTINUOUS
10
3.21158
20
0.0869627
11
3.21139
21
0.0871516
0
LINE
8
BLACK
6
CONTINUOUS
10
3.21139
20
0.0871516
11
3.21113
21
0.0872209
0
LINE
8
BLACK
6
CONTINUOUS
10
3.21113
20
0.0872209
11
3.21069
21
0.0878489
0
LINE
8
BLACK
6
CONTINUOUS
10
3.21069
20
0.0878489
11
3.21015
21
0.0883905
0
LINE
8
BLACK
6
CONTINUOUS
10
3.21015
20
0.0883905
11
3.19872
21
0.112887
0
LINE
8
BLACK
6
CONTINUOUS
10
3.19872
20
0.112887
11
3.19872
21
0.0750159
0
LINE
8
BLACK
6
CONTINUOUS
10
3.19872
20
0.0750159
11
3.19854
21
0.074006
0
LINE
8
BLACK
6
CONTINUOUS
10
3.19854
20
0.074006
11
3.19724
21
0.0724588
0
LINE
8
BLACK
6
CONTINUOUS
10
3.19724
20
0.0724588
11
3.19525
21
0.072108
0
LINE
8
BLACK
6
CONTINUOUS
10
3.19525
20
0.072108
11
3.1935
21
0.073118
0
LINE
8
BLACK
6
CONTINUOUS
10
3.1935
20
0.073118
11
3.19281
21
0.0750159
0
LINE
8
BLACK
6
CONTINUOUS
10
3.19281
20
0.0750159
11
3.19281
21
0.126197
0
LINE
8
BLACK
6
CONTINUOUS
10
3.19281
20
0.126197
11
3.19299
21
0.127207
0
LINE
8
BLACK
6
CONTINUOUS
10
3.19299
20
0.127207
11
3.19324
21
0.127509
0
LINE
8
BLACK
6
CONTINUOUS
10
3.19324
20
0.127509
11
3.19334
21
0.12789
0
LINE
8
BLACK
6
CONTINUOUS
10
3.19334
20
0.12789
11
3.19387
21
0.12826
0
LINE
8
BLACK
6
CONTINUOUS
10
3.19387
20
0.12826
11
3.19429
21
0.128754
0
LINE
8
BLACK
6
CONTINUOUS
10
3.19429
20
0.128754
11
3.19467
21
0.128823
0
LINE
8
BLACK
6
CONTINUOUS
10
3.19467
20
0.128823
11
3.195
21
0.129049
0
LINE
8
BLACK
6
CONTINUOUS
10
3.195
20
0.129049
11
3.19564
21
0.128993
0
LINE
8
BLACK
6
CONTINUOUS
10
3.19564
20
0.128993
11
3.19628
21
0.129105
0
LINE
8
BLACK
6
CONTINUOUS
10
3.19628
20
0.129105
11
3.19662
21
0.128908
0
LINE
8
BLACK
6
CONTINUOUS
10
3.19662
20
0.128908
11
3.19701
21
0.128874
0
LINE
8
BLACK
6
CONTINUOUS
10
3.19701
20
0.128874
11
3.19747
21
0.128418
0
LINE
8
BLACK
6
CONTINUOUS
10
3.19747
20
0.128418
11
3.19802
21
0.128095
0
LINE
8
BLACK
6
CONTINUOUS
10
3.19802
20
0.128095
11
3.19816
21
0.127724
0
LINE
8
BLACK
6
CONTINUOUS
10
3.19816
20
0.127724
11
3.19844
21
0.127446
0
LINE
8
BLACK
6
CONTINUOUS
10
3.19844
20
0.127446
11
3.21282
21
0.0966215
0
LINE
8
BLACK
6
CONTINUOUS
10
3.21282
20
0.0966215
11
3.22721
21
0.127446
0
LINE
8
BLACK
6
CONTINUOUS
10
3.22721
20
0.127446
11
3.2278
21
0.128286
0
LINE
8
BLACK
6
CONTINUOUS
10
3.2278
20
0.128286
11
3.22815
21
0.128452
0
LINE
8
BLACK
6
CONTINUOUS
10
3.22815
20
0.128452
11
3.22841
21
0.128754
0
LINE
8
BLACK
6
CONTINUOUS
10
3.22841
20
0.128754
11
3.22904
21
0.128866
0
LINE
8
BLACK
6
CONTINUOUS
10
3.22904
20
0.128866
11
3.22963
21
0.129139
0
LINE
8
BLACK
6
CONTINUOUS
10
3.22963
20
0.129139
11
3.23001
21
0.129036
0
LINE
8
BLACK
6
CONTINUOUS
10
1.87952
20
0.30131
11
1.87965
21
0.301333
0
LINE
8
BLACK
6
CONTINUOUS
10
1.87965
20
0.301333
11
1.87976
21
0.301268
0
LINE
8
BLACK
6
CONTINUOUS
10
1.87976
20
0.301268
11
1.88014
21
0.3012
0
LINE
8
BLACK
6
CONTINUOUS
10
1.88014
20
0.3012
11
1.88073
21
0.300707
0
LINE
8
BLACK
6
CONTINUOUS
10
1.88073
20
0.300707
11
1.8814
21
0.300323
0
LINE
8
BLACK
6
CONTINUOUS
10
1.8814
20
0.300323
11
1.88149
21
0.300073
0
LINE
8
BLACK
6
CONTINUOUS
10
1.88149
20
0.300073
11
1.88169
21
0.299902
0
LINE
8
BLACK
6
CONTINUOUS
10
1.88169
20
0.299902
11
1.88182
21
0.299146
0
LINE
8
BLACK
6
CONTINUOUS
10
1.88182
20
0.299146
11
1.88209
21
0.298425
0
LINE
8
BLACK
6
CONTINUOUS
10
1.88209
20
0.298425
11
1.88209
21
0.0984252
0
LINE
8
BLACK
6
CONTINUOUS
10
1.88209
20
0.0984252
11
1.88202
21
0.0980417
0
LINE
8
BLACK
6
CONTINUOUS
10
1.88202
20
0.0980417
11
1.88204
21
0.0979124
0
LINE
8
BLACK
6
CONTINUOUS
10
1.88204
20
0.0979124
11
1.88198
21
0.0977988
0
LINE
8
BLACK
6
CONTINUOUS
10
1.88198
20
0.0977988
11
1.88191
21
0.0974153
0
LINE
8
BLACK
6
CONTINUOUS
10
1.88191
20
0.0974153
11
1.88142
21
0.0968276
0
LINE
8
BLACK
6
CONTINUOUS
10
1.88142
20
0.0968276
11
1.88103
21
0.0961633
0
LINE
8
BLACK
6
CONTINUOUS
10
1.88103
20
0.0961633
11
1.88078
21
0.0960722
0
LINE
8
BLACK
6
CONTINUOUS
10
1.88078
20
0.0960722
11
1.88061
21
0.095868
0
LINE
8
BLACK
6
CONTINUOUS
10
1.88061
20
0.095868
11
1.87985
21
0.0957348
0
LINE
8
BLACK
6
CONTINUOUS
10
1.87985
20
0.0957348
11
1.87913
21
0.0954724
0
LINE
8
BLACK
6
CONTINUOUS
10
1.87913
20
0.0954724
11
0.579134
21
0.0954724
0
LINE
8
BLACK
6
CONTINUOUS
10
0.579134
20
0.0954724
11
0.57875
21
0.0955401
0
LINE
8
BLACK
6
CONTINUOUS
10
0.57875
20
0.0955401
11
0.578621
21
0.0955173
0
LINE
8
BLACK
6
CONTINUOUS
10
0.578621
20
0.0955173
11
0.578507
21
0.0955829
0
LINE
8
BLACK
6
CONTINUOUS
10
0.578507
20
0.0955829
11
0.578124
21
0.0956505
0
LINE
8
BLACK
6
CONTINUOUS
10
0.578124
20
0.0956505
11
0.577536
21
0.0961437
0
LINE
8
BLACK
6
CONTINUOUS
10
0.577536
20
0.0961437
11
0.576872
21
0.0965272
0
LINE
8
BLACK
6
CONTINUOUS
10
0.576872
20
0.0965272
11
0.576781
21
0.0967776
0
LINE
8
BLACK
6
CONTINUOUS
10
0.576781
20
0.0967776
11
0.576577
21
0.0969488
0
LINE
8
BLACK
6
CONTINUOUS
10
0.576577
20
0.0969488
11
0.576443
21
0.0977044
0
LINE
8
BLACK
6
CONTINUOUS
10
0.576443
20
0.0977044
11
0.576181
21
0.0984252
0
LINE
8
BLACK
6
CONTINUOUS
10
0.576181
20
0.0984252
11
0.576181
21
0.298425
0
LINE
8
BLACK
6
CONTINUOUS
10
0.576181
20
0.298425
11
0.576249
21
0.298809
0
LINE
8
BLACK
6
CONTINUOUS
10
0.576249
20
0.298809
11
0.576226
21
0.298938
0
LINE
8
BLACK
6
CONTINUOUS
10
0.576226
20
0.298938
11
0.576292
21
0.299052
0
LINE
8
BLACK
6
CONTINUOUS
10
0.576292
20
0.299052
11
0.576359
21
0.299435
0
LINE
8
BLACK
6
CONTINUOUS
10
0.576359
20
0.299435
11
0.576852
21
0.300023
0
LINE
8
BLACK
6
CONTINUOUS
10
0.576852
20
0.300023
11
0.577236
21
0.300687
0
LINE
8
BLACK
6
CONTINUOUS
10
0.577236
20
0.300687
11
0.577486
21
0.300778
0
LINE
8
BLACK
6
CONTINUOUS
10
0.577486
20
0.300778
11
0.577657
21
0.300982
0
LINE
8
BLACK
6
CONTINUOUS
10
0.577657
20
0.300982
11
0.578413
21
0.301116
0
LINE
8
BLACK
6
CONTINUOUS
10
0.578413
20
0.301116
11
0.579134
21
0.301378
0
LINE
8
BLACK
6
CONTINUOUS
10
0.579134
20
0.301378
11
1.87913
21
0.301378
0
LINE
8
BLACK
6
CONTINUOUS
10
1.87913
20
0.301378
11
1.87952
21
0.30131
0
LINE
8
BLACK
6
CONTINUOUS
10
0.582087
20
0.295472
11
0.582087
21
0.101378
0
LINE
8
BLACK
6
CONTINUOUS
10
0.582087
20
0.101378
11
1.87618
21
0.101378
0
LINE
8
BLACK
6
CONTINUOUS
10
1.87618
20
0.101378
11
1.87618
21
0.295472
0
LINE
8
BLACK
6
CONTINUOUS
10
1.87618
20
0.295472
11
0.582087
21
0.295472
0
LINE
8
BLACK
6
CONTINUOUS
10
1.85913
20
0.118425
11
1.79913
21
0.118425
0
LINE
8
BLACK
6
CONTINUOUS
10
1.79913
20
0.118425
11
1.79913
21
0.178425
0
LINE
8
BLACK
6
CONTINUOUS
10
1.79913
20
0.178425
11
1.85913
21
0.178425
0
LINE
8
BLACK
6
CONTINUOUS
10
1.85913
20
0.178425
11
1.85913
21
0.118425
0
LINE
8
BLACK
6
CONTINUOUS
10
0.759134
20
0.118425
11
0.699134
21
0.118425
0
LINE
8
BLACK
6
CONTINUOUS
10
0.699134
20
0.118425
11
0.699134
21
0.178425
0
LINE
8
BLACK
6
CONTINUOUS
10
0.699134
20
0.178425
11
0.759134
21
0.178425
0
LINE
8
BLACK
6
CONTINUOUS
10
0.759134
20
0.178425
11
0.759134
21
0.118425
0
LINE
8
BLACK
6
CONTINUOUS
10
1.25913
20
0.118425
11
1.19913
21
0.118425
0
LINE
8
BLACK
6
CONTINUOUS
10
1.19913
20
0.118425
11
1.19913
21
0.178425
0
LINE
8
BLACK
6
CONTINUOUS
10
1.19913
20
0.178425
11
1.25913
21
0.178425
0
LINE
8
BLACK
6
CONTINUOUS
10
1.25913
20
0.178425
11
1.25913
21
0.118425
0
LINE
8
BLACK
6
CONTINUOUS
10
1.55913
20
0.118425
11
1.49913
21
0.118425
0
LINE
8
BLACK
6
CONTINUOUS
10
1.49913
20
0.118425
11
1.49913
21
0.178425
0
LINE
8
BLACK
6
CONTINUOUS
10
1.49913
20
0.178425
11
1.55913
21
0.178425
0
LINE
8
BLACK
6
CONTINUOUS
10
1.55913
20
0.178425
11
1.55913
21
0.118425
0
LINE
8
BLACK
6
CONTINUOUS
10
1.45913
20
0.118425
11
1.39913
21
0.118425
0
LINE
8
BLACK
6
CONTINUOUS
10
1.39913
20
0.118425
11
1.39913
21
0.178425
0
LINE
8
BLACK
6
CONTINUOUS
10
1.39913
20
0.178425
11
1.45913
21
0.178425
0
LINE
8
BLACK
6
CONTINUOUS
10
1.45913
20
0.178425
11
1.45913
21
0.118425
0
LINE
8
BLACK
6
CONTINUOUS
10
1.15913
20
0.118425
11
1.09913
21
0.118425
0
LINE
8
BLACK
6
CONTINUOUS
10
1.09913
20
0.118425
11
1.09913
21
0.178425
0
LINE
8
BLACK
6
CONTINUOUS
10
1.09913
20
0.178425
11
1.15913
21
0.178425
0
LINE
8
BLACK
6
CONTINUOUS
10
1.15913
20
0.178425
11
1.15913
21
0.118425
0
LINE
8
BLACK
6
CONTINUOUS
10
1.05913
20
0.118425
11
0.999134
21
0.118425
0
LINE
8
BLACK
6
CONTINUOUS
10
0.999134
20
0.118425
11
0.999134
21
0.178425
0
LINE
8
BLACK
6
CONTINUOUS
10
0.999134
20
0.178425
11
1.05913
21
0.178425
0
LINE
8
BLACK
6
CONTINUOUS
10
1.05913
20
0.178425
11
1.05913
21
0.118425
0
LINE
8
BLACK
6
CONTINUOUS
10
0.959134
20
0.118425
11
0.899134
21
0.118425
0
LINE
8
BLACK
6
CONTINUOUS
10
0.899134
20
0.118425
11
0.899134
21
0.178425
0
LINE
8
BLACK
6
CONTINUOUS
10
0.899134
20
0.178425
11
0.959134
21
0.178425
0
LINE
8
BLACK
6
CONTINUOUS
10
0.959134
20
0.178425
11
0.959134
21
0.118425
0
LINE
8
BLACK
6
CONTINUOUS
10
0.659134
20
0.118425
11
0.599134
21
0.118425
0
LINE
8
BLACK
6
CONTINUOUS
10
0.599134
20
0.118425
11
0.599134
21
0.178425
0
LINE
8
BLACK
6
CONTINUOUS
10
0.599134
20
0.178425
11
0.659134
21
0.178425
0
LINE
8
BLACK
6
CONTINUOUS
10
0.659134
20
0.178425
11
0.659134
21
0.118425
0
LINE
8
BLACK
6
CONTINUOUS
10
1.65913
20
0.118425
11
1.59913
21
0.118425
0
LINE
8
BLACK
6
CONTINUOUS
10
1.59913
20
0.118425
11
1.59913
21
0.178425
0
LINE
8
BLACK
6
CONTINUOUS
10
1.59913
20
0.178425
11
1.65913
21
0.178425
0
LINE
8
BLACK
6
CONTINUOUS
10
1.65913
20
0.178425
11
1.65913
21
0.118425
0
LINE
8
BLACK
6
CONTINUOUS
10
1.75913
20
0.118425
11
1.69913
21
0.118425
0
LINE
8
BLACK
6
CONTINUOUS
10
1.69913
20
0.118425
11
1.69913
21
0.178425
0
LINE
8
BLACK
6
CONTINUOUS
10
1.69913
20
0.178425
11
1.75913
21
0.178425
0
LINE
8
BLACK
6
CONTINUOUS
10
1.75913
20
0.178425
11
1.75913
21
0.118425
0
LINE
8
BLACK
6
CONTINUOUS
10
1.35913
20
0.118425
11
1.29913
21
0.118425
0
LINE
8
BLACK
6
CONTINUOUS
10
1.29913
20
0.118425
11
1.29913
21
0.178425
0
LINE
8
BLACK
6
CONTINUOUS
10
1.29913
20
0.178425
11
1.35913
21
0.178425
0
LINE
8
BLACK
6
CONTINUOUS
10
1.35913
20
0.178425
11
1.35913
21
0.118425
0
LINE
8
BLACK
6
CONTINUOUS
10
0.859134
20
0.118425
11
0.799134
21
0.118425
0
LINE
8
BLACK
6
CONTINUOUS
10
0.799134
20
0.118425
11
0.799134
21
0.178425
0
LINE
8
BLACK
6
CONTINUOUS
10
0.799134
20
0.178425
11
0.859134
21
0.178425
0
LINE
8
BLACK
6
CONTINUOUS
10
0.859134
20
0.178425
11
0.859134
21
0.118425
0
LINE
8
BLACK
6
CONTINUOUS
10
1.85913
20
0.218425
11
1.79913
21
0.218425
0
LINE
8
BLACK
6
CONTINUOUS
10
1.79913
20
0.218425
11
1.79913
21
0.278425
0
LINE
8
BLACK
6
CONTINUOUS
10
1.79913
20
0.278425
11
1.85913
21
0.278425
0
LINE
8
BLACK
6
CONTINUOUS
10
1.85913
20
0.278425
11
1.85913
21
0.218425
0
LINE
8
BLACK
6
CONTINUOUS
10
1.55913
20
0.218425
11
1.49913
21
0.218425
0
LINE
8
BLACK
6
CONTINUOUS
10
1.49913
20
0.218425
11
1.49913
21
0.278425
0
LINE
8
BLACK
6
CONTINUOUS
10
1.49913
20
0.278425
11
1.55913
21
0.278425
0
LINE
8
BLACK
6
CONTINUOUS
10
1.55913
20
0.278425
11
1.55913
21
0.218425
0
LINE
8
BLACK
6
CONTINUOUS
10
1.45913
20
0.218425
11
1.39913
21
0.218425
0
LINE
8
BLACK
6
CONTINUOUS
10
1.39913
20
0.218425
11
1.39913
21
0.278425
0
LINE
8
BLACK
6
CONTINUOUS
10
1.39913
20
0.278425
11
1.45913
21
0.278425
0
LINE
8
BLACK
6
CONTINUOUS
10
1.45913
20
0.278425
11
1.45913
21
0.218425
0
LINE
8
BLACK
6
CONTINUOUS
10
1.65913
20
0.218425
11
1.59913
21
0.218425
0
LINE
8
BLACK
6
CONTINUOUS
10
1.59913
20
0.218425
11
1.59913
21
0.278425
0
LINE
8
BLACK
6
CONTINUOUS
10
1.59913
20
0.278425
11
1.65913
21
0.278425
0
LINE
8
BLACK
6
CONTINUOUS
10
1.65913
20
0.278425
11
1.65913
21
0.218425
0
LINE
8
BLACK
6
CONTINUOUS
10
1.75913
20
0.218425
11
1.69913
21
0.218425
0
LINE
8
BLACK
6
CONTINUOUS
10
1.69913
20
0.218425
11
1.69913
21
0.278425
0
LINE
8
BLACK
6
CONTINUOUS
10
1.69913
20
0.278425
11
1.75913
21
0.278425
0
LINE
8
BLACK
6
CONTINUOUS
10
1.75913
20
0.278425
11
1.75913
21
0.218425
0
LINE
8
BLACK
6
CONTINUOUS
10
0.659134
20
0.218425
11
0.599134
21
0.218425
0
LINE
8
BLACK
6
CONTINUOUS
10
0.599134
20
0.218425
11
0.599134
21
0.278425
0
LINE
8
BLACK
6
CONTINUOUS
10
0.599134
20
0.278425
11
0.659134
21
0.278425
0
LINE
8
BLACK
6
CONTINUOUS
10
0.659134
20
0.278425
11
0.659134
21
0.218425
0
LINE
8
BLACK
6
CONTINUOUS
10
1.35913
20
0.218425
11
1.29913
21
0.218425
0
LINE
8
BLACK
6
CONTINUOUS
10
1.29913
20
0.218425
11
1.29913
21
0.278425
0
LINE
8
BLACK
6
CONTINUOUS
10
1.29913
20
0.278425
11
1.35913
21
0.278425
0
LINE
8
BLACK
6
CONTINUOUS
10
1.35913
20
0.278425
11
1.35913
21
0.218425
0
LINE
8
BLACK
6
CONTINUOUS
10
1.25913
20
0.218425
11
1.19913
21
0.218425
0
LINE
8
BLACK
6
CONTINUOUS
10
1.19913
20
0.218425
11
1.19913
21
0.278425
0
LINE
8
BLACK
6
CONTINUOUS
10
1.19913
20
0.278425
11
1.25913
21
0.278425
0
LINE
8
BLACK
6
CONTINUOUS
10
1.25913
20
0.278425
11
1.25913
21
0.218425
0
LINE
8
BLACK
6
CONTINUOUS
10
1.15913
20
0.218425
11
1.09913
21
0.218425
0
LINE
8
BLACK
6
CONTINUOUS
10
1.09913
20
0.218425
11
1.09913
21
0.278425
0
LINE
8
BLACK
6
CONTINUOUS
10
1.09913
20
0.278425
11
1.15913
21
0.278425
0
LINE
8
BLACK
6
CONTINUOUS
10
1.15913
20
0.278425
11
1.15913
21
0.218425
0
LINE
8
BLACK
6
CONTINUOUS
10
1.05913
20
0.218425
11
0.999134
21
0.218425
0
LINE
8
BLACK
6
CONTINUOUS
10
0.999134
20
0.218425
11
0.999134
21
0.278425
0
LINE
8
BLACK
6
CONTINUOUS
10
0.999134
20
0.278425
11
1.05913
21
0.278425
0
LINE
8
BLACK
6
CONTINUOUS
10
1.05913
20
0.278425
11
1.05913
21
0.218425
0
LINE
8
BLACK
6
CONTINUOUS
10
0.959134
20
0.218425
11
0.899134
21
0.218425
0
LINE
8
BLACK
6
CONTINUOUS
10
0.899134
20
0.218425
11
0.899134
21
0.278425
0
LINE
8
BLACK
6
CONTINUOUS
10
0.899134
20
0.278425
11
0.959134
21
0.278425
0
LINE
8
BLACK
6
CONTINUOUS
10
0.959134
20
0.278425
11
0.959134
21
0.218425
0
LINE
8
BLACK
6
CONTINUOUS
10
0.859134
20
0.218425
11
0.799134
21
0.218425
0
LINE
8
BLACK
6
CONTINUOUS
10
0.799134
20
0.218425
11
0.799134
21
0.278425
0
LINE
8
BLACK
6
CONTINUOUS
10
0.799134
20
0.278425
11
0.859134
21
0.278425
0
LINE
8
BLACK
6
CONTINUOUS
10
0.859134
20
0.278425
11
0.859134
21
0.218425
0
LINE
8
BLACK
6
CONTINUOUS
10
0.759134
20
0.218425
11
0.699134
21
0.218425
0
LINE
8
BLACK
6
CONTINUOUS
10
0.699134
20
0.218425
11
0.699134
21
0.278425
0
LINE
8
BLACK
6
CONTINUOUS
10
0.699134
20
0.278425
11
0.759134
21
0.278425
0
LINE
8
BLACK
6
CONTINUOUS
10
0.759134
20
0.278425
11
0.759134
21
0.218425
0
LINE
8
BLACK
6
CONTINUOUS
10
2.80235
20
0.30131
11
2.80248
21
0.301333
0
LINE
8
BLACK
6
CONTINUOUS
10
2.80248
20
0.301333
11
2.80259
21
0.301268
0
LINE
8
BLACK
6
CONTINUOUS
10
2.80259
20
0.301268
11
2.80298
21
0.3012
0
LINE
8
BLACK
6
CONTINUOUS
10
2.80298
20
0.3012
11
2.80357
21
0.300707
0
LINE
8
BLACK
6
CONTINUOUS
10
2.80357
20
0.300707
11
2.80423
21
0.300323
0
LINE
8
BLACK
6
CONTINUOUS
10
2.80423
20
0.300323
11
2.80432
21
0.300073
0
LINE
8
BLACK
6
CONTINUOUS
10
2.80432
20
0.300073
11
2.80453
21
0.299902
0
LINE
8
BLACK
6
CONTINUOUS
10
2.80453
20
0.299902
11
2.80466
21
0.299146
0
LINE
8
BLACK
6
CONTINUOUS
10
2.80466
20
0.299146
11
2.80492
21
0.298425
0
LINE
8
BLACK
6
CONTINUOUS
10
2.80492
20
0.298425
11
2.80492
21
0.0984252
0
LINE
8
BLACK
6
CONTINUOUS
10
2.80492
20
0.0984252
11
2.80485
21
0.0980417
0
LINE
8
BLACK
6
CONTINUOUS
10
2.80485
20
0.0980417
11
2.80488
21
0.0979124
0
LINE
8
BLACK
6
CONTINUOUS
10
2.80488
20
0.0979124
11
2.80481
21
0.0977988
0
LINE
8
BLACK
6
CONTINUOUS
10
2.80481
20
0.0977988
11
2.80474
21
0.0974153
0
LINE
8
BLACK
6
CONTINUOUS
10
2.80474
20
0.0974153
11
2.80425
21
0.0968276
0
LINE
8
BLACK
6
CONTINUOUS
10
2.80425
20
0.0968276
11
2.80387
21
0.0961633
0
LINE
8
BLACK
6
CONTINUOUS
10
2.80387
20
0.0961633
11
2.80362
21
0.0960722
0
LINE
8
BLACK
6
CONTINUOUS
10
2.80362
20
0.0960722
11
2.80344
21
0.095868
0
LINE
8
BLACK
6
CONTINUOUS
10
2.80344
20
0.095868
11
2.80269
21
0.0957348
0
LINE
8
BLACK
6
CONTINUOUS
10
2.80269
20
0.0957348
11
2.80197
21
0.0954724
0
LINE
8
BLACK
6
CONTINUOUS
10
2.80197
20
0.0954724
11
2.30197
21
0.0954724
0
LINE
8
BLACK
6
CONTINUOUS
10
2.30197
20
0.0954724
11
2.30158
21
0.0955401
0
LINE
8
BLACK
6
CONTINUOUS
10
2.30158
20
0.0955401
11
2.30146
21
0.0955173
0
LINE
8
BLACK
6
CONTINUOUS
10
2.30146
20
0.0955173
11
2.30134
21
0.0955829
0
LINE
8
BLACK
6
CONTINUOUS
10
2.30134
20
0.0955829
11
2.30096
21
0.0956505
0
LINE
8
BLACK
6
CONTINUOUS
10
2.30096
20
0.0956505
11
2.30037
21
0.0961437
0
LINE
8
BLACK
6
CONTINUOUS
10
2.30037
20
0.0961437
11
2.29971
21
0.0965272
0
LINE
8
BLACK
6
CONTINUOUS
10
2.29971
20
0.0965272
11
2.29962
21
0.0967776
0
LINE
8
BLACK
6
CONTINUOUS
10
2.29962
20
0.0967776
11
2.29941
21
0.0969488
0
LINE
8
BLACK
6
CONTINUOUS
10
2.29941
20
0.0969488
11
2.29928
21
0.0977044
0
LINE
8
BLACK
6
CONTINUOUS
10
2.29928
20
0.0977044
11
2.29902
21
0.0984252
0
LINE
8
BLACK
6
CONTINUOUS
10
2.29902
20
0.0984252
11
2.29902
21
0.298425
0
LINE
8
BLACK
6
CONTINUOUS
10
2.29902
20
0.298425
11
2.29908
21
0.298809
0
LINE
8
BLACK
6
CONTINUOUS
10
2.29908
20
0.298809
11
2.29906
21
0.298938
0
LINE
8
BLACK
6
CONTINUOUS
10
2.29906
20
0.298938
11
2.29913
21
0.299052
0
LINE
8
BLACK
6
CONTINUOUS
10
2.29913
20
0.299052
11
2.29919
21
0.299435
0
LINE
8
BLACK
6
CONTINUOUS
10
2.29919
20
0.299435
11
2.29969
21
0.300023
0
LINE
8
BLACK
6
CONTINUOUS
10
2.29969
20
0.300023
11
2.30007
21
0.300687
0
LINE
8
BLACK
6
CONTINUOUS
10
2.30007
20
0.300687
11
2.30032
21
0.300778
0
LINE
8
BLACK
6
CONTINUOUS
10
2.30032
20
0.300778
11
2.30049
21
0.300982
0
LINE
8
BLACK
6
CONTINUOUS
10
2.30049
20
0.300982
11
2.30125
21
0.301116
0
LINE
8
BLACK
6
CONTINUOUS
10
2.30125
20
0.301116
11
2.30197
21
0.301378
0
LINE
8
BLACK
6
CONTINUOUS
10
2.30197
20
0.301378
11
2.80197
21
0.301378
0
LINE
8
BLACK
6
CONTINUOUS
10
2.80197
20
0.301378
11
2.80235
21
0.30131
0
LINE
8
BLACK
6
CONTINUOUS
10
2.30492
20
0.295472
11
2.30492
21
0.101378
0
LINE
8
BLACK
6
CONTINUOUS
10
2.30492
20
0.101378
11
2.79902
21
0.101378
0
LINE
8
BLACK
6
CONTINUOUS
10
2.79902
20
0.101378
11
2.79902
21
0.295472
0
LINE
8
BLACK
6
CONTINUOUS
10
2.79902
20
0.295472
11
2.30492
21
0.295472
0
LINE
8
BLACK
6
CONTINUOUS
10
2.58197
20
0.118425
11
2.52197
21
0.118425
0
LINE
8
BLACK
6
CONTINUOUS
10
2.52197
20
0.118425
11
2.52197
21
0.178425
0
LINE
8
BLACK
6
CONTINUOUS
10
2.52197
20
0.178425
11
2.58197
21
0.178425
0
LINE
8
BLACK
6
CONTINUOUS
10
2.58197
20
0.178425
11
2.58197
21
0.118425
0
LINE
8
BLACK
6
CONTINUOUS
10
2.48197
20
0.118425
11
2.42197
21
0.118425
0
LINE
8
BLACK
6
CONTINUOUS
10
2.42197
20
0.118425
11
2.42197
21
0.178425
0
LINE
8
BLACK
6
CONTINUOUS
10
2.42197
20
0.178425
11
2.48197
21
0.178425
0
LINE
8
BLACK
6
CONTINUOUS
10
2.48197
20
0.178425
11
2.48197
21
0.118425
0
LINE
8
BLACK
6
CONTINUOUS
10
2.68197
20
0.118425
11
2.62197
21
0.118425
0
LINE
8
BLACK
6
CONTINUOUS
10
2.62197
20
0.118425
11
2.62197
21
0.178425
0
LINE
8
BLACK
6
CONTINUOUS
10
2.62197
20
0.178425
11
2.68197
21
0.178425
0
LINE
8
BLACK
6
CONTINUOUS
10
2.68197
20
0.178425
11
2.68197
21
0.118425
0
LINE
8
BLACK
6
CONTINUOUS
10
2.38197
20
0.118425
11
2.32197
21
0.118425
0
LINE
8
BLACK
6
CONTINUOUS
10
2.32197
20
0.118425
11
2.32197
21
0.178425
0
LINE
8
BLACK
6
CONTINUOUS
10
2.32197
20
0.178425
11
2.38197
21
0.178425
0
LINE
8
BLACK
6
CONTINUOUS
10
2.38197
20
0.178425
11
2.38197
21
0.118425
0
LINE
8
BLACK
6
CONTINUOUS
10
2.78197
20
0.118425
11
2.72197
21
0.118425
0
LINE
8
BLACK
6
CONTINUOUS
10
2.72197
20
0.118425
11
2.72197
21
0.178425
0
LINE
8
BLACK
6
CONTINUOUS
10
2.72197
20
0.178425
11
2.78197
21
0.178425
0
LINE
8
BLACK
6
CONTINUOUS
10
2.78197
20
0.178425
11
2.78197
21
0.118425
0
LINE
8
BLACK
6
CONTINUOUS
10
2.38197
20
0.218425
11
2.32197
21
0.218425
0
LINE
8
BLACK
6
CONTINUOUS
10
2.32197
20
0.218425
11
2.32197
21
0.278425
0
LINE
8
BLACK
6
CONTINUOUS
10
2.32197
20
0.278425
11
2.38197
21
0.278425
0
LINE
8
BLACK
6
CONTINUOUS
10
2.38197
20
0.278425
11
2.38197
21
0.218425
0
LINE
8
BLACK
6
CONTINUOUS
10
2.48197
20
0.218425
11
2.42197
21
0.218425
0
LINE
8
BLACK
6
CONTINUOUS
10
2.42197
20
0.218425
11
2.42197
21
0.278425
0
LINE
8
BLACK
6
CONTINUOUS
10
2.42197
20
0.278425
11
2.48197
21
0.278425
0
LINE
8
BLACK
6
CONTINUOUS
10
2.48197
20
0.278425
11
2.48197
21
0.218425
0
LINE
8
BLACK
6
CONTINUOUS
10
2.58197
20
0.218425
11
2.52197
21
0.218425
0
LINE
8
BLACK
6
CONTINUOUS
10
2.52197
20
0.218425
11
2.52197
21
0.278425
0
LINE
8
BLACK
6
CONTINUOUS
10
2.52197
20
0.278425
11
2.58197
21
0.278425
0
LINE
8
BLACK
6
CONTINUOUS
10
2.58197
20
0.278425
11
2.58197
21
0.218425
0
LINE
8
BLACK
6
CONTINUOUS
10
2.68197
20
0.218425
11
2.62197
21
0.218425
0
LINE
8
BLACK
6
CONTINUOUS
10
2.62197
20
0.218425
11
2.62197
21
0.278425
0
LINE
8
BLACK
6
CONTINUOUS
10
2.62197
20
0.278425
11
2.68197
21
0.278425
0
LINE
8
BLACK
6
CONTINUOUS
10
2.68197
20
0.278425
11
2.68197
21
0.218425
0
LINE
8
BLACK
6
CONTINUOUS
10
2.78197
20
0.218425
11
2.72197
21
0.218425
0
LINE
8
BLACK
6
CONTINUOUS
10
2.72197
20
0.218425
11
2.72197
21
0.278425
0
LINE
8
BLACK
6
CONTINUOUS
10
2.72197
20
0.278425
11
2.78197
21
0.278425
0
LINE
8
BLACK
6
CONTINUOUS
10
2.78197
20
0.278425
11
2.78197
21
0.218425
0
LINE
8
BLACK
6
CONTINUOUS
10
3.42465
20
0.211373
11
3.42479
21
0.21126
0
LINE
8
BLACK
6
CONTINUOUS
10
3.42479
20
0.21126
11
3.42496
21
0.21124
0
LINE
8
BLACK
6
CONTINUOUS
10
3.42496
20
0.21124
11
3.42984
21
0.208802
0
LINE
8
BLACK
6
CONTINUOUS
10
3.42984
20
0.208802
11
3.43054
21
0.208277
0
LINE
8
BLACK
6
CONTINUOUS
10
3.43054
20
0.208277
11
3.4306
21
0.208249
0
LINE
8
BLACK
6
CONTINUOUS
10
3.4306
20
0.208249
11
3.43304
21
0.205812
0
LINE
8
BLACK
6
CONTINUOUS
10
3.43304
20
0.205812
11
3.43355
21
0.205089
0
LINE
8
BLACK
6
CONTINUOUS
10
3.43355
20
0.205089
11
3.43359
21
0.205045
0
LINE
8
BLACK
6
CONTINUOUS
10
3.43359
20
0.205045
11
3.43603
21
0.20017
0
LINE
8
BLACK
6
CONTINUOUS
10
3.43603
20
0.20017
11
3.43632
21
0.199187
0
LINE
8
BLACK
6
CONTINUOUS
10
3.43632
20
0.199187
11
3.43628
21
0.199016
0
LINE
8
BLACK
6
CONTINUOUS
10
3.43628
20
0.199016
11
3.43634
21
0.19885
0
LINE
8
BLACK
6
CONTINUOUS
10
3.43634
20
0.19885
11
3.43634
21
0.193975
0
LINE
8
BLACK
6
CONTINUOUS
10
3.43634
20
0.193975
11
3.43616
21
0.192966
0
LINE
8
BLACK
6
CONTINUOUS
10
3.43616
20
0.192966
11
3.43605
21
0.19283
0
LINE
8
BLACK
6
CONTINUOUS
10
3.43605
20
0.19283
11
3.43603
21
0.192655
0
LINE
8
BLACK
6
CONTINUOUS
10
3.43603
20
0.192655
11
3.43359
21
0.187781
0
LINE
8
BLACK
6
CONTINUOUS
10
3.43359
20
0.187781
11
3.43307
21
0.187071
0
LINE
8
BLACK
6
CONTINUOUS
10
3.43307
20
0.187071
11
3.43304
21
0.187013
0
LINE
8
BLACK
6
CONTINUOUS
10
3.43304
20
0.187013
11
3.43093
21
0.184908
0
LINE
8
BLACK
6
CONTINUOUS
10
3.43093
20
0.184908
11
3.43189
21
0.184591
0
LINE
8
BLACK
6
CONTINUOUS
10
3.43189
20
0.184591
11
3.43279
21
0.184102
0
LINE
8
BLACK
6
CONTINUOUS
10
3.43279
20
0.184102
11
3.43288
21
0.183952
0
LINE
8
BLACK
6
CONTINUOUS
10
3.43288
20
0.183952
11
3.43304
21
0.183877
0
LINE
8
BLACK
6
CONTINUOUS
10
3.43304
20
0.183877
11
3.43548
21
0.18144
0
LINE
8
BLACK
6
CONTINUOUS
10
3.43548
20
0.18144
11
3.43598
21
0.180717
0
LINE
8
BLACK
6
CONTINUOUS
10
3.43598
20
0.180717
11
3.43603
21
0.180673
0
LINE
8
BLACK
6
CONTINUOUS
10
3.43603
20
0.180673
11
3.43847
21
0.175798
0
LINE
8
BLACK
6
CONTINUOUS
10
3.43847
20
0.175798
11
3.43876
21
0.174816
0
LINE
8
BLACK
6
CONTINUOUS
10
3.43876
20
0.174816
11
3.43872
21
0.174644
0
LINE
8
BLACK
6
CONTINUOUS
10
3.43872
20
0.174644
11
3.43878
21
0.174478
0
LINE
8
BLACK
6
CONTINUOUS
10
3.43878
20
0.174478
11
3.43878
21
0.167166
0
LINE
8
BLACK
6
CONTINUOUS
10
3.43878
20
0.167166
11
3.4386
21
0.166156
0
LINE
8
BLACK
6
CONTINUOUS
10
3.4386
20
0.166156
11
3.43849
21
0.166021
0
LINE
8
BLACK
6
CONTINUOUS
10
3.43849
20
0.166021
11
3.43847
21
0.165846
0
LINE
8
BLACK
6
CONTINUOUS
10
3.43847
20
0.165846
11
3.43603
21
0.160971
0
LINE
8
BLACK
6
CONTINUOUS
10
3.43603
20
0.160971
11
3.4355
21
0.160262
0
LINE
8
BLACK
6
CONTINUOUS
10
3.4355
20
0.160262
11
3.43548
21
0.160204
0
LINE
8
BLACK
6
CONTINUOUS
10
3.43548
20
0.160204
11
3.43304
21
0.157767
0
LINE
8
BLACK
6
CONTINUOUS
10
3.43304
20
0.157767
11
3.43232
21
0.157261
0
LINE
8
BLACK
6
CONTINUOUS
10
3.43232
20
0.157261
11
3.43227
21
0.157214
0
LINE
8
BLACK
6
CONTINUOUS
10
3.43227
20
0.157214
11
3.4274
21
0.154776
0
LINE
8
BLACK
6
CONTINUOUS
10
3.4274
20
0.154776
11
3.42642
21
0.154484
0
LINE
8
BLACK
6
CONTINUOUS
10
3.42642
20
0.154484
11
3.42624
21
0.154525
0
LINE
8
BLACK
6
CONTINUOUS
10
3.42624
20
0.154525
11
3.42608
21
0.154465
0
LINE
8
BLACK
6
CONTINUOUS
10
3.42608
20
0.154465
11
3.40658
21
0.154465
0
LINE
8
BLACK
6
CONTINUOUS
10
3.40658
20
0.154465
11
3.4062
21
0.154532
0
LINE
8
BLACK
6
CONTINUOUS
10
3.4062
20
0.154532
11
3.40607
21
0.15451
0
LINE
8
BLACK
6
CONTINUOUS
10
3.40607
20
0.15451
11
3.40595
21
0.154575
0
LINE
8
BLACK
6
CONTINUOUS
10
3.40595
20
0.154575
11
3.40557
21
0.154643
0
LINE
8
BLACK
6
CONTINUOUS
10
3.40557
20
0.154643
11
3.40498
21
0.155136
0
LINE
8
BLACK
6
CONTINUOUS
10
3.40498
20
0.155136
11
3.40432
21
0.15552
0
LINE
8
BLACK
6
CONTINUOUS
10
3.40432
20
0.15552
11
3.40423
21
0.15577
0
LINE
8
BLACK
6
CONTINUOUS
10
3.40423
20
0.15577
11
3.40402
21
0.155941
0
LINE
8
BLACK
6
CONTINUOUS
10
3.40402
20
0.155941
11
3.40389
21
0.156697
0
LINE
8
BLACK
6
CONTINUOUS
10
3.40389
20
0.156697
11
3.40363
21
0.157418
0
LINE
8
BLACK
6
CONTINUOUS
10
3.40363
20
0.157418
11
3.40363
21
0.208599
0
LINE
8
BLACK
6
CONTINUOUS
10
3.40363
20
0.208599
11
3.4037
21
0.208982
0
LINE
8
BLACK
6
CONTINUOUS
10
3.4037
20
0.208982
11
3.40367
21
0.209111
0
LINE
8
BLACK
6
CONTINUOUS
10
3.40367
20
0.209111
11
3.40374
21
0.209225
0
LINE
8
BLACK
6
CONTINUOUS
10
3.40374
20
0.209225
11
3.40381
21
0.209609
0
LINE
8
BLACK
6
CONTINUOUS
10
3.40381
20
0.209609
11
3.4043
21
0.210196
0
LINE
8
BLACK
6
CONTINUOUS
10
3.4043
20
0.210196
11
3.40468
21
0.210861
0
LINE
8
BLACK
6
CONTINUOUS
10
3.40468
20
0.210861
11
3.40493
21
0.210952
0
LINE
8
BLACK
6
CONTINUOUS
10
3.40493
20
0.210952
11
3.4051
21
0.211156
0
LINE
8
BLACK
6
CONTINUOUS
10
3.4051
20
0.211156
11
3.40586
21
0.211289
0
LINE
8
BLACK
6
CONTINUOUS
10
3.40586
20
0.211289
11
3.40658
21
0.211551
0
LINE
8
BLACK
6
CONTINUOUS
10
3.40658
20
0.211551
11
3.42364
21
0.211551
0
LINE
8
BLACK
6
CONTINUOUS
10
3.42364
20
0.211551
11
3.42465
21
0.211373
0
LINE
8
BLACK
6
CONTINUOUS
10
3.40953
20
0.181274
11
3.40953
21
0.16037
0
LINE
8
BLACK
6
CONTINUOUS
10
3.40953
20
0.16037
11
3.42538
21
0.16037
0
LINE
8
BLACK
6
CONTINUOUS
10
3.42538
20
0.16037
11
3.4292
21
0.162281
0
LINE
8
BLACK
6
CONTINUOUS
10
3.4292
20
0.162281
11
3.43096
21
0.164041
0
LINE
8
BLACK
6
CONTINUOUS
10
3.43096
20
0.164041
11
3.43287
21
0.167863
0
LINE
8
BLACK
6
CONTINUOUS
10
3.43287
20
0.167863
11
3.43287
21
0.173781
0
LINE
8
BLACK
6
CONTINUOUS
10
3.43287
20
0.173781
11
3.43096
21
0.177603
0
LINE
8
BLACK
6
CONTINUOUS
10
3.43096
20
0.177603
11
3.42936
21
0.179209
0
LINE
8
BLACK
6
CONTINUOUS
10
3.42936
20
0.179209
11
3.42316
21
0.181274
0
LINE
8
BLACK
6
CONTINUOUS
10
3.42316
20
0.181274
11
3.40953
21
0.181274
0
LINE
8
BLACK
6
CONTINUOUS
10
3.40953
20
0.205646
11
3.40953
21
0.187179
0
LINE
8
BLACK
6
CONTINUOUS
10
3.40953
20
0.187179
11
3.42294
21
0.187179
0
LINE
8
BLACK
6
CONTINUOUS
10
3.42294
20
0.187179
11
3.42677
21
0.189091
0
LINE
8
BLACK
6
CONTINUOUS
10
3.42677
20
0.189091
11
3.42853
21
0.19085
0
LINE
8
BLACK
6
CONTINUOUS
10
3.42853
20
0.19085
11
3.43044
21
0.194673
0
LINE
8
BLACK
6
CONTINUOUS
10
3.43044
20
0.194673
11
3.43044
21
0.198153
0
LINE
8
BLACK
6
CONTINUOUS
10
3.43044
20
0.198153
11
3.42853
21
0.201975
0
LINE
8
BLACK
6
CONTINUOUS
10
3.42853
20
0.201975
11
3.42677
21
0.203735
0
LINE
8
BLACK
6
CONTINUOUS
10
3.42677
20
0.203735
11
3.42294
21
0.205646
0
LINE
8
BLACK
6
CONTINUOUS
10
3.42294
20
0.205646
11
3.40953
21
0.205646
0
LINE
8
BLACK
6
CONTINUOUS
10
3.51904
20
0.211477
11
3.5192
21
0.211507
0
LINE
8
BLACK
6
CONTINUOUS
10
3.5192
20
0.211507
11
3.51995
21
0.211078
0
LINE
8
BLACK
6
CONTINUOUS
10
3.51995
20
0.211078
11
3.52073
21
0.210734
0
LINE
8
BLACK
6
CONTINUOUS
10
3.52073
20
0.210734
11
3.52081
21
0.210581
0
LINE
8
BLACK
6
CONTINUOUS
10
3.52081
20
0.210581
11
3.52095
21
0.210497
0
LINE
8
BLACK
6
CONTINUOUS
10
3.52095
20
0.210497
11
3.52125
21
0.209691
0
LINE
8
BLACK
6
CONTINUOUS
10
3.52125
20
0.209691
11
3.52163
21
0.208923
0
LINE
8
BLACK
6
CONTINUOUS
10
3.52163
20
0.208923
11
3.52159
21
0.208758
0
LINE
8
BLACK
6
CONTINUOUS
10
3.52159
20
0.208758
11
3.52164
21
0.208599
0
LINE
8
BLACK
6
CONTINUOUS
10
3.52164
20
0.208599
11
3.52164
21
0.16037
0
LINE
8
BLACK
6
CONTINUOUS
10
3.52164
20
0.16037
11
3.53331
21
0.16037
0
LINE
8
BLACK
6
CONTINUOUS
10
3.53331
20
0.16037
11
3.53432
21
0.160192
0
LINE
8
BLACK
6
CONTINUOUS
10
3.53432
20
0.160192
11
3.53587
21
0.158894
0
LINE
8
BLACK
6
CONTINUOUS
10
3.53587
20
0.158894
11
3.53622
21
0.156905
0
LINE
8
BLACK
6
CONTINUOUS
10
3.53622
20
0.156905
11
3.53521
21
0.155156
0
LINE
8
BLACK
6
CONTINUOUS
10
3.53521
20
0.155156
11
3.53331
21
0.154465
0
LINE
8
BLACK
6
CONTINUOUS
10
3.53331
20
0.154465
11
3.50407
21
0.154465
0
LINE
8
BLACK
6
CONTINUOUS
10
3.50407
20
0.154465
11
3.50306
21
0.154643
0
LINE
8
BLACK
6
CONTINUOUS
10
3.50306
20
0.154643
11
3.50151
21
0.155941
0
LINE
8
BLACK
6
CONTINUOUS
10
3.50151
20
0.155941
11
3.50116
21
0.15793
0
LINE
8
BLACK
6
CONTINUOUS
10
3.50116
20
0.15793
11
3.50217
21
0.159679
0
LINE
8
BLACK
6
CONTINUOUS
10
3.50217
20
0.159679
11
3.50407
21
0.16037
0
LINE
8
BLACK
6
CONTINUOUS
10
3.50407
20
0.16037
11
3.51574
21
0.16037
0
LINE
8
BLACK
6
CONTINUOUS
10
3.51574
20
0.16037
11
3.51574
21
0.199033
0
LINE
8
BLACK
6
CONTINUOUS
10
3.51574
20
0.199033
11
3.51103
21
0.194325
0
LINE
8
BLACK
6
CONTINUOUS
10
3.51103
20
0.194325
11
3.51031
21
0.193818
0
LINE
8
BLACK
6
CONTINUOUS
10
3.51031
20
0.193818
11
3.51026
21
0.193772
0
LINE
8
BLACK
6
CONTINUOUS
10
3.51026
20
0.193772
11
3.50539
21
0.191334
0
LINE
8
BLACK
6
CONTINUOUS
10
3.50539
20
0.191334
11
3.50441
21
0.191042
0
LINE
8
BLACK
6
CONTINUOUS
10
3.50441
20
0.191042
11
3.50244
21
0.191511
0
LINE
8
BLACK
6
CONTINUOUS
10
3.50244
20
0.191511
11
3.50124
21
0.193134
0
LINE
8
BLACK
6
CONTINUOUS
10
3.50124
20
0.193134
11
3.50136
21
0.19515
0
LINE
8
BLACK
6
CONTINUOUS
10
3.50136
20
0.19515
11
3.50275
21
0.196616
0
LINE
8
BLACK
6
CONTINUOUS
10
3.50275
20
0.196616
11
3.50719
21
0.198839
0
LINE
8
BLACK
6
CONTINUOUS
10
3.50719
20
0.198839
11
3.51152
21
0.203168
0
LINE
8
BLACK
6
CONTINUOUS
10
3.51152
20
0.203168
11
3.51623
21
0.210236
0
LINE
8
BLACK
6
CONTINUOUS
10
3.51623
20
0.210236
11
3.51694
21
0.210978
0
LINE
8
BLACK
6
CONTINUOUS
10
3.51694
20
0.210978
11
3.51711
21
0.211026
0
LINE
8
BLACK
6
CONTINUOUS
10
3.51711
20
0.211026
11
3.51721
21
0.211156
0
LINE
8
BLACK
6
CONTINUOUS
10
3.51721
20
0.211156
11
3.51806
21
0.211305
0
LINE
8
BLACK
6
CONTINUOUS
10
3.51806
20
0.211305
11
3.51888
21
0.211545
0
LINE
8
BLACK
6
CONTINUOUS
10
3.51888
20
0.211545
11
3.51904
21
0.211477
0
LINE
8
BLACK
6
CONTINUOUS
10
3.47339
20
0.211373
11
3.47353
21
0.21126
0
LINE
8
BLACK
6
CONTINUOUS
10
3.47353
20
0.21126
11
3.47371
21
0.21124
0
LINE
8
BLACK
6
CONTINUOUS
10
3.47371
20
0.21124
11
3.47858
21
0.208802
0
LINE
8
BLACK
6
CONTINUOUS
10
3.47858
20
0.208802
11
3.47929
21
0.208277
0
LINE
8
BLACK
6
CONTINUOUS
10
3.47929
20
0.208277
11
3.47935
21
0.208249
0
LINE
8
BLACK
6
CONTINUOUS
10
3.47935
20
0.208249
11
3.48178
21
0.205812
0
LINE
8
BLACK
6
CONTINUOUS
10
3.48178
20
0.205812
11
3.48229
21
0.205089
0
LINE
8
BLACK
6
CONTINUOUS
10
3.48229
20
0.205089
11
3.48234
21
0.205045
0
LINE
8
BLACK
6
CONTINUOUS
10
3.48234
20
0.205045
11
3.48477
21
0.20017
0
LINE
8
BLACK
6
CONTINUOUS
10
3.48477
20
0.20017
11
3.48492
21
0.199682
0
LINE
8
BLACK
6
CONTINUOUS
10
3.48492
20
0.199682
11
3.485
21
0.199566
0
LINE
8
BLACK
6
CONTINUOUS
10
3.485
20
0.199566
11
3.48744
21
0.189817
0
LINE
8
BLACK
6
CONTINUOUS
10
3.48744
20
0.189817
11
3.48748
21
0.189229
0
LINE
8
BLACK
6
CONTINUOUS
10
3.48748
20
0.189229
11
3.48752
21
0.189101
0
LINE
8
BLACK
6
CONTINUOUS
10
3.48752
20
0.189101
11
3.48752
21
0.176915
0
LINE
8
BLACK
6
CONTINUOUS
10
3.48752
20
0.176915
11
3.48742
21
0.176335
0
LINE
8
BLACK
6
CONTINUOUS
10
3.48742
20
0.176335
11
3.48744
21
0.176199
0
LINE
8
BLACK
6
CONTINUOUS
10
3.48744
20
0.176199
11
3.485
21
0.16645
0
LINE
8
BLACK
6
CONTINUOUS
10
3.485
20
0.16645
11
3.48479
21
0.165985
0
LINE
8
BLACK
6
CONTINUOUS
10
3.48479
20
0.165985
11
3.48477
21
0.165846
0
LINE
8
BLACK
6
CONTINUOUS
10
3.48477
20
0.165846
11
3.48234
21
0.160971
0
LINE
8
BLACK
6
CONTINUOUS
10
3.48234
20
0.160971
11
3.48181
21
0.160262
0
LINE
8
BLACK
6
CONTINUOUS
10
3.48181
20
0.160262
11
3.48178
21
0.160204
0
LINE
8
BLACK
6
CONTINUOUS
10
3.48178
20
0.160204
11
3.47935
21
0.157767
0
LINE
8
BLACK
6
CONTINUOUS
10
3.47935
20
0.157767
11
3.47862
21
0.157261
0
LINE
8
BLACK
6
CONTINUOUS
10
3.47862
20
0.157261
11
3.47858
21
0.157214
0
LINE
8
BLACK
6
CONTINUOUS
10
3.47858
20
0.157214
11
3.47371
21
0.154776
0
LINE
8
BLACK
6
CONTINUOUS
10
3.47371
20
0.154776
11
3.47272
21
0.154484
0
LINE
8
BLACK
6
CONTINUOUS
10
3.47272
20
0.154484
11
3.47255
21
0.154525
0
LINE
8
BLACK
6
CONTINUOUS
10
3.47255
20
0.154525
11
3.47238
21
0.154465
0
LINE
8
BLACK
6
CONTINUOUS
10
3.47238
20
0.154465
11
3.46751
21
0.154465
0
LINE
8
BLACK
6
CONTINUOUS
10
3.46751
20
0.154465
11
3.4665
21
0.154643
0
LINE
8
BLACK
6
CONTINUOUS
10
3.4665
20
0.154643
11
3.46637
21
0.154756
0
LINE
8
BLACK
6
CONTINUOUS
10
3.46637
20
0.154756
11
3.46619
21
0.154776
0
LINE
8
BLACK
6
CONTINUOUS
10
3.46619
20
0.154776
11
3.46132
21
0.157214
0
LINE
8
BLACK
6
CONTINUOUS
10
3.46132
20
0.157214
11
3.46061
21
0.15774
0
LINE
8
BLACK
6
CONTINUOUS
10
3.46061
20
0.15774
11
3.46055
21
0.157767
0
LINE
8
BLACK
6
CONTINUOUS
10
3.46055
20
0.157767
11
3.45811
21
0.160204
0
LINE
8
BLACK
6
CONTINUOUS
10
3.45811
20
0.160204
11
3.4576
21
0.160927
0
LINE
8
BLACK
6
CONTINUOUS
10
3.4576
20
0.160927
11
3.45756
21
0.160971
0
LINE
8
BLACK
6
CONTINUOUS
10
3.45756
20
0.160971
11
3.45512
21
0.165846
0
LINE
8
BLACK
6
CONTINUOUS
10
3.45512
20
0.165846
11
3.45498
21
0.166334
0
LINE
8
BLACK
6
CONTINUOUS
10
3.45498
20
0.166334
11
3.4549
21
0.16645
0
LINE
8
BLACK
6
CONTINUOUS
10
3.4549
20
0.16645
11
3.45246
21
0.176199
0
LINE
8
BLACK
6
CONTINUOUS
10
3.45246
20
0.176199
11
3.45242
21
0.176787
0
LINE
8
BLACK
6
CONTINUOUS
10
3.45242
20
0.176787
11
3.45237
21
0.176915
0
LINE
8
BLACK
6
CONTINUOUS
10
3.45237
20
0.176915
11
3.45237
21
0.189101
0
LINE
8
BLACK
6
CONTINUOUS
10
3.45237
20
0.189101
11
3.45247
21
0.189681
0
LINE
8
BLACK
6
CONTINUOUS
10
3.45247
20
0.189681
11
3.45246
21
0.189817
0
LINE
8
BLACK
6
CONTINUOUS
10
3.45246
20
0.189817
11
3.4549
21
0.199566
0
LINE
8
BLACK
6
CONTINUOUS
10
3.4549
20
0.199566
11
3.4551
21
0.200031
0
LINE
8
BLACK
6
CONTINUOUS
10
3.4551
20
0.200031
11
3.45512
21
0.20017
0
LINE
8
BLACK
6
CONTINUOUS
10
3.45512
20
0.20017
11
3.45756
21
0.205045
0
LINE
8
BLACK
6
CONTINUOUS
10
3.45756
20
0.205045
11
3.45808
21
0.205754
0
LINE
8
BLACK
6
CONTINUOUS
10
3.45808
20
0.205754
11
3.45811
21
0.205812
0
LINE
8
BLACK
6
CONTINUOUS
10
3.45811
20
0.205812
11
3.46055
21
0.208249
0
LINE
8
BLACK
6
CONTINUOUS
10
3.46055
20
0.208249
11
3.46127
21
0.208756
0
LINE
8
BLACK
6
CONTINUOUS
10
3.46127
20
0.208756
11
3.46132
21
0.208802
0
LINE
8
BLACK
6
CONTINUOUS
10
3.46132
20
0.208802
11
3.46619
21
0.21124
0
LINE
8
BLACK
6
CONTINUOUS
10
3.46619
20
0.21124
11
3.46717
21
0.211532
0
LINE
8
BLACK
6
CONTINUOUS
10
3.46717
20
0.211532
11
3.46734
21
0.211491
0
LINE
8
BLACK
6
CONTINUOUS
10
3.46734
20
0.211491
11
3.46751
21
0.211551
0
LINE
8
BLACK
6
CONTINUOUS
10
3.46751
20
0.211551
11
3.47238
21
0.211551
0
LINE
8
BLACK
6
CONTINUOUS
10
3.47238
20
0.211551
11
3.47339
21
0.211373
0
LINE
8
BLACK
6
CONTINUOUS
10
3.46821
20
0.205646
11
3.46439
21
0.203735
0
LINE
8
BLACK
6
CONTINUOUS
10
3.46439
20
0.203735
11
3.46263
21
0.201975
0
LINE
8
BLACK
6
CONTINUOUS
10
3.46263
20
0.201975
11
3.46055
21
0.197819
0
LINE
8
BLACK
6
CONTINUOUS
10
3.46055
20
0.197819
11
3.45828
21
0.188738
0
LINE
8
BLACK
6
CONTINUOUS
10
3.45828
20
0.188738
11
3.45828
21
0.177279
0
LINE
8
BLACK
6
CONTINUOUS
10
3.45828
20
0.177279
11
3.46055
21
0.168197
0
LINE
8
BLACK
6
CONTINUOUS
10
3.46055
20
0.168197
11
3.46263
21
0.164041
0
LINE
8
BLACK
6
CONTINUOUS
10
3.46263
20
0.164041
11
3.46439
21
0.162281
0
LINE
8
BLACK
6
CONTINUOUS
10
3.46439
20
0.162281
11
3.46821
21
0.16037
0
LINE
8
BLACK
6
CONTINUOUS
10
3.46821
20
0.16037
11
3.47169
21
0.16037
0
LINE
8
BLACK
6
CONTINUOUS
10
3.47169
20
0.16037
11
3.47551
21
0.162281
0
LINE
8
BLACK
6
CONTINUOUS
10
3.47551
20
0.162281
11
3.47727
21
0.164041
0
LINE
8
BLACK
6
CONTINUOUS
10
3.47727
20
0.164041
11
3.47935
21
0.168197
0
LINE
8
BLACK
6
CONTINUOUS
10
3.47935
20
0.168197
11
3.48162
21
0.177279
0
LINE
8
BLACK
6
CONTINUOUS
10
3.48162
20
0.177279
11
3.48162
21
0.188738
0
LINE
8
BLACK
6
CONTINUOUS
10
3.48162
20
0.188738
11
3.47935
21
0.197819
0
LINE
8
BLACK
6
CONTINUOUS
10
3.47935
20
0.197819
11
3.47727
21
0.201975
0
LINE
8
BLACK
6
CONTINUOUS
10
3.47727
20
0.201975
11
3.47551
21
0.203735
0
LINE
8
BLACK
6
CONTINUOUS
10
3.47551
20
0.203735
11
3.47169
21
0.205646
0
LINE
8
BLACK
6
CONTINUOUS
10
3.47169
20
0.205646
11
3.46821
21
0.205646
0
LINE
8
BLACK
6
CONTINUOUS
10
3.56548
20
0.211332
11
3.5664
21
0.211195
0
LINE
8
BLACK
6
CONTINUOUS
10
3.5664
20
0.211195
11
3.56646
21
0.211132
0
LINE
8
BLACK
6
CONTINUOUS
10
3.56646
20
0.211132
11
3.56654
21
0.211114
0
LINE
8
BLACK
6
CONTINUOUS
10
3.56654
20
0.211114
11
3.56712
21
0.210383
0
LINE
8
BLACK
6
CONTINUOUS
10
3.56712
20
0.210383
11
3.56774
21
0.209684
0
LINE
8
BLACK
6
CONTINUOUS
10
3.56774
20
0.209684
11
3.56775
21
0.209599
0
LINE
8
BLACK
6
CONTINUOUS
10
3.56775
20
0.209599
11
3.5678
21
0.209532
0
LINE
8
BLACK
6
CONTINUOUS
10
3.5678
20
0.209532
11
3.58486
21
0.158351
0
LINE
8
BLACK
6
CONTINUOUS
10
3.58486
20
0.158351
11
3.58501
21
0.157337
0
LINE
8
BLACK
6
CONTINUOUS
10
3.58501
20
0.157337
11
3.58427
21
0.155458
0
LINE
8
BLACK
6
CONTINUOUS
10
3.58427
20
0.155458
11
3.58249
21
0.154497
0
LINE
8
BLACK
6
CONTINUOUS
10
3.58249
20
0.154497
11
3.58051
21
0.154902
0
LINE
8
BLACK
6
CONTINUOUS
10
3.58051
20
0.154902
11
3.57926
21
0.156484
0
LINE
8
BLACK
6
CONTINUOUS
10
3.57926
20
0.156484
11
3.57506
21
0.169088
0
LINE
8
BLACK
6
CONTINUOUS
10
3.57506
20
0.169088
11
3.55494
21
0.169088
0
LINE
8
BLACK
6
CONTINUOUS
10
3.55494
20
0.169088
11
3.55074
21
0.156484
0
LINE
8
BLACK
6
CONTINUOUS
10
3.55074
20
0.156484
11
3.55025
21
0.155582
0
LINE
8
BLACK
6
CONTINUOUS
10
3.55025
20
0.155582
11
3.54853
21
0.154525
0
LINE
8
BLACK
6
CONTINUOUS
10
3.54853
20
0.154525
11
3.54653
21
0.154821
0
LINE
8
BLACK
6
CONTINUOUS
10
3.54653
20
0.154821
11
3.54519
21
0.156332
0
LINE
8
BLACK
6
CONTINUOUS
10
3.54519
20
0.156332
11
3.54514
21
0.158351
0
LINE
8
BLACK
6
CONTINUOUS
10
3.54514
20
0.158351
11
3.5622
21
0.209532
0
LINE
8
BLACK
6
CONTINUOUS
10
3.5622
20
0.209532
11
3.56269
21
0.210434
0
LINE
8
BLACK
6
CONTINUOUS
10
3.56269
20
0.210434
11
3.56276
21
0.210479
0
LINE
8
BLACK
6
CONTINUOUS
10
3.56276
20
0.210479
11
3.56279
21
0.210558
0
LINE
8
BLACK
6
CONTINUOUS
10
3.56279
20
0.210558
11
3.56361
21
0.211002
0
LINE
8
BLACK
6
CONTINUOUS
10
3.56361
20
0.211002
11
3.56441
21
0.211491
0
LINE
8
BLACK
6
CONTINUOUS
10
3.56441
20
0.211491
11
3.56449
21
0.211479
0
LINE
8
BLACK
6
CONTINUOUS
10
3.56449
20
0.211479
11
3.56456
21
0.211519
0
LINE
8
BLACK
6
CONTINUOUS
10
3.56456
20
0.211519
11
3.56548
21
0.211332
0
LINE
8
BLACK
6
CONTINUOUS
10
3.55691
20
0.174993
11
3.57309
21
0.174993
0
LINE
8
BLACK
6
CONTINUOUS
10
3.57309
20
0.174993
11
3.565
21
0.199261
0
LINE
8
BLACK
6
CONTINUOUS
10
3.565
20
0.199261
11
3.55691
21
0.174993
0
LINE
8
BLACK
6
CONTINUOUS
10
3.32473
20
0.211373
11
3.32486
21
0.21126
0
LINE
8
BLACK
6
CONTINUOUS
10
3.32486
20
0.21126
11
3.32504
21
0.21124
0
LINE
8
BLACK
6
CONTINUOUS
10
3.32504
20
0.21124
11
3.32991
21
0.208802
0
LINE
8
BLACK
6
CONTINUOUS
10
3.32991
20
0.208802
11
3.33062
21
0.208277
0
LINE
8
BLACK
6
CONTINUOUS
10
3.33062
20
0.208277
11
3.33068
21
0.208249
0
LINE
8
BLACK
6
CONTINUOUS
10
3.33068
20
0.208249
11
3.33312
21
0.205812
0
LINE
8
BLACK
6
CONTINUOUS
10
3.33312
20
0.205812
11
3.33362
21
0.205089
0
LINE
8
BLACK
6
CONTINUOUS
10
3.33362
20
0.205089
11
3.33367
21
0.205045
0
LINE
8
BLACK
6
CONTINUOUS
10
3.33367
20
0.205045
11
3.33611
21
0.20017
0
LINE
8
BLACK
6
CONTINUOUS
10
3.33611
20
0.20017
11
3.3364
21
0.199187
0
LINE
8
BLACK
6
CONTINUOUS
10
3.3364
20
0.199187
11
3.33636
21
0.199016
0
LINE
8
BLACK
6
CONTINUOUS
10
3.33636
20
0.199016
11
3.33642
21
0.19885
0
LINE
8
BLACK
6
CONTINUOUS
10
3.33642
20
0.19885
11
3.33642
21
0.191538
0
LINE
8
BLACK
6
CONTINUOUS
10
3.33642
20
0.191538
11
3.33624
21
0.190528
0
LINE
8
BLACK
6
CONTINUOUS
10
3.33624
20
0.190528
11
3.33613
21
0.190393
0
LINE
8
BLACK
6
CONTINUOUS
10
3.33613
20
0.190393
11
3.33611
21
0.190218
0
LINE
8
BLACK
6
CONTINUOUS
10
3.33611
20
0.190218
11
3.33367
21
0.185343
0
LINE
8
BLACK
6
CONTINUOUS
10
3.33367
20
0.185343
11
3.33314
21
0.184634
0
LINE
8
BLACK
6
CONTINUOUS
10
3.33314
20
0.184634
11
3.33312
21
0.184576
0
LINE
8
BLACK
6
CONTINUOUS
10
3.33312
20
0.184576
11
3.33068
21
0.182139
0
LINE
8
BLACK
6
CONTINUOUS
10
3.33068
20
0.182139
11
3.32995
21
0.181632
0
LINE
8
BLACK
6
CONTINUOUS
10
3.32995
20
0.181632
11
3.32991
21
0.181586
0
LINE
8
BLACK
6
CONTINUOUS
10
3.32991
20
0.181586
11
3.32504
21
0.179148
0
LINE
8
BLACK
6
CONTINUOUS
10
3.32504
20
0.179148
11
3.32405
21
0.178856
0
LINE
8
BLACK
6
CONTINUOUS
10
3.32405
20
0.178856
11
3.32388
21
0.178897
0
LINE
8
BLACK
6
CONTINUOUS
10
3.32388
20
0.178897
11
3.32372
21
0.178837
0
LINE
8
BLACK
6
CONTINUOUS
10
3.32372
20
0.178837
11
3.30717
21
0.178837
0
LINE
8
BLACK
6
CONTINUOUS
10
3.30717
20
0.178837
11
3.30717
21
0.157418
0
LINE
8
BLACK
6
CONTINUOUS
10
3.30717
20
0.157418
11
3.30699
21
0.156408
0
LINE
8
BLACK
6
CONTINUOUS
10
3.30699
20
0.156408
11
3.30569
21
0.15486
0
LINE
8
BLACK
6
CONTINUOUS
10
3.30569
20
0.15486
11
3.30371
21
0.15451
0
LINE
8
BLACK
6
CONTINUOUS
10
3.30371
20
0.15451
11
3.30196
21
0.15552
0
LINE
8
BLACK
6
CONTINUOUS
10
3.30196
20
0.15552
11
3.30127
21
0.157418
0
LINE
8
BLACK
6
CONTINUOUS
10
3.30127
20
0.157418
11
3.30127
21
0.208599
0
LINE
8
BLACK
6
CONTINUOUS
10
3.30127
20
0.208599
11
3.30133
21
0.208982
0
LINE
8
BLACK
6
CONTINUOUS
10
3.30133
20
0.208982
11
3.30131
21
0.209111
0
LINE
8
BLACK
6
CONTINUOUS
10
3.30131
20
0.209111
11
3.30138
21
0.209225
0
LINE
8
BLACK
6
CONTINUOUS
10
3.30138
20
0.209225
11
3.30144
21
0.209609
0
LINE
8
BLACK
6
CONTINUOUS
10
3.30144
20
0.209609
11
3.30194
21
0.210196
0
LINE
8
BLACK
6
CONTINUOUS
10
3.30194
20
0.210196
11
3.30232
21
0.210861
0
LINE
8
BLACK
6
CONTINUOUS
10
3.30232
20
0.210861
11
3.30257
21
0.210952
0
LINE
8
BLACK
6
CONTINUOUS
10
3.30257
20
0.210952
11
3.30274
21
0.211156
0
LINE
8
BLACK
6
CONTINUOUS
10
3.30274
20
0.211156
11
3.3035
21
0.211289
0
LINE
8
BLACK
6
CONTINUOUS
10
3.3035
20
0.211289
11
3.30422
21
0.211551
0
LINE
8
BLACK
6
CONTINUOUS
10
3.30422
20
0.211551
11
3.32372
21
0.211551
0
LINE
8
BLACK
6
CONTINUOUS
10
3.32372
20
0.211551
11
3.32473
21
0.211373
0
LINE
8
BLACK
6
CONTINUOUS
10
3.30717
20
0.205646
11
3.30717
21
0.184742
0
LINE
8
BLACK
6
CONTINUOUS
10
3.30717
20
0.184742
11
3.32302
21
0.184742
0
LINE
8
BLACK
6
CONTINUOUS
10
3.32302
20
0.184742
11
3.32684
21
0.186653
0
LINE
8
BLACK
6
CONTINUOUS
10
3.32684
20
0.186653
11
3.3286
21
0.188413
0
LINE
8
BLACK
6
CONTINUOUS
10
3.3286
20
0.188413
11
3.33051
21
0.192235
0
LINE
8
BLACK
6
CONTINUOUS
10
3.33051
20
0.192235
11
3.33051
21
0.198153
0
LINE
8
BLACK
6
CONTINUOUS
10
3.33051
20
0.198153
11
3.3286
21
0.201975
0
LINE
8
BLACK
6
CONTINUOUS
10
3.3286
20
0.201975
11
3.32684
21
0.203735
0
LINE
8
BLACK
6
CONTINUOUS
10
3.32684
20
0.203735
11
3.32302
21
0.205646
0
LINE
8
BLACK
6
CONTINUOUS
10
3.32302
20
0.205646
11
3.30717
21
0.205646
0
LINE
8
BLACK
6
CONTINUOUS
10
3.27997
20
0.211438
11
3.28036
21
0.211507
0
LINE
8
BLACK
6
CONTINUOUS
10
3.28036
20
0.211507
11
3.28092
21
0.211184
0
LINE
8
BLACK
6
CONTINUOUS
10
3.28092
20
0.211184
11
3.28154
21
0.211017
0
LINE
8
BLACK
6
CONTINUOUS
10
3.28154
20
0.211017
11
3.28177
21
0.210694
0
LINE
8
BLACK
6
CONTINUOUS
10
3.28177
20
0.210694
11
3.28211
21
0.210497
0
LINE
8
BLACK
6
CONTINUOUS
10
3.28211
20
0.210497
11
3.28233
21
0.209891
0
LINE
8
BLACK
6
CONTINUOUS
10
3.28233
20
0.209891
11
3.2827
21
0.209362
0
LINE
8
BLACK
6
CONTINUOUS
10
3.2827
20
0.209362
11
3.28266
21
0.208969
0
LINE
8
BLACK
6
CONTINUOUS
10
3.28266
20
0.208969
11
3.2828
21
0.208599
0
LINE
8
BLACK
6
CONTINUOUS
10
3.2828
20
0.208599
11
3.2828
21
0.157418
0
LINE
8
BLACK
6
CONTINUOUS
10
3.2828
20
0.157418
11
3.28262
21
0.156408
0
LINE
8
BLACK
6
CONTINUOUS
10
3.28262
20
0.156408
11
3.28132
21
0.15486
0
LINE
8
BLACK
6
CONTINUOUS
10
3.28132
20
0.15486
11
3.27933
21
0.15451
0
LINE
8
BLACK
6
CONTINUOUS
10
3.27933
20
0.15451
11
3.27758
21
0.15552
0
LINE
8
BLACK
6
CONTINUOUS
10
3.27758
20
0.15552
11
3.27689
21
0.157418
0
LINE
8
BLACK
6
CONTINUOUS
10
3.27689
20
0.157418
11
3.27689
21
0.195289
0
LINE
8
BLACK
6
CONTINUOUS
10
3.27689
20
0.195289
11
3.26546
21
0.170792
0
LINE
8
BLACK
6
CONTINUOUS
10
3.26546
20
0.170792
11
3.26524
21
0.170474
0
LINE
8
BLACK
6
CONTINUOUS
10
3.26524
20
0.170474
11
3.26521
21
0.170348
0
LINE
8
BLACK
6
CONTINUOUS
10
3.26521
20
0.170348
11
3.2651
21
0.170272
0
LINE
8
BLACK
6
CONTINUOUS
10
3.2651
20
0.170272
11
3.26487
21
0.169952
0
LINE
8
BLACK
6
CONTINUOUS
10
3.26487
20
0.169952
11
3.26418
21
0.169629
0
LINE
8
BLACK
6
CONTINUOUS
10
3.26418
20
0.169629
11
3.26355
21
0.169189
0
LINE
8
BLACK
6
CONTINUOUS
10
3.26355
20
0.169189
11
3.26328
21
0.169212
0
LINE
8
BLACK
6
CONTINUOUS
10
3.26328
20
0.169212
11
3.26304
21
0.169099
0
LINE
8
BLACK
6
CONTINUOUS
10
3.26304
20
0.169099
11
3.2623
21
0.169298
0
LINE
8
BLACK
6
CONTINUOUS
10
3.2623
20
0.169298
11
3.26154
21
0.169364
0
LINE
8
BLACK
6
CONTINUOUS
10
3.26154
20
0.169364
11
3.26135
21
0.169553
0
LINE
8
BLACK
6
CONTINUOUS
10
3.26135
20
0.169553
11
3.26109
21
0.169622
0
LINE
8
BLACK
6
CONTINUOUS
10
3.26109
20
0.169622
11
3.26065
21
0.17025
0
LINE
8
BLACK
6
CONTINUOUS
10
3.26065
20
0.17025
11
3.26011
21
0.170792
0
LINE
8
BLACK
6
CONTINUOUS
10
3.26011
20
0.170792
11
3.24868
21
0.195289
0
LINE
8
BLACK
6
CONTINUOUS
10
3.24868
20
0.195289
11
3.24868
21
0.157418
0
LINE
8
BLACK
6
CONTINUOUS
10
3.24868
20
0.157418
11
3.2485
21
0.156408
0
LINE
8
BLACK
6
CONTINUOUS
10
3.2485
20
0.156408
11
3.2472
21
0.15486
0
LINE
8
BLACK
6
CONTINUOUS
10
3.2472
20
0.15486
11
3.24521
21
0.15451
0
LINE
8
BLACK
6
CONTINUOUS
10
3.24521
20
0.15451
11
3.24346
21
0.15552
0
LINE
8
BLACK
6
CONTINUOUS
10
3.24346
20
0.15552
11
3.24277
21
0.157418
0
LINE
8
BLACK
6
CONTINUOUS
10
3.24277
20
0.157418
11
3.24277
21
0.208599
0
LINE
8
BLACK
6
CONTINUOUS
10
3.24277
20
0.208599
11
3.24295
21
0.209609
0
LINE
8
BLACK
6
CONTINUOUS
10
3.24295
20
0.209609
11
3.2432
21
0.209911
0
LINE
8
BLACK
6
CONTINUOUS
10
3.2432
20
0.209911
11
3.24331
21
0.210292
0
LINE
8
BLACK
6
CONTINUOUS
10
3.24331
20
0.210292
11
3.24383
21
0.210662
0
LINE
8
BLACK
6
CONTINUOUS
10
3.24383
20
0.210662
11
3.24425
21
0.211156
0
LINE
8
BLACK
6
CONTINUOUS
10
3.24425
20
0.211156
11
3.24464
21
0.211224
0
LINE
8
BLACK
6
CONTINUOUS
10
3.24464
20
0.211224
11
3.24496
21
0.211451
0
LINE
8
BLACK
6
CONTINUOUS
10
3.24496
20
0.211451
11
3.2456
21
0.211395
0
LINE
8
BLACK
6
CONTINUOUS
10
3.2456
20
0.211395
11
3.24624
21
0.211507
0
LINE
8
BLACK
6
CONTINUOUS
10
3.24624
20
0.211507
11
3.24658
21
0.211309
0
LINE
8
BLACK
6
CONTINUOUS
10
3.24658
20
0.211309
11
3.24697
21
0.211275
0
LINE
8
BLACK
6
CONTINUOUS
10
3.24697
20
0.211275
11
3.24743
21
0.210819
0
LINE
8
BLACK
6
CONTINUOUS
10
3.24743
20
0.210819
11
3.24799
21
0.210497
0
LINE
8
BLACK
6
CONTINUOUS
10
3.24799
20
0.210497
11
3.24812
21
0.210126
0
LINE
8
BLACK
6
CONTINUOUS
10
3.24812
20
0.210126
11
3.2484
21
0.209847
0
LINE
8
BLACK
6
CONTINUOUS
10
3.2484
20
0.209847
11
3.26279
21
0.179023
0
LINE
8
BLACK
6
CONTINUOUS
10
3.26279
20
0.179023
11
3.27717
21
0.209847
0
LINE
8
BLACK
6
CONTINUOUS
10
3.27717
20
0.209847
11
3.27776
21
0.210687
0
LINE
8
BLACK
6
CONTINUOUS
10
3.27776
20
0.210687
11
3.27812
21
0.210854
0
LINE
8
BLACK
6
CONTINUOUS
10
3.27812
20
0.210854
11
3.27837
21
0.211156
0
LINE
8
BLACK
6
CONTINUOUS
10
3.27837
20
0.211156
11
3.27901
21
0.211268
0
LINE
8
BLACK
6
CONTINUOUS
10
3.27901
20
0.211268
11
3.27959
21
0.21154
0
LINE
8
BLACK
6
CONTINUOUS
10
3.27959
20
0.21154
11
3.27997
21
0.211438
0
LINE
8
BLACK
6
CONTINUOUS
10
3.37591
20
0.211373
11
3.37604
21
0.21126
0
LINE
8
BLACK
6
CONTINUOUS
10
3.37604
20
0.21126
11
3.37622
21
0.21124
0
LINE
8
BLACK
6
CONTINUOUS
10
3.37622
20
0.21124
11
3.38109
21
0.208802
0
LINE
8
BLACK
6
CONTINUOUS
10
3.38109
20
0.208802
11
3.3818
21
0.208277
0
LINE
8
BLACK
6
CONTINUOUS
10
3.3818
20
0.208277
11
3.38186
21
0.208249
0
LINE
8
BLACK
6
CONTINUOUS
10
3.38186
20
0.208249
11
3.3843
21
0.205812
0
LINE
8
BLACK
6
CONTINUOUS
10
3.3843
20
0.205812
11
3.3848
21
0.205089
0
LINE
8
BLACK
6
CONTINUOUS
10
3.3848
20
0.205089
11
3.38485
21
0.205045
0
LINE
8
BLACK
6
CONTINUOUS
10
3.38485
20
0.205045
11
3.38729
21
0.20017
0
LINE
8
BLACK
6
CONTINUOUS
10
3.38729
20
0.20017
11
3.38758
21
0.199187
0
LINE
8
BLACK
6
CONTINUOUS
10
3.38758
20
0.199187
11
3.38754
21
0.199016
0
LINE
8
BLACK
6
CONTINUOUS
10
3.38754
20
0.199016
11
3.3876
21
0.19885
0
LINE
8
BLACK
6
CONTINUOUS
10
3.3876
20
0.19885
11
3.3876
21
0.191538
0
LINE
8
BLACK
6
CONTINUOUS
10
3.3876
20
0.191538
11
3.38742
21
0.190528
0
LINE
8
BLACK
6
CONTINUOUS
10
3.38742
20
0.190528
11
3.38731
21
0.190393
0
LINE
8
BLACK
6
CONTINUOUS
10
3.38731
20
0.190393
11
3.38729
21
0.190218
0
LINE
8
BLACK
6
CONTINUOUS
10
3.38729
20
0.190218
11
3.38485
21
0.185343
0
LINE
8
BLACK
6
CONTINUOUS
10
3.38485
20
0.185343
11
3.38432
21
0.184634
0
LINE
8
BLACK
6
CONTINUOUS
10
3.38432
20
0.184634
11
3.3843
21
0.184576
0
LINE
8
BLACK
6
CONTINUOUS
10
3.3843
20
0.184576
11
3.38186
21
0.182139
0
LINE
8
BLACK
6
CONTINUOUS
10
3.38186
20
0.182139
11
3.38114
21
0.181632
0
LINE
8
BLACK
6
CONTINUOUS
10
3.38114
20
0.181632
11
3.38109
21
0.181586
0
LINE
8
BLACK
6
CONTINUOUS
10
3.38109
20
0.181586
11
3.37622
21
0.179148
0
LINE
8
BLACK
6
CONTINUOUS
10
3.37622
20
0.179148
11
3.37523
21
0.178856
0
LINE
8
BLACK
6
CONTINUOUS
10
3.37523
20
0.178856
11
3.37506
21
0.178897
0
LINE
8
BLACK
6
CONTINUOUS
10
3.37506
20
0.178897
11
3.3749
21
0.178837
0
LINE
8
BLACK
6
CONTINUOUS
10
3.3749
20
0.178837
11
3.35835
21
0.178837
0
LINE
8
BLACK
6
CONTINUOUS
10
3.35835
20
0.178837
11
3.35835
21
0.157418
0
LINE
8
BLACK
6
CONTINUOUS
10
3.35835
20
0.157418
11
3.35817
21
0.156408
0
LINE
8
BLACK
6
CONTINUOUS
10
3.35817
20
0.156408
11
3.35688
21
0.15486
0
LINE
8
BLACK
6
CONTINUOUS
10
3.35688
20
0.15486
11
3.35489
21
0.15451
0
LINE
8
BLACK
6
CONTINUOUS
10
3.35489
20
0.15451
11
3.35314
21
0.15552
0
LINE
8
BLACK
6
CONTINUOUS
10
3.35314
20
0.15552
11
3.35245
21
0.157418
0
LINE
8
BLACK
6
CONTINUOUS
10
3.35245
20
0.157418
11
3.35245
21
0.208599
0
LINE
8
BLACK
6
CONTINUOUS
10
3.35245
20
0.208599
11
3.35251
21
0.208982
0
LINE
8
BLACK
6
CONTINUOUS
10
3.35251
20
0.208982
11
3.35249
21
0.209111
0
LINE
8
BLACK
6
CONTINUOUS
10
3.35249
20
0.209111
11
3.35256
21
0.209225
0
LINE
8
BLACK
6
CONTINUOUS
10
3.35256
20
0.209225
11
3.35262
21
0.209609
0
LINE
8
BLACK
6
CONTINUOUS
10
3.35262
20
0.209609
11
3.35312
21
0.210196
0
LINE
8
BLACK
6
CONTINUOUS
10
3.35312
20
0.210196
11
3.3535
21
0.210861
0
LINE
8
BLACK
6
CONTINUOUS
10
3.3535
20
0.210861
11
3.35375
21
0.210952
0
LINE
8
BLACK
6
CONTINUOUS
10
3.35375
20
0.210952
11
3.35392
21
0.211156
0
LINE
8
BLACK
6
CONTINUOUS
10
3.35392
20
0.211156
11
3.35468
21
0.211289
0
LINE
8
BLACK
6
CONTINUOUS
10
3.35468
20
0.211289
11
3.3554
21
0.211551
0
LINE
8
BLACK
6
CONTINUOUS
10
3.3554
20
0.211551
11
3.3749
21
0.211551
0
LINE
8
BLACK
6
CONTINUOUS
10
3.3749
20
0.211551
11
3.37591
21
0.211373
0
LINE
8
BLACK
6
CONTINUOUS
10
3.35835
20
0.205646
11
3.35835
21
0.184742
0
LINE
8
BLACK
6
CONTINUOUS
10
3.35835
20
0.184742
11
3.3742
21
0.184742
0
LINE
8
BLACK
6
CONTINUOUS
10
3.3742
20
0.184742
11
3.37802
21
0.186653
0
LINE
8
BLACK
6
CONTINUOUS
10
3.37802
20
0.186653
11
3.37978
21
0.188413
0
LINE
8
BLACK
6
CONTINUOUS
10
3.37978
20
0.188413
11
3.38169
21
0.192235
0
LINE
8
BLACK
6
CONTINUOUS
10
3.38169
20
0.192235
11
3.38169
21
0.198153
0
LINE
8
BLACK
6
CONTINUOUS
10
3.38169
20
0.198153
11
3.37978
21
0.201975
0
LINE
8
BLACK
6
CONTINUOUS
10
3.37978
20
0.201975
11
3.37802
21
0.203735
0
LINE
8
BLACK
6
CONTINUOUS
10
3.37802
20
0.203735
11
3.3742
21
0.205646
0
LINE
8
BLACK
6
CONTINUOUS
10
3.3742
20
0.205646
11
3.35835
21
0.205646
  0
ENDSEC
  0
EOF
