  0
SECTION
  2
HEADER
  9
$ANGBASE
  50
0.0
  9
$ANGDIR
  70
1
  9
$MEASUREMENT
  70
0
  0
ENDSEC
  0
SECTION
  2
TABLES
  0
TABLE
  2
LTYPE
  70
4
  0
LTYPE
  5
40F
  2
CONTINUOUS
  70
0
  3
Solid line
  72
65
  73
0
  40
0.0
  0
LTYPE
  5
410
  2
DASHDOT
 70
0
  3
Dash Dot ____ _ ____ _
 72
65
 73
4
 40
2.0
 49
1.25
 49
-0.25
 49
0.25
 49
-0.25
  0
LTYPE
  5
411
  2
DASHED
 70
0
  3
Dashed __ __ __ __ __
 72
65
 73
2
 40
0.75
 49
0.5
 49
-0.25
  0
LTYPE
  5
43B
  2
DOTTED
 70
0
  3
Dotted .  .  .  .
 72
65
 73
2
 40
0.2
 49
0.0
 49
-0.2
  0
ENDTAB
  0
TABLE
  2
STYLE
  70
4
  0
STYLE
  2
KICAD
  70
0
  40
0
  41
1
  42
1
  50
0
  71
0
  3
isocp.shx
  0
STYLE
  2
KICADB
  70
0
  40
0
  41
1
  42
1
  50
0
  71
0
  3
isocp.shx
  0
STYLE
  2
KICADI
  70
0
  40
0
  41
1
  42
1
  50
15
  71
0
  3
isocp.shx
  0
STYLE
  2
KICADBI
  70
0
  40
0
  41
1
  42
1
  50
15
  71
0
  3
isocp.shx
  0
ENDTAB
  0
TABLE
  2
LAYER
  70
1
  0
LAYER
  2
BLACK
  70
0
  62
7
  6
CONTINUOUS
  0
ENDTAB
  0
ENDSEC
  0
SECTION
  2
ENTITIES
0
LINE
8
BLACK
6
CONTINUOUS
10
0.22051
20
0.316316
11
0.233874
21
0.313148
0
LINE
8
BLACK
6
CONTINUOUS
10
0.233874
20
0.313148
11
0.246781
21
0.308451
0
LINE
8
BLACK
6
CONTINUOUS
10
0.246781
20
0.308451
11
0.259055
21
0.302286
0
LINE
8
BLACK
6
CONTINUOUS
10
0.259055
20
0.302286
11
0.270531
21
0.294739
0
LINE
8
BLACK
6
CONTINUOUS
10
0.270531
20
0.294739
11
0.281052
21
0.28591
0
LINE
8
BLACK
6
CONTINUOUS
10
0.281052
20
0.28591
11
0.290478
21
0.27592
0
LINE
8
BLACK
6
CONTINUOUS
10
0.290478
20
0.27592
11
0.29868
21
0.264903
0
LINE
8
BLACK
6
CONTINUOUS
10
0.29868
20
0.264903
11
0.305547
21
0.253008
0
LINE
8
BLACK
6
CONTINUOUS
10
0.305547
20
0.253008
11
0.310987
21
0.240396
0
LINE
8
BLACK
6
CONTINUOUS
10
0.310987
20
0.240396
11
0.314927
21
0.227238
0
LINE
8
BLACK
6
CONTINUOUS
10
0.314927
20
0.227238
11
0.317312
21
0.213712
0
LINE
8
BLACK
6
CONTINUOUS
10
0.317312
20
0.213712
11
0.31811
21
0.2
0
LINE
8
BLACK
6
CONTINUOUS
10
0.31811
20
0.2
11
0.317312
21
0.186288
0
LINE
8
BLACK
6
CONTINUOUS
10
0.317312
20
0.186288
11
0.314927
21
0.172762
0
LINE
8
BLACK
6
CONTINUOUS
10
0.314927
20
0.172762
11
0.310987
21
0.159604
0
LINE
8
BLACK
6
CONTINUOUS
10
0.310987
20
0.159604
11
0.305547
21
0.146992
0
LINE
8
BLACK
6
CONTINUOUS
10
0.305547
20
0.146992
11
0.29868
21
0.135097
0
LINE
8
BLACK
6
CONTINUOUS
10
0.29868
20
0.135097
11
0.290478
21
0.12408
0
LINE
8
BLACK
6
CONTINUOUS
10
0.290478
20
0.12408
11
0.281052
21
0.11409
0
LINE
8
BLACK
6
CONTINUOUS
10
0.281052
20
0.11409
11
0.270531
21
0.105261
0
LINE
8
BLACK
6
CONTINUOUS
10
0.270531
20
0.105261
11
0.259055
21
0.0977135
0
LINE
8
BLACK
6
CONTINUOUS
10
0.259055
20
0.0977135
11
0.246781
21
0.0915493
0
LINE
8
BLACK
6
CONTINUOUS
10
0.246781
20
0.0915493
11
0.233874
21
0.0868516
0
LINE
8
BLACK
6
CONTINUOUS
10
0.233874
20
0.0868516
11
0.22051
21
0.0836841
0
LINE
8
BLACK
6
CONTINUOUS
10
0.22051
20
0.0836841
11
0.206867
21
0.0820896
0
LINE
8
BLACK
6
CONTINUOUS
10
0.206867
20
0.0820896
11
0.193133
21
0.0820896
0
LINE
8
BLACK
6
CONTINUOUS
10
0.193133
20
0.0820896
11
0.17949
21
0.0836841
0
LINE
8
BLACK
6
CONTINUOUS
10
0.17949
20
0.0836841
11
0.166126
21
0.0868516
0
LINE
8
BLACK
6
CONTINUOUS
10
0.166126
20
0.0868516
11
0.153219
21
0.0915493
0
LINE
8
BLACK
6
CONTINUOUS
10
0.153219
20
0.0915493
11
0.140945
21
0.0977135
0
LINE
8
BLACK
6
CONTINUOUS
10
0.140945
20
0.0977135
11
0.129469
21
0.105261
0
LINE
8
BLACK
6
CONTINUOUS
10
0.129469
20
0.105261
11
0.118948
21
0.11409
0
LINE
8
BLACK
6
CONTINUOUS
10
0.118948
20
0.11409
11
0.109522
21
0.12408
0
LINE
8
BLACK
6
CONTINUOUS
10
0.109522
20
0.12408
11
0.10132
21
0.135097
0
LINE
8
BLACK
6
CONTINUOUS
10
0.10132
20
0.135097
11
0.0944528
21
0.146992
0
LINE
8
BLACK
6
CONTINUOUS
10
0.0944528
20
0.146992
11
0.0890127
21
0.159604
0
LINE
8
BLACK
6
CONTINUOUS
10
0.0890127
20
0.159604
11
0.0850734
21
0.172762
0
LINE
8
BLACK
6
CONTINUOUS
10
0.0850734
20
0.172762
11
0.0826884
21
0.186288
0
LINE
8
BLACK
6
CONTINUOUS
10
0.0826884
20
0.186288
11
0.0818898
21
0.2
0
LINE
8
BLACK
6
CONTINUOUS
10
0.0818898
20
0.2
11
0.0826884
21
0.213712
0
LINE
8
BLACK
6
CONTINUOUS
10
0.0826884
20
0.213712
11
0.0850734
21
0.227238
0
LINE
8
BLACK
6
CONTINUOUS
10
0.0850734
20
0.227238
11
0.0890127
21
0.240396
0
LINE
8
BLACK
6
CONTINUOUS
10
0.0890127
20
0.240396
11
0.0944528
21
0.253008
0
LINE
8
BLACK
6
CONTINUOUS
10
0.0944528
20
0.253008
11
0.10132
21
0.264903
0
LINE
8
BLACK
6
CONTINUOUS
10
0.10132
20
0.264903
11
0.109522
21
0.27592
0
LINE
8
BLACK
6
CONTINUOUS
10
0.109522
20
0.27592
11
0.118948
21
0.28591
0
LINE
8
BLACK
6
CONTINUOUS
10
0.118948
20
0.28591
11
0.129469
21
0.294739
0
LINE
8
BLACK
6
CONTINUOUS
10
0.129469
20
0.294739
11
0.140945
21
0.302286
0
LINE
8
BLACK
6
CONTINUOUS
10
0.140945
20
0.302286
11
0.153219
21
0.308451
0
LINE
8
BLACK
6
CONTINUOUS
10
0.153219
20
0.308451
11
0.166126
21
0.313148
0
LINE
8
BLACK
6
CONTINUOUS
10
0.166126
20
0.313148
11
0.17949
21
0.316316
0
LINE
8
BLACK
6
CONTINUOUS
10
0.17949
20
0.316316
11
0.193133
21
0.31791
0
LINE
8
BLACK
6
CONTINUOUS
10
0.193133
20
0.31791
11
0.206867
21
0.31791
0
LINE
8
BLACK
6
CONTINUOUS
10
0.206867
20
0.31791
11
0.22051
21
0.316316
0
LINE
8
BLACK
6
CONTINUOUS
10
3.83051
20
0.316316
11
3.84387
21
0.313148
0
LINE
8
BLACK
6
CONTINUOUS
10
3.84387
20
0.313148
11
3.85678
21
0.308451
0
LINE
8
BLACK
6
CONTINUOUS
10
3.85678
20
0.308451
11
3.86906
21
0.302286
0
LINE
8
BLACK
6
CONTINUOUS
10
3.86906
20
0.302286
11
3.88053
21
0.294739
0
LINE
8
BLACK
6
CONTINUOUS
10
3.88053
20
0.294739
11
3.89105
21
0.28591
0
LINE
8
BLACK
6
CONTINUOUS
10
3.89105
20
0.28591
11
3.90048
21
0.27592
0
LINE
8
BLACK
6
CONTINUOUS
10
3.90048
20
0.27592
11
3.90868
21
0.264903
0
LINE
8
BLACK
6
CONTINUOUS
10
3.90868
20
0.264903
11
3.91555
21
0.253008
0
LINE
8
BLACK
6
CONTINUOUS
10
3.91555
20
0.253008
11
3.92099
21
0.240396
0
LINE
8
BLACK
6
CONTINUOUS
10
3.92099
20
0.240396
11
3.92493
21
0.227238
0
LINE
8
BLACK
6
CONTINUOUS
10
3.92493
20
0.227238
11
3.92731
21
0.213712
0
LINE
8
BLACK
6
CONTINUOUS
10
3.92731
20
0.213712
11
3.92811
21
0.2
0
LINE
8
BLACK
6
CONTINUOUS
10
3.92811
20
0.2
11
3.92731
21
0.186288
0
LINE
8
BLACK
6
CONTINUOUS
10
3.92731
20
0.186288
11
3.92493
21
0.172762
0
LINE
8
BLACK
6
CONTINUOUS
10
3.92493
20
0.172762
11
3.92099
21
0.159604
0
LINE
8
BLACK
6
CONTINUOUS
10
3.92099
20
0.159604
11
3.91555
21
0.146992
0
LINE
8
BLACK
6
CONTINUOUS
10
3.91555
20
0.146992
11
3.90868
21
0.135097
0
LINE
8
BLACK
6
CONTINUOUS
10
3.90868
20
0.135097
11
3.90048
21
0.12408
0
LINE
8
BLACK
6
CONTINUOUS
10
3.90048
20
0.12408
11
3.89105
21
0.11409
0
LINE
8
BLACK
6
CONTINUOUS
10
3.89105
20
0.11409
11
3.88053
21
0.105261
0
LINE
8
BLACK
6
CONTINUOUS
10
3.88053
20
0.105261
11
3.86906
21
0.0977135
0
LINE
8
BLACK
6
CONTINUOUS
10
3.86906
20
0.0977135
11
3.85678
21
0.0915493
0
LINE
8
BLACK
6
CONTINUOUS
10
3.85678
20
0.0915493
11
3.84387
21
0.0868516
0
LINE
8
BLACK
6
CONTINUOUS
10
3.84387
20
0.0868516
11
3.83051
21
0.0836841
0
LINE
8
BLACK
6
CONTINUOUS
10
3.83051
20
0.0836841
11
3.81687
21
0.0820896
0
LINE
8
BLACK
6
CONTINUOUS
10
3.81687
20
0.0820896
11
3.80313
21
0.0820896
0
LINE
8
BLACK
6
CONTINUOUS
10
3.80313
20
0.0820896
11
3.78949
21
0.0836841
0
LINE
8
BLACK
6
CONTINUOUS
10
3.78949
20
0.0836841
11
3.77613
21
0.0868516
0
LINE
8
BLACK
6
CONTINUOUS
10
3.77613
20
0.0868516
11
3.76322
21
0.0915493
0
LINE
8
BLACK
6
CONTINUOUS
10
3.76322
20
0.0915493
11
3.75094
21
0.0977135
0
LINE
8
BLACK
6
CONTINUOUS
10
3.75094
20
0.0977135
11
3.73947
21
0.105261
0
LINE
8
BLACK
6
CONTINUOUS
10
3.73947
20
0.105261
11
3.72895
21
0.11409
0
LINE
8
BLACK
6
CONTINUOUS
10
3.72895
20
0.11409
11
3.71952
21
0.12408
0
LINE
8
BLACK
6
CONTINUOUS
10
3.71952
20
0.12408
11
3.71132
21
0.135097
0
LINE
8
BLACK
6
CONTINUOUS
10
3.71132
20
0.135097
11
3.70445
21
0.146992
0
LINE
8
BLACK
6
CONTINUOUS
10
3.70445
20
0.146992
11
3.69901
21
0.159604
0
LINE
8
BLACK
6
CONTINUOUS
10
3.69901
20
0.159604
11
3.69507
21
0.172762
0
LINE
8
BLACK
6
CONTINUOUS
10
3.69507
20
0.172762
11
3.69269
21
0.186288
0
LINE
8
BLACK
6
CONTINUOUS
10
3.69269
20
0.186288
11
3.69189
21
0.2
0
LINE
8
BLACK
6
CONTINUOUS
10
3.69189
20
0.2
11
3.69269
21
0.213712
0
LINE
8
BLACK
6
CONTINUOUS
10
3.69269
20
0.213712
11
3.69507
21
0.227238
0
LINE
8
BLACK
6
CONTINUOUS
10
3.69507
20
0.227238
11
3.69901
21
0.240396
0
LINE
8
BLACK
6
CONTINUOUS
10
3.69901
20
0.240396
11
3.70445
21
0.253008
0
LINE
8
BLACK
6
CONTINUOUS
10
3.70445
20
0.253008
11
3.71132
21
0.264903
0
LINE
8
BLACK
6
CONTINUOUS
10
3.71132
20
0.264903
11
3.71952
21
0.27592
0
LINE
8
BLACK
6
CONTINUOUS
10
3.71952
20
0.27592
11
3.72895
21
0.28591
0
LINE
8
BLACK
6
CONTINUOUS
10
3.72895
20
0.28591
11
3.73947
21
0.294739
0
LINE
8
BLACK
6
CONTINUOUS
10
3.73947
20
0.294739
11
3.75094
21
0.302286
0
LINE
8
BLACK
6
CONTINUOUS
10
3.75094
20
0.302286
11
3.76322
21
0.308451
0
LINE
8
BLACK
6
CONTINUOUS
10
3.76322
20
0.308451
11
3.77613
21
0.313148
0
LINE
8
BLACK
6
CONTINUOUS
10
3.77613
20
0.313148
11
3.78949
21
0.316316
0
LINE
8
BLACK
6
CONTINUOUS
10
3.78949
20
0.316316
11
3.80313
21
0.31791
0
LINE
8
BLACK
6
CONTINUOUS
10
3.80313
20
0.31791
11
3.81687
21
0.31791
0
LINE
8
BLACK
6
CONTINUOUS
10
3.81687
20
0.31791
11
3.83051
21
0.316316
0
LINE
8
BLACK
6
CONTINUOUS
10
0.22051
20
3.91632
11
0.233874
21
3.91315
0
LINE
8
BLACK
6
CONTINUOUS
10
0.233874
20
3.91315
11
0.246781
21
3.90845
0
LINE
8
BLACK
6
CONTINUOUS
10
0.246781
20
3.90845
11
0.259055
21
3.90229
0
LINE
8
BLACK
6
CONTINUOUS
10
0.259055
20
3.90229
11
0.270531
21
3.89474
0
LINE
8
BLACK
6
CONTINUOUS
10
0.270531
20
3.89474
11
0.281052
21
3.88591
0
LINE
8
BLACK
6
CONTINUOUS
10
0.281052
20
3.88591
11
0.290478
21
3.87592
0
LINE
8
BLACK
6
CONTINUOUS
10
0.290478
20
3.87592
11
0.29868
21
3.8649
0
LINE
8
BLACK
6
CONTINUOUS
10
0.29868
20
3.8649
11
0.305547
21
3.85301
0
LINE
8
BLACK
6
CONTINUOUS
10
0.305547
20
3.85301
11
0.310987
21
3.8404
0
LINE
8
BLACK
6
CONTINUOUS
10
0.310987
20
3.8404
11
0.314927
21
3.82724
0
LINE
8
BLACK
6
CONTINUOUS
10
0.314927
20
3.82724
11
0.317312
21
3.81371
0
LINE
8
BLACK
6
CONTINUOUS
10
0.317312
20
3.81371
11
0.31811
21
3.8
0
LINE
8
BLACK
6
CONTINUOUS
10
0.31811
20
3.8
11
0.317312
21
3.78629
0
LINE
8
BLACK
6
CONTINUOUS
10
0.317312
20
3.78629
11
0.314927
21
3.77276
0
LINE
8
BLACK
6
CONTINUOUS
10
0.314927
20
3.77276
11
0.310987
21
3.7596
0
LINE
8
BLACK
6
CONTINUOUS
10
0.310987
20
3.7596
11
0.305547
21
3.74699
0
LINE
8
BLACK
6
CONTINUOUS
10
0.305547
20
3.74699
11
0.29868
21
3.7351
0
LINE
8
BLACK
6
CONTINUOUS
10
0.29868
20
3.7351
11
0.290478
21
3.72408
0
LINE
8
BLACK
6
CONTINUOUS
10
0.290478
20
3.72408
11
0.281052
21
3.71409
0
LINE
8
BLACK
6
CONTINUOUS
10
0.281052
20
3.71409
11
0.270531
21
3.70526
0
LINE
8
BLACK
6
CONTINUOUS
10
0.270531
20
3.70526
11
0.259055
21
3.69771
0
LINE
8
BLACK
6
CONTINUOUS
10
0.259055
20
3.69771
11
0.246781
21
3.69155
0
LINE
8
BLACK
6
CONTINUOUS
10
0.246781
20
3.69155
11
0.233874
21
3.68685
0
LINE
8
BLACK
6
CONTINUOUS
10
0.233874
20
3.68685
11
0.22051
21
3.68368
0
LINE
8
BLACK
6
CONTINUOUS
10
0.22051
20
3.68368
11
0.206867
21
3.68209
0
LINE
8
BLACK
6
CONTINUOUS
10
0.206867
20
3.68209
11
0.193133
21
3.68209
0
LINE
8
BLACK
6
CONTINUOUS
10
0.193133
20
3.68209
11
0.17949
21
3.68368
0
LINE
8
BLACK
6
CONTINUOUS
10
0.17949
20
3.68368
11
0.166126
21
3.68685
0
LINE
8
BLACK
6
CONTINUOUS
10
0.166126
20
3.68685
11
0.153219
21
3.69155
0
LINE
8
BLACK
6
CONTINUOUS
10
0.153219
20
3.69155
11
0.140945
21
3.69771
0
LINE
8
BLACK
6
CONTINUOUS
10
0.140945
20
3.69771
11
0.129469
21
3.70526
0
LINE
8
BLACK
6
CONTINUOUS
10
0.129469
20
3.70526
11
0.118948
21
3.71409
0
LINE
8
BLACK
6
CONTINUOUS
10
0.118948
20
3.71409
11
0.109522
21
3.72408
0
LINE
8
BLACK
6
CONTINUOUS
10
0.109522
20
3.72408
11
0.10132
21
3.7351
0
LINE
8
BLACK
6
CONTINUOUS
10
0.10132
20
3.7351
11
0.0944528
21
3.74699
0
LINE
8
BLACK
6
CONTINUOUS
10
0.0944528
20
3.74699
11
0.0890127
21
3.7596
0
LINE
8
BLACK
6
CONTINUOUS
10
0.0890127
20
3.7596
11
0.0850734
21
3.77276
0
LINE
8
BLACK
6
CONTINUOUS
10
0.0850734
20
3.77276
11
0.0826884
21
3.78629
0
LINE
8
BLACK
6
CONTINUOUS
10
0.0826884
20
3.78629
11
0.0818898
21
3.8
0
LINE
8
BLACK
6
CONTINUOUS
10
0.0818898
20
3.8
11
0.0826884
21
3.81371
0
LINE
8
BLACK
6
CONTINUOUS
10
0.0826884
20
3.81371
11
0.0850734
21
3.82724
0
LINE
8
BLACK
6
CONTINUOUS
10
0.0850734
20
3.82724
11
0.0890127
21
3.8404
0
LINE
8
BLACK
6
CONTINUOUS
10
0.0890127
20
3.8404
11
0.0944528
21
3.85301
0
LINE
8
BLACK
6
CONTINUOUS
10
0.0944528
20
3.85301
11
0.10132
21
3.8649
0
LINE
8
BLACK
6
CONTINUOUS
10
0.10132
20
3.8649
11
0.109522
21
3.87592
0
LINE
8
BLACK
6
CONTINUOUS
10
0.109522
20
3.87592
11
0.118948
21
3.88591
0
LINE
8
BLACK
6
CONTINUOUS
10
0.118948
20
3.88591
11
0.129469
21
3.89474
0
LINE
8
BLACK
6
CONTINUOUS
10
0.129469
20
3.89474
11
0.140945
21
3.90229
0
LINE
8
BLACK
6
CONTINUOUS
10
0.140945
20
3.90229
11
0.153219
21
3.90845
0
LINE
8
BLACK
6
CONTINUOUS
10
0.153219
20
3.90845
11
0.166126
21
3.91315
0
LINE
8
BLACK
6
CONTINUOUS
10
0.166126
20
3.91315
11
0.17949
21
3.91632
0
LINE
8
BLACK
6
CONTINUOUS
10
0.17949
20
3.91632
11
0.193133
21
3.91791
0
LINE
8
BLACK
6
CONTINUOUS
10
0.193133
20
3.91791
11
0.206867
21
3.91791
0
LINE
8
BLACK
6
CONTINUOUS
10
0.206867
20
3.91791
11
0.22051
21
3.91632
0
LINE
8
BLACK
6
CONTINUOUS
10
3.82051
20
3.91632
11
3.83387
21
3.91315
0
LINE
8
BLACK
6
CONTINUOUS
10
3.83387
20
3.91315
11
3.84678
21
3.90845
0
LINE
8
BLACK
6
CONTINUOUS
10
3.84678
20
3.90845
11
3.85906
21
3.90229
0
LINE
8
BLACK
6
CONTINUOUS
10
3.85906
20
3.90229
11
3.87053
21
3.89474
0
LINE
8
BLACK
6
CONTINUOUS
10
3.87053
20
3.89474
11
3.88105
21
3.88591
0
LINE
8
BLACK
6
CONTINUOUS
10
3.88105
20
3.88591
11
3.89048
21
3.87592
0
LINE
8
BLACK
6
CONTINUOUS
10
3.89048
20
3.87592
11
3.89868
21
3.8649
0
LINE
8
BLACK
6
CONTINUOUS
10
3.89868
20
3.8649
11
3.90555
21
3.85301
0
LINE
8
BLACK
6
CONTINUOUS
10
3.90555
20
3.85301
11
3.91099
21
3.8404
0
LINE
8
BLACK
6
CONTINUOUS
10
3.91099
20
3.8404
11
3.91493
21
3.82724
0
LINE
8
BLACK
6
CONTINUOUS
10
3.91493
20
3.82724
11
3.91731
21
3.81371
0
LINE
8
BLACK
6
CONTINUOUS
10
3.91731
20
3.81371
11
3.91811
21
3.8
0
LINE
8
BLACK
6
CONTINUOUS
10
3.91811
20
3.8
11
3.91731
21
3.78629
0
LINE
8
BLACK
6
CONTINUOUS
10
3.91731
20
3.78629
11
3.91493
21
3.77276
0
LINE
8
BLACK
6
CONTINUOUS
10
3.91493
20
3.77276
11
3.91099
21
3.7596
0
LINE
8
BLACK
6
CONTINUOUS
10
3.91099
20
3.7596
11
3.90555
21
3.74699
0
LINE
8
BLACK
6
CONTINUOUS
10
3.90555
20
3.74699
11
3.89868
21
3.7351
0
LINE
8
BLACK
6
CONTINUOUS
10
3.89868
20
3.7351
11
3.89048
21
3.72408
0
LINE
8
BLACK
6
CONTINUOUS
10
3.89048
20
3.72408
11
3.88105
21
3.71409
0
LINE
8
BLACK
6
CONTINUOUS
10
3.88105
20
3.71409
11
3.87053
21
3.70526
0
LINE
8
BLACK
6
CONTINUOUS
10
3.87053
20
3.70526
11
3.85906
21
3.69771
0
LINE
8
BLACK
6
CONTINUOUS
10
3.85906
20
3.69771
11
3.84678
21
3.69155
0
LINE
8
BLACK
6
CONTINUOUS
10
3.84678
20
3.69155
11
3.83387
21
3.68685
0
LINE
8
BLACK
6
CONTINUOUS
10
3.83387
20
3.68685
11
3.82051
21
3.68368
0
LINE
8
BLACK
6
CONTINUOUS
10
3.82051
20
3.68368
11
3.80687
21
3.68209
0
LINE
8
BLACK
6
CONTINUOUS
10
3.80687
20
3.68209
11
3.79313
21
3.68209
0
LINE
8
BLACK
6
CONTINUOUS
10
3.79313
20
3.68209
11
3.77949
21
3.68368
0
LINE
8
BLACK
6
CONTINUOUS
10
3.77949
20
3.68368
11
3.76613
21
3.68685
0
LINE
8
BLACK
6
CONTINUOUS
10
3.76613
20
3.68685
11
3.75322
21
3.69155
0
LINE
8
BLACK
6
CONTINUOUS
10
3.75322
20
3.69155
11
3.74094
21
3.69771
0
LINE
8
BLACK
6
CONTINUOUS
10
3.74094
20
3.69771
11
3.72947
21
3.70526
0
LINE
8
BLACK
6
CONTINUOUS
10
3.72947
20
3.70526
11
3.71895
21
3.71409
0
LINE
8
BLACK
6
CONTINUOUS
10
3.71895
20
3.71409
11
3.70952
21
3.72408
0
LINE
8
BLACK
6
CONTINUOUS
10
3.70952
20
3.72408
11
3.70132
21
3.7351
0
LINE
8
BLACK
6
CONTINUOUS
10
3.70132
20
3.7351
11
3.69445
21
3.74699
0
LINE
8
BLACK
6
CONTINUOUS
10
3.69445
20
3.74699
11
3.68901
21
3.7596
0
LINE
8
BLACK
6
CONTINUOUS
10
3.68901
20
3.7596
11
3.68507
21
3.77276
0
LINE
8
BLACK
6
CONTINUOUS
10
3.68507
20
3.77276
11
3.68269
21
3.78629
0
LINE
8
BLACK
6
CONTINUOUS
10
3.68269
20
3.78629
11
3.68189
21
3.8
0
LINE
8
BLACK
6
CONTINUOUS
10
3.68189
20
3.8
11
3.68269
21
3.81371
0
LINE
8
BLACK
6
CONTINUOUS
10
3.68269
20
3.81371
11
3.68507
21
3.82724
0
LINE
8
BLACK
6
CONTINUOUS
10
3.68507
20
3.82724
11
3.68901
21
3.8404
0
LINE
8
BLACK
6
CONTINUOUS
10
3.68901
20
3.8404
11
3.69445
21
3.85301
0
LINE
8
BLACK
6
CONTINUOUS
10
3.69445
20
3.85301
11
3.70132
21
3.8649
0
LINE
8
BLACK
6
CONTINUOUS
10
3.70132
20
3.8649
11
3.70952
21
3.87592
0
LINE
8
BLACK
6
CONTINUOUS
10
3.70952
20
3.87592
11
3.71895
21
3.88591
0
LINE
8
BLACK
6
CONTINUOUS
10
3.71895
20
3.88591
11
3.72947
21
3.89474
0
LINE
8
BLACK
6
CONTINUOUS
10
3.72947
20
3.89474
11
3.74094
21
3.90229
0
LINE
8
BLACK
6
CONTINUOUS
10
3.74094
20
3.90229
11
3.75322
21
3.90845
0
LINE
8
BLACK
6
CONTINUOUS
10
3.75322
20
3.90845
11
3.76613
21
3.91315
0
LINE
8
BLACK
6
CONTINUOUS
10
3.76613
20
3.91315
11
3.77949
21
3.91632
0
LINE
8
BLACK
6
CONTINUOUS
10
3.77949
20
3.91632
11
3.79313
21
3.91791
0
LINE
8
BLACK
6
CONTINUOUS
10
3.79313
20
3.91791
11
3.80687
21
3.91791
0
LINE
8
BLACK
6
CONTINUOUS
10
3.80687
20
3.91791
11
3.82051
21
3.91632
  0
ENDSEC
  0
EOF
