  0
SECTION
  2
HEADER
  9
$ANGBASE
  50
0.0
  9
$ANGDIR
  70
1
  9
$MEASUREMENT
  70
0
  0
ENDSEC
  0
SECTION
  2
TABLES
  0
TABLE
  2
LTYPE
  70
4
  0
LTYPE
  5
40F
  2
CONTINUOUS
  70
0
  3
Solid line
  72
65
  73
0
  40
0.0
  0
LTYPE
  5
410
  2
DASHDOT
 70
0
  3
Dash Dot ____ _ ____ _
 72
65
 73
4
 40
2.0
 49
1.25
 49
-0.25
 49
0.25
 49
-0.25
  0
LTYPE
  5
411
  2
DASHED
 70
0
  3
Dashed __ __ __ __ __
 72
65
 73
2
 40
0.75
 49
0.5
 49
-0.25
  0
LTYPE
  5
43B
  2
DOTTED
 70
0
  3
Dotted .  .  .  .
 72
65
 73
2
 40
0.2
 49
0.0
 49
-0.2
  0
ENDTAB
  0
TABLE
  2
STYLE
  70
4
  0
STYLE
  2
KICAD
  70
0
  40
0
  41
1
  42
1
  50
0
  71
0
  3
isocp.shx
  0
STYLE
  2
KICADB
  70
0
  40
0
  41
1
  42
1
  50
0
  71
0
  3
isocp.shx
  0
STYLE
  2
KICADI
  70
0
  40
0
  41
1
  42
1
  50
15
  71
0
  3
isocp.shx
  0
STYLE
  2
KICADBI
  70
0
  40
0
  41
1
  42
1
  50
15
  71
0
  3
isocp.shx
  0
ENDTAB
  0
TABLE
  2
LAYER
  70
1
  0
LAYER
  2
BLACK
  70
0
  62
7
  6
CONTINUOUS
  0
ENDTAB
  0
ENDSEC
  0
SECTION
  2
ENTITIES
0
LINE
8
BLACK
6
CONTINUOUS
10
2.27969
20
-0.281084
11
2.28124
21
-0.282382
0
LINE
8
BLACK
6
CONTINUOUS
10
2.28124
20
-0.282382
11
2.28159
21
-0.284371
0
LINE
8
BLACK
6
CONTINUOUS
10
2.28159
20
-0.284371
11
2.28058
21
-0.28612
0
LINE
8
BLACK
6
CONTINUOUS
10
2.28058
20
-0.28612
11
2.27868
21
-0.286811
0
LINE
8
BLACK
6
CONTINUOUS
10
2.27868
20
-0.286811
11
2.2507
21
-0.286811
0
LINE
8
BLACK
6
CONTINUOUS
10
2.2507
20
-0.286811
11
2.2507
21
-0.314651
0
LINE
8
BLACK
6
CONTINUOUS
10
2.2507
20
-0.314651
11
2.27868
21
-0.314651
0
LINE
8
BLACK
6
CONTINUOUS
10
2.27868
20
-0.314651
11
2.27969
21
-0.314829
0
LINE
8
BLACK
6
CONTINUOUS
10
2.27969
20
-0.314829
11
2.28124
21
-0.316128
0
LINE
8
BLACK
6
CONTINUOUS
10
2.28124
20
-0.316128
11
2.28159
21
-0.318117
0
LINE
8
BLACK
6
CONTINUOUS
10
2.28159
20
-0.318117
11
2.28058
21
-0.319866
0
LINE
8
BLACK
6
CONTINUOUS
10
2.28058
20
-0.319866
11
2.27868
21
-0.320557
0
LINE
8
BLACK
6
CONTINUOUS
10
2.27868
20
-0.320557
11
2.21963
21
-0.320557
0
LINE
8
BLACK
6
CONTINUOUS
10
2.21963
20
-0.320557
11
2.21862
21
-0.320379
0
LINE
8
BLACK
6
CONTINUOUS
10
2.21862
20
-0.320379
11
2.21707
21
-0.31908
0
LINE
8
BLACK
6
CONTINUOUS
10
2.21707
20
-0.31908
11
2.21672
21
-0.317091
0
LINE
8
BLACK
6
CONTINUOUS
10
2.21672
20
-0.317091
11
2.21773
21
-0.315342
0
LINE
8
BLACK
6
CONTINUOUS
10
2.21773
20
-0.315342
11
2.21963
21
-0.314651
0
LINE
8
BLACK
6
CONTINUOUS
10
2.21963
20
-0.314651
11
2.2448
21
-0.314651
0
LINE
8
BLACK
6
CONTINUOUS
10
2.2448
20
-0.314651
11
2.2448
21
-0.286811
0
LINE
8
BLACK
6
CONTINUOUS
10
2.2448
20
-0.286811
11
2.21963
21
-0.286811
0
LINE
8
BLACK
6
CONTINUOUS
10
2.21963
20
-0.286811
11
2.21862
21
-0.286633
0
LINE
8
BLACK
6
CONTINUOUS
10
2.21862
20
-0.286633
11
2.21707
21
-0.285335
0
LINE
8
BLACK
6
CONTINUOUS
10
2.21707
20
-0.285335
11
2.21672
21
-0.283346
0
LINE
8
BLACK
6
CONTINUOUS
10
2.21672
20
-0.283346
11
2.21773
21
-0.281596
0
LINE
8
BLACK
6
CONTINUOUS
10
2.21773
20
-0.281596
11
2.21963
21
-0.280906
0
LINE
8
BLACK
6
CONTINUOUS
10
2.21963
20
-0.280906
11
2.27868
21
-0.280906
0
LINE
8
BLACK
6
CONTINUOUS
10
2.27868
20
-0.280906
11
2.27969
21
-0.281084
0
LINE
8
BLACK
6
CONTINUOUS
10
2.28095
20
-0.225717
11
2.28164
21
-0.227615
0
LINE
8
BLACK
6
CONTINUOUS
10
2.28164
20
-0.227615
11
2.28164
21
-0.255737
0
LINE
8
BLACK
6
CONTINUOUS
10
2.28164
20
-0.255737
11
2.28157
21
-0.25612
0
LINE
8
BLACK
6
CONTINUOUS
10
2.28157
20
-0.25612
11
2.28159
21
-0.25625
0
LINE
8
BLACK
6
CONTINUOUS
10
2.28159
20
-0.25625
11
2.28153
21
-0.256363
0
LINE
8
BLACK
6
CONTINUOUS
10
2.28153
20
-0.256363
11
2.28146
21
-0.256747
0
LINE
8
BLACK
6
CONTINUOUS
10
2.28146
20
-0.256747
11
2.28097
21
-0.257334
0
LINE
8
BLACK
6
CONTINUOUS
10
2.28097
20
-0.257334
11
2.28058
21
-0.257999
0
LINE
8
BLACK
6
CONTINUOUS
10
2.28058
20
-0.257999
11
2.28033
21
-0.25809
0
LINE
8
BLACK
6
CONTINUOUS
10
2.28033
20
-0.25809
11
2.28016
21
-0.258294
0
LINE
8
BLACK
6
CONTINUOUS
10
2.28016
20
-0.258294
11
2.2794
21
-0.258427
0
LINE
8
BLACK
6
CONTINUOUS
10
2.2794
20
-0.258427
11
2.27868
21
-0.25869
0
LINE
8
BLACK
6
CONTINUOUS
10
2.27868
20
-0.25869
11
2.21963
21
-0.25869
0
LINE
8
BLACK
6
CONTINUOUS
10
2.21963
20
-0.25869
11
2.21925
21
-0.258622
0
LINE
8
BLACK
6
CONTINUOUS
10
2.21925
20
-0.258622
11
2.21912
21
-0.258645
0
LINE
8
BLACK
6
CONTINUOUS
10
2.21912
20
-0.258645
11
2.219
21
-0.258579
0
LINE
8
BLACK
6
CONTINUOUS
10
2.219
20
-0.258579
11
2.21862
21
-0.258511
0
LINE
8
BLACK
6
CONTINUOUS
10
2.21862
20
-0.258511
11
2.21803
21
-0.258018
0
LINE
8
BLACK
6
CONTINUOUS
10
2.21803
20
-0.258018
11
2.21737
21
-0.257635
0
LINE
8
BLACK
6
CONTINUOUS
10
2.21737
20
-0.257635
11
2.21728
21
-0.257384
0
LINE
8
BLACK
6
CONTINUOUS
10
2.21728
20
-0.257384
11
2.21707
21
-0.257213
0
LINE
8
BLACK
6
CONTINUOUS
10
2.21707
20
-0.257213
11
2.21694
21
-0.256458
0
LINE
8
BLACK
6
CONTINUOUS
10
2.21694
20
-0.256458
11
2.21668
21
-0.255737
0
LINE
8
BLACK
6
CONTINUOUS
10
2.21668
20
-0.255737
11
2.21668
21
-0.227615
0
LINE
8
BLACK
6
CONTINUOUS
10
2.21668
20
-0.227615
11
2.21685
21
-0.226605
0
LINE
8
BLACK
6
CONTINUOUS
10
2.21685
20
-0.226605
11
2.21815
21
-0.225058
0
LINE
8
BLACK
6
CONTINUOUS
10
2.21815
20
-0.225058
11
2.22014
21
-0.224707
0
LINE
8
BLACK
6
CONTINUOUS
10
2.22014
20
-0.224707
11
2.22189
21
-0.225717
0
LINE
8
BLACK
6
CONTINUOUS
10
2.22189
20
-0.225717
11
2.22258
21
-0.227615
0
LINE
8
BLACK
6
CONTINUOUS
10
2.22258
20
-0.227615
11
2.22258
21
-0.252784
0
LINE
8
BLACK
6
CONTINUOUS
10
2.22258
20
-0.252784
11
2.2448
21
-0.252784
0
LINE
8
BLACK
6
CONTINUOUS
10
2.2448
20
-0.252784
11
2.2448
21
-0.236052
0
LINE
8
BLACK
6
CONTINUOUS
10
2.2448
20
-0.236052
11
2.24498
21
-0.235042
0
LINE
8
BLACK
6
CONTINUOUS
10
2.24498
20
-0.235042
11
2.24627
21
-0.233495
0
LINE
8
BLACK
6
CONTINUOUS
10
2.24627
20
-0.233495
11
2.24826
21
-0.233144
0
LINE
8
BLACK
6
CONTINUOUS
10
2.24826
20
-0.233144
11
2.25001
21
-0.234154
0
LINE
8
BLACK
6
CONTINUOUS
10
2.25001
20
-0.234154
11
2.2507
21
-0.236052
0
LINE
8
BLACK
6
CONTINUOUS
10
2.2507
20
-0.236052
11
2.2507
21
-0.252784
0
LINE
8
BLACK
6
CONTINUOUS
10
2.2507
20
-0.252784
11
2.27573
21
-0.252784
0
LINE
8
BLACK
6
CONTINUOUS
10
2.27573
20
-0.252784
11
2.27573
21
-0.227615
0
LINE
8
BLACK
6
CONTINUOUS
10
2.27573
20
-0.227615
11
2.27591
21
-0.226605
0
LINE
8
BLACK
6
CONTINUOUS
10
2.27591
20
-0.226605
11
2.27721
21
-0.225058
0
LINE
8
BLACK
6
CONTINUOUS
10
2.27721
20
-0.225058
11
2.2792
21
-0.224707
0
LINE
8
BLACK
6
CONTINUOUS
10
2.2792
20
-0.224707
11
2.28095
21
-0.225717
0
LINE
8
BLACK
6
CONTINUOUS
10
2.28064
20
-0.169163
11
2.2816
21
-0.170939
0
LINE
8
BLACK
6
CONTINUOUS
10
2.2816
20
-0.170939
11
2.2812
21
-0.172918
0
LINE
8
BLACK
6
CONTINUOUS
10
2.2812
20
-0.172918
11
2.27962
21
-0.174174
0
LINE
8
BLACK
6
CONTINUOUS
10
2.27962
20
-0.174174
11
2.26476
21
-0.179125
0
LINE
8
BLACK
6
CONTINUOUS
10
2.26476
20
-0.179125
11
2.26476
21
-0.20299
0
LINE
8
BLACK
6
CONTINUOUS
10
2.26476
20
-0.20299
11
2.27962
21
-0.207941
0
LINE
8
BLACK
6
CONTINUOUS
10
2.27962
20
-0.207941
11
2.28052
21
-0.208429
0
LINE
8
BLACK
6
CONTINUOUS
10
2.28052
20
-0.208429
11
2.28158
21
-0.21015
0
LINE
8
BLACK
6
CONTINUOUS
10
2.28158
20
-0.21015
11
2.28128
21
-0.212148
0
LINE
8
BLACK
6
CONTINUOUS
10
2.28128
20
-0.212148
11
2.27977
21
-0.213488
0
LINE
8
BLACK
6
CONTINUOUS
10
2.27977
20
-0.213488
11
2.27775
21
-0.213544
0
LINE
8
BLACK
6
CONTINUOUS
10
2.27775
20
-0.213544
11
2.2187
21
-0.193859
0
LINE
8
BLACK
6
CONTINUOUS
10
2.2187
20
-0.193859
11
2.21779
21
-0.19337
0
LINE
8
BLACK
6
CONTINUOUS
10
2.21779
20
-0.19337
11
2.21775
21
-0.193298
0
LINE
8
BLACK
6
CONTINUOUS
10
2.21775
20
-0.193298
11
2.21767
21
-0.193267
0
LINE
8
BLACK
6
CONTINUOUS
10
2.21767
20
-0.193267
11
2.21722
21
-0.192445
0
LINE
8
BLACK
6
CONTINUOUS
10
2.21722
20
-0.192445
11
2.21674
21
-0.191649
0
LINE
8
BLACK
6
CONTINUOUS
10
2.21674
20
-0.191649
11
2.21675
21
-0.191565
0
LINE
8
BLACK
6
CONTINUOUS
10
2.21675
20
-0.191565
11
2.21671
21
-0.19149
0
LINE
8
BLACK
6
CONTINUOUS
10
2.21671
20
-0.19149
11
2.2169
21
-0.190575
0
LINE
8
BLACK
6
CONTINUOUS
10
2.2169
20
-0.190575
11
2.21703
21
-0.189651
0
LINE
8
BLACK
6
CONTINUOUS
10
2.21703
20
-0.189651
11
2.2171
21
-0.189595
0
LINE
8
BLACK
6
CONTINUOUS
10
2.2171
20
-0.189595
11
2.21711
21
-0.189512
0
LINE
8
BLACK
6
CONTINUOUS
10
2.21711
20
-0.189512
11
2.21784
21
-0.188931
0
LINE
8
BLACK
6
CONTINUOUS
10
2.21784
20
-0.188931
11
2.21854
21
-0.188311
0
LINE
8
BLACK
6
CONTINUOUS
10
2.21854
20
-0.188311
11
2.21863
21
-0.188309
0
LINE
8
BLACK
6
CONTINUOUS
10
2.21863
20
-0.188309
11
2.2187
21
-0.188256
0
LINE
8
BLACK
6
CONTINUOUS
10
2.2187
20
-0.188256
11
2.27775
21
-0.168571
0
LINE
8
BLACK
6
CONTINUOUS
10
2.27775
20
-0.168571
11
2.27876
21
-0.168421
0
LINE
8
BLACK
6
CONTINUOUS
10
2.27876
20
-0.168421
11
2.28064
21
-0.169163
0
LINE
8
BLACK
6
CONTINUOUS
10
2.22897
20
-0.191057
11
2.25886
21
-0.201021
0
LINE
8
BLACK
6
CONTINUOUS
10
2.25886
20
-0.201021
11
2.25886
21
-0.181093
0
LINE
8
BLACK
6
CONTINUOUS
10
2.25886
20
-0.181093
11
2.22897
21
-0.191057
0
LINE
8
BLACK
6
CONTINUOUS
10
2.25395
20
-0.115091
11
2.25409
21
-0.115077
0
LINE
8
BLACK
6
CONTINUOUS
10
2.25409
20
-0.115077
11
2.26534
21
-0.117889
0
LINE
8
BLACK
6
CONTINUOUS
10
2.26534
20
-0.117889
11
2.2658
21
-0.118097
0
LINE
8
BLACK
6
CONTINUOUS
10
2.2658
20
-0.118097
11
2.26594
21
-0.118113
0
LINE
8
BLACK
6
CONTINUOUS
10
2.26594
20
-0.118113
11
2.27157
21
-0.120925
0
LINE
8
BLACK
6
CONTINUOUS
10
2.27157
20
-0.120925
11
2.27228
21
-0.121451
0
LINE
8
BLACK
6
CONTINUOUS
10
2.27228
20
-0.121451
11
2.27234
21
-0.121478
0
LINE
8
BLACK
6
CONTINUOUS
10
2.27234
20
-0.121478
11
2.27796
21
-0.127102
0
LINE
8
BLACK
6
CONTINUOUS
10
2.27796
20
-0.127102
11
2.27855
21
-0.127942
0
LINE
8
BLACK
6
CONTINUOUS
10
2.27855
20
-0.127942
11
2.27856
21
-0.128118
0
LINE
8
BLACK
6
CONTINUOUS
10
2.27856
20
-0.128118
11
2.27867
21
-0.128256
0
LINE
8
BLACK
6
CONTINUOUS
10
2.27867
20
-0.128256
11
2.28149
21
-0.136693
0
LINE
8
BLACK
6
CONTINUOUS
10
2.28149
20
-0.136693
11
2.28161
21
-0.137566
0
LINE
8
BLACK
6
CONTINUOUS
10
2.28161
20
-0.137566
11
2.28164
21
-0.137627
0
LINE
8
BLACK
6
CONTINUOUS
10
2.28164
20
-0.137627
11
2.28164
21
-0.151687
0
LINE
8
BLACK
6
CONTINUOUS
10
2.28164
20
-0.151687
11
2.28157
21
-0.152071
0
LINE
8
BLACK
6
CONTINUOUS
10
2.28157
20
-0.152071
11
2.28159
21
-0.1522
0
LINE
8
BLACK
6
CONTINUOUS
10
2.28159
20
-0.1522
11
2.28153
21
-0.152314
0
LINE
8
BLACK
6
CONTINUOUS
10
2.28153
20
-0.152314
11
2.28146
21
-0.152697
0
LINE
8
BLACK
6
CONTINUOUS
10
2.28146
20
-0.152697
11
2.28097
21
-0.153285
0
LINE
8
BLACK
6
CONTINUOUS
10
2.28097
20
-0.153285
11
2.28058
21
-0.153949
0
LINE
8
BLACK
6
CONTINUOUS
10
2.28058
20
-0.153949
11
2.28033
21
-0.15404
0
LINE
8
BLACK
6
CONTINUOUS
10
2.28033
20
-0.15404
11
2.28016
21
-0.154244
0
LINE
8
BLACK
6
CONTINUOUS
10
2.28016
20
-0.154244
11
2.2794
21
-0.154378
0
LINE
8
BLACK
6
CONTINUOUS
10
2.2794
20
-0.154378
11
2.27868
21
-0.15464
0
LINE
8
BLACK
6
CONTINUOUS
10
2.27868
20
-0.15464
11
2.21963
21
-0.15464
0
LINE
8
BLACK
6
CONTINUOUS
10
2.21963
20
-0.15464
11
2.21925
21
-0.154572
0
LINE
8
BLACK
6
CONTINUOUS
10
2.21925
20
-0.154572
11
2.21912
21
-0.154595
0
LINE
8
BLACK
6
CONTINUOUS
10
2.21912
20
-0.154595
11
2.219
21
-0.15453
0
LINE
8
BLACK
6
CONTINUOUS
10
2.219
20
-0.15453
11
2.21862
21
-0.154462
0
LINE
8
BLACK
6
CONTINUOUS
10
2.21862
20
-0.154462
11
2.21803
21
-0.153969
0
LINE
8
BLACK
6
CONTINUOUS
10
2.21803
20
-0.153969
11
2.21737
21
-0.153585
0
LINE
8
BLACK
6
CONTINUOUS
10
2.21737
20
-0.153585
11
2.21728
21
-0.153335
0
LINE
8
BLACK
6
CONTINUOUS
10
2.21728
20
-0.153335
11
2.21707
21
-0.153164
0
LINE
8
BLACK
6
CONTINUOUS
10
2.21707
20
-0.153164
11
2.21694
21
-0.152408
0
LINE
8
BLACK
6
CONTINUOUS
10
2.21694
20
-0.152408
11
2.21668
21
-0.151687
0
LINE
8
BLACK
6
CONTINUOUS
10
2.21668
20
-0.151687
11
2.21668
21
-0.137627
0
LINE
8
BLACK
6
CONTINUOUS
10
2.21668
20
-0.137627
11
2.21683
21
-0.136757
0
LINE
8
BLACK
6
CONTINUOUS
10
2.21683
20
-0.136757
11
2.21683
21
-0.136693
0
LINE
8
BLACK
6
CONTINUOUS
10
2.21683
20
-0.136693
11
2.21964
21
-0.128256
0
LINE
8
BLACK
6
CONTINUOUS
10
2.21964
20
-0.128256
11
2.22013
21
-0.127355
0
LINE
8
BLACK
6
CONTINUOUS
10
2.22013
20
-0.127355
11
2.22028
21
-0.127262
0
LINE
8
BLACK
6
CONTINUOUS
10
2.22028
20
-0.127262
11
2.22035
21
-0.127102
0
LINE
8
BLACK
6
CONTINUOUS
10
2.22035
20
-0.127102
11
2.22598
21
-0.121478
0
LINE
8
BLACK
6
CONTINUOUS
10
2.22598
20
-0.121478
11
2.2267
21
-0.120972
0
LINE
8
BLACK
6
CONTINUOUS
10
2.2267
20
-0.120972
11
2.22674
21
-0.120925
0
LINE
8
BLACK
6
CONTINUOUS
10
2.22674
20
-0.120925
11
2.23237
21
-0.118113
0
LINE
8
BLACK
6
CONTINUOUS
10
2.23237
20
-0.118113
11
2.23286
21
-0.117967
0
LINE
8
BLACK
6
CONTINUOUS
10
2.23286
20
-0.117967
11
2.23297
21
-0.117889
0
LINE
8
BLACK
6
CONTINUOUS
10
2.23297
20
-0.117889
11
2.24422
21
-0.115077
0
LINE
8
BLACK
6
CONTINUOUS
10
2.24422
20
-0.115077
11
2.24481
21
-0.115035
0
LINE
8
BLACK
6
CONTINUOUS
10
2.24481
20
-0.115035
11
2.24494
21
-0.114989
0
LINE
8
BLACK
6
CONTINUOUS
10
2.24494
20
-0.114989
11
2.25337
21
-0.114989
0
LINE
8
BLACK
6
CONTINUOUS
10
2.25337
20
-0.114989
11
2.25395
21
-0.115091
0
LINE
8
BLACK
6
CONTINUOUS
10
2.2453
20
-0.120894
11
2.23472
21
-0.12354
0
LINE
8
BLACK
6
CONTINUOUS
10
2.23472
20
-0.12354
11
2.22981
21
-0.125993
0
LINE
8
BLACK
6
CONTINUOUS
10
2.22981
20
-0.125993
11
2.22502
21
-0.130785
0
LINE
8
BLACK
6
CONTINUOUS
10
2.22502
20
-0.130785
11
2.22258
21
-0.138106
0
LINE
8
BLACK
6
CONTINUOUS
10
2.22258
20
-0.138106
11
2.22258
21
-0.148735
0
LINE
8
BLACK
6
CONTINUOUS
10
2.22258
20
-0.148735
11
2.27573
21
-0.148735
0
LINE
8
BLACK
6
CONTINUOUS
10
2.27573
20
-0.148735
11
2.27573
21
-0.138106
0
LINE
8
BLACK
6
CONTINUOUS
10
2.27573
20
-0.138106
11
2.27329
21
-0.130785
0
LINE
8
BLACK
6
CONTINUOUS
10
2.27329
20
-0.130785
11
2.2685
21
-0.125993
0
LINE
8
BLACK
6
CONTINUOUS
10
2.2685
20
-0.125993
11
2.26359
21
-0.12354
0
LINE
8
BLACK
6
CONTINUOUS
10
2.26359
20
-0.12354
11
2.25301
21
-0.120894
0
LINE
8
BLACK
6
CONTINUOUS
10
2.25301
20
-0.120894
11
2.2453
21
-0.120894
0
LINE
8
BLACK
6
CONTINUOUS
10
2.28095
20
-0.0626127
11
2.28164
21
-0.0645107
0
LINE
8
BLACK
6
CONTINUOUS
10
2.28164
20
-0.0645107
11
2.28164
21
-0.0926322
0
LINE
8
BLACK
6
CONTINUOUS
10
2.28164
20
-0.0926322
11
2.28157
21
-0.0930157
0
LINE
8
BLACK
6
CONTINUOUS
10
2.28157
20
-0.0930157
11
2.28159
21
-0.0931449
0
LINE
8
BLACK
6
CONTINUOUS
10
2.28159
20
-0.0931449
11
2.28153
21
-0.0932585
0
LINE
8
BLACK
6
CONTINUOUS
10
2.28153
20
-0.0932585
11
2.28146
21
-0.0936421
0
LINE
8
BLACK
6
CONTINUOUS
10
2.28146
20
-0.0936421
11
2.28097
21
-0.0942298
0
LINE
8
BLACK
6
CONTINUOUS
10
2.28097
20
-0.0942298
11
2.28058
21
-0.0948941
0
LINE
8
BLACK
6
CONTINUOUS
10
2.28058
20
-0.0948941
11
2.28033
21
-0.0949852
0
LINE
8
BLACK
6
CONTINUOUS
10
2.28033
20
-0.0949852
11
2.28016
21
-0.0951893
0
LINE
8
BLACK
6
CONTINUOUS
10
2.28016
20
-0.0951893
11
2.2794
21
-0.0953226
0
LINE
8
BLACK
6
CONTINUOUS
10
2.2794
20
-0.0953226
11
2.27868
21
-0.0955849
0
LINE
8
BLACK
6
CONTINUOUS
10
2.27868
20
-0.0955849
11
2.21963
21
-0.0955849
0
LINE
8
BLACK
6
CONTINUOUS
10
2.21963
20
-0.0955849
11
2.21925
21
-0.0955173
0
LINE
8
BLACK
6
CONTINUOUS
10
2.21925
20
-0.0955173
11
2.21912
21
-0.0955401
0
LINE
8
BLACK
6
CONTINUOUS
10
2.21912
20
-0.0955401
11
2.219
21
-0.0954745
0
LINE
8
BLACK
6
CONTINUOUS
10
2.219
20
-0.0954745
11
2.21862
21
-0.0954069
0
LINE
8
BLACK
6
CONTINUOUS
10
2.21862
20
-0.0954069
11
2.21803
21
-0.0949137
0
LINE
8
BLACK
6
CONTINUOUS
10
2.21803
20
-0.0949137
11
2.21737
21
-0.0945302
0
LINE
8
BLACK
6
CONTINUOUS
10
2.21737
20
-0.0945302
11
2.21728
21
-0.0942798
0
LINE
8
BLACK
6
CONTINUOUS
10
2.21728
20
-0.0942798
11
2.21707
21
-0.0941085
0
LINE
8
BLACK
6
CONTINUOUS
10
2.21707
20
-0.0941085
11
2.21694
21
-0.093353
0
LINE
8
BLACK
6
CONTINUOUS
10
2.21694
20
-0.093353
11
2.21668
21
-0.0926322
0
LINE
8
BLACK
6
CONTINUOUS
10
2.21668
20
-0.0926322
11
2.21668
21
-0.0645107
0
LINE
8
BLACK
6
CONTINUOUS
10
2.21668
20
-0.0645107
11
2.21685
21
-0.0635007
0
LINE
8
BLACK
6
CONTINUOUS
10
2.21685
20
-0.0635007
11
2.21815
21
-0.0619535
0
LINE
8
BLACK
6
CONTINUOUS
10
2.21815
20
-0.0619535
11
2.22014
21
-0.0616028
0
LINE
8
BLACK
6
CONTINUOUS
10
2.22014
20
-0.0616028
11
2.22189
21
-0.0626127
0
LINE
8
BLACK
6
CONTINUOUS
10
2.22189
20
-0.0626127
11
2.22258
21
-0.0645107
0
LINE
8
BLACK
6
CONTINUOUS
10
2.22258
20
-0.0645107
11
2.22258
21
-0.0896794
0
LINE
8
BLACK
6
CONTINUOUS
10
2.22258
20
-0.0896794
11
2.2448
21
-0.0896794
0
LINE
8
BLACK
6
CONTINUOUS
10
2.2448
20
-0.0896794
11
2.2448
21
-0.0729471
0
LINE
8
BLACK
6
CONTINUOUS
10
2.2448
20
-0.0729471
11
2.24498
21
-0.0719372
0
LINE
8
BLACK
6
CONTINUOUS
10
2.24498
20
-0.0719372
11
2.24627
21
-0.07039
0
LINE
8
BLACK
6
CONTINUOUS
10
2.24627
20
-0.07039
11
2.24826
21
-0.0700392
0
LINE
8
BLACK
6
CONTINUOUS
10
2.24826
20
-0.0700392
11
2.25001
21
-0.0710491
0
LINE
8
BLACK
6
CONTINUOUS
10
2.25001
20
-0.0710491
11
2.2507
21
-0.0729471
0
LINE
8
BLACK
6
CONTINUOUS
10
2.2507
20
-0.0729471
11
2.2507
21
-0.0896794
0
LINE
8
BLACK
6
CONTINUOUS
10
2.2507
20
-0.0896794
11
2.27573
21
-0.0896794
0
LINE
8
BLACK
6
CONTINUOUS
10
2.27573
20
-0.0896794
11
2.27573
21
-0.0645107
0
LINE
8
BLACK
6
CONTINUOUS
10
2.27573
20
-0.0645107
11
2.27591
21
-0.0635007
0
LINE
8
BLACK
6
CONTINUOUS
10
2.27591
20
-0.0635007
11
2.27721
21
-0.0619535
0
LINE
8
BLACK
6
CONTINUOUS
10
2.27721
20
-0.0619535
11
2.2792
21
-0.0616028
0
LINE
8
BLACK
6
CONTINUOUS
10
2.2792
20
-0.0616028
11
2.28095
21
-0.0626127
0
LINE
8
BLACK
6
CONTINUOUS
10
2.24032
20
-0.00268087
11
2.24046
21
-0.00279433
0
LINE
8
BLACK
6
CONTINUOUS
10
2.24046
20
-0.00279433
11
2.24063
21
-0.00281453
0
LINE
8
BLACK
6
CONTINUOUS
10
2.24063
20
-0.00281453
11
2.24626
21
-0.00562669
0
LINE
8
BLACK
6
CONTINUOUS
10
2.24626
20
-0.00562669
11
2.24697
21
-0.0061526
0
LINE
8
BLACK
6
CONTINUOUS
10
2.24697
20
-0.0061526
11
2.24703
21
-0.0061798
0
LINE
8
BLACK
6
CONTINUOUS
10
2.24703
20
-0.0061798
11
2.24984
21
-0.00899193
0
LINE
8
BLACK
6
CONTINUOUS
10
2.24984
20
-0.00899193
11
2.25034
21
-0.00971508
0
LINE
8
BLACK
6
CONTINUOUS
10
2.25034
20
-0.00971508
11
2.25039
21
-0.00975933
0
LINE
8
BLACK
6
CONTINUOUS
10
2.25039
20
-0.00975933
11
2.2532
21
-0.0153836
0
LINE
8
BLACK
6
CONTINUOUS
10
2.2532
20
-0.0153836
11
2.2535
21
-0.0163666
0
LINE
8
BLACK
6
CONTINUOUS
10
2.2535
20
-0.0163666
11
2.25345
21
-0.0165383
0
LINE
8
BLACK
6
CONTINUOUS
10
2.25345
20
-0.0165383
11
2.25352
21
-0.0167041
0
LINE
8
BLACK
6
CONTINUOUS
10
2.25352
20
-0.0167041
11
2.25352
21
-0.0194694
0
LINE
8
BLACK
6
CONTINUOUS
10
2.25352
20
-0.0194694
11
2.27699
21
-0.00303657
0
LINE
8
BLACK
6
CONTINUOUS
10
2.27699
20
-0.00303657
11
2.27792
21
-0.00260331
0
LINE
8
BLACK
6
CONTINUOUS
10
2.27792
20
-0.00260331
11
2.27993
21
-0.00277961
0
LINE
8
BLACK
6
CONTINUOUS
10
2.27993
20
-0.00277961
11
2.28136
21
-0.00420803
0
LINE
8
BLACK
6
CONTINUOUS
10
2.28136
20
-0.00420803
11
2.28154
21
-0.00622016
0
LINE
8
BLACK
6
CONTINUOUS
10
2.28154
20
-0.00622016
11
2.28038
21
-0.00787453
0
LINE
8
BLACK
6
CONTINUOUS
10
2.28038
20
-0.00787453
11
2.25352
21
-0.026678
0
LINE
8
BLACK
6
CONTINUOUS
10
2.25352
20
-0.026678
11
2.25352
21
-0.0362486
0
LINE
8
BLACK
6
CONTINUOUS
10
2.25352
20
-0.0362486
11
2.27868
21
-0.0362486
0
LINE
8
BLACK
6
CONTINUOUS
10
2.27868
20
-0.0362486
11
2.27969
21
-0.0364267
0
LINE
8
BLACK
6
CONTINUOUS
10
2.27969
20
-0.0364267
11
2.28124
21
-0.037725
0
LINE
8
BLACK
6
CONTINUOUS
10
2.28124
20
-0.037725
11
2.28159
21
-0.0397141
0
LINE
8
BLACK
6
CONTINUOUS
10
2.28159
20
-0.0397141
11
2.28058
21
-0.0414633
0
LINE
8
BLACK
6
CONTINUOUS
10
2.28058
20
-0.0414633
11
2.27868
21
-0.0421541
0
LINE
8
BLACK
6
CONTINUOUS
10
2.27868
20
-0.0421541
11
2.21963
21
-0.0421541
0
LINE
8
BLACK
6
CONTINUOUS
10
2.21963
20
-0.0421541
11
2.21925
21
-0.0420865
0
LINE
8
BLACK
6
CONTINUOUS
10
2.21925
20
-0.0420865
11
2.21912
21
-0.0421093
0
LINE
8
BLACK
6
CONTINUOUS
10
2.21912
20
-0.0421093
11
2.219
21
-0.0420437
0
LINE
8
BLACK
6
CONTINUOUS
10
2.219
20
-0.0420437
11
2.21862
21
-0.041976
0
LINE
8
BLACK
6
CONTINUOUS
10
2.21862
20
-0.041976
11
2.21803
21
-0.0414829
0
LINE
8
BLACK
6
CONTINUOUS
10
2.21803
20
-0.0414829
11
2.21737
21
-0.0410993
0
LINE
8
BLACK
6
CONTINUOUS
10
2.21737
20
-0.0410993
11
2.21728
21
-0.040849
0
LINE
8
BLACK
6
CONTINUOUS
10
2.21728
20
-0.040849
11
2.21707
21
-0.0406777
0
LINE
8
BLACK
6
CONTINUOUS
10
2.21707
20
-0.0406777
11
2.21694
21
-0.0399222
0
LINE
8
BLACK
6
CONTINUOUS
10
2.21694
20
-0.0399222
11
2.21668
21
-0.0392013
0
LINE
8
BLACK
6
CONTINUOUS
10
2.21668
20
-0.0392013
11
2.21668
21
-0.0167041
0
LINE
8
BLACK
6
CONTINUOUS
10
2.21668
20
-0.0167041
11
2.21685
21
-0.0156942
0
LINE
8
BLACK
6
CONTINUOUS
10
2.21685
20
-0.0156942
11
2.21697
21
-0.015559
0
LINE
8
BLACK
6
CONTINUOUS
10
2.21697
20
-0.015559
11
2.21699
21
-0.0153836
0
LINE
8
BLACK
6
CONTINUOUS
10
2.21699
20
-0.0153836
11
2.2198
21
-0.00975933
0
LINE
8
BLACK
6
CONTINUOUS
10
2.2198
20
-0.00975933
11
2.22033
21
-0.00905028
0
LINE
8
BLACK
6
CONTINUOUS
10
2.22033
20
-0.00905028
11
2.22035
21
-0.00899193
0
LINE
8
BLACK
6
CONTINUOUS
10
2.22035
20
-0.00899193
11
2.22317
21
-0.0061798
0
LINE
8
BLACK
6
CONTINUOUS
10
2.22317
20
-0.0061798
11
2.22389
21
-0.0056735
0
LINE
8
BLACK
6
CONTINUOUS
10
2.22389
20
-0.0056735
11
2.22393
21
-0.00562669
0
LINE
8
BLACK
6
CONTINUOUS
10
2.22393
20
-0.00562669
11
2.22956
21
-0.00281453
0
LINE
8
BLACK
6
CONTINUOUS
10
2.22956
20
-0.00281453
11
2.23054
21
-0.00252217
0
LINE
8
BLACK
6
CONTINUOUS
10
2.23054
20
-0.00252217
11
2.23071
21
-0.00256319
0
LINE
8
BLACK
6
CONTINUOUS
10
2.23071
20
-0.00256319
11
2.23088
21
-0.0025028
0
LINE
8
BLACK
6
CONTINUOUS
10
2.23088
20
-0.0025028
11
2.23931
21
-0.0025028
0
LINE
8
BLACK
6
CONTINUOUS
10
2.23931
20
-0.0025028
11
2.24032
21
-0.00268087
0
LINE
8
BLACK
6
CONTINUOUS
10
2.23157
20
-0.00840831
11
2.227
21
-0.0106944
0
LINE
8
BLACK
6
CONTINUOUS
10
2.227
20
-0.0106944
11
2.22487
21
-0.0128289
0
LINE
8
BLACK
6
CONTINUOUS
10
2.22487
20
-0.0128289
11
2.22258
21
-0.0174012
0
LINE
8
BLACK
6
CONTINUOUS
10
2.22258
20
-0.0174012
11
2.22258
21
-0.0362486
0
LINE
8
BLACK
6
CONTINUOUS
10
2.22258
20
-0.0362486
11
2.24761
21
-0.0362486
0
LINE
8
BLACK
6
CONTINUOUS
10
2.24761
20
-0.0362486
11
2.24761
21
-0.0174012
0
LINE
8
BLACK
6
CONTINUOUS
10
2.24761
20
-0.0174012
11
2.24532
21
-0.0128289
0
LINE
8
BLACK
6
CONTINUOUS
10
2.24532
20
-0.0128289
11
2.24319
21
-0.0106944
0
LINE
8
BLACK
6
CONTINUOUS
10
2.24319
20
-0.0106944
11
2.23862
21
-0.00840831
0
LINE
8
BLACK
6
CONTINUOUS
10
2.23862
20
-0.00840831
11
2.23157
21
-0.00840831
0
LINE
8
BLACK
6
CONTINUOUS
10
2.28657
20
0.0526854
11
2.28726
21
0.0507874
0
LINE
8
BLACK
6
CONTINUOUS
10
2.28726
20
0.0507874
11
2.28726
21
0.00579303
0
LINE
8
BLACK
6
CONTINUOUS
10
2.28726
20
0.00579303
11
2.28708
21
0.00478311
0
LINE
8
BLACK
6
CONTINUOUS
10
2.28708
20
0.00478311
11
2.28578
21
0.00323587
0
LINE
8
BLACK
6
CONTINUOUS
10
2.28578
20
0.00323587
11
2.2838
21
0.00288512
0
LINE
8
BLACK
6
CONTINUOUS
10
2.2838
20
0.00288512
11
2.28205
21
0.00389504
0
LINE
8
BLACK
6
CONTINUOUS
10
2.28205
20
0.00389504
11
2.28136
21
0.00579303
0
LINE
8
BLACK
6
CONTINUOUS
10
2.28136
20
0.00579303
11
2.28136
21
0.0507874
0
LINE
8
BLACK
6
CONTINUOUS
10
2.28136
20
0.0507874
11
2.28153
21
0.0517973
0
LINE
8
BLACK
6
CONTINUOUS
10
2.28153
20
0.0517973
11
2.28283
21
0.0533446
0
LINE
8
BLACK
6
CONTINUOUS
10
2.28283
20
0.0533446
11
2.28482
21
0.0536953
0
LINE
8
BLACK
6
CONTINUOUS
10
2.28482
20
0.0536953
11
2.28657
21
0.0526854
0
LINE
8
BLACK
6
CONTINUOUS
10
2.23737
20
0.0985813
11
2.23744
21
0.098583
0
LINE
8
BLACK
6
CONTINUOUS
10
2.23744
20
0.098583
11
2.24587
21
0.0957709
0
LINE
8
BLACK
6
CONTINUOUS
10
2.24587
20
0.0957709
11
2.24677
21
0.0952826
0
LINE
8
BLACK
6
CONTINUOUS
10
2.24677
20
0.0952826
11
2.24687
21
0.0951322
0
LINE
8
BLACK
6
CONTINUOUS
10
2.24687
20
0.0951322
11
2.24703
21
0.0950576
0
LINE
8
BLACK
6
CONTINUOUS
10
2.24703
20
0.0950576
11
2.27573
21
0.0663524
0
LINE
8
BLACK
6
CONTINUOUS
10
2.27573
20
0.0663524
11
2.27573
21
0.0957818
0
LINE
8
BLACK
6
CONTINUOUS
10
2.27573
20
0.0957818
11
2.27591
21
0.0967917
0
LINE
8
BLACK
6
CONTINUOUS
10
2.27591
20
0.0967917
11
2.27721
21
0.098339
0
LINE
8
BLACK
6
CONTINUOUS
10
2.27721
20
0.098339
11
2.2792
21
0.0986897
0
LINE
8
BLACK
6
CONTINUOUS
10
2.2792
20
0.0986897
11
2.28095
21
0.0976798
0
LINE
8
BLACK
6
CONTINUOUS
10
2.28095
20
0.0976798
11
2.28164
21
0.0957818
0
LINE
8
BLACK
6
CONTINUOUS
10
2.28164
20
0.0957818
11
2.28164
21
0.0592239
0
LINE
8
BLACK
6
CONTINUOUS
10
2.28164
20
0.0592239
11
2.28152
21
0.058589
0
LINE
8
BLACK
6
CONTINUOUS
10
2.28152
20
0.058589
11
2.28154
21
0.0584596
0
LINE
8
BLACK
6
CONTINUOUS
10
2.28154
20
0.0584596
11
2.28149
21
0.0583945
0
LINE
8
BLACK
6
CONTINUOUS
10
2.28149
20
0.0583945
11
2.28146
21
0.0582139
0
LINE
8
BLACK
6
CONTINUOUS
10
2.28146
20
0.0582139
11
2.28089
21
0.057533
0
LINE
8
BLACK
6
CONTINUOUS
10
2.28089
20
0.057533
11
2.28038
21
0.0568051
0
LINE
8
BLACK
6
CONTINUOUS
10
2.28038
20
0.0568051
11
2.28025
21
0.0567701
0
LINE
8
BLACK
6
CONTINUOUS
10
2.28025
20
0.0567701
11
2.28016
21
0.0566667
0
LINE
8
BLACK
6
CONTINUOUS
10
2.28016
20
0.0566667
11
2.27928
21
0.0565123
0
LINE
8
BLACK
6
CONTINUOUS
10
2.27928
20
0.0565123
11
2.27843
21
0.0562824
0
LINE
8
BLACK
6
CONTINUOUS
10
2.27843
20
0.0562824
11
2.2783
21
0.0563394
0
LINE
8
BLACK
6
CONTINUOUS
10
2.2783
20
0.0563394
11
2.27817
21
0.0563159
0
LINE
8
BLACK
6
CONTINUOUS
10
2.27817
20
0.0563159
11
2.2774
21
0.0567604
0
LINE
8
BLACK
6
CONTINUOUS
10
2.2774
20
0.0567604
11
2.2766
21
0.0571359
0
LINE
8
BLACK
6
CONTINUOUS
10
2.2766
20
0.0571359
11
2.24334
21
0.0903889
0
LINE
8
BLACK
6
CONTINUOUS
10
2.24334
20
0.0903889
11
2.23602
21
0.0928291
0
LINE
8
BLACK
6
CONTINUOUS
10
2.23602
20
0.0928291
11
2.23157
21
0.0928291
0
LINE
8
BLACK
6
CONTINUOUS
10
2.23157
20
0.0928291
11
2.227
21
0.0905429
0
LINE
8
BLACK
6
CONTINUOUS
10
2.227
20
0.0905429
11
2.22487
21
0.0884084
0
LINE
8
BLACK
6
CONTINUOUS
10
2.22487
20
0.0884084
11
2.22258
21
0.0838361
0
LINE
8
BLACK
6
CONTINUOUS
10
2.22258
20
0.0838361
11
2.22258
21
0.0711695
0
LINE
8
BLACK
6
CONTINUOUS
10
2.22258
20
0.0711695
11
2.22487
21
0.0665972
0
LINE
8
BLACK
6
CONTINUOUS
10
2.22487
20
0.0665972
11
2.22734
21
0.0641239
0
LINE
8
BLACK
6
CONTINUOUS
10
2.22734
20
0.0641239
11
2.22793
21
0.0632839
0
LINE
8
BLACK
6
CONTINUOUS
10
2.22793
20
0.0632839
11
2.22811
21
0.0612718
0
LINE
8
BLACK
6
CONTINUOUS
10
2.22811
20
0.0612718
11
2.22695
21
0.0596172
0
LINE
8
BLACK
6
CONTINUOUS
10
2.22695
20
0.0596172
11
2.225
21
0.0590945
0
LINE
8
BLACK
6
CONTINUOUS
10
2.225
20
0.0590945
11
2.22317
21
0.0599481
0
LINE
8
BLACK
6
CONTINUOUS
10
2.22317
20
0.0599481
11
2.22035
21
0.0627602
0
LINE
8
BLACK
6
CONTINUOUS
10
2.22035
20
0.0627602
11
2.21985
21
0.0634833
0
LINE
8
BLACK
6
CONTINUOUS
10
2.21985
20
0.0634833
11
2.2198
21
0.0635276
0
LINE
8
BLACK
6
CONTINUOUS
10
2.2198
20
0.0635276
11
2.21699
21
0.0691519
0
LINE
8
BLACK
6
CONTINUOUS
10
2.21699
20
0.0691519
11
2.2167
21
0.0701348
0
LINE
8
BLACK
6
CONTINUOUS
10
2.2167
20
0.0701348
11
2.21674
21
0.0703065
0
LINE
8
BLACK
6
CONTINUOUS
10
2.21674
20
0.0703065
11
2.21668
21
0.0704724
0
LINE
8
BLACK
6
CONTINUOUS
10
2.21668
20
0.0704724
11
2.21668
21
0.0845332
0
LINE
8
BLACK
6
CONTINUOUS
10
2.21668
20
0.0845332
11
2.21685
21
0.0855431
0
LINE
8
BLACK
6
CONTINUOUS
10
2.21685
20
0.0855431
11
2.21697
21
0.0856783
0
LINE
8
BLACK
6
CONTINUOUS
10
2.21697
20
0.0856783
11
2.21699
21
0.0858537
0
LINE
8
BLACK
6
CONTINUOUS
10
2.21699
20
0.0858537
11
2.2198
21
0.091478
0
LINE
8
BLACK
6
CONTINUOUS
10
2.2198
20
0.091478
11
2.22033
21
0.092187
0
LINE
8
BLACK
6
CONTINUOUS
10
2.22033
20
0.092187
11
2.22035
21
0.0922454
0
LINE
8
BLACK
6
CONTINUOUS
10
2.22035
20
0.0922454
11
2.22317
21
0.0950576
0
LINE
8
BLACK
6
CONTINUOUS
10
2.22317
20
0.0950576
11
2.22389
21
0.0955639
0
LINE
8
BLACK
6
CONTINUOUS
10
2.22389
20
0.0955639
11
2.22393
21
0.0956107
0
LINE
8
BLACK
6
CONTINUOUS
10
2.22393
20
0.0956107
11
2.22956
21
0.0984228
0
LINE
8
BLACK
6
CONTINUOUS
10
2.22956
20
0.0984228
11
2.23054
21
0.0987152
0
LINE
8
BLACK
6
CONTINUOUS
10
2.23054
20
0.0987152
11
2.23071
21
0.0986742
0
LINE
8
BLACK
6
CONTINUOUS
10
2.23071
20
0.0986742
11
2.23088
21
0.0987346
0
LINE
8
BLACK
6
CONTINUOUS
10
2.23088
20
0.0987346
11
2.2365
21
0.0987346
0
LINE
8
BLACK
6
CONTINUOUS
10
2.2365
20
0.0987346
11
2.23737
21
0.0985813
0
LINE
8
BLACK
6
CONTINUOUS
10
3.39544
20
0.0793511
11
3.39613
21
0.0774531
0
LINE
8
BLACK
6
CONTINUOUS
10
3.39613
20
0.0774531
11
3.39613
21
0.0750159
0
LINE
8
BLACK
6
CONTINUOUS
10
3.39613
20
0.0750159
11
3.39595
21
0.074006
0
LINE
8
BLACK
6
CONTINUOUS
10
3.39595
20
0.074006
11
3.39584
21
0.0738708
0
LINE
8
BLACK
6
CONTINUOUS
10
3.39584
20
0.0738708
11
3.39582
21
0.0736954
0
LINE
8
BLACK
6
CONTINUOUS
10
3.39582
20
0.0736954
11
3.39338
21
0.0688211
0
LINE
8
BLACK
6
CONTINUOUS
10
3.39338
20
0.0688211
11
3.39285
21
0.0681121
0
LINE
8
BLACK
6
CONTINUOUS
10
3.39285
20
0.0681121
11
3.39283
21
0.0680537
0
LINE
8
BLACK
6
CONTINUOUS
10
3.39283
20
0.0680537
11
3.39039
21
0.0656165
0
LINE
8
BLACK
6
CONTINUOUS
10
3.39039
20
0.0656165
11
3.38955
21
0.0650283
0
LINE
8
BLACK
6
CONTINUOUS
10
3.38955
20
0.0650283
11
3.38754
21
0.0648522
0
LINE
8
BLACK
6
CONTINUOUS
10
3.38754
20
0.0648522
11
3.38588
21
0.0660107
0
LINE
8
BLACK
6
CONTINUOUS
10
3.38588
20
0.0660107
11
3.38536
21
0.0679617
0
LINE
8
BLACK
6
CONTINUOUS
10
3.38536
20
0.0679617
11
3.38621
21
0.0697923
0
LINE
8
BLACK
6
CONTINUOUS
10
3.38621
20
0.0697923
11
3.38831
21
0.0718907
0
LINE
8
BLACK
6
CONTINUOUS
10
3.38831
20
0.0718907
11
3.39022
21
0.075713
0
LINE
8
BLACK
6
CONTINUOUS
10
3.39022
20
0.075713
11
3.39022
21
0.0774531
0
LINE
8
BLACK
6
CONTINUOUS
10
3.39022
20
0.0774531
11
3.3904
21
0.0784631
0
LINE
8
BLACK
6
CONTINUOUS
10
3.3904
20
0.0784631
11
3.3917
21
0.0800103
0
LINE
8
BLACK
6
CONTINUOUS
10
3.3917
20
0.0800103
11
3.39369
21
0.0803611
0
LINE
8
BLACK
6
CONTINUOUS
10
3.39369
20
0.0803611
11
3.39544
21
0.0793511
0
LINE
8
BLACK
6
CONTINUOUS
10
3.61841
20
0.128972
11
3.61854
21
0.128858
0
LINE
8
BLACK
6
CONTINUOUS
10
3.61854
20
0.128858
11
3.61872
21
0.128838
0
LINE
8
BLACK
6
CONTINUOUS
10
3.61872
20
0.128838
11
3.62359
21
0.126401
0
LINE
8
BLACK
6
CONTINUOUS
10
3.62359
20
0.126401
11
3.6243
21
0.125875
0
LINE
8
BLACK
6
CONTINUOUS
10
3.6243
20
0.125875
11
3.62436
21
0.125848
0
LINE
8
BLACK
6
CONTINUOUS
10
3.62436
20
0.125848
11
3.6268
21
0.123411
0
LINE
8
BLACK
6
CONTINUOUS
10
3.6268
20
0.123411
11
3.6273
21
0.122687
0
LINE
8
BLACK
6
CONTINUOUS
10
3.6273
20
0.122687
11
3.62735
21
0.122643
0
LINE
8
BLACK
6
CONTINUOUS
10
3.62735
20
0.122643
11
3.62979
21
0.117769
0
LINE
8
BLACK
6
CONTINUOUS
10
3.62979
20
0.117769
11
3.63008
21
0.116786
0
LINE
8
BLACK
6
CONTINUOUS
10
3.63008
20
0.116786
11
3.63004
21
0.116614
0
LINE
8
BLACK
6
CONTINUOUS
10
3.63004
20
0.116614
11
3.6301
21
0.116448
0
LINE
8
BLACK
6
CONTINUOUS
10
3.6301
20
0.116448
11
3.6301
21
0.111574
0
LINE
8
BLACK
6
CONTINUOUS
10
3.6301
20
0.111574
11
3.62995
21
0.110704
0
LINE
8
BLACK
6
CONTINUOUS
10
3.62995
20
0.110704
11
3.62995
21
0.11064
0
LINE
8
BLACK
6
CONTINUOUS
10
3.62995
20
0.11064
11
3.62751
21
0.103329
0
LINE
8
BLACK
6
CONTINUOUS
10
3.62751
20
0.103329
11
3.62702
21
0.102427
0
LINE
8
BLACK
6
CONTINUOUS
10
3.62702
20
0.102427
11
3.62687
21
0.102334
0
LINE
8
BLACK
6
CONTINUOUS
10
3.62687
20
0.102334
11
3.6268
21
0.102174
0
LINE
8
BLACK
6
CONTINUOUS
10
3.6268
20
0.102174
11
3.60259
21
0.0779687
0
LINE
8
BLACK
6
CONTINUOUS
10
3.60259
20
0.0779687
11
3.62715
21
0.0779687
0
LINE
8
BLACK
6
CONTINUOUS
10
3.62715
20
0.0779687
11
3.62816
21
0.0777906
0
LINE
8
BLACK
6
CONTINUOUS
10
3.62816
20
0.0777906
11
3.6297
21
0.0764923
0
LINE
8
BLACK
6
CONTINUOUS
10
3.6297
20
0.0764923
11
3.63005
21
0.0745032
0
LINE
8
BLACK
6
CONTINUOUS
10
3.63005
20
0.0745032
11
3.62904
21
0.072754
0
LINE
8
BLACK
6
CONTINUOUS
10
3.62904
20
0.072754
11
3.62715
21
0.0720632
0
LINE
8
BLACK
6
CONTINUOUS
10
3.62715
20
0.0720632
11
3.59546
21
0.0720632
0
LINE
8
BLACK
6
CONTINUOUS
10
3.59546
20
0.0720632
11
3.59483
21
0.0721751
0
LINE
8
BLACK
6
CONTINUOUS
10
3.59483
20
0.0721751
11
3.5947
21
0.0721638
0
LINE
8
BLACK
6
CONTINUOUS
10
3.5947
20
0.0721638
11
3.59463
21
0.0722094
0
LINE
8
BLACK
6
CONTINUOUS
10
3.59463
20
0.0722094
11
3.59445
21
0.0722413
0
LINE
8
BLACK
6
CONTINUOUS
10
3.59445
20
0.0722413
11
3.59377
21
0.0728126
0
LINE
8
BLACK
6
CONTINUOUS
10
3.59377
20
0.0728126
11
3.59304
21
0.0733223
0
LINE
8
BLACK
6
CONTINUOUS
10
3.59304
20
0.0733223
11
3.59301
21
0.0734528
0
LINE
8
BLACK
6
CONTINUOUS
10
3.59301
20
0.0734528
11
3.59291
21
0.0735396
0
LINE
8
BLACK
6
CONTINUOUS
10
3.59291
20
0.0735396
11
3.59275
21
0.074415
0
LINE
8
BLACK
6
CONTINUOUS
10
3.59275
20
0.074415
11
3.59252
21
0.0752733
0
LINE
8
BLACK
6
CONTINUOUS
10
3.59252
20
0.0752733
11
3.59258
21
0.0753956
0
LINE
8
BLACK
6
CONTINUOUS
10
3.59258
20
0.0753956
11
3.59256
21
0.0755287
0
LINE
8
BLACK
6
CONTINUOUS
10
3.59256
20
0.0755287
11
3.593
21
0.0762985
0
LINE
8
BLACK
6
CONTINUOUS
10
3.593
20
0.0762985
11
3.59338
21
0.0771039
0
LINE
8
BLACK
6
CONTINUOUS
10
3.59338
20
0.0771039
11
3.62213
21
0.105857
0
LINE
8
BLACK
6
CONTINUOUS
10
3.62213
20
0.105857
11
3.62419
21
0.112053
0
LINE
8
BLACK
6
CONTINUOUS
10
3.62419
20
0.112053
11
3.62419
21
0.115751
0
LINE
8
BLACK
6
CONTINUOUS
10
3.62419
20
0.115751
11
3.62228
21
0.119574
0
LINE
8
BLACK
6
CONTINUOUS
10
3.62228
20
0.119574
11
3.62052
21
0.121333
0
LINE
8
BLACK
6
CONTINUOUS
10
3.62052
20
0.121333
11
3.6167
21
0.123244
0
LINE
8
BLACK
6
CONTINUOUS
10
3.6167
20
0.123244
11
3.60591
21
0.123244
0
LINE
8
BLACK
6
CONTINUOUS
10
3.60591
20
0.123244
11
3.60209
21
0.121333
0
LINE
8
BLACK
6
CONTINUOUS
10
3.60209
20
0.121333
11
3.59999
21
0.119235
0
LINE
8
BLACK
6
CONTINUOUS
10
3.59999
20
0.119235
11
3.59915
21
0.118647
0
LINE
8
BLACK
6
CONTINUOUS
10
3.59915
20
0.118647
11
3.59714
21
0.118471
0
LINE
8
BLACK
6
CONTINUOUS
10
3.59714
20
0.118471
11
3.59548
21
0.119629
0
LINE
8
BLACK
6
CONTINUOUS
10
3.59548
20
0.119629
11
3.59496
21
0.12158
0
LINE
8
BLACK
6
CONTINUOUS
10
3.59496
20
0.12158
11
3.59581
21
0.123411
0
LINE
8
BLACK
6
CONTINUOUS
10
3.59581
20
0.123411
11
3.59825
21
0.125848
0
LINE
8
BLACK
6
CONTINUOUS
10
3.59825
20
0.125848
11
3.59897
21
0.126354
0
LINE
8
BLACK
6
CONTINUOUS
10
3.59897
20
0.126354
11
3.59902
21
0.126401
0
LINE
8
BLACK
6
CONTINUOUS
10
3.59902
20
0.126401
11
3.60389
21
0.128838
0
LINE
8
BLACK
6
CONTINUOUS
10
3.60389
20
0.128838
11
3.60487
21
0.12913
0
LINE
8
BLACK
6
CONTINUOUS
10
3.60487
20
0.12913
11
3.60505
21
0.129089
0
LINE
8
BLACK
6
CONTINUOUS
10
3.60505
20
0.129089
11
3.60521
21
0.12915
0
LINE
8
BLACK
6
CONTINUOUS
10
3.60521
20
0.12915
11
3.6174
21
0.12915
0
LINE
8
BLACK
6
CONTINUOUS
10
3.6174
20
0.12915
11
3.61841
21
0.128972
0
LINE
8
BLACK
6
CONTINUOUS
10
3.35763
20
0.128972
11
3.35776
21
0.128858
0
LINE
8
BLACK
6
CONTINUOUS
10
3.35776
20
0.128858
11
3.35794
21
0.128838
0
LINE
8
BLACK
6
CONTINUOUS
10
3.35794
20
0.128838
11
3.36281
21
0.126401
0
LINE
8
BLACK
6
CONTINUOUS
10
3.36281
20
0.126401
11
3.36352
21
0.125875
0
LINE
8
BLACK
6
CONTINUOUS
10
3.36352
20
0.125875
11
3.36358
21
0.125848
0
LINE
8
BLACK
6
CONTINUOUS
10
3.36358
20
0.125848
11
3.36602
21
0.123411
0
LINE
8
BLACK
6
CONTINUOUS
10
3.36602
20
0.123411
11
3.36652
21
0.122687
0
LINE
8
BLACK
6
CONTINUOUS
10
3.36652
20
0.122687
11
3.36657
21
0.122643
0
LINE
8
BLACK
6
CONTINUOUS
10
3.36657
20
0.122643
11
3.36901
21
0.117769
0
LINE
8
BLACK
6
CONTINUOUS
10
3.36901
20
0.117769
11
3.3693
21
0.116786
0
LINE
8
BLACK
6
CONTINUOUS
10
3.3693
20
0.116786
11
3.36926
21
0.116614
0
LINE
8
BLACK
6
CONTINUOUS
10
3.36926
20
0.116614
11
3.36932
21
0.116448
0
LINE
8
BLACK
6
CONTINUOUS
10
3.36932
20
0.116448
11
3.36932
21
0.111574
0
LINE
8
BLACK
6
CONTINUOUS
10
3.36932
20
0.111574
11
3.36914
21
0.110564
0
LINE
8
BLACK
6
CONTINUOUS
10
3.36914
20
0.110564
11
3.36903
21
0.110429
0
LINE
8
BLACK
6
CONTINUOUS
10
3.36903
20
0.110429
11
3.36901
21
0.110253
0
LINE
8
BLACK
6
CONTINUOUS
10
3.36901
20
0.110253
11
3.36657
21
0.105379
0
LINE
8
BLACK
6
CONTINUOUS
10
3.36657
20
0.105379
11
3.36604
21
0.10467
0
LINE
8
BLACK
6
CONTINUOUS
10
3.36604
20
0.10467
11
3.36602
21
0.104612
0
LINE
8
BLACK
6
CONTINUOUS
10
3.36602
20
0.104612
11
3.36391
21
0.102506
0
LINE
8
BLACK
6
CONTINUOUS
10
3.36391
20
0.102506
11
3.36486
21
0.102189
0
LINE
8
BLACK
6
CONTINUOUS
10
3.36486
20
0.102189
11
3.36577
21
0.101701
0
LINE
8
BLACK
6
CONTINUOUS
10
3.36577
20
0.101701
11
3.36586
21
0.10155
0
LINE
8
BLACK
6
CONTINUOUS
10
3.36586
20
0.10155
11
3.36602
21
0.101476
0
LINE
8
BLACK
6
CONTINUOUS
10
3.36602
20
0.101476
11
3.36845
21
0.0990386
0
LINE
8
BLACK
6
CONTINUOUS
10
3.36845
20
0.0990386
11
3.36896
21
0.0983155
0
LINE
8
BLACK
6
CONTINUOUS
10
3.36896
20
0.0983155
11
3.36901
21
0.0982712
0
LINE
8
BLACK
6
CONTINUOUS
10
3.36901
20
0.0982712
11
3.37144
21
0.0933969
0
LINE
8
BLACK
6
CONTINUOUS
10
3.37144
20
0.0933969
11
3.37174
21
0.0924139
0
LINE
8
BLACK
6
CONTINUOUS
10
3.37174
20
0.0924139
11
3.3717
21
0.0922422
0
LINE
8
BLACK
6
CONTINUOUS
10
3.3717
20
0.0922422
11
3.37176
21
0.0920763
0
LINE
8
BLACK
6
CONTINUOUS
10
3.37176
20
0.0920763
11
3.37176
21
0.0847647
0
LINE
8
BLACK
6
CONTINUOUS
10
3.37176
20
0.0847647
11
3.37158
21
0.0837548
0
LINE
8
BLACK
6
CONTINUOUS
10
3.37158
20
0.0837548
11
3.37147
21
0.0836196
0
LINE
8
BLACK
6
CONTINUOUS
10
3.37147
20
0.0836196
11
3.37144
21
0.0834442
0
LINE
8
BLACK
6
CONTINUOUS
10
3.37144
20
0.0834442
11
3.36901
21
0.0785698
0
LINE
8
BLACK
6
CONTINUOUS
10
3.36901
20
0.0785698
11
3.36848
21
0.0778609
0
LINE
8
BLACK
6
CONTINUOUS
10
3.36848
20
0.0778609
11
3.36845
21
0.0778024
0
LINE
8
BLACK
6
CONTINUOUS
10
3.36845
20
0.0778024
11
3.36602
21
0.0753652
0
LINE
8
BLACK
6
CONTINUOUS
10
3.36602
20
0.0753652
11
3.36529
21
0.0748589
0
LINE
8
BLACK
6
CONTINUOUS
10
3.36529
20
0.0748589
11
3.36525
21
0.0748121
0
LINE
8
BLACK
6
CONTINUOUS
10
3.36525
20
0.0748121
11
3.36038
21
0.0723749
0
LINE
8
BLACK
6
CONTINUOUS
10
3.36038
20
0.0723749
11
3.35939
21
0.0720826
0
LINE
8
BLACK
6
CONTINUOUS
10
3.35939
20
0.0720826
11
3.35922
21
0.0721236
0
LINE
8
BLACK
6
CONTINUOUS
10
3.35922
20
0.0721236
11
3.35906
21
0.0720632
0
LINE
8
BLACK
6
CONTINUOUS
10
3.35906
20
0.0720632
11
3.33956
21
0.0720632
0
LINE
8
BLACK
6
CONTINUOUS
10
3.33956
20
0.0720632
11
3.33917
21
0.0721308
0
LINE
8
BLACK
6
CONTINUOUS
10
3.33917
20
0.0721308
11
3.33904
21
0.072108
0
LINE
8
BLACK
6
CONTINUOUS
10
3.33904
20
0.072108
11
3.33893
21
0.0721736
0
LINE
8
BLACK
6
CONTINUOUS
10
3.33893
20
0.0721736
11
3.33855
21
0.0722413
0
LINE
8
BLACK
6
CONTINUOUS
10
3.33855
20
0.0722413
11
3.33796
21
0.0727344
0
LINE
8
BLACK
6
CONTINUOUS
10
3.33796
20
0.0727344
11
3.3373
21
0.073118
0
LINE
8
BLACK
6
CONTINUOUS
10
3.3373
20
0.073118
11
3.3372
21
0.0733683
0
LINE
8
BLACK
6
CONTINUOUS
10
3.3372
20
0.0733683
11
3.337
21
0.0735396
0
LINE
8
BLACK
6
CONTINUOUS
10
3.337
20
0.0735396
11
3.33687
21
0.0742951
0
LINE
8
BLACK
6
CONTINUOUS
10
3.33687
20
0.0742951
11
3.3366
21
0.0750159
0
LINE
8
BLACK
6
CONTINUOUS
10
3.3366
20
0.0750159
11
3.3366
21
0.126197
0
LINE
8
BLACK
6
CONTINUOUS
10
3.3366
20
0.126197
11
3.33667
21
0.126581
0
LINE
8
BLACK
6
CONTINUOUS
10
3.33667
20
0.126581
11
3.33665
21
0.12671
0
LINE
8
BLACK
6
CONTINUOUS
10
3.33665
20
0.12671
11
3.33672
21
0.126823
0
LINE
8
BLACK
6
CONTINUOUS
10
3.33672
20
0.126823
11
3.33678
21
0.127207
0
LINE
8
BLACK
6
CONTINUOUS
10
3.33678
20
0.127207
11
3.33728
21
0.127795
0
LINE
8
BLACK
6
CONTINUOUS
10
3.33728
20
0.127795
11
3.33766
21
0.128459
0
LINE
8
BLACK
6
CONTINUOUS
10
3.33766
20
0.128459
11
3.33791
21
0.12855
0
LINE
8
BLACK
6
CONTINUOUS
10
3.33791
20
0.12855
11
3.33808
21
0.128754
0
LINE
8
BLACK
6
CONTINUOUS
10
3.33808
20
0.128754
11
3.33884
21
0.128887
0
LINE
8
BLACK
6
CONTINUOUS
10
3.33884
20
0.128887
11
3.33956
21
0.12915
0
LINE
8
BLACK
6
CONTINUOUS
10
3.33956
20
0.12915
11
3.35662
21
0.12915
0
LINE
8
BLACK
6
CONTINUOUS
10
3.35662
20
0.12915
11
3.35763
21
0.128972
0
LINE
8
BLACK
6
CONTINUOUS
10
3.34251
20
0.0988724
11
3.34251
21
0.0779687
0
LINE
8
BLACK
6
CONTINUOUS
10
3.34251
20
0.0779687
11
3.35836
21
0.0779687
0
LINE
8
BLACK
6
CONTINUOUS
10
3.35836
20
0.0779687
11
3.36218
21
0.0798799
0
LINE
8
BLACK
6
CONTINUOUS
10
3.36218
20
0.0798799
11
3.36394
21
0.0816394
0
LINE
8
BLACK
6
CONTINUOUS
10
3.36394
20
0.0816394
11
3.36585
21
0.0854618
0
LINE
8
BLACK
6
CONTINUOUS
10
3.36585
20
0.0854618
11
3.36585
21
0.0913793
0
LINE
8
BLACK
6
CONTINUOUS
10
3.36585
20
0.0913793
11
3.36394
21
0.0952016
0
LINE
8
BLACK
6
CONTINUOUS
10
3.36394
20
0.0952016
11
3.36233
21
0.0968071
0
LINE
8
BLACK
6
CONTINUOUS
10
3.36233
20
0.0968071
11
3.35614
21
0.0988724
0
LINE
8
BLACK
6
CONTINUOUS
10
3.35614
20
0.0988724
11
3.34251
21
0.0988724
0
LINE
8
BLACK
6
CONTINUOUS
10
3.34251
20
0.123244
11
3.34251
21
0.104778
0
LINE
8
BLACK
6
CONTINUOUS
10
3.34251
20
0.104778
11
3.35592
21
0.104778
0
LINE
8
BLACK
6
CONTINUOUS
10
3.35592
20
0.104778
11
3.35974
21
0.106689
0
LINE
8
BLACK
6
CONTINUOUS
10
3.35974
20
0.106689
11
3.3615
21
0.108449
0
LINE
8
BLACK
6
CONTINUOUS
10
3.3615
20
0.108449
11
3.36341
21
0.112271
0
LINE
8
BLACK
6
CONTINUOUS
10
3.36341
20
0.112271
11
3.36341
21
0.115751
0
LINE
8
BLACK
6
CONTINUOUS
10
3.36341
20
0.115751
11
3.3615
21
0.119574
0
LINE
8
BLACK
6
CONTINUOUS
10
3.3615
20
0.119574
11
3.35974
21
0.121333
0
LINE
8
BLACK
6
CONTINUOUS
10
3.35974
20
0.121333
11
3.35592
21
0.123244
0
LINE
8
BLACK
6
CONTINUOUS
10
3.35592
20
0.123244
11
3.34251
21
0.123244
0
LINE
8
BLACK
6
CONTINUOUS
10
3.25652
20
0.128095
11
3.25721
21
0.126197
0
LINE
8
BLACK
6
CONTINUOUS
10
3.25721
20
0.126197
11
3.25721
21
0.0779687
0
LINE
8
BLACK
6
CONTINUOUS
10
3.25721
20
0.0779687
11
3.27863
21
0.0779687
0
LINE
8
BLACK
6
CONTINUOUS
10
3.27863
20
0.0779687
11
3.27964
21
0.0777906
0
LINE
8
BLACK
6
CONTINUOUS
10
3.27964
20
0.0777906
11
3.28118
21
0.0764923
0
LINE
8
BLACK
6
CONTINUOUS
10
3.28118
20
0.0764923
11
3.28154
21
0.0745032
0
LINE
8
BLACK
6
CONTINUOUS
10
3.28154
20
0.0745032
11
3.28053
21
0.072754
0
LINE
8
BLACK
6
CONTINUOUS
10
3.28053
20
0.072754
11
3.27863
21
0.0720632
0
LINE
8
BLACK
6
CONTINUOUS
10
3.27863
20
0.0720632
11
3.25426
21
0.0720632
0
LINE
8
BLACK
6
CONTINUOUS
10
3.25426
20
0.0720632
11
3.25387
21
0.0721308
0
LINE
8
BLACK
6
CONTINUOUS
10
3.25387
20
0.0721308
11
3.25374
21
0.072108
0
LINE
8
BLACK
6
CONTINUOUS
10
3.25374
20
0.072108
11
3.25363
21
0.0721736
0
LINE
8
BLACK
6
CONTINUOUS
10
3.25363
20
0.0721736
11
3.25325
21
0.0722413
0
LINE
8
BLACK
6
CONTINUOUS
10
3.25325
20
0.0722413
11
3.25266
21
0.0727344
0
LINE
8
BLACK
6
CONTINUOUS
10
3.25266
20
0.0727344
11
3.25199
21
0.073118
0
LINE
8
BLACK
6
CONTINUOUS
10
3.25199
20
0.073118
11
3.2519
21
0.0733683
0
LINE
8
BLACK
6
CONTINUOUS
10
3.2519
20
0.0733683
11
3.2517
21
0.0735396
0
LINE
8
BLACK
6
CONTINUOUS
10
3.2517
20
0.0735396
11
3.25157
21
0.0742951
0
LINE
8
BLACK
6
CONTINUOUS
10
3.25157
20
0.0742951
11
3.2513
21
0.0750159
0
LINE
8
BLACK
6
CONTINUOUS
10
3.2513
20
0.0750159
11
3.2513
21
0.126197
0
LINE
8
BLACK
6
CONTINUOUS
10
3.2513
20
0.126197
11
3.25148
21
0.127207
0
LINE
8
BLACK
6
CONTINUOUS
10
3.25148
20
0.127207
11
3.25278
21
0.128754
0
LINE
8
BLACK
6
CONTINUOUS
10
3.25278
20
0.128754
11
3.25477
21
0.129105
0
LINE
8
BLACK
6
CONTINUOUS
10
3.25477
20
0.129105
11
3.25652
21
0.128095
0
LINE
8
BLACK
6
CONTINUOUS
10
3.56966
20
0.128972
11
3.5698
21
0.128858
0
LINE
8
BLACK
6
CONTINUOUS
10
3.5698
20
0.128858
11
3.56997
21
0.128838
0
LINE
8
BLACK
6
CONTINUOUS
10
3.56997
20
0.128838
11
3.57485
21
0.126401
0
LINE
8
BLACK
6
CONTINUOUS
10
3.57485
20
0.126401
11
3.57556
21
0.125875
0
LINE
8
BLACK
6
CONTINUOUS
10
3.57556
20
0.125875
11
3.57562
21
0.125848
0
LINE
8
BLACK
6
CONTINUOUS
10
3.57562
20
0.125848
11
3.57805
21
0.123411
0
LINE
8
BLACK
6
CONTINUOUS
10
3.57805
20
0.123411
11
3.57856
21
0.122688
0
LINE
8
BLACK
6
CONTINUOUS
10
3.57856
20
0.122688
11
3.57861
21
0.122643
0
LINE
8
BLACK
6
CONTINUOUS
10
3.57861
20
0.122643
11
3.58104
21
0.117769
0
LINE
8
BLACK
6
CONTINUOUS
10
3.58104
20
0.117769
11
3.58134
21
0.116786
0
LINE
8
BLACK
6
CONTINUOUS
10
3.58134
20
0.116786
11
3.5813
21
0.116614
0
LINE
8
BLACK
6
CONTINUOUS
10
3.5813
20
0.116614
11
3.58136
21
0.116448
0
LINE
8
BLACK
6
CONTINUOUS
10
3.58136
20
0.116448
11
3.58136
21
0.111574
0
LINE
8
BLACK
6
CONTINUOUS
10
3.58136
20
0.111574
11
3.5812
21
0.110704
0
LINE
8
BLACK
6
CONTINUOUS
10
3.5812
20
0.110704
11
3.5812
21
0.11064
0
LINE
8
BLACK
6
CONTINUOUS
10
3.5812
20
0.11064
11
3.57877
21
0.103329
0
LINE
8
BLACK
6
CONTINUOUS
10
3.57877
20
0.103329
11
3.57828
21
0.102427
0
LINE
8
BLACK
6
CONTINUOUS
10
3.57828
20
0.102427
11
3.57813
21
0.102334
0
LINE
8
BLACK
6
CONTINUOUS
10
3.57813
20
0.102334
11
3.57805
21
0.102174
0
LINE
8
BLACK
6
CONTINUOUS
10
3.57805
20
0.102174
11
3.55385
21
0.0779687
0
LINE
8
BLACK
6
CONTINUOUS
10
3.55385
20
0.0779687
11
3.5784
21
0.0779687
0
LINE
8
BLACK
6
CONTINUOUS
10
3.5784
20
0.0779687
11
3.57941
21
0.0777906
0
LINE
8
BLACK
6
CONTINUOUS
10
3.57941
20
0.0777906
11
3.58096
21
0.0764923
0
LINE
8
BLACK
6
CONTINUOUS
10
3.58096
20
0.0764923
11
3.58131
21
0.0745032
0
LINE
8
BLACK
6
CONTINUOUS
10
3.58131
20
0.0745032
11
3.5803
21
0.072754
0
LINE
8
BLACK
6
CONTINUOUS
10
3.5803
20
0.072754
11
3.5784
21
0.0720632
0
LINE
8
BLACK
6
CONTINUOUS
10
3.5784
20
0.0720632
11
3.54672
21
0.0720632
0
LINE
8
BLACK
6
CONTINUOUS
10
3.54672
20
0.0720632
11
3.54608
21
0.0721751
0
LINE
8
BLACK
6
CONTINUOUS
10
3.54608
20
0.0721751
11
3.54595
21
0.0721638
0
LINE
8
BLACK
6
CONTINUOUS
10
3.54595
20
0.0721638
11
3.54589
21
0.0722094
0
LINE
8
BLACK
6
CONTINUOUS
10
3.54589
20
0.0722094
11
3.54571
21
0.0722413
0
LINE
8
BLACK
6
CONTINUOUS
10
3.54571
20
0.0722413
11
3.54503
21
0.0728126
0
LINE
8
BLACK
6
CONTINUOUS
10
3.54503
20
0.0728126
11
3.5443
21
0.0733223
0
LINE
8
BLACK
6
CONTINUOUS
10
3.5443
20
0.0733223
11
3.54427
21
0.0734528
0
LINE
8
BLACK
6
CONTINUOUS
10
3.54427
20
0.0734528
11
3.54416
21
0.0735396
0
LINE
8
BLACK
6
CONTINUOUS
10
3.54416
20
0.0735396
11
3.54401
21
0.0744149
0
LINE
8
BLACK
6
CONTINUOUS
10
3.54401
20
0.0744149
11
3.54378
21
0.0752733
0
LINE
8
BLACK
6
CONTINUOUS
10
3.54378
20
0.0752733
11
3.54383
21
0.0753956
0
LINE
8
BLACK
6
CONTINUOUS
10
3.54383
20
0.0753956
11
3.54381
21
0.0755287
0
LINE
8
BLACK
6
CONTINUOUS
10
3.54381
20
0.0755287
11
3.54426
21
0.0762986
0
LINE
8
BLACK
6
CONTINUOUS
10
3.54426
20
0.0762986
11
3.54463
21
0.0771039
0
LINE
8
BLACK
6
CONTINUOUS
10
3.54463
20
0.0771039
11
3.57338
21
0.105857
0
LINE
8
BLACK
6
CONTINUOUS
10
3.57338
20
0.105857
11
3.57545
21
0.112053
0
LINE
8
BLACK
6
CONTINUOUS
10
3.57545
20
0.112053
11
3.57545
21
0.115751
0
LINE
8
BLACK
6
CONTINUOUS
10
3.57545
20
0.115751
11
3.57354
21
0.119574
0
LINE
8
BLACK
6
CONTINUOUS
10
3.57354
20
0.119574
11
3.57178
21
0.121333
0
LINE
8
BLACK
6
CONTINUOUS
10
3.57178
20
0.121333
11
3.56796
21
0.123244
0
LINE
8
BLACK
6
CONTINUOUS
10
3.56796
20
0.123244
11
3.55716
21
0.123244
0
LINE
8
BLACK
6
CONTINUOUS
10
3.55716
20
0.123244
11
3.55334
21
0.121333
0
LINE
8
BLACK
6
CONTINUOUS
10
3.55334
20
0.121333
11
3.55124
21
0.119235
0
LINE
8
BLACK
6
CONTINUOUS
10
3.55124
20
0.119235
11
3.5504
21
0.118647
0
LINE
8
BLACK
6
CONTINUOUS
10
3.5504
20
0.118647
11
3.54839
21
0.118471
0
LINE
8
BLACK
6
CONTINUOUS
10
3.54839
20
0.118471
11
3.54674
21
0.119629
0
LINE
8
BLACK
6
CONTINUOUS
10
3.54674
20
0.119629
11
3.54621
21
0.12158
0
LINE
8
BLACK
6
CONTINUOUS
10
3.54621
20
0.12158
11
3.54707
21
0.123411
0
LINE
8
BLACK
6
CONTINUOUS
10
3.54707
20
0.123411
11
3.54951
21
0.125848
0
LINE
8
BLACK
6
CONTINUOUS
10
3.54951
20
0.125848
11
3.55023
21
0.126354
0
LINE
8
BLACK
6
CONTINUOUS
10
3.55023
20
0.126354
11
3.55027
21
0.126401
0
LINE
8
BLACK
6
CONTINUOUS
10
3.55027
20
0.126401
11
3.55515
21
0.128838
0
LINE
8
BLACK
6
CONTINUOUS
10
3.55515
20
0.128838
11
3.55613
21
0.12913
0
LINE
8
BLACK
6
CONTINUOUS
10
3.55613
20
0.12913
11
3.5563
21
0.129089
0
LINE
8
BLACK
6
CONTINUOUS
10
3.5563
20
0.129089
11
3.55647
21
0.12915
0
LINE
8
BLACK
6
CONTINUOUS
10
3.55647
20
0.12915
11
3.56865
21
0.12915
0
LINE
8
BLACK
6
CONTINUOUS
10
3.56865
20
0.12915
11
3.56966
21
0.128972
0
LINE
8
BLACK
6
CONTINUOUS
10
3.51848
20
0.128972
11
3.51862
21
0.128858
0
LINE
8
BLACK
6
CONTINUOUS
10
3.51862
20
0.128858
11
3.51879
21
0.128838
0
LINE
8
BLACK
6
CONTINUOUS
10
3.51879
20
0.128838
11
3.52367
21
0.126401
0
LINE
8
BLACK
6
CONTINUOUS
10
3.52367
20
0.126401
11
3.52438
21
0.125875
0
LINE
8
BLACK
6
CONTINUOUS
10
3.52438
20
0.125875
11
3.52444
21
0.125848
0
LINE
8
BLACK
6
CONTINUOUS
10
3.52444
20
0.125848
11
3.52687
21
0.123411
0
LINE
8
BLACK
6
CONTINUOUS
10
3.52687
20
0.123411
11
3.52738
21
0.122688
0
LINE
8
BLACK
6
CONTINUOUS
10
3.52738
20
0.122688
11
3.52743
21
0.122643
0
LINE
8
BLACK
6
CONTINUOUS
10
3.52743
20
0.122643
11
3.52986
21
0.117769
0
LINE
8
BLACK
6
CONTINUOUS
10
3.52986
20
0.117769
11
3.53001
21
0.11728
0
LINE
8
BLACK
6
CONTINUOUS
10
3.53001
20
0.11728
11
3.53009
21
0.117164
0
LINE
8
BLACK
6
CONTINUOUS
10
3.53009
20
0.117164
11
3.53252
21
0.107416
0
LINE
8
BLACK
6
CONTINUOUS
10
3.53252
20
0.107416
11
3.53256
21
0.106828
0
LINE
8
BLACK
6
CONTINUOUS
10
3.53256
20
0.106828
11
3.53261
21
0.106699
0
LINE
8
BLACK
6
CONTINUOUS
10
3.53261
20
0.106699
11
3.53261
21
0.0945135
0
LINE
8
BLACK
6
CONTINUOUS
10
3.53261
20
0.0945135
11
3.53251
21
0.0939331
0
LINE
8
BLACK
6
CONTINUOUS
10
3.53251
20
0.0939331
11
3.53252
21
0.0937974
0
LINE
8
BLACK
6
CONTINUOUS
10
3.53252
20
0.0937974
11
3.53009
21
0.0840486
0
LINE
8
BLACK
6
CONTINUOUS
10
3.53009
20
0.0840486
11
3.52988
21
0.0835831
0
LINE
8
BLACK
6
CONTINUOUS
10
3.52988
20
0.0835831
11
3.52986
21
0.0834442
0
LINE
8
BLACK
6
CONTINUOUS
10
3.52986
20
0.0834442
11
3.52743
21
0.0785698
0
LINE
8
BLACK
6
CONTINUOUS
10
3.52743
20
0.0785698
11
3.5269
21
0.0778609
0
LINE
8
BLACK
6
CONTINUOUS
10
3.5269
20
0.0778609
11
3.52687
21
0.0778024
0
LINE
8
BLACK
6
CONTINUOUS
10
3.52687
20
0.0778024
11
3.52444
21
0.0753652
0
LINE
8
BLACK
6
CONTINUOUS
10
3.52444
20
0.0753652
11
3.52371
21
0.0748589
0
LINE
8
BLACK
6
CONTINUOUS
10
3.52371
20
0.0748589
11
3.52367
21
0.0748121
0
LINE
8
BLACK
6
CONTINUOUS
10
3.52367
20
0.0748121
11
3.51879
21
0.0723749
0
LINE
8
BLACK
6
CONTINUOUS
10
3.51879
20
0.0723749
11
3.51781
21
0.0720826
0
LINE
8
BLACK
6
CONTINUOUS
10
3.51781
20
0.0720826
11
3.51764
21
0.0721236
0
LINE
8
BLACK
6
CONTINUOUS
10
3.51764
20
0.0721236
11
3.51747
21
0.0720632
0
LINE
8
BLACK
6
CONTINUOUS
10
3.51747
20
0.0720632
11
3.5126
21
0.0720632
0
LINE
8
BLACK
6
CONTINUOUS
10
3.5126
20
0.0720632
11
3.51159
21
0.0722413
0
LINE
8
BLACK
6
CONTINUOUS
10
3.51159
20
0.0722413
11
3.51145
21
0.0723547
0
LINE
8
BLACK
6
CONTINUOUS
10
3.51145
20
0.0723547
11
3.51128
21
0.0723749
0
LINE
8
BLACK
6
CONTINUOUS
10
3.51128
20
0.0723749
11
3.5064
21
0.0748121
0
LINE
8
BLACK
6
CONTINUOUS
10
3.5064
20
0.0748121
11
3.50569
21
0.075338
0
LINE
8
BLACK
6
CONTINUOUS
10
3.50569
20
0.075338
11
3.50564
21
0.0753652
0
LINE
8
BLACK
6
CONTINUOUS
10
3.50564
20
0.0753652
11
3.5032
21
0.0778024
0
LINE
8
BLACK
6
CONTINUOUS
10
3.5032
20
0.0778024
11
3.50269
21
0.0785255
0
LINE
8
BLACK
6
CONTINUOUS
10
3.50269
20
0.0785255
11
3.50265
21
0.0785698
0
LINE
8
BLACK
6
CONTINUOUS
10
3.50265
20
0.0785698
11
3.50021
21
0.0834442
0
LINE
8
BLACK
6
CONTINUOUS
10
3.50021
20
0.0834442
11
3.50006
21
0.0839327
0
LINE
8
BLACK
6
CONTINUOUS
10
3.50006
20
0.0839327
11
3.49999
21
0.0840486
0
LINE
8
BLACK
6
CONTINUOUS
10
3.49999
20
0.0840486
11
3.49755
21
0.0937974
0
LINE
8
BLACK
6
CONTINUOUS
10
3.49755
20
0.0937974
11
3.49751
21
0.0943853
0
LINE
8
BLACK
6
CONTINUOUS
10
3.49751
20
0.0943853
11
3.49746
21
0.0945135
0
LINE
8
BLACK
6
CONTINUOUS
10
3.49746
20
0.0945135
11
3.49746
21
0.106699
0
LINE
8
BLACK
6
CONTINUOUS
10
3.49746
20
0.106699
11
3.49756
21
0.10728
0
LINE
8
BLACK
6
CONTINUOUS
10
3.49756
20
0.10728
11
3.49755
21
0.107416
0
LINE
8
BLACK
6
CONTINUOUS
10
3.49755
20
0.107416
11
3.49999
21
0.117164
0
LINE
8
BLACK
6
CONTINUOUS
10
3.49999
20
0.117164
11
3.50019
21
0.11763
0
LINE
8
BLACK
6
CONTINUOUS
10
3.50019
20
0.11763
11
3.50021
21
0.117769
0
LINE
8
BLACK
6
CONTINUOUS
10
3.50021
20
0.117769
11
3.50265
21
0.122643
0
LINE
8
BLACK
6
CONTINUOUS
10
3.50265
20
0.122643
11
3.50317
21
0.123352
0
LINE
8
BLACK
6
CONTINUOUS
10
3.50317
20
0.123352
11
3.5032
21
0.123411
0
LINE
8
BLACK
6
CONTINUOUS
10
3.5032
20
0.123411
11
3.50564
21
0.125848
0
LINE
8
BLACK
6
CONTINUOUS
10
3.50564
20
0.125848
11
3.50636
21
0.126354
0
LINE
8
BLACK
6
CONTINUOUS
10
3.50636
20
0.126354
11
3.5064
21
0.126401
0
LINE
8
BLACK
6
CONTINUOUS
10
3.5064
20
0.126401
11
3.51128
21
0.128838
0
LINE
8
BLACK
6
CONTINUOUS
10
3.51128
20
0.128838
11
3.51226
21
0.12913
0
LINE
8
BLACK
6
CONTINUOUS
10
3.51226
20
0.12913
11
3.51243
21
0.129089
0
LINE
8
BLACK
6
CONTINUOUS
10
3.51243
20
0.129089
11
3.5126
21
0.12915
0
LINE
8
BLACK
6
CONTINUOUS
10
3.5126
20
0.12915
11
3.51747
21
0.12915
0
LINE
8
BLACK
6
CONTINUOUS
10
3.51747
20
0.12915
11
3.51848
21
0.128972
0
LINE
8
BLACK
6
CONTINUOUS
10
3.5133
20
0.123244
11
3.50947
21
0.121333
0
LINE
8
BLACK
6
CONTINUOUS
10
3.50947
20
0.121333
11
3.50771
21
0.119574
0
LINE
8
BLACK
6
CONTINUOUS
10
3.50771
20
0.119574
11
3.50564
21
0.115418
0
LINE
8
BLACK
6
CONTINUOUS
10
3.50564
20
0.115418
11
3.50337
21
0.106336
0
LINE
8
BLACK
6
CONTINUOUS
10
3.50337
20
0.106336
11
3.50337
21
0.094877
0
LINE
8
BLACK
6
CONTINUOUS
10
3.50337
20
0.094877
11
3.50564
21
0.0857953
0
LINE
8
BLACK
6
CONTINUOUS
10
3.50564
20
0.0857953
11
3.50771
21
0.0816394
0
LINE
8
BLACK
6
CONTINUOUS
10
3.50771
20
0.0816394
11
3.50947
21
0.0798799
0
LINE
8
BLACK
6
CONTINUOUS
10
3.50947
20
0.0798799
11
3.5133
21
0.0779687
0
LINE
8
BLACK
6
CONTINUOUS
10
3.5133
20
0.0779687
11
3.51678
21
0.0779687
0
LINE
8
BLACK
6
CONTINUOUS
10
3.51678
20
0.0779687
11
3.5206
21
0.0798799
0
LINE
8
BLACK
6
CONTINUOUS
10
3.5206
20
0.0798799
11
3.52236
21
0.0816394
0
LINE
8
BLACK
6
CONTINUOUS
10
3.52236
20
0.0816394
11
3.52444
21
0.0857953
0
LINE
8
BLACK
6
CONTINUOUS
10
3.52444
20
0.0857953
11
3.52671
21
0.094877
0
LINE
8
BLACK
6
CONTINUOUS
10
3.52671
20
0.094877
11
3.52671
21
0.106336
0
LINE
8
BLACK
6
CONTINUOUS
10
3.52671
20
0.106336
11
3.52444
21
0.115418
0
LINE
8
BLACK
6
CONTINUOUS
10
3.52444
20
0.115418
11
3.52236
21
0.119574
0
LINE
8
BLACK
6
CONTINUOUS
10
3.52236
20
0.119574
11
3.5206
21
0.121333
0
LINE
8
BLACK
6
CONTINUOUS
10
3.5206
20
0.121333
11
3.51678
21
0.123244
0
LINE
8
BLACK
6
CONTINUOUS
10
3.51678
20
0.123244
11
3.5133
21
0.123244
0
LINE
8
BLACK
6
CONTINUOUS
10
3.47218
20
0.128972
11
3.47231
21
0.128858
0
LINE
8
BLACK
6
CONTINUOUS
10
3.47231
20
0.128858
11
3.47249
21
0.128838
0
LINE
8
BLACK
6
CONTINUOUS
10
3.47249
20
0.128838
11
3.47736
21
0.126401
0
LINE
8
BLACK
6
CONTINUOUS
10
3.47736
20
0.126401
11
3.47807
21
0.125875
0
LINE
8
BLACK
6
CONTINUOUS
10
3.47807
20
0.125875
11
3.47813
21
0.125848
0
LINE
8
BLACK
6
CONTINUOUS
10
3.47813
20
0.125848
11
3.48057
21
0.123411
0
LINE
8
BLACK
6
CONTINUOUS
10
3.48057
20
0.123411
11
3.48107
21
0.122687
0
LINE
8
BLACK
6
CONTINUOUS
10
3.48107
20
0.122687
11
3.48112
21
0.122643
0
LINE
8
BLACK
6
CONTINUOUS
10
3.48112
20
0.122643
11
3.48356
21
0.117769
0
LINE
8
BLACK
6
CONTINUOUS
10
3.48356
20
0.117769
11
3.48385
21
0.116786
0
LINE
8
BLACK
6
CONTINUOUS
10
3.48385
20
0.116786
11
3.48381
21
0.116614
0
LINE
8
BLACK
6
CONTINUOUS
10
3.48381
20
0.116614
11
3.48387
21
0.116448
0
LINE
8
BLACK
6
CONTINUOUS
10
3.48387
20
0.116448
11
3.48387
21
0.111574
0
LINE
8
BLACK
6
CONTINUOUS
10
3.48387
20
0.111574
11
3.48371
21
0.110704
0
LINE
8
BLACK
6
CONTINUOUS
10
3.48371
20
0.110704
11
3.48372
21
0.11064
0
LINE
8
BLACK
6
CONTINUOUS
10
3.48372
20
0.11064
11
3.48128
21
0.103329
0
LINE
8
BLACK
6
CONTINUOUS
10
3.48128
20
0.103329
11
3.48079
21
0.102427
0
LINE
8
BLACK
6
CONTINUOUS
10
3.48079
20
0.102427
11
3.48064
21
0.102334
0
LINE
8
BLACK
6
CONTINUOUS
10
3.48064
20
0.102334
11
3.48057
21
0.102174
0
LINE
8
BLACK
6
CONTINUOUS
10
3.48057
20
0.102174
11
3.45636
21
0.0779687
0
LINE
8
BLACK
6
CONTINUOUS
10
3.45636
20
0.0779687
11
3.48091
21
0.0779687
0
LINE
8
BLACK
6
CONTINUOUS
10
3.48091
20
0.0779687
11
3.48192
21
0.0777906
0
LINE
8
BLACK
6
CONTINUOUS
10
3.48192
20
0.0777906
11
3.48347
21
0.0764923
0
LINE
8
BLACK
6
CONTINUOUS
10
3.48347
20
0.0764923
11
3.48382
21
0.0745032
0
LINE
8
BLACK
6
CONTINUOUS
10
3.48382
20
0.0745032
11
3.48281
21
0.072754
0
LINE
8
BLACK
6
CONTINUOUS
10
3.48281
20
0.072754
11
3.48091
21
0.0720632
0
LINE
8
BLACK
6
CONTINUOUS
10
3.48091
20
0.0720632
11
3.44923
21
0.0720632
0
LINE
8
BLACK
6
CONTINUOUS
10
3.44923
20
0.0720632
11
3.4486
21
0.0721751
0
LINE
8
BLACK
6
CONTINUOUS
10
3.4486
20
0.0721751
11
3.44847
21
0.0721638
0
LINE
8
BLACK
6
CONTINUOUS
10
3.44847
20
0.0721638
11
3.4484
21
0.0722094
0
LINE
8
BLACK
6
CONTINUOUS
10
3.4484
20
0.0722094
11
3.44822
21
0.0722413
0
LINE
8
BLACK
6
CONTINUOUS
10
3.44822
20
0.0722413
11
3.44754
21
0.0728126
0
LINE
8
BLACK
6
CONTINUOUS
10
3.44754
20
0.0728126
11
3.44681
21
0.0733223
0
LINE
8
BLACK
6
CONTINUOUS
10
3.44681
20
0.0733223
11
3.44678
21
0.0734528
0
LINE
8
BLACK
6
CONTINUOUS
10
3.44678
20
0.0734528
11
3.44667
21
0.0735396
0
LINE
8
BLACK
6
CONTINUOUS
10
3.44667
20
0.0735396
11
3.44652
21
0.0744149
0
LINE
8
BLACK
6
CONTINUOUS
10
3.44652
20
0.0744149
11
3.44629
21
0.0752733
0
LINE
8
BLACK
6
CONTINUOUS
10
3.44629
20
0.0752733
11
3.44635
21
0.0753956
0
LINE
8
BLACK
6
CONTINUOUS
10
3.44635
20
0.0753956
11
3.44632
21
0.0755287
0
LINE
8
BLACK
6
CONTINUOUS
10
3.44632
20
0.0755287
11
3.44677
21
0.0762986
0
LINE
8
BLACK
6
CONTINUOUS
10
3.44677
20
0.0762986
11
3.44714
21
0.0771039
0
LINE
8
BLACK
6
CONTINUOUS
10
3.44714
20
0.0771039
11
3.4759
21
0.105857
0
LINE
8
BLACK
6
CONTINUOUS
10
3.4759
20
0.105857
11
3.47796
21
0.112053
0
LINE
8
BLACK
6
CONTINUOUS
10
3.47796
20
0.112053
11
3.47796
21
0.115751
0
LINE
8
BLACK
6
CONTINUOUS
10
3.47796
20
0.115751
11
3.47605
21
0.119574
0
LINE
8
BLACK
6
CONTINUOUS
10
3.47605
20
0.119574
11
3.47429
21
0.121333
0
LINE
8
BLACK
6
CONTINUOUS
10
3.47429
20
0.121333
11
3.47047
21
0.123244
0
LINE
8
BLACK
6
CONTINUOUS
10
3.47047
20
0.123244
11
3.45968
21
0.123244
0
LINE
8
BLACK
6
CONTINUOUS
10
3.45968
20
0.123244
11
3.45585
21
0.121333
0
LINE
8
BLACK
6
CONTINUOUS
10
3.45585
20
0.121333
11
3.45376
21
0.119235
0
LINE
8
BLACK
6
CONTINUOUS
10
3.45376
20
0.119235
11
3.45292
21
0.118647
0
LINE
8
BLACK
6
CONTINUOUS
10
3.45292
20
0.118647
11
3.4509
21
0.118471
0
LINE
8
BLACK
6
CONTINUOUS
10
3.4509
20
0.118471
11
3.44925
21
0.119629
0
LINE
8
BLACK
6
CONTINUOUS
10
3.44925
20
0.119629
11
3.44873
21
0.12158
0
LINE
8
BLACK
6
CONTINUOUS
10
3.44873
20
0.12158
11
3.44958
21
0.123411
0
LINE
8
BLACK
6
CONTINUOUS
10
3.44958
20
0.123411
11
3.45202
21
0.125848
0
LINE
8
BLACK
6
CONTINUOUS
10
3.45202
20
0.125848
11
3.45274
21
0.126354
0
LINE
8
BLACK
6
CONTINUOUS
10
3.45274
20
0.126354
11
3.45279
21
0.126401
0
LINE
8
BLACK
6
CONTINUOUS
10
3.45279
20
0.126401
11
3.45766
21
0.128838
0
LINE
8
BLACK
6
CONTINUOUS
10
3.45766
20
0.128838
11
3.45864
21
0.12913
0
LINE
8
BLACK
6
CONTINUOUS
10
3.45864
20
0.12913
11
3.45881
21
0.129089
0
LINE
8
BLACK
6
CONTINUOUS
10
3.45881
20
0.129089
11
3.45898
21
0.12915
0
LINE
8
BLACK
6
CONTINUOUS
10
3.45898
20
0.12915
11
3.47117
21
0.12915
0
LINE
8
BLACK
6
CONTINUOUS
10
3.47117
20
0.12915
11
3.47218
21
0.128972
0
LINE
8
BLACK
6
CONTINUOUS
10
3.30592
20
0.128931
11
3.30684
21
0.128794
0
LINE
8
BLACK
6
CONTINUOUS
10
3.30684
20
0.128794
11
3.3069
21
0.12873
0
LINE
8
BLACK
6
CONTINUOUS
10
3.3069
20
0.12873
11
3.30698
21
0.128713
0
LINE
8
BLACK
6
CONTINUOUS
10
3.30698
20
0.128713
11
3.30756
21
0.127982
0
LINE
8
BLACK
6
CONTINUOUS
10
3.30756
20
0.127982
11
3.30818
21
0.127282
0
LINE
8
BLACK
6
CONTINUOUS
10
3.30818
20
0.127282
11
3.30819
21
0.127197
0
LINE
8
BLACK
6
CONTINUOUS
10
3.30819
20
0.127197
11
3.30824
21
0.127131
0
LINE
8
BLACK
6
CONTINUOUS
10
3.30824
20
0.127131
11
3.3253
21
0.0759497
0
LINE
8
BLACK
6
CONTINUOUS
10
3.3253
20
0.0759497
11
3.32545
21
0.0749353
0
LINE
8
BLACK
6
CONTINUOUS
10
3.32545
20
0.0749353
11
3.32471
21
0.0730569
0
LINE
8
BLACK
6
CONTINUOUS
10
3.32471
20
0.0730569
11
3.32293
21
0.0720951
0
LINE
8
BLACK
6
CONTINUOUS
10
3.32293
20
0.0720951
11
3.32095
21
0.0725001
0
LINE
8
BLACK
6
CONTINUOUS
10
3.32095
20
0.0725001
11
3.3197
21
0.0740822
0
LINE
8
BLACK
6
CONTINUOUS
10
3.3197
20
0.0740822
11
3.31549
21
0.0866864
0
LINE
8
BLACK
6
CONTINUOUS
10
3.31549
20
0.0866864
11
3.29538
21
0.0866864
0
LINE
8
BLACK
6
CONTINUOUS
10
3.29538
20
0.0866864
11
3.29118
21
0.0740822
0
LINE
8
BLACK
6
CONTINUOUS
10
3.29118
20
0.0740822
11
3.29069
21
0.0731804
0
LINE
8
BLACK
6
CONTINUOUS
10
3.29069
20
0.0731804
11
3.28897
21
0.0721231
0
LINE
8
BLACK
6
CONTINUOUS
10
3.28897
20
0.0721231
11
3.28697
21
0.0724194
0
LINE
8
BLACK
6
CONTINUOUS
10
3.28697
20
0.0724194
11
3.28563
21
0.0739306
0
LINE
8
BLACK
6
CONTINUOUS
10
3.28563
20
0.0739306
11
3.28558
21
0.0759497
0
LINE
8
BLACK
6
CONTINUOUS
10
3.28558
20
0.0759497
11
3.30264
21
0.127131
0
LINE
8
BLACK
6
CONTINUOUS
10
3.30264
20
0.127131
11
3.30312
21
0.128033
0
LINE
8
BLACK
6
CONTINUOUS
10
3.30312
20
0.128033
11
3.3032
21
0.128077
0
LINE
8
BLACK
6
CONTINUOUS
10
3.3032
20
0.128077
11
3.30323
21
0.128156
0
LINE
8
BLACK
6
CONTINUOUS
10
3.30323
20
0.128156
11
3.30405
21
0.128601
0
LINE
8
BLACK
6
CONTINUOUS
10
3.30405
20
0.128601
11
3.30484
21
0.12909
0
LINE
8
BLACK
6
CONTINUOUS
10
3.30484
20
0.12909
11
3.30493
21
0.129077
0
LINE
8
BLACK
6
CONTINUOUS
10
3.30493
20
0.129077
11
3.305
21
0.129118
0
LINE
8
BLACK
6
CONTINUOUS
10
3.305
20
0.129118
11
3.30592
21
0.128931
0
LINE
8
BLACK
6
CONTINUOUS
10
3.29735
20
0.0925919
11
3.31353
21
0.0925919
0
LINE
8
BLACK
6
CONTINUOUS
10
3.31353
20
0.0925919
11
3.30544
21
0.11686
0
LINE
8
BLACK
6
CONTINUOUS
10
3.30544
20
0.11686
11
3.29735
21
0.0925919
0
LINE
8
BLACK
6
CONTINUOUS
10
3.23001
20
0.129036
11
3.2304
21
0.129105
0
LINE
8
BLACK
6
CONTINUOUS
10
3.2304
20
0.129105
11
3.23096
21
0.128782
0
LINE
8
BLACK
6
CONTINUOUS
10
3.23096
20
0.128782
11
3.23158
21
0.128615
0
LINE
8
BLACK
6
CONTINUOUS
10
3.23158
20
0.128615
11
3.2318
21
0.128292
0
LINE
8
BLACK
6
CONTINUOUS
10
3.2318
20
0.128292
11
3.23215
21
0.128095
0
LINE
8
BLACK
6
CONTINUOUS
10
3.23215
20
0.128095
11
3.23237
21
0.127489
0
LINE
8
BLACK
6
CONTINUOUS
10
3.23237
20
0.127489
11
3.23274
21
0.12696
0
LINE
8
BLACK
6
CONTINUOUS
10
3.23274
20
0.12696
11
3.2327
21
0.126568
0
LINE
8
BLACK
6
CONTINUOUS
10
3.2327
20
0.126568
11
3.23284
21
0.126197
0
LINE
8
BLACK
6
CONTINUOUS
10
3.23284
20
0.126197
11
3.23284
21
0.0750159
0
LINE
8
BLACK
6
CONTINUOUS
10
3.23284
20
0.0750159
11
3.23266
21
0.074006
0
LINE
8
BLACK
6
CONTINUOUS
10
3.23266
20
0.074006
11
3.23136
21
0.0724588
0
LINE
8
BLACK
6
CONTINUOUS
10
3.23136
20
0.0724588
11
3.22937
21
0.072108
0
LINE
8
BLACK
6
CONTINUOUS
10
3.22937
20
0.072108
11
3.22762
21
0.073118
0
LINE
8
BLACK
6
CONTINUOUS
10
3.22762
20
0.073118
11
3.22693
21
0.0750159
0
LINE
8
BLACK
6
CONTINUOUS
10
3.22693
20
0.0750159
11
3.22693
21
0.112887
0
LINE
8
BLACK
6
CONTINUOUS
10
3.22693
20
0.112887
11
3.2155
21
0.0883905
0
LINE
8
BLACK
6
CONTINUOUS
10
3.2155
20
0.0883905
11
3.21528
21
0.0880727
0
LINE
8
BLACK
6
CONTINUOUS
10
3.21528
20
0.0880727
11
3.21524
21
0.0879462
0
LINE
8
BLACK
6
CONTINUOUS
10
3.21524
20
0.0879462
11
3.21514
21
0.0878708
0
LINE
8
BLACK
6
CONTINUOUS
10
3.21514
20
0.0878708
11
3.21491
21
0.0875506
0
LINE
8
BLACK
6
CONTINUOUS
10
3.21491
20
0.0875506
11
3.21422
21
0.0872269
0
LINE
8
BLACK
6
CONTINUOUS
10
3.21422
20
0.0872269
11
3.21359
21
0.0867872
0
LINE
8
BLACK
6
CONTINUOUS
10
3.21359
20
0.0867872
11
3.21332
21
0.0868104
0
LINE
8
BLACK
6
CONTINUOUS
10
3.21332
20
0.0868104
11
3.21308
21
0.0866975
0
LINE
8
BLACK
6
CONTINUOUS
10
3.21308
20
0.0866975
11
3.21234
21
0.0868961
0
LINE
8
BLACK
6
CONTINUOUS
10
3.21234
20
0.0868961
11
3.21158
21
0.0869627
0
LINE
8
BLACK
6
CONTINUOUS
10
3.21158
20
0.0869627
11
3.21139
21
0.0871516
0
LINE
8
BLACK
6
CONTINUOUS
10
3.21139
20
0.0871516
11
3.21113
21
0.0872209
0
LINE
8
BLACK
6
CONTINUOUS
10
3.21113
20
0.0872209
11
3.21069
21
0.0878489
0
LINE
8
BLACK
6
CONTINUOUS
10
3.21069
20
0.0878489
11
3.21015
21
0.0883905
0
LINE
8
BLACK
6
CONTINUOUS
10
3.21015
20
0.0883905
11
3.19872
21
0.112887
0
LINE
8
BLACK
6
CONTINUOUS
10
3.19872
20
0.112887
11
3.19872
21
0.0750159
0
LINE
8
BLACK
6
CONTINUOUS
10
3.19872
20
0.0750159
11
3.19854
21
0.074006
0
LINE
8
BLACK
6
CONTINUOUS
10
3.19854
20
0.074006
11
3.19724
21
0.0724588
0
LINE
8
BLACK
6
CONTINUOUS
10
3.19724
20
0.0724588
11
3.19525
21
0.072108
0
LINE
8
BLACK
6
CONTINUOUS
10
3.19525
20
0.072108
11
3.1935
21
0.073118
0
LINE
8
BLACK
6
CONTINUOUS
10
3.1935
20
0.073118
11
3.19281
21
0.0750159
0
LINE
8
BLACK
6
CONTINUOUS
10
3.19281
20
0.0750159
11
3.19281
21
0.126197
0
LINE
8
BLACK
6
CONTINUOUS
10
3.19281
20
0.126197
11
3.19299
21
0.127207
0
LINE
8
BLACK
6
CONTINUOUS
10
3.19299
20
0.127207
11
3.19324
21
0.127509
0
LINE
8
BLACK
6
CONTINUOUS
10
3.19324
20
0.127509
11
3.19334
21
0.12789
0
LINE
8
BLACK
6
CONTINUOUS
10
3.19334
20
0.12789
11
3.19387
21
0.12826
0
LINE
8
BLACK
6
CONTINUOUS
10
3.19387
20
0.12826
11
3.19429
21
0.128754
0
LINE
8
BLACK
6
CONTINUOUS
10
3.19429
20
0.128754
11
3.19467
21
0.128823
0
LINE
8
BLACK
6
CONTINUOUS
10
3.19467
20
0.128823
11
3.195
21
0.129049
0
LINE
8
BLACK
6
CONTINUOUS
10
3.195
20
0.129049
11
3.19564
21
0.128993
0
LINE
8
BLACK
6
CONTINUOUS
10
3.19564
20
0.128993
11
3.19628
21
0.129105
0
LINE
8
BLACK
6
CONTINUOUS
10
3.19628
20
0.129105
11
3.19662
21
0.128908
0
LINE
8
BLACK
6
CONTINUOUS
10
3.19662
20
0.128908
11
3.19701
21
0.128874
0
LINE
8
BLACK
6
CONTINUOUS
10
3.19701
20
0.128874
11
3.19747
21
0.128418
0
LINE
8
BLACK
6
CONTINUOUS
10
3.19747
20
0.128418
11
3.19802
21
0.128095
0
LINE
8
BLACK
6
CONTINUOUS
10
3.19802
20
0.128095
11
3.19816
21
0.127724
0
LINE
8
BLACK
6
CONTINUOUS
10
3.19816
20
0.127724
11
3.19844
21
0.127446
0
LINE
8
BLACK
6
CONTINUOUS
10
3.19844
20
0.127446
11
3.21282
21
0.0966215
0
LINE
8
BLACK
6
CONTINUOUS
10
3.21282
20
0.0966215
11
3.22721
21
0.127446
0
LINE
8
BLACK
6
CONTINUOUS
10
3.22721
20
0.127446
11
3.2278
21
0.128286
0
LINE
8
BLACK
6
CONTINUOUS
10
3.2278
20
0.128286
11
3.22815
21
0.128452
0
LINE
8
BLACK
6
CONTINUOUS
10
3.22815
20
0.128452
11
3.22841
21
0.128754
0
LINE
8
BLACK
6
CONTINUOUS
10
3.22841
20
0.128754
11
3.22904
21
0.128866
0
LINE
8
BLACK
6
CONTINUOUS
10
3.22904
20
0.128866
11
3.22963
21
0.129139
0
LINE
8
BLACK
6
CONTINUOUS
10
3.22963
20
0.129139
11
3.23001
21
0.129036
0
LINE
8
BLACK
6
CONTINUOUS
10
2.80235
20
0.30131
11
2.80248
21
0.301333
0
LINE
8
BLACK
6
CONTINUOUS
10
2.80248
20
0.301333
11
2.80259
21
0.301268
0
LINE
8
BLACK
6
CONTINUOUS
10
2.80259
20
0.301268
11
2.80298
21
0.3012
0
LINE
8
BLACK
6
CONTINUOUS
10
2.80298
20
0.3012
11
2.80357
21
0.300707
0
LINE
8
BLACK
6
CONTINUOUS
10
2.80357
20
0.300707
11
2.80423
21
0.300323
0
LINE
8
BLACK
6
CONTINUOUS
10
2.80423
20
0.300323
11
2.80432
21
0.300073
0
LINE
8
BLACK
6
CONTINUOUS
10
2.80432
20
0.300073
11
2.80453
21
0.299902
0
LINE
8
BLACK
6
CONTINUOUS
10
2.80453
20
0.299902
11
2.80466
21
0.299146
0
LINE
8
BLACK
6
CONTINUOUS
10
2.80466
20
0.299146
11
2.80492
21
0.298425
0
LINE
8
BLACK
6
CONTINUOUS
10
2.80492
20
0.298425
11
2.80492
21
0.0984252
0
LINE
8
BLACK
6
CONTINUOUS
10
2.80492
20
0.0984252
11
2.80485
21
0.0980417
0
LINE
8
BLACK
6
CONTINUOUS
10
2.80485
20
0.0980417
11
2.80488
21
0.0979124
0
LINE
8
BLACK
6
CONTINUOUS
10
2.80488
20
0.0979124
11
2.80481
21
0.0977988
0
LINE
8
BLACK
6
CONTINUOUS
10
2.80481
20
0.0977988
11
2.80474
21
0.0974153
0
LINE
8
BLACK
6
CONTINUOUS
10
2.80474
20
0.0974153
11
2.80425
21
0.0968276
0
LINE
8
BLACK
6
CONTINUOUS
10
2.80425
20
0.0968276
11
2.80387
21
0.0961633
0
LINE
8
BLACK
6
CONTINUOUS
10
2.80387
20
0.0961633
11
2.80362
21
0.0960722
0
LINE
8
BLACK
6
CONTINUOUS
10
2.80362
20
0.0960722
11
2.80344
21
0.095868
0
LINE
8
BLACK
6
CONTINUOUS
10
2.80344
20
0.095868
11
2.80269
21
0.0957348
0
LINE
8
BLACK
6
CONTINUOUS
10
2.80269
20
0.0957348
11
2.80197
21
0.0954724
0
LINE
8
BLACK
6
CONTINUOUS
10
2.80197
20
0.0954724
11
2.30197
21
0.0954724
0
LINE
8
BLACK
6
CONTINUOUS
10
2.30197
20
0.0954724
11
2.30158
21
0.0955401
0
LINE
8
BLACK
6
CONTINUOUS
10
2.30158
20
0.0955401
11
2.30146
21
0.0955173
0
LINE
8
BLACK
6
CONTINUOUS
10
2.30146
20
0.0955173
11
2.30134
21
0.0955829
0
LINE
8
BLACK
6
CONTINUOUS
10
2.30134
20
0.0955829
11
2.30096
21
0.0956505
0
LINE
8
BLACK
6
CONTINUOUS
10
2.30096
20
0.0956505
11
2.30037
21
0.0961437
0
LINE
8
BLACK
6
CONTINUOUS
10
2.30037
20
0.0961437
11
2.29971
21
0.0965272
0
LINE
8
BLACK
6
CONTINUOUS
10
2.29971
20
0.0965272
11
2.29962
21
0.0967776
0
LINE
8
BLACK
6
CONTINUOUS
10
2.29962
20
0.0967776
11
2.29941
21
0.0969488
0
LINE
8
BLACK
6
CONTINUOUS
10
2.29941
20
0.0969488
11
2.29928
21
0.0977044
0
LINE
8
BLACK
6
CONTINUOUS
10
2.29928
20
0.0977044
11
2.29902
21
0.0984252
0
LINE
8
BLACK
6
CONTINUOUS
10
2.29902
20
0.0984252
11
2.29902
21
0.298425
0
LINE
8
BLACK
6
CONTINUOUS
10
2.29902
20
0.298425
11
2.29908
21
0.298809
0
LINE
8
BLACK
6
CONTINUOUS
10
2.29908
20
0.298809
11
2.29906
21
0.298938
0
LINE
8
BLACK
6
CONTINUOUS
10
2.29906
20
0.298938
11
2.29913
21
0.299052
0
LINE
8
BLACK
6
CONTINUOUS
10
2.29913
20
0.299052
11
2.29919
21
0.299435
0
LINE
8
BLACK
6
CONTINUOUS
10
2.29919
20
0.299435
11
2.29969
21
0.300023
0
LINE
8
BLACK
6
CONTINUOUS
10
2.29969
20
0.300023
11
2.30007
21
0.300687
0
LINE
8
BLACK
6
CONTINUOUS
10
2.30007
20
0.300687
11
2.30032
21
0.300778
0
LINE
8
BLACK
6
CONTINUOUS
10
2.30032
20
0.300778
11
2.30049
21
0.300982
0
LINE
8
BLACK
6
CONTINUOUS
10
2.30049
20
0.300982
11
2.30125
21
0.301116
0
LINE
8
BLACK
6
CONTINUOUS
10
2.30125
20
0.301116
11
2.30197
21
0.301378
0
LINE
8
BLACK
6
CONTINUOUS
10
2.30197
20
0.301378
11
2.80197
21
0.301378
0
LINE
8
BLACK
6
CONTINUOUS
10
2.80197
20
0.301378
11
2.80235
21
0.30131
0
LINE
8
BLACK
6
CONTINUOUS
10
2.30492
20
0.295472
11
2.30492
21
0.101378
0
LINE
8
BLACK
6
CONTINUOUS
10
2.30492
20
0.101378
11
2.79902
21
0.101378
0
LINE
8
BLACK
6
CONTINUOUS
10
2.79902
20
0.101378
11
2.79902
21
0.295472
0
LINE
8
BLACK
6
CONTINUOUS
10
2.79902
20
0.295472
11
2.30492
21
0.295472
0
LINE
8
BLACK
6
CONTINUOUS
10
2.38197
20
0.118425
11
2.32197
21
0.118425
0
LINE
8
BLACK
6
CONTINUOUS
10
2.32197
20
0.118425
11
2.32197
21
0.178425
0
LINE
8
BLACK
6
CONTINUOUS
10
2.32197
20
0.178425
11
2.38197
21
0.178425
0
LINE
8
BLACK
6
CONTINUOUS
10
2.38197
20
0.178425
11
2.38197
21
0.118425
0
LINE
8
BLACK
6
CONTINUOUS
10
2.48197
20
0.118425
11
2.42197
21
0.118425
0
LINE
8
BLACK
6
CONTINUOUS
10
2.42197
20
0.118425
11
2.42197
21
0.178425
0
LINE
8
BLACK
6
CONTINUOUS
10
2.42197
20
0.178425
11
2.48197
21
0.178425
0
LINE
8
BLACK
6
CONTINUOUS
10
2.48197
20
0.178425
11
2.48197
21
0.118425
0
LINE
8
BLACK
6
CONTINUOUS
10
2.78197
20
0.118425
11
2.72197
21
0.118425
0
LINE
8
BLACK
6
CONTINUOUS
10
2.72197
20
0.118425
11
2.72197
21
0.178425
0
LINE
8
BLACK
6
CONTINUOUS
10
2.72197
20
0.178425
11
2.78197
21
0.178425
0
LINE
8
BLACK
6
CONTINUOUS
10
2.78197
20
0.178425
11
2.78197
21
0.118425
0
LINE
8
BLACK
6
CONTINUOUS
10
2.58197
20
0.118425
11
2.52197
21
0.118425
0
LINE
8
BLACK
6
CONTINUOUS
10
2.52197
20
0.118425
11
2.52197
21
0.178425
0
LINE
8
BLACK
6
CONTINUOUS
10
2.52197
20
0.178425
11
2.58197
21
0.178425
0
LINE
8
BLACK
6
CONTINUOUS
10
2.58197
20
0.178425
11
2.58197
21
0.118425
0
LINE
8
BLACK
6
CONTINUOUS
10
2.68197
20
0.118425
11
2.62197
21
0.118425
0
LINE
8
BLACK
6
CONTINUOUS
10
2.62197
20
0.118425
11
2.62197
21
0.178425
0
LINE
8
BLACK
6
CONTINUOUS
10
2.62197
20
0.178425
11
2.68197
21
0.178425
0
LINE
8
BLACK
6
CONTINUOUS
10
2.68197
20
0.178425
11
2.68197
21
0.118425
0
LINE
8
BLACK
6
CONTINUOUS
10
2.78197
20
0.218425
11
2.72197
21
0.218425
0
LINE
8
BLACK
6
CONTINUOUS
10
2.72197
20
0.218425
11
2.72197
21
0.278425
0
LINE
8
BLACK
6
CONTINUOUS
10
2.72197
20
0.278425
11
2.78197
21
0.278425
0
LINE
8
BLACK
6
CONTINUOUS
10
2.78197
20
0.278425
11
2.78197
21
0.218425
0
LINE
8
BLACK
6
CONTINUOUS
10
2.68197
20
0.218425
11
2.62197
21
0.218425
0
LINE
8
BLACK
6
CONTINUOUS
10
2.62197
20
0.218425
11
2.62197
21
0.278425
0
LINE
8
BLACK
6
CONTINUOUS
10
2.62197
20
0.278425
11
2.68197
21
0.278425
0
LINE
8
BLACK
6
CONTINUOUS
10
2.68197
20
0.278425
11
2.68197
21
0.218425
0
LINE
8
BLACK
6
CONTINUOUS
10
2.58197
20
0.218425
11
2.52197
21
0.218425
0
LINE
8
BLACK
6
CONTINUOUS
10
2.52197
20
0.218425
11
2.52197
21
0.278425
0
LINE
8
BLACK
6
CONTINUOUS
10
2.52197
20
0.278425
11
2.58197
21
0.278425
0
LINE
8
BLACK
6
CONTINUOUS
10
2.58197
20
0.278425
11
2.58197
21
0.218425
0
LINE
8
BLACK
6
CONTINUOUS
10
2.48197
20
0.218425
11
2.42197
21
0.218425
0
LINE
8
BLACK
6
CONTINUOUS
10
2.42197
20
0.218425
11
2.42197
21
0.278425
0
LINE
8
BLACK
6
CONTINUOUS
10
2.42197
20
0.278425
11
2.48197
21
0.278425
0
LINE
8
BLACK
6
CONTINUOUS
10
2.48197
20
0.278425
11
2.48197
21
0.218425
0
LINE
8
BLACK
6
CONTINUOUS
10
2.38197
20
0.218425
11
2.32197
21
0.218425
0
LINE
8
BLACK
6
CONTINUOUS
10
2.32197
20
0.218425
11
2.32197
21
0.278425
0
LINE
8
BLACK
6
CONTINUOUS
10
2.32197
20
0.278425
11
2.38197
21
0.278425
0
LINE
8
BLACK
6
CONTINUOUS
10
2.38197
20
0.278425
11
2.38197
21
0.218425
0
LINE
8
BLACK
6
CONTINUOUS
10
1.87952
20
0.30131
11
1.87965
21
0.301333
0
LINE
8
BLACK
6
CONTINUOUS
10
1.87965
20
0.301333
11
1.87976
21
0.301268
0
LINE
8
BLACK
6
CONTINUOUS
10
1.87976
20
0.301268
11
1.88014
21
0.3012
0
LINE
8
BLACK
6
CONTINUOUS
10
1.88014
20
0.3012
11
1.88073
21
0.300707
0
LINE
8
BLACK
6
CONTINUOUS
10
1.88073
20
0.300707
11
1.8814
21
0.300323
0
LINE
8
BLACK
6
CONTINUOUS
10
1.8814
20
0.300323
11
1.88149
21
0.300073
0
LINE
8
BLACK
6
CONTINUOUS
10
1.88149
20
0.300073
11
1.88169
21
0.299902
0
LINE
8
BLACK
6
CONTINUOUS
10
1.88169
20
0.299902
11
1.88182
21
0.299146
0
LINE
8
BLACK
6
CONTINUOUS
10
1.88182
20
0.299146
11
1.88209
21
0.298425
0
LINE
8
BLACK
6
CONTINUOUS
10
1.88209
20
0.298425
11
1.88209
21
0.0984252
0
LINE
8
BLACK
6
CONTINUOUS
10
1.88209
20
0.0984252
11
1.88202
21
0.0980417
0
LINE
8
BLACK
6
CONTINUOUS
10
1.88202
20
0.0980417
11
1.88204
21
0.0979124
0
LINE
8
BLACK
6
CONTINUOUS
10
1.88204
20
0.0979124
11
1.88198
21
0.0977988
0
LINE
8
BLACK
6
CONTINUOUS
10
1.88198
20
0.0977988
11
1.88191
21
0.0974153
0
LINE
8
BLACK
6
CONTINUOUS
10
1.88191
20
0.0974153
11
1.88142
21
0.0968276
0
LINE
8
BLACK
6
CONTINUOUS
10
1.88142
20
0.0968276
11
1.88103
21
0.0961633
0
LINE
8
BLACK
6
CONTINUOUS
10
1.88103
20
0.0961633
11
1.88078
21
0.0960722
0
LINE
8
BLACK
6
CONTINUOUS
10
1.88078
20
0.0960722
11
1.88061
21
0.095868
0
LINE
8
BLACK
6
CONTINUOUS
10
1.88061
20
0.095868
11
1.87985
21
0.0957348
0
LINE
8
BLACK
6
CONTINUOUS
10
1.87985
20
0.0957348
11
1.87913
21
0.0954724
0
LINE
8
BLACK
6
CONTINUOUS
10
1.87913
20
0.0954724
11
0.579134
21
0.0954724
0
LINE
8
BLACK
6
CONTINUOUS
10
0.579134
20
0.0954724
11
0.57875
21
0.0955401
0
LINE
8
BLACK
6
CONTINUOUS
10
0.57875
20
0.0955401
11
0.578621
21
0.0955173
0
LINE
8
BLACK
6
CONTINUOUS
10
0.578621
20
0.0955173
11
0.578507
21
0.0955829
0
LINE
8
BLACK
6
CONTINUOUS
10
0.578507
20
0.0955829
11
0.578124
21
0.0956505
0
LINE
8
BLACK
6
CONTINUOUS
10
0.578124
20
0.0956505
11
0.577536
21
0.0961437
0
LINE
8
BLACK
6
CONTINUOUS
10
0.577536
20
0.0961437
11
0.576872
21
0.0965272
0
LINE
8
BLACK
6
CONTINUOUS
10
0.576872
20
0.0965272
11
0.576781
21
0.0967776
0
LINE
8
BLACK
6
CONTINUOUS
10
0.576781
20
0.0967776
11
0.576577
21
0.0969488
0
LINE
8
BLACK
6
CONTINUOUS
10
0.576577
20
0.0969488
11
0.576443
21
0.0977044
0
LINE
8
BLACK
6
CONTINUOUS
10
0.576443
20
0.0977044
11
0.576181
21
0.0984252
0
LINE
8
BLACK
6
CONTINUOUS
10
0.576181
20
0.0984252
11
0.576181
21
0.298425
0
LINE
8
BLACK
6
CONTINUOUS
10
0.576181
20
0.298425
11
0.576249
21
0.298809
0
LINE
8
BLACK
6
CONTINUOUS
10
0.576249
20
0.298809
11
0.576226
21
0.298938
0
LINE
8
BLACK
6
CONTINUOUS
10
0.576226
20
0.298938
11
0.576292
21
0.299052
0
LINE
8
BLACK
6
CONTINUOUS
10
0.576292
20
0.299052
11
0.576359
21
0.299435
0
LINE
8
BLACK
6
CONTINUOUS
10
0.576359
20
0.299435
11
0.576852
21
0.300023
0
LINE
8
BLACK
6
CONTINUOUS
10
0.576852
20
0.300023
11
0.577236
21
0.300687
0
LINE
8
BLACK
6
CONTINUOUS
10
0.577236
20
0.300687
11
0.577486
21
0.300778
0
LINE
8
BLACK
6
CONTINUOUS
10
0.577486
20
0.300778
11
0.577657
21
0.300982
0
LINE
8
BLACK
6
CONTINUOUS
10
0.577657
20
0.300982
11
0.578413
21
0.301116
0
LINE
8
BLACK
6
CONTINUOUS
10
0.578413
20
0.301116
11
0.579134
21
0.301378
0
LINE
8
BLACK
6
CONTINUOUS
10
0.579134
20
0.301378
11
1.87913
21
0.301378
0
LINE
8
BLACK
6
CONTINUOUS
10
1.87913
20
0.301378
11
1.87952
21
0.30131
0
LINE
8
BLACK
6
CONTINUOUS
10
0.582087
20
0.295472
11
0.582087
21
0.101378
0
LINE
8
BLACK
6
CONTINUOUS
10
0.582087
20
0.101378
11
1.87618
21
0.101378
0
LINE
8
BLACK
6
CONTINUOUS
10
1.87618
20
0.101378
11
1.87618
21
0.295472
0
LINE
8
BLACK
6
CONTINUOUS
10
1.87618
20
0.295472
11
0.582087
21
0.295472
0
LINE
8
BLACK
6
CONTINUOUS
10
1.85913
20
0.118425
11
1.79913
21
0.118425
0
LINE
8
BLACK
6
CONTINUOUS
10
1.79913
20
0.118425
11
1.79913
21
0.178425
0
LINE
8
BLACK
6
CONTINUOUS
10
1.79913
20
0.178425
11
1.85913
21
0.178425
0
LINE
8
BLACK
6
CONTINUOUS
10
1.85913
20
0.178425
11
1.85913
21
0.118425
0
LINE
8
BLACK
6
CONTINUOUS
10
1.05913
20
0.118425
11
0.999134
21
0.118425
0
LINE
8
BLACK
6
CONTINUOUS
10
0.999134
20
0.118425
11
0.999134
21
0.178425
0
LINE
8
BLACK
6
CONTINUOUS
10
0.999134
20
0.178425
11
1.05913
21
0.178425
0
LINE
8
BLACK
6
CONTINUOUS
10
1.05913
20
0.178425
11
1.05913
21
0.118425
0
LINE
8
BLACK
6
CONTINUOUS
10
1.15913
20
0.118425
11
1.09913
21
0.118425
0
LINE
8
BLACK
6
CONTINUOUS
10
1.09913
20
0.118425
11
1.09913
21
0.178425
0
LINE
8
BLACK
6
CONTINUOUS
10
1.09913
20
0.178425
11
1.15913
21
0.178425
0
LINE
8
BLACK
6
CONTINUOUS
10
1.15913
20
0.178425
11
1.15913
21
0.118425
0
LINE
8
BLACK
6
CONTINUOUS
10
1.25913
20
0.118425
11
1.19913
21
0.118425
0
LINE
8
BLACK
6
CONTINUOUS
10
1.19913
20
0.118425
11
1.19913
21
0.178425
0
LINE
8
BLACK
6
CONTINUOUS
10
1.19913
20
0.178425
11
1.25913
21
0.178425
0
LINE
8
BLACK
6
CONTINUOUS
10
1.25913
20
0.178425
11
1.25913
21
0.118425
0
LINE
8
BLACK
6
CONTINUOUS
10
0.959134
20
0.118425
11
0.899134
21
0.118425
0
LINE
8
BLACK
6
CONTINUOUS
10
0.899134
20
0.118425
11
0.899134
21
0.178425
0
LINE
8
BLACK
6
CONTINUOUS
10
0.899134
20
0.178425
11
0.959134
21
0.178425
0
LINE
8
BLACK
6
CONTINUOUS
10
0.959134
20
0.178425
11
0.959134
21
0.118425
0
LINE
8
BLACK
6
CONTINUOUS
10
1.35913
20
0.118425
11
1.29913
21
0.118425
0
LINE
8
BLACK
6
CONTINUOUS
10
1.29913
20
0.118425
11
1.29913
21
0.178425
0
LINE
8
BLACK
6
CONTINUOUS
10
1.29913
20
0.178425
11
1.35913
21
0.178425
0
LINE
8
BLACK
6
CONTINUOUS
10
1.35913
20
0.178425
11
1.35913
21
0.118425
0
LINE
8
BLACK
6
CONTINUOUS
10
1.45913
20
0.118425
11
1.39913
21
0.118425
0
LINE
8
BLACK
6
CONTINUOUS
10
1.39913
20
0.118425
11
1.39913
21
0.178425
0
LINE
8
BLACK
6
CONTINUOUS
10
1.39913
20
0.178425
11
1.45913
21
0.178425
0
LINE
8
BLACK
6
CONTINUOUS
10
1.45913
20
0.178425
11
1.45913
21
0.118425
0
LINE
8
BLACK
6
CONTINUOUS
10
0.859134
20
0.118425
11
0.799134
21
0.118425
0
LINE
8
BLACK
6
CONTINUOUS
10
0.799134
20
0.118425
11
0.799134
21
0.178425
0
LINE
8
BLACK
6
CONTINUOUS
10
0.799134
20
0.178425
11
0.859134
21
0.178425
0
LINE
8
BLACK
6
CONTINUOUS
10
0.859134
20
0.178425
11
0.859134
21
0.118425
0
LINE
8
BLACK
6
CONTINUOUS
10
1.55913
20
0.118425
11
1.49913
21
0.118425
0
LINE
8
BLACK
6
CONTINUOUS
10
1.49913
20
0.118425
11
1.49913
21
0.178425
0
LINE
8
BLACK
6
CONTINUOUS
10
1.49913
20
0.178425
11
1.55913
21
0.178425
0
LINE
8
BLACK
6
CONTINUOUS
10
1.55913
20
0.178425
11
1.55913
21
0.118425
0
LINE
8
BLACK
6
CONTINUOUS
10
1.75913
20
0.118425
11
1.69913
21
0.118425
0
LINE
8
BLACK
6
CONTINUOUS
10
1.69913
20
0.118425
11
1.69913
21
0.178425
0
LINE
8
BLACK
6
CONTINUOUS
10
1.69913
20
0.178425
11
1.75913
21
0.178425
0
LINE
8
BLACK
6
CONTINUOUS
10
1.75913
20
0.178425
11
1.75913
21
0.118425
0
LINE
8
BLACK
6
CONTINUOUS
10
0.759134
20
0.118425
11
0.699134
21
0.118425
0
LINE
8
BLACK
6
CONTINUOUS
10
0.699134
20
0.118425
11
0.699134
21
0.178425
0
LINE
8
BLACK
6
CONTINUOUS
10
0.699134
20
0.178425
11
0.759134
21
0.178425
0
LINE
8
BLACK
6
CONTINUOUS
10
0.759134
20
0.178425
11
0.759134
21
0.118425
0
LINE
8
BLACK
6
CONTINUOUS
10
1.65913
20
0.118425
11
1.59913
21
0.118425
0
LINE
8
BLACK
6
CONTINUOUS
10
1.59913
20
0.118425
11
1.59913
21
0.178425
0
LINE
8
BLACK
6
CONTINUOUS
10
1.59913
20
0.178425
11
1.65913
21
0.178425
0
LINE
8
BLACK
6
CONTINUOUS
10
1.65913
20
0.178425
11
1.65913
21
0.118425
0
LINE
8
BLACK
6
CONTINUOUS
10
0.659134
20
0.118425
11
0.599134
21
0.118425
0
LINE
8
BLACK
6
CONTINUOUS
10
0.599134
20
0.118425
11
0.599134
21
0.178425
0
LINE
8
BLACK
6
CONTINUOUS
10
0.599134
20
0.178425
11
0.659134
21
0.178425
0
LINE
8
BLACK
6
CONTINUOUS
10
0.659134
20
0.178425
11
0.659134
21
0.118425
0
LINE
8
BLACK
6
CONTINUOUS
10
0.859134
20
0.218425
11
0.799134
21
0.218425
0
LINE
8
BLACK
6
CONTINUOUS
10
0.799134
20
0.218425
11
0.799134
21
0.278425
0
LINE
8
BLACK
6
CONTINUOUS
10
0.799134
20
0.278425
11
0.859134
21
0.278425
0
LINE
8
BLACK
6
CONTINUOUS
10
0.859134
20
0.278425
11
0.859134
21
0.218425
0
LINE
8
BLACK
6
CONTINUOUS
10
1.75913
20
0.218425
11
1.69913
21
0.218425
0
LINE
8
BLACK
6
CONTINUOUS
10
1.69913
20
0.218425
11
1.69913
21
0.278425
0
LINE
8
BLACK
6
CONTINUOUS
10
1.69913
20
0.278425
11
1.75913
21
0.278425
0
LINE
8
BLACK
6
CONTINUOUS
10
1.75913
20
0.278425
11
1.75913
21
0.218425
0
LINE
8
BLACK
6
CONTINUOUS
10
1.65913
20
0.218425
11
1.59913
21
0.218425
0
LINE
8
BLACK
6
CONTINUOUS
10
1.59913
20
0.218425
11
1.59913
21
0.278425
0
LINE
8
BLACK
6
CONTINUOUS
10
1.59913
20
0.278425
11
1.65913
21
0.278425
0
LINE
8
BLACK
6
CONTINUOUS
10
1.65913
20
0.278425
11
1.65913
21
0.218425
0
LINE
8
BLACK
6
CONTINUOUS
10
1.55913
20
0.218425
11
1.49913
21
0.218425
0
LINE
8
BLACK
6
CONTINUOUS
10
1.49913
20
0.218425
11
1.49913
21
0.278425
0
LINE
8
BLACK
6
CONTINUOUS
10
1.49913
20
0.278425
11
1.55913
21
0.278425
0
LINE
8
BLACK
6
CONTINUOUS
10
1.55913
20
0.278425
11
1.55913
21
0.218425
0
LINE
8
BLACK
6
CONTINUOUS
10
1.45913
20
0.218425
11
1.39913
21
0.218425
0
LINE
8
BLACK
6
CONTINUOUS
10
1.39913
20
0.218425
11
1.39913
21
0.278425
0
LINE
8
BLACK
6
CONTINUOUS
10
1.39913
20
0.278425
11
1.45913
21
0.278425
0
LINE
8
BLACK
6
CONTINUOUS
10
1.45913
20
0.278425
11
1.45913
21
0.218425
0
LINE
8
BLACK
6
CONTINUOUS
10
1.35913
20
0.218425
11
1.29913
21
0.218425
0
LINE
8
BLACK
6
CONTINUOUS
10
1.29913
20
0.218425
11
1.29913
21
0.278425
0
LINE
8
BLACK
6
CONTINUOUS
10
1.29913
20
0.278425
11
1.35913
21
0.278425
0
LINE
8
BLACK
6
CONTINUOUS
10
1.35913
20
0.278425
11
1.35913
21
0.218425
0
LINE
8
BLACK
6
CONTINUOUS
10
1.25913
20
0.218425
11
1.19913
21
0.218425
0
LINE
8
BLACK
6
CONTINUOUS
10
1.19913
20
0.218425
11
1.19913
21
0.278425
0
LINE
8
BLACK
6
CONTINUOUS
10
1.19913
20
0.278425
11
1.25913
21
0.278425
0
LINE
8
BLACK
6
CONTINUOUS
10
1.25913
20
0.278425
11
1.25913
21
0.218425
0
LINE
8
BLACK
6
CONTINUOUS
10
1.15913
20
0.218425
11
1.09913
21
0.218425
0
LINE
8
BLACK
6
CONTINUOUS
10
1.09913
20
0.218425
11
1.09913
21
0.278425
0
LINE
8
BLACK
6
CONTINUOUS
10
1.09913
20
0.278425
11
1.15913
21
0.278425
0
LINE
8
BLACK
6
CONTINUOUS
10
1.15913
20
0.278425
11
1.15913
21
0.218425
0
LINE
8
BLACK
6
CONTINUOUS
10
1.05913
20
0.218425
11
0.999134
21
0.218425
0
LINE
8
BLACK
6
CONTINUOUS
10
0.999134
20
0.218425
11
0.999134
21
0.278425
0
LINE
8
BLACK
6
CONTINUOUS
10
0.999134
20
0.278425
11
1.05913
21
0.278425
0
LINE
8
BLACK
6
CONTINUOUS
10
1.05913
20
0.278425
11
1.05913
21
0.218425
0
LINE
8
BLACK
6
CONTINUOUS
10
0.959134
20
0.218425
11
0.899134
21
0.218425
0
LINE
8
BLACK
6
CONTINUOUS
10
0.899134
20
0.218425
11
0.899134
21
0.278425
0
LINE
8
BLACK
6
CONTINUOUS
10
0.899134
20
0.278425
11
0.959134
21
0.278425
0
LINE
8
BLACK
6
CONTINUOUS
10
0.959134
20
0.278425
11
0.959134
21
0.218425
0
LINE
8
BLACK
6
CONTINUOUS
10
0.759134
20
0.218425
11
0.699134
21
0.218425
0
LINE
8
BLACK
6
CONTINUOUS
10
0.699134
20
0.218425
11
0.699134
21
0.278425
0
LINE
8
BLACK
6
CONTINUOUS
10
0.699134
20
0.278425
11
0.759134
21
0.278425
0
LINE
8
BLACK
6
CONTINUOUS
10
0.759134
20
0.278425
11
0.759134
21
0.218425
0
LINE
8
BLACK
6
CONTINUOUS
10
0.659134
20
0.218425
11
0.599134
21
0.218425
0
LINE
8
BLACK
6
CONTINUOUS
10
0.599134
20
0.218425
11
0.599134
21
0.278425
0
LINE
8
BLACK
6
CONTINUOUS
10
0.599134
20
0.278425
11
0.659134
21
0.278425
0
LINE
8
BLACK
6
CONTINUOUS
10
0.659134
20
0.278425
11
0.659134
21
0.218425
0
LINE
8
BLACK
6
CONTINUOUS
10
1.85913
20
0.218425
11
1.79913
21
0.218425
0
LINE
8
BLACK
6
CONTINUOUS
10
1.79913
20
0.218425
11
1.79913
21
0.278425
0
LINE
8
BLACK
6
CONTINUOUS
10
1.79913
20
0.278425
11
1.85913
21
0.278425
0
LINE
8
BLACK
6
CONTINUOUS
10
1.85913
20
0.278425
11
1.85913
21
0.218425
0
LINE
8
BLACK
6
CONTINUOUS
10
2.24114
20
0.148722
11
2.259
21
0.134689
0
LINE
8
BLACK
6
CONTINUOUS
10
2.259
20
0.134689
11
2.27686
21
0.148722
0
LINE
8
BLACK
6
CONTINUOUS
10
2.27686
20
0.148722
11
2.27776
21
0.149206
0
LINE
8
BLACK
6
CONTINUOUS
10
2.27776
20
0.149206
11
2.27978
21
0.149141
0
LINE
8
BLACK
6
CONTINUOUS
10
2.27978
20
0.149141
11
2.28129
21
0.147794
0
LINE
8
BLACK
6
CONTINUOUS
10
2.28129
20
0.147794
11
2.28157
21
0.145794
0
LINE
8
BLACK
6
CONTINUOUS
10
2.28157
20
0.145794
11
2.28051
21
0.144079
0
LINE
8
BLACK
6
CONTINUOUS
10
2.28051
20
0.144079
11
2.26378
21
0.130934
0
LINE
8
BLACK
6
CONTINUOUS
10
2.26378
20
0.130934
11
2.28051
21
0.117789
0
LINE
8
BLACK
6
CONTINUOUS
10
2.28051
20
0.117789
11
2.28119
21
0.117025
0
LINE
8
BLACK
6
CONTINUOUS
10
2.28119
20
0.117025
11
2.28161
21
0.115048
0
LINE
8
BLACK
6
CONTINUOUS
10
2.28161
20
0.115048
11
2.28065
21
0.113267
0
LINE
8
BLACK
6
CONTINUOUS
10
2.28065
20
0.113267
11
2.27878
21
0.112516
0
LINE
8
BLACK
6
CONTINUOUS
10
2.27878
20
0.112516
11
2.27686
21
0.113145
0
LINE
8
BLACK
6
CONTINUOUS
10
2.27686
20
0.113145
11
2.259
21
0.127179
0
LINE
8
BLACK
6
CONTINUOUS
10
2.259
20
0.127179
11
2.24114
21
0.113145
0
LINE
8
BLACK
6
CONTINUOUS
10
2.24114
20
0.113145
11
2.24023
21
0.112661
0
LINE
8
BLACK
6
CONTINUOUS
10
2.24023
20
0.112661
11
2.23822
21
0.112726
0
LINE
8
BLACK
6
CONTINUOUS
10
2.23822
20
0.112726
11
2.23671
21
0.114073
0
LINE
8
BLACK
6
CONTINUOUS
10
2.23671
20
0.114073
11
2.23642
21
0.116073
0
LINE
8
BLACK
6
CONTINUOUS
10
2.23642
20
0.116073
11
2.23749
21
0.117789
0
LINE
8
BLACK
6
CONTINUOUS
10
2.23749
20
0.117789
11
2.25422
21
0.130934
0
LINE
8
BLACK
6
CONTINUOUS
10
2.25422
20
0.130934
11
2.23749
21
0.144079
0
LINE
8
BLACK
6
CONTINUOUS
10
2.23749
20
0.144079
11
2.23681
21
0.144843
0
LINE
8
BLACK
6
CONTINUOUS
10
2.23681
20
0.144843
11
2.23639
21
0.146819
0
LINE
8
BLACK
6
CONTINUOUS
10
2.23639
20
0.146819
11
2.23734
21
0.1486
0
LINE
8
BLACK
6
CONTINUOUS
10
2.23734
20
0.1486
11
2.23922
21
0.149352
0
LINE
8
BLACK
6
CONTINUOUS
10
2.23922
20
0.149352
11
2.24114
21
0.148722
0
LINE
8
BLACK
6
CONTINUOUS
10
3.42465
20
0.211373
11
3.42479
21
0.21126
0
LINE
8
BLACK
6
CONTINUOUS
10
3.42479
20
0.21126
11
3.42496
21
0.21124
0
LINE
8
BLACK
6
CONTINUOUS
10
3.42496
20
0.21124
11
3.42984
21
0.208802
0
LINE
8
BLACK
6
CONTINUOUS
10
3.42984
20
0.208802
11
3.43054
21
0.208277
0
LINE
8
BLACK
6
CONTINUOUS
10
3.43054
20
0.208277
11
3.4306
21
0.208249
0
LINE
8
BLACK
6
CONTINUOUS
10
3.4306
20
0.208249
11
3.43304
21
0.205812
0
LINE
8
BLACK
6
CONTINUOUS
10
3.43304
20
0.205812
11
3.43355
21
0.205089
0
LINE
8
BLACK
6
CONTINUOUS
10
3.43355
20
0.205089
11
3.43359
21
0.205045
0
LINE
8
BLACK
6
CONTINUOUS
10
3.43359
20
0.205045
11
3.43603
21
0.20017
0
LINE
8
BLACK
6
CONTINUOUS
10
3.43603
20
0.20017
11
3.43632
21
0.199187
0
LINE
8
BLACK
6
CONTINUOUS
10
3.43632
20
0.199187
11
3.43628
21
0.199016
0
LINE
8
BLACK
6
CONTINUOUS
10
3.43628
20
0.199016
11
3.43634
21
0.19885
0
LINE
8
BLACK
6
CONTINUOUS
10
3.43634
20
0.19885
11
3.43634
21
0.193975
0
LINE
8
BLACK
6
CONTINUOUS
10
3.43634
20
0.193975
11
3.43616
21
0.192966
0
LINE
8
BLACK
6
CONTINUOUS
10
3.43616
20
0.192966
11
3.43605
21
0.19283
0
LINE
8
BLACK
6
CONTINUOUS
10
3.43605
20
0.19283
11
3.43603
21
0.192655
0
LINE
8
BLACK
6
CONTINUOUS
10
3.43603
20
0.192655
11
3.43359
21
0.187781
0
LINE
8
BLACK
6
CONTINUOUS
10
3.43359
20
0.187781
11
3.43307
21
0.187071
0
LINE
8
BLACK
6
CONTINUOUS
10
3.43307
20
0.187071
11
3.43304
21
0.187013
0
LINE
8
BLACK
6
CONTINUOUS
10
3.43304
20
0.187013
11
3.43093
21
0.184908
0
LINE
8
BLACK
6
CONTINUOUS
10
3.43093
20
0.184908
11
3.43189
21
0.184591
0
LINE
8
BLACK
6
CONTINUOUS
10
3.43189
20
0.184591
11
3.43279
21
0.184102
0
LINE
8
BLACK
6
CONTINUOUS
10
3.43279
20
0.184102
11
3.43288
21
0.183952
0
LINE
8
BLACK
6
CONTINUOUS
10
3.43288
20
0.183952
11
3.43304
21
0.183877
0
LINE
8
BLACK
6
CONTINUOUS
10
3.43304
20
0.183877
11
3.43548
21
0.18144
0
LINE
8
BLACK
6
CONTINUOUS
10
3.43548
20
0.18144
11
3.43598
21
0.180717
0
LINE
8
BLACK
6
CONTINUOUS
10
3.43598
20
0.180717
11
3.43603
21
0.180673
0
LINE
8
BLACK
6
CONTINUOUS
10
3.43603
20
0.180673
11
3.43847
21
0.175798
0
LINE
8
BLACK
6
CONTINUOUS
10
3.43847
20
0.175798
11
3.43876
21
0.174816
0
LINE
8
BLACK
6
CONTINUOUS
10
3.43876
20
0.174816
11
3.43872
21
0.174644
0
LINE
8
BLACK
6
CONTINUOUS
10
3.43872
20
0.174644
11
3.43878
21
0.174478
0
LINE
8
BLACK
6
CONTINUOUS
10
3.43878
20
0.174478
11
3.43878
21
0.167166
0
LINE
8
BLACK
6
CONTINUOUS
10
3.43878
20
0.167166
11
3.4386
21
0.166156
0
LINE
8
BLACK
6
CONTINUOUS
10
3.4386
20
0.166156
11
3.43849
21
0.166021
0
LINE
8
BLACK
6
CONTINUOUS
10
3.43849
20
0.166021
11
3.43847
21
0.165846
0
LINE
8
BLACK
6
CONTINUOUS
10
3.43847
20
0.165846
11
3.43603
21
0.160971
0
LINE
8
BLACK
6
CONTINUOUS
10
3.43603
20
0.160971
11
3.4355
21
0.160262
0
LINE
8
BLACK
6
CONTINUOUS
10
3.4355
20
0.160262
11
3.43548
21
0.160204
0
LINE
8
BLACK
6
CONTINUOUS
10
3.43548
20
0.160204
11
3.43304
21
0.157767
0
LINE
8
BLACK
6
CONTINUOUS
10
3.43304
20
0.157767
11
3.43232
21
0.157261
0
LINE
8
BLACK
6
CONTINUOUS
10
3.43232
20
0.157261
11
3.43227
21
0.157214
0
LINE
8
BLACK
6
CONTINUOUS
10
3.43227
20
0.157214
11
3.4274
21
0.154776
0
LINE
8
BLACK
6
CONTINUOUS
10
3.4274
20
0.154776
11
3.42642
21
0.154484
0
LINE
8
BLACK
6
CONTINUOUS
10
3.42642
20
0.154484
11
3.42624
21
0.154525
0
LINE
8
BLACK
6
CONTINUOUS
10
3.42624
20
0.154525
11
3.42608
21
0.154465
0
LINE
8
BLACK
6
CONTINUOUS
10
3.42608
20
0.154465
11
3.40658
21
0.154465
0
LINE
8
BLACK
6
CONTINUOUS
10
3.40658
20
0.154465
11
3.4062
21
0.154532
0
LINE
8
BLACK
6
CONTINUOUS
10
3.4062
20
0.154532
11
3.40607
21
0.15451
0
LINE
8
BLACK
6
CONTINUOUS
10
3.40607
20
0.15451
11
3.40595
21
0.154575
0
LINE
8
BLACK
6
CONTINUOUS
10
3.40595
20
0.154575
11
3.40557
21
0.154643
0
LINE
8
BLACK
6
CONTINUOUS
10
3.40557
20
0.154643
11
3.40498
21
0.155136
0
LINE
8
BLACK
6
CONTINUOUS
10
3.40498
20
0.155136
11
3.40432
21
0.15552
0
LINE
8
BLACK
6
CONTINUOUS
10
3.40432
20
0.15552
11
3.40423
21
0.15577
0
LINE
8
BLACK
6
CONTINUOUS
10
3.40423
20
0.15577
11
3.40402
21
0.155941
0
LINE
8
BLACK
6
CONTINUOUS
10
3.40402
20
0.155941
11
3.40389
21
0.156697
0
LINE
8
BLACK
6
CONTINUOUS
10
3.40389
20
0.156697
11
3.40363
21
0.157418
0
LINE
8
BLACK
6
CONTINUOUS
10
3.40363
20
0.157418
11
3.40363
21
0.208599
0
LINE
8
BLACK
6
CONTINUOUS
10
3.40363
20
0.208599
11
3.4037
21
0.208982
0
LINE
8
BLACK
6
CONTINUOUS
10
3.4037
20
0.208982
11
3.40367
21
0.209111
0
LINE
8
BLACK
6
CONTINUOUS
10
3.40367
20
0.209111
11
3.40374
21
0.209225
0
LINE
8
BLACK
6
CONTINUOUS
10
3.40374
20
0.209225
11
3.40381
21
0.209609
0
LINE
8
BLACK
6
CONTINUOUS
10
3.40381
20
0.209609
11
3.4043
21
0.210196
0
LINE
8
BLACK
6
CONTINUOUS
10
3.4043
20
0.210196
11
3.40468
21
0.210861
0
LINE
8
BLACK
6
CONTINUOUS
10
3.40468
20
0.210861
11
3.40493
21
0.210952
0
LINE
8
BLACK
6
CONTINUOUS
10
3.40493
20
0.210952
11
3.4051
21
0.211156
0
LINE
8
BLACK
6
CONTINUOUS
10
3.4051
20
0.211156
11
3.40586
21
0.211289
0
LINE
8
BLACK
6
CONTINUOUS
10
3.40586
20
0.211289
11
3.40658
21
0.211551
0
LINE
8
BLACK
6
CONTINUOUS
10
3.40658
20
0.211551
11
3.42364
21
0.211551
0
LINE
8
BLACK
6
CONTINUOUS
10
3.42364
20
0.211551
11
3.42465
21
0.211373
0
LINE
8
BLACK
6
CONTINUOUS
10
3.40953
20
0.181274
11
3.40953
21
0.16037
0
LINE
8
BLACK
6
CONTINUOUS
10
3.40953
20
0.16037
11
3.42538
21
0.16037
0
LINE
8
BLACK
6
CONTINUOUS
10
3.42538
20
0.16037
11
3.4292
21
0.162281
0
LINE
8
BLACK
6
CONTINUOUS
10
3.4292
20
0.162281
11
3.43096
21
0.164041
0
LINE
8
BLACK
6
CONTINUOUS
10
3.43096
20
0.164041
11
3.43287
21
0.167863
0
LINE
8
BLACK
6
CONTINUOUS
10
3.43287
20
0.167863
11
3.43287
21
0.173781
0
LINE
8
BLACK
6
CONTINUOUS
10
3.43287
20
0.173781
11
3.43096
21
0.177603
0
LINE
8
BLACK
6
CONTINUOUS
10
3.43096
20
0.177603
11
3.42936
21
0.179209
0
LINE
8
BLACK
6
CONTINUOUS
10
3.42936
20
0.179209
11
3.42316
21
0.181274
0
LINE
8
BLACK
6
CONTINUOUS
10
3.42316
20
0.181274
11
3.40953
21
0.181274
0
LINE
8
BLACK
6
CONTINUOUS
10
3.40953
20
0.205646
11
3.40953
21
0.187179
0
LINE
8
BLACK
6
CONTINUOUS
10
3.40953
20
0.187179
11
3.42294
21
0.187179
0
LINE
8
BLACK
6
CONTINUOUS
10
3.42294
20
0.187179
11
3.42677
21
0.189091
0
LINE
8
BLACK
6
CONTINUOUS
10
3.42677
20
0.189091
11
3.42853
21
0.19085
0
LINE
8
BLACK
6
CONTINUOUS
10
3.42853
20
0.19085
11
3.43044
21
0.194673
0
LINE
8
BLACK
6
CONTINUOUS
10
3.43044
20
0.194673
11
3.43044
21
0.198153
0
LINE
8
BLACK
6
CONTINUOUS
10
3.43044
20
0.198153
11
3.42853
21
0.201975
0
LINE
8
BLACK
6
CONTINUOUS
10
3.42853
20
0.201975
11
3.42677
21
0.203735
0
LINE
8
BLACK
6
CONTINUOUS
10
3.42677
20
0.203735
11
3.42294
21
0.205646
0
LINE
8
BLACK
6
CONTINUOUS
10
3.42294
20
0.205646
11
3.40953
21
0.205646
0
LINE
8
BLACK
6
CONTINUOUS
10
3.51904
20
0.211477
11
3.5192
21
0.211507
0
LINE
8
BLACK
6
CONTINUOUS
10
3.5192
20
0.211507
11
3.51995
21
0.211078
0
LINE
8
BLACK
6
CONTINUOUS
10
3.51995
20
0.211078
11
3.52073
21
0.210734
0
LINE
8
BLACK
6
CONTINUOUS
10
3.52073
20
0.210734
11
3.52081
21
0.210581
0
LINE
8
BLACK
6
CONTINUOUS
10
3.52081
20
0.210581
11
3.52095
21
0.210497
0
LINE
8
BLACK
6
CONTINUOUS
10
3.52095
20
0.210497
11
3.52125
21
0.209691
0
LINE
8
BLACK
6
CONTINUOUS
10
3.52125
20
0.209691
11
3.52163
21
0.208923
0
LINE
8
BLACK
6
CONTINUOUS
10
3.52163
20
0.208923
11
3.52159
21
0.208758
0
LINE
8
BLACK
6
CONTINUOUS
10
3.52159
20
0.208758
11
3.52164
21
0.208599
0
LINE
8
BLACK
6
CONTINUOUS
10
3.52164
20
0.208599
11
3.52164
21
0.16037
0
LINE
8
BLACK
6
CONTINUOUS
10
3.52164
20
0.16037
11
3.53331
21
0.16037
0
LINE
8
BLACK
6
CONTINUOUS
10
3.53331
20
0.16037
11
3.53432
21
0.160192
0
LINE
8
BLACK
6
CONTINUOUS
10
3.53432
20
0.160192
11
3.53587
21
0.158894
0
LINE
8
BLACK
6
CONTINUOUS
10
3.53587
20
0.158894
11
3.53622
21
0.156905
0
LINE
8
BLACK
6
CONTINUOUS
10
3.53622
20
0.156905
11
3.53521
21
0.155156
0
LINE
8
BLACK
6
CONTINUOUS
10
3.53521
20
0.155156
11
3.53331
21
0.154465
0
LINE
8
BLACK
6
CONTINUOUS
10
3.53331
20
0.154465
11
3.50407
21
0.154465
0
LINE
8
BLACK
6
CONTINUOUS
10
3.50407
20
0.154465
11
3.50306
21
0.154643
0
LINE
8
BLACK
6
CONTINUOUS
10
3.50306
20
0.154643
11
3.50151
21
0.155941
0
LINE
8
BLACK
6
CONTINUOUS
10
3.50151
20
0.155941
11
3.50116
21
0.15793
0
LINE
8
BLACK
6
CONTINUOUS
10
3.50116
20
0.15793
11
3.50217
21
0.159679
0
LINE
8
BLACK
6
CONTINUOUS
10
3.50217
20
0.159679
11
3.50407
21
0.16037
0
LINE
8
BLACK
6
CONTINUOUS
10
3.50407
20
0.16037
11
3.51574
21
0.16037
0
LINE
8
BLACK
6
CONTINUOUS
10
3.51574
20
0.16037
11
3.51574
21
0.199033
0
LINE
8
BLACK
6
CONTINUOUS
10
3.51574
20
0.199033
11
3.51103
21
0.194325
0
LINE
8
BLACK
6
CONTINUOUS
10
3.51103
20
0.194325
11
3.51031
21
0.193818
0
LINE
8
BLACK
6
CONTINUOUS
10
3.51031
20
0.193818
11
3.51026
21
0.193772
0
LINE
8
BLACK
6
CONTINUOUS
10
3.51026
20
0.193772
11
3.50539
21
0.191334
0
LINE
8
BLACK
6
CONTINUOUS
10
3.50539
20
0.191334
11
3.50441
21
0.191042
0
LINE
8
BLACK
6
CONTINUOUS
10
3.50441
20
0.191042
11
3.50244
21
0.191511
0
LINE
8
BLACK
6
CONTINUOUS
10
3.50244
20
0.191511
11
3.50124
21
0.193134
0
LINE
8
BLACK
6
CONTINUOUS
10
3.50124
20
0.193134
11
3.50136
21
0.19515
0
LINE
8
BLACK
6
CONTINUOUS
10
3.50136
20
0.19515
11
3.50275
21
0.196616
0
LINE
8
BLACK
6
CONTINUOUS
10
3.50275
20
0.196616
11
3.50719
21
0.198839
0
LINE
8
BLACK
6
CONTINUOUS
10
3.50719
20
0.198839
11
3.51152
21
0.203168
0
LINE
8
BLACK
6
CONTINUOUS
10
3.51152
20
0.203168
11
3.51623
21
0.210236
0
LINE
8
BLACK
6
CONTINUOUS
10
3.51623
20
0.210236
11
3.51694
21
0.210978
0
LINE
8
BLACK
6
CONTINUOUS
10
3.51694
20
0.210978
11
3.51711
21
0.211026
0
LINE
8
BLACK
6
CONTINUOUS
10
3.51711
20
0.211026
11
3.51721
21
0.211156
0
LINE
8
BLACK
6
CONTINUOUS
10
3.51721
20
0.211156
11
3.51806
21
0.211305
0
LINE
8
BLACK
6
CONTINUOUS
10
3.51806
20
0.211305
11
3.51888
21
0.211545
0
LINE
8
BLACK
6
CONTINUOUS
10
3.51888
20
0.211545
11
3.51904
21
0.211477
0
LINE
8
BLACK
6
CONTINUOUS
10
3.47339
20
0.211373
11
3.47353
21
0.21126
0
LINE
8
BLACK
6
CONTINUOUS
10
3.47353
20
0.21126
11
3.47371
21
0.21124
0
LINE
8
BLACK
6
CONTINUOUS
10
3.47371
20
0.21124
11
3.47858
21
0.208802
0
LINE
8
BLACK
6
CONTINUOUS
10
3.47858
20
0.208802
11
3.47929
21
0.208277
0
LINE
8
BLACK
6
CONTINUOUS
10
3.47929
20
0.208277
11
3.47935
21
0.208249
0
LINE
8
BLACK
6
CONTINUOUS
10
3.47935
20
0.208249
11
3.48178
21
0.205812
0
LINE
8
BLACK
6
CONTINUOUS
10
3.48178
20
0.205812
11
3.48229
21
0.205089
0
LINE
8
BLACK
6
CONTINUOUS
10
3.48229
20
0.205089
11
3.48234
21
0.205045
0
LINE
8
BLACK
6
CONTINUOUS
10
3.48234
20
0.205045
11
3.48477
21
0.20017
0
LINE
8
BLACK
6
CONTINUOUS
10
3.48477
20
0.20017
11
3.48492
21
0.199682
0
LINE
8
BLACK
6
CONTINUOUS
10
3.48492
20
0.199682
11
3.485
21
0.199566
0
LINE
8
BLACK
6
CONTINUOUS
10
3.485
20
0.199566
11
3.48744
21
0.189817
0
LINE
8
BLACK
6
CONTINUOUS
10
3.48744
20
0.189817
11
3.48748
21
0.189229
0
LINE
8
BLACK
6
CONTINUOUS
10
3.48748
20
0.189229
11
3.48752
21
0.189101
0
LINE
8
BLACK
6
CONTINUOUS
10
3.48752
20
0.189101
11
3.48752
21
0.176915
0
LINE
8
BLACK
6
CONTINUOUS
10
3.48752
20
0.176915
11
3.48742
21
0.176335
0
LINE
8
BLACK
6
CONTINUOUS
10
3.48742
20
0.176335
11
3.48744
21
0.176199
0
LINE
8
BLACK
6
CONTINUOUS
10
3.48744
20
0.176199
11
3.485
21
0.16645
0
LINE
8
BLACK
6
CONTINUOUS
10
3.485
20
0.16645
11
3.48479
21
0.165985
0
LINE
8
BLACK
6
CONTINUOUS
10
3.48479
20
0.165985
11
3.48477
21
0.165846
0
LINE
8
BLACK
6
CONTINUOUS
10
3.48477
20
0.165846
11
3.48234
21
0.160971
0
LINE
8
BLACK
6
CONTINUOUS
10
3.48234
20
0.160971
11
3.48181
21
0.160262
0
LINE
8
BLACK
6
CONTINUOUS
10
3.48181
20
0.160262
11
3.48178
21
0.160204
0
LINE
8
BLACK
6
CONTINUOUS
10
3.48178
20
0.160204
11
3.47935
21
0.157767
0
LINE
8
BLACK
6
CONTINUOUS
10
3.47935
20
0.157767
11
3.47862
21
0.157261
0
LINE
8
BLACK
6
CONTINUOUS
10
3.47862
20
0.157261
11
3.47858
21
0.157214
0
LINE
8
BLACK
6
CONTINUOUS
10
3.47858
20
0.157214
11
3.47371
21
0.154776
0
LINE
8
BLACK
6
CONTINUOUS
10
3.47371
20
0.154776
11
3.47272
21
0.154484
0
LINE
8
BLACK
6
CONTINUOUS
10
3.47272
20
0.154484
11
3.47255
21
0.154525
0
LINE
8
BLACK
6
CONTINUOUS
10
3.47255
20
0.154525
11
3.47238
21
0.154465
0
LINE
8
BLACK
6
CONTINUOUS
10
3.47238
20
0.154465
11
3.46751
21
0.154465
0
LINE
8
BLACK
6
CONTINUOUS
10
3.46751
20
0.154465
11
3.4665
21
0.154643
0
LINE
8
BLACK
6
CONTINUOUS
10
3.4665
20
0.154643
11
3.46637
21
0.154756
0
LINE
8
BLACK
6
CONTINUOUS
10
3.46637
20
0.154756
11
3.46619
21
0.154776
0
LINE
8
BLACK
6
CONTINUOUS
10
3.46619
20
0.154776
11
3.46132
21
0.157214
0
LINE
8
BLACK
6
CONTINUOUS
10
3.46132
20
0.157214
11
3.46061
21
0.15774
0
LINE
8
BLACK
6
CONTINUOUS
10
3.46061
20
0.15774
11
3.46055
21
0.157767
0
LINE
8
BLACK
6
CONTINUOUS
10
3.46055
20
0.157767
11
3.45811
21
0.160204
0
LINE
8
BLACK
6
CONTINUOUS
10
3.45811
20
0.160204
11
3.4576
21
0.160927
0
LINE
8
BLACK
6
CONTINUOUS
10
3.4576
20
0.160927
11
3.45756
21
0.160971
0
LINE
8
BLACK
6
CONTINUOUS
10
3.45756
20
0.160971
11
3.45512
21
0.165846
0
LINE
8
BLACK
6
CONTINUOUS
10
3.45512
20
0.165846
11
3.45498
21
0.166334
0
LINE
8
BLACK
6
CONTINUOUS
10
3.45498
20
0.166334
11
3.4549
21
0.16645
0
LINE
8
BLACK
6
CONTINUOUS
10
3.4549
20
0.16645
11
3.45246
21
0.176199
0
LINE
8
BLACK
6
CONTINUOUS
10
3.45246
20
0.176199
11
3.45242
21
0.176787
0
LINE
8
BLACK
6
CONTINUOUS
10
3.45242
20
0.176787
11
3.45237
21
0.176915
0
LINE
8
BLACK
6
CONTINUOUS
10
3.45237
20
0.176915
11
3.45237
21
0.189101
0
LINE
8
BLACK
6
CONTINUOUS
10
3.45237
20
0.189101
11
3.45247
21
0.189681
0
LINE
8
BLACK
6
CONTINUOUS
10
3.45247
20
0.189681
11
3.45246
21
0.189817
0
LINE
8
BLACK
6
CONTINUOUS
10
3.45246
20
0.189817
11
3.4549
21
0.199566
0
LINE
8
BLACK
6
CONTINUOUS
10
3.4549
20
0.199566
11
3.4551
21
0.200031
0
LINE
8
BLACK
6
CONTINUOUS
10
3.4551
20
0.200031
11
3.45512
21
0.20017
0
LINE
8
BLACK
6
CONTINUOUS
10
3.45512
20
0.20017
11
3.45756
21
0.205045
0
LINE
8
BLACK
6
CONTINUOUS
10
3.45756
20
0.205045
11
3.45808
21
0.205754
0
LINE
8
BLACK
6
CONTINUOUS
10
3.45808
20
0.205754
11
3.45811
21
0.205812
0
LINE
8
BLACK
6
CONTINUOUS
10
3.45811
20
0.205812
11
3.46055
21
0.208249
0
LINE
8
BLACK
6
CONTINUOUS
10
3.46055
20
0.208249
11
3.46127
21
0.208756
0
LINE
8
BLACK
6
CONTINUOUS
10
3.46127
20
0.208756
11
3.46132
21
0.208802
0
LINE
8
BLACK
6
CONTINUOUS
10
3.46132
20
0.208802
11
3.46619
21
0.21124
0
LINE
8
BLACK
6
CONTINUOUS
10
3.46619
20
0.21124
11
3.46717
21
0.211532
0
LINE
8
BLACK
6
CONTINUOUS
10
3.46717
20
0.211532
11
3.46734
21
0.211491
0
LINE
8
BLACK
6
CONTINUOUS
10
3.46734
20
0.211491
11
3.46751
21
0.211551
0
LINE
8
BLACK
6
CONTINUOUS
10
3.46751
20
0.211551
11
3.47238
21
0.211551
0
LINE
8
BLACK
6
CONTINUOUS
10
3.47238
20
0.211551
11
3.47339
21
0.211373
0
LINE
8
BLACK
6
CONTINUOUS
10
3.46821
20
0.205646
11
3.46439
21
0.203735
0
LINE
8
BLACK
6
CONTINUOUS
10
3.46439
20
0.203735
11
3.46263
21
0.201975
0
LINE
8
BLACK
6
CONTINUOUS
10
3.46263
20
0.201975
11
3.46055
21
0.197819
0
LINE
8
BLACK
6
CONTINUOUS
10
3.46055
20
0.197819
11
3.45828
21
0.188738
0
LINE
8
BLACK
6
CONTINUOUS
10
3.45828
20
0.188738
11
3.45828
21
0.177279
0
LINE
8
BLACK
6
CONTINUOUS
10
3.45828
20
0.177279
11
3.46055
21
0.168197
0
LINE
8
BLACK
6
CONTINUOUS
10
3.46055
20
0.168197
11
3.46263
21
0.164041
0
LINE
8
BLACK
6
CONTINUOUS
10
3.46263
20
0.164041
11
3.46439
21
0.162281
0
LINE
8
BLACK
6
CONTINUOUS
10
3.46439
20
0.162281
11
3.46821
21
0.16037
0
LINE
8
BLACK
6
CONTINUOUS
10
3.46821
20
0.16037
11
3.47169
21
0.16037
0
LINE
8
BLACK
6
CONTINUOUS
10
3.47169
20
0.16037
11
3.47551
21
0.162281
0
LINE
8
BLACK
6
CONTINUOUS
10
3.47551
20
0.162281
11
3.47727
21
0.164041
0
LINE
8
BLACK
6
CONTINUOUS
10
3.47727
20
0.164041
11
3.47935
21
0.168197
0
LINE
8
BLACK
6
CONTINUOUS
10
3.47935
20
0.168197
11
3.48162
21
0.177279
0
LINE
8
BLACK
6
CONTINUOUS
10
3.48162
20
0.177279
11
3.48162
21
0.188738
0
LINE
8
BLACK
6
CONTINUOUS
10
3.48162
20
0.188738
11
3.47935
21
0.197819
0
LINE
8
BLACK
6
CONTINUOUS
10
3.47935
20
0.197819
11
3.47727
21
0.201975
0
LINE
8
BLACK
6
CONTINUOUS
10
3.47727
20
0.201975
11
3.47551
21
0.203735
0
LINE
8
BLACK
6
CONTINUOUS
10
3.47551
20
0.203735
11
3.47169
21
0.205646
0
LINE
8
BLACK
6
CONTINUOUS
10
3.47169
20
0.205646
11
3.46821
21
0.205646
0
LINE
8
BLACK
6
CONTINUOUS
10
3.56548
20
0.211332
11
3.5664
21
0.211195
0
LINE
8
BLACK
6
CONTINUOUS
10
3.5664
20
0.211195
11
3.56646
21
0.211132
0
LINE
8
BLACK
6
CONTINUOUS
10
3.56646
20
0.211132
11
3.56654
21
0.211114
0
LINE
8
BLACK
6
CONTINUOUS
10
3.56654
20
0.211114
11
3.56712
21
0.210383
0
LINE
8
BLACK
6
CONTINUOUS
10
3.56712
20
0.210383
11
3.56774
21
0.209684
0
LINE
8
BLACK
6
CONTINUOUS
10
3.56774
20
0.209684
11
3.56775
21
0.209599
0
LINE
8
BLACK
6
CONTINUOUS
10
3.56775
20
0.209599
11
3.5678
21
0.209532
0
LINE
8
BLACK
6
CONTINUOUS
10
3.5678
20
0.209532
11
3.58486
21
0.158351
0
LINE
8
BLACK
6
CONTINUOUS
10
3.58486
20
0.158351
11
3.58501
21
0.157337
0
LINE
8
BLACK
6
CONTINUOUS
10
3.58501
20
0.157337
11
3.58427
21
0.155458
0
LINE
8
BLACK
6
CONTINUOUS
10
3.58427
20
0.155458
11
3.58249
21
0.154497
0
LINE
8
BLACK
6
CONTINUOUS
10
3.58249
20
0.154497
11
3.58051
21
0.154902
0
LINE
8
BLACK
6
CONTINUOUS
10
3.58051
20
0.154902
11
3.57926
21
0.156484
0
LINE
8
BLACK
6
CONTINUOUS
10
3.57926
20
0.156484
11
3.57506
21
0.169088
0
LINE
8
BLACK
6
CONTINUOUS
10
3.57506
20
0.169088
11
3.55494
21
0.169088
0
LINE
8
BLACK
6
CONTINUOUS
10
3.55494
20
0.169088
11
3.55074
21
0.156484
0
LINE
8
BLACK
6
CONTINUOUS
10
3.55074
20
0.156484
11
3.55025
21
0.155582
0
LINE
8
BLACK
6
CONTINUOUS
10
3.55025
20
0.155582
11
3.54853
21
0.154525
0
LINE
8
BLACK
6
CONTINUOUS
10
3.54853
20
0.154525
11
3.54653
21
0.154821
0
LINE
8
BLACK
6
CONTINUOUS
10
3.54653
20
0.154821
11
3.54519
21
0.156332
0
LINE
8
BLACK
6
CONTINUOUS
10
3.54519
20
0.156332
11
3.54514
21
0.158351
0
LINE
8
BLACK
6
CONTINUOUS
10
3.54514
20
0.158351
11
3.5622
21
0.209532
0
LINE
8
BLACK
6
CONTINUOUS
10
3.5622
20
0.209532
11
3.56269
21
0.210434
0
LINE
8
BLACK
6
CONTINUOUS
10
3.56269
20
0.210434
11
3.56276
21
0.210479
0
LINE
8
BLACK
6
CONTINUOUS
10
3.56276
20
0.210479
11
3.56279
21
0.210558
0
LINE
8
BLACK
6
CONTINUOUS
10
3.56279
20
0.210558
11
3.56361
21
0.211002
0
LINE
8
BLACK
6
CONTINUOUS
10
3.56361
20
0.211002
11
3.56441
21
0.211491
0
LINE
8
BLACK
6
CONTINUOUS
10
3.56441
20
0.211491
11
3.56449
21
0.211479
0
LINE
8
BLACK
6
CONTINUOUS
10
3.56449
20
0.211479
11
3.56456
21
0.211519
0
LINE
8
BLACK
6
CONTINUOUS
10
3.56456
20
0.211519
11
3.56548
21
0.211332
0
LINE
8
BLACK
6
CONTINUOUS
10
3.55691
20
0.174993
11
3.57309
21
0.174993
0
LINE
8
BLACK
6
CONTINUOUS
10
3.57309
20
0.174993
11
3.565
21
0.199261
0
LINE
8
BLACK
6
CONTINUOUS
10
3.565
20
0.199261
11
3.55691
21
0.174993
0
LINE
8
BLACK
6
CONTINUOUS
10
3.27997
20
0.211438
11
3.28036
21
0.211507
0
LINE
8
BLACK
6
CONTINUOUS
10
3.28036
20
0.211507
11
3.28092
21
0.211184
0
LINE
8
BLACK
6
CONTINUOUS
10
3.28092
20
0.211184
11
3.28154
21
0.211017
0
LINE
8
BLACK
6
CONTINUOUS
10
3.28154
20
0.211017
11
3.28177
21
0.210694
0
LINE
8
BLACK
6
CONTINUOUS
10
3.28177
20
0.210694
11
3.28211
21
0.210497
0
LINE
8
BLACK
6
CONTINUOUS
10
3.28211
20
0.210497
11
3.28233
21
0.209891
0
LINE
8
BLACK
6
CONTINUOUS
10
3.28233
20
0.209891
11
3.2827
21
0.209362
0
LINE
8
BLACK
6
CONTINUOUS
10
3.2827
20
0.209362
11
3.28266
21
0.208969
0
LINE
8
BLACK
6
CONTINUOUS
10
3.28266
20
0.208969
11
3.2828
21
0.208599
0
LINE
8
BLACK
6
CONTINUOUS
10
3.2828
20
0.208599
11
3.2828
21
0.157418
0
LINE
8
BLACK
6
CONTINUOUS
10
3.2828
20
0.157418
11
3.28262
21
0.156408
0
LINE
8
BLACK
6
CONTINUOUS
10
3.28262
20
0.156408
11
3.28132
21
0.15486
0
LINE
8
BLACK
6
CONTINUOUS
10
3.28132
20
0.15486
11
3.27933
21
0.15451
0
LINE
8
BLACK
6
CONTINUOUS
10
3.27933
20
0.15451
11
3.27758
21
0.15552
0
LINE
8
BLACK
6
CONTINUOUS
10
3.27758
20
0.15552
11
3.27689
21
0.157418
0
LINE
8
BLACK
6
CONTINUOUS
10
3.27689
20
0.157418
11
3.27689
21
0.195289
0
LINE
8
BLACK
6
CONTINUOUS
10
3.27689
20
0.195289
11
3.26546
21
0.170792
0
LINE
8
BLACK
6
CONTINUOUS
10
3.26546
20
0.170792
11
3.26524
21
0.170474
0
LINE
8
BLACK
6
CONTINUOUS
10
3.26524
20
0.170474
11
3.26521
21
0.170348
0
LINE
8
BLACK
6
CONTINUOUS
10
3.26521
20
0.170348
11
3.2651
21
0.170272
0
LINE
8
BLACK
6
CONTINUOUS
10
3.2651
20
0.170272
11
3.26487
21
0.169952
0
LINE
8
BLACK
6
CONTINUOUS
10
3.26487
20
0.169952
11
3.26418
21
0.169629
0
LINE
8
BLACK
6
CONTINUOUS
10
3.26418
20
0.169629
11
3.26355
21
0.169189
0
LINE
8
BLACK
6
CONTINUOUS
10
3.26355
20
0.169189
11
3.26328
21
0.169212
0
LINE
8
BLACK
6
CONTINUOUS
10
3.26328
20
0.169212
11
3.26304
21
0.169099
0
LINE
8
BLACK
6
CONTINUOUS
10
3.26304
20
0.169099
11
3.2623
21
0.169298
0
LINE
8
BLACK
6
CONTINUOUS
10
3.2623
20
0.169298
11
3.26154
21
0.169364
0
LINE
8
BLACK
6
CONTINUOUS
10
3.26154
20
0.169364
11
3.26135
21
0.169553
0
LINE
8
BLACK
6
CONTINUOUS
10
3.26135
20
0.169553
11
3.26109
21
0.169622
0
LINE
8
BLACK
6
CONTINUOUS
10
3.26109
20
0.169622
11
3.26065
21
0.17025
0
LINE
8
BLACK
6
CONTINUOUS
10
3.26065
20
0.17025
11
3.26011
21
0.170792
0
LINE
8
BLACK
6
CONTINUOUS
10
3.26011
20
0.170792
11
3.24868
21
0.195289
0
LINE
8
BLACK
6
CONTINUOUS
10
3.24868
20
0.195289
11
3.24868
21
0.157418
0
LINE
8
BLACK
6
CONTINUOUS
10
3.24868
20
0.157418
11
3.2485
21
0.156408
0
LINE
8
BLACK
6
CONTINUOUS
10
3.2485
20
0.156408
11
3.2472
21
0.15486
0
LINE
8
BLACK
6
CONTINUOUS
10
3.2472
20
0.15486
11
3.24521
21
0.15451
0
LINE
8
BLACK
6
CONTINUOUS
10
3.24521
20
0.15451
11
3.24346
21
0.15552
0
LINE
8
BLACK
6
CONTINUOUS
10
3.24346
20
0.15552
11
3.24277
21
0.157418
0
LINE
8
BLACK
6
CONTINUOUS
10
3.24277
20
0.157418
11
3.24277
21
0.208599
0
LINE
8
BLACK
6
CONTINUOUS
10
3.24277
20
0.208599
11
3.24295
21
0.209609
0
LINE
8
BLACK
6
CONTINUOUS
10
3.24295
20
0.209609
11
3.2432
21
0.209911
0
LINE
8
BLACK
6
CONTINUOUS
10
3.2432
20
0.209911
11
3.24331
21
0.210292
0
LINE
8
BLACK
6
CONTINUOUS
10
3.24331
20
0.210292
11
3.24383
21
0.210662
0
LINE
8
BLACK
6
CONTINUOUS
10
3.24383
20
0.210662
11
3.24425
21
0.211156
0
LINE
8
BLACK
6
CONTINUOUS
10
3.24425
20
0.211156
11
3.24464
21
0.211224
0
LINE
8
BLACK
6
CONTINUOUS
10
3.24464
20
0.211224
11
3.24496
21
0.211451
0
LINE
8
BLACK
6
CONTINUOUS
10
3.24496
20
0.211451
11
3.2456
21
0.211395
0
LINE
8
BLACK
6
CONTINUOUS
10
3.2456
20
0.211395
11
3.24624
21
0.211507
0
LINE
8
BLACK
6
CONTINUOUS
10
3.24624
20
0.211507
11
3.24658
21
0.211309
0
LINE
8
BLACK
6
CONTINUOUS
10
3.24658
20
0.211309
11
3.24697
21
0.211275
0
LINE
8
BLACK
6
CONTINUOUS
10
3.24697
20
0.211275
11
3.24743
21
0.210819
0
LINE
8
BLACK
6
CONTINUOUS
10
3.24743
20
0.210819
11
3.24799
21
0.210497
0
LINE
8
BLACK
6
CONTINUOUS
10
3.24799
20
0.210497
11
3.24812
21
0.210126
0
LINE
8
BLACK
6
CONTINUOUS
10
3.24812
20
0.210126
11
3.2484
21
0.209847
0
LINE
8
BLACK
6
CONTINUOUS
10
3.2484
20
0.209847
11
3.26279
21
0.179023
0
LINE
8
BLACK
6
CONTINUOUS
10
3.26279
20
0.179023
11
3.27717
21
0.209847
0
LINE
8
BLACK
6
CONTINUOUS
10
3.27717
20
0.209847
11
3.27776
21
0.210687
0
LINE
8
BLACK
6
CONTINUOUS
10
3.27776
20
0.210687
11
3.27812
21
0.210854
0
LINE
8
BLACK
6
CONTINUOUS
10
3.27812
20
0.210854
11
3.27837
21
0.211156
0
LINE
8
BLACK
6
CONTINUOUS
10
3.27837
20
0.211156
11
3.27901
21
0.211268
0
LINE
8
BLACK
6
CONTINUOUS
10
3.27901
20
0.211268
11
3.27959
21
0.21154
0
LINE
8
BLACK
6
CONTINUOUS
10
3.27959
20
0.21154
11
3.27997
21
0.211438
0
LINE
8
BLACK
6
CONTINUOUS
10
3.32473
20
0.211373
11
3.32486
21
0.21126
0
LINE
8
BLACK
6
CONTINUOUS
10
3.32486
20
0.21126
11
3.32504
21
0.21124
0
LINE
8
BLACK
6
CONTINUOUS
10
3.32504
20
0.21124
11
3.32991
21
0.208802
0
LINE
8
BLACK
6
CONTINUOUS
10
3.32991
20
0.208802
11
3.33062
21
0.208277
0
LINE
8
BLACK
6
CONTINUOUS
10
3.33062
20
0.208277
11
3.33068
21
0.208249
0
LINE
8
BLACK
6
CONTINUOUS
10
3.33068
20
0.208249
11
3.33312
21
0.205812
0
LINE
8
BLACK
6
CONTINUOUS
10
3.33312
20
0.205812
11
3.33362
21
0.205089
0
LINE
8
BLACK
6
CONTINUOUS
10
3.33362
20
0.205089
11
3.33367
21
0.205045
0
LINE
8
BLACK
6
CONTINUOUS
10
3.33367
20
0.205045
11
3.33611
21
0.20017
0
LINE
8
BLACK
6
CONTINUOUS
10
3.33611
20
0.20017
11
3.3364
21
0.199187
0
LINE
8
BLACK
6
CONTINUOUS
10
3.3364
20
0.199187
11
3.33636
21
0.199016
0
LINE
8
BLACK
6
CONTINUOUS
10
3.33636
20
0.199016
11
3.33642
21
0.19885
0
LINE
8
BLACK
6
CONTINUOUS
10
3.33642
20
0.19885
11
3.33642
21
0.191538
0
LINE
8
BLACK
6
CONTINUOUS
10
3.33642
20
0.191538
11
3.33624
21
0.190528
0
LINE
8
BLACK
6
CONTINUOUS
10
3.33624
20
0.190528
11
3.33613
21
0.190393
0
LINE
8
BLACK
6
CONTINUOUS
10
3.33613
20
0.190393
11
3.33611
21
0.190218
0
LINE
8
BLACK
6
CONTINUOUS
10
3.33611
20
0.190218
11
3.33367
21
0.185343
0
LINE
8
BLACK
6
CONTINUOUS
10
3.33367
20
0.185343
11
3.33314
21
0.184634
0
LINE
8
BLACK
6
CONTINUOUS
10
3.33314
20
0.184634
11
3.33312
21
0.184576
0
LINE
8
BLACK
6
CONTINUOUS
10
3.33312
20
0.184576
11
3.33068
21
0.182139
0
LINE
8
BLACK
6
CONTINUOUS
10
3.33068
20
0.182139
11
3.32995
21
0.181632
0
LINE
8
BLACK
6
CONTINUOUS
10
3.32995
20
0.181632
11
3.32991
21
0.181586
0
LINE
8
BLACK
6
CONTINUOUS
10
3.32991
20
0.181586
11
3.32504
21
0.179148
0
LINE
8
BLACK
6
CONTINUOUS
10
3.32504
20
0.179148
11
3.32405
21
0.178856
0
LINE
8
BLACK
6
CONTINUOUS
10
3.32405
20
0.178856
11
3.32388
21
0.178897
0
LINE
8
BLACK
6
CONTINUOUS
10
3.32388
20
0.178897
11
3.32372
21
0.178837
0
LINE
8
BLACK
6
CONTINUOUS
10
3.32372
20
0.178837
11
3.30717
21
0.178837
0
LINE
8
BLACK
6
CONTINUOUS
10
3.30717
20
0.178837
11
3.30717
21
0.157418
0
LINE
8
BLACK
6
CONTINUOUS
10
3.30717
20
0.157418
11
3.30699
21
0.156408
0
LINE
8
BLACK
6
CONTINUOUS
10
3.30699
20
0.156408
11
3.30569
21
0.15486
0
LINE
8
BLACK
6
CONTINUOUS
10
3.30569
20
0.15486
11
3.30371
21
0.15451
0
LINE
8
BLACK
6
CONTINUOUS
10
3.30371
20
0.15451
11
3.30196
21
0.15552
0
LINE
8
BLACK
6
CONTINUOUS
10
3.30196
20
0.15552
11
3.30127
21
0.157418
0
LINE
8
BLACK
6
CONTINUOUS
10
3.30127
20
0.157418
11
3.30127
21
0.208599
0
LINE
8
BLACK
6
CONTINUOUS
10
3.30127
20
0.208599
11
3.30133
21
0.208982
0
LINE
8
BLACK
6
CONTINUOUS
10
3.30133
20
0.208982
11
3.30131
21
0.209111
0
LINE
8
BLACK
6
CONTINUOUS
10
3.30131
20
0.209111
11
3.30138
21
0.209225
0
LINE
8
BLACK
6
CONTINUOUS
10
3.30138
20
0.209225
11
3.30144
21
0.209609
0
LINE
8
BLACK
6
CONTINUOUS
10
3.30144
20
0.209609
11
3.30194
21
0.210196
0
LINE
8
BLACK
6
CONTINUOUS
10
3.30194
20
0.210196
11
3.30232
21
0.210861
0
LINE
8
BLACK
6
CONTINUOUS
10
3.30232
20
0.210861
11
3.30257
21
0.210952
0
LINE
8
BLACK
6
CONTINUOUS
10
3.30257
20
0.210952
11
3.30274
21
0.211156
0
LINE
8
BLACK
6
CONTINUOUS
10
3.30274
20
0.211156
11
3.3035
21
0.211289
0
LINE
8
BLACK
6
CONTINUOUS
10
3.3035
20
0.211289
11
3.30422
21
0.211551
0
LINE
8
BLACK
6
CONTINUOUS
10
3.30422
20
0.211551
11
3.32372
21
0.211551
0
LINE
8
BLACK
6
CONTINUOUS
10
3.32372
20
0.211551
11
3.32473
21
0.211373
0
LINE
8
BLACK
6
CONTINUOUS
10
3.30717
20
0.205646
11
3.30717
21
0.184742
0
LINE
8
BLACK
6
CONTINUOUS
10
3.30717
20
0.184742
11
3.32302
21
0.184742
0
LINE
8
BLACK
6
CONTINUOUS
10
3.32302
20
0.184742
11
3.32684
21
0.186653
0
LINE
8
BLACK
6
CONTINUOUS
10
3.32684
20
0.186653
11
3.3286
21
0.188413
0
LINE
8
BLACK
6
CONTINUOUS
10
3.3286
20
0.188413
11
3.33051
21
0.192235
0
LINE
8
BLACK
6
CONTINUOUS
10
3.33051
20
0.192235
11
3.33051
21
0.198153
0
LINE
8
BLACK
6
CONTINUOUS
10
3.33051
20
0.198153
11
3.3286
21
0.201975
0
LINE
8
BLACK
6
CONTINUOUS
10
3.3286
20
0.201975
11
3.32684
21
0.203735
0
LINE
8
BLACK
6
CONTINUOUS
10
3.32684
20
0.203735
11
3.32302
21
0.205646
0
LINE
8
BLACK
6
CONTINUOUS
10
3.32302
20
0.205646
11
3.30717
21
0.205646
0
LINE
8
BLACK
6
CONTINUOUS
10
3.37591
20
0.211373
11
3.37604
21
0.21126
0
LINE
8
BLACK
6
CONTINUOUS
10
3.37604
20
0.21126
11
3.37622
21
0.21124
0
LINE
8
BLACK
6
CONTINUOUS
10
3.37622
20
0.21124
11
3.38109
21
0.208802
0
LINE
8
BLACK
6
CONTINUOUS
10
3.38109
20
0.208802
11
3.3818
21
0.208277
0
LINE
8
BLACK
6
CONTINUOUS
10
3.3818
20
0.208277
11
3.38186
21
0.208249
0
LINE
8
BLACK
6
CONTINUOUS
10
3.38186
20
0.208249
11
3.3843
21
0.205812
0
LINE
8
BLACK
6
CONTINUOUS
10
3.3843
20
0.205812
11
3.3848
21
0.205089
0
LINE
8
BLACK
6
CONTINUOUS
10
3.3848
20
0.205089
11
3.38485
21
0.205045
0
LINE
8
BLACK
6
CONTINUOUS
10
3.38485
20
0.205045
11
3.38729
21
0.20017
0
LINE
8
BLACK
6
CONTINUOUS
10
3.38729
20
0.20017
11
3.38758
21
0.199187
0
LINE
8
BLACK
6
CONTINUOUS
10
3.38758
20
0.199187
11
3.38754
21
0.199016
0
LINE
8
BLACK
6
CONTINUOUS
10
3.38754
20
0.199016
11
3.3876
21
0.19885
0
LINE
8
BLACK
6
CONTINUOUS
10
3.3876
20
0.19885
11
3.3876
21
0.191538
0
LINE
8
BLACK
6
CONTINUOUS
10
3.3876
20
0.191538
11
3.38742
21
0.190528
0
LINE
8
BLACK
6
CONTINUOUS
10
3.38742
20
0.190528
11
3.38731
21
0.190393
0
LINE
8
BLACK
6
CONTINUOUS
10
3.38731
20
0.190393
11
3.38729
21
0.190218
0
LINE
8
BLACK
6
CONTINUOUS
10
3.38729
20
0.190218
11
3.38485
21
0.185343
0
LINE
8
BLACK
6
CONTINUOUS
10
3.38485
20
0.185343
11
3.38432
21
0.184634
0
LINE
8
BLACK
6
CONTINUOUS
10
3.38432
20
0.184634
11
3.3843
21
0.184576
0
LINE
8
BLACK
6
CONTINUOUS
10
3.3843
20
0.184576
11
3.38186
21
0.182139
0
LINE
8
BLACK
6
CONTINUOUS
10
3.38186
20
0.182139
11
3.38114
21
0.181632
0
LINE
8
BLACK
6
CONTINUOUS
10
3.38114
20
0.181632
11
3.38109
21
0.181586
0
LINE
8
BLACK
6
CONTINUOUS
10
3.38109
20
0.181586
11
3.37622
21
0.179148
0
LINE
8
BLACK
6
CONTINUOUS
10
3.37622
20
0.179148
11
3.37523
21
0.178856
0
LINE
8
BLACK
6
CONTINUOUS
10
3.37523
20
0.178856
11
3.37506
21
0.178897
0
LINE
8
BLACK
6
CONTINUOUS
10
3.37506
20
0.178897
11
3.3749
21
0.178837
0
LINE
8
BLACK
6
CONTINUOUS
10
3.3749
20
0.178837
11
3.35835
21
0.178837
0
LINE
8
BLACK
6
CONTINUOUS
10
3.35835
20
0.178837
11
3.35835
21
0.157418
0
LINE
8
BLACK
6
CONTINUOUS
10
3.35835
20
0.157418
11
3.35817
21
0.156408
0
LINE
8
BLACK
6
CONTINUOUS
10
3.35817
20
0.156408
11
3.35688
21
0.15486
0
LINE
8
BLACK
6
CONTINUOUS
10
3.35688
20
0.15486
11
3.35489
21
0.15451
0
LINE
8
BLACK
6
CONTINUOUS
10
3.35489
20
0.15451
11
3.35314
21
0.15552
0
LINE
8
BLACK
6
CONTINUOUS
10
3.35314
20
0.15552
11
3.35245
21
0.157418
0
LINE
8
BLACK
6
CONTINUOUS
10
3.35245
20
0.157418
11
3.35245
21
0.208599
0
LINE
8
BLACK
6
CONTINUOUS
10
3.35245
20
0.208599
11
3.35251
21
0.208982
0
LINE
8
BLACK
6
CONTINUOUS
10
3.35251
20
0.208982
11
3.35249
21
0.209111
0
LINE
8
BLACK
6
CONTINUOUS
10
3.35249
20
0.209111
11
3.35256
21
0.209225
0
LINE
8
BLACK
6
CONTINUOUS
10
3.35256
20
0.209225
11
3.35262
21
0.209609
0
LINE
8
BLACK
6
CONTINUOUS
10
3.35262
20
0.209609
11
3.35312
21
0.210196
0
LINE
8
BLACK
6
CONTINUOUS
10
3.35312
20
0.210196
11
3.3535
21
0.210861
0
LINE
8
BLACK
6
CONTINUOUS
10
3.3535
20
0.210861
11
3.35375
21
0.210952
0
LINE
8
BLACK
6
CONTINUOUS
10
3.35375
20
0.210952
11
3.35392
21
0.211156
0
LINE
8
BLACK
6
CONTINUOUS
10
3.35392
20
0.211156
11
3.35468
21
0.211289
0
LINE
8
BLACK
6
CONTINUOUS
10
3.35468
20
0.211289
11
3.3554
21
0.211551
0
LINE
8
BLACK
6
CONTINUOUS
10
3.3554
20
0.211551
11
3.3749
21
0.211551
0
LINE
8
BLACK
6
CONTINUOUS
10
3.3749
20
0.211551
11
3.37591
21
0.211373
0
LINE
8
BLACK
6
CONTINUOUS
10
3.35835
20
0.205646
11
3.35835
21
0.184742
0
LINE
8
BLACK
6
CONTINUOUS
10
3.35835
20
0.184742
11
3.3742
21
0.184742
0
LINE
8
BLACK
6
CONTINUOUS
10
3.3742
20
0.184742
11
3.37802
21
0.186653
0
LINE
8
BLACK
6
CONTINUOUS
10
3.37802
20
0.186653
11
3.37978
21
0.188413
0
LINE
8
BLACK
6
CONTINUOUS
10
3.37978
20
0.188413
11
3.38169
21
0.192235
0
LINE
8
BLACK
6
CONTINUOUS
10
3.38169
20
0.192235
11
3.38169
21
0.198153
0
LINE
8
BLACK
6
CONTINUOUS
10
3.38169
20
0.198153
11
3.37978
21
0.201975
0
LINE
8
BLACK
6
CONTINUOUS
10
3.37978
20
0.201975
11
3.37802
21
0.203735
0
LINE
8
BLACK
6
CONTINUOUS
10
3.37802
20
0.203735
11
3.3742
21
0.205646
0
LINE
8
BLACK
6
CONTINUOUS
10
3.3742
20
0.205646
11
3.35835
21
0.205646
0
LINE
8
BLACK
6
CONTINUOUS
10
2.25677
20
0.202682
11
2.2569
21
0.202696
0
LINE
8
BLACK
6
CONTINUOUS
10
2.2569
20
0.202696
11
2.26815
21
0.199884
0
LINE
8
BLACK
6
CONTINUOUS
10
2.26815
20
0.199884
11
2.26862
21
0.199676
0
LINE
8
BLACK
6
CONTINUOUS
10
2.26862
20
0.199676
11
2.26876
21
0.19966
0
LINE
8
BLACK
6
CONTINUOUS
10
2.26876
20
0.19966
11
2.27438
21
0.196848
0
LINE
8
BLACK
6
CONTINUOUS
10
2.27438
20
0.196848
11
2.27509
21
0.196322
0
LINE
8
BLACK
6
CONTINUOUS
10
2.27509
20
0.196322
11
2.27515
21
0.196295
0
LINE
8
BLACK
6
CONTINUOUS
10
2.27515
20
0.196295
11
2.27796
21
0.193483
0
LINE
8
BLACK
6
CONTINUOUS
10
2.27796
20
0.193483
11
2.27847
21
0.19276
0
LINE
8
BLACK
6
CONTINUOUS
10
2.27847
20
0.19276
11
2.27851
21
0.192715
0
LINE
8
BLACK
6
CONTINUOUS
10
2.27851
20
0.192715
11
2.28132
21
0.187091
0
LINE
8
BLACK
6
CONTINUOUS
10
2.28132
20
0.187091
11
2.28162
21
0.186108
0
LINE
8
BLACK
6
CONTINUOUS
10
2.28162
20
0.186108
11
2.28158
21
0.185936
0
LINE
8
BLACK
6
CONTINUOUS
10
2.28158
20
0.185936
11
2.28164
21
0.185771
0
LINE
8
BLACK
6
CONTINUOUS
10
2.28164
20
0.185771
11
2.28164
21
0.180146
0
LINE
8
BLACK
6
CONTINUOUS
10
2.28164
20
0.180146
11
2.28146
21
0.179136
0
LINE
8
BLACK
6
CONTINUOUS
10
2.28146
20
0.179136
11
2.28135
21
0.179001
0
LINE
8
BLACK
6
CONTINUOUS
10
2.28135
20
0.179001
11
2.28132
21
0.178826
0
LINE
8
BLACK
6
CONTINUOUS
10
2.28132
20
0.178826
11
2.27851
21
0.173201
0
LINE
8
BLACK
6
CONTINUOUS
10
2.27851
20
0.173201
11
2.27799
21
0.172493
0
LINE
8
BLACK
6
CONTINUOUS
10
2.27799
20
0.172493
11
2.27796
21
0.172434
0
LINE
8
BLACK
6
CONTINUOUS
10
2.27796
20
0.172434
11
2.27515
21
0.169622
0
LINE
8
BLACK
6
CONTINUOUS
10
2.27515
20
0.169622
11
2.27442
21
0.169116
0
LINE
8
BLACK
6
CONTINUOUS
10
2.27442
20
0.169116
11
2.27438
21
0.169069
0
LINE
8
BLACK
6
CONTINUOUS
10
2.27438
20
0.169069
11
2.26876
21
0.166257
0
LINE
8
BLACK
6
CONTINUOUS
10
2.26876
20
0.166257
11
2.26827
21
0.166111
0
LINE
8
BLACK
6
CONTINUOUS
10
2.26827
20
0.166111
11
2.26815
21
0.166033
0
LINE
8
BLACK
6
CONTINUOUS
10
2.26815
20
0.166033
11
2.2569
21
0.163221
0
LINE
8
BLACK
6
CONTINUOUS
10
2.2569
20
0.163221
11
2.25631
21
0.163179
0
LINE
8
BLACK
6
CONTINUOUS
10
2.25631
20
0.163179
11
2.25619
21
0.163133
0
LINE
8
BLACK
6
CONTINUOUS
10
2.25619
20
0.163133
11
2.24213
21
0.163133
0
LINE
8
BLACK
6
CONTINUOUS
10
2.24213
20
0.163133
11
2.24155
21
0.163235
0
LINE
8
BLACK
6
CONTINUOUS
10
2.24155
20
0.163235
11
2.24141
21
0.163221
0
LINE
8
BLACK
6
CONTINUOUS
10
2.24141
20
0.163221
11
2.23016
21
0.166033
0
LINE
8
BLACK
6
CONTINUOUS
10
2.23016
20
0.166033
11
2.2297
21
0.166241
0
LINE
8
BLACK
6
CONTINUOUS
10
2.2297
20
0.166241
11
2.22956
21
0.166257
0
LINE
8
BLACK
6
CONTINUOUS
10
2.22956
20
0.166257
11
2.22393
21
0.169069
0
LINE
8
BLACK
6
CONTINUOUS
10
2.22393
20
0.169069
11
2.22322
21
0.169595
0
LINE
8
BLACK
6
CONTINUOUS
10
2.22322
20
0.169595
11
2.22317
21
0.169622
0
LINE
8
BLACK
6
CONTINUOUS
10
2.22317
20
0.169622
11
2.22035
21
0.172434
0
LINE
8
BLACK
6
CONTINUOUS
10
2.22035
20
0.172434
11
2.21985
21
0.173157
0
LINE
8
BLACK
6
CONTINUOUS
10
2.21985
20
0.173157
11
2.2198
21
0.173201
0
LINE
8
BLACK
6
CONTINUOUS
10
2.2198
20
0.173201
11
2.21699
21
0.178826
0
LINE
8
BLACK
6
CONTINUOUS
10
2.21699
20
0.178826
11
2.2167
21
0.179809
0
LINE
8
BLACK
6
CONTINUOUS
10
2.2167
20
0.179809
11
2.21674
21
0.17998
0
LINE
8
BLACK
6
CONTINUOUS
10
2.21674
20
0.17998
11
2.21668
21
0.180146
0
LINE
8
BLACK
6
CONTINUOUS
10
2.21668
20
0.180146
11
2.21668
21
0.185771
0
LINE
8
BLACK
6
CONTINUOUS
10
2.21668
20
0.185771
11
2.21685
21
0.18678
0
LINE
8
BLACK
6
CONTINUOUS
10
2.21685
20
0.18678
11
2.21697
21
0.186916
0
LINE
8
BLACK
6
CONTINUOUS
10
2.21697
20
0.186916
11
2.21699
21
0.187091
0
LINE
8
BLACK
6
CONTINUOUS
10
2.21699
20
0.187091
11
2.2198
21
0.192715
0
LINE
8
BLACK
6
CONTINUOUS
10
2.2198
20
0.192715
11
2.22033
21
0.193424
0
LINE
8
BLACK
6
CONTINUOUS
10
2.22033
20
0.193424
11
2.22035
21
0.193483
0
LINE
8
BLACK
6
CONTINUOUS
10
2.22035
20
0.193483
11
2.22317
21
0.196295
0
LINE
8
BLACK
6
CONTINUOUS
10
2.22317
20
0.196295
11
2.22389
21
0.196801
0
LINE
8
BLACK
6
CONTINUOUS
10
2.22389
20
0.196801
11
2.22393
21
0.196848
0
LINE
8
BLACK
6
CONTINUOUS
10
2.22393
20
0.196848
11
2.22956
21
0.19966
0
LINE
8
BLACK
6
CONTINUOUS
10
2.22956
20
0.19966
11
2.23005
21
0.199805
0
LINE
8
BLACK
6
CONTINUOUS
10
2.23005
20
0.199805
11
2.23016
21
0.199884
0
LINE
8
BLACK
6
CONTINUOUS
10
2.23016
20
0.199884
11
2.24141
21
0.202696
0
LINE
8
BLACK
6
CONTINUOUS
10
2.24141
20
0.202696
11
2.242
21
0.202737
0
LINE
8
BLACK
6
CONTINUOUS
10
2.242
20
0.202737
11
2.24213
21
0.202784
0
LINE
8
BLACK
6
CONTINUOUS
10
2.24213
20
0.202784
11
2.25619
21
0.202784
0
LINE
8
BLACK
6
CONTINUOUS
10
2.25619
20
0.202784
11
2.25677
21
0.202682
0
LINE
8
BLACK
6
CONTINUOUS
10
2.24249
20
0.196879
11
2.23191
21
0.194233
0
LINE
8
BLACK
6
CONTINUOUS
10
2.23191
20
0.194233
11
2.227
21
0.19178
0
LINE
8
BLACK
6
CONTINUOUS
10
2.227
20
0.19178
11
2.22487
21
0.189646
0
LINE
8
BLACK
6
CONTINUOUS
10
2.22487
20
0.189646
11
2.22258
21
0.185074
0
LINE
8
BLACK
6
CONTINUOUS
10
2.22258
20
0.185074
11
2.22258
21
0.180843
0
LINE
8
BLACK
6
CONTINUOUS
10
2.22258
20
0.180843
11
2.22487
21
0.176271
0
LINE
8
BLACK
6
CONTINUOUS
10
2.22487
20
0.176271
11
2.227
21
0.174137
0
LINE
8
BLACK
6
CONTINUOUS
10
2.227
20
0.174137
11
2.23191
21
0.171684
0
LINE
8
BLACK
6
CONTINUOUS
10
2.23191
20
0.171684
11
2.24249
21
0.169038
0
LINE
8
BLACK
6
CONTINUOUS
10
2.24249
20
0.169038
11
2.25582
21
0.169038
0
LINE
8
BLACK
6
CONTINUOUS
10
2.25582
20
0.169038
11
2.2664
21
0.171684
0
LINE
8
BLACK
6
CONTINUOUS
10
2.2664
20
0.171684
11
2.27131
21
0.174137
0
LINE
8
BLACK
6
CONTINUOUS
10
2.27131
20
0.174137
11
2.27345
21
0.176271
0
LINE
8
BLACK
6
CONTINUOUS
10
2.27345
20
0.176271
11
2.27573
21
0.180843
0
LINE
8
BLACK
6
CONTINUOUS
10
2.27573
20
0.180843
11
2.27573
21
0.185074
0
LINE
8
BLACK
6
CONTINUOUS
10
2.27573
20
0.185074
11
2.27345
21
0.189646
0
LINE
8
BLACK
6
CONTINUOUS
10
2.27345
20
0.189646
11
2.27131
21
0.19178
0
LINE
8
BLACK
6
CONTINUOUS
10
2.27131
20
0.19178
11
2.2664
21
0.194233
0
LINE
8
BLACK
6
CONTINUOUS
10
2.2664
20
0.194233
11
2.25582
21
0.196879
0
LINE
8
BLACK
6
CONTINUOUS
10
2.25582
20
0.196879
11
2.24249
21
0.196879
0
LINE
8
BLACK
6
CONTINUOUS
10
2.26845
20
0.258849
11
2.26858
21
0.258735
0
LINE
8
BLACK
6
CONTINUOUS
10
2.26858
20
0.258735
11
2.26876
21
0.258715
0
LINE
8
BLACK
6
CONTINUOUS
10
2.26876
20
0.258715
11
2.27438
21
0.255903
0
LINE
8
BLACK
6
CONTINUOUS
10
2.27438
20
0.255903
11
2.27509
21
0.255377
0
LINE
8
BLACK
6
CONTINUOUS
10
2.27509
20
0.255377
11
2.27515
21
0.25535
0
LINE
8
BLACK
6
CONTINUOUS
10
2.27515
20
0.25535
11
2.27796
21
0.252538
0
LINE
8
BLACK
6
CONTINUOUS
10
2.27796
20
0.252538
11
2.27847
21
0.251815
0
LINE
8
BLACK
6
CONTINUOUS
10
2.27847
20
0.251815
11
2.27851
21
0.25177
0
LINE
8
BLACK
6
CONTINUOUS
10
2.27851
20
0.25177
11
2.28132
21
0.246146
0
LINE
8
BLACK
6
CONTINUOUS
10
2.28132
20
0.246146
11
2.28162
21
0.245163
0
LINE
8
BLACK
6
CONTINUOUS
10
2.28162
20
0.245163
11
2.28158
21
0.244992
0
LINE
8
BLACK
6
CONTINUOUS
10
2.28158
20
0.244992
11
2.28164
21
0.244826
0
LINE
8
BLACK
6
CONTINUOUS
10
2.28164
20
0.244826
11
2.28164
21
0.230765
0
LINE
8
BLACK
6
CONTINUOUS
10
2.28164
20
0.230765
11
2.28146
21
0.229755
0
LINE
8
BLACK
6
CONTINUOUS
10
2.28146
20
0.229755
11
2.28135
21
0.22962
0
LINE
8
BLACK
6
CONTINUOUS
10
2.28135
20
0.22962
11
2.28132
21
0.229444
0
LINE
8
BLACK
6
CONTINUOUS
10
2.28132
20
0.229444
11
2.27851
21
0.22382
0
LINE
8
BLACK
6
CONTINUOUS
10
2.27851
20
0.22382
11
2.27799
21
0.223111
0
LINE
8
BLACK
6
CONTINUOUS
10
2.27799
20
0.223111
11
2.27796
21
0.223053
0
LINE
8
BLACK
6
CONTINUOUS
10
2.27796
20
0.223053
11
2.27515
21
0.220241
0
LINE
8
BLACK
6
CONTINUOUS
10
2.27515
20
0.220241
11
2.27431
21
0.219652
0
LINE
8
BLACK
6
CONTINUOUS
10
2.27431
20
0.219652
11
2.2723
21
0.219476
0
LINE
8
BLACK
6
CONTINUOUS
10
2.2723
20
0.219476
11
2.27064
21
0.220635
0
LINE
8
BLACK
6
CONTINUOUS
10
2.27064
20
0.220635
11
2.27012
21
0.222586
0
LINE
8
BLACK
6
CONTINUOUS
10
2.27012
20
0.222586
11
2.27097
21
0.224416
0
LINE
8
BLACK
6
CONTINUOUS
10
2.27097
20
0.224416
11
2.27345
21
0.22689
0
LINE
8
BLACK
6
CONTINUOUS
10
2.27345
20
0.22689
11
2.27573
21
0.231462
0
LINE
8
BLACK
6
CONTINUOUS
10
2.27573
20
0.231462
11
2.27573
21
0.244129
0
LINE
8
BLACK
6
CONTINUOUS
10
2.27573
20
0.244129
11
2.27345
21
0.248701
0
LINE
8
BLACK
6
CONTINUOUS
10
2.27345
20
0.248701
11
2.27131
21
0.250835
0
LINE
8
BLACK
6
CONTINUOUS
10
2.27131
20
0.250835
11
2.26674
21
0.253121
0
LINE
8
BLACK
6
CONTINUOUS
10
2.26674
20
0.253121
11
2.25407
21
0.253121
0
LINE
8
BLACK
6
CONTINUOUS
10
2.25407
20
0.253121
11
2.2495
21
0.250835
0
LINE
8
BLACK
6
CONTINUOUS
10
2.2495
20
0.250835
11
2.24736
21
0.248701
0
LINE
8
BLACK
6
CONTINUOUS
10
2.24736
20
0.248701
11
2.24508
21
0.244129
0
LINE
8
BLACK
6
CONTINUOUS
10
2.24508
20
0.244129
11
2.24508
21
0.231462
0
LINE
8
BLACK
6
CONTINUOUS
10
2.24508
20
0.231462
11
2.24736
21
0.22689
0
LINE
8
BLACK
6
CONTINUOUS
10
2.24736
20
0.22689
11
2.24984
21
0.224416
0
LINE
8
BLACK
6
CONTINUOUS
10
2.24984
20
0.224416
11
2.25043
21
0.223576
0
LINE
8
BLACK
6
CONTINUOUS
10
2.25043
20
0.223576
11
2.25043
21
0.223557
0
LINE
8
BLACK
6
CONTINUOUS
10
2.25043
20
0.223557
11
2.25044
21
0.223543
0
LINE
8
BLACK
6
CONTINUOUS
10
2.25044
20
0.223543
11
2.25052
21
0.222554
0
LINE
8
BLACK
6
CONTINUOUS
10
2.25052
20
0.222554
11
2.2506
21
0.221564
0
LINE
8
BLACK
6
CONTINUOUS
10
2.2506
20
0.221564
11
2.25059
21
0.221548
0
LINE
8
BLACK
6
CONTINUOUS
10
2.25059
20
0.221548
11
2.25059
21
0.221529
0
LINE
8
BLACK
6
CONTINUOUS
10
2.25059
20
0.221529
11
2.25001
21
0.220723
0
LINE
8
BLACK
6
CONTINUOUS
10
2.25001
20
0.220723
11
2.24944
21
0.21991
0
LINE
8
BLACK
6
CONTINUOUS
10
2.24944
20
0.21991
11
2.24943
21
0.219905
0
LINE
8
BLACK
6
CONTINUOUS
10
2.24943
20
0.219905
11
2.24941
21
0.219889
0
LINE
8
BLACK
6
CONTINUOUS
10
2.24941
20
0.219889
11
2.24845
21
0.219644
0
LINE
8
BLACK
6
CONTINUOUS
10
2.24845
20
0.219644
11
2.24749
21
0.219387
0
LINE
8
BLACK
6
CONTINUOUS
10
2.24749
20
0.219387
11
2.24748
21
0.219395
0
LINE
8
BLACK
6
CONTINUOUS
10
2.24748
20
0.219395
11
2.24746
21
0.21939
0
LINE
8
BLACK
6
CONTINUOUS
10
2.24746
20
0.21939
11
2.21933
21
0.222203
0
LINE
8
BLACK
6
CONTINUOUS
10
2.21933
20
0.222203
11
2.21918
21
0.222245
0
LINE
8
BLACK
6
CONTINUOUS
10
2.21918
20
0.222245
11
2.21912
21
0.222233
0
LINE
8
BLACK
6
CONTINUOUS
10
2.21912
20
0.222233
11
2.21901
21
0.222294
0
LINE
8
BLACK
6
CONTINUOUS
10
2.21901
20
0.222294
11
2.21835
21
0.22248
0
LINE
8
BLACK
6
CONTINUOUS
10
2.21835
20
0.22248
11
2.21791
21
0.222929
0
LINE
8
BLACK
6
CONTINUOUS
10
2.21791
20
0.222929
11
2.21737
21
0.223243
0
LINE
8
BLACK
6
CONTINUOUS
10
2.21737
20
0.223243
11
2.21723
21
0.223631
0
LINE
8
BLACK
6
CONTINUOUS
10
2.21723
20
0.223631
11
2.21694
21
0.223926
0
LINE
8
BLACK
6
CONTINUOUS
10
2.21694
20
0.223926
11
2.21689
21
0.224551
0
LINE
8
BLACK
6
CONTINUOUS
10
2.21689
20
0.224551
11
2.21668
21
0.225141
0
LINE
8
BLACK
6
CONTINUOUS
10
2.21668
20
0.225141
11
2.21668
21
0.253262
0
LINE
8
BLACK
6
CONTINUOUS
10
2.21668
20
0.253262
11
2.21685
21
0.254272
0
LINE
8
BLACK
6
CONTINUOUS
10
2.21685
20
0.254272
11
2.21815
21
0.255819
0
LINE
8
BLACK
6
CONTINUOUS
10
2.21815
20
0.255819
11
2.22014
21
0.25617
0
LINE
8
BLACK
6
CONTINUOUS
10
2.22014
20
0.25617
11
2.22189
21
0.25516
0
LINE
8
BLACK
6
CONTINUOUS
10
2.22189
20
0.25516
11
2.22258
21
0.253262
0
LINE
8
BLACK
6
CONTINUOUS
10
2.22258
20
0.253262
11
2.22258
21
0.227813
0
LINE
8
BLACK
6
CONTINUOUS
10
2.22258
20
0.227813
11
2.24123
21
0.225948
0
LINE
8
BLACK
6
CONTINUOUS
10
2.24123
20
0.225948
11
2.23948
21
0.229444
0
LINE
8
BLACK
6
CONTINUOUS
10
2.23948
20
0.229444
11
2.23919
21
0.230427
0
LINE
8
BLACK
6
CONTINUOUS
10
2.23919
20
0.230427
11
2.23923
21
0.230599
0
LINE
8
BLACK
6
CONTINUOUS
10
2.23923
20
0.230599
11
2.23917
21
0.230765
0
LINE
8
BLACK
6
CONTINUOUS
10
2.23917
20
0.230765
11
2.23917
21
0.244826
0
LINE
8
BLACK
6
CONTINUOUS
10
2.23917
20
0.244826
11
2.23935
21
0.245836
0
LINE
8
BLACK
6
CONTINUOUS
10
2.23935
20
0.245836
11
2.23946
21
0.245971
0
LINE
8
BLACK
6
CONTINUOUS
10
2.23946
20
0.245971
11
2.23948
21
0.246146
0
LINE
8
BLACK
6
CONTINUOUS
10
2.23948
20
0.246146
11
2.2423
21
0.25177
0
LINE
8
BLACK
6
CONTINUOUS
10
2.2423
20
0.25177
11
2.24282
21
0.25248
0
LINE
8
BLACK
6
CONTINUOUS
10
2.24282
20
0.25248
11
2.24285
21
0.252538
0
LINE
8
BLACK
6
CONTINUOUS
10
2.24285
20
0.252538
11
2.24566
21
0.25535
0
LINE
8
BLACK
6
CONTINUOUS
10
2.24566
20
0.25535
11
2.24639
21
0.255856
0
LINE
8
BLACK
6
CONTINUOUS
10
2.24639
20
0.255856
11
2.24643
21
0.255903
0
LINE
8
BLACK
6
CONTINUOUS
10
2.24643
20
0.255903
11
2.25205
21
0.258715
0
LINE
8
BLACK
6
CONTINUOUS
10
2.25205
20
0.258715
11
2.25304
21
0.259008
0
LINE
8
BLACK
6
CONTINUOUS
10
2.25304
20
0.259008
11
2.25321
21
0.258967
0
LINE
8
BLACK
6
CONTINUOUS
10
2.25321
20
0.258967
11
2.25337
21
0.259027
0
LINE
8
BLACK
6
CONTINUOUS
10
2.25337
20
0.259027
11
2.26744
21
0.259027
0
LINE
8
BLACK
6
CONTINUOUS
10
2.26744
20
0.259027
11
2.26845
21
0.258849
0
LINE
8
BLACK
6
CONTINUOUS
10
2.28657
20
0.314215
11
2.28726
21
0.312317
0
LINE
8
BLACK
6
CONTINUOUS
10
2.28726
20
0.312317
11
2.28726
21
0.267323
0
LINE
8
BLACK
6
CONTINUOUS
10
2.28726
20
0.267323
11
2.28708
21
0.266313
0
LINE
8
BLACK
6
CONTINUOUS
10
2.28708
20
0.266313
11
2.28578
21
0.264766
0
LINE
8
BLACK
6
CONTINUOUS
10
2.28578
20
0.264766
11
2.2838
21
0.264415
0
LINE
8
BLACK
6
CONTINUOUS
10
2.2838
20
0.264415
11
2.28205
21
0.265425
0
LINE
8
BLACK
6
CONTINUOUS
10
2.28205
20
0.265425
11
2.28136
21
0.267323
0
LINE
8
BLACK
6
CONTINUOUS
10
2.28136
20
0.267323
11
2.28136
21
0.312317
0
LINE
8
BLACK
6
CONTINUOUS
10
2.28136
20
0.312317
11
2.28153
21
0.313327
0
LINE
8
BLACK
6
CONTINUOUS
10
2.28153
20
0.313327
11
2.28283
21
0.314874
0
LINE
8
BLACK
6
CONTINUOUS
10
2.28283
20
0.314874
11
2.28482
21
0.315225
0
LINE
8
BLACK
6
CONTINUOUS
10
2.28482
20
0.315225
11
2.28657
21
0.314215
0
LINE
8
BLACK
6
CONTINUOUS
10
2.76157
20
0.319746
11
2.76186
21
0.31905
0
LINE
8
BLACK
6
CONTINUOUS
10
2.76186
20
0.31905
11
2.76186
21
0.307801
0
LINE
8
BLACK
6
CONTINUOUS
10
2.76186
20
0.307801
11
2.76157
21
0.307105
0
LINE
8
BLACK
6
CONTINUOUS
10
2.76157
20
0.307105
11
2.76087
21
0.306817
0
LINE
8
BLACK
6
CONTINUOUS
10
2.76087
20
0.306817
11
2.76018
21
0.307105
0
LINE
8
BLACK
6
CONTINUOUS
10
2.76018
20
0.307105
11
2.75989
21
0.307801
0
LINE
8
BLACK
6
CONTINUOUS
10
2.75989
20
0.307801
11
2.75989
21
0.312441
0
LINE
8
BLACK
6
CONTINUOUS
10
2.75989
20
0.312441
11
2.74444
21
0.312441
0
LINE
8
BLACK
6
CONTINUOUS
10
2.74444
20
0.312441
11
2.74455
21
0.312369
0
LINE
8
BLACK
6
CONTINUOUS
10
2.74455
20
0.312369
11
2.7446
21
0.312285
0
LINE
8
BLACK
6
CONTINUOUS
10
2.7446
20
0.312285
11
2.7447
21
0.312246
0
LINE
8
BLACK
6
CONTINUOUS
10
2.7447
20
0.312246
11
2.74657
21
0.310372
0
LINE
8
BLACK
6
CONTINUOUS
10
2.74657
20
0.310372
11
2.74663
21
0.310222
0
LINE
8
BLACK
6
CONTINUOUS
10
2.74663
20
0.310222
11
2.74676
21
0.310116
0
LINE
8
BLACK
6
CONTINUOUS
10
2.74676
20
0.310116
11
2.74769
21
0.308241
0
LINE
8
BLACK
6
CONTINUOUS
10
2.74769
20
0.308241
11
2.74775
21
0.30749
0
LINE
8
BLACK
6
CONTINUOUS
10
2.74775
20
0.30749
11
2.74725
21
0.306921
0
LINE
8
BLACK
6
CONTINUOUS
10
2.74725
20
0.306921
11
2.7465
21
0.306867
0
LINE
8
BLACK
6
CONTINUOUS
10
2.7465
20
0.306867
11
2.74593
21
0.307361
0
LINE
8
BLACK
6
CONTINUOUS
10
2.74593
20
0.307361
11
2.74507
21
0.309093
0
LINE
8
BLACK
6
CONTINUOUS
10
2.74507
20
0.309093
11
2.74337
21
0.310786
0
LINE
8
BLACK
6
CONTINUOUS
10
2.74337
20
0.310786
11
2.74064
21
0.312606
0
LINE
8
BLACK
6
CONTINUOUS
10
2.74064
20
0.312606
11
2.74059
21
0.31269
0
LINE
8
BLACK
6
CONTINUOUS
10
2.74059
20
0.31269
11
2.74049
21
0.312729
0
LINE
8
BLACK
6
CONTINUOUS
10
2.74049
20
0.312729
11
2.74038
21
0.312994
0
LINE
8
BLACK
6
CONTINUOUS
10
2.74038
20
0.312994
11
2.74022
21
0.313232
0
LINE
8
BLACK
6
CONTINUOUS
10
2.74022
20
0.313232
11
2.74024
21
0.313332
0
LINE
8
BLACK
6
CONTINUOUS
10
2.74024
20
0.313332
11
2.7402
21
0.313425
0
LINE
8
BLACK
6
CONTINUOUS
10
2.7402
20
0.313425
11
2.74031
21
0.31369
0
LINE
8
BLACK
6
CONTINUOUS
10
2.74031
20
0.31369
11
2.74037
21
0.313971
0
LINE
8
BLACK
6
CONTINUOUS
10
2.74037
20
0.313971
11
2.74045
21
0.314028
0
LINE
8
BLACK
6
CONTINUOUS
10
2.74045
20
0.314028
11
2.74049
21
0.314121
0
LINE
8
BLACK
6
CONTINUOUS
10
2.74049
20
0.314121
11
2.74076
21
0.314231
0
LINE
8
BLACK
6
CONTINUOUS
10
2.74076
20
0.314231
11
2.741
21
0.31439
0
LINE
8
BLACK
6
CONTINUOUS
10
2.741
20
0.31439
11
2.7411
21
0.314371
0
LINE
8
BLACK
6
CONTINUOUS
10
2.7411
20
0.314371
11
2.74119
21
0.314409
0
LINE
8
BLACK
6
CONTINUOUS
10
2.74119
20
0.314409
11
2.75989
21
0.314409
0
LINE
8
BLACK
6
CONTINUOUS
10
2.75989
20
0.314409
11
2.75989
21
0.31905
0
LINE
8
BLACK
6
CONTINUOUS
10
2.75989
20
0.31905
11
2.76018
21
0.319746
0
LINE
8
BLACK
6
CONTINUOUS
10
2.76018
20
0.319746
11
2.76087
21
0.320034
0
LINE
8
BLACK
6
CONTINUOUS
10
2.76087
20
0.320034
11
2.76157
21
0.319746
0
LINE
8
BLACK
6
CONTINUOUS
10
2.24032
20
0.362898
11
2.24046
21
0.362785
0
LINE
8
BLACK
6
CONTINUOUS
10
2.24046
20
0.362785
11
2.24063
21
0.362765
0
LINE
8
BLACK
6
CONTINUOUS
10
2.24063
20
0.362765
11
2.24626
21
0.359953
0
LINE
8
BLACK
6
CONTINUOUS
10
2.24626
20
0.359953
11
2.24697
21
0.359427
0
LINE
8
BLACK
6
CONTINUOUS
10
2.24697
20
0.359427
11
2.24703
21
0.3594
0
LINE
8
BLACK
6
CONTINUOUS
10
2.24703
20
0.3594
11
2.24984
21
0.356587
0
LINE
8
BLACK
6
CONTINUOUS
10
2.24984
20
0.356587
11
2.25034
21
0.355864
0
LINE
8
BLACK
6
CONTINUOUS
10
2.25034
20
0.355864
11
2.25039
21
0.35582
0
LINE
8
BLACK
6
CONTINUOUS
10
2.25039
20
0.35582
11
2.2532
21
0.350196
0
LINE
8
BLACK
6
CONTINUOUS
10
2.2532
20
0.350196
11
2.2535
21
0.349213
0
LINE
8
BLACK
6
CONTINUOUS
10
2.2535
20
0.349213
11
2.25345
21
0.349041
0
LINE
8
BLACK
6
CONTINUOUS
10
2.25345
20
0.349041
11
2.25352
21
0.348875
0
LINE
8
BLACK
6
CONTINUOUS
10
2.25352
20
0.348875
11
2.25352
21
0.329331
0
LINE
8
BLACK
6
CONTINUOUS
10
2.25352
20
0.329331
11
2.27868
21
0.329331
0
LINE
8
BLACK
6
CONTINUOUS
10
2.27868
20
0.329331
11
2.27969
21
0.329153
0
LINE
8
BLACK
6
CONTINUOUS
10
2.27969
20
0.329153
11
2.28124
21
0.327854
0
LINE
8
BLACK
6
CONTINUOUS
10
2.28124
20
0.327854
11
2.28159
21
0.325865
0
LINE
8
BLACK
6
CONTINUOUS
10
2.28159
20
0.325865
11
2.28058
21
0.324116
0
LINE
8
BLACK
6
CONTINUOUS
10
2.28058
20
0.324116
11
2.27868
21
0.323425
0
LINE
8
BLACK
6
CONTINUOUS
10
2.27868
20
0.323425
11
2.21963
21
0.323425
0
LINE
8
BLACK
6
CONTINUOUS
10
2.21963
20
0.323425
11
2.21925
21
0.323493
0
LINE
8
BLACK
6
CONTINUOUS
10
2.21925
20
0.323493
11
2.21912
21
0.32347
0
LINE
8
BLACK
6
CONTINUOUS
10
2.21912
20
0.32347
11
2.219
21
0.323536
0
LINE
8
BLACK
6
CONTINUOUS
10
2.219
20
0.323536
11
2.21862
21
0.323603
0
LINE
8
BLACK
6
CONTINUOUS
10
2.21862
20
0.323603
11
2.21803
21
0.324096
0
LINE
8
BLACK
6
CONTINUOUS
10
2.21803
20
0.324096
11
2.21737
21
0.32448
0
LINE
8
BLACK
6
CONTINUOUS
10
2.21737
20
0.32448
11
2.21728
21
0.32473
0
LINE
8
BLACK
6
CONTINUOUS
10
2.21728
20
0.32473
11
2.21707
21
0.324902
0
LINE
8
BLACK
6
CONTINUOUS
10
2.21707
20
0.324902
11
2.21694
21
0.325657
0
LINE
8
BLACK
6
CONTINUOUS
10
2.21694
20
0.325657
11
2.21668
21
0.326378
0
LINE
8
BLACK
6
CONTINUOUS
10
2.21668
20
0.326378
11
2.21668
21
0.348875
0
LINE
8
BLACK
6
CONTINUOUS
10
2.21668
20
0.348875
11
2.21685
21
0.349885
0
LINE
8
BLACK
6
CONTINUOUS
10
2.21685
20
0.349885
11
2.21697
21
0.35002
0
LINE
8
BLACK
6
CONTINUOUS
10
2.21697
20
0.35002
11
2.21699
21
0.350196
0
LINE
8
BLACK
6
CONTINUOUS
10
2.21699
20
0.350196
11
2.2198
21
0.35582
0
LINE
8
BLACK
6
CONTINUOUS
10
2.2198
20
0.35582
11
2.22033
21
0.356529
0
LINE
8
BLACK
6
CONTINUOUS
10
2.22033
20
0.356529
11
2.22035
21
0.356587
0
LINE
8
BLACK
6
CONTINUOUS
10
2.22035
20
0.356587
11
2.22317
21
0.3594
0
LINE
8
BLACK
6
CONTINUOUS
10
2.22317
20
0.3594
11
2.22389
21
0.359906
0
LINE
8
BLACK
6
CONTINUOUS
10
2.22389
20
0.359906
11
2.22393
21
0.359953
0
LINE
8
BLACK
6
CONTINUOUS
10
2.22393
20
0.359953
11
2.22956
21
0.362765
0
LINE
8
BLACK
6
CONTINUOUS
10
2.22956
20
0.362765
11
2.23054
21
0.363057
0
LINE
8
BLACK
6
CONTINUOUS
10
2.23054
20
0.363057
11
2.23071
21
0.363016
0
LINE
8
BLACK
6
CONTINUOUS
10
2.23071
20
0.363016
11
2.23088
21
0.363076
0
LINE
8
BLACK
6
CONTINUOUS
10
2.23088
20
0.363076
11
2.23931
21
0.363076
0
LINE
8
BLACK
6
CONTINUOUS
10
2.23931
20
0.363076
11
2.24032
21
0.362898
0
LINE
8
BLACK
6
CONTINUOUS
10
2.23157
20
0.357171
11
2.227
21
0.354885
0
LINE
8
BLACK
6
CONTINUOUS
10
2.227
20
0.354885
11
2.22487
21
0.35275
0
LINE
8
BLACK
6
CONTINUOUS
10
2.22487
20
0.35275
11
2.22258
21
0.348178
0
LINE
8
BLACK
6
CONTINUOUS
10
2.22258
20
0.348178
11
2.22258
21
0.329331
0
LINE
8
BLACK
6
CONTINUOUS
10
2.22258
20
0.329331
11
2.24761
21
0.329331
0
LINE
8
BLACK
6
CONTINUOUS
10
2.24761
20
0.329331
11
2.24761
21
0.348178
0
LINE
8
BLACK
6
CONTINUOUS
10
2.24761
20
0.348178
11
2.24532
21
0.35275
0
LINE
8
BLACK
6
CONTINUOUS
10
2.24532
20
0.35275
11
2.24319
21
0.354885
0
LINE
8
BLACK
6
CONTINUOUS
10
2.24319
20
0.354885
11
2.23862
21
0.357171
0
LINE
8
BLACK
6
CONTINUOUS
10
2.23862
20
0.357171
11
2.23157
21
0.357171
0
LINE
8
BLACK
6
CONTINUOUS
10
2.28064
20
0.418576
11
2.2816
21
0.4168
0
LINE
8
BLACK
6
CONTINUOUS
10
2.2816
20
0.4168
11
2.2812
21
0.414821
0
LINE
8
BLACK
6
CONTINUOUS
10
2.2812
20
0.414821
11
2.27962
21
0.413566
0
LINE
8
BLACK
6
CONTINUOUS
10
2.27962
20
0.413566
11
2.26476
21
0.408614
0
LINE
8
BLACK
6
CONTINUOUS
10
2.26476
20
0.408614
11
2.26476
21
0.384749
0
LINE
8
BLACK
6
CONTINUOUS
10
2.26476
20
0.384749
11
2.27962
21
0.379798
0
LINE
8
BLACK
6
CONTINUOUS
10
2.27962
20
0.379798
11
2.28052
21
0.37931
0
LINE
8
BLACK
6
CONTINUOUS
10
2.28052
20
0.37931
11
2.28158
21
0.377589
0
LINE
8
BLACK
6
CONTINUOUS
10
2.28158
20
0.377589
11
2.28128
21
0.375591
0
LINE
8
BLACK
6
CONTINUOUS
10
2.28128
20
0.375591
11
2.27977
21
0.374251
0
LINE
8
BLACK
6
CONTINUOUS
10
2.27977
20
0.374251
11
2.27775
21
0.374195
0
LINE
8
BLACK
6
CONTINUOUS
10
2.27775
20
0.374195
11
2.2187
21
0.39388
0
LINE
8
BLACK
6
CONTINUOUS
10
2.2187
20
0.39388
11
2.21779
21
0.394369
0
LINE
8
BLACK
6
CONTINUOUS
10
2.21779
20
0.394369
11
2.21775
21
0.394441
0
LINE
8
BLACK
6
CONTINUOUS
10
2.21775
20
0.394441
11
2.21767
21
0.394472
0
LINE
8
BLACK
6
CONTINUOUS
10
2.21767
20
0.394472
11
2.21722
21
0.395294
0
LINE
8
BLACK
6
CONTINUOUS
10
2.21722
20
0.395294
11
2.21674
21
0.39609
0
LINE
8
BLACK
6
CONTINUOUS
10
2.21674
20
0.39609
11
2.21675
21
0.396174
0
LINE
8
BLACK
6
CONTINUOUS
10
2.21675
20
0.396174
11
2.21671
21
0.396249
0
LINE
8
BLACK
6
CONTINUOUS
10
2.21671
20
0.396249
11
2.2169
21
0.397164
0
LINE
8
BLACK
6
CONTINUOUS
10
2.2169
20
0.397164
11
2.21703
21
0.398088
0
LINE
8
BLACK
6
CONTINUOUS
10
2.21703
20
0.398088
11
2.2171
21
0.398144
0
LINE
8
BLACK
6
CONTINUOUS
10
2.2171
20
0.398144
11
2.21711
21
0.398227
0
LINE
8
BLACK
6
CONTINUOUS
10
2.21711
20
0.398227
11
2.21784
21
0.398808
0
LINE
8
BLACK
6
CONTINUOUS
10
2.21784
20
0.398808
11
2.21854
21
0.399428
0
LINE
8
BLACK
6
CONTINUOUS
10
2.21854
20
0.399428
11
2.21863
21
0.39943
0
LINE
8
BLACK
6
CONTINUOUS
10
2.21863
20
0.39943
11
2.2187
21
0.399483
0
LINE
8
BLACK
6
CONTINUOUS
10
2.2187
20
0.399483
11
2.27775
21
0.419168
0
LINE
8
BLACK
6
CONTINUOUS
10
2.27775
20
0.419168
11
2.27876
21
0.419318
0
LINE
8
BLACK
6
CONTINUOUS
10
2.27876
20
0.419318
11
2.28064
21
0.418576
0
LINE
8
BLACK
6
CONTINUOUS
10
2.22897
20
0.396682
11
2.25886
21
0.386718
0
LINE
8
BLACK
6
CONTINUOUS
10
2.25886
20
0.386718
11
2.25886
21
0.406646
0
LINE
8
BLACK
6
CONTINUOUS
10
2.25886
20
0.406646
11
2.22897
21
0.396682
0
LINE
8
BLACK
6
CONTINUOUS
10
2.24032
20
0.472572
11
2.24046
21
0.472459
0
LINE
8
BLACK
6
CONTINUOUS
10
2.24046
20
0.472459
11
2.24063
21
0.472439
0
LINE
8
BLACK
6
CONTINUOUS
10
2.24063
20
0.472439
11
2.24626
21
0.469626
0
LINE
8
BLACK
6
CONTINUOUS
10
2.24626
20
0.469626
11
2.24697
21
0.469101
0
LINE
8
BLACK
6
CONTINUOUS
10
2.24697
20
0.469101
11
2.24703
21
0.469073
0
LINE
8
BLACK
6
CONTINUOUS
10
2.24703
20
0.469073
11
2.24984
21
0.466261
0
LINE
8
BLACK
6
CONTINUOUS
10
2.24984
20
0.466261
11
2.25034
21
0.465538
0
LINE
8
BLACK
6
CONTINUOUS
10
2.25034
20
0.465538
11
2.25039
21
0.465494
0
LINE
8
BLACK
6
CONTINUOUS
10
2.25039
20
0.465494
11
2.2532
21
0.459869
0
LINE
8
BLACK
6
CONTINUOUS
10
2.2532
20
0.459869
11
2.2535
21
0.458886
0
LINE
8
BLACK
6
CONTINUOUS
10
2.2535
20
0.458886
11
2.25345
21
0.458715
0
LINE
8
BLACK
6
CONTINUOUS
10
2.25345
20
0.458715
11
2.25352
21
0.458549
0
LINE
8
BLACK
6
CONTINUOUS
10
2.25352
20
0.458549
11
2.25352
21
0.455784
0
LINE
8
BLACK
6
CONTINUOUS
10
2.25352
20
0.455784
11
2.27699
21
0.472217
0
LINE
8
BLACK
6
CONTINUOUS
10
2.27699
20
0.472217
11
2.27792
21
0.47265
0
LINE
8
BLACK
6
CONTINUOUS
10
2.27792
20
0.47265
11
2.27993
21
0.472474
0
LINE
8
BLACK
6
CONTINUOUS
10
2.27993
20
0.472474
11
2.28136
21
0.471045
0
LINE
8
BLACK
6
CONTINUOUS
10
2.28136
20
0.471045
11
2.28154
21
0.469033
0
LINE
8
BLACK
6
CONTINUOUS
10
2.28154
20
0.469033
11
2.28038
21
0.467379
0
LINE
8
BLACK
6
CONTINUOUS
10
2.28038
20
0.467379
11
2.25352
21
0.448575
0
LINE
8
BLACK
6
CONTINUOUS
10
2.25352
20
0.448575
11
2.25352
21
0.439005
0
LINE
8
BLACK
6
CONTINUOUS
10
2.25352
20
0.439005
11
2.27868
21
0.439005
0
LINE
8
BLACK
6
CONTINUOUS
10
2.27868
20
0.439005
11
2.27969
21
0.438826
0
LINE
8
BLACK
6
CONTINUOUS
10
2.27969
20
0.438826
11
2.28124
21
0.437528
0
LINE
8
BLACK
6
CONTINUOUS
10
2.28124
20
0.437528
11
2.28159
21
0.435539
0
LINE
8
BLACK
6
CONTINUOUS
10
2.28159
20
0.435539
11
2.28058
21
0.43379
0
LINE
8
BLACK
6
CONTINUOUS
10
2.28058
20
0.43379
11
2.27868
21
0.433099
0
LINE
8
BLACK
6
CONTINUOUS
10
2.27868
20
0.433099
11
2.21963
21
0.433099
0
LINE
8
BLACK
6
CONTINUOUS
10
2.21963
20
0.433099
11
2.21925
21
0.433167
0
LINE
8
BLACK
6
CONTINUOUS
10
2.21925
20
0.433167
11
2.21912
21
0.433144
0
LINE
8
BLACK
6
CONTINUOUS
10
2.21912
20
0.433144
11
2.219
21
0.433209
0
LINE
8
BLACK
6
CONTINUOUS
10
2.219
20
0.433209
11
2.21862
21
0.433277
0
LINE
8
BLACK
6
CONTINUOUS
10
2.21862
20
0.433277
11
2.21803
21
0.43377
0
LINE
8
BLACK
6
CONTINUOUS
10
2.21803
20
0.43377
11
2.21737
21
0.434154
0
LINE
8
BLACK
6
CONTINUOUS
10
2.21737
20
0.434154
11
2.21728
21
0.434404
0
LINE
8
BLACK
6
CONTINUOUS
10
2.21728
20
0.434404
11
2.21707
21
0.434575
0
LINE
8
BLACK
6
CONTINUOUS
10
2.21707
20
0.434575
11
2.21694
21
0.435331
0
LINE
8
BLACK
6
CONTINUOUS
10
2.21694
20
0.435331
11
2.21668
21
0.436052
0
LINE
8
BLACK
6
CONTINUOUS
10
2.21668
20
0.436052
11
2.21668
21
0.458549
0
LINE
8
BLACK
6
CONTINUOUS
10
2.21668
20
0.458549
11
2.21685
21
0.459559
0
LINE
8
BLACK
6
CONTINUOUS
10
2.21685
20
0.459559
11
2.21697
21
0.459694
0
LINE
8
BLACK
6
CONTINUOUS
10
2.21697
20
0.459694
11
2.21699
21
0.459869
0
LINE
8
BLACK
6
CONTINUOUS
10
2.21699
20
0.459869
11
2.2198
21
0.465494
0
LINE
8
BLACK
6
CONTINUOUS
10
2.2198
20
0.465494
11
2.22033
21
0.466203
0
LINE
8
BLACK
6
CONTINUOUS
10
2.22033
20
0.466203
11
2.22035
21
0.466261
0
LINE
8
BLACK
6
CONTINUOUS
10
2.22035
20
0.466261
11
2.22317
21
0.469073
0
LINE
8
BLACK
6
CONTINUOUS
10
2.22317
20
0.469073
11
2.22389
21
0.46958
0
LINE
8
BLACK
6
CONTINUOUS
10
2.22389
20
0.46958
11
2.22393
21
0.469626
0
LINE
8
BLACK
6
CONTINUOUS
10
2.22393
20
0.469626
11
2.22956
21
0.472439
0
LINE
8
BLACK
6
CONTINUOUS
10
2.22956
20
0.472439
11
2.23054
21
0.472731
0
LINE
8
BLACK
6
CONTINUOUS
10
2.23054
20
0.472731
11
2.23071
21
0.47269
0
LINE
8
BLACK
6
CONTINUOUS
10
2.23071
20
0.47269
11
2.23088
21
0.47275
0
LINE
8
BLACK
6
CONTINUOUS
10
2.23088
20
0.47275
11
2.23931
21
0.47275
0
LINE
8
BLACK
6
CONTINUOUS
10
2.23931
20
0.47275
11
2.24032
21
0.472572
0
LINE
8
BLACK
6
CONTINUOUS
10
2.23157
20
0.466845
11
2.227
21
0.464559
0
LINE
8
BLACK
6
CONTINUOUS
10
2.227
20
0.464559
11
2.22487
21
0.462424
0
LINE
8
BLACK
6
CONTINUOUS
10
2.22487
20
0.462424
11
2.22258
21
0.457852
0
LINE
8
BLACK
6
CONTINUOUS
10
2.22258
20
0.457852
11
2.22258
21
0.439005
0
LINE
8
BLACK
6
CONTINUOUS
10
2.22258
20
0.439005
11
2.24761
21
0.439005
0
LINE
8
BLACK
6
CONTINUOUS
10
2.24761
20
0.439005
11
2.24761
21
0.457852
0
LINE
8
BLACK
6
CONTINUOUS
10
2.24761
20
0.457852
11
2.24532
21
0.462424
0
LINE
8
BLACK
6
CONTINUOUS
10
2.24532
20
0.462424
11
2.24319
21
0.464559
0
LINE
8
BLACK
6
CONTINUOUS
10
2.24319
20
0.464559
11
2.23862
21
0.466845
0
LINE
8
BLACK
6
CONTINUOUS
10
2.23862
20
0.466845
11
2.23157
21
0.466845
0
LINE
8
BLACK
6
CONTINUOUS
10
2.28064
20
0.52825
11
2.2816
21
0.526474
0
LINE
8
BLACK
6
CONTINUOUS
10
2.2816
20
0.526474
11
2.2812
21
0.524495
0
LINE
8
BLACK
6
CONTINUOUS
10
2.2812
20
0.524495
11
2.27962
21
0.523239
0
LINE
8
BLACK
6
CONTINUOUS
10
2.27962
20
0.523239
11
2.26476
21
0.518288
0
LINE
8
BLACK
6
CONTINUOUS
10
2.26476
20
0.518288
11
2.26476
21
0.494423
0
LINE
8
BLACK
6
CONTINUOUS
10
2.26476
20
0.494423
11
2.27962
21
0.489472
0
LINE
8
BLACK
6
CONTINUOUS
10
2.27962
20
0.489472
11
2.28052
21
0.488983
0
LINE
8
BLACK
6
CONTINUOUS
10
2.28052
20
0.488983
11
2.28158
21
0.487262
0
LINE
8
BLACK
6
CONTINUOUS
10
2.28158
20
0.487262
11
2.28128
21
0.485264
0
LINE
8
BLACK
6
CONTINUOUS
10
2.28128
20
0.485264
11
2.27977
21
0.483924
0
LINE
8
BLACK
6
CONTINUOUS
10
2.27977
20
0.483924
11
2.27775
21
0.483869
0
LINE
8
BLACK
6
CONTINUOUS
10
2.27775
20
0.483869
11
2.2187
21
0.503554
0
LINE
8
BLACK
6
CONTINUOUS
10
2.2187
20
0.503554
11
2.21779
21
0.504043
0
LINE
8
BLACK
6
CONTINUOUS
10
2.21779
20
0.504043
11
2.21775
21
0.504115
0
LINE
8
BLACK
6
CONTINUOUS
10
2.21775
20
0.504115
11
2.21767
21
0.504146
0
LINE
8
BLACK
6
CONTINUOUS
10
2.21767
20
0.504146
11
2.21722
21
0.504968
0
LINE
8
BLACK
6
CONTINUOUS
10
2.21722
20
0.504968
11
2.21674
21
0.505764
0
LINE
8
BLACK
6
CONTINUOUS
10
2.21674
20
0.505764
11
2.21675
21
0.505848
0
LINE
8
BLACK
6
CONTINUOUS
10
2.21675
20
0.505848
11
2.21671
21
0.505922
0
LINE
8
BLACK
6
CONTINUOUS
10
2.21671
20
0.505922
11
2.2169
21
0.506837
0
LINE
8
BLACK
6
CONTINUOUS
10
2.2169
20
0.506837
11
2.21703
21
0.507761
0
LINE
8
BLACK
6
CONTINUOUS
10
2.21703
20
0.507761
11
2.2171
21
0.507818
0
LINE
8
BLACK
6
CONTINUOUS
10
2.2171
20
0.507818
11
2.21711
21
0.507901
0
LINE
8
BLACK
6
CONTINUOUS
10
2.21711
20
0.507901
11
2.21784
21
0.508481
0
LINE
8
BLACK
6
CONTINUOUS
10
2.21784
20
0.508481
11
2.21854
21
0.509102
0
LINE
8
BLACK
6
CONTINUOUS
10
2.21854
20
0.509102
11
2.21863
21
0.509104
0
LINE
8
BLACK
6
CONTINUOUS
10
2.21863
20
0.509104
11
2.2187
21
0.509157
0
LINE
8
BLACK
6
CONTINUOUS
10
2.2187
20
0.509157
11
2.27775
21
0.528842
0
LINE
8
BLACK
6
CONTINUOUS
10
2.27775
20
0.528842
11
2.27876
21
0.528992
0
LINE
8
BLACK
6
CONTINUOUS
10
2.27876
20
0.528992
11
2.28064
21
0.52825
0
LINE
8
BLACK
6
CONTINUOUS
10
2.22897
20
0.506355
11
2.25886
21
0.496391
0
LINE
8
BLACK
6
CONTINUOUS
10
2.25886
20
0.496391
11
2.25886
21
0.516319
0
LINE
8
BLACK
6
CONTINUOUS
10
2.25886
20
0.516319
11
2.22897
21
0.506355
0
LINE
8
BLACK
6
CONTINUOUS
10
2.28095
20
0.575745
11
2.28164
21
0.573847
0
LINE
8
BLACK
6
CONTINUOUS
10
2.28164
20
0.573847
11
2.28164
21
0.545726
0
LINE
8
BLACK
6
CONTINUOUS
10
2.28164
20
0.545726
11
2.28157
21
0.545342
0
LINE
8
BLACK
6
CONTINUOUS
10
2.28157
20
0.545342
11
2.28159
21
0.545213
0
LINE
8
BLACK
6
CONTINUOUS
10
2.28159
20
0.545213
11
2.28153
21
0.545099
0
LINE
8
BLACK
6
CONTINUOUS
10
2.28153
20
0.545099
11
2.28146
21
0.544716
0
LINE
8
BLACK
6
CONTINUOUS
10
2.28146
20
0.544716
11
2.28097
21
0.544128
0
LINE
8
BLACK
6
CONTINUOUS
10
2.28097
20
0.544128
11
2.28058
21
0.543464
0
LINE
8
BLACK
6
CONTINUOUS
10
2.28058
20
0.543464
11
2.28033
21
0.543373
0
LINE
8
BLACK
6
CONTINUOUS
10
2.28033
20
0.543373
11
2.28016
21
0.543168
0
LINE
8
BLACK
6
CONTINUOUS
10
2.28016
20
0.543168
11
2.2794
21
0.543035
0
LINE
8
BLACK
6
CONTINUOUS
10
2.2794
20
0.543035
11
2.27868
21
0.542773
0
LINE
8
BLACK
6
CONTINUOUS
10
2.27868
20
0.542773
11
2.21963
21
0.542773
0
LINE
8
BLACK
6
CONTINUOUS
10
2.21963
20
0.542773
11
2.21862
21
0.542951
0
LINE
8
BLACK
6
CONTINUOUS
10
2.21862
20
0.542951
11
2.21707
21
0.544249
0
LINE
8
BLACK
6
CONTINUOUS
10
2.21707
20
0.544249
11
2.21672
21
0.546238
0
LINE
8
BLACK
6
CONTINUOUS
10
2.21672
20
0.546238
11
2.21773
21
0.547987
0
LINE
8
BLACK
6
CONTINUOUS
10
2.21773
20
0.547987
11
2.21963
21
0.548678
0
LINE
8
BLACK
6
CONTINUOUS
10
2.21963
20
0.548678
11
2.27573
21
0.548678
0
LINE
8
BLACK
6
CONTINUOUS
10
2.27573
20
0.548678
11
2.27573
21
0.573847
0
LINE
8
BLACK
6
CONTINUOUS
10
2.27573
20
0.573847
11
2.27591
21
0.574857
0
LINE
8
BLACK
6
CONTINUOUS
10
2.27591
20
0.574857
11
2.27721
21
0.576404
0
LINE
8
BLACK
6
CONTINUOUS
10
2.27721
20
0.576404
11
2.2792
21
0.576755
0
LINE
8
BLACK
6
CONTINUOUS
10
2.2792
20
0.576755
11
2.28095
21
0.575745
0
LINE
8
BLACK
6
CONTINUOUS
10
2.28095
20
0.623552
11
2.28164
21
0.621654
0
LINE
8
BLACK
6
CONTINUOUS
10
2.28164
20
0.621654
11
2.28164
21
0.593532
0
LINE
8
BLACK
6
CONTINUOUS
10
2.28164
20
0.593532
11
2.28157
21
0.593149
0
LINE
8
BLACK
6
CONTINUOUS
10
2.28157
20
0.593149
11
2.28159
21
0.593019
0
LINE
8
BLACK
6
CONTINUOUS
10
2.28159
20
0.593019
11
2.28153
21
0.592906
0
LINE
8
BLACK
6
CONTINUOUS
10
2.28153
20
0.592906
11
2.28146
21
0.592522
0
LINE
8
BLACK
6
CONTINUOUS
10
2.28146
20
0.592522
11
2.28097
21
0.591934
0
LINE
8
BLACK
6
CONTINUOUS
10
2.28097
20
0.591934
11
2.28058
21
0.59127
0
LINE
8
BLACK
6
CONTINUOUS
10
2.28058
20
0.59127
11
2.28033
21
0.591179
0
LINE
8
BLACK
6
CONTINUOUS
10
2.28033
20
0.591179
11
2.28016
21
0.590975
0
LINE
8
BLACK
6
CONTINUOUS
10
2.28016
20
0.590975
11
2.2794
21
0.590842
0
LINE
8
BLACK
6
CONTINUOUS
10
2.2794
20
0.590842
11
2.27868
21
0.590579
0
LINE
8
BLACK
6
CONTINUOUS
10
2.27868
20
0.590579
11
2.21963
21
0.590579
0
LINE
8
BLACK
6
CONTINUOUS
10
2.21963
20
0.590579
11
2.21862
21
0.590757
0
LINE
8
BLACK
6
CONTINUOUS
10
2.21862
20
0.590757
11
2.21707
21
0.592056
0
LINE
8
BLACK
6
CONTINUOUS
10
2.21707
20
0.592056
11
2.21672
21
0.594045
0
LINE
8
BLACK
6
CONTINUOUS
10
2.21672
20
0.594045
11
2.21773
21
0.595794
0
LINE
8
BLACK
6
CONTINUOUS
10
2.21773
20
0.595794
11
2.21963
21
0.596485
0
LINE
8
BLACK
6
CONTINUOUS
10
2.21963
20
0.596485
11
2.27573
21
0.596485
0
LINE
8
BLACK
6
CONTINUOUS
10
2.27573
20
0.596485
11
2.27573
21
0.621654
0
LINE
8
BLACK
6
CONTINUOUS
10
2.27573
20
0.621654
11
2.27591
21
0.622663
0
LINE
8
BLACK
6
CONTINUOUS
10
2.27591
20
0.622663
11
2.27721
21
0.624211
0
LINE
8
BLACK
6
CONTINUOUS
10
2.27721
20
0.624211
11
2.2792
21
0.624561
0
LINE
8
BLACK
6
CONTINUOUS
10
2.2792
20
0.624561
11
2.28095
21
0.623552
0
LINE
8
BLACK
6
CONTINUOUS
10
2.28095
20
0.671358
11
2.28164
21
0.66946
0
LINE
8
BLACK
6
CONTINUOUS
10
2.28164
20
0.66946
11
2.28164
21
0.641339
0
LINE
8
BLACK
6
CONTINUOUS
10
2.28164
20
0.641339
11
2.28157
21
0.640955
0
LINE
8
BLACK
6
CONTINUOUS
10
2.28157
20
0.640955
11
2.28159
21
0.640826
0
LINE
8
BLACK
6
CONTINUOUS
10
2.28159
20
0.640826
11
2.28153
21
0.640712
0
LINE
8
BLACK
6
CONTINUOUS
10
2.28153
20
0.640712
11
2.28146
21
0.640329
0
LINE
8
BLACK
6
CONTINUOUS
10
2.28146
20
0.640329
11
2.28097
21
0.639741
0
LINE
8
BLACK
6
CONTINUOUS
10
2.28097
20
0.639741
11
2.28058
21
0.639077
0
LINE
8
BLACK
6
CONTINUOUS
10
2.28058
20
0.639077
11
2.28033
21
0.638986
0
LINE
8
BLACK
6
CONTINUOUS
10
2.28033
20
0.638986
11
2.28016
21
0.638781
0
LINE
8
BLACK
6
CONTINUOUS
10
2.28016
20
0.638781
11
2.2794
21
0.638648
0
LINE
8
BLACK
6
CONTINUOUS
10
2.2794
20
0.638648
11
2.27868
21
0.638386
0
LINE
8
BLACK
6
CONTINUOUS
10
2.27868
20
0.638386
11
2.21963
21
0.638386
0
LINE
8
BLACK
6
CONTINUOUS
10
2.21963
20
0.638386
11
2.21925
21
0.638453
0
LINE
8
BLACK
6
CONTINUOUS
10
2.21925
20
0.638453
11
2.21912
21
0.638431
0
LINE
8
BLACK
6
CONTINUOUS
10
2.21912
20
0.638431
11
2.219
21
0.638496
0
LINE
8
BLACK
6
CONTINUOUS
10
2.219
20
0.638496
11
2.21862
21
0.638564
0
LINE
8
BLACK
6
CONTINUOUS
10
2.21862
20
0.638564
11
2.21803
21
0.639057
0
LINE
8
BLACK
6
CONTINUOUS
10
2.21803
20
0.639057
11
2.21737
21
0.639441
0
LINE
8
BLACK
6
CONTINUOUS
10
2.21737
20
0.639441
11
2.21728
21
0.639691
0
LINE
8
BLACK
6
CONTINUOUS
10
2.21728
20
0.639691
11
2.21707
21
0.639862
0
LINE
8
BLACK
6
CONTINUOUS
10
2.21707
20
0.639862
11
2.21694
21
0.640618
0
LINE
8
BLACK
6
CONTINUOUS
10
2.21694
20
0.640618
11
2.21668
21
0.641339
0
LINE
8
BLACK
6
CONTINUOUS
10
2.21668
20
0.641339
11
2.21668
21
0.66946
0
LINE
8
BLACK
6
CONTINUOUS
10
2.21668
20
0.66946
11
2.21685
21
0.67047
0
LINE
8
BLACK
6
CONTINUOUS
10
2.21685
20
0.67047
11
2.21815
21
0.672017
0
LINE
8
BLACK
6
CONTINUOUS
10
2.21815
20
0.672017
11
2.22014
21
0.672368
0
LINE
8
BLACK
6
CONTINUOUS
10
2.22014
20
0.672368
11
2.22189
21
0.671358
0
LINE
8
BLACK
6
CONTINUOUS
10
2.22189
20
0.671358
11
2.22258
21
0.66946
0
LINE
8
BLACK
6
CONTINUOUS
10
2.22258
20
0.66946
11
2.22258
21
0.644291
0
LINE
8
BLACK
6
CONTINUOUS
10
2.22258
20
0.644291
11
2.2448
21
0.644291
0
LINE
8
BLACK
6
CONTINUOUS
10
2.2448
20
0.644291
11
2.2448
21
0.661024
0
LINE
8
BLACK
6
CONTINUOUS
10
2.2448
20
0.661024
11
2.24498
21
0.662034
0
LINE
8
BLACK
6
CONTINUOUS
10
2.24498
20
0.662034
11
2.24627
21
0.663581
0
LINE
8
BLACK
6
CONTINUOUS
10
2.24627
20
0.663581
11
2.24826
21
0.663932
0
LINE
8
BLACK
6
CONTINUOUS
10
2.24826
20
0.663932
11
2.25001
21
0.662922
0
LINE
8
BLACK
6
CONTINUOUS
10
2.25001
20
0.662922
11
2.2507
21
0.661024
0
LINE
8
BLACK
6
CONTINUOUS
10
2.2507
20
0.661024
11
2.2507
21
0.644291
0
LINE
8
BLACK
6
CONTINUOUS
10
2.2507
20
0.644291
11
2.27573
21
0.644291
0
LINE
8
BLACK
6
CONTINUOUS
10
2.27573
20
0.644291
11
2.27573
21
0.66946
0
LINE
8
BLACK
6
CONTINUOUS
10
2.27573
20
0.66946
11
2.27591
21
0.67047
0
LINE
8
BLACK
6
CONTINUOUS
10
2.27591
20
0.67047
11
2.27721
21
0.672017
0
LINE
8
BLACK
6
CONTINUOUS
10
2.27721
20
0.672017
11
2.2792
21
0.672368
0
LINE
8
BLACK
6
CONTINUOUS
10
2.2792
20
0.672368
11
2.28095
21
0.671358
0
LINE
8
BLACK
6
CONTINUOUS
10
2.28095
20
0.724789
11
2.28164
21
0.722891
0
LINE
8
BLACK
6
CONTINUOUS
10
2.28164
20
0.722891
11
2.28164
21
0.694769
0
LINE
8
BLACK
6
CONTINUOUS
10
2.28164
20
0.694769
11
2.28157
21
0.694386
0
LINE
8
BLACK
6
CONTINUOUS
10
2.28157
20
0.694386
11
2.28159
21
0.694257
0
LINE
8
BLACK
6
CONTINUOUS
10
2.28159
20
0.694257
11
2.28153
21
0.694143
0
LINE
8
BLACK
6
CONTINUOUS
10
2.28153
20
0.694143
11
2.28146
21
0.693759
0
LINE
8
BLACK
6
CONTINUOUS
10
2.28146
20
0.693759
11
2.28097
21
0.693172
0
LINE
8
BLACK
6
CONTINUOUS
10
2.28097
20
0.693172
11
2.28058
21
0.692507
0
LINE
8
BLACK
6
CONTINUOUS
10
2.28058
20
0.692507
11
2.28033
21
0.692416
0
LINE
8
BLACK
6
CONTINUOUS
10
2.28033
20
0.692416
11
2.28016
21
0.692212
0
LINE
8
BLACK
6
CONTINUOUS
10
2.28016
20
0.692212
11
2.2794
21
0.692079
0
LINE
8
BLACK
6
CONTINUOUS
10
2.2794
20
0.692079
11
2.27868
21
0.691817
0
LINE
8
BLACK
6
CONTINUOUS
10
2.27868
20
0.691817
11
2.21963
21
0.691817
0
LINE
8
BLACK
6
CONTINUOUS
10
2.21963
20
0.691817
11
2.21862
21
0.691995
0
LINE
8
BLACK
6
CONTINUOUS
10
2.21862
20
0.691995
11
2.21707
21
0.693293
0
LINE
8
BLACK
6
CONTINUOUS
10
2.21707
20
0.693293
11
2.21672
21
0.695282
0
LINE
8
BLACK
6
CONTINUOUS
10
2.21672
20
0.695282
11
2.21773
21
0.697031
0
LINE
8
BLACK
6
CONTINUOUS
10
2.21773
20
0.697031
11
2.21963
21
0.697722
0
LINE
8
BLACK
6
CONTINUOUS
10
2.21963
20
0.697722
11
2.27573
21
0.697722
0
LINE
8
BLACK
6
CONTINUOUS
10
2.27573
20
0.697722
11
2.27573
21
0.722891
0
LINE
8
BLACK
6
CONTINUOUS
10
2.27573
20
0.722891
11
2.27591
21
0.723901
0
LINE
8
BLACK
6
CONTINUOUS
10
2.27591
20
0.723901
11
2.27721
21
0.725448
0
LINE
8
BLACK
6
CONTINUOUS
10
2.27721
20
0.725448
11
2.2792
21
0.725799
0
LINE
8
BLACK
6
CONTINUOUS
10
2.2792
20
0.725799
11
2.28095
21
0.724789
  0
ENDSEC
  0
EOF
