  0
SECTION
  2
HEADER
  9
$ANGBASE
  50
0.0
  9
$ANGDIR
  70
1
  9
$MEASUREMENT
  70
0
  0
ENDSEC
  0
SECTION
  2
TABLES
  0
TABLE
  2
LTYPE
  70
4
  0
LTYPE
  5
40F
  2
CONTINUOUS
  70
0
  3
Solid line
  72
65
  73
0
  40
0.0
  0
LTYPE
  5
410
  2
DASHDOT
 70
0
  3
Dash Dot ____ _ ____ _
 72
65
 73
4
 40
2.0
 49
1.25
 49
-0.25
 49
0.25
 49
-0.25
  0
LTYPE
  5
411
  2
DASHED
 70
0
  3
Dashed __ __ __ __ __
 72
65
 73
2
 40
0.75
 49
0.5
 49
-0.25
  0
LTYPE
  5
43B
  2
DOTTED
 70
0
  3
Dotted .  .  .  .
 72
65
 73
2
 40
0.2
 49
0.0
 49
-0.2
  0
ENDTAB
  0
TABLE
  2
STYLE
  70
4
  0
STYLE
  2
KICAD
  70
0
  40
0
  41
1
  42
1
  50
0
  71
0
  3
isocp.shx
  0
STYLE
  2
KICADB
  70
0
  40
0
  41
1
  42
1
  50
0
  71
0
  3
isocp.shx
  0
STYLE
  2
KICADI
  70
0
  40
0
  41
1
  42
1
  50
15
  71
0
  3
isocp.shx
  0
STYLE
  2
KICADBI
  70
0
  40
0
  41
1
  42
1
  50
15
  71
0
  3
isocp.shx
  0
ENDTAB
  0
TABLE
  2
LAYER
  70
1
  0
LAYER
  2
BLACK
  70
0
  62
7
  6
CONTINUOUS
  0
ENDTAB
  0
ENDSEC
  0
SECTION
  2
ENTITIES
0
LINE
8
BLACK
6
CONTINUOUS
10
0.214106
20
0.325192
11
0.228034
21
0.322826
0
LINE
8
BLACK
6
CONTINUOUS
10
0.228034
20
0.322826
11
0.24161
21
0.318914
0
LINE
8
BLACK
6
CONTINUOUS
10
0.24161
20
0.318914
11
0.254663
21
0.313508
0
LINE
8
BLACK
6
CONTINUOUS
10
0.254663
20
0.313508
11
0.267028
21
0.306674
0
LINE
8
BLACK
6
CONTINUOUS
10
0.267028
20
0.306674
11
0.27855
21
0.298498
0
LINE
8
BLACK
6
CONTINUOUS
10
0.27855
20
0.298498
11
0.289084
21
0.289084
0
LINE
8
BLACK
6
CONTINUOUS
10
0.289084
20
0.289084
11
0.298498
21
0.27855
0
LINE
8
BLACK
6
CONTINUOUS
10
0.298498
20
0.27855
11
0.306674
21
0.267028
0
LINE
8
BLACK
6
CONTINUOUS
10
0.306674
20
0.267028
11
0.313508
21
0.254663
0
LINE
8
BLACK
6
CONTINUOUS
10
0.313508
20
0.254663
11
0.318914
21
0.24161
0
LINE
8
BLACK
6
CONTINUOUS
10
0.318914
20
0.24161
11
0.322826
21
0.228034
0
LINE
8
BLACK
6
CONTINUOUS
10
0.322826
20
0.228034
11
0.325192
21
0.214106
0
LINE
8
BLACK
6
CONTINUOUS
10
0.325192
20
0.214106
11
0.325984
21
0.2
0
LINE
8
BLACK
6
CONTINUOUS
10
0.325984
20
0.2
11
0.325192
21
0.185894
0
LINE
8
BLACK
6
CONTINUOUS
10
0.325192
20
0.185894
11
0.322826
21
0.171966
0
LINE
8
BLACK
6
CONTINUOUS
10
0.322826
20
0.171966
11
0.318914
21
0.15839
0
LINE
8
BLACK
6
CONTINUOUS
10
0.318914
20
0.15839
11
0.313508
21
0.145337
0
LINE
8
BLACK
6
CONTINUOUS
10
0.313508
20
0.145337
11
0.306674
21
0.132972
0
LINE
8
BLACK
6
CONTINUOUS
10
0.306674
20
0.132972
11
0.298498
21
0.12145
0
LINE
8
BLACK
6
CONTINUOUS
10
0.298498
20
0.12145
11
0.289084
21
0.110916
0
LINE
8
BLACK
6
CONTINUOUS
10
0.289084
20
0.110916
11
0.27855
21
0.101502
0
LINE
8
BLACK
6
CONTINUOUS
10
0.27855
20
0.101502
11
0.267028
21
0.0933261
0
LINE
8
BLACK
6
CONTINUOUS
10
0.267028
20
0.0933261
11
0.254663
21
0.0864921
0
LINE
8
BLACK
6
CONTINUOUS
10
0.254663
20
0.0864921
11
0.24161
21
0.0810856
0
LINE
8
BLACK
6
CONTINUOUS
10
0.24161
20
0.0810856
11
0.228034
21
0.0771744
0
LINE
8
BLACK
6
CONTINUOUS
10
0.228034
20
0.0771744
11
0.214106
21
0.0748079
0
LINE
8
BLACK
6
CONTINUOUS
10
0.214106
20
0.0748079
11
0.2
21
0.0740157
0
LINE
8
BLACK
6
CONTINUOUS
10
0.2
20
0.0740157
11
0.185894
21
0.0748079
0
LINE
8
BLACK
6
CONTINUOUS
10
0.185894
20
0.0748079
11
0.171966
21
0.0771744
0
LINE
8
BLACK
6
CONTINUOUS
10
0.171966
20
0.0771744
11
0.15839
21
0.0810856
0
LINE
8
BLACK
6
CONTINUOUS
10
0.15839
20
0.0810856
11
0.145337
21
0.0864921
0
LINE
8
BLACK
6
CONTINUOUS
10
0.145337
20
0.0864921
11
0.132972
21
0.0933261
0
LINE
8
BLACK
6
CONTINUOUS
10
0.132972
20
0.0933261
11
0.12145
21
0.101502
0
LINE
8
BLACK
6
CONTINUOUS
10
0.12145
20
0.101502
11
0.110916
21
0.110916
0
LINE
8
BLACK
6
CONTINUOUS
10
0.110916
20
0.110916
11
0.101502
21
0.12145
0
LINE
8
BLACK
6
CONTINUOUS
10
0.101502
20
0.12145
11
0.0933261
21
0.132972
0
LINE
8
BLACK
6
CONTINUOUS
10
0.0933261
20
0.132972
11
0.0864921
21
0.145337
0
LINE
8
BLACK
6
CONTINUOUS
10
0.0864921
20
0.145337
11
0.0810856
21
0.15839
0
LINE
8
BLACK
6
CONTINUOUS
10
0.0810856
20
0.15839
11
0.0771744
21
0.171966
0
LINE
8
BLACK
6
CONTINUOUS
10
0.0771744
20
0.171966
11
0.0748079
21
0.185894
0
LINE
8
BLACK
6
CONTINUOUS
10
0.0748079
20
0.185894
11
0.0740157
21
0.2
0
LINE
8
BLACK
6
CONTINUOUS
10
0.0740157
20
0.2
11
0.0748079
21
0.214106
0
LINE
8
BLACK
6
CONTINUOUS
10
0.0748079
20
0.214106
11
0.0771744
21
0.228034
0
LINE
8
BLACK
6
CONTINUOUS
10
0.0771744
20
0.228034
11
0.0810856
21
0.24161
0
LINE
8
BLACK
6
CONTINUOUS
10
0.0810856
20
0.24161
11
0.0864921
21
0.254663
0
LINE
8
BLACK
6
CONTINUOUS
10
0.0864921
20
0.254663
11
0.0933261
21
0.267028
0
LINE
8
BLACK
6
CONTINUOUS
10
0.0933261
20
0.267028
11
0.101502
21
0.27855
0
LINE
8
BLACK
6
CONTINUOUS
10
0.101502
20
0.27855
11
0.110916
21
0.289084
0
LINE
8
BLACK
6
CONTINUOUS
10
0.110916
20
0.289084
11
0.12145
21
0.298498
0
LINE
8
BLACK
6
CONTINUOUS
10
0.12145
20
0.298498
11
0.132972
21
0.306674
0
LINE
8
BLACK
6
CONTINUOUS
10
0.132972
20
0.306674
11
0.145337
21
0.313508
0
LINE
8
BLACK
6
CONTINUOUS
10
0.145337
20
0.313508
11
0.15839
21
0.318914
0
LINE
8
BLACK
6
CONTINUOUS
10
0.15839
20
0.318914
11
0.171966
21
0.322826
0
LINE
8
BLACK
6
CONTINUOUS
10
0.171966
20
0.322826
11
0.185894
21
0.325192
0
LINE
8
BLACK
6
CONTINUOUS
10
0.185894
20
0.325192
11
0.2
21
0.325984
0
LINE
8
BLACK
6
CONTINUOUS
10
0.2
20
0.325984
11
0.214106
21
0.325192
0
LINE
8
BLACK
6
CONTINUOUS
10
3.82411
20
0.325192
11
3.83803
21
0.322826
0
LINE
8
BLACK
6
CONTINUOUS
10
3.83803
20
0.322826
11
3.85161
21
0.318914
0
LINE
8
BLACK
6
CONTINUOUS
10
3.85161
20
0.318914
11
3.86466
21
0.313508
0
LINE
8
BLACK
6
CONTINUOUS
10
3.86466
20
0.313508
11
3.87703
21
0.306674
0
LINE
8
BLACK
6
CONTINUOUS
10
3.87703
20
0.306674
11
3.88855
21
0.298498
0
LINE
8
BLACK
6
CONTINUOUS
10
3.88855
20
0.298498
11
3.89908
21
0.289084
0
LINE
8
BLACK
6
CONTINUOUS
10
3.89908
20
0.289084
11
3.9085
21
0.27855
0
LINE
8
BLACK
6
CONTINUOUS
10
3.9085
20
0.27855
11
3.91667
21
0.267028
0
LINE
8
BLACK
6
CONTINUOUS
10
3.91667
20
0.267028
11
3.92351
21
0.254663
0
LINE
8
BLACK
6
CONTINUOUS
10
3.92351
20
0.254663
11
3.92891
21
0.24161
0
LINE
8
BLACK
6
CONTINUOUS
10
3.92891
20
0.24161
11
3.93283
21
0.228034
0
LINE
8
BLACK
6
CONTINUOUS
10
3.93283
20
0.228034
11
3.93519
21
0.214106
0
LINE
8
BLACK
6
CONTINUOUS
10
3.93519
20
0.214106
11
3.93598
21
0.2
0
LINE
8
BLACK
6
CONTINUOUS
10
3.93598
20
0.2
11
3.93519
21
0.185894
0
LINE
8
BLACK
6
CONTINUOUS
10
3.93519
20
0.185894
11
3.93283
21
0.171966
0
LINE
8
BLACK
6
CONTINUOUS
10
3.93283
20
0.171966
11
3.92891
21
0.15839
0
LINE
8
BLACK
6
CONTINUOUS
10
3.92891
20
0.15839
11
3.92351
21
0.145337
0
LINE
8
BLACK
6
CONTINUOUS
10
3.92351
20
0.145337
11
3.91667
21
0.132972
0
LINE
8
BLACK
6
CONTINUOUS
10
3.91667
20
0.132972
11
3.9085
21
0.12145
0
LINE
8
BLACK
6
CONTINUOUS
10
3.9085
20
0.12145
11
3.89908
21
0.110916
0
LINE
8
BLACK
6
CONTINUOUS
10
3.89908
20
0.110916
11
3.88855
21
0.101502
0
LINE
8
BLACK
6
CONTINUOUS
10
3.88855
20
0.101502
11
3.87703
21
0.0933261
0
LINE
8
BLACK
6
CONTINUOUS
10
3.87703
20
0.0933261
11
3.86466
21
0.0864921
0
LINE
8
BLACK
6
CONTINUOUS
10
3.86466
20
0.0864921
11
3.85161
21
0.0810856
0
LINE
8
BLACK
6
CONTINUOUS
10
3.85161
20
0.0810856
11
3.83803
21
0.0771744
0
LINE
8
BLACK
6
CONTINUOUS
10
3.83803
20
0.0771744
11
3.82411
21
0.0748079
0
LINE
8
BLACK
6
CONTINUOUS
10
3.82411
20
0.0748079
11
3.81
21
0.0740157
0
LINE
8
BLACK
6
CONTINUOUS
10
3.81
20
0.0740157
11
3.79589
21
0.0748079
0
LINE
8
BLACK
6
CONTINUOUS
10
3.79589
20
0.0748079
11
3.78197
21
0.0771744
0
LINE
8
BLACK
6
CONTINUOUS
10
3.78197
20
0.0771744
11
3.76839
21
0.0810856
0
LINE
8
BLACK
6
CONTINUOUS
10
3.76839
20
0.0810856
11
3.75534
21
0.0864921
0
LINE
8
BLACK
6
CONTINUOUS
10
3.75534
20
0.0864921
11
3.74297
21
0.0933261
0
LINE
8
BLACK
6
CONTINUOUS
10
3.74297
20
0.0933261
11
3.73145
21
0.101502
0
LINE
8
BLACK
6
CONTINUOUS
10
3.73145
20
0.101502
11
3.72092
21
0.110916
0
LINE
8
BLACK
6
CONTINUOUS
10
3.72092
20
0.110916
11
3.7115
21
0.12145
0
LINE
8
BLACK
6
CONTINUOUS
10
3.7115
20
0.12145
11
3.70333
21
0.132972
0
LINE
8
BLACK
6
CONTINUOUS
10
3.70333
20
0.132972
11
3.69649
21
0.145337
0
LINE
8
BLACK
6
CONTINUOUS
10
3.69649
20
0.145337
11
3.69109
21
0.15839
0
LINE
8
BLACK
6
CONTINUOUS
10
3.69109
20
0.15839
11
3.68717
21
0.171966
0
LINE
8
BLACK
6
CONTINUOUS
10
3.68717
20
0.171966
11
3.68481
21
0.185894
0
LINE
8
BLACK
6
CONTINUOUS
10
3.68481
20
0.185894
11
3.68402
21
0.2
0
LINE
8
BLACK
6
CONTINUOUS
10
3.68402
20
0.2
11
3.68481
21
0.214106
0
LINE
8
BLACK
6
CONTINUOUS
10
3.68481
20
0.214106
11
3.68717
21
0.228034
0
LINE
8
BLACK
6
CONTINUOUS
10
3.68717
20
0.228034
11
3.69109
21
0.24161
0
LINE
8
BLACK
6
CONTINUOUS
10
3.69109
20
0.24161
11
3.69649
21
0.254663
0
LINE
8
BLACK
6
CONTINUOUS
10
3.69649
20
0.254663
11
3.70333
21
0.267028
0
LINE
8
BLACK
6
CONTINUOUS
10
3.70333
20
0.267028
11
3.7115
21
0.27855
0
LINE
8
BLACK
6
CONTINUOUS
10
3.7115
20
0.27855
11
3.72092
21
0.289084
0
LINE
8
BLACK
6
CONTINUOUS
10
3.72092
20
0.289084
11
3.73145
21
0.298498
0
LINE
8
BLACK
6
CONTINUOUS
10
3.73145
20
0.298498
11
3.74297
21
0.306674
0
LINE
8
BLACK
6
CONTINUOUS
10
3.74297
20
0.306674
11
3.75534
21
0.313508
0
LINE
8
BLACK
6
CONTINUOUS
10
3.75534
20
0.313508
11
3.76839
21
0.318914
0
LINE
8
BLACK
6
CONTINUOUS
10
3.76839
20
0.318914
11
3.78197
21
0.322826
0
LINE
8
BLACK
6
CONTINUOUS
10
3.78197
20
0.322826
11
3.79589
21
0.325192
0
LINE
8
BLACK
6
CONTINUOUS
10
3.79589
20
0.325192
11
3.81
21
0.325984
0
LINE
8
BLACK
6
CONTINUOUS
10
3.81
20
0.325984
11
3.82411
21
0.325192
0
LINE
8
BLACK
6
CONTINUOUS
10
0.662147
20
0.1857
11
0.664702
21
0.183993
0
LINE
8
BLACK
6
CONTINUOUS
10
0.664702
20
0.183993
11
0.666409
21
0.181438
0
LINE
8
BLACK
6
CONTINUOUS
10
0.666409
20
0.181438
11
0.667008
21
0.178425
0
LINE
8
BLACK
6
CONTINUOUS
10
0.667008
20
0.178425
11
0.667008
21
0.118425
0
LINE
8
BLACK
6
CONTINUOUS
10
0.667008
20
0.118425
11
0.666409
21
0.115412
0
LINE
8
BLACK
6
CONTINUOUS
10
0.666409
20
0.115412
11
0.664702
21
0.112857
0
LINE
8
BLACK
6
CONTINUOUS
10
0.664702
20
0.112857
11
0.662147
21
0.111151
0
LINE
8
BLACK
6
CONTINUOUS
10
0.662147
20
0.111151
11
0.659134
21
0.110551
0
LINE
8
BLACK
6
CONTINUOUS
10
0.659134
20
0.110551
11
0.599134
21
0.110551
0
LINE
8
BLACK
6
CONTINUOUS
10
0.599134
20
0.110551
11
0.596121
21
0.111151
0
LINE
8
BLACK
6
CONTINUOUS
10
0.596121
20
0.111151
11
0.593566
21
0.112857
0
LINE
8
BLACK
6
CONTINUOUS
10
0.593566
20
0.112857
11
0.591859
21
0.115412
0
LINE
8
BLACK
6
CONTINUOUS
10
0.591859
20
0.115412
11
0.59126
21
0.118425
0
LINE
8
BLACK
6
CONTINUOUS
10
0.59126
20
0.118425
11
0.59126
21
0.178425
0
LINE
8
BLACK
6
CONTINUOUS
10
0.59126
20
0.178425
11
0.591859
21
0.181438
0
LINE
8
BLACK
6
CONTINUOUS
10
0.591859
20
0.181438
11
0.593566
21
0.183993
0
LINE
8
BLACK
6
CONTINUOUS
10
0.593566
20
0.183993
11
0.596121
21
0.1857
0
LINE
8
BLACK
6
CONTINUOUS
10
0.596121
20
0.1857
11
0.599134
21
0.186299
0
LINE
8
BLACK
6
CONTINUOUS
10
0.599134
20
0.186299
11
0.659134
21
0.186299
0
LINE
8
BLACK
6
CONTINUOUS
10
0.659134
20
0.186299
11
0.662147
21
0.1857
0
LINE
8
BLACK
6
CONTINUOUS
10
0.762147
20
0.1857
11
0.764702
21
0.183993
0
LINE
8
BLACK
6
CONTINUOUS
10
0.764702
20
0.183993
11
0.766409
21
0.181438
0
LINE
8
BLACK
6
CONTINUOUS
10
0.766409
20
0.181438
11
0.767008
21
0.178425
0
LINE
8
BLACK
6
CONTINUOUS
10
0.767008
20
0.178425
11
0.767008
21
0.118425
0
LINE
8
BLACK
6
CONTINUOUS
10
0.767008
20
0.118425
11
0.766409
21
0.115412
0
LINE
8
BLACK
6
CONTINUOUS
10
0.766409
20
0.115412
11
0.764702
21
0.112857
0
LINE
8
BLACK
6
CONTINUOUS
10
0.764702
20
0.112857
11
0.762147
21
0.111151
0
LINE
8
BLACK
6
CONTINUOUS
10
0.762147
20
0.111151
11
0.759134
21
0.110551
0
LINE
8
BLACK
6
CONTINUOUS
10
0.759134
20
0.110551
11
0.699134
21
0.110551
0
LINE
8
BLACK
6
CONTINUOUS
10
0.699134
20
0.110551
11
0.696121
21
0.111151
0
LINE
8
BLACK
6
CONTINUOUS
10
0.696121
20
0.111151
11
0.693566
21
0.112857
0
LINE
8
BLACK
6
CONTINUOUS
10
0.693566
20
0.112857
11
0.691859
21
0.115412
0
LINE
8
BLACK
6
CONTINUOUS
10
0.691859
20
0.115412
11
0.69126
21
0.118425
0
LINE
8
BLACK
6
CONTINUOUS
10
0.69126
20
0.118425
11
0.69126
21
0.178425
0
LINE
8
BLACK
6
CONTINUOUS
10
0.69126
20
0.178425
11
0.691859
21
0.181438
0
LINE
8
BLACK
6
CONTINUOUS
10
0.691859
20
0.181438
11
0.693566
21
0.183993
0
LINE
8
BLACK
6
CONTINUOUS
10
0.693566
20
0.183993
11
0.696121
21
0.1857
0
LINE
8
BLACK
6
CONTINUOUS
10
0.696121
20
0.1857
11
0.699134
21
0.186299
0
LINE
8
BLACK
6
CONTINUOUS
10
0.699134
20
0.186299
11
0.759134
21
0.186299
0
LINE
8
BLACK
6
CONTINUOUS
10
0.759134
20
0.186299
11
0.762147
21
0.1857
0
LINE
8
BLACK
6
CONTINUOUS
10
0.862147
20
0.1857
11
0.864702
21
0.183993
0
LINE
8
BLACK
6
CONTINUOUS
10
0.864702
20
0.183993
11
0.866409
21
0.181438
0
LINE
8
BLACK
6
CONTINUOUS
10
0.866409
20
0.181438
11
0.867008
21
0.178425
0
LINE
8
BLACK
6
CONTINUOUS
10
0.867008
20
0.178425
11
0.867008
21
0.118425
0
LINE
8
BLACK
6
CONTINUOUS
10
0.867008
20
0.118425
11
0.866409
21
0.115412
0
LINE
8
BLACK
6
CONTINUOUS
10
0.866409
20
0.115412
11
0.864702
21
0.112857
0
LINE
8
BLACK
6
CONTINUOUS
10
0.864702
20
0.112857
11
0.862147
21
0.111151
0
LINE
8
BLACK
6
CONTINUOUS
10
0.862147
20
0.111151
11
0.859134
21
0.110551
0
LINE
8
BLACK
6
CONTINUOUS
10
0.859134
20
0.110551
11
0.799134
21
0.110551
0
LINE
8
BLACK
6
CONTINUOUS
10
0.799134
20
0.110551
11
0.796121
21
0.111151
0
LINE
8
BLACK
6
CONTINUOUS
10
0.796121
20
0.111151
11
0.793566
21
0.112857
0
LINE
8
BLACK
6
CONTINUOUS
10
0.793566
20
0.112857
11
0.791859
21
0.115412
0
LINE
8
BLACK
6
CONTINUOUS
10
0.791859
20
0.115412
11
0.79126
21
0.118425
0
LINE
8
BLACK
6
CONTINUOUS
10
0.79126
20
0.118425
11
0.79126
21
0.178425
0
LINE
8
BLACK
6
CONTINUOUS
10
0.79126
20
0.178425
11
0.791859
21
0.181438
0
LINE
8
BLACK
6
CONTINUOUS
10
0.791859
20
0.181438
11
0.793566
21
0.183993
0
LINE
8
BLACK
6
CONTINUOUS
10
0.793566
20
0.183993
11
0.796121
21
0.1857
0
LINE
8
BLACK
6
CONTINUOUS
10
0.796121
20
0.1857
11
0.799134
21
0.186299
0
LINE
8
BLACK
6
CONTINUOUS
10
0.799134
20
0.186299
11
0.859134
21
0.186299
0
LINE
8
BLACK
6
CONTINUOUS
10
0.859134
20
0.186299
11
0.862147
21
0.1857
0
LINE
8
BLACK
6
CONTINUOUS
10
0.962147
20
0.1857
11
0.964702
21
0.183993
0
LINE
8
BLACK
6
CONTINUOUS
10
0.964702
20
0.183993
11
0.966409
21
0.181438
0
LINE
8
BLACK
6
CONTINUOUS
10
0.966409
20
0.181438
11
0.967008
21
0.178425
0
LINE
8
BLACK
6
CONTINUOUS
10
0.967008
20
0.178425
11
0.967008
21
0.118425
0
LINE
8
BLACK
6
CONTINUOUS
10
0.967008
20
0.118425
11
0.966409
21
0.115412
0
LINE
8
BLACK
6
CONTINUOUS
10
0.966409
20
0.115412
11
0.964702
21
0.112857
0
LINE
8
BLACK
6
CONTINUOUS
10
0.964702
20
0.112857
11
0.962147
21
0.111151
0
LINE
8
BLACK
6
CONTINUOUS
10
0.962147
20
0.111151
11
0.959134
21
0.110551
0
LINE
8
BLACK
6
CONTINUOUS
10
0.959134
20
0.110551
11
0.899134
21
0.110551
0
LINE
8
BLACK
6
CONTINUOUS
10
0.899134
20
0.110551
11
0.896121
21
0.111151
0
LINE
8
BLACK
6
CONTINUOUS
10
0.896121
20
0.111151
11
0.893566
21
0.112857
0
LINE
8
BLACK
6
CONTINUOUS
10
0.893566
20
0.112857
11
0.891859
21
0.115412
0
LINE
8
BLACK
6
CONTINUOUS
10
0.891859
20
0.115412
11
0.89126
21
0.118425
0
LINE
8
BLACK
6
CONTINUOUS
10
0.89126
20
0.118425
11
0.89126
21
0.178425
0
LINE
8
BLACK
6
CONTINUOUS
10
0.89126
20
0.178425
11
0.891859
21
0.181438
0
LINE
8
BLACK
6
CONTINUOUS
10
0.891859
20
0.181438
11
0.893566
21
0.183993
0
LINE
8
BLACK
6
CONTINUOUS
10
0.893566
20
0.183993
11
0.896121
21
0.1857
0
LINE
8
BLACK
6
CONTINUOUS
10
0.896121
20
0.1857
11
0.899134
21
0.186299
0
LINE
8
BLACK
6
CONTINUOUS
10
0.899134
20
0.186299
11
0.959134
21
0.186299
0
LINE
8
BLACK
6
CONTINUOUS
10
0.959134
20
0.186299
11
0.962147
21
0.1857
0
LINE
8
BLACK
6
CONTINUOUS
10
1.06215
20
0.1857
11
1.0647
21
0.183993
0
LINE
8
BLACK
6
CONTINUOUS
10
1.0647
20
0.183993
11
1.06641
21
0.181438
0
LINE
8
BLACK
6
CONTINUOUS
10
1.06641
20
0.181438
11
1.06701
21
0.178425
0
LINE
8
BLACK
6
CONTINUOUS
10
1.06701
20
0.178425
11
1.06701
21
0.118425
0
LINE
8
BLACK
6
CONTINUOUS
10
1.06701
20
0.118425
11
1.06641
21
0.115412
0
LINE
8
BLACK
6
CONTINUOUS
10
1.06641
20
0.115412
11
1.0647
21
0.112857
0
LINE
8
BLACK
6
CONTINUOUS
10
1.0647
20
0.112857
11
1.06215
21
0.111151
0
LINE
8
BLACK
6
CONTINUOUS
10
1.06215
20
0.111151
11
1.05913
21
0.110551
0
LINE
8
BLACK
6
CONTINUOUS
10
1.05913
20
0.110551
11
0.999134
21
0.110551
0
LINE
8
BLACK
6
CONTINUOUS
10
0.999134
20
0.110551
11
0.996121
21
0.111151
0
LINE
8
BLACK
6
CONTINUOUS
10
0.996121
20
0.111151
11
0.993566
21
0.112857
0
LINE
8
BLACK
6
CONTINUOUS
10
0.993566
20
0.112857
11
0.991859
21
0.115412
0
LINE
8
BLACK
6
CONTINUOUS
10
0.991859
20
0.115412
11
0.99126
21
0.118425
0
LINE
8
BLACK
6
CONTINUOUS
10
0.99126
20
0.118425
11
0.99126
21
0.178425
0
LINE
8
BLACK
6
CONTINUOUS
10
0.99126
20
0.178425
11
0.991859
21
0.181438
0
LINE
8
BLACK
6
CONTINUOUS
10
0.991859
20
0.181438
11
0.993566
21
0.183993
0
LINE
8
BLACK
6
CONTINUOUS
10
0.993566
20
0.183993
11
0.996121
21
0.1857
0
LINE
8
BLACK
6
CONTINUOUS
10
0.996121
20
0.1857
11
0.999134
21
0.186299
0
LINE
8
BLACK
6
CONTINUOUS
10
0.999134
20
0.186299
11
1.05913
21
0.186299
0
LINE
8
BLACK
6
CONTINUOUS
10
1.05913
20
0.186299
11
1.06215
21
0.1857
0
LINE
8
BLACK
6
CONTINUOUS
10
1.16215
20
0.1857
11
1.1647
21
0.183993
0
LINE
8
BLACK
6
CONTINUOUS
10
1.1647
20
0.183993
11
1.16641
21
0.181438
0
LINE
8
BLACK
6
CONTINUOUS
10
1.16641
20
0.181438
11
1.16701
21
0.178425
0
LINE
8
BLACK
6
CONTINUOUS
10
1.16701
20
0.178425
11
1.16701
21
0.118425
0
LINE
8
BLACK
6
CONTINUOUS
10
1.16701
20
0.118425
11
1.16641
21
0.115412
0
LINE
8
BLACK
6
CONTINUOUS
10
1.16641
20
0.115412
11
1.1647
21
0.112857
0
LINE
8
BLACK
6
CONTINUOUS
10
1.1647
20
0.112857
11
1.16215
21
0.111151
0
LINE
8
BLACK
6
CONTINUOUS
10
1.16215
20
0.111151
11
1.15913
21
0.110551
0
LINE
8
BLACK
6
CONTINUOUS
10
1.15913
20
0.110551
11
1.09913
21
0.110551
0
LINE
8
BLACK
6
CONTINUOUS
10
1.09913
20
0.110551
11
1.09612
21
0.111151
0
LINE
8
BLACK
6
CONTINUOUS
10
1.09612
20
0.111151
11
1.09357
21
0.112857
0
LINE
8
BLACK
6
CONTINUOUS
10
1.09357
20
0.112857
11
1.09186
21
0.115412
0
LINE
8
BLACK
6
CONTINUOUS
10
1.09186
20
0.115412
11
1.09126
21
0.118425
0
LINE
8
BLACK
6
CONTINUOUS
10
1.09126
20
0.118425
11
1.09126
21
0.178425
0
LINE
8
BLACK
6
CONTINUOUS
10
1.09126
20
0.178425
11
1.09186
21
0.181438
0
LINE
8
BLACK
6
CONTINUOUS
10
1.09186
20
0.181438
11
1.09357
21
0.183993
0
LINE
8
BLACK
6
CONTINUOUS
10
1.09357
20
0.183993
11
1.09612
21
0.1857
0
LINE
8
BLACK
6
CONTINUOUS
10
1.09612
20
0.1857
11
1.09913
21
0.186299
0
LINE
8
BLACK
6
CONTINUOUS
10
1.09913
20
0.186299
11
1.15913
21
0.186299
0
LINE
8
BLACK
6
CONTINUOUS
10
1.15913
20
0.186299
11
1.16215
21
0.1857
0
LINE
8
BLACK
6
CONTINUOUS
10
1.26215
20
0.1857
11
1.2647
21
0.183993
0
LINE
8
BLACK
6
CONTINUOUS
10
1.2647
20
0.183993
11
1.26641
21
0.181438
0
LINE
8
BLACK
6
CONTINUOUS
10
1.26641
20
0.181438
11
1.26701
21
0.178425
0
LINE
8
BLACK
6
CONTINUOUS
10
1.26701
20
0.178425
11
1.26701
21
0.118425
0
LINE
8
BLACK
6
CONTINUOUS
10
1.26701
20
0.118425
11
1.26641
21
0.115412
0
LINE
8
BLACK
6
CONTINUOUS
10
1.26641
20
0.115412
11
1.2647
21
0.112857
0
LINE
8
BLACK
6
CONTINUOUS
10
1.2647
20
0.112857
11
1.26215
21
0.111151
0
LINE
8
BLACK
6
CONTINUOUS
10
1.26215
20
0.111151
11
1.25913
21
0.110551
0
LINE
8
BLACK
6
CONTINUOUS
10
1.25913
20
0.110551
11
1.19913
21
0.110551
0
LINE
8
BLACK
6
CONTINUOUS
10
1.19913
20
0.110551
11
1.19612
21
0.111151
0
LINE
8
BLACK
6
CONTINUOUS
10
1.19612
20
0.111151
11
1.19357
21
0.112857
0
LINE
8
BLACK
6
CONTINUOUS
10
1.19357
20
0.112857
11
1.19186
21
0.115412
0
LINE
8
BLACK
6
CONTINUOUS
10
1.19186
20
0.115412
11
1.19126
21
0.118425
0
LINE
8
BLACK
6
CONTINUOUS
10
1.19126
20
0.118425
11
1.19126
21
0.178425
0
LINE
8
BLACK
6
CONTINUOUS
10
1.19126
20
0.178425
11
1.19186
21
0.181438
0
LINE
8
BLACK
6
CONTINUOUS
10
1.19186
20
0.181438
11
1.19357
21
0.183993
0
LINE
8
BLACK
6
CONTINUOUS
10
1.19357
20
0.183993
11
1.19612
21
0.1857
0
LINE
8
BLACK
6
CONTINUOUS
10
1.19612
20
0.1857
11
1.19913
21
0.186299
0
LINE
8
BLACK
6
CONTINUOUS
10
1.19913
20
0.186299
11
1.25913
21
0.186299
0
LINE
8
BLACK
6
CONTINUOUS
10
1.25913
20
0.186299
11
1.26215
21
0.1857
0
LINE
8
BLACK
6
CONTINUOUS
10
1.36215
20
0.1857
11
1.3647
21
0.183993
0
LINE
8
BLACK
6
CONTINUOUS
10
1.3647
20
0.183993
11
1.36641
21
0.181438
0
LINE
8
BLACK
6
CONTINUOUS
10
1.36641
20
0.181438
11
1.36701
21
0.178425
0
LINE
8
BLACK
6
CONTINUOUS
10
1.36701
20
0.178425
11
1.36701
21
0.118425
0
LINE
8
BLACK
6
CONTINUOUS
10
1.36701
20
0.118425
11
1.36641
21
0.115412
0
LINE
8
BLACK
6
CONTINUOUS
10
1.36641
20
0.115412
11
1.3647
21
0.112857
0
LINE
8
BLACK
6
CONTINUOUS
10
1.3647
20
0.112857
11
1.36215
21
0.111151
0
LINE
8
BLACK
6
CONTINUOUS
10
1.36215
20
0.111151
11
1.35913
21
0.110551
0
LINE
8
BLACK
6
CONTINUOUS
10
1.35913
20
0.110551
11
1.29913
21
0.110551
0
LINE
8
BLACK
6
CONTINUOUS
10
1.29913
20
0.110551
11
1.29612
21
0.111151
0
LINE
8
BLACK
6
CONTINUOUS
10
1.29612
20
0.111151
11
1.29357
21
0.112857
0
LINE
8
BLACK
6
CONTINUOUS
10
1.29357
20
0.112857
11
1.29186
21
0.115412
0
LINE
8
BLACK
6
CONTINUOUS
10
1.29186
20
0.115412
11
1.29126
21
0.118425
0
LINE
8
BLACK
6
CONTINUOUS
10
1.29126
20
0.118425
11
1.29126
21
0.178425
0
LINE
8
BLACK
6
CONTINUOUS
10
1.29126
20
0.178425
11
1.29186
21
0.181438
0
LINE
8
BLACK
6
CONTINUOUS
10
1.29186
20
0.181438
11
1.29357
21
0.183993
0
LINE
8
BLACK
6
CONTINUOUS
10
1.29357
20
0.183993
11
1.29612
21
0.1857
0
LINE
8
BLACK
6
CONTINUOUS
10
1.29612
20
0.1857
11
1.29913
21
0.186299
0
LINE
8
BLACK
6
CONTINUOUS
10
1.29913
20
0.186299
11
1.35913
21
0.186299
0
LINE
8
BLACK
6
CONTINUOUS
10
1.35913
20
0.186299
11
1.36215
21
0.1857
0
LINE
8
BLACK
6
CONTINUOUS
10
1.46215
20
0.1857
11
1.4647
21
0.183993
0
LINE
8
BLACK
6
CONTINUOUS
10
1.4647
20
0.183993
11
1.46641
21
0.181438
0
LINE
8
BLACK
6
CONTINUOUS
10
1.46641
20
0.181438
11
1.46701
21
0.178425
0
LINE
8
BLACK
6
CONTINUOUS
10
1.46701
20
0.178425
11
1.46701
21
0.118425
0
LINE
8
BLACK
6
CONTINUOUS
10
1.46701
20
0.118425
11
1.46641
21
0.115412
0
LINE
8
BLACK
6
CONTINUOUS
10
1.46641
20
0.115412
11
1.4647
21
0.112857
0
LINE
8
BLACK
6
CONTINUOUS
10
1.4647
20
0.112857
11
1.46215
21
0.111151
0
LINE
8
BLACK
6
CONTINUOUS
10
1.46215
20
0.111151
11
1.45913
21
0.110551
0
LINE
8
BLACK
6
CONTINUOUS
10
1.45913
20
0.110551
11
1.39913
21
0.110551
0
LINE
8
BLACK
6
CONTINUOUS
10
1.39913
20
0.110551
11
1.39612
21
0.111151
0
LINE
8
BLACK
6
CONTINUOUS
10
1.39612
20
0.111151
11
1.39357
21
0.112857
0
LINE
8
BLACK
6
CONTINUOUS
10
1.39357
20
0.112857
11
1.39186
21
0.115412
0
LINE
8
BLACK
6
CONTINUOUS
10
1.39186
20
0.115412
11
1.39126
21
0.118425
0
LINE
8
BLACK
6
CONTINUOUS
10
1.39126
20
0.118425
11
1.39126
21
0.178425
0
LINE
8
BLACK
6
CONTINUOUS
10
1.39126
20
0.178425
11
1.39186
21
0.181438
0
LINE
8
BLACK
6
CONTINUOUS
10
1.39186
20
0.181438
11
1.39357
21
0.183993
0
LINE
8
BLACK
6
CONTINUOUS
10
1.39357
20
0.183993
11
1.39612
21
0.1857
0
LINE
8
BLACK
6
CONTINUOUS
10
1.39612
20
0.1857
11
1.39913
21
0.186299
0
LINE
8
BLACK
6
CONTINUOUS
10
1.39913
20
0.186299
11
1.45913
21
0.186299
0
LINE
8
BLACK
6
CONTINUOUS
10
1.45913
20
0.186299
11
1.46215
21
0.1857
0
LINE
8
BLACK
6
CONTINUOUS
10
1.56215
20
0.1857
11
1.5647
21
0.183993
0
LINE
8
BLACK
6
CONTINUOUS
10
1.5647
20
0.183993
11
1.56641
21
0.181438
0
LINE
8
BLACK
6
CONTINUOUS
10
1.56641
20
0.181438
11
1.56701
21
0.178425
0
LINE
8
BLACK
6
CONTINUOUS
10
1.56701
20
0.178425
11
1.56701
21
0.118425
0
LINE
8
BLACK
6
CONTINUOUS
10
1.56701
20
0.118425
11
1.56641
21
0.115412
0
LINE
8
BLACK
6
CONTINUOUS
10
1.56641
20
0.115412
11
1.5647
21
0.112857
0
LINE
8
BLACK
6
CONTINUOUS
10
1.5647
20
0.112857
11
1.56215
21
0.111151
0
LINE
8
BLACK
6
CONTINUOUS
10
1.56215
20
0.111151
11
1.55913
21
0.110551
0
LINE
8
BLACK
6
CONTINUOUS
10
1.55913
20
0.110551
11
1.49913
21
0.110551
0
LINE
8
BLACK
6
CONTINUOUS
10
1.49913
20
0.110551
11
1.49612
21
0.111151
0
LINE
8
BLACK
6
CONTINUOUS
10
1.49612
20
0.111151
11
1.49357
21
0.112857
0
LINE
8
BLACK
6
CONTINUOUS
10
1.49357
20
0.112857
11
1.49186
21
0.115412
0
LINE
8
BLACK
6
CONTINUOUS
10
1.49186
20
0.115412
11
1.49126
21
0.118425
0
LINE
8
BLACK
6
CONTINUOUS
10
1.49126
20
0.118425
11
1.49126
21
0.178425
0
LINE
8
BLACK
6
CONTINUOUS
10
1.49126
20
0.178425
11
1.49186
21
0.181438
0
LINE
8
BLACK
6
CONTINUOUS
10
1.49186
20
0.181438
11
1.49357
21
0.183993
0
LINE
8
BLACK
6
CONTINUOUS
10
1.49357
20
0.183993
11
1.49612
21
0.1857
0
LINE
8
BLACK
6
CONTINUOUS
10
1.49612
20
0.1857
11
1.49913
21
0.186299
0
LINE
8
BLACK
6
CONTINUOUS
10
1.49913
20
0.186299
11
1.55913
21
0.186299
0
LINE
8
BLACK
6
CONTINUOUS
10
1.55913
20
0.186299
11
1.56215
21
0.1857
0
LINE
8
BLACK
6
CONTINUOUS
10
1.66215
20
0.1857
11
1.6647
21
0.183993
0
LINE
8
BLACK
6
CONTINUOUS
10
1.6647
20
0.183993
11
1.66641
21
0.181438
0
LINE
8
BLACK
6
CONTINUOUS
10
1.66641
20
0.181438
11
1.66701
21
0.178425
0
LINE
8
BLACK
6
CONTINUOUS
10
1.66701
20
0.178425
11
1.66701
21
0.118425
0
LINE
8
BLACK
6
CONTINUOUS
10
1.66701
20
0.118425
11
1.66641
21
0.115412
0
LINE
8
BLACK
6
CONTINUOUS
10
1.66641
20
0.115412
11
1.6647
21
0.112857
0
LINE
8
BLACK
6
CONTINUOUS
10
1.6647
20
0.112857
11
1.66215
21
0.111151
0
LINE
8
BLACK
6
CONTINUOUS
10
1.66215
20
0.111151
11
1.65913
21
0.110551
0
LINE
8
BLACK
6
CONTINUOUS
10
1.65913
20
0.110551
11
1.59913
21
0.110551
0
LINE
8
BLACK
6
CONTINUOUS
10
1.59913
20
0.110551
11
1.59612
21
0.111151
0
LINE
8
BLACK
6
CONTINUOUS
10
1.59612
20
0.111151
11
1.59357
21
0.112857
0
LINE
8
BLACK
6
CONTINUOUS
10
1.59357
20
0.112857
11
1.59186
21
0.115412
0
LINE
8
BLACK
6
CONTINUOUS
10
1.59186
20
0.115412
11
1.59126
21
0.118425
0
LINE
8
BLACK
6
CONTINUOUS
10
1.59126
20
0.118425
11
1.59126
21
0.178425
0
LINE
8
BLACK
6
CONTINUOUS
10
1.59126
20
0.178425
11
1.59186
21
0.181438
0
LINE
8
BLACK
6
CONTINUOUS
10
1.59186
20
0.181438
11
1.59357
21
0.183993
0
LINE
8
BLACK
6
CONTINUOUS
10
1.59357
20
0.183993
11
1.59612
21
0.1857
0
LINE
8
BLACK
6
CONTINUOUS
10
1.59612
20
0.1857
11
1.59913
21
0.186299
0
LINE
8
BLACK
6
CONTINUOUS
10
1.59913
20
0.186299
11
1.65913
21
0.186299
0
LINE
8
BLACK
6
CONTINUOUS
10
1.65913
20
0.186299
11
1.66215
21
0.1857
0
LINE
8
BLACK
6
CONTINUOUS
10
1.76215
20
0.1857
11
1.7647
21
0.183993
0
LINE
8
BLACK
6
CONTINUOUS
10
1.7647
20
0.183993
11
1.76641
21
0.181438
0
LINE
8
BLACK
6
CONTINUOUS
10
1.76641
20
0.181438
11
1.76701
21
0.178425
0
LINE
8
BLACK
6
CONTINUOUS
10
1.76701
20
0.178425
11
1.76701
21
0.118425
0
LINE
8
BLACK
6
CONTINUOUS
10
1.76701
20
0.118425
11
1.76641
21
0.115412
0
LINE
8
BLACK
6
CONTINUOUS
10
1.76641
20
0.115412
11
1.7647
21
0.112857
0
LINE
8
BLACK
6
CONTINUOUS
10
1.7647
20
0.112857
11
1.76215
21
0.111151
0
LINE
8
BLACK
6
CONTINUOUS
10
1.76215
20
0.111151
11
1.75913
21
0.110551
0
LINE
8
BLACK
6
CONTINUOUS
10
1.75913
20
0.110551
11
1.69913
21
0.110551
0
LINE
8
BLACK
6
CONTINUOUS
10
1.69913
20
0.110551
11
1.69612
21
0.111151
0
LINE
8
BLACK
6
CONTINUOUS
10
1.69612
20
0.111151
11
1.69357
21
0.112857
0
LINE
8
BLACK
6
CONTINUOUS
10
1.69357
20
0.112857
11
1.69186
21
0.115412
0
LINE
8
BLACK
6
CONTINUOUS
10
1.69186
20
0.115412
11
1.69126
21
0.118425
0
LINE
8
BLACK
6
CONTINUOUS
10
1.69126
20
0.118425
11
1.69126
21
0.178425
0
LINE
8
BLACK
6
CONTINUOUS
10
1.69126
20
0.178425
11
1.69186
21
0.181438
0
LINE
8
BLACK
6
CONTINUOUS
10
1.69186
20
0.181438
11
1.69357
21
0.183993
0
LINE
8
BLACK
6
CONTINUOUS
10
1.69357
20
0.183993
11
1.69612
21
0.1857
0
LINE
8
BLACK
6
CONTINUOUS
10
1.69612
20
0.1857
11
1.69913
21
0.186299
0
LINE
8
BLACK
6
CONTINUOUS
10
1.69913
20
0.186299
11
1.75913
21
0.186299
0
LINE
8
BLACK
6
CONTINUOUS
10
1.75913
20
0.186299
11
1.76215
21
0.1857
0
LINE
8
BLACK
6
CONTINUOUS
10
1.86215
20
0.1857
11
1.8647
21
0.183993
0
LINE
8
BLACK
6
CONTINUOUS
10
1.8647
20
0.183993
11
1.86641
21
0.181438
0
LINE
8
BLACK
6
CONTINUOUS
10
1.86641
20
0.181438
11
1.86701
21
0.178425
0
LINE
8
BLACK
6
CONTINUOUS
10
1.86701
20
0.178425
11
1.86701
21
0.118425
0
LINE
8
BLACK
6
CONTINUOUS
10
1.86701
20
0.118425
11
1.86641
21
0.115412
0
LINE
8
BLACK
6
CONTINUOUS
10
1.86641
20
0.115412
11
1.8647
21
0.112857
0
LINE
8
BLACK
6
CONTINUOUS
10
1.8647
20
0.112857
11
1.86215
21
0.111151
0
LINE
8
BLACK
6
CONTINUOUS
10
1.86215
20
0.111151
11
1.85913
21
0.110551
0
LINE
8
BLACK
6
CONTINUOUS
10
1.85913
20
0.110551
11
1.79913
21
0.110551
0
LINE
8
BLACK
6
CONTINUOUS
10
1.79913
20
0.110551
11
1.79612
21
0.111151
0
LINE
8
BLACK
6
CONTINUOUS
10
1.79612
20
0.111151
11
1.79357
21
0.112857
0
LINE
8
BLACK
6
CONTINUOUS
10
1.79357
20
0.112857
11
1.79186
21
0.115412
0
LINE
8
BLACK
6
CONTINUOUS
10
1.79186
20
0.115412
11
1.79126
21
0.118425
0
LINE
8
BLACK
6
CONTINUOUS
10
1.79126
20
0.118425
11
1.79126
21
0.178425
0
LINE
8
BLACK
6
CONTINUOUS
10
1.79126
20
0.178425
11
1.79186
21
0.181438
0
LINE
8
BLACK
6
CONTINUOUS
10
1.79186
20
0.181438
11
1.79357
21
0.183993
0
LINE
8
BLACK
6
CONTINUOUS
10
1.79357
20
0.183993
11
1.79612
21
0.1857
0
LINE
8
BLACK
6
CONTINUOUS
10
1.79612
20
0.1857
11
1.79913
21
0.186299
0
LINE
8
BLACK
6
CONTINUOUS
10
1.79913
20
0.186299
11
1.85913
21
0.186299
0
LINE
8
BLACK
6
CONTINUOUS
10
1.85913
20
0.186299
11
1.86215
21
0.1857
0
LINE
8
BLACK
6
CONTINUOUS
10
2.38498
20
0.1857
11
2.38754
21
0.183993
0
LINE
8
BLACK
6
CONTINUOUS
10
2.38754
20
0.183993
11
2.38924
21
0.181438
0
LINE
8
BLACK
6
CONTINUOUS
10
2.38924
20
0.181438
11
2.38984
21
0.178425
0
LINE
8
BLACK
6
CONTINUOUS
10
2.38984
20
0.178425
11
2.38984
21
0.118425
0
LINE
8
BLACK
6
CONTINUOUS
10
2.38984
20
0.118425
11
2.38924
21
0.115412
0
LINE
8
BLACK
6
CONTINUOUS
10
2.38924
20
0.115412
11
2.38754
21
0.112857
0
LINE
8
BLACK
6
CONTINUOUS
10
2.38754
20
0.112857
11
2.38498
21
0.111151
0
LINE
8
BLACK
6
CONTINUOUS
10
2.38498
20
0.111151
11
2.38197
21
0.110551
0
LINE
8
BLACK
6
CONTINUOUS
10
2.38197
20
0.110551
11
2.32197
21
0.110551
0
LINE
8
BLACK
6
CONTINUOUS
10
2.32197
20
0.110551
11
2.31896
21
0.111151
0
LINE
8
BLACK
6
CONTINUOUS
10
2.31896
20
0.111151
11
2.3164
21
0.112857
0
LINE
8
BLACK
6
CONTINUOUS
10
2.3164
20
0.112857
11
2.31469
21
0.115412
0
LINE
8
BLACK
6
CONTINUOUS
10
2.31469
20
0.115412
11
2.31409
21
0.118425
0
LINE
8
BLACK
6
CONTINUOUS
10
2.31409
20
0.118425
11
2.31409
21
0.178425
0
LINE
8
BLACK
6
CONTINUOUS
10
2.31409
20
0.178425
11
2.31469
21
0.181438
0
LINE
8
BLACK
6
CONTINUOUS
10
2.31469
20
0.181438
11
2.3164
21
0.183993
0
LINE
8
BLACK
6
CONTINUOUS
10
2.3164
20
0.183993
11
2.31896
21
0.1857
0
LINE
8
BLACK
6
CONTINUOUS
10
2.31896
20
0.1857
11
2.32197
21
0.186299
0
LINE
8
BLACK
6
CONTINUOUS
10
2.32197
20
0.186299
11
2.38197
21
0.186299
0
LINE
8
BLACK
6
CONTINUOUS
10
2.38197
20
0.186299
11
2.38498
21
0.1857
0
LINE
8
BLACK
6
CONTINUOUS
10
2.48498
20
0.1857
11
2.48754
21
0.183993
0
LINE
8
BLACK
6
CONTINUOUS
10
2.48754
20
0.183993
11
2.48924
21
0.181438
0
LINE
8
BLACK
6
CONTINUOUS
10
2.48924
20
0.181438
11
2.48984
21
0.178425
0
LINE
8
BLACK
6
CONTINUOUS
10
2.48984
20
0.178425
11
2.48984
21
0.118425
0
LINE
8
BLACK
6
CONTINUOUS
10
2.48984
20
0.118425
11
2.48924
21
0.115412
0
LINE
8
BLACK
6
CONTINUOUS
10
2.48924
20
0.115412
11
2.48754
21
0.112857
0
LINE
8
BLACK
6
CONTINUOUS
10
2.48754
20
0.112857
11
2.48498
21
0.111151
0
LINE
8
BLACK
6
CONTINUOUS
10
2.48498
20
0.111151
11
2.48197
21
0.110551
0
LINE
8
BLACK
6
CONTINUOUS
10
2.48197
20
0.110551
11
2.42197
21
0.110551
0
LINE
8
BLACK
6
CONTINUOUS
10
2.42197
20
0.110551
11
2.41896
21
0.111151
0
LINE
8
BLACK
6
CONTINUOUS
10
2.41896
20
0.111151
11
2.4164
21
0.112857
0
LINE
8
BLACK
6
CONTINUOUS
10
2.4164
20
0.112857
11
2.41469
21
0.115412
0
LINE
8
BLACK
6
CONTINUOUS
10
2.41469
20
0.115412
11
2.41409
21
0.118425
0
LINE
8
BLACK
6
CONTINUOUS
10
2.41409
20
0.118425
11
2.41409
21
0.178425
0
LINE
8
BLACK
6
CONTINUOUS
10
2.41409
20
0.178425
11
2.41469
21
0.181438
0
LINE
8
BLACK
6
CONTINUOUS
10
2.41469
20
0.181438
11
2.4164
21
0.183993
0
LINE
8
BLACK
6
CONTINUOUS
10
2.4164
20
0.183993
11
2.41896
21
0.1857
0
LINE
8
BLACK
6
CONTINUOUS
10
2.41896
20
0.1857
11
2.42197
21
0.186299
0
LINE
8
BLACK
6
CONTINUOUS
10
2.42197
20
0.186299
11
2.48197
21
0.186299
0
LINE
8
BLACK
6
CONTINUOUS
10
2.48197
20
0.186299
11
2.48498
21
0.1857
0
LINE
8
BLACK
6
CONTINUOUS
10
2.58498
20
0.1857
11
2.58754
21
0.183993
0
LINE
8
BLACK
6
CONTINUOUS
10
2.58754
20
0.183993
11
2.58924
21
0.181438
0
LINE
8
BLACK
6
CONTINUOUS
10
2.58924
20
0.181438
11
2.58984
21
0.178425
0
LINE
8
BLACK
6
CONTINUOUS
10
2.58984
20
0.178425
11
2.58984
21
0.118425
0
LINE
8
BLACK
6
CONTINUOUS
10
2.58984
20
0.118425
11
2.58924
21
0.115412
0
LINE
8
BLACK
6
CONTINUOUS
10
2.58924
20
0.115412
11
2.58754
21
0.112857
0
LINE
8
BLACK
6
CONTINUOUS
10
2.58754
20
0.112857
11
2.58498
21
0.111151
0
LINE
8
BLACK
6
CONTINUOUS
10
2.58498
20
0.111151
11
2.58197
21
0.110551
0
LINE
8
BLACK
6
CONTINUOUS
10
2.58197
20
0.110551
11
2.52197
21
0.110551
0
LINE
8
BLACK
6
CONTINUOUS
10
2.52197
20
0.110551
11
2.51896
21
0.111151
0
LINE
8
BLACK
6
CONTINUOUS
10
2.51896
20
0.111151
11
2.5164
21
0.112857
0
LINE
8
BLACK
6
CONTINUOUS
10
2.5164
20
0.112857
11
2.51469
21
0.115412
0
LINE
8
BLACK
6
CONTINUOUS
10
2.51469
20
0.115412
11
2.51409
21
0.118425
0
LINE
8
BLACK
6
CONTINUOUS
10
2.51409
20
0.118425
11
2.51409
21
0.178425
0
LINE
8
BLACK
6
CONTINUOUS
10
2.51409
20
0.178425
11
2.51469
21
0.181438
0
LINE
8
BLACK
6
CONTINUOUS
10
2.51469
20
0.181438
11
2.5164
21
0.183993
0
LINE
8
BLACK
6
CONTINUOUS
10
2.5164
20
0.183993
11
2.51896
21
0.1857
0
LINE
8
BLACK
6
CONTINUOUS
10
2.51896
20
0.1857
11
2.52197
21
0.186299
0
LINE
8
BLACK
6
CONTINUOUS
10
2.52197
20
0.186299
11
2.58197
21
0.186299
0
LINE
8
BLACK
6
CONTINUOUS
10
2.58197
20
0.186299
11
2.58498
21
0.1857
0
LINE
8
BLACK
6
CONTINUOUS
10
2.68498
20
0.1857
11
2.68754
21
0.183993
0
LINE
8
BLACK
6
CONTINUOUS
10
2.68754
20
0.183993
11
2.68924
21
0.181438
0
LINE
8
BLACK
6
CONTINUOUS
10
2.68924
20
0.181438
11
2.68984
21
0.178425
0
LINE
8
BLACK
6
CONTINUOUS
10
2.68984
20
0.178425
11
2.68984
21
0.118425
0
LINE
8
BLACK
6
CONTINUOUS
10
2.68984
20
0.118425
11
2.68924
21
0.115412
0
LINE
8
BLACK
6
CONTINUOUS
10
2.68924
20
0.115412
11
2.68754
21
0.112857
0
LINE
8
BLACK
6
CONTINUOUS
10
2.68754
20
0.112857
11
2.68498
21
0.111151
0
LINE
8
BLACK
6
CONTINUOUS
10
2.68498
20
0.111151
11
2.68197
21
0.110551
0
LINE
8
BLACK
6
CONTINUOUS
10
2.68197
20
0.110551
11
2.62197
21
0.110551
0
LINE
8
BLACK
6
CONTINUOUS
10
2.62197
20
0.110551
11
2.61896
21
0.111151
0
LINE
8
BLACK
6
CONTINUOUS
10
2.61896
20
0.111151
11
2.6164
21
0.112857
0
LINE
8
BLACK
6
CONTINUOUS
10
2.6164
20
0.112857
11
2.61469
21
0.115412
0
LINE
8
BLACK
6
CONTINUOUS
10
2.61469
20
0.115412
11
2.61409
21
0.118425
0
LINE
8
BLACK
6
CONTINUOUS
10
2.61409
20
0.118425
11
2.61409
21
0.178425
0
LINE
8
BLACK
6
CONTINUOUS
10
2.61409
20
0.178425
11
2.61469
21
0.181438
0
LINE
8
BLACK
6
CONTINUOUS
10
2.61469
20
0.181438
11
2.6164
21
0.183993
0
LINE
8
BLACK
6
CONTINUOUS
10
2.6164
20
0.183993
11
2.61896
21
0.1857
0
LINE
8
BLACK
6
CONTINUOUS
10
2.61896
20
0.1857
11
2.62197
21
0.186299
0
LINE
8
BLACK
6
CONTINUOUS
10
2.62197
20
0.186299
11
2.68197
21
0.186299
0
LINE
8
BLACK
6
CONTINUOUS
10
2.68197
20
0.186299
11
2.68498
21
0.1857
0
LINE
8
BLACK
6
CONTINUOUS
10
2.78498
20
0.1857
11
2.78754
21
0.183993
0
LINE
8
BLACK
6
CONTINUOUS
10
2.78754
20
0.183993
11
2.78924
21
0.181438
0
LINE
8
BLACK
6
CONTINUOUS
10
2.78924
20
0.181438
11
2.78984
21
0.178425
0
LINE
8
BLACK
6
CONTINUOUS
10
2.78984
20
0.178425
11
2.78984
21
0.118425
0
LINE
8
BLACK
6
CONTINUOUS
10
2.78984
20
0.118425
11
2.78924
21
0.115412
0
LINE
8
BLACK
6
CONTINUOUS
10
2.78924
20
0.115412
11
2.78754
21
0.112857
0
LINE
8
BLACK
6
CONTINUOUS
10
2.78754
20
0.112857
11
2.78498
21
0.111151
0
LINE
8
BLACK
6
CONTINUOUS
10
2.78498
20
0.111151
11
2.78197
21
0.110551
0
LINE
8
BLACK
6
CONTINUOUS
10
2.78197
20
0.110551
11
2.72197
21
0.110551
0
LINE
8
BLACK
6
CONTINUOUS
10
2.72197
20
0.110551
11
2.71896
21
0.111151
0
LINE
8
BLACK
6
CONTINUOUS
10
2.71896
20
0.111151
11
2.7164
21
0.112857
0
LINE
8
BLACK
6
CONTINUOUS
10
2.7164
20
0.112857
11
2.71469
21
0.115412
0
LINE
8
BLACK
6
CONTINUOUS
10
2.71469
20
0.115412
11
2.71409
21
0.118425
0
LINE
8
BLACK
6
CONTINUOUS
10
2.71409
20
0.118425
11
2.71409
21
0.178425
0
LINE
8
BLACK
6
CONTINUOUS
10
2.71409
20
0.178425
11
2.71469
21
0.181438
0
LINE
8
BLACK
6
CONTINUOUS
10
2.71469
20
0.181438
11
2.7164
21
0.183993
0
LINE
8
BLACK
6
CONTINUOUS
10
2.7164
20
0.183993
11
2.71896
21
0.1857
0
LINE
8
BLACK
6
CONTINUOUS
10
2.71896
20
0.1857
11
2.72197
21
0.186299
0
LINE
8
BLACK
6
CONTINUOUS
10
2.72197
20
0.186299
11
2.78197
21
0.186299
0
LINE
8
BLACK
6
CONTINUOUS
10
2.78197
20
0.186299
11
2.78498
21
0.1857
0
LINE
8
BLACK
6
CONTINUOUS
10
3.00467
20
0.1857
11
3.00722
21
0.183993
0
LINE
8
BLACK
6
CONTINUOUS
10
3.00722
20
0.183993
11
3.00893
21
0.181438
0
LINE
8
BLACK
6
CONTINUOUS
10
3.00893
20
0.181438
11
3.00953
21
0.178425
0
LINE
8
BLACK
6
CONTINUOUS
10
3.00953
20
0.178425
11
3.00953
21
0.118425
0
LINE
8
BLACK
6
CONTINUOUS
10
3.00953
20
0.118425
11
3.00893
21
0.115412
0
LINE
8
BLACK
6
CONTINUOUS
10
3.00893
20
0.115412
11
3.00722
21
0.112857
0
LINE
8
BLACK
6
CONTINUOUS
10
3.00722
20
0.112857
11
3.00467
21
0.111151
0
LINE
8
BLACK
6
CONTINUOUS
10
3.00467
20
0.111151
11
3.00165
21
0.110551
0
LINE
8
BLACK
6
CONTINUOUS
10
3.00165
20
0.110551
11
2.94165
21
0.110551
0
LINE
8
BLACK
6
CONTINUOUS
10
2.94165
20
0.110551
11
2.93864
21
0.111151
0
LINE
8
BLACK
6
CONTINUOUS
10
2.93864
20
0.111151
11
2.93609
21
0.112857
0
LINE
8
BLACK
6
CONTINUOUS
10
2.93609
20
0.112857
11
2.93438
21
0.115412
0
LINE
8
BLACK
6
CONTINUOUS
10
2.93438
20
0.115412
11
2.93378
21
0.118425
0
LINE
8
BLACK
6
CONTINUOUS
10
2.93378
20
0.118425
11
2.93378
21
0.178425
0
LINE
8
BLACK
6
CONTINUOUS
10
2.93378
20
0.178425
11
2.93438
21
0.181438
0
LINE
8
BLACK
6
CONTINUOUS
10
2.93438
20
0.181438
11
2.93609
21
0.183993
0
LINE
8
BLACK
6
CONTINUOUS
10
2.93609
20
0.183993
11
2.93864
21
0.1857
0
LINE
8
BLACK
6
CONTINUOUS
10
2.93864
20
0.1857
11
2.94165
21
0.186299
0
LINE
8
BLACK
6
CONTINUOUS
10
2.94165
20
0.186299
11
3.00165
21
0.186299
0
LINE
8
BLACK
6
CONTINUOUS
10
3.00165
20
0.186299
11
3.00467
21
0.1857
0
LINE
8
BLACK
6
CONTINUOUS
10
3.10467
20
0.1857
11
3.10722
21
0.183993
0
LINE
8
BLACK
6
CONTINUOUS
10
3.10722
20
0.183993
11
3.10893
21
0.181438
0
LINE
8
BLACK
6
CONTINUOUS
10
3.10893
20
0.181438
11
3.10953
21
0.178425
0
LINE
8
BLACK
6
CONTINUOUS
10
3.10953
20
0.178425
11
3.10953
21
0.118425
0
LINE
8
BLACK
6
CONTINUOUS
10
3.10953
20
0.118425
11
3.10893
21
0.115412
0
LINE
8
BLACK
6
CONTINUOUS
10
3.10893
20
0.115412
11
3.10722
21
0.112857
0
LINE
8
BLACK
6
CONTINUOUS
10
3.10722
20
0.112857
11
3.10467
21
0.111151
0
LINE
8
BLACK
6
CONTINUOUS
10
3.10467
20
0.111151
11
3.10165
21
0.110551
0
LINE
8
BLACK
6
CONTINUOUS
10
3.10165
20
0.110551
11
3.04165
21
0.110551
0
LINE
8
BLACK
6
CONTINUOUS
10
3.04165
20
0.110551
11
3.03864
21
0.111151
0
LINE
8
BLACK
6
CONTINUOUS
10
3.03864
20
0.111151
11
3.03609
21
0.112857
0
LINE
8
BLACK
6
CONTINUOUS
10
3.03609
20
0.112857
11
3.03438
21
0.115412
0
LINE
8
BLACK
6
CONTINUOUS
10
3.03438
20
0.115412
11
3.03378
21
0.118425
0
LINE
8
BLACK
6
CONTINUOUS
10
3.03378
20
0.118425
11
3.03378
21
0.178425
0
LINE
8
BLACK
6
CONTINUOUS
10
3.03378
20
0.178425
11
3.03438
21
0.181438
0
LINE
8
BLACK
6
CONTINUOUS
10
3.03438
20
0.181438
11
3.03609
21
0.183993
0
LINE
8
BLACK
6
CONTINUOUS
10
3.03609
20
0.183993
11
3.03864
21
0.1857
0
LINE
8
BLACK
6
CONTINUOUS
10
3.03864
20
0.1857
11
3.04165
21
0.186299
0
LINE
8
BLACK
6
CONTINUOUS
10
3.04165
20
0.186299
11
3.10165
21
0.186299
0
LINE
8
BLACK
6
CONTINUOUS
10
3.10165
20
0.186299
11
3.10467
21
0.1857
0
LINE
8
BLACK
6
CONTINUOUS
10
3.20467
20
0.1857
11
3.20722
21
0.183993
0
LINE
8
BLACK
6
CONTINUOUS
10
3.20722
20
0.183993
11
3.20893
21
0.181438
0
LINE
8
BLACK
6
CONTINUOUS
10
3.20893
20
0.181438
11
3.20953
21
0.178425
0
LINE
8
BLACK
6
CONTINUOUS
10
3.20953
20
0.178425
11
3.20953
21
0.118425
0
LINE
8
BLACK
6
CONTINUOUS
10
3.20953
20
0.118425
11
3.20893
21
0.115412
0
LINE
8
BLACK
6
CONTINUOUS
10
3.20893
20
0.115412
11
3.20722
21
0.112857
0
LINE
8
BLACK
6
CONTINUOUS
10
3.20722
20
0.112857
11
3.20467
21
0.111151
0
LINE
8
BLACK
6
CONTINUOUS
10
3.20467
20
0.111151
11
3.20165
21
0.110551
0
LINE
8
BLACK
6
CONTINUOUS
10
3.20165
20
0.110551
11
3.14165
21
0.110551
0
LINE
8
BLACK
6
CONTINUOUS
10
3.14165
20
0.110551
11
3.13864
21
0.111151
0
LINE
8
BLACK
6
CONTINUOUS
10
3.13864
20
0.111151
11
3.13609
21
0.112857
0
LINE
8
BLACK
6
CONTINUOUS
10
3.13609
20
0.112857
11
3.13438
21
0.115412
0
LINE
8
BLACK
6
CONTINUOUS
10
3.13438
20
0.115412
11
3.13378
21
0.118425
0
LINE
8
BLACK
6
CONTINUOUS
10
3.13378
20
0.118425
11
3.13378
21
0.178425
0
LINE
8
BLACK
6
CONTINUOUS
10
3.13378
20
0.178425
11
3.13438
21
0.181438
0
LINE
8
BLACK
6
CONTINUOUS
10
3.13438
20
0.181438
11
3.13609
21
0.183993
0
LINE
8
BLACK
6
CONTINUOUS
10
3.13609
20
0.183993
11
3.13864
21
0.1857
0
LINE
8
BLACK
6
CONTINUOUS
10
3.13864
20
0.1857
11
3.14165
21
0.186299
0
LINE
8
BLACK
6
CONTINUOUS
10
3.14165
20
0.186299
11
3.20165
21
0.186299
0
LINE
8
BLACK
6
CONTINUOUS
10
3.20165
20
0.186299
11
3.20467
21
0.1857
0
LINE
8
BLACK
6
CONTINUOUS
10
0.662147
20
0.2857
11
0.664702
21
0.283993
0
LINE
8
BLACK
6
CONTINUOUS
10
0.664702
20
0.283993
11
0.666409
21
0.281438
0
LINE
8
BLACK
6
CONTINUOUS
10
0.666409
20
0.281438
11
0.667008
21
0.278425
0
LINE
8
BLACK
6
CONTINUOUS
10
0.667008
20
0.278425
11
0.667008
21
0.218425
0
LINE
8
BLACK
6
CONTINUOUS
10
0.667008
20
0.218425
11
0.666409
21
0.215412
0
LINE
8
BLACK
6
CONTINUOUS
10
0.666409
20
0.215412
11
0.664702
21
0.212857
0
LINE
8
BLACK
6
CONTINUOUS
10
0.664702
20
0.212857
11
0.662147
21
0.211151
0
LINE
8
BLACK
6
CONTINUOUS
10
0.662147
20
0.211151
11
0.659134
21
0.210551
0
LINE
8
BLACK
6
CONTINUOUS
10
0.659134
20
0.210551
11
0.599134
21
0.210551
0
LINE
8
BLACK
6
CONTINUOUS
10
0.599134
20
0.210551
11
0.596121
21
0.211151
0
LINE
8
BLACK
6
CONTINUOUS
10
0.596121
20
0.211151
11
0.593566
21
0.212857
0
LINE
8
BLACK
6
CONTINUOUS
10
0.593566
20
0.212857
11
0.591859
21
0.215412
0
LINE
8
BLACK
6
CONTINUOUS
10
0.591859
20
0.215412
11
0.59126
21
0.218425
0
LINE
8
BLACK
6
CONTINUOUS
10
0.59126
20
0.218425
11
0.59126
21
0.278425
0
LINE
8
BLACK
6
CONTINUOUS
10
0.59126
20
0.278425
11
0.591859
21
0.281438
0
LINE
8
BLACK
6
CONTINUOUS
10
0.591859
20
0.281438
11
0.593566
21
0.283993
0
LINE
8
BLACK
6
CONTINUOUS
10
0.593566
20
0.283993
11
0.596121
21
0.2857
0
LINE
8
BLACK
6
CONTINUOUS
10
0.596121
20
0.2857
11
0.599134
21
0.286299
0
LINE
8
BLACK
6
CONTINUOUS
10
0.599134
20
0.286299
11
0.659134
21
0.286299
0
LINE
8
BLACK
6
CONTINUOUS
10
0.659134
20
0.286299
11
0.662147
21
0.2857
0
LINE
8
BLACK
6
CONTINUOUS
10
0.762147
20
0.2857
11
0.764702
21
0.283993
0
LINE
8
BLACK
6
CONTINUOUS
10
0.764702
20
0.283993
11
0.766409
21
0.281438
0
LINE
8
BLACK
6
CONTINUOUS
10
0.766409
20
0.281438
11
0.767008
21
0.278425
0
LINE
8
BLACK
6
CONTINUOUS
10
0.767008
20
0.278425
11
0.767008
21
0.218425
0
LINE
8
BLACK
6
CONTINUOUS
10
0.767008
20
0.218425
11
0.766409
21
0.215412
0
LINE
8
BLACK
6
CONTINUOUS
10
0.766409
20
0.215412
11
0.764702
21
0.212857
0
LINE
8
BLACK
6
CONTINUOUS
10
0.764702
20
0.212857
11
0.762147
21
0.211151
0
LINE
8
BLACK
6
CONTINUOUS
10
0.762147
20
0.211151
11
0.759134
21
0.210551
0
LINE
8
BLACK
6
CONTINUOUS
10
0.759134
20
0.210551
11
0.699134
21
0.210551
0
LINE
8
BLACK
6
CONTINUOUS
10
0.699134
20
0.210551
11
0.696121
21
0.211151
0
LINE
8
BLACK
6
CONTINUOUS
10
0.696121
20
0.211151
11
0.693566
21
0.212857
0
LINE
8
BLACK
6
CONTINUOUS
10
0.693566
20
0.212857
11
0.691859
21
0.215412
0
LINE
8
BLACK
6
CONTINUOUS
10
0.691859
20
0.215412
11
0.69126
21
0.218425
0
LINE
8
BLACK
6
CONTINUOUS
10
0.69126
20
0.218425
11
0.69126
21
0.278425
0
LINE
8
BLACK
6
CONTINUOUS
10
0.69126
20
0.278425
11
0.691859
21
0.281438
0
LINE
8
BLACK
6
CONTINUOUS
10
0.691859
20
0.281438
11
0.693566
21
0.283993
0
LINE
8
BLACK
6
CONTINUOUS
10
0.693566
20
0.283993
11
0.696121
21
0.2857
0
LINE
8
BLACK
6
CONTINUOUS
10
0.696121
20
0.2857
11
0.699134
21
0.286299
0
LINE
8
BLACK
6
CONTINUOUS
10
0.699134
20
0.286299
11
0.759134
21
0.286299
0
LINE
8
BLACK
6
CONTINUOUS
10
0.759134
20
0.286299
11
0.762147
21
0.2857
0
LINE
8
BLACK
6
CONTINUOUS
10
0.862147
20
0.2857
11
0.864702
21
0.283993
0
LINE
8
BLACK
6
CONTINUOUS
10
0.864702
20
0.283993
11
0.866409
21
0.281438
0
LINE
8
BLACK
6
CONTINUOUS
10
0.866409
20
0.281438
11
0.867008
21
0.278425
0
LINE
8
BLACK
6
CONTINUOUS
10
0.867008
20
0.278425
11
0.867008
21
0.218425
0
LINE
8
BLACK
6
CONTINUOUS
10
0.867008
20
0.218425
11
0.866409
21
0.215412
0
LINE
8
BLACK
6
CONTINUOUS
10
0.866409
20
0.215412
11
0.864702
21
0.212857
0
LINE
8
BLACK
6
CONTINUOUS
10
0.864702
20
0.212857
11
0.862147
21
0.211151
0
LINE
8
BLACK
6
CONTINUOUS
10
0.862147
20
0.211151
11
0.859134
21
0.210551
0
LINE
8
BLACK
6
CONTINUOUS
10
0.859134
20
0.210551
11
0.799134
21
0.210551
0
LINE
8
BLACK
6
CONTINUOUS
10
0.799134
20
0.210551
11
0.796121
21
0.211151
0
LINE
8
BLACK
6
CONTINUOUS
10
0.796121
20
0.211151
11
0.793566
21
0.212857
0
LINE
8
BLACK
6
CONTINUOUS
10
0.793566
20
0.212857
11
0.791859
21
0.215412
0
LINE
8
BLACK
6
CONTINUOUS
10
0.791859
20
0.215412
11
0.79126
21
0.218425
0
LINE
8
BLACK
6
CONTINUOUS
10
0.79126
20
0.218425
11
0.79126
21
0.278425
0
LINE
8
BLACK
6
CONTINUOUS
10
0.79126
20
0.278425
11
0.791859
21
0.281438
0
LINE
8
BLACK
6
CONTINUOUS
10
0.791859
20
0.281438
11
0.793566
21
0.283993
0
LINE
8
BLACK
6
CONTINUOUS
10
0.793566
20
0.283993
11
0.796121
21
0.2857
0
LINE
8
BLACK
6
CONTINUOUS
10
0.796121
20
0.2857
11
0.799134
21
0.286299
0
LINE
8
BLACK
6
CONTINUOUS
10
0.799134
20
0.286299
11
0.859134
21
0.286299
0
LINE
8
BLACK
6
CONTINUOUS
10
0.859134
20
0.286299
11
0.862147
21
0.2857
0
LINE
8
BLACK
6
CONTINUOUS
10
0.962147
20
0.2857
11
0.964702
21
0.283993
0
LINE
8
BLACK
6
CONTINUOUS
10
0.964702
20
0.283993
11
0.966409
21
0.281438
0
LINE
8
BLACK
6
CONTINUOUS
10
0.966409
20
0.281438
11
0.967008
21
0.278425
0
LINE
8
BLACK
6
CONTINUOUS
10
0.967008
20
0.278425
11
0.967008
21
0.218425
0
LINE
8
BLACK
6
CONTINUOUS
10
0.967008
20
0.218425
11
0.966409
21
0.215412
0
LINE
8
BLACK
6
CONTINUOUS
10
0.966409
20
0.215412
11
0.964702
21
0.212857
0
LINE
8
BLACK
6
CONTINUOUS
10
0.964702
20
0.212857
11
0.962147
21
0.211151
0
LINE
8
BLACK
6
CONTINUOUS
10
0.962147
20
0.211151
11
0.959134
21
0.210551
0
LINE
8
BLACK
6
CONTINUOUS
10
0.959134
20
0.210551
11
0.899134
21
0.210551
0
LINE
8
BLACK
6
CONTINUOUS
10
0.899134
20
0.210551
11
0.896121
21
0.211151
0
LINE
8
BLACK
6
CONTINUOUS
10
0.896121
20
0.211151
11
0.893566
21
0.212857
0
LINE
8
BLACK
6
CONTINUOUS
10
0.893566
20
0.212857
11
0.891859
21
0.215412
0
LINE
8
BLACK
6
CONTINUOUS
10
0.891859
20
0.215412
11
0.89126
21
0.218425
0
LINE
8
BLACK
6
CONTINUOUS
10
0.89126
20
0.218425
11
0.89126
21
0.278425
0
LINE
8
BLACK
6
CONTINUOUS
10
0.89126
20
0.278425
11
0.891859
21
0.281438
0
LINE
8
BLACK
6
CONTINUOUS
10
0.891859
20
0.281438
11
0.893566
21
0.283993
0
LINE
8
BLACK
6
CONTINUOUS
10
0.893566
20
0.283993
11
0.896121
21
0.2857
0
LINE
8
BLACK
6
CONTINUOUS
10
0.896121
20
0.2857
11
0.899134
21
0.286299
0
LINE
8
BLACK
6
CONTINUOUS
10
0.899134
20
0.286299
11
0.959134
21
0.286299
0
LINE
8
BLACK
6
CONTINUOUS
10
0.959134
20
0.286299
11
0.962147
21
0.2857
0
LINE
8
BLACK
6
CONTINUOUS
10
1.06215
20
0.2857
11
1.0647
21
0.283993
0
LINE
8
BLACK
6
CONTINUOUS
10
1.0647
20
0.283993
11
1.06641
21
0.281438
0
LINE
8
BLACK
6
CONTINUOUS
10
1.06641
20
0.281438
11
1.06701
21
0.278425
0
LINE
8
BLACK
6
CONTINUOUS
10
1.06701
20
0.278425
11
1.06701
21
0.218425
0
LINE
8
BLACK
6
CONTINUOUS
10
1.06701
20
0.218425
11
1.06641
21
0.215412
0
LINE
8
BLACK
6
CONTINUOUS
10
1.06641
20
0.215412
11
1.0647
21
0.212857
0
LINE
8
BLACK
6
CONTINUOUS
10
1.0647
20
0.212857
11
1.06215
21
0.211151
0
LINE
8
BLACK
6
CONTINUOUS
10
1.06215
20
0.211151
11
1.05913
21
0.210551
0
LINE
8
BLACK
6
CONTINUOUS
10
1.05913
20
0.210551
11
0.999134
21
0.210551
0
LINE
8
BLACK
6
CONTINUOUS
10
0.999134
20
0.210551
11
0.996121
21
0.211151
0
LINE
8
BLACK
6
CONTINUOUS
10
0.996121
20
0.211151
11
0.993566
21
0.212857
0
LINE
8
BLACK
6
CONTINUOUS
10
0.993566
20
0.212857
11
0.991859
21
0.215412
0
LINE
8
BLACK
6
CONTINUOUS
10
0.991859
20
0.215412
11
0.99126
21
0.218425
0
LINE
8
BLACK
6
CONTINUOUS
10
0.99126
20
0.218425
11
0.99126
21
0.278425
0
LINE
8
BLACK
6
CONTINUOUS
10
0.99126
20
0.278425
11
0.991859
21
0.281438
0
LINE
8
BLACK
6
CONTINUOUS
10
0.991859
20
0.281438
11
0.993566
21
0.283993
0
LINE
8
BLACK
6
CONTINUOUS
10
0.993566
20
0.283993
11
0.996121
21
0.2857
0
LINE
8
BLACK
6
CONTINUOUS
10
0.996121
20
0.2857
11
0.999134
21
0.286299
0
LINE
8
BLACK
6
CONTINUOUS
10
0.999134
20
0.286299
11
1.05913
21
0.286299
0
LINE
8
BLACK
6
CONTINUOUS
10
1.05913
20
0.286299
11
1.06215
21
0.2857
0
LINE
8
BLACK
6
CONTINUOUS
10
1.16215
20
0.2857
11
1.1647
21
0.283993
0
LINE
8
BLACK
6
CONTINUOUS
10
1.1647
20
0.283993
11
1.16641
21
0.281438
0
LINE
8
BLACK
6
CONTINUOUS
10
1.16641
20
0.281438
11
1.16701
21
0.278425
0
LINE
8
BLACK
6
CONTINUOUS
10
1.16701
20
0.278425
11
1.16701
21
0.218425
0
LINE
8
BLACK
6
CONTINUOUS
10
1.16701
20
0.218425
11
1.16641
21
0.215412
0
LINE
8
BLACK
6
CONTINUOUS
10
1.16641
20
0.215412
11
1.1647
21
0.212857
0
LINE
8
BLACK
6
CONTINUOUS
10
1.1647
20
0.212857
11
1.16215
21
0.211151
0
LINE
8
BLACK
6
CONTINUOUS
10
1.16215
20
0.211151
11
1.15913
21
0.210551
0
LINE
8
BLACK
6
CONTINUOUS
10
1.15913
20
0.210551
11
1.09913
21
0.210551
0
LINE
8
BLACK
6
CONTINUOUS
10
1.09913
20
0.210551
11
1.09612
21
0.211151
0
LINE
8
BLACK
6
CONTINUOUS
10
1.09612
20
0.211151
11
1.09357
21
0.212857
0
LINE
8
BLACK
6
CONTINUOUS
10
1.09357
20
0.212857
11
1.09186
21
0.215412
0
LINE
8
BLACK
6
CONTINUOUS
10
1.09186
20
0.215412
11
1.09126
21
0.218425
0
LINE
8
BLACK
6
CONTINUOUS
10
1.09126
20
0.218425
11
1.09126
21
0.278425
0
LINE
8
BLACK
6
CONTINUOUS
10
1.09126
20
0.278425
11
1.09186
21
0.281438
0
LINE
8
BLACK
6
CONTINUOUS
10
1.09186
20
0.281438
11
1.09357
21
0.283993
0
LINE
8
BLACK
6
CONTINUOUS
10
1.09357
20
0.283993
11
1.09612
21
0.2857
0
LINE
8
BLACK
6
CONTINUOUS
10
1.09612
20
0.2857
11
1.09913
21
0.286299
0
LINE
8
BLACK
6
CONTINUOUS
10
1.09913
20
0.286299
11
1.15913
21
0.286299
0
LINE
8
BLACK
6
CONTINUOUS
10
1.15913
20
0.286299
11
1.16215
21
0.2857
0
LINE
8
BLACK
6
CONTINUOUS
10
1.26215
20
0.2857
11
1.2647
21
0.283993
0
LINE
8
BLACK
6
CONTINUOUS
10
1.2647
20
0.283993
11
1.26641
21
0.281438
0
LINE
8
BLACK
6
CONTINUOUS
10
1.26641
20
0.281438
11
1.26701
21
0.278425
0
LINE
8
BLACK
6
CONTINUOUS
10
1.26701
20
0.278425
11
1.26701
21
0.218425
0
LINE
8
BLACK
6
CONTINUOUS
10
1.26701
20
0.218425
11
1.26641
21
0.215412
0
LINE
8
BLACK
6
CONTINUOUS
10
1.26641
20
0.215412
11
1.2647
21
0.212857
0
LINE
8
BLACK
6
CONTINUOUS
10
1.2647
20
0.212857
11
1.26215
21
0.211151
0
LINE
8
BLACK
6
CONTINUOUS
10
1.26215
20
0.211151
11
1.25913
21
0.210551
0
LINE
8
BLACK
6
CONTINUOUS
10
1.25913
20
0.210551
11
1.19913
21
0.210551
0
LINE
8
BLACK
6
CONTINUOUS
10
1.19913
20
0.210551
11
1.19612
21
0.211151
0
LINE
8
BLACK
6
CONTINUOUS
10
1.19612
20
0.211151
11
1.19357
21
0.212857
0
LINE
8
BLACK
6
CONTINUOUS
10
1.19357
20
0.212857
11
1.19186
21
0.215412
0
LINE
8
BLACK
6
CONTINUOUS
10
1.19186
20
0.215412
11
1.19126
21
0.218425
0
LINE
8
BLACK
6
CONTINUOUS
10
1.19126
20
0.218425
11
1.19126
21
0.278425
0
LINE
8
BLACK
6
CONTINUOUS
10
1.19126
20
0.278425
11
1.19186
21
0.281438
0
LINE
8
BLACK
6
CONTINUOUS
10
1.19186
20
0.281438
11
1.19357
21
0.283993
0
LINE
8
BLACK
6
CONTINUOUS
10
1.19357
20
0.283993
11
1.19612
21
0.2857
0
LINE
8
BLACK
6
CONTINUOUS
10
1.19612
20
0.2857
11
1.19913
21
0.286299
0
LINE
8
BLACK
6
CONTINUOUS
10
1.19913
20
0.286299
11
1.25913
21
0.286299
0
LINE
8
BLACK
6
CONTINUOUS
10
1.25913
20
0.286299
11
1.26215
21
0.2857
0
LINE
8
BLACK
6
CONTINUOUS
10
1.36215
20
0.2857
11
1.3647
21
0.283993
0
LINE
8
BLACK
6
CONTINUOUS
10
1.3647
20
0.283993
11
1.36641
21
0.281438
0
LINE
8
BLACK
6
CONTINUOUS
10
1.36641
20
0.281438
11
1.36701
21
0.278425
0
LINE
8
BLACK
6
CONTINUOUS
10
1.36701
20
0.278425
11
1.36701
21
0.218425
0
LINE
8
BLACK
6
CONTINUOUS
10
1.36701
20
0.218425
11
1.36641
21
0.215412
0
LINE
8
BLACK
6
CONTINUOUS
10
1.36641
20
0.215412
11
1.3647
21
0.212857
0
LINE
8
BLACK
6
CONTINUOUS
10
1.3647
20
0.212857
11
1.36215
21
0.211151
0
LINE
8
BLACK
6
CONTINUOUS
10
1.36215
20
0.211151
11
1.35913
21
0.210551
0
LINE
8
BLACK
6
CONTINUOUS
10
1.35913
20
0.210551
11
1.29913
21
0.210551
0
LINE
8
BLACK
6
CONTINUOUS
10
1.29913
20
0.210551
11
1.29612
21
0.211151
0
LINE
8
BLACK
6
CONTINUOUS
10
1.29612
20
0.211151
11
1.29357
21
0.212857
0
LINE
8
BLACK
6
CONTINUOUS
10
1.29357
20
0.212857
11
1.29186
21
0.215412
0
LINE
8
BLACK
6
CONTINUOUS
10
1.29186
20
0.215412
11
1.29126
21
0.218425
0
LINE
8
BLACK
6
CONTINUOUS
10
1.29126
20
0.218425
11
1.29126
21
0.278425
0
LINE
8
BLACK
6
CONTINUOUS
10
1.29126
20
0.278425
11
1.29186
21
0.281438
0
LINE
8
BLACK
6
CONTINUOUS
10
1.29186
20
0.281438
11
1.29357
21
0.283993
0
LINE
8
BLACK
6
CONTINUOUS
10
1.29357
20
0.283993
11
1.29612
21
0.2857
0
LINE
8
BLACK
6
CONTINUOUS
10
1.29612
20
0.2857
11
1.29913
21
0.286299
0
LINE
8
BLACK
6
CONTINUOUS
10
1.29913
20
0.286299
11
1.35913
21
0.286299
0
LINE
8
BLACK
6
CONTINUOUS
10
1.35913
20
0.286299
11
1.36215
21
0.2857
0
LINE
8
BLACK
6
CONTINUOUS
10
1.46215
20
0.2857
11
1.4647
21
0.283993
0
LINE
8
BLACK
6
CONTINUOUS
10
1.4647
20
0.283993
11
1.46641
21
0.281438
0
LINE
8
BLACK
6
CONTINUOUS
10
1.46641
20
0.281438
11
1.46701
21
0.278425
0
LINE
8
BLACK
6
CONTINUOUS
10
1.46701
20
0.278425
11
1.46701
21
0.218425
0
LINE
8
BLACK
6
CONTINUOUS
10
1.46701
20
0.218425
11
1.46641
21
0.215412
0
LINE
8
BLACK
6
CONTINUOUS
10
1.46641
20
0.215412
11
1.4647
21
0.212857
0
LINE
8
BLACK
6
CONTINUOUS
10
1.4647
20
0.212857
11
1.46215
21
0.211151
0
LINE
8
BLACK
6
CONTINUOUS
10
1.46215
20
0.211151
11
1.45913
21
0.210551
0
LINE
8
BLACK
6
CONTINUOUS
10
1.45913
20
0.210551
11
1.39913
21
0.210551
0
LINE
8
BLACK
6
CONTINUOUS
10
1.39913
20
0.210551
11
1.39612
21
0.211151
0
LINE
8
BLACK
6
CONTINUOUS
10
1.39612
20
0.211151
11
1.39357
21
0.212857
0
LINE
8
BLACK
6
CONTINUOUS
10
1.39357
20
0.212857
11
1.39186
21
0.215412
0
LINE
8
BLACK
6
CONTINUOUS
10
1.39186
20
0.215412
11
1.39126
21
0.218425
0
LINE
8
BLACK
6
CONTINUOUS
10
1.39126
20
0.218425
11
1.39126
21
0.278425
0
LINE
8
BLACK
6
CONTINUOUS
10
1.39126
20
0.278425
11
1.39186
21
0.281438
0
LINE
8
BLACK
6
CONTINUOUS
10
1.39186
20
0.281438
11
1.39357
21
0.283993
0
LINE
8
BLACK
6
CONTINUOUS
10
1.39357
20
0.283993
11
1.39612
21
0.2857
0
LINE
8
BLACK
6
CONTINUOUS
10
1.39612
20
0.2857
11
1.39913
21
0.286299
0
LINE
8
BLACK
6
CONTINUOUS
10
1.39913
20
0.286299
11
1.45913
21
0.286299
0
LINE
8
BLACK
6
CONTINUOUS
10
1.45913
20
0.286299
11
1.46215
21
0.2857
0
LINE
8
BLACK
6
CONTINUOUS
10
1.56215
20
0.2857
11
1.5647
21
0.283993
0
LINE
8
BLACK
6
CONTINUOUS
10
1.5647
20
0.283993
11
1.56641
21
0.281438
0
LINE
8
BLACK
6
CONTINUOUS
10
1.56641
20
0.281438
11
1.56701
21
0.278425
0
LINE
8
BLACK
6
CONTINUOUS
10
1.56701
20
0.278425
11
1.56701
21
0.218425
0
LINE
8
BLACK
6
CONTINUOUS
10
1.56701
20
0.218425
11
1.56641
21
0.215412
0
LINE
8
BLACK
6
CONTINUOUS
10
1.56641
20
0.215412
11
1.5647
21
0.212857
0
LINE
8
BLACK
6
CONTINUOUS
10
1.5647
20
0.212857
11
1.56215
21
0.211151
0
LINE
8
BLACK
6
CONTINUOUS
10
1.56215
20
0.211151
11
1.55913
21
0.210551
0
LINE
8
BLACK
6
CONTINUOUS
10
1.55913
20
0.210551
11
1.49913
21
0.210551
0
LINE
8
BLACK
6
CONTINUOUS
10
1.49913
20
0.210551
11
1.49612
21
0.211151
0
LINE
8
BLACK
6
CONTINUOUS
10
1.49612
20
0.211151
11
1.49357
21
0.212857
0
LINE
8
BLACK
6
CONTINUOUS
10
1.49357
20
0.212857
11
1.49186
21
0.215412
0
LINE
8
BLACK
6
CONTINUOUS
10
1.49186
20
0.215412
11
1.49126
21
0.218425
0
LINE
8
BLACK
6
CONTINUOUS
10
1.49126
20
0.218425
11
1.49126
21
0.278425
0
LINE
8
BLACK
6
CONTINUOUS
10
1.49126
20
0.278425
11
1.49186
21
0.281438
0
LINE
8
BLACK
6
CONTINUOUS
10
1.49186
20
0.281438
11
1.49357
21
0.283993
0
LINE
8
BLACK
6
CONTINUOUS
10
1.49357
20
0.283993
11
1.49612
21
0.2857
0
LINE
8
BLACK
6
CONTINUOUS
10
1.49612
20
0.2857
11
1.49913
21
0.286299
0
LINE
8
BLACK
6
CONTINUOUS
10
1.49913
20
0.286299
11
1.55913
21
0.286299
0
LINE
8
BLACK
6
CONTINUOUS
10
1.55913
20
0.286299
11
1.56215
21
0.2857
0
LINE
8
BLACK
6
CONTINUOUS
10
1.66215
20
0.2857
11
1.6647
21
0.283993
0
LINE
8
BLACK
6
CONTINUOUS
10
1.6647
20
0.283993
11
1.66641
21
0.281438
0
LINE
8
BLACK
6
CONTINUOUS
10
1.66641
20
0.281438
11
1.66701
21
0.278425
0
LINE
8
BLACK
6
CONTINUOUS
10
1.66701
20
0.278425
11
1.66701
21
0.218425
0
LINE
8
BLACK
6
CONTINUOUS
10
1.66701
20
0.218425
11
1.66641
21
0.215412
0
LINE
8
BLACK
6
CONTINUOUS
10
1.66641
20
0.215412
11
1.6647
21
0.212857
0
LINE
8
BLACK
6
CONTINUOUS
10
1.6647
20
0.212857
11
1.66215
21
0.211151
0
LINE
8
BLACK
6
CONTINUOUS
10
1.66215
20
0.211151
11
1.65913
21
0.210551
0
LINE
8
BLACK
6
CONTINUOUS
10
1.65913
20
0.210551
11
1.59913
21
0.210551
0
LINE
8
BLACK
6
CONTINUOUS
10
1.59913
20
0.210551
11
1.59612
21
0.211151
0
LINE
8
BLACK
6
CONTINUOUS
10
1.59612
20
0.211151
11
1.59357
21
0.212857
0
LINE
8
BLACK
6
CONTINUOUS
10
1.59357
20
0.212857
11
1.59186
21
0.215412
0
LINE
8
BLACK
6
CONTINUOUS
10
1.59186
20
0.215412
11
1.59126
21
0.218425
0
LINE
8
BLACK
6
CONTINUOUS
10
1.59126
20
0.218425
11
1.59126
21
0.278425
0
LINE
8
BLACK
6
CONTINUOUS
10
1.59126
20
0.278425
11
1.59186
21
0.281438
0
LINE
8
BLACK
6
CONTINUOUS
10
1.59186
20
0.281438
11
1.59357
21
0.283993
0
LINE
8
BLACK
6
CONTINUOUS
10
1.59357
20
0.283993
11
1.59612
21
0.2857
0
LINE
8
BLACK
6
CONTINUOUS
10
1.59612
20
0.2857
11
1.59913
21
0.286299
0
LINE
8
BLACK
6
CONTINUOUS
10
1.59913
20
0.286299
11
1.65913
21
0.286299
0
LINE
8
BLACK
6
CONTINUOUS
10
1.65913
20
0.286299
11
1.66215
21
0.2857
0
LINE
8
BLACK
6
CONTINUOUS
10
1.76215
20
0.2857
11
1.7647
21
0.283993
0
LINE
8
BLACK
6
CONTINUOUS
10
1.7647
20
0.283993
11
1.76641
21
0.281438
0
LINE
8
BLACK
6
CONTINUOUS
10
1.76641
20
0.281438
11
1.76701
21
0.278425
0
LINE
8
BLACK
6
CONTINUOUS
10
1.76701
20
0.278425
11
1.76701
21
0.218425
0
LINE
8
BLACK
6
CONTINUOUS
10
1.76701
20
0.218425
11
1.76641
21
0.215412
0
LINE
8
BLACK
6
CONTINUOUS
10
1.76641
20
0.215412
11
1.7647
21
0.212857
0
LINE
8
BLACK
6
CONTINUOUS
10
1.7647
20
0.212857
11
1.76215
21
0.211151
0
LINE
8
BLACK
6
CONTINUOUS
10
1.76215
20
0.211151
11
1.75913
21
0.210551
0
LINE
8
BLACK
6
CONTINUOUS
10
1.75913
20
0.210551
11
1.69913
21
0.210551
0
LINE
8
BLACK
6
CONTINUOUS
10
1.69913
20
0.210551
11
1.69612
21
0.211151
0
LINE
8
BLACK
6
CONTINUOUS
10
1.69612
20
0.211151
11
1.69357
21
0.212857
0
LINE
8
BLACK
6
CONTINUOUS
10
1.69357
20
0.212857
11
1.69186
21
0.215412
0
LINE
8
BLACK
6
CONTINUOUS
10
1.69186
20
0.215412
11
1.69126
21
0.218425
0
LINE
8
BLACK
6
CONTINUOUS
10
1.69126
20
0.218425
11
1.69126
21
0.278425
0
LINE
8
BLACK
6
CONTINUOUS
10
1.69126
20
0.278425
11
1.69186
21
0.281438
0
LINE
8
BLACK
6
CONTINUOUS
10
1.69186
20
0.281438
11
1.69357
21
0.283993
0
LINE
8
BLACK
6
CONTINUOUS
10
1.69357
20
0.283993
11
1.69612
21
0.2857
0
LINE
8
BLACK
6
CONTINUOUS
10
1.69612
20
0.2857
11
1.69913
21
0.286299
0
LINE
8
BLACK
6
CONTINUOUS
10
1.69913
20
0.286299
11
1.75913
21
0.286299
0
LINE
8
BLACK
6
CONTINUOUS
10
1.75913
20
0.286299
11
1.76215
21
0.2857
0
LINE
8
BLACK
6
CONTINUOUS
10
1.86215
20
0.2857
11
1.8647
21
0.283993
0
LINE
8
BLACK
6
CONTINUOUS
10
1.8647
20
0.283993
11
1.86641
21
0.281438
0
LINE
8
BLACK
6
CONTINUOUS
10
1.86641
20
0.281438
11
1.86701
21
0.278425
0
LINE
8
BLACK
6
CONTINUOUS
10
1.86701
20
0.278425
11
1.86701
21
0.218425
0
LINE
8
BLACK
6
CONTINUOUS
10
1.86701
20
0.218425
11
1.86641
21
0.215412
0
LINE
8
BLACK
6
CONTINUOUS
10
1.86641
20
0.215412
11
1.8647
21
0.212857
0
LINE
8
BLACK
6
CONTINUOUS
10
1.8647
20
0.212857
11
1.86215
21
0.211151
0
LINE
8
BLACK
6
CONTINUOUS
10
1.86215
20
0.211151
11
1.85913
21
0.210551
0
LINE
8
BLACK
6
CONTINUOUS
10
1.85913
20
0.210551
11
1.79913
21
0.210551
0
LINE
8
BLACK
6
CONTINUOUS
10
1.79913
20
0.210551
11
1.79612
21
0.211151
0
LINE
8
BLACK
6
CONTINUOUS
10
1.79612
20
0.211151
11
1.79357
21
0.212857
0
LINE
8
BLACK
6
CONTINUOUS
10
1.79357
20
0.212857
11
1.79186
21
0.215412
0
LINE
8
BLACK
6
CONTINUOUS
10
1.79186
20
0.215412
11
1.79126
21
0.218425
0
LINE
8
BLACK
6
CONTINUOUS
10
1.79126
20
0.218425
11
1.79126
21
0.278425
0
LINE
8
BLACK
6
CONTINUOUS
10
1.79126
20
0.278425
11
1.79186
21
0.281438
0
LINE
8
BLACK
6
CONTINUOUS
10
1.79186
20
0.281438
11
1.79357
21
0.283993
0
LINE
8
BLACK
6
CONTINUOUS
10
1.79357
20
0.283993
11
1.79612
21
0.2857
0
LINE
8
BLACK
6
CONTINUOUS
10
1.79612
20
0.2857
11
1.79913
21
0.286299
0
LINE
8
BLACK
6
CONTINUOUS
10
1.79913
20
0.286299
11
1.85913
21
0.286299
0
LINE
8
BLACK
6
CONTINUOUS
10
1.85913
20
0.286299
11
1.86215
21
0.2857
0
LINE
8
BLACK
6
CONTINUOUS
10
2.38498
20
0.2857
11
2.38754
21
0.283993
0
LINE
8
BLACK
6
CONTINUOUS
10
2.38754
20
0.283993
11
2.38924
21
0.281438
0
LINE
8
BLACK
6
CONTINUOUS
10
2.38924
20
0.281438
11
2.38984
21
0.278425
0
LINE
8
BLACK
6
CONTINUOUS
10
2.38984
20
0.278425
11
2.38984
21
0.218425
0
LINE
8
BLACK
6
CONTINUOUS
10
2.38984
20
0.218425
11
2.38924
21
0.215412
0
LINE
8
BLACK
6
CONTINUOUS
10
2.38924
20
0.215412
11
2.38754
21
0.212857
0
LINE
8
BLACK
6
CONTINUOUS
10
2.38754
20
0.212857
11
2.38498
21
0.211151
0
LINE
8
BLACK
6
CONTINUOUS
10
2.38498
20
0.211151
11
2.38197
21
0.210551
0
LINE
8
BLACK
6
CONTINUOUS
10
2.38197
20
0.210551
11
2.32197
21
0.210551
0
LINE
8
BLACK
6
CONTINUOUS
10
2.32197
20
0.210551
11
2.31896
21
0.211151
0
LINE
8
BLACK
6
CONTINUOUS
10
2.31896
20
0.211151
11
2.3164
21
0.212857
0
LINE
8
BLACK
6
CONTINUOUS
10
2.3164
20
0.212857
11
2.31469
21
0.215412
0
LINE
8
BLACK
6
CONTINUOUS
10
2.31469
20
0.215412
11
2.31409
21
0.218425
0
LINE
8
BLACK
6
CONTINUOUS
10
2.31409
20
0.218425
11
2.31409
21
0.278425
0
LINE
8
BLACK
6
CONTINUOUS
10
2.31409
20
0.278425
11
2.31469
21
0.281438
0
LINE
8
BLACK
6
CONTINUOUS
10
2.31469
20
0.281438
11
2.3164
21
0.283993
0
LINE
8
BLACK
6
CONTINUOUS
10
2.3164
20
0.283993
11
2.31896
21
0.2857
0
LINE
8
BLACK
6
CONTINUOUS
10
2.31896
20
0.2857
11
2.32197
21
0.286299
0
LINE
8
BLACK
6
CONTINUOUS
10
2.32197
20
0.286299
11
2.38197
21
0.286299
0
LINE
8
BLACK
6
CONTINUOUS
10
2.38197
20
0.286299
11
2.38498
21
0.2857
0
LINE
8
BLACK
6
CONTINUOUS
10
2.48498
20
0.2857
11
2.48754
21
0.283993
0
LINE
8
BLACK
6
CONTINUOUS
10
2.48754
20
0.283993
11
2.48924
21
0.281438
0
LINE
8
BLACK
6
CONTINUOUS
10
2.48924
20
0.281438
11
2.48984
21
0.278425
0
LINE
8
BLACK
6
CONTINUOUS
10
2.48984
20
0.278425
11
2.48984
21
0.218425
0
LINE
8
BLACK
6
CONTINUOUS
10
2.48984
20
0.218425
11
2.48924
21
0.215412
0
LINE
8
BLACK
6
CONTINUOUS
10
2.48924
20
0.215412
11
2.48754
21
0.212857
0
LINE
8
BLACK
6
CONTINUOUS
10
2.48754
20
0.212857
11
2.48498
21
0.211151
0
LINE
8
BLACK
6
CONTINUOUS
10
2.48498
20
0.211151
11
2.48197
21
0.210551
0
LINE
8
BLACK
6
CONTINUOUS
10
2.48197
20
0.210551
11
2.42197
21
0.210551
0
LINE
8
BLACK
6
CONTINUOUS
10
2.42197
20
0.210551
11
2.41896
21
0.211151
0
LINE
8
BLACK
6
CONTINUOUS
10
2.41896
20
0.211151
11
2.4164
21
0.212857
0
LINE
8
BLACK
6
CONTINUOUS
10
2.4164
20
0.212857
11
2.41469
21
0.215412
0
LINE
8
BLACK
6
CONTINUOUS
10
2.41469
20
0.215412
11
2.41409
21
0.218425
0
LINE
8
BLACK
6
CONTINUOUS
10
2.41409
20
0.218425
11
2.41409
21
0.278425
0
LINE
8
BLACK
6
CONTINUOUS
10
2.41409
20
0.278425
11
2.41469
21
0.281438
0
LINE
8
BLACK
6
CONTINUOUS
10
2.41469
20
0.281438
11
2.4164
21
0.283993
0
LINE
8
BLACK
6
CONTINUOUS
10
2.4164
20
0.283993
11
2.41896
21
0.2857
0
LINE
8
BLACK
6
CONTINUOUS
10
2.41896
20
0.2857
11
2.42197
21
0.286299
0
LINE
8
BLACK
6
CONTINUOUS
10
2.42197
20
0.286299
11
2.48197
21
0.286299
0
LINE
8
BLACK
6
CONTINUOUS
10
2.48197
20
0.286299
11
2.48498
21
0.2857
0
LINE
8
BLACK
6
CONTINUOUS
10
2.58498
20
0.2857
11
2.58754
21
0.283993
0
LINE
8
BLACK
6
CONTINUOUS
10
2.58754
20
0.283993
11
2.58924
21
0.281438
0
LINE
8
BLACK
6
CONTINUOUS
10
2.58924
20
0.281438
11
2.58984
21
0.278425
0
LINE
8
BLACK
6
CONTINUOUS
10
2.58984
20
0.278425
11
2.58984
21
0.218425
0
LINE
8
BLACK
6
CONTINUOUS
10
2.58984
20
0.218425
11
2.58924
21
0.215412
0
LINE
8
BLACK
6
CONTINUOUS
10
2.58924
20
0.215412
11
2.58754
21
0.212857
0
LINE
8
BLACK
6
CONTINUOUS
10
2.58754
20
0.212857
11
2.58498
21
0.211151
0
LINE
8
BLACK
6
CONTINUOUS
10
2.58498
20
0.211151
11
2.58197
21
0.210551
0
LINE
8
BLACK
6
CONTINUOUS
10
2.58197
20
0.210551
11
2.52197
21
0.210551
0
LINE
8
BLACK
6
CONTINUOUS
10
2.52197
20
0.210551
11
2.51896
21
0.211151
0
LINE
8
BLACK
6
CONTINUOUS
10
2.51896
20
0.211151
11
2.5164
21
0.212857
0
LINE
8
BLACK
6
CONTINUOUS
10
2.5164
20
0.212857
11
2.51469
21
0.215412
0
LINE
8
BLACK
6
CONTINUOUS
10
2.51469
20
0.215412
11
2.51409
21
0.218425
0
LINE
8
BLACK
6
CONTINUOUS
10
2.51409
20
0.218425
11
2.51409
21
0.278425
0
LINE
8
BLACK
6
CONTINUOUS
10
2.51409
20
0.278425
11
2.51469
21
0.281438
0
LINE
8
BLACK
6
CONTINUOUS
10
2.51469
20
0.281438
11
2.5164
21
0.283993
0
LINE
8
BLACK
6
CONTINUOUS
10
2.5164
20
0.283993
11
2.51896
21
0.2857
0
LINE
8
BLACK
6
CONTINUOUS
10
2.51896
20
0.2857
11
2.52197
21
0.286299
0
LINE
8
BLACK
6
CONTINUOUS
10
2.52197
20
0.286299
11
2.58197
21
0.286299
0
LINE
8
BLACK
6
CONTINUOUS
10
2.58197
20
0.286299
11
2.58498
21
0.2857
0
LINE
8
BLACK
6
CONTINUOUS
10
2.68498
20
0.2857
11
2.68754
21
0.283993
0
LINE
8
BLACK
6
CONTINUOUS
10
2.68754
20
0.283993
11
2.68924
21
0.281438
0
LINE
8
BLACK
6
CONTINUOUS
10
2.68924
20
0.281438
11
2.68984
21
0.278425
0
LINE
8
BLACK
6
CONTINUOUS
10
2.68984
20
0.278425
11
2.68984
21
0.218425
0
LINE
8
BLACK
6
CONTINUOUS
10
2.68984
20
0.218425
11
2.68924
21
0.215412
0
LINE
8
BLACK
6
CONTINUOUS
10
2.68924
20
0.215412
11
2.68754
21
0.212857
0
LINE
8
BLACK
6
CONTINUOUS
10
2.68754
20
0.212857
11
2.68498
21
0.211151
0
LINE
8
BLACK
6
CONTINUOUS
10
2.68498
20
0.211151
11
2.68197
21
0.210551
0
LINE
8
BLACK
6
CONTINUOUS
10
2.68197
20
0.210551
11
2.62197
21
0.210551
0
LINE
8
BLACK
6
CONTINUOUS
10
2.62197
20
0.210551
11
2.61896
21
0.211151
0
LINE
8
BLACK
6
CONTINUOUS
10
2.61896
20
0.211151
11
2.6164
21
0.212857
0
LINE
8
BLACK
6
CONTINUOUS
10
2.6164
20
0.212857
11
2.61469
21
0.215412
0
LINE
8
BLACK
6
CONTINUOUS
10
2.61469
20
0.215412
11
2.61409
21
0.218425
0
LINE
8
BLACK
6
CONTINUOUS
10
2.61409
20
0.218425
11
2.61409
21
0.278425
0
LINE
8
BLACK
6
CONTINUOUS
10
2.61409
20
0.278425
11
2.61469
21
0.281438
0
LINE
8
BLACK
6
CONTINUOUS
10
2.61469
20
0.281438
11
2.6164
21
0.283993
0
LINE
8
BLACK
6
CONTINUOUS
10
2.6164
20
0.283993
11
2.61896
21
0.2857
0
LINE
8
BLACK
6
CONTINUOUS
10
2.61896
20
0.2857
11
2.62197
21
0.286299
0
LINE
8
BLACK
6
CONTINUOUS
10
2.62197
20
0.286299
11
2.68197
21
0.286299
0
LINE
8
BLACK
6
CONTINUOUS
10
2.68197
20
0.286299
11
2.68498
21
0.2857
0
LINE
8
BLACK
6
CONTINUOUS
10
2.78498
20
0.2857
11
2.78754
21
0.283993
0
LINE
8
BLACK
6
CONTINUOUS
10
2.78754
20
0.283993
11
2.78924
21
0.281438
0
LINE
8
BLACK
6
CONTINUOUS
10
2.78924
20
0.281438
11
2.78984
21
0.278425
0
LINE
8
BLACK
6
CONTINUOUS
10
2.78984
20
0.278425
11
2.78984
21
0.218425
0
LINE
8
BLACK
6
CONTINUOUS
10
2.78984
20
0.218425
11
2.78924
21
0.215412
0
LINE
8
BLACK
6
CONTINUOUS
10
2.78924
20
0.215412
11
2.78754
21
0.212857
0
LINE
8
BLACK
6
CONTINUOUS
10
2.78754
20
0.212857
11
2.78498
21
0.211151
0
LINE
8
BLACK
6
CONTINUOUS
10
2.78498
20
0.211151
11
2.78197
21
0.210551
0
LINE
8
BLACK
6
CONTINUOUS
10
2.78197
20
0.210551
11
2.72197
21
0.210551
0
LINE
8
BLACK
6
CONTINUOUS
10
2.72197
20
0.210551
11
2.71896
21
0.211151
0
LINE
8
BLACK
6
CONTINUOUS
10
2.71896
20
0.211151
11
2.7164
21
0.212857
0
LINE
8
BLACK
6
CONTINUOUS
10
2.7164
20
0.212857
11
2.71469
21
0.215412
0
LINE
8
BLACK
6
CONTINUOUS
10
2.71469
20
0.215412
11
2.71409
21
0.218425
0
LINE
8
BLACK
6
CONTINUOUS
10
2.71409
20
0.218425
11
2.71409
21
0.278425
0
LINE
8
BLACK
6
CONTINUOUS
10
2.71409
20
0.278425
11
2.71469
21
0.281438
0
LINE
8
BLACK
6
CONTINUOUS
10
2.71469
20
0.281438
11
2.7164
21
0.283993
0
LINE
8
BLACK
6
CONTINUOUS
10
2.7164
20
0.283993
11
2.71896
21
0.2857
0
LINE
8
BLACK
6
CONTINUOUS
10
2.71896
20
0.2857
11
2.72197
21
0.286299
0
LINE
8
BLACK
6
CONTINUOUS
10
2.72197
20
0.286299
11
2.78197
21
0.286299
0
LINE
8
BLACK
6
CONTINUOUS
10
2.78197
20
0.286299
11
2.78498
21
0.2857
0
LINE
8
BLACK
6
CONTINUOUS
10
3.00467
20
0.2857
11
3.00722
21
0.283993
0
LINE
8
BLACK
6
CONTINUOUS
10
3.00722
20
0.283993
11
3.00893
21
0.281438
0
LINE
8
BLACK
6
CONTINUOUS
10
3.00893
20
0.281438
11
3.00953
21
0.278425
0
LINE
8
BLACK
6
CONTINUOUS
10
3.00953
20
0.278425
11
3.00953
21
0.218425
0
LINE
8
BLACK
6
CONTINUOUS
10
3.00953
20
0.218425
11
3.00893
21
0.215412
0
LINE
8
BLACK
6
CONTINUOUS
10
3.00893
20
0.215412
11
3.00722
21
0.212857
0
LINE
8
BLACK
6
CONTINUOUS
10
3.00722
20
0.212857
11
3.00467
21
0.211151
0
LINE
8
BLACK
6
CONTINUOUS
10
3.00467
20
0.211151
11
3.00165
21
0.210551
0
LINE
8
BLACK
6
CONTINUOUS
10
3.00165
20
0.210551
11
2.94165
21
0.210551
0
LINE
8
BLACK
6
CONTINUOUS
10
2.94165
20
0.210551
11
2.93864
21
0.211151
0
LINE
8
BLACK
6
CONTINUOUS
10
2.93864
20
0.211151
11
2.93609
21
0.212857
0
LINE
8
BLACK
6
CONTINUOUS
10
2.93609
20
0.212857
11
2.93438
21
0.215412
0
LINE
8
BLACK
6
CONTINUOUS
10
2.93438
20
0.215412
11
2.93378
21
0.218425
0
LINE
8
BLACK
6
CONTINUOUS
10
2.93378
20
0.218425
11
2.93378
21
0.278425
0
LINE
8
BLACK
6
CONTINUOUS
10
2.93378
20
0.278425
11
2.93438
21
0.281438
0
LINE
8
BLACK
6
CONTINUOUS
10
2.93438
20
0.281438
11
2.93609
21
0.283993
0
LINE
8
BLACK
6
CONTINUOUS
10
2.93609
20
0.283993
11
2.93864
21
0.2857
0
LINE
8
BLACK
6
CONTINUOUS
10
2.93864
20
0.2857
11
2.94165
21
0.286299
0
LINE
8
BLACK
6
CONTINUOUS
10
2.94165
20
0.286299
11
3.00165
21
0.286299
0
LINE
8
BLACK
6
CONTINUOUS
10
3.00165
20
0.286299
11
3.00467
21
0.2857
0
LINE
8
BLACK
6
CONTINUOUS
10
3.10467
20
0.2857
11
3.10722
21
0.283993
0
LINE
8
BLACK
6
CONTINUOUS
10
3.10722
20
0.283993
11
3.10893
21
0.281438
0
LINE
8
BLACK
6
CONTINUOUS
10
3.10893
20
0.281438
11
3.10953
21
0.278425
0
LINE
8
BLACK
6
CONTINUOUS
10
3.10953
20
0.278425
11
3.10953
21
0.218425
0
LINE
8
BLACK
6
CONTINUOUS
10
3.10953
20
0.218425
11
3.10893
21
0.215412
0
LINE
8
BLACK
6
CONTINUOUS
10
3.10893
20
0.215412
11
3.10722
21
0.212857
0
LINE
8
BLACK
6
CONTINUOUS
10
3.10722
20
0.212857
11
3.10467
21
0.211151
0
LINE
8
BLACK
6
CONTINUOUS
10
3.10467
20
0.211151
11
3.10165
21
0.210551
0
LINE
8
BLACK
6
CONTINUOUS
10
3.10165
20
0.210551
11
3.04165
21
0.210551
0
LINE
8
BLACK
6
CONTINUOUS
10
3.04165
20
0.210551
11
3.03864
21
0.211151
0
LINE
8
BLACK
6
CONTINUOUS
10
3.03864
20
0.211151
11
3.03609
21
0.212857
0
LINE
8
BLACK
6
CONTINUOUS
10
3.03609
20
0.212857
11
3.03438
21
0.215412
0
LINE
8
BLACK
6
CONTINUOUS
10
3.03438
20
0.215412
11
3.03378
21
0.218425
0
LINE
8
BLACK
6
CONTINUOUS
10
3.03378
20
0.218425
11
3.03378
21
0.278425
0
LINE
8
BLACK
6
CONTINUOUS
10
3.03378
20
0.278425
11
3.03438
21
0.281438
0
LINE
8
BLACK
6
CONTINUOUS
10
3.03438
20
0.281438
11
3.03609
21
0.283993
0
LINE
8
BLACK
6
CONTINUOUS
10
3.03609
20
0.283993
11
3.03864
21
0.2857
0
LINE
8
BLACK
6
CONTINUOUS
10
3.03864
20
0.2857
11
3.04165
21
0.286299
0
LINE
8
BLACK
6
CONTINUOUS
10
3.04165
20
0.286299
11
3.10165
21
0.286299
0
LINE
8
BLACK
6
CONTINUOUS
10
3.10165
20
0.286299
11
3.10467
21
0.2857
0
LINE
8
BLACK
6
CONTINUOUS
10
3.20467
20
0.2857
11
3.20722
21
0.283993
0
LINE
8
BLACK
6
CONTINUOUS
10
3.20722
20
0.283993
11
3.20893
21
0.281438
0
LINE
8
BLACK
6
CONTINUOUS
10
3.20893
20
0.281438
11
3.20953
21
0.278425
0
LINE
8
BLACK
6
CONTINUOUS
10
3.20953
20
0.278425
11
3.20953
21
0.218425
0
LINE
8
BLACK
6
CONTINUOUS
10
3.20953
20
0.218425
11
3.20893
21
0.215412
0
LINE
8
BLACK
6
CONTINUOUS
10
3.20893
20
0.215412
11
3.20722
21
0.212857
0
LINE
8
BLACK
6
CONTINUOUS
10
3.20722
20
0.212857
11
3.20467
21
0.211151
0
LINE
8
BLACK
6
CONTINUOUS
10
3.20467
20
0.211151
11
3.20165
21
0.210551
0
LINE
8
BLACK
6
CONTINUOUS
10
3.20165
20
0.210551
11
3.14165
21
0.210551
0
LINE
8
BLACK
6
CONTINUOUS
10
3.14165
20
0.210551
11
3.13864
21
0.211151
0
LINE
8
BLACK
6
CONTINUOUS
10
3.13864
20
0.211151
11
3.13609
21
0.212857
0
LINE
8
BLACK
6
CONTINUOUS
10
3.13609
20
0.212857
11
3.13438
21
0.215412
0
LINE
8
BLACK
6
CONTINUOUS
10
3.13438
20
0.215412
11
3.13378
21
0.218425
0
LINE
8
BLACK
6
CONTINUOUS
10
3.13378
20
0.218425
11
3.13378
21
0.278425
0
LINE
8
BLACK
6
CONTINUOUS
10
3.13378
20
0.278425
11
3.13438
21
0.281438
0
LINE
8
BLACK
6
CONTINUOUS
10
3.13438
20
0.281438
11
3.13609
21
0.283993
0
LINE
8
BLACK
6
CONTINUOUS
10
3.13609
20
0.283993
11
3.13864
21
0.2857
0
LINE
8
BLACK
6
CONTINUOUS
10
3.13864
20
0.2857
11
3.14165
21
0.286299
0
LINE
8
BLACK
6
CONTINUOUS
10
3.14165
20
0.286299
11
3.20165
21
0.286299
0
LINE
8
BLACK
6
CONTINUOUS
10
3.20165
20
0.286299
11
3.20467
21
0.2857
0
LINE
8
BLACK
6
CONTINUOUS
10
0.217431
20
0.516259
11
0.219985
21
0.514552
0
LINE
8
BLACK
6
CONTINUOUS
10
0.219985
20
0.514552
11
0.221692
21
0.511998
0
LINE
8
BLACK
6
CONTINUOUS
10
0.221692
20
0.511998
11
0.222291
21
0.508984
0
LINE
8
BLACK
6
CONTINUOUS
10
0.222291
20
0.508984
11
0.222291
21
0.442984
0
LINE
8
BLACK
6
CONTINUOUS
10
0.222291
20
0.442984
11
0.221692
21
0.439971
0
LINE
8
BLACK
6
CONTINUOUS
10
0.221692
20
0.439971
11
0.219985
21
0.437416
0
LINE
8
BLACK
6
CONTINUOUS
10
0.219985
20
0.437416
11
0.217431
21
0.43571
0
LINE
8
BLACK
6
CONTINUOUS
10
0.217431
20
0.43571
11
0.214417
21
0.43511
0
LINE
8
BLACK
6
CONTINUOUS
10
0.214417
20
0.43511
11
0.148417
21
0.43511
0
LINE
8
BLACK
6
CONTINUOUS
10
0.148417
20
0.43511
11
0.145404
21
0.43571
0
LINE
8
BLACK
6
CONTINUOUS
10
0.145404
20
0.43571
11
0.14285
21
0.437416
0
LINE
8
BLACK
6
CONTINUOUS
10
0.14285
20
0.437416
11
0.141143
21
0.439971
0
LINE
8
BLACK
6
CONTINUOUS
10
0.141143
20
0.439971
11
0.140543
21
0.442984
0
LINE
8
BLACK
6
CONTINUOUS
10
0.140543
20
0.442984
11
0.140543
21
0.508984
0
LINE
8
BLACK
6
CONTINUOUS
10
0.140543
20
0.508984
11
0.141143
21
0.511998
0
LINE
8
BLACK
6
CONTINUOUS
10
0.141143
20
0.511998
11
0.14285
21
0.514552
0
LINE
8
BLACK
6
CONTINUOUS
10
0.14285
20
0.514552
11
0.145404
21
0.516259
0
LINE
8
BLACK
6
CONTINUOUS
10
0.145404
20
0.516259
11
0.148417
21
0.516858
0
LINE
8
BLACK
6
CONTINUOUS
10
0.148417
20
0.516858
11
0.214417
21
0.516858
0
LINE
8
BLACK
6
CONTINUOUS
10
0.214417
20
0.516858
11
0.217431
21
0.516259
0
LINE
8
BLACK
6
CONTINUOUS
10
0.394596
20
0.516259
11
0.39715
21
0.514552
0
LINE
8
BLACK
6
CONTINUOUS
10
0.39715
20
0.514552
11
0.398857
21
0.511998
0
LINE
8
BLACK
6
CONTINUOUS
10
0.398857
20
0.511998
11
0.399457
21
0.508984
0
LINE
8
BLACK
6
CONTINUOUS
10
0.399457
20
0.508984
11
0.399457
21
0.442984
0
LINE
8
BLACK
6
CONTINUOUS
10
0.399457
20
0.442984
11
0.398857
21
0.439971
0
LINE
8
BLACK
6
CONTINUOUS
10
0.398857
20
0.439971
11
0.39715
21
0.437416
0
LINE
8
BLACK
6
CONTINUOUS
10
0.39715
20
0.437416
11
0.394596
21
0.43571
0
LINE
8
BLACK
6
CONTINUOUS
10
0.394596
20
0.43571
11
0.391583
21
0.43511
0
LINE
8
BLACK
6
CONTINUOUS
10
0.391583
20
0.43511
11
0.325583
21
0.43511
0
LINE
8
BLACK
6
CONTINUOUS
10
0.325583
20
0.43511
11
0.322569
21
0.43571
0
LINE
8
BLACK
6
CONTINUOUS
10
0.322569
20
0.43571
11
0.320015
21
0.437416
0
LINE
8
BLACK
6
CONTINUOUS
10
0.320015
20
0.437416
11
0.318308
21
0.439971
0
LINE
8
BLACK
6
CONTINUOUS
10
0.318308
20
0.439971
11
0.317709
21
0.442984
0
LINE
8
BLACK
6
CONTINUOUS
10
0.317709
20
0.442984
11
0.317709
21
0.508984
0
LINE
8
BLACK
6
CONTINUOUS
10
0.317709
20
0.508984
11
0.318308
21
0.511998
0
LINE
8
BLACK
6
CONTINUOUS
10
0.318308
20
0.511998
11
0.320015
21
0.514552
0
LINE
8
BLACK
6
CONTINUOUS
10
0.320015
20
0.514552
11
0.322569
21
0.516259
0
LINE
8
BLACK
6
CONTINUOUS
10
0.322569
20
0.516259
11
0.325583
21
0.516858
0
LINE
8
BLACK
6
CONTINUOUS
10
0.325583
20
0.516858
11
0.391583
21
0.516858
0
LINE
8
BLACK
6
CONTINUOUS
10
0.391583
20
0.516858
11
0.394596
21
0.516259
0
LINE
8
BLACK
6
CONTINUOUS
10
0.778013
20
0.732275
11
0.780568
21
0.730568
0
LINE
8
BLACK
6
CONTINUOUS
10
0.780568
20
0.730568
11
0.782275
21
0.728013
0
LINE
8
BLACK
6
CONTINUOUS
10
0.782275
20
0.728013
11
0.782874
21
0.725
0
LINE
8
BLACK
6
CONTINUOUS
10
0.782874
20
0.725
11
0.782874
21
0.475
0
LINE
8
BLACK
6
CONTINUOUS
10
0.782874
20
0.475
11
0.782275
21
0.471987
0
LINE
8
BLACK
6
CONTINUOUS
10
0.782275
20
0.471987
11
0.780568
21
0.469432
0
LINE
8
BLACK
6
CONTINUOUS
10
0.780568
20
0.469432
11
0.778013
21
0.467725
0
LINE
8
BLACK
6
CONTINUOUS
10
0.778013
20
0.467725
11
0.775
21
0.467126
0
LINE
8
BLACK
6
CONTINUOUS
10
0.775
20
0.467126
11
0.525
21
0.467126
0
LINE
8
BLACK
6
CONTINUOUS
10
0.525
20
0.467126
11
0.521987
21
0.467725
0
LINE
8
BLACK
6
CONTINUOUS
10
0.521987
20
0.467725
11
0.519432
21
0.469432
0
LINE
8
BLACK
6
CONTINUOUS
10
0.519432
20
0.469432
11
0.517725
21
0.471987
0
LINE
8
BLACK
6
CONTINUOUS
10
0.517725
20
0.471987
11
0.517126
21
0.475
0
LINE
8
BLACK
6
CONTINUOUS
10
0.517126
20
0.475
11
0.517126
21
0.725
0
LINE
8
BLACK
6
CONTINUOUS
10
0.517126
20
0.725
11
0.517725
21
0.728013
0
LINE
8
BLACK
6
CONTINUOUS
10
0.517725
20
0.728013
11
0.519432
21
0.730568
0
LINE
8
BLACK
6
CONTINUOUS
10
0.519432
20
0.730568
11
0.521987
21
0.732275
0
LINE
8
BLACK
6
CONTINUOUS
10
0.521987
20
0.732275
11
0.525
21
0.732874
0
LINE
8
BLACK
6
CONTINUOUS
10
0.525
20
0.732874
11
0.775
21
0.732874
0
LINE
8
BLACK
6
CONTINUOUS
10
0.775
20
0.732874
11
0.778013
21
0.732275
0
LINE
8
BLACK
6
CONTINUOUS
10
3.92801
20
0.732275
11
3.93057
21
0.730568
0
LINE
8
BLACK
6
CONTINUOUS
10
3.93057
20
0.730568
11
3.93227
21
0.728013
0
LINE
8
BLACK
6
CONTINUOUS
10
3.93227
20
0.728013
11
3.93287
21
0.725
0
LINE
8
BLACK
6
CONTINUOUS
10
3.93287
20
0.725
11
3.93287
21
0.475
0
LINE
8
BLACK
6
CONTINUOUS
10
3.93287
20
0.475
11
3.93227
21
0.471987
0
LINE
8
BLACK
6
CONTINUOUS
10
3.93227
20
0.471987
11
3.93057
21
0.469432
0
LINE
8
BLACK
6
CONTINUOUS
10
3.93057
20
0.469432
11
3.92801
21
0.467725
0
LINE
8
BLACK
6
CONTINUOUS
10
3.92801
20
0.467725
11
3.925
21
0.467126
0
LINE
8
BLACK
6
CONTINUOUS
10
3.925
20
0.467126
11
3.675
21
0.467126
0
LINE
8
BLACK
6
CONTINUOUS
10
3.675
20
0.467126
11
3.67199
21
0.467725
0
LINE
8
BLACK
6
CONTINUOUS
10
3.67199
20
0.467725
11
3.66943
21
0.469432
0
LINE
8
BLACK
6
CONTINUOUS
10
3.66943
20
0.469432
11
3.66773
21
0.471987
0
LINE
8
BLACK
6
CONTINUOUS
10
3.66773
20
0.471987
11
3.66713
21
0.475
0
LINE
8
BLACK
6
CONTINUOUS
10
3.66713
20
0.475
11
3.66713
21
0.725
0
LINE
8
BLACK
6
CONTINUOUS
10
3.66713
20
0.725
11
3.66773
21
0.728013
0
LINE
8
BLACK
6
CONTINUOUS
10
3.66773
20
0.728013
11
3.66943
21
0.730568
0
LINE
8
BLACK
6
CONTINUOUS
10
3.66943
20
0.730568
11
3.67199
21
0.732275
0
LINE
8
BLACK
6
CONTINUOUS
10
3.67199
20
0.732275
11
3.675
21
0.732874
0
LINE
8
BLACK
6
CONTINUOUS
10
3.675
20
0.732874
11
3.925
21
0.732874
0
LINE
8
BLACK
6
CONTINUOUS
10
3.925
20
0.732874
11
3.92801
21
0.732275
0
LINE
8
BLACK
6
CONTINUOUS
10
0.217431
20
0.76429
11
0.219985
21
0.762584
0
LINE
8
BLACK
6
CONTINUOUS
10
0.219985
20
0.762584
11
0.221692
21
0.760029
0
LINE
8
BLACK
6
CONTINUOUS
10
0.221692
20
0.760029
11
0.222291
21
0.757016
0
LINE
8
BLACK
6
CONTINUOUS
10
0.222291
20
0.757016
11
0.222291
21
0.691016
0
LINE
8
BLACK
6
CONTINUOUS
10
0.222291
20
0.691016
11
0.221692
21
0.688002
0
LINE
8
BLACK
6
CONTINUOUS
10
0.221692
20
0.688002
11
0.219985
21
0.685448
0
LINE
8
BLACK
6
CONTINUOUS
10
0.219985
20
0.685448
11
0.217431
21
0.683741
0
LINE
8
BLACK
6
CONTINUOUS
10
0.217431
20
0.683741
11
0.214417
21
0.683142
0
LINE
8
BLACK
6
CONTINUOUS
10
0.214417
20
0.683142
11
0.148417
21
0.683142
0
LINE
8
BLACK
6
CONTINUOUS
10
0.148417
20
0.683142
11
0.145404
21
0.683741
0
LINE
8
BLACK
6
CONTINUOUS
10
0.145404
20
0.683741
11
0.14285
21
0.685448
0
LINE
8
BLACK
6
CONTINUOUS
10
0.14285
20
0.685448
11
0.141143
21
0.688002
0
LINE
8
BLACK
6
CONTINUOUS
10
0.141143
20
0.688002
11
0.140543
21
0.691016
0
LINE
8
BLACK
6
CONTINUOUS
10
0.140543
20
0.691016
11
0.140543
21
0.757016
0
LINE
8
BLACK
6
CONTINUOUS
10
0.140543
20
0.757016
11
0.141143
21
0.760029
0
LINE
8
BLACK
6
CONTINUOUS
10
0.141143
20
0.760029
11
0.14285
21
0.762584
0
LINE
8
BLACK
6
CONTINUOUS
10
0.14285
20
0.762584
11
0.145404
21
0.76429
0
LINE
8
BLACK
6
CONTINUOUS
10
0.145404
20
0.76429
11
0.148417
21
0.76489
0
LINE
8
BLACK
6
CONTINUOUS
10
0.148417
20
0.76489
11
0.214417
21
0.76489
0
LINE
8
BLACK
6
CONTINUOUS
10
0.214417
20
0.76489
11
0.217431
21
0.76429
0
LINE
8
BLACK
6
CONTINUOUS
10
0.394596
20
0.76429
11
0.39715
21
0.762584
0
LINE
8
BLACK
6
CONTINUOUS
10
0.39715
20
0.762584
11
0.398857
21
0.760029
0
LINE
8
BLACK
6
CONTINUOUS
10
0.398857
20
0.760029
11
0.399457
21
0.757016
0
LINE
8
BLACK
6
CONTINUOUS
10
0.399457
20
0.757016
11
0.399457
21
0.691016
0
LINE
8
BLACK
6
CONTINUOUS
10
0.399457
20
0.691016
11
0.398857
21
0.688002
0
LINE
8
BLACK
6
CONTINUOUS
10
0.398857
20
0.688002
11
0.39715
21
0.685448
0
LINE
8
BLACK
6
CONTINUOUS
10
0.39715
20
0.685448
11
0.394596
21
0.683741
0
LINE
8
BLACK
6
CONTINUOUS
10
0.394596
20
0.683741
11
0.391583
21
0.683142
0
LINE
8
BLACK
6
CONTINUOUS
10
0.391583
20
0.683142
11
0.325583
21
0.683142
0
LINE
8
BLACK
6
CONTINUOUS
10
0.325583
20
0.683142
11
0.322569
21
0.683741
0
LINE
8
BLACK
6
CONTINUOUS
10
0.322569
20
0.683741
11
0.320015
21
0.685448
0
LINE
8
BLACK
6
CONTINUOUS
10
0.320015
20
0.685448
11
0.318308
21
0.688002
0
LINE
8
BLACK
6
CONTINUOUS
10
0.318308
20
0.688002
11
0.317709
21
0.691016
0
LINE
8
BLACK
6
CONTINUOUS
10
0.317709
20
0.691016
11
0.317709
21
0.757016
0
LINE
8
BLACK
6
CONTINUOUS
10
0.317709
20
0.757016
11
0.318308
21
0.760029
0
LINE
8
BLACK
6
CONTINUOUS
10
0.318308
20
0.760029
11
0.320015
21
0.762584
0
LINE
8
BLACK
6
CONTINUOUS
10
0.320015
20
0.762584
11
0.322569
21
0.76429
0
LINE
8
BLACK
6
CONTINUOUS
10
0.322569
20
0.76429
11
0.325583
21
0.76489
0
LINE
8
BLACK
6
CONTINUOUS
10
0.325583
20
0.76489
11
0.391583
21
0.76489
0
LINE
8
BLACK
6
CONTINUOUS
10
0.391583
20
0.76489
11
0.394596
21
0.76429
0
LINE
8
BLACK
6
CONTINUOUS
10
1.02108
20
0.766063
11
1.02703
21
0.76294
0
LINE
8
BLACK
6
CONTINUOUS
10
1.02703
20
0.76294
11
1.03206
21
0.758484
0
LINE
8
BLACK
6
CONTINUOUS
10
1.03206
20
0.758484
11
1.03588
21
0.752954
0
LINE
8
BLACK
6
CONTINUOUS
10
1.03588
20
0.752954
11
1.03826
21
0.746671
0
LINE
8
BLACK
6
CONTINUOUS
10
1.03826
20
0.746671
11
1.03907
21
0.74
0
LINE
8
BLACK
6
CONTINUOUS
10
1.03907
20
0.74
11
1.03826
21
0.733329
0
LINE
8
BLACK
6
CONTINUOUS
10
1.03826
20
0.733329
11
1.03588
21
0.727046
0
LINE
8
BLACK
6
CONTINUOUS
10
1.03588
20
0.727046
11
1.03206
21
0.721516
0
LINE
8
BLACK
6
CONTINUOUS
10
1.03206
20
0.721516
11
1.02703
21
0.71706
0
LINE
8
BLACK
6
CONTINUOUS
10
1.02703
20
0.71706
11
1.02108
21
0.713937
0
LINE
8
BLACK
6
CONTINUOUS
10
1.02108
20
0.713937
11
1.01456
21
0.712329
0
LINE
8
BLACK
6
CONTINUOUS
10
1.01456
20
0.712329
11
1.00784
21
0.712329
0
LINE
8
BLACK
6
CONTINUOUS
10
1.00784
20
0.712329
11
1.00132
21
0.713937
0
LINE
8
BLACK
6
CONTINUOUS
10
1.00132
20
0.713937
11
0.995366
21
0.71706
0
LINE
8
BLACK
6
CONTINUOUS
10
0.995366
20
0.71706
11
0.990336
21
0.721516
0
LINE
8
BLACK
6
CONTINUOUS
10
0.990336
20
0.721516
11
0.986519
21
0.727046
0
LINE
8
BLACK
6
CONTINUOUS
10
0.986519
20
0.727046
11
0.984136
21
0.733329
0
LINE
8
BLACK
6
CONTINUOUS
10
0.984136
20
0.733329
11
0.983326
21
0.74
0
LINE
8
BLACK
6
CONTINUOUS
10
0.983326
20
0.74
11
0.984136
21
0.746671
0
LINE
8
BLACK
6
CONTINUOUS
10
0.984136
20
0.746671
11
0.986519
21
0.752954
0
LINE
8
BLACK
6
CONTINUOUS
10
0.986519
20
0.752954
11
0.990336
21
0.758484
0
LINE
8
BLACK
6
CONTINUOUS
10
0.990336
20
0.758484
11
0.995366
21
0.76294
0
LINE
8
BLACK
6
CONTINUOUS
10
0.995366
20
0.76294
11
1.00132
21
0.766063
0
LINE
8
BLACK
6
CONTINUOUS
10
1.00132
20
0.766063
11
1.00784
21
0.767671
0
LINE
8
BLACK
6
CONTINUOUS
10
1.00784
20
0.767671
11
1.01456
21
0.767671
0
LINE
8
BLACK
6
CONTINUOUS
10
1.01456
20
0.767671
11
1.02108
21
0.766063
0
LINE
8
BLACK
6
CONTINUOUS
10
1.74868
20
0.766063
11
1.75463
21
0.76294
0
LINE
8
BLACK
6
CONTINUOUS
10
1.75463
20
0.76294
11
1.75966
21
0.758484
0
LINE
8
BLACK
6
CONTINUOUS
10
1.75966
20
0.758484
11
1.76348
21
0.752954
0
LINE
8
BLACK
6
CONTINUOUS
10
1.76348
20
0.752954
11
1.76586
21
0.746671
0
LINE
8
BLACK
6
CONTINUOUS
10
1.76586
20
0.746671
11
1.76667
21
0.74
0
LINE
8
BLACK
6
CONTINUOUS
10
1.76667
20
0.74
11
1.76586
21
0.733329
0
LINE
8
BLACK
6
CONTINUOUS
10
1.76586
20
0.733329
11
1.76348
21
0.727046
0
LINE
8
BLACK
6
CONTINUOUS
10
1.76348
20
0.727046
11
1.75966
21
0.721516
0
LINE
8
BLACK
6
CONTINUOUS
10
1.75966
20
0.721516
11
1.75463
21
0.71706
0
LINE
8
BLACK
6
CONTINUOUS
10
1.75463
20
0.71706
11
1.74868
21
0.713937
0
LINE
8
BLACK
6
CONTINUOUS
10
1.74868
20
0.713937
11
1.74216
21
0.712329
0
LINE
8
BLACK
6
CONTINUOUS
10
1.74216
20
0.712329
11
1.73544
21
0.712329
0
LINE
8
BLACK
6
CONTINUOUS
10
1.73544
20
0.712329
11
1.72892
21
0.713937
0
LINE
8
BLACK
6
CONTINUOUS
10
1.72892
20
0.713937
11
1.72297
21
0.71706
0
LINE
8
BLACK
6
CONTINUOUS
10
1.72297
20
0.71706
11
1.71794
21
0.721516
0
LINE
8
BLACK
6
CONTINUOUS
10
1.71794
20
0.721516
11
1.71412
21
0.727046
0
LINE
8
BLACK
6
CONTINUOUS
10
1.71412
20
0.727046
11
1.71174
21
0.733329
0
LINE
8
BLACK
6
CONTINUOUS
10
1.71174
20
0.733329
11
1.71093
21
0.74
0
LINE
8
BLACK
6
CONTINUOUS
10
1.71093
20
0.74
11
1.71174
21
0.746671
0
LINE
8
BLACK
6
CONTINUOUS
10
1.71174
20
0.746671
11
1.71412
21
0.752954
0
LINE
8
BLACK
6
CONTINUOUS
10
1.71412
20
0.752954
11
1.71794
21
0.758484
0
LINE
8
BLACK
6
CONTINUOUS
10
1.71794
20
0.758484
11
1.72297
21
0.76294
0
LINE
8
BLACK
6
CONTINUOUS
10
1.72297
20
0.76294
11
1.72892
21
0.766063
0
LINE
8
BLACK
6
CONTINUOUS
10
1.72892
20
0.766063
11
1.73544
21
0.767671
0
LINE
8
BLACK
6
CONTINUOUS
10
1.73544
20
0.767671
11
1.74216
21
0.767671
0
LINE
8
BLACK
6
CONTINUOUS
10
1.74216
20
0.767671
11
1.74868
21
0.766063
0
LINE
8
BLACK
6
CONTINUOUS
10
2.72108
20
0.766063
11
2.72703
21
0.76294
0
LINE
8
BLACK
6
CONTINUOUS
10
2.72703
20
0.76294
11
2.73206
21
0.758484
0
LINE
8
BLACK
6
CONTINUOUS
10
2.73206
20
0.758484
11
2.73588
21
0.752954
0
LINE
8
BLACK
6
CONTINUOUS
10
2.73588
20
0.752954
11
2.73826
21
0.746671
0
LINE
8
BLACK
6
CONTINUOUS
10
2.73826
20
0.746671
11
2.73907
21
0.74
0
LINE
8
BLACK
6
CONTINUOUS
10
2.73907
20
0.74
11
2.73826
21
0.733329
0
LINE
8
BLACK
6
CONTINUOUS
10
2.73826
20
0.733329
11
2.73588
21
0.727046
0
LINE
8
BLACK
6
CONTINUOUS
10
2.73588
20
0.727046
11
2.73206
21
0.721516
0
LINE
8
BLACK
6
CONTINUOUS
10
2.73206
20
0.721516
11
2.72703
21
0.71706
0
LINE
8
BLACK
6
CONTINUOUS
10
2.72703
20
0.71706
11
2.72108
21
0.713937
0
LINE
8
BLACK
6
CONTINUOUS
10
2.72108
20
0.713937
11
2.71456
21
0.712329
0
LINE
8
BLACK
6
CONTINUOUS
10
2.71456
20
0.712329
11
2.70784
21
0.712329
0
LINE
8
BLACK
6
CONTINUOUS
10
2.70784
20
0.712329
11
2.70132
21
0.713937
0
LINE
8
BLACK
6
CONTINUOUS
10
2.70132
20
0.713937
11
2.69537
21
0.71706
0
LINE
8
BLACK
6
CONTINUOUS
10
2.69537
20
0.71706
11
2.69034
21
0.721516
0
LINE
8
BLACK
6
CONTINUOUS
10
2.69034
20
0.721516
11
2.68652
21
0.727046
0
LINE
8
BLACK
6
CONTINUOUS
10
2.68652
20
0.727046
11
2.68414
21
0.733329
0
LINE
8
BLACK
6
CONTINUOUS
10
2.68414
20
0.733329
11
2.68333
21
0.74
0
LINE
8
BLACK
6
CONTINUOUS
10
2.68333
20
0.74
11
2.68414
21
0.746671
0
LINE
8
BLACK
6
CONTINUOUS
10
2.68414
20
0.746671
11
2.68652
21
0.752954
0
LINE
8
BLACK
6
CONTINUOUS
10
2.68652
20
0.752954
11
2.69034
21
0.758484
0
LINE
8
BLACK
6
CONTINUOUS
10
2.69034
20
0.758484
11
2.69537
21
0.76294
0
LINE
8
BLACK
6
CONTINUOUS
10
2.69537
20
0.76294
11
2.70132
21
0.766063
0
LINE
8
BLACK
6
CONTINUOUS
10
2.70132
20
0.766063
11
2.70784
21
0.767671
0
LINE
8
BLACK
6
CONTINUOUS
10
2.70784
20
0.767671
11
2.71456
21
0.767671
0
LINE
8
BLACK
6
CONTINUOUS
10
2.71456
20
0.767671
11
2.72108
21
0.766063
0
LINE
8
BLACK
6
CONTINUOUS
10
3.44868
20
0.766063
11
3.45463
21
0.76294
0
LINE
8
BLACK
6
CONTINUOUS
10
3.45463
20
0.76294
11
3.45966
21
0.758484
0
LINE
8
BLACK
6
CONTINUOUS
10
3.45966
20
0.758484
11
3.46348
21
0.752954
0
LINE
8
BLACK
6
CONTINUOUS
10
3.46348
20
0.752954
11
3.46586
21
0.746671
0
LINE
8
BLACK
6
CONTINUOUS
10
3.46586
20
0.746671
11
3.46667
21
0.74
0
LINE
8
BLACK
6
CONTINUOUS
10
3.46667
20
0.74
11
3.46586
21
0.733329
0
LINE
8
BLACK
6
CONTINUOUS
10
3.46586
20
0.733329
11
3.46348
21
0.727046
0
LINE
8
BLACK
6
CONTINUOUS
10
3.46348
20
0.727046
11
3.45966
21
0.721516
0
LINE
8
BLACK
6
CONTINUOUS
10
3.45966
20
0.721516
11
3.45463
21
0.71706
0
LINE
8
BLACK
6
CONTINUOUS
10
3.45463
20
0.71706
11
3.44868
21
0.713937
0
LINE
8
BLACK
6
CONTINUOUS
10
3.44868
20
0.713937
11
3.44216
21
0.712329
0
LINE
8
BLACK
6
CONTINUOUS
10
3.44216
20
0.712329
11
3.43544
21
0.712329
0
LINE
8
BLACK
6
CONTINUOUS
10
3.43544
20
0.712329
11
3.42892
21
0.713937
0
LINE
8
BLACK
6
CONTINUOUS
10
3.42892
20
0.713937
11
3.42297
21
0.71706
0
LINE
8
BLACK
6
CONTINUOUS
10
3.42297
20
0.71706
11
3.41794
21
0.721516
0
LINE
8
BLACK
6
CONTINUOUS
10
3.41794
20
0.721516
11
3.41412
21
0.727046
0
LINE
8
BLACK
6
CONTINUOUS
10
3.41412
20
0.727046
11
3.41174
21
0.733329
0
LINE
8
BLACK
6
CONTINUOUS
10
3.41174
20
0.733329
11
3.41093
21
0.74
0
LINE
8
BLACK
6
CONTINUOUS
10
3.41093
20
0.74
11
3.41174
21
0.746671
0
LINE
8
BLACK
6
CONTINUOUS
10
3.41174
20
0.746671
11
3.41412
21
0.752954
0
LINE
8
BLACK
6
CONTINUOUS
10
3.41412
20
0.752954
11
3.41794
21
0.758484
0
LINE
8
BLACK
6
CONTINUOUS
10
3.41794
20
0.758484
11
3.42297
21
0.76294
0
LINE
8
BLACK
6
CONTINUOUS
10
3.42297
20
0.76294
11
3.42892
21
0.766063
0
LINE
8
BLACK
6
CONTINUOUS
10
3.42892
20
0.766063
11
3.43544
21
0.767671
0
LINE
8
BLACK
6
CONTINUOUS
10
3.43544
20
0.767671
11
3.44216
21
0.767671
0
LINE
8
BLACK
6
CONTINUOUS
10
3.44216
20
0.767671
11
3.44868
21
0.766063
0
LINE
8
BLACK
6
CONTINUOUS
10
0.778013
20
2.63227
11
0.780568
21
2.63057
0
LINE
8
BLACK
6
CONTINUOUS
10
0.780568
20
2.63057
11
0.782275
21
2.62801
0
LINE
8
BLACK
6
CONTINUOUS
10
0.782275
20
2.62801
11
0.782874
21
2.625
0
LINE
8
BLACK
6
CONTINUOUS
10
0.782874
20
2.625
11
0.782874
21
2.375
0
LINE
8
BLACK
6
CONTINUOUS
10
0.782874
20
2.375
11
0.782275
21
2.37199
0
LINE
8
BLACK
6
CONTINUOUS
10
0.782275
20
2.37199
11
0.780568
21
2.36943
0
LINE
8
BLACK
6
CONTINUOUS
10
0.780568
20
2.36943
11
0.778013
21
2.36773
0
LINE
8
BLACK
6
CONTINUOUS
10
0.778013
20
2.36773
11
0.775
21
2.36713
0
LINE
8
BLACK
6
CONTINUOUS
10
0.775
20
2.36713
11
0.525
21
2.36713
0
LINE
8
BLACK
6
CONTINUOUS
10
0.525
20
2.36713
11
0.521987
21
2.36773
0
LINE
8
BLACK
6
CONTINUOUS
10
0.521987
20
2.36773
11
0.519432
21
2.36943
0
LINE
8
BLACK
6
CONTINUOUS
10
0.519432
20
2.36943
11
0.517725
21
2.37199
0
LINE
8
BLACK
6
CONTINUOUS
10
0.517725
20
2.37199
11
0.517126
21
2.375
0
LINE
8
BLACK
6
CONTINUOUS
10
0.517126
20
2.375
11
0.517126
21
2.625
0
LINE
8
BLACK
6
CONTINUOUS
10
0.517126
20
2.625
11
0.517725
21
2.62801
0
LINE
8
BLACK
6
CONTINUOUS
10
0.517725
20
2.62801
11
0.519432
21
2.63057
0
LINE
8
BLACK
6
CONTINUOUS
10
0.519432
20
2.63057
11
0.521987
21
2.63227
0
LINE
8
BLACK
6
CONTINUOUS
10
0.521987
20
2.63227
11
0.525
21
2.63287
0
LINE
8
BLACK
6
CONTINUOUS
10
0.525
20
2.63287
11
0.775
21
2.63287
0
LINE
8
BLACK
6
CONTINUOUS
10
0.775
20
2.63287
11
0.778013
21
2.63227
0
LINE
8
BLACK
6
CONTINUOUS
10
3.92801
20
2.63227
11
3.93057
21
2.63057
0
LINE
8
BLACK
6
CONTINUOUS
10
3.93057
20
2.63057
11
3.93227
21
2.62801
0
LINE
8
BLACK
6
CONTINUOUS
10
3.93227
20
2.62801
11
3.93287
21
2.625
0
LINE
8
BLACK
6
CONTINUOUS
10
3.93287
20
2.625
11
3.93287
21
2.375
0
LINE
8
BLACK
6
CONTINUOUS
10
3.93287
20
2.375
11
3.93227
21
2.37199
0
LINE
8
BLACK
6
CONTINUOUS
10
3.93227
20
2.37199
11
3.93057
21
2.36943
0
LINE
8
BLACK
6
CONTINUOUS
10
3.93057
20
2.36943
11
3.92801
21
2.36773
0
LINE
8
BLACK
6
CONTINUOUS
10
3.92801
20
2.36773
11
3.925
21
2.36713
0
LINE
8
BLACK
6
CONTINUOUS
10
3.925
20
2.36713
11
3.675
21
2.36713
0
LINE
8
BLACK
6
CONTINUOUS
10
3.675
20
2.36713
11
3.67199
21
2.36773
0
LINE
8
BLACK
6
CONTINUOUS
10
3.67199
20
2.36773
11
3.66943
21
2.36943
0
LINE
8
BLACK
6
CONTINUOUS
10
3.66943
20
2.36943
11
3.66773
21
2.37199
0
LINE
8
BLACK
6
CONTINUOUS
10
3.66773
20
2.37199
11
3.66713
21
2.375
0
LINE
8
BLACK
6
CONTINUOUS
10
3.66713
20
2.375
11
3.66713
21
2.625
0
LINE
8
BLACK
6
CONTINUOUS
10
3.66713
20
2.625
11
3.66773
21
2.62801
0
LINE
8
BLACK
6
CONTINUOUS
10
3.66773
20
2.62801
11
3.66943
21
2.63057
0
LINE
8
BLACK
6
CONTINUOUS
10
3.66943
20
2.63057
11
3.67199
21
2.63227
0
LINE
8
BLACK
6
CONTINUOUS
10
3.67199
20
2.63227
11
3.675
21
2.63287
0
LINE
8
BLACK
6
CONTINUOUS
10
3.675
20
2.63287
11
3.925
21
2.63287
0
LINE
8
BLACK
6
CONTINUOUS
10
3.925
20
2.63287
11
3.92801
21
2.63227
0
LINE
8
BLACK
6
CONTINUOUS
10
1.02108
20
2.54606
11
1.02703
21
2.54294
0
LINE
8
BLACK
6
CONTINUOUS
10
1.02703
20
2.54294
11
1.03206
21
2.53848
0
LINE
8
BLACK
6
CONTINUOUS
10
1.03206
20
2.53848
11
1.03588
21
2.53295
0
LINE
8
BLACK
6
CONTINUOUS
10
1.03588
20
2.53295
11
1.03826
21
2.52667
0
LINE
8
BLACK
6
CONTINUOUS
10
1.03826
20
2.52667
11
1.03907
21
2.52
0
LINE
8
BLACK
6
CONTINUOUS
10
1.03907
20
2.52
11
1.03826
21
2.51333
0
LINE
8
BLACK
6
CONTINUOUS
10
1.03826
20
2.51333
11
1.03588
21
2.50705
0
LINE
8
BLACK
6
CONTINUOUS
10
1.03588
20
2.50705
11
1.03206
21
2.50152
0
LINE
8
BLACK
6
CONTINUOUS
10
1.03206
20
2.50152
11
1.02703
21
2.49706
0
LINE
8
BLACK
6
CONTINUOUS
10
1.02703
20
2.49706
11
1.02108
21
2.49394
0
LINE
8
BLACK
6
CONTINUOUS
10
1.02108
20
2.49394
11
1.01456
21
2.49233
0
LINE
8
BLACK
6
CONTINUOUS
10
1.01456
20
2.49233
11
1.00784
21
2.49233
0
LINE
8
BLACK
6
CONTINUOUS
10
1.00784
20
2.49233
11
1.00132
21
2.49394
0
LINE
8
BLACK
6
CONTINUOUS
10
1.00132
20
2.49394
11
0.995366
21
2.49706
0
LINE
8
BLACK
6
CONTINUOUS
10
0.995366
20
2.49706
11
0.990336
21
2.50152
0
LINE
8
BLACK
6
CONTINUOUS
10
0.990336
20
2.50152
11
0.986519
21
2.50705
0
LINE
8
BLACK
6
CONTINUOUS
10
0.986519
20
2.50705
11
0.984136
21
2.51333
0
LINE
8
BLACK
6
CONTINUOUS
10
0.984136
20
2.51333
11
0.983326
21
2.52
0
LINE
8
BLACK
6
CONTINUOUS
10
0.983326
20
2.52
11
0.984136
21
2.52667
0
LINE
8
BLACK
6
CONTINUOUS
10
0.984136
20
2.52667
11
0.986519
21
2.53295
0
LINE
8
BLACK
6
CONTINUOUS
10
0.986519
20
2.53295
11
0.990336
21
2.53848
0
LINE
8
BLACK
6
CONTINUOUS
10
0.990336
20
2.53848
11
0.995366
21
2.54294
0
LINE
8
BLACK
6
CONTINUOUS
10
0.995366
20
2.54294
11
1.00132
21
2.54606
0
LINE
8
BLACK
6
CONTINUOUS
10
1.00132
20
2.54606
11
1.00784
21
2.54767
0
LINE
8
BLACK
6
CONTINUOUS
10
1.00784
20
2.54767
11
1.01456
21
2.54767
0
LINE
8
BLACK
6
CONTINUOUS
10
1.01456
20
2.54767
11
1.02108
21
2.54606
0
LINE
8
BLACK
6
CONTINUOUS
10
1.74868
20
2.54606
11
1.75463
21
2.54294
0
LINE
8
BLACK
6
CONTINUOUS
10
1.75463
20
2.54294
11
1.75966
21
2.53848
0
LINE
8
BLACK
6
CONTINUOUS
10
1.75966
20
2.53848
11
1.76348
21
2.53295
0
LINE
8
BLACK
6
CONTINUOUS
10
1.76348
20
2.53295
11
1.76586
21
2.52667
0
LINE
8
BLACK
6
CONTINUOUS
10
1.76586
20
2.52667
11
1.76667
21
2.52
0
LINE
8
BLACK
6
CONTINUOUS
10
1.76667
20
2.52
11
1.76586
21
2.51333
0
LINE
8
BLACK
6
CONTINUOUS
10
1.76586
20
2.51333
11
1.76348
21
2.50705
0
LINE
8
BLACK
6
CONTINUOUS
10
1.76348
20
2.50705
11
1.75966
21
2.50152
0
LINE
8
BLACK
6
CONTINUOUS
10
1.75966
20
2.50152
11
1.75463
21
2.49706
0
LINE
8
BLACK
6
CONTINUOUS
10
1.75463
20
2.49706
11
1.74868
21
2.49394
0
LINE
8
BLACK
6
CONTINUOUS
10
1.74868
20
2.49394
11
1.74216
21
2.49233
0
LINE
8
BLACK
6
CONTINUOUS
10
1.74216
20
2.49233
11
1.73544
21
2.49233
0
LINE
8
BLACK
6
CONTINUOUS
10
1.73544
20
2.49233
11
1.72892
21
2.49394
0
LINE
8
BLACK
6
CONTINUOUS
10
1.72892
20
2.49394
11
1.72297
21
2.49706
0
LINE
8
BLACK
6
CONTINUOUS
10
1.72297
20
2.49706
11
1.71794
21
2.50152
0
LINE
8
BLACK
6
CONTINUOUS
10
1.71794
20
2.50152
11
1.71412
21
2.50705
0
LINE
8
BLACK
6
CONTINUOUS
10
1.71412
20
2.50705
11
1.71174
21
2.51333
0
LINE
8
BLACK
6
CONTINUOUS
10
1.71174
20
2.51333
11
1.71093
21
2.52
0
LINE
8
BLACK
6
CONTINUOUS
10
1.71093
20
2.52
11
1.71174
21
2.52667
0
LINE
8
BLACK
6
CONTINUOUS
10
1.71174
20
2.52667
11
1.71412
21
2.53295
0
LINE
8
BLACK
6
CONTINUOUS
10
1.71412
20
2.53295
11
1.71794
21
2.53848
0
LINE
8
BLACK
6
CONTINUOUS
10
1.71794
20
2.53848
11
1.72297
21
2.54294
0
LINE
8
BLACK
6
CONTINUOUS
10
1.72297
20
2.54294
11
1.72892
21
2.54606
0
LINE
8
BLACK
6
CONTINUOUS
10
1.72892
20
2.54606
11
1.73544
21
2.54767
0
LINE
8
BLACK
6
CONTINUOUS
10
1.73544
20
2.54767
11
1.74216
21
2.54767
0
LINE
8
BLACK
6
CONTINUOUS
10
1.74216
20
2.54767
11
1.74868
21
2.54606
0
LINE
8
BLACK
6
CONTINUOUS
10
2.72108
20
2.54606
11
2.72703
21
2.54294
0
LINE
8
BLACK
6
CONTINUOUS
10
2.72703
20
2.54294
11
2.73206
21
2.53848
0
LINE
8
BLACK
6
CONTINUOUS
10
2.73206
20
2.53848
11
2.73588
21
2.53295
0
LINE
8
BLACK
6
CONTINUOUS
10
2.73588
20
2.53295
11
2.73826
21
2.52667
0
LINE
8
BLACK
6
CONTINUOUS
10
2.73826
20
2.52667
11
2.73907
21
2.52
0
LINE
8
BLACK
6
CONTINUOUS
10
2.73907
20
2.52
11
2.73826
21
2.51333
0
LINE
8
BLACK
6
CONTINUOUS
10
2.73826
20
2.51333
11
2.73588
21
2.50705
0
LINE
8
BLACK
6
CONTINUOUS
10
2.73588
20
2.50705
11
2.73206
21
2.50152
0
LINE
8
BLACK
6
CONTINUOUS
10
2.73206
20
2.50152
11
2.72703
21
2.49706
0
LINE
8
BLACK
6
CONTINUOUS
10
2.72703
20
2.49706
11
2.72108
21
2.49394
0
LINE
8
BLACK
6
CONTINUOUS
10
2.72108
20
2.49394
11
2.71456
21
2.49233
0
LINE
8
BLACK
6
CONTINUOUS
10
2.71456
20
2.49233
11
2.70784
21
2.49233
0
LINE
8
BLACK
6
CONTINUOUS
10
2.70784
20
2.49233
11
2.70132
21
2.49394
0
LINE
8
BLACK
6
CONTINUOUS
10
2.70132
20
2.49394
11
2.69537
21
2.49706
0
LINE
8
BLACK
6
CONTINUOUS
10
2.69537
20
2.49706
11
2.69034
21
2.50152
0
LINE
8
BLACK
6
CONTINUOUS
10
2.69034
20
2.50152
11
2.68652
21
2.50705
0
LINE
8
BLACK
6
CONTINUOUS
10
2.68652
20
2.50705
11
2.68414
21
2.51333
0
LINE
8
BLACK
6
CONTINUOUS
10
2.68414
20
2.51333
11
2.68333
21
2.52
0
LINE
8
BLACK
6
CONTINUOUS
10
2.68333
20
2.52
11
2.68414
21
2.52667
0
LINE
8
BLACK
6
CONTINUOUS
10
2.68414
20
2.52667
11
2.68652
21
2.53295
0
LINE
8
BLACK
6
CONTINUOUS
10
2.68652
20
2.53295
11
2.69034
21
2.53848
0
LINE
8
BLACK
6
CONTINUOUS
10
2.69034
20
2.53848
11
2.69537
21
2.54294
0
LINE
8
BLACK
6
CONTINUOUS
10
2.69537
20
2.54294
11
2.70132
21
2.54606
0
LINE
8
BLACK
6
CONTINUOUS
10
2.70132
20
2.54606
11
2.70784
21
2.54767
0
LINE
8
BLACK
6
CONTINUOUS
10
2.70784
20
2.54767
11
2.71456
21
2.54767
0
LINE
8
BLACK
6
CONTINUOUS
10
2.71456
20
2.54767
11
2.72108
21
2.54606
0
LINE
8
BLACK
6
CONTINUOUS
10
3.44868
20
2.54606
11
3.45463
21
2.54294
0
LINE
8
BLACK
6
CONTINUOUS
10
3.45463
20
2.54294
11
3.45966
21
2.53848
0
LINE
8
BLACK
6
CONTINUOUS
10
3.45966
20
2.53848
11
3.46348
21
2.53295
0
LINE
8
BLACK
6
CONTINUOUS
10
3.46348
20
2.53295
11
3.46586
21
2.52667
0
LINE
8
BLACK
6
CONTINUOUS
10
3.46586
20
2.52667
11
3.46667
21
2.52
0
LINE
8
BLACK
6
CONTINUOUS
10
3.46667
20
2.52
11
3.46586
21
2.51333
0
LINE
8
BLACK
6
CONTINUOUS
10
3.46586
20
2.51333
11
3.46348
21
2.50705
0
LINE
8
BLACK
6
CONTINUOUS
10
3.46348
20
2.50705
11
3.45966
21
2.50152
0
LINE
8
BLACK
6
CONTINUOUS
10
3.45966
20
2.50152
11
3.45463
21
2.49706
0
LINE
8
BLACK
6
CONTINUOUS
10
3.45463
20
2.49706
11
3.44868
21
2.49394
0
LINE
8
BLACK
6
CONTINUOUS
10
3.44868
20
2.49394
11
3.44216
21
2.49233
0
LINE
8
BLACK
6
CONTINUOUS
10
3.44216
20
2.49233
11
3.43544
21
2.49233
0
LINE
8
BLACK
6
CONTINUOUS
10
3.43544
20
2.49233
11
3.42892
21
2.49394
0
LINE
8
BLACK
6
CONTINUOUS
10
3.42892
20
2.49394
11
3.42297
21
2.49706
0
LINE
8
BLACK
6
CONTINUOUS
10
3.42297
20
2.49706
11
3.41794
21
2.50152
0
LINE
8
BLACK
6
CONTINUOUS
10
3.41794
20
2.50152
11
3.41412
21
2.50705
0
LINE
8
BLACK
6
CONTINUOUS
10
3.41412
20
2.50705
11
3.41174
21
2.51333
0
LINE
8
BLACK
6
CONTINUOUS
10
3.41174
20
2.51333
11
3.41093
21
2.52
0
LINE
8
BLACK
6
CONTINUOUS
10
3.41093
20
2.52
11
3.41174
21
2.52667
0
LINE
8
BLACK
6
CONTINUOUS
10
3.41174
20
2.52667
11
3.41412
21
2.53295
0
LINE
8
BLACK
6
CONTINUOUS
10
3.41412
20
2.53295
11
3.41794
21
2.53848
0
LINE
8
BLACK
6
CONTINUOUS
10
3.41794
20
2.53848
11
3.42297
21
2.54294
0
LINE
8
BLACK
6
CONTINUOUS
10
3.42297
20
2.54294
11
3.42892
21
2.54606
0
LINE
8
BLACK
6
CONTINUOUS
10
3.42892
20
2.54606
11
3.43544
21
2.54767
0
LINE
8
BLACK
6
CONTINUOUS
10
3.43544
20
2.54767
11
3.44216
21
2.54767
0
LINE
8
BLACK
6
CONTINUOUS
10
3.44216
20
2.54767
11
3.44868
21
2.54606
0
LINE
8
BLACK
6
CONTINUOUS
10
0.832882
20
2.84198
11
0.840083
21
2.83979
0
LINE
8
BLACK
6
CONTINUOUS
10
0.840083
20
2.83979
11
0.84672
21
2.83625
0
LINE
8
BLACK
6
CONTINUOUS
10
0.84672
20
2.83625
11
0.852537
21
2.83147
0
LINE
8
BLACK
6
CONTINUOUS
10
0.852537
20
2.83147
11
0.85731
21
2.82566
0
LINE
8
BLACK
6
CONTINUOUS
10
0.85731
20
2.82566
11
0.860858
21
2.81902
0
LINE
8
BLACK
6
CONTINUOUS
10
0.860858
20
2.81902
11
0.863042
21
2.81182
0
LINE
8
BLACK
6
CONTINUOUS
10
0.863042
20
2.81182
11
0.86378
21
2.80433
0
LINE
8
BLACK
6
CONTINUOUS
10
0.86378
20
2.80433
11
0.863042
21
2.79684
0
LINE
8
BLACK
6
CONTINUOUS
10
0.863042
20
2.79684
11
0.860858
21
2.78964
0
LINE
8
BLACK
6
CONTINUOUS
10
0.860858
20
2.78964
11
0.85731
21
2.783
0
LINE
8
BLACK
6
CONTINUOUS
10
0.85731
20
2.783
11
0.852537
21
2.77719
0
LINE
8
BLACK
6
CONTINUOUS
10
0.852537
20
2.77719
11
0.84672
21
2.77241
0
LINE
8
BLACK
6
CONTINUOUS
10
0.84672
20
2.77241
11
0.840083
21
2.76887
0
LINE
8
BLACK
6
CONTINUOUS
10
0.840083
20
2.76887
11
0.832882
21
2.76668
0
LINE
8
BLACK
6
CONTINUOUS
10
0.832882
20
2.76668
11
0.825394
21
2.76594
0
LINE
8
BLACK
6
CONTINUOUS
10
0.825394
20
2.76594
11
0.817905
21
2.76668
0
LINE
8
BLACK
6
CONTINUOUS
10
0.817905
20
2.76668
11
0.810704
21
2.76887
0
LINE
8
BLACK
6
CONTINUOUS
10
0.810704
20
2.76887
11
0.804068
21
2.77241
0
LINE
8
BLACK
6
CONTINUOUS
10
0.804068
20
2.77241
11
0.798251
21
2.77719
0
LINE
8
BLACK
6
CONTINUOUS
10
0.798251
20
2.77719
11
0.793477
21
2.783
0
LINE
8
BLACK
6
CONTINUOUS
10
0.793477
20
2.783
11
0.78993
21
2.78964
0
LINE
8
BLACK
6
CONTINUOUS
10
0.78993
20
2.78964
11
0.787745
21
2.79684
0
LINE
8
BLACK
6
CONTINUOUS
10
0.787745
20
2.79684
11
0.787008
21
2.80433
0
LINE
8
BLACK
6
CONTINUOUS
10
0.787008
20
2.80433
11
0.787745
21
2.81182
0
LINE
8
BLACK
6
CONTINUOUS
10
0.787745
20
2.81182
11
0.78993
21
2.81902
0
LINE
8
BLACK
6
CONTINUOUS
10
0.78993
20
2.81902
11
0.793477
21
2.82566
0
LINE
8
BLACK
6
CONTINUOUS
10
0.793477
20
2.82566
11
0.798251
21
2.83147
0
LINE
8
BLACK
6
CONTINUOUS
10
0.798251
20
2.83147
11
0.804068
21
2.83625
0
LINE
8
BLACK
6
CONTINUOUS
10
0.804068
20
2.83625
11
0.810704
21
2.83979
0
LINE
8
BLACK
6
CONTINUOUS
10
0.810704
20
2.83979
11
0.817905
21
2.84198
0
LINE
8
BLACK
6
CONTINUOUS
10
0.817905
20
2.84198
11
0.825394
21
2.84272
0
LINE
8
BLACK
6
CONTINUOUS
10
0.825394
20
2.84272
11
0.832882
21
2.84198
0
LINE
8
BLACK
6
CONTINUOUS
10
2.58288
20
2.84198
11
2.59008
21
2.83979
0
LINE
8
BLACK
6
CONTINUOUS
10
2.59008
20
2.83979
11
2.59672
21
2.83625
0
LINE
8
BLACK
6
CONTINUOUS
10
2.59672
20
2.83625
11
2.60254
21
2.83147
0
LINE
8
BLACK
6
CONTINUOUS
10
2.60254
20
2.83147
11
2.60731
21
2.82566
0
LINE
8
BLACK
6
CONTINUOUS
10
2.60731
20
2.82566
11
2.61086
21
2.81902
0
LINE
8
BLACK
6
CONTINUOUS
10
2.61086
20
2.81902
11
2.61304
21
2.81182
0
LINE
8
BLACK
6
CONTINUOUS
10
2.61304
20
2.81182
11
2.61378
21
2.80433
0
LINE
8
BLACK
6
CONTINUOUS
10
2.61378
20
2.80433
11
2.61304
21
2.79684
0
LINE
8
BLACK
6
CONTINUOUS
10
2.61304
20
2.79684
11
2.61086
21
2.78964
0
LINE
8
BLACK
6
CONTINUOUS
10
2.61086
20
2.78964
11
2.60731
21
2.783
0
LINE
8
BLACK
6
CONTINUOUS
10
2.60731
20
2.783
11
2.60254
21
2.77719
0
LINE
8
BLACK
6
CONTINUOUS
10
2.60254
20
2.77719
11
2.59672
21
2.77241
0
LINE
8
BLACK
6
CONTINUOUS
10
2.59672
20
2.77241
11
2.59008
21
2.76887
0
LINE
8
BLACK
6
CONTINUOUS
10
2.59008
20
2.76887
11
2.58288
21
2.76668
0
LINE
8
BLACK
6
CONTINUOUS
10
2.58288
20
2.76668
11
2.57539
21
2.76594
0
LINE
8
BLACK
6
CONTINUOUS
10
2.57539
20
2.76594
11
2.56791
21
2.76668
0
LINE
8
BLACK
6
CONTINUOUS
10
2.56791
20
2.76668
11
2.5607
21
2.76887
0
LINE
8
BLACK
6
CONTINUOUS
10
2.5607
20
2.76887
11
2.55407
21
2.77241
0
LINE
8
BLACK
6
CONTINUOUS
10
2.55407
20
2.77241
11
2.54825
21
2.77719
0
LINE
8
BLACK
6
CONTINUOUS
10
2.54825
20
2.77719
11
2.54348
21
2.783
0
LINE
8
BLACK
6
CONTINUOUS
10
2.54348
20
2.783
11
2.53993
21
2.78964
0
LINE
8
BLACK
6
CONTINUOUS
10
2.53993
20
2.78964
11
2.53775
21
2.79684
0
LINE
8
BLACK
6
CONTINUOUS
10
2.53775
20
2.79684
11
2.53701
21
2.80433
0
LINE
8
BLACK
6
CONTINUOUS
10
2.53701
20
2.80433
11
2.53775
21
2.81182
0
LINE
8
BLACK
6
CONTINUOUS
10
2.53775
20
2.81182
11
2.53993
21
2.81902
0
LINE
8
BLACK
6
CONTINUOUS
10
2.53993
20
2.81902
11
2.54348
21
2.82566
0
LINE
8
BLACK
6
CONTINUOUS
10
2.54348
20
2.82566
11
2.54825
21
2.83147
0
LINE
8
BLACK
6
CONTINUOUS
10
2.54825
20
2.83147
11
2.55407
21
2.83625
0
LINE
8
BLACK
6
CONTINUOUS
10
2.55407
20
2.83625
11
2.5607
21
2.83979
0
LINE
8
BLACK
6
CONTINUOUS
10
2.5607
20
2.83979
11
2.56791
21
2.84198
0
LINE
8
BLACK
6
CONTINUOUS
10
2.56791
20
2.84198
11
2.57539
21
2.84272
0
LINE
8
BLACK
6
CONTINUOUS
10
2.57539
20
2.84272
11
2.58288
21
2.84198
0
LINE
8
BLACK
6
CONTINUOUS
10
0.132095
20
2.88135
11
0.139296
21
2.87916
0
LINE
8
BLACK
6
CONTINUOUS
10
0.139296
20
2.87916
11
0.145932
21
2.87562
0
LINE
8
BLACK
6
CONTINUOUS
10
0.145932
20
2.87562
11
0.151749
21
2.87084
0
LINE
8
BLACK
6
CONTINUOUS
10
0.151749
20
2.87084
11
0.156523
21
2.86503
0
LINE
8
BLACK
6
CONTINUOUS
10
0.156523
20
2.86503
11
0.16007
21
2.85839
0
LINE
8
BLACK
6
CONTINUOUS
10
0.16007
20
2.85839
11
0.162255
21
2.85119
0
LINE
8
BLACK
6
CONTINUOUS
10
0.162255
20
2.85119
11
0.162992
21
2.8437
0
LINE
8
BLACK
6
CONTINUOUS
10
0.162992
20
2.8437
11
0.162255
21
2.83621
0
LINE
8
BLACK
6
CONTINUOUS
10
0.162255
20
2.83621
11
0.16007
21
2.82901
0
LINE
8
BLACK
6
CONTINUOUS
10
0.16007
20
2.82901
11
0.156523
21
2.82237
0
LINE
8
BLACK
6
CONTINUOUS
10
0.156523
20
2.82237
11
0.151749
21
2.81656
0
LINE
8
BLACK
6
CONTINUOUS
10
0.151749
20
2.81656
11
0.145932
21
2.81178
0
LINE
8
BLACK
6
CONTINUOUS
10
0.145932
20
2.81178
11
0.139296
21
2.80824
0
LINE
8
BLACK
6
CONTINUOUS
10
0.139296
20
2.80824
11
0.132095
21
2.80605
0
LINE
8
BLACK
6
CONTINUOUS
10
0.132095
20
2.80605
11
0.124606
21
2.80531
0
LINE
8
BLACK
6
CONTINUOUS
10
0.124606
20
2.80531
11
0.117118
21
2.80605
0
LINE
8
BLACK
6
CONTINUOUS
10
0.117118
20
2.80605
11
0.109917
21
2.80824
0
LINE
8
BLACK
6
CONTINUOUS
10
0.109917
20
2.80824
11
0.10328
21
2.81178
0
LINE
8
BLACK
6
CONTINUOUS
10
0.10328
20
2.81178
11
0.0974634
21
2.81656
0
LINE
8
BLACK
6
CONTINUOUS
10
0.0974634
20
2.81656
11
0.0926896
21
2.82237
0
LINE
8
BLACK
6
CONTINUOUS
10
0.0926896
20
2.82237
11
0.0891424
21
2.82901
0
LINE
8
BLACK
6
CONTINUOUS
10
0.0891424
20
2.82901
11
0.086958
21
2.83621
0
LINE
8
BLACK
6
CONTINUOUS
10
0.086958
20
2.83621
11
0.0862205
21
2.8437
0
LINE
8
BLACK
6
CONTINUOUS
10
0.0862205
20
2.8437
11
0.086958
21
2.85119
0
LINE
8
BLACK
6
CONTINUOUS
10
0.086958
20
2.85119
11
0.0891424
21
2.85839
0
LINE
8
BLACK
6
CONTINUOUS
10
0.0891424
20
2.85839
11
0.0926896
21
2.86503
0
LINE
8
BLACK
6
CONTINUOUS
10
0.0926896
20
2.86503
11
0.0974634
21
2.87084
0
LINE
8
BLACK
6
CONTINUOUS
10
0.0974634
20
2.87084
11
0.10328
21
2.87562
0
LINE
8
BLACK
6
CONTINUOUS
10
0.10328
20
2.87562
11
0.109917
21
2.87916
0
LINE
8
BLACK
6
CONTINUOUS
10
0.109917
20
2.87916
11
0.117118
21
2.88135
0
LINE
8
BLACK
6
CONTINUOUS
10
0.117118
20
2.88135
11
0.124606
21
2.88209
0
LINE
8
BLACK
6
CONTINUOUS
10
0.124606
20
2.88209
11
0.132095
21
2.88135
0
LINE
8
BLACK
6
CONTINUOUS
10
1.88209
20
2.88135
11
1.8893
21
2.87916
0
LINE
8
BLACK
6
CONTINUOUS
10
1.8893
20
2.87916
11
1.89593
21
2.87562
0
LINE
8
BLACK
6
CONTINUOUS
10
1.89593
20
2.87562
11
1.90175
21
2.87084
0
LINE
8
BLACK
6
CONTINUOUS
10
1.90175
20
2.87084
11
1.90652
21
2.86503
0
LINE
8
BLACK
6
CONTINUOUS
10
1.90652
20
2.86503
11
1.91007
21
2.85839
0
LINE
8
BLACK
6
CONTINUOUS
10
1.91007
20
2.85839
11
1.91225
21
2.85119
0
LINE
8
BLACK
6
CONTINUOUS
10
1.91225
20
2.85119
11
1.91299
21
2.8437
0
LINE
8
BLACK
6
CONTINUOUS
10
1.91299
20
2.8437
11
1.91225
21
2.83621
0
LINE
8
BLACK
6
CONTINUOUS
10
1.91225
20
2.83621
11
1.91007
21
2.82901
0
LINE
8
BLACK
6
CONTINUOUS
10
1.91007
20
2.82901
11
1.90652
21
2.82237
0
LINE
8
BLACK
6
CONTINUOUS
10
1.90652
20
2.82237
11
1.90175
21
2.81656
0
LINE
8
BLACK
6
CONTINUOUS
10
1.90175
20
2.81656
11
1.89593
21
2.81178
0
LINE
8
BLACK
6
CONTINUOUS
10
1.89593
20
2.81178
11
1.8893
21
2.80824
0
LINE
8
BLACK
6
CONTINUOUS
10
1.8893
20
2.80824
11
1.88209
21
2.80605
0
LINE
8
BLACK
6
CONTINUOUS
10
1.88209
20
2.80605
11
1.87461
21
2.80531
0
LINE
8
BLACK
6
CONTINUOUS
10
1.87461
20
2.80531
11
1.86712
21
2.80605
0
LINE
8
BLACK
6
CONTINUOUS
10
1.86712
20
2.80605
11
1.85992
21
2.80824
0
LINE
8
BLACK
6
CONTINUOUS
10
1.85992
20
2.80824
11
1.85328
21
2.81178
0
LINE
8
BLACK
6
CONTINUOUS
10
1.85328
20
2.81178
11
1.84746
21
2.81656
0
LINE
8
BLACK
6
CONTINUOUS
10
1.84746
20
2.81656
11
1.84269
21
2.82237
0
LINE
8
BLACK
6
CONTINUOUS
10
1.84269
20
2.82237
11
1.83914
21
2.82901
0
LINE
8
BLACK
6
CONTINUOUS
10
1.83914
20
2.82901
11
1.83696
21
2.83621
0
LINE
8
BLACK
6
CONTINUOUS
10
1.83696
20
2.83621
11
1.83622
21
2.8437
0
LINE
8
BLACK
6
CONTINUOUS
10
1.83622
20
2.8437
11
1.83696
21
2.85119
0
LINE
8
BLACK
6
CONTINUOUS
10
1.83696
20
2.85119
11
1.83914
21
2.85839
0
LINE
8
BLACK
6
CONTINUOUS
10
1.83914
20
2.85839
11
1.84269
21
2.86503
0
LINE
8
BLACK
6
CONTINUOUS
10
1.84269
20
2.86503
11
1.84746
21
2.87084
0
LINE
8
BLACK
6
CONTINUOUS
10
1.84746
20
2.87084
11
1.85328
21
2.87562
0
LINE
8
BLACK
6
CONTINUOUS
10
1.85328
20
2.87562
11
1.85992
21
2.87916
0
LINE
8
BLACK
6
CONTINUOUS
10
1.85992
20
2.87916
11
1.86712
21
2.88135
0
LINE
8
BLACK
6
CONTINUOUS
10
1.86712
20
2.88135
11
1.87461
21
2.88209
0
LINE
8
BLACK
6
CONTINUOUS
10
1.87461
20
2.88209
11
1.88209
21
2.88135
0
LINE
8
BLACK
6
CONTINUOUS
10
0.132095
20
3.00891
11
0.139296
21
3.00672
0
LINE
8
BLACK
6
CONTINUOUS
10
0.139296
20
3.00672
11
0.145932
21
3.00318
0
LINE
8
BLACK
6
CONTINUOUS
10
0.145932
20
3.00318
11
0.151749
21
2.9984
0
LINE
8
BLACK
6
CONTINUOUS
10
0.151749
20
2.9984
11
0.156523
21
2.99259
0
LINE
8
BLACK
6
CONTINUOUS
10
0.156523
20
2.99259
11
0.16007
21
2.98595
0
LINE
8
BLACK
6
CONTINUOUS
10
0.16007
20
2.98595
11
0.162255
21
2.97875
0
LINE
8
BLACK
6
CONTINUOUS
10
0.162255
20
2.97875
11
0.162992
21
2.97126
0
LINE
8
BLACK
6
CONTINUOUS
10
0.162992
20
2.97126
11
0.162255
21
2.96377
0
LINE
8
BLACK
6
CONTINUOUS
10
0.162255
20
2.96377
11
0.16007
21
2.95657
0
LINE
8
BLACK
6
CONTINUOUS
10
0.16007
20
2.95657
11
0.156523
21
2.94993
0
LINE
8
BLACK
6
CONTINUOUS
10
0.156523
20
2.94993
11
0.151749
21
2.94412
0
LINE
8
BLACK
6
CONTINUOUS
10
0.151749
20
2.94412
11
0.145932
21
2.93934
0
LINE
8
BLACK
6
CONTINUOUS
10
0.145932
20
2.93934
11
0.139296
21
2.9358
0
LINE
8
BLACK
6
CONTINUOUS
10
0.139296
20
2.9358
11
0.132095
21
2.93361
0
LINE
8
BLACK
6
CONTINUOUS
10
0.132095
20
2.93361
11
0.124606
21
2.93287
0
LINE
8
BLACK
6
CONTINUOUS
10
0.124606
20
2.93287
11
0.117118
21
2.93361
0
LINE
8
BLACK
6
CONTINUOUS
10
0.117118
20
2.93361
11
0.109917
21
2.9358
0
LINE
8
BLACK
6
CONTINUOUS
10
0.109917
20
2.9358
11
0.10328
21
2.93934
0
LINE
8
BLACK
6
CONTINUOUS
10
0.10328
20
2.93934
11
0.0974634
21
2.94412
0
LINE
8
BLACK
6
CONTINUOUS
10
0.0974634
20
2.94412
11
0.0926896
21
2.94993
0
LINE
8
BLACK
6
CONTINUOUS
10
0.0926896
20
2.94993
11
0.0891424
21
2.95657
0
LINE
8
BLACK
6
CONTINUOUS
10
0.0891424
20
2.95657
11
0.086958
21
2.96377
0
LINE
8
BLACK
6
CONTINUOUS
10
0.086958
20
2.96377
11
0.0862205
21
2.97126
0
LINE
8
BLACK
6
CONTINUOUS
10
0.0862205
20
2.97126
11
0.086958
21
2.97875
0
LINE
8
BLACK
6
CONTINUOUS
10
0.086958
20
2.97875
11
0.0891424
21
2.98595
0
LINE
8
BLACK
6
CONTINUOUS
10
0.0891424
20
2.98595
11
0.0926896
21
2.99259
0
LINE
8
BLACK
6
CONTINUOUS
10
0.0926896
20
2.99259
11
0.0974634
21
2.9984
0
LINE
8
BLACK
6
CONTINUOUS
10
0.0974634
20
2.9984
11
0.10328
21
3.00318
0
LINE
8
BLACK
6
CONTINUOUS
10
0.10328
20
3.00318
11
0.109917
21
3.00672
0
LINE
8
BLACK
6
CONTINUOUS
10
0.109917
20
3.00672
11
0.117118
21
3.00891
0
LINE
8
BLACK
6
CONTINUOUS
10
0.117118
20
3.00891
11
0.124606
21
3.00965
0
LINE
8
BLACK
6
CONTINUOUS
10
0.124606
20
3.00965
11
0.132095
21
3.00891
0
LINE
8
BLACK
6
CONTINUOUS
10
0.832882
20
3.00891
11
0.840083
21
3.00672
0
LINE
8
BLACK
6
CONTINUOUS
10
0.840083
20
3.00672
11
0.84672
21
3.00318
0
LINE
8
BLACK
6
CONTINUOUS
10
0.84672
20
3.00318
11
0.852537
21
2.9984
0
LINE
8
BLACK
6
CONTINUOUS
10
0.852537
20
2.9984
11
0.85731
21
2.99259
0
LINE
8
BLACK
6
CONTINUOUS
10
0.85731
20
2.99259
11
0.860858
21
2.98595
0
LINE
8
BLACK
6
CONTINUOUS
10
0.860858
20
2.98595
11
0.863042
21
2.97875
0
LINE
8
BLACK
6
CONTINUOUS
10
0.863042
20
2.97875
11
0.86378
21
2.97126
0
LINE
8
BLACK
6
CONTINUOUS
10
0.86378
20
2.97126
11
0.863042
21
2.96377
0
LINE
8
BLACK
6
CONTINUOUS
10
0.863042
20
2.96377
11
0.860858
21
2.95657
0
LINE
8
BLACK
6
CONTINUOUS
10
0.860858
20
2.95657
11
0.85731
21
2.94993
0
LINE
8
BLACK
6
CONTINUOUS
10
0.85731
20
2.94993
11
0.852537
21
2.94412
0
LINE
8
BLACK
6
CONTINUOUS
10
0.852537
20
2.94412
11
0.84672
21
2.93934
0
LINE
8
BLACK
6
CONTINUOUS
10
0.84672
20
2.93934
11
0.840083
21
2.9358
0
LINE
8
BLACK
6
CONTINUOUS
10
0.840083
20
2.9358
11
0.832882
21
2.93361
0
LINE
8
BLACK
6
CONTINUOUS
10
0.832882
20
2.93361
11
0.825394
21
2.93287
0
LINE
8
BLACK
6
CONTINUOUS
10
0.825394
20
2.93287
11
0.817905
21
2.93361
0
LINE
8
BLACK
6
CONTINUOUS
10
0.817905
20
2.93361
11
0.810704
21
2.9358
0
LINE
8
BLACK
6
CONTINUOUS
10
0.810704
20
2.9358
11
0.804068
21
2.93934
0
LINE
8
BLACK
6
CONTINUOUS
10
0.804068
20
2.93934
11
0.798251
21
2.94412
0
LINE
8
BLACK
6
CONTINUOUS
10
0.798251
20
2.94412
11
0.793477
21
2.94993
0
LINE
8
BLACK
6
CONTINUOUS
10
0.793477
20
2.94993
11
0.78993
21
2.95657
0
LINE
8
BLACK
6
CONTINUOUS
10
0.78993
20
2.95657
11
0.787745
21
2.96377
0
LINE
8
BLACK
6
CONTINUOUS
10
0.787745
20
2.96377
11
0.787008
21
2.97126
0
LINE
8
BLACK
6
CONTINUOUS
10
0.787008
20
2.97126
11
0.787745
21
2.97875
0
LINE
8
BLACK
6
CONTINUOUS
10
0.787745
20
2.97875
11
0.78993
21
2.98595
0
LINE
8
BLACK
6
CONTINUOUS
10
0.78993
20
2.98595
11
0.793477
21
2.99259
0
LINE
8
BLACK
6
CONTINUOUS
10
0.793477
20
2.99259
11
0.798251
21
2.9984
0
LINE
8
BLACK
6
CONTINUOUS
10
0.798251
20
2.9984
11
0.804068
21
3.00318
0
LINE
8
BLACK
6
CONTINUOUS
10
0.804068
20
3.00318
11
0.810704
21
3.00672
0
LINE
8
BLACK
6
CONTINUOUS
10
0.810704
20
3.00672
11
0.817905
21
3.00891
0
LINE
8
BLACK
6
CONTINUOUS
10
0.817905
20
3.00891
11
0.825394
21
3.00965
0
LINE
8
BLACK
6
CONTINUOUS
10
0.825394
20
3.00965
11
0.832882
21
3.00891
0
LINE
8
BLACK
6
CONTINUOUS
10
1.88209
20
3.00891
11
1.8893
21
3.00672
0
LINE
8
BLACK
6
CONTINUOUS
10
1.8893
20
3.00672
11
1.89593
21
3.00318
0
LINE
8
BLACK
6
CONTINUOUS
10
1.89593
20
3.00318
11
1.90175
21
2.9984
0
LINE
8
BLACK
6
CONTINUOUS
10
1.90175
20
2.9984
11
1.90652
21
2.99259
0
LINE
8
BLACK
6
CONTINUOUS
10
1.90652
20
2.99259
11
1.91007
21
2.98595
0
LINE
8
BLACK
6
CONTINUOUS
10
1.91007
20
2.98595
11
1.91225
21
2.97875
0
LINE
8
BLACK
6
CONTINUOUS
10
1.91225
20
2.97875
11
1.91299
21
2.97126
0
LINE
8
BLACK
6
CONTINUOUS
10
1.91299
20
2.97126
11
1.91225
21
2.96377
0
LINE
8
BLACK
6
CONTINUOUS
10
1.91225
20
2.96377
11
1.91007
21
2.95657
0
LINE
8
BLACK
6
CONTINUOUS
10
1.91007
20
2.95657
11
1.90652
21
2.94993
0
LINE
8
BLACK
6
CONTINUOUS
10
1.90652
20
2.94993
11
1.90175
21
2.94412
0
LINE
8
BLACK
6
CONTINUOUS
10
1.90175
20
2.94412
11
1.89593
21
2.93934
0
LINE
8
BLACK
6
CONTINUOUS
10
1.89593
20
2.93934
11
1.8893
21
2.9358
0
LINE
8
BLACK
6
CONTINUOUS
10
1.8893
20
2.9358
11
1.88209
21
2.93361
0
LINE
8
BLACK
6
CONTINUOUS
10
1.88209
20
2.93361
11
1.87461
21
2.93287
0
LINE
8
BLACK
6
CONTINUOUS
10
1.87461
20
2.93287
11
1.86712
21
2.93361
0
LINE
8
BLACK
6
CONTINUOUS
10
1.86712
20
2.93361
11
1.85992
21
2.9358
0
LINE
8
BLACK
6
CONTINUOUS
10
1.85992
20
2.9358
11
1.85328
21
2.93934
0
LINE
8
BLACK
6
CONTINUOUS
10
1.85328
20
2.93934
11
1.84746
21
2.94412
0
LINE
8
BLACK
6
CONTINUOUS
10
1.84746
20
2.94412
11
1.84269
21
2.94993
0
LINE
8
BLACK
6
CONTINUOUS
10
1.84269
20
2.94993
11
1.83914
21
2.95657
0
LINE
8
BLACK
6
CONTINUOUS
10
1.83914
20
2.95657
11
1.83696
21
2.96377
0
LINE
8
BLACK
6
CONTINUOUS
10
1.83696
20
2.96377
11
1.83622
21
2.97126
0
LINE
8
BLACK
6
CONTINUOUS
10
1.83622
20
2.97126
11
1.83696
21
2.97875
0
LINE
8
BLACK
6
CONTINUOUS
10
1.83696
20
2.97875
11
1.83914
21
2.98595
0
LINE
8
BLACK
6
CONTINUOUS
10
1.83914
20
2.98595
11
1.84269
21
2.99259
0
LINE
8
BLACK
6
CONTINUOUS
10
1.84269
20
2.99259
11
1.84746
21
2.9984
0
LINE
8
BLACK
6
CONTINUOUS
10
1.84746
20
2.9984
11
1.85328
21
3.00318
0
LINE
8
BLACK
6
CONTINUOUS
10
1.85328
20
3.00318
11
1.85992
21
3.00672
0
LINE
8
BLACK
6
CONTINUOUS
10
1.85992
20
3.00672
11
1.86712
21
3.00891
0
LINE
8
BLACK
6
CONTINUOUS
10
1.86712
20
3.00891
11
1.87461
21
3.00965
0
LINE
8
BLACK
6
CONTINUOUS
10
1.87461
20
3.00965
11
1.88209
21
3.00891
0
LINE
8
BLACK
6
CONTINUOUS
10
2.58288
20
3.00891
11
2.59008
21
3.00672
0
LINE
8
BLACK
6
CONTINUOUS
10
2.59008
20
3.00672
11
2.59672
21
3.00318
0
LINE
8
BLACK
6
CONTINUOUS
10
2.59672
20
3.00318
11
2.60254
21
2.9984
0
LINE
8
BLACK
6
CONTINUOUS
10
2.60254
20
2.9984
11
2.60731
21
2.99259
0
LINE
8
BLACK
6
CONTINUOUS
10
2.60731
20
2.99259
11
2.61086
21
2.98595
0
LINE
8
BLACK
6
CONTINUOUS
10
2.61086
20
2.98595
11
2.61304
21
2.97875
0
LINE
8
BLACK
6
CONTINUOUS
10
2.61304
20
2.97875
11
2.61378
21
2.97126
0
LINE
8
BLACK
6
CONTINUOUS
10
2.61378
20
2.97126
11
2.61304
21
2.96377
0
LINE
8
BLACK
6
CONTINUOUS
10
2.61304
20
2.96377
11
2.61086
21
2.95657
0
LINE
8
BLACK
6
CONTINUOUS
10
2.61086
20
2.95657
11
2.60731
21
2.94993
0
LINE
8
BLACK
6
CONTINUOUS
10
2.60731
20
2.94993
11
2.60254
21
2.94412
0
LINE
8
BLACK
6
CONTINUOUS
10
2.60254
20
2.94412
11
2.59672
21
2.93934
0
LINE
8
BLACK
6
CONTINUOUS
10
2.59672
20
2.93934
11
2.59008
21
2.9358
0
LINE
8
BLACK
6
CONTINUOUS
10
2.59008
20
2.9358
11
2.58288
21
2.93361
0
LINE
8
BLACK
6
CONTINUOUS
10
2.58288
20
2.93361
11
2.57539
21
2.93287
0
LINE
8
BLACK
6
CONTINUOUS
10
2.57539
20
2.93287
11
2.56791
21
2.93361
0
LINE
8
BLACK
6
CONTINUOUS
10
2.56791
20
2.93361
11
2.5607
21
2.9358
0
LINE
8
BLACK
6
CONTINUOUS
10
2.5607
20
2.9358
11
2.55407
21
2.93934
0
LINE
8
BLACK
6
CONTINUOUS
10
2.55407
20
2.93934
11
2.54825
21
2.94412
0
LINE
8
BLACK
6
CONTINUOUS
10
2.54825
20
2.94412
11
2.54348
21
2.94993
0
LINE
8
BLACK
6
CONTINUOUS
10
2.54348
20
2.94993
11
2.53993
21
2.95657
0
LINE
8
BLACK
6
CONTINUOUS
10
2.53993
20
2.95657
11
2.53775
21
2.96377
0
LINE
8
BLACK
6
CONTINUOUS
10
2.53775
20
2.96377
11
2.53701
21
2.97126
0
LINE
8
BLACK
6
CONTINUOUS
10
2.53701
20
2.97126
11
2.53775
21
2.97875
0
LINE
8
BLACK
6
CONTINUOUS
10
2.53775
20
2.97875
11
2.53993
21
2.98595
0
LINE
8
BLACK
6
CONTINUOUS
10
2.53993
20
2.98595
11
2.54348
21
2.99259
0
LINE
8
BLACK
6
CONTINUOUS
10
2.54348
20
2.99259
11
2.54825
21
2.9984
0
LINE
8
BLACK
6
CONTINUOUS
10
2.54825
20
2.9984
11
2.55407
21
3.00318
0
LINE
8
BLACK
6
CONTINUOUS
10
2.55407
20
3.00318
11
2.5607
21
3.00672
0
LINE
8
BLACK
6
CONTINUOUS
10
2.5607
20
3.00672
11
2.56791
21
3.00891
0
LINE
8
BLACK
6
CONTINUOUS
10
2.56791
20
3.00891
11
2.57539
21
3.00965
0
LINE
8
BLACK
6
CONTINUOUS
10
2.57539
20
3.00965
11
2.58288
21
3.00891
0
LINE
8
BLACK
6
CONTINUOUS
10
0.167528
20
3.08765
11
0.174729
21
3.08546
0
LINE
8
BLACK
6
CONTINUOUS
10
0.174729
20
3.08546
11
0.181365
21
3.08192
0
LINE
8
BLACK
6
CONTINUOUS
10
0.181365
20
3.08192
11
0.187182
21
3.07714
0
LINE
8
BLACK
6
CONTINUOUS
10
0.187182
20
3.07714
11
0.191956
21
3.07133
0
LINE
8
BLACK
6
CONTINUOUS
10
0.191956
20
3.07133
11
0.195503
21
3.06469
0
LINE
8
BLACK
6
CONTINUOUS
10
0.195503
20
3.06469
11
0.197688
21
3.05749
0
LINE
8
BLACK
6
CONTINUOUS
10
0.197688
20
3.05749
11
0.198425
21
3.05
0
LINE
8
BLACK
6
CONTINUOUS
10
0.198425
20
3.05
11
0.197688
21
3.04251
0
LINE
8
BLACK
6
CONTINUOUS
10
0.197688
20
3.04251
11
0.195503
21
3.03531
0
LINE
8
BLACK
6
CONTINUOUS
10
0.195503
20
3.03531
11
0.191956
21
3.02867
0
LINE
8
BLACK
6
CONTINUOUS
10
0.191956
20
3.02867
11
0.187182
21
3.02286
0
LINE
8
BLACK
6
CONTINUOUS
10
0.187182
20
3.02286
11
0.181365
21
3.01808
0
LINE
8
BLACK
6
CONTINUOUS
10
0.181365
20
3.01808
11
0.174729
21
3.01454
0
LINE
8
BLACK
6
CONTINUOUS
10
0.174729
20
3.01454
11
0.167528
21
3.01235
0
LINE
8
BLACK
6
CONTINUOUS
10
0.167528
20
3.01235
11
0.160039
21
3.01161
0
LINE
8
BLACK
6
CONTINUOUS
10
0.160039
20
3.01161
11
0.152551
21
3.01235
0
LINE
8
BLACK
6
CONTINUOUS
10
0.152551
20
3.01235
11
0.14535
21
3.01454
0
LINE
8
BLACK
6
CONTINUOUS
10
0.14535
20
3.01454
11
0.138713
21
3.01808
0
LINE
8
BLACK
6
CONTINUOUS
10
0.138713
20
3.01808
11
0.132896
21
3.02286
0
LINE
8
BLACK
6
CONTINUOUS
10
0.132896
20
3.02286
11
0.128123
21
3.02867
0
LINE
8
BLACK
6
CONTINUOUS
10
0.128123
20
3.02867
11
0.124575
21
3.03531
0
LINE
8
BLACK
6
CONTINUOUS
10
0.124575
20
3.03531
11
0.122391
21
3.04251
0
LINE
8
BLACK
6
CONTINUOUS
10
0.122391
20
3.04251
11
0.121654
21
3.05
0
LINE
8
BLACK
6
CONTINUOUS
10
0.121654
20
3.05
11
0.122391
21
3.05749
0
LINE
8
BLACK
6
CONTINUOUS
10
0.122391
20
3.05749
11
0.124575
21
3.06469
0
LINE
8
BLACK
6
CONTINUOUS
10
0.124575
20
3.06469
11
0.128123
21
3.07133
0
LINE
8
BLACK
6
CONTINUOUS
10
0.128123
20
3.07133
11
0.132896
21
3.07714
0
LINE
8
BLACK
6
CONTINUOUS
10
0.132896
20
3.07714
11
0.138713
21
3.08192
0
LINE
8
BLACK
6
CONTINUOUS
10
0.138713
20
3.08192
11
0.14535
21
3.08546
0
LINE
8
BLACK
6
CONTINUOUS
10
0.14535
20
3.08546
11
0.152551
21
3.08765
0
LINE
8
BLACK
6
CONTINUOUS
10
0.152551
20
3.08765
11
0.160039
21
3.08839
0
LINE
8
BLACK
6
CONTINUOUS
10
0.160039
20
3.08839
11
0.167528
21
3.08765
0
LINE
8
BLACK
6
CONTINUOUS
10
0.797449
20
3.08765
11
0.80465
21
3.08546
0
LINE
8
BLACK
6
CONTINUOUS
10
0.80465
20
3.08546
11
0.811287
21
3.08192
0
LINE
8
BLACK
6
CONTINUOUS
10
0.811287
20
3.08192
11
0.817104
21
3.07714
0
LINE
8
BLACK
6
CONTINUOUS
10
0.817104
20
3.07714
11
0.821877
21
3.07133
0
LINE
8
BLACK
6
CONTINUOUS
10
0.821877
20
3.07133
11
0.825425
21
3.06469
0
LINE
8
BLACK
6
CONTINUOUS
10
0.825425
20
3.06469
11
0.827609
21
3.05749
0
LINE
8
BLACK
6
CONTINUOUS
10
0.827609
20
3.05749
11
0.828346
21
3.05
0
LINE
8
BLACK
6
CONTINUOUS
10
0.828346
20
3.05
11
0.827609
21
3.04251
0
LINE
8
BLACK
6
CONTINUOUS
10
0.827609
20
3.04251
11
0.825425
21
3.03531
0
LINE
8
BLACK
6
CONTINUOUS
10
0.825425
20
3.03531
11
0.821877
21
3.02867
0
LINE
8
BLACK
6
CONTINUOUS
10
0.821877
20
3.02867
11
0.817104
21
3.02286
0
LINE
8
BLACK
6
CONTINUOUS
10
0.817104
20
3.02286
11
0.811287
21
3.01808
0
LINE
8
BLACK
6
CONTINUOUS
10
0.811287
20
3.01808
11
0.80465
21
3.01454
0
LINE
8
BLACK
6
CONTINUOUS
10
0.80465
20
3.01454
11
0.797449
21
3.01235
0
LINE
8
BLACK
6
CONTINUOUS
10
0.797449
20
3.01235
11
0.789961
21
3.01161
0
LINE
8
BLACK
6
CONTINUOUS
10
0.789961
20
3.01161
11
0.782472
21
3.01235
0
LINE
8
BLACK
6
CONTINUOUS
10
0.782472
20
3.01235
11
0.775271
21
3.01454
0
LINE
8
BLACK
6
CONTINUOUS
10
0.775271
20
3.01454
11
0.768635
21
3.01808
0
LINE
8
BLACK
6
CONTINUOUS
10
0.768635
20
3.01808
11
0.762818
21
3.02286
0
LINE
8
BLACK
6
CONTINUOUS
10
0.762818
20
3.02286
11
0.758044
21
3.02867
0
LINE
8
BLACK
6
CONTINUOUS
10
0.758044
20
3.02867
11
0.754497
21
3.03531
0
LINE
8
BLACK
6
CONTINUOUS
10
0.754497
20
3.03531
11
0.752312
21
3.04251
0
LINE
8
BLACK
6
CONTINUOUS
10
0.752312
20
3.04251
11
0.751575
21
3.05
0
LINE
8
BLACK
6
CONTINUOUS
10
0.751575
20
3.05
11
0.752312
21
3.05749
0
LINE
8
BLACK
6
CONTINUOUS
10
0.752312
20
3.05749
11
0.754497
21
3.06469
0
LINE
8
BLACK
6
CONTINUOUS
10
0.754497
20
3.06469
11
0.758044
21
3.07133
0
LINE
8
BLACK
6
CONTINUOUS
10
0.758044
20
3.07133
11
0.762818
21
3.07714
0
LINE
8
BLACK
6
CONTINUOUS
10
0.762818
20
3.07714
11
0.768635
21
3.08192
0
LINE
8
BLACK
6
CONTINUOUS
10
0.768635
20
3.08192
11
0.775271
21
3.08546
0
LINE
8
BLACK
6
CONTINUOUS
10
0.775271
20
3.08546
11
0.782472
21
3.08765
0
LINE
8
BLACK
6
CONTINUOUS
10
0.782472
20
3.08765
11
0.789961
21
3.08839
0
LINE
8
BLACK
6
CONTINUOUS
10
0.789961
20
3.08839
11
0.797449
21
3.08765
0
LINE
8
BLACK
6
CONTINUOUS
10
1.91753
20
3.08765
11
1.92473
21
3.08546
0
LINE
8
BLACK
6
CONTINUOUS
10
1.92473
20
3.08546
11
1.93137
21
3.08192
0
LINE
8
BLACK
6
CONTINUOUS
10
1.93137
20
3.08192
11
1.93718
21
3.07714
0
LINE
8
BLACK
6
CONTINUOUS
10
1.93718
20
3.07714
11
1.94196
21
3.07133
0
LINE
8
BLACK
6
CONTINUOUS
10
1.94196
20
3.07133
11
1.9455
21
3.06469
0
LINE
8
BLACK
6
CONTINUOUS
10
1.9455
20
3.06469
11
1.94769
21
3.05749
0
LINE
8
BLACK
6
CONTINUOUS
10
1.94769
20
3.05749
11
1.94843
21
3.05
0
LINE
8
BLACK
6
CONTINUOUS
10
1.94843
20
3.05
11
1.94769
21
3.04251
0
LINE
8
BLACK
6
CONTINUOUS
10
1.94769
20
3.04251
11
1.9455
21
3.03531
0
LINE
8
BLACK
6
CONTINUOUS
10
1.9455
20
3.03531
11
1.94196
21
3.02867
0
LINE
8
BLACK
6
CONTINUOUS
10
1.94196
20
3.02867
11
1.93718
21
3.02286
0
LINE
8
BLACK
6
CONTINUOUS
10
1.93718
20
3.02286
11
1.93137
21
3.01808
0
LINE
8
BLACK
6
CONTINUOUS
10
1.93137
20
3.01808
11
1.92473
21
3.01454
0
LINE
8
BLACK
6
CONTINUOUS
10
1.92473
20
3.01454
11
1.91753
21
3.01235
0
LINE
8
BLACK
6
CONTINUOUS
10
1.91753
20
3.01235
11
1.91004
21
3.01161
0
LINE
8
BLACK
6
CONTINUOUS
10
1.91004
20
3.01161
11
1.90255
21
3.01235
0
LINE
8
BLACK
6
CONTINUOUS
10
1.90255
20
3.01235
11
1.89535
21
3.01454
0
LINE
8
BLACK
6
CONTINUOUS
10
1.89535
20
3.01454
11
1.88871
21
3.01808
0
LINE
8
BLACK
6
CONTINUOUS
10
1.88871
20
3.01808
11
1.8829
21
3.02286
0
LINE
8
BLACK
6
CONTINUOUS
10
1.8829
20
3.02286
11
1.87812
21
3.02867
0
LINE
8
BLACK
6
CONTINUOUS
10
1.87812
20
3.02867
11
1.87458
21
3.03531
0
LINE
8
BLACK
6
CONTINUOUS
10
1.87458
20
3.03531
11
1.87239
21
3.04251
0
LINE
8
BLACK
6
CONTINUOUS
10
1.87239
20
3.04251
11
1.87165
21
3.05
0
LINE
8
BLACK
6
CONTINUOUS
10
1.87165
20
3.05
11
1.87239
21
3.05749
0
LINE
8
BLACK
6
CONTINUOUS
10
1.87239
20
3.05749
11
1.87458
21
3.06469
0
LINE
8
BLACK
6
CONTINUOUS
10
1.87458
20
3.06469
11
1.87812
21
3.07133
0
LINE
8
BLACK
6
CONTINUOUS
10
1.87812
20
3.07133
11
1.8829
21
3.07714
0
LINE
8
BLACK
6
CONTINUOUS
10
1.8829
20
3.07714
11
1.88871
21
3.08192
0
LINE
8
BLACK
6
CONTINUOUS
10
1.88871
20
3.08192
11
1.89535
21
3.08546
0
LINE
8
BLACK
6
CONTINUOUS
10
1.89535
20
3.08546
11
1.90255
21
3.08765
0
LINE
8
BLACK
6
CONTINUOUS
10
1.90255
20
3.08765
11
1.91004
21
3.08839
0
LINE
8
BLACK
6
CONTINUOUS
10
1.91004
20
3.08839
11
1.91753
21
3.08765
0
LINE
8
BLACK
6
CONTINUOUS
10
2.54745
20
3.08765
11
2.55465
21
3.08546
0
LINE
8
BLACK
6
CONTINUOUS
10
2.55465
20
3.08546
11
2.56129
21
3.08192
0
LINE
8
BLACK
6
CONTINUOUS
10
2.56129
20
3.08192
11
2.5671
21
3.07714
0
LINE
8
BLACK
6
CONTINUOUS
10
2.5671
20
3.07714
11
2.57188
21
3.07133
0
LINE
8
BLACK
6
CONTINUOUS
10
2.57188
20
3.07133
11
2.57542
21
3.06469
0
LINE
8
BLACK
6
CONTINUOUS
10
2.57542
20
3.06469
11
2.57761
21
3.05749
0
LINE
8
BLACK
6
CONTINUOUS
10
2.57761
20
3.05749
11
2.57835
21
3.05
0
LINE
8
BLACK
6
CONTINUOUS
10
2.57835
20
3.05
11
2.57761
21
3.04251
0
LINE
8
BLACK
6
CONTINUOUS
10
2.57761
20
3.04251
11
2.57542
21
3.03531
0
LINE
8
BLACK
6
CONTINUOUS
10
2.57542
20
3.03531
11
2.57188
21
3.02867
0
LINE
8
BLACK
6
CONTINUOUS
10
2.57188
20
3.02867
11
2.5671
21
3.02286
0
LINE
8
BLACK
6
CONTINUOUS
10
2.5671
20
3.02286
11
2.56129
21
3.01808
0
LINE
8
BLACK
6
CONTINUOUS
10
2.56129
20
3.01808
11
2.55465
21
3.01454
0
LINE
8
BLACK
6
CONTINUOUS
10
2.55465
20
3.01454
11
2.54745
21
3.01235
0
LINE
8
BLACK
6
CONTINUOUS
10
2.54745
20
3.01235
11
2.53996
21
3.01161
0
LINE
8
BLACK
6
CONTINUOUS
10
2.53996
20
3.01161
11
2.53247
21
3.01235
0
LINE
8
BLACK
6
CONTINUOUS
10
2.53247
20
3.01235
11
2.52527
21
3.01454
0
LINE
8
BLACK
6
CONTINUOUS
10
2.52527
20
3.01454
11
2.51863
21
3.01808
0
LINE
8
BLACK
6
CONTINUOUS
10
2.51863
20
3.01808
11
2.51282
21
3.02286
0
LINE
8
BLACK
6
CONTINUOUS
10
2.51282
20
3.02286
11
2.50804
21
3.02867
0
LINE
8
BLACK
6
CONTINUOUS
10
2.50804
20
3.02867
11
2.5045
21
3.03531
0
LINE
8
BLACK
6
CONTINUOUS
10
2.5045
20
3.03531
11
2.50231
21
3.04251
0
LINE
8
BLACK
6
CONTINUOUS
10
2.50231
20
3.04251
11
2.50157
21
3.05
0
LINE
8
BLACK
6
CONTINUOUS
10
2.50157
20
3.05
11
2.50231
21
3.05749
0
LINE
8
BLACK
6
CONTINUOUS
10
2.50231
20
3.05749
11
2.5045
21
3.06469
0
LINE
8
BLACK
6
CONTINUOUS
10
2.5045
20
3.06469
11
2.50804
21
3.07133
0
LINE
8
BLACK
6
CONTINUOUS
10
2.50804
20
3.07133
11
2.51282
21
3.07714
0
LINE
8
BLACK
6
CONTINUOUS
10
2.51282
20
3.07714
11
2.51863
21
3.08192
0
LINE
8
BLACK
6
CONTINUOUS
10
2.51863
20
3.08192
11
2.52527
21
3.08546
0
LINE
8
BLACK
6
CONTINUOUS
10
2.52527
20
3.08546
11
2.53247
21
3.08765
0
LINE
8
BLACK
6
CONTINUOUS
10
2.53247
20
3.08765
11
2.53996
21
3.08839
0
LINE
8
BLACK
6
CONTINUOUS
10
2.53996
20
3.08839
11
2.54745
21
3.08765
0
LINE
8
BLACK
6
CONTINUOUS
10
0.132095
20
3.16599
11
0.139296
21
3.16381
0
LINE
8
BLACK
6
CONTINUOUS
10
0.139296
20
3.16381
11
0.145932
21
3.16026
0
LINE
8
BLACK
6
CONTINUOUS
10
0.145932
20
3.16026
11
0.151749
21
3.15549
0
LINE
8
BLACK
6
CONTINUOUS
10
0.151749
20
3.15549
11
0.156523
21
3.14967
0
LINE
8
BLACK
6
CONTINUOUS
10
0.156523
20
3.14967
11
0.16007
21
3.14304
0
LINE
8
BLACK
6
CONTINUOUS
10
0.16007
20
3.14304
11
0.162255
21
3.13583
0
LINE
8
BLACK
6
CONTINUOUS
10
0.162255
20
3.13583
11
0.162992
21
3.12835
0
LINE
8
BLACK
6
CONTINUOUS
10
0.162992
20
3.12835
11
0.162255
21
3.12086
0
LINE
8
BLACK
6
CONTINUOUS
10
0.162255
20
3.12086
11
0.16007
21
3.11366
0
LINE
8
BLACK
6
CONTINUOUS
10
0.16007
20
3.11366
11
0.156523
21
3.10702
0
LINE
8
BLACK
6
CONTINUOUS
10
0.156523
20
3.10702
11
0.151749
21
3.1012
0
LINE
8
BLACK
6
CONTINUOUS
10
0.151749
20
3.1012
11
0.145932
21
3.09643
0
LINE
8
BLACK
6
CONTINUOUS
10
0.145932
20
3.09643
11
0.139296
21
3.09288
0
LINE
8
BLACK
6
CONTINUOUS
10
0.139296
20
3.09288
11
0.132095
21
3.0907
0
LINE
8
BLACK
6
CONTINUOUS
10
0.132095
20
3.0907
11
0.124606
21
3.08996
0
LINE
8
BLACK
6
CONTINUOUS
10
0.124606
20
3.08996
11
0.117118
21
3.0907
0
LINE
8
BLACK
6
CONTINUOUS
10
0.117118
20
3.0907
11
0.109917
21
3.09288
0
LINE
8
BLACK
6
CONTINUOUS
10
0.109917
20
3.09288
11
0.10328
21
3.09643
0
LINE
8
BLACK
6
CONTINUOUS
10
0.10328
20
3.09643
11
0.0974634
21
3.1012
0
LINE
8
BLACK
6
CONTINUOUS
10
0.0974634
20
3.1012
11
0.0926896
21
3.10702
0
LINE
8
BLACK
6
CONTINUOUS
10
0.0926896
20
3.10702
11
0.0891424
21
3.11366
0
LINE
8
BLACK
6
CONTINUOUS
10
0.0891424
20
3.11366
11
0.086958
21
3.12086
0
LINE
8
BLACK
6
CONTINUOUS
10
0.086958
20
3.12086
11
0.0862205
21
3.12835
0
LINE
8
BLACK
6
CONTINUOUS
10
0.0862205
20
3.12835
11
0.086958
21
3.13583
0
LINE
8
BLACK
6
CONTINUOUS
10
0.086958
20
3.13583
11
0.0891424
21
3.14304
0
LINE
8
BLACK
6
CONTINUOUS
10
0.0891424
20
3.14304
11
0.0926896
21
3.14967
0
LINE
8
BLACK
6
CONTINUOUS
10
0.0926896
20
3.14967
11
0.0974634
21
3.15549
0
LINE
8
BLACK
6
CONTINUOUS
10
0.0974634
20
3.15549
11
0.10328
21
3.16026
0
LINE
8
BLACK
6
CONTINUOUS
10
0.10328
20
3.16026
11
0.109917
21
3.16381
0
LINE
8
BLACK
6
CONTINUOUS
10
0.109917
20
3.16381
11
0.117118
21
3.16599
0
LINE
8
BLACK
6
CONTINUOUS
10
0.117118
20
3.16599
11
0.124606
21
3.16673
0
LINE
8
BLACK
6
CONTINUOUS
10
0.124606
20
3.16673
11
0.132095
21
3.16599
0
LINE
8
BLACK
6
CONTINUOUS
10
0.832882
20
3.16599
11
0.840083
21
3.16381
0
LINE
8
BLACK
6
CONTINUOUS
10
0.840083
20
3.16381
11
0.84672
21
3.16026
0
LINE
8
BLACK
6
CONTINUOUS
10
0.84672
20
3.16026
11
0.852537
21
3.15549
0
LINE
8
BLACK
6
CONTINUOUS
10
0.852537
20
3.15549
11
0.85731
21
3.14967
0
LINE
8
BLACK
6
CONTINUOUS
10
0.85731
20
3.14967
11
0.860858
21
3.14304
0
LINE
8
BLACK
6
CONTINUOUS
10
0.860858
20
3.14304
11
0.863042
21
3.13583
0
LINE
8
BLACK
6
CONTINUOUS
10
0.863042
20
3.13583
11
0.86378
21
3.12835
0
LINE
8
BLACK
6
CONTINUOUS
10
0.86378
20
3.12835
11
0.863042
21
3.12086
0
LINE
8
BLACK
6
CONTINUOUS
10
0.863042
20
3.12086
11
0.860858
21
3.11366
0
LINE
8
BLACK
6
CONTINUOUS
10
0.860858
20
3.11366
11
0.85731
21
3.10702
0
LINE
8
BLACK
6
CONTINUOUS
10
0.85731
20
3.10702
11
0.852537
21
3.1012
0
LINE
8
BLACK
6
CONTINUOUS
10
0.852537
20
3.1012
11
0.84672
21
3.09643
0
LINE
8
BLACK
6
CONTINUOUS
10
0.84672
20
3.09643
11
0.840083
21
3.09288
0
LINE
8
BLACK
6
CONTINUOUS
10
0.840083
20
3.09288
11
0.832882
21
3.0907
0
LINE
8
BLACK
6
CONTINUOUS
10
0.832882
20
3.0907
11
0.825394
21
3.08996
0
LINE
8
BLACK
6
CONTINUOUS
10
0.825394
20
3.08996
11
0.817905
21
3.0907
0
LINE
8
BLACK
6
CONTINUOUS
10
0.817905
20
3.0907
11
0.810704
21
3.09288
0
LINE
8
BLACK
6
CONTINUOUS
10
0.810704
20
3.09288
11
0.804068
21
3.09643
0
LINE
8
BLACK
6
CONTINUOUS
10
0.804068
20
3.09643
11
0.798251
21
3.1012
0
LINE
8
BLACK
6
CONTINUOUS
10
0.798251
20
3.1012
11
0.793477
21
3.10702
0
LINE
8
BLACK
6
CONTINUOUS
10
0.793477
20
3.10702
11
0.78993
21
3.11366
0
LINE
8
BLACK
6
CONTINUOUS
10
0.78993
20
3.11366
11
0.787745
21
3.12086
0
LINE
8
BLACK
6
CONTINUOUS
10
0.787745
20
3.12086
11
0.787008
21
3.12835
0
LINE
8
BLACK
6
CONTINUOUS
10
0.787008
20
3.12835
11
0.787745
21
3.13583
0
LINE
8
BLACK
6
CONTINUOUS
10
0.787745
20
3.13583
11
0.78993
21
3.14304
0
LINE
8
BLACK
6
CONTINUOUS
10
0.78993
20
3.14304
11
0.793477
21
3.14967
0
LINE
8
BLACK
6
CONTINUOUS
10
0.793477
20
3.14967
11
0.798251
21
3.15549
0
LINE
8
BLACK
6
CONTINUOUS
10
0.798251
20
3.15549
11
0.804068
21
3.16026
0
LINE
8
BLACK
6
CONTINUOUS
10
0.804068
20
3.16026
11
0.810704
21
3.16381
0
LINE
8
BLACK
6
CONTINUOUS
10
0.810704
20
3.16381
11
0.817905
21
3.16599
0
LINE
8
BLACK
6
CONTINUOUS
10
0.817905
20
3.16599
11
0.825394
21
3.16673
0
LINE
8
BLACK
6
CONTINUOUS
10
0.825394
20
3.16673
11
0.832882
21
3.16599
0
LINE
8
BLACK
6
CONTINUOUS
10
1.88209
20
3.16599
11
1.8893
21
3.16381
0
LINE
8
BLACK
6
CONTINUOUS
10
1.8893
20
3.16381
11
1.89593
21
3.16026
0
LINE
8
BLACK
6
CONTINUOUS
10
1.89593
20
3.16026
11
1.90175
21
3.15549
0
LINE
8
BLACK
6
CONTINUOUS
10
1.90175
20
3.15549
11
1.90652
21
3.14967
0
LINE
8
BLACK
6
CONTINUOUS
10
1.90652
20
3.14967
11
1.91007
21
3.14304
0
LINE
8
BLACK
6
CONTINUOUS
10
1.91007
20
3.14304
11
1.91225
21
3.13583
0
LINE
8
BLACK
6
CONTINUOUS
10
1.91225
20
3.13583
11
1.91299
21
3.12835
0
LINE
8
BLACK
6
CONTINUOUS
10
1.91299
20
3.12835
11
1.91225
21
3.12086
0
LINE
8
BLACK
6
CONTINUOUS
10
1.91225
20
3.12086
11
1.91007
21
3.11366
0
LINE
8
BLACK
6
CONTINUOUS
10
1.91007
20
3.11366
11
1.90652
21
3.10702
0
LINE
8
BLACK
6
CONTINUOUS
10
1.90652
20
3.10702
11
1.90175
21
3.1012
0
LINE
8
BLACK
6
CONTINUOUS
10
1.90175
20
3.1012
11
1.89593
21
3.09643
0
LINE
8
BLACK
6
CONTINUOUS
10
1.89593
20
3.09643
11
1.8893
21
3.09288
0
LINE
8
BLACK
6
CONTINUOUS
10
1.8893
20
3.09288
11
1.88209
21
3.0907
0
LINE
8
BLACK
6
CONTINUOUS
10
1.88209
20
3.0907
11
1.87461
21
3.08996
0
LINE
8
BLACK
6
CONTINUOUS
10
1.87461
20
3.08996
11
1.86712
21
3.0907
0
LINE
8
BLACK
6
CONTINUOUS
10
1.86712
20
3.0907
11
1.85992
21
3.09288
0
LINE
8
BLACK
6
CONTINUOUS
10
1.85992
20
3.09288
11
1.85328
21
3.09643
0
LINE
8
BLACK
6
CONTINUOUS
10
1.85328
20
3.09643
11
1.84746
21
3.1012
0
LINE
8
BLACK
6
CONTINUOUS
10
1.84746
20
3.1012
11
1.84269
21
3.10702
0
LINE
8
BLACK
6
CONTINUOUS
10
1.84269
20
3.10702
11
1.83914
21
3.11366
0
LINE
8
BLACK
6
CONTINUOUS
10
1.83914
20
3.11366
11
1.83696
21
3.12086
0
LINE
8
BLACK
6
CONTINUOUS
10
1.83696
20
3.12086
11
1.83622
21
3.12835
0
LINE
8
BLACK
6
CONTINUOUS
10
1.83622
20
3.12835
11
1.83696
21
3.13583
0
LINE
8
BLACK
6
CONTINUOUS
10
1.83696
20
3.13583
11
1.83914
21
3.14304
0
LINE
8
BLACK
6
CONTINUOUS
10
1.83914
20
3.14304
11
1.84269
21
3.14967
0
LINE
8
BLACK
6
CONTINUOUS
10
1.84269
20
3.14967
11
1.84746
21
3.15549
0
LINE
8
BLACK
6
CONTINUOUS
10
1.84746
20
3.15549
11
1.85328
21
3.16026
0
LINE
8
BLACK
6
CONTINUOUS
10
1.85328
20
3.16026
11
1.85992
21
3.16381
0
LINE
8
BLACK
6
CONTINUOUS
10
1.85992
20
3.16381
11
1.86712
21
3.16599
0
LINE
8
BLACK
6
CONTINUOUS
10
1.86712
20
3.16599
11
1.87461
21
3.16673
0
LINE
8
BLACK
6
CONTINUOUS
10
1.87461
20
3.16673
11
1.88209
21
3.16599
0
LINE
8
BLACK
6
CONTINUOUS
10
2.58288
20
3.16599
11
2.59008
21
3.16381
0
LINE
8
BLACK
6
CONTINUOUS
10
2.59008
20
3.16381
11
2.59672
21
3.16026
0
LINE
8
BLACK
6
CONTINUOUS
10
2.59672
20
3.16026
11
2.60254
21
3.15549
0
LINE
8
BLACK
6
CONTINUOUS
10
2.60254
20
3.15549
11
2.60731
21
3.14967
0
LINE
8
BLACK
6
CONTINUOUS
10
2.60731
20
3.14967
11
2.61086
21
3.14304
0
LINE
8
BLACK
6
CONTINUOUS
10
2.61086
20
3.14304
11
2.61304
21
3.13583
0
LINE
8
BLACK
6
CONTINUOUS
10
2.61304
20
3.13583
11
2.61378
21
3.12835
0
LINE
8
BLACK
6
CONTINUOUS
10
2.61378
20
3.12835
11
2.61304
21
3.12086
0
LINE
8
BLACK
6
CONTINUOUS
10
2.61304
20
3.12086
11
2.61086
21
3.11366
0
LINE
8
BLACK
6
CONTINUOUS
10
2.61086
20
3.11366
11
2.60731
21
3.10702
0
LINE
8
BLACK
6
CONTINUOUS
10
2.60731
20
3.10702
11
2.60254
21
3.1012
0
LINE
8
BLACK
6
CONTINUOUS
10
2.60254
20
3.1012
11
2.59672
21
3.09643
0
LINE
8
BLACK
6
CONTINUOUS
10
2.59672
20
3.09643
11
2.59008
21
3.09288
0
LINE
8
BLACK
6
CONTINUOUS
10
2.59008
20
3.09288
11
2.58288
21
3.0907
0
LINE
8
BLACK
6
CONTINUOUS
10
2.58288
20
3.0907
11
2.57539
21
3.08996
0
LINE
8
BLACK
6
CONTINUOUS
10
2.57539
20
3.08996
11
2.56791
21
3.0907
0
LINE
8
BLACK
6
CONTINUOUS
10
2.56791
20
3.0907
11
2.5607
21
3.09288
0
LINE
8
BLACK
6
CONTINUOUS
10
2.5607
20
3.09288
11
2.55407
21
3.09643
0
LINE
8
BLACK
6
CONTINUOUS
10
2.55407
20
3.09643
11
2.54825
21
3.1012
0
LINE
8
BLACK
6
CONTINUOUS
10
2.54825
20
3.1012
11
2.54348
21
3.10702
0
LINE
8
BLACK
6
CONTINUOUS
10
2.54348
20
3.10702
11
2.53993
21
3.11366
0
LINE
8
BLACK
6
CONTINUOUS
10
2.53993
20
3.11366
11
2.53775
21
3.12086
0
LINE
8
BLACK
6
CONTINUOUS
10
2.53775
20
3.12086
11
2.53701
21
3.12835
0
LINE
8
BLACK
6
CONTINUOUS
10
2.53701
20
3.12835
11
2.53775
21
3.13583
0
LINE
8
BLACK
6
CONTINUOUS
10
2.53775
20
3.13583
11
2.53993
21
3.14304
0
LINE
8
BLACK
6
CONTINUOUS
10
2.53993
20
3.14304
11
2.54348
21
3.14967
0
LINE
8
BLACK
6
CONTINUOUS
10
2.54348
20
3.14967
11
2.54825
21
3.15549
0
LINE
8
BLACK
6
CONTINUOUS
10
2.54825
20
3.15549
11
2.55407
21
3.16026
0
LINE
8
BLACK
6
CONTINUOUS
10
2.55407
20
3.16026
11
2.5607
21
3.16381
0
LINE
8
BLACK
6
CONTINUOUS
10
2.5607
20
3.16381
11
2.56791
21
3.16599
0
LINE
8
BLACK
6
CONTINUOUS
10
2.56791
20
3.16599
11
2.57539
21
3.16673
0
LINE
8
BLACK
6
CONTINUOUS
10
2.57539
20
3.16673
11
2.58288
21
3.16599
0
LINE
8
BLACK
6
CONTINUOUS
10
2.86075
20
3.22691
11
2.86966
21
3.22385
0
LINE
8
BLACK
6
CONTINUOUS
10
2.86966
20
3.22385
11
2.87796
21
3.21937
0
LINE
8
BLACK
6
CONTINUOUS
10
2.87796
20
3.21937
11
2.8854
21
3.21357
0
LINE
8
BLACK
6
CONTINUOUS
10
2.8854
20
3.21357
11
2.89178
21
3.20664
0
LINE
8
BLACK
6
CONTINUOUS
10
2.89178
20
3.20664
11
2.89694
21
3.19875
0
LINE
8
BLACK
6
CONTINUOUS
10
2.89694
20
3.19875
11
2.90073
21
3.19011
0
LINE
8
BLACK
6
CONTINUOUS
10
2.90073
20
3.19011
11
2.90304
21
3.18097
0
LINE
8
BLACK
6
CONTINUOUS
10
2.90304
20
3.18097
11
2.90382
21
3.17157
0
LINE
8
BLACK
6
CONTINUOUS
10
2.90382
20
3.17157
11
2.90304
21
3.16218
0
LINE
8
BLACK
6
CONTINUOUS
10
2.90304
20
3.16218
11
2.90073
21
3.15304
0
LINE
8
BLACK
6
CONTINUOUS
10
2.90073
20
3.15304
11
2.89694
21
3.1444
0
LINE
8
BLACK
6
CONTINUOUS
10
2.89694
20
3.1444
11
2.89178
21
3.13651
0
LINE
8
BLACK
6
CONTINUOUS
10
2.89178
20
3.13651
11
2.8854
21
3.12957
0
LINE
8
BLACK
6
CONTINUOUS
10
2.8854
20
3.12957
11
2.87796
21
3.12378
0
LINE
8
BLACK
6
CONTINUOUS
10
2.87796
20
3.12378
11
2.86966
21
3.1193
0
LINE
8
BLACK
6
CONTINUOUS
10
2.86966
20
3.1193
11
2.86075
21
3.11624
0
LINE
8
BLACK
6
CONTINUOUS
10
2.86075
20
3.11624
11
2.85145
21
3.11468
0
LINE
8
BLACK
6
CONTINUOUS
10
2.85145
20
3.11468
11
2.84202
21
3.11468
0
LINE
8
BLACK
6
CONTINUOUS
10
2.84202
20
3.11468
11
2.83272
21
3.11624
0
LINE
8
BLACK
6
CONTINUOUS
10
2.83272
20
3.11624
11
2.8238
21
3.1193
0
LINE
8
BLACK
6
CONTINUOUS
10
2.8238
20
3.1193
11
2.81551
21
3.12378
0
LINE
8
BLACK
6
CONTINUOUS
10
2.81551
20
3.12378
11
2.80807
21
3.12957
0
LINE
8
BLACK
6
CONTINUOUS
10
2.80807
20
3.12957
11
2.80168
21
3.13651
0
LINE
8
BLACK
6
CONTINUOUS
10
2.80168
20
3.13651
11
2.79653
21
3.1444
0
LINE
8
BLACK
6
CONTINUOUS
10
2.79653
20
3.1444
11
2.79274
21
3.15304
0
LINE
8
BLACK
6
CONTINUOUS
10
2.79274
20
3.15304
11
2.79042
21
3.16218
0
LINE
8
BLACK
6
CONTINUOUS
10
2.79042
20
3.16218
11
2.78965
21
3.17157
0
LINE
8
BLACK
6
CONTINUOUS
10
2.78965
20
3.17157
11
2.79042
21
3.18097
0
LINE
8
BLACK
6
CONTINUOUS
10
2.79042
20
3.18097
11
2.79274
21
3.19011
0
LINE
8
BLACK
6
CONTINUOUS
10
2.79274
20
3.19011
11
2.79653
21
3.19875
0
LINE
8
BLACK
6
CONTINUOUS
10
2.79653
20
3.19875
11
2.80168
21
3.20664
0
LINE
8
BLACK
6
CONTINUOUS
10
2.80168
20
3.20664
11
2.80807
21
3.21357
0
LINE
8
BLACK
6
CONTINUOUS
10
2.80807
20
3.21357
11
2.81551
21
3.21937
0
LINE
8
BLACK
6
CONTINUOUS
10
2.81551
20
3.21937
11
2.8238
21
3.22385
0
LINE
8
BLACK
6
CONTINUOUS
10
2.8238
20
3.22385
11
2.83272
21
3.22691
0
LINE
8
BLACK
6
CONTINUOUS
10
2.83272
20
3.22691
11
2.84202
21
3.22847
0
LINE
8
BLACK
6
CONTINUOUS
10
2.84202
20
3.22847
11
2.85145
21
3.22847
0
LINE
8
BLACK
6
CONTINUOUS
10
2.85145
20
3.22847
11
2.86075
21
3.22691
0
LINE
8
BLACK
6
CONTINUOUS
10
3.36586
20
3.26628
11
3.37478
21
3.26322
0
LINE
8
BLACK
6
CONTINUOUS
10
3.37478
20
3.26322
11
3.38307
21
3.25874
0
LINE
8
BLACK
6
CONTINUOUS
10
3.38307
20
3.25874
11
3.39051
21
3.25294
0
LINE
8
BLACK
6
CONTINUOUS
10
3.39051
20
3.25294
11
3.3969
21
3.24601
0
LINE
8
BLACK
6
CONTINUOUS
10
3.3969
20
3.24601
11
3.40206
21
3.23812
0
LINE
8
BLACK
6
CONTINUOUS
10
3.40206
20
3.23812
11
3.40584
21
3.22948
0
LINE
8
BLACK
6
CONTINUOUS
10
3.40584
20
3.22948
11
3.40816
21
3.22034
0
LINE
8
BLACK
6
CONTINUOUS
10
3.40816
20
3.22034
11
3.40894
21
3.21094
0
LINE
8
BLACK
6
CONTINUOUS
10
3.40894
20
3.21094
11
3.40816
21
3.20155
0
LINE
8
BLACK
6
CONTINUOUS
10
3.40816
20
3.20155
11
3.40584
21
3.19241
0
LINE
8
BLACK
6
CONTINUOUS
10
3.40584
20
3.19241
11
3.40206
21
3.18377
0
LINE
8
BLACK
6
CONTINUOUS
10
3.40206
20
3.18377
11
3.3969
21
3.17588
0
LINE
8
BLACK
6
CONTINUOUS
10
3.3969
20
3.17588
11
3.39051
21
3.16894
0
LINE
8
BLACK
6
CONTINUOUS
10
3.39051
20
3.16894
11
3.38307
21
3.16315
0
LINE
8
BLACK
6
CONTINUOUS
10
3.38307
20
3.16315
11
3.37478
21
3.15867
0
LINE
8
BLACK
6
CONTINUOUS
10
3.37478
20
3.15867
11
3.36586
21
3.15561
0
LINE
8
BLACK
6
CONTINUOUS
10
3.36586
20
3.15561
11
3.35656
21
3.15405
0
LINE
8
BLACK
6
CONTINUOUS
10
3.35656
20
3.15405
11
3.34714
21
3.15405
0
LINE
8
BLACK
6
CONTINUOUS
10
3.34714
20
3.15405
11
3.33784
21
3.15561
0
LINE
8
BLACK
6
CONTINUOUS
10
3.33784
20
3.15561
11
3.32892
21
3.15867
0
LINE
8
BLACK
6
CONTINUOUS
10
3.32892
20
3.15867
11
3.32063
21
3.16315
0
LINE
8
BLACK
6
CONTINUOUS
10
3.32063
20
3.16315
11
3.31319
21
3.16894
0
LINE
8
BLACK
6
CONTINUOUS
10
3.31319
20
3.16894
11
3.3068
21
3.17588
0
LINE
8
BLACK
6
CONTINUOUS
10
3.3068
20
3.17588
11
3.30164
21
3.18377
0
LINE
8
BLACK
6
CONTINUOUS
10
3.30164
20
3.18377
11
3.29786
21
3.19241
0
LINE
8
BLACK
6
CONTINUOUS
10
3.29786
20
3.19241
11
3.29554
21
3.20155
0
LINE
8
BLACK
6
CONTINUOUS
10
3.29554
20
3.20155
11
3.29476
21
3.21094
0
LINE
8
BLACK
6
CONTINUOUS
10
3.29476
20
3.21094
11
3.29554
21
3.22034
0
LINE
8
BLACK
6
CONTINUOUS
10
3.29554
20
3.22034
11
3.29786
21
3.22948
0
LINE
8
BLACK
6
CONTINUOUS
10
3.29786
20
3.22948
11
3.30164
21
3.23812
0
LINE
8
BLACK
6
CONTINUOUS
10
3.30164
20
3.23812
11
3.3068
21
3.24601
0
LINE
8
BLACK
6
CONTINUOUS
10
3.3068
20
3.24601
11
3.31319
21
3.25294
0
LINE
8
BLACK
6
CONTINUOUS
10
3.31319
20
3.25294
11
3.32063
21
3.25874
0
LINE
8
BLACK
6
CONTINUOUS
10
3.32063
20
3.25874
11
3.32892
21
3.26322
0
LINE
8
BLACK
6
CONTINUOUS
10
3.32892
20
3.26322
11
3.33784
21
3.26628
0
LINE
8
BLACK
6
CONTINUOUS
10
3.33784
20
3.26628
11
3.34714
21
3.26784
0
LINE
8
BLACK
6
CONTINUOUS
10
3.34714
20
3.26784
11
3.35656
21
3.26784
0
LINE
8
BLACK
6
CONTINUOUS
10
3.35656
20
3.26784
11
3.36586
21
3.26628
0
LINE
8
BLACK
6
CONTINUOUS
10
0.132095
20
3.24592
11
0.139296
21
3.24373
0
LINE
8
BLACK
6
CONTINUOUS
10
0.139296
20
3.24373
11
0.145932
21
3.24018
0
LINE
8
BLACK
6
CONTINUOUS
10
0.145932
20
3.24018
11
0.151749
21
3.23541
0
LINE
8
BLACK
6
CONTINUOUS
10
0.151749
20
3.23541
11
0.156523
21
3.22959
0
LINE
8
BLACK
6
CONTINUOUS
10
0.156523
20
3.22959
11
0.16007
21
3.22296
0
LINE
8
BLACK
6
CONTINUOUS
10
0.16007
20
3.22296
11
0.162255
21
3.21576
0
LINE
8
BLACK
6
CONTINUOUS
10
0.162255
20
3.21576
11
0.162992
21
3.20827
0
LINE
8
BLACK
6
CONTINUOUS
10
0.162992
20
3.20827
11
0.162255
21
3.20078
0
LINE
8
BLACK
6
CONTINUOUS
10
0.162255
20
3.20078
11
0.16007
21
3.19358
0
LINE
8
BLACK
6
CONTINUOUS
10
0.16007
20
3.19358
11
0.156523
21
3.18694
0
LINE
8
BLACK
6
CONTINUOUS
10
0.156523
20
3.18694
11
0.151749
21
3.18112
0
LINE
8
BLACK
6
CONTINUOUS
10
0.151749
20
3.18112
11
0.145932
21
3.17635
0
LINE
8
BLACK
6
CONTINUOUS
10
0.145932
20
3.17635
11
0.139296
21
3.1728
0
LINE
8
BLACK
6
CONTINUOUS
10
0.139296
20
3.1728
11
0.132095
21
3.17062
0
LINE
8
BLACK
6
CONTINUOUS
10
0.132095
20
3.17062
11
0.124606
21
3.16988
0
LINE
8
BLACK
6
CONTINUOUS
10
0.124606
20
3.16988
11
0.117118
21
3.17062
0
LINE
8
BLACK
6
CONTINUOUS
10
0.117118
20
3.17062
11
0.109917
21
3.1728
0
LINE
8
BLACK
6
CONTINUOUS
10
0.109917
20
3.1728
11
0.10328
21
3.17635
0
LINE
8
BLACK
6
CONTINUOUS
10
0.10328
20
3.17635
11
0.0974634
21
3.18112
0
LINE
8
BLACK
6
CONTINUOUS
10
0.0974634
20
3.18112
11
0.0926896
21
3.18694
0
LINE
8
BLACK
6
CONTINUOUS
10
0.0926896
20
3.18694
11
0.0891424
21
3.19358
0
LINE
8
BLACK
6
CONTINUOUS
10
0.0891424
20
3.19358
11
0.086958
21
3.20078
0
LINE
8
BLACK
6
CONTINUOUS
10
0.086958
20
3.20078
11
0.0862205
21
3.20827
0
LINE
8
BLACK
6
CONTINUOUS
10
0.0862205
20
3.20827
11
0.086958
21
3.21576
0
LINE
8
BLACK
6
CONTINUOUS
10
0.086958
20
3.21576
11
0.0891424
21
3.22296
0
LINE
8
BLACK
6
CONTINUOUS
10
0.0891424
20
3.22296
11
0.0926896
21
3.22959
0
LINE
8
BLACK
6
CONTINUOUS
10
0.0926896
20
3.22959
11
0.0974634
21
3.23541
0
LINE
8
BLACK
6
CONTINUOUS
10
0.0974634
20
3.23541
11
0.10328
21
3.24018
0
LINE
8
BLACK
6
CONTINUOUS
10
0.10328
20
3.24018
11
0.109917
21
3.24373
0
LINE
8
BLACK
6
CONTINUOUS
10
0.109917
20
3.24373
11
0.117118
21
3.24592
0
LINE
8
BLACK
6
CONTINUOUS
10
0.117118
20
3.24592
11
0.124606
21
3.24665
0
LINE
8
BLACK
6
CONTINUOUS
10
0.124606
20
3.24665
11
0.132095
21
3.24592
0
LINE
8
BLACK
6
CONTINUOUS
10
0.832882
20
3.24592
11
0.840083
21
3.24373
0
LINE
8
BLACK
6
CONTINUOUS
10
0.840083
20
3.24373
11
0.84672
21
3.24018
0
LINE
8
BLACK
6
CONTINUOUS
10
0.84672
20
3.24018
11
0.852537
21
3.23541
0
LINE
8
BLACK
6
CONTINUOUS
10
0.852537
20
3.23541
11
0.85731
21
3.22959
0
LINE
8
BLACK
6
CONTINUOUS
10
0.85731
20
3.22959
11
0.860858
21
3.22296
0
LINE
8
BLACK
6
CONTINUOUS
10
0.860858
20
3.22296
11
0.863042
21
3.21576
0
LINE
8
BLACK
6
CONTINUOUS
10
0.863042
20
3.21576
11
0.86378
21
3.20827
0
LINE
8
BLACK
6
CONTINUOUS
10
0.86378
20
3.20827
11
0.863042
21
3.20078
0
LINE
8
BLACK
6
CONTINUOUS
10
0.863042
20
3.20078
11
0.860858
21
3.19358
0
LINE
8
BLACK
6
CONTINUOUS
10
0.860858
20
3.19358
11
0.85731
21
3.18694
0
LINE
8
BLACK
6
CONTINUOUS
10
0.85731
20
3.18694
11
0.852537
21
3.18112
0
LINE
8
BLACK
6
CONTINUOUS
10
0.852537
20
3.18112
11
0.84672
21
3.17635
0
LINE
8
BLACK
6
CONTINUOUS
10
0.84672
20
3.17635
11
0.840083
21
3.1728
0
LINE
8
BLACK
6
CONTINUOUS
10
0.840083
20
3.1728
11
0.832882
21
3.17062
0
LINE
8
BLACK
6
CONTINUOUS
10
0.832882
20
3.17062
11
0.825394
21
3.16988
0
LINE
8
BLACK
6
CONTINUOUS
10
0.825394
20
3.16988
11
0.817905
21
3.17062
0
LINE
8
BLACK
6
CONTINUOUS
10
0.817905
20
3.17062
11
0.810704
21
3.1728
0
LINE
8
BLACK
6
CONTINUOUS
10
0.810704
20
3.1728
11
0.804068
21
3.17635
0
LINE
8
BLACK
6
CONTINUOUS
10
0.804068
20
3.17635
11
0.798251
21
3.18112
0
LINE
8
BLACK
6
CONTINUOUS
10
0.798251
20
3.18112
11
0.793477
21
3.18694
0
LINE
8
BLACK
6
CONTINUOUS
10
0.793477
20
3.18694
11
0.78993
21
3.19358
0
LINE
8
BLACK
6
CONTINUOUS
10
0.78993
20
3.19358
11
0.787745
21
3.20078
0
LINE
8
BLACK
6
CONTINUOUS
10
0.787745
20
3.20078
11
0.787008
21
3.20827
0
LINE
8
BLACK
6
CONTINUOUS
10
0.787008
20
3.20827
11
0.787745
21
3.21576
0
LINE
8
BLACK
6
CONTINUOUS
10
0.787745
20
3.21576
11
0.78993
21
3.22296
0
LINE
8
BLACK
6
CONTINUOUS
10
0.78993
20
3.22296
11
0.793477
21
3.22959
0
LINE
8
BLACK
6
CONTINUOUS
10
0.793477
20
3.22959
11
0.798251
21
3.23541
0
LINE
8
BLACK
6
CONTINUOUS
10
0.798251
20
3.23541
11
0.804068
21
3.24018
0
LINE
8
BLACK
6
CONTINUOUS
10
0.804068
20
3.24018
11
0.810704
21
3.24373
0
LINE
8
BLACK
6
CONTINUOUS
10
0.810704
20
3.24373
11
0.817905
21
3.24592
0
LINE
8
BLACK
6
CONTINUOUS
10
0.817905
20
3.24592
11
0.825394
21
3.24665
0
LINE
8
BLACK
6
CONTINUOUS
10
0.825394
20
3.24665
11
0.832882
21
3.24592
0
LINE
8
BLACK
6
CONTINUOUS
10
1.88209
20
3.24592
11
1.8893
21
3.24373
0
LINE
8
BLACK
6
CONTINUOUS
10
1.8893
20
3.24373
11
1.89593
21
3.24018
0
LINE
8
BLACK
6
CONTINUOUS
10
1.89593
20
3.24018
11
1.90175
21
3.23541
0
LINE
8
BLACK
6
CONTINUOUS
10
1.90175
20
3.23541
11
1.90652
21
3.22959
0
LINE
8
BLACK
6
CONTINUOUS
10
1.90652
20
3.22959
11
1.91007
21
3.22296
0
LINE
8
BLACK
6
CONTINUOUS
10
1.91007
20
3.22296
11
1.91225
21
3.21576
0
LINE
8
BLACK
6
CONTINUOUS
10
1.91225
20
3.21576
11
1.91299
21
3.20827
0
LINE
8
BLACK
6
CONTINUOUS
10
1.91299
20
3.20827
11
1.91225
21
3.20078
0
LINE
8
BLACK
6
CONTINUOUS
10
1.91225
20
3.20078
11
1.91007
21
3.19358
0
LINE
8
BLACK
6
CONTINUOUS
10
1.91007
20
3.19358
11
1.90652
21
3.18694
0
LINE
8
BLACK
6
CONTINUOUS
10
1.90652
20
3.18694
11
1.90175
21
3.18112
0
LINE
8
BLACK
6
CONTINUOUS
10
1.90175
20
3.18112
11
1.89593
21
3.17635
0
LINE
8
BLACK
6
CONTINUOUS
10
1.89593
20
3.17635
11
1.8893
21
3.1728
0
LINE
8
BLACK
6
CONTINUOUS
10
1.8893
20
3.1728
11
1.88209
21
3.17062
0
LINE
8
BLACK
6
CONTINUOUS
10
1.88209
20
3.17062
11
1.87461
21
3.16988
0
LINE
8
BLACK
6
CONTINUOUS
10
1.87461
20
3.16988
11
1.86712
21
3.17062
0
LINE
8
BLACK
6
CONTINUOUS
10
1.86712
20
3.17062
11
1.85992
21
3.1728
0
LINE
8
BLACK
6
CONTINUOUS
10
1.85992
20
3.1728
11
1.85328
21
3.17635
0
LINE
8
BLACK
6
CONTINUOUS
10
1.85328
20
3.17635
11
1.84746
21
3.18112
0
LINE
8
BLACK
6
CONTINUOUS
10
1.84746
20
3.18112
11
1.84269
21
3.18694
0
LINE
8
BLACK
6
CONTINUOUS
10
1.84269
20
3.18694
11
1.83914
21
3.19358
0
LINE
8
BLACK
6
CONTINUOUS
10
1.83914
20
3.19358
11
1.83696
21
3.20078
0
LINE
8
BLACK
6
CONTINUOUS
10
1.83696
20
3.20078
11
1.83622
21
3.20827
0
LINE
8
BLACK
6
CONTINUOUS
10
1.83622
20
3.20827
11
1.83696
21
3.21576
0
LINE
8
BLACK
6
CONTINUOUS
10
1.83696
20
3.21576
11
1.83914
21
3.22296
0
LINE
8
BLACK
6
CONTINUOUS
10
1.83914
20
3.22296
11
1.84269
21
3.22959
0
LINE
8
BLACK
6
CONTINUOUS
10
1.84269
20
3.22959
11
1.84746
21
3.23541
0
LINE
8
BLACK
6
CONTINUOUS
10
1.84746
20
3.23541
11
1.85328
21
3.24018
0
LINE
8
BLACK
6
CONTINUOUS
10
1.85328
20
3.24018
11
1.85992
21
3.24373
0
LINE
8
BLACK
6
CONTINUOUS
10
1.85992
20
3.24373
11
1.86712
21
3.24592
0
LINE
8
BLACK
6
CONTINUOUS
10
1.86712
20
3.24592
11
1.87461
21
3.24665
0
LINE
8
BLACK
6
CONTINUOUS
10
1.87461
20
3.24665
11
1.88209
21
3.24592
0
LINE
8
BLACK
6
CONTINUOUS
10
2.58288
20
3.24592
11
2.59008
21
3.24373
0
LINE
8
BLACK
6
CONTINUOUS
10
2.59008
20
3.24373
11
2.59672
21
3.24018
0
LINE
8
BLACK
6
CONTINUOUS
10
2.59672
20
3.24018
11
2.60254
21
3.23541
0
LINE
8
BLACK
6
CONTINUOUS
10
2.60254
20
3.23541
11
2.60731
21
3.22959
0
LINE
8
BLACK
6
CONTINUOUS
10
2.60731
20
3.22959
11
2.61086
21
3.22296
0
LINE
8
BLACK
6
CONTINUOUS
10
2.61086
20
3.22296
11
2.61304
21
3.21576
0
LINE
8
BLACK
6
CONTINUOUS
10
2.61304
20
3.21576
11
2.61378
21
3.20827
0
LINE
8
BLACK
6
CONTINUOUS
10
2.61378
20
3.20827
11
2.61304
21
3.20078
0
LINE
8
BLACK
6
CONTINUOUS
10
2.61304
20
3.20078
11
2.61086
21
3.19358
0
LINE
8
BLACK
6
CONTINUOUS
10
2.61086
20
3.19358
11
2.60731
21
3.18694
0
LINE
8
BLACK
6
CONTINUOUS
10
2.60731
20
3.18694
11
2.60254
21
3.18112
0
LINE
8
BLACK
6
CONTINUOUS
10
2.60254
20
3.18112
11
2.59672
21
3.17635
0
LINE
8
BLACK
6
CONTINUOUS
10
2.59672
20
3.17635
11
2.59008
21
3.1728
0
LINE
8
BLACK
6
CONTINUOUS
10
2.59008
20
3.1728
11
2.58288
21
3.17062
0
LINE
8
BLACK
6
CONTINUOUS
10
2.58288
20
3.17062
11
2.57539
21
3.16988
0
LINE
8
BLACK
6
CONTINUOUS
10
2.57539
20
3.16988
11
2.56791
21
3.17062
0
LINE
8
BLACK
6
CONTINUOUS
10
2.56791
20
3.17062
11
2.5607
21
3.1728
0
LINE
8
BLACK
6
CONTINUOUS
10
2.5607
20
3.1728
11
2.55407
21
3.17635
0
LINE
8
BLACK
6
CONTINUOUS
10
2.55407
20
3.17635
11
2.54825
21
3.18112
0
LINE
8
BLACK
6
CONTINUOUS
10
2.54825
20
3.18112
11
2.54348
21
3.18694
0
LINE
8
BLACK
6
CONTINUOUS
10
2.54348
20
3.18694
11
2.53993
21
3.19358
0
LINE
8
BLACK
6
CONTINUOUS
10
2.53993
20
3.19358
11
2.53775
21
3.20078
0
LINE
8
BLACK
6
CONTINUOUS
10
2.53775
20
3.20078
11
2.53701
21
3.20827
0
LINE
8
BLACK
6
CONTINUOUS
10
2.53701
20
3.20827
11
2.53775
21
3.21576
0
LINE
8
BLACK
6
CONTINUOUS
10
2.53775
20
3.21576
11
2.53993
21
3.22296
0
LINE
8
BLACK
6
CONTINUOUS
10
2.53993
20
3.22296
11
2.54348
21
3.22959
0
LINE
8
BLACK
6
CONTINUOUS
10
2.54348
20
3.22959
11
2.54825
21
3.23541
0
LINE
8
BLACK
6
CONTINUOUS
10
2.54825
20
3.23541
11
2.55407
21
3.24018
0
LINE
8
BLACK
6
CONTINUOUS
10
2.55407
20
3.24018
11
2.5607
21
3.24373
0
LINE
8
BLACK
6
CONTINUOUS
10
2.5607
20
3.24373
11
2.56791
21
3.24592
0
LINE
8
BLACK
6
CONTINUOUS
10
2.56791
20
3.24592
11
2.57539
21
3.24665
0
LINE
8
BLACK
6
CONTINUOUS
10
2.57539
20
3.24665
11
2.58288
21
3.24592
0
LINE
8
BLACK
6
CONTINUOUS
10
3.06013
20
3.24396
11
3.0667
21
3.24199
0
LINE
8
BLACK
6
CONTINUOUS
10
3.0667
20
3.24199
11
3.07263
21
3.23857
0
LINE
8
BLACK
6
CONTINUOUS
10
3.07263
20
3.23857
11
3.07762
21
3.23386
0
LINE
8
BLACK
6
CONTINUOUS
10
3.07762
20
3.23386
11
3.08139
21
3.22813
0
LINE
8
BLACK
6
CONTINUOUS
10
3.08139
20
3.22813
11
3.08373
21
3.22169
0
LINE
8
BLACK
6
CONTINUOUS
10
3.08373
20
3.22169
11
3.08453
21
3.21488
0
LINE
8
BLACK
6
CONTINUOUS
10
3.08453
20
3.21488
11
3.08453
21
3.20701
0
LINE
8
BLACK
6
CONTINUOUS
10
3.08453
20
3.20701
11
3.08433
21
3.20358
0
LINE
8
BLACK
6
CONTINUOUS
10
3.08433
20
3.20358
11
3.08275
21
3.19691
0
LINE
8
BLACK
6
CONTINUOUS
10
3.08275
20
3.19691
11
3.07967
21
3.19078
0
LINE
8
BLACK
6
CONTINUOUS
10
3.07967
20
3.19078
11
3.07526
21
3.18553
0
LINE
8
BLACK
6
CONTINUOUS
10
3.07526
20
3.18553
11
3.06976
21
3.18144
0
LINE
8
BLACK
6
CONTINUOUS
10
3.06976
20
3.18144
11
3.06347
21
3.17872
0
LINE
8
BLACK
6
CONTINUOUS
10
3.06347
20
3.17872
11
3.05672
21
3.17753
0
LINE
8
BLACK
6
CONTINUOUS
10
3.05672
20
3.17753
11
3.04987
21
3.17793
0
LINE
8
BLACK
6
CONTINUOUS
10
3.04987
20
3.17793
11
3.0433
21
3.1799
0
LINE
8
BLACK
6
CONTINUOUS
10
3.0433
20
3.1799
11
3.03737
21
3.18332
0
LINE
8
BLACK
6
CONTINUOUS
10
3.03737
20
3.18332
11
3.03238
21
3.18803
0
LINE
8
BLACK
6
CONTINUOUS
10
3.03238
20
3.18803
11
3.03006
21
3.19156
0
LINE
8
BLACK
6
CONTINUOUS
10
3.03006
20
3.19156
11
3.02967
21
3.19078
0
LINE
8
BLACK
6
CONTINUOUS
10
3.02967
20
3.19078
11
3.02526
21
3.18553
0
LINE
8
BLACK
6
CONTINUOUS
10
3.02526
20
3.18553
11
3.01976
21
3.18144
0
LINE
8
BLACK
6
CONTINUOUS
10
3.01976
20
3.18144
11
3.01347
21
3.17872
0
LINE
8
BLACK
6
CONTINUOUS
10
3.01347
20
3.17872
11
3.00672
21
3.17753
0
LINE
8
BLACK
6
CONTINUOUS
10
3.00672
20
3.17753
11
2.99987
21
3.17793
0
LINE
8
BLACK
6
CONTINUOUS
10
2.99987
20
3.17793
11
2.9933
21
3.1799
0
LINE
8
BLACK
6
CONTINUOUS
10
2.9933
20
3.1799
11
2.98737
21
3.18332
0
LINE
8
BLACK
6
CONTINUOUS
10
2.98737
20
3.18332
11
2.98238
21
3.18803
0
LINE
8
BLACK
6
CONTINUOUS
10
2.98238
20
3.18803
11
2.97861
21
3.19376
0
LINE
8
BLACK
6
CONTINUOUS
10
2.97861
20
3.19376
11
2.97627
21
3.2002
0
LINE
8
BLACK
6
CONTINUOUS
10
2.97627
20
3.2002
11
2.97547
21
3.20701
0
LINE
8
BLACK
6
CONTINUOUS
10
2.97547
20
3.20701
11
2.97547
21
3.21488
0
LINE
8
BLACK
6
CONTINUOUS
10
2.97547
20
3.21488
11
2.97567
21
3.21831
0
LINE
8
BLACK
6
CONTINUOUS
10
2.97567
20
3.21831
11
2.97725
21
3.22498
0
LINE
8
BLACK
6
CONTINUOUS
10
2.97725
20
3.22498
11
2.98033
21
3.23111
0
LINE
8
BLACK
6
CONTINUOUS
10
2.98033
20
3.23111
11
2.98474
21
3.23636
0
LINE
8
BLACK
6
CONTINUOUS
10
2.98474
20
3.23636
11
2.99024
21
3.24045
0
LINE
8
BLACK
6
CONTINUOUS
10
2.99024
20
3.24045
11
2.99653
21
3.24317
0
LINE
8
BLACK
6
CONTINUOUS
10
2.99653
20
3.24317
11
3.00328
21
3.24436
0
LINE
8
BLACK
6
CONTINUOUS
10
3.00328
20
3.24436
11
3.01013
21
3.24396
0
LINE
8
BLACK
6
CONTINUOUS
10
3.01013
20
3.24396
11
3.0167
21
3.24199
0
LINE
8
BLACK
6
CONTINUOUS
10
3.0167
20
3.24199
11
3.02263
21
3.23857
0
LINE
8
BLACK
6
CONTINUOUS
10
3.02263
20
3.23857
11
3.02762
21
3.23386
0
LINE
8
BLACK
6
CONTINUOUS
10
3.02762
20
3.23386
11
3.02994
21
3.23033
0
LINE
8
BLACK
6
CONTINUOUS
10
3.02994
20
3.23033
11
3.03033
21
3.23111
0
LINE
8
BLACK
6
CONTINUOUS
10
3.03033
20
3.23111
11
3.03474
21
3.23636
0
LINE
8
BLACK
6
CONTINUOUS
10
3.03474
20
3.23636
11
3.04024
21
3.24045
0
LINE
8
BLACK
6
CONTINUOUS
10
3.04024
20
3.24045
11
3.04653
21
3.24317
0
LINE
8
BLACK
6
CONTINUOUS
10
3.04653
20
3.24317
11
3.05328
21
3.24436
0
LINE
8
BLACK
6
CONTINUOUS
10
3.05328
20
3.24436
11
3.06013
21
3.24396
0
LINE
8
BLACK
6
CONTINUOUS
10
3.21013
20
3.24396
11
3.2167
21
3.24199
0
LINE
8
BLACK
6
CONTINUOUS
10
3.2167
20
3.24199
11
3.22263
21
3.23857
0
LINE
8
BLACK
6
CONTINUOUS
10
3.22263
20
3.23857
11
3.22762
21
3.23386
0
LINE
8
BLACK
6
CONTINUOUS
10
3.22762
20
3.23386
11
3.23139
21
3.22813
0
LINE
8
BLACK
6
CONTINUOUS
10
3.23139
20
3.22813
11
3.23373
21
3.22169
0
LINE
8
BLACK
6
CONTINUOUS
10
3.23373
20
3.22169
11
3.23453
21
3.21488
0
LINE
8
BLACK
6
CONTINUOUS
10
3.23453
20
3.21488
11
3.23453
21
3.20701
0
LINE
8
BLACK
6
CONTINUOUS
10
3.23453
20
3.20701
11
3.23433
21
3.20358
0
LINE
8
BLACK
6
CONTINUOUS
10
3.23433
20
3.20358
11
3.23275
21
3.19691
0
LINE
8
BLACK
6
CONTINUOUS
10
3.23275
20
3.19691
11
3.22967
21
3.19078
0
LINE
8
BLACK
6
CONTINUOUS
10
3.22967
20
3.19078
11
3.22526
21
3.18553
0
LINE
8
BLACK
6
CONTINUOUS
10
3.22526
20
3.18553
11
3.21976
21
3.18144
0
LINE
8
BLACK
6
CONTINUOUS
10
3.21976
20
3.18144
11
3.21347
21
3.17872
0
LINE
8
BLACK
6
CONTINUOUS
10
3.21347
20
3.17872
11
3.20672
21
3.17753
0
LINE
8
BLACK
6
CONTINUOUS
10
3.20672
20
3.17753
11
3.19987
21
3.17793
0
LINE
8
BLACK
6
CONTINUOUS
10
3.19987
20
3.17793
11
3.1933
21
3.1799
0
LINE
8
BLACK
6
CONTINUOUS
10
3.1933
20
3.1799
11
3.18737
21
3.18332
0
LINE
8
BLACK
6
CONTINUOUS
10
3.18737
20
3.18332
11
3.18238
21
3.18803
0
LINE
8
BLACK
6
CONTINUOUS
10
3.18238
20
3.18803
11
3.18006
21
3.19156
0
LINE
8
BLACK
6
CONTINUOUS
10
3.18006
20
3.19156
11
3.17967
21
3.19078
0
LINE
8
BLACK
6
CONTINUOUS
10
3.17967
20
3.19078
11
3.17526
21
3.18553
0
LINE
8
BLACK
6
CONTINUOUS
10
3.17526
20
3.18553
11
3.16976
21
3.18144
0
LINE
8
BLACK
6
CONTINUOUS
10
3.16976
20
3.18144
11
3.16347
21
3.17872
0
LINE
8
BLACK
6
CONTINUOUS
10
3.16347
20
3.17872
11
3.15672
21
3.17753
0
LINE
8
BLACK
6
CONTINUOUS
10
3.15672
20
3.17753
11
3.14987
21
3.17793
0
LINE
8
BLACK
6
CONTINUOUS
10
3.14987
20
3.17793
11
3.1433
21
3.1799
0
LINE
8
BLACK
6
CONTINUOUS
10
3.1433
20
3.1799
11
3.13737
21
3.18332
0
LINE
8
BLACK
6
CONTINUOUS
10
3.13737
20
3.18332
11
3.13238
21
3.18803
0
LINE
8
BLACK
6
CONTINUOUS
10
3.13238
20
3.18803
11
3.12861
21
3.19376
0
LINE
8
BLACK
6
CONTINUOUS
10
3.12861
20
3.19376
11
3.12627
21
3.2002
0
LINE
8
BLACK
6
CONTINUOUS
10
3.12627
20
3.2002
11
3.12547
21
3.20701
0
LINE
8
BLACK
6
CONTINUOUS
10
3.12547
20
3.20701
11
3.12547
21
3.21488
0
LINE
8
BLACK
6
CONTINUOUS
10
3.12547
20
3.21488
11
3.12567
21
3.21831
0
LINE
8
BLACK
6
CONTINUOUS
10
3.12567
20
3.21831
11
3.12725
21
3.22498
0
LINE
8
BLACK
6
CONTINUOUS
10
3.12725
20
3.22498
11
3.13033
21
3.23111
0
LINE
8
BLACK
6
CONTINUOUS
10
3.13033
20
3.23111
11
3.13474
21
3.23636
0
LINE
8
BLACK
6
CONTINUOUS
10
3.13474
20
3.23636
11
3.14024
21
3.24045
0
LINE
8
BLACK
6
CONTINUOUS
10
3.14024
20
3.24045
11
3.14653
21
3.24317
0
LINE
8
BLACK
6
CONTINUOUS
10
3.14653
20
3.24317
11
3.15328
21
3.24436
0
LINE
8
BLACK
6
CONTINUOUS
10
3.15328
20
3.24436
11
3.16013
21
3.24396
0
LINE
8
BLACK
6
CONTINUOUS
10
3.16013
20
3.24396
11
3.1667
21
3.24199
0
LINE
8
BLACK
6
CONTINUOUS
10
3.1667
20
3.24199
11
3.17263
21
3.23857
0
LINE
8
BLACK
6
CONTINUOUS
10
3.17263
20
3.23857
11
3.17762
21
3.23386
0
LINE
8
BLACK
6
CONTINUOUS
10
3.17762
20
3.23386
11
3.17994
21
3.23033
0
LINE
8
BLACK
6
CONTINUOUS
10
3.17994
20
3.23033
11
3.18033
21
3.23111
0
LINE
8
BLACK
6
CONTINUOUS
10
3.18033
20
3.23111
11
3.18474
21
3.23636
0
LINE
8
BLACK
6
CONTINUOUS
10
3.18474
20
3.23636
11
3.19024
21
3.24045
0
LINE
8
BLACK
6
CONTINUOUS
10
3.19024
20
3.24045
11
3.19653
21
3.24317
0
LINE
8
BLACK
6
CONTINUOUS
10
3.19653
20
3.24317
11
3.20328
21
3.24436
0
LINE
8
BLACK
6
CONTINUOUS
10
3.20328
20
3.24436
11
3.21013
21
3.24396
0
LINE
8
BLACK
6
CONTINUOUS
10
2.96013
20
3.30302
11
2.9667
21
3.30105
0
LINE
8
BLACK
6
CONTINUOUS
10
2.9667
20
3.30105
11
2.97263
21
3.29762
0
LINE
8
BLACK
6
CONTINUOUS
10
2.97263
20
3.29762
11
2.97762
21
3.29292
0
LINE
8
BLACK
6
CONTINUOUS
10
2.97762
20
3.29292
11
2.98139
21
3.28719
0
LINE
8
BLACK
6
CONTINUOUS
10
2.98139
20
3.28719
11
2.98373
21
3.28075
0
LINE
8
BLACK
6
CONTINUOUS
10
2.98373
20
3.28075
11
2.98453
21
3.27394
0
LINE
8
BLACK
6
CONTINUOUS
10
2.98453
20
3.27394
11
2.98453
21
3.26606
0
LINE
8
BLACK
6
CONTINUOUS
10
2.98453
20
3.26606
11
2.98433
21
3.26264
0
LINE
8
BLACK
6
CONTINUOUS
10
2.98433
20
3.26264
11
2.98275
21
3.25596
0
LINE
8
BLACK
6
CONTINUOUS
10
2.98275
20
3.25596
11
2.97967
21
3.24984
0
LINE
8
BLACK
6
CONTINUOUS
10
2.97967
20
3.24984
11
2.97526
21
3.24459
0
LINE
8
BLACK
6
CONTINUOUS
10
2.97526
20
3.24459
11
2.96976
21
3.24049
0
LINE
8
BLACK
6
CONTINUOUS
10
2.96976
20
3.24049
11
2.96347
21
3.23778
0
LINE
8
BLACK
6
CONTINUOUS
10
2.96347
20
3.23778
11
2.95672
21
3.23659
0
LINE
8
BLACK
6
CONTINUOUS
10
2.95672
20
3.23659
11
2.94987
21
3.23698
0
LINE
8
BLACK
6
CONTINUOUS
10
2.94987
20
3.23698
11
2.9433
21
3.23895
0
LINE
8
BLACK
6
CONTINUOUS
10
2.9433
20
3.23895
11
2.93737
21
3.24238
0
LINE
8
BLACK
6
CONTINUOUS
10
2.93737
20
3.24238
11
2.93238
21
3.24708
0
LINE
8
BLACK
6
CONTINUOUS
10
2.93238
20
3.24708
11
2.92861
21
3.25281
0
LINE
8
BLACK
6
CONTINUOUS
10
2.92861
20
3.25281
11
2.92627
21
3.25925
0
LINE
8
BLACK
6
CONTINUOUS
10
2.92627
20
3.25925
11
2.92547
21
3.26606
0
LINE
8
BLACK
6
CONTINUOUS
10
2.92547
20
3.26606
11
2.92547
21
3.27394
0
LINE
8
BLACK
6
CONTINUOUS
10
2.92547
20
3.27394
11
2.92567
21
3.27736
0
LINE
8
BLACK
6
CONTINUOUS
10
2.92567
20
3.27736
11
2.92725
21
3.28404
0
LINE
8
BLACK
6
CONTINUOUS
10
2.92725
20
3.28404
11
2.93033
21
3.29016
0
LINE
8
BLACK
6
CONTINUOUS
10
2.93033
20
3.29016
11
2.93474
21
3.29541
0
LINE
8
BLACK
6
CONTINUOUS
10
2.93474
20
3.29541
11
2.94024
21
3.29951
0
LINE
8
BLACK
6
CONTINUOUS
10
2.94024
20
3.29951
11
2.94653
21
3.30222
0
LINE
8
BLACK
6
CONTINUOUS
10
2.94653
20
3.30222
11
2.95328
21
3.30341
0
LINE
8
BLACK
6
CONTINUOUS
10
2.95328
20
3.30341
11
2.96013
21
3.30302
0
LINE
8
BLACK
6
CONTINUOUS
10
3.11013
20
3.30302
11
3.1167
21
3.30105
0
LINE
8
BLACK
6
CONTINUOUS
10
3.1167
20
3.30105
11
3.12263
21
3.29762
0
LINE
8
BLACK
6
CONTINUOUS
10
3.12263
20
3.29762
11
3.12762
21
3.29292
0
LINE
8
BLACK
6
CONTINUOUS
10
3.12762
20
3.29292
11
3.13139
21
3.28719
0
LINE
8
BLACK
6
CONTINUOUS
10
3.13139
20
3.28719
11
3.13373
21
3.28075
0
LINE
8
BLACK
6
CONTINUOUS
10
3.13373
20
3.28075
11
3.13453
21
3.27394
0
LINE
8
BLACK
6
CONTINUOUS
10
3.13453
20
3.27394
11
3.13453
21
3.26606
0
LINE
8
BLACK
6
CONTINUOUS
10
3.13453
20
3.26606
11
3.13433
21
3.26264
0
LINE
8
BLACK
6
CONTINUOUS
10
3.13433
20
3.26264
11
3.13275
21
3.25596
0
LINE
8
BLACK
6
CONTINUOUS
10
3.13275
20
3.25596
11
3.12967
21
3.24984
0
LINE
8
BLACK
6
CONTINUOUS
10
3.12967
20
3.24984
11
3.12526
21
3.24459
0
LINE
8
BLACK
6
CONTINUOUS
10
3.12526
20
3.24459
11
3.11976
21
3.24049
0
LINE
8
BLACK
6
CONTINUOUS
10
3.11976
20
3.24049
11
3.11347
21
3.23778
0
LINE
8
BLACK
6
CONTINUOUS
10
3.11347
20
3.23778
11
3.10672
21
3.23659
0
LINE
8
BLACK
6
CONTINUOUS
10
3.10672
20
3.23659
11
3.09987
21
3.23698
0
LINE
8
BLACK
6
CONTINUOUS
10
3.09987
20
3.23698
11
3.0933
21
3.23895
0
LINE
8
BLACK
6
CONTINUOUS
10
3.0933
20
3.23895
11
3.08737
21
3.24238
0
LINE
8
BLACK
6
CONTINUOUS
10
3.08737
20
3.24238
11
3.08238
21
3.24708
0
LINE
8
BLACK
6
CONTINUOUS
10
3.08238
20
3.24708
11
3.07861
21
3.25281
0
LINE
8
BLACK
6
CONTINUOUS
10
3.07861
20
3.25281
11
3.07627
21
3.25925
0
LINE
8
BLACK
6
CONTINUOUS
10
3.07627
20
3.25925
11
3.07547
21
3.26606
0
LINE
8
BLACK
6
CONTINUOUS
10
3.07547
20
3.26606
11
3.07547
21
3.27394
0
LINE
8
BLACK
6
CONTINUOUS
10
3.07547
20
3.27394
11
3.07567
21
3.27736
0
LINE
8
BLACK
6
CONTINUOUS
10
3.07567
20
3.27736
11
3.07725
21
3.28404
0
LINE
8
BLACK
6
CONTINUOUS
10
3.07725
20
3.28404
11
3.08033
21
3.29016
0
LINE
8
BLACK
6
CONTINUOUS
10
3.08033
20
3.29016
11
3.08474
21
3.29541
0
LINE
8
BLACK
6
CONTINUOUS
10
3.08474
20
3.29541
11
3.09024
21
3.29951
0
LINE
8
BLACK
6
CONTINUOUS
10
3.09024
20
3.29951
11
3.09653
21
3.30222
0
LINE
8
BLACK
6
CONTINUOUS
10
3.09653
20
3.30222
11
3.10328
21
3.30341
0
LINE
8
BLACK
6
CONTINUOUS
10
3.10328
20
3.30341
11
3.11013
21
3.30302
0
LINE
8
BLACK
6
CONTINUOUS
10
3.26013
20
3.30302
11
3.2667
21
3.30105
0
LINE
8
BLACK
6
CONTINUOUS
10
3.2667
20
3.30105
11
3.27263
21
3.29762
0
LINE
8
BLACK
6
CONTINUOUS
10
3.27263
20
3.29762
11
3.27762
21
3.29292
0
LINE
8
BLACK
6
CONTINUOUS
10
3.27762
20
3.29292
11
3.28139
21
3.28719
0
LINE
8
BLACK
6
CONTINUOUS
10
3.28139
20
3.28719
11
3.28373
21
3.28075
0
LINE
8
BLACK
6
CONTINUOUS
10
3.28373
20
3.28075
11
3.28453
21
3.27394
0
LINE
8
BLACK
6
CONTINUOUS
10
3.28453
20
3.27394
11
3.28453
21
3.26606
0
LINE
8
BLACK
6
CONTINUOUS
10
3.28453
20
3.26606
11
3.28433
21
3.26264
0
LINE
8
BLACK
6
CONTINUOUS
10
3.28433
20
3.26264
11
3.28275
21
3.25596
0
LINE
8
BLACK
6
CONTINUOUS
10
3.28275
20
3.25596
11
3.27967
21
3.24984
0
LINE
8
BLACK
6
CONTINUOUS
10
3.27967
20
3.24984
11
3.27526
21
3.24459
0
LINE
8
BLACK
6
CONTINUOUS
10
3.27526
20
3.24459
11
3.26976
21
3.24049
0
LINE
8
BLACK
6
CONTINUOUS
10
3.26976
20
3.24049
11
3.26347
21
3.23778
0
LINE
8
BLACK
6
CONTINUOUS
10
3.26347
20
3.23778
11
3.25672
21
3.23659
0
LINE
8
BLACK
6
CONTINUOUS
10
3.25672
20
3.23659
11
3.24987
21
3.23698
0
LINE
8
BLACK
6
CONTINUOUS
10
3.24987
20
3.23698
11
3.2433
21
3.23895
0
LINE
8
BLACK
6
CONTINUOUS
10
3.2433
20
3.23895
11
3.23737
21
3.24238
0
LINE
8
BLACK
6
CONTINUOUS
10
3.23737
20
3.24238
11
3.23238
21
3.24708
0
LINE
8
BLACK
6
CONTINUOUS
10
3.23238
20
3.24708
11
3.22861
21
3.25281
0
LINE
8
BLACK
6
CONTINUOUS
10
3.22861
20
3.25281
11
3.22627
21
3.25925
0
LINE
8
BLACK
6
CONTINUOUS
10
3.22627
20
3.25925
11
3.22547
21
3.26606
0
LINE
8
BLACK
6
CONTINUOUS
10
3.22547
20
3.26606
11
3.22547
21
3.27394
0
LINE
8
BLACK
6
CONTINUOUS
10
3.22547
20
3.27394
11
3.22567
21
3.27736
0
LINE
8
BLACK
6
CONTINUOUS
10
3.22567
20
3.27736
11
3.22725
21
3.28404
0
LINE
8
BLACK
6
CONTINUOUS
10
3.22725
20
3.28404
11
3.23033
21
3.29016
0
LINE
8
BLACK
6
CONTINUOUS
10
3.23033
20
3.29016
11
3.23474
21
3.29541
0
LINE
8
BLACK
6
CONTINUOUS
10
3.23474
20
3.29541
11
3.24024
21
3.29951
0
LINE
8
BLACK
6
CONTINUOUS
10
3.24024
20
3.29951
11
3.24653
21
3.30222
0
LINE
8
BLACK
6
CONTINUOUS
10
3.24653
20
3.30222
11
3.25328
21
3.30341
0
LINE
8
BLACK
6
CONTINUOUS
10
3.25328
20
3.30341
11
3.26013
21
3.30302
0
LINE
8
BLACK
6
CONTINUOUS
10
0.214106
20
3.92519
11
0.228034
21
3.92283
0
LINE
8
BLACK
6
CONTINUOUS
10
0.228034
20
3.92283
11
0.24161
21
3.91891
0
LINE
8
BLACK
6
CONTINUOUS
10
0.24161
20
3.91891
11
0.254663
21
3.91351
0
LINE
8
BLACK
6
CONTINUOUS
10
0.254663
20
3.91351
11
0.267028
21
3.90667
0
LINE
8
BLACK
6
CONTINUOUS
10
0.267028
20
3.90667
11
0.27855
21
3.8985
0
LINE
8
BLACK
6
CONTINUOUS
10
0.27855
20
3.8985
11
0.289084
21
3.88908
0
LINE
8
BLACK
6
CONTINUOUS
10
0.289084
20
3.88908
11
0.298498
21
3.87855
0
LINE
8
BLACK
6
CONTINUOUS
10
0.298498
20
3.87855
11
0.306674
21
3.86703
0
LINE
8
BLACK
6
CONTINUOUS
10
0.306674
20
3.86703
11
0.313508
21
3.85466
0
LINE
8
BLACK
6
CONTINUOUS
10
0.313508
20
3.85466
11
0.318914
21
3.84161
0
LINE
8
BLACK
6
CONTINUOUS
10
0.318914
20
3.84161
11
0.322826
21
3.82803
0
LINE
8
BLACK
6
CONTINUOUS
10
0.322826
20
3.82803
11
0.325192
21
3.81411
0
LINE
8
BLACK
6
CONTINUOUS
10
0.325192
20
3.81411
11
0.325984
21
3.8
0
LINE
8
BLACK
6
CONTINUOUS
10
0.325984
20
3.8
11
0.325192
21
3.78589
0
LINE
8
BLACK
6
CONTINUOUS
10
0.325192
20
3.78589
11
0.322826
21
3.77197
0
LINE
8
BLACK
6
CONTINUOUS
10
0.322826
20
3.77197
11
0.318914
21
3.75839
0
LINE
8
BLACK
6
CONTINUOUS
10
0.318914
20
3.75839
11
0.313508
21
3.74534
0
LINE
8
BLACK
6
CONTINUOUS
10
0.313508
20
3.74534
11
0.306674
21
3.73297
0
LINE
8
BLACK
6
CONTINUOUS
10
0.306674
20
3.73297
11
0.298498
21
3.72145
0
LINE
8
BLACK
6
CONTINUOUS
10
0.298498
20
3.72145
11
0.289084
21
3.71092
0
LINE
8
BLACK
6
CONTINUOUS
10
0.289084
20
3.71092
11
0.27855
21
3.7015
0
LINE
8
BLACK
6
CONTINUOUS
10
0.27855
20
3.7015
11
0.267028
21
3.69333
0
LINE
8
BLACK
6
CONTINUOUS
10
0.267028
20
3.69333
11
0.254663
21
3.68649
0
LINE
8
BLACK
6
CONTINUOUS
10
0.254663
20
3.68649
11
0.24161
21
3.68109
0
LINE
8
BLACK
6
CONTINUOUS
10
0.24161
20
3.68109
11
0.228034
21
3.67717
0
LINE
8
BLACK
6
CONTINUOUS
10
0.228034
20
3.67717
11
0.214106
21
3.67481
0
LINE
8
BLACK
6
CONTINUOUS
10
0.214106
20
3.67481
11
0.2
21
3.67402
0
LINE
8
BLACK
6
CONTINUOUS
10
0.2
20
3.67402
11
0.185894
21
3.67481
0
LINE
8
BLACK
6
CONTINUOUS
10
0.185894
20
3.67481
11
0.171966
21
3.67717
0
LINE
8
BLACK
6
CONTINUOUS
10
0.171966
20
3.67717
11
0.15839
21
3.68109
0
LINE
8
BLACK
6
CONTINUOUS
10
0.15839
20
3.68109
11
0.145337
21
3.68649
0
LINE
8
BLACK
6
CONTINUOUS
10
0.145337
20
3.68649
11
0.132972
21
3.69333
0
LINE
8
BLACK
6
CONTINUOUS
10
0.132972
20
3.69333
11
0.12145
21
3.7015
0
LINE
8
BLACK
6
CONTINUOUS
10
0.12145
20
3.7015
11
0.110916
21
3.71092
0
LINE
8
BLACK
6
CONTINUOUS
10
0.110916
20
3.71092
11
0.101502
21
3.72145
0
LINE
8
BLACK
6
CONTINUOUS
10
0.101502
20
3.72145
11
0.0933261
21
3.73297
0
LINE
8
BLACK
6
CONTINUOUS
10
0.0933261
20
3.73297
11
0.0864921
21
3.74534
0
LINE
8
BLACK
6
CONTINUOUS
10
0.0864921
20
3.74534
11
0.0810856
21
3.75839
0
LINE
8
BLACK
6
CONTINUOUS
10
0.0810856
20
3.75839
11
0.0771744
21
3.77197
0
LINE
8
BLACK
6
CONTINUOUS
10
0.0771744
20
3.77197
11
0.0748079
21
3.78589
0
LINE
8
BLACK
6
CONTINUOUS
10
0.0748079
20
3.78589
11
0.0740157
21
3.8
0
LINE
8
BLACK
6
CONTINUOUS
10
0.0740157
20
3.8
11
0.0748079
21
3.81411
0
LINE
8
BLACK
6
CONTINUOUS
10
0.0748079
20
3.81411
11
0.0771744
21
3.82803
0
LINE
8
BLACK
6
CONTINUOUS
10
0.0771744
20
3.82803
11
0.0810856
21
3.84161
0
LINE
8
BLACK
6
CONTINUOUS
10
0.0810856
20
3.84161
11
0.0864921
21
3.85466
0
LINE
8
BLACK
6
CONTINUOUS
10
0.0864921
20
3.85466
11
0.0933261
21
3.86703
0
LINE
8
BLACK
6
CONTINUOUS
10
0.0933261
20
3.86703
11
0.101502
21
3.87855
0
LINE
8
BLACK
6
CONTINUOUS
10
0.101502
20
3.87855
11
0.110916
21
3.88908
0
LINE
8
BLACK
6
CONTINUOUS
10
0.110916
20
3.88908
11
0.12145
21
3.8985
0
LINE
8
BLACK
6
CONTINUOUS
10
0.12145
20
3.8985
11
0.132972
21
3.90667
0
LINE
8
BLACK
6
CONTINUOUS
10
0.132972
20
3.90667
11
0.145337
21
3.91351
0
LINE
8
BLACK
6
CONTINUOUS
10
0.145337
20
3.91351
11
0.15839
21
3.91891
0
LINE
8
BLACK
6
CONTINUOUS
10
0.15839
20
3.91891
11
0.171966
21
3.92283
0
LINE
8
BLACK
6
CONTINUOUS
10
0.171966
20
3.92283
11
0.185894
21
3.92519
0
LINE
8
BLACK
6
CONTINUOUS
10
0.185894
20
3.92519
11
0.2
21
3.92598
0
LINE
8
BLACK
6
CONTINUOUS
10
0.2
20
3.92598
11
0.214106
21
3.92519
0
LINE
8
BLACK
6
CONTINUOUS
10
3.81411
20
3.92519
11
3.82803
21
3.92283
0
LINE
8
BLACK
6
CONTINUOUS
10
3.82803
20
3.92283
11
3.84161
21
3.91891
0
LINE
8
BLACK
6
CONTINUOUS
10
3.84161
20
3.91891
11
3.85466
21
3.91351
0
LINE
8
BLACK
6
CONTINUOUS
10
3.85466
20
3.91351
11
3.86703
21
3.90667
0
LINE
8
BLACK
6
CONTINUOUS
10
3.86703
20
3.90667
11
3.87855
21
3.8985
0
LINE
8
BLACK
6
CONTINUOUS
10
3.87855
20
3.8985
11
3.88908
21
3.88908
0
LINE
8
BLACK
6
CONTINUOUS
10
3.88908
20
3.88908
11
3.8985
21
3.87855
0
LINE
8
BLACK
6
CONTINUOUS
10
3.8985
20
3.87855
11
3.90667
21
3.86703
0
LINE
8
BLACK
6
CONTINUOUS
10
3.90667
20
3.86703
11
3.91351
21
3.85466
0
LINE
8
BLACK
6
CONTINUOUS
10
3.91351
20
3.85466
11
3.91891
21
3.84161
0
LINE
8
BLACK
6
CONTINUOUS
10
3.91891
20
3.84161
11
3.92283
21
3.82803
0
LINE
8
BLACK
6
CONTINUOUS
10
3.92283
20
3.82803
11
3.92519
21
3.81411
0
LINE
8
BLACK
6
CONTINUOUS
10
3.92519
20
3.81411
11
3.92598
21
3.8
0
LINE
8
BLACK
6
CONTINUOUS
10
3.92598
20
3.8
11
3.92519
21
3.78589
0
LINE
8
BLACK
6
CONTINUOUS
10
3.92519
20
3.78589
11
3.92283
21
3.77197
0
LINE
8
BLACK
6
CONTINUOUS
10
3.92283
20
3.77197
11
3.91891
21
3.75839
0
LINE
8
BLACK
6
CONTINUOUS
10
3.91891
20
3.75839
11
3.91351
21
3.74534
0
LINE
8
BLACK
6
CONTINUOUS
10
3.91351
20
3.74534
11
3.90667
21
3.73297
0
LINE
8
BLACK
6
CONTINUOUS
10
3.90667
20
3.73297
11
3.8985
21
3.72145
0
LINE
8
BLACK
6
CONTINUOUS
10
3.8985
20
3.72145
11
3.88908
21
3.71092
0
LINE
8
BLACK
6
CONTINUOUS
10
3.88908
20
3.71092
11
3.87855
21
3.7015
0
LINE
8
BLACK
6
CONTINUOUS
10
3.87855
20
3.7015
11
3.86703
21
3.69333
0
LINE
8
BLACK
6
CONTINUOUS
10
3.86703
20
3.69333
11
3.85466
21
3.68649
0
LINE
8
BLACK
6
CONTINUOUS
10
3.85466
20
3.68649
11
3.84161
21
3.68109
0
LINE
8
BLACK
6
CONTINUOUS
10
3.84161
20
3.68109
11
3.82803
21
3.67717
0
LINE
8
BLACK
6
CONTINUOUS
10
3.82803
20
3.67717
11
3.81411
21
3.67481
0
LINE
8
BLACK
6
CONTINUOUS
10
3.81411
20
3.67481
11
3.8
21
3.67402
0
LINE
8
BLACK
6
CONTINUOUS
10
3.8
20
3.67402
11
3.78589
21
3.67481
0
LINE
8
BLACK
6
CONTINUOUS
10
3.78589
20
3.67481
11
3.77197
21
3.67717
0
LINE
8
BLACK
6
CONTINUOUS
10
3.77197
20
3.67717
11
3.75839
21
3.68109
0
LINE
8
BLACK
6
CONTINUOUS
10
3.75839
20
3.68109
11
3.74534
21
3.68649
0
LINE
8
BLACK
6
CONTINUOUS
10
3.74534
20
3.68649
11
3.73297
21
3.69333
0
LINE
8
BLACK
6
CONTINUOUS
10
3.73297
20
3.69333
11
3.72145
21
3.7015
0
LINE
8
BLACK
6
CONTINUOUS
10
3.72145
20
3.7015
11
3.71092
21
3.71092
0
LINE
8
BLACK
6
CONTINUOUS
10
3.71092
20
3.71092
11
3.7015
21
3.72145
0
LINE
8
BLACK
6
CONTINUOUS
10
3.7015
20
3.72145
11
3.69333
21
3.73297
0
LINE
8
BLACK
6
CONTINUOUS
10
3.69333
20
3.73297
11
3.68649
21
3.74534
0
LINE
8
BLACK
6
CONTINUOUS
10
3.68649
20
3.74534
11
3.68109
21
3.75839
0
LINE
8
BLACK
6
CONTINUOUS
10
3.68109
20
3.75839
11
3.67717
21
3.77197
0
LINE
8
BLACK
6
CONTINUOUS
10
3.67717
20
3.77197
11
3.67481
21
3.78589
0
LINE
8
BLACK
6
CONTINUOUS
10
3.67481
20
3.78589
11
3.67402
21
3.8
0
LINE
8
BLACK
6
CONTINUOUS
10
3.67402
20
3.8
11
3.67481
21
3.81411
0
LINE
8
BLACK
6
CONTINUOUS
10
3.67481
20
3.81411
11
3.67717
21
3.82803
0
LINE
8
BLACK
6
CONTINUOUS
10
3.67717
20
3.82803
11
3.68109
21
3.84161
0
LINE
8
BLACK
6
CONTINUOUS
10
3.68109
20
3.84161
11
3.68649
21
3.85466
0
LINE
8
BLACK
6
CONTINUOUS
10
3.68649
20
3.85466
11
3.69333
21
3.86703
0
LINE
8
BLACK
6
CONTINUOUS
10
3.69333
20
3.86703
11
3.7015
21
3.87855
0
LINE
8
BLACK
6
CONTINUOUS
10
3.7015
20
3.87855
11
3.71092
21
3.88908
0
LINE
8
BLACK
6
CONTINUOUS
10
3.71092
20
3.88908
11
3.72145
21
3.8985
0
LINE
8
BLACK
6
CONTINUOUS
10
3.72145
20
3.8985
11
3.73297
21
3.90667
0
LINE
8
BLACK
6
CONTINUOUS
10
3.73297
20
3.90667
11
3.74534
21
3.91351
0
LINE
8
BLACK
6
CONTINUOUS
10
3.74534
20
3.91351
11
3.75839
21
3.91891
0
LINE
8
BLACK
6
CONTINUOUS
10
3.75839
20
3.91891
11
3.77197
21
3.92283
0
LINE
8
BLACK
6
CONTINUOUS
10
3.77197
20
3.92283
11
3.78589
21
3.92519
0
LINE
8
BLACK
6
CONTINUOUS
10
3.78589
20
3.92519
11
3.8
21
3.92598
0
LINE
8
BLACK
6
CONTINUOUS
10
3.8
20
3.92598
11
3.81411
21
3.92519
  0
ENDSEC
  0
EOF
