  0
SECTION
  2
HEADER
  9
$ANGBASE
  50
0.0
  9
$ANGDIR
  70
1
  9
$MEASUREMENT
  70
0
  0
ENDSEC
  0
SECTION
  2
TABLES
  0
TABLE
  2
LTYPE
  70
4
  0
LTYPE
  5
40F
  2
CONTINUOUS
  70
0
  3
Solid line
  72
65
  73
0
  40
0.0
  0
LTYPE
  5
410
  2
DASHDOT
 70
0
  3
Dash Dot ____ _ ____ _
 72
65
 73
4
 40
2.0
 49
1.25
 49
-0.25
 49
0.25
 49
-0.25
  0
LTYPE
  5
411
  2
DASHED
 70
0
  3
Dashed __ __ __ __ __
 72
65
 73
2
 40
0.75
 49
0.5
 49
-0.25
  0
LTYPE
  5
43B
  2
DOTTED
 70
0
  3
Dotted .  .  .  .
 72
65
 73
2
 40
0.2
 49
0.0
 49
-0.2
  0
ENDTAB
  0
TABLE
  2
STYLE
  70
4
  0
STYLE
  2
KICAD
  70
0
  40
0
  41
1
  42
1
  50
0
  71
0
  3
isocp.shx
  0
STYLE
  2
KICADB
  70
0
  40
0
  41
1
  42
1
  50
0
  71
0
  3
isocp.shx
  0
STYLE
  2
KICADI
  70
0
  40
0
  41
1
  42
1
  50
15
  71
0
  3
isocp.shx
  0
STYLE
  2
KICADBI
  70
0
  40
0
  41
1
  42
1
  50
15
  71
0
  3
isocp.shx
  0
ENDTAB
  0
TABLE
  2
LAYER
  70
1
  0
LAYER
  2
BLACK
  70
0
  62
7
  6
CONTINUOUS
  0
ENDTAB
  0
ENDSEC
  0
SECTION
  2
ENTITIES
0
LINE
8
BLACK
6
CONTINUOUS
10
3.44891
20
0.103241
11
3.44862
21
0.103937
0
LINE
8
BLACK
6
CONTINUOUS
10
3.44862
20
0.103937
11
3.44862
21
0.285039
0
LINE
8
BLACK
6
CONTINUOUS
10
3.44862
20
0.285039
11
3.44891
21
0.285735
0
LINE
8
BLACK
6
CONTINUOUS
10
3.44891
20
0.285735
11
3.44961
21
0.286024
0
LINE
8
BLACK
6
CONTINUOUS
10
3.44961
20
0.286024
11
3.57559
21
0.286024
0
LINE
8
BLACK
6
CONTINUOUS
10
3.57559
20
0.286024
11
3.57629
21
0.285735
0
LINE
8
BLACK
6
CONTINUOUS
10
3.57629
20
0.285735
11
3.57657
21
0.285039
0
LINE
8
BLACK
6
CONTINUOUS
10
3.57657
20
0.285039
11
3.57657
21
0.103937
0
LINE
8
BLACK
6
CONTINUOUS
10
3.57657
20
0.103937
11
3.57629
21
0.103241
0
LINE
8
BLACK
6
CONTINUOUS
10
3.57629
20
0.103241
11
3.57559
21
0.102953
0
LINE
8
BLACK
6
CONTINUOUS
10
3.57559
20
0.102953
11
3.44961
21
0.102953
0
LINE
8
BLACK
6
CONTINUOUS
10
3.44961
20
0.102953
11
3.44891
21
0.103241
0
LINE
8
BLACK
6
CONTINUOUS
10
3.45059
20
0.284055
11
3.45059
21
0.104921
0
LINE
8
BLACK
6
CONTINUOUS
10
3.45059
20
0.104921
11
3.57461
21
0.104921
0
LINE
8
BLACK
6
CONTINUOUS
10
3.57461
20
0.104921
11
3.57461
21
0.284055
0
LINE
8
BLACK
6
CONTINUOUS
10
3.57461
20
0.284055
11
3.45059
21
0.284055
0
LINE
8
BLACK
6
CONTINUOUS
10
3.28946
20
0.109147
11
3.28917
21
0.109843
0
LINE
8
BLACK
6
CONTINUOUS
10
3.28917
20
0.109843
11
3.28917
21
0.385433
0
LINE
8
BLACK
6
CONTINUOUS
10
3.28917
20
0.385433
11
3.28946
21
0.386129
0
LINE
8
BLACK
6
CONTINUOUS
10
3.28946
20
0.386129
11
3.29016
21
0.386417
0
LINE
8
BLACK
6
CONTINUOUS
10
3.29016
20
0.386417
11
3.42795
21
0.386417
0
LINE
8
BLACK
6
CONTINUOUS
10
3.42795
20
0.386417
11
3.42865
21
0.386129
0
LINE
8
BLACK
6
CONTINUOUS
10
3.42865
20
0.386129
11
3.42894
21
0.385433
0
LINE
8
BLACK
6
CONTINUOUS
10
3.42894
20
0.385433
11
3.42894
21
0.109843
0
LINE
8
BLACK
6
CONTINUOUS
10
3.42894
20
0.109843
11
3.42865
21
0.109147
0
LINE
8
BLACK
6
CONTINUOUS
10
3.42865
20
0.109147
11
3.42795
21
0.108858
0
LINE
8
BLACK
6
CONTINUOUS
10
3.42795
20
0.108858
11
3.29016
21
0.108858
0
LINE
8
BLACK
6
CONTINUOUS
10
3.29016
20
0.108858
11
3.28946
21
0.109147
0
LINE
8
BLACK
6
CONTINUOUS
10
3.29114
20
0.384449
11
3.29114
21
0.110827
0
LINE
8
BLACK
6
CONTINUOUS
10
3.29114
20
0.110827
11
3.42697
21
0.110827
0
LINE
8
BLACK
6
CONTINUOUS
10
3.42697
20
0.110827
11
3.42697
21
0.384449
0
LINE
8
BLACK
6
CONTINUOUS
10
3.42697
20
0.384449
11
3.29114
21
0.384449
0
LINE
8
BLACK
6
CONTINUOUS
10
3.47332
20
0.296154
11
3.47303
21
0.29685
0
LINE
8
BLACK
6
CONTINUOUS
10
3.47303
20
0.29685
11
3.47303
21
0.430709
0
LINE
8
BLACK
6
CONTINUOUS
10
3.47303
20
0.430709
11
3.47332
21
0.431405
0
LINE
8
BLACK
6
CONTINUOUS
10
3.47332
20
0.431405
11
3.47402
21
0.431693
0
LINE
8
BLACK
6
CONTINUOUS
10
3.47402
20
0.431693
11
3.55118
21
0.431693
0
LINE
8
BLACK
6
CONTINUOUS
10
3.55118
20
0.431693
11
3.55188
21
0.431405
0
LINE
8
BLACK
6
CONTINUOUS
10
3.55188
20
0.431405
11
3.55217
21
0.430709
0
LINE
8
BLACK
6
CONTINUOUS
10
3.55217
20
0.430709
11
3.55217
21
0.29685
0
LINE
8
BLACK
6
CONTINUOUS
10
3.55217
20
0.29685
11
3.55188
21
0.296154
0
LINE
8
BLACK
6
CONTINUOUS
10
3.55188
20
0.296154
11
3.55118
21
0.295866
0
LINE
8
BLACK
6
CONTINUOUS
10
3.55118
20
0.295866
11
3.47402
21
0.295866
0
LINE
8
BLACK
6
CONTINUOUS
10
3.47402
20
0.295866
11
3.47332
21
0.296154
0
LINE
8
BLACK
6
CONTINUOUS
10
3.475
20
0.429724
11
3.475
21
0.297835
0
LINE
8
BLACK
6
CONTINUOUS
10
3.475
20
0.297835
11
3.5502
21
0.297835
0
LINE
8
BLACK
6
CONTINUOUS
10
3.5502
20
0.297835
11
3.5502
21
0.429724
0
LINE
8
BLACK
6
CONTINUOUS
10
3.5502
20
0.429724
11
3.475
21
0.429724
0
LINE
8
BLACK
6
CONTINUOUS
10
1.4056
20
0.32765
11
1.40531
21
0.328346
0
LINE
8
BLACK
6
CONTINUOUS
10
1.40531
20
0.328346
11
1.40531
21
0.40315
0
LINE
8
BLACK
6
CONTINUOUS
10
1.40531
20
0.40315
11
1.4056
21
0.403846
0
LINE
8
BLACK
6
CONTINUOUS
10
1.4056
20
0.403846
11
1.4063
21
0.404134
0
LINE
8
BLACK
6
CONTINUOUS
10
1.4063
20
0.404134
11
1.55197
21
0.404134
0
LINE
8
BLACK
6
CONTINUOUS
10
1.55197
20
0.404134
11
1.55266
21
0.403846
0
LINE
8
BLACK
6
CONTINUOUS
10
1.55266
20
0.403846
11
1.55295
21
0.40315
0
LINE
8
BLACK
6
CONTINUOUS
10
1.55295
20
0.40315
11
1.55295
21
0.328346
0
LINE
8
BLACK
6
CONTINUOUS
10
1.55295
20
0.328346
11
1.55266
21
0.32765
0
LINE
8
BLACK
6
CONTINUOUS
10
1.55266
20
0.32765
11
1.55197
21
0.327362
0
LINE
8
BLACK
6
CONTINUOUS
10
1.55197
20
0.327362
11
1.4063
21
0.327362
0
LINE
8
BLACK
6
CONTINUOUS
10
1.4063
20
0.327362
11
1.4056
21
0.32765
0
LINE
8
BLACK
6
CONTINUOUS
10
1.40728
20
0.402165
11
1.40728
21
0.329331
0
LINE
8
BLACK
6
CONTINUOUS
10
1.40728
20
0.329331
11
1.55098
21
0.329331
0
LINE
8
BLACK
6
CONTINUOUS
10
1.55098
20
0.329331
11
1.55098
21
0.402165
0
LINE
8
BLACK
6
CONTINUOUS
10
1.55098
20
0.402165
11
1.40728
21
0.402165
0
LINE
8
BLACK
6
CONTINUOUS
10
2.74632
20
3.2574
11
2.74632
21
3.1826
0
LINE
8
BLACK
6
CONTINUOUS
10
2.74632
20
3.1826
11
2.74603
21
3.1819
0
LINE
8
BLACK
6
CONTINUOUS
10
2.74603
20
3.1819
11
2.74533
21
3.18161
0
LINE
8
BLACK
6
CONTINUOUS
10
2.74533
20
3.18161
11
2.74114
21
3.18161
0
LINE
8
BLACK
6
CONTINUOUS
10
2.74114
20
3.18161
11
2.74114
21
3.11496
0
LINE
8
BLACK
6
CONTINUOUS
10
2.74114
20
3.11496
11
2.74085
21
3.11426
0
LINE
8
BLACK
6
CONTINUOUS
10
2.74085
20
3.11426
11
2.74016
21
3.11398
0
LINE
8
BLACK
6
CONTINUOUS
10
2.74016
20
3.11398
11
2.61693
21
3.11398
0
LINE
8
BLACK
6
CONTINUOUS
10
2.61693
20
3.11398
11
2.61693
21
2.76339
0
LINE
8
BLACK
6
CONTINUOUS
10
2.61693
20
2.76339
11
2.61664
21
2.76269
0
LINE
8
BLACK
6
CONTINUOUS
10
2.61664
20
2.76269
11
2.61594
21
2.7624
0
LINE
8
BLACK
6
CONTINUOUS
10
2.61594
20
2.7624
11
1.83406
21
2.7624
0
LINE
8
BLACK
6
CONTINUOUS
10
1.83406
20
2.7624
11
1.83336
21
2.76269
0
LINE
8
BLACK
6
CONTINUOUS
10
1.83336
20
2.76269
11
1.83307
21
2.76339
0
LINE
8
BLACK
6
CONTINUOUS
10
1.83307
20
2.76339
11
1.83307
21
3.31575
0
LINE
8
BLACK
6
CONTINUOUS
10
1.83307
20
3.31575
11
1.83336
21
3.31644
0
LINE
8
BLACK
6
CONTINUOUS
10
1.83336
20
3.31644
11
1.83406
21
3.31673
0
LINE
8
BLACK
6
CONTINUOUS
10
1.83406
20
3.31673
11
2.61594
21
3.31673
0
LINE
8
BLACK
6
CONTINUOUS
10
2.61594
20
3.31673
11
2.61664
21
3.31644
0
LINE
8
BLACK
6
CONTINUOUS
10
2.61664
20
3.31644
11
2.61693
21
3.31575
0
LINE
8
BLACK
6
CONTINUOUS
10
2.61693
20
3.31575
11
2.61693
21
3.25839
0
LINE
8
BLACK
6
CONTINUOUS
10
2.61693
20
3.25839
11
2.74533
21
3.25839
0
LINE
8
BLACK
6
CONTINUOUS
10
2.74533
20
3.25839
11
2.74603
21
3.2581
0
LINE
8
BLACK
6
CONTINUOUS
10
2.74603
20
3.2581
11
2.74632
21
3.2574
0
LINE
8
BLACK
6
CONTINUOUS
10
1.83504
20
3.31476
11
1.83504
21
2.76437
0
LINE
8
BLACK
6
CONTINUOUS
10
1.83504
20
2.76437
11
2.61496
21
2.76437
0
LINE
8
BLACK
6
CONTINUOUS
10
2.61496
20
2.76437
11
2.61496
21
3.11398
0
LINE
8
BLACK
6
CONTINUOUS
10
2.61496
20
3.11398
11
2.6063
21
3.11398
0
LINE
8
BLACK
6
CONTINUOUS
10
2.6063
20
3.11398
11
2.6056
21
3.11426
0
LINE
8
BLACK
6
CONTINUOUS
10
2.6056
20
3.11426
11
2.60531
21
3.11496
0
LINE
8
BLACK
6
CONTINUOUS
10
2.60531
20
3.11496
11
2.60531
21
3.18161
0
LINE
8
BLACK
6
CONTINUOUS
10
2.60531
20
3.18161
11
2.59967
21
3.18161
0
LINE
8
BLACK
6
CONTINUOUS
10
2.59967
20
3.18161
11
2.59897
21
3.1819
0
LINE
8
BLACK
6
CONTINUOUS
10
2.59897
20
3.1819
11
2.59868
21
3.1826
0
LINE
8
BLACK
6
CONTINUOUS
10
2.59868
20
3.1826
11
2.59868
21
3.2574
0
LINE
8
BLACK
6
CONTINUOUS
10
2.59868
20
3.2574
11
2.59897
21
3.2581
0
LINE
8
BLACK
6
CONTINUOUS
10
2.59897
20
3.2581
11
2.59967
21
3.25839
0
LINE
8
BLACK
6
CONTINUOUS
10
2.59967
20
3.25839
11
2.61496
21
3.25839
0
LINE
8
BLACK
6
CONTINUOUS
10
2.61496
20
3.25839
11
2.61496
21
3.31476
0
LINE
8
BLACK
6
CONTINUOUS
10
2.61496
20
3.31476
11
1.83504
21
3.31476
0
LINE
8
BLACK
6
CONTINUOUS
10
2.60728
20
3.18161
11
2.60728
21
3.11594
0
LINE
8
BLACK
6
CONTINUOUS
10
2.60728
20
3.11594
11
2.61496
21
3.11594
0
LINE
8
BLACK
6
CONTINUOUS
10
2.61496
20
3.11594
11
2.61496
21
3.18161
0
LINE
8
BLACK
6
CONTINUOUS
10
2.61496
20
3.18161
11
2.60728
21
3.18161
0
LINE
8
BLACK
6
CONTINUOUS
10
2.61693
20
3.18161
11
2.61693
21
3.11594
0
LINE
8
BLACK
6
CONTINUOUS
10
2.61693
20
3.11594
11
2.73917
21
3.11594
0
LINE
8
BLACK
6
CONTINUOUS
10
2.73917
20
3.11594
11
2.73917
21
3.18161
0
LINE
8
BLACK
6
CONTINUOUS
10
2.73917
20
3.18161
11
2.61693
21
3.18161
0
LINE
8
BLACK
6
CONTINUOUS
10
2.60065
20
3.25642
11
2.60065
21
3.18358
0
LINE
8
BLACK
6
CONTINUOUS
10
2.60065
20
3.18358
11
2.60531
21
3.18358
0
LINE
8
BLACK
6
CONTINUOUS
10
2.60531
20
3.18358
11
2.60531
21
3.19213
0
LINE
8
BLACK
6
CONTINUOUS
10
2.60531
20
3.19213
11
2.6056
21
3.19282
0
LINE
8
BLACK
6
CONTINUOUS
10
2.6056
20
3.19282
11
2.6063
21
3.19311
0
LINE
8
BLACK
6
CONTINUOUS
10
2.6063
20
3.19311
11
2.61496
21
3.19311
0
LINE
8
BLACK
6
CONTINUOUS
10
2.61496
20
3.19311
11
2.61496
21
3.25642
0
LINE
8
BLACK
6
CONTINUOUS
10
2.61496
20
3.25642
11
2.60065
21
3.25642
0
LINE
8
BLACK
6
CONTINUOUS
10
2.60728
20
3.19114
11
2.60728
21
3.18358
0
LINE
8
BLACK
6
CONTINUOUS
10
2.60728
20
3.18358
11
2.61496
21
3.18358
0
LINE
8
BLACK
6
CONTINUOUS
10
2.61496
20
3.18358
11
2.61496
21
3.19114
0
LINE
8
BLACK
6
CONTINUOUS
10
2.61496
20
3.19114
11
2.60728
21
3.19114
0
LINE
8
BLACK
6
CONTINUOUS
10
2.61693
20
3.19114
11
2.61693
21
3.18358
0
LINE
8
BLACK
6
CONTINUOUS
10
2.61693
20
3.18358
11
2.73917
21
3.18358
0
LINE
8
BLACK
6
CONTINUOUS
10
2.73917
20
3.18358
11
2.73917
21
3.19114
0
LINE
8
BLACK
6
CONTINUOUS
10
2.73917
20
3.19114
11
2.61693
21
3.19114
0
LINE
8
BLACK
6
CONTINUOUS
10
2.74114
20
3.19213
11
2.74114
21
3.18358
0
LINE
8
BLACK
6
CONTINUOUS
10
2.74114
20
3.18358
11
2.74435
21
3.18358
0
LINE
8
BLACK
6
CONTINUOUS
10
2.74435
20
3.18358
11
2.74435
21
3.25642
0
LINE
8
BLACK
6
CONTINUOUS
10
2.74435
20
3.25642
11
2.61693
21
3.25642
0
LINE
8
BLACK
6
CONTINUOUS
10
2.61693
20
3.25642
11
2.61693
21
3.19311
0
LINE
8
BLACK
6
CONTINUOUS
10
2.61693
20
3.19311
11
2.74016
21
3.19311
0
LINE
8
BLACK
6
CONTINUOUS
10
2.74016
20
3.19311
11
2.74085
21
3.19282
0
LINE
8
BLACK
6
CONTINUOUS
10
2.74085
20
3.19282
11
2.74114
21
3.19213
0
LINE
8
BLACK
6
CONTINUOUS
10
0.866929
20
3.31575
11
0.866929
21
2.76339
0
LINE
8
BLACK
6
CONTINUOUS
10
0.866929
20
2.76339
11
0.866641
21
2.76269
0
LINE
8
BLACK
6
CONTINUOUS
10
0.866641
20
2.76269
11
0.865945
21
2.7624
0
LINE
8
BLACK
6
CONTINUOUS
10
0.865945
20
2.7624
11
0.0840551
21
2.7624
0
LINE
8
BLACK
6
CONTINUOUS
10
0.0840551
20
2.7624
11
0.0833591
21
2.76269
0
LINE
8
BLACK
6
CONTINUOUS
10
0.0833591
20
2.76269
11
0.0830709
21
2.76339
0
LINE
8
BLACK
6
CONTINUOUS
10
0.0830709
20
2.76339
11
0.0830709
21
3.30756
0
LINE
8
BLACK
6
CONTINUOUS
10
0.0830709
20
3.30756
11
0.0614173
21
3.30756
0
LINE
8
BLACK
6
CONTINUOUS
10
0.0614173
20
3.30756
11
0.0607213
21
3.30785
0
LINE
8
BLACK
6
CONTINUOUS
10
0.0607213
20
3.30785
11
0.0604331
21
3.30854
0
LINE
8
BLACK
6
CONTINUOUS
10
0.0604331
20
3.30854
11
0.0604331
21
3.4424
0
LINE
8
BLACK
6
CONTINUOUS
10
0.0604331
20
3.4424
11
0.0607213
21
3.4431
0
LINE
8
BLACK
6
CONTINUOUS
10
0.0607213
20
3.4431
11
0.0614173
21
3.44339
0
LINE
8
BLACK
6
CONTINUOUS
10
0.0614173
20
3.44339
11
0.121614
21
3.44339
0
LINE
8
BLACK
6
CONTINUOUS
10
0.121614
20
3.44339
11
0.121614
21
3.45331
0
LINE
8
BLACK
6
CONTINUOUS
10
0.121614
20
3.45331
11
0.121902
21
3.454
0
LINE
8
BLACK
6
CONTINUOUS
10
0.121902
20
3.454
11
0.122598
21
3.45429
0
LINE
8
BLACK
6
CONTINUOUS
10
0.122598
20
3.45429
11
0.197402
21
3.45429
0
LINE
8
BLACK
6
CONTINUOUS
10
0.197402
20
3.45429
11
0.198098
21
3.454
0
LINE
8
BLACK
6
CONTINUOUS
10
0.198098
20
3.454
11
0.198386
21
3.45331
0
LINE
8
BLACK
6
CONTINUOUS
10
0.198386
20
3.45331
11
0.198386
21
3.31673
0
LINE
8
BLACK
6
CONTINUOUS
10
0.198386
20
3.31673
11
0.865945
21
3.31673
0
LINE
8
BLACK
6
CONTINUOUS
10
0.865945
20
3.31673
11
0.866641
21
3.31644
0
LINE
8
BLACK
6
CONTINUOUS
10
0.866641
20
3.31644
11
0.866929
21
3.31575
0
LINE
8
BLACK
6
CONTINUOUS
10
0.121902
20
3.30694
11
0.121647
21
3.30756
0
LINE
8
BLACK
6
CONTINUOUS
10
0.121647
20
3.30756
11
0.0850394
21
3.30756
0
LINE
8
BLACK
6
CONTINUOUS
10
0.0850394
20
3.30756
11
0.0850394
21
2.76437
0
LINE
8
BLACK
6
CONTINUOUS
10
0.0850394
20
2.76437
11
0.864961
21
2.76437
0
LINE
8
BLACK
6
CONTINUOUS
10
0.864961
20
2.76437
11
0.864961
21
3.31476
0
LINE
8
BLACK
6
CONTINUOUS
10
0.864961
20
3.31476
11
0.198386
21
3.31476
0
LINE
8
BLACK
6
CONTINUOUS
10
0.198386
20
3.31476
11
0.198386
21
3.30764
0
LINE
8
BLACK
6
CONTINUOUS
10
0.198386
20
3.30764
11
0.198098
21
3.30694
0
LINE
8
BLACK
6
CONTINUOUS
10
0.198098
20
3.30694
11
0.197402
21
3.30665
0
LINE
8
BLACK
6
CONTINUOUS
10
0.197402
20
3.30665
11
0.122598
21
3.30665
0
LINE
8
BLACK
6
CONTINUOUS
10
0.122598
20
3.30665
11
0.121902
21
3.30694
0
LINE
8
BLACK
6
CONTINUOUS
10
0.139567
20
3.31476
11
0.139567
21
3.30862
0
LINE
8
BLACK
6
CONTINUOUS
10
0.139567
20
3.30862
11
0.196417
21
3.30862
0
LINE
8
BLACK
6
CONTINUOUS
10
0.196417
20
3.30862
11
0.196417
21
3.31476
0
LINE
8
BLACK
6
CONTINUOUS
10
0.196417
20
3.31476
11
0.139567
21
3.31476
0
LINE
8
BLACK
6
CONTINUOUS
10
0.0624016
20
3.44142
11
0.0624016
21
3.30953
0
LINE
8
BLACK
6
CONTINUOUS
10
0.0624016
20
3.30953
11
0.0830709
21
3.30953
0
LINE
8
BLACK
6
CONTINUOUS
10
0.0830709
20
3.30953
11
0.0830709
21
3.31575
0
LINE
8
BLACK
6
CONTINUOUS
10
0.0830709
20
3.31575
11
0.0833591
21
3.31644
0
LINE
8
BLACK
6
CONTINUOUS
10
0.0833591
20
3.31644
11
0.0840551
21
3.31673
0
LINE
8
BLACK
6
CONTINUOUS
10
0.0840551
20
3.31673
11
0.121614
21
3.31673
0
LINE
8
BLACK
6
CONTINUOUS
10
0.121614
20
3.31673
11
0.121614
21
3.44142
0
LINE
8
BLACK
6
CONTINUOUS
10
0.121614
20
3.44142
11
0.0624016
21
3.44142
0
LINE
8
BLACK
6
CONTINUOUS
10
0.0850394
20
3.31476
11
0.0850394
21
3.30953
0
LINE
8
BLACK
6
CONTINUOUS
10
0.0850394
20
3.30953
11
0.121614
21
3.30953
0
LINE
8
BLACK
6
CONTINUOUS
10
0.121614
20
3.30953
11
0.121614
21
3.31476
0
LINE
8
BLACK
6
CONTINUOUS
10
0.121614
20
3.31476
11
0.0850394
21
3.31476
0
LINE
8
BLACK
6
CONTINUOUS
10
0.123583
20
3.31476
11
0.123583
21
3.30953
0
LINE
8
BLACK
6
CONTINUOUS
10
0.123583
20
3.30953
11
0.137598
21
3.30953
0
LINE
8
BLACK
6
CONTINUOUS
10
0.137598
20
3.30953
11
0.137598
21
3.31476
0
LINE
8
BLACK
6
CONTINUOUS
10
0.137598
20
3.31476
11
0.123583
21
3.31476
0
LINE
8
BLACK
6
CONTINUOUS
10
0.123583
20
3.44142
11
0.123583
21
3.31673
0
LINE
8
BLACK
6
CONTINUOUS
10
0.123583
20
3.31673
11
0.137598
21
3.31673
0
LINE
8
BLACK
6
CONTINUOUS
10
0.137598
20
3.31673
11
0.137598
21
3.44142
0
LINE
8
BLACK
6
CONTINUOUS
10
0.137598
20
3.44142
11
0.123583
21
3.44142
0
LINE
8
BLACK
6
CONTINUOUS
10
0.139567
20
3.4424
11
0.139567
21
3.31673
0
LINE
8
BLACK
6
CONTINUOUS
10
0.139567
20
3.31673
11
0.196417
21
3.31673
0
LINE
8
BLACK
6
CONTINUOUS
10
0.196417
20
3.31673
11
0.196417
21
3.45232
0
LINE
8
BLACK
6
CONTINUOUS
10
0.196417
20
3.45232
11
0.123583
21
3.45232
0
LINE
8
BLACK
6
CONTINUOUS
10
0.123583
20
3.45232
11
0.123583
21
3.44339
0
LINE
8
BLACK
6
CONTINUOUS
10
0.123583
20
3.44339
11
0.138583
21
3.44339
0
LINE
8
BLACK
6
CONTINUOUS
10
0.138583
20
3.44339
11
0.139279
21
3.4431
0
LINE
8
BLACK
6
CONTINUOUS
10
0.139279
20
3.4431
11
0.139567
21
3.4424
0
LINE
8
BLACK
6
CONTINUOUS
10
2.76769
20
3.10198
11
2.7674
21
3.10268
0
LINE
8
BLACK
6
CONTINUOUS
10
2.7674
20
3.10268
11
2.7674
21
3.31921
0
LINE
8
BLACK
6
CONTINUOUS
10
2.7674
20
3.31921
11
2.76769
21
3.31991
0
LINE
8
BLACK
6
CONTINUOUS
10
2.76769
20
3.31991
11
2.76839
21
3.3202
0
LINE
8
BLACK
6
CONTINUOUS
10
2.76839
20
3.3202
11
3.44161
21
3.3202
0
LINE
8
BLACK
6
CONTINUOUS
10
3.44161
20
3.3202
11
3.44231
21
3.31991
0
LINE
8
BLACK
6
CONTINUOUS
10
3.44231
20
3.31991
11
3.4426
21
3.31921
0
LINE
8
BLACK
6
CONTINUOUS
10
3.4426
20
3.31921
11
3.4426
21
3.10268
0
LINE
8
BLACK
6
CONTINUOUS
10
3.4426
20
3.10268
11
3.44231
21
3.10198
0
LINE
8
BLACK
6
CONTINUOUS
10
3.44231
20
3.10198
11
3.44161
21
3.10169
0
LINE
8
BLACK
6
CONTINUOUS
10
3.44161
20
3.10169
11
2.76839
21
3.10169
0
LINE
8
BLACK
6
CONTINUOUS
10
2.76839
20
3.10169
11
2.76769
21
3.10198
0
LINE
8
BLACK
6
CONTINUOUS
10
2.76937
20
3.31823
11
2.76937
21
3.10366
0
LINE
8
BLACK
6
CONTINUOUS
10
2.76937
20
3.10366
11
3.44063
21
3.10366
0
LINE
8
BLACK
6
CONTINUOUS
10
3.44063
20
3.10366
11
3.44063
21
3.31823
0
LINE
8
BLACK
6
CONTINUOUS
10
3.44063
20
3.31823
11
2.76937
21
3.31823
  0
ENDSEC
  0
EOF
