  0
SECTION
  2
HEADER
  9
$ANGBASE
  50
0.0
  9
$ANGDIR
  70
1
  9
$MEASUREMENT
  70
0
  0
ENDSEC
  0
SECTION
  2
TABLES
  0
TABLE
  2
LTYPE
  70
4
  0
LTYPE
  5
40F
  2
CONTINUOUS
  70
0
  3
Solid line
  72
65
  73
0
  40
0.0
  0
LTYPE
  5
410
  2
DASHDOT
 70
0
  3
Dash Dot ____ _ ____ _
 72
65
 73
4
 40
2.0
 49
1.25
 49
-0.25
 49
0.25
 49
-0.25
  0
LTYPE
  5
411
  2
DASHED
 70
0
  3
Dashed __ __ __ __ __
 72
65
 73
2
 40
0.75
 49
0.5
 49
-0.25
  0
LTYPE
  5
43B
  2
DOTTED
 70
0
  3
Dotted .  .  .  .
 72
65
 73
2
 40
0.2
 49
0.0
 49
-0.2
  0
ENDTAB
  0
TABLE
  2
STYLE
  70
4
  0
STYLE
  2
KICAD
  70
0
  40
0
  41
1
  42
1
  50
0
  71
0
  3
isocp.shx
  0
STYLE
  2
KICADB
  70
0
  40
0
  41
1
  42
1
  50
0
  71
0
  3
isocp.shx
  0
STYLE
  2
KICADI
  70
0
  40
0
  41
1
  42
1
  50
15
  71
0
  3
isocp.shx
  0
STYLE
  2
KICADBI
  70
0
  40
0
  41
1
  42
1
  50
15
  71
0
  3
isocp.shx
  0
ENDTAB
  0
TABLE
  2
LAYER
  70
1
  0
LAYER
  2
BLACK
  70
0
  62
7
  6
CONTINUOUS
  0
ENDTAB
  0
ENDSEC
  0
SECTION
  2
ENTITIES
0
LINE
8
BLACK
6
CONTINUOUS
10
0.20865
20
0.317793
11
0.222132
21
0.316018
0
LINE
8
BLACK
6
CONTINUOUS
10
0.222132
20
0.316018
11
0.23532
21
0.312706
0
LINE
8
BLACK
6
CONTINUOUS
10
0.23532
20
0.312706
11
0.24804
21
0.307899
0
LINE
8
BLACK
6
CONTINUOUS
10
0.24804
20
0.307899
11
0.260123
21
0.301662
0
LINE
8
BLACK
6
CONTINUOUS
10
0.260123
20
0.301662
11
0.271409
21
0.294078
0
LINE
8
BLACK
6
CONTINUOUS
10
0.271409
20
0.294078
11
0.281749
21
0.285247
0
LINE
8
BLACK
6
CONTINUOUS
10
0.281749
20
0.285247
11
0.291006
21
0.275286
0
LINE
8
BLACK
6
CONTINUOUS
10
0.291006
20
0.275286
11
0.299056
21
0.264327
0
LINE
8
BLACK
6
CONTINUOUS
10
0.299056
20
0.264327
11
0.305793
21
0.252516
0
LINE
8
BLACK
6
CONTINUOUS
10
0.305793
20
0.252516
11
0.311128
21
0.240008
0
LINE
8
BLACK
6
CONTINUOUS
10
0.311128
20
0.240008
11
0.31499
21
0.226971
0
LINE
8
BLACK
6
CONTINUOUS
10
0.31499
20
0.226971
11
0.317327
21
0.213575
0
LINE
8
BLACK
6
CONTINUOUS
10
0.317327
20
0.213575
11
0.31811
21
0.2
0
LINE
8
BLACK
6
CONTINUOUS
10
0.31811
20
0.2
11
0.317877
21
0.192584
0
LINE
8
BLACK
6
CONTINUOUS
10
0.317877
20
0.192584
11
0.316244
21
0.179084
0
LINE
8
BLACK
6
CONTINUOUS
10
0.316244
20
0.179084
11
0.313069
21
0.165862
0
LINE
8
BLACK
6
CONTINUOUS
10
0.313069
20
0.165862
11
0.308396
21
0.153093
0
LINE
8
BLACK
6
CONTINUOUS
10
0.308396
20
0.153093
11
0.302286
21
0.140945
0
LINE
8
BLACK
6
CONTINUOUS
10
0.302286
20
0.140945
11
0.294821
21
0.12958
0
LINE
8
BLACK
6
CONTINUOUS
10
0.294821
20
0.12958
11
0.286099
21
0.119148
0
LINE
8
BLACK
6
CONTINUOUS
10
0.286099
20
0.119148
11
0.276235
21
0.109788
0
LINE
8
BLACK
6
CONTINUOUS
10
0.276235
20
0.109788
11
0.265361
21
0.101623
0
LINE
8
BLACK
6
CONTINUOUS
10
0.265361
20
0.101623
11
0.253621
21
0.094763
0
LINE
8
BLACK
6
CONTINUOUS
10
0.253621
20
0.094763
11
0.24117
21
0.0892974
0
LINE
8
BLACK
6
CONTINUOUS
10
0.24117
20
0.0892974
11
0.228173
21
0.0852991
0
LINE
8
BLACK
6
CONTINUOUS
10
0.228173
20
0.0852991
11
0.214803
21
0.0828211
0
LINE
8
BLACK
6
CONTINUOUS
10
0.214803
20
0.0828211
11
0.201237
21
0.0818962
0
LINE
8
BLACK
6
CONTINUOUS
10
0.201237
20
0.0818962
11
0.187654
21
0.0825368
0
LINE
8
BLACK
6
CONTINUOUS
10
0.187654
20
0.0825368
11
0.174235
21
0.0847343
0
LINE
8
BLACK
6
CONTINUOUS
10
0.174235
20
0.0847343
11
0.161157
21
0.0884595
0
LINE
8
BLACK
6
CONTINUOUS
10
0.161157
20
0.0884595
11
0.148595
21
0.0936631
0
LINE
8
BLACK
6
CONTINUOUS
10
0.148595
20
0.0936631
11
0.136713
21
0.100276
0
LINE
8
BLACK
6
CONTINUOUS
10
0.136713
20
0.100276
11
0.125671
21
0.108211
0
LINE
8
BLACK
6
CONTINUOUS
10
0.125671
20
0.108211
11
0.115613
21
0.117363
0
LINE
8
BLACK
6
CONTINUOUS
10
0.115613
20
0.117363
11
0.106675
21
0.127609
0
LINE
8
BLACK
6
CONTINUOUS
10
0.106675
20
0.127609
11
0.0989727
21
0.138816
0
LINE
8
BLACK
6
CONTINUOUS
10
0.0989727
20
0.138816
11
0.0926099
21
0.150833
0
LINE
8
BLACK
6
CONTINUOUS
10
0.0926099
20
0.150833
11
0.0876705
21
0.163502
0
LINE
8
BLACK
6
CONTINUOUS
10
0.0876705
20
0.163502
11
0.0842199
21
0.176655
0
LINE
8
BLACK
6
CONTINUOUS
10
0.0842199
20
0.176655
11
0.082304
21
0.190117
0
LINE
8
BLACK
6
CONTINUOUS
10
0.082304
20
0.190117
11
0.081948
21
0.20371
0
LINE
8
BLACK
6
CONTINUOUS
10
0.081948
20
0.20371
11
0.0831568
21
0.217254
0
LINE
8
BLACK
6
CONTINUOUS
10
0.0831568
20
0.217254
11
0.0859143
21
0.230569
0
LINE
8
BLACK
6
CONTINUOUS
10
0.0859143
20
0.230569
11
0.0901839
21
0.243479
0
LINE
8
BLACK
6
CONTINUOUS
10
0.0901839
20
0.243479
11
0.0959091
21
0.255813
0
LINE
8
BLACK
6
CONTINUOUS
10
0.0959091
20
0.255813
11
0.103014
21
0.267407
0
LINE
8
BLACK
6
CONTINUOUS
10
0.103014
20
0.267407
11
0.111404
21
0.278108
0
LINE
8
BLACK
6
CONTINUOUS
10
0.111404
20
0.278108
11
0.120969
21
0.287773
0
LINE
8
BLACK
6
CONTINUOUS
10
0.120969
20
0.287773
11
0.131581
21
0.296275
0
LINE
8
BLACK
6
CONTINUOUS
10
0.131581
20
0.296275
11
0.1431
21
0.303501
0
LINE
8
BLACK
6
CONTINUOUS
10
0.1431
20
0.303501
11
0.155373
21
0.309355
0
LINE
8
BLACK
6
CONTINUOUS
10
0.155373
20
0.309355
11
0.168238
21
0.313759
0
LINE
8
BLACK
6
CONTINUOUS
10
0.168238
20
0.313759
11
0.181524
21
0.316656
0
LINE
8
BLACK
6
CONTINUOUS
10
0.181524
20
0.316656
11
0.195054
21
0.318007
0
LINE
8
BLACK
6
CONTINUOUS
10
0.195054
20
0.318007
11
0.20865
21
0.317793
0
LINE
8
BLACK
6
CONTINUOUS
10
3.81865
20
0.317793
11
3.83213
21
0.316018
0
LINE
8
BLACK
6
CONTINUOUS
10
3.83213
20
0.316018
11
3.84532
21
0.312706
0
LINE
8
BLACK
6
CONTINUOUS
10
3.84532
20
0.312706
11
3.85804
21
0.307899
0
LINE
8
BLACK
6
CONTINUOUS
10
3.85804
20
0.307899
11
3.87012
21
0.301662
0
LINE
8
BLACK
6
CONTINUOUS
10
3.87012
20
0.301662
11
3.88141
21
0.294078
0
LINE
8
BLACK
6
CONTINUOUS
10
3.88141
20
0.294078
11
3.89175
21
0.285247
0
LINE
8
BLACK
6
CONTINUOUS
10
3.89175
20
0.285247
11
3.90101
21
0.275286
0
LINE
8
BLACK
6
CONTINUOUS
10
3.90101
20
0.275286
11
3.90906
21
0.264327
0
LINE
8
BLACK
6
CONTINUOUS
10
3.90906
20
0.264327
11
3.91579
21
0.252516
0
LINE
8
BLACK
6
CONTINUOUS
10
3.91579
20
0.252516
11
3.92113
21
0.240008
0
LINE
8
BLACK
6
CONTINUOUS
10
3.92113
20
0.240008
11
3.92499
21
0.226971
0
LINE
8
BLACK
6
CONTINUOUS
10
3.92499
20
0.226971
11
3.92733
21
0.213575
0
LINE
8
BLACK
6
CONTINUOUS
10
3.92733
20
0.213575
11
3.92811
21
0.2
0
LINE
8
BLACK
6
CONTINUOUS
10
3.92811
20
0.2
11
3.92788
21
0.192584
0
LINE
8
BLACK
6
CONTINUOUS
10
3.92788
20
0.192584
11
3.92624
21
0.179084
0
LINE
8
BLACK
6
CONTINUOUS
10
3.92624
20
0.179084
11
3.92307
21
0.165862
0
LINE
8
BLACK
6
CONTINUOUS
10
3.92307
20
0.165862
11
3.9184
21
0.153093
0
LINE
8
BLACK
6
CONTINUOUS
10
3.9184
20
0.153093
11
3.91229
21
0.140945
0
LINE
8
BLACK
6
CONTINUOUS
10
3.91229
20
0.140945
11
3.90482
21
0.12958
0
LINE
8
BLACK
6
CONTINUOUS
10
3.90482
20
0.12958
11
3.8961
21
0.119148
0
LINE
8
BLACK
6
CONTINUOUS
10
3.8961
20
0.119148
11
3.88624
21
0.109788
0
LINE
8
BLACK
6
CONTINUOUS
10
3.88624
20
0.109788
11
3.87536
21
0.101623
0
LINE
8
BLACK
6
CONTINUOUS
10
3.87536
20
0.101623
11
3.86362
21
0.094763
0
LINE
8
BLACK
6
CONTINUOUS
10
3.86362
20
0.094763
11
3.85117
21
0.0892974
0
LINE
8
BLACK
6
CONTINUOUS
10
3.85117
20
0.0892974
11
3.83817
21
0.0852991
0
LINE
8
BLACK
6
CONTINUOUS
10
3.83817
20
0.0852991
11
3.8248
21
0.0828211
0
LINE
8
BLACK
6
CONTINUOUS
10
3.8248
20
0.0828211
11
3.81124
21
0.0818962
0
LINE
8
BLACK
6
CONTINUOUS
10
3.81124
20
0.0818962
11
3.79765
21
0.0825368
0
LINE
8
BLACK
6
CONTINUOUS
10
3.79765
20
0.0825368
11
3.78424
21
0.0847343
0
LINE
8
BLACK
6
CONTINUOUS
10
3.78424
20
0.0847343
11
3.77116
21
0.0884595
0
LINE
8
BLACK
6
CONTINUOUS
10
3.77116
20
0.0884595
11
3.75859
21
0.0936631
0
LINE
8
BLACK
6
CONTINUOUS
10
3.75859
20
0.0936631
11
3.74671
21
0.100276
0
LINE
8
BLACK
6
CONTINUOUS
10
3.74671
20
0.100276
11
3.73567
21
0.108211
0
LINE
8
BLACK
6
CONTINUOUS
10
3.73567
20
0.108211
11
3.72561
21
0.117363
0
LINE
8
BLACK
6
CONTINUOUS
10
3.72561
20
0.117363
11
3.71667
21
0.127609
0
LINE
8
BLACK
6
CONTINUOUS
10
3.71667
20
0.127609
11
3.70897
21
0.138816
0
LINE
8
BLACK
6
CONTINUOUS
10
3.70897
20
0.138816
11
3.70261
21
0.150833
0
LINE
8
BLACK
6
CONTINUOUS
10
3.70261
20
0.150833
11
3.69767
21
0.163502
0
LINE
8
BLACK
6
CONTINUOUS
10
3.69767
20
0.163502
11
3.69422
21
0.176655
0
LINE
8
BLACK
6
CONTINUOUS
10
3.69422
20
0.176655
11
3.6923
21
0.190117
0
LINE
8
BLACK
6
CONTINUOUS
10
3.6923
20
0.190117
11
3.69195
21
0.20371
0
LINE
8
BLACK
6
CONTINUOUS
10
3.69195
20
0.20371
11
3.69316
21
0.217254
0
LINE
8
BLACK
6
CONTINUOUS
10
3.69316
20
0.217254
11
3.69591
21
0.230569
0
LINE
8
BLACK
6
CONTINUOUS
10
3.69591
20
0.230569
11
3.70018
21
0.243479
0
LINE
8
BLACK
6
CONTINUOUS
10
3.70018
20
0.243479
11
3.70591
21
0.255813
0
LINE
8
BLACK
6
CONTINUOUS
10
3.70591
20
0.255813
11
3.71301
21
0.267407
0
LINE
8
BLACK
6
CONTINUOUS
10
3.71301
20
0.267407
11
3.7214
21
0.278108
0
LINE
8
BLACK
6
CONTINUOUS
10
3.7214
20
0.278108
11
3.73097
21
0.287773
0
LINE
8
BLACK
6
CONTINUOUS
10
3.73097
20
0.287773
11
3.74158
21
0.296275
0
LINE
8
BLACK
6
CONTINUOUS
10
3.74158
20
0.296275
11
3.7531
21
0.303501
0
LINE
8
BLACK
6
CONTINUOUS
10
3.7531
20
0.303501
11
3.76537
21
0.309355
0
LINE
8
BLACK
6
CONTINUOUS
10
3.76537
20
0.309355
11
3.77824
21
0.313759
0
LINE
8
BLACK
6
CONTINUOUS
10
3.77824
20
0.313759
11
3.79152
21
0.316656
0
LINE
8
BLACK
6
CONTINUOUS
10
3.79152
20
0.316656
11
3.80505
21
0.318007
0
LINE
8
BLACK
6
CONTINUOUS
10
3.80505
20
0.318007
11
3.81865
21
0.317793
0
LINE
8
BLACK
6
CONTINUOUS
10
0.20865
20
3.91779
11
0.222132
21
3.91602
0
LINE
8
BLACK
6
CONTINUOUS
10
0.222132
20
3.91602
11
0.23532
21
3.91271
0
LINE
8
BLACK
6
CONTINUOUS
10
0.23532
20
3.91271
11
0.24804
21
3.9079
0
LINE
8
BLACK
6
CONTINUOUS
10
0.24804
20
3.9079
11
0.260123
21
3.90166
0
LINE
8
BLACK
6
CONTINUOUS
10
0.260123
20
3.90166
11
0.271409
21
3.89408
0
LINE
8
BLACK
6
CONTINUOUS
10
0.271409
20
3.89408
11
0.281749
21
3.88525
0
LINE
8
BLACK
6
CONTINUOUS
10
0.281749
20
3.88525
11
0.291006
21
3.87529
0
LINE
8
BLACK
6
CONTINUOUS
10
0.291006
20
3.87529
11
0.299056
21
3.86433
0
LINE
8
BLACK
6
CONTINUOUS
10
0.299056
20
3.86433
11
0.305793
21
3.85252
0
LINE
8
BLACK
6
CONTINUOUS
10
0.305793
20
3.85252
11
0.311128
21
3.84001
0
LINE
8
BLACK
6
CONTINUOUS
10
0.311128
20
3.84001
11
0.31499
21
3.82697
0
LINE
8
BLACK
6
CONTINUOUS
10
0.31499
20
3.82697
11
0.317327
21
3.81358
0
LINE
8
BLACK
6
CONTINUOUS
10
0.317327
20
3.81358
11
0.31811
21
3.8
0
LINE
8
BLACK
6
CONTINUOUS
10
0.31811
20
3.8
11
0.317877
21
3.79258
0
LINE
8
BLACK
6
CONTINUOUS
10
0.317877
20
3.79258
11
0.316244
21
3.77908
0
LINE
8
BLACK
6
CONTINUOUS
10
0.316244
20
3.77908
11
0.313069
21
3.76586
0
LINE
8
BLACK
6
CONTINUOUS
10
0.313069
20
3.76586
11
0.308396
21
3.75309
0
LINE
8
BLACK
6
CONTINUOUS
10
0.308396
20
3.75309
11
0.302286
21
3.74094
0
LINE
8
BLACK
6
CONTINUOUS
10
0.302286
20
3.74094
11
0.294821
21
3.72958
0
LINE
8
BLACK
6
CONTINUOUS
10
0.294821
20
3.72958
11
0.286099
21
3.71915
0
LINE
8
BLACK
6
CONTINUOUS
10
0.286099
20
3.71915
11
0.276235
21
3.70979
0
LINE
8
BLACK
6
CONTINUOUS
10
0.276235
20
3.70979
11
0.265361
21
3.70162
0
LINE
8
BLACK
6
CONTINUOUS
10
0.265361
20
3.70162
11
0.253621
21
3.69476
0
LINE
8
BLACK
6
CONTINUOUS
10
0.253621
20
3.69476
11
0.24117
21
3.6893
0
LINE
8
BLACK
6
CONTINUOUS
10
0.24117
20
3.6893
11
0.228173
21
3.6853
0
LINE
8
BLACK
6
CONTINUOUS
10
0.228173
20
3.6853
11
0.214803
21
3.68282
0
LINE
8
BLACK
6
CONTINUOUS
10
0.214803
20
3.68282
11
0.201237
21
3.6819
0
LINE
8
BLACK
6
CONTINUOUS
10
0.201237
20
3.6819
11
0.187654
21
3.68254
0
LINE
8
BLACK
6
CONTINUOUS
10
0.187654
20
3.68254
11
0.174235
21
3.68473
0
LINE
8
BLACK
6
CONTINUOUS
10
0.174235
20
3.68473
11
0.161157
21
3.68846
0
LINE
8
BLACK
6
CONTINUOUS
10
0.161157
20
3.68846
11
0.148595
21
3.69366
0
LINE
8
BLACK
6
CONTINUOUS
10
0.148595
20
3.69366
11
0.136713
21
3.70028
0
LINE
8
BLACK
6
CONTINUOUS
10
0.136713
20
3.70028
11
0.125671
21
3.70821
0
LINE
8
BLACK
6
CONTINUOUS
10
0.125671
20
3.70821
11
0.115613
21
3.71736
0
LINE
8
BLACK
6
CONTINUOUS
10
0.115613
20
3.71736
11
0.106675
21
3.72761
0
LINE
8
BLACK
6
CONTINUOUS
10
0.106675
20
3.72761
11
0.0989727
21
3.73882
0
LINE
8
BLACK
6
CONTINUOUS
10
0.0989727
20
3.73882
11
0.0926099
21
3.75083
0
LINE
8
BLACK
6
CONTINUOUS
10
0.0926099
20
3.75083
11
0.0876705
21
3.7635
0
LINE
8
BLACK
6
CONTINUOUS
10
0.0876705
20
3.7635
11
0.0842199
21
3.77665
0
LINE
8
BLACK
6
CONTINUOUS
10
0.0842199
20
3.77665
11
0.082304
21
3.79012
0
LINE
8
BLACK
6
CONTINUOUS
10
0.082304
20
3.79012
11
0.081948
21
3.80371
0
LINE
8
BLACK
6
CONTINUOUS
10
0.081948
20
3.80371
11
0.0831568
21
3.81725
0
LINE
8
BLACK
6
CONTINUOUS
10
0.0831568
20
3.81725
11
0.0859143
21
3.83057
0
LINE
8
BLACK
6
CONTINUOUS
10
0.0859143
20
3.83057
11
0.0901839
21
3.84348
0
LINE
8
BLACK
6
CONTINUOUS
10
0.0901839
20
3.84348
11
0.0959091
21
3.85581
0
LINE
8
BLACK
6
CONTINUOUS
10
0.0959091
20
3.85581
11
0.103014
21
3.86741
0
LINE
8
BLACK
6
CONTINUOUS
10
0.103014
20
3.86741
11
0.111404
21
3.87811
0
LINE
8
BLACK
6
CONTINUOUS
10
0.111404
20
3.87811
11
0.120969
21
3.88777
0
LINE
8
BLACK
6
CONTINUOUS
10
0.120969
20
3.88777
11
0.131581
21
3.89627
0
LINE
8
BLACK
6
CONTINUOUS
10
0.131581
20
3.89627
11
0.1431
21
3.9035
0
LINE
8
BLACK
6
CONTINUOUS
10
0.1431
20
3.9035
11
0.155373
21
3.90935
0
LINE
8
BLACK
6
CONTINUOUS
10
0.155373
20
3.90935
11
0.168238
21
3.91376
0
LINE
8
BLACK
6
CONTINUOUS
10
0.168238
20
3.91376
11
0.181524
21
3.91666
0
LINE
8
BLACK
6
CONTINUOUS
10
0.181524
20
3.91666
11
0.195054
21
3.91801
0
LINE
8
BLACK
6
CONTINUOUS
10
0.195054
20
3.91801
11
0.20865
21
3.91779
0
LINE
8
BLACK
6
CONTINUOUS
10
3.80865
20
3.91779
11
3.82213
21
3.91602
0
LINE
8
BLACK
6
CONTINUOUS
10
3.82213
20
3.91602
11
3.83532
21
3.91271
0
LINE
8
BLACK
6
CONTINUOUS
10
3.83532
20
3.91271
11
3.84804
21
3.9079
0
LINE
8
BLACK
6
CONTINUOUS
10
3.84804
20
3.9079
11
3.86012
21
3.90166
0
LINE
8
BLACK
6
CONTINUOUS
10
3.86012
20
3.90166
11
3.87141
21
3.89408
0
LINE
8
BLACK
6
CONTINUOUS
10
3.87141
20
3.89408
11
3.88175
21
3.88525
0
LINE
8
BLACK
6
CONTINUOUS
10
3.88175
20
3.88525
11
3.89101
21
3.87529
0
LINE
8
BLACK
6
CONTINUOUS
10
3.89101
20
3.87529
11
3.89906
21
3.86433
0
LINE
8
BLACK
6
CONTINUOUS
10
3.89906
20
3.86433
11
3.90579
21
3.85252
0
LINE
8
BLACK
6
CONTINUOUS
10
3.90579
20
3.85252
11
3.91113
21
3.84001
0
LINE
8
BLACK
6
CONTINUOUS
10
3.91113
20
3.84001
11
3.91499
21
3.82697
0
LINE
8
BLACK
6
CONTINUOUS
10
3.91499
20
3.82697
11
3.91733
21
3.81358
0
LINE
8
BLACK
6
CONTINUOUS
10
3.91733
20
3.81358
11
3.91811
21
3.8
0
LINE
8
BLACK
6
CONTINUOUS
10
3.91811
20
3.8
11
3.91788
21
3.79258
0
LINE
8
BLACK
6
CONTINUOUS
10
3.91788
20
3.79258
11
3.91624
21
3.77908
0
LINE
8
BLACK
6
CONTINUOUS
10
3.91624
20
3.77908
11
3.91307
21
3.76586
0
LINE
8
BLACK
6
CONTINUOUS
10
3.91307
20
3.76586
11
3.9084
21
3.75309
0
LINE
8
BLACK
6
CONTINUOUS
10
3.9084
20
3.75309
11
3.90229
21
3.74094
0
LINE
8
BLACK
6
CONTINUOUS
10
3.90229
20
3.74094
11
3.89482
21
3.72958
0
LINE
8
BLACK
6
CONTINUOUS
10
3.89482
20
3.72958
11
3.8861
21
3.71915
0
LINE
8
BLACK
6
CONTINUOUS
10
3.8861
20
3.71915
11
3.87624
21
3.70979
0
LINE
8
BLACK
6
CONTINUOUS
10
3.87624
20
3.70979
11
3.86536
21
3.70162
0
LINE
8
BLACK
6
CONTINUOUS
10
3.86536
20
3.70162
11
3.85362
21
3.69476
0
LINE
8
BLACK
6
CONTINUOUS
10
3.85362
20
3.69476
11
3.84117
21
3.6893
0
LINE
8
BLACK
6
CONTINUOUS
10
3.84117
20
3.6893
11
3.82817
21
3.6853
0
LINE
8
BLACK
6
CONTINUOUS
10
3.82817
20
3.6853
11
3.8148
21
3.68282
0
LINE
8
BLACK
6
CONTINUOUS
10
3.8148
20
3.68282
11
3.80124
21
3.6819
0
LINE
8
BLACK
6
CONTINUOUS
10
3.80124
20
3.6819
11
3.78765
21
3.68254
0
LINE
8
BLACK
6
CONTINUOUS
10
3.78765
20
3.68254
11
3.77424
21
3.68473
0
LINE
8
BLACK
6
CONTINUOUS
10
3.77424
20
3.68473
11
3.76116
21
3.68846
0
LINE
8
BLACK
6
CONTINUOUS
10
3.76116
20
3.68846
11
3.74859
21
3.69366
0
LINE
8
BLACK
6
CONTINUOUS
10
3.74859
20
3.69366
11
3.73671
21
3.70028
0
LINE
8
BLACK
6
CONTINUOUS
10
3.73671
20
3.70028
11
3.72567
21
3.70821
0
LINE
8
BLACK
6
CONTINUOUS
10
3.72567
20
3.70821
11
3.71561
21
3.71736
0
LINE
8
BLACK
6
CONTINUOUS
10
3.71561
20
3.71736
11
3.70667
21
3.72761
0
LINE
8
BLACK
6
CONTINUOUS
10
3.70667
20
3.72761
11
3.69897
21
3.73882
0
LINE
8
BLACK
6
CONTINUOUS
10
3.69897
20
3.73882
11
3.69261
21
3.75083
0
LINE
8
BLACK
6
CONTINUOUS
10
3.69261
20
3.75083
11
3.68767
21
3.7635
0
LINE
8
BLACK
6
CONTINUOUS
10
3.68767
20
3.7635
11
3.68422
21
3.77665
0
LINE
8
BLACK
6
CONTINUOUS
10
3.68422
20
3.77665
11
3.6823
21
3.79012
0
LINE
8
BLACK
6
CONTINUOUS
10
3.6823
20
3.79012
11
3.68195
21
3.80371
0
LINE
8
BLACK
6
CONTINUOUS
10
3.68195
20
3.80371
11
3.68316
21
3.81725
0
LINE
8
BLACK
6
CONTINUOUS
10
3.68316
20
3.81725
11
3.68591
21
3.83057
0
LINE
8
BLACK
6
CONTINUOUS
10
3.68591
20
3.83057
11
3.69018
21
3.84348
0
LINE
8
BLACK
6
CONTINUOUS
10
3.69018
20
3.84348
11
3.69591
21
3.85581
0
LINE
8
BLACK
6
CONTINUOUS
10
3.69591
20
3.85581
11
3.70301
21
3.86741
0
LINE
8
BLACK
6
CONTINUOUS
10
3.70301
20
3.86741
11
3.7114
21
3.87811
0
LINE
8
BLACK
6
CONTINUOUS
10
3.7114
20
3.87811
11
3.72097
21
3.88777
0
LINE
8
BLACK
6
CONTINUOUS
10
3.72097
20
3.88777
11
3.73158
21
3.89627
0
LINE
8
BLACK
6
CONTINUOUS
10
3.73158
20
3.89627
11
3.7431
21
3.9035
0
LINE
8
BLACK
6
CONTINUOUS
10
3.7431
20
3.9035
11
3.75537
21
3.90935
0
LINE
8
BLACK
6
CONTINUOUS
10
3.75537
20
3.90935
11
3.76824
21
3.91376
0
LINE
8
BLACK
6
CONTINUOUS
10
3.76824
20
3.91376
11
3.78152
21
3.91666
0
LINE
8
BLACK
6
CONTINUOUS
10
3.78152
20
3.91666
11
3.79505
21
3.91801
0
LINE
8
BLACK
6
CONTINUOUS
10
3.79505
20
3.91801
11
3.80865
21
3.91779
  0
ENDSEC
  0
EOF
