  0
SECTION
  2
HEADER
  9
$ANGBASE
  50
0.0
  9
$ANGDIR
  70
1
  9
$MEASUREMENT
  70
0
  0
ENDSEC
  0
SECTION
  2
TABLES
  0
TABLE
  2
LTYPE
  70
4
  0
LTYPE
  5
40F
  2
CONTINUOUS
  70
0
  3
Solid line
  72
65
  73
0
  40
0.0
  0
LTYPE
  5
410
  2
DASHDOT
 70
0
  3
Dash Dot ____ _ ____ _
 72
65
 73
4
 40
2.0
 49
1.25
 49
-0.25
 49
0.25
 49
-0.25
  0
LTYPE
  5
411
  2
DASHED
 70
0
  3
Dashed __ __ __ __ __
 72
65
 73
2
 40
0.75
 49
0.5
 49
-0.25
  0
LTYPE
  5
43B
  2
DOTTED
 70
0
  3
Dotted .  .  .  .
 72
65
 73
2
 40
0.2
 49
0.0
 49
-0.2
  0
ENDTAB
  0
TABLE
  2
STYLE
  70
4
  0
STYLE
  2
KICAD
  70
0
  40
0
  41
1
  42
1
  50
0
  71
0
  3
isocp.shx
  0
STYLE
  2
KICADB
  70
0
  40
0
  41
1
  42
1
  50
0
  71
0
  3
isocp.shx
  0
STYLE
  2
KICADI
  70
0
  40
0
  41
1
  42
1
  50
15
  71
0
  3
isocp.shx
  0
STYLE
  2
KICADBI
  70
0
  40
0
  41
1
  42
1
  50
15
  71
0
  3
isocp.shx
  0
ENDTAB
  0
TABLE
  2
LAYER
  70
1
  0
LAYER
  2
BLACK
  70
0
  62
7
  6
CONTINUOUS
  0
ENDTAB
  0
ENDSEC
  0
SECTION
  2
ENTITIES
0
LINE
8
BLACK
6
CONTINUOUS
10
3.5748
20
0.285236
11
3.5755
21
0.284948
0
LINE
8
BLACK
6
CONTINUOUS
10
3.5755
20
0.284948
11
3.57579
21
0.284252
0
LINE
8
BLACK
6
CONTINUOUS
10
3.57579
20
0.284252
11
3.57579
21
0.104724
0
LINE
8
BLACK
6
CONTINUOUS
10
3.57579
20
0.104724
11
3.5755
21
0.104028
0
LINE
8
BLACK
6
CONTINUOUS
10
3.5755
20
0.104028
11
3.5748
21
0.10374
0
LINE
8
BLACK
6
CONTINUOUS
10
3.5748
20
0.10374
11
3.45039
21
0.10374
0
LINE
8
BLACK
6
CONTINUOUS
10
3.45039
20
0.10374
11
3.4497
21
0.104028
0
LINE
8
BLACK
6
CONTINUOUS
10
3.4497
20
0.104028
11
3.44941
21
0.104724
0
LINE
8
BLACK
6
CONTINUOUS
10
3.44941
20
0.104724
11
3.44941
21
0.104724
0
LINE
8
BLACK
6
CONTINUOUS
10
3.44941
20
0.104724
11
3.44941
21
0.284252
0
LINE
8
BLACK
6
CONTINUOUS
10
3.44941
20
0.284252
11
3.4497
21
0.284948
0
LINE
8
BLACK
6
CONTINUOUS
10
3.4497
20
0.284948
11
3.45039
21
0.285236
0
LINE
8
BLACK
6
CONTINUOUS
10
3.45039
20
0.285236
11
3.5748
21
0.285236
0
LINE
8
BLACK
6
CONTINUOUS
10
3.45138
20
0.283268
11
3.45138
21
0.105709
0
LINE
8
BLACK
6
CONTINUOUS
10
3.45138
20
0.105709
11
3.57382
21
0.105709
0
LINE
8
BLACK
6
CONTINUOUS
10
3.57382
20
0.105709
11
3.57382
21
0.283268
0
LINE
8
BLACK
6
CONTINUOUS
10
3.57382
20
0.283268
11
3.45138
21
0.283268
0
LINE
8
BLACK
6
CONTINUOUS
10
3.42795
20
0.386417
11
3.42865
21
0.386129
0
LINE
8
BLACK
6
CONTINUOUS
10
3.42865
20
0.386129
11
3.42894
21
0.385433
0
LINE
8
BLACK
6
CONTINUOUS
10
3.42894
20
0.385433
11
3.42894
21
0.109843
0
LINE
8
BLACK
6
CONTINUOUS
10
3.42894
20
0.109843
11
3.42865
21
0.109147
0
LINE
8
BLACK
6
CONTINUOUS
10
3.42865
20
0.109147
11
3.42795
21
0.108858
0
LINE
8
BLACK
6
CONTINUOUS
10
3.42795
20
0.108858
11
3.29016
21
0.108858
0
LINE
8
BLACK
6
CONTINUOUS
10
3.29016
20
0.108858
11
3.28946
21
0.109147
0
LINE
8
BLACK
6
CONTINUOUS
10
3.28946
20
0.109147
11
3.28917
21
0.109843
0
LINE
8
BLACK
6
CONTINUOUS
10
3.28917
20
0.109843
11
3.28917
21
0.385433
0
LINE
8
BLACK
6
CONTINUOUS
10
3.28917
20
0.385433
11
3.28946
21
0.386129
0
LINE
8
BLACK
6
CONTINUOUS
10
3.28946
20
0.386129
11
3.29016
21
0.386417
0
LINE
8
BLACK
6
CONTINUOUS
10
3.29016
20
0.386417
11
3.42795
21
0.386417
0
LINE
8
BLACK
6
CONTINUOUS
10
3.29114
20
0.384449
11
3.29114
21
0.110827
0
LINE
8
BLACK
6
CONTINUOUS
10
3.29114
20
0.110827
11
3.42697
21
0.110827
0
LINE
8
BLACK
6
CONTINUOUS
10
3.42697
20
0.110827
11
3.42697
21
0.384449
0
LINE
8
BLACK
6
CONTINUOUS
10
3.42697
20
0.384449
11
3.29114
21
0.384449
0
LINE
8
BLACK
6
CONTINUOUS
10
3.55
20
0.430906
11
3.5507
21
0.430617
0
LINE
8
BLACK
6
CONTINUOUS
10
3.5507
20
0.430617
11
3.55098
21
0.429921
0
LINE
8
BLACK
6
CONTINUOUS
10
3.55098
20
0.429921
11
3.55098
21
0.297638
0
LINE
8
BLACK
6
CONTINUOUS
10
3.55098
20
0.297638
11
3.5507
21
0.296942
0
LINE
8
BLACK
6
CONTINUOUS
10
3.5507
20
0.296942
11
3.55
21
0.296654
0
LINE
8
BLACK
6
CONTINUOUS
10
3.55
20
0.296654
11
3.4752
21
0.296654
0
LINE
8
BLACK
6
CONTINUOUS
10
3.4752
20
0.296654
11
3.4745
21
0.296942
0
LINE
8
BLACK
6
CONTINUOUS
10
3.4745
20
0.296942
11
3.47421
21
0.297638
0
LINE
8
BLACK
6
CONTINUOUS
10
3.47421
20
0.297638
11
3.47421
21
0.429921
0
LINE
8
BLACK
6
CONTINUOUS
10
3.47421
20
0.429921
11
3.4745
21
0.430617
0
LINE
8
BLACK
6
CONTINUOUS
10
3.4745
20
0.430617
11
3.4752
21
0.430906
0
LINE
8
BLACK
6
CONTINUOUS
10
3.4752
20
0.430906
11
3.55
21
0.430906
0
LINE
8
BLACK
6
CONTINUOUS
10
3.47618
20
0.428937
11
3.47618
21
0.298622
0
LINE
8
BLACK
6
CONTINUOUS
10
3.47618
20
0.298622
11
3.54902
21
0.298622
0
LINE
8
BLACK
6
CONTINUOUS
10
3.54902
20
0.298622
11
3.54902
21
0.428937
0
LINE
8
BLACK
6
CONTINUOUS
10
3.54902
20
0.428937
11
3.47618
21
0.428937
0
LINE
8
BLACK
6
CONTINUOUS
10
1.55197
20
0.404134
11
1.55266
21
0.403846
0
LINE
8
BLACK
6
CONTINUOUS
10
1.55266
20
0.403846
11
1.55295
21
0.40315
0
LINE
8
BLACK
6
CONTINUOUS
10
1.55295
20
0.40315
11
1.55295
21
0.328346
0
LINE
8
BLACK
6
CONTINUOUS
10
1.55295
20
0.328346
11
1.55266
21
0.32765
0
LINE
8
BLACK
6
CONTINUOUS
10
1.55266
20
0.32765
11
1.55197
21
0.327362
0
LINE
8
BLACK
6
CONTINUOUS
10
1.55197
20
0.327362
11
1.4063
21
0.327362
0
LINE
8
BLACK
6
CONTINUOUS
10
1.4063
20
0.327362
11
1.4056
21
0.32765
0
LINE
8
BLACK
6
CONTINUOUS
10
1.4056
20
0.32765
11
1.40531
21
0.328346
0
LINE
8
BLACK
6
CONTINUOUS
10
1.40531
20
0.328346
11
1.40531
21
0.40315
0
LINE
8
BLACK
6
CONTINUOUS
10
1.40531
20
0.40315
11
1.4056
21
0.403846
0
LINE
8
BLACK
6
CONTINUOUS
10
1.4056
20
0.403846
11
1.4063
21
0.404134
0
LINE
8
BLACK
6
CONTINUOUS
10
1.4063
20
0.404134
11
1.55197
21
0.404134
0
LINE
8
BLACK
6
CONTINUOUS
10
1.40728
20
0.402165
11
1.40728
21
0.329331
0
LINE
8
BLACK
6
CONTINUOUS
10
1.40728
20
0.329331
11
1.55098
21
0.329331
0
LINE
8
BLACK
6
CONTINUOUS
10
1.55098
20
0.329331
11
1.55098
21
0.402165
0
LINE
8
BLACK
6
CONTINUOUS
10
1.55098
20
0.402165
11
1.40728
21
0.402165
0
LINE
8
BLACK
6
CONTINUOUS
10
0.865945
20
3.31673
11
0.866641
21
3.31644
0
LINE
8
BLACK
6
CONTINUOUS
10
0.866641
20
3.31644
11
0.866929
21
3.31575
0
LINE
8
BLACK
6
CONTINUOUS
10
0.866929
20
3.31575
11
0.866929
21
2.76339
0
LINE
8
BLACK
6
CONTINUOUS
10
0.866929
20
2.76339
11
0.866641
21
2.76269
0
LINE
8
BLACK
6
CONTINUOUS
10
0.866641
20
2.76269
11
0.865945
21
2.7624
0
LINE
8
BLACK
6
CONTINUOUS
10
0.865945
20
2.7624
11
0.0840551
21
2.7624
0
LINE
8
BLACK
6
CONTINUOUS
10
0.0840551
20
2.7624
11
0.0833591
21
2.76269
0
LINE
8
BLACK
6
CONTINUOUS
10
0.0833591
20
2.76269
11
0.0830709
21
2.76339
0
LINE
8
BLACK
6
CONTINUOUS
10
0.0830709
20
2.76339
11
0.0830709
21
3.31575
0
LINE
8
BLACK
6
CONTINUOUS
10
0.0830709
20
3.31575
11
0.0833591
21
3.31644
0
LINE
8
BLACK
6
CONTINUOUS
10
0.0833591
20
3.31644
11
0.0840551
21
3.31673
0
LINE
8
BLACK
6
CONTINUOUS
10
0.0840551
20
3.31673
11
0.865945
21
3.31673
0
LINE
8
BLACK
6
CONTINUOUS
10
0.0850394
20
3.31476
11
0.0850394
21
2.76437
0
LINE
8
BLACK
6
CONTINUOUS
10
0.0850394
20
2.76437
11
0.864961
21
2.76437
0
LINE
8
BLACK
6
CONTINUOUS
10
0.864961
20
2.76437
11
0.864961
21
3.31476
0
LINE
8
BLACK
6
CONTINUOUS
10
0.864961
20
3.31476
11
0.0850394
21
3.31476
0
LINE
8
BLACK
6
CONTINUOUS
10
2.61594
20
3.31673
11
2.61664
21
3.31644
0
LINE
8
BLACK
6
CONTINUOUS
10
2.61664
20
3.31644
11
2.61693
21
3.31575
0
LINE
8
BLACK
6
CONTINUOUS
10
2.61693
20
3.31575
11
2.61693
21
2.76339
0
LINE
8
BLACK
6
CONTINUOUS
10
2.61693
20
2.76339
11
2.61664
21
2.76269
0
LINE
8
BLACK
6
CONTINUOUS
10
2.61664
20
2.76269
11
2.61594
21
2.7624
0
LINE
8
BLACK
6
CONTINUOUS
10
2.61594
20
2.7624
11
1.83406
21
2.7624
0
LINE
8
BLACK
6
CONTINUOUS
10
1.83406
20
2.7624
11
1.83336
21
2.76269
0
LINE
8
BLACK
6
CONTINUOUS
10
1.83336
20
2.76269
11
1.83307
21
2.76339
0
LINE
8
BLACK
6
CONTINUOUS
10
1.83307
20
2.76339
11
1.83307
21
3.31575
0
LINE
8
BLACK
6
CONTINUOUS
10
1.83307
20
3.31575
11
1.83336
21
3.31644
0
LINE
8
BLACK
6
CONTINUOUS
10
1.83336
20
3.31644
11
1.83406
21
3.31673
0
LINE
8
BLACK
6
CONTINUOUS
10
1.83406
20
3.31673
11
2.61594
21
3.31673
0
LINE
8
BLACK
6
CONTINUOUS
10
1.83504
20
3.31476
11
1.83504
21
2.76437
0
LINE
8
BLACK
6
CONTINUOUS
10
1.83504
20
2.76437
11
2.61496
21
2.76437
0
LINE
8
BLACK
6
CONTINUOUS
10
2.61496
20
2.76437
11
2.61496
21
3.31476
0
LINE
8
BLACK
6
CONTINUOUS
10
2.61496
20
3.31476
11
1.83504
21
3.31476
0
LINE
8
BLACK
6
CONTINUOUS
10
3.44161
20
3.3202
11
3.44231
21
3.31991
0
LINE
8
BLACK
6
CONTINUOUS
10
3.44231
20
3.31991
11
3.4426
21
3.31921
0
LINE
8
BLACK
6
CONTINUOUS
10
3.4426
20
3.31921
11
3.4426
21
3.10268
0
LINE
8
BLACK
6
CONTINUOUS
10
3.4426
20
3.10268
11
3.44231
21
3.10198
0
LINE
8
BLACK
6
CONTINUOUS
10
3.44231
20
3.10198
11
3.44161
21
3.10169
0
LINE
8
BLACK
6
CONTINUOUS
10
3.44161
20
3.10169
11
2.76839
21
3.10169
0
LINE
8
BLACK
6
CONTINUOUS
10
2.76839
20
3.10169
11
2.76769
21
3.10198
0
LINE
8
BLACK
6
CONTINUOUS
10
2.76769
20
3.10198
11
2.7674
21
3.10268
0
LINE
8
BLACK
6
CONTINUOUS
10
2.7674
20
3.10268
11
2.7674
21
3.10268
0
LINE
8
BLACK
6
CONTINUOUS
10
2.7674
20
3.10268
11
2.7674
21
3.31921
0
LINE
8
BLACK
6
CONTINUOUS
10
2.7674
20
3.31921
11
2.76769
21
3.31991
0
LINE
8
BLACK
6
CONTINUOUS
10
2.76769
20
3.31991
11
2.76839
21
3.3202
0
LINE
8
BLACK
6
CONTINUOUS
10
2.76839
20
3.3202
11
3.44161
21
3.3202
0
LINE
8
BLACK
6
CONTINUOUS
10
2.76937
20
3.31823
11
2.76937
21
3.10366
0
LINE
8
BLACK
6
CONTINUOUS
10
2.76937
20
3.10366
11
3.44063
21
3.10366
0
LINE
8
BLACK
6
CONTINUOUS
10
3.44063
20
3.10366
11
3.44063
21
3.31823
0
LINE
8
BLACK
6
CONTINUOUS
10
3.44063
20
3.31823
11
2.76937
21
3.31823
0
LINE
8
BLACK
6
CONTINUOUS
10
2.75108
20
3.18681
11
2.75178
21
3.18652
0
LINE
8
BLACK
6
CONTINUOUS
10
2.75178
20
3.18652
11
2.75207
21
3.18583
0
LINE
8
BLACK
6
CONTINUOUS
10
2.75207
20
3.18583
11
2.75207
21
3.11102
0
LINE
8
BLACK
6
CONTINUOUS
10
2.75207
20
3.11102
11
2.75178
21
3.11033
0
LINE
8
BLACK
6
CONTINUOUS
10
2.75178
20
3.11033
11
2.75108
21
3.11004
0
LINE
8
BLACK
6
CONTINUOUS
10
2.75108
20
3.11004
11
2.6188
21
3.11004
0
LINE
8
BLACK
6
CONTINUOUS
10
2.6188
20
3.11004
11
2.6181
21
3.11033
0
LINE
8
BLACK
6
CONTINUOUS
10
2.6181
20
3.11033
11
2.61781
21
3.11102
0
LINE
8
BLACK
6
CONTINUOUS
10
2.61781
20
3.11102
11
2.61781
21
3.18583
0
LINE
8
BLACK
6
CONTINUOUS
10
2.61781
20
3.18583
11
2.6181
21
3.18652
0
LINE
8
BLACK
6
CONTINUOUS
10
2.6181
20
3.18652
11
2.6188
21
3.18681
0
LINE
8
BLACK
6
CONTINUOUS
10
2.6188
20
3.18681
11
2.75108
21
3.18681
0
LINE
8
BLACK
6
CONTINUOUS
10
2.61978
20
3.18484
11
2.61978
21
3.11201
0
LINE
8
BLACK
6
CONTINUOUS
10
2.61978
20
3.11201
11
2.7501
21
3.11201
0
LINE
8
BLACK
6
CONTINUOUS
10
2.7501
20
3.11201
11
2.7501
21
3.18484
0
LINE
8
BLACK
6
CONTINUOUS
10
2.7501
20
3.18484
11
2.61978
21
3.18484
0
LINE
8
BLACK
6
CONTINUOUS
10
2.76457
20
3.26437
11
2.76526
21
3.26408
0
LINE
8
BLACK
6
CONTINUOUS
10
2.76526
20
3.26408
11
2.76555
21
3.26339
0
LINE
8
BLACK
6
CONTINUOUS
10
2.76555
20
3.26339
11
2.76555
21
3.18858
0
LINE
8
BLACK
6
CONTINUOUS
10
2.76555
20
3.18858
11
2.76526
21
3.18789
0
LINE
8
BLACK
6
CONTINUOUS
10
2.76526
20
3.18789
11
2.76457
21
3.1876
0
LINE
8
BLACK
6
CONTINUOUS
10
2.76457
20
3.1876
11
2.6189
21
3.1876
0
LINE
8
BLACK
6
CONTINUOUS
10
2.6189
20
3.1876
11
2.6182
21
3.18789
0
LINE
8
BLACK
6
CONTINUOUS
10
2.6182
20
3.18789
11
2.61791
21
3.18858
0
LINE
8
BLACK
6
CONTINUOUS
10
2.61791
20
3.18858
11
2.61791
21
3.18858
0
LINE
8
BLACK
6
CONTINUOUS
10
2.61791
20
3.18858
11
2.61791
21
3.26339
0
LINE
8
BLACK
6
CONTINUOUS
10
2.61791
20
3.26339
11
2.6182
21
3.26408
0
LINE
8
BLACK
6
CONTINUOUS
10
2.6182
20
3.26408
11
2.6189
21
3.26437
0
LINE
8
BLACK
6
CONTINUOUS
10
2.6189
20
3.26437
11
2.76457
21
3.26437
0
LINE
8
BLACK
6
CONTINUOUS
10
2.61988
20
3.2624
11
2.61988
21
3.18957
0
LINE
8
BLACK
6
CONTINUOUS
10
2.61988
20
3.18957
11
2.76358
21
3.18957
0
LINE
8
BLACK
6
CONTINUOUS
10
2.76358
20
3.18957
11
2.76358
21
3.2624
0
LINE
8
BLACK
6
CONTINUOUS
10
2.76358
20
3.2624
11
2.61988
21
3.2624
0
LINE
8
BLACK
6
CONTINUOUS
10
0.203937
20
3.46516
11
0.204633
21
3.46487
0
LINE
8
BLACK
6
CONTINUOUS
10
0.204633
20
3.46487
11
0.204921
21
3.46417
0
LINE
8
BLACK
6
CONTINUOUS
10
0.204921
20
3.46417
11
0.204921
21
3.3185
0
LINE
8
BLACK
6
CONTINUOUS
10
0.204921
20
3.3185
11
0.204633
21
3.31781
0
LINE
8
BLACK
6
CONTINUOUS
10
0.204633
20
3.31781
11
0.203937
21
3.31752
0
LINE
8
BLACK
6
CONTINUOUS
10
0.203937
20
3.31752
11
0.129134
21
3.31752
0
LINE
8
BLACK
6
CONTINUOUS
10
0.129134
20
3.31752
11
0.128438
21
3.31781
0
LINE
8
BLACK
6
CONTINUOUS
10
0.128438
20
3.31781
11
0.12815
21
3.3185
0
LINE
8
BLACK
6
CONTINUOUS
10
0.12815
20
3.3185
11
0.12815
21
3.46417
0
LINE
8
BLACK
6
CONTINUOUS
10
0.12815
20
3.46417
11
0.128438
21
3.46487
0
LINE
8
BLACK
6
CONTINUOUS
10
0.128438
20
3.46487
11
0.129134
21
3.46516
0
LINE
8
BLACK
6
CONTINUOUS
10
0.129134
20
3.46516
11
0.203937
21
3.46516
0
LINE
8
BLACK
6
CONTINUOUS
10
0.130118
20
3.46319
11
0.130118
21
3.31949
0
LINE
8
BLACK
6
CONTINUOUS
10
0.130118
20
3.31949
11
0.202953
21
3.31949
0
LINE
8
BLACK
6
CONTINUOUS
10
0.202953
20
3.31949
11
0.202953
21
3.46319
0
LINE
8
BLACK
6
CONTINUOUS
10
0.202953
20
3.46319
11
0.130118
21
3.46319
0
LINE
8
BLACK
6
CONTINUOUS
10
0.125591
20
3.45187
11
0.126287
21
3.45158
0
LINE
8
BLACK
6
CONTINUOUS
10
0.126287
20
3.45158
11
0.126575
21
3.45089
0
LINE
8
BLACK
6
CONTINUOUS
10
0.126575
20
3.45089
11
0.126575
21
3.3186
0
LINE
8
BLACK
6
CONTINUOUS
10
0.126575
20
3.3186
11
0.126287
21
3.31791
0
LINE
8
BLACK
6
CONTINUOUS
10
0.126287
20
3.31791
11
0.125591
21
3.31762
0
LINE
8
BLACK
6
CONTINUOUS
10
0.125591
20
3.31762
11
0.0507874
21
3.31762
0
LINE
8
BLACK
6
CONTINUOUS
10
0.0507874
20
3.31762
11
0.0500914
21
3.31791
0
LINE
8
BLACK
6
CONTINUOUS
10
0.0500914
20
3.31791
11
0.0498031
21
3.3186
0
LINE
8
BLACK
6
CONTINUOUS
10
0.0498031
20
3.3186
11
0.0498031
21
3.45089
0
LINE
8
BLACK
6
CONTINUOUS
10
0.0498031
20
3.45089
11
0.0500914
21
3.45158
0
LINE
8
BLACK
6
CONTINUOUS
10
0.0500914
20
3.45158
11
0.0507874
21
3.45187
0
LINE
8
BLACK
6
CONTINUOUS
10
0.0507874
20
3.45187
11
0.125591
21
3.45187
0
LINE
8
BLACK
6
CONTINUOUS
10
0.0517717
20
3.4499
11
0.0517717
21
3.31959
0
LINE
8
BLACK
6
CONTINUOUS
10
0.0517717
20
3.31959
11
0.124606
21
3.31959
0
LINE
8
BLACK
6
CONTINUOUS
10
0.124606
20
3.31959
11
0.124606
21
3.4499
0
LINE
8
BLACK
6
CONTINUOUS
10
0.124606
20
3.4499
11
0.0517717
21
3.4499
  0
ENDSEC
  0
EOF
