<?xml version='1.0' encoding='ASCII' standalone='yes'?>
<svg xmlns:svg="http://www.w3.org/2000/svg" xmlns="http://www.w3.org/2000/svg" xmlns:xlink="http://www.w3.org/1999/xlink" version="1.1" width="431.8000mm" height="279.4000mm" viewBox="0.0000 0.0000 431.8000 279.4000">
<title>SVG Image created as MPPB01-B_Fab.svg date 2023/07/22 00:17:04 </title>
  <desc>Image generated by PCBNEW </desc>
<g style="fill:#000084; fill-opacity:1.0000;stroke:#000084; stroke-opacity:1.0000; stroke-linecap:round; stroke-linejoin:round;" transform="translate(0 0) scale(1 1)">
</g>
<g style="fill:#000084; fill-opacity:0.0;  stroke:#000084; stroke-width:0.0000; stroke-opacity:1;  stroke-linecap:round; stroke-linejoin:round;">
</g>
<g style="fill:#000084; fill-opacity:0.0;  stroke:#000084; stroke-width:0.2761; stroke-opacity:1;  stroke-linecap:round; stroke-linejoin:round;">
<path d="M168.2078 225.3835 L112.8480 225.3835 "/>
<path d="M112.8480 225.3835 L112.8480 241.9500 "/>
<path d="M112.8480 241.9500 L168.2078 241.9500 "/>
<path d="M168.2078 241.9500 L168.2078 225.3835 "/>
<path d="M319.3055 246.6535 L319.3055 95.8981 "/>
<path d="M168.2078 100.5823 L112.8480 100.5823 "/>
<path d="M232.0551 117.1585 L287.4149 117.1585 "/>
<path d="M112.8480 100.5823 L112.8480 117.1488 "/>
<path d="M231.9889 225.3835 L231.9889 241.9500 "/>
<path d="M287.4149 100.5920 L232.0551 100.5920 "/>
<path d="M287.3487 241.9500 L287.3487 225.3835 "/>
<path d="M112.8480 117.1488 L168.2078 117.1488 "/>
<path d="M231.9889 241.9500 L287.3487 241.9500 "/>
<path d="M168.2078 117.1488 L168.2078 100.5823 "/>
<path d="M80.8856 95.8981 L80.8856 246.6535 "/>
<path d="M319.3055 95.8981 L80.8856 95.8981 "/>
<path d="M232.0551 100.5920 L232.0551 117.1585 "/>
<path d="M287.4149 117.1585 L287.4149 100.5920 "/>
<path d="M287.3487 225.3835 L231.9889 225.3835 "/>
</g>
<g style="fill:#000084; fill-opacity:0.01;  stroke:#000084; stroke-width:0.8283; stroke-opacity:1;  stroke-linecap:round; stroke-linejoin:round;">
<text x="139.9728" y="110.8080" transform="scale(-1 1) translate(-279.945692 0)" textLength="9.3285" font-size="5.5222" lengthAdjust="spacingAndGlyphs" text-anchor="middle" opacity="0.01" style="font-family:monospace">P2</text>
<g class="stroked-text"><desc>P2</desc>
<path d="M136.9159 110.6101 L136.9159 106.4685 "/>
<path d="M136.9159 106.4685 L138.4937 106.4685 "/>
<path d="M138.4937 106.4685 L138.8881 106.6657 "/>
<path d="M138.8881 106.6657 L139.0854 106.8629 "/>
<path d="M139.0854 106.8629 L139.2826 107.2573 "/>
<path d="M139.2826 107.2573 L139.2826 107.8490 "/>
<path d="M139.2826 107.8490 L139.0854 108.2434 "/>
<path d="M139.0854 108.2434 L138.8881 108.4407 "/>
<path d="M138.8881 108.4407 L138.4937 108.6379 "/>
<path d="M138.4937 108.6379 L136.9159 108.6379 "/>
<path d="M140.8603 106.8629 L141.0576 106.6657 "/>
<path d="M141.0576 106.6657 L141.4520 106.4685 "/>
<path d="M141.4520 106.4685 L142.4381 106.4685 "/>
<path d="M142.4381 106.4685 L142.8325 106.6657 "/>
<path d="M142.8325 106.6657 L143.0298 106.8629 "/>
<path d="M143.0298 106.8629 L143.2270 107.2573 "/>
<path d="M143.2270 107.2573 L143.2270 107.6518 "/>
<path d="M143.2270 107.6518 L143.0298 108.2434 "/>
<path d="M143.0298 108.2434 L140.6631 110.6101 "/>
<path d="M140.6631 110.6101 L143.2270 110.6101 "/>
</g><text x="259.5279" y="235.4711" transform="scale(-1 1) translate(-519.055899 0)" textLength="9.3285" font-size="5.5222" lengthAdjust="spacingAndGlyphs" text-anchor="middle" opacity="0.01" style="font-family:monospace">P3</text>
<g class="stroked-text"><desc>P3</desc>
<path d="M256.4710 235.2732 L256.4710 231.1316 "/>
<path d="M256.4710 231.1316 L258.0488 231.1316 "/>
<path d="M258.0488 231.1316 L258.4432 231.3288 "/>
<path d="M258.4432 231.3288 L258.6405 231.5260 "/>
<path d="M258.6405 231.5260 L258.8377 231.9204 "/>
<path d="M258.8377 231.9204 L258.8377 232.5121 "/>
<path d="M258.8377 232.5121 L258.6405 232.9066 "/>
<path d="M258.6405 232.9066 L258.4432 233.1038 "/>
<path d="M258.4432 233.1038 L258.0488 233.3010 "/>
<path d="M258.0488 233.3010 L256.4710 233.3010 "/>
<path d="M260.2182 231.1316 L262.7821 231.1316 "/>
<path d="M262.7821 231.1316 L261.4015 232.7093 "/>
<path d="M261.4015 232.7093 L261.9932 232.7093 "/>
<path d="M261.9932 232.7093 L262.3876 232.9066 "/>
<path d="M262.3876 232.9066 L262.5849 233.1038 "/>
<path d="M262.5849 233.1038 L262.7821 233.4982 "/>
<path d="M262.7821 233.4982 L262.7821 234.4843 "/>
<path d="M262.7821 234.4843 L262.5849 234.8788 "/>
<path d="M262.5849 234.8788 L262.3876 235.0760 "/>
<path d="M262.3876 235.0760 L261.9932 235.2732 "/>
<path d="M261.9932 235.2732 L260.8099 235.2732 "/>
<path d="M260.8099 235.2732 L260.4154 235.0760 "/>
<path d="M260.4154 235.0760 L260.2182 234.8788 "/>
</g><text x="259.3899" y="110.6699" transform="scale(-1 1) translate(-518.779790 0)" textLength="9.3285" font-size="5.5222" lengthAdjust="spacingAndGlyphs" text-anchor="middle" opacity="0.01" style="font-family:monospace">P1</text>
<g class="stroked-text"><desc>P1</desc>
<path d="M256.3330 110.4720 L256.3330 106.3304 "/>
<path d="M256.3330 106.3304 L257.9107 106.3304 "/>
<path d="M257.9107 106.3304 L258.3052 106.5276 "/>
<path d="M258.3052 106.5276 L258.5024 106.7248 "/>
<path d="M258.5024 106.7248 L258.6996 107.1193 "/>
<path d="M258.6996 107.1193 L258.6996 107.7109 "/>
<path d="M258.6996 107.7109 L258.5024 108.1054 "/>
<path d="M258.5024 108.1054 L258.3052 108.3026 "/>
<path d="M258.3052 108.3026 L257.9107 108.4998 "/>
<path d="M257.9107 108.4998 L256.3330 108.4998 "/>
<path d="M262.6440 110.4720 L260.2774 110.4720 "/>
<path d="M261.4607 110.4720 L261.4607 106.3304 "/>
<path d="M261.4607 106.3304 L261.0663 106.9221 "/>
<path d="M261.0663 106.9221 L260.6718 107.3165 "/>
<path d="M260.6718 107.3165 L260.2774 107.5137 "/>
</g><text x="139.5587" y="236.0233" transform="scale(-1 1) translate(-279.117366 0)" textLength="9.3285" font-size="5.5222" lengthAdjust="spacingAndGlyphs" text-anchor="middle" opacity="0.01" style="font-family:monospace">P4</text>
<g class="stroked-text"><desc>P4</desc>
<path d="M136.5018 235.8254 L136.5018 231.6838 "/>
<path d="M136.5018 231.6838 L138.0795 231.6838 "/>
<path d="M138.0795 231.6838 L138.4740 231.8810 "/>
<path d="M138.4740 231.8810 L138.6712 232.0782 "/>
<path d="M138.6712 232.0782 L138.8684 232.4727 "/>
<path d="M138.8684 232.4727 L138.8684 233.0643 "/>
<path d="M138.8684 233.0643 L138.6712 233.4588 "/>
<path d="M138.6712 233.4588 L138.4740 233.6560 "/>
<path d="M138.4740 233.6560 L138.0795 233.8532 "/>
<path d="M138.0795 233.8532 L136.5018 233.8532 "/>
<path d="M142.4184 233.0643 L142.4184 235.8254 "/>
<path d="M141.4323 231.4866 L140.4462 234.4449 "/>
<path d="M140.4462 234.4449 L143.0100 234.4449 "/>
</g></g>
<g style="fill:#000084; fill-opacity:0.01;  stroke:#000084; stroke-width:0.4142; stroke-opacity:1;  stroke-linecap:round; stroke-linejoin:round;">
<text x="200.1894" y="67.4700" transform="scale(-1 1) translate(-400.378821 0)" textLength="5.8739" font-size="3.6814" lengthAdjust="spacingAndGlyphs" text-anchor="middle" opacity="0.01" style="font-family:monospace">P5</text>
<g class="stroked-text"><desc>P5</desc>
<path d="M198.1515 67.3452 L198.1515 64.5841 "/>
<path d="M198.1515 64.5841 L199.2033 64.5841 "/>
<path d="M199.2033 64.5841 L199.4663 64.7156 "/>
<path d="M199.4663 64.7156 L199.5978 64.8471 "/>
<path d="M199.5978 64.8471 L199.7292 65.1100 "/>
<path d="M199.7292 65.1100 L199.7292 65.5045 "/>
<path d="M199.7292 65.5045 L199.5978 65.7674 "/>
<path d="M199.5978 65.7674 L199.4663 65.8989 "/>
<path d="M199.4663 65.8989 L199.2033 66.0304 "/>
<path d="M199.2033 66.0304 L198.1515 66.0304 "/>
<path d="M202.2274 64.5841 L200.9126 64.5841 "/>
<path d="M200.9126 64.5841 L200.7811 65.8989 "/>
<path d="M200.7811 65.8989 L200.9126 65.7674 "/>
<path d="M200.9126 65.7674 L201.1755 65.6360 "/>
<path d="M201.1755 65.6360 L201.8329 65.6360 "/>
<path d="M201.8329 65.6360 L202.0959 65.7674 "/>
<path d="M202.0959 65.7674 L202.2274 65.8989 "/>
<path d="M202.2274 65.8989 L202.3588 66.1619 "/>
<path d="M202.3588 66.1619 L202.3588 66.8193 "/>
<path d="M202.3588 66.8193 L202.2274 67.0822 "/>
<path d="M202.2274 67.0822 L202.0959 67.2137 "/>
<path d="M202.0959 67.2137 L201.8329 67.3452 "/>
<path d="M201.8329 67.3452 L201.1755 67.3452 "/>
<path d="M201.1755 67.3452 L200.9126 67.2137 "/>
<path d="M200.9126 67.2137 L200.7811 67.0822 "/>
</g><text x="141.4445" y="267.7786" transform="scale(-1 1) translate(-282.889012 0)" textLength="5.8739" font-size="3.6814" lengthAdjust="spacingAndGlyphs" text-anchor="middle" opacity="0.01" style="font-family:monospace">P9</text>
<g class="stroked-text"><desc>P9</desc>
<path d="M139.4066 267.6538 L139.4066 264.8927 "/>
<path d="M139.4066 264.8927 L140.4584 264.8927 "/>
<path d="M140.4584 264.8927 L140.7214 265.0242 "/>
<path d="M140.7214 265.0242 L140.8528 265.1557 "/>
<path d="M140.8528 265.1557 L140.9843 265.4187 "/>
<path d="M140.9843 265.4187 L140.9843 265.8131 "/>
<path d="M140.9843 265.8131 L140.8528 266.0761 "/>
<path d="M140.8528 266.0761 L140.7214 266.2075 "/>
<path d="M140.7214 266.2075 L140.4584 266.3390 "/>
<path d="M140.4584 266.3390 L139.4066 266.3390 "/>
<path d="M142.2991 267.6538 L142.8251 267.6538 "/>
<path d="M142.8251 267.6538 L143.0880 267.5224 "/>
<path d="M143.0880 267.5224 L143.2195 267.3909 "/>
<path d="M143.2195 267.3909 L143.4825 266.9964 "/>
<path d="M143.4825 266.9964 L143.6139 266.4705 "/>
<path d="M143.6139 266.4705 L143.6139 265.4187 "/>
<path d="M143.6139 265.4187 L143.4825 265.1557 "/>
<path d="M143.4825 265.1557 L143.3510 265.0242 "/>
<path d="M143.3510 265.0242 L143.0880 264.8927 "/>
<path d="M143.0880 264.8927 L142.5621 264.8927 "/>
<path d="M142.5621 264.8927 L142.2991 265.0242 "/>
<path d="M142.2991 265.0242 L142.1677 265.1557 "/>
<path d="M142.1677 265.1557 L142.0362 265.4187 "/>
<path d="M142.0362 265.4187 L142.0362 266.0761 "/>
<path d="M142.0362 266.0761 L142.1677 266.3390 "/>
<path d="M142.1677 266.3390 L142.2991 266.4705 "/>
<path d="M142.2991 266.4705 L142.5621 266.6020 "/>
<path d="M142.5621 266.6020 L143.0880 266.6020 "/>
<path d="M143.0880 266.6020 L143.3510 266.4705 "/>
<path d="M143.3510 266.4705 L143.4825 266.3390 "/>
<path d="M143.4825 266.3390 L143.6139 266.0761 "/>
</g><text x="322.9198" y="67.4700" transform="scale(-1 1) translate(-645.839530 0)" textLength="5.8739" font-size="3.6814" lengthAdjust="spacingAndGlyphs" text-anchor="middle" opacity="0.01" style="font-family:monospace">P6</text>
<g class="stroked-text"><desc>P6</desc>
<path d="M320.8818 67.3452 L320.8818 64.5841 "/>
<path d="M320.8818 64.5841 L321.9337 64.5841 "/>
<path d="M321.9337 64.5841 L322.1966 64.7156 "/>
<path d="M322.1966 64.7156 L322.3281 64.8471 "/>
<path d="M322.3281 64.8471 L322.4596 65.1100 "/>
<path d="M322.4596 65.1100 L322.4596 65.5045 "/>
<path d="M322.4596 65.5045 L322.3281 65.7674 "/>
<path d="M322.3281 65.7674 L322.1966 65.8989 "/>
<path d="M322.1966 65.8989 L321.9337 66.0304 "/>
<path d="M321.9337 66.0304 L320.8818 66.0304 "/>
<path d="M324.8262 64.5841 L324.3003 64.5841 "/>
<path d="M324.3003 64.5841 L324.0374 64.7156 "/>
<path d="M324.0374 64.7156 L323.9059 64.8471 "/>
<path d="M323.9059 64.8471 L323.6429 65.2415 "/>
<path d="M323.6429 65.2415 L323.5114 65.7674 "/>
<path d="M323.5114 65.7674 L323.5114 66.8193 "/>
<path d="M323.5114 66.8193 L323.6429 67.0822 "/>
<path d="M323.6429 67.0822 L323.7744 67.2137 "/>
<path d="M323.7744 67.2137 L324.0374 67.3452 "/>
<path d="M324.0374 67.3452 L324.5633 67.3452 "/>
<path d="M324.5633 67.3452 L324.8262 67.2137 "/>
<path d="M324.8262 67.2137 L324.9577 67.0822 "/>
<path d="M324.9577 67.0822 L325.0892 66.8193 "/>
<path d="M325.0892 66.8193 L325.0892 66.1619 "/>
<path d="M325.0892 66.1619 L324.9577 65.8989 "/>
<path d="M324.9577 65.8989 L324.8262 65.7674 "/>
<path d="M324.8262 65.7674 L324.5633 65.6360 "/>
<path d="M324.5633 65.6360 L324.0374 65.6360 "/>
<path d="M324.0374 65.6360 L323.7744 65.7674 "/>
<path d="M323.7744 65.7674 L323.6429 65.8989 "/>
<path d="M323.6429 65.8989 L323.5114 66.1619 "/>
</g><text x="138.4045" y="60.0785" transform="scale(-1 1) translate(-276.809097 0)" textLength="8.5035" font-size="3.6814" lengthAdjust="spacingAndGlyphs" text-anchor="middle" opacity="0.01" style="font-family:monospace">P10</text>
<g class="stroked-text"><desc>P10</desc>
<path d="M135.0518 59.9538 L135.0518 57.1927 "/>
<path d="M135.0518 57.1927 L136.1036 57.1927 "/>
<path d="M136.1036 57.1927 L136.3666 57.3242 "/>
<path d="M136.3666 57.3242 L136.4981 57.4556 "/>
<path d="M136.4981 57.4556 L136.6296 57.7186 "/>
<path d="M136.6296 57.7186 L136.6296 58.1130 "/>
<path d="M136.6296 58.1130 L136.4981 58.3760 "/>
<path d="M136.4981 58.3760 L136.3666 58.5075 "/>
<path d="M136.3666 58.5075 L136.1036 58.6390 "/>
<path d="M136.1036 58.6390 L135.0518 58.6390 "/>
<path d="M139.2592 59.9538 L137.6814 59.9538 "/>
<path d="M138.4703 59.9538 L138.4703 57.1927 "/>
<path d="M138.4703 57.1927 L138.2073 57.5871 "/>
<path d="M138.2073 57.5871 L137.9444 57.8501 "/>
<path d="M137.9444 57.8501 L137.6814 57.9816 "/>
<path d="M140.9684 57.1927 L141.2314 57.1927 "/>
<path d="M141.2314 57.1927 L141.4943 57.3242 "/>
<path d="M141.4943 57.3242 L141.6258 57.4556 "/>
<path d="M141.6258 57.4556 L141.7573 57.7186 "/>
<path d="M141.7573 57.7186 L141.8888 58.2445 "/>
<path d="M141.8888 58.2445 L141.8888 58.9019 "/>
<path d="M141.8888 58.9019 L141.7573 59.4278 "/>
<path d="M141.7573 59.4278 L141.6258 59.6908 "/>
<path d="M141.6258 59.6908 L141.4943 59.8223 "/>
<path d="M141.4943 59.8223 L141.2314 59.9538 "/>
<path d="M141.2314 59.9538 L140.9684 59.9538 "/>
<path d="M140.9684 59.9538 L140.7055 59.8223 "/>
<path d="M140.7055 59.8223 L140.5740 59.6908 "/>
<path d="M140.5740 59.6908 L140.4425 59.4278 "/>
<path d="M140.4425 59.4278 L140.3110 58.9019 "/>
<path d="M140.3110 58.9019 L140.3110 58.2445 "/>
<path d="M140.3110 58.2445 L140.4425 57.7186 "/>
<path d="M140.4425 57.7186 L140.5740 57.4556 "/>
<path d="M140.5740 57.4556 L140.7055 57.3242 "/>
<path d="M140.7055 57.3242 L140.9684 57.1927 "/>
</g></g>
<g style="fill:#000084; fill-opacity:0.0;  stroke:#000084; stroke-width:0.2209; stroke-opacity:1;  stroke-linecap:round; stroke-linejoin:round;">
<g transform="rotate(-90.000000 109.8190 254.4508)">
<text x="109.8190" y="255.1411" transform="scale(-1 1) translate(-219.638012 0)" textLength="2.9715" font-size="1.8407" lengthAdjust="spacingAndGlyphs" text-anchor="middle" opacity="0.01" style="font-family:monospace">C1</text>
</g>
<g class="stroked-text"><desc>C1</desc>
<path d="M109.3233 254.2207 L109.2576 254.1550 "/>
<path d="M109.2576 254.1550 L109.1918 253.9578 "/>
<path d="M109.1918 253.9578 L109.1918 253.8263 "/>
<path d="M109.1918 253.8263 L109.2576 253.6291 "/>
<path d="M109.2576 253.6291 L109.3890 253.4976 "/>
<path d="M109.3890 253.4976 L109.5205 253.4318 "/>
<path d="M109.5205 253.4318 L109.7835 253.3661 "/>
<path d="M109.7835 253.3661 L109.9807 253.3661 "/>
<path d="M109.9807 253.3661 L110.2437 253.4318 "/>
<path d="M110.2437 253.4318 L110.3751 253.4976 "/>
<path d="M110.3751 253.4976 L110.5066 253.6291 "/>
<path d="M110.5066 253.6291 L110.5724 253.8263 "/>
<path d="M110.5724 253.8263 L110.5724 253.9578 "/>
<path d="M110.5724 253.9578 L110.5066 254.1550 "/>
<path d="M110.5066 254.1550 L110.4409 254.2207 "/>
<path d="M109.1918 255.5355 L109.1918 254.7466 "/>
<path d="M109.1918 255.1411 L110.5724 255.1411 "/>
<path d="M110.5724 255.1411 L110.3751 255.0096 "/>
<path d="M110.3751 255.0096 L110.2437 254.8781 "/>
<path d="M110.2437 254.8781 L110.1779 254.7466 "/>
</g></g>
<g style="fill:#000084; fill-opacity:0.0;  stroke:#000084; stroke-width:0.3313; stroke-opacity:1;  stroke-linecap:round; stroke-linejoin:round;">
<g transform="rotate(-90.000000 109.8190 266.3235)">
<text x="109.8190" y="267.4279" transform="scale(-1 1) translate(-219.638012 0)" textLength="4.6991" font-size="2.9452" lengthAdjust="spacingAndGlyphs" text-anchor="middle" opacity="0.01" style="font-family:monospace">C2</text>
</g>
<g class="stroked-text"><desc>C2</desc>
<path d="M109.0247 265.9553 L108.9196 265.8502 "/>
<path d="M108.9196 265.8502 L108.8144 265.5346 "/>
<path d="M108.8144 265.5346 L108.8144 265.3242 "/>
<path d="M108.8144 265.3242 L108.9196 265.0087 "/>
<path d="M108.9196 265.0087 L109.1299 264.7983 "/>
<path d="M109.1299 264.7983 L109.3403 264.6931 "/>
<path d="M109.3403 264.6931 L109.7610 264.5879 "/>
<path d="M109.7610 264.5879 L110.0766 264.5879 "/>
<path d="M110.0766 264.5879 L110.4973 264.6931 "/>
<path d="M110.4973 264.6931 L110.7077 264.7983 "/>
<path d="M110.7077 264.7983 L110.9181 265.0087 "/>
<path d="M110.9181 265.0087 L111.0232 265.3242 "/>
<path d="M111.0232 265.3242 L111.0232 265.5346 "/>
<path d="M111.0232 265.5346 L110.9181 265.8502 "/>
<path d="M110.9181 265.8502 L110.8129 265.9553 "/>
<path d="M110.8129 266.7968 L110.9181 266.9020 "/>
<path d="M110.9181 266.9020 L111.0232 267.1124 "/>
<path d="M111.0232 267.1124 L111.0232 267.6383 "/>
<path d="M111.0232 267.6383 L110.9181 267.8487 "/>
<path d="M110.9181 267.8487 L110.8129 267.9538 "/>
<path d="M110.8129 267.9538 L110.6025 268.0590 "/>
<path d="M110.6025 268.0590 L110.3921 268.0590 "/>
<path d="M110.3921 268.0590 L110.0766 267.9538 "/>
<path d="M110.0766 267.9538 L108.8144 266.6916 "/>
<path d="M108.8144 266.6916 L108.8144 268.0590 "/>
</g></g>
<g style="fill:#000084; fill-opacity:0.0;  stroke:#000084; stroke-width:0.4142; stroke-opacity:1;  stroke-linecap:round; stroke-linejoin:round;">
<g transform="rotate(-90.000000 127.4900 262.5960)">
<text x="127.4900" y="263.9766" transform="scale(-1 1) translate(-254.979936 0)" textLength="5.8739" font-size="3.6814" lengthAdjust="spacingAndGlyphs" text-anchor="middle" opacity="0.01" style="font-family:monospace">D1</text>
</g>
<g class="stroked-text"><desc>D1</desc>
<path d="M126.2342 260.5581 L128.9953 260.5581 "/>
<path d="M128.9953 260.5581 L128.9953 261.2155 "/>
<path d="M128.9953 261.2155 L128.8638 261.6099 "/>
<path d="M128.8638 261.6099 L128.6008 261.8729 "/>
<path d="M128.6008 261.8729 L128.3379 262.0044 "/>
<path d="M128.3379 262.0044 L127.8119 262.1358 "/>
<path d="M127.8119 262.1358 L127.4175 262.1358 "/>
<path d="M127.4175 262.1358 L126.8916 262.0044 "/>
<path d="M126.8916 262.0044 L126.6286 261.8729 "/>
<path d="M126.6286 261.8729 L126.3657 261.6099 "/>
<path d="M126.3657 261.6099 L126.2342 261.2155 "/>
<path d="M126.2342 261.2155 L126.2342 260.5581 "/>
<path d="M126.2342 264.7654 L126.2342 263.1877 "/>
<path d="M126.2342 263.9766 L128.9953 263.9766 "/>
<path d="M128.9953 263.9766 L128.6008 263.7136 "/>
<path d="M128.6008 263.7136 L128.3379 263.4506 "/>
<path d="M128.3379 263.4506 L128.2064 263.1877 "/>
</g></g>
<g style="fill:#000084; fill-opacity:0.01;  stroke:#000084; stroke-width:0.2209; stroke-opacity:1;  stroke-linecap:round; stroke-linejoin:round;">
<text x="167.8640" y="59.8493" transform="scale(-1 1) translate(-335.727950 0)" textLength="2.9715" font-size="1.8407" lengthAdjust="spacingAndGlyphs" text-anchor="middle" opacity="0.01" style="font-family:monospace">C3</text>
<g class="stroked-text"><desc>C3</desc>
<path d="M167.6339 59.6548 L167.5681 59.7205 "/>
<path d="M167.5681 59.7205 L167.3709 59.7862 "/>
<path d="M167.3709 59.7862 L167.2394 59.7862 "/>
<path d="M167.2394 59.7862 L167.0422 59.7205 "/>
<path d="M167.0422 59.7205 L166.9107 59.5890 "/>
<path d="M166.9107 59.5890 L166.8450 59.4575 "/>
<path d="M166.8450 59.4575 L166.7793 59.1946 "/>
<path d="M166.7793 59.1946 L166.7793 58.9974 "/>
<path d="M166.7793 58.9974 L166.8450 58.7344 "/>
<path d="M166.8450 58.7344 L166.9107 58.6029 "/>
<path d="M166.9107 58.6029 L167.0422 58.4714 "/>
<path d="M167.0422 58.4714 L167.2394 58.4057 "/>
<path d="M167.2394 58.4057 L167.3709 58.4057 "/>
<path d="M167.3709 58.4057 L167.5681 58.4714 "/>
<path d="M167.5681 58.4714 L167.6339 58.5372 "/>
<path d="M168.0941 58.4057 L168.9487 58.4057 "/>
<path d="M168.9487 58.4057 L168.4885 58.9316 "/>
<path d="M168.4885 58.9316 L168.6857 58.9316 "/>
<path d="M168.6857 58.9316 L168.8172 58.9974 "/>
<path d="M168.8172 58.9974 L168.8829 59.0631 "/>
<path d="M168.8829 59.0631 L168.9487 59.1946 "/>
<path d="M168.9487 59.1946 L168.9487 59.5233 "/>
<path d="M168.9487 59.5233 L168.8829 59.6548 "/>
<path d="M168.8829 59.6548 L168.8172 59.7205 "/>
<path d="M168.8172 59.7205 L168.6857 59.7862 "/>
<path d="M168.6857 59.7862 L168.2913 59.7862 "/>
<path d="M168.2913 59.7862 L168.1598 59.7205 "/>
<path d="M168.1598 59.7205 L168.0941 59.6548 "/>
</g><g transform="rotate(-90.000000 349.9784 42.5856)">
<text x="349.9784" y="43.2759" transform="scale(-1 1) translate(-699.956851 0)" textLength="2.9715" font-size="1.8407" lengthAdjust="spacingAndGlyphs" text-anchor="middle" opacity="0.01" style="font-family:monospace">C4</text>
</g>
<g class="stroked-text"><desc>C4</desc>
<path d="M349.4827 42.3555 L349.4170 42.2898 "/>
<path d="M349.4170 42.2898 L349.3512 42.0926 "/>
<path d="M349.3512 42.0926 L349.3512 41.9611 "/>
<path d="M349.3512 41.9611 L349.4170 41.7639 "/>
<path d="M349.4170 41.7639 L349.5485 41.6324 "/>
<path d="M349.5485 41.6324 L349.6799 41.5667 "/>
<path d="M349.6799 41.5667 L349.9429 41.5009 "/>
<path d="M349.9429 41.5009 L350.1401 41.5009 "/>
<path d="M350.1401 41.5009 L350.4031 41.5667 "/>
<path d="M350.4031 41.5667 L350.5346 41.6324 "/>
<path d="M350.5346 41.6324 L350.6660 41.7639 "/>
<path d="M350.6660 41.7639 L350.7318 41.9611 "/>
<path d="M350.7318 41.9611 L350.7318 42.0926 "/>
<path d="M350.7318 42.0926 L350.6660 42.2898 "/>
<path d="M350.6660 42.2898 L350.6003 42.3555 "/>
<path d="M350.2716 43.5389 L349.3512 43.5389 "/>
<path d="M350.7975 43.2102 L349.8114 42.8815 "/>
<path d="M349.8114 42.8815 L349.8114 43.7361 "/>
</g><text x="167.3877" y="54.4100" transform="scale(-1 1) translate(-334.775375 0)" textLength="2.9715" font-size="1.8407" lengthAdjust="spacingAndGlyphs" text-anchor="middle" opacity="0.01" style="font-family:monospace">R1</text>
<g class="stroked-text"><desc>R1</desc>
<path d="M167.1576 54.3469 L166.6974 53.6895 "/>
<path d="M166.3687 54.3469 L166.3687 52.9664 "/>
<path d="M166.3687 52.9664 L166.8946 52.9664 "/>
<path d="M166.8946 52.9664 L167.0261 53.0321 "/>
<path d="M167.0261 53.0321 L167.0919 53.0978 "/>
<path d="M167.0919 53.0978 L167.1576 53.2293 "/>
<path d="M167.1576 53.2293 L167.1576 53.4265 "/>
<path d="M167.1576 53.4265 L167.0919 53.5580 "/>
<path d="M167.0919 53.5580 L167.0261 53.6238 "/>
<path d="M167.0261 53.6238 L166.8946 53.6895 "/>
<path d="M166.8946 53.6895 L166.3687 53.6895 "/>
<path d="M168.4724 54.3469 L167.6835 54.3469 "/>
<path d="M168.0780 54.3469 L168.0780 52.9664 "/>
<path d="M168.0780 52.9664 L167.9465 53.1636 "/>
<path d="M167.9465 53.1636 L167.8150 53.2951 "/>
<path d="M167.8150 53.2951 L167.6835 53.3608 "/>
</g><g transform="rotate(-90.000000 344.4839 42.1232)">
<text x="344.4839" y="42.8134" transform="scale(-1 1) translate(-688.967722 0)" textLength="2.9715" font-size="1.8407" lengthAdjust="spacingAndGlyphs" text-anchor="middle" opacity="0.01" style="font-family:monospace">R2</text>
</g>
<g class="stroked-text"><desc>R2</desc>
<path d="M343.8567 41.8931 L344.5141 41.4329 "/>
<path d="M343.8567 41.1042 L345.2372 41.1042 "/>
<path d="M345.2372 41.1042 L345.2372 41.6301 "/>
<path d="M345.2372 41.6301 L345.1715 41.7616 "/>
<path d="M345.1715 41.7616 L345.1057 41.8273 "/>
<path d="M345.1057 41.8273 L344.9743 41.8931 "/>
<path d="M344.9743 41.8931 L344.7770 41.8931 "/>
<path d="M344.7770 41.8931 L344.6456 41.8273 "/>
<path d="M344.6456 41.8273 L344.5798 41.7616 "/>
<path d="M344.5798 41.7616 L344.5141 41.6301 "/>
<path d="M344.5141 41.6301 L344.5141 41.1042 "/>
<path d="M345.1057 42.4190 L345.1715 42.4847 "/>
<path d="M345.1715 42.4847 L345.2372 42.6162 "/>
<path d="M345.2372 42.6162 L345.2372 42.9449 "/>
<path d="M345.2372 42.9449 L345.1715 43.0764 "/>
<path d="M345.1715 43.0764 L345.1057 43.1421 "/>
<path d="M345.1057 43.1421 L344.9743 43.2079 "/>
<path d="M344.9743 43.2079 L344.8428 43.2079 "/>
<path d="M344.8428 43.2079 L344.6456 43.1421 "/>
<path d="M344.6456 43.1421 L343.8567 42.3532 "/>
<path d="M343.8567 42.3532 L343.8567 43.2079 "/>
</g><text x="252.4292" y="255.0030" transform="scale(-1 1) translate(-504.858385 0)" textLength="2.9715" font-size="1.8407" lengthAdjust="spacingAndGlyphs" text-anchor="middle" opacity="0.01" style="font-family:monospace">R3</text>
<g class="stroked-text"><desc>R3</desc>
<path d="M252.1991 254.9399 L251.7389 254.2825 "/>
<path d="M251.4102 254.9399 L251.4102 253.5594 "/>
<path d="M251.4102 253.5594 L251.9361 253.5594 "/>
<path d="M251.9361 253.5594 L252.0676 253.6251 "/>
<path d="M252.0676 253.6251 L252.1334 253.6909 "/>
<path d="M252.1334 253.6909 L252.1991 253.8224 "/>
<path d="M252.1991 253.8224 L252.1991 254.0196 "/>
<path d="M252.1991 254.0196 L252.1334 254.1511 "/>
<path d="M252.1334 254.1511 L252.0676 254.2168 "/>
<path d="M252.0676 254.2168 L251.9361 254.2825 "/>
<path d="M251.9361 254.2825 L251.4102 254.2825 "/>
<path d="M252.6593 253.5594 L253.5139 253.5594 "/>
<path d="M253.5139 253.5594 L253.0537 254.0853 "/>
<path d="M253.0537 254.0853 L253.2509 254.0853 "/>
<path d="M253.2509 254.0853 L253.3824 254.1511 "/>
<path d="M253.3824 254.1511 L253.4482 254.2168 "/>
<path d="M253.4482 254.2168 L253.5139 254.3483 "/>
<path d="M253.5139 254.3483 L253.5139 254.6770 "/>
<path d="M253.5139 254.6770 L253.4482 254.8085 "/>
<path d="M253.4482 254.8085 L253.3824 254.8742 "/>
<path d="M253.3824 254.8742 L253.2509 254.9399 "/>
<path d="M253.2509 254.9399 L252.8565 254.9399 "/>
<path d="M252.8565 254.9399 L252.7250 254.8742 "/>
<path d="M252.7250 254.8742 L252.6593 254.8085 "/>
</g></g>
<g style="fill:#000084; fill-opacity:0.0;  stroke:#000084; stroke-width:0.3313; stroke-opacity:1;  stroke-linecap:round; stroke-linejoin:round;">
<path d="M226.2127 49.7990 L224.9702 48.2804 "/>
<path d="M226.2127 83.8984 L226.2127 49.7990 "/>
<path d="M224.9702 48.2804 L174.1662 48.2804 "/>
<path d="M174.1662 48.2804 L174.1662 83.8984 "/>
<path d="M174.1662 83.8984 L226.2127 83.8984 "/>
</g>
<g style="fill:#000084; fill-opacity:0.0;  stroke:#000084; stroke-width:0.4142; stroke-opacity:1;  stroke-linecap:round; stroke-linejoin:round;">
<path d="M130.2234 259.0342 L151.2629 259.0342 "/>
<path d="M151.2629 259.0342 L151.2629 273.0605 "/>
<path d="M130.2234 273.0605 L130.2234 259.0342 "/>
<path d="M151.2629 273.0605 L130.2234 273.0605 "/>
</g>
<g style="fill:#000084; fill-opacity:0.0;  stroke:#000084; stroke-width:0.3313; stroke-opacity:1;  stroke-linecap:round; stroke-linejoin:round;">
<path d="M348.9430 49.7990 L347.7005 48.2804 "/>
<path d="M348.9430 83.8984 L348.9430 49.7990 "/>
<path d="M347.7005 48.2804 L296.8965 48.2804 "/>
<path d="M296.8965 48.2804 L296.8965 83.8984 "/>
<path d="M296.8965 83.8984 L348.9430 83.8984 "/>
</g>
<g style="fill:#000084; fill-opacity:0.0;  stroke:#000084; stroke-width:0.2761; stroke-opacity:1;  stroke-linecap:round; stroke-linejoin:round;">
<path d="M161.5480 47.4769 L115.2611 47.4769 "/>
<path d="M161.5480 61.8539 L161.5480 47.4769 "/>
<path d="M115.2611 47.4769 L115.2611 61.8539 "/>
<path d="M115.2611 61.8539 L161.5480 61.8539 "/>
</g>
<g style="fill:#000084; fill-opacity:0.0;  stroke:#000084; stroke-width:1.0520; stroke-opacity:1;  stroke-linecap:round; stroke-linejoin:round;">
<circle cx="342.1369" cy="13.4631" r="8.2825"/> 
<circle cx="89.6631" cy="13.4631" r="8.2825"/> 
<circle cx="342.1369" cy="265.9369" r="8.2825"/> 
</g>
<g style="fill:#000084; fill-opacity:0.0;  stroke:#000084; stroke-width:0.2761; stroke-opacity:1;  stroke-linecap:round; stroke-linejoin:round;">
<path d="M111.4757 257.2119 L108.1624 257.2119 "/>
<path d="M108.1624 257.2119 L108.1624 251.6897 "/>
<path d="M111.4757 251.6897 L111.4757 257.2119 "/>
<path d="M108.1624 251.6897 L111.4757 251.6897 "/>
<path d="M106.3676 261.9057 L113.2704 261.9057 "/>
<path d="M113.2704 261.9057 L113.2704 270.7412 "/>
<path d="M106.3676 270.7412 L106.3676 261.9057 "/>
<path d="M113.2704 270.7412 L106.3676 270.7412 "/>
<path d="M116.4456 256.2455 L124.7289 256.2455 "/>
<path d="M120.5844 260.8029 L120.5844 258.3132 "/>
<path d="M120.5844 260.8029 L118.5155 263.9798 "/>
<path d="M120.5844 260.8029 L122.7936 263.9798 "/>
<path d="M122.7936 260.8029 L118.3753 260.8029 "/>
<path d="M118.5155 263.9798 L122.7936 263.9798 "/>
<path d="M120.5844 263.9798 L120.5844 266.7360 "/>
<path d="M116.4456 268.9465 L116.4456 256.2455 "/>
<path d="M124.7289 268.9465 L124.7289 256.2455 "/>
<path d="M124.7289 268.9465 L116.4456 268.9465 "/>
<path d="M165.1029 60.8157 L165.1029 57.5024 "/>
<path d="M165.1029 57.5024 L170.6251 57.5024 "/>
<path d="M170.6251 60.8157 L165.1029 60.8157 "/>
<path d="M170.6251 57.5024 L170.6251 60.8157 "/>
<path d="M348.3218 39.8246 L351.6351 39.8246 "/>
<path d="M351.6351 39.8246 L351.6351 45.3467 "/>
<path d="M348.3218 45.3467 L348.3218 39.8246 "/>
<path d="M351.6351 45.3467 L348.3218 45.3467 "/>
<path d="M164.6266 55.4454 L164.6266 51.9940 "/>
<path d="M164.6266 51.9940 L170.1488 51.9940 "/>
<path d="M170.1488 55.4454 L164.6266 55.4454 "/>
<path d="M170.1488 51.9940 L170.1488 55.4454 "/>
<path d="M342.7582 39.3621 L346.2095 39.3621 "/>
<path d="M346.2095 39.3621 L346.2095 44.8842 "/>
<path d="M342.7582 44.8842 L342.7582 39.3621 "/>
<path d="M346.2095 44.8842 L342.7582 44.8842 "/>
<path d="M249.6681 256.0384 L249.6681 252.5871 "/>
<path d="M249.6681 252.5871 L255.1903 252.5871 "/>
<path d="M255.1903 256.0384 L249.6681 256.0384 "/>
<path d="M255.1903 252.5871 L255.1903 256.0384 "/>
</g>
<g style="fill:#000084; fill-opacity:0.0;  stroke:#000084; stroke-width:1.0520; stroke-opacity:1;  stroke-linecap:round; stroke-linejoin:round;">
<circle cx="88.9617" cy="265.9369" r="8.2825"/> 
<g>
</g>
<g>
</g>
<g>
</g>
<g>
</g>
<g>
</g>
<g>
</g>
<g>
</g>
<g>
</g>
<g>
</g>
<g>
</g>
<g>
</g>
<g>
</g>
<g>
</g>
<g>
</g>
<g>
</g>
<g>
</g>
<g>
</g>
<g>
</g>
<g>
</g>
<g>
</g>
<g>
</g>
<g>
</g>
<g>
</g>
<g>
</g>
<g>
</g>
<g>
</g>
<g>
</g>
<g>
</g>
<g>
</g>
<g>
</g>
</g> 
<svg:g><svg:g><svg:title>SVG Image created as MPPB01-Edge_Cuts.svg date 2023/07/22 00:17:04 </svg:title>
  <svg:desc>Image generated by PCBNEW </svg:desc>
<svg:g style="fill:#C2C200; fill-opacity:1.0000;stroke:#C2C200; stroke-opacity:1.0000; stroke-linecap:round; stroke-linejoin:round;" transform="translate(0 0) scale(1 1)">
</svg:g>
<svg:g style="fill:#C2C200; fill-opacity:0.0;  stroke:#C2C200; stroke-width:0.0000; stroke-opacity:1;  stroke-linecap:round; stroke-linejoin:round;">
</svg:g>
<svg:g style="fill:#C2C200; fill-opacity:0.0;  stroke:#C2C200; stroke-width:0.2761; stroke-opacity:1;  stroke-linecap:round; stroke-linejoin:round;">
<svg:path d="M76.3381 279.2619 L76.3381 0.1381 "/>
<svg:path d="M355.4619 279.2619 L76.3381 279.2619 "/>
<svg:path d="M76.3381 0.1381 L355.4619 0.1381 "/>
<svg:path d="M355.4619 0.1381 L355.4619 279.2619 "/>
<svg:g>
</svg:g>
<svg:g>
</svg:g>
<svg:g>
</svg:g>
<svg:g>
</svg:g>
<svg:g>
</svg:g>
<svg:g>
</svg:g>
<svg:g>
</svg:g>
<svg:g>
</svg:g>
<svg:g>
</svg:g>
<svg:g>
</svg:g>
<svg:g>
</svg:g>
<svg:g>
</svg:g>
<svg:g>
</svg:g>
<svg:g>
</svg:g>
<svg:g>
</svg:g>
<svg:g>
</svg:g>
<svg:g>
</svg:g>
<svg:g>
</svg:g>
<svg:g>
</svg:g>
<svg:g>
</svg:g>
<svg:g>
</svg:g>
<svg:g>
</svg:g>
<svg:g>
</svg:g>
<svg:g>
</svg:g>
<svg:g>
</svg:g>
<svg:g>
</svg:g>
<svg:g>
</svg:g>
<svg:g>
</svg:g>
<svg:g>
</svg:g>
<svg:g>
</svg:g>
</svg:g> 
</svg:g></svg:g></svg>
