%TF.GenerationSoftware,KiCad,Pcbnew,7.0.5.1-1-g8f565ef7f0-dirty-deb11*%
%TF.CreationDate,2023-07-22T00:16:10+00:00*%
%TF.ProjectId,MPPB01,4d505042-3031-42e6-9b69-6361645f7063,**%
%TF.SameCoordinates,Original*%
%TF.FileFunction,Legend,Top*%
%TF.FilePolarity,Positive*%
%FSLAX46Y46*%
G04 Gerber Fmt 4.6, Leading zero omitted, Abs format (unit mm)*
G04 Created by KiCad (PCBNEW 7.0.5.1-1-g8f565ef7f0-dirty-deb11) date 2023-07-22 00:16:10*
%MOMM*%
%LPD*%
G01*
G04 APERTURE LIST*
%ADD10C,0.200000*%
%ADD11C,0.100000*%
%ADD12C,0.150000*%
%ADD13R,1.524000X1.524000*%
G04 APERTURE END LIST*
D10*
X43948571Y36935162D02*
X43948571Y38935162D01*
X43948571Y38935162D02*
X44615238Y37506591D01*
X44615238Y37506591D02*
X45281904Y38935162D01*
X45281904Y38935162D02*
X45281904Y36935162D01*
X46234285Y36935162D02*
X46234285Y38935162D01*
X46234285Y38935162D02*
X46996190Y38935162D01*
X46996190Y38935162D02*
X47186666Y38839924D01*
X47186666Y38839924D02*
X47281904Y38744686D01*
X47281904Y38744686D02*
X47377142Y38554210D01*
X47377142Y38554210D02*
X47377142Y38268496D01*
X47377142Y38268496D02*
X47281904Y38078020D01*
X47281904Y38078020D02*
X47186666Y37982781D01*
X47186666Y37982781D02*
X46996190Y37887543D01*
X46996190Y37887543D02*
X46234285Y37887543D01*
X48234285Y36935162D02*
X48234285Y38935162D01*
X48234285Y38935162D02*
X48996190Y38935162D01*
X48996190Y38935162D02*
X49186666Y38839924D01*
X49186666Y38839924D02*
X49281904Y38744686D01*
X49281904Y38744686D02*
X49377142Y38554210D01*
X49377142Y38554210D02*
X49377142Y38268496D01*
X49377142Y38268496D02*
X49281904Y38078020D01*
X49281904Y38078020D02*
X49186666Y37982781D01*
X49186666Y37982781D02*
X48996190Y37887543D01*
X48996190Y37887543D02*
X48234285Y37887543D01*
X50900952Y37982781D02*
X51186666Y37887543D01*
X51186666Y37887543D02*
X51281904Y37792305D01*
X51281904Y37792305D02*
X51377142Y37601829D01*
X51377142Y37601829D02*
X51377142Y37316115D01*
X51377142Y37316115D02*
X51281904Y37125639D01*
X51281904Y37125639D02*
X51186666Y37030400D01*
X51186666Y37030400D02*
X50996190Y36935162D01*
X50996190Y36935162D02*
X50234285Y36935162D01*
X50234285Y36935162D02*
X50234285Y38935162D01*
X50234285Y38935162D02*
X50900952Y38935162D01*
X50900952Y38935162D02*
X51091428Y38839924D01*
X51091428Y38839924D02*
X51186666Y38744686D01*
X51186666Y38744686D02*
X51281904Y38554210D01*
X51281904Y38554210D02*
X51281904Y38363734D01*
X51281904Y38363734D02*
X51186666Y38173258D01*
X51186666Y38173258D02*
X51091428Y38078020D01*
X51091428Y38078020D02*
X50900952Y37982781D01*
X50900952Y37982781D02*
X50234285Y37982781D01*
X52615237Y38935162D02*
X52805714Y38935162D01*
X52805714Y38935162D02*
X52996190Y38839924D01*
X52996190Y38839924D02*
X53091428Y38744686D01*
X53091428Y38744686D02*
X53186666Y38554210D01*
X53186666Y38554210D02*
X53281904Y38173258D01*
X53281904Y38173258D02*
X53281904Y37697067D01*
X53281904Y37697067D02*
X53186666Y37316115D01*
X53186666Y37316115D02*
X53091428Y37125639D01*
X53091428Y37125639D02*
X52996190Y37030400D01*
X52996190Y37030400D02*
X52805714Y36935162D01*
X52805714Y36935162D02*
X52615237Y36935162D01*
X52615237Y36935162D02*
X52424761Y37030400D01*
X52424761Y37030400D02*
X52329523Y37125639D01*
X52329523Y37125639D02*
X52234285Y37316115D01*
X52234285Y37316115D02*
X52139047Y37697067D01*
X52139047Y37697067D02*
X52139047Y38173258D01*
X52139047Y38173258D02*
X52234285Y38554210D01*
X52234285Y38554210D02*
X52329523Y38744686D01*
X52329523Y38744686D02*
X52424761Y38839924D01*
X52424761Y38839924D02*
X52615237Y38935162D01*
X55186666Y36935162D02*
X54043809Y36935162D01*
X54615237Y36935162D02*
X54615237Y38935162D01*
X54615237Y38935162D02*
X54424761Y38649448D01*
X54424761Y38649448D02*
X54234285Y38458972D01*
X54234285Y38458972D02*
X54043809Y38363734D01*
X56710476Y37982781D02*
X56996190Y37887543D01*
X56996190Y37887543D02*
X57091428Y37792305D01*
X57091428Y37792305D02*
X57186666Y37601829D01*
X57186666Y37601829D02*
X57186666Y37316115D01*
X57186666Y37316115D02*
X57091428Y37125639D01*
X57091428Y37125639D02*
X56996190Y37030400D01*
X56996190Y37030400D02*
X56805714Y36935162D01*
X56805714Y36935162D02*
X56043809Y36935162D01*
X56043809Y36935162D02*
X56043809Y38935162D01*
X56043809Y38935162D02*
X56710476Y38935162D01*
X56710476Y38935162D02*
X56900952Y38839924D01*
X56900952Y38839924D02*
X56996190Y38744686D01*
X56996190Y38744686D02*
X57091428Y38554210D01*
X57091428Y38554210D02*
X57091428Y38363734D01*
X57091428Y38363734D02*
X56996190Y38173258D01*
X56996190Y38173258D02*
X56900952Y38078020D01*
X56900952Y38078020D02*
X56710476Y37982781D01*
X56710476Y37982781D02*
X56043809Y37982781D01*
X42139047Y33715162D02*
X42139047Y35715162D01*
X42139047Y35715162D02*
X42805714Y34286591D01*
X42805714Y34286591D02*
X43472380Y35715162D01*
X43472380Y35715162D02*
X43472380Y33715162D01*
X45377142Y33715162D02*
X44424761Y33715162D01*
X44424761Y33715162D02*
X44424761Y35715162D01*
X45948571Y34286591D02*
X46900952Y34286591D01*
X45758095Y33715162D02*
X46424761Y35715162D01*
X46424761Y35715162D02*
X47091428Y33715162D01*
X48424762Y34762781D02*
X48710476Y34667543D01*
X48710476Y34667543D02*
X48805714Y34572305D01*
X48805714Y34572305D02*
X48900952Y34381829D01*
X48900952Y34381829D02*
X48900952Y34096115D01*
X48900952Y34096115D02*
X48805714Y33905639D01*
X48805714Y33905639D02*
X48710476Y33810400D01*
X48710476Y33810400D02*
X48520000Y33715162D01*
X48520000Y33715162D02*
X47758095Y33715162D01*
X47758095Y33715162D02*
X47758095Y35715162D01*
X47758095Y35715162D02*
X48424762Y35715162D01*
X48424762Y35715162D02*
X48615238Y35619924D01*
X48615238Y35619924D02*
X48710476Y35524686D01*
X48710476Y35524686D02*
X48805714Y35334210D01*
X48805714Y35334210D02*
X48805714Y35143734D01*
X48805714Y35143734D02*
X48710476Y34953258D01*
X48710476Y34953258D02*
X48615238Y34858020D01*
X48615238Y34858020D02*
X48424762Y34762781D01*
X48424762Y34762781D02*
X47758095Y34762781D01*
X49853333Y33810400D02*
X49853333Y33715162D01*
X49853333Y33715162D02*
X49758095Y33524686D01*
X49758095Y33524686D02*
X49662857Y33429448D01*
X52139048Y35524686D02*
X52234286Y35619924D01*
X52234286Y35619924D02*
X52424762Y35715162D01*
X52424762Y35715162D02*
X52900953Y35715162D01*
X52900953Y35715162D02*
X53091429Y35619924D01*
X53091429Y35619924D02*
X53186667Y35524686D01*
X53186667Y35524686D02*
X53281905Y35334210D01*
X53281905Y35334210D02*
X53281905Y35143734D01*
X53281905Y35143734D02*
X53186667Y34858020D01*
X53186667Y34858020D02*
X52043810Y33715162D01*
X52043810Y33715162D02*
X53281905Y33715162D01*
X54520000Y35715162D02*
X54710477Y35715162D01*
X54710477Y35715162D02*
X54900953Y35619924D01*
X54900953Y35619924D02*
X54996191Y35524686D01*
X54996191Y35524686D02*
X55091429Y35334210D01*
X55091429Y35334210D02*
X55186667Y34953258D01*
X55186667Y34953258D02*
X55186667Y34477067D01*
X55186667Y34477067D02*
X55091429Y34096115D01*
X55091429Y34096115D02*
X54996191Y33905639D01*
X54996191Y33905639D02*
X54900953Y33810400D01*
X54900953Y33810400D02*
X54710477Y33715162D01*
X54710477Y33715162D02*
X54520000Y33715162D01*
X54520000Y33715162D02*
X54329524Y33810400D01*
X54329524Y33810400D02*
X54234286Y33905639D01*
X54234286Y33905639D02*
X54139048Y34096115D01*
X54139048Y34096115D02*
X54043810Y34477067D01*
X54043810Y34477067D02*
X54043810Y34953258D01*
X54043810Y34953258D02*
X54139048Y35334210D01*
X54139048Y35334210D02*
X54234286Y35524686D01*
X54234286Y35524686D02*
X54329524Y35619924D01*
X54329524Y35619924D02*
X54520000Y35715162D01*
X55948572Y35524686D02*
X56043810Y35619924D01*
X56043810Y35619924D02*
X56234286Y35715162D01*
X56234286Y35715162D02*
X56710477Y35715162D01*
X56710477Y35715162D02*
X56900953Y35619924D01*
X56900953Y35619924D02*
X56996191Y35524686D01*
X56996191Y35524686D02*
X57091429Y35334210D01*
X57091429Y35334210D02*
X57091429Y35143734D01*
X57091429Y35143734D02*
X56996191Y34858020D01*
X56996191Y34858020D02*
X55853334Y33715162D01*
X55853334Y33715162D02*
X57091429Y33715162D01*
X57853334Y35524686D02*
X57948572Y35619924D01*
X57948572Y35619924D02*
X58139048Y35715162D01*
X58139048Y35715162D02*
X58615239Y35715162D01*
X58615239Y35715162D02*
X58805715Y35619924D01*
X58805715Y35619924D02*
X58900953Y35524686D01*
X58900953Y35524686D02*
X58996191Y35334210D01*
X58996191Y35334210D02*
X58996191Y35143734D01*
X58996191Y35143734D02*
X58900953Y34858020D01*
X58900953Y34858020D02*
X57758096Y33715162D01*
X57758096Y33715162D02*
X58996191Y33715162D01*
D11*
%TO.C,P11*%
X72577419Y5125715D02*
X71577419Y5125715D01*
X71577419Y5125715D02*
X71577419Y5506667D01*
X71577419Y5506667D02*
X71625038Y5601905D01*
X71625038Y5601905D02*
X71672657Y5649524D01*
X71672657Y5649524D02*
X71767895Y5697143D01*
X71767895Y5697143D02*
X71910752Y5697143D01*
X71910752Y5697143D02*
X72005990Y5649524D01*
X72005990Y5649524D02*
X72053609Y5601905D01*
X72053609Y5601905D02*
X72101228Y5506667D01*
X72101228Y5506667D02*
X72101228Y5125715D01*
X72577419Y6649524D02*
X72577419Y6078096D01*
X72577419Y6363810D02*
X71577419Y6363810D01*
X71577419Y6363810D02*
X71720276Y6268572D01*
X71720276Y6268572D02*
X71815514Y6173334D01*
X71815514Y6173334D02*
X71863133Y6078096D01*
X72577419Y7601905D02*
X72577419Y7030477D01*
X72577419Y7316191D02*
X71577419Y7316191D01*
X71577419Y7316191D02*
X71720276Y7220953D01*
X71720276Y7220953D02*
X71815514Y7125715D01*
X71815514Y7125715D02*
X71863133Y7030477D01*
D12*
%TO.C,P7*%
X47730000Y7580000D02*
X47730000Y2500000D01*
X14710000Y7580000D02*
X47730000Y7580000D01*
X47730000Y2500000D02*
X14710000Y2500000D01*
X14710000Y2500000D02*
X14710000Y7580000D01*
%TD*%
D13*
%TO.C,P7*%
X46460000Y6310000D03*
X46460000Y3770000D03*
X43920000Y6310000D03*
X43920000Y3770000D03*
X41380000Y6310000D03*
X41380000Y3770000D03*
X38840000Y6310000D03*
X38840000Y3770000D03*
X36300000Y6310000D03*
X36300000Y3770000D03*
X33760000Y6310000D03*
X33760000Y3770000D03*
X31220000Y6310000D03*
X31220000Y3770000D03*
X28680000Y6310000D03*
X28680000Y3770000D03*
X26140000Y6310000D03*
X26140000Y3770000D03*
X23600000Y6310000D03*
X23600000Y3770000D03*
X21060000Y6310000D03*
X21060000Y3770000D03*
X18520000Y6310000D03*
X18520000Y3770000D03*
X15980000Y6310000D03*
X15980000Y3770000D03*
%TD*%
M02*
