M48
; DRILL file {KiCad 7.0.5.1-1-g8f565ef7f0-dirty-deb11} date Sat Jul 22 00:16:10 2023
; FORMAT={3:3/ absolute / metric / suppress leading zeros}
; #@! TF.CreationDate,2023-07-22T00:16:10+00:00
; #@! TF.GenerationSoftware,Kicad,Pcbnew,7.0.5.1-1-g8f565ef7f0-dirty-deb11
; #@! TF.FileFunction,Plated,1,2,PTH
FMAT,2
METRIC,TZ
; #@! TA.AperFunction,Plated,PTH,ViaDrill
T1C0.400
; #@! TA.AperFunction,Plated,PTH,ViaDrill
T2C0.600
; #@! TA.AperFunction,Plated,PTH,ComponentDrill
T3C0.740
; #@! TA.AperFunction,Plated,PTH,ComponentDrill
T4C0.800
; #@! TA.AperFunction,Plated,PTH,ComponentDrill
T5C0.889
; #@! TA.AperFunction,Plated,PTH,ComponentDrill
T6C1.000
; #@! TA.AperFunction,Plated,PTH,ComponentDrill
T7C1.350
; #@! TA.AperFunction,Plated,PTH,ComponentDrill
T8C3.000
; #@! TA.AperFunction,Plated,PTH,ComponentDrill
T9C3.175
%
G90
G05
T1
X1270Y67564
X1905Y91440
X2286Y89408
X2794Y68580
X2794Y66040
X2794Y35560
X4064Y89916
X4445Y68580
X4699Y60960
X4699Y55880
X4699Y50800
X4699Y45720
X4699Y40640
X5080Y73000
X5207Y91186
X5537Y81966
X5650Y86780
X6604Y10668
X7468Y73025
X7874Y45720
X7874Y43180
X7874Y40640
X7976Y81991
X8620Y90340
X9855Y76048
X10174Y97914
X10320Y51940
X10363Y81991
X11120Y56040
X11174Y43514
X11220Y87940
X13120Y94040
X13868Y73050
X14351Y81991
X15020Y52040
X15020Y48440
X15174Y97914
X16256Y73050
X16320Y54940
X16474Y43514
X16764Y82017
X19279Y81991
X19431Y73406
X19620Y94040
X20174Y97914
X20420Y46040
X20520Y55140
X21220Y52040
X21574Y43514
X22570Y8290
X22591Y9321
X25174Y97914
X26074Y43514
X26220Y94040
X26289Y59690
X26320Y20290
X26320Y15290
X26320Y13290
X26920Y88940
X27320Y52040
X27320Y9290
X29020Y46040
X29655Y63246
X29655Y60706
X29820Y8790
X30174Y97914
X30420Y11190
X30674Y43514
X30820Y12140
X31820Y11640
X31877Y93980
X32195Y63246
X32195Y60706
X32520Y48840
X32920Y11640
X32920Y8840
X33420Y18240
X33420Y15340
X33909Y46228
X34020Y11640
X34020Y10540
X34671Y91440
X34671Y63246
X34671Y60706
X35174Y97914
X35248Y10779
X35820Y18240
X36274Y44014
X37148Y60706
X37465Y93980
X37920Y21540
X37920Y18240
X38320Y12140
X38735Y97790
X38735Y63500
X38820Y21540
X38820Y15340
X39020Y17540
X39220Y52340
X39374Y41614
X39688Y60706
X40070Y7840
X40120Y17540
X40220Y11740
X40320Y5040
X41120Y16290
X41275Y62730
X41275Y61730
X41300Y17600
X41370Y15040
X41570Y12040
X41920Y85740
X42320Y5040
X42420Y49940
X42570Y7540
X43815Y97790
X43815Y61206
X43815Y60206
X44170Y16290
X44320Y92340
X46120Y59340
X47074Y41714
X48552Y56098
X48552Y55098
X48895Y97790
X48920Y50140
X49530Y73025
X50038Y81915
X50165Y20320
X51720Y85640
X51820Y57740
X51943Y73025
X52451Y81915
X53975Y97790
X54356Y73025
X54442Y41714
X54864Y78867
X54920Y84840
X55245Y20320
X57520Y59440
X57785Y44704
X58293Y73025
X58420Y17780
X58801Y81915
X58864Y94518
X59055Y97790
X59515Y89139
X59571Y95225
X60515Y89139
X60706Y73025
X61003Y56736
X61214Y81915
X61341Y48260
X61595Y53848
X61710Y56029
X61974Y41714
X62865Y93980
X63119Y73025
X63627Y81915
X64135Y97790
X64135Y17145
X64389Y56642
X64797Y66648
X64820Y67840
X65505Y65940
X65559Y64108
X65862Y91034
X65913Y87376
X65913Y60452
X66267Y63400
X68199Y73152
X69215Y97790
X71247Y74676
X71774Y41714
X72274Y85514
X72834Y66866
X72834Y63246
X72834Y60706
X72834Y57023
X73279Y76454
X74041Y69596
X74295Y97790
X74320Y100290
X75311Y78486
X75311Y60706
X75375Y66866
X75375Y63246
X75375Y57023
X77343Y71374
X77851Y66866
X77851Y63246
X77851Y60706
X77851Y57023
X78867Y80010
X78920Y84540
X79629Y73914
X79774Y41714
X80328Y60706
X80328Y57023
X80391Y66866
X80391Y63246
X81070Y75790
X82868Y66866
X82868Y63246
X82868Y60706
X82868Y57023
X83130Y41710
X83774Y45614
X84620Y15640
X85974Y85314
X86120Y15640
X86995Y13970
X87074Y59439
X87374Y72514
X87374Y66814
X87574Y54514
X87574Y49414
X87774Y36114
X88020Y78040
X89535Y97790
X89570Y100290
X90674Y83814
X90674Y78914
X90674Y73914
X90674Y68914
X92012Y13970
X93574Y59114
X93574Y51214
X93574Y42014
X98774Y57414
X98849Y53414
X98849Y49414
X98849Y45414
X98874Y42014
X98874Y37714
X99674Y77114
X99674Y73114
X99674Y68614
X99674Y27714
X99674Y24114
X99695Y91440
X99695Y20320
X99774Y86614
T2
X2159Y59944
X2159Y58928
X2159Y57912
X3175Y59944
X3175Y58928
X3175Y57912
T3
X75057Y83058
X76327Y81558
X77597Y81558
X78867Y83058
X80137Y81558
X81407Y81558
X82677Y83058
T4
X3165Y81490
X3165Y79460
X3165Y75470
X3165Y72230
X20965Y81490
X20965Y79460
X20965Y75470
X20965Y71230
X47615Y81490
X47615Y79460
X47615Y75470
X47615Y72230
X65415Y81490
X65415Y79460
X65415Y75470
X65415Y71230
T5
X15980Y6310
X15980Y3770
X18520Y6310
X18520Y3770
X21060Y6310
X21060Y3770
X23600Y6310
X23600Y3770
X26140Y6310
X26140Y3770
X28680Y6310
X28680Y3770
X31220Y6310
X31220Y3770
X33760Y6310
X33760Y3770
X36300Y6310
X36300Y3770
X38840Y6310
X38840Y3770
X41380Y6310
X41380Y3770
X43920Y6310
X43920Y3770
X46460Y6310
X46460Y3770
X59740Y6310
X59740Y3770
X62280Y6310
X62280Y3770
X64820Y6310
X64820Y3770
X67360Y6310
X67360Y3770
X69900Y6310
X69900Y3770
X75480Y6310
X75480Y3770
X78020Y6310
X78020Y3770
X80560Y6310
X80560Y3770
T6
X4608Y18390
X4608Y12090
X9108Y18390
X9108Y12090
T7
X72307Y80558
X85137Y81558
T8
X5080Y96520
X5080Y5080
X96520Y96520
X96774Y5080
T9
X16510Y63500
X16510Y15240
X96520Y63500
X96520Y15240
T0
M30
