%TF.GenerationSoftware,KiCad,Pcbnew,7.0.5.1-1-g8f565ef7f0-dirty-deb11*%
%TF.CreationDate,2023-07-22T00:16:10+00:00*%
%TF.ProjectId,MPPB01,4d505042-3031-42e6-9b69-6361645f7063,**%
%TF.SameCoordinates,Original*%
%TF.FileFunction,Soldermask,Bot*%
%TF.FilePolarity,Negative*%
%FSLAX46Y46*%
G04 Gerber Fmt 4.6, Leading zero omitted, Abs format (unit mm)*
G04 Created by KiCad (PCBNEW 7.0.5.1-1-g8f565ef7f0-dirty-deb11) date 2023-07-22 00:16:10*
%MOMM*%
%LPD*%
G01*
G04 APERTURE LIST*
G04 Aperture macros list*
%AMRoundRect*
0 Rectangle with rounded corners*
0 $1 Rounding radius*
0 $2 $3 $4 $5 $6 $7 $8 $9 X,Y pos of 4 corners*
0 Add a 4 corners polygon primitive as box body*
4,1,4,$2,$3,$4,$5,$6,$7,$8,$9,$2,$3,0*
0 Add four circle primitives for the rounded corners*
1,1,$1+$1,$2,$3*
1,1,$1+$1,$4,$5*
1,1,$1+$1,$6,$7*
1,1,$1+$1,$8,$9*
0 Add four rect primitives between the rounded corners*
20,1,$1+$1,$2,$3,$4,$5,0*
20,1,$1+$1,$4,$5,$6,$7,0*
20,1,$1+$1,$6,$7,$8,$9,0*
20,1,$1+$1,$8,$9,$2,$3,0*%
G04 Aperture macros list end*
%ADD10RoundRect,0.200000X-3.175000X-3.175000X3.175000X-3.175000X3.175000X3.175000X-3.175000X3.175000X0*%
%ADD11RoundRect,0.200000X-0.762000X0.762000X-0.762000X-0.762000X0.762000X-0.762000X0.762000X0.762000X0*%
%ADD12C,1.416000*%
%ADD13RoundRect,0.200000X-0.152400X-0.723900X0.152400X-0.723900X0.152400X0.723900X-0.152400X0.723900X0*%
%ADD14RoundRect,0.200000X0.152400X0.723900X-0.152400X0.723900X-0.152400X-0.723900X0.152400X-0.723900X0*%
%ADD15C,1.950000*%
%ADD16O,0.750000X2.200000*%
%ADD17O,1.500000X1.700000*%
%ADD18C,2.900000*%
%ADD19C,6.400000*%
%ADD20RoundRect,0.443750X0.456250X-0.243750X0.456250X0.243750X-0.456250X0.243750X-0.456250X-0.243750X0*%
%ADD21RoundRect,0.450000X-1.075000X0.375000X-1.075000X-0.375000X1.075000X-0.375000X1.075000X0.375000X0*%
%ADD22RoundRect,0.200000X-0.900000X1.250000X-0.900000X-1.250000X0.900000X-1.250000X0.900000X1.250000X0*%
%ADD23RoundRect,0.443750X0.243750X0.456250X-0.243750X0.456250X-0.243750X-0.456250X0.243750X-0.456250X0*%
%ADD24RoundRect,0.443750X-0.456250X0.243750X-0.456250X-0.243750X0.456250X-0.243750X0.456250X0.243750X0*%
%ADD25RoundRect,0.450000X0.350000X0.450000X-0.350000X0.450000X-0.350000X-0.450000X0.350000X-0.450000X0*%
%ADD26RoundRect,0.450000X-0.450000X0.350000X-0.450000X-0.350000X0.450000X-0.350000X0.450000X0.350000X0*%
%ADD27RoundRect,0.200000X-0.838200X0.838200X-0.838200X-0.838200X0.838200X-0.838200X0.838200X0.838200X0*%
%ADD28RoundRect,0.200000X0.762000X-0.762000X0.762000X0.762000X-0.762000X0.762000X-0.762000X-0.762000X0*%
G04 APERTURE END LIST*
D10*
%TO.C,MH1*%
X16510000Y63500000D03*
%TD*%
%TO.C,MH2*%
X96520000Y15240000D03*
%TD*%
%TO.C,MH3*%
X96520000Y63500000D03*
%TD*%
%TO.C,MH4*%
X16510000Y15240000D03*
%TD*%
D11*
%TO.C,P7*%
X46460000Y6310000D03*
X46460000Y3770000D03*
X43920000Y6310000D03*
X43920000Y3770000D03*
X41380000Y6310000D03*
X41380000Y3770000D03*
X38840000Y6310000D03*
X38840000Y3770000D03*
X36300000Y6310000D03*
X36300000Y3770000D03*
X33760000Y6310000D03*
X33760000Y3770000D03*
X31220000Y6310000D03*
X31220000Y3770000D03*
X28680000Y6310000D03*
X28680000Y3770000D03*
X26140000Y6310000D03*
X26140000Y3770000D03*
X23600000Y6310000D03*
X23600000Y3770000D03*
X21060000Y6310000D03*
X21060000Y3770000D03*
X18520000Y6310000D03*
X18520000Y3770000D03*
X15980000Y6310000D03*
X15980000Y3770000D03*
%TD*%
D12*
%TO.C,P1*%
X44165520Y64008000D03*
X25684480Y64008000D03*
D13*
X42179240Y65062100D03*
D14*
X42179240Y58889900D03*
D13*
X41678840Y65062100D03*
D14*
X41678840Y58889900D03*
D13*
X41178440Y65062100D03*
D14*
X41178440Y58889900D03*
D13*
X40678140Y65062100D03*
D14*
X40678140Y58889900D03*
D13*
X40177740Y65062100D03*
D14*
X40177740Y58889900D03*
D13*
X39677340Y65062100D03*
D14*
X39677340Y58889900D03*
D13*
X39176940Y65062100D03*
D14*
X39176940Y58889900D03*
D13*
X38676540Y65062100D03*
D14*
X38676540Y58889900D03*
D13*
X38176240Y65062100D03*
D14*
X38176240Y58889900D03*
D13*
X37675840Y65062100D03*
D14*
X37675840Y58889900D03*
D13*
X37175440Y65062100D03*
D14*
X37175440Y58889900D03*
D13*
X36675040Y65062100D03*
D14*
X36675040Y58889900D03*
D13*
X36174640Y65062100D03*
D14*
X36174640Y58889900D03*
D13*
X35674340Y65062100D03*
D14*
X35674340Y58889900D03*
D13*
X35173940Y65062100D03*
D14*
X35173940Y58889900D03*
D13*
X34673540Y65062100D03*
D14*
X34673540Y58889900D03*
D13*
X34173140Y65062100D03*
D14*
X34173140Y58889900D03*
D13*
X33672740Y65062100D03*
D14*
X33672740Y58889900D03*
D13*
X33172440Y65062100D03*
D14*
X33172440Y58889900D03*
D13*
X32672040Y65062100D03*
D14*
X32672040Y58889900D03*
D13*
X32171640Y65062100D03*
D14*
X32171640Y58889900D03*
D13*
X31671240Y65062100D03*
D14*
X31671240Y58889900D03*
D13*
X31170840Y65062100D03*
D14*
X31170840Y58889900D03*
D13*
X30670540Y65062100D03*
D14*
X30670540Y58889900D03*
D13*
X30170140Y65062100D03*
D14*
X30170140Y58889900D03*
D13*
X29669740Y65062100D03*
D14*
X29669740Y58889900D03*
D13*
X29169340Y65062100D03*
D14*
X29169340Y58889900D03*
D13*
X28668940Y65062100D03*
D14*
X28668940Y58889900D03*
D13*
X28168640Y65062100D03*
D14*
X28168640Y58889900D03*
D13*
X27668240Y65062100D03*
D14*
X27668240Y58889900D03*
%TD*%
D12*
%TO.C,P2*%
X87345520Y64008000D03*
X68864480Y64008000D03*
D13*
X85359240Y65062100D03*
D14*
X85359240Y58889900D03*
D13*
X84858840Y65062100D03*
D14*
X84858840Y58889900D03*
D13*
X84358440Y65062100D03*
D14*
X84358440Y58889900D03*
D13*
X83858140Y65062100D03*
D14*
X83858140Y58889900D03*
D13*
X83357740Y65062100D03*
D14*
X83357740Y58889900D03*
D13*
X82857340Y65062100D03*
D14*
X82857340Y58889900D03*
D13*
X82356940Y65062100D03*
D14*
X82356940Y58889900D03*
D13*
X81856540Y65062100D03*
D14*
X81856540Y58889900D03*
D13*
X81356240Y65062100D03*
D14*
X81356240Y58889900D03*
D13*
X80855840Y65062100D03*
D14*
X80855840Y58889900D03*
D13*
X80355440Y65062100D03*
D14*
X80355440Y58889900D03*
D13*
X79855040Y65062100D03*
D14*
X79855040Y58889900D03*
D13*
X79354640Y65062100D03*
D14*
X79354640Y58889900D03*
D13*
X78854340Y65062100D03*
D14*
X78854340Y58889900D03*
D13*
X78353940Y65062100D03*
D14*
X78353940Y58889900D03*
D13*
X77853540Y65062100D03*
D14*
X77853540Y58889900D03*
D13*
X77353140Y65062100D03*
D14*
X77353140Y58889900D03*
D13*
X76852740Y65062100D03*
D14*
X76852740Y58889900D03*
D13*
X76352440Y65062100D03*
D14*
X76352440Y58889900D03*
D13*
X75852040Y65062100D03*
D14*
X75852040Y58889900D03*
D13*
X75351640Y65062100D03*
D14*
X75351640Y58889900D03*
D13*
X74851240Y65062100D03*
D14*
X74851240Y58889900D03*
D13*
X74350840Y65062100D03*
D14*
X74350840Y58889900D03*
D13*
X73850540Y65062100D03*
D14*
X73850540Y58889900D03*
D13*
X73350140Y65062100D03*
D14*
X73350140Y58889900D03*
D13*
X72849740Y65062100D03*
D14*
X72849740Y58889900D03*
D13*
X72349340Y65062100D03*
D14*
X72349340Y58889900D03*
D13*
X71848940Y65062100D03*
D14*
X71848940Y58889900D03*
D13*
X71348640Y65062100D03*
D14*
X71348640Y58889900D03*
D13*
X70848240Y65062100D03*
D14*
X70848240Y58889900D03*
%TD*%
D12*
%TO.C,P3*%
X44165520Y18796000D03*
X25684480Y18796000D03*
D13*
X42179240Y19850100D03*
D14*
X42179240Y13677900D03*
D13*
X41678840Y19850100D03*
D14*
X41678840Y13677900D03*
D13*
X41178440Y19850100D03*
D14*
X41178440Y13677900D03*
D13*
X40678140Y19850100D03*
D14*
X40678140Y13677900D03*
D13*
X40177740Y19850100D03*
D14*
X40177740Y13677900D03*
D13*
X39677340Y19850100D03*
D14*
X39677340Y13677900D03*
D13*
X39176940Y19850100D03*
D14*
X39176940Y13677900D03*
D13*
X38676540Y19850100D03*
D14*
X38676540Y13677900D03*
D13*
X38176240Y19850100D03*
D14*
X38176240Y13677900D03*
D13*
X37675840Y19850100D03*
D14*
X37675840Y13677900D03*
D13*
X37175440Y19850100D03*
D14*
X37175440Y13677900D03*
D13*
X36675040Y19850100D03*
D14*
X36675040Y13677900D03*
D13*
X36174640Y19850100D03*
D14*
X36174640Y13677900D03*
D13*
X35674340Y19850100D03*
D14*
X35674340Y13677900D03*
D13*
X35173940Y19850100D03*
D14*
X35173940Y13677900D03*
D13*
X34673540Y19850100D03*
D14*
X34673540Y13677900D03*
D13*
X34173140Y19850100D03*
D14*
X34173140Y13677900D03*
D13*
X33672740Y19850100D03*
D14*
X33672740Y13677900D03*
D13*
X33172440Y19850100D03*
D14*
X33172440Y13677900D03*
D13*
X32672040Y19850100D03*
D14*
X32672040Y13677900D03*
D13*
X32171640Y19850100D03*
D14*
X32171640Y13677900D03*
D13*
X31671240Y19850100D03*
D14*
X31671240Y13677900D03*
D13*
X31170840Y19850100D03*
D14*
X31170840Y13677900D03*
D13*
X30670540Y19850100D03*
D14*
X30670540Y13677900D03*
D13*
X30170140Y19850100D03*
D14*
X30170140Y13677900D03*
D13*
X29669740Y19850100D03*
D14*
X29669740Y13677900D03*
D13*
X29169340Y19850100D03*
D14*
X29169340Y13677900D03*
D13*
X28668940Y19850100D03*
D14*
X28668940Y13677900D03*
D13*
X28168640Y19850100D03*
D14*
X28168640Y13677900D03*
D13*
X27668240Y19850100D03*
D14*
X27668240Y13677900D03*
%TD*%
D12*
%TO.C,P4*%
X87345520Y18796000D03*
X68864480Y18796000D03*
D13*
X85359240Y19850100D03*
D14*
X85359240Y13677900D03*
D13*
X84858840Y19850100D03*
D14*
X84858840Y13677900D03*
D13*
X84358440Y19850100D03*
D14*
X84358440Y13677900D03*
D13*
X83858140Y19850100D03*
D14*
X83858140Y13677900D03*
D13*
X83357740Y19850100D03*
D14*
X83357740Y13677900D03*
D13*
X82857340Y19850100D03*
D14*
X82857340Y13677900D03*
D13*
X82356940Y19850100D03*
D14*
X82356940Y13677900D03*
D13*
X81856540Y19850100D03*
D14*
X81856540Y13677900D03*
D13*
X81356240Y19850100D03*
D14*
X81356240Y13677900D03*
D13*
X80855840Y19850100D03*
D14*
X80855840Y13677900D03*
D13*
X80355440Y19850100D03*
D14*
X80355440Y13677900D03*
D13*
X79855040Y19850100D03*
D14*
X79855040Y13677900D03*
D13*
X79354640Y19850100D03*
D14*
X79354640Y13677900D03*
D13*
X78854340Y19850100D03*
D14*
X78854340Y13677900D03*
D13*
X78353940Y19850100D03*
D14*
X78353940Y13677900D03*
D13*
X77853540Y19850100D03*
D14*
X77853540Y13677900D03*
D13*
X77353140Y19850100D03*
D14*
X77353140Y13677900D03*
D13*
X76852740Y19850100D03*
D14*
X76852740Y13677900D03*
D13*
X76352440Y19850100D03*
D14*
X76352440Y13677900D03*
D13*
X75852040Y19850100D03*
D14*
X75852040Y13677900D03*
D13*
X75351640Y19850100D03*
D14*
X75351640Y13677900D03*
D13*
X74851240Y19850100D03*
D14*
X74851240Y13677900D03*
D13*
X74350840Y19850100D03*
D14*
X74350840Y13677900D03*
D13*
X73850540Y19850100D03*
D14*
X73850540Y13677900D03*
D13*
X73350140Y19850100D03*
D14*
X73350140Y13677900D03*
D13*
X72849740Y19850100D03*
D14*
X72849740Y13677900D03*
D13*
X72349340Y19850100D03*
D14*
X72349340Y13677900D03*
D13*
X71848940Y19850100D03*
D14*
X71848940Y13677900D03*
D13*
X71348640Y19850100D03*
D14*
X71348640Y13677900D03*
D13*
X70848240Y19850100D03*
D14*
X70848240Y13677900D03*
%TD*%
D15*
%TO.C,P5*%
X48515000Y77469995D03*
X64515000Y77469995D03*
X47615000Y72229995D03*
X47615000Y75469995D03*
X47615000Y79459995D03*
X47615000Y81489995D03*
X65415000Y71229995D03*
X65415000Y75469995D03*
X65415000Y79459995D03*
X65415000Y81489995D03*
D16*
X49915000Y80369995D03*
X50715000Y80369995D03*
X51515000Y80369995D03*
X52315000Y80369995D03*
X53115000Y80369995D03*
X53915000Y80369995D03*
X54715000Y80369995D03*
X55515000Y80369995D03*
X56315000Y80369995D03*
X57115000Y80369995D03*
X57915000Y80369995D03*
X58715000Y80369995D03*
X59515000Y80369995D03*
X60315000Y80369995D03*
X61115000Y80369995D03*
X61915000Y80369995D03*
X62715000Y80369995D03*
X63515000Y80369995D03*
X49515000Y74559995D03*
X50315000Y74559995D03*
X51115000Y74559995D03*
X51915000Y74559995D03*
X52715000Y74559995D03*
X53515000Y74559995D03*
X54315000Y74559995D03*
X55115000Y74559995D03*
X55915000Y74559995D03*
X56715000Y74559995D03*
X57515000Y74559995D03*
X58315000Y74559995D03*
X59115000Y74559995D03*
X59915000Y74559995D03*
X60715000Y74559995D03*
X61515000Y74559995D03*
X62315000Y74559995D03*
X63115000Y74559995D03*
%TD*%
D11*
%TO.C,P9*%
X75480000Y6310000D03*
X75480000Y3770000D03*
X78020000Y6310000D03*
X78020000Y3770000D03*
X80560000Y6310000D03*
X80560000Y3770000D03*
%TD*%
D15*
%TO.C,P6*%
X4065000Y77469995D03*
X20065000Y77469995D03*
X3165000Y72229995D03*
X3165000Y75469995D03*
X3165000Y79459995D03*
X3165000Y81489995D03*
X20965000Y71229995D03*
X20965000Y75469995D03*
X20965000Y79459995D03*
X20965000Y81489995D03*
D16*
X5465000Y80369995D03*
X6265000Y80369995D03*
X7065000Y80369995D03*
X7865000Y80369995D03*
X8665000Y80369995D03*
X9465000Y80369995D03*
X10265000Y80369995D03*
X11065000Y80369995D03*
X11865000Y80369995D03*
X12665000Y80369995D03*
X13465000Y80369995D03*
X14265000Y80369995D03*
X15065000Y80369995D03*
X15865000Y80369995D03*
X16665000Y80369995D03*
X17465000Y80369995D03*
X18265000Y80369995D03*
X19065000Y80369995D03*
X5065000Y74559995D03*
X5865000Y74559995D03*
X6665000Y74559995D03*
X7465000Y74559995D03*
X8265000Y74559995D03*
X9065000Y74559995D03*
X9865000Y74559995D03*
X10665000Y74559995D03*
X11465000Y74559995D03*
X12265000Y74559995D03*
X13065000Y74559995D03*
X13865000Y74559995D03*
X14665000Y74559995D03*
X15465000Y74559995D03*
X16265000Y74559995D03*
X17065000Y74559995D03*
X17865000Y74559995D03*
X18665000Y74559995D03*
%TD*%
D17*
%TO.C,P10*%
X82677000Y83058000D03*
X81407000Y81558000D03*
X80137000Y81558000D03*
X78867000Y83058000D03*
X77597000Y81558000D03*
X76327000Y81558000D03*
X75057000Y83058000D03*
D18*
X72307000Y80558000D03*
X85137000Y81558000D03*
%TD*%
D19*
%TO.C,MH5*%
X5080000Y96520000D03*
%TD*%
%TO.C,MH6*%
X96520000Y96520000D03*
%TD*%
%TO.C,MH8*%
X5080000Y5080000D03*
%TD*%
D20*
%TO.C,C1*%
X89220000Y8302500D03*
X89220000Y10177500D03*
%TD*%
D21*
%TO.C,C2*%
X89220000Y6340000D03*
X89220000Y3540000D03*
%TD*%
D22*
%TO.C,D1*%
X85320000Y8290000D03*
X85320000Y4290000D03*
%TD*%
D23*
%TO.C,C3*%
X69135000Y79970000D03*
X67260000Y79970000D03*
%TD*%
D24*
%TO.C,C4*%
X2240000Y86910000D03*
X2240000Y85035000D03*
%TD*%
D25*
%TO.C,R1*%
X69370000Y81940000D03*
X67370000Y81940000D03*
%TD*%
D26*
%TO.C,R2*%
X4230000Y87140000D03*
X4230000Y85140000D03*
%TD*%
D27*
%TO.C,SW1*%
X4608000Y18390000D03*
X4608000Y12090000D03*
X9108000Y18390000D03*
X9108000Y12090000D03*
%TD*%
D25*
%TO.C,R3*%
X38570000Y9290000D03*
X36570000Y9290000D03*
%TD*%
D19*
%TO.C,MH7*%
X96774000Y5080000D03*
%TD*%
D28*
%TO.C,P11*%
X69900000Y3770000D03*
X69900000Y6310000D03*
X67360000Y3770000D03*
X67360000Y6310000D03*
X64820000Y3770000D03*
X64820000Y6310000D03*
X62280000Y3770000D03*
X62280000Y6310000D03*
X59740000Y3770000D03*
X59740000Y6310000D03*
%TD*%
M02*
